<?xml version="1.0" encoding="utf-8"?>
<!-- Generator: Adobe Illustrator 19.2.1, SVG Export Plug-In . SVG Version: 6.00 Build 0)  -->
<svg version="1.1" id="Layer_1" xmlns="http://www.w3.org/2000/svg" xmlns:xlink="http://www.w3.org/1999/xlink" x="0px" y="0px"
	 viewBox="0 0 100 125" style="enable-background:new 0 0 100 125;" xml:space="preserve">
<style type="text/css">
	.st0{fill:#010202;}
</style>
<path class="st0" d="M78.1,52.9c0-1.3,0-2.6,0-3.9c0-0.6,0.1-1.7-0.1-2.5c2.3-1.7,4.8-3.3,7.4-4.7c0.1,0,0.1,0,0.2,0
	c0.7,0,0.9-0.7,0.6-1.2c-0.2-0.4-0.6-0.7-1.1-0.4c-0.1,0-0.1,0.1-0.2,0.1c-2.3,0.1-4.7,0.1-7,0.2c0-0.1,0.1-0.2,0.1-0.3
	c0-2.1-0.4-4.2-1-6.2c2.9-2.5,5.9-4.9,9-7.2c0.8-0.6,0-2-0.8-1.4c-0.3,0.2-0.6,0.5-1,0.7h-0.1c-2.8,1.4-5.7,2.8-8.7,3.9
	c-0.7-1.2-1.4-2.4-2.1-3.6c-0.4-0.6-0.8-1-1.3-1.3c1-3.6,2-7.2,3-10.8c0.1-0.3,0-0.5-0.2-0.7c0.6-0.7-0.4-1.8-1.1-1.1
	c-1.9,1.9-3.4,4.2-5,6.3c-0.7,0.9-1.4,1.7-2.2,2.6c-0.6-0.7-1.9-1.1-2.6-1.4c-1.5-0.6-3-0.9-4.5-1.1c-0.1,0-0.1,0-0.1,0
	C58.5,15.3,58,11.7,57.6,8c0-0.1,0.1-0.2,0.1-0.3C58.1,6.9,57,6.5,56.5,7C56.2,7.1,56,7.3,56,7.7v0.1c-1.5,3.7-3.1,7.4-4.7,11
	c-2.2-0.1-4.7,0.1-6.9,0.5c-1.8-3-4.4-6.1-5.4-9.3l0,0c0-0.3,0.2-0.5,0-0.6c0-0.1,0.1-0.2,0-0.3c-0.4-0.9-1.8-0.5-1.4,0.4
	c0.1,0.2,0.3,0.5,0.4,0.7c-0.3,3.7-0.4,7.5-0.7,11.3c-2.1,0.9-4,2.1-5.7,3.6c-0.2,0.2-0.3,0.4-0.2,0.7c-3.5-1.3-7-2.5-10.5-3.8
	c-0.1-0.1-0.3-0.3-0.4-0.4c-0.7-0.7-1.8,0.4-1.1,1.1l0,0c0.1,0.2,0.2,0.5,0.5,0.6c0.1,0,0.1,0,0.2,0.1c3.1,3,6,6.1,8.8,9.3
	c-0.4-0.1-0.8,0.1-1,0.5c-0.5,1.3-0.9,2.7-1.2,4c-1.3,0.3-2.7,0.5-4,0.6c-1,0.1-2.7,0.5-3.9,0.3c-0.1-0.1-0.2-0.2-0.4-0.2h-0.1
	c-0.3-0.1-0.7,0-0.9,0.4c0,0,0,0.1-0.1,0.1c0,0.1,0,0.2-0.1,0.2c-0.2,0.3-0.2,0.6,0.1,0.9c1.1,1.2,2.7,1.6,4.1,2.4
	c1.3,0.8,2.4,1.7,3.6,2.7c-0.3,1.9-0.5,3.7-0.6,5.6c-2.2,0.6-4.2,1.6-6,2.9c-2.3,1.2-4.8,3.2-6,5.5c-0.1,0.1-0.1,0.1-0.1,0.2
	c-0.4,0.7-0.6,1.4-0.7,2.1c-0.2,1.1,0,2.1,0.5,3c0.2,1,0.6,1.9,1.4,2.8c2.2,2.7,5.4,2.7,8.5,3.1c-1.4,0.7-2.7,1.8-2,3.1
	c0.8,1.5,2.9,0.8,4.4,0c-0.2,0.9-0.3,1.9-0.4,2.9c0,0.6,0.7,0.9,1.2,0.7c1.1-0.5,2-1.2,2.8-1.9c0.1,0.6,0.2,1.1,0.3,1.7
	c0.1,0.9,1.2,0.6,1.5,0c0.4-0.9,0.4-1.8,0.2-2.5c0.1,0,0.1,0,0.2,0.1c0.2,0.1,0.4,0.1,0.5,0c3,1.7,6.3,2.8,9.6,3.5
	c0.1,0.1,0.3,0.1,0.4,0.2c-0.2,2.9-0.5,5.9-0.7,8.8c-2.5-0.6-5.8-1.1-7.8,0.5c-2.1,1.7-2.2,4.7-1.6,7c0.1,0.3,0.4,0.6,0.8,0.6
	c1.8-0.2,3.6-0.4,5.4-0.5c1.6-0.1,4.1,0.4,5.6-0.1c1.6-0.6,1.3-1,1.4-2.9c0.2-4.1,0.4-8.4,0.4-12.5c0-0.2,0-0.2,0-0.4
	c3.5,0.4,7,0.4,10.5,0.3c1.1,0,2.3-0.1,3.4-0.1c-0.1,2.2-0.3,4.4-0.4,6.7c-0.1,1.9-0.9,5.1-0.6,7.1c-0.4,0.4,0,1.1,0.5,1.2
	c0.1,0,0.1,0.1,0.2,0.1c0.1,0.2,0.3,0.4,0.6,0.4c1.9-0.1,3.8-0.1,5.7-0.2c1.3,0,3,0.2,4.3-0.1c0.1,0,0.3-0.1,0.4-0.2l0,0
	c0.1,0,0.1-0.1,0.2-0.1c0.3,0.6,1.4,0.4,1.5-0.4c0.2-2.7-0.3-5.4-3.2-6.2c-2.1-0.5-4.2-0.5-6,0.4c0.1-3,0.2-6,0.2-8.9
	c3.7-0.4,7.3-1.1,10.6-2.6c0.2,0.6,0.5,1.1,1,1.5c0.3,0.3,0.8,0.3,1.1,0c0.5-0.5,0.8-1.1,1.1-1.7c0.6,0.6,1.2,1.1,2.1,1.5
	c0.5,0.3,1.2-0.1,1.2-0.7c0-0.8,0-1.6-0.1-2.3c1,0.1,1.9,0.1,3-0.1c0.4-0.1,0.7-0.6,0.5-1c-0.1-0.4-0.1-0.8-0.2-1.2
	c3.1-1.7,5.8-3.7,6.5-4.4C93.2,61.6,82.8,55.7,78.1,52.9z M24.2,66.9c-1.5-0.4-3.1-0.4-4.5-0.9c-3.2-1-3.5-3.9-2.8-6.5
	c2-2.4,4.4-4,7.4-5.1c0,0.9,0,1.7,0,2.6c0,0,0,0,0,0.1c-0.1,3.5,0.3,7.1,1.2,10.3C25.1,67.2,24.6,67,24.2,66.9z M47.5,71.6
	c0.8,0.3,1.8,0.4,2.7,0.4c2.3,0.1,4.5-0.4,6.6-1.4c-1.3,1.3-2.8,2.4-4.6,2.6C50.6,73.3,48.8,72.8,47.5,71.6z M41.7,55.8
	c0.1-0.1,0.1-0.2,0.1-0.4s0.1-0.4,0.1-0.6c0.5-1.8,1.7-3.5,3.6-5.1c0.1-0.1,0.2-0.2,0.2-0.3C49.3,47,54.6,46.8,58,49
	c2.6,1.7,4,4.9,4.8,7.8c0.9,3.6-0.9,6.7-3.7,8.9C50.6,72.4,40.2,64,41.7,55.8z M83.3,65.3c-0.1,0-0.1,0.1-0.2,0.1
	c-2.3,1.2-4.6,2.2-7,3.1c0.7-2.1,1.2-4.2,1.5-6.4c0.2-1.2,0.2-2.5,0.3-3.7c1.4,0.7,2.7,1.5,3.9,2.5c0.8,0.6,1.5,1.2,2.1,1.9
	c0.2,0.2,0.8,0.6,0.8,0.9C85,64.5,83.8,65,83.3,65.3z"/>
<path class="st0" d="M56.7,48.4c-0.1,0-0.2-0.1-0.2-0.1c-0.9-0.2-1.8,0-2.5,0.6c-0.2,0.1-0.3,0.2-0.4,0.4c-1.6,1.7-2.2,5.1-0.4,6.4
	c0.3,0.5,0.7,0.8,1.2,1.1c0.3,0.2,0.6,0.3,1,0.3c0,0,0,0,0.1,0c4.3,0.8,6.4-5.4,3.3-7.7C58.3,48.9,57.6,48.5,56.7,48.4 M55,50.9"/>
</svg>
