<svg id="Objects" xmlns="http://www.w3.org/2000/svg" viewBox="0 0 178.9 141.27"><defs><style>.cls-1{fill:#62dddd;}</style></defs><title>Big Ears</title><path d="M688.38,373.72C673,376.21,654,385.67,650.84,402.47q-13.58-2.25-27.27-3.69c-2.88-.3-5.88-0.65-8.93-0.93-0.81-14.76-13.9-29.69-26.31-36.26-15.22-8-34.51,0-41.17,15.24-0.37.84-.41,1.88,0.73,2,14.86,1.8,32.87-4.11,44.78,7.81,3,3,4.5,7.81,6.65,11.14a37.59,37.59,0,0,0-4.39.8c-6.58,1.64-9.47,7.14-10.87,13.16-6.21-3.52-24.81-12-27.59-1.85-2.73,10,19.73,9.88,25.32,11.56a1.35,1.35,0,0,0,.64,0c-0.49,3.65-.85,7.33-1.08,11-5.49-.74-28.5.51-25.27,8.72,2.35,6,12.79,4.7,17.53,4.15a13.65,13.65,0,0,0,7.5-2.78c0,2,.09,4.08.22,6.11s0.42,4.17.76,6.24a0.82,0.82,0,0,0,1,.81h0a98.94,98.94,0,0,0,12,.72c5.42,0,4.17,8,3.73,11.34-0.73,5.52-2.15,10.92-2.92,16.44-0.53,3.77-1,8.36,1.58,11.5,5.89,7.23,9.11-9.09,9.5-11.87,0.79-5.61,1.08-11.29,1.4-16.94,0.17-3.1-.06-6.76.54-10,8,0.92,16.08,1.52,23.85,3.57,4.67,1.23,4.16,5.63,4,9.82-0.21,5.76-1.2,11.46-1.19,17.23a15.11,15.11,0,0,0,4.62,11.12c3,2.79,7.17-1.08,8.11-4,1.09-3.41-.51-8.2-0.9-11.65-0.91-8.05-.27-16.36-0.11-24.49,6.38,2.1,16.13,5,21.28.94,3.13-2.47,4.59-6.55,5.37-10.84A38.11,38.11,0,0,0,689.7,454c4.95,0.47,10.61-2.6,10.56-8.14-0.08-8.63-19.73-7-25.3-7,0-.4.06-0.8,0.09-1.19,0.06-.74.14-1.49,0.21-2.25a121.8,121.8,0,0,0,12.61-3.27c3.7-1.29,9.13-3.52,10-7.91s-3.23-6.71-7.1-6.06c-5.39.91-9.49,5.44-14.53,7.1a29.7,29.7,0,0,0-1.49-11.65,12.68,12.68,0,0,0-6.47-6.92,2.1,2.1,0,0,0,.45-0.61c9.36-19.19,37.65-16.95,54.79-12,1.26,0.36,2.51-1.15,2.34-2.33C723.34,373.83,703,371.37,688.38,373.72Zm-22.35,32c-0.54-.21-1.1-0.39-1.66-0.57l1.75,0.3A2.59,2.59,0,0,0,666,405.73Z" transform="translate(-546.93 -358.42)"/><path class="cls-1" d="M597,410.83c-2.37,4.74-5.93,19-3.56,23.7,4,7.9,25.28,8.3,32.39,9.09,7.9,0.79,19.36,4.35,26.86,2.77s-1.51-23.88-2.08-16.12c-1.17,16-18.91-36.26-22-17.07-1.24,7.7-29.15,24.61-30-3.16Z" transform="translate(-546.93 -358.42)"/></svg>