<?xml version="1.0" encoding="utf-8"?>
<!-- Generator: Adobe Illustrator 19.2.1, SVG Export Plug-In . SVG Version: 6.00 Build 0)  -->
<svg version="1.1" id="Layer_1" xmlns="http://www.w3.org/2000/svg" xmlns:xlink="http://www.w3.org/1999/xlink" x="0px" y="0px"
	 viewBox="0 0 100 125" style="enable-background:new 0 0 100 125;" xml:space="preserve">
<style type="text/css">
	.st0{display:none;}
	.st1{display:inline;}
	.st2{enable-background:new    ;}
	.st3{display:inline;fill:none;stroke:#FFFFFF;stroke-miterlimit:10;}
	.st4{display:inline;fill:none;}
	.st5{display:inline;stroke:#FFFFFF;stroke-miterlimit:10;}
	.st6{fill:none;stroke:#000000;stroke-width:0.9791;}
	.st7{display:inline;opacity:0.61;}
	.st8{fill:none;}
	.st9{display:inline;stroke:#000000;stroke-width:2.6767;stroke-linecap:round;stroke-linejoin:round;}
	.st10{fill:none;stroke:#000000;stroke-width:4.4766;stroke-linecap:round;stroke-linejoin:round;}
	.st11{fill:none;stroke:#000000;stroke-width:1.2488;stroke-linecap:round;stroke-linejoin:round;}
	.st12{stroke:#000000;stroke-width:1.2488;stroke-linecap:round;stroke-linejoin:round;}
	.st13{display:inline;stroke:#000000;stroke-width:1.8732;}
	.st14{fill:none;stroke:#000000;stroke-width:0.7833;stroke-linecap:round;stroke-linejoin:round;}
	.st15{stroke:#FFFFFF;stroke-width:3.120000e-02;stroke-linecap:round;stroke-linejoin:round;}
	.st16{fill:none;stroke:#000000;stroke-width:1.4937;stroke-linecap:round;stroke-linejoin:round;}
</style>
<g class="st0">
	<rect x="-192" class="st1" width="185" height="99"/>
	<rect y="-36" class="st1" width="100" height="30"/>
	<text transform="matrix(1 0 0 1 66 -19.5)" class="st1" style="font-family:'Helvetica'; font-size:2.4px;">http://thenounproject.com</text>
	<text transform="matrix(1 0 0 1 7.166 -24.5)" class="st1" style="font-family:'Helvetica-Bold'; font-size:6.1578px;">The Noun Project</text>
	<text transform="matrix(1 0 0 1 8.286 -19.7)" class="st1" style="font-family:'Helvetica-Bold'; font-size:4px;">Icon Template</text>
	<text transform="matrix(1 0 0 1 -178.5 10.5)" class="st1" style="font-family:'Helvetica-Bold'; font-size:6.1578px;">Reminders</text>
	<line class="st3" x1="8" y1="-14.5" x2="18" y2="-14.5"/>
	<line class="st3" x1="-179" y1="16.5" x2="-162" y2="16.5"/>
	<g class="st1">
		<g>
			<g>
				<rect x="-170.8" y="31.3" width="8.7" height="8.6"/>
				<path d="M-164.5,42.3h4.7v-4.7h-4.7V42.3z M-159.3,42.7h-5.6v-5.6h5.6V42.7L-159.3,42.7z M-166.2,44.1h8.3v-8.2h-8.3V44.1
					L-166.2,44.1z M-157.5,44.5h-9.2v-9.1h9.2V44.5L-157.5,44.5z"/>
				<polygon points="-166.1,44.1 -166.3,44 -158,35.8 -157.9,35.9 				"/>
			</g>
		</g>
	</g>
	<rect x="-179" y="58" class="st4" width="35" height="32.5"/>
	<text transform="matrix(1 0 0 1 -179 60.1299)" class="st1" style="font-family:'Helvetica-Bold'; font-size:3px;">Strokes</text>
	<text transform="matrix(1 0 0 1 -179 65.1299)" class="st1" style="font-family:'Helvetica'; font-size:2.4px;">Try to keep strokes at 4px</text>
	<text transform="matrix(1 0 0 1 -179 70.1299)" class="st1" style="font-family:'Helvetica'; font-size:2.4px;">Minimum stroke weight is 2px</text>
	<text transform="matrix(1 0 0 1 -179 74.6299)" class="st1" style="font-family:'Helvetica'; font-size:2.4px;">For thicker strokes use even </text>
	<text transform="matrix(1 0 0 1 -179 77.6299)" class="st1" style="font-family:'Helvetica'; font-size:2.4px;">numbers: 6px, 8px etc.</text>
	<text transform="matrix(1 0 0 1 -179 82.1299)" class="st1" style="font-family:'Helvetica-Bold'; font-size:2.4px;">Remember to expand strokes </text>
	<text transform="matrix(1 0 0 1 -179 85.1299)" class="st1" style="font-family:'Helvetica-Bold'; font-size:2.4px;">before saving as an SVG </text>
	<rect x="-136.5" y="58" class="st4" width="35" height="32.5"/>
	<text transform="matrix(1 0 0 1 -136.5 60.1299)" class="st1" style="font-family:'Helvetica-Bold'; font-size:3px;">Size</text>
	<text transform="matrix(1 0 0 1 -136.5 65.1299)" class="st1" style="font-family:'Helvetica'; font-size:2.4px;">Cannot be wider or taller than </text>
	<text transform="matrix(1 0 0 1 -136.5 68.6299)" class="st1" style="font-family:'Helvetica'; font-size:2.4px;">100px (artboard size)</text>
	<text transform="matrix(1 0 0 1 -136.5 73.6299)" class="st1" style="font-family:'Helvetica'; font-size:2.4px;">Scale your icon to fill as much of </text>
	<text transform="matrix(1 0 0 1 -136.5 76.6299)" class="st1" style="font-family:'Helvetica'; font-size:2.4px;">the artboard as possible</text>
	<rect x="-94" y="58" class="st4" width="35" height="32.5"/>
	<text transform="matrix(1 0 0 1 -94 60.1299)" class="st1" style="font-family:'Helvetica-Bold'; font-size:3px;">Ungroup</text>
	<text transform="matrix(1 0 0 1 -94 65.1299)" class="st1" style="font-family:'Helvetica'; font-size:2.4px;">If your design has more than one </text>
	<text transform="matrix(1 0 0 1 -94 68.1299)" class="st1" style="font-family:'Helvetica'; font-size:2.4px;">shape, make sure to ungroup</text>
	<rect x="-50" y="58" class="st4" width="35" height="32.5"/>
	<text transform="matrix(1 0 0 1 -50 60.1299)" class="st1" style="font-family:'Helvetica-Bold'; font-size:3px;">Save as</text>
	<text transform="matrix(1 0 0 1 -50 65.1299)" class="st1" style="font-family:'Helvetica'; font-size:2.4px;">Save as .SVG and make sure “Use </text>
	<text transform="matrix(1 0 0 1 -50 68.1299)" class="st1" style="font-family:'Helvetica'; font-size:2.4px;">Artboards” is checked</text>
	<text transform="matrix(1.0074 0 0 1 -125.542 30.5933)" class="st1" style="font-family:'Helvetica'; font-size:2.5731px;">100px</text>
	<text transform="matrix(1.0074 0 0 1 -41 39)" class="st1" style="font-family:'Helvetica-Bold'; font-size:5.1462px;">.SVG</text>
	<rect x="-126.5" y="34.8" class="st1" width="10.3" height="10.2"/>
	<rect x="-126.5" y="31.8" class="st1" width="0.5" height="2.3"/>
	<rect x="-116.8" y="31.8" class="st1" width="0.5" height="2.3"/>
	<rect x="-127" y="32.3" class="st1" width="11.2" height="0.6"/>
	<g class="st1">
		<rect x="-83.8" y="33.8" width="10.3" height="10.2"/>
		<rect x="-76.8" y="28.7" width="3.3" height="3.3"/>
	</g>
	<rect x="-178.5" y="22.5" class="st5" width="30" height="30"/>
	<rect x="-136.5" y="22.5" class="st5" width="30" height="30"/>
	<rect x="-93.5" y="22.5" class="st5" width="30" height="30"/>
	<rect x="-49.5" y="22.5" class="st5" width="30" height="30"/>
</g>
<g class="st0">
	<g class="st1">
		<path d="M18,52.9c-0.7,0-1.3-0.5-1.4-1.2c-0.1-0.8,0.4-1.5,1.1-1.6l63.5-11.6c0.8-0.1,1.5,0.4,1.6,1.1c0.1,0.8-0.4,1.5-1.1,1.6
			L18.2,52.9C18.1,52.9,18.1,52.9,18,52.9z"/>
	</g>
	<g class="st1">
		<path d="M19.2,59.5c-0.7,0-1.3-0.5-1.4-1.2c-0.1-0.8,0.4-1.5,1.1-1.6l54.6-10c0.8-0.1,1.5,0.4,1.6,1.1c0.1,0.8-0.4,1.5-1.1,1.6
			l-54.6,10C19.4,59.5,19.3,59.5,19.2,59.5z"/>
	</g>
	<g class="st1">
		<path d="M20.4,66.2c-0.7,0-1.3-0.5-1.4-1.2c-0.1-0.8,0.4-1.5,1.1-1.6l44.6-8.1c0.8-0.1,1.5,0.4,1.6,1.1c0.1,0.8-0.4,1.5-1.1,1.6
			l-44.6,8.1C20.6,66.2,20.5,66.2,20.4,66.2z"/>
	</g>
	<g class="st1">
		<path d="M22.8,79.4c-0.7,0-1.3-0.5-1.4-1.2c-0.1-0.8,0.4-1.5,1.1-1.6l44.6-8.1c0.8-0.1,1.5,0.4,1.6,1.1c0.1,0.8-0.4,1.5-1.1,1.6
			l-44.6,8.1C23,79.4,22.9,79.4,22.8,79.4z"/>
	</g>
	<g class="st1">
		<path d="M21.6,72.7c-0.6,0-1.2-0.5-1.3-1.1c-0.1-0.7,0.4-1.5,1.1-1.6l59.1-10.8c0.7-0.1,1.5,0.4,1.6,1.1c0.1,0.7-0.4,1.5-1.1,1.6
			L21.9,72.7C21.8,72.7,21.7,72.7,21.6,72.7z"/>
	</g>
	<path class="st1" d="M100.3,69.9l-9.1-49.8c-1-5.4-5-9.4-9.4-9.4c-0.4,0-0.9,0-1.3,0.1l-29.1,5.3c0,0.1-0.1,0.2-0.1,0.3l-6.6,11.2
		c-0.2,0.4-0.6,0.6-1,0.6c-0.2,0-0.3,0-0.5-0.1c-0.5-0.2-0.8-0.8-0.7-1.4l2.8-9.4l-38.1,7C2.5,25-0.5,30.7,0.6,36.7l9,49.2
		c1,5.5,5,9.4,9.4,9.4c0.4,0,0.9,0,1.3-0.1l65-11.9l0.3-0.1L100.3,69.9z M20,93.1c-0.3,0.1-0.6,0.1-0.9,0.1c-3.4,0-6.6-3.3-7.4-7.7
		L3.6,41.2l86.5-15.8l8,43.7l-0.2,0.2l-12,2.2c-1.3,0.2-2.5,1-3.3,2.2c-0.3,0.5-0.7,1.2-0.6,2l1.1,6L20,93.1z M85.3,80.7l-1-5.4
		c0.1-0.3,0.8-1.3,1.9-1.5l8.3-1.5L85.3,80.7z"/>
	<path class="st1" d="M55.6,9.5c-0.5-2.5-2.5-4.3-5-4.3c-0.3,0-0.6,0-0.9,0.1c-2.7,0.5-4.5,3.2-4,6c0.2,1.1,0.7,2.1,1.5,2.8
		l-3.5,11.6c0,0.1,0,0.3,0.2,0.4c0,0,0.1,0,0.1,0c0.1,0,0.2-0.1,0.3-0.1l6.1-10.4c0.4,0,0.8,0,1.1-0.1C54.3,15,56.1,12.3,55.6,9.5z"
		/>
</g>
<g class="st0">
	<path class="st1" d="M50.3,0.3c-27.6,0-50,22.4-50,50c0,27.6,22.4,50,50,50s50-22.4,50-50C100.3,22.6,77.9,0.3,50.3,0.3z
		 M50.2,22.8c1.1-1.2,2.5-1.8,4.1-1.8c1.3,0,2.4,0.5,3.2,1.3c0.8,0.9,1.3,2,1.3,3.3c0,1.6-0.6,3.1-1.7,4.3c-1.2,1.3-2.5,1.9-4,1.9
		c-1.2,0-2.4-0.5-3.2-1.4c-0.8-0.9-1.3-2-1.3-3.4C48.6,25.5,49.1,24,50.2,22.8z M58.6,69.9c-4.1,3.9-7.1,6.3-9,7.4
		c-2.1,1.2-3.8,1.8-5.2,1.8c-1.4,0-2.6-0.5-3.5-1.4c-0.8-0.9-1.3-2.1-1.3-3.6c0-3.8,2.2-12.7,6.6-27.2c0.1-0.2,0.1-0.5,0.2-0.7
		c-0.2,0.1-0.4,0.2-0.6,0.3c-0.4,0.2-1.5,1.1-4.7,4.3c-0.5,0.5-1.3,0.5-1.8,0.1l-1.9-1.5c-0.3-0.2-0.5-0.6-0.5-1
		c0-0.4,0.1-0.8,0.4-1.1c3-3.3,5.8-5.7,8.3-7.1c2.6-1.5,4.9-2.2,6.8-2.2c1.3,0,2.3,0.3,3,0.9c0.8,0.7,1.2,1.6,1.2,2.7
		c0,0.7-0.3,2.6-2.9,11.2c-3.6,12.2-4.5,16.7-4.6,18.2c0.7-0.4,2.3-1.6,5.8-4.8c0.5-0.5,1.4-0.5,1.9,0l1.7,1.7
		c0.3,0.3,0.4,0.6,0.4,1S58.8,69.7,58.6,69.9z"/>
</g>
<g class="st0">
	<path class="st1" d="M95.9,53.1c-3.7-6-9.3-10.2-16-12.1c0-0.4,0-0.8,0-1.2C79.9,20.6,62,5.1,40,5.1C17.9,5.1,0,20.6,0,39.8
		c0,9.8,4.7,18.7,12.3,25C9.2,70.3,4.5,74.7,0,79.6c9.4,0.7,20.1-1.7,28.1-6.7c3.7,1,7.7,1.5,11.9,1.5c1.8,0,3.6-0.1,5.3-0.3
		c0.7,2.8,1.8,5.5,3.3,8c3.9,6.3,10,10.7,17.2,12.5c2.1,0.5,4.3,0.8,6.5,0.8c12.9,0,24-8.8,27-21.3C101,66.8,99.8,59.4,95.9,53.1z
		 M28.5,22h3l-0.1,22h-2.7L28.5,22z M32,52h-3v-3h3V52z M34.8,25.2c0,0,2.6-2.4,6.8-2.4c4.8,0,8.7,3.1,8.7,7.5
		c0,7.1-7.4,7.6-7.4,13.3V44h-2v-0.5c0-6.8,6.7-7.7,6.7-13c0-2.7-2.6-4.9-5.9-4.9c-2.9,0-5.3,1.8-5.3,1.8L34.8,25.2z M44,52h-4v-3h4
		V52z M97.6,73.7c-2.8,11.8-13.3,20-25.4,20c-2,0-4.1-0.2-6.1-0.7c-6.8-1.6-12.5-5.8-16.2-11.7c-3.6-5.9-4.8-12.9-3.1-19.7
		c2.8-11.8,13.2-20,25.4-20c2,0,4.1,0.2,6.1,0.7c6.8,1.6,12.5,5.8,16.2,11.7C98.1,59.9,99.3,66.9,97.6,73.7z"/>
	<g class="st1">
		<path d="M71,62.3c-0.9,3.7-3.1,6.4-5,5.9c-1.9-0.4-2.6-3.8-1.8-7.6c0.9-3.7,3.1-6.4,5-5.9C71.1,55.2,71.9,58.5,71,62.3z"/>
	</g>
	<g class="st1">
		<ellipse transform="matrix(0.2326 -0.9726 0.9726 0.2326 -1.0682 127.6274)" cx="80.3" cy="64.5" rx="6.9" ry="3.5"/>
	</g>
	<g class="st1">
		<path d="M68.5,81.4c-6.3-1.5-11.3-6.2-15.4-10.2c2.1,5.4,7.5,11.6,15,13.4c8,1.9,16.1-1.6,20.3-5.9C82.6,80.9,75.4,83,68.5,81.4z"
			/>
	</g>
</g>
<g class="st0">
	<rect x="23" y="42" class="st1" width="51" height="2"/>
	<polygon class="st1" points="25,78 23,80 74,80 74,78 	"/>
	<rect x="43" y="54" class="st1" width="31" height="2"/>
	<polygon class="st1" points="37,66 35,68 74,68 74,66 	"/>
	<path class="st1" d="M28.2,0.9l-0.1,0.9c0,0-1,7.6-1.3,10.2H16v46.3l-7.3,7.1l2.7,2.7l15-14.7l1.8,1.8l-15,14.7l4,4.1l15-14.6
		l1.8,1.8l-15,14.6l2.7,2.7l15-14.7c0.1,0,0.2,0,0.2,0c0.1,0,0.1,0,0.2,0c0.2-0.1,0.4-0.2,0.5-0.5l5.1-17c0.1-0.2,0-0.5-0.2-0.6
		c-0.2-0.2-0.4-0.2-0.6-0.2l-17.5,4.2c-0.2,0.1-0.4,0.2-0.5,0.5c0,0.1,0,0.3,0,0.4L18,56.3V14h50v10.8c0,0.5,0.7,1.2,1.2,1.2H81v72
		H18V82.1l2.4-2.4L7.6,66.5l-5.9,5.7c-1,1-1,2.5,0,3.5l9.4,9.6c1,1,2.5,1,3.5,0l1.4-1.4V100h67v-4.9l3.5,0.4L95,7.4L28.2,0.9z
		 M39,47.6c0.7,0.4,1.1,1,1.4,1.4L36.5,62L25.7,50.8L39,47.6z M70,24v-9.2l9.9,9.2H70z M84.8,93.5L83,93.2V24.8c0,0,0-0.7-0.2-0.8
		l-13-11.9c-0.2-0.2-0.5-0.1-0.7-0.1H28.9c0.2-1.1,0.5-3.6,1-9.1L93,9.1L84.8,93.5z"/>
</g>
<g class="st0">
	<path class="st1" d="M66.3,0H19.6C8.9,0,0,8.7,0,19.4v46.8C0,76.8,8.9,86,19.6,86h30.1l20.2,13.6c0.5,0.3,1.1,0.4,1.7,0.4
		c0,0,0,0,0,0c1.6,0,3-1.5,3-3.1c0-0.7-0.2-1.3-0.6-1.8l-5.3-9.7C78.3,84.3,86,76.1,86,66.2V19.4C86,8.7,77,0,66.3,0z M42,67.2v-0.1
		C23,56.9,11.6,44.7,13.6,31.5c2.5-17.2,23.6-16.7,28.8-3c5.2-13.7,26.4-14.1,28.9,3.1C73.3,44.8,63,57,42,67.2z"/>
</g>
<g class="st0">
	<g class="st1">
		<g>
			<path d="M84,11.1C79.8,3.4,70.7-1,62.1-0.1C57.6,0.4,54,3.4,51.8,7.2c-2.3,3.9-0.5,9,0.8,12.9c0.3-0.2,0.6-0.4,0.9-0.6
				C46.3,9.9,24.9-1.9,16.1,12c-5.6,8.9-1.1,19.8,5.1,26.9c3.5,4,0.7,8.6-0.2,13.2c-0.3,1.5-0.6,5.1,1.8,5.2
				c2.8,0.2,4.6-1.2,5.8-3.6c0.9-1.8,0.8-4.1,0.7-6c0-0.5-0.5-2,0.2-1.4c1.8,1.3,3.6,2.5,5.5,3.7c3.3,2.2,1.1,9.4-0.2,12.1
				c-0.9,1.8-2.1,3.7-2.5,5.7c-0.7,3.6,1,5.9,4.6,6.9c5.6,1.6,5-8.5,4.8-11.3c-0.1-2.4-0.3-4.9-0.5-7.3c-0.3-4.1,3.3-0.6,5.4,0.5
				c2.5,1.3,0.7,8.8,0.5,10.9c-0.4,3.4-1.2,6.7-2,10c-1.3,5.7-2.5,12.1-1.1,17.9c1,3.9,4.9,5.9,8.4,3.6c4.3-2.9,1.8-12.7,1.1-16.6
				c-0.7-3.9-1.3-7.8-1.8-11.7c-0.4-3.7-0.8-7.5-1.1-11.3c-0.1-0.8,7.8,2.9,8.7,3.3c0.2,0.1,0.5,0,0.6-0.2
				C66.4,52.4,75.7,45.2,83,36C89.2,28.2,88.1,19.6,84,11.1c-0.3-0.6-1.3-0.2-1,0.5c2.6,5.4,4.5,11,2.9,17c-1.4,5-5.4,9-8.9,12.6
				c-3.5,3.5-7,7-10.3,10.7c-2.1,2.3-4,4.8-5.8,7.3c-2.6,3.7-7.5-0.4-10.7-2c-0.4-0.2-0.7,0.2-0.7,0.6c0.6,8,1.3,16,2.8,23.9
				c0.7,3.6,3.8,21.7-5.2,16.6c-4.6-2.6-2.2-13.2-1.5-17.3c1.4-8.1,3.2-15.8,3.4-24.1c0-0.3-0.1-0.4-0.3-0.6
				c-2.7-1.3-5.3-2.7-7.9-4.2c-0.4-0.2-0.9,0-0.8,0.5c0.3,4.4,0.8,8.8,0.9,13.2c0,1.5-0.1,2.9-0.3,4.4c-0.3,2-1.2,4-4,3.2
				c-4.8-1.4-3.3-5.1-2.2-7.6c1.8-4.2,3.7-7.7,3.3-12.4c0-0.7,0.2-2.9-0.5-3.3c-2.8-1.8-5.5-3.6-8.2-5.6c-0.4-0.3-0.9,0.1-0.8,0.5
				c0.2,2.2,0.3,4.3,0.1,6.4c-0.5,4.7-6.8,6.3-6,0.8c0.5-3.3,1.7-6.5,2.2-9.8c0.5-3.1-3.4-5.4-5.2-7.8C15,28.9,13.9,22,15.8,15.4
				c5.1-17.8,30.1-4.2,36.9,4.8c0.4,0.5,1.1,0,0.9-0.6c-1.9-5.7-2.9-10.4,1.7-15.3c2.7-2.9,6.7-3.6,10.4-3.5
				c6.9,0.2,14,4.7,17.3,10.6C83.3,12.1,84.3,11.7,84,11.1z"/>
		</g>
	</g>
</g>
<g class="st0">
	<path class="st1" d="M89.8,45.5c2,10-11.3,21.5-30.2,25.8c-18.9,4.3-33.4-1.4-38.3-10.4c-9.4-17.4,10.3-27.8,29.2-32
		C69.5,24.6,85.8,25.9,89.8,45.5z M76.3,62.9c0,0,8.6-1.2,10.5-10c-0.1-0.7-0.2-1.1-0.2-1.1c-14.7-4.4-61.2,5.5-61.2,5.5l0,0
		C35.1,61.1,55.7,67.4,76.3,62.9z"/>
	<g class="st1">
		<path d="M19.6,55.3c0,0,28.4,14.1,56.7,8c0,0,19.1-2.6,6.6-29.4c-1.6-8.6,0.4-7.4,4.6-4.6c0,0,23.8,29.9,4.5,47.4
			c0,0-15.6,17.5-50.4,2.1c-6.4-2.8-20-18-32.1-17.8C9.5,61-2.2,55,19.6,55.3z"/>
		<path d="M68.2,85.5c-8.2,0-17.2-2.1-26.8-6.4c-2.1-0.9-4.9-3.1-8.1-5.7c-6.9-5.4-15.5-12.1-23.6-12.1l-0.4,0l-0.1,0
			c-0.4-0.2-3.7-2-3.3-3.8c0.4-1.8,4.3-2.6,11.8-2.6c0.5,0,1.1,0,1.7,0l0.1,0c0.2,0.1,19.3,9.5,41.5,9.5c5.2,0,10.2-0.5,14.9-1.5
			c0.1,0,6-0.9,9-6.2c2.9-5.3,2-12.9-2.6-22.7l0-0.1c-0.7-3.8-0.8-5.8-0.1-6.6c0.2-0.3,0.6-0.4,1-0.4c1,0,2.3,0.8,4.3,2.2l0.1,0.1
			c0.2,0.3,23.7,30.3,4.5,47.9C92.2,77,84.5,85.5,68.2,85.5z M9.8,60.7c8.3,0,17,6.8,24,12.3c3.2,2.5,6,4.7,8,5.6
			c9.5,4.2,18.4,6.3,26.5,6.3c15.9,0,23.5-8.2,23.5-8.3c18.5-16.9-3.5-45.7-4.5-46.9c-1.5-1-3.1-2-3.9-2c-0.2,0-0.3,0.1-0.4,0.2
			c-0.7,0.9,0,4.7,0.2,6c4.7,10,5.5,17.9,2.5,23.3c-3.1,5.7-9.2,6.5-9.4,6.6c-4.7,1-9.8,1.5-15.1,1.5c-21.7,0-40.5-8.9-41.8-9.5
			c-0.6,0-1.1,0-1.6,0c-9.3,0-11,1.3-11.2,2.1c-0.3,1,1.9,2.5,2.8,3L9.8,60.7z"/>
	</g>
	<g class="st1">
		<path d="M0.6,58.1c0,0,22.1-22.3,29.3-34.3c0,0,13.8-18.8,25.8-5.1c0,0,23.6-23.3,32.4-7.3c0,0,10.1,23.9-13.5,21.7
			c0,0-31.1-2-42.6,8.5c0,0-15.7,19.6-27.5,20.8C4.6,62.4-0.9,63.2,0.6,58.1z"/>
		<path d="M3.9,62.8c-0.9,0-2.5-0.2-3.3-1.3c-0.6-0.8-0.7-2-0.3-3.5l0-0.1l0.1-0.1c0.2-0.2,22.1-22.4,29.3-34.2
			c0.3-0.4,7.7-10.2,16.4-10.2c3.5,0,6.8,1.6,9.7,4.9c2-1.9,13.7-12.7,23.4-12.7c4.1,0,7.2,1.9,9.3,5.8c0.2,0.5,4.6,11.2,0.3,17.7
			c-2.4,3.7-7.2,5.2-14.1,4.6c0,0-2.4-0.1-6-0.1c-10.1,0-28.3,1.1-36.4,8.5c-0.6,0.8-15.9,19.7-27.7,20.9
			C4.6,62.8,4.3,62.8,3.9,62.8z M0.9,58.3c-0.3,1.2-0.3,2.2,0.2,2.8c0.7,0.9,2,1,2.8,1c0.4,0,0.6,0,0.6,0
			C16.1,61,31.7,41.6,31.8,41.4c8.4-7.6,26.7-8.8,36.9-8.8c3.6,0,6,0.1,6,0.2c6.7,0.6,11.2-0.8,13.5-4.3c4.1-6.2-0.3-16.9-0.4-17
			c-2-3.6-4.9-5.4-8.7-5.4C69.1,6.2,56.1,18.8,56,19l-0.3,0.3L55.5,19c-2.8-3.2-6-4.9-9.4-4.9c-8.4,0-15.8,9.8-15.8,9.9
			C23.2,35.5,2.2,56.9,0.9,58.3z"/>
	</g>
	<g class="st1">
		<path d="M54.3,34.1c-8.2,1-16.7,3.2-21.7,7.7c0,0-0.3,0.4-1,1.1l1.3,6.6c0,0,0.6,5.1,8,3.4l8-2.1c0,0,7.7-1.2,6.9-5.8L54.3,34.1z"
			/>
	</g>
	<g class="st1">
		<path d="M77.9,33.3c-1,0-2,0-3.1-0.1c0,0-9.4-0.6-19.8,0.6L56.5,44c0,0,0.1,5.1,7.4,4c0.2,0,0.3,0,0.5-0.1c9-1,11.7-2.1,11.7-2.1
			s5-0.8,3.6-5.1L77.9,33.3z"/>
	</g>
	<g class="st1">
		<path d="M39.1,24.3c-1-0.6-2.2-1.8-1.4-3.3c2.6-3.4,9.7-8,11.9-3.1c1.1,2.7-4.5,3.4-6.8,5.3C41.2,24.1,39.8,24.5,39.1,24.3z"/>
	</g>
	<g class="st1">
		<path d="M71.4,14.9c3.9-1.5,10.1,1.2,12-3c0.5-1.4,0.5-2.1-0.3-3c-2.1-1.5-5.1-1.2-7.2-0.2c-1.5,0.7-3,2.1-4.2,4.2
			C70.8,14.1,70.6,14.9,71.4,14.9z"/>
	</g>
	<g class="st1">
		<path d="M64.2,18.2c-0.3-0.9,0.7-2.1,2.2-2.8c1.5-0.7,3-0.5,3.3,0.3c0.3,0.9-0.6,2.1-2.2,2.8C66,19.2,64.5,19.1,64.2,18.2z"/>
	</g>
</g>
<g class="st0">
	<g class="st1">
		<path class="st6" d="M94.7,44.4c0,13.7-11.2,24.9-24.9,24.9c-2.3,0-4.6-0.3-6.8-0.9c-3.9,8.8-12.6,14.5-22.2,14.5
			c-11.1,0-20.7-7.4-23.5-18.2c-9.6-1.1-16.9-9.2-16.9-19c0-10.5,8.6-19.1,19.1-19.1c1.7,0,3.3,0.2,4.9,0.6
			c-0.1-0.9-0.2-1.9-0.2-2.8C24.3,14.2,32.6,6,42.7,6c8.9,0,16.6,6.5,18.2,15.2c2.8-1.1,5.8-1.6,8.9-1.6
			C83.5,19.5,94.7,30.7,94.7,44.4z M94.2,44.4c0-13.5-11-24.5-24.5-24.5c-3.3,0-6.4,0.6-9.2,1.8C59.3,13,51.8,6.4,42.7,6.4
			c-10,0-18,8.1-18,18c0,1.2,0.1,2.3,0.3,3.4c-1.7-0.5-3.6-0.8-5.5-0.8C9.3,27,0.9,35.4,0.9,45.7c0,9.7,7.4,17.6,16.8,18.6
			c2.6,10.4,11.9,18.1,23.1,18.1c9.9,0,18.3-6,21.9-14.5c2.2,0.7,4.6,1,7,1C83.3,68.8,94.2,57.9,94.2,44.4z"/>
	</g>
	<path class="st1" d="M61.2,21.3l0.5-0.2c1-0.4,2-0.7,3-1c-1.6-3.3-4.2-6-7.3-7.7c1.9,2.4,3.3,5.2,3.7,8.4L61.2,21.3z"/>
	<path class="st1" d="M88.7,29.3c3.8,4.3,6.1,9.9,6.1,16c0,13.3-10.8,24-24,24c-2.3,0-4.7-0.3-6.9-1l-0.4-0.1l-0.1,0.4
		c-3.7,8.7-12.1,14.3-21.6,14.3c-5.6,0-10.7-2-14.8-5.3C31.3,83.9,38.5,88,46.6,88c9.9,0,18.3-6,21.9-14.5c2.2,0.7,4.6,1,7,1
		c13.5,0,24.5-11,24.5-24.5C100.1,41.3,95.5,33.7,88.7,29.3z"/>
	<path class="st1" d="M18,63.8l-0.3,0c-3.4-0.3-6.6-1.6-9.1-3.6c2.5,3.9,6.4,6.9,11,8.1c-0.6-1.3-1.1-2.7-1.5-4.2L18,63.8z"/>
</g>
<g class="st0">
	<g class="st1">
		<path d="M58.9,95.3c0,2.9-4.4,5.2-9.9,5.2c-5.5,0-9.9-2.3-9.9-5.2v0.2l0-46.7c0-1.7,1.4-3,3.1-3h13.5c1.7,0,3.1,1.3,3.1,3
			L58.9,95.3L58.9,95.3z"/>
		<path d="M49,100.6c-5.4,0-9.7-2.3-10-5.1h0l0-46.7c0-1.7,1.5-3.1,3.3-3.1h13.5c1.8,0,3.3,1.4,3.3,3.1l0,46.4l0,0.1
			C59,98.2,54.5,100.6,49,100.6z M39.3,95.3c0,2.8,4.4,5.1,9.8,5.1c5.3,0,9.7-2.3,9.8-5l0-0.1l0-46.5c0-1.6-1.4-2.9-3-2.9H42.3
			c-1.7,0-3,1.3-3,2.9L39.3,95.3z"/>
	</g>
	<g class="st1">
		<path d="M59.1,3.9c0,0,2.4-0.3,1.9,6c0,0-0.3,1.7-1.5,1.5C59.5,11.4,59.7,3.8,59.1,3.9z"/>
	</g>
	<g class="st1">
		<path d="M52.1,96.9c0,0.4-0.3,0.7-0.7,0.7l0,0c-0.4,0-0.7-0.3-0.7-0.7v-7.4c0-0.4,0.3-0.7,0.7-0.7l0,0c0.4,0,0.7,0.3,0.7,0.7V96.9
			z"/>
	</g>
	<g class="st1">
		<path d="M50,96.9c0,0.4-0.3,0.7-0.7,0.7l0,0c-0.4,0-0.7-0.3-0.7-0.7v-7.4c0-0.4,0.3-0.7,0.7-0.7l0,0c0.4,0,0.7,0.3,0.7,0.7V96.9z"
			/>
	</g>
	<g class="st1">
		<path d="M54.3,96.9c0,0.4-0.3,0.7-0.7,0.7l0,0c-0.4,0-0.7-0.3-0.7-0.7v-7.4c0-0.4,0.3-0.7,0.7-0.7l0,0c0.4,0,0.7,0.3,0.7,0.7V96.9
			z"/>
	</g>
	<g class="st1">
		<path d="M46.1,98.4C46.1,98.4,46.1,98.5,46.1,98.4l-0.2,0c0,0-0.1,0-0.1,0V48c0,0,0,0,0.1,0H46c0,0,0.1,0,0.1,0V98.4z"/>
	</g>
	<g class="st1">
		<path d="M55.4,98.4C55.4,98.4,55.4,98.5,55.4,98.4l-0.2,0c0,0-0.1,0-0.1,0V48c0,0,0,0,0.1,0h0.2c0,0,0.1,0,0.1,0V98.4z"/>
	</g>
	<g class="st1">
		<path d="M49.2,52H51c0,0,0.1,0,0.1,0.1v1.7c0,0,0,0.1-0.1,0.1l-1.9,0c-0.9-0.5-0.7-2.3-0.7-2.3c0-2.2,0.7-2.4,0.7-2.4l2,0
			c0,0,0.1,0,0.1,0.1V51c0,0,0,0.1-0.1,0.1h-1.8c0,0-0.2,0.2-0.2,0.5C49,51.6,49,52,49.2,52z"/>
	</g>
	<g class="st1">
		<path d="M49.8,57.7c-0.7,0-1.2,0-1.2,0c0,0-0.1,0-0.1,0.1v1.8c0,0,0,0.1,0.1,0.1h1.8l0,0c0.5-0.1,0.7-0.8,0.7-0.8
			c0.3-0.7-0.5-2.5-0.5-2.5c0.4,0,0.4,0,0.4,0c0,0,0.1,0,0.1-0.1l0-1.8c0,0,0-0.1-0.1-0.1h-2.5c0,0-0.1,0-0.1,0.1v1.8
			c0,0,0,0.1,0.1,0.1c0,0,0.4,0,1.1,0c0,0,0.7,0.3,0.3,1.2C50,57.6,49.9,57.7,49.8,57.7"/>
	</g>
	<g class="st1">
		<path d="M48.5,62.1C48.5,62.1,48.5,62.1,48.5,62.1l-0.1-1.9c0,0,0-0.1,0.1-0.1H51c0,0,0.1,0,0.1,0.1v1.8c0,0,0,0.1-0.1,0.1H48.5z"
			/>
	</g>
	<g class="st1">
		<path d="M51.8,62.1C51.8,62.1,51.8,62.1,51.8,62.1l0-1.9c0,0,0-0.1,0-0.1h0.9c0,0,0,0,0,0.1V62c0,0,0,0.1,0,0.1H51.8z"/>
	</g>
	<g class="st1">
		<path d="M53.8,83.5L52,83.3l0,0.5l-4.7-1.2v1.7l0.8,0.3v1.7l-0.8,0.2v1.8c0,0,4.6-0.7,6.4-1.8L53.8,83.5z"/>
		<path d="M47.2,88.3v-2l0.8-0.2v-1.5l-0.8-0.3v-1.9l0.1,0l4.5,1.2l0-0.5l2,0.3l0,0.1l-0.1,3l-0.1,0c-1.8,1-6.3,1.7-6.5,1.8
			L47.2,88.3z M47.4,86.5v1.6c0.7-0.1,4.6-0.8,6.2-1.7l0.1-2.8l-1.6-0.3l0,0.5l-4.7-1.2v1.5l0.8,0.3v1.9L47.4,86.5z"/>
	</g>
	<g class="st1">
		<polygon points="52.1,85.4 49.8,85 49.8,86 		"/>
	</g>
	<g class="st1">
		<path d="M53.9,81.6l0.1,0.1l-0.6,1.5l-1.9-0.6c0,0,1.2-1.3,0.1-2.2c0,0-1.2-1.1-2.3,0.2c0,0-0.8,0.9,0.4,1.9l-1.6,0.8
			c0,0-1.7-1.8-0.5-3.7c0,0,1.5-2.6,4.6-1.2C52.3,78.5,54.2,79.4,53.9,81.6z"/>
		<path d="M48.1,83.5L48.1,83.5c-0.1-0.1-1.8-1.9-0.5-3.9c0-0.1,1-1.7,3-1.7c0.6,0,1.1,0.1,1.7,0.4c0,0,1.9,0.9,1.6,3.2l0.2,0.1
			l-0.7,1.7l-2.1-0.7l0.1-0.1c0,0,0.6-0.7,0.5-1.3c0-0.3-0.1-0.5-0.4-0.7c0,0-0.5-0.4-1.1-0.4c-0.4,0-0.8,0.2-1.1,0.6
			c0,0-0.3,0.3-0.2,0.8c0,0.4,0.2,0.7,0.6,1l0.1,0.1L48.1,83.5z M50.6,78.2c-1.8,0-2.8,1.5-2.8,1.6c-1.1,1.6,0.1,3.2,0.4,3.5
			l1.4-0.7c-0.4-0.3-0.6-0.7-0.6-1.1c0-0.5,0.3-0.9,0.3-0.9c0.4-0.4,0.8-0.7,1.3-0.7c0.7,0,1.2,0.5,1.2,0.5c0.3,0.2,0.4,0.5,0.5,0.9
			c0,0.6-0.3,1.1-0.5,1.3l1.6,0.5l0.5-1.4l-0.1-0.1l0-0.1c0.3-2.2-1.5-3-1.5-3C51.7,78.3,51.1,78.2,50.6,78.2z"/>
	</g>
	<g class="st1">
		<path d="M53.8,76.7l0.2,0l-0.3,1.7L52,78c0,0,0.8-1.6,0.2-2c0,0-0.5-0.3-0.9,1.1c0,0-0.6,2.3-2.8,1.5c0,0-2.4-0.9-0.8-4.6l0.3-0.7
			l1.5,0.8c0,0-0.8,1.7-0.7,2.1c0,0,0,0.4,0.4,0.4c0,0,0.5,0.2,0.7-0.9c0,0,0.2-1.8,1.4-1.9C51.4,73.9,54.4,73.4,53.8,76.7z"/>
		<path d="M49.3,78.9c-0.3,0-0.6-0.1-0.9-0.2c0,0-0.8-0.3-1.2-1.3c-0.4-0.9-0.3-2.1,0.3-3.4l0.4-0.8l1.7,0.9l0,0.1
			c-0.3,0.6-0.8,1.7-0.7,2l0,0c0,0,0,0.3,0.3,0.3c0,0,0,0,0.1,0c0.1,0,0.4-0.1,0.5-0.8c0-0.1,0.2-1.9,1.5-2c0,0,0.2,0,0.4,0
			c0.5,0,1.3,0.1,1.7,0.7c0.4,0.5,0.5,1.2,0.4,2.1l0.2,0l-0.4,1.9l-2-0.5l0.1-0.1c0.2-0.4,0.6-1.5,0.2-1.8c0,0,0,0-0.1,0
			c-0.1,0-0.4,0.1-0.7,1.1C51.3,77.1,50.9,78.9,49.3,78.9z M48,73.5L47.7,74c-0.6,1.3-0.7,2.4-0.3,3.3c0.4,0.9,1.1,1.2,1.1,1.2
			c0.3,0.1,0.6,0.2,0.8,0.2c1.4,0,1.8-1.5,1.8-1.6c0.3-1,0.6-1.2,0.9-1.2c0.1,0,0.2,0,0.2,0c0.6,0.4,0.1,1.6-0.1,2l1.6,0.4l0.3-1.5
			l-0.2,0l0-0.1c0.2-0.9,0.1-1.6-0.3-2C53,74.1,52.3,74,51.8,74c-0.2,0-0.4,0-0.4,0c-1.2,0.1-1.3,1.8-1.3,1.8c-0.2,0.8-0.6,1-0.8,1
			c-0.1,0-0.1,0-0.1,0c-0.4,0-0.5-0.3-0.5-0.5c-0.1-0.4,0.4-1.6,0.6-2.1L48,73.5z"/>
	</g>
	<g class="st1">
		<ellipse cx="50.6" cy="71.5" rx="3.5" ry="3.4"/>
		<path d="M50.6,75c-2,0-3.6-1.6-3.6-3.5c0-1.9,1.6-3.5,3.6-3.5s3.6,1.6,3.6,3.5C54.2,73.4,52.6,75,50.6,75z M50.6,68.2
			c-1.9,0-3.4,1.5-3.4,3.3s1.5,3.3,3.4,3.3s3.4-1.5,3.4-3.3C54,69.7,52.4,68.2,50.6,68.2z"/>
	</g>
	<g class="st1">
		<ellipse cx="50.6" cy="71.5" rx="1.4" ry="1.4"/>
	</g>
	<g class="st1">
		<path d="M54,64.5l-1.8-0.4l-0.1,0.4h-4.9v1.9h1.5c0,0-0.4,3.2,2.6,3.1C51.4,69.6,54.4,69.8,54,64.5z"/>
		<path d="M51.4,69.7L51.4,69.7C51.4,69.7,51.4,69.7,51.4,69.7l-0.1,0c-0.9,0-1.5-0.3-2-0.8c-0.7-0.8-0.7-2-0.7-2.3h-1.5v-2.1h5
			l0.1-0.4l2,0.5l0,0.1c0.1,2-0.2,3.5-1,4.4C52.4,69.6,51.6,69.7,51.4,69.7z M51.4,69.4L51.4,69.4L51.4,69.4c0.2,0,1,0,1.6-0.7
			c0.8-0.8,1.1-2.2,1-4.1l-1.6-0.4l-0.1,0.4h-4.9v1.7h1.6l0,0.1c0,0-0.2,1.4,0.6,2.3C49.9,69.2,50.5,69.4,51.4,69.4L51.4,69.4z"/>
	</g>
	<g class="st1">
		<path d="M52.1,66.5h-1.6c0,0,0,1,0.9,1C51.4,67.5,52.3,67.6,52.1,66.5z"/>
	</g>
	<g class="st1">
		<path d="M58.9,46.1V35.9c0-1.7-1.4-3.1-3.1-3.1H42.3c-1.7,0-3.1,1.4-3.1,3.1v10.2H58.9z"/>
		<path d="M58.9,46.6H39.2c-0.3,0-0.5-0.2-0.5-0.5V35.9c0-2,1.6-3.6,3.6-3.6h13.5c2,0,3.6,1.6,3.6,3.6v10.2
			C59.4,46.3,59.2,46.6,58.9,46.6z M39.7,45.6h18.8v-9.7c0-1.4-1.2-2.6-2.7-2.6H42.3c-1.5,0-2.7,1.2-2.7,2.6V45.6z"/>
	</g>
	<g class="st1">
		<path d="M39.2,34.5c2.3-0.7,5.9-1.1,10-1.1c4,0,7.5,0.5,9.7,1.1l0,0l0-28.3c0-3.4-2.8-6.2-6.3-6.2h-7.2c-3.5,0-6.3,2.8-6.3,6.2
			L39.2,34.5L39.2,34.5z"/>
		<path d="M39.2,35c0,0-0.1,0-0.1,0c-0.2-0.1-0.4-0.2-0.4-0.5V6.2c0-3.7,3-6.7,6.8-6.7h7.2c3.7,0,6.8,3,6.8,6.7l0,28.2
			c0,0.1,0,0.1,0,0.2c0,0.3-0.3,0.5-0.6,0.5c0,0-0.1,0-0.1,0c-2.4-0.7-5.9-1.1-9.6-1.1c-4,0-7.6,0.4-9.8,1.1
			C39.3,35,39.2,35,39.2,35z M45.5,0.5c-3.2,0-5.8,2.5-5.8,5.7v27.7c2.3-0.6,5.7-1,9.5-1c3.5,0,6.8,0.4,9.2,1l0-27.7
			c0-3.1-2.6-5.7-5.8-5.7L45.5,0.5L45.5,0.5z"/>
	</g>
	<g class="st1">
		<path d="M53.9,92.2c0,0.1,0,0.1,0,0.2c0,0.1,0,0.2-0.1,0.2c0,0-0.1,0.1-0.2,0.1c-0.1,0-0.1,0-0.2-0.1c-0.1-0.1-0.1-0.2-0.1-0.3
			c0,0,0-0.1,0-0.1h-0.3v-0.1C53.1,92.2,53.9,92.2,53.9,92.2z M53.5,92.3C53.5,92.3,53.5,92.3,53.5,92.3c0,0.2,0.1,0.3,0.2,0.3
			c0.1,0,0.2-0.1,0.2-0.2c0,0,0-0.1,0-0.1H53.5z"/>
		<path d="M54,92.9h-0.9v-0.1H54V92.9z"/>
		<path d="M53.1,93.1H54v0.1l-0.4,0.3c-0.1,0.1-0.2,0.1-0.3,0.2l0,0c0.1,0,0.2,0,0.3,0H54v0.1h-0.9v-0.1l0.4-0.3
			c0.1-0.1,0.2-0.1,0.3-0.2l0,0c-0.1,0-0.2,0-0.4,0h-0.4C53.1,93.2,53.1,93.1,53.1,93.1z"/>
		<path d="M54,93.9V94h-0.4v0c0,0,0.1,0,0.1,0.1l0.3,0.3v0.1l-0.4-0.3l-0.5,0.3v-0.1l0.4-0.3L53.4,94h-0.3v-0.1
			C53.1,93.9,54,93.9,54,93.9z"/>
	</g>
	<g class="st1">
		<path d="M51.8,92c0,0.1,0,0.1,0,0.2c0,0.1,0,0.2-0.1,0.2c0,0-0.1,0.1-0.2,0.1c-0.1,0-0.2-0.1-0.2-0.2h0c0,0.1-0.1,0.1-0.2,0.1
			c-0.1,0-0.2,0-0.2,0.1v-0.1c0,0,0.1,0,0.2-0.1c0.1,0,0.2-0.1,0.2-0.2v-0.1H51V92H51.8z M51.4,92.1v0.1c0,0.1,0.1,0.2,0.2,0.2
			c0.1,0,0.2-0.1,0.2-0.2c0-0.1,0-0.1,0-0.1H51.4z"/>
		<path d="M51,93c0-0.2,0.2-0.4,0.4-0.4c0.3,0,0.4,0.2,0.4,0.4c0,0.2-0.2,0.4-0.4,0.4C51.1,93.4,51,93.2,51,93L51,93z M51.1,93
			c0,0.2,0.2,0.3,0.4,0.3c0.2,0,0.3-0.1,0.3-0.3s-0.2-0.3-0.4-0.3C51.2,92.8,51.1,92.8,51.1,93L51.1,93z"/>
		<path d="M51.1,93.5c0,0-0.1,0.1-0.1,0.2c0,0.1,0.1,0.2,0.1,0.2c0.1,0,0.1,0,0.2-0.2c0.1-0.1,0.1-0.2,0.2-0.2
			c0.1,0,0.2,0.1,0.2,0.3c0,0.1,0,0.1,0,0.2l-0.1,0c0,0,0-0.1,0-0.2c0-0.1-0.1-0.2-0.1-0.2c-0.1,0-0.1,0.1-0.2,0.2
			c-0.1,0.1-0.1,0.2-0.2,0.2c-0.1,0-0.2-0.1-0.2-0.3C51,93.6,51,93.6,51.1,93.5L51.1,93.5z"/>
		<path d="M51.4,94.6v-0.3h-0.3v0.4H51v-0.5h0.9v0.5h-0.1v-0.3h-0.3L51.4,94.6L51.4,94.6L51.4,94.6z"/>
	</g>
	<g class="st1">
		<path d="M49.8,91.9c0,0.1,0,0.1,0,0.2c0,0.1,0,0.2-0.1,0.2c0,0-0.1,0.1-0.2,0.1c-0.1,0-0.2-0.1-0.2-0.2h0c0,0.1-0.1,0.1-0.2,0.1
			c-0.1,0-0.2,0-0.2,0.1v-0.1c0,0,0.1,0,0.2-0.1c0.1,0,0.2-0.1,0.2-0.2V92H49v-0.1L49.8,91.9L49.8,91.9z M49.4,92v0.1
			c0,0.1,0.1,0.2,0.2,0.2c0.1,0,0.2-0.1,0.2-0.2c0-0.1,0-0.1,0-0.1H49.4z"/>
		<path d="M49,92.9c0-0.2,0.2-0.4,0.4-0.4c0.3,0,0.4,0.2,0.4,0.4c0,0.2-0.2,0.4-0.4,0.4C49.1,93.3,49,93.2,49,92.9L49,92.9z
			 M49.1,92.9c0,0.2,0.2,0.3,0.4,0.3c0.2,0,0.3-0.1,0.3-0.3s-0.2-0.3-0.4-0.3C49.2,92.7,49.1,92.8,49.1,92.9L49.1,92.9z"/>
		<path d="M49.1,93.5c0,0-0.1,0.1-0.1,0.2c0,0.1,0.1,0.2,0.1,0.2c0.1,0,0.1,0,0.2-0.2c0.1-0.1,0.1-0.2,0.2-0.2
			c0.1,0,0.2,0.1,0.2,0.3c0,0.1,0,0.1,0,0.2l-0.1,0c0,0,0-0.1,0-0.2c0-0.1-0.1-0.2-0.1-0.2c-0.1,0-0.1,0.1-0.2,0.2
			c-0.1,0.1-0.1,0.2-0.3,0.2c-0.1,0-0.2-0.1-0.2-0.3C49,93.6,49,93.5,49.1,93.5L49.1,93.5z"/>
		<path d="M49.3,94.2L49,94.1V94l0.9,0.3v0.1L49,94.7v-0.1l0.3-0.1V94.2z M49.3,94.5l0.2-0.1c0.1,0,0.1,0,0.2,0v0c0,0-0.1,0-0.2,0
			l-0.2-0.1L49.3,94.5L49.3,94.5z"/>
	</g>
	<g class="st7">
		<path d="M55.3,30.9c-0.2,0-0.3-0.1-0.3-0.3V6.9c0-3-2.2-3.7-2.3-3.7c-0.2-0.1-0.3-0.2-0.2-0.4c0.1-0.2,0.2-0.3,0.4-0.2
			c0,0,2.8,0.8,2.8,4.4v23.7C55.6,30.8,55.5,30.9,55.3,30.9z"/>
	</g>
	<g class="st7">
		<path d="M55.3,44.9c-0.2,0-0.3-0.1-0.3-0.3v-8.4c0-0.2,0.1-0.3,0.3-0.3s0.3,0.1,0.3,0.3v8.4C55.6,44.7,55.5,44.9,55.3,44.9z"/>
	</g>
</g>
<g class="st0">
	<path class="st1" d="M87.9,28H37c-0.2-2-1.6-3-3.2-3H30L46.4,0.9c0.2-0.2,0.1-0.5-0.1-0.7C46,0,45.7,0.1,45.5,0.4L29.4,24.2
		l-5.1-13.7c-0.1-0.3-0.4-0.4-0.7-0.3c-0.3,0.1-0.4,0.3-0.3,0.6L28.7,25h-3.5c-1.6,0-3,1-3.2,3H7.9C3.3,28,0,31.8,0,36.4v54.7
		c0,4.6,3.3,8.8,7.9,8.8h80c4.6,0,9.1-4.2,9.1-8.8V36.4C97,31.8,92.5,28,87.9,28z M84.1,88.2c1.9,0,3.4,1.5,3.4,3.4
		s-1.5,3.4-3.4,3.4s-3.4-1.5-3.4-3.4S82.2,88.2,84.1,88.2z M84.1,85.9c-1.9,0-3.4-1.5-3.4-3.4s1.5-3.4,3.4-3.4s3.4,1.5,3.4,3.4
		S85.9,85.9,84.1,85.9z M71,39.3v48.9c0,3.7-2.7,6.7-5.5,6.7H10.1C7.3,95,5,91.9,5,88.3V39.3c0-3.7,2.3-6.3,5.1-6.3h55.4
		C68.3,33,71,35.7,71,39.3z"/>
</g>
<g class="st0">
	<g class="st1">
		<g>
			<path d="M14.8,59.5h4.5c-0.3-0.8-0.5-1.7-0.7-2.5L14.8,59.5z"/>
			<path d="M85.6,59.5l-4-2.8c-0.2,0.9-0.5,1.9-0.8,2.8H85.6z"/>
			<path d="M2.4,57.8c-2.5,2.1-2.7,4.7-2,6.4c0.7,1.9,2.8,4,8.4,3.7h5.6h0.5h8.7h0.1h33.4L51.9,60H19.4h-5.5h-0.9l0.8-0.5l4.6-3.1
				L39.8,42l-4.3-6.5L18,47.2c0,0,0,0-0.1,0l-0.1,0.1c0,0,0,0,0,0l-0.5,0.3c-0.1,0.1-0.2,0.2-0.4,0.2l-6.5,4.3l-0.4,0.3l0,0l-7.4,5
				C2.6,57.6,2.5,57.7,2.4,57.8z"/>
			<path d="M17.8,47.4C17.8,47.4,17.8,47.4,17.8,47.4L17.8,47.4z"/>
			<path d="M82.6,46.5l7,4.8c0-0.6,0-1.2,0-1.8c0-10.5-4.1-20.5-11.6-27.9c-3.9-3.9-8.4-6.8-13.3-8.8c0.1,0.6,0.1,1.1,0.1,1.7
				c0,1.9-0.4,3.7-1.1,5.4c3.1,1.4,5.9,3.3,8.5,5.6C78.1,31.1,81.8,38.5,82.6,46.5z"/>
			<path d="M53.3,10.2c-1.1-0.1-2.2-0.1-3.2-0.1c-0.6,0-1.1,0-1.7,0c-0.3,0-0.6,0-0.9,0.1c-0.3,0-0.5,0-0.8,0.1
				c-0.3,0-0.7,0.1-1,0.1c-0.1,0-0.2,0-0.3,0c-0.8,0.1-1.6,0.2-2.4,0.4c0,0,0,0-0.1,0c-1.8,0.3-3.6,0.8-5.4,1.4l-0.5,0.2v0
				c-5.6,1.9-10.7,5.1-15,9.4C14.7,29.1,10.5,39,10.5,49.6c0,0.6,0,1.3,0.1,1.9l7-4.7c0.7-8.5,4.6-16.2,11.1-21.9l0.2-0.2l0.2,0.3
				l35.7,53.3l0.2,0.3l-0.3,0.1c-4.6,2.3-9.5,3.5-14.6,3.5c-10.6,0-20.5-5.2-26.6-13.8h-8.1c6.9,12.8,20.2,20.7,34.8,20.7
				c14.5,0,27.8-7.9,34.8-20.7h-8.1c-1.5,2.1-3.3,4.1-5.3,5.8l-0.2,0.2L71,74.1L35.3,20.9l-0.2-0.3l0.3-0.1C40,18.1,44.9,17,50.1,17
				c1.7,0,3.3,0.1,4.9,0.4c0.5-0.8,0.9-1.8,0.9-2.8C55.9,12.7,54.8,11.1,53.3,10.2z"/>
			<path d="M42.9,10.7C43,10.7,43,10.7,42.9,10.7C43,10.7,43,10.7,42.9,10.7z"/>
		</g>
		<path d="M97.4,57.5C97.4,57.5,97.4,57.5,97.4,57.5L97.4,57.5l-7.8-5.4l-7.5-5.2L82,46.8v0C80.4,45.7,60.5,32,54.8,28l-0.3-0.1
			c0.1-0.2,0.2-0.3,0.3-0.4c0.3-0.3,0.7-0.5,0.8-0.5l0,0l0.3-0.1l0.3-0.1c4.9-2.1,8-6.9,8-12.3c0-7.4-6-13.4-13.4-13.4
			c-6.2,0-11.5,4.3-13,10.2c3.4-1.1,7-1.7,10.6-1.9C49.2,9.2,50,9,50.8,9c3.1,0,5.6,2.5,5.6,5.6c0,2.1-1.2,4.1-3.2,5l0,0l0,0
			c-2.9,0.9-6.4,3.7-6.6,8.4l0.1,0v0l-4.1,2.7l4.3,6.5l3.6-2.4l0.2-0.1l0.2,0.1l31,21.4l4.8,3.3l0.7,0.5H62.2l5.2,7.8h24.1
			c6.5,0,8.1-3.1,8.4-4.5C100.6,61.1,99.6,58.8,97.4,57.5z"/>
	</g>
</g>
<g class="st0">
	<g class="st1">
		<path d="M27.4,97.6c-0.2,0.1-0.4,0.2-0.6,0.3c-0.2,0.1-0.4,0.2-0.6,0.3l-0.4,0.2c-0.4,0.3-0.7,0.6-0.9,0.8
			c-0.3,0.2-0.5,0.4-0.8,0.5c-0.6,0.2-1.2,0.2-1.8,0c-0.6-0.2-1.2-0.5-1.7-0.7c-0.6-0.2-1.1-0.7-1.6-1.3c-0.5-0.6-0.9-1.1-1.2-1.7
			c-0.1-0.1-0.2-0.4-0.4-0.7c-0.2-0.3-0.4-0.6-0.6-1c-0.2-0.4-0.4-0.7-0.6-1c-0.2-0.3-0.3-0.5-0.3-0.6l0-0.1l-0.2-0.6l-0.1-0.2
			c-0.6-1.4-0.9-2.7-1.2-4.2c-0.2-1.4-0.3-2.8-0.3-4.3c0-0.3,0-0.9-0.1-2c0-1.1,0-2.3-0.1-3.5c0-1.2,0-2.4,0-3.5c0-1.1,0-1.8,0-2
			c0-0.3,0-0.4-0.1-0.5l-3.5-12.4l0-0.1l-0.1-0.3L10,58.9C9.6,58,9,57.4,8,57.3c-1-0.1-2-0.2-3.1-0.1c-1.1,0.1-2.1,0.2-3,0.3
			c-0.9,0.1-1.5-0.1-1.7-0.7C0,56.5-0.1,56.3,0,56.1c0.1-0.2,0.2-0.4,0.4-0.7c0.1,0,0.3-0.1,0.5-0.3c0.2-0.1,0.5-0.3,0.7-0.5
			c0.2-0.2,0.5-0.3,0.7-0.5C2.6,54,2.8,54,2.8,53.9c0.6-0.4,0.9-1.1,1.1-1.9s0.2-1.6,0.2-2.2c0-0.1,0-0.3,0-0.6c0-0.3,0-0.7,0-1.1
			s0-0.8,0-1.2c0-0.4,0-0.6-0.1-0.8c0-0.5,0-0.9,0-1.1c0-0.2-0.1-0.5-0.2-0.8l-0.2-0.5c-0.1-0.1-0.2-0.2-0.4-0.3
			C3,43.2,2.8,43,2.5,42.8c-0.2-0.2-0.5-0.4-0.7-0.6c-0.2-0.2-0.4-0.3-0.4-0.4c-0.2-0.3-0.3-0.4-0.3-0.5l-0.3-0.6
			c-0.3-0.7-0.4-1.5-0.2-2.2c0.2-0.7,0.7-1.3,1.5-1.6c0.5-0.2,1.1-0.2,1.6-0.1c0.5,0.2,1.1,0.2,1.7-0.1c0.4-0.2,0.8-0.5,1.3-1.2
			c0.5-0.6,0.9-1.1,1.1-1.4c0-0.1,0.1-0.1,0.2-0.2C8.2,34,8.3,34,8.3,34c0.1-0.1,0.5-0.3,1-0.6c0.6-0.3,0.9-0.4,1.1-0.5
			c0.1-0.5,0.1-0.9,0-1.3c-0.1-0.4,0.2-0.7,0.8-1c0.4-0.2,0.8-0.2,1,0c0.3,0.2,0.6,0.4,0.9,0.7l23.7-9.7c0.2-0.1,0.4,0,0.7,0.4
			c0.2,0.3,0.4,0.5,0.4,0.6l43.8-18c-0.1-0.1-0.1-0.2-0.2-0.4c-0.1-0.2,0-0.3,0-0.4c0-0.1,0.2-0.2,0.4-0.3c0.2-0.1,0.3-0.1,0.3-0.2
			c0.2-0.3,0.4-0.6,0.4-0.8c0-0.3,0-0.6,0.1-0.8c0-0.3,0.1-0.5,0.2-0.8c0.1-0.2,0.4-0.4,0.8-0.6c0.8-0.3,1.7-0.3,2.6,0.1
			c0.9,0.4,1.7,0.9,2.2,1.4l3.6-1.5L95.3,8L92,9.3c0,0.1,0.1,0.2,0.1,0.4c0.1,0.2,0.2,0.5,0.3,0.7c0.1,0.3,0.2,0.5,0.3,0.8
			c0.1,0.2,0.1,0.4,0.2,0.5c0,0,0,0.1,0,0.3c0,0.1,0,0.2,0,0.3l2,5.7l-6.7,2.8c0,0.1,0.1,0.2,0.1,0.5c0.1,0.3,0.1,0.4,0.1,0.5
			c0,0.1,0,0.1-0.1,0.3c0,0.1,0,0.2-0.1,0.2L63.2,32.6c-0.4,0.6-0.6,0.9-0.8,1.1c-1.2,1.7-1.9,3.5-2.1,5.2c-0.2,1.7,0,3.5,0.8,5.3
			l0.4,1c0.2,0.4,0.4,0.8,0.5,1.2c0.2,0.4,0.4,0.8,0.7,1.3l-0.3,0.7c-1.3,2.1-2.9,3.9-4.6,5.5c-1.8,1.6-3.8,2.9-6.1,3.8
			c-1.7,0.7-3.5,1.2-5.2,1.5c-1.7,0.3-3.5,0.6-5.2,1c-0.2,0.1-0.4,0.1-0.4,0.1l-0.3,0.1c-0.5,0.2-0.7,0.4-0.7,0.7l1.3,16.6l1.8,7.2
			l0.3,0.6c0.1,0.1,0.2,0.3,0.4,0.5s0.4,0.5,0.6,0.8c0.2,0.3,0.4,0.6,0.6,0.8c0.2,0.2,0.3,0.4,0.3,0.5l0,0.1c0,0.1,0.1,0.1,0.1,0.2
			c0,0,0.1,0.1,0.1,0.2l0.1,0.2c0.3,0.6,0.3,1.1,0.1,1.4c-0.2,0.3-0.6,0.7-1.2,1c-0.2,0.1-0.5,0.2-1,0.4c-0.5,0.2-0.9,0.4-1.3,0.6
			l-0.6,0.3c-2.2,0.9-4.5,1.7-6.8,2.4c-2.3,0.7-4.6,1.5-6.8,2.4L27.4,97.6z M38.3,54.6c0.5,1,1.2,1.7,2.1,2.3
			c0.6,0.4,1.4,0.6,2.4,0.6c1,0,2.1-0.1,3.1-0.3c1.1-0.2,2.1-0.5,3.1-0.8c1-0.3,1.8-0.6,2.4-0.9c1.7-0.7,3.2-1.6,4.4-2.7
			c1.2-1.1,2.3-2.4,3.3-4c0.1-0.1,0.1-0.2,0.2-0.4c0.1-0.2,0.1-0.3,0.1-0.4c0.1-0.6,0.1-1.1-0.1-1.7c-0.2-0.6-0.4-1.2-0.6-1.7
			c-1-2.4-2.4-3.8-4.2-4.2c-1.8-0.4-3.9-0.1-6.2,0.9l-0.9,0.4c-0.2,0.1-0.3,0.1-0.5,0.2c-0.1,0.1-0.3,0.1-0.3,0.2
			c-0.2,0.2-0.3,0.3-0.5,0.4c-0.2,0.1-0.2,0.3-0.1,0.6l0.1,0.2l5.1,6.9c0.3,0.1,0.6,0.3,0.9,0.4c0.3,0.2,0.5,0.4,0.6,0.7
			c0,0.1,0,0.2-0.1,0.2l-0.2,0.1c-0.1,0-0.2,0.1-0.2,0.1c-0.1,0.1-0.2,0.1-0.2,0.1l-0.2,0.1c-0.8,0.3-1.7,0.5-2.8,0.4
			c-1.1,0-2-0.3-2.6-1L44,48.9c-0.2-0.2-0.4-0.3-0.5-0.3c-0.1,0-0.2,0.1-0.4,0.1c-0.1,0-0.2,0-0.4-0.1c-0.1-0.1-0.3-0.4-0.6-1
			l-0.3-0.8L41.4,46c0,0-0.1-0.1-0.2-0.1l-0.8-0.1c-0.3,0-0.6-0.2-1.1-0.4c-0.4-0.3-0.8-0.4-1-0.3c-0.1,0-0.2,0.1-0.2,0.2
			c-0.7,0.5-1.3,1.2-1.7,2.1c-0.4,0.9-0.5,1.8-0.2,2.7l0.5,1.3l0.1,0.3C37.3,52.7,37.8,53.6,38.3,54.6z M2.5,40.4
			c0.2,0,0.4,0,0.7-0.1c0.3-0.1,0.5-0.3,0.6-0.5C4,39.7,4,39.4,3.9,39.2c-0.3-0.6-0.7-0.8-1.4-0.5C2.2,38.8,2,39,2,39.2
			c-0.1,0.2,0,0.5,0.1,0.7C2.1,40.2,2.3,40.3,2.5,40.4z"/>
	</g>
</g>
<g class="st0">
	<path class="st1" d="M85.3,78.2c1.1-17.5-10.8-32.3-23.5-35.9c-7.2-2-14.1,2.2-18.9-0.9c1.6-4.8-1.9-6.3-2.2-10.5
		c-0.4-5.3,5.1-9.1,6.1-15.4C47.8,10.3,48,5.7,46,0.1c-4.9,0.3-6.2,4.3-9.2,6.6c0.1-2.3-1-3.4-2.2-4.4c-7.6,3.2-8.5,14.6-9.7,22.8
		c-1,0.6-2.8-0.2-4.8,0.4C16.3,26.8,8,37.9,6.5,41.8c-1.6,4.3,2.1,6.6,3.1,9.7c3.1,1.4,7.8,1.3,11,2.6c-1.2,4.3-1.7,6.7-2.2,11.4
		c0.9,0.7,0.7,2.6,1.8,3.1c-1.3,6.2,6.3,10.3,3.5,16.7c-3,1.4-5.8,3-6.6,6.6c4.4,3,12.5,2.2,19.3,2.6c0.8,0.6,0,2.6,1.3,2.6
		c0.2-0.6,0.6-0.9,1.3-0.9c-0.2,0.9-1.3,0.9-0.4,1.8c11.7,1.2,27.6,1.9,39.4,1c1,0.5,2.1,0.7,3.2,0.7c5.1,0,9.2-5.1,9.2-11.4
		C90.3,83.9,88.3,80.1,85.3,78.2z"/>
</g>
<g class="st0">
	<path class="st1" d="M8.7,65.8c0,0,0.6,2.7,0.6,4.4c0,0,0.1,2.4,2.2,2.6c0,0,3.1-1,6.5-1.7c0,0,2.6-0.7,3-2.7c0,0,2.9-3.3,3.7-5.8
		c0,0,2.4-3.8,2.4-1.8c0,0-0.7,5.6-1.3,6.2c0,0-4.8,2.9-4.6,5.1c0,0-2.1,0.9-2,2.3c0,0-0.3,0.9,0.8,1.1c0,0,1.2,0-0.8,1.5
		c0,0-2.5,3.7-0.2,4.3c0,0,2.9,4.1,15.8,0.3c0,0,2.6-1.4,3.2-3.4l2.4-3.7c0,0,1.4,0.6,2.3-3.4c0,0,0.9-1.2,1.8-2.7
		c0.8-2.5,1.2-5.4,2.6-7.3c2.3-3.2,8.8-1.5,13.8-1.8c2.3-0.2,4.4-0.9,6.7-1.2c1.7,2.4,2.9,5.2,4,8.3c-2,0.6-2.4,0.9-3.5,1.9
		c0,0-2.6,3.1-2.5,3.8c0,0,0.6,4.1,11.8,2c0,0-4.1,4.9,1.2,5.8c0,0,19.3,3.5,19.5-6.7c0,0,3.4,0.2,0.3-5c-1-2-2.6-3.7-3.5-5.2
		c-1.8-3-4.7-7.5-4.6-11c0.1-2.1,1.2-3.3,1.5-5.2c0.2-1.1,0.6-2.6,0.6-3.4c0-0.4-0.9-0.8-0.9-1.5c0-0.7,0.7-1.3,0.6-1.8
		c-0.3-3.7,0.7-8.6-1.8-12.3c-2.1-3-5.6-4.9-9.5-6.4c-3.9-1.5-8.1-3.9-12.3-4c-8.7-0.2-15.1,3.7-22.1,5.2c-3.4,0.7-7.1-0.5-10.7-0.3
		c-4.6,0.3-7.8,3.5-11.3,5.5c-4.9,2.8-10.5,3.8-13.5,7c-2.3-1.5-8.5-4.3-11-0.9c0.2,2.9,1.9,4.4,2.1,7c0.6,5.5-1.9,10.6,0.6,15.3
		c0.9,1.6,3.4,2.5,4.6,4.3C8.6,62.1,8.5,63.6,8.7,65.8"/>
</g>
<g>
	<path d="M98,43.6c-6.3,10.6-23,22.1-39,27.3v16.9c0,1-1,1.9-2,1.9c-1,0-2-0.8-2-1.9V72c-1,0.5-3.1,0.8-4.9,1.1
		c-1.5,0.2-3.1,0.4-4.1,0.4v14.3c0,1-1,1.9-2,1.9c-1,0-2-0.8-2-1.9V73.4C26,72,8.4,59.5,1.9,42.2C-5.4,21.8,16.7,7.6,50.1,12.4
		C83.6,17.4,105.4,31.2,98,43.6z M61.2,47.2c-2,0-3.6,2.4-3.6,5.4c0,3,1.6,5.4,3.6,5.4s3.6-2.4,3.6-5.4
		C64.7,49.6,63.1,47.2,61.2,47.2z M48.1,49.9c-1.8,0-3.2,2.1-3.2,4.8c0,2.7,1.4,4.8,3.2,4.8c1.8,0,3.2-2.1,3.2-4.8
		C51.3,52,49.8,49.9,48.1,49.9z"/>
</g>
<g class="st0">
	<path class="st1" d="M82.4,27.4c-1.2,2.7-1.4,5.7,1.1,5.7c2.5,0,4.5-2.4,4.5-5.4c0-3-8.4-20.8-10.8-20.8
		C74.7,7,86.1,18.8,82.4,27.4z"/>
	<path class="st1" d="M93.4,35.5c-0.3,1.5-1.4,2.5-2.5,2.2c-1-0.2-1.6-1.6-1.2-3.1c0.3-1.5,3.6-12.3,4.6-12
		C95.3,22.8,93.7,34,93.4,35.5z"/>
	<path class="st1" d="M100.1,61.9c-0.3-2.5-0.7-5-1.2-7.5c-1.6-10.4-15.2-20-28.6-20c-1.1,0-2.2,0.1-3.2,0.2
		c-1.3,0.1-2.5,0.3-3.8,0.4c4-4.9,5.5-11.2,3.6-16.9C63.8,8.4,52.1,3.3,40.8,6.9c-4.7,1.5-8.7,4.3-11.5,8c-4.4-1.4-9.4-1.3-14.1,0.2
		C3.9,18.8-2.7,29.7,0.5,39.5c2.1,6.7,8.4,11.3,16,12.2c-1.5,0.9-2.9,1.8-4.4,2.8c-5.3,3.7-8.2,8.6-8.1,13.8c0,4.7,2.5,9,6.8,11.9
		c1.9,1.4,3.7,2.8,5.5,4.3c4.9,3.8,10.7,6,16.2,6c3.4,0,6.6-0.8,9.5-2.4c10.9-6.1,23.6-9.3,36.8-9.3c0.8,0,1.6,0,2.4,0
		c6.3,0.2,12-2,15.4-5.8C99.4,70.1,100.6,66.3,100.1,61.9z M1.6,39.2c-2.9-9.2,3.3-19.5,14-22.9c4.5-1.4,9.3-1.5,13.6-0.1l0.5,0.3
		c2.7-3.9,6.8-6.9,11.5-8.4c10.7-3.4,21.7,1.3,24.7,10.5c1.8,5.7,0.1,12.1-4.3,16.8C46,37.7,31.2,42.9,18.2,50.7
		C10.3,50.3,3.7,45.8,1.6,39.2z M40.8,86c-2.5,1.4-5.3,2.1-8.4,2.1c-5,0-10.2-1.9-14.7-5.4c-1.8-1.5-3.7-3-5.7-4.4
		c-3.6-2.4-5.7-6.1-5.8-9.9c0-4.4,2.5-8.5,7.1-11.8c3.4-2.3,6.9-4.4,10.5-6.4c0.1,0.1,0.1,0.1,0.2,0.2c0.2,0.2,19.5,15.8,23.5,31.8
		c0,0.2,0.1,0.3,0.2,0.4C45.5,83.6,43.1,84.8,40.8,86z M66.7,77.4c-5.4,0.8-10.6,2.1-15.7,4c0,0,0,0,0,0
		c-3.8-15.2-19.6-29.4-23.7-32.9c7.9-3.9,16.4-6.9,25.1-8.9C55.6,44.6,67.2,64.2,66.7,77.4z M89.5,59.1c-1,0-1.8-2.8-1.8-6.2
		c0-3.4,0.8-6.2,1.8-6.2c1,0,1.8,2.8,1.8,6.2C91.3,56.3,90.5,59.1,89.5,59.1z"/>
</g>
<g class="st0">
	<g class="st1">
		<g>
			<g>
				<g>
					<path d="M89.8,94.7c-0.9,3.2-3.7,5.8-6.4,5.8H18.3c-2.7,0-5.6-2.6-6.4-5.8L3.9,65.4c-0.9-3.2,1.2-5.8,4.7-5.8h84.4
						c3.5,0,5.6,2.6,4.7,5.8L89.8,94.7z"/>
				</g>
				<g>
					<path d="M83.4,101.8H18.3c-3.3,0-6.7-3-7.7-6.8L2.6,65.8c-0.5-1.9-0.2-3.7,0.9-5.2c1.1-1.5,3-2.3,5.2-2.3h84.4
						c2.1,0,4,0.8,5.2,2.3c1.1,1.4,1.4,3.3,0.9,5.2L91.2,95C90.1,98.8,86.7,101.8,83.4,101.8z M13.1,94.3c0.7,2.6,3,4.8,5.1,4.8
						h65.1c2.1,0,4.4-2.2,5.1-4.8l7.9-29.2c0.3-1.1,0.1-2.1-0.4-2.8c-0.6-0.8-1.7-1.3-3-1.3H8.6c-1.3,0-2.4,0.4-3,1.3
						C5.1,63,4.9,64,5.2,65.1"/>
				</g>
			</g>
			<g>
				<path d="M100,65c0,3.1-2.2,5.6-5,5.6H6.6c-2.7,0-5-2.5-5-5.6l0,0c0-3.1,2.2-5.6,5-5.6h88.5C97.8,59.4,100,61.9,100,65L100,65z"
					/>
				<path d="M95.1,72H6.6c-3.5,0-6.3-3.1-6.3-6.9c0-3.8,2.8-6.9,6.3-6.9h88.5c3.5,0,6.3,3.1,6.3,6.9C101.4,68.8,98.6,72,95.1,72z
					 M6.6,60.8c-2,0-3.6,1.9-3.6,4.2c0,2.3,1.6,4.2,3.6,4.2h88.5c2,0,3.6-1.9,3.6-4.2c0-2.3-1.6-4.2-3.6-4.2
					C95.1,60.8,6.6,60.8,6.6,60.8z"/>
			</g>
		</g>
		<g>
			<g>
				<path d="M52.5,48.7c-4.9,0-9.7-2.3-12.9-6.1c-2.7-3.2-3.9-7.1-3.3-10.7c0.5-3.1,2.3-5.8,5-7.5c0.6-0.4,1.3-0.6,2.2-0.6
					c5.7,0,15.6,10.7,17.5,17.4c1,3.4-0.4,4.9-1.4,5.5C57.5,48.1,55,48.7,52.5,48.7z M43.3,26.6c-0.3,0-0.5,0.1-0.7,0.2
					c-2,1.3-3.4,3.2-3.7,5.6c-0.4,2.8,0.5,5.9,2.7,8.5C44.3,44,48.4,46,52.5,46c2.1,0,4-0.5,5.6-1.5c0.6-0.4,0.4-1.7,0.2-2.4
					C56.5,36.2,47.3,26.6,43.3,26.6z"/>
			</g>
			<g>
				<line class="st8" x1="40.4" y1="42.1" x2="38.8" y2="43.1"/>
				<path d="M38.8,44.5c-0.5,0-0.9-0.2-1.2-0.6c-0.4-0.6-0.2-1.5,0.4-1.9l1.6-1c0.6-0.4,1.5-0.2,1.9,0.4c0.4,0.6,0.2,1.5-0.4,1.9
					l-1.6,1C39.3,44.4,39.1,44.5,38.8,44.5z"/>
			</g>
			<g>
				<line class="st8" x1="38" y1="38.2" x2="36.1" y2="38.7"/>
				<path d="M36.1,40.1c-0.6,0-1.1-0.4-1.3-1c-0.2-0.7,0.2-1.5,0.9-1.7l1.9-0.5c0.7-0.2,1.5,0.2,1.7,0.9c0.2,0.7-0.2,1.5-0.9,1.7
					L36.5,40C36.4,40.1,36.3,40.1,36.1,40.1z"/>
			</g>
			<g>
				<line class="st8" x1="37.3" y1="34.2" x2="35.3" y2="34.1"/>
				<path d="M37.3,35.6C37.3,35.6,37.2,35.6,37.3,35.6l-2-0.1c-0.8,0-1.3-0.7-1.3-1.4c0-0.8,0.7-1.3,1.4-1.3l2,0.1
					c0.8,0,1.3,0.7,1.3,1.4C38.6,35,38,35.6,37.3,35.6z"/>
			</g>
			<g>
				<line class="st8" x1="38.1" y1="29.4" x2="36.2" y2="29"/>
				<path d="M38.1,30.8c-0.1,0-0.2,0-0.3,0l-1.9-0.4c-0.7-0.2-1.2-0.9-1-1.6s0.9-1.2,1.6-1l1.9,0.4c0.7,0.2,1.2,0.9,1,1.6
					C39.3,30.3,38.7,30.8,38.1,30.8z"/>
			</g>
			<g>
				<line class="st8" x1="43.8" y1="45" x2="42.7" y2="46.3"/>
				<path d="M42.7,47.7c-0.3,0-0.6-0.1-0.9-0.3c-0.6-0.5-0.6-1.3-0.2-1.9l1.2-1.4c0.5-0.6,1.3-0.6,1.9-0.2c0.6,0.5,0.6,1.3,0.2,1.9
					l-1.2,1.4C43.4,47.5,43.1,47.7,42.7,47.7z"/>
			</g>
			<g>
				<line class="st8" x1="48" y1="46.8" x2="47.5" y2="48.4"/>
				<path d="M47.5,49.8c-0.1,0-0.3,0-0.4-0.1c-0.7-0.2-1.1-1-0.9-1.7l0.5-1.6c0.2-0.7,1-1.1,1.7-0.9s1.1,1,0.9,1.7l-0.5,1.6
					C48.6,49.4,48,49.8,47.5,49.8z"/>
			</g>
			<g>
				<line class="st8" x1="53.5" y1="47.6" x2="53.4" y2="49.3"/>
				<path d="M53.4,50.7c0,0-0.1,0-0.1,0c-0.8-0.1-1.3-0.7-1.2-1.5l0.1-1.7c0.1-0.8,0.7-1.3,1.5-1.2c0.8,0.1,1.3,0.7,1.2,1.5
					l-0.1,1.7C54.7,50.1,54.1,50.7,53.4,50.7z"/>
			</g>
		</g>
		<g>
			<g>
				<path d="M80.8,41.3c-0.3,0-0.5,0-0.8-0.1c-7.2-1.6-11.6-9.8-9.8-18.2c1.6-7.4,7.5-12.8,14-12.8c0.8,0,1.7,0.1,2.5,0.3
					c3.1,0.7,4.4,4.9,3.6,11.9C89.5,30.2,86,41.3,80.8,41.3z M84.2,12.9c-5.2,0-10,4.5-11.3,10.6c-1.5,7,1.9,13.7,7.7,15
					c0.1,0,0.1,0,0.2,0c2.2,0,5.9-7.7,6.9-16.4c0.6-5.5-0.3-8.7-1.5-9C85.5,13,84.9,12.9,84.2,12.9z"/>
			</g>
			<g>
				<line class="st8" x1="71.1" y1="23.4" x2="69.2" y2="23"/>
				<path d="M71.1,24.8c-0.1,0-0.2,0-0.3,0l-1.9-0.4c-0.7-0.2-1.2-0.9-1-1.6c0.2-0.7,0.9-1.2,1.6-1l1.9,0.4c0.7,0.2,1.2,0.9,1,1.6
					C72.3,24.4,71.7,24.8,71.1,24.8z"/>
			</g>
			<g>
				<line class="st8" x1="73" y1="18.6" x2="71.3" y2="17.6"/>
				<path d="M73,20c-0.2,0-0.5-0.1-0.7-0.2l-1.7-1c-0.7-0.4-0.9-1.2-0.5-1.9c0.4-0.7,1.2-0.9,1.9-0.5l1.7,1c0.7,0.4,0.9,1.2,0.5,1.9
					C73.9,19.7,73.4,20,73,20z"/>
			</g>
			<g>
				<line class="st8" x1="75.9" y1="15" x2="74.7" y2="13.4"/>
				<path d="M75.9,16.3c-0.4,0-0.8-0.2-1.1-0.5l-1.2-1.5c-0.5-0.6-0.4-1.4,0.2-1.9c0.6-0.5,1.4-0.4,1.9,0.2l1.2,1.5
					c0.5,0.6,0.4,1.4-0.2,1.9C76.5,16.2,76.2,16.3,75.9,16.3z"/>
			</g>
			<g>
				<line class="st8" x1="80.6" y1="11.9" x2="79.7" y2="10.1"/>
				<path d="M80.6,13.2c-0.5,0-1-0.3-1.2-0.7l-0.9-1.7c-0.4-0.7-0.1-1.5,0.6-1.8c0.7-0.4,1.5-0.1,1.8,0.6l0.9,1.7
					c0.4,0.7,0.1,1.5-0.6,1.8C81.1,13.2,80.8,13.2,80.6,13.2z"/>
			</g>
			<g>
				<line class="st8" x1="70.9" y1="28.2" x2="69" y2="28.4"/>
				<path d="M69,29.7c-0.7,0-1.3-0.5-1.4-1.2c-0.1-0.8,0.5-1.4,1.2-1.5l1.9-0.2c0.8-0.1,1.4,0.5,1.5,1.2c0.1,0.8-0.5,1.4-1.2,1.5
					l-1.9,0.2C69.1,29.7,69,29.7,69,29.7z"/>
			</g>
			<g>
				<line class="st8" x1="72.1" y1="32.7" x2="70.4" y2="33.6"/>
				<path d="M70.4,34.9c-0.5,0-1-0.3-1.2-0.8c-0.3-0.7-0.1-1.5,0.6-1.8l1.8-0.9c0.7-0.3,1.5-0.1,1.8,0.6c0.3,0.7,0.1,1.5-0.6,1.8
					L71,34.8C70.8,34.9,70.6,34.9,70.4,34.9z"/>
			</g>
			<g>
				<line class="st8" x1="75.1" y1="37.5" x2="73.6" y2="38.7"/>
				<path d="M73.6,40c-0.4,0-0.8-0.2-1.1-0.5c-0.5-0.6-0.3-1.5,0.3-1.9l1.6-1.2c0.6-0.5,1.5-0.3,1.9,0.3s0.3,1.5-0.3,1.9l-1.6,1.2
					C74.1,40,73.9,40,73.6,40z"/>
			</g>
		</g>
		<g>
			<path d="M18.7,60.6h-3.4c-0.6,0-1.1-0.4-1.3-1C5.6,31,12.1,18.3,12.4,17.7c1.7-3.4,4.2-5.5,7.4-6c10-1.7,23.5,11.7,24.1,12.2
				c0.5,0.5,0.5,1.4,0,1.9c-0.5,0.5-1.4,0.5-1.9,0c-0.1-0.1-13.1-13-21.7-11.5c-2.4,0.4-4.2,1.9-5.5,4.6c-0.1,0.2-6.1,12.2,1.5,38.9
				H17c-1.5-6.4-6-28.4,0.5-36.8c1.8-2.3,4.1-3.4,7.1-3.4c0.8,0,8.8-0.3,16.5,8c0.5,0.6,0.5,1.4-0.1,1.9c-0.6,0.5-1.4,0.5-1.9-0.1
				c-7.1-7.6-14.2-7.2-14.3-7.2c0,0-0.1,0-0.1,0c-2.1,0-3.8,0.8-5,2.4C13,31.4,20,58.6,20.1,58.9c0.1,0.4,0,0.8-0.2,1.2
				C19.6,60.4,19.2,60.6,18.7,60.6z"/>
		</g>
		<g>
			<path d="M79.2,60.4h-6.6c-0.4,0-0.8-0.2-1.1-0.6c-0.3-0.4-0.3-0.8-0.2-1.2l6.4-19.3c0.2-0.7,1-1.1,1.7-0.9c0.7,0.2,1.1,1,0.9,1.7
				l-5.8,17.5H78L80.3,40c0.1-0.7,0.8-1.3,1.5-1.2c0.7,0.1,1.3,0.8,1.2,1.5l-2.4,18.8C80.5,59.9,79.9,60.4,79.2,60.4z"/>
		</g>
	</g>
</g>
<g class="st0">
	<path class="st1" d="M99.5,63.7c0-3.8-2.8-6.7-6.2-6.7H6.5c-3.4,0-6.2,3-6.2,6.7c0,3.4,2.3,6.2,5.3,6.7l6,22
		c0.9,3.1,3.7,5.5,6.3,5.5h63.9c2.6,0,5.5-2.4,6.3-5.6l6-22C97.2,69.9,99.5,67.2,99.5,63.7z"/>
	<g class="st1">
		<g>
			<path d="M57.6,44.5c-5.3,3.3-13.3,1.6-17.9-3.8c-4.6-5.4-4-12.5,1.3-15.8C46.4,21.5,62.9,41.2,57.6,44.5z"/>
			<path d="M51.5,47.5c-4.8,0-9.5-2.2-12.7-6c-2.6-3.1-3.8-6.9-3.2-10.5c0.5-3.1,2.2-5.7,4.9-7.3c0.6-0.4,1.3-0.6,2.1-0.6
				c5.6,0,15.3,10.5,17.2,17.1c1,3.4-0.4,4.8-1.3,5.4C56.4,46.8,54,47.5,51.5,47.5z M42.5,25.8c-0.3,0-0.5,0.1-0.7,0.2
				c-2,1.2-3.3,3.2-3.7,5.5c-0.4,2.8,0.5,5.8,2.7,8.3c2.6,3.1,6.7,5,10.7,5c2,0,3.9-0.5,5.5-1.5c0.6-0.4,0.4-1.7,0.2-2.4
				C55.5,35.1,46.5,25.8,42.5,25.8z"/>
		</g>
		<g>
			<line class="st8" x1="39.6" y1="41" x2="38.1" y2="42"/>
			<path d="M38.1,43.3c-0.4,0-0.9-0.2-1.1-0.6c-0.4-0.6-0.2-1.5,0.4-1.8l1.6-1c0.6-0.4,1.5-0.2,1.8,0.4c0.4,0.6,0.2,1.5-0.4,1.8
				l-1.6,1C38.6,43.2,38.3,43.3,38.1,43.3z"/>
		</g>
		<g>
			<line class="st8" x1="37.3" y1="37.1" x2="35.5" y2="37.6"/>
			<path d="M35.5,39c-0.6,0-1.1-0.4-1.3-1c-0.2-0.7,0.2-1.5,0.9-1.7l1.8-0.5c0.7-0.2,1.5,0.2,1.7,0.9c0.2,0.7-0.2,1.5-0.9,1.7
				l-1.8,0.5C35.7,39,35.6,39,35.5,39z"/>
		</g>
		<g>
			<line class="st8" x1="36.6" y1="33.2" x2="34.7" y2="33.1"/>
			<path d="M36.6,34.5C36.6,34.5,36.5,34.5,36.6,34.5l-2-0.1c-0.7,0-1.3-0.6-1.3-1.4c0-0.7,0.7-1.3,1.4-1.3l1.9,0.1
				c0.7,0,1.3,0.6,1.3,1.4C37.9,34,37.3,34.5,36.6,34.5z"/>
		</g>
		<g>
			<line class="st8" x1="37.4" y1="28.5" x2="35.5" y2="28.1"/>
			<path d="M37.4,29.8c-0.1,0-0.2,0-0.3,0l-1.9-0.4c-0.7-0.2-1.2-0.9-1-1.6c0.2-0.7,0.9-1.2,1.6-1l1.9,0.4c0.7,0.2,1.2,0.9,1,1.6
				C38.6,29.4,38,29.8,37.4,29.8z"/>
		</g>
		<g>
			<line class="st8" x1="43" y1="43.8" x2="41.9" y2="45.1"/>
			<path d="M41.9,46.5c-0.3,0-0.6-0.1-0.9-0.3c-0.6-0.5-0.6-1.3-0.2-1.9l1.1-1.3c0.5-0.6,1.3-0.6,1.9-0.2c0.6,0.5,0.6,1.3,0.2,1.9
				L42.9,46C42.6,46.3,42.2,46.5,41.9,46.5z"/>
		</g>
		<g>
			<line class="st8" x1="47.1" y1="45.6" x2="46.6" y2="47.2"/>
			<path d="M46.6,48.5c-0.1,0-0.3,0-0.4-0.1c-0.7-0.2-1.1-1-0.9-1.7l0.5-1.6c0.2-0.7,1-1.1,1.7-0.9c0.7,0.2,1.1,1,0.9,1.7l-0.5,1.6
				C47.7,48.2,47.1,48.5,46.6,48.5z"/>
		</g>
		<g>
			<line class="st8" x1="52.5" y1="46.4" x2="52.4" y2="48"/>
			<path d="M52.4,49.4c0,0-0.1,0-0.1,0c-0.7-0.1-1.3-0.7-1.2-1.5l0.1-1.7c0.1-0.7,0.7-1.3,1.4-1.2c0.7,0.1,1.3,0.7,1.2,1.5l-0.1,1.7
				C53.7,48.9,53.1,49.4,52.4,49.4z"/>
		</g>
	</g>
	<g class="st1">
		<g>
			<path d="M78.8,38.7c-6.4-1.4-10.2-8.7-8.6-16.3c1.7-7.6,8.2-12.6,14.6-11.2C91.2,12.6,85.2,40.1,78.8,38.7z"/>
			<path d="M79.3,40.1c-0.3,0-0.5,0-0.8-0.1c-7.1-1.5-11.4-9.6-9.6-17.9c1.6-7.3,7.4-12.5,13.7-12.5c0.8,0,1.6,0.1,2.4,0.3
				c3.1,0.7,4.3,4.8,3.6,11.7C87.8,29.3,84.4,40.1,79.3,40.1z M82.7,12.3c-5.1,0-9.8,4.4-11.1,10.4c-1.5,6.9,1.9,13.5,7.5,14.7
				c0.1,0,0.1,0,0.2,0c2.2,0,5.8-7.6,6.7-16.1c0.6-5.4-0.3-8.6-1.5-8.8C83.9,12.4,83.3,12.3,82.7,12.3z"/>
		</g>
		<g>
			<line class="st8" x1="69.8" y1="22.6" x2="67.9" y2="22.2"/>
			<path d="M69.8,24c-0.1,0-0.2,0-0.3,0l-1.9-0.4c-0.7-0.2-1.2-0.9-1-1.6c0.2-0.7,0.9-1.2,1.6-1l1.9,0.4c0.7,0.2,1.2,0.9,1,1.6
				C70.9,23.5,70.4,24,69.8,24z"/>
		</g>
		<g>
			<line class="st8" x1="71.6" y1="17.9" x2="69.9" y2="16.9"/>
			<path d="M71.6,19.2c-0.2,0-0.5-0.1-0.7-0.2l-1.7-1c-0.6-0.4-0.9-1.2-0.5-1.8c0.4-0.6,1.2-0.9,1.8-0.5l1.7,1
				c0.6,0.4,0.9,1.2,0.5,1.8C72.5,19,72,19.2,71.6,19.2z"/>
		</g>
		<g>
			<line class="st8" x1="74.5" y1="14.3" x2="73.3" y2="12.8"/>
			<path d="M74.5,15.7c-0.4,0-0.8-0.2-1-0.5l-1.2-1.5c-0.5-0.6-0.4-1.4,0.2-1.9c0.6-0.5,1.4-0.4,1.9,0.2l1.2,1.5
				c0.5,0.6,0.4,1.4-0.2,1.9C75.1,15.6,74.8,15.7,74.5,15.7z"/>
		</g>
		<g>
			<line class="st8" x1="79.1" y1="11.3" x2="78.2" y2="9.6"/>
			<path d="M79.1,12.6c-0.5,0-0.9-0.3-1.2-0.7L77,10.2c-0.3-0.7-0.1-1.5,0.6-1.8c0.7-0.3,1.5-0.1,1.8,0.6l0.9,1.7
				c0.3,0.7,0.1,1.5-0.6,1.8C79.5,12.6,79.3,12.6,79.1,12.6z"/>
		</g>
		<g>
			<line class="st8" x1="69.6" y1="27.3" x2="67.7" y2="27.5"/>
			<path d="M67.7,28.8c-0.7,0-1.3-0.5-1.3-1.2c-0.1-0.7,0.5-1.4,1.2-1.5l1.9-0.2c0.7-0.1,1.4,0.5,1.5,1.2c0.1,0.7-0.5,1.4-1.2,1.5
				l-1.9,0.2C67.8,28.8,67.7,28.8,67.7,28.8z"/>
		</g>
		<g>
			<line class="st8" x1="70.8" y1="31.8" x2="69.1" y2="32.6"/>
			<path d="M69.1,33.9c-0.5,0-1-0.3-1.2-0.8c-0.3-0.7-0.1-1.5,0.6-1.8l1.7-0.8c0.7-0.3,1.5,0,1.8,0.6c0.3,0.7,0,1.5-0.6,1.8
				l-1.7,0.8C69.4,33.9,69.2,33.9,69.1,33.9z"/>
		</g>
		<g>
			<line class="st8" x1="73.7" y1="36.4" x2="72.2" y2="37.6"/>
			<path d="M72.2,38.9c-0.4,0-0.8-0.2-1.1-0.5c-0.4-0.6-0.3-1.4,0.2-1.9l1.5-1.2c0.6-0.5,1.4-0.3,1.9,0.2c0.4,0.6,0.3,1.4-0.2,1.9
				L73,38.7C72.8,38.9,72.5,38.9,72.2,38.9z"/>
		</g>
	</g>
	<path class="st9" d="M42.2,24.1c0,0-16.1-26.3-28.8-6.4c0,0-6.5,12.2,1.7,40.1h3.4c0,0-10.3-39.5,5.8-39.5c0,0,7.7-0.6,15.1,7.4"/>
	<polyline class="st9" points="77.5,38.6 71.2,57.6 77.7,57.6 80.1,39.1 	"/>
</g>
<g class="st0">
	<path class="st1" d="M26.3,97.5L5.1,77.1c-0.6-0.6-1.4-0.8-2-0.2c-0.6,0.6-0.3,1.4,0.3,2l21.2,20.4c0.6,0.6,1.4,0.8,2,0.2
		C27.2,98.9,27,98.1,26.3,97.5z"/>
	<g class="st1">
		<line class="st8" x1="90.1" y1="10" x2="98" y2="1.8"/>
		<path d="M89,11.2c-0.6-0.6-0.7-1.6,0-2.2l7.9-8.2c0.6-0.6,1.6-0.6,2.2,0c0.6,0.6,0.7,1.6,0,2.2l-7.9,8.2
			C90.6,11.7,89.6,11.8,89,11.2z"/>
	</g>
	<g class="st1">
		<line class="st8" x1="11.8" y1="86.3" x2="23.7" y2="74"/>
		<rect x="9.2" y="78.6" transform="matrix(0.6933 -0.7207 0.7207 0.6933 -52.3159 37.4051)" width="17.1" height="3.2"/>
	</g>
	<g class="st1">
		<line class="st8" x1="28.7" y1="78.8" x2="16.8" y2="91.1"/>
		<rect x="14.2" y="83.4" transform="matrix(0.6934 -0.7205 0.7205 0.6934 -54.2329 42.4622)" width="17.1" height="3.2"/>
	</g>
	<g class="st1">
		<path d="M74.8,20.6l9.4-9.7c1.2-1.2,3.2-1.1,4.6,0.2l0,0c1.4,1.3,1.6,3.4,0.4,4.6l-9.4,9.7"/>
		<path d="M78.7,26.6c-0.6-0.6-0.7-1.6,0-2.3l9.4-9.7c0.5-0.6,0.4-1.6-0.4-2.3c-0.7-0.7-1.8-0.8-2.4-0.3l-9.4,9.7
			c-0.6,0.6-1.6,0.7-2.3,0c-0.6-0.6-0.7-1.6,0-2.3L83,9.7c1.8-1.8,4.8-1.7,6.9,0.2c2,1.9,2.2,5,0.5,6.9L81,26.5
			C80.4,27.1,79.3,27.2,78.7,26.6z"/>
	</g>
	<g class="st1">
		<g>
			<path d="M38.4,82.4c-1.6,1.6-4,1.8-5.5,0.4L19.5,69.9c-1.5-1.4-1.4-3.9,0.2-5.5l46.2-48.1c1.5-1.6,4-1.8,5.5-0.4l13.4,12.9
				c1.5,1.4,1.4,3.9-0.2,5.5L38.4,82.4z"/>
			<path d="M31.9,84L18.4,71c-2.1-2-2-5.5,0.1-7.7l46.2-48.1c2.2-2.2,5.6-2.4,7.7-0.4l13.4,12.9c2.1,2,2,5.5-0.1,7.7L39.6,83.5
				C37.4,85.8,34,86,31.9,84z M70.3,17.1c-0.8-0.8-2.3-0.7-3.2,0.3L20.8,65.5c-0.9,1-1,2.4-0.2,3.2l13.4,12.9
				c0.8,0.8,2.3,0.7,3.2-0.3l46.2-48.1c0.9-1,1-2.4,0.2-3.2L70.3,17.1z"/>
		</g>
		<g>
			<g>
				<line class="st8" x1="61.4" y1="21.1" x2="67.6" y2="27.1"/>
				<path d="M66.5,28.2l-6.2-6c-0.6-0.6-0.7-1.6,0-2.2c0.6-0.6,1.6-0.6,2.2,0l6.2,6c0.6,0.6,0.7,1.6,0,2.2
					C68.2,28.8,67.2,28.8,66.5,28.2z"/>
			</g>
			<g>
				<line class="st8" x1="42.8" y1="40.4" x2="49.1" y2="46.4"/>
				<path d="M48,47.5l-6.2-6c-0.6-0.6-0.7-1.6,0-2.2c0.6-0.6,1.6-0.7,2.2,0l6.2,6c0.6,0.6,0.7,1.6,0,2.2
					C49.6,48.1,48.6,48.2,48,47.5z"/>
			</g>
			<g>
				<line class="st8" x1="24.2" y1="59.7" x2="30.5" y2="65.7"/>
				<path d="M29.4,66.9l-6.2-6c-0.6-0.6-0.6-1.6,0-2.2c0.6-0.6,1.6-0.7,2.2,0l6.2,6c0.6,0.6,0.7,1.6,0,2.2
					C31,67.5,30,67.5,29.4,66.9z"/>
			</g>
			<g>
				<line class="st8" x1="56.7" y1="25.9" x2="59.2" y2="28.3"/>
				<path d="M58.1,29.4L55.6,27c-0.6-0.6-0.7-1.6,0-2.2c0.6-0.6,1.6-0.6,2.2,0l2.5,2.4c0.6,0.6,0.6,1.6,0,2.2
					C59.8,30,58.8,30,58.1,29.4z"/>
			</g>
			<g>
				<line class="st8" x1="38.2" y1="45.2" x2="40.7" y2="47.6"/>
				<path d="M39.6,48.8l-2.5-2.4c-0.6-0.6-0.6-1.6,0-2.2c0.6-0.6,1.6-0.7,2.2,0l2.5,2.4c0.6,0.6,0.6,1.6,0,2.2
					C41.2,49.4,40.2,49.4,39.6,48.8z"/>
			</g>
			<g>
				<line class="st8" x1="28.9" y1="54.9" x2="31.4" y2="57.3"/>
				<path d="M30.3,58.4L27.8,56c-0.6-0.6-0.6-1.6,0-2.2c0.6-0.6,1.6-0.7,2.2,0l2.5,2.4c0.6,0.6,0.7,1.6,0,2.2
					C31.9,59,30.9,59,30.3,58.4z"/>
			</g>
			<g>
				<line class="st8" x1="52.1" y1="30.7" x2="54.6" y2="33.1"/>
				<path d="M53.5,34.3L51,31.9c-0.6-0.6-0.7-1.6,0-2.2c0.6-0.6,1.6-0.6,2.2,0l2.5,2.4c0.6,0.6,0.7,1.6,0,2.2
					C55.1,34.9,54.1,34.9,53.5,34.3z"/>
			</g>
			<g>
				<line class="st8" x1="47.5" y1="35.6" x2="50" y2="38"/>
				<path d="M48.9,39.1l-2.5-2.4c-0.6-0.6-0.7-1.6,0-2.2c0.6-0.6,1.6-0.7,2.2,0l2.5,2.4c0.6,0.6,0.7,1.6,0,2.2
					C50.5,39.7,49.5,39.7,48.9,39.1z"/>
			</g>
			<g>
				<line class="st8" x1="33.5" y1="50.1" x2="36" y2="52.5"/>
				<path d="M34.9,53.6l-2.5-2.4c-0.6-0.6-0.6-1.6,0-2.2c0.6-0.6,1.6-0.7,2.2,0l2.5,2.4c0.6,0.6,0.6,1.6,0,2.2
					C36.5,54.2,35.5,54.2,34.9,53.6z"/>
			</g>
		</g>
	</g>
</g>
<g class="st0">
	<g class="st1">
		<path d="M44.3,87.1c-1.1,0-2-0.9-2-2v-4c0-1.1,0.9-2,2-2c1.1,0,2,0.9,2,2v4C46.3,86.2,45.4,87.1,44.3,87.1z"/>
	</g>
	<g class="st1">
		<path d="M56.2,87.1c-1.1,0-2-0.9-2-2v-4c0-1.1,0.9-2,2-2c1.1,0,2,0.9,2,2v4C58.2,86.2,57.3,87.1,56.2,87.1z"/>
	</g>
	<g class="st1">
		<path class="st10" d="M13.1,48.4"/>
	</g>
	<g class="st1">
		<path class="st10" d="M89.7,48.4"/>
	</g>
	<g class="st1">
		<path d="M39,6.7l1.2,9.3h20.6l0.7-9.3C50.1,3.4,39,6.7,39,6.7z"/>
		<path d="M6,20.9l6.2,8.2L30,18.8l-4.5-9.2C13.8,12.3,6,20.9,6,20.9z"/>
		<path d="M75,9.6l-4.5,9.2l17.8,10.4l6.2-8.2C94.4,20.9,86.7,12.3,75,9.6z"/>
	</g>
	<path class="st1" d="M100.5,58.1C100.5,58.1,100.5,58.1,100.5,58.1c0-22.3-22.5-40.4-50.2-40.4C22.5,17.7,0,35.8,0,58.1
		c0,0,0,0,0,0.1c0,0.1,0,0.1,0,0.2c0,0.2,0,0.3,0.1,0.5c0,0.1,0,0.2,0,0.3c0,0,0,0,0,0.1c0,0,0,0,0,0C0,68,6,75,13.3,75h3
		c-0.1,1-0.3,1.3-0.3,1.9v10.5c0,4.2,3.5,7.6,7.7,7.6h51.1c4.2,0,7.2-3.4,7.2-7.6V76.9c0-0.6,0.3-0.9,0.2-1.9h5
		c7.3,0,13.3-7,13.3-15.9c0,0,0,0,0,0c0,0,0,0,0-0.1c0-0.1,0-0.2,0-0.3c0-0.2,0.1-0.3,0.1-0.4C100.5,58.2,100.5,58.2,100.5,58.1z
		 M96,58.1c0,0,0,3.9-1.7,7.4c-1.6,2.8-4.2,4.5-7.1,4.5H84c-6-1-10.4-5.1-10.6-9.9c-0.2-6.2,6.7-11.3,15.5-11.6
		c2-0.1,3.8,0.2,5.6,0.5C95.5,51.9,96,55,96,58.1 M5.4,62.4c-0.2,0-0.4-0.1-0.6-0.2c-0.2-1-0.4-2.1-0.4-3.2c0-0.2,0-0.3-0.1-0.5
		c0-0.2,0.1-0.3,0.1-0.4c0-8.8,4.1-16.9,10.8-23.1c2.6,2.9,3.5,8.7,2,14.9C15.3,57.9,10,63.5,5.4,62.4z M51.8,60
		c-9,1.5-16.9-1.5-17.8-6.6c-0.8-5.1,5.7-10.5,14.7-12c9-1.5,16.9,1.5,17.8,6.6C67.3,53.2,60.7,58.5,51.8,60z M65.2,24.4
		c-0.1,4.7-6.9,8.3-15.2,8.1c-8-0.2-14.5-3.9-14.8-8.4c4.7-1.3,9.7-2,15-2c5.2,0,10.3,0.7,15,2C65.2,24.3,65.2,24.3,65.2,24.4z
		 M78,76.9v10.5c0,1.7-1.5,2.6-3.2,2.6H23.7C22,90,21,89.1,21,87.4V76.9c0-0.7-0.2-0.9,0.2-1.9h56.2C77.7,76,78,76.2,78,76.9z"/>
</g>
<g class="st0">
	<path class="st1" d="M49.2,52c1.8-0.2,3-1.2,3-2.7c0-0.8-0.4-2.1-1.2-3c8.2-2.7,14-20.2,14-29.7C65,5,56.8-0.1,48.6-0.1
		c-9.7,0-15.9,6.5-15.9,16.6c0,9.3,5.6,26.4,13.6,29.6c-0.8,1-1.3,2.3-1.3,3.2c0,1.2,0.8,2.1,2.1,2.5c-0.5,1.2-0.8,2.6-0.2,4.4
		c1.8,5.2,7,7.8,6.3,14.1c-0.4,3.3-3.3,5.1-5.1,7.5c-1.2,1.6-1.8,3.5-2,5.4c-0.5,5.6,3.7,10.3,3.2,15.9c-0.2,1.8,1.9,0.7,2-0.5
		c0.4-4.2-1.1-7.7-2.4-11.6c-1.3-3.8-0.8-7,2.1-9.9c1.3-1.3,2.3-2.6,3.2-4.1c1.6-2.7,1.5-6.3,0.5-9.2C53.6,60.8,47.7,55.6,49.2,52z
		 M34.8,16.5C34.8,7.7,40.2,2,48.6,2c8.7,0,14.3,5.7,14.3,14.5c0,10.5-6.8,28-14,28S34.8,27,34.8,16.5z M46.7,49.5
		c0-0.9,1-2.5,1.9-2.5c0,0,0,0,0,0c0.9,0,1.9,1.5,1.9,2.5c0,1-1.5,0.8-1.8,0.8C47.9,50.3,46.7,50.3,46.7,49.5z"/>
</g>
<g class="st0">
	<g class="st1">
		<path class="st11" d="M13,28.9l12.1,6.6c2.2,1.2,4.9,0.4,6-1.8l2.4-4.4c1.2-2.2,0.4-4.9-1.8-6l-12.1-6.6"/>
		<path class="st12" d="M5.8,17.6c-2,0.4-3.9,1.7-4.9,3.7c-1.9,3.5-0.7,7.8,2.6,9.6c3,1.7,6.8,0.7,8.9-2"/>
		<path class="st12" d="M19.7,16.4c0.4-2.8-0.9-5.7-3.5-7.1c-3.4-1.8-7.6-0.5-9.5,3c-0.9,1.6-1.1,3.4-0.8,5"/>
	</g>
	<g class="st1">
		<path class="st11" d="M87.1,56.5l-12.4-6.2c-2.2-1.1-4.9-0.2-6,2l-2.2,4.4c-1.1,2.2-0.2,4.9,2,6l12.4,6.2"/>
		<path class="st12" d="M94.6,67.6c2-0.5,3.8-1.8,4.8-3.9c1.8-3.5,0.4-7.8-3-9.5c-3.1-1.5-6.8-0.5-8.8,2.4"/>
		<path class="st12" d="M80.8,69.3c-0.3,2.8,1.1,5.7,3.7,7c3.4,1.7,7.6,0.2,9.4-3.4c0.8-1.6,1-3.4,0.6-5"/>
	</g>
	<path class="st13" d="M84,52.3C70.9,65.4,57.5,84.7,47,78.4C35.6,71.4,15.3,50,22.6,30.5c8-21.5,30.4-33.1,47-18.4
		C87.7,27.3,96,40.3,84,52.3z"/>
	<g class="st1">
		<path d="M59.4,76.5c-0.5,0.8-0.9,1.6-1.4,2.5c-0.9,2.9-8.3,4.8-10.1,3.6c-3.1-0.5-6.3-1.5-9.9-2.8c-2-1.2-4.3-4.3-4.6-6.8
			c-0.3-2.4-0.5-4.8-0.5-7.2"/>
		<path d="M49.7,83.8c-0.8,0-1.5-0.1-2.1-0.4c-2.9-0.5-6.2-1.5-9.9-2.8l-0.2-0.1c-2.1-1.3-4.7-4.5-5.1-7.5c-0.3-2.4-0.5-4.9-0.5-7.3
			l1.9,0c0,2.4,0.2,4.8,0.5,7.1c0.3,2.3,2.4,5,4.1,6.1c3.7,1.3,6.8,2.2,9.7,2.7l0.2,0l0.2,0.1c0.5,0.3,2.7,0.3,5.2-0.6
			c1.9-0.7,3.2-1.6,3.5-2.5l0.1-0.2c0.4-0.8,0.9-1.7,1.4-2.5l1.6,0.9c-0.5,0.8-0.9,1.6-1.3,2.3c-0.6,2-3.2,3.1-4.6,3.6
			C52.9,83.4,51.2,83.8,49.7,83.8z"/>
	</g>
	<g class="st1">
		<path class="st14" d="M38.8,66.5c5.1,2,10.2,3.9,15.4,5.9"/>
		<path class="st14" d="M38,70.1c1.6-1.7,2.4-4.5,4.2-6.4c-1.2,2.6-1.5,5.5-1.2,8.4c2.1-1.4,2.8-4,4.4-6c-0.5,1.4-0.9,3-1.4,4.5
			c1.1-1.1,2.4-2.3,3.8-2.9c-0.1,1.7-0.2,4.2,0.7,5.6c0.6-1.3,2-2.1,3-3.2c-0.2,1.4-0.3,3.1,0.3,4.4c0.6-0.7,0.9-1.8,1.3-2.8"/>
	</g>
	<g class="st1">
		<path d="M42.5,38.8c-3.2,4.8-7,9.3-9.9,7.2c-3.1-2.1-5.6-7.5-2.8-13c2.9-5.8,7.7-8.7,11.1-5.6C44.4,30.6,45.6,34.3,42.5,38.8z"/>
		<path class="st15" d="M42.5,38.8c-3.2,4.8-7,9.3-9.9,7.2c-3.1-2.1-5.6-7.5-2.8-13c2.9-5.8,7.7-8.7,11.1-5.6
			C44.4,30.6,45.6,34.3,42.5,38.8z"/>
	</g>
	<g class="st1">
		<g>
			<path class="st16" d="M51.7,35.7c2,3.3,4.3,8.9,4.6,15.3"/>
			<path class="st16" d="M63.1,38.3c-5.9,3-11.4,5.5-15.7,5.4"/>
		</g>
	</g>
</g>
<g class="st0">
	<path class="st1" d="M27,0.2C16.6,0.2,8,8.7,8,19.2v61.5c0,10.4,8.6,18.9,19,18.9c10.4,0,19-8.5,19-18.9V19.2
		C46,8.7,37.4,0.2,27,0.2z M26.5,3.3c8.7,0,15.5,7.1,15.5,15.8v29.2c-5-1.2-18-3.4-31,0.2V19.2C11,10.4,17.8,3.3,26.5,3.3z"/>
	<path class="st1" d="M70,100c10.4,0,19-8.5,19-18.9V19.5C89,9.1,80.4,0.6,70,0.6c-10.4,0-19,8.5-19,18.9v61.5
		C51,91.5,59.6,100,70,100z M70.5,96.9c-8.7,0-15.5-7.1-15.5-15.8V51.8c5,1.2,18,3.4,31-0.2v29.5C86,89.8,79.2,96.9,70.5,96.9z"/>
</g>
</svg>
