<?xml version="1.0" encoding="utf-8"?>
<!-- Generator: Adobe Illustrator 19.2.1, SVG Export Plug-In . SVG Version: 6.00 Build 0)  -->
<svg version="1.1" id="Layer_1" xmlns="http://www.w3.org/2000/svg" xmlns:xlink="http://www.w3.org/1999/xlink" x="0px" y="0px"
	 viewBox="0 0 100 125" style="enable-background:new 0 0 100 125;" xml:space="preserve">
<path d="M40.2,72c0-1-3.1-0.5-7.9-3.1c-4.8-2.6-9.1-8.4-10.1-16.5c-1-8.1,2.6-14.8,2.6-14.8s-4.3-1.9-7.7-10.3s4.1-15.8,4.1-15.8
	s1.9,5.3,4.1,8.6s8.1,4.8,11.7,6.2c3.6,1.4,18.2,0.5,21.1,0.2c2.9-0.2,4.3-2.9,8.4-6.9c4.1-4.1,1.7-11.5,1.7-11.5s6,3.8,9.1,11.7
	c3.1,7.9-4.8,16.5-4.8,16.5s2.9,10.1,2.6,19.9s-9.6,14.8-11.1,15.3c-1.5,0.5-5.7,1.2-5.2,2.6c0.5,1.4,6.9,14.8,4.8,16.8
	c-2.2,1.9-23.7,0.6-25.4-1.2C35.1,86.4,40.2,73,40.2,72z M34.6,51.6c5.7,4.5,9.3-2.9,9.3-2.9L29.9,42C29.9,42,28.9,47,34.6,51.6z
	 M66.3,47.5c2.9-3.8,0-7.7,0-7.7l-12.5,7.7C60.3,52.3,63.4,51.3,66.3,47.5z"/>
</svg>
