<svg id="Objects" xmlns="http://www.w3.org/2000/svg" viewBox="0 0 131.41 83.65"><defs><style>.cls-1{fill:#62dddd;}</style></defs><title>Fearful Fly</title><path d="M189,52c-1.28-3.93-2.1-8-3.24-11.95-0.87-3-1-6.17-2.59-9-2.39-4.4-10.16-2.3-13.83-1.43a50.92,50.92,0,0,0-18.39,8.7c-4.39,3.21-11.55,8.1-13.25,13.63-5.42-2.43-12.14-3.11-18.45-3.16-5.6.35-10.2,4.45-13.81,8.4h0c-2.2-1.91-3.87-4.14-6.33-5.85-3-2.09-6.4-3.67-9.53-5.57-5.79-3.52-11.52-9.1-18.09-11-4.38-1.28-5.62,4.29-7,7-3.14,6.07-6.51,12-6.83,19a0.76,0.76,0,0,0,1,.84c3.52-1.13,6.82-2.62,10.57-2.75,5.42-.18,8.07,4.89,8.83,9.39,0.25,1.51,2-.06,2.19-0.87q3.8-5.58,7-1.77a13.88,13.88,0,0,1,1.25,2.7c0.54,1.23,2-.48,2.1-1.11q4.89-4.68,6-.82c0.45,1,.72,2,1.16,3,0.35,0.77,1.35.16,1.71-.22s0.5-.57.74-0.87A22.38,22.38,0,0,0,100.4,73c1.31,9.53,8.33,15,16.59,16.75-1.3,4.74-2.22,9.1-1,13.77-3,.65-6.22,2.39-5.69,5.77,0.41,2.64,3.44,1.73,5.49.39,1,3.31,4.91,2.67,6.37.57,2.4,0.86,5.64-.32,5.8-3.32,0.14-2.66-1.4-4.36-3.87-5.19-0.64-.21-1.32.16-1.55-0.76a17.9,17.9,0,0,1-.43-4.23,22.33,22.33,0,0,1,1.25-6.41,30,30,0,0,0,5.93-.71,26.75,26.75,0,0,0,6-2.12,0.82,0.82,0,0,0,.53.15c5.4,0,6.77,4.68,8,9.07,0.54,1.91,1,2.41-.55,3.88a2.89,2.89,0,0,0-.61,2.8c0.47,3.25,4.24,3.8,6.37,2.18,2.12,2.75,7.76-1.33,7.14-4.26,1.74-.5,3.26-1.56,2.48-3.56-1.21-3.07-5-3-7.6-1.85-0.78-6.26-3.68-10.05-9.17-13,4.25-4,7-9.37,6.58-15.43a20.09,20.09,0,0,0-1.63-6.82,1.59,1.59,0,0,0,.3-0.7c0.17-1.79.71-8.38,5.19-5.54,1.68,1.06,2.79,3.14,4,4.72,0.68,0.92,2.13-.19,2.1-1.11,0-1.77-.15-3.52-0.07-5.29q3.14-4.2,5.39-1.44A10.57,10.57,0,0,1,166.39,56c0.42,1.34,2.19.14,2.19-.87,0-1.46,0-2.9.16-4.36,0.4-4.35,5.36-4.78,8.62-3.74,3.61,1.15,6.6,4.47,9.66,6.59C187.86,54.19,189.26,52.95,189,52Z" transform="translate(-57.59 -28.37)"/><path class="cls-1" d="M115.24,61.17c-1.68,0-4.18,2.75-4.18,4.06a4.9,4.9,0,0,0,1.81,4.25c3.81,2.75,10.74-.44,8.81-5.56-0.87-2.25-3.75-2.81-5.87-2.75h-0.56Z" transform="translate(-57.59 -28.37)"/><path class="cls-1" d="M127.61,58.8a2.93,2.93,0,0,0-2.13,2.07A2.5,2.5,0,0,0,126.4,63c1.94,1.4,5.46-.22,4.48-2.83-0.44-1.14-1.9-1.43-3-1.4h-0.29Z" transform="translate(-57.59 -28.37)"/></svg>