<svg id="Objects" xmlns="http://www.w3.org/2000/svg" viewBox="0 0 126.74 130.11"><defs><style>.cls-1{fill:none;}.cls-2{fill:#62dddd;}</style></defs><title>Floater</title><path class="cls-1" d="M442.6,487.23c0.06-.13.11-0.26,0.18-0.38q-2.79.53-5.58,1.1Z" transform="translate(-423.88 -434.63)"/><path class="cls-2" d="M430.92,489.27c3.16,2.51,5.66,5.76,8.4,8.74,1-3.62,1.61-7.38,3.28-10.77l-5.4.72Q434.05,488.59,430.92,489.27Z" transform="translate(-423.88 -434.63)"/><path class="cls-2" d="M465.26,492.34a42.59,42.59,0,0,1-1.58,7.88l0.26-.21c2.16-1.82,4.48-3.63,6.82-5.48A12.41,12.41,0,0,0,465.26,492.34Z" transform="translate(-423.88 -434.63)"/><path class="cls-2" d="M446.64,515.45q0.79-.67,1.62-1.29a55.43,55.43,0,0,1,5-5.13,28.21,28.21,0,0,0-7.31-3C446.23,509.16,446.51,512.3,446.64,515.45Z" transform="translate(-423.88 -434.63)"/><path d="M526,527.67c6.49,4.44,17,2.24,22.24-3.09,5.4-5.51.76-13.52-5.57-15.23-5.72-1.54-10.95,2.08-10,8.13,0.18,1.14,1.58.31,1.9-.26,1.13-2,3.26-1.86,4.59-.21,3.4,4.24-4.2,5-5.66,5-5.33.09-5.91-4.35-5.8-8.62,0.06-2.42.06-4.46-1.12-6.61-1.3-2.37-3.82-3.85-5.56-5.89a40.16,40.16,0,0,0,9-18.68c3-15.8-1.72-32.13,8.93-45.92,0.58-.75.34-2.2-0.85-1.54-11.48,6.34-23.31,11.9-36.16,14.81-13.32,3-27.12,1.45-40.55,3.7C445,456,424,471.91,424,489.32c0,0.47-.27-0.07,0,0,0,0.16,6.76-.16,6.92-0.05,4.39,2.92,4.27,8.14,7.91,11.87,0.63,0.64,1.61-.42,1.8-1,1.47-4.2,1.82-8.82,3.9-12.8a1.13,1.13,0,0,0,.14-0.89c13.84-2.6,27.76-4.7,41.72-6.58-3.69,4.85-8.62,9-13.59,13a14,14,0,0,0-8.15-2.92,1.56,1.56,0,0,0-1.41,1.4,40.44,40.44,0,0,1-2,10.28,1.21,1.21,0,0,0,0,.56c-2,1.62-4,3.29-6.05,5-3.2-1.64-6.53-3.49-10.16-3.69a1.55,1.55,0,0,0-1.4,1.66,135.77,135.77,0,0,1,1,13.82,1.3,1.3,0,0,0,0,.29c-0.12.22-.24,0.43-0.35,0.65-0.3.6-.25,1.3,0.51,1.41a112.67,112.67,0,0,0,39.87-1.27,1.17,1.17,0,0,0-.3,1,54.61,54.61,0,0,1,2.21,8.47c0.31,2.15-1.67,8.8-4.49,5-1.17-1.59-.87-3.86-0.39-5.62a0.77,0.77,0,0,0-.9-1.08c-10,2.48-5,16.88,3.26,18.07,5.23,0.75,9.05-5.49,10.13-9.7,1.35-5.27,1.52-13.28-1.61-18.27q2.22-.7,4.39-1.51l0,0c9.39,7.7,3.72,20.27,2.82,30.33-0.81,9,4.33,16.26,13.5,17.57,8.86,1.27,19-2,23.12-10.46,4.25-8.8-5.28-17.56-13.65-13.56-0.55.26-1.48,1.79-.42,2.05,8,2,.53,12-5.66,10.83-5.39-1-3.15-10.56-2.58-14,1-6.09,2.85-11.94,1.26-18.1-1-4-4.25-7-6.43-10.46,0.92-.55,1.84-1.11,2.74-1.7s1.84-1.27,2.72-1.95a0.68,0.68,0,0,0,.24.12c6,1.37,7,4,6.66,9.79C521.07,521.49,522.25,525.11,526,527.67Z" transform="translate(-423.88 -434.63)"/><path class="cls-2" d="M453.62,465.69c-2.8.71-4.2,0.95-4.21,3.23s5.32,2.47,7.07,2.29c3-.07,8.18-1.62,4.55-4.78C459.35,464.84,455.87,465.46,453.62,465.69Z" transform="translate(-423.88 -434.63)"/><path class="cls-2" d="M513.05,465.69c-2.8.71-4.2,0.95-4.21,3.23s5.32,2.47,7.07,2.29c3-.07,8.17-1.62,4.55-4.78C518.78,464.84,515.3,465.46,513.05,465.69Z" transform="translate(-423.88 -434.63)"/></svg>