<svg id="Objects" xmlns="http://www.w3.org/2000/svg" viewBox="0 0 154.27 142.6"><defs><style>.cls-1{fill:#62dddd;}</style></defs><title>Flubby</title><path d="M277.56,362.9c-0.18-7.16-8.31-5.75-13.29-3,1.45-3.62,2.92-6.9.93-10.92a0.81,0.81,0,0,0-1-.34c-5.71,2-7.61,6.28-8.68,11.66-8.25.43-16.23,3.05-24.54,2.5-6-.4-15.08-2.11-18.19-7.85,0.58-7.29-1.8-15-5.38-21-3-5-6.81-11.2-2.72-16.82,2.21-3,7.77-5.05,11.45-4.31,2.7,0.54,5.31,4.7,7.23,6.48,4,3.72,15.49,4.54,17.83-1.75,1.75-4.71.57-10.57-3.26-13.88C231.42,298,219.51,300,211.88,301a20.35,20.35,0,0,0-17.72,16,23.32,23.32,0,0,0,.28,13.36c0.64,2,1.7,3.58-1,2.78a33.39,33.39,0,0,1-6.79-3.41c-2.87-1.65-5.43-3.2-8.74-3.67s-6.54,0-9.72.35c-1.62.16-3.23,0.31-4.86,0.42-3.49.23-2.2-2.76-1.66-5.25,1.22-5.72,4.82-10.62,5.93-16.33,0.89-4.56-2-8.69-5.27-11.5-6.06-5.29-17.92-7.81-25.47-4.63-7.89,3.32-8.52,11.31-.85,15.3,3.53,1.84,7,.7,10.26-1,2.3-1.24,4.55-3,7.23-3.32,4.63-.5,4,6.94,3.44,9.41-1.25,5.84-4.46,11.27-6.25,17-1.63,5.19-4.52,10-5.66,15.34,0,0,0,.06,0,0.1a1.15,1.15,0,0,0-.05.22,38.51,38.51,0,0,0,.47,14.26,1.63,1.63,0,0,0-.38.49c-4,7.91-9,14.46-10.55,23.35a49.8,49.8,0,0,0,1.56,22.56c-3.49-2.3-6.4-4.1-9.73.94-2.29,3.46,1.65,5.7,5,7.26-3.93.87-8.37,2.54-8,6.48,0.45,5,6.26,4.39,10.76,3.12-2.16,3.64-1.74,8.35,3.57,9.61,5.77,1.37,8.36-5.56,8.66-10.61,3.61,1,8.35.64,10.24-2.93,2.76-5.23-4.63-5.57-8-5.9-3.76-.36-3.91-8.82-4.23-11.63a53.72,53.72,0,0,1,1.29-19c1.14-4.62,5.21-6.94,6.56-11.17a3.71,3.71,0,0,0,.15-1.44,25.25,25.25,0,0,0,2.73,2c9.35,6,22,8.28,32.92,7.42,8.56-.67,18.07-5,22.27-12.88a4,4,0,0,0,.4,1c1.67,2.89,7.39,4.53,10.31,5.32,5,1.35,10.48.78,15.53,0.17,1.36-.16,16.92-2.27,16.37-0.39-1.21,4.21-5.11,13.57,3.15,13.73,3.14,0.06,4.31-3.9,4.75-7.33,2.62,3,6.58,5.88,9.53,2.08,3.17-4.08,1.91-6.87-1.11-8.84C273.4,369,277.67,367.23,277.56,362.9Z" transform="translate(-123.3 -287.67)"/><path class="cls-1" d="M155.72,339.81c3.12-1.42,7.1-2.56,10.51-1.14,3.41,1.7,4.26,5.4,7.39,6.82,7.1,2.84,15.62-3.69,22.16-4.54,8.81-1.14,15.62,7.1,9.09,14.2s-14.77,5.68-21.59.85c-8.52-5.68-12.78,1.14-21.59.28-5.68-.57-12.84-12.84-6.88-16Z" transform="translate(-123.3 -287.67)"/><path d="M168.63,341a1.24,1.24,0,0,0,.11-1.21,7.18,7.18,0,0,0-5.79-2.94,4.53,4.53,0,0,0-1.46.37c-1.56.55-2.41,1-2.11,2.08,0.79,2.91.66,6,1.79,8.78,0.34,0.86,1.47.13,1.84-.24A42.7,42.7,0,0,0,168.63,341Z" transform="translate(-123.3 -287.67)"/><path d="M196.1,338c2.32,0,4.35.18,5.79,2.09a1.26,1.26,0,0,1-.11,1.21c-1.53,2.89-4,4.74-6.45,6.83-0.36.31-1.33,0.63-1.57,0a31.19,31.19,0,0,1-1.81-9.17A12.07,12.07,0,0,1,196.1,338Z" transform="translate(-123.3 -287.67)"/><path d="M191.74,352.95c-0.43-.81-1.42-0.19-1.84.24a23.91,23.91,0,0,1-4.55,3.8,1.79,1.79,0,0,0-1,1.72c0.08,0.44,0,0,.64.82,0,0.37.28,0.5,0.7,0.64,2.12,0.67,3.93,1.93,6.24,1.75a1.76,1.76,0,0,0,1.58-1.88A19.82,19.82,0,0,0,191.74,352.95Z" transform="translate(-123.3 -287.67)"/><path d="M166.44,357.07a25.5,25.5,0,0,0,4.8-1,1.69,1.69,0,0,0,1.19-2.1,15,15,0,0,0-4.15-5.89c-0.76-.66-1.8.42-2,1.09A34.56,34.56,0,0,1,162.7,356c-1,1.59.72,1.27,2.11,1.24Z" transform="translate(-123.3 -287.67)"/><path class="cls-1" d="M234.57,306.18a7.54,7.54,0,0,0-8.39,0l-0.07,0-0.07,0a1,1,0,0,0-.09.1l-0.08.07c-2.38,2.82-2.28,6.16.92,8.28,2.78,1.84,7,2,9.37-.5S236.93,307.88,234.57,306.18Z" transform="translate(-123.3 -287.67)"/><path class="cls-1" d="M139.22,291.57a0.91,0.91,0,0,0-.37.23,1,1,0,0,0-.29.31c-1.54,1.75-2.43,4.94-.61,6.81s5.43,1.53,7.52.12c2.3-1.54,3.25-4.73,1.14-6.91S141.67,290.09,139.22,291.57Z" transform="translate(-123.3 -287.67)"/></svg>