<svg id="Objects" xmlns="http://www.w3.org/2000/svg" viewBox="0 0 128.26 101.47"><defs><style>.cls-1{fill:#62dddd;}</style></defs><title>Hairy Fly</title><path d="M478.06,175.2c-4.16-5.49-12.87-5.71-19-5.37a40.56,40.56,0,0,0-22.66,8.68A36.59,36.59,0,0,0,429.3,164a25.51,25.51,0,0,1,8.87-11.29c0.53-.4,1-1.81-0.08-1.82-6.34-.1-13-1.19-18.63,1.89a6.43,6.43,0,0,1,4.18-5.54c0.68-.26,1.82-2.15.43-2.09a20.42,20.42,0,0,0-15.25,7.78,9,9,0,0,1,1.84-9.69c0.72-.76.26-1.9-0.81-1.46-8.28,3.35-11.17,8.59-10.06,17.38a0.75,0.75,0,0,0,0,.08,25.4,25.4,0,0,0-10,16.15c0,0.08,0,.17,0,0.25-9.89-5.38-21.59-9-31.2-1.24-8.18,6.64-6.3,17.94-3.7,26.76,0.2,0.69.91,0.63,1.4,0.24,2.74-2.15,5.34-4.45,7.94-6.76,1.29-1.15,2.61-2.27,3.94-3.37,2.87-2.37,4.08.75,5.67,3.18,0.5,0.76,1.39,0,1.73-.47,1.1-1.64,2.22-3.24,3.42-4.78,0.56,0.89,1.14,1.76,1.78,2.62a0.87,0.87,0,0,0,1.33,0c2-1.84,3.55-4.55,7.19-2.48h0c0.12,3.44.29,6.88,0.29,10.28,0,8.85-.29,17.68-1,26.51a1.28,1.28,0,0,0,0,.26c0.06,5.38,2.07,14.28,7.58,16.34,7.87,3,5.21-12.34,5-15.23-0.39-5.2-.59-12.41,4.64-15.31s14.29-.56,17.2,4.46c1.9,3.28,1.13,8.35,1.32,12s0.87,7.28,3.31,10.15c5.71,6.71,8.64-1.59,9.1-6.41,1-10.32,1.15-21,1.62-31.32,0.1-2.19.12-4.49,0.06-6.83l0,0c4.8-5.15,11.67-2.29,14,3.55,0.27,0.68,1.27.17,1.55-.2a44,44,0,0,0,3.49-5.24c2.32,2.48,3.64,5.6,5.72,8.31,0.59,0.77,1.64,0,1.85-.74,0.4-1.36.65-2.75,1-4.12,2.49,3.79,3.78,8.2,6.25,12,0.56,0.86,1.62-.11,1.85-0.74C477.5,198,485,184.31,478.06,175.2Zm-41.26,5.11h0l0.06,0.32Z" transform="translate(-352.63 -141.69)"/><path class="cls-1" d="M398.55,181.61c1,6.06-1.59,11.47-.64,17.53,1.28,8.29,10.2,6.38,16.89,6.06,8.93-.32,15.62,0,16.26-10.52,0.64-8,.32-16.26-9.25-18.17-4.46-1-21.91.08-23.51,3.91Z" transform="translate(-352.63 -141.69)"/><path d="M404.34,185.86c0.28,0.66,1.28.19,1.55-.2,1.62-2.31,2.08-4.86,2.9-7.41,1.41,2.52,2.63,5.15,4.16,7.61,0.46,0.74,1.44.07,1.73-.47a34.79,34.79,0,0,0,2.54-6.41c1.44,2.29,2.85,4.61,4.33,6.88a0.87,0.87,0,0,0,1.33,0c2.52-2.36,3.06-5.3,3.13-8.68,0-1.85-3.46-4-4.7-4.82C415,168.44,406,173.65,400.52,177c-0.76.21-1.43,1.44-.8,2a0.42,0.42,0,0,0,.31.2C402.39,180.47,403.37,183.58,404.34,185.86Z" transform="translate(-352.63 -141.69)"/><path d="M428.47,203.86a40.89,40.89,0,0,0-3.51-8c-0.47-.74-1.43-0.07-1.73.47-1.28,2.24-2,4.78-3.13,7.07a14.17,14.17,0,0,0-2.47-5.62,1,1,0,0,0-1.55.2,33.5,33.5,0,0,0-3.87,5.88A16.57,16.57,0,0,0,410,197.8c-0.46-.73-1.45-0.09-1.73.47a24.27,24.27,0,0,1-5.39,6.92l-0.46-.05c-1-.15-2,1.94-0.68,2.12l0.2,0h-0.19a62.42,62.42,0,0,0,9,.71,0.45,0.45,0,0,0,.56.21v0a1.61,1.61,0,0,0,.45-0.21A54.57,54.57,0,0,0,427,205.75l0.49-.13A1.43,1.43,0,0,0,428.47,203.86Z" transform="translate(-352.63 -141.69)"/></svg>