<?xml version="1.0" encoding="utf-8"?>
<!-- Generator: Adobe Illustrator 19.2.1, SVG Export Plug-In . SVG Version: 6.00 Build 0)  -->
<svg version="1.1" id="Layer_1" xmlns="http://www.w3.org/2000/svg" xmlns:xlink="http://www.w3.org/1999/xlink" x="0px" y="0px"
	 viewBox="0 0 100 125" style="enable-background:new 0 0 100 125;" xml:space="preserve">
<g>
	<path d="M11.2,32.7"/>
	<path d="M11.8,32.7"/>
	<path d="M6.4,27.5v0.1v-0.2C6.4,27.5,6.4,27.5,6.4,27.5z"/>
	<path d="M6.4,40.4L6.4,40.4v-0.1V40.4z"/>
	<path d="M12.1,35.3"/>
	<path d="M11,35.3"/>
	<path d="M11.8,32.7h22.7c0.7,0,1.3,0.6,1.3,1.3s-0.6,1.3-1.3,1.3H12.1H11c-2.6,0.3-4.5,2.4-4.6,5v0.2v31.2c0,0.2-0.1,0.3-0.1,0.5
		V86c0,4.8,3.9,8.8,8.8,8.8s8.8-3.9,8.8-8.8v-5.3h2.5V86c0,4.8,3.9,8.8,8.8,8.8S44,90.9,44,86v-5.3h24c-0.1,0,0.1,0,0.2,0h-0.1h0.6
		c0.3,0,0.7,0,1-0.1c13.5-1,24.2-12.3,24.2-26.1c0-14.4-11.7-26.2-26.2-26.2l0,0c-0.1,0-0.2,0-0.3,0c-4,0-7.3,3.2-7.3,7.3
		c0,4,3.2,7.3,7.3,7.3c0.1,0,0.2,0,0.3,0l0,0c6.5,0,11.7,5.2,11.7,11.7c0,6.4-5.1,11.6-11.4,11.7H52.2c-1.7-0.1-3.1-1.5-3.2-3.2
		V26.3C48.9,14.5,39.4,5,27.7,5C15.9,5,6.4,14.5,6.4,26.3v1.2v0.2c0.1,2.7,2.2,4.9,4.9,5H11.8z M6.4,74c0-0.2,0-0.3,0-0.5
		s0-0.3,0-0.5V74z M33.8,24.9c-1.7,0-3.1-1.4-3.1-3.1s1.4-3.1,3.1-3.1s3.1,1.4,3.1,3.1C36.9,23.5,35.5,24.9,33.8,24.9z"/>
	<path d="M6.4,74v-1c0,0.2,0,0.3,0,0.5S6.4,73.8,6.4,74z"/>
</g>
</svg>
