<?xml version="1.0" encoding="utf-8"?>
<!-- Generator: Adobe Illustrator 19.2.1, SVG Export Plug-In . SVG Version: 6.00 Build 0)  -->
<svg version="1.1" id="Layer_1" xmlns="http://www.w3.org/2000/svg" xmlns:xlink="http://www.w3.org/1999/xlink" x="0px" y="0px"
	 viewBox="0 0 100 125" style="enable-background:new 0 0 100 125;" xml:space="preserve">
<g>
	<path d="M59.9,77.8c-0.5,0-0.9,0-1.3,0c1.5,4.1,3,10.4-1.9,10.5c-5,0.2-4.4-6.4-3.6-10.4c-1.8,0-3.3,0-4.4,0
		c0.7,3.8,1.2,10.5-3.3,10.5c-4.5,0-4-6.6-3.3-10.5c-1.2,0-2.8,0-4.7,0c0.8,4,1.4,10.6-3.6,10.4c-4.9-0.2-3.4-6.4-1.9-10.5
		c-0.4,0-0.7,0-1.1,0c-10-0.4-21.5-16.9-14.6-36.2c6.9-19.3,29.1-19,29.1-19s22.2-0.4,29,19C81.3,60.9,69.9,77.4,59.9,77.8z
		 M40.5,44.5c-1.1-4-3.2-8.2-6.9-7.2c-3.5,1-6.9,3.2-6.9,7.2s6.3,3.3,6.9,7.2C34.6,58.4,41.5,48.4,40.5,44.5z"/>
</g>
</svg>
