  0
SECTION
  2
HEADER
  9
$ACADVER
  1
AC1024
  9
$ACADMAINTVER
 70
     6
  9
$DWGCODEPAGE
  3
UNDEFINED
  9
$INSBASE
 10
0.0
 20
0.0
 30
0.0
  9
$EXTMIN
 10
1.000000000000000E+20
 20
1.000000000000000E+20
 30
1.000000000000000E+20
  9
$EXTMAX
 10
-1.000000000000000E+20
 20
-1.000000000000000E+20
 30
-1.000000000000000E+20
  9
$LIMMIN
 10
0.0
 20
0.0
  9
$LIMMAX
 10
12.0
 20
9.0
  9
$ORTHOMODE
 70
     0
  9
$REGENMODE
 70
     1
  9
$FILLMODE
 70
     1
  9
$QTEXTMODE
 70
     0
  9
$MIRRTEXT
 70
     1
  9
$LTSCALE
 40
1.0
  9
$ATTMODE
 70
     1
  9
$TEXTSIZE
 40
0.2
  9
$TRACEWID
 40
0.05
  9
$TEXTSTYLE
  7
Standard
  9
$CLAYER
  8
0
  9
$CELTYPE
  6
ByLayer
  9
$CECOLOR
 62
   256
  9
$CELTSCALE
 40
1.0
  9
$DISPSILH
 70
     0
  9
$DIMSCALE
 40
1.0
  9
$DIMASZ
 40
0.18
  9
$DIMEXO
 40
0.0625
  9
$DIMDLI
 40
0.38
  9
$DIMRND
 40
0.0
  9
$DIMDLE
 40
0.0
  9
$DIMEXE
 40
0.18
  9
$DIMTP
 40
0.0
  9
$DIMTM
 40
0.0
  9
$DIMTXT
 40
0.18
  9
$DIMCEN
 40
0.09
  9
$DIMTSZ
 40
0.0
  9
$DIMTOL
 70
     0
  9
$DIMLIM
 70
     0
  9
$DIMTIH
 70
     1
  9
$DIMTOH
 70
     1
  9
$DIMSE1
 70
     0
  9
$DIMSE2
 70
     0
  9
$DIMTAD
 70
     0
  9
$DIMZIN
 70
     0
  9
$DIMBLK
  1

  9
$DIMASO
 70
     1
  9
$DIMSHO
 70
     1
  9
$DIMPOST
  1

  9
$DIMAPOST
  1

  9
$DIMALT
 70
     0
  9
$DIMALTD
 70
     2
  9
$DIMALTF
 40
25.4
  9
$DIMLFAC
 40
1.0
  9
$DIMTOFL
 70
     0
  9
$DIMTVP
 40
0.0
  9
$DIMTIX
 70
     0
  9
$DIMSOXD
 70
     0
  9
$DIMSAH
 70
     0
  9
$DIMBLK1
  1

  9
$DIMBLK2
  1

  9
$DIMSTYLE
  2
Standard
  9
$DIMCLRD
 70
     0
  9
$DIMCLRE
 70
     0
  9
$DIMCLRT
 70
     0
  9
$DIMTFAC
 40
1.0
  9
$DIMGAP
 40
0.09
  9
$DIMJUST
 70
     0
  9
$DIMSD1
 70
     0
  9
$DIMSD2
 70
     0
  9
$DIMTOLJ
 70
     1
  9
$DIMTZIN
 70
     0
  9
$DIMALTZ
 70
     0
  9
$DIMALTTZ
 70
     0
  9
$DIMUPT
 70
     0
  9
$DIMDEC
 70
     4
  9
$DIMTDEC
 70
     4
  9
$DIMALTU
 70
     2
  9
$DIMALTTD
 70
     2
  9
$DIMTXSTY
  7
Standard
  9
$DIMAUNIT
 70
     0
  9
$DIMADEC
 70
     0
  9
$DIMALTRND
 40
0.0
  9
$DIMAZIN
 70
     0
  9
$DIMDSEP
 70
    46
  9
$DIMATFIT
 70
     3
  9
$DIMFRAC
 70
     0
  9
$DIMLDRBLK
  1

  9
$DIMLUNIT
 70
     2
  9
$DIMLWD
 70
    -2
  9
$DIMLWE
 70
    -2
  9
$DIMTMOVE
 70
     0
  9
$DIMFXL
 40
1.0
  9
$DIMFXLON
 70
     0
  9
$DIMJOGANG
 40
0.7853981633974483
  9
$DIMTFILL
 70
     0
  9
$DIMTFILLCLR
 70
     0
  9
$DIMARCSYM
 70
     0
  9
$DIMLTYPE
  6

  9
$DIMLTEX1
  6

  9
$DIMLTEX2
  6

  9
$DIMTXTDIRECTION
 70
     0
  9
$LUNITS
 70
     2
  9
$LUPREC
 70
     4
  9
$SKETCHINC
 40
0.1
  9
$FILLETRAD
 40
0.5
  9
$AUNITS
 70
     0
  9
$AUPREC
 70
     0
  9
$MENU
  1
.
  9
$ELEVATION
 40
0.0
  9
$PELEVATION
 40
0.0
  9
$THICKNESS
 40
0.0
  9
$LIMCHECK
 70
     0
  9
$CHAMFERA
 40
0.5
  9
$CHAMFERB
 40
0.5
  9
$CHAMFERC
 40
1.0
  9
$CHAMFERD
 40
0.0
  9
$SKPOLY
 70
     0
  9
$TDCREATE
 40
2457525.710972211
  9
$TDUCREATE
 40
2457525.919305556
  9
$TDUPDATE
 40
2457525.710972211
  9
$TDUUPDATE
 40
2457525.919305556
  9
$TDINDWG
 40
0.0000000116
  9
$TDUSRTIMER
 40
0.0000000116
  9
$USRTIMER
 70
     1
  9
$ANGBASE
 50
0.0
  9
$ANGDIR
 70
     0
  9
$PDMODE
 70
     0
  9
$PDSIZE
 40
0.0
  9
$PLINEWID
 40
0.0
  9
$SPLFRAME
 70
     0
  9
$SPLINETYPE
 70
     6
  9
$SPLINESEGS
 70
     8
  9
$HANDSEED
  5
53
  9
$SURFTAB1
 70
     6
  9
$SURFTAB2
 70
     6
  9
$SURFTYPE
 70
     6
  9
$SURFU
 70
     6
  9
$SURFV
 70
     6
  9
$UCSBASE
  2

  9
$UCSNAME
  2

  9
$UCSORG
 10
0.0
 20
0.0
 30
0.0
  9
$UCSXDIR
 10
1.0
 20
0.0
 30
0.0
  9
$UCSYDIR
 10
0.0
 20
1.0
 30
0.0
  9
$UCSORTHOREF
  2

  9
$UCSORTHOVIEW
 70
     0
  9
$UCSORGTOP
 10
0.0
 20
0.0
 30
0.0
  9
$UCSORGBOTTOM
 10
0.0
 20
0.0
 30
0.0
  9
$UCSORGLEFT
 10
0.0
 20
0.0
 30
0.0
  9
$UCSORGRIGHT
 10
0.0
 20
0.0
 30
0.0
  9
$UCSORGFRONT
 10
0.0
 20
0.0
 30
0.0
  9
$UCSORGBACK
 10
0.0
 20
0.0
 30
0.0
  9
$PUCSBASE
  2

  9
$PUCSNAME
  2

  9
$PUCSORG
 10
0.0
 20
0.0
 30
0.0
  9
$PUCSXDIR
 10
1.0
 20
0.0
 30
0.0
  9
$PUCSYDIR
 10
0.0
 20
1.0
 30
0.0
  9
$PUCSORTHOREF
  2

  9
$PUCSORTHOVIEW
 70
     0
  9
$PUCSORGTOP
 10
0.0
 20
0.0
 30
0.0
  9
$PUCSORGBOTTOM
 10
0.0
 20
0.0
 30
0.0
  9
$PUCSORGLEFT
 10
0.0
 20
0.0
 30
0.0
  9
$PUCSORGRIGHT
 10
0.0
 20
0.0
 30
0.0
  9
$PUCSORGFRONT
 10
0.0
 20
0.0
 30
0.0
  9
$PUCSORGBACK
 10
0.0
 20
0.0
 30
0.0
  9
$USERI1
 70
     0
  9
$USERI2
 70
     0
  9
$USERI3
 70
     0
  9
$USERI4
 70
     0
  9
$USERI5
 70
     0
  9
$USERR1
 40
0.0
  9
$USERR2
 40
0.0
  9
$USERR3
 40
0.0
  9
$USERR4
 40
0.0
  9
$USERR5
 40
0.0
  9
$WORLDVIEW
 70
     1
  9
$SHADEDGE
 70
     3
  9
$SHADEDIF
 70
    70
  9
$TILEMODE
 70
     1
  9
$MAXACTVP
 70
    64
  9
$PINSBASE
 10
0.0
 20
0.0
 30
0.0
  9
$PLIMCHECK
 70
     0
  9
$PEXTMIN
 10
1.000000000000000E+20
 20
1.000000000000000E+20
 30
1.000000000000000E+20
  9
$PEXTMAX
 10
-1.000000000000000E+20
 20
-1.000000000000000E+20
 30
-1.000000000000000E+20
  9
$PLIMMIN
 10
0.0
 20
0.0
  9
$PLIMMAX
 10
12.0
 20
9.0
  9
$UNITMODE
 70
     0
  9
$VISRETAIN
 70
     1
  9
$PLINEGEN
 70
     0
  9
$PSLTSCALE
 70
     1
  9
$TREEDEPTH
 70
  3020
  9
$CMLSTYLE
  2
Standard
  9
$CMLJUST
 70
     0
  9
$CMLSCALE
 40
1.0
  9
$PROXYGRAPHICS
 70
     1
  9
$MEASUREMENT
 70
     0
  9
$CELWEIGHT
370
    -1
  9
$ENDCAPS
280
     0
  9
$JOINSTYLE
280
     0
  9
$LWDISPLAY
290
     1
  9
$INSUNITS
 70
     1
  9
$HYPERLINKBASE
  1

  9
$STYLESHEET
  1

  9
$XEDIT
290
     1
  9
$CEPSNTYPE
380
     0
  9
$PSTYLEMODE
290
     1
  9
$FINGERPRINTGUID
  2
{E1F77BE0-3411-BA9E-A9E7-9D08E41D41D4}
  9
$VERSIONGUID
  2
{FAEB1C32-E019-11D5-929B-00C0DF256EC4}
  9
$EXTNAMES
290
     1
  9
$PSVPSCALE
 40
0.0
  9
$OLESTARTUP
290
     0
  9
$SORTENTS
280
   127
  9
$INDEXCTL
280
     0
  9
$HIDETEXT
280
     1
  9
$XCLIPFRAME
280
     2
  9
$HALOGAP
280
     0
  9
$OBSCOLOR
 70
   257
  9
$OBSLTYPE
280
     0
  9
$INTERSECTIONDISPLAY
280
     0
  9
$INTERSECTIONCOLOR
 70
   257
  9
$DIMASSOC
280
     2
  9
$PROJECTNAME
  1

  9
$CAMERADISPLAY
290
     0
  9
$LENSLENGTH
 40
50.0
  9
$CAMERAHEIGHT
 40
0.0
  9
$STEPSPERSEC
 40
2.0
  9
$STEPSIZE
 40
6.0
  9
$3DDWFPREC
 40
2.0
  9
$PSOLWIDTH
 40
0.25
  9
$PSOLHEIGHT
 40
4.0
  9
$LOFTANG1
 40
1.570796326794897
  9
$LOFTANG2
 40
1.570796326794897
  9
$LOFTMAG1
 40
0.0
  9
$LOFTMAG2
 40
0.0
  9
$LOFTPARAM
 70
     7
  9
$LOFTNORMALS
280
     1
  9
$LATITUDE
 40
37.795
  9
$LONGITUDE
 40
-122.394
  9
$NORTHDIRECTION
 40
0.0
  9
$TIMEZONE
 70
 -8000
  9
$LIGHTGLYPHDISPLAY
280
     1
  9
$TILEMODELIGHTSYNCH
280
     1
  9
$CMATERIAL
347
3C
  9
$SOLIDHIST
280
     1
  9
$SHOWHIST
280
     1
  9
$DWFFRAME
280
     2
  9
$DGNFRAME
280
     2
  9
$REALWORLDSCALE
290
     1
  9
$INTERFERECOLOR
 62
   256
  9
$CSHADOW
280
     0
  9
$SHADOWPLANELOCATION
 40
0.0
  0
ENDSEC
  0
SECTION
  2
CLASSES
  0
CLASS
  1
ACDBDICTIONARYWDFLT
  2
AcDbDictionaryWithDefault
  3
ObjectDBX Classes
 90
        0
 91
        4
280
     0
281
     0
  0
CLASS
  1
VISUALSTYLE
  2
AcDbVisualStyle
  3
ObjectDBX Classes
 90
     4095
 91
        4
280
     0
281
     0
  0
CLASS
  1
MATERIAL
  2
AcDbMaterial
  3
ObjectDBX Classes
 90
     1153
 91
        4
280
     0
281
     0
  0
CLASS
  1
SUN
  2
AcDbSun
  3
SCENEOE
 90
     1024
 91
        4
280
     0
281
     0
  0
ENDSEC
  0
SECTION
  2
TABLES
  0
TABLE
  2
VPORT
  5
8
330
0
100
AcDbSymbolTable
 70
     1
  0
VPORT
  5
29
330
8
100
AcDbSymbolTableRecord
100
AcDbViewportTableRecord
  2
*Active
 70
     0
 10
0.0
 20
0.0
 11
1.0
 21
1.0
 12
0.0
 22
0.0
 13
0.0
 23
0.0
 14
0.5
 24
0.5
 15
0.5
 25
0.5
 16
0.0
 26
0.0
 36
1.0
 17
45.0
 27
56.25
 37
0.0
 40
112.5
 41
0.8
 42
50.0
 43
0.0
 44
0.0
 50
0.0
 51
0.0
 71
     0
 72
   100
 73
     1
 74
     3
 75
     0
 76
     0
 77
     0
 78
     0
281
     0
 65
     1
110
0.0
120
0.0
130
0.0
111
1.0
121
0.0
131
0.0
112
0.0
122
1.0
132
0.0
 79
     0
146
0.0
 60
     3
 61
     5
292
     1
282
     1
141
0.0
142
0.0
 63
   250
361
3F
  0
ENDTAB
  0
TABLE
  2
LTYPE
  5
5
330
0
100
AcDbSymbolTable
 70
     1
  0
LTYPE
  5
14
330
5
100
AcDbSymbolTableRecord
100
AcDbLinetypeTableRecord
  2
ByBlock
 70
     0
  3

 72
    65
 73
     0
 40
0.0
  0
LTYPE
  5
15
330
5
100
AcDbSymbolTableRecord
100
AcDbLinetypeTableRecord
  2
ByLayer
 70
     0
  3

 72
    65
 73
     0
 40
0.0
  0
LTYPE
  5
16
330
5
100
AcDbSymbolTableRecord
100
AcDbLinetypeTableRecord
  2
Continuous
 70
     0
  3
Solid line
 72
    65
 73
     0
 40
0.0
  0
ENDTAB
  0
TABLE
  2
LAYER
  5
2
330
0
100
AcDbSymbolTable
 70
     2
  0
LAYER
  5
10
330
2
100
AcDbSymbolTableRecord
100
AcDbLayerTableRecord
  2
0
 70
     0
 62
     7
  6
Continuous
370
    -3
390
F
347
3E
  0
LAYER
  5
40
330
2
100
AcDbSymbolTableRecord
100
AcDbLayerTableRecord
  2
Layer 1
 70
     0
 62
     7
  6
Continuous
370
    -3
390
F
347
3E
  0
ENDTAB
  0
TABLE
  2
STYLE
  5
3
330
0
100
AcDbSymbolTable
 70
     1
  0
STYLE
  5
11
330
3
100
AcDbSymbolTableRecord
100
AcDbTextStyleTableRecord
  2
Standard
 70
     0
 40
0.0
 41
1.0
 50
0.0
 71
     0
 42
0.2
  3
txt
  4

  0
ENDTAB
  0
TABLE
  2
VIEW
  5
6
330
0
100
AcDbSymbolTable
 70
     0
  0
ENDTAB
  0
TABLE
  2
UCS
  5
7
330
0
100
AcDbSymbolTable
 70
     0
  0
ENDTAB
  0
TABLE
  2
APPID
  5
9
330
0
100
AcDbSymbolTable
 70
     1
  0
APPID
  5
12
330
9
100
AcDbSymbolTableRecord
100
AcDbRegAppTableRecord
  2
ACAD
 70
     0
  0
ENDTAB
  0
TABLE
  2
DIMSTYLE
  5
A
330
0
100
AcDbSymbolTable
 70
     1
100
AcDbDimStyleTable
  0
DIMSTYLE
105
27
330
A
100
AcDbSymbolTableRecord
100
AcDbDimStyleTableRecord
  2
Standard
 70
     0
178
     0
340
11
  0
ENDTAB
  0
TABLE
  2
BLOCK_RECORD
  5
1
330
0
100
AcDbSymbolTable
 70
     1
  0
BLOCK_RECORD
  5
1F
330
1
100
AcDbSymbolTableRecord
100
AcDbBlockTableRecord
  2
*Model_Space
340
22
 70
     0
280
     1
281
     0
  0
BLOCK_RECORD
  5
1B
330
1
100
AcDbSymbolTableRecord
100
AcDbBlockTableRecord
  2
*Paper_Space
340
1E
 70
     0
280
     1
281
     0
  0
BLOCK_RECORD
  5
23
330
1
100
AcDbSymbolTableRecord
100
AcDbBlockTableRecord
  2
*Paper_Space0
340
26
 70
     0
280
     1
281
     0
  0
ENDTAB
  0
ENDSEC
  0
SECTION
  2
BLOCKS
  0
BLOCK
  5
20
330
1F
100
AcDbEntity
  8
0
100
AcDbBlockBegin
  2
*Model_Space
 70
     0
 10
0.0
 20
0.0
 30
0.0
  3
*Model_Space
  1

  0
ENDBLK
  5
21
330
1F
100
AcDbEntity
  8
0
100
AcDbBlockEnd
  0
BLOCK
  5
1C
330
1B
100
AcDbEntity
 67
     1
  8
0
100
AcDbBlockBegin
  2
*Paper_Space
 70
     0
 10
0.0
 20
0.0
 30
0.0
  3
*Paper_Space
  1

  0
ENDBLK
  5
1D
330
1B
100
AcDbEntity
 67
     1
  8
0
100
AcDbBlockEnd
  0
BLOCK
  5
24
330
23
100
AcDbEntity
  8
0
100
AcDbBlockBegin
  2
*Paper_Space0
 70
     0
 10
0.0
 20
0.0
 30
0.0
  3
*Paper_Space0
  1

  0
ENDBLK
  5
25
330
23
100
AcDbEntity
  8
0
100
AcDbBlockEnd
  0
ENDSEC
  0
SECTION
  2
ENTITIES
  0
SPLINE
  5
41
330
1F
100
AcDbEntity
  8
Layer 1
370
     0
100
AcDbSpline
210
0.0
220
0.0
230
1.0
 70
    11
 71
     3
 72
    35
 73
    31
 74
     0
 42
0.0000000001
 43
0.0000000001
 12
1.0
 22
0.0
 32
0.0
 13
1.0
 23
0.0
 33
0.0
 40
0.0
 40
0.0
 40
0.0
 40
0.0
 40
1.0
 40
1.0
 40
1.0
 40
2.0
 40
2.0
 40
2.0
 40
3.0
 40
3.0
 40
3.0
 40
4.0
 40
4.0
 40
4.0
 40
5.0
 40
5.0
 40
5.0
 40
6.0
 40
6.0
 40
6.0
 40
7.0
 40
7.0
 40
7.0
 40
8.0
 40
8.0
 40
8.0
 40
9.0
 40
9.0
 40
9.0
 40
10.0
 40
10.0
 40
10.0
 40
10.0
 10
80.6780014038086
 20
95.1746885631228
 30
0.0
 10
79.68500518798828
 20
99.75250880888325
 30
0.0
 10
78.41200256347656
 20
100.8671647842102
 30
0.0
 10
73.9749984741211
 20
101.2612682015179
 30
0.0
 10
62.77199935913086
 20
102.2588743517763
 30
0.0
 10
51.56100082397461
 20
103.1276186757223
 30
0.0
 10
40.35300064086914
 20
104.0479076277825
 30
0.0
 10
40.34400177001953
 20
103.7955528338807
 30
0.0
 10
24.48400115966797
 20
103.4175575289009
 30
0.0
 10
16.56700134277344
 20
103.2382248462172
 30
0.0
 10
12.66100120544434
 20
103.1490951347223
 30
0.0
 10
11.91400146484375
 20
102.3533724099443
 30
0.0
 10
10.98000144958496
 20
98.27274381361804
 30
0.0
 10
9.1170015335083
 20
90.13403736376313
 30
0.0
 10
8.906002044677734
 20
81.91049833759917
 30
0.0
 10
10.46600151062012
 20
73.68803461933385
 30
0.0
 10
11.44300174713135
 20
68.5389278652774
 30
0.0
 10
12.61600112915039
 20
67.4317867560112
 30
0.0
 10
17.52200126647949
 20
66.768147684832
 30
0.0
 10
34.40800094604492
 20
64.4829975552384
 30
0.0
 10
51.36800384521484
 20
63.87305014361209
 30
0.0
 10
68.36800384521484
 20
64.38635092947789
 30
0.0
 10
70.39700317382812
 20
64.44755950329636
 30
0.0
 10
72.41500091552734
 20
64.87817423223987
 30
0.0
 10
74.44500732421875
 20
65.02743925786035
 30
0.0
 10
76.95600891113281
 20
65.21214233542196
 30
0.0
 10
78.37600708007812
 20
66.71875316046317
 30
0.0
 10
79.21600341796875
 20
69.13061757288051
 30
0.0
 10
82.19000244140625
 20
77.65590847757176
 30
0.0
 10
82.59100341796875
 20
86.36804897921138
 30
0.0
 10
80.6780014038086
 20
95.1746885631228
 30
0.0
  0
SPLINE
  5
42
330
1F
100
AcDbEntity
  8
Layer 1
370
     0
100
AcDbSpline
210
0.0
220
0.0
230
1.0
 70
    11
 71
     3
 72
    17
 73
    13
 74
     0
 42
0.0000000001
 43
0.0000000001
 12
1.0
 22
0.0
 32
0.0
 13
1.0
 23
0.0
 33
0.0
 40
0.0
 40
0.0
 40
0.0
 40
0.0
 40
1.0
 40
1.0
 40
1.0
 40
2.0
 40
2.0
 40
2.0
 40
3.0
 40
3.0
 40
3.0
 40
4.0
 40
4.0
 40
4.0
 40
4.0
 10
12.83399963378906
 20
89.86342845019863
 30
0.0
 10
12.73299980163574
 20
93.63693579722167
 30
0.0
 10
15.98600006103516
 20
96.89499583899214
 30
0.0
 10
19.83599853515625
 20
96.87566692348173
 30
0.0
 10
23.61799812316895
 20
96.85633800797041
 30
0.0
 10
26.73099899291992
 20
93.77546208129024
 30
0.0
 10
26.74599838256836
 20
90.03417095892291
 30
0.0
 10
26.7609977722168
 20
86.26603195857206
 30
0.0
 10
23.70899772644043
 20
83.22703773840567
 30
0.0
 10
19.8809986114502
 20
83.19697008134335
 30
0.0
 10
16.0310001373291
 20
83.16797568397396
 30
0.0
 10
12.93599987030029
 20
86.09636475774732
 30
0.0
 10
12.83399963378906
 20
89.86342845019863
 30
0.0
  0
SPLINE
  5
43
330
1F
100
AcDbEntity
  8
Layer 1
370
     0
100
AcDbSpline
210
0.0
220
0.0
230
1.0
 70
    11
 71
     3
 72
    35
 73
    31
 74
     0
 42
0.0000000001
 43
0.0000000001
 12
1.0
 22
0.0
 32
0.0
 13
1.0
 23
0.0
 33
0.0
 40
0.0
 40
0.0
 40
0.0
 40
0.0
 40
1.0
 40
1.0
 40
1.0
 40
2.0
 40
2.0
 40
2.0
 40
3.0
 40
3.0
 40
3.0
 40
4.0
 40
4.0
 40
4.0
 40
5.0
 40
5.0
 40
5.0
 40
6.0
 40
6.0
 40
6.0
 40
7.0
 40
7.0
 40
7.0
 40
8.0
 40
8.0
 40
8.0
 40
9.0
 40
9.0
 40
9.0
 40
10.0
 40
10.0
 40
10.0
 40
10.0
 10
61.13800048828125
 20
69.21222627369843
 30
0.0
 10
58.50400161743164
 20
69.0479274195468
 30
0.0
 10
53.19499969482422
 20
68.86966799655693
 30
0.0
 10
53.18600082397461
 20
68.71825645154968
 30
0.0
 10
44.46500015258789
 20
69.52901402896168
 30
0.0
 10
35.72499847412109
 20
70.15506852881299
 30
0.0
 10
27.04000091552734
 20
71.28798015995653
 30
0.0
 10
25.02400016784668
 20
71.55107215925636
 30
0.0
 10
23.08500099182129
 20
73.37339747986789
 30
0.0
 10
21.35700035095215
 20
74.81772237498626
 30
0.0
 10
20.77799987792969
 20
75.30202876348176
 30
0.0
 10
20.57500076293945
 20
77.02878071802752
 30
0.0
 10
20.91399955749512
 20
77.8449045939069
 30
0.0
 10
21.23200035095215
 20
78.61485372449988
 30
0.0
 10
22.49699974060059
 20
79.39232181756324
 30
0.0
 10
23.33499908447266
 20
79.38050981631841
 30
0.0
 10
29.96799850463867
 20
79.29138010482347
 30
0.0
 10
36.60299682617188
 20
79.10882559485435
 30
0.0
 10
43.22799682617188
 20
78.76412079832608
 30
0.0
 10
48.95199584960938
 20
78.46881257437144
 30
0.0
 10
54.66599655151367
 20
77.92866391052394
 30
0.0
 10
60.38099670410156
 20
77.4808688336625
 30
0.0
 10
60.90399551391602
 20
77.44006448325308
 30
0.0
 10
61.43299865722656
 20
77.33697420292083
 30
0.0
 10
61.93599700927734
 20
77.18019226303477
 30
0.0
 10
63.53599548339844
 20
76.6808520460072
 30
0.0
 10
65.3169937133789
 20
76.32540645972131
 30
0.0
 10
65.23600006103516
 20
73.91032226822426
 30
0.0
 10
65.1520004272461
 20
71.38032965053208
 30
0.0
 10
63.49399948120117
 20
69.35934477993123
 30
0.0
 10
61.13800048828125
 20
69.21222627369843
 30
0.0
  0
SPLINE
  5
44
330
1F
100
AcDbEntity
  8
Layer 1
370
     0
100
AcDbSpline
210
0.0
220
0.0
230
1.0
 70
    11
 71
     3
 72
    17
 73
    13
 74
     0
 42
0.0000000001
 43
0.0000000001
 12
1.0
 22
0.0
 32
0.0
 13
1.0
 23
0.0
 33
0.0
 40
0.0
 40
0.0
 40
0.0
 40
0.0
 40
1.0
 40
1.0
 40
1.0
 40
2.0
 40
2.0
 40
2.0
 40
3.0
 40
3.0
 40
3.0
 40
4.0
 40
4.0
 40
4.0
 40
4.0
 10
70.58899688720703
 20
80.28898523097905
 30
0.0
 10
66.4020004272461
 20
80.35771071906402
 30
0.0
 10
63.2349967956543
 20
83.67053772828785
 30
0.0
 10
63.35299682617188
 20
87.85855066782278
 30
0.0
 10
63.46399688720703
 20
91.86293583769566
 30
0.0
 10
66.7509994506836
 20
94.9835428550914
 30
0.0
 10
70.82899475097656
 20
94.9566970253145
 30
0.0
 10
74.97199249267578
 20
94.9298511955376
 30
0.0
 10
78.29499816894531
 20
91.56655435404718
 30
0.0
 10
78.21599578857422
 20
87.4816296466388
 30
0.0
 10
78.13600158691406
 20
83.37308093673983
 30
0.0
 10
74.79399871826172
 20
80.220259742895
 30
0.0
 10
70.58899688720703
 20
80.28898523097905
 30
0.0
  0
HATCH
  5
45
330
1F
100
AcDbEntity
  8
Layer 1
 62
     7
420
 16777215
100
AcDbHatch
 10
0.0
 20
0.0
 30
0.0
210
0.0
220
0.0
230
1.0
  2
SOLID
 70
     1
 71
     0
 91
        4
 92
        1
 93
        1
 72
     4
 94
        3
 73
     0
 74
     1
 95
       35
 96
       31
 40
0.0
 40
0.0
 40
0.0
 40
0.0
 40
1.0
 40
1.0
 40
1.0
 40
2.0
 40
2.0
 40
2.0
 40
3.0
 40
3.0
 40
3.0
 40
4.0
 40
4.0
 40
4.0
 40
5.0
 40
5.0
 40
5.0
 40
6.0
 40
6.0
 40
6.0
 40
7.0
 40
7.0
 40
7.0
 40
8.0
 40
8.0
 40
8.0
 40
9.0
 40
9.0
 40
9.0
 40
10.0
 40
10.0
 40
10.0
 40
10.0
 10
80.6780014038086
 20
95.1746885631228
 10
79.68500518798828
 20
99.75250880888325
 10
78.41200256347656
 20
100.8671647842102
 10
73.9749984741211
 20
101.2612682015179
 10
62.77199935913086
 20
102.2588743517763
 10
51.56100082397461
 20
103.1276186757223
 10
40.35300064086914
 20
104.0479076277825
 10
40.34400177001953
 20
103.7955528338807
 10
24.48400115966797
 20
103.4175575289009
 10
16.56700134277344
 20
103.2382248462172
 10
12.66100120544434
 20
103.1490951347223
 10
11.91400146484375
 20
102.3533724099443
 10
10.98000144958496
 20
98.27274381361804
 10
9.1170015335083
 20
90.13403736376313
 10
8.906002044677734
 20
81.91049833759917
 10
10.46600151062012
 20
73.68803461933385
 10
11.44300174713135
 20
68.5389278652774
 10
12.61600112915039
 20
67.4317867560112
 10
17.52200126647949
 20
66.768147684832
 10
34.40800094604492
 20
64.4829975552384
 10
51.36800384521484
 20
63.87305014361209
 10
68.36800384521484
 20
64.38635092947789
 10
70.39700317382812
 20
64.44755950329636
 10
72.41500091552734
 20
64.87817423223987
 10
74.44500732421875
 20
65.02743925786035
 10
76.95600891113281
 20
65.21214233542196
 10
78.37600708007812
 20
66.71875316046317
 10
79.21600341796875
 20
69.13061757288051
 10
82.19000244140625
 20
77.65590847757176
 10
82.59100341796875
 20
86.36804897921138
 10
80.6780014038086
 20
95.1746885631228
 97
        0
 97
        0
 92
        1
 93
        1
 72
     4
 94
        3
 73
     0
 74
     1
 95
       17
 96
       13
 40
0.0
 40
0.0
 40
0.0
 40
0.0
 40
1.0
 40
1.0
 40
1.0
 40
2.0
 40
2.0
 40
2.0
 40
3.0
 40
3.0
 40
3.0
 40
4.0
 40
4.0
 40
4.0
 40
4.0
 10
12.83399963378906
 20
89.86342845019863
 10
12.73299980163574
 20
93.63693579722167
 10
15.98600006103516
 20
96.89499583899214
 10
19.83599853515625
 20
96.87566692348173
 10
23.61799812316895
 20
96.85633800797041
 10
26.73099899291992
 20
93.77546208129024
 10
26.74599838256836
 20
90.03417095892291
 10
26.7609977722168
 20
86.26603195857206
 10
23.70899772644043
 20
83.22703773840567
 10
19.8809986114502
 20
83.19697008134335
 10
16.0310001373291
 20
83.16797568397396
 10
12.93599987030029
 20
86.09636475774732
 10
12.83399963378906
 20
89.86342845019863
 97
        0
 97
        0
 92
        1
 93
        1
 72
     4
 94
        3
 73
     0
 74
     1
 95
       35
 96
       31
 40
0.0
 40
0.0
 40
0.0
 40
0.0
 40
1.0
 40
1.0
 40
1.0
 40
2.0
 40
2.0
 40
2.0
 40
3.0
 40
3.0
 40
3.0
 40
4.0
 40
4.0
 40
4.0
 40
5.0
 40
5.0
 40
5.0
 40
6.0
 40
6.0
 40
6.0
 40
7.0
 40
7.0
 40
7.0
 40
8.0
 40
8.0
 40
8.0
 40
9.0
 40
9.0
 40
9.0
 40
10.0
 40
10.0
 40
10.0
 40
10.0
 10
61.13800048828125
 20
69.21222627369843
 10
58.50400161743164
 20
69.0479274195468
 10
53.19499969482422
 20
68.86966799655693
 10
53.18600082397461
 20
68.71825645154968
 10
44.46500015258789
 20
69.52901402896168
 10
35.72499847412109
 20
70.15506852881299
 10
27.04000091552734
 20
71.28798015995653
 10
25.02400016784668
 20
71.55107215925636
 10
23.08500099182129
 20
73.37339747986789
 10
21.35700035095215
 20
74.81772237498626
 10
20.77799987792969
 20
75.30202876348176
 10
20.57500076293945
 20
77.02878071802752
 10
20.91399955749512
 20
77.8449045939069
 10
21.23200035095215
 20
78.61485372449988
 10
22.49699974060059
 20
79.39232181756324
 10
23.33499908447266
 20
79.38050981631841
 10
29.96799850463867
 20
79.29138010482347
 10
36.60299682617188
 20
79.10882559485435
 10
43.22799682617188
 20
78.76412079832608
 10
48.95199584960938
 20
78.46881257437144
 10
54.66599655151367
 20
77.92866391052394
 10
60.38099670410156
 20
77.4808688336625
 10
60.90399551391602
 20
77.44006448325308
 10
61.43299865722656
 20
77.33697420292083
 10
61.93599700927734
 20
77.18019226303477
 10
63.53599548339844
 20
76.6808520460072
 10
65.3169937133789
 20
76.32540645972131
 10
65.23600006103516
 20
73.91032226822426
 10
65.1520004272461
 20
71.38032965053208
 10
63.49399948120117
 20
69.35934477993123
 10
61.13800048828125
 20
69.21222627369843
 97
        0
 97
        0
 92
        1
 93
        1
 72
     4
 94
        3
 73
     0
 74
     1
 95
       17
 96
       13
 40
0.0
 40
0.0
 40
0.0
 40
0.0
 40
1.0
 40
1.0
 40
1.0
 40
2.0
 40
2.0
 40
2.0
 40
3.0
 40
3.0
 40
3.0
 40
4.0
 40
4.0
 40
4.0
 40
4.0
 10
70.58899688720703
 20
80.28898523097905
 10
66.4020004272461
 20
80.35771071906402
 10
63.2349967956543
 20
83.67053772828785
 10
63.35299682617188
 20
87.85855066782278
 10
63.46399688720703
 20
91.86293583769566
 10
66.7509994506836
 20
94.9835428550914
 10
70.82899475097656
 20
94.9566970253145
 10
74.97199249267578
 20
94.9298511955376
 10
78.29499816894531
 20
91.56655435404718
 10
78.21599578857422
 20
87.4816296466388
 10
78.13600158691406
 20
83.37308093673983
 10
74.79399871826172
 20
80.220259742895
 10
70.58899688720703
 20
80.28898523097905
 97
        0
 97
        0
 75
     2
 76
     1
 98
        0
  0
SPLINE
  5
46
330
1F
100
AcDbEntity
  8
Layer 1
370
     0
100
AcDbSpline
210
0.0
220
0.0
230
1.0
 70
    11
 71
     3
 72
    29
 73
    25
 74
     0
 42
0.0000000001
 43
0.0000000001
 12
1.0
 22
0.0
 32
0.0
 13
1.0
 23
0.0
 33
0.0
 40
0.0
 40
0.0
 40
0.0
 40
0.0
 40
1.0
 40
1.0
 40
1.0
 40
2.0
 40
2.0
 40
2.0
 40
3.0
 40
3.0
 40
3.0
 40
4.0
 40
4.0
 40
4.0
 40
5.0
 40
5.0
 40
5.0
 40
6.0
 40
6.0
 40
6.0
 40
7.0
 40
7.0
 40
7.0
 40
8.0
 40
8.0
 40
8.0
 40
8.0
 10
51.92900085449219
 20
40.47754921202977
 30
0.0
 10
51.38600158691406
 20
40.47523371986608
 30
0.0
 10
50.47100067138672
 20
39.59949160501674
 30
0.0
 10
50.36800003051758
 20
38.96470207939819
 30
0.0
 10
49.88000106811523
 20
35.9656536495404
 30
0.0
 10
49.61299896240234
 20
32.91794453319744
 30
0.0
 10
49.26800155639648
 20
29.88761928360509
 30
0.0
 10
49.31600189208984
 20
29.88067280711039
 30
0.0
 10
49.36300277709961
 20
29.87371749285921
 30
0.0
 10
49.40999984741211
 20
29.86792876244726
 30
0.0
 10
49.34000015258789
 20
28.90878474089004
 30
0.0
 10
49.23699951171875
 20
27.95196504925298
 30
0.0
 10
49.20399856567383
 20
26.991663281613
 30
0.0
 10
49.125
 20
24.71080628408527
 30
0.0
 10
50.44599914550781
 20
24.56832397614926
 30
0.0
 10
51.93199920654297
 20
24.56600848398557
 30
0.0
 10
53.42399978637695
 20
24.56253524573731
 30
0.0
 10
54.81800079345703
 20
24.74092535773889
 30
0.0
 10
54.6510009765625
 20
26.99513651985944
 30
0.0
 10
54.35400009155273
 20
30.99734983567396
 30
0.0
 10
53.98600006103516
 20
34.99608107548374
 30
0.0
 10
53.48500061035156
 20
38.96933306372739
 30
0.0
 10
53.40599822998047
 20
39.58558981427268
 30
0.0
 10
52.46699905395508
 20
40.47870695811253
 30
0.0
 10
51.92900085449219
 20
40.47754921202977
 30
0.0
  0
HATCH
  5
47
330
1F
100
AcDbEntity
  8
Layer 1
 62
     7
420
 16777215
100
AcDbHatch
 10
0.0
 20
0.0
 30
0.0
210
0.0
220
0.0
230
1.0
  2
SOLID
 70
     1
 71
     0
 91
        1
 92
        1
 93
        1
 72
     4
 94
        3
 73
     0
 74
     1
 95
       29
 96
       25
 40
0.0
 40
0.0
 40
0.0
 40
0.0
 40
1.0
 40
1.0
 40
1.0
 40
2.0
 40
2.0
 40
2.0
 40
3.0
 40
3.0
 40
3.0
 40
4.0
 40
4.0
 40
4.0
 40
5.0
 40
5.0
 40
5.0
 40
6.0
 40
6.0
 40
6.0
 40
7.0
 40
7.0
 40
7.0
 40
8.0
 40
8.0
 40
8.0
 40
8.0
 10
51.92900085449219
 20
40.47754921202977
 10
51.38600158691406
 20
40.47523371986608
 10
50.47100067138672
 20
39.59949160501674
 10
50.36800003051758
 20
38.96470207939819
 10
49.88000106811523
 20
35.9656536495404
 10
49.61299896240234
 20
32.91794453319744
 10
49.26800155639648
 20
29.88761928360509
 10
49.31600189208984
 20
29.88067280711039
 10
49.36300277709961
 20
29.87371749285921
 10
49.40999984741211
 20
29.86792876244726
 10
49.34000015258789
 20
28.90878474089004
 10
49.23699951171875
 20
27.95196504925298
 10
49.20399856567383
 20
26.991663281613
 10
49.125
 20
24.71080628408527
 10
50.44599914550781
 20
24.56832397614926
 10
51.93199920654297
 20
24.56600848398557
 10
53.42399978637695
 20
24.56253524573731
 10
54.81800079345703
 20
24.74092535773889
 10
54.6510009765625
 20
26.99513651985944
 10
54.35400009155273
 20
30.99734983567396
 10
53.98600006103516
 20
34.99608107548374
 10
53.48500061035156
 20
38.96933306372739
 10
53.40599822998047
 20
39.58558981427268
 10
52.46699905395508
 20
40.47870695811253
 10
51.92900085449219
 20
40.47754921202977
 97
        0
 97
        0
 75
     2
 76
     1
 98
        0
  0
SPLINE
  5
48
330
1F
100
AcDbEntity
  8
Layer 1
370
     0
100
AcDbSpline
210
0.0
220
0.0
230
1.0
 70
    11
 71
     3
 72
    32
 73
    28
 74
     0
 42
0.0000000001
 43
0.0000000001
 12
1.0
 22
0.0
 32
0.0
 13
1.0
 23
0.0
 33
0.0
 40
0.0
 40
0.0
 40
0.0
 40
0.0
 40
1.0
 40
1.0
 40
1.0
 40
2.0
 40
2.0
 40
2.0
 40
3.0
 40
3.0
 40
3.0
 40
4.0
 40
4.0
 40
4.0
 40
5.0
 40
5.0
 40
5.0
 40
6.0
 40
6.0
 40
6.0
 40
7.0
 40
7.0
 40
7.0
 40
8.0
 40
8.0
 40
8.0
 40
9.0
 40
9.0
 40
9.0
 40
9.0
 10
31.76499938964844
 20
40.04476274014269
 30
0.0
 10
31.6609992980957
 20
40.73158605901335
 30
0.0
 10
30.75899887084961
 20
41.68938494779832
 30
0.0
 10
30.22599983215332
 20
41.68813687102374
 30
0.0
 10
29.67499923706055
 20
41.68564071747278
 30
0.0
 10
28.71599960327148
 20
40.7365783661171
 30
0.0
 10
28.64299964904785
 20
40.08097602125054
 30
0.0
 10
28.15799903869629
 20
35.70156988778217
 30
0.0
 10
27.81599998474121
 20
31.29342940655988
 30
0.0
 10
27.55200004577637
 20
26.88280229908924
 30
0.0
 10
27.51199913024902
 20
26.21721534001699
 30
0.0
 10
28.05699920654297
 20
24.95721038000556
 30
0.0
 10
28.43600082397461
 20
24.88977612489543
 30
0.0
 10
29.66300010681152
 20
24.67123883417116
 30
0.0
 10
31.07400131225586
 20
24.49766088929027
 30
0.0
 10
32.13899993896484
 20
25.0845809022685
 30
0.0
 10
32.68299865722656
 20
25.38428129263775
 30
0.0
 10
32.68099975585938
 20
27.33734995539817
 30
0.0
 10
32.84199905395508
 20
28.55863595344636
 30
0.0
 10
32.9119987487793
 20
29.09810046703205
 30
0.0
 10
32.77000045776367
 20
29.67878009613196
 30
0.0
 10
32.7239990234375
 20
30.24321567253719
 30
0.0
 10
32.77199935913086
 20
30.25070413319372
 30
0.0
 10
32.81999969482422
 20
30.25820212115104
 30
0.0
 10
32.86899948120117
 20
30.26693865858215
 30
0.0
 10
32.52099990844727
 20
33.53246008785027
 30
0.0
 10
32.25199890136719
 20
36.81421604251045
 30
0.0
 10
31.76499938964844
 20
40.04476274014269
 30
0.0
  0
HATCH
  5
49
330
1F
100
AcDbEntity
  8
Layer 1
 62
     7
420
 16777215
100
AcDbHatch
 10
0.0
 20
0.0
 30
0.0
210
0.0
220
0.0
230
1.0
  2
SOLID
 70
     1
 71
     0
 91
        1
 92
        1
 93
        1
 72
     4
 94
        3
 73
     0
 74
     1
 95
       32
 96
       28
 40
0.0
 40
0.0
 40
0.0
 40
0.0
 40
1.0
 40
1.0
 40
1.0
 40
2.0
 40
2.0
 40
2.0
 40
3.0
 40
3.0
 40
3.0
 40
4.0
 40
4.0
 40
4.0
 40
5.0
 40
5.0
 40
5.0
 40
6.0
 40
6.0
 40
6.0
 40
7.0
 40
7.0
 40
7.0
 40
8.0
 40
8.0
 40
8.0
 40
9.0
 40
9.0
 40
9.0
 40
9.0
 10
31.76499938964844
 20
40.04476274014269
 10
31.6609992980957
 20
40.73158605901335
 10
30.75899887084961
 20
41.68938494779832
 10
30.22599983215332
 20
41.68813687102374
 10
29.67499923706055
 20
41.68564071747278
 10
28.71599960327148
 20
40.7365783661171
 10
28.64299964904785
 20
40.08097602125054
 10
28.15799903869629
 20
35.70156988778217
 10
27.81599998474121
 20
31.29342940655988
 10
27.55200004577637
 20
26.88280229908924
 10
27.51199913024902
 20
26.21721534001699
 10
28.05699920654297
 20
24.95721038000556
 10
28.43600082397461
 20
24.88977612489543
 10
29.66300010681152
 20
24.67123883417116
 10
31.07400131225586
 20
24.49766088929027
 10
32.13899993896484
 20
25.0845809022685
 10
32.68299865722656
 20
25.38428129263775
 10
32.68099975585938
 20
27.33734995539817
 10
32.84199905395508
 20
28.55863595344636
 10
32.9119987487793
 20
29.09810046703205
 10
32.77000045776367
 20
29.67878009613196
 10
32.7239990234375
 20
30.24321567253719
 10
32.77199935913086
 20
30.25070413319372
 10
32.81999969482422
 20
30.25820212115104
 10
32.86899948120117
 20
30.26693865858215
 10
32.52099990844727
 20
33.53246008785027
 10
32.25199890136719
 20
36.81421604251045
 10
31.76499938964844
 20
40.04476274014269
 97
        0
 97
        0
 75
     2
 76
     1
 98
        0
  0
SPLINE
  5
4A
330
1F
100
AcDbEntity
  8
Layer 1
370
     0
100
AcDbSpline
210
0.0
220
0.0
230
1.0
 70
    11
 71
     3
 72
    17
 73
    13
 74
     0
 42
0.0000000001
 43
0.0000000001
 12
1.0
 22
0.0
 32
0.0
 13
1.0
 23
0.0
 33
0.0
 40
0.0
 40
0.0
 40
0.0
 40
0.0
 40
1.0
 40
1.0
 40
1.0
 40
2.0
 40
2.0
 40
2.0
 40
3.0
 40
3.0
 40
3.0
 40
4.0
 40
4.0
 40
4.0
 40
4.0
 10
74.66758427995228
 20
88.7397194248224
 30
0.0
 10
72.75858769792103
 20
88.77672008095033
 30
0.0
 10
71.01558385270619
 20
87.09171870765931
 30
0.0
 10
70.97658238786244
 20
85.17171863136537
 30
0.0
 10
70.93658147233509
 20
83.2177181583429
 30
0.0
 10
72.55658421891712
 20
81.55971911964662
 30
0.0
 10
74.54058537858509
 20
81.5247192722345
 30
0.0
 10
76.5595825709679
 20
81.4887199741388
 30
0.0
 10
78.14858708756947
 20
83.02672008095033
 30
0.0
 10
78.17958531754994
 20
85.04571918068177
 30
0.0
 10
78.20958409684681
 20
87.04871944008119
 30
0.0
 10
76.638584951339
 20
88.70071986732728
 30
0.0
 10
74.66758427995228
 20
88.7397194248224
 30
0.0
  0
HATCH
  5
4B
330
1F
100
AcDbEntity
  8
Layer 1
 62
     7
420
 16777215
100
AcDbHatch
 10
0.0
 20
0.0
 30
0.0
210
0.0
220
0.0
230
1.0
  2
SOLID
 70
     1
 71
     0
 91
        1
 92
        1
 93
        1
 72
     4
 94
        3
 73
     0
 74
     1
 95
       17
 96
       13
 40
0.0
 40
0.0
 40
0.0
 40
0.0
 40
1.0
 40
1.0
 40
1.0
 40
2.0
 40
2.0
 40
2.0
 40
3.0
 40
3.0
 40
3.0
 40
4.0
 40
4.0
 40
4.0
 40
4.0
 10
74.66758427995228
 20
88.7397194248224
 10
72.75858769792103
 20
88.77672008095033
 10
71.01558385270619
 20
87.09171870765931
 10
70.97658238786244
 20
85.17171863136537
 10
70.93658147233509
 20
83.2177181583429
 10
72.55658421891712
 20
81.55971911964662
 10
74.54058537858509
 20
81.5247192722345
 10
76.5595825709679
 20
81.4887199741388
 10
78.14858708756947
 20
83.02672008095033
 10
78.17958531754994
 20
85.04571918068177
 10
78.20958409684681
 20
87.04871944008119
 10
76.638584951339
 20
88.70071986732728
 10
74.66758427995228
 20
88.7397194248224
 97
        0
 97
        0
 75
     2
 76
     1
 98
        0
  0
SPLINE
  5
4C
330
1F
100
AcDbEntity
  8
Layer 1
370
     0
100
AcDbSpline
210
0.0
220
0.0
230
1.0
 70
    11
 71
     3
 72
    17
 73
    13
 74
     0
 42
0.0000000001
 43
0.0000000001
 12
1.0
 22
0.0
 32
0.0
 13
1.0
 23
0.0
 33
0.0
 40
0.0
 40
0.0
 40
0.0
 40
0.0
 40
1.0
 40
1.0
 40
1.0
 40
2.0
 40
2.0
 40
2.0
 40
3.0
 40
3.0
 40
3.0
 40
4.0
 40
4.0
 40
4.0
 40
4.0
 10
23.74605705985869
 20
90.89829839325012
 30
0.0
 10
21.8160567546829
 20
90.95129788971008
 30
0.0
 10
20.2130580211624
 20
89.40129865264953
 30
0.0
 10
20.25305702934111
 20
87.5202981338507
 30
0.0
 10
20.29105713615263
 20
85.76129735565246
 30
0.0
 10
21.88205673942412
 20
84.20429814910949
 30
0.0
 10
23.64205696830595
 20
84.20629895782531
 30
0.0
 10
25.45205643424833
 20
84.20829976654113
 30
0.0
 10
26.94505646476591
 20
85.69629872894347
 30
0.0
 10
26.97205689201201
 20
87.52629865264953
 30
0.0
 10
27.00105622062529
 20
89.38129819488586
 30
0.0
 10
25.5980563426956
 20
90.84729779815734
 30
0.0
 10
23.74605705985869
 20
90.89829839325012
 30
0.0
  0
HATCH
  5
4D
330
1F
100
AcDbEntity
  8
Layer 1
 62
     7
420
 16777215
100
AcDbHatch
 10
0.0
 20
0.0
 30
0.0
210
0.0
220
0.0
230
1.0
  2
SOLID
 70
     1
 71
     0
 91
        1
 92
        1
 93
        1
 72
     4
 94
        3
 73
     0
 74
     1
 95
       17
 96
       13
 40
0.0
 40
0.0
 40
0.0
 40
0.0
 40
1.0
 40
1.0
 40
1.0
 40
2.0
 40
2.0
 40
2.0
 40
3.0
 40
3.0
 40
3.0
 40
4.0
 40
4.0
 40
4.0
 40
4.0
 10
23.74605705985869
 20
90.89829839325012
 10
21.8160567546829
 20
90.95129788971008
 10
20.2130580211624
 20
89.40129865264953
 10
20.25305702934111
 20
87.5202981338507
 10
20.29105713615263
 20
85.76129735565246
 10
21.88205673942412
 20
84.20429814910949
 10
23.64205696830595
 20
84.20629895782531
 10
25.45205643424833
 20
84.20829976654113
 10
26.94505646476591
 20
85.69629872894347
 10
26.97205689201201
 20
87.52629865264953
 10
27.00105622062529
 20
89.38129819488586
 10
25.5980563426956
 20
90.84729779815734
 10
23.74605705985869
 20
90.89829839325012
 97
        0
 97
        0
 75
     2
 76
     1
 98
        0
  0
SPLINE
  5
4E
330
1F
100
AcDbEntity
  8
Layer 1
370
     0
100
AcDbSpline
210
0.0
220
0.0
230
1.0
 70
    11
 71
     3
 72
    32
 73
    28
 74
     0
 42
0.0000000001
 43
0.0000000001
 12
1.0
 22
0.0
 32
0.0
 13
1.0
 23
0.0
 33
0.0
 40
0.0
 40
0.0
 40
0.0
 40
0.0
 40
1.0
 40
1.0
 40
1.0
 40
2.0
 40
2.0
 40
2.0
 40
3.0
 40
3.0
 40
3.0
 40
4.0
 40
4.0
 40
4.0
 40
5.0
 40
5.0
 40
5.0
 40
6.0
 40
6.0
 40
6.0
 40
7.0
 40
7.0
 40
7.0
 40
8.0
 40
8.0
 40
8.0
 40
9.0
 40
9.0
 40
9.0
 40
9.0
 10
56.2807699884961
 20
61.44226605535005
 30
0.0
 10
55.97431124823561
 20
63.69482972915193
 30
0.0
 10
54.96256370472838
 20
64.85981049669226
 30
0.0
 10
53.07373974936672
 20
64.95757171818059
 30
0.0
 10
45.92504240268499
 20
65.32519213598152
 30
0.0
 10
38.77547897194472
 20
65.67142752937161
 30
0.0
 10
31.62591718775002
 20
66.01969848185308
 30
0.0
 10
29.93132822500047
 20
66.10218524085667
 30
0.0
 10
29.02576324584243
 20
65.10217410666883
 30
0.0
 10
28.60448909194383
 20
63.17751414048325
 30
0.0
 10
27.23017011107731
 20
56.89232533052746
 30
0.0
 10
26.47395029616109
 20
50.53483532632708
 30
0.0
 10
26.55596154112391
 20
44.02968959500322
 30
0.0
 10
26.58272287995169
 20
41.89016160517531
 30
0.0
 10
27.24830024716539
 20
40.74351252340784
 30
0.0
 10
29.11209009217509
 20
40.53984007476174
 30
0.0
 10
34.42548780770085
 20
39.95735163331847
 30
0.0
 10
45.06177723245492
 20
39.09685398989313
 30
0.0
 10
45.07127451925589
 20
39.30256199763244
 30
0.0
 10
47.74221848394336
 20
39.30256199763244
 30
0.0
 10
50.41315915553787
 20
39.26284528744873
 30
0.0
 10
53.08237424520303
 20
39.3158009010258
 30
0.0
 10
55.04112378583341
 20
39.35348205212176
 30
0.0
 10
56.09948509309106
 20
40.52966227931211
 30
0.0
 10
56.50004073800847
 20
42.87998717460141
 30
0.0
 10
57.56099041816015
 20
49.10407036531069
 30
0.0
 10
57.12158942126916
 20
55.26196680835164
 30
0.0
 10
56.2807699884961
 20
61.44226605535005
 30
0.0
  0
SPLINE
  5
4F
330
1F
100
AcDbEntity
  8
Layer 1
370
     0
100
AcDbSpline
210
0.0
220
0.0
230
1.0
 70
    11
 71
     3
 72
    17
 73
    13
 74
     0
 42
0.0000000001
 43
0.0000000001
 12
1.0
 22
0.0
 32
0.0
 13
1.0
 23
0.0
 33
0.0
 40
0.0
 40
0.0
 40
0.0
 40
0.0
 40
1.0
 40
1.0
 40
1.0
 40
2.0
 40
2.0
 40
2.0
 40
3.0
 40
3.0
 40
3.0
 40
4.0
 40
4.0
 40
4.0
 40
4.0
 10
39.61284394776249
 20
44.57449688535053
 30
0.0
 10
32.62643692288657
 20
49.8067228321961
 30
0.0
 10
30.27922069012948
 20
66.61746138578019
 30
0.0
 10
41.05794965831501
 20
57.0827549911246
 30
0.0
 10
41.05794965831501
 20
57.0827549911246
 30
0.0
 10
41.14168648520626
 20
56.73957293636886
 30
0.0
 10
41.14168648520626
 20
56.73957293636886
 30
0.0
 10
43.29380658093578
 20
59.93308545350828
 30
0.0
 10
46.00187031567111
 20
60.84755260540169
 30
0.0
 10
49.26673718727943
 20
59.48196049715989
 30
0.0
 10
53.71169134023876
 20
57.09192277633974
 30
0.0
 10
43.31279786144114
 20
41.80869262571468
 30
0.0
 10
39.61284394776249
 20
44.57449688535053
 30
0.0
  0
HATCH
  5
50
330
1F
100
AcDbEntity
  8
Layer 1
 62
     7
420
 16777215
100
AcDbHatch
 10
0.0
 20
0.0
 30
0.0
210
0.0
220
0.0
230
1.0
  2
SOLID
 70
     1
 71
     0
 91
        2
 92
        1
 93
        1
 72
     4
 94
        3
 73
     0
 74
     1
 95
       32
 96
       28
 40
0.0
 40
0.0
 40
0.0
 40
0.0
 40
1.0
 40
1.0
 40
1.0
 40
2.0
 40
2.0
 40
2.0
 40
3.0
 40
3.0
 40
3.0
 40
4.0
 40
4.0
 40
4.0
 40
5.0
 40
5.0
 40
5.0
 40
6.0
 40
6.0
 40
6.0
 40
7.0
 40
7.0
 40
7.0
 40
8.0
 40
8.0
 40
8.0
 40
9.0
 40
9.0
 40
9.0
 40
9.0
 10
56.2807699884961
 20
61.44226605535005
 10
55.97431124823561
 20
63.69482972915193
 10
54.96256370472838
 20
64.85981049669226
 10
53.07373974936672
 20
64.95757171818059
 10
45.92504240268499
 20
65.32519213598152
 10
38.77547897194472
 20
65.67142752937161
 10
31.62591718775002
 20
66.01969848185308
 10
29.93132822500047
 20
66.10218524085667
 10
29.02576324584243
 20
65.10217410666883
 10
28.60448909194383
 20
63.17751414048325
 10
27.23017011107731
 20
56.89232533052746
 10
26.47395029616109
 20
50.53483532632708
 10
26.55596154112391
 20
44.02968959500322
 10
26.58272287995169
 20
41.89016160517531
 10
27.24830024716539
 20
40.74351252340784
 10
29.11209009217509
 20
40.53984007476174
 10
34.42548780770085
 20
39.95735163331847
 10
45.06177723245492
 20
39.09685398989313
 10
45.07127451925589
 20
39.30256199763244
 10
47.74221848394336
 20
39.30256199763244
 10
50.41315915553787
 20
39.26284528744873
 10
53.08237424520303
 20
39.3158009010258
 10
55.04112378583341
 20
39.35348205212176
 10
56.09948509309106
 20
40.52966227931211
 10
56.50004073800847
 20
42.87998717460141
 10
57.56099041816015
 20
49.10407036531069
 10
57.12158942126916
 20
55.26196680835164
 10
56.2807699884961
 20
61.44226605535005
 97
        0
 97
        0
 92
        1
 93
        1
 72
     4
 94
        3
 73
     0
 74
     1
 95
       17
 96
       13
 40
0.0
 40
0.0
 40
0.0
 40
0.0
 40
1.0
 40
1.0
 40
1.0
 40
2.0
 40
2.0
 40
2.0
 40
3.0
 40
3.0
 40
3.0
 40
4.0
 40
4.0
 40
4.0
 40
4.0
 10
39.61284394776249
 20
44.57449688535053
 10
32.62643692288657
 20
49.8067228321961
 10
30.27922069012948
 20
66.61746138578019
 10
41.05794965831501
 20
57.0827549911246
 10
41.05794965831501
 20
57.0827549911246
 10
41.14168648520626
 20
56.73957293636886
 10
41.14168648520626
 20
56.73957293636886
 10
43.29380658093578
 20
59.93308545350828
 10
46.00187031567111
 20
60.84755260540169
 10
49.26673718727943
 20
59.48196049715989
 10
53.71169134023876
 20
57.09192277633974
 10
43.31279786144114
 20
41.80869262571468
 10
39.61284394776249
 20
44.57449688535053
 97
        0
 97
        0
 75
     2
 76
     1
 98
        0
  0
ENDSEC
  0
SECTION
  2
OBJECTS
  0
DICTIONARY
  5
C
330
0
100
AcDbDictionary
281
     1
  3
ACAD_GROUP
350
D
  3
ACAD_LAYOUT
350
1A
  3
ACAD_MATERIAL
350
3B
  3
ACAD_MLEADERSTYLE
350
52
  3
ACAD_MLINESTYLE
350
17
  3
ACAD_PLOTSETTINGS
350
19
  3
ACAD_PLOTSTYLENAME
350
E
  3
ACAD_TABLESTYLE
350
51
  3
ACAD_VISUALSTYLE
350
2A
  0
SUN
  5
3F
330
29
100
AcDbSun
 90
        1
290
     0
 63
     7
421
 16777215
 40
1.0
291
     1
 91
  2455826
 92
 54000000
292
     0
 70
     2
 71
   256
280
     1
  0
DICTIONARY
  5
D
102
{ACAD_REACTORS
330
C
102
}
330
C
100
AcDbDictionary
281
     1
  0
DICTIONARY
  5
1A
102
{ACAD_REACTORS
330
C
102
}
330
C
100
AcDbDictionary
281
     1
  3
Layout1
350
1E
  3
Layout2
350
26
  3
Model
350
22
  0
DICTIONARY
  5
3B
102
{ACAD_REACTORS
330
C
102
}
330
C
100
AcDbDictionary
281
     1
  3
ByBlock
350
3D
  3
ByLayer
350
3C
  3
Global
350
3E
  0
DICTIONARY
  5
52
102
{ACAD_REACTORS
330
C
102
}
330
C
100
AcDbDictionary
281
     1
  0
DICTIONARY
  5
17
102
{ACAD_REACTORS
330
C
102
}
330
C
100
AcDbDictionary
281
     1
  3
Standard
350
18
  0
DICTIONARY
  5
19
102
{ACAD_REACTORS
330
C
102
}
330
C
100
AcDbDictionary
281
     1
  0
ACDBDICTIONARYWDFLT
  5
E
102
{ACAD_REACTORS
330
C
102
}
330
C
100
AcDbDictionary
281
     1
  3
Normal
350
F
100
AcDbDictionaryWithDefault
340
F
  0
DICTIONARY
  5
51
102
{ACAD_REACTORS
330
C
102
}
330
C
100
AcDbDictionary
281
     1
  0
DICTIONARY
  5
2A
102
{ACAD_REACTORS
330
C
102
}
330
C
100
AcDbDictionary
281
     1
  3
2dWireframe
350
2F
  3
3D Hidden
350
31
  3
3dWireframe
350
30
  3
Basic
350
32
  3
Brighten
350
36
  3
ColorChange
350
3A
  3
Conceptual
350
34
  3
Dim
350
35
  3
Facepattern
350
39
  3
Flat
350
2B
  3
FlatWithEdges
350
2C
  3
Gouraud
350
2D
  3
GouraudWithEdges
350
2E
  3
Linepattern
350
38
  3
Realistic
350
33
  3
Thicken
350
37
  0
LAYOUT
  5
1E
102
{ACAD_REACTORS
330
1A
102
}
330
1A
100
AcDbPlotSettings
  1

  2
none_device
  4

  6

 40
0.0
 41
0.0
 42
0.0
 43
0.0
 44
0.0
 45
0.0
 46
0.0
 47
0.0
 48
0.0
 49
0.0
140
0.0
141
0.0
142
1.0
143
1.0
 70
   688
 72
     0
 73
     0
 74
     5
  7

 75
    16
 76
     0
 77
     2
 78
   300
147
1.0
148
0.0
149
0.0
100
AcDbLayout
  1
Layout1
 70
     1
 71
     1
 10
0.0
 20
0.0
 11
12.0
 21
9.0
 12
0.0
 22
0.0
 32
0.0
 14
1.000000000000000E+20
 24
1.000000000000000E+20
 34
1.000000000000000E+20
 15
-1.000000000000000E+20
 25
-1.000000000000000E+20
 35
-1.000000000000000E+20
146
0.0
 13
0.0
 23
0.0
 33
0.0
 16
1.0
 26
0.0
 36
0.0
 17
0.0
 27
1.0
 37
0.0
 76
     0
330
1B
  0
LAYOUT
  5
26
102
{ACAD_REACTORS
330
1A
102
}
330
1A
100
AcDbPlotSettings
  1

  2
none_device
  4

  6

 40
0.0
 41
0.0
 42
0.0
 43
0.0
 44
0.0
 45
0.0
 46
0.0
 47
0.0
 48
0.0
 49
0.0
140
0.0
141
0.0
142
1.0
143
1.0
 70
   688
 72
     0
 73
     0
 74
     5
  7

 75
    16
 76
     0
 77
     2
 78
   300
147
1.0
148
0.0
149
0.0
100
AcDbLayout
  1
Layout2
 70
     1
 71
     2
 10
0.0
 20
0.0
 11
0.0
 21
0.0
 12
0.0
 22
0.0
 32
0.0
 14
0.0
 24
0.0
 34
0.0
 15
0.0
 25
0.0
 35
0.0
146
0.0
 13
0.0
 23
0.0
 33
0.0
 16
1.0
 26
0.0
 36
0.0
 17
0.0
 27
1.0
 37
0.0
 76
     0
330
23
  0
LAYOUT
  5
22
102
{ACAD_REACTORS
330
1A
102
}
330
1A
100
AcDbPlotSettings
  1

  2
none_device
  4

  6

 40
0.0
 41
0.0
 42
0.0
 43
0.0
 44
0.0
 45
0.0
 46
0.0
 47
0.0
 48
0.0
 49
0.0
140
0.0
141
0.0
142
1.0
143
1.0
 70
  1712
 72
     0
 73
     0
 74
     0
  7

 75
     0
 76
     0
 77
     2
 78
   300
147
1.0
148
0.0
149
0.0
100
AcDbLayout
  1
Model
 70
     1
 71
     0
 10
0.0
 20
0.0
 11
12.0
 21
9.0
 12
0.0
 22
0.0
 32
0.0
 14
1.000000000000000E+20
 24
1.000000000000000E+20
 34
1.000000000000000E+20
 15
-1.000000000000000E+20
 25
-1.000000000000000E+20
 35
-1.000000000000000E+20
146
0.0
 13
0.0
 23
0.0
 33
0.0
 16
1.0
 26
0.0
 36
0.0
 17
0.0
 27
1.0
 37
0.0
 76
     0
330
1F
331
29
  0
MATERIAL
  5
3D
102
{ACAD_REACTORS
330
3B
102
}
330
3B
100
AcDbMaterial
  1
ByBlock
 72
     1
 94
      127
  0
MATERIAL
  5
3C
102
{ACAD_REACTORS
330
3B
102
}
330
3B
100
AcDbMaterial
  1
ByLayer
 72
     1
 94
      127
  0
MATERIAL
  5
3E
102
{ACAD_REACTORS
330
3B
102
}
330
3B
100
AcDbMaterial
  1
Global
 72
     1
 94
      127
  0
MLINESTYLE
  5
18
102
{ACAD_REACTORS
330
17
102
}
330
17
100
AcDbMlineStyle
  2
Standard
 70
     0
  3

 62
   256
 51
90.0
 52
90.0
 71
     2
 49
0.5
 62
   256
  6
BYLAYER
 49
-0.5
 62
   256
  6
BYLAYER
  0
ACDBPLACEHOLDER
  5
F
102
{ACAD_REACTORS
330
E
102
}
330
E
  0
VISUALSTYLE
  5
2F
102
{ACAD_REACTORS
330
2A
102
}
330
2A
100
AcDbVisualStyle
  2
2dWireframe
 70
     4
177
     2
291
     0
 71
     0
176
     1
 72
     2
176
     1
 73
     0
176
     1
 90
        0
176
     1
 40
-0.6
176
     1
 41
-30.0
176
     1
 62
     5
 63
     7
421
 16777215
176
     1
 74
     1
176
     1
 91
        4
176
     1
 64
     7
176
     1
 65
   257
176
     1
 75
     1
176
     1
175
     1
176
     1
 42
1.0
176
     1
 92
        0
176
     1
 66
   257
176
     1
 43
1.0
176
     1
 76
     1
176
     1
 77
     6
176
     1
 78
     2
176
     1
 67
     7
176
     1
 79
     5
176
     1
170
     0
176
     1
171
     0
176
     1
290
     0
176
     1
 93
        1
176
     1
 44
0.0
176
     1
173
     0
176
     1
  0
VISUALSTYLE
  5
31
102
{ACAD_REACTORS
330
2A
102
}
330
2A
100
AcDbVisualStyle
  2
3D Hidden
 70
     6
177
     2
291
     0
 71
     1
176
     1
 72
     2
176
     1
 73
     2
176
     1
 90
        0
176
     1
 40
-0.6
176
     1
 41
-30.0
176
     1
 62
     5
 63
     7
421
 16777215
176
     1
 74
     2
176
     1
 91
        2
176
     1
 64
     7
176
     1
 65
   257
176
     1
 75
     2
176
     1
175
     1
176
     1
 42
40.0
176
     1
 92
        0
176
     1
 66
   257
176
     1
 43
1.0
176
     1
 76
     1
176
     1
 77
     6
176
     1
 78
     2
176
     1
 67
     7
176
     1
 79
     3
176
     1
170
     0
176
     1
171
     0
176
     1
290
     0
176
     1
 93
        1
176
     1
 44
0.0
176
     1
173
     0
176
     1
  0
VISUALSTYLE
  5
30
102
{ACAD_REACTORS
330
2A
102
}
330
2A
100
AcDbVisualStyle
  2
3dWireframe
 70
     5
177
     2
291
     0
 71
     0
176
     1
 72
     2
176
     1
 73
     0
176
     1
 90
        0
176
     1
 40
-0.6
176
     1
 41
-30.0
176
     1
 62
     5
 63
     7
421
 16777215
176
     1
 74
     1
176
     1
 91
        4
176
     1
 64
     7
176
     1
 65
   257
176
     1
 75
     1
176
     1
175
     1
176
     1
 42
1.0
176
     1
 92
        0
176
     1
 66
   257
176
     1
 43
1.0
176
     1
 76
     1
176
     1
 77
     6
176
     1
 78
     2
176
     1
 67
     7
176
     1
 79
     5
176
     1
170
     0
176
     1
171
     0
176
     1
290
     0
176
     1
 93
        1
176
     1
 44
0.0
176
     1
173
     0
176
     1
  0
VISUALSTYLE
  5
32
102
{ACAD_REACTORS
330
2A
102
}
330
2A
100
AcDbVisualStyle
  2
Basic
 70
     7
177
     2
291
     1
 71
     1
176
     1
 72
     0
176
     1
 73
     1
176
     1
 90
        0
176
     1
 40
-0.6
176
     1
 41
-30.0
176
     1
 62
     5
 63
     7
421
 16777215
176
     1
 74
     0
176
     1
 91
        4
176
     1
 64
     7
176
     1
 65
   257
176
     1
 75
     1
176
     1
175
     1
176
     1
 42
1.0
176
     1
 92
        8
176
     1
 66
     7
176
     1
 43
1.0
176
     1
 76
     1
176
     1
 77
     6
176
     1
 78
     2
176
     1
 67
     7
176
     1
 79
     5
176
     1
170
     0
176
     1
171
     0
176
     1
290
     0
176
     1
 93
        1
176
     1
 44
0.0
176
     1
173
     0
176
     1
  0
VISUALSTYLE
  5
36
102
{ACAD_REACTORS
330
2A
102
}
330
2A
100
AcDbVisualStyle
  2
Brighten
 70
    12
177
     2
291
     1
 71
     2
176
     1
 72
     2
176
     1
 73
     0
176
     1
 90
        0
176
     1
 40
-0.6
176
     1
 41
-30.0
176
     1
 62
     5
 63
     7
421
 16777215
176
     1
 74
     1
176
     1
 91
        4
176
     1
 64
     7
176
     1
 65
   257
176
     1
 75
     1
176
     1
175
     1
176
     1
 42
1.0
176
     1
 92
        8
176
     1
 66
     7
176
     1
 43
1.0
176
     1
 76
     1
176
     1
 77
     6
176
     1
 78
     2
176
     1
 67
     7
176
     1
 79
     5
176
     1
170
     0
176
     1
171
     0
176
     1
290
     0
176
     1
 93
        1
176
     1
 44
50.0
176
     1
173
     0
176
     1
  0
VISUALSTYLE
  5
3A
102
{ACAD_REACTORS
330
2A
102
}
330
2A
100
AcDbVisualStyle
  2
ColorChange
 70
    16
177
     2
291
     1
 71
     2
176
     1
 72
     2
176
     1
 73
     3
176
     1
 90
        0
176
     1
 40
-0.6
176
     1
 41
-30.0
176
     1
 62
     5
 63
     8
421
  8421504
176
     1
 74
     1
176
     1
 91
        4
176
     1
 64
     7
176
     1
 65
   257
176
     1
 75
     1
176
     1
175
     1
176
     1
 42
1.0
176
     1
 92
        8
176
     1
 66
     8
424
  8421504
176
     1
 43
1.0
176
     1
 76
     1
176
     1
 77
     6
176
     1
 78
     2
176
     1
 67
     7
176
     1
 79
     5
176
     1
170
     0
176
     1
171
     0
176
     1
290
     0
176
     1
 93
        1
176
     1
 44
0.0
176
     1
173
     0
176
     1
  0
VISUALSTYLE
  5
34
102
{ACAD_REACTORS
330
2A
102
}
330
2A
100
AcDbVisualStyle
  2
Conceptual
 70
     9
177
     2
291
     0
 71
     3
176
     1
 72
     2
176
     1
 73
     0
176
     1
 90
        0
176
     1
 40
-0.6
176
     1
 41
-30.0
176
     1
 62
     5
 63
     7
421
 16777215
176
     1
 74
     2
176
     1
 91
        2
176
     1
 64
     7
176
     1
 65
   257
176
     1
 75
     1
176
     1
175
     1
176
     1
 42
40.0
176
     1
 92
        8
176
     1
 66
     7
176
     1
 43
1.0
176
     1
 76
     1
176
     1
 77
     6
176
     1
 78
     2
176
     1
 67
     7
176
     1
 79
     3
176
     1
170
     0
176
     1
171
     0
176
     1
290
     0
176
     1
 93
        1
176
     1
 44
0.0
176
     1
173
     0
176
     1
  0
VISUALSTYLE
  5
35
102
{ACAD_REACTORS
330
2A
102
}
330
2A
100
AcDbVisualStyle
  2
Dim
 70
    11
177
     2
291
     1
 71
     2
176
     1
 72
     2
176
     1
 73
     0
176
     1
 90
        0
176
     1
 40
-0.6
176
     1
 41
-30.0
176
     1
 62
     5
 63
     7
421
 16777215
176
     1
 74
     1
176
     1
 91
        4
176
     1
 64
     7
176
     1
 65
   257
176
     1
 75
     1
176
     1
175
     1
176
     1
 42
1.0
176
     1
 92
        8
176
     1
 66
     7
176
     1
 43
1.0
176
     1
 76
     1
176
     1
 77
     6
176
     1
 78
     2
176
     1
 67
     7
176
     1
 79
     5
176
     1
170
     0
176
     1
171
     0
176
     1
290
     0
176
     1
 93
        1
176
     1
 44
-50.0
176
     1
173
     0
176
     1
  0
VISUALSTYLE
  5
39
102
{ACAD_REACTORS
330
2A
102
}
330
2A
100
AcDbVisualStyle
  2
Facepattern
 70
    15
177
     2
291
     1
 71
     2
176
     1
 72
     2
176
     1
 73
     0
176
     1
 90
        0
176
     1
 40
-0.6
176
     1
 41
-30.0
176
     1
 62
     5
 63
     7
421
 16777215
176
     1
 74
     1
176
     1
 91
        4
176
     1
 64
     7
176
     1
 65
   257
176
     1
 75
     1
176
     1
175
     1
176
     1
 42
1.0
176
     1
 92
        8
176
     1
 66
     7
176
     1
 43
1.0
176
     1
 76
     1
176
     1
 77
     6
176
     1
 78
     2
176
     1
 67
     7
176
     1
 79
     5
176
     1
170
     0
176
     1
171
     0
176
     1
290
     0
176
     1
 93
        1
176
     1
 44
0.0
176
     1
173
     0
176
     1
  0
VISUALSTYLE
  5
2B
102
{ACAD_REACTORS
330
2A
102
}
330
2A
100
AcDbVisualStyle
  2
Flat
 70
     0
177
     2
291
     1
 71
     2
176
     1
 72
     1
176
     1
 73
     1
176
     1
 90
        2
176
     1
 40
-0.6
176
     1
 41
30.0
176
     1
 62
     5
 63
     7
421
 16777215
176
     1
 74
     0
176
     1
 91
        4
176
     1
 64
     7
176
     1
 65
   257
176
     1
 75
     1
176
     1
175
     1
176
     1
 42
1.0
176
     1
 92
        8
176
     1
 66
     7
176
     1
 43
1.0
176
     1
 76
     1
176
     1
 77
     6
176
     1
 78
     2
176
     1
 67
     7
176
     1
 79
     5
176
     1
170
     0
176
     1
171
     0
176
     1
290
     0
176
     1
 93
       13
176
     1
 44
0.0
176
     1
173
     0
176
     1
  0
VISUALSTYLE
  5
2C
102
{ACAD_REACTORS
330
2A
102
}
330
2A
100
AcDbVisualStyle
  2
FlatWithEdges
 70
     1
177
     2
291
     1
 71
     2
176
     1
 72
     1
176
     1
 73
     1
176
     1
 90
        2
176
     1
 40
-0.6
176
     1
 41
30.0
176
     1
 62
     5
 63
     7
421
 16777215
176
     1
 74
     1
176
     1
 91
        4
176
     1
 64
     7
176
     1
 65
   257
176
     1
 75
     1
176
     1
175
     1
176
     1
 42
1.0
176
     1
 92
        0
176
     1
 66
   257
176
     1
 43
1.0
176
     1
 76
     1
176
     1
 77
     6
176
     1
 78
     2
176
     1
 67
     7
176
     1
 79
     5
176
     1
170
     0
176
     1
171
     0
176
     1
290
     0
176
     1
 93
       13
176
     1
 44
0.0
176
     1
173
     0
176
     1
  0
VISUALSTYLE
  5
2D
102
{ACAD_REACTORS
330
2A
102
}
330
2A
100
AcDbVisualStyle
  2
Gouraud
 70
     2
177
     2
291
     1
 71
     2
176
     1
 72
     2
176
     1
 73
     1
176
     1
 90
        2
176
     1
 40
-0.6
176
     1
 41
30.0
176
     1
 62
     5
 63
     7
421
 16777215
176
     1
 74
     0
176
     1
 91
        4
176
     1
 64
     7
176
     1
 65
   257
176
     1
 75
     1
176
     1
175
     1
176
     1
 42
1.0
176
     1
 92
        0
176
     1
 66
     7
176
     1
 43
1.0
176
     1
 76
     1
176
     1
 77
     6
176
     1
 78
     2
176
     1
 67
     7
176
     1
 79
     5
176
     1
170
     0
176
     1
171
     0
176
     1
290
     0
176
     1
 93
       13
176
     1
 44
0.0
176
     1
173
     0
176
     1
  0
VISUALSTYLE
  5
2E
102
{ACAD_REACTORS
330
2A
102
}
330
2A
100
AcDbVisualStyle
  2
GouraudWithEdges
 70
     3
177
     2
291
     1
 71
     2
176
     1
 72
     2
176
     1
 73
     1
176
     1
 90
        2
176
     1
 40
-0.6
176
     1
 41
30.0
176
     1
 62
     5
 63
     7
421
 16777215
176
     1
 74
     1
176
     1
 91
        4
176
     1
 64
     7
176
     1
 65
   257
176
     1
 75
     1
176
     1
175
     1
176
     1
 42
1.0
176
     1
 92
        0
176
     1
 66
   257
176
     1
 43
1.0
176
     1
 76
     1
176
     1
 77
     6
176
     1
 78
     2
176
     1
 67
     7
176
     1
 79
     5
176
     1
170
     0
176
     1
171
     0
176
     1
290
     0
176
     1
 93
       13
176
     1
 44
0.0
176
     1
173
     0
176
     1
  0
VISUALSTYLE
  5
38
102
{ACAD_REACTORS
330
2A
102
}
330
2A
100
AcDbVisualStyle
  2
Linepattern
 70
    14
177
     2
291
     1
 71
     2
176
     1
 72
     2
176
     1
 73
     0
176
     1
 90
        0
176
     1
 40
-0.6
176
     1
 41
-30.0
176
     1
 62
     5
 63
     7
421
 16777215
176
     1
 74
     1
176
     1
 91
        4
176
     1
 64
     7
176
     1
 65
   257
176
     1
 75
     7
176
     1
175
     7
176
     1
 42
1.0
176
     1
 92
        8
176
     1
 66
     7
176
     1
 43
1.0
176
     1
 76
     1
176
     1
 77
     6
176
     1
 78
     2
176
     1
 67
     7
176
     1
 79
     5
176
     1
170
     0
176
     1
171
     0
176
     1
290
     0
176
     1
 93
        1
176
     1
 44
0.0
176
     1
173
     0
176
     1
  0
VISUALSTYLE
  5
33
102
{ACAD_REACTORS
330
2A
102
}
330
2A
100
AcDbVisualStyle
  2
Realistic
 70
     8
177
     2
291
     0
 71
     2
176
     1
 72
     2
176
     1
 73
     0
176
     1
 90
        0
176
     1
 40
-0.6
176
     1
 41
-30.0
176
     1
 62
     5
 63
     7
421
 16777215
176
     1
 74
     1
176
     1
 91
        0
176
     1
 64
     7
176
     1
 65
   257
176
     1
 75
     1
176
     1
175
     1
176
     1
 42
1.0
176
     1
 92
        8
176
     1
 66
     8
424
  7895160
176
     1
 43
1.0
176
     1
 76
     1
176
     1
 77
     6
176
     1
 78
     2
176
     1
 67
     7
176
     1
 79
     5
176
     1
170
     0
176
     1
171
     0
176
     1
290
     0
176
     1
 93
       13
176
     1
 44
0.0
176
     1
173
     0
176
     1
  0
VISUALSTYLE
  5
37
102
{ACAD_REACTORS
330
2A
102
}
330
2A
100
AcDbVisualStyle
  2
Thicken
 70
    13
177
     2
291
     1
 71
     2
176
     1
 72
     2
176
     1
 73
     0
176
     1
 90
        0
176
     1
 40
-0.6
176
     1
 41
-30.0
176
     1
 62
     5
 63
     7
421
 16777215
176
     1
 74
     1
176
     1
 91
        4
176
     1
 64
     7
176
     1
 65
   257
176
     1
 75
     1
176
     1
175
     1
176
     1
 42
1.0
176
     1
 92
       12
176
     1
 66
     7
176
     1
 43
1.0
176
     1
 76
     1
176
     1
 77
     6
176
     1
 78
     2
176
     1
 67
     7
176
     1
 79
     5
176
     1
170
     0
176
     1
171
     0
176
     1
290
     0
176
     1
 93
        1
176
     1
 44
0.0
176
     1
173
     0
176
     1
  0
ENDSEC
  0
EOF
