<?xml version="1.0" encoding="utf-8"?>
<!-- Generator: Adobe Illustrator 19.2.1, SVG Export Plug-In . SVG Version: 6.00 Build 0)  -->
<svg version="1.1" id="Layer_1" xmlns="http://www.w3.org/2000/svg" xmlns:xlink="http://www.w3.org/1999/xlink" x="0px" y="0px"
	 viewBox="0 0 90 112.5" style="enable-background:new 0 0 90 112.5;" xml:space="preserve">
<g>
	<g>
		<g>
			<path d="M80.7,17.3c-1-4.6-2.3-5.7-6.7-6.1c-11.2-1-22.4-1.9-33.6-2.8c0,0.3-15.9,0.6-23.8,0.8c-3.9,0.1-4.7,0.9-5.6,5
				c-1.9,8.1-2.1,16.4-0.5,24.6c1,5.1,2.1,6.3,7.1,6.9c16.9,2.3,33.8,2.9,50.8,2.4c2-0.1,4-0.5,6.1-0.6c2.5-0.2,3.9-1.7,4.8-4.1
				C82.2,34.8,82.6,26.1,80.7,17.3z M12.8,22.6c-0.1-3.8,3.2-7,7-7c3.8,0,6.9,3.1,6.9,6.8c0,3.8-3,6.8-6.9,6.8
				C16,29.3,12.9,26.4,12.8,22.6z M61.1,43.3c-2.6,0.2-7.9,0.3-8,0.5C44.5,43,35.7,42.3,27,41.2c-2-0.3-4-2.1-5.7-3.5
				c-0.6-0.5-0.8-2.2-0.4-3c0.3-0.8,1.6-1.5,2.4-1.5c6.6,0.1,13.3,0.3,19.9,0.6C49,34,54.7,34.6,60.4,35c0.5,0,1.1,0.1,1.6,0.3
				c1.6,0.5,3.4,0.9,3.3,3.3C65.2,41.1,63.5,43.1,61.1,43.3z M70.6,32.2c-4.2-0.1-7.4-3.4-7.2-7.6c0.1-4,3.4-7.1,7.5-7.1
				c4.1,0,7.5,3.4,7.4,7.5C78.1,29.1,74.8,32.3,70.6,32.2z"/>
		</g>
	</g>
</g>
<g>
	<g>
		<g>
			<path d="M51.9,72c-0.5,0-1.5,0.9-1.6,1.5c-0.5,3-0.8,6-1.1,9.1c0,0,0.1,0,0.1,0c-0.1,1-0.2,1.9-0.2,2.9c-0.1,2.3,1.2,2.4,2.7,2.4
				c1.5,0,2.9-0.2,2.7-2.4c-0.3-4-0.7-8-1.2-12C53.4,72.9,52.5,72,51.9,72z"/>
		</g>
	</g>
</g>
<g>
	<g>
		<g>
			<path d="M31.8,72.5c-0.1-0.7-1-1.6-1.5-1.6c-0.6,0-1.5,1-1.6,1.6c-0.5,4.4-0.8,8.8-1.1,13.2c0,0.7,0.5,1.9,0.9,2
				c1.2,0.2,2.6,0.4,3.7-0.2c0.5-0.3,0.5-2.3,0.7-3.5c0.1-0.5-0.1-1.1-0.1-1.7c0,0,0.1,0,0.1,0C32.5,79,32.3,75.7,31.8,72.5z"/>
		</g>
	</g>
</g>
<g>
	<g>
		<g>
			<path d="M74.7,23.8c-1.9,0-3.7,1.6-3.7,3.6c0,2,1.6,3.6,3.6,3.6c2,0,3.6-1.5,3.6-3.5C78.2,25.5,76.6,23.8,74.7,23.8z"/>
		</g>
	</g>
</g>
<g>
	<g>
		<g>
			<path d="M23.7,21.6c-1.9-0.1-3.5,1.5-3.5,3.4c0,1.8,1.6,3.3,3.4,3.3c1.8,0,3.3-1.5,3.3-3.3C27,23.1,25.6,21.7,23.7,21.6z"/>
		</g>
	</g>
</g>
<g>
	<g>
		<g>
			<path d="M56.3,51.1c-0.3-2.3-1.3-3.4-3.2-3.5c-7.1-0.4-14.3-0.7-21.4-1.1c-1.7-0.1-2.6,0.9-3,2.8c-1.4,6.3-2.1,12.6-2,19.1
				c0,2.1,0.7,3.3,2.6,3.5c5.3,0.6,15.9,1.4,16,1.2c2.7,0,5.3,0,8,0c2,0,3-1.2,3.4-3.6C57.6,63.4,57.1,57.2,56.3,51.1z M39.6,67.9
				c-7-5.2-9.3-22,1.4-12.5l0.1,0.3c2.2-3.2,4.9-4.1,8.1-2.7C53.7,55.4,43.3,70.7,39.6,67.9z"/>
		</g>
	</g>
</g>
</svg>
