<svg id="Objects" xmlns="http://www.w3.org/2000/svg" viewBox="0 0 103.09 145.74"><defs><style>.cls-1{fill:#62dddd;}</style></defs><title>No Arms</title><path d="M381.49,551.26c-2.21-8.24-6.58-16.64-12.92-22.51,2.25-2.42,3.63-5.43,5.84-7.95,0.56-.64.85-2.25-0.42-2.25H352.07c3-3.61,6.24-7.08,8.51-11.21,0.28-.52.46-1.64-0.35-1.83a47.87,47.87,0,0,0-25,1.38,134.37,134.37,0,0,1,6.18-15.66c0.37-.77.23-2.29-1-1.83-23.26,8.59-45.42,25-44.83,52.17-1,7.79-9.7,11.62-13.57,17.83-3.46,5.55-2.25,12.08,2.74,16.36,5.74,4.92,15.06,5.87,22.22,6.82,1.19,0.16,2.38.29,3.57,0.42-0.11,14.45-1.62,28.81-3,43.18-5.82.3-12.2,0.4-10.41,8.31a0.67,0.67,0,0,0,.68.57c5.37-.4,10.73-0.45,16.11-0.45a1.58,1.58,0,0,0,1.41-1.4c0.79-8.2.2-16.44,1.34-24.62s2.19-16.58,3.11-24.9c3.93,0.19,7.87.27,11.81,0.28,1,0,2,0,3.07,0a1.34,1.34,0,0,0,0,.34c0.86,7.83,1.68,15.66,2.87,23.44,1.33,8.72.76,17.49,1.6,26.24a0.67,0.67,0,0,0,.68.57c5.38,0,10.75,0,16.11.45a1.53,1.53,0,0,0,1.35-1.12c1.73-7.66-4.1-7.59-10.08-7.78-0.82,0-2-19-2.16-20.84-0.59-7-1-14-1.08-21,13.14,0.27,27.8-.5,35.7-10.54C384.56,567.54,383.39,558.31,381.49,551.26Z" transform="translate(-280.05 -489.32)"/><path class="cls-1" d="M317.12,539.55c1.16,7.82,9.42-3.8,16.37-4.67,7.53-.87,14.33,8.15,13.46-0.54-0.87-7.24-12.65-18.21-19.61-17.34" transform="translate(-280.05 -489.32)"/><path class="cls-1" d="M304.45,554.27c4-.89,4.92-0.9,8.5,0a24.45,24.45,0,0,0,2.69,8.06c1.34-1.79,2.69-4.47,4-6.71h29.09a28,28,0,0,1,2.24,6.71c4-5.82,4.92-8.5,13-5.82,4.92,1.79,9,4.92,6.27,10.74-2.24,5.37-9.85,7.16-14.77,7.16-8.5,0-9-2.69-13-8.5a11,11,0,0,0-2.24,6.71c-8.5,0-11.64,1.79-13.43-7.16-4.47.45-4,5.37-9,6.27-3.13.89-7.61-.45-10.74-1.34-5.82-1.34-17.45-8.5-7.16-14.32Z" transform="translate(-280.05 -489.32)"/></svg>