<?xml version="1.0" encoding="utf-8"?>
<!-- Generator: Adobe Illustrator 19.2.1, SVG Export Plug-In . SVG Version: 6.00 Build 0)  -->
<svg version="1.1" id="Layer_1" xmlns="http://www.w3.org/2000/svg" xmlns:xlink="http://www.w3.org/1999/xlink" x="0px" y="0px"
	 viewBox="0 0 100 125" style="enable-background:new 0 0 100 125;" xml:space="preserve">
<path d="M89.2,64.6c-0.1-0.1-0.2-0.2-0.3-0.3c-0.3-0.3-0.8-0.6-1.5-1c-0.3-0.2-0.7-0.3-1.2-0.5c-0.1,0-0.2-0.1-0.4-0.1
	c-0.1,0-0.2,0-0.4-0.1c-0.1,0-0.3,0-0.4,0c-0.1,0-0.3,0-0.4,0c-0.6,0-1.2,0.1-1.7,0.3c-0.3,0.1-0.6,0.2-0.9,0.3
	c-0.3,0.1-0.6,0.3-0.9,0.4c-0.6,0.3-1.2,0.6-1.8,1c-0.6,0.3-1.3,0.7-1.9,1c-1.2,0.6-2.4,1.3-3.7,1.8c0-0.7,0-1.5-0.1-2.2
	c-0.1-0.8-0.1-1.5-0.2-2.3c0-0.2,0-0.4-0.1-0.6V62v-0.1v-0.1v-0.1c0-0.2-0.1-0.5-0.1-0.7c0.2,0.1,0.3,0.2,0.5,0.3
	c0.6,0.3,1.3,0.6,2,0.8s1.5,0.4,2.3,0.4c0.1,0,0.2,0,0.3,0h0.2h0.2c0.2,0,0.4,0,0.6,0c0.4,0,0.8-0.1,1.2-0.2
	c0.8-0.2,1.6-0.5,2.3-0.9c0.4-0.2,0.7-0.4,1.1-0.7c0.3-0.2,0.7-0.5,1-0.8c1.2-1.2,2.1-2.6,2.7-4.1l0.1-0.3l0.1-0.3
	c0.1-0.2,0.1-0.4,0.2-0.6c0.1-0.4,0.2-0.8,0.3-1.2c0.2-0.8,0.3-1.6,0.3-2.3c0.1-1.5,0.1-3.1-0.2-4.5s-0.7-2.8-1.4-4
	c-0.1-0.1-0.2-0.3-0.2-0.4c-0.1-0.1-0.2-0.3-0.3-0.4c0-0.1-0.1-0.1-0.1-0.2l-0.1-0.1l-0.1-0.1c-0.1-0.1-0.2-0.3-0.3-0.4
	c-0.1-0.1-0.2-0.3-0.3-0.4c-0.1-0.1-0.2-0.2-0.3-0.3c-0.2-0.2-0.4-0.4-0.6-0.6c-0.9-0.8-1.8-1.3-2.7-1.7s-1.7-0.5-2.3-0.6
	c-0.7-0.1-1.2-0.1-1.5,0c-0.4,0-0.5,0.1-0.5,0.1s0.2,0,0.5,0c0.4,0,0.9,0,1.5,0.2c0.6,0.1,1.4,0.3,2.2,0.8c0.8,0.4,1.6,1,2.4,1.8
	c0.2,0.2,0.4,0.4,0.5,0.6c0.1,0.1,0.2,0.2,0.3,0.3s0.2,0.2,0.2,0.4c0.1,0.1,0.2,0.3,0.2,0.4l0.1,0.1l0,0l0,0l0,0l0,0
	c0,0.1,0.1,0.1,0.1,0.2c0.1,0.1,0.1,0.3,0.2,0.4c0.1,0.1,0.1,0.3,0.2,0.4c0.5,1.1,0.8,2.4,0.9,3.8c0.1,1.3,0.1,2.8-0.2,4.1
	c-0.1,0.7-0.3,1.4-0.5,2.1c-0.1,0.3-0.2,0.7-0.3,1c-0.1,0.2-0.1,0.3-0.2,0.5l-0.1,0.2L85.6,55c0,0.1-0.1,0.2-0.1,0.2l-0.1,0.1l0,0
	l0,0l0,0v0.1c-0.1,0.1-0.2,0.3-0.3,0.4c-0.2,0.3-0.4,0.6-0.6,0.8c-0.4,0.5-0.9,1-1.4,1.4c-1,0.8-2.2,1.3-3.3,1.4
	c-0.3,0-0.6,0.1-0.9,0.1c-0.1,0-0.3,0-0.4,0h-0.1l0,0l0,0l0,0h-0.1c-0.1,0-0.1,0-0.2,0c-0.5-0.1-1.1-0.2-1.6-0.4s-1-0.5-1.5-0.8
	c0.6,0,1.2,0,1.8-0.2c0.2,0,0.4-0.1,0.6-0.2l0,0c0,0,0.1,0,0,0l0,0h0.1h0.1c0.1,0,0.2-0.1,0.3-0.1c0.3-0.2,0.6-0.3,0.9-0.5
	c0.6-0.4,1.1-0.9,1.5-1.4s0.8-1.1,1-1.7c0.2-0.6,0.4-1.2,0.4-1.9c0-0.3,0-0.6-0.1-0.9v-0.1l0,0l0,0l0,0v-0.1v-0.1V51
	c0-0.2-0.1-0.3-0.1-0.4c-0.2-0.5-0.5-1-0.8-1.4c-0.7-0.8-1.4-1.3-2.2-1.6c-0.7-0.3-1.5-0.4-2-0.3c-0.3,0-0.5,0.1-0.7,0.2
	c-0.2,0.1-0.3,0.2-0.4,0.3c-0.1,0.1-0.2,0.2-0.2,0.2c-0.1,0.1-0.1,0.1-0.1,0.1s0,0,0.1-0.1c0.1,0,0.1-0.1,0.3-0.2
	c0.2-0.1,0.6-0.3,1.1-0.3s1.1,0.2,1.7,0.5c0.6,0.4,1.2,0.9,1.6,1.7c0.2,0.4,0.4,0.8,0.5,1.2c0,0.1,0,0.2,0.1,0.3v0.1v0.1v0.1l0,0
	l0,0l0,0l0,0c0,0.2,0,0.4,0,0.7c-0.1,0.9-0.6,1.7-1.4,2.4c-0.4,0.3-0.8,0.6-1.2,0.8s-0.9,0.3-1.3,0.4c-0.4,0-0.9,0-1.3-0.2
	c-0.4-0.1-0.9-0.4-1.3-0.6c-0.8-0.6-1.6-1.3-2.3-2.2l-0.1-0.2c0,0-0.1-0.1-0.1-0.2c-0.1-0.1-0.1-0.2-0.2-0.3c0-0.1-0.1-0.1-0.1-0.2
	l-0.1-0.2c-0.1-0.1-0.1-0.2-0.2-0.3c-0.1-0.1-0.1-0.2-0.2-0.3c0-0.1-0.1-0.1-0.1-0.2l-0.1-0.2c0-0.1-0.1-0.2-0.1-0.3
	s-0.1-0.2-0.1-0.3l-0.1-0.2v-0.2c0-0.1-0.1-0.2-0.1-0.3S70,49.2,70,49.1v-0.2c0-0.1,0-0.1,0-0.2c0-0.1,0-0.2-0.1-0.3
	c0-0.1,0-0.2,0-0.4s-0.1-0.5-0.1-0.7c-0.1-0.9-0.1-1.9-0.1-2.8c0-0.2,0-0.5,0-0.7c0-0.1,0-0.2,0-0.3s0-0.2,0-0.3c0-0.3,0-0.5,0-0.8
	c1.1-2.7,2.7-5.3,2.7-5.3c3.4-5.5,3.9-5.6,4.9-7.5c2.3-4.4,4.5-12.8,0.4-18.1c-4-5.2-11.7-4.9-16.5-4.6C57.4,7.1,51,7.4,46.4,12.3
	c-0.9,0.9-3.1,6.3-1.8,11.8c0.5,2.4,4.7,9,7.7,14.3h-0.1c0,0,0.1,0.2,0.3,0.5c0.1,0.1,0.2,0.3,0.3,0.5c0.1,0.2,0.2,0.5,0.4,0.8
	c0.3,0.6,0.6,1.3,0.8,2.2c0.1,0.4,0.2,0.9,0.3,1.4c0.1,0.5,0.2,1,0.2,1.6v0.1v0.1c0,0.1,0,0.2,0,0.2c0,0.2,0,0.3,0,0.5
	c0,0.1,0,0.3,0,0.4c-0.1,0-0.3,0-0.5,0c-0.3,0-0.6,0-0.9-0.1c-0.1,0-0.1,0-0.2,0h-0.1l0,0h0.1l0,0h-0.2h-0.2h-0.1l0,0h-0.1
	c-0.2-0.1-0.5-0.2-0.7-0.4c0,0-0.1,0-0.1-0.1L51.4,46c-0.1-0.1-0.2-0.1-0.3-0.2l-0.2-0.1c-0.1,0-0.1-0.1-0.2-0.1
	c-0.1-0.1-0.2-0.2-0.4-0.2l-0.2-0.1l-0.2-0.1c-0.2-0.1-0.3-0.1-0.5-0.2c-0.2-0.1-0.4-0.1-0.6-0.2c-0.2,0-0.4-0.1-0.6-0.1
	s-0.4,0-0.5,0c-0.2,0-0.1,0-0.1,0l0,0l0,0h-0.1h-0.2l0,0l0,0l0,0h-0.1c-0.1,0-0.2,0-0.3,0h-0.1h-0.1l-0.2,0.1
	c-0.6,0.2-1.2,0.4-1.7,0.7s-1,0.7-1.4,1.1c-0.9,0.8-1.6,1.7-2,2.9l-0.1,0.2l-0.1,0.2c0,0.1-0.1,0.2-0.1,0.2L41,50.3
	c0,0.1,0,0.1-0.1,0.2v0.2c0,0.1,0,0.3-0.1,0.4c-0.1,0.6-0.1,1.2,0,1.7c0.1,1.1,0.4,2.2,0.8,3.1c0.3,0.6,0.6,1.3,0.9,1.8
	c-0.3,0-0.7,0-1,0c-0.8-0.1-1.5-0.2-2.2-0.5c-0.4-0.1-0.7-0.3-1-0.4l-0.1-0.1l-0.1-0.1l-0.2-0.1c-0.2-0.1-0.3-0.2-0.5-0.3
	c-0.3-0.2-0.6-0.4-0.8-0.7l0,0l0,0l0,0l-0.1-0.1l-0.1-0.1l-0.1-0.1l-0.1-0.1C36.1,55,36.1,55,36,54.9c-0.1-0.1-0.1-0.1-0.2-0.2
	c-0.5-0.6-0.9-1.2-1.2-1.8c-0.7-1.3-1-2.6-1.1-3.8c0-0.3,0-0.6,0.1-0.9c0.1-0.3,0.1-0.5,0.2-0.8c0.1-0.2,0.3-0.5,0.4-0.7l0.1-0.1
	l0,0l0,0l0,0l0,0l0.1-0.1l0.1-0.1l0.1-0.1c0.4-0.3,0.9-0.4,1.3-0.5s0.8-0.1,1.2-0.1c0.8,0,1.4,0.1,1.8,0.1c0.2,0,0.4,0.1,0.5,0.1
	s0.2,0,0.2,0s-0.1,0-0.2-0.1c-0.1,0-0.3-0.1-0.4-0.1c-0.4-0.1-1-0.3-1.8-0.3c-0.4,0-0.8,0-1.3,0c-0.5,0.1-1,0.2-1.5,0.4
	c-0.1,0-0.1,0.1-0.2,0.1S34.1,46,34,46s-0.1,0.1-0.2,0.1l0,0l0,0l0,0l0,0l-0.1,0.1c-0.2,0.2-0.4,0.5-0.6,0.8s-0.3,0.6-0.4,0.9
	c-0.1,0.3-0.2,0.7-0.2,1c0,0.4,0,0.7,0,1.1c0,0.4,0.1,0.7,0.1,1.1c0.1,0.7,0.3,1.5,0.6,2.2c0.3,0.7,0.7,1.5,1.1,2.2
	c0.1,0.1,0.1,0.2,0.2,0.3s0.1,0.2,0.2,0.3l0.1,0.1l0.1,0.1l0.1,0.1v0.1l0,0l0,0l0,0c0.3,0.3,0.6,0.7,1,1c0.2,0.2,0.4,0.3,0.5,0.4
	c0.1,0.1,0.2,0.1,0.3,0.2l0.1,0.1l0.1,0.1c0.4,0.3,0.8,0.5,1.2,0.7c0.9,0.4,1.8,0.7,2.7,0.9c1.1,0.2,2.2,0.3,3.2,0.3
	c0.1,0.1,0.1,0.1,0.2,0.2c0.1,0.1,0.2,0.2,0.3,0.3c0.3,0.4,0.7,0.7,1.1,1c0.3,0.3,0.7,0.5,0.9,0.8c0.2,0.2,0.4,0.5,0.5,0.8v0.1v0.1
	l0,0l0,0l0,0v0.2v0.1v0.1V64v0.1c0,0.1,0,0.2,0,0.3c0,0.7-0.1,1.5-0.3,2.2c-0.2,0.7-0.5,1.3-1,1.9c-0.4,0.6-0.9,1-1.5,1.3
	c-0.3,0.2-0.6,0.3-0.9,0.4c-0.1,0-0.3,0.1-0.4,0.1l0,0l0,0l0,0h-0.1h-0.1c-0.1,0-0.2,0-0.2,0c-0.1,0-0.3,0-0.4,0s-0.3,0-0.4,0
	s-0.3,0-0.4-0.1c-0.1,0-0.3-0.1-0.4-0.1c-0.5-0.2-1-0.4-1.4-0.6c-0.4-0.2-0.8-0.5-1-0.8c-0.3-0.3-0.5-0.6-0.7-0.8
	c-0.1-0.1-0.2-0.2-0.3-0.4c-0.1-0.1-0.1-0.2-0.2-0.3s-0.1-0.2-0.1-0.3s-0.1-0.1-0.1-0.2c-0.1-0.1-0.1-0.2-0.1-0.2s0,0.1,0.1,0.2
	c0,0.1,0,0.1,0.1,0.2c0,0.1,0.1,0.2,0.1,0.3s0.1,0.2,0.2,0.3s0.1,0.2,0.2,0.4c0.2,0.3,0.4,0.6,0.7,0.9c0.3,0.3,0.6,0.6,1,1
	c0.4,0.3,0.9,0.6,1.4,0.8c0.1,0,0.3,0.1,0.4,0.2c0.1,0,0.3,0.1,0.5,0.1s0.3,0.1,0.5,0.1s0.3,0,0.5,0c0.1,0,0.2,0,0.2,0h0.1h0.1l0,0
	l0,0l0,0c0.2,0,0.4,0,0.5-0.1c0.4-0.1,0.7-0.2,1.1-0.3c0.7-0.3,1.4-0.8,1.9-1.4c0.6-0.6,1-1.3,1.4-2.1c0.3-0.8,0.6-1.7,0.6-2.7
	c0-0.1,0-0.2,0-0.4c0-0.1,0-0.1,0-0.2v-0.2v-0.1v-0.1v-0.2V63v-0.2c-0.1-0.3-0.1-0.5-0.3-0.8c-0.1-0.3-0.3-0.5-0.4-0.7
	c-0.3-0.4-0.7-0.8-1-1.1l-0.1-0.1c0.8-0.1,1.6-0.2,2.4-0.4c1-0.2,1.9-0.6,2.8-1c1.4-0.7,2.7-1.7,3.7-2.8c0,0.4,0.1,0.8,0.2,1.2
	c0.1,0.5,0.2,0.9,0.3,1.4c0,0.1,0.1,0.2,0.1,0.4l0.1,0.2v0.1v0.1l0,0l0,0c0.1,0.2,0.1,0.4,0.2,0.6c0,0.1,0.1,0.2,0.1,0.3
	s0.1,0.2,0.1,0.3c0.1,0.1,0.1,0.2,0.2,0.4c-0.6,0.1-1.1,0.3-1.7,0.5s-1.2,0.5-1.7,0.9l-0.4,0.3l-0.4,0.3l-0.4,0.3l0,0
	c-0.1,0.1,0,0,0,0l0,0l-0.1,0.1l-0.1,0.1c-0.1,0.1-0.2,0.2-0.3,0.4c-0.1,0.1-0.2,0.2-0.3,0.3c-0.1,0.1-0.2,0.2-0.3,0.4
	c-0.1,0.1-0.2,0.2-0.3,0.4c-0.7,1-1.1,2-1.5,3.1c-0.3,1.1-0.5,2.2-0.5,3.3c0,0.6,0.1,1.1,0.2,1.7c0.1,0.6,0.4,1.1,0.7,1.6
	c0.1,0.1,0.2,0.2,0.3,0.4l0.1,0.2l0,0l0,0c0,0.1,0,0,0,0l0.1,0.1l0.1,0.1l0.1,0.1c0.1,0.1,0.1,0.1,0.2,0.2c0.1,0.1,0.2,0.2,0.3,0.3
	c0.5,0.3,1,0.5,1.5,0.7c1,0.3,1.9,0.3,2.8,0.3c0.9-0.1,1.7-0.2,2.5-0.4s1.5-0.5,2.2-0.8s1.3-0.7,1.8-1.1c0.1-0.1,0.2-0.2,0.4-0.4
	c0.1-0.1,0.2-0.3,0.3-0.4c0.1-0.1,0.2-0.3,0.2-0.5v-0.1v-0.1l0,0l0,0l0,0v-0.1V73c-0.1-0.3-0.2-0.6-0.4-0.8
	c-0.2-0.2-0.4-0.4-0.5-0.5c-0.4-0.3-0.7-0.5-1-0.7s-0.6-0.3-0.8-0.4c-0.2-0.1-0.4-0.2-0.5-0.2c-0.1-0.1-0.2-0.1-0.2-0.1
	s0.1,0,0.2,0.1s0.3,0.2,0.5,0.3s0.4,0.3,0.7,0.5c0.3,0.2,0.6,0.5,0.9,0.8c0.1,0.2,0.3,0.3,0.4,0.5s0.2,0.4,0.2,0.6
	c0,0.4-0.4,0.8-0.8,1.1c-0.5,0.3-1.1,0.6-1.7,0.8s-1.3,0.4-2,0.5s-1.5,0.1-2.2,0.1c-0.8,0-1.5-0.2-2.2-0.5c-0.3-0.1-0.6-0.3-0.9-0.6
	c-0.2-0.2-0.4-0.5-0.6-0.8c-0.3-0.6-0.3-1.3-0.3-2.1c0.1-0.8,0.3-1.6,0.7-2.4c0.4-0.8,0.8-1.5,1.4-2.1c0.1-0.1,0.1-0.2,0.2-0.2
	c0.1-0.1,0.1-0.1,0.2-0.2l0.2-0.2l0.2-0.2l0.1-0.1l0.1-0.1l0,0l0,0l0,0l0.2-0.2l0.2-0.1l0.2-0.1c0.7-0.3,1.4-0.5,2.3-0.5
	c0.4,0,0.9-0.1,1.5-0.1c0.1,0,0.3,0,0.4,0c0.9,1.1,1.9,2,3,2.9c0.8,0.6,1.6,1.1,2.5,1.5c0.1,0,0.2,0.1,0.3,0.1s0.2,0.1,0.3,0.1
	l0.3,0.1l0.4,0.1l0.2,0.1h0.2c0.1,0,0.2,0.1,0.4,0.1s0.5,0.1,0.7,0.1c0.1,0,0.2,0,0.4,0h0.4c0.1,0,0.3,0,0.4,0h0.2l0,0l0,0h0.1h0.1
	h0.3l0,0c0,0.5,0,1,0,1.5c0,0.7-0.1,1.4-0.2,2c-0.1,0.7-0.2,1.3-0.4,2s-0.3,1.3-0.5,2s-0.3,1.4-0.4,2c-0.1,0.7-0.1,1.4-0.1,2
	c0,0.2,0,0.3,0,0.5c0,0.1,0,0.3,0,0.4c0,0.1,0,0.1,0,0.2c0,0.1,0,0.2,0,0.2c0,0.1,0,0.3,0.1,0.4c0.2,1.1,0.6,2.1,1,3
	c0.4,0.8,0.8,1.5,1.1,2.1c0.4,0.6,0.7,1,0.9,1.2c0.1,0.1,0.2,0.2,0.2,0.3c0.1,0.1,0.1,0.1,0.1,0.1s0,0-0.1-0.1
	c0-0.1-0.1-0.2-0.2-0.3c-0.2-0.3-0.4-0.8-0.7-1.3c-0.3-0.6-0.6-1.3-0.8-2.2s-0.4-1.8-0.5-2.9c0-0.1,0-0.3,0-0.4c0-0.1,0-0.1,0-0.2
	c0-0.1,0-0.1,0-0.2c0-0.1,0-0.3,0-0.4l0,0l0,0l0,0V82v-0.1c0-0.1,0-0.1,0-0.2c0.1-0.6,0.2-1.1,0.3-1.7c0.2-0.6,0.4-1.1,0.6-1.7
	c0.3-0.6,0.5-1.2,0.8-1.9s0.5-1.4,0.7-2.1c0.2-0.7,0.4-1.5,0.6-2.2c0.2-0.8,0.3-1.5,0.3-2.3c0-0.2,0-0.3,0-0.5
	c0.1-0.1,0.3-0.1,0.4-0.2c1.5-0.8,2.9-1.7,4.1-2.5c0.6-0.4,1.2-0.8,1.8-1.2s1.1-0.8,1.7-1.1c0.3-0.2,0.5-0.3,0.8-0.5
	c0.3-0.1,0.5-0.3,0.8-0.4c0.5-0.2,1-0.4,1.5-0.4c0.1,0,0.2,0,0.4,0c0.1,0,0.2,0,0.4,0c0.1,0,0.2,0,0.4,0c0.1,0,0.2,0,0.3,0
	c0.4,0.1,0.8,0.2,1.2,0.3c0.7,0.3,1.2,0.6,1.5,0.8C88.9,64.5,89.1,64.6,89.2,64.6c0.1,0.1,0.1,0.1,0.1,0.1S89.2,64.7,89.2,64.6z
	 M61.3,60.2c-0.1-0.2-0.1-0.3-0.2-0.5L61,59.4c0-0.1,0-0.2-0.1-0.2c0-0.1-0.1-0.4-0.2-0.6v-0.2c0-0.1,0-0.2,0-0.2
	c-0.1-0.6-0.1-1.3-0.1-2s0-1.5,0-2.2s0.1-1.5,0.1-2.2v-0.1c0.3,0.6,0.6,1.2,0.8,1.9c0,0.1,0,0.2,0.1,0.3V54v0.2
	c0,0.2,0.1,0.4,0.1,0.7c0.1,0.4,0.2,0.8,0.2,1.2c0.1,0.8,0.2,1.6,0.2,2.3c0,0.3-0.1,0.6-0.1,0.9c-0.1,0.3-0.2,0.5-0.3,0.7l0,0
	c0.1-0.1,0,0,0,0l0,0l0,0l-0.1,0.1l0,0l0,0l0,0l0,0l0,0l-0.1,0.1C61.3,60.3,61.3,60.2,61.3,60.2z M56.4,22.4c-0.7,0.7-1.8,0.7-2.5,0
	s-0.7-1.8,0-2.5c0.7-0.7,1.8-0.7,2.5,0S57.1,21.7,56.4,22.4z M51.5,20.2c-0.4,0.4-1.1,0.4-1.5,0c-0.4-0.4-0.4-1.1,0-1.5
	c0.4-0.4,1.1-0.4,1.5,0C51.9,19.1,51.9,19.8,51.5,20.2z M49.9,17.2c-0.3,0.3-0.7,0.3-1,0c-0.3-0.3-0.3-0.7,0-1c0.3-0.3,0.7-0.3,1,0
	C50.1,16.5,50.1,17,49.9,17.2z M50.8,56.3c-0.6,0.4-1.3,0.7-2,1c-0.4,0.1-0.7,0.2-1.1,0.3s-0.8,0.2-1.2,0.3
	c-0.4,0.1-0.7,0.1-1.1,0.2l-0.1-0.2c-0.4-0.8-0.7-1.6-1-2.4c-0.2-0.8-0.4-1.6-0.4-2.3s0.2-1.4,0.5-2s0.8-1.1,1.3-1.5
	c0.3-0.2,0.6-0.4,0.8-0.5c0.3-0.1,0.6-0.2,0.8-0.2h0.1l0,0l0,0l0,0l0,0l0,0l0,0l0,0h0.2h0.1l0,0l0,0c0,0,0.1,0-0.1,0h0.1h0.1l0,0
	l0,0c0,0,0.1,0,0.1,0.1l0,0l0.1,0.1c0,0,0.1,0.1,0.2,0.1l0.2,0.2c0.1,0.1,0.2,0.1,0.3,0.2l0.1,0.1l0.1,0.1c0.4,0.3,0.9,0.7,1.4,0.9
	c0.1,0.1,0.3,0.1,0.5,0.2h0.1H51l0.1,0.1l0.1,0.1l0,0c-0.1,0,0.1,0,0.1,0l0,0h0.1c0.1,0,0.3,0.1,0.4,0.1c0.5,0.1,1,0.2,1.5,0.3
	c0.1,0,0.2,0,0.3,0c-0.2,0.5-0.4,1-0.6,1.5C52.9,54.5,52,55.5,50.8,56.3z M70,68.2L70,68.2C69.8,68.2,69.9,68.2,70,68.2L70,68.2
	h-0.1h-0.1c-0.1,0-0.2,0-0.3,0h-0.3c-0.1,0-0.2,0-0.3-0.1c-0.2,0-0.3-0.1-0.5-0.1l-0.3-0.1H68l-0.1-0.1l-0.3-0.1l-0.2-0.1
	c-0.1,0-0.2-0.1-0.2-0.1c-0.1,0-0.2-0.1-0.2-0.1c-0.6-0.4-1.3-0.8-1.8-1.4c-0.5-0.5-1-1-1.4-1.5c0.3-0.2,0.6-0.4,0.9-0.6
	c0.1-0.1,0.2-0.2,0.2-0.2l0.1-0.1l0.1-0.1l0.1-0.1l0,0l0,0c0,0,0,0.1,0.1-0.1l0.1-0.1c0.2-0.3,0.5-0.6,0.7-0.9
	c0.2-0.3,0.4-0.6,0.5-1c0.3-0.6,0.5-1.3,0.6-1.9c0-0.2,0.1-0.5,0.1-0.7c0.1,0.2,0.2,0.4,0.3,0.7s0.2,0.6,0.4,0.9
	c0.1,0.1,0.1,0.3,0.2,0.4c0.1,0.2,0.1,0.3,0.2,0.5c0.1,0.2,0.1,0.3,0.2,0.5c0.1,0.2,0.1,0.3,0.2,0.5c0.1,0.3,0.2,0.6,0.3,1v0.1v0.1
	v0.1l0.1,0.3c0,0.2,0.1,0.3,0.1,0.5c0.2,0.7,0.4,1.4,0.5,2c0.2,0.7,0.3,1.4,0.4,2c0,0.1,0,0.2,0.1,0.4L70,68.2z"/>
</svg>
