<?xml version="1.0" encoding="utf-8"?>
<!-- Generator: Adobe Illustrator 19.2.1, SVG Export Plug-In . SVG Version: 6.00 Build 0)  -->
<svg version="1.1" id="Layer_1" xmlns="http://www.w3.org/2000/svg" xmlns:xlink="http://www.w3.org/1999/xlink" x="0px" y="0px"
	 viewBox="0 0 796.4 995.5" style="enable-background:new 0 0 796.4 995.5;" xml:space="preserve">
<path d="M589.6,246.6c55.2-57.1,101.8-104.8-58.5-58.5c21.7-90.8,37-178.3-71.9-19.3c-77.4-66.7-158.5-70.8-204.5,54.8
	c-93.9-65.4-108.1-55.9-52.7,52.7C80.5,254,59.8,279,180.5,356.2C37.7,427.3,39.6,461.6,219.1,500c7.6,28.6,29.9,50.8,58.5,58.5
	c-1.5,206.4,63.6,165.6,143.9,38.6c28.5,7.6,59-0.5,79.9-21.4c156.8,66.2,175.2,36.7,105.3-105.3c20.9-20.9,29.1-51.4,21.4-79.9
	C777.9,319,772.5,286.6,589.6,246.6z M408.1,260c12.1,0,21.9,20,21.9,44.7c0,24.7-9.8,44.7-21.9,44.7c-12.1,0-21.9-20-21.9-44.7
	C386.2,280.1,396,260,408.1,260z M320.6,260c12.1,0,21.9,20,21.9,44.7c0,24.7-9.8,44.7-21.9,44.7s-21.9-20-21.9-44.7
	C298.7,280.1,308.5,260,320.6,260z M468.7,393.9c-27.7,27.7-64.2,41.6-100.6,41.6c-36.4,0-72.8-13.9-100.6-41.6c-5-5-5-13.2,0-18.2
	c5-5,13.2-5,18.2,0c45.4,45.4,119.3,45.4,164.7,0c5-5,13.2-5,18.2,0C473.8,380.7,473.8,388.9,468.7,393.9z"/>
</svg>
