<svg id="Objects" xmlns="http://www.w3.org/2000/svg" viewBox="0 0 164.45 100.9"><defs><style>.cls-1{fill:#62dddd;}</style></defs><title>Spider</title><path d="M259.09,519.77c-4.83-3.32-12.62-2.34-18-1.55-9.48,1.4-18.73,4.22-28.35,4.36a18.6,18.6,0,0,0,.62-5.8c13.95-.35,28.19-3.51,36.8-15.47,6.8-9.45,5.67-25.9-7.52-29.24a1.49,1.49,0,0,0-1.65,1.36,55.21,55.21,0,0,0,.94,10.09c1,6.45-1.07,11.44-6.26,15.43-6.87,5.28-16.42,7.21-24.76,8.76l-0.16,0a22.89,22.89,0,0,0-1.37-2.28c11.08-.5,20.7-11.29,23.2-21.51,1.12-4.59.79-8.42-2.9-11.61-5.68-4.9-14.11-7.88-21.55-7.22-0.88.08-1.91,1.28-1.17,2.08,4.56,4.93,12.17,9.15,13.74,16.12s-15.77,12.49-20.83,14.14a0.84,0.84,0,0,0-.24,0c-7.42-3.42-16.62-4-24.9-4h0a18.65,18.65,0,0,0-12.51,2.18,0.83,0.83,0,0,0-.2-0.09c-5.89-1.91-17.53-5.2-19.09-12.16-1.41-6.3,10-13.16,13.64-17.14,0.48-.52.59-1.6-0.32-1.68-7.18-.63-14,2.06-19.93,6-3.54,2.36-6.3,5.38-5.84,9.92C131.68,492,141.74,504.71,154,505c-0.34.7-.65,1.4-0.93,2.13-8.17-1.54-16.45-3.61-23.55-8.09-4.61-2.9-7.85-7.34-8-12.89-0.17-4.61,1.41-9.13,1.27-13.78a0.73,0.73,0,0,0-1-.8c-5.41,1.37-9.13,5.89-11.38,10.79-2.47,5.39-1.11,11.17,1.42,16.27,7.15,14.38,24.83,17.51,39.31,17.68a30.08,30.08,0,0,0,.25,5.76c-9-.2-17.67-2.82-26.58-4.14-6-.89-14.37-2.24-19.79,1.49-8.22,5.65-5.6,17.23-1.14,24.45,0.4,0.65,1.26.24,1.63-.21,2-2.5,3.09-5.4,4.25-8.38,2.55-6.58,8.52-7.44,14.81-7.73,9.74-.44,19.12,3,28.81,2.57a1.3,1.3,0,0,0,.5-0.15,19,19,0,0,0,1.41,2.17c-10.59,1.14-23.25,0-31.07,8.16-7,7.38.72,19.51,6.88,24.47,0.56,0.45,1.42-.14,1.67-0.68,1.83-3.83,1.89-7.73,2-11.9,0.21-6.58,4.25-9.24,10.34-10,4.12-.55,8.26-0.92,12.36-1.59,1.77-.29,4.25-0.58,5.83-1.8,7.44,3.87,17,4.84,24.51,3.66A34.61,34.61,0,0,0,199,538.51c1.48,1.57,4.81,1.83,6.64,2.19,4.52,0.89,9.12,1.37,13.66,2.12,5.14,0.85,8.77,3.38,9.48,8.75,0.63,4.69,0,9.1,2.06,13.53,0.27,0.56,1,.31,1.39,0,6.47-5.21,12.93-15.38,8.21-23.62-5.68-9.93-23.75-7.77-33.44-9.12,0.43-.46.85-0.92,1.25-1.41,9.7,0.35,19.16-2.95,28.88-2.94,5.33,0,11.87.45,15.21,5.17,2.48,3.51,2.94,8,5.71,11.36,0.49,0.6,1.44-.29,1.67-0.67C264.05,536.94,267.14,525.29,259.09,519.77Z" transform="translate(-99.65 -464.54)"/><path class="cls-1" d="M162.82,524.32c-5.8-5.8-1.11-20.17,8-19.89A10.67,10.67,0,0,0,173,510a24.3,24.3,0,0,0,3.31-5.8c5.25,0.28,10.5,1.1,15.75,1.66,0.28,1.93.28,3.59,0.55,5.53,2.21-.83,3.59-3,5.25-4.7,9.95,6.63,10.77,23.48-3.31,23.21-0.28-2.21-1.66-6.35-3-8-1.93,1.93-1.38,5.53-1.93,8-4.7-1.38-9.67-1.38-14.37-1.94a15.9,15.9,0,0,0-1.66-9.39c-2.49,1.93-2.76,7.18-3.59,10.22-2.49-.28-6.08-2.49-7.18-4.42h0Z" transform="translate(-99.65 -464.54)"/></svg>