<svg id="Objects" xmlns="http://www.w3.org/2000/svg" viewBox="0 0 147.25 122.31"><defs><style>.cls-1{fill:#62dddd;}</style></defs><title>Spooky Hollow</title><path d="M255.86,651.52c-3.52-1.53-7.08-1.69-10.77-1.67,1.82-2.21,3.29-4.5,3.57-7.61A1.13,1.13,0,0,0,248,641c-5.88-1.14-9.07,3.51-12.48,7.46-7.28-3.44-16.57-1.35-23.75,1.24-6.14,2.21-12.86,5.88-16.82,11.38v0c-1.43-4.73-5.15-9-8.66-12.34-7.7-7.37-19.22-10.63-29.67-9.94-8,.53-15.94,4.9-21.48,11.15l-0.24,0c-4.36,0-7.57-2.82-9.92-6.25-1.59-2.33-4.29-8.53-1.78-11,3.47-3.48,8.68-8.47,9.16-13.68,0.33-3.55-2.63-7.7-6.4-5.55-2.46,1.4-3.56,4.07-4.57,6.74-0.45-4.11-.81-9.23-4.54-9.81-7.83-1.23-8.15,9.21-7,14,1,4.3,2.76,8.14,3.09,12.59s0,8.82,2.15,13c2,3.91,6.54,7.06,10.5,8.7a6,6,0,0,0,3.91.33,22.37,22.37,0,0,0,1,19.74c4.28,7.65,12.44,7.38,20.15,8a1.55,1.55,0,0,0-.07.63c1.3,10.77-1.15,21.48-1.09,32.26a23.75,23.75,0,0,0-11,7.61c-0.56.7-1,2.15,0.12,2.58a28.49,28.49,0,0,0,15.54,1.05c2.19-.45,6.33-0.91,7-3.7,0.75-3.08-1.29-7.24-2-10.2-2.12-9.23-.93-18.91,1.21-28,4.21,2.05,7.46,5.6,10.31,9.32,0.24,0.31.5,0.61,0.75,0.91a3.33,3.33,0,0,0-.4.6,2.14,2.14,0,0,0-.48,1.29c0.39,9.91-1,19.74-1.6,29.61a1.12,1.12,0,0,0,1.08,1.31c6.86,0.09,13.68.92,20.54,0.53a2.45,2.45,0,0,0,2.19-2.61,7.2,7.2,0,0,0-4.22-5.92,72.14,72.14,0,0,0-8.33-4.41c-2.92-1.12-2-8.19-1.78-10.43,0.13-1.25.26-2.48,0.32-3.69a41.89,41.89,0,0,0,4.32,2.38c10,4.75,20.28,1.22,27.2-6.86,6.32-7.38-.36-14.28-6.71-18.36-1.91-1.23-3.91-2.31-5.89-3.42a1.36,1.36,0,0,0-.81-0.15,12.61,12.61,0,0,1-1-3.35,3.21,3.21,0,0,0,.53-0.41c5.6-5.62,11-11.38,18.18-15,6.1-3.06,11.43-2.91,17.91-2,7.28,1.06,20.65,4.4,23.93-5A1.29,1.29,0,0,0,255.86,651.52Z" transform="translate(-109.32 -610.19)"/><path class="cls-1" d="M184.87,694.76c2.55,5,7.47,6.8,11,1.66,7.35-10.69-12.08-15.1-11-1.66h0Z" transform="translate(-109.32 -610.19)"/><path class="cls-1" d="M144,670.54a9.8,9.8,0,0,0,11.15-5.2c4.18-9.27-15.91-.81-11.15,5.2h0Z" transform="translate(-109.32 -610.19)"/><path class="cls-1" d="M164.59,659.28A9.8,9.8,0,0,0,176,654.7c4.69-9-15.84-1.68-11.42,4.58h0Z" transform="translate(-109.32 -610.19)"/><path d="M172.22,698" transform="translate(-109.32 -610.19)"/><path d="M171.64,699.81c1.79,0,3.45-3.63,1.16-3.63-1.79,0-3.45,3.63-1.16,3.63h0Z" transform="translate(-109.32 -610.19)"/></svg>