<?xml version="1.0" encoding="utf-8"?>
<!-- Generator: Adobe Illustrator 19.2.1, SVG Export Plug-In . SVG Version: 6.00 Build 0)  -->
<svg version="1.1" id="Layer_1" xmlns="http://www.w3.org/2000/svg" xmlns:xlink="http://www.w3.org/1999/xlink" x="0px" y="0px"
	 viewBox="0 0 90 112.5" style="enable-background:new 0 0 90 112.5;" xml:space="preserve">
<path d="M45,3.5c-21,0-38.1,17-38.1,38.1c0,0,0,14.7,0,14.7c0,8.1,0.6,22.4,5.7,27.5c3,3,6,3,7.8-0.7c1.1-2.2,2.5-6.4,5.5-6.4
	c4.8,0,4.8,9.8,9.5,9.8s4.8-9.8,9.5-9.8s4.8,9.8,9.5,9.8c4.8,0,4.8-9.8,9.5-9.8c3.1,0,4.4,4.1,5.5,6.4c1.8,3.6,4.8,3.7,7.8,0.7
	c5.1-5.1,5.7-19.3,5.7-27.5c0,0,0-14.7,0-14.7C83.1,20.5,66,3.5,45,3.5z M63.4,12.9c3.6,1.2,5.6,5.1,4.5,8.7c-0.7,2.3-3,0.7-3,0.7
	l0,0c-2.7-1.6-5.6-2.9-8.7-3.8c0,0,0,0,0,0c-1.7-0.5-1-2.3-0.8-2.5C56.9,13.3,60.2,11.9,63.4,12.9z M26.6,12.9
	c3.2-1,6.5,0.4,8.1,3.1c0.1,0.3,0.9,2-0.8,2.5c0,0,0,0,0,0c-3.1,0.9-6,2.1-8.7,3.8l0,0c0,0-2.4,1.6-3-0.7
	C20.9,18,22.9,14.1,26.6,12.9z M69,53.6c-3.2,2.4-8.2,1.2-12-0.9c-3.7-2.1-7.8-3.2-12-3.2c-4.2,0-8.3,1.1-12,3.2
	c-3.8,2.1-8.8,3.2-12,0.9c-2.8-2-1.8-7.8-1.3-10.6C22,30.5,33.4,23,45,23.4c11.6-0.4,23,7,25.2,19.6C70.8,45.8,71.8,51.6,69,53.6z"
	/>
</svg>
