<svg id="Objects" xmlns="http://www.w3.org/2000/svg" viewBox="0 0 94.86 196.82"><defs><style>.cls-1{fill:#62dddd;}</style></defs><title>Tall Cyclops</title><path d="M405.54,293c-1.55-8.15-3.45-16.86-10.92-21.6-7.63-4.83-18-4.07-26.56-3.32-9.75.84-19.74,1.34-29.4,2.84-10.66,1.65-18.93,7-22.47,17.49-2.3,6.79-2.09,14-2.47,21.1-0.5,9.2-1.88,18.52-.1,27.66,1.07,5.51,3.7,10.84,8.94,13.3,6,2.81,12.45,2.83,18.23,6.49,13.24,8.37,7.75,31.32,3.1,42.91a2.38,2.38,0,0,0-.18.73,1.76,1.76,0,0,0-.1.55,117.51,117.51,0,0,1-.24,12.39c-0.5,5.14-2.54,10.3-4.22,15.14-2.83,8.13-6.13,16-9.11,24.1l-0.5.49c-0.77.77-1,2.36,0.13,2.87a88.19,88.19,0,0,0,13.62,4.61c1.27,0.33,2.37-.79,2.78-1.88,0.81-2.17,1.49-4.38,2.2-6.59a1.42,1.42,0,0,0-.68-1.89c-1.78-.58-3.57-1.17-5.39-1.63a72.4,72.4,0,0,0,3.18-9.55c1.17-4.19,3.24-8,4.92-12,3-7.1,3.44-14.78,4-22.39,1.67,0.15,3.34.28,5,.37v0c12.42,15.93,8.49,37.59,7.09,56.24a1.26,1.26,0,0,0,1.21,1.46c3.25,0.34,6.5.65,9.76,0.9,1.75,0.13,4.14.86,5.87,0.39,4-1.07,4.7-6.89,5.61-10,0.24-.82,0-2-1.11-2-2.67.15-5.29,0.74-8,.86-0.71-5.25.3-10.48,0.75-15.74,0.41-4.9-.56-9.56-1.72-14.29-2-8.1-5-17-11.24-22.84,2.86-11.28,2.35-23,.84-34.48-1.24-9.48-5.53-18.43-5.16-28.16,0.43-11.22,15.24-8.86,22.82-8.78s15.66-1.56,19.39-9C409.33,312,407,301,405.54,293Z" transform="translate(-312.74 -267.55)"/><path class="cls-1" d="M398.56,292.67c-0.38-3.71-1-9.85-3.94-12.63s-6.59-2.57-10.31-2.75c-7.2-.36-14.48.7-21.62,1.44-9.42,1-20-.41-28.49,4.49a2.27,2.27,0,0,0-1.19.89,31.64,31.64,0,0,0-5.64,19.16c0.43,7.73,7.13,8.66,13.5,7.64,1.76-.28-1.75.34,0,0,0.94-.24,10.79-15.65,11.75-15.62,10,0.32-2,18.23-2.33,19.31-0.8,2.58-1.1,6.13,1.88,7.54,2.58,1.22,5,.2,7.06-1.52l0.17-.16a5.53,5.53,0,0,0,4.32,2.32c3.25,0.29,4.91-1.84,5.83-4.66,1.31,2.74,3.44,4.55,6.94,3.19,4.76-1.84-5.1-20.8-5.41-26,5.51,0,23.11,12.51,26.2,7.43C399.18,299.63,398.92,296.14,398.56,292.67Z" transform="translate(-312.74 -267.55)"/></svg>