<svg id="Objects" xmlns="http://www.w3.org/2000/svg" viewBox="0 0 98.49 225.69"><defs><style>.cls-1{fill:#62dddd;}</style></defs><title>Tall Creeper</title><path d="M693,567c-5.77-15.52-17.36-25.08-33.23-29-14-3.44-30.62-5-44.34.19-10.49,4-15.53,13.15-13.7,24.16,0.21,1.26,1.59.9,2.32,0.4,3.95-2.71,7.71-6.25,11-.56,0.62,1.08,2,.3,2.56-0.33a15.09,15.09,0,0,1,3.38-2.31c1.09,1.47,2.54,2.65,3.54,4.22a1.3,1.3,0,0,0,1.78.31,26.31,26.31,0,0,0,6.07-4c2.18,5.51,6.76,4.12,11.28,1.09,2.21,3.82,1.61,7.44-1.41,10.63-1.41-1.2-3.07-2.06-4.18-3.64a1.45,1.45,0,0,0-2.19,0c-3.68,2.88-7.58,6.32-10.45.56-0.66-1.33-2.42,0-2.86.77-2.69,4.7-5.62.64-7.14-1.29-0.89-1.13-2.27-.2-2.86.77-2,3.21-5.1,4.81-6.49.12-0.48-1.61-2.46-.72-3,0.4-3.73,7.9-1.21,15.51,6.55,19.71,8.43,4.55,16.8,3.92,25.69,1.36,4.24-1.22,8.49-2.63,13-2.6,6.56,0,9.29,6.13,10.64,11.63,3.21,13-.58,27,0.25,40.22,0.44,7.08,1.93,14.2,2.88,21.23a223,223,0,0,1,2,25.12c0.34,15.43-1.4,30.84-2.33,46.22-0.34,5.58-.52,11.18-0.75,16.77-0.14,3.4-.16,7.57,2.59,10,6.08,5.36,10.19-6.2,10.8-10.07s-0.11-7.62-.07-11.38a45.38,45.38,0,0,1,2.12-14.17c1-2.87,4.42-7.79,6.33-3.17,1.4,3.37,1.13,7.75,1.12,11.31,0,7.38-1,14.81-.38,22.17,0.27,3.41,2.83,7.21,6.36,4.24,3.86-3.25,4.57-10.39,5.41-15a164.47,164.47,0,0,0,2.39-20.89c0.56-10.32.41-20.71,0.59-31,1.68-23.46,1.56-46.83,1.61-70.33C699.88,602.84,699.35,584.14,693,567Z" transform="translate(-601.36 -534.88)"/><path class="cls-1" d="M620.32,545.23c-2.2.56-3.3,0.75-3.31,2.53s4.18,1.94,5.55,1.8c2.38-.05,6.42-1.27,3.58-3.75C624.81,544.56,622.08,545,620.32,545.23Z" transform="translate(-601.36 -534.88)"/><path class="cls-1" d="M639.68,545.23c-2.2.56-3.3,0.75-3.31,2.53s4.18,1.94,5.55,1.8c2.38-.05,6.42-1.27,3.57-3.75C644.18,544.56,641.45,545,639.68,545.23Z" transform="translate(-601.36 -534.88)"/></svg>