<?xml version="1.0" encoding="utf-8"?>
<!-- Generator: Adobe Illustrator 19.2.1, SVG Export Plug-In . SVG Version: 6.00 Build 0)  -->
<svg version="1.1" id="Layer_1" xmlns="http://www.w3.org/2000/svg" xmlns:xlink="http://www.w3.org/1999/xlink" x="0px" y="0px"
	 viewBox="0 0 100 125" style="enable-background:new 0 0 100 125;" xml:space="preserve">
<path d="M26.1,38c0,1.4-1.1,2.5-2.5,2.5s-2.5-1.1-2.5-2.5s1.1-2.5,2.5-2.5C25,35.6,26.1,36.7,26.1,38z M52.2,19.7
	c-1.4,0-2.5,1.1-2.5,2.5s1.1,2.5,2.5,2.5s2.5-1.1,2.5-2.5C54.6,20.8,53.5,19.7,52.2,19.7z M69.6,32.4c-1.4,0-2.5,1.1-2.5,2.5
	s1.1,2.5,2.5,2.5s2.5-1.1,2.5-2.5S71,32.4,69.6,32.4z M81,14.6c-8.1-9.2-41.7-19.1-61.5,0C5,28.6,9.8,52.5,13.3,64.2
	c2.4,9.2,6.9,24.8,11,27.4c5.9,3.7,13.4,1.4,12.4-1.3c-0.4-1.1-1.5-2.7-2.4-4.5c-1-1.9,0.6-4.1,2.7-3.9c0.5,0.1,1.1,0.1,1.6,0.2
	c1.5,0.2,4.2,1.6,4.2,3.1l-0.1,2.4c0,2.8,1.3,4.8,4.2,4.8l7-0.1c3,0,5.1-2.1,5.1-5v-2.8c0-1.2,0.9-2.2,2.1-2.4
	c0.7-0.1,1.2-0.1,1.9-0.2c1.9-0.2,3.2,1.6,2.5,3.3c-0.3,0.6-0.5,1.2-0.8,1.7c-1.1,2.3,0.4,4.9,3.2,5.2c2.3,0.3,4.9,0.4,8.1,0
	c6-0.7,11-25.6,11-30.8l0,0C91,44,86.3,20.5,81,14.6z M34.8,38.3c0,4.6-3.7,8.3-8.3,8.3s-8.3-3.7-8.3-8.3s3.7-8.3,8.3-8.3
	S34.8,33.7,34.8,38.3z M59.8,25c0,5.7-4.6,10.3-10.3,10.3S39.2,30.7,39.2,25s4.6-10.3,10.3-10.3S59.8,19.4,59.8,25z M80.6,38
	c0,4.7-3.8,8.5-8.5,8.5s-8.5-3.8-8.5-8.5s3.8-8.5,8.5-8.5C76.8,29.5,80.6,33.3,80.6,38z M28.3,60c0-6,9.5,0,21.3,0s21.3-9.4,21.3-3
	s-9.5,14.7-21.3,14.7S28.3,66,28.3,60z M35,69.5c-1.3-7,4.4-11.9,4.5-11.9l-1-1.2c-0.3,0.2-6.5,5.5-5,13.4L35,69.5z M45.3,72.3
	c-1.5-1.3-0.3-8.3,1-12.9L44.8,59c-0.6,2-3.3,12.1-0.5,14.5L45.3,72.3z M53.4,57.5L52,58.3c2,5,4.3,12.9,3,14.7l1.2,1.2
	C58.6,70.9,54.3,59.7,53.4,57.5z M62.3,56.1l-1.4,0.8c2.4,4.1,5.3,10.6,4.2,12.2l1.3,0.9C68.5,66.9,63.3,57.8,62.3,56.1z"/>
</svg>
