<svg id="Objects" xmlns="http://www.w3.org/2000/svg" viewBox="0 0 164.12 199.39"><defs><style>.cls-1{fill:#62dddd;}</style></defs><title>Ugly Birthday boy</title><path d="M713.69,252.3a0.73,0.73,0,0,0-.86-1c-5,1-10.24,2.76-15.42,1.93h-0.08A24.76,24.76,0,0,0,696,250.9c0.78-4.5,2.72-8.71,2.86-13.33,0-.74-0.57-0.92-1.17-0.66-3.86,1.64-7.82,3.28-10.57,6.53a24.25,24.25,0,0,0-2.93-1.07c-1.27-3.46-1.68-7.22-3.25-10.58-0.33-.7-1.23-0.15-1.56.2-2.63,2.79-4.12,6.49-7,9.06l0,0.05q-1,0-2,.09a22.27,22.27,0,0,0-2.37-4.17c-1.27-2.08-2.63-4.11-3.9-6.2-0.6-1-1.83.3-1.92,1a20.35,20.35,0,0,1-4.46,10.75,1.51,1.51,0,0,0-.16.27c-5,.86-9.73,1.81-14,2.3-1.21.14,1-7.5,1.26-8.45,0.52-2.24.93-4.51,1.49-6.75,1.3-5.21,2.69-10.39,3.5-15.71,1.31-8.6,0-17.85-9-21.38-4.37-1.73-9.69-1.38-12.32-6-2.85-4.95,3.12-13.23,3.9-18.24a27.7,27.7,0,0,0-4.49-19.63,21.25,21.25,0,0,0-9.78-7.52A68.34,68.34,0,0,0,612,122.4c-0.47-1-1.66.2-1.87,0.74-2,5.4-4.56,10.63-5.76,16.3a51,51,0,0,0-9.13,1.16c-12.84,2.81-25.34,10.57-32.27,21.9a30,30,0,0,0-4.3,14.08,0.69,0.69,0,0,0,.58.78,28.71,28.71,0,0,0,2.72,10c0.35,0.83,1.51,0,1.75-.47,1.4-2.72,2.84-5.39,4.13-8.15,1.09,1.72,3.63,6.14,4.08,6.7s1.37,0.11,1.75-.47a26.69,26.69,0,0,0,2.79-5.76,26.94,26.94,0,0,0,4.28,5.76c0.61,0.64,1.53-.43,1.72-0.92,0.95-2.33,1.53-4.94,3.1-6.95,1.54,3.27,3.17,6.49,5,9.62,0.35,0.61,1.24.25,1.56-.2a30,30,0,0,0,3.15-5.43,17.29,17.29,0,0,0,2.82,5.17c0.38,0.46,1.16-.09,1.42-0.38,1.17-1.3,2.22-2.68,3.32-4,0.13,2,.16,4,0.17,6a0.68,0.68,0,0,0,.66.8c3.26-.43,4-3.6,6.54-4.8,0.93,2.13.22,4.62-1.12,6.89-2.19,3.71-5.87,5.59-9.87,6.56a0.75,0.75,0,0,0-.08-0.18c-1.52-2.56-2.85-5.23-4.5-7.71a1,1,0,0,0-1.56.2c-1.48,2.12-2.72,4.36-4,6.59-1.11-1.9-2.06-3.88-3.11-5.83-0.41-.76-1.5-0.07-1.75.47A21.55,21.55,0,0,1,581,196.1a25.31,25.31,0,0,1-1.43-4.57c-0.19-.92-1.22-0.46-1.64,0-1.44,1.53-2.79,3.13-4.27,4.61-0.92-2.36-1.67-4.76-2.44-7.17-0.32-1-1.45-.41-1.82.25-0.46.81-2.84,5.54-4.34,3.95s-2.6-3.17-3.88-4.74c-0.6-.74-1.67,0-1.87.74-0.31,1.21-.59,2.42-0.87,3.63a18,18,0,0,0-6.41-5.84,1.28,1.28,0,0,0-1.72.92c-0.86,3-.74,6.06-0.7,9.2a0.74,0.74,0,0,0,.12.62c5.09,11.23,12,22.21,22.66,28.95,10.38,6.59,22.41,5.43,33,.08,5.36-2.7,9.85-6.58,15.63-8.51,7.26-2.43,9.5,15.52,10.61,22.61,1.76,11.27-9.58,22.2-9.76,33.44s8.52,31.47,14.45,21.57c0,0,5.29,4.29,10.33,4.29,1.28,0,2.57,0,3.87.06-0.17,4.64-3.69,18.78,1.95,18.56,3-.12,4-4.9,4.47-7,0.81-3.55.77-7.53,1.68-11.1,5.21,0.32,10.53.66,15.77,0.6-1.25,4.84-7.43,21.38.36,20.18,3.33-.51,4.51-6.38,5.11-8.87a92,92,0,0,0,1.79-11.71,45.72,45.72,0,0,0,13.5-3.35c6.2-2.69,7.56-9.19,8-15.35,0-.41,0-0.82.06-1.23a48,48,0,0,1,6.32-4.91c1.36-.92,3.74-1.79,3.74-3.68a0.69,0.69,0,0,0-.66-0.8c-3.08-.06-7.33-0.49-10.14-2q-0.35-2.11-.84-4.19C706.2,261.55,711.8,258.13,713.69,252.3Z" transform="translate(-549.63 -122.03)"/><path class="cls-1" d="M603.35,149.72c-10-.58-10,12.78.64,10.21C613.31,157.68,606.63,149.6,603.35,149.72Z" transform="translate(-549.63 -122.03)"/><path d="M600.91,150.66c0.62,3,.84,6.43-0.3,9.37-0.63,1.63,1.64,1.2,2.1,0,1.28-3.29,1.1-7.13.41-10.53-0.3-1.46-2.44,0-2.2,1.16h0Z" transform="translate(-549.63 -122.03)"/></svg>