<svg id="Objects" xmlns="http://www.w3.org/2000/svg" viewBox="0 0 202.57 104.08"><defs><style>.cls-1{fill:#62dddd;}</style></defs><title>Wave Dance</title><path d="M297.25,171.49c-1.37-7.37-4.84-4-7,.11-1.63-.83-2.09-2.38-2.85-4-0.42-.91-1.62.18-1.78,0.71a16.42,16.42,0,0,1-2,4.62c-1.21-1.52-2-3.24-3.44-4.58-0.59-.54-1.48.34-1.65,0.88a18.32,18.32,0,0,0-.69,3.37c-0.27,2.31-3-3.32-2.91-3.1a1,1,0,0,0-1.54-.71c-2.56,1.35-4.38,7.5-2.39,9.85,2.81,3.32,11.38,1.21,12,5.7,1.72,12.94-17,10.11-24.63,12.12a1,1,0,0,0-.16.08,19.54,19.54,0,0,0-1.15-4.92c-3.72-9.93-15.9-14-25.21-16.28-3.42-.83-6.89-1.44-10.38-1.94a1.17,1.17,0,0,0,0-.15c0.58-4.94,5.61-10.72,1.62-15.35a0.92,0.92,0,0,0-1.14.15c-4.63,3.32-4.9,9.18-7.14,14a1.24,1.24,0,0,0-.13.56l-2.91-.29c1-5,6.54-26.16-.91-25-3,.45-3.77,6.27-4.17,8.37-0.52,2.69-.91,5.4-1.31,8.11-0.29,2-.23,5.36-1.44,7.09a1.32,1.32,0,0,0-.24.65c-2.51-.31-5.09-0.68-7.66-1,0.32-4.62,2.47-9.18,2-13.83-0.16-1.64-1.77-5.33-4-3.47-2,1.72-2.28,5.17-2.62,7.62-0.43,3.05-.35,6.27-0.95,9.29-1.1,0-2.18,0-3.24.05l-5.07.35c0-6-2.42-11.57-3.74-17.34-0.61-2.68-1.56-8-4.93-8.45s-4,4.44-3.37,6.59c2.15,7,7.42,12.48,3.61,19.78l-12.16.84c-10.62.28-21.36,7.56-26,17.22C128.41,183.33,108,174,104.2,188c-0.73,2.7-.47,5.73-4.19,6.57a6.75,6.75,0,0,0-3.58,1.8c-1.8,1.76-1.75,4.67-1.14,6.9a2.44,2.44,0,0,0,3.76,1.4c1.31-1.06,2.58-3.92,4.3-1.21a6.5,6.5,0,0,0,3.09,2.65c0.62,0.28,1.27-.5,1.45-1a25.71,25.71,0,0,1,1.54-3.73c0.89,1.87,1.91,4.36,4.25,3.79,1-.25,1.85-0.37,2.38-1.33,0.7-1.25.87-1.5,2.11-.18a3,3,0,0,0,5-.27c1.71-2.51,1-5.73-.23-8.29-1.42-2.91-6.25-1.93-8.74-1.66-1.56.16-1.19,0.58-1.22-1.57-0.06-3.72,3.94-3,5.72-2.6a15.15,15.15,0,0,1,6,2.88c2.83,2.11,6.44,4.61,8.89,3.82a21.24,21.24,0,0,0,.92,10.19c3.12,9,13.78,14.32,22.12,17.36a79.34,79.34,0,0,0,18,4.06,0.73,0.73,0,0,0,.14.22c3,3.12,3.71,6.41,4.21,10.51,0.33,2.65.82,6,2.62,8.09,3.2,3.78,6.8,2.92,9.12-1.11,1.07-1.86.79-3.94,0.31-5.9-0.15-.62-1-7-0.07-5.69,0.59,0.81,1,1.77,1.55,2.62,1.48,2.3,4.26,2.72,5.64.32,1.15-2,4.24-5,5.3-1.38,0.53,1.81,0,4.08-.27,5.9-0.21,1.63-.89,5.72,1.72,6,9.78,0.92,7.33-13.74,7.67-20,2.65-.3,5.31-0.64,8-1,10.5-1.4,21-3,29.29-10.14a24.76,24.76,0,0,0,7.86-12.27h0c8.2-.18,20.06,2.58,26.62-4,5.12-5.13,5.7-12.57,6.44-19.44C295.69,179.58,298.29,177.13,297.25,171.49Z" transform="translate(-94.91 -144.74)"/><path class="cls-1" d="M156.08,185.49c-9.51,4.3-11.66,15-4.3,22.09,7.06,6.44,16.57,7.06,25.77,8,13.19,1.23,26.39,1.23,39.58,1.23,8.59,0,21.79-2.45,27.92-9.2,16.26-17.49-21.17-22.42-29.76-23-21.4-1.05-40.11-.24-56.15,0Z" transform="translate(-94.91 -144.74)"/><path d="M168.07,183.86a20.45,20.45,0,0,0-4.54,0,1.1,1.1,0,0,0-.57.34c-0.06-.23-0.1-0.45-0.18-0.68-0.36-1.05-2.09.46-1.75,1.42,0.56,1.64.3,3.46,1,5.06,0.85,1.92,3.41,1.44,5,1a1.53,1.53,0,0,0,1-1.25,28.81,28.81,0,0,0,.61-5.22A0.66,0.66,0,0,0,168.07,183.86Z" transform="translate(-94.91 -144.74)"/><path d="M182.4,184.2a11.65,11.65,0,0,0-4.76-.31h0a1.43,1.43,0,0,0-1.34,1.24V191a0.67,0.67,0,0,0,.41.73c1.84,0.48,3.64.23,4.73-1.47,1-1.5,1-3.35,1.33-5A0.75,0.75,0,0,0,182.4,184.2Z" transform="translate(-94.91 -144.74)"/><path d="M197.52,183.55a39.82,39.82,0,0,0-4.12,0c-0.44-.61-1.77.14-1.77,1v5.83a0.66,0.66,0,0,0,.63.77,15.64,15.64,0,0,0,4.23-.34,1.48,1.48,0,0,0,1-1.25,14.31,14.31,0,0,1,.56-5A0.71,0.71,0,0,0,197.52,183.55Z" transform="translate(-94.91 -144.74)"/><path d="M214.31,183.58c-1.35-.36-2.73-0.93-4.14-0.62-0.43.1-.28-0.34-0.43,0.1-0.55-.35-2.15.22-2.14,2.31,0,1.77.3,3.51,0.3,5.28a0.67,0.67,0,0,0,.41.73c1.89,0.41,4,.47,5.14-1.39,1-1.61.77-3.65,1.22-5.42A0.75,0.75,0,0,0,214.31,183.58Z" transform="translate(-94.91 -144.74)"/><path d="M229.75,186.83a0.62,0.62,0,0,0-.62-0.52c-1-.1-1.76-0.82-2.76-0.92a1.11,1.11,0,0,0-.93.5,0.67,0.67,0,0,0-.85-0.46,1.52,1.52,0,0,0-1,1.25,36.39,36.39,0,0,0-.61,5.52,0.67,0.67,0,0,0,.41.73c1.68,0.53,3.55.6,4.9-.71S229.88,188.75,229.75,186.83Z" transform="translate(-94.91 -144.74)"/><path class="cls-1" d="M155.85,176.91c-2.14,1.11-2.9,3.25-.71,4.78,4.57,3.19,6.46-5.25.71-4.78h0Z" transform="translate(-94.91 -144.74)"/><path class="cls-1" d="M230.86,178.52c-2.14,1.11-2.9,3.25-.71,4.78,4.57,3.19,6.46-5.25.71-4.78h0Z" transform="translate(-94.91 -144.74)"/></svg>