<?xml version="1.0" encoding="utf-8"?>
<!-- Generator: Adobe Illustrator 19.2.1, SVG Export Plug-In . SVG Version: 6.00 Build 0)  -->
<svg version="1.1" id="Layer_1" xmlns="http://www.w3.org/2000/svg" xmlns:xlink="http://www.w3.org/1999/xlink" x="0px" y="0px"
	 viewBox="0 0 100 125" style="enable-background:new 0 0 100 125;" xml:space="preserve">
<path d="M76.2,67.4C76,61.2,75,52.6,74.6,51c-0.5-1.8-3.7-10.8-4.8-13.6L66,28.6c2.6-8.8,4.2-14.1,4.6-15.5s0.4-2.9,0-4.2
	c-0.5-1.6-1.7-2.8-3.4-3.5C66.6,5.1,65.8,5,65.1,5c-2.4,0-4.6,1.5-5.6,3.8c-0.2,0.5-0.7,1.9-1.5,4.2c-0.3-0.1-0.6-0.3-0.8-0.4
	c-1-0.3-2.2-0.4-3.5,0c-0.1,0-0.2,0.1-0.3,0.1c-2.3,0.8-3.6,2.8-3.6,5.2c0,0.1,0,0.2,0,0.3c0,0.1,0,0.2,0,0.3c0,0.2,0,0.4,0.1,0.6
	c0,0.2,0.1,0.4,0.1,0.6c0,0.1,0,0.1,0,0.2l0,0c0,0.1,0,0.1,0.1,0.2l0,0c0,0.1,0,0.1,0.1,0.2l0,0c0,0.1,0,0.2,0.1,0.3l0,0
	c0.4,1.8,1.3,5,2.2,8.7c-1.8,5.3-3.5,10.6-4.7,14c-0.3,1-0.6,1.8-0.8,2.5c-0.3-1-0.6-1.9-1-2.8c-1.1-3-3.3-4.7-6.2-4.7
	c-1,0-2.1,0.2-3.2,0.7c-1.9,0.8-3.3,2.2-4.1,3.9c-0.6,1.5-0.7,3.2-0.1,4.8c-0.5-0.2-1.1-0.2-1.7-0.2c-0.9,0-1.9,0.2-2.8,0.6
	c-1.7,0.7-3,1.9-3.7,3.5c-0.5,1.3-0.6,2.7-0.2,4c0,1.5,0,1.1,0,1.5v12.2c0,6.8,2.9,13.3,7.9,18.1c5,4.8,11.7,7.5,18.7,7.5
	c17.6,0,25.6-13.2,25.6-26.2C76.2,68.6,76.2,67.5,76.2,67.4z M61.6,9.7c0.6-1.4,2-2.4,3.4-2.4c0.4,0,0.9,0.1,1.3,0.3
	c3,1.3,2.3,4.3,2.1,4.9c-0.4,1.3-1.7,5.7-3.8,12.9c0-0.1-0.1-0.2-0.1-0.3c-2.3-5.5-3.6-8.5-3.8-9c0-0.1-0.1-0.2-0.1-0.3v-0.1
	c0-0.1-0.1-0.2-0.1-0.3l-0.1-0.1l-0.1-0.1c-0.1-0.1-0.2-0.3-0.3-0.4C61.1,11.2,61.5,10,61.6,9.7z M48.6,48.3
	c0.1-0.2,0.5-1.4,1.4-4.2c0.9-2.7,2.2-6.5,3.6-10.6c1.7,6.9,3.5,14.1,3.9,15.9v0.1v0.1c0,0.1,0,0.2,0.1,0.2l0,0c0,0.1,0,0.1,0.1,0.2
	l0,0c0,0.1,0,0.1,0.1,0.1l0,0l0.1,0.1l0,0l0.1,0.1l0,0l0.1,0.1l0,0c0,0,0.1,0,0.1,0.1l0,0h0.1l0,0c0.1,0,0.1,0,0.2,0l0,0l0,0
	c0.1,0,0.2,0,0.3,0c0.6-0.2,1.1-0.8,0.9-1.4c0-0.2-3.8-15.2-5.9-24.1l0,0c-1-3-1.3-4.9-1.6-5.8l0,0c0-0.1-0.1-0.1-0.1-0.2v-0.1
	c-0.1-0.3-0.1-0.7-0.2-1.1c0-0.9,0.3-2,1.4-2.7c0.2-0.1,0.4-0.2,0.6-0.3c0.1,0,0.2-0.1,0.4-0.1h0.1c0.1,0,0.2,0,0.3-0.1h0.1
	c0.1,0,0.2,0,0.3,0c0,0,0,0,0.1,0c0.3,0,0.6,0,0.9,0.1c0,0,0,0,0.1,0s0.1,0,0.2,0.1c0,0,0.1,0,0.1,0.1c0.1,0,0.1,0,0.2,0.1
	c0.1,0,0.1,0.1,0.2,0.1H57c0.1,0,0.1,0.1,0.2,0.1c0.6,0.4,1.1,1,1.3,1.6c0.1,0.1,0.2,0.4,0.3,0.8l0,0l0,0c1.3,3.1,5.8,13.7,7.8,18.5
	l0.9,2.1c0.1,0.1,0.1,0.3,0.2,0.5c0,0.1,0,0.1,0.1,0.2c0.3,0.8,0.7,1.8,1.1,3c1.3,3.6,3,8.4,3.3,9.6c0.3,1.1,0.8,5.4,1.2,9.9l0,0
	c-0.3-0.3-0.6-0.6-1-0.9c0,0,0,0-0.1-0.1s-0.1-0.1-0.2-0.2L72,60.1c-0.1,0-0.1-0.1-0.2-0.1s-0.1-0.1-0.2-0.1s-0.1-0.1-0.2-0.1
	s-0.1-0.1-0.2-0.1s-0.1-0.1-0.2-0.1s-0.2-0.1-0.3-0.1c-0.1,0-0.1,0-0.2-0.1s-0.3-0.1-0.5-0.2c-0.1,0-0.1,0-0.2-0.1
	c-0.1,0-0.2-0.1-0.3-0.1c-0.1,0-0.1,0-0.2,0s-0.2,0-0.3-0.1c-0.1,0-0.1,0-0.2,0s-0.2,0-0.4-0.1c-0.1,0-0.1,0-0.2,0s-0.3,0-0.4,0
	s-0.1,0-0.2,0c-0.2,0-0.4,0-0.6,0c-7.4,0-12.9-1.5-17-3.3c-0.1-0.2-0.1-0.4-0.2-0.6c-0.7-1.8-1.3-3.8-1.9-5.7
	C48.2,49.1,48.4,48.8,48.6,48.3z M34.7,43.9c0.5-1.2,1.5-2.1,2.8-2.7c0.8-0.3,1.6-0.5,2.3-0.5c1.9,0,3.3,1.1,4,3.1
	c0.6,1.7,1.2,3.6,1.8,5.5c0.5,1.6,1,3.1,1.5,4.7c-2.1-1.1-3.8-2.3-5.2-3.3c-2.1-1.4-3.6-2.5-5-2.5c-0.6,0-1.2,0.1-1.8,0.2
	c-0.2-0.3-0.3-0.7-0.5-1C34.3,46.4,34.3,45.1,34.7,43.9z M26.4,52.6c0.4-1,1.3-1.8,2.4-2.3c0.7-0.3,1.4-0.4,2-0.4
	c0.5,0,1,0.1,1.4,0.3c-1.2,1.2-1.9,2.8-1.9,4.3s1.2,7.1,6.4,12.3c0.1,0.1,0.1,0.1,0.2,0.2c-0.3,0.2-0.7,0.4-1.1,0.6
	c-0.4,0.1-0.7,0.2-1,0.2c-1.2,0-2.5-1.2-4.4-4.1c-1.4-2.2-2-3.5-3-5.9c-0.3-0.6-0.6-1.3-0.9-2.1C26,54.7,26,53.6,26.4,52.6z
	 M68.5,85.1c-4.1,4.9-10.2,7.6-17.7,7.6c-6.4,0-12.8-2.4-17.3-6.9C28.8,81.4,26,75.6,26,69.4v-8.3c0.7,1.3,1.4,2.6,2.2,3.8
	c2.1,3.1,4.1,5.1,6.7,5.1l0,0c0.4,0,1.1-0.1,1.8-0.3c0.8-0.3,1.5-0.7,2-1.1c2.6,2.1,5.6,3.9,9.1,5.2c5.3,2,11.6,3,18.7,3
	c0.6,0,1.1-0.5,1.1-1.1s-0.5-1.1-1.1-1.1c-12.3,0-22.1-3.2-28.1-9.3c-4.7-4.7-5.7-9.7-5.7-10.7c0-1.9,1.4-3.8,4.5-3.8
	c0.7,0,2.1,1,3.7,2.1c4.4,3,11.8,8.1,25.3,8.4l0,0h1.2c4.9,0,6.8,4,6.8,6.6v1C74,75.3,72,80.9,68.5,85.1z"/>
</svg>
