  0
SECTION
  2
HEADER
  9
$ACADVER
  1
AC1024
  9
$ACADMAINTVER
 70
     6
  9
$DWGCODEPAGE
  3
UNDEFINED
  9
$INSBASE
 10
0.0
 20
0.0
 30
0.0
  9
$EXTMIN
 10
1.000000000000000E+20
 20
1.000000000000000E+20
 30
1.000000000000000E+20
  9
$EXTMAX
 10
-1.000000000000000E+20
 20
-1.000000000000000E+20
 30
-1.000000000000000E+20
  9
$LIMMIN
 10
0.0
 20
0.0
  9
$LIMMAX
 10
12.0
 20
9.0
  9
$ORTHOMODE
 70
     0
  9
$REGENMODE
 70
     1
  9
$FILLMODE
 70
     1
  9
$QTEXTMODE
 70
     0
  9
$MIRRTEXT
 70
     1
  9
$LTSCALE
 40
1.0
  9
$ATTMODE
 70
     1
  9
$TEXTSIZE
 40
0.2
  9
$TRACEWID
 40
0.05
  9
$TEXTSTYLE
  7
Standard
  9
$CLAYER
  8
0
  9
$CELTYPE
  6
ByLayer
  9
$CECOLOR
 62
   256
  9
$CELTSCALE
 40
1.0
  9
$DISPSILH
 70
     0
  9
$DIMSCALE
 40
1.0
  9
$DIMASZ
 40
0.18
  9
$DIMEXO
 40
0.0625
  9
$DIMDLI
 40
0.38
  9
$DIMRND
 40
0.0
  9
$DIMDLE
 40
0.0
  9
$DIMEXE
 40
0.18
  9
$DIMTP
 40
0.0
  9
$DIMTM
 40
0.0
  9
$DIMTXT
 40
0.18
  9
$DIMCEN
 40
0.09
  9
$DIMTSZ
 40
0.0
  9
$DIMTOL
 70
     0
  9
$DIMLIM
 70
     0
  9
$DIMTIH
 70
     1
  9
$DIMTOH
 70
     1
  9
$DIMSE1
 70
     0
  9
$DIMSE2
 70
     0
  9
$DIMTAD
 70
     0
  9
$DIMZIN
 70
     0
  9
$DIMBLK
  1

  9
$DIMASO
 70
     1
  9
$DIMSHO
 70
     1
  9
$DIMPOST
  1

  9
$DIMAPOST
  1

  9
$DIMALT
 70
     0
  9
$DIMALTD
 70
     2
  9
$DIMALTF
 40
25.4
  9
$DIMLFAC
 40
1.0
  9
$DIMTOFL
 70
     0
  9
$DIMTVP
 40
0.0
  9
$DIMTIX
 70
     0
  9
$DIMSOXD
 70
     0
  9
$DIMSAH
 70
     0
  9
$DIMBLK1
  1

  9
$DIMBLK2
  1

  9
$DIMSTYLE
  2
Standard
  9
$DIMCLRD
 70
     0
  9
$DIMCLRE
 70
     0
  9
$DIMCLRT
 70
     0
  9
$DIMTFAC
 40
1.0
  9
$DIMGAP
 40
0.09
  9
$DIMJUST
 70
     0
  9
$DIMSD1
 70
     0
  9
$DIMSD2
 70
     0
  9
$DIMTOLJ
 70
     1
  9
$DIMTZIN
 70
     0
  9
$DIMALTZ
 70
     0
  9
$DIMALTTZ
 70
     0
  9
$DIMUPT
 70
     0
  9
$DIMDEC
 70
     4
  9
$DIMTDEC
 70
     4
  9
$DIMALTU
 70
     2
  9
$DIMALTTD
 70
     2
  9
$DIMTXSTY
  7
Standard
  9
$DIMAUNIT
 70
     0
  9
$DIMADEC
 70
     0
  9
$DIMALTRND
 40
0.0
  9
$DIMAZIN
 70
     0
  9
$DIMDSEP
 70
    46
  9
$DIMATFIT
 70
     3
  9
$DIMFRAC
 70
     0
  9
$DIMLDRBLK
  1

  9
$DIMLUNIT
 70
     2
  9
$DIMLWD
 70
    -2
  9
$DIMLWE
 70
    -2
  9
$DIMTMOVE
 70
     0
  9
$DIMFXL
 40
1.0
  9
$DIMFXLON
 70
     0
  9
$DIMJOGANG
 40
0.7853981633974483
  9
$DIMTFILL
 70
     0
  9
$DIMTFILLCLR
 70
     0
  9
$DIMARCSYM
 70
     0
  9
$DIMLTYPE
  6

  9
$DIMLTEX1
  6

  9
$DIMLTEX2
  6

  9
$DIMTXTDIRECTION
 70
     0
  9
$LUNITS
 70
     2
  9
$LUPREC
 70
     4
  9
$SKETCHINC
 40
0.1
  9
$FILLETRAD
 40
0.5
  9
$AUNITS
 70
     0
  9
$AUPREC
 70
     0
  9
$MENU
  1
.
  9
$ELEVATION
 40
0.0
  9
$PELEVATION
 40
0.0
  9
$THICKNESS
 40
0.0
  9
$LIMCHECK
 70
     0
  9
$CHAMFERA
 40
0.5
  9
$CHAMFERB
 40
0.5
  9
$CHAMFERC
 40
1.0
  9
$CHAMFERD
 40
0.0
  9
$SKPOLY
 70
     0
  9
$TDCREATE
 40
2457525.589629618
  9
$TDUCREATE
 40
2457525.797962963
  9
$TDUPDATE
 40
2457525.589629618
  9
$TDUUPDATE
 40
2457525.797962963
  9
$TDINDWG
 40
0.0000000116
  9
$TDUSRTIMER
 40
0.0000000116
  9
$USRTIMER
 70
     1
  9
$ANGBASE
 50
0.0
  9
$ANGDIR
 70
     0
  9
$PDMODE
 70
     0
  9
$PDSIZE
 40
0.0
  9
$PLINEWID
 40
0.0
  9
$SPLFRAME
 70
     0
  9
$SPLINETYPE
 70
     6
  9
$SPLINESEGS
 70
     8
  9
$HANDSEED
  5
4A
  9
$SURFTAB1
 70
     6
  9
$SURFTAB2
 70
     6
  9
$SURFTYPE
 70
     6
  9
$SURFU
 70
     6
  9
$SURFV
 70
     6
  9
$UCSBASE
  2

  9
$UCSNAME
  2

  9
$UCSORG
 10
0.0
 20
0.0
 30
0.0
  9
$UCSXDIR
 10
1.0
 20
0.0
 30
0.0
  9
$UCSYDIR
 10
0.0
 20
1.0
 30
0.0
  9
$UCSORTHOREF
  2

  9
$UCSORTHOVIEW
 70
     0
  9
$UCSORGTOP
 10
0.0
 20
0.0
 30
0.0
  9
$UCSORGBOTTOM
 10
0.0
 20
0.0
 30
0.0
  9
$UCSORGLEFT
 10
0.0
 20
0.0
 30
0.0
  9
$UCSORGRIGHT
 10
0.0
 20
0.0
 30
0.0
  9
$UCSORGFRONT
 10
0.0
 20
0.0
 30
0.0
  9
$UCSORGBACK
 10
0.0
 20
0.0
 30
0.0
  9
$PUCSBASE
  2

  9
$PUCSNAME
  2

  9
$PUCSORG
 10
0.0
 20
0.0
 30
0.0
  9
$PUCSXDIR
 10
1.0
 20
0.0
 30
0.0
  9
$PUCSYDIR
 10
0.0
 20
1.0
 30
0.0
  9
$PUCSORTHOREF
  2

  9
$PUCSORTHOVIEW
 70
     0
  9
$PUCSORGTOP
 10
0.0
 20
0.0
 30
0.0
  9
$PUCSORGBOTTOM
 10
0.0
 20
0.0
 30
0.0
  9
$PUCSORGLEFT
 10
0.0
 20
0.0
 30
0.0
  9
$PUCSORGRIGHT
 10
0.0
 20
0.0
 30
0.0
  9
$PUCSORGFRONT
 10
0.0
 20
0.0
 30
0.0
  9
$PUCSORGBACK
 10
0.0
 20
0.0
 30
0.0
  9
$USERI1
 70
     0
  9
$USERI2
 70
     0
  9
$USERI3
 70
     0
  9
$USERI4
 70
     0
  9
$USERI5
 70
     0
  9
$USERR1
 40
0.0
  9
$USERR2
 40
0.0
  9
$USERR3
 40
0.0
  9
$USERR4
 40
0.0
  9
$USERR5
 40
0.0
  9
$WORLDVIEW
 70
     1
  9
$SHADEDGE
 70
     3
  9
$SHADEDIF
 70
    70
  9
$TILEMODE
 70
     1
  9
$MAXACTVP
 70
    64
  9
$PINSBASE
 10
0.0
 20
0.0
 30
0.0
  9
$PLIMCHECK
 70
     0
  9
$PEXTMIN
 10
1.000000000000000E+20
 20
1.000000000000000E+20
 30
1.000000000000000E+20
  9
$PEXTMAX
 10
-1.000000000000000E+20
 20
-1.000000000000000E+20
 30
-1.000000000000000E+20
  9
$PLIMMIN
 10
0.0
 20
0.0
  9
$PLIMMAX
 10
12.0
 20
9.0
  9
$UNITMODE
 70
     0
  9
$VISRETAIN
 70
     1
  9
$PLINEGEN
 70
     0
  9
$PSLTSCALE
 70
     1
  9
$TREEDEPTH
 70
  3020
  9
$CMLSTYLE
  2
Standard
  9
$CMLJUST
 70
     0
  9
$CMLSCALE
 40
1.0
  9
$PROXYGRAPHICS
 70
     1
  9
$MEASUREMENT
 70
     0
  9
$CELWEIGHT
370
    -1
  9
$ENDCAPS
280
     0
  9
$JOINSTYLE
280
     0
  9
$LWDISPLAY
290
     1
  9
$INSUNITS
 70
     1
  9
$HYPERLINKBASE
  1

  9
$STYLESHEET
  1

  9
$XEDIT
290
     1
  9
$CEPSNTYPE
380
     0
  9
$PSTYLEMODE
290
     1
  9
$FINGERPRINTGUID
  2
{23CBAA65-FD4F-DF5E-74A7-A09F0E6767FC}
  9
$VERSIONGUID
  2
{FAEB1C32-E019-11D5-929B-00C0DF256EC4}
  9
$EXTNAMES
290
     1
  9
$PSVPSCALE
 40
0.0
  9
$OLESTARTUP
290
     0
  9
$SORTENTS
280
   127
  9
$INDEXCTL
280
     0
  9
$HIDETEXT
280
     1
  9
$XCLIPFRAME
280
     2
  9
$HALOGAP
280
     0
  9
$OBSCOLOR
 70
   257
  9
$OBSLTYPE
280
     0
  9
$INTERSECTIONDISPLAY
280
     0
  9
$INTERSECTIONCOLOR
 70
   257
  9
$DIMASSOC
280
     2
  9
$PROJECTNAME
  1

  9
$CAMERADISPLAY
290
     0
  9
$LENSLENGTH
 40
50.0
  9
$CAMERAHEIGHT
 40
0.0
  9
$STEPSPERSEC
 40
2.0
  9
$STEPSIZE
 40
6.0
  9
$3DDWFPREC
 40
2.0
  9
$PSOLWIDTH
 40
0.25
  9
$PSOLHEIGHT
 40
4.0
  9
$LOFTANG1
 40
1.570796326794897
  9
$LOFTANG2
 40
1.570796326794897
  9
$LOFTMAG1
 40
0.0
  9
$LOFTMAG2
 40
0.0
  9
$LOFTPARAM
 70
     7
  9
$LOFTNORMALS
280
     1
  9
$LATITUDE
 40
37.795
  9
$LONGITUDE
 40
-122.394
  9
$NORTHDIRECTION
 40
0.0
  9
$TIMEZONE
 70
 -8000
  9
$LIGHTGLYPHDISPLAY
280
     1
  9
$TILEMODELIGHTSYNCH
280
     1
  9
$CMATERIAL
347
3C
  9
$SOLIDHIST
280
     1
  9
$SHOWHIST
280
     1
  9
$DWFFRAME
280
     2
  9
$DGNFRAME
280
     2
  9
$REALWORLDSCALE
290
     1
  9
$INTERFERECOLOR
 62
   256
  9
$CSHADOW
280
     0
  9
$SHADOWPLANELOCATION
 40
0.0
  0
ENDSEC
  0
SECTION
  2
CLASSES
  0
CLASS
  1
ACDBDICTIONARYWDFLT
  2
AcDbDictionaryWithDefault
  3
ObjectDBX Classes
 90
        0
 91
        4
280
     0
281
     0
  0
CLASS
  1
VISUALSTYLE
  2
AcDbVisualStyle
  3
ObjectDBX Classes
 90
     4095
 91
        4
280
     0
281
     0
  0
CLASS
  1
MATERIAL
  2
AcDbMaterial
  3
ObjectDBX Classes
 90
     1153
 91
        4
280
     0
281
     0
  0
CLASS
  1
SUN
  2
AcDbSun
  3
SCENEOE
 90
     1024
 91
        4
280
     0
281
     0
  0
ENDSEC
  0
SECTION
  2
TABLES
  0
TABLE
  2
VPORT
  5
8
330
0
100
AcDbSymbolTable
 70
     1
  0
VPORT
  5
29
330
8
100
AcDbSymbolTableRecord
100
AcDbViewportTableRecord
  2
*Active
 70
     0
 10
0.0
 20
0.0
 11
1.0
 21
1.0
 12
0.0
 22
0.0
 13
0.0
 23
0.0
 14
0.5
 24
0.5
 15
0.5
 25
0.5
 16
0.0
 26
0.0
 36
1.0
 17
50.0
 27
62.5
 37
0.0
 40
125.0
 41
0.8
 42
50.0
 43
0.0
 44
0.0
 50
0.0
 51
0.0
 71
     0
 72
   100
 73
     1
 74
     3
 75
     0
 76
     0
 77
     0
 78
     0
281
     0
 65
     1
110
0.0
120
0.0
130
0.0
111
1.0
121
0.0
131
0.0
112
0.0
122
1.0
132
0.0
 79
     0
146
0.0
 60
     3
 61
     5
292
     1
282
     1
141
0.0
142
0.0
 63
   250
361
3F
  0
ENDTAB
  0
TABLE
  2
LTYPE
  5
5
330
0
100
AcDbSymbolTable
 70
     1
  0
LTYPE
  5
14
330
5
100
AcDbSymbolTableRecord
100
AcDbLinetypeTableRecord
  2
ByBlock
 70
     0
  3

 72
    65
 73
     0
 40
0.0
  0
LTYPE
  5
15
330
5
100
AcDbSymbolTableRecord
100
AcDbLinetypeTableRecord
  2
ByLayer
 70
     0
  3

 72
    65
 73
     0
 40
0.0
  0
LTYPE
  5
16
330
5
100
AcDbSymbolTableRecord
100
AcDbLinetypeTableRecord
  2
Continuous
 70
     0
  3
Solid line
 72
    65
 73
     0
 40
0.0
  0
ENDTAB
  0
TABLE
  2
LAYER
  5
2
330
0
100
AcDbSymbolTable
 70
     2
  0
LAYER
  5
10
330
2
100
AcDbSymbolTableRecord
100
AcDbLayerTableRecord
  2
0
 70
     0
 62
     7
  6
Continuous
370
    -3
390
F
347
3E
  0
LAYER
  5
40
330
2
100
AcDbSymbolTableRecord
100
AcDbLayerTableRecord
  2
Layer 1
 70
     0
 62
     7
  6
Continuous
370
    -3
390
F
347
3E
  0
ENDTAB
  0
TABLE
  2
STYLE
  5
3
330
0
100
AcDbSymbolTable
 70
     1
  0
STYLE
  5
11
330
3
100
AcDbSymbolTableRecord
100
AcDbTextStyleTableRecord
  2
Standard
 70
     0
 40
0.0
 41
1.0
 50
0.0
 71
     0
 42
0.2
  3
txt
  4

  0
ENDTAB
  0
TABLE
  2
VIEW
  5
6
330
0
100
AcDbSymbolTable
 70
     0
  0
ENDTAB
  0
TABLE
  2
UCS
  5
7
330
0
100
AcDbSymbolTable
 70
     0
  0
ENDTAB
  0
TABLE
  2
APPID
  5
9
330
0
100
AcDbSymbolTable
 70
     1
  0
APPID
  5
12
330
9
100
AcDbSymbolTableRecord
100
AcDbRegAppTableRecord
  2
ACAD
 70
     0
  0
ENDTAB
  0
TABLE
  2
DIMSTYLE
  5
A
330
0
100
AcDbSymbolTable
 70
     1
100
AcDbDimStyleTable
  0
DIMSTYLE
105
27
330
A
100
AcDbSymbolTableRecord
100
AcDbDimStyleTableRecord
  2
Standard
 70
     0
178
     0
340
11
  0
ENDTAB
  0
TABLE
  2
BLOCK_RECORD
  5
1
330
0
100
AcDbSymbolTable
 70
     1
  0
BLOCK_RECORD
  5
1F
330
1
100
AcDbSymbolTableRecord
100
AcDbBlockTableRecord
  2
*Model_Space
340
22
 70
     0
280
     1
281
     0
  0
BLOCK_RECORD
  5
1B
330
1
100
AcDbSymbolTableRecord
100
AcDbBlockTableRecord
  2
*Paper_Space
340
1E
 70
     0
280
     1
281
     0
  0
BLOCK_RECORD
  5
23
330
1
100
AcDbSymbolTableRecord
100
AcDbBlockTableRecord
  2
*Paper_Space0
340
26
 70
     0
280
     1
281
     0
  0
ENDTAB
  0
ENDSEC
  0
SECTION
  2
BLOCKS
  0
BLOCK
  5
20
330
1F
100
AcDbEntity
  8
0
100
AcDbBlockBegin
  2
*Model_Space
 70
     0
 10
0.0
 20
0.0
 30
0.0
  3
*Model_Space
  1

  0
ENDBLK
  5
21
330
1F
100
AcDbEntity
  8
0
100
AcDbBlockEnd
  0
BLOCK
  5
1C
330
1B
100
AcDbEntity
 67
     1
  8
0
100
AcDbBlockBegin
  2
*Paper_Space
 70
     0
 10
0.0
 20
0.0
 30
0.0
  3
*Paper_Space
  1

  0
ENDBLK
  5
1D
330
1B
100
AcDbEntity
 67
     1
  8
0
100
AcDbBlockEnd
  0
BLOCK
  5
24
330
23
100
AcDbEntity
  8
0
100
AcDbBlockBegin
  2
*Paper_Space0
 70
     0
 10
0.0
 20
0.0
 30
0.0
  3
*Paper_Space0
  1

  0
ENDBLK
  5
25
330
23
100
AcDbEntity
  8
0
100
AcDbBlockEnd
  0
ENDSEC
  0
SECTION
  2
ENTITIES
  0
SPLINE
  5
41
330
1F
100
AcDbEntity
  8
Layer 1
370
     0
100
AcDbSpline
210
0.0
220
0.0
230
1.0
 70
    11
 71
     3
 72
   134
 73
   130
 74
     0
 42
0.0000000001
 43
0.0000000001
 12
1.0
 22
0.0
 32
0.0
 13
1.0
 23
0.0
 33
0.0
 40
0.0
 40
0.0
 40
0.0
 40
0.0
 40
1.0
 40
1.0
 40
1.0
 40
2.0
 40
2.0
 40
2.0
 40
3.0
 40
3.0
 40
3.0
 40
4.0
 40
4.0
 40
4.0
 40
5.0
 40
5.0
 40
5.0
 40
6.0
 40
6.0
 40
6.0
 40
7.0
 40
7.0
 40
7.0
 40
8.0
 40
8.0
 40
8.0
 40
9.0
 40
9.0
 40
9.0
 40
10.0
 40
10.0
 40
10.0
 40
11.0
 40
11.0
 40
11.0
 40
12.0
 40
12.0
 40
12.0
 40
13.0
 40
13.0
 40
13.0
 40
14.0
 40
14.0
 40
14.0
 40
15.0
 40
15.0
 40
15.0
 40
16.0
 40
16.0
 40
16.0
 40
17.0
 40
17.0
 40
17.0
 40
18.0
 40
18.0
 40
18.0
 40
19.0
 40
19.0
 40
19.0
 40
20.0
 40
20.0
 40
20.0
 40
21.0
 40
21.0
 40
21.0
 40
22.0
 40
22.0
 40
22.0
 40
23.0
 40
23.0
 40
23.0
 40
24.0
 40
24.0
 40
24.0
 40
25.0
 40
25.0
 40
25.0
 40
26.0
 40
26.0
 40
26.0
 40
27.0
 40
27.0
 40
27.0
 40
28.0
 40
28.0
 40
28.0
 40
29.0
 40
29.0
 40
29.0
 40
30.0
 40
30.0
 40
30.0
 40
31.0
 40
31.0
 40
31.0
 40
32.0
 40
32.0
 40
32.0
 40
33.0
 40
33.0
 40
33.0
 40
34.0
 40
34.0
 40
34.0
 40
35.0
 40
35.0
 40
35.0
 40
36.0
 40
36.0
 40
36.0
 40
37.0
 40
37.0
 40
37.0
 40
38.0
 40
38.0
 40
38.0
 40
39.0
 40
39.0
 40
39.0
 40
40.0
 40
40.0
 40
40.0
 40
41.0
 40
41.0
 40
41.0
 40
42.0
 40
42.0
 40
42.0
 40
43.0
 40
43.0
 40
43.0
 40
43.0
 10
76.19999694824219
 20
57.59999847412109
 30
0.0
 10
76.0
 20
63.79999923706055
 30
0.0
 10
75.0
 20
72.39999771118164
 30
0.0
 10
74.5999984741211
 20
74.0
 30
0.0
 10
74.0999984741211
 20
75.79999923706055
 30
0.0
 10
70.9000015258789
 20
84.79999923706055
 30
0.0
 10
69.79999542236328
 20
87.5999984741211
 30
0.0
 10
69.79999542236328
 20
87.5999984741211
 30
0.0
 10
66.0
 20
96.39999961853027
 30
0.0
 10
66.0
 20
96.39999961853027
 30
0.0
 10
68.5999984741211
 20
105.2000007629395
 30
0.0
 10
70.19999694824219
 20
110.5
 30
0.0
 10
70.5999984741211
 20
111.8999996185303
 30
0.0
 10
71.0
 20
113.2999992370605
 30
0.0
 10
71.0
 20
114.7999992370605
 30
0.0
 10
70.5999984741211
 20
116.0999994277954
 30
0.0
 10
70.0999984741211
 20
117.699999332428
 30
0.0
 10
68.9000015258789
 20
118.8999996185303
 30
0.0
 10
67.19999694824219
 20
119.5999994277954
 30
0.0
 10
66.5999984741211
 20
119.9000000953674
 30
0.0
 10
65.80000305175781
 20
120.0
 30
0.0
 10
65.0999984741211
 20
120.0
 30
0.0
 10
62.69999694824219
 20
120.0
 30
0.0
 10
60.5
 20
118.5
 30
0.0
 10
59.5
 20
116.1999998092651
 30
0.0
 10
59.29999923706055
 20
115.6999998092651
 30
0.0
 10
58.79999923706055
 20
114.3000001907349
 30
0.0
 10
58.0
 20
112.0
 30
0.0
 10
57.70000076293945
 20
112.1000003814697
 30
0.0
 10
57.40000152587891
 20
112.3000001907349
 30
0.0
 10
57.20000076293945
 20
112.3999996185303
 30
0.0
 10
56.20000076293945
 20
112.6999998092651
 30
0.0
 10
55.0
 20
112.7999992370605
 30
0.0
 10
53.70000076293945
 20
112.3999996185303
 30
0.0
 10
53.60000228881836
 20
112.3999996185303
 30
0.0
 10
53.5
 20
112.2999992370605
 30
0.0
 10
53.40000152587891
 20
112.2999992370605
 30
0.0
 10
51.10000228881836
 20
111.4999990463257
 30
0.0
 10
49.80000305175781
 20
109.4999990463257
 30
0.0
 10
49.80000305175781
 20
107.0999984741211
 30
0.0
 10
49.80000305175781
 20
106.9999980926514
 30
0.0
 10
49.80000305175781
 20
106.8999977111816
 30
0.0
 10
49.80000305175781
 20
106.7999992370605
 30
0.0
 10
49.80000305175781
 20
106.6999988555908
 30
0.0
 10
49.80000305175781
 20
106.5999984741211
 30
0.0
 10
49.80000305175781
 20
106.5
 30
0.0
 10
49.80000305175781
 20
106.2999992370605
 30
0.0
 10
49.80000305175781
 20
106.1000003814697
 30
0.0
 10
49.90000152587891
 20
105.8999996185303
 30
0.0
 10
49.90000152587891
 20
105.6999988555908
 30
0.0
 10
50.0
 20
105.5
 30
0.0
 10
50.0
 20
105.2999992370605
 30
0.0
 10
50.0
 20
105.1999988555908
 30
0.0
 10
50.0
 20
105.1999988555908
 30
0.0
 10
50.0
 20
105.0999984741211
 30
0.0
 10
50.0
 20
105.0999984741211
 30
0.0
 10
50.0
 20
105.0999984741211
 30
0.0
 10
50.0
 20
105.0999984741211
 30
0.0
 10
50.0
 20
104.9999980926514
 30
0.0
 10
50.0
 20
104.9999980926514
 30
0.0
 10
50.09999847412109
 20
104.8999977111816
 30
0.0
 10
50.09999847412109
 20
104.8999977111816
 30
0.0
 10
50.09999847412109
 20
104.8999977111816
 30
0.0
 10
50.09999847412109
 20
104.8999977111816
 30
0.0
 10
50.09999847412109
 20
104.7999973297119
 30
0.0
 10
50.09999847412109
 20
104.7999973297119
 30
0.0
 10
50.19999694824219
 20
104.6999969482422
 30
0.0
 10
50.19999694824219
 20
104.6999969482422
 30
0.0
 10
50.19999694824219
 20
104.6999969482422
 30
0.0
 10
50.19999694824219
 20
104.6999969482422
 30
0.0
 10
50.19999694824219
 20
104.5999965667725
 30
0.0
 10
50.19999694824219
 20
104.4999961853027
 30
0.0
 10
50.29999542236328
 20
104.3999977111816
 30
0.0
 10
50.29999542236328
 20
104.3999977111816
 30
0.0
 10
50.29999542236328
 20
104.3999977111816
 30
0.0
 10
50.29999542236328
 20
104.3999977111816
 30
0.0
 10
50.69999694824219
 20
102.5999984741211
 30
0.0
 10
51.59999465942383
 20
99.39999771118164
 30
0.0
 10
52.49999618530273
 20
95.69999694824219
 30
0.0
 10
50.69999694824219
 20
90.39999771118164
 30
0.0
 10
48.99999618530273
 20
85.0999984741211
 30
0.0
 10
47.79999542236328
 20
81.69999694824219
 30
0.0
 10
47.49999618530273
 20
80.69999694824219
 30
0.0
 10
47.19999694824219
 20
79.89999771118164
 30
0.0
 10
46.99999618530273
 20
79.19999694824219
 30
0.0
 10
46.69999694824219
 20
80.19999694824219
 30
0.0
 10
46.39999771118164
 20
81.0999984741211
 30
0.0
 10
45.99999618530273
 20
81.99999618530273
 30
0.0
 10
44.89999771118164
 20
84.99999618530273
 30
0.0
 10
42.69999694824219
 20
86.69999694824219
 30
0.0
 10
39.79999542236328
 20
86.69999694824219
 30
0.0
 10
38.79999542236328
 20
86.69999694824219
 30
0.0
 10
37.69999694824219
 20
86.49999618530273
 30
0.0
 10
36.59999465942383
 20
85.99999618530273
 30
0.0
 10
34.69999313354492
 20
85.19999694824219
 30
0.0
 10
33.29999542236328
 20
83.79999542236328
 30
0.0
 10
32.49999618530273
 20
82.09999465942383
 30
0.0
 10
31.89999580383301
 20
80.59999465942383
 30
0.0
 10
31.79999542236328
 20
78.89999389648438
 30
0.0
 10
32.39999771118164
 20
77.29999542236328
 30
0.0
 10
31.89999771118164
 20
77.49999618530273
 30
0.0
 10
31.29999732971191
 20
77.49999618530273
 30
0.0
 10
30.69999694824219
 20
77.49999618530273
 30
0.0
 10
29.79999732971191
 20
77.49999618530273
 30
0.0
 10
28.79999732971191
 20
77.29999542236328
 30
0.0
 10
27.89999771118164
 20
76.89999771118164
 30
0.0
 10
26.19999694824219
 20
76.19999694824219
 30
0.0
 10
24.89999771118164
 20
74.99999618530273
 30
0.0
 10
24.19999694824219
 20
73.39999771118164
 30
0.0
 10
23.69999694824219
 20
72.0999984741211
 30
0.0
 10
23.59999656677246
 20
70.69999694824219
 30
0.0
 10
23.99999618530273
 20
69.39999771118164
 30
0.0
 10
23.99999618530273
 20
67.89999771118164
 30
0.0
 10
23.99999618530273
 20
68.29999923706055
 30
0.0
 10
23.99999618530273
 20
67.89999771118164
 30
0.0
 10
23.99999618530273
 20
67.89999771118164
 30
0.0
 10
23.99999618530273
 20
55.69999694824219
 30
0.0
 10
23.99999618530273
 20
55.69999694824219
 30
0.0
 10
23.99999618530273
 20
48.89999389648438
 30
0.0
 10
26.89999580383301
 20
42.39999389648438
 30
0.0
 10
31.89999580383301
 20
37.59999847412109
 30
0.0
 10
36.89999389648438
 20
32.79999542236328
 30
0.0
 10
43.59999465942383
 20
30.09999847412109
 30
0.0
 10
50.59999847412109
 20
30.09999847412109
 30
0.0
 10
68.19999694824219
 20
30.09999847412109
 30
0.0
 10
76.19999694824219
 20
43.29999542236328
 30
0.0
 10
76.19999694824219
 20
56.30000305175781
 30
0.0
 10
76.19999694824219
 20
56.40000152587891
 30
0.0
 10
76.19999694824219
 20
57.5
 30
0.0
 10
76.19999694824219
 20
57.59999847412109
 30
0.0
  0
SPLINE
  5
42
330
1F
100
AcDbEntity
  8
Layer 1
370
     0
100
AcDbSpline
210
0.0
220
0.0
230
1.0
 70
    11
 71
     3
 72
    44
 73
    40
 74
     0
 42
0.0000000001
 43
0.0000000001
 12
1.0
 22
0.0
 32
0.0
 13
1.0
 23
0.0
 33
0.0
 40
0.0
 40
0.0
 40
0.0
 40
0.0
 40
1.0
 40
1.0
 40
1.0
 40
2.0
 40
2.0
 40
2.0
 40
3.0
 40
3.0
 40
3.0
 40
4.0
 40
4.0
 40
4.0
 40
5.0
 40
5.0
 40
5.0
 40
6.0
 40
6.0
 40
6.0
 40
7.0
 40
7.0
 40
7.0
 40
8.0
 40
8.0
 40
8.0
 40
9.0
 40
9.0
 40
9.0
 40
10.0
 40
10.0
 40
10.0
 40
11.0
 40
11.0
 40
11.0
 40
12.0
 40
12.0
 40
12.0
 40
13.0
 40
13.0
 40
13.0
 40
13.0
 10
61.59999847412109
 20
115.3000001907349
 30
0.0
 10
62.19999694824219
 20
116.6999998092651
 30
0.0
 10
63.59999847412109
 20
117.7000002861023
 30
0.0
 10
65.0
 20
117.7000002861023
 30
0.0
 10
65.4000015258789
 20
117.7000002861023
 30
0.0
 10
65.9000015258789
 20
117.6000003814697
 30
0.0
 10
66.30000305175781
 20
117.4000000953674
 30
0.0
 10
69.30000305175781
 20
116.1000003814697
 30
0.0
 10
68.60000610351562
 20
113.1000003814697
 30
0.0
 10
68.4000015258789
 20
112.5
 30
0.0
 10
68.0
 20
111.1999998092651
 30
0.0
 10
66.70000457763672
 20
106.7999992370605
 30
0.0
 10
64.5999984741211
 20
99.60000038146973
 30
0.0
 10
64.5999984741211
 20
99.70000076293945
 30
0.0
 10
64.5
 20
99.80000114440918
 30
0.0
 10
64.5
 20
99.89999961853027
 30
0.0
 10
62.20000076293945
 20
105.3999996185303
 30
0.0
 10
60.90000152587891
 20
108.3999996185303
 30
0.0
 10
60.70000076293945
 20
108.8999996185303
 30
0.0
 10
60.70000076293945
 20
109.0
 30
0.0
 10
60.60000228881836
 20
109.0999994277954
 30
0.0
 10
60.60000228881836
 20
109.1999998092651
 30
0.0
 10
60.60000228881836
 20
109.1999998092651
 30
0.0
 10
60.60000228881836
 20
109.3000001907349
 30
0.0
 10
60.60000228881836
 20
109.3000001907349
 30
0.0
 10
60.60000228881836
 20
109.4000005722046
 30
0.0
 10
60.50000381469727
 20
109.5
 30
0.0
 10
60.50000381469727
 20
109.6000003814697
 30
0.0
 10
60.50000381469727
 20
109.6000003814697
 30
0.0
 10
60.40000534057617
 20
109.7000007629395
 30
0.0
 10
60.40000534057617
 20
109.7000007629395
 30
0.0
 10
60.40000534057617
 20
109.7000007629395
 30
0.0
 10
60.30000686645508
 20
109.8000011444092
 30
0.0
 10
60.30000686645508
 20
109.8000011444092
 30
0.0
 10
60.20000839233398
 20
109.9000015258789
 30
0.0
 10
60.10000610351562
 20
110.100001335144
 30
0.0
 10
60.00000762939453
 20
110.2000007629395
 30
0.0
 10
61.09999847412109
 20
113.8000001907349
 30
0.0
 10
61.5
 20
115.0
 30
0.0
 10
61.59999847412109
 20
115.3000001907349
 30
0.0
  0
SPLINE
  5
43
330
1F
100
AcDbEntity
  8
Layer 1
370
     0
100
AcDbSpline
210
0.0
220
0.0
230
1.0
 70
    11
 71
     3
 72
   266
 73
   262
 74
     0
 42
0.0000000001
 43
0.0000000001
 12
1.0
 22
0.0
 32
0.0
 13
1.0
 23
0.0
 33
0.0
 40
0.0
 40
0.0
 40
0.0
 40
0.0
 40
1.0
 40
1.0
 40
1.0
 40
2.0
 40
2.0
 40
2.0
 40
3.0
 40
3.0
 40
3.0
 40
4.0
 40
4.0
 40
4.0
 40
5.0
 40
5.0
 40
5.0
 40
6.0
 40
6.0
 40
6.0
 40
7.0
 40
7.0
 40
7.0
 40
8.0
 40
8.0
 40
8.0
 40
9.0
 40
9.0
 40
9.0
 40
10.0
 40
10.0
 40
10.0
 40
11.0
 40
11.0
 40
11.0
 40
12.0
 40
12.0
 40
12.0
 40
13.0
 40
13.0
 40
13.0
 40
14.0
 40
14.0
 40
14.0
 40
15.0
 40
15.0
 40
15.0
 40
16.0
 40
16.0
 40
16.0
 40
17.0
 40
17.0
 40
17.0
 40
18.0
 40
18.0
 40
18.0
 40
19.0
 40
19.0
 40
19.0
 40
20.0
 40
20.0
 40
20.0
 40
21.0
 40
21.0
 40
21.0
 40
22.0
 40
22.0
 40
22.0
 40
23.0
 40
23.0
 40
23.0
 40
24.0
 40
24.0
 40
24.0
 40
25.0
 40
25.0
 40
25.0
 40
26.0
 40
26.0
 40
26.0
 40
27.0
 40
27.0
 40
27.0
 40
28.0
 40
28.0
 40
28.0
 40
29.0
 40
29.0
 40
29.0
 40
30.0
 40
30.0
 40
30.0
 40
31.0
 40
31.0
 40
31.0
 40
32.0
 40
32.0
 40
32.0
 40
33.0
 40
33.0
 40
33.0
 40
34.0
 40
34.0
 40
34.0
 40
35.0
 40
35.0
 40
35.0
 40
36.0
 40
36.0
 40
36.0
 40
37.0
 40
37.0
 40
37.0
 40
38.0
 40
38.0
 40
38.0
 40
39.0
 40
39.0
 40
39.0
 40
40.0
 40
40.0
 40
40.0
 40
41.0
 40
41.0
 40
41.0
 40
42.0
 40
42.0
 40
42.0
 40
43.0
 40
43.0
 40
43.0
 40
44.0
 40
44.0
 40
44.0
 40
45.0
 40
45.0
 40
45.0
 40
46.0
 40
46.0
 40
46.0
 40
47.0
 40
47.0
 40
47.0
 40
48.0
 40
48.0
 40
48.0
 40
49.0
 40
49.0
 40
49.0
 40
50.0
 40
50.0
 40
50.0
 40
51.0
 40
51.0
 40
51.0
 40
52.0
 40
52.0
 40
52.0
 40
53.0
 40
53.0
 40
53.0
 40
54.0
 40
54.0
 40
54.0
 40
55.0
 40
55.0
 40
55.0
 40
56.0
 40
56.0
 40
56.0
 40
57.0
 40
57.0
 40
57.0
 40
58.0
 40
58.0
 40
58.0
 40
59.0
 40
59.0
 40
59.0
 40
60.0
 40
60.0
 40
60.0
 40
61.0
 40
61.0
 40
61.0
 40
62.0
 40
62.0
 40
62.0
 40
63.0
 40
63.0
 40
63.0
 40
64.0
 40
64.0
 40
64.0
 40
65.0
 40
65.0
 40
65.0
 40
66.0
 40
66.0
 40
66.0
 40
67.0
 40
67.0
 40
67.0
 40
68.0
 40
68.0
 40
68.0
 40
69.0
 40
69.0
 40
69.0
 40
70.0
 40
70.0
 40
70.0
 40
71.0
 40
71.0
 40
71.0
 40
72.0
 40
72.0
 40
72.0
 40
73.0
 40
73.0
 40
73.0
 40
74.0
 40
74.0
 40
74.0
 40
75.0
 40
75.0
 40
75.0
 40
76.0
 40
76.0
 40
76.0
 40
77.0
 40
77.0
 40
77.0
 40
78.0
 40
78.0
 40
78.0
 40
79.0
 40
79.0
 40
79.0
 40
80.0
 40
80.0
 40
80.0
 40
81.0
 40
81.0
 40
81.0
 40
82.0
 40
82.0
 40
82.0
 40
83.0
 40
83.0
 40
83.0
 40
84.0
 40
84.0
 40
84.0
 40
85.0
 40
85.0
 40
85.0
 40
86.0
 40
86.0
 40
86.0
 40
87.0
 40
87.0
 40
87.0
 40
87.0
 10
48.59999847412109
 20
76.70000076293945
 30
0.0
 10
48.69999694824219
 20
76.9000015258789
 30
0.0
 10
49.09999847412109
 20
78.10000228881836
 30
0.0
 10
50.0
 20
80.9000015258789
 30
0.0
 10
50.90000152587891
 20
83.60000228881836
 30
0.0
 10
52.20000076293945
 20
87.4000015258789
 30
0.0
 10
53.59999847412109
 20
91.5
 30
0.0
 10
55.29999923706055
 20
84.5999984741211
 30
0.0
 10
57.09999847412109
 20
77.4000015258789
 30
0.0
 10
57.5
 20
75.5999984741211
 30
0.0
 10
57.5
 20
75.5999984741211
 30
0.0
 10
57.5
 20
75.5
 30
0.0
 10
57.5
 20
75.5
 30
0.0
 10
57.5
 20
75.5
 30
0.0
 10
57.5
 20
75.4000015258789
 30
0.0
 10
57.5
 20
75.4000015258789
 30
0.0
 10
57.5
 20
75.30000305175781
 30
0.0
 10
57.5
 20
75.20000076293945
 30
0.0
 10
57.59999847412109
 20
75.20000076293945
 30
0.0
 10
57.59999847412109
 20
75.20000076293945
 30
0.0
 10
57.59999847412109
 20
75.20000076293945
 30
0.0
 10
57.59999847412109
 20
75.20000076293945
 30
0.0
 10
57.59999847412109
 20
75.10000228881836
 30
0.0
 10
57.59999847412109
 20
75.10000228881836
 30
0.0
 10
57.69999694824219
 20
75.0
 30
0.0
 10
57.69999694824219
 20
75.0
 30
0.0
 10
57.69999694824219
 20
75.0
 30
0.0
 10
57.69999694824219
 20
75.0
 30
0.0
 10
57.69999694824219
 20
74.9000015258789
 30
0.0
 10
57.69999694824219
 20
74.9000015258789
 30
0.0
 10
57.79999542236328
 20
74.9000015258789
 30
0.0
 10
57.79999542236328
 20
74.9000015258789
 30
0.0
 10
57.79999542236328
 20
74.9000015258789
 30
0.0
 10
57.79999542236328
 20
74.9000015258789
 30
0.0
 10
57.79999542236328
 20
74.9000015258789
 30
0.0
 10
57.89999389648438
 20
74.80000305175781
 30
0.0
 10
57.89999389648438
 20
74.80000305175781
 30
0.0
 10
57.89999389648438
 20
74.80000305175781
 30
0.0
 10
57.89999389648438
 20
74.80000305175781
 30
0.0
 10
57.89999389648438
 20
74.80000305175781
 30
0.0
 10
57.89999389648438
 20
74.80000305175781
 30
0.0
 10
57.99999237060547
 20
74.70000457763672
 30
0.0
 10
57.99999237060547
 20
74.70000457763672
 30
0.0
 10
57.99999237060547
 20
74.70000457763672
 30
0.0
 10
57.99999237060547
 20
74.70000457763672
 30
0.0
 10
57.99999237060547
 20
74.70000457763672
 30
0.0
 10
57.99999237060547
 20
74.70000457763672
 30
0.0
 10
58.09999084472656
 20
74.60000610351562
 30
0.0
 10
58.09999084472656
 20
74.60000610351562
 30
0.0
 10
58.09999084472656
 20
74.60000610351562
 30
0.0
 10
58.09999084472656
 20
74.60000610351562
 30
0.0
 10
58.09999084472656
 20
74.60000610351562
 30
0.0
 10
58.09999084472656
 20
74.60000610351562
 30
0.0
 10
58.19998931884766
 20
74.60000610351562
 30
0.0
 10
58.19998931884766
 20
74.50000762939453
 30
0.0
 10
58.19998931884766
 20
74.50000762939453
 30
0.0
 10
58.19998931884766
 20
74.50000762939453
 30
0.0
 10
58.19998931884766
 20
74.50000762939453
 30
0.0
 10
58.19998931884766
 20
74.50000762939453
 30
0.0
 10
58.29998779296875
 20
74.50000762939453
 30
0.0
 10
58.29998779296875
 20
74.50000762939453
 30
0.0
 10
58.29998779296875
 20
74.50000762939453
 30
0.0
 10
58.29998779296875
 20
74.50000762939453
 30
0.0
 10
58.29998779296875
 20
74.50000762939453
 30
0.0
 10
58.39998626708984
 20
74.50000762939453
 30
0.0
 10
58.39998626708984
 20
74.50000762939453
 30
0.0
 10
58.4999885559082
 20
74.50000762939453
 30
0.0
 10
58.4999885559082
 20
74.50000762939453
 30
0.0
 10
58.4999885559082
 20
74.50000762939453
 30
0.0
 10
58.4999885559082
 20
74.50000762939453
 30
0.0
 10
58.4999885559082
 20
74.50000762939453
 30
0.0
 10
58.4999885559082
 20
74.50000762939453
 30
0.0
 10
58.4999885559082
 20
74.50000762939453
 30
0.0
 10
58.5999870300293
 20
74.50000762939453
 30
0.0
 10
58.69998931884766
 20
74.50000762939453
 30
0.0
 10
58.79998779296875
 20
74.50000762939453
 30
0.0
 10
59.39998626708984
 20
74.70000839233398
 30
0.0
 10
59.89998626708984
 20
75.30000686645508
 30
0.0
 10
59.69998931884766
 20
75.90000915527344
 30
0.0
 10
59.69998931884766
 20
76.10000991821289
 30
0.0
 10
55.89999008178711
 20
91.10000991821289
 30
0.0
 10
53.79998779296875
 20
100.0000095367432
 30
0.0
 10
53.79998779296875
 20
100.0000095367432
 30
0.0
 10
53.79998779296875
 20
100.0000095367432
 30
0.0
 10
53.79998779296875
 20
100.0000095367432
 30
0.0
 10
52.79998779296875
 20
103.0000095367432
 30
0.0
 10
52.4999885559082
 20
104.9000091552734
 30
0.0
 10
52.19998931884766
 20
105.8000106811523
 30
0.0
 10
52.19998931884766
 20
105.8000106811523
 30
0.0
 10
52.19998931884766
 20
105.8000106811523
 30
0.0
 10
52.19998931884766
 20
105.8000106811523
 30
0.0
 10
52.19998931884766
 20
105.9000110626221
 30
0.0
 10
52.09999084472656
 20
105.9000110626221
 30
0.0
 10
52.09999084472656
 20
106.0000114440918
 30
0.0
 10
52.09999084472656
 20
106.0000114440918
 30
0.0
 10
52.09999084472656
 20
106.1000118255615
 30
0.0
 10
52.09999084472656
 20
106.1000118255615
 30
0.0
 10
51.99999237060547
 20
106.4000110626221
 30
0.0
 10
51.99999237060547
 20
106.800012588501
 30
0.0
 10
51.89999008178711
 20
107.2000122070312
 30
0.0
 10
51.89999008178711
 20
108.1000118255615
 30
0.0
 10
52.19998931884766
 20
109.2000122070312
 30
0.0
 10
53.29999160766602
 20
109.9000120162964
 30
0.0
 10
53.49999237060547
 20
110.0000123977661
 30
0.0
 10
53.69999313354492
 20
110.1000118255615
 30
0.0
 10
53.89999008178711
 20
110.2000122070312
 30
0.0
 10
53.9999885559082
 20
110.2000122070312
 30
0.0
 10
54.09999084472656
 20
110.300012588501
 30
0.0
 10
54.29999160766602
 20
110.300012588501
 30
0.0
 10
54.29999160766602
 20
110.300012588501
 30
0.0
 10
54.39999008178711
 20
110.300012588501
 30
0.0
 10
54.39999008178711
 20
110.300012588501
 30
0.0
 10
54.4999885559082
 20
110.300012588501
 30
0.0
 10
54.59999084472656
 20
110.300012588501
 30
0.0
 10
54.69998931884766
 20
110.4000129699707
 30
0.0
 10
54.69998931884766
 20
110.4000129699707
 30
0.0
 10
54.79998779296875
 20
110.4000129699707
 30
0.0
 10
54.79998779296875
 20
110.4000129699707
 30
0.0
 10
54.89998626708984
 20
110.4000129699707
 30
0.0
 10
54.9999885559082
 20
110.4000129699707
 30
0.0
 10
55.0999870300293
 20
110.4000129699707
 30
0.0
 10
55.0999870300293
 20
110.4000129699707
 30
0.0
 10
55.0999870300293
 20
110.4000129699707
 30
0.0
 10
55.19998550415039
 20
110.4000129699707
 30
0.0
 10
55.49998474121094
 20
110.4000129699707
 30
0.0
 10
55.79998397827148
 20
110.4000129699707
 30
0.0
 10
56.0999870300293
 20
110.300012588501
 30
0.0
 10
56.0999870300293
 20
110.300012588501
 30
0.0
 10
56.0999870300293
 20
110.300012588501
 30
0.0
 10
56.19998550415039
 20
110.300012588501
 30
0.0
 10
56.29998397827148
 20
110.300012588501
 30
0.0
 10
56.29998397827148
 20
110.300012588501
 30
0.0
 10
56.39998626708984
 20
110.2000122070312
 30
0.0
 10
56.39998626708984
 20
110.2000122070312
 30
0.0
 10
56.49998474121094
 20
110.2000122070312
 30
0.0
 10
56.49998474121094
 20
110.1000118255615
 30
0.0
 10
56.59998321533203
 20
110.1000118255615
 30
0.0
 10
56.59998321533203
 20
110.1000118255615
 30
0.0
 10
56.69998550415039
 20
110.0000114440918
 30
0.0
 10
56.79998397827148
 20
110.0000114440918
 30
0.0
 10
56.79998397827148
 20
109.9000110626221
 30
0.0
 10
56.89998626708984
 20
109.9000110626221
 30
0.0
 10
56.89998626708984
 20
109.9000110626221
 30
0.0
 10
56.99998474121094
 20
109.9000110626221
 30
0.0
 10
56.99998474121094
 20
109.9000110626221
 30
0.0
 10
57.09998321533203
 20
109.9000110626221
 30
0.0
 10
57.09998321533203
 20
109.8000106811523
 30
0.0
 10
57.19998550415039
 20
109.8000106811523
 30
0.0
 10
57.79998397827148
 20
109.4000110626221
 30
0.0
 10
58.29998397827148
 20
108.8000106811523
 30
0.0
 10
58.49998474121094
 20
108.2000102996826
 30
0.0
 10
58.59998321533203
 20
108.1000099182129
 30
0.0
 10
58.69998550415039
 20
107.8000106811523
 30
0.0
 10
58.79998397827148
 20
107.4000110626221
 30
0.0
 10
58.79998397827148
 20
107.4000110626221
 30
0.0
 10
58.79998397827148
 20
107.4000110626221
 30
0.0
 10
58.79998397827148
 20
107.4000110626221
 30
0.0
 10
58.79998397827148
 20
107.4000110626221
 30
0.0
 10
58.79998397827148
 20
107.4000110626221
 30
0.0
 10
58.79998397827148
 20
107.4000110626221
 30
0.0
 10
60.09998321533203
 20
104.3000106811523
 30
0.0
 10
64.59998321533203
 20
93.70001220703125
 30
0.0
 10
66.59998321533203
 20
88.90000915527344
 30
0.0
 10
66.59998321533203
 20
88.90000915527344
 30
0.0
 10
67.49998474121094
 20
86.80001068115234
 30
0.0
 10
67.49998474121094
 20
86.80001068115234
 30
0.0
 10
67.59998321533203
 20
86.70001220703125
 30
0.0
 10
67.59998321533203
 20
86.5000114440918
 30
0.0
 10
67.69998168945312
 20
86.30001068115234
 30
0.0
 10
67.69998168945312
 20
86.20001220703125
 30
0.0
 10
67.69998168945312
 20
86.20001220703125
 30
0.0
 10
67.79998016357422
 20
86.10000991821289
 30
0.0
 10
68.09998321533203
 20
85.30001068115234
 30
0.0
 10
68.4999771118164
 20
84.30001068115234
 30
0.0
 10
68.89997863769531
 20
83.10000991821289
 30
0.0
 10
70.19998168945312
 20
79.5000114440918
 30
0.0
 10
71.89997863769531
 20
74.70001220703125
 30
0.0
 10
72.19998168945312
 20
73.50000762939453
 30
0.0
 10
72.49998474121094
 20
72.40000915527344
 30
0.0
 10
72.99998474121094
 20
68.10000610351562
 30
0.0
 10
73.39997863769531
 20
63.60000610351562
 30
0.0
 10
73.39997863769531
 20
63.60000610351562
 30
0.0
 10
73.39997863769531
 20
63.60000610351562
 30
0.0
 10
73.39997863769531
 20
63.60000610351562
 30
0.0
 10
73.0999755859375
 20
63.90000534057617
 30
0.0
 10
72.79998016357422
 20
64.20000457763672
 30
0.0
 10
72.39997863769531
 20
64.50000762939453
 30
0.0
 10
72.39997863769531
 20
64.50000762939453
 30
0.0
 10
72.39997863769531
 20
64.50000762939453
 30
0.0
 10
72.29998016357422
 20
64.60000610351562
 30
0.0
 10
72.19998168945312
 20
64.70000457763672
 30
0.0
 10
72.19998168945312
 20
64.70000457763672
 30
0.0
 10
72.09998321533203
 20
64.80000686645508
 30
0.0
 10
72.09998321533203
 20
64.80000686645508
 30
0.0
 10
71.99998474121094
 20
64.90000534057617
 30
0.0
 10
71.99998474121094
 20
64.90000534057617
 30
0.0
 10
71.89998626708984
 20
64.90000534057617
 30
0.0
 10
71.89998626708984
 20
65.00000381469727
 30
0.0
 10
71.79998779296875
 20
65.00000381469727
 30
0.0
 10
71.69998931884766
 20
65.00000381469727
 30
0.0
 10
71.69998931884766
 20
65.10000228881836
 30
0.0
 10
71.59999084472656
 20
65.10000228881836
 30
0.0
 10
71.49999237060547
 20
65.10000228881836
 30
0.0
 10
71.49999237060547
 20
65.20000076293945
 30
0.0
 10
71.39999389648438
 20
65.20000076293945
 30
0.0
 10
71.29999542236328
 20
65.20000076293945
 30
0.0
 10
71.29999542236328
 20
65.29999923706055
 30
0.0
 10
71.19999694824219
 20
65.29999923706055
 30
0.0
 10
71.0999984741211
 20
65.29999923706055
 30
0.0
 10
71.0999984741211
 20
65.39999771118164
 30
0.0
 10
71.0
 20
65.39999771118164
 30
0.0
 10
70.9000015258789
 20
65.39999771118164
 30
0.0
 10
70.80000305175781
 20
65.49999618530273
 30
0.0
 10
70.69999694824219
 20
65.49999618530273
 30
0.0
 10
70.5999984741211
 20
65.49999618530273
 30
0.0
 10
70.5999984741211
 20
65.49999618530273
 30
0.0
 10
70.5
 20
65.59999465942383
 30
0.0
 10
70.4000015258789
 20
65.69999313354492
 30
0.0
 10
70.19999694824219
 20
65.69999313354492
 30
0.0
 10
70.0
 20
65.79999542236328
 30
0.0
 10
69.9000015258789
 20
65.79999542236328
 30
0.0
 10
69.9000015258789
 20
65.79999542236328
 30
0.0
 10
69.80000305175781
 20
65.89999389648438
 30
0.0
 10
69.70000457763672
 20
65.89999389648438
 30
0.0
 10
69.60000610351562
 20
65.99999237060547
 30
0.0
 10
69.5
 20
65.99999237060547
 30
0.0
 10
69.4000015258789
 20
65.99999237060547
 30
0.0
 10
69.4000015258789
 20
65.99999237060547
 30
0.0
 10
69.30000305175781
 20
65.99999237060547
 30
0.0
 10
69.20000457763672
 20
65.99999237060547
 30
0.0
 10
69.10000610351562
 20
65.99999237060547
 30
0.0
 10
69.0
 20
66.09999084472656
 30
0.0
 10
68.9000015258789
 20
66.09999084472656
 30
0.0
 10
68.9000015258789
 20
66.09999084472656
 30
0.0
 10
68.80000305175781
 20
66.09999084472656
 30
0.0
 10
68.70000457763672
 20
66.09999084472656
 30
0.0
 10
68.60000610351562
 20
66.09999084472656
 30
0.0
 10
68.4000015258789
 20
66.19998931884766
 30
0.0
 10
68.30000305175781
 20
66.19998931884766
 30
0.0
 10
68.30000305175781
 20
66.19998931884766
 30
0.0
 10
68.20000457763672
 20
66.19998931884766
 30
0.0
 10
68.10000610351562
 20
66.19998931884766
 30
0.0
 10
67.9000015258789
 20
66.19998931884766
 30
0.0
 10
67.80000305175781
 20
66.19998931884766
 30
0.0
 10
67.70000457763672
 20
66.19998931884766
 30
0.0
 10
67.70000457763672
 20
66.19998931884766
 30
0.0
 10
67.60000610351562
 20
66.19998931884766
 30
0.0
 10
67.40000915527344
 20
66.19998931884766
 30
0.0
 10
67.20000457763672
 20
66.19998931884766
 30
0.0
 10
67.00000762939453
 20
66.19998931884766
 30
0.0
 10
59.60000610351562
 20
66.19998931884766
 30
0.0
 10
54.10000610351562
 20
67.69998931884766
 30
0.0
 10
50.00000762939453
 20
69.4999885559082
 30
0.0
 10
49.90000915527344
 20
69.69998931884766
 30
0.0
 10
49.90000915527344
 20
69.89999008178711
 30
0.0
 10
49.80000686645508
 20
70.0999870300293
 30
0.0
 10
49.10000610351562
 20
71.89998626708984
 30
0.0
 10
48.50000762939453
 20
73.89998626708984
 30
0.0
 10
47.90000534057617
 20
75.79998779296875
 30
0.0
 10
48.20000076293945
 20
75.9000015258789
 30
0.0
 10
48.40000152587891
 20
76.20000076293945
 30
0.0
 10
48.59999847412109
 20
76.70000076293945
 30
0.0
  0
SPLINE
  5
44
330
1F
100
AcDbEntity
  8
Layer 1
370
     0
100
AcDbSpline
210
0.0
220
0.0
230
1.0
 70
    11
 71
     3
 72
    35
 73
    31
 74
     0
 42
0.0000000001
 43
0.0000000001
 12
1.0
 22
0.0
 32
0.0
 13
1.0
 23
0.0
 33
0.0
 40
0.0
 40
0.0
 40
0.0
 40
0.0
 40
1.0
 40
1.0
 40
1.0
 40
2.0
 40
2.0
 40
2.0
 40
3.0
 40
3.0
 40
3.0
 40
4.0
 40
4.0
 40
4.0
 40
5.0
 40
5.0
 40
5.0
 40
6.0
 40
6.0
 40
6.0
 40
7.0
 40
7.0
 40
7.0
 40
8.0
 40
8.0
 40
8.0
 40
9.0
 40
9.0
 40
9.0
 40
10.0
 40
10.0
 40
10.0
 40
10.0
 10
34.70000076293945
 20
81.0999984741211
 30
0.0
 10
35.20000076293945
 20
82.29999923706055
 30
0.0
 10
36.20000076293945
 20
83.19999694824219
 30
0.0
 10
37.5
 20
83.79999923706055
 30
0.0
 10
38.29999923706055
 20
84.0999984741211
 30
0.0
 10
39.09999847412109
 20
84.29999923706055
 30
0.0
 10
39.79999923706055
 20
84.29999923706055
 30
0.0
 10
41.70000076293945
 20
84.29999923706055
 30
0.0
 10
43.09999847412109
 20
83.20000076293945
 30
0.0
 10
43.79999923706055
 20
81.20000076293945
 30
0.0
 10
44.39999771118164
 20
79.5
 30
0.0
 10
45.0
 20
77.60000228881836
 30
0.0
 10
45.59999847412109
 20
75.70000076293945
 30
0.0
 10
46.09999847412109
 20
74.10000228881836
 30
0.0
 10
46.59999847412109
 20
72.60000228881836
 30
0.0
 10
47.09999847412109
 20
71.0
 30
0.0
 10
45.0
 20
72.0999984741211
 30
0.0
 10
43.29999923706055
 20
73.29999923706055
 30
0.0
 10
41.89999771118164
 20
74.29999923706055
 30
0.0
 10
39.79999923706055
 20
75.70000076293945
 30
0.0
 10
38.29999923706055
 20
76.79999923706055
 30
0.0
 10
36.89999771118164
 20
76.79999923706055
 30
0.0
 10
36.29999923706055
 20
76.79999923706055
 30
0.0
 10
35.69999694824219
 20
76.70000076293945
 30
0.0
 10
35.09999847412109
 20
76.5999984741211
 30
0.0
 10
34.89999771118164
 20
76.89999771118164
 30
0.0
 10
34.79999923706055
 20
77.29999923706055
 30
0.0
 10
34.59999847412109
 20
77.5999984741211
 30
0.0
 10
34.29999923706055
 20
78.5999984741211
 30
0.0
 10
34.29999923706055
 20
79.9000015258789
 30
0.0
 10
34.70000076293945
 20
81.0999984741211
 30
0.0
  0
SPLINE
  5
45
330
1F
100
AcDbEntity
  8
Layer 1
370
     0
100
AcDbSpline
210
0.0
220
0.0
230
1.0
 70
    11
 71
     3
 72
    41
 73
    37
 74
     0
 42
0.0000000001
 43
0.0000000001
 12
1.0
 22
0.0
 32
0.0
 13
1.0
 23
0.0
 33
0.0
 40
0.0
 40
0.0
 40
0.0
 40
0.0
 40
1.0
 40
1.0
 40
1.0
 40
2.0
 40
2.0
 40
2.0
 40
3.0
 40
3.0
 40
3.0
 40
4.0
 40
4.0
 40
4.0
 40
5.0
 40
5.0
 40
5.0
 40
6.0
 40
6.0
 40
6.0
 40
7.0
 40
7.0
 40
7.0
 40
8.0
 40
8.0
 40
8.0
 40
9.0
 40
9.0
 40
9.0
 40
10.0
 40
10.0
 40
10.0
 40
11.0
 40
11.0
 40
11.0
 40
12.0
 40
12.0
 40
12.0
 40
12.0
 10
26.39999961853027
 20
72.4000015258789
 30
0.0
 10
26.79999923706055
 20
73.4000015258789
 30
0.0
 10
27.69999885559082
 20
74.20000076293945
 30
0.0
 10
28.79999923706055
 20
74.70000076293945
 30
0.0
 10
29.5
 20
75.0
 30
0.0
 10
30.19999885559082
 20
75.10000228881836
 30
0.0
 10
30.79999923706055
 20
75.10000228881836
 30
0.0
 10
31.29999923706055
 20
75.10000228881836
 30
0.0
 10
31.79999923706055
 20
75.00000381469727
 30
0.0
 10
32.20000076293945
 20
74.80000305175781
 30
0.0
 10
31.0
 20
73.60000228881836
 30
0.0
 10
30.30000114440918
 20
72.00000381469727
 30
0.0
 10
30.30000114440918
 20
70.50000381469727
 30
0.0
 10
30.30000114440918
 20
69.00000381469727
 30
0.0
 10
31.50000190734863
 20
63.40000534057617
 30
0.0
 10
36.70000076293945
 20
58.20000457763672
 30
0.0
 10
36.79999923706055
 20
58.10000610351562
 30
0.0
 10
36.79999923706055
 20
58.10000610351562
 30
0.0
 10
36.90000152587891
 20
58.00000762939453
 30
0.0
 10
36.60000228881836
 20
57.80001068115234
 30
0.0
 10
36.20000076293945
 20
57.60000610351562
 30
0.0
 10
35.80000305175781
 20
57.40000915527344
 30
0.0
 10
35.40000152587891
 20
57.30001068115234
 30
0.0
 10
35.10000228881836
 20
57.20001220703125
 30
0.0
 10
34.80000305175781
 20
57.20001220703125
 30
0.0
 10
33.60000228881836
 20
57.20001220703125
 30
0.0
 10
32.30000305175781
 20
58.40000915527344
 30
0.0
 10
30.40000343322754
 20
61.30001068115234
 30
0.0
 10
29.00000381469727
 20
63.5000114440918
 30
0.0
 10
28.40000343322754
 20
64.80001068115234
 30
0.0
 10
27.40000343322754
 20
67.20001220703125
 30
0.0
 10
27.10000419616699
 20
67.80001068115234
 30
0.0
 10
26.80000305175781
 20
68.5000114440918
 30
0.0
 10
26.50000381469727
 20
69.30001068115234
 30
0.0
 10
26.0
 20
70.29999923706055
 30
0.0
 10
26.0
 20
71.4000015258789
 30
0.0
 10
26.39999961853027
 20
72.4000015258789
 30
0.0
  0
SPLINE
  5
46
330
1F
100
AcDbEntity
  8
Layer 1
370
     0
100
AcDbSpline
210
0.0
220
0.0
230
1.0
 70
    11
 71
     3
 72
    74
 73
    70
 74
     0
 42
0.0000000001
 43
0.0000000001
 12
1.0
 22
0.0
 32
0.0
 13
1.0
 23
0.0
 33
0.0
 40
0.0
 40
0.0
 40
0.0
 40
0.0
 40
1.0
 40
1.0
 40
1.0
 40
2.0
 40
2.0
 40
2.0
 40
3.0
 40
3.0
 40
3.0
 40
4.0
 40
4.0
 40
4.0
 40
5.0
 40
5.0
 40
5.0
 40
6.0
 40
6.0
 40
6.0
 40
7.0
 40
7.0
 40
7.0
 40
8.0
 40
8.0
 40
8.0
 40
9.0
 40
9.0
 40
9.0
 40
10.0
 40
10.0
 40
10.0
 40
11.0
 40
11.0
 40
11.0
 40
12.0
 40
12.0
 40
12.0
 40
13.0
 40
13.0
 40
13.0
 40
14.0
 40
14.0
 40
14.0
 40
15.0
 40
15.0
 40
15.0
 40
16.0
 40
16.0
 40
16.0
 40
17.0
 40
17.0
 40
17.0
 40
18.0
 40
18.0
 40
18.0
 40
19.0
 40
19.0
 40
19.0
 40
20.0
 40
20.0
 40
20.0
 40
21.0
 40
21.0
 40
21.0
 40
22.0
 40
22.0
 40
22.0
 40
23.0
 40
23.0
 40
23.0
 40
23.0
 10
68.5
 20
39.90000152587891
 30
0.0
 10
64.4000015258789
 20
35.0
 30
0.0
 10
58.29999923706055
 20
32.30000305175781
 30
0.0
 10
50.79999923706055
 20
32.30000305175781
 30
0.0
 10
44.39999771118164
 20
32.30000305175781
 30
0.0
 10
38.0
 20
34.70000457763672
 30
0.0
 10
33.5
 20
39.20000457763672
 30
0.0
 10
28.79999923706055
 20
43.59999847412109
 30
0.0
 10
26.0
 20
49.40000152587891
 30
0.0
 10
26.0
 20
55.59999847412109
 30
0.0
 10
26.0
 20
55.59999847412109
 30
0.0
 10
26.0
 20
63.89999771118164
 30
0.0
 10
26.0
 20
63.89999771118164
 30
0.0
 10
26.70000076293945
 20
62.59999847412109
 30
0.0
 10
27.39999961853027
 20
61.29999923706055
 30
0.0
 10
28.20000076293945
 20
60.09999847412109
 30
0.0
 10
30.30000114440918
 20
57.0
 30
0.0
 10
32.29999923706055
 20
55.0
 30
0.0
 10
34.90000152587891
 20
55.0
 30
0.0
 10
34.90000152587891
 20
55.0
 30
0.0
 10
34.90000152587891
 20
55.0
 30
0.0
 10
34.90000152587891
 20
55.0
 30
0.0
 10
35.30000305175781
 20
55.0
 30
0.0
 10
36.0
 20
55.09999847412109
 30
0.0
 10
36.70000076293945
 20
55.30000305175781
 30
0.0
 10
37.5
 20
55.60000610351562
 30
0.0
 10
38.20000076293945
 20
56.0
 30
0.0
 10
38.70000076293945
 20
56.40000152587891
 30
0.0
 10
41.29999923706055
 20
54.30000305175781
 30
0.0
 10
44.29999923706055
 20
52.5
 30
0.0
 10
47.80000305175781
 20
51.20000457763672
 30
0.0
 10
53.10000228881836
 20
49.20000457763672
 30
0.0
 10
59.40000152587891
 20
48.20000457763672
 30
0.0
 10
66.5
 20
48.20000457763672
 30
0.0
 10
67.0999984741211
 20
48.20000457763672
 30
0.0
 10
67.5999984741211
 20
48.70000457763672
 30
0.0
 10
67.5999984741211
 20
49.30000305175781
 30
0.0
 10
67.5999984741211
 20
49.90000152587891
 30
0.0
 10
67.0999984741211
 20
50.40000152587891
 30
0.0
 10
66.5
 20
50.40000152587891
 30
0.0
 10
54.20000076293945
 20
50.40000152587891
 30
0.0
 10
44.40000152587891
 20
53.59999847412109
 30
0.0
 10
38.40000152587891
 20
59.70000457763672
 30
0.0
 10
33.70000076293945
 20
64.40000534057617
 30
0.0
 10
32.70000076293945
 20
69.40000534057617
 30
0.0
 10
32.70000076293945
 20
70.40000534057617
 30
0.0
 10
32.70000076293945
 20
72.30000686645508
 30
0.0
 10
34.10000228881836
 20
74.20000457763672
 30
0.0
 10
37.20000076293945
 20
74.20000457763672
 30
0.0
 10
37.90000152587891
 20
74.20000457763672
 30
0.0
 10
39.29999923706055
 20
73.20000457763672
 30
0.0
 10
40.90000152587891
 20
72.10000610351562
 30
0.0
 10
45.30000305175781
 20
69.10000610351562
 30
0.0
 10
52.70000076293945
 20
64.00000762939453
 30
0.0
 10
66.19999694824219
 20
63.70000457763672
 30
0.0
 10
66.19999694824219
 20
63.70000457763672
 30
0.0
 10
66.19999694824219
 20
63.70000457763672
 30
0.0
 10
66.19999694824219
 20
63.70000457763672
 30
0.0
 10
66.19999694824219
 20
63.70000457763672
 30
0.0
 10
67.39999389648438
 20
63.70000457763672
 30
0.0
 10
67.39999389648438
 20
63.70000457763672
 30
0.0
 10
72.29999542236328
 20
63.70000457763672
 30
0.0
 10
74.19999694824219
 20
59.70000457763672
 30
0.0
 10
74.19999694824219
 20
57.10000610351562
 30
0.0
 10
74.19999694824219
 20
57.10000610351562
 30
0.0
 10
74.19999694824219
 20
56.10000610351562
 30
0.0
 10
74.19999694824219
 20
56.10000610351562
 30
0.0
 10
74.0
 20
49.69999694824219
 30
0.0
 10
72.0
 20
44.09999847412109
 30
0.0
 10
68.5
 20
39.90000152587891
 30
0.0
  0
HATCH
  5
47
330
1F
100
AcDbEntity
  8
Layer 1
 62
     7
420
 16777215
100
AcDbHatch
 10
0.0
 20
0.0
 30
0.0
210
0.0
220
0.0
230
1.0
  2
SOLID
 70
     1
 71
     0
 91
        6
 92
        1
 93
        1
 72
     4
 94
        3
 73
     0
 74
     1
 95
      134
 96
      130
 40
0.0
 40
0.0
 40
0.0
 40
0.0
 40
1.0
 40
1.0
 40
1.0
 40
2.0
 40
2.0
 40
2.0
 40
3.0
 40
3.0
 40
3.0
 40
4.0
 40
4.0
 40
4.0
 40
5.0
 40
5.0
 40
5.0
 40
6.0
 40
6.0
 40
6.0
 40
7.0
 40
7.0
 40
7.0
 40
8.0
 40
8.0
 40
8.0
 40
9.0
 40
9.0
 40
9.0
 40
10.0
 40
10.0
 40
10.0
 40
11.0
 40
11.0
 40
11.0
 40
12.0
 40
12.0
 40
12.0
 40
13.0
 40
13.0
 40
13.0
 40
14.0
 40
14.0
 40
14.0
 40
15.0
 40
15.0
 40
15.0
 40
16.0
 40
16.0
 40
16.0
 40
17.0
 40
17.0
 40
17.0
 40
18.0
 40
18.0
 40
18.0
 40
19.0
 40
19.0
 40
19.0
 40
20.0
 40
20.0
 40
20.0
 40
21.0
 40
21.0
 40
21.0
 40
22.0
 40
22.0
 40
22.0
 40
23.0
 40
23.0
 40
23.0
 40
24.0
 40
24.0
 40
24.0
 40
25.0
 40
25.0
 40
25.0
 40
26.0
 40
26.0
 40
26.0
 40
27.0
 40
27.0
 40
27.0
 40
28.0
 40
28.0
 40
28.0
 40
29.0
 40
29.0
 40
29.0
 40
30.0
 40
30.0
 40
30.0
 40
31.0
 40
31.0
 40
31.0
 40
32.0
 40
32.0
 40
32.0
 40
33.0
 40
33.0
 40
33.0
 40
34.0
 40
34.0
 40
34.0
 40
35.0
 40
35.0
 40
35.0
 40
36.0
 40
36.0
 40
36.0
 40
37.0
 40
37.0
 40
37.0
 40
38.0
 40
38.0
 40
38.0
 40
39.0
 40
39.0
 40
39.0
 40
40.0
 40
40.0
 40
40.0
 40
41.0
 40
41.0
 40
41.0
 40
42.0
 40
42.0
 40
42.0
 40
43.0
 40
43.0
 40
43.0
 40
43.0
 10
76.19999694824219
 20
57.59999847412109
 10
76.0
 20
63.79999923706055
 10
75.0
 20
72.39999771118164
 10
74.5999984741211
 20
74.0
 10
74.0999984741211
 20
75.79999923706055
 10
70.9000015258789
 20
84.79999923706055
 10
69.79999542236328
 20
87.5999984741211
 10
69.79999542236328
 20
87.5999984741211
 10
66.0
 20
96.39999961853027
 10
66.0
 20
96.39999961853027
 10
68.5999984741211
 20
105.2000007629395
 10
70.19999694824219
 20
110.5
 10
70.5999984741211
 20
111.8999996185303
 10
71.0
 20
113.2999992370605
 10
71.0
 20
114.7999992370605
 10
70.5999984741211
 20
116.0999994277954
 10
70.0999984741211
 20
117.699999332428
 10
68.9000015258789
 20
118.8999996185303
 10
67.19999694824219
 20
119.5999994277954
 10
66.5999984741211
 20
119.9000000953674
 10
65.80000305175781
 20
120.0
 10
65.0999984741211
 20
120.0
 10
62.69999694824219
 20
120.0
 10
60.5
 20
118.5
 10
59.5
 20
116.1999998092651
 10
59.29999923706055
 20
115.6999998092651
 10
58.79999923706055
 20
114.3000001907349
 10
58.0
 20
112.0
 10
57.70000076293945
 20
112.1000003814697
 10
57.40000152587891
 20
112.3000001907349
 10
57.20000076293945
 20
112.3999996185303
 10
56.20000076293945
 20
112.6999998092651
 10
55.0
 20
112.7999992370605
 10
53.70000076293945
 20
112.3999996185303
 10
53.60000228881836
 20
112.3999996185303
 10
53.5
 20
112.2999992370605
 10
53.40000152587891
 20
112.2999992370605
 10
51.10000228881836
 20
111.4999990463257
 10
49.80000305175781
 20
109.4999990463257
 10
49.80000305175781
 20
107.0999984741211
 10
49.80000305175781
 20
106.9999980926514
 10
49.80000305175781
 20
106.8999977111816
 10
49.80000305175781
 20
106.7999992370605
 10
49.80000305175781
 20
106.6999988555908
 10
49.80000305175781
 20
106.5999984741211
 10
49.80000305175781
 20
106.5
 10
49.80000305175781
 20
106.2999992370605
 10
49.80000305175781
 20
106.1000003814697
 10
49.90000152587891
 20
105.8999996185303
 10
49.90000152587891
 20
105.6999988555908
 10
50.0
 20
105.5
 10
50.0
 20
105.2999992370605
 10
50.0
 20
105.1999988555908
 10
50.0
 20
105.1999988555908
 10
50.0
 20
105.0999984741211
 10
50.0
 20
105.0999984741211
 10
50.0
 20
105.0999984741211
 10
50.0
 20
105.0999984741211
 10
50.0
 20
104.9999980926514
 10
50.0
 20
104.9999980926514
 10
50.09999847412109
 20
104.8999977111816
 10
50.09999847412109
 20
104.8999977111816
 10
50.09999847412109
 20
104.8999977111816
 10
50.09999847412109
 20
104.8999977111816
 10
50.09999847412109
 20
104.7999973297119
 10
50.09999847412109
 20
104.7999973297119
 10
50.19999694824219
 20
104.6999969482422
 10
50.19999694824219
 20
104.6999969482422
 10
50.19999694824219
 20
104.6999969482422
 10
50.19999694824219
 20
104.6999969482422
 10
50.19999694824219
 20
104.5999965667725
 10
50.19999694824219
 20
104.4999961853027
 10
50.29999542236328
 20
104.3999977111816
 10
50.29999542236328
 20
104.3999977111816
 10
50.29999542236328
 20
104.3999977111816
 10
50.29999542236328
 20
104.3999977111816
 10
50.69999694824219
 20
102.5999984741211
 10
51.59999465942383
 20
99.39999771118164
 10
52.49999618530273
 20
95.69999694824219
 10
50.69999694824219
 20
90.39999771118164
 10
48.99999618530273
 20
85.0999984741211
 10
47.79999542236328
 20
81.69999694824219
 10
47.49999618530273
 20
80.69999694824219
 10
47.19999694824219
 20
79.89999771118164
 10
46.99999618530273
 20
79.19999694824219
 10
46.69999694824219
 20
80.19999694824219
 10
46.39999771118164
 20
81.0999984741211
 10
45.99999618530273
 20
81.99999618530273
 10
44.89999771118164
 20
84.99999618530273
 10
42.69999694824219
 20
86.69999694824219
 10
39.79999542236328
 20
86.69999694824219
 10
38.79999542236328
 20
86.69999694824219
 10
37.69999694824219
 20
86.49999618530273
 10
36.59999465942383
 20
85.99999618530273
 10
34.69999313354492
 20
85.19999694824219
 10
33.29999542236328
 20
83.79999542236328
 10
32.49999618530273
 20
82.09999465942383
 10
31.89999580383301
 20
80.59999465942383
 10
31.79999542236328
 20
78.89999389648438
 10
32.39999771118164
 20
77.29999542236328
 10
31.89999771118164
 20
77.49999618530273
 10
31.29999732971191
 20
77.49999618530273
 10
30.69999694824219
 20
77.49999618530273
 10
29.79999732971191
 20
77.49999618530273
 10
28.79999732971191
 20
77.29999542236328
 10
27.89999771118164
 20
76.89999771118164
 10
26.19999694824219
 20
76.19999694824219
 10
24.89999771118164
 20
74.99999618530273
 10
24.19999694824219
 20
73.39999771118164
 10
23.69999694824219
 20
72.0999984741211
 10
23.59999656677246
 20
70.69999694824219
 10
23.99999618530273
 20
69.39999771118164
 10
23.99999618530273
 20
67.89999771118164
 10
23.99999618530273
 20
68.29999923706055
 10
23.99999618530273
 20
67.89999771118164
 10
23.99999618530273
 20
67.89999771118164
 10
23.99999618530273
 20
55.69999694824219
 10
23.99999618530273
 20
55.69999694824219
 10
23.99999618530273
 20
48.89999389648438
 10
26.89999580383301
 20
42.39999389648438
 10
31.89999580383301
 20
37.59999847412109
 10
36.89999389648438
 20
32.79999542236328
 10
43.59999465942383
 20
30.09999847412109
 10
50.59999847412109
 20
30.09999847412109
 10
68.19999694824219
 20
30.09999847412109
 10
76.19999694824219
 20
43.29999542236328
 10
76.19999694824219
 20
56.30000305175781
 10
76.19999694824219
 20
56.40000152587891
 10
76.19999694824219
 20
57.5
 10
76.19999694824219
 20
57.59999847412109
 97
        0
 97
        0
 92
        1
 93
        1
 72
     4
 94
        3
 73
     0
 74
     1
 95
       44
 96
       40
 40
0.0
 40
0.0
 40
0.0
 40
0.0
 40
1.0
 40
1.0
 40
1.0
 40
2.0
 40
2.0
 40
2.0
 40
3.0
 40
3.0
 40
3.0
 40
4.0
 40
4.0
 40
4.0
 40
5.0
 40
5.0
 40
5.0
 40
6.0
 40
6.0
 40
6.0
 40
7.0
 40
7.0
 40
7.0
 40
8.0
 40
8.0
 40
8.0
 40
9.0
 40
9.0
 40
9.0
 40
10.0
 40
10.0
 40
10.0
 40
11.0
 40
11.0
 40
11.0
 40
12.0
 40
12.0
 40
12.0
 40
13.0
 40
13.0
 40
13.0
 40
13.0
 10
61.59999847412109
 20
115.3000001907349
 10
62.19999694824219
 20
116.6999998092651
 10
63.59999847412109
 20
117.7000002861023
 10
65.0
 20
117.7000002861023
 10
65.4000015258789
 20
117.7000002861023
 10
65.9000015258789
 20
117.6000003814697
 10
66.30000305175781
 20
117.4000000953674
 10
69.30000305175781
 20
116.1000003814697
 10
68.60000610351562
 20
113.1000003814697
 10
68.4000015258789
 20
112.5
 10
68.0
 20
111.1999998092651
 10
66.70000457763672
 20
106.7999992370605
 10
64.5999984741211
 20
99.60000038146973
 10
64.5999984741211
 20
99.70000076293945
 10
64.5
 20
99.80000114440918
 10
64.5
 20
99.89999961853027
 10
62.20000076293945
 20
105.3999996185303
 10
60.90000152587891
 20
108.3999996185303
 10
60.70000076293945
 20
108.8999996185303
 10
60.70000076293945
 20
109.0
 10
60.60000228881836
 20
109.0999994277954
 10
60.60000228881836
 20
109.1999998092651
 10
60.60000228881836
 20
109.1999998092651
 10
60.60000228881836
 20
109.3000001907349
 10
60.60000228881836
 20
109.3000001907349
 10
60.60000228881836
 20
109.4000005722046
 10
60.50000381469727
 20
109.5
 10
60.50000381469727
 20
109.6000003814697
 10
60.50000381469727
 20
109.6000003814697
 10
60.40000534057617
 20
109.7000007629395
 10
60.40000534057617
 20
109.7000007629395
 10
60.40000534057617
 20
109.7000007629395
 10
60.30000686645508
 20
109.8000011444092
 10
60.30000686645508
 20
109.8000011444092
 10
60.20000839233398
 20
109.9000015258789
 10
60.10000610351562
 20
110.100001335144
 10
60.00000762939453
 20
110.2000007629395
 10
61.09999847412109
 20
113.8000001907349
 10
61.5
 20
115.0
 10
61.59999847412109
 20
115.3000001907349
 97
        0
 97
        0
 92
        1
 93
        1
 72
     4
 94
        3
 73
     0
 74
     1
 95
      266
 96
      262
 40
0.0
 40
0.0
 40
0.0
 40
0.0
 40
1.0
 40
1.0
 40
1.0
 40
2.0
 40
2.0
 40
2.0
 40
3.0
 40
3.0
 40
3.0
 40
4.0
 40
4.0
 40
4.0
 40
5.0
 40
5.0
 40
5.0
 40
6.0
 40
6.0
 40
6.0
 40
7.0
 40
7.0
 40
7.0
 40
8.0
 40
8.0
 40
8.0
 40
9.0
 40
9.0
 40
9.0
 40
10.0
 40
10.0
 40
10.0
 40
11.0
 40
11.0
 40
11.0
 40
12.0
 40
12.0
 40
12.0
 40
13.0
 40
13.0
 40
13.0
 40
14.0
 40
14.0
 40
14.0
 40
15.0
 40
15.0
 40
15.0
 40
16.0
 40
16.0
 40
16.0
 40
17.0
 40
17.0
 40
17.0
 40
18.0
 40
18.0
 40
18.0
 40
19.0
 40
19.0
 40
19.0
 40
20.0
 40
20.0
 40
20.0
 40
21.0
 40
21.0
 40
21.0
 40
22.0
 40
22.0
 40
22.0
 40
23.0
 40
23.0
 40
23.0
 40
24.0
 40
24.0
 40
24.0
 40
25.0
 40
25.0
 40
25.0
 40
26.0
 40
26.0
 40
26.0
 40
27.0
 40
27.0
 40
27.0
 40
28.0
 40
28.0
 40
28.0
 40
29.0
 40
29.0
 40
29.0
 40
30.0
 40
30.0
 40
30.0
 40
31.0
 40
31.0
 40
31.0
 40
32.0
 40
32.0
 40
32.0
 40
33.0
 40
33.0
 40
33.0
 40
34.0
 40
34.0
 40
34.0
 40
35.0
 40
35.0
 40
35.0
 40
36.0
 40
36.0
 40
36.0
 40
37.0
 40
37.0
 40
37.0
 40
38.0
 40
38.0
 40
38.0
 40
39.0
 40
39.0
 40
39.0
 40
40.0
 40
40.0
 40
40.0
 40
41.0
 40
41.0
 40
41.0
 40
42.0
 40
42.0
 40
42.0
 40
43.0
 40
43.0
 40
43.0
 40
44.0
 40
44.0
 40
44.0
 40
45.0
 40
45.0
 40
45.0
 40
46.0
 40
46.0
 40
46.0
 40
47.0
 40
47.0
 40
47.0
 40
48.0
 40
48.0
 40
48.0
 40
49.0
 40
49.0
 40
49.0
 40
50.0
 40
50.0
 40
50.0
 40
51.0
 40
51.0
 40
51.0
 40
52.0
 40
52.0
 40
52.0
 40
53.0
 40
53.0
 40
53.0
 40
54.0
 40
54.0
 40
54.0
 40
55.0
 40
55.0
 40
55.0
 40
56.0
 40
56.0
 40
56.0
 40
57.0
 40
57.0
 40
57.0
 40
58.0
 40
58.0
 40
58.0
 40
59.0
 40
59.0
 40
59.0
 40
60.0
 40
60.0
 40
60.0
 40
61.0
 40
61.0
 40
61.0
 40
62.0
 40
62.0
 40
62.0
 40
63.0
 40
63.0
 40
63.0
 40
64.0
 40
64.0
 40
64.0
 40
65.0
 40
65.0
 40
65.0
 40
66.0
 40
66.0
 40
66.0
 40
67.0
 40
67.0
 40
67.0
 40
68.0
 40
68.0
 40
68.0
 40
69.0
 40
69.0
 40
69.0
 40
70.0
 40
70.0
 40
70.0
 40
71.0
 40
71.0
 40
71.0
 40
72.0
 40
72.0
 40
72.0
 40
73.0
 40
73.0
 40
73.0
 40
74.0
 40
74.0
 40
74.0
 40
75.0
 40
75.0
 40
75.0
 40
76.0
 40
76.0
 40
76.0
 40
77.0
 40
77.0
 40
77.0
 40
78.0
 40
78.0
 40
78.0
 40
79.0
 40
79.0
 40
79.0
 40
80.0
 40
80.0
 40
80.0
 40
81.0
 40
81.0
 40
81.0
 40
82.0
 40
82.0
 40
82.0
 40
83.0
 40
83.0
 40
83.0
 40
84.0
 40
84.0
 40
84.0
 40
85.0
 40
85.0
 40
85.0
 40
86.0
 40
86.0
 40
86.0
 40
87.0
 40
87.0
 40
87.0
 40
87.0
 10
48.59999847412109
 20
76.70000076293945
 10
48.69999694824219
 20
76.9000015258789
 10
49.09999847412109
 20
78.10000228881836
 10
50.0
 20
80.9000015258789
 10
50.90000152587891
 20
83.60000228881836
 10
52.20000076293945
 20
87.4000015258789
 10
53.59999847412109
 20
91.5
 10
55.29999923706055
 20
84.5999984741211
 10
57.09999847412109
 20
77.4000015258789
 10
57.5
 20
75.5999984741211
 10
57.5
 20
75.5999984741211
 10
57.5
 20
75.5
 10
57.5
 20
75.5
 10
57.5
 20
75.5
 10
57.5
 20
75.4000015258789
 10
57.5
 20
75.4000015258789
 10
57.5
 20
75.30000305175781
 10
57.5
 20
75.20000076293945
 10
57.59999847412109
 20
75.20000076293945
 10
57.59999847412109
 20
75.20000076293945
 10
57.59999847412109
 20
75.20000076293945
 10
57.59999847412109
 20
75.20000076293945
 10
57.59999847412109
 20
75.10000228881836
 10
57.59999847412109
 20
75.10000228881836
 10
57.69999694824219
 20
75.0
 10
57.69999694824219
 20
75.0
 10
57.69999694824219
 20
75.0
 10
57.69999694824219
 20
75.0
 10
57.69999694824219
 20
74.9000015258789
 10
57.69999694824219
 20
74.9000015258789
 10
57.79999542236328
 20
74.9000015258789
 10
57.79999542236328
 20
74.9000015258789
 10
57.79999542236328
 20
74.9000015258789
 10
57.79999542236328
 20
74.9000015258789
 10
57.79999542236328
 20
74.9000015258789
 10
57.89999389648438
 20
74.80000305175781
 10
57.89999389648438
 20
74.80000305175781
 10
57.89999389648438
 20
74.80000305175781
 10
57.89999389648438
 20
74.80000305175781
 10
57.89999389648438
 20
74.80000305175781
 10
57.89999389648438
 20
74.80000305175781
 10
57.99999237060547
 20
74.70000457763672
 10
57.99999237060547
 20
74.70000457763672
 10
57.99999237060547
 20
74.70000457763672
 10
57.99999237060547
 20
74.70000457763672
 10
57.99999237060547
 20
74.70000457763672
 10
57.99999237060547
 20
74.70000457763672
 10
58.09999084472656
 20
74.60000610351562
 10
58.09999084472656
 20
74.60000610351562
 10
58.09999084472656
 20
74.60000610351562
 10
58.09999084472656
 20
74.60000610351562
 10
58.09999084472656
 20
74.60000610351562
 10
58.09999084472656
 20
74.60000610351562
 10
58.19998931884766
 20
74.60000610351562
 10
58.19998931884766
 20
74.50000762939453
 10
58.19998931884766
 20
74.50000762939453
 10
58.19998931884766
 20
74.50000762939453
 10
58.19998931884766
 20
74.50000762939453
 10
58.19998931884766
 20
74.50000762939453
 10
58.29998779296875
 20
74.50000762939453
 10
58.29998779296875
 20
74.50000762939453
 10
58.29998779296875
 20
74.50000762939453
 10
58.29998779296875
 20
74.50000762939453
 10
58.29998779296875
 20
74.50000762939453
 10
58.39998626708984
 20
74.50000762939453
 10
58.39998626708984
 20
74.50000762939453
 10
58.4999885559082
 20
74.50000762939453
 10
58.4999885559082
 20
74.50000762939453
 10
58.4999885559082
 20
74.50000762939453
 10
58.4999885559082
 20
74.50000762939453
 10
58.4999885559082
 20
74.50000762939453
 10
58.4999885559082
 20
74.50000762939453
 10
58.4999885559082
 20
74.50000762939453
 10
58.5999870300293
 20
74.50000762939453
 10
58.69998931884766
 20
74.50000762939453
 10
58.79998779296875
 20
74.50000762939453
 10
59.39998626708984
 20
74.70000839233398
 10
59.89998626708984
 20
75.30000686645508
 10
59.69998931884766
 20
75.90000915527344
 10
59.69998931884766
 20
76.10000991821289
 10
55.89999008178711
 20
91.10000991821289
 10
53.79998779296875
 20
100.0000095367432
 10
53.79998779296875
 20
100.0000095367432
 10
53.79998779296875
 20
100.0000095367432
 10
53.79998779296875
 20
100.0000095367432
 10
52.79998779296875
 20
103.0000095367432
 10
52.4999885559082
 20
104.9000091552734
 10
52.19998931884766
 20
105.8000106811523
 10
52.19998931884766
 20
105.8000106811523
 10
52.19998931884766
 20
105.8000106811523
 10
52.19998931884766
 20
105.8000106811523
 10
52.19998931884766
 20
105.9000110626221
 10
52.09999084472656
 20
105.9000110626221
 10
52.09999084472656
 20
106.0000114440918
 10
52.09999084472656
 20
106.0000114440918
 10
52.09999084472656
 20
106.1000118255615
 10
52.09999084472656
 20
106.1000118255615
 10
51.99999237060547
 20
106.4000110626221
 10
51.99999237060547
 20
106.800012588501
 10
51.89999008178711
 20
107.2000122070312
 10
51.89999008178711
 20
108.1000118255615
 10
52.19998931884766
 20
109.2000122070312
 10
53.29999160766602
 20
109.9000120162964
 10
53.49999237060547
 20
110.0000123977661
 10
53.69999313354492
 20
110.1000118255615
 10
53.89999008178711
 20
110.2000122070312
 10
53.9999885559082
 20
110.2000122070312
 10
54.09999084472656
 20
110.300012588501
 10
54.29999160766602
 20
110.300012588501
 10
54.29999160766602
 20
110.300012588501
 10
54.39999008178711
 20
110.300012588501
 10
54.39999008178711
 20
110.300012588501
 10
54.4999885559082
 20
110.300012588501
 10
54.59999084472656
 20
110.300012588501
 10
54.69998931884766
 20
110.4000129699707
 10
54.69998931884766
 20
110.4000129699707
 10
54.79998779296875
 20
110.4000129699707
 10
54.79998779296875
 20
110.4000129699707
 10
54.89998626708984
 20
110.4000129699707
 10
54.9999885559082
 20
110.4000129699707
 10
55.0999870300293
 20
110.4000129699707
 10
55.0999870300293
 20
110.4000129699707
 10
55.0999870300293
 20
110.4000129699707
 10
55.19998550415039
 20
110.4000129699707
 10
55.49998474121094
 20
110.4000129699707
 10
55.79998397827148
 20
110.4000129699707
 10
56.0999870300293
 20
110.300012588501
 10
56.0999870300293
 20
110.300012588501
 10
56.0999870300293
 20
110.300012588501
 10
56.19998550415039
 20
110.300012588501
 10
56.29998397827148
 20
110.300012588501
 10
56.29998397827148
 20
110.300012588501
 10
56.39998626708984
 20
110.2000122070312
 10
56.39998626708984
 20
110.2000122070312
 10
56.49998474121094
 20
110.2000122070312
 10
56.49998474121094
 20
110.1000118255615
 10
56.59998321533203
 20
110.1000118255615
 10
56.59998321533203
 20
110.1000118255615
 10
56.69998550415039
 20
110.0000114440918
 10
56.79998397827148
 20
110.0000114440918
 10
56.79998397827148
 20
109.9000110626221
 10
56.89998626708984
 20
109.9000110626221
 10
56.89998626708984
 20
109.9000110626221
 10
56.99998474121094
 20
109.9000110626221
 10
56.99998474121094
 20
109.9000110626221
 10
57.09998321533203
 20
109.9000110626221
 10
57.09998321533203
 20
109.8000106811523
 10
57.19998550415039
 20
109.8000106811523
 10
57.79998397827148
 20
109.4000110626221
 10
58.29998397827148
 20
108.8000106811523
 10
58.49998474121094
 20
108.2000102996826
 10
58.59998321533203
 20
108.1000099182129
 10
58.69998550415039
 20
107.8000106811523
 10
58.79998397827148
 20
107.4000110626221
 10
58.79998397827148
 20
107.4000110626221
 10
58.79998397827148
 20
107.4000110626221
 10
58.79998397827148
 20
107.4000110626221
 10
58.79998397827148
 20
107.4000110626221
 10
58.79998397827148
 20
107.4000110626221
 10
58.79998397827148
 20
107.4000110626221
 10
60.09998321533203
 20
104.3000106811523
 10
64.59998321533203
 20
93.70001220703125
 10
66.59998321533203
 20
88.90000915527344
 10
66.59998321533203
 20
88.90000915527344
 10
67.49998474121094
 20
86.80001068115234
 10
67.49998474121094
 20
86.80001068115234
 10
67.59998321533203
 20
86.70001220703125
 10
67.59998321533203
 20
86.5000114440918
 10
67.69998168945312
 20
86.30001068115234
 10
67.69998168945312
 20
86.20001220703125
 10
67.69998168945312
 20
86.20001220703125
 10
67.79998016357422
 20
86.10000991821289
 10
68.09998321533203
 20
85.30001068115234
 10
68.4999771118164
 20
84.30001068115234
 10
68.89997863769531
 20
83.10000991821289
 10
70.19998168945312
 20
79.5000114440918
 10
71.89997863769531
 20
74.70001220703125
 10
72.19998168945312
 20
73.50000762939453
 10
72.49998474121094
 20
72.40000915527344
 10
72.99998474121094
 20
68.10000610351562
 10
73.39997863769531
 20
63.60000610351562
 10
73.39997863769531
 20
63.60000610351562
 10
73.39997863769531
 20
63.60000610351562
 10
73.39997863769531
 20
63.60000610351562
 10
73.0999755859375
 20
63.90000534057617
 10
72.79998016357422
 20
64.20000457763672
 10
72.39997863769531
 20
64.50000762939453
 10
72.39997863769531
 20
64.50000762939453
 10
72.39997863769531
 20
64.50000762939453
 10
72.29998016357422
 20
64.60000610351562
 10
72.19998168945312
 20
64.70000457763672
 10
72.19998168945312
 20
64.70000457763672
 10
72.09998321533203
 20
64.80000686645508
 10
72.09998321533203
 20
64.80000686645508
 10
71.99998474121094
 20
64.90000534057617
 10
71.99998474121094
 20
64.90000534057617
 10
71.89998626708984
 20
64.90000534057617
 10
71.89998626708984
 20
65.00000381469727
 10
71.79998779296875
 20
65.00000381469727
 10
71.69998931884766
 20
65.00000381469727
 10
71.69998931884766
 20
65.10000228881836
 10
71.59999084472656
 20
65.10000228881836
 10
71.49999237060547
 20
65.10000228881836
 10
71.49999237060547
 20
65.20000076293945
 10
71.39999389648438
 20
65.20000076293945
 10
71.29999542236328
 20
65.20000076293945
 10
71.29999542236328
 20
65.29999923706055
 10
71.19999694824219
 20
65.29999923706055
 10
71.0999984741211
 20
65.29999923706055
 10
71.0999984741211
 20
65.39999771118164
 10
71.0
 20
65.39999771118164
 10
70.9000015258789
 20
65.39999771118164
 10
70.80000305175781
 20
65.49999618530273
 10
70.69999694824219
 20
65.49999618530273
 10
70.5999984741211
 20
65.49999618530273
 10
70.5999984741211
 20
65.49999618530273
 10
70.5
 20
65.59999465942383
 10
70.4000015258789
 20
65.69999313354492
 10
70.19999694824219
 20
65.69999313354492
 10
70.0
 20
65.79999542236328
 10
69.9000015258789
 20
65.79999542236328
 10
69.9000015258789
 20
65.79999542236328
 10
69.80000305175781
 20
65.89999389648438
 10
69.70000457763672
 20
65.89999389648438
 10
69.60000610351562
 20
65.99999237060547
 10
69.5
 20
65.99999237060547
 10
69.4000015258789
 20
65.99999237060547
 10
69.4000015258789
 20
65.99999237060547
 10
69.30000305175781
 20
65.99999237060547
 10
69.20000457763672
 20
65.99999237060547
 10
69.10000610351562
 20
65.99999237060547
 10
69.0
 20
66.09999084472656
 10
68.9000015258789
 20
66.09999084472656
 10
68.9000015258789
 20
66.09999084472656
 10
68.80000305175781
 20
66.09999084472656
 10
68.70000457763672
 20
66.09999084472656
 10
68.60000610351562
 20
66.09999084472656
 10
68.4000015258789
 20
66.19998931884766
 10
68.30000305175781
 20
66.19998931884766
 10
68.30000305175781
 20
66.19998931884766
 10
68.20000457763672
 20
66.19998931884766
 10
68.10000610351562
 20
66.19998931884766
 10
67.9000015258789
 20
66.19998931884766
 10
67.80000305175781
 20
66.19998931884766
 10
67.70000457763672
 20
66.19998931884766
 10
67.70000457763672
 20
66.19998931884766
 10
67.60000610351562
 20
66.19998931884766
 10
67.40000915527344
 20
66.19998931884766
 10
67.20000457763672
 20
66.19998931884766
 10
67.00000762939453
 20
66.19998931884766
 10
59.60000610351562
 20
66.19998931884766
 10
54.10000610351562
 20
67.69998931884766
 10
50.00000762939453
 20
69.4999885559082
 10
49.90000915527344
 20
69.69998931884766
 10
49.90000915527344
 20
69.89999008178711
 10
49.80000686645508
 20
70.0999870300293
 10
49.10000610351562
 20
71.89998626708984
 10
48.50000762939453
 20
73.89998626708984
 10
47.90000534057617
 20
75.79998779296875
 10
48.20000076293945
 20
75.9000015258789
 10
48.40000152587891
 20
76.20000076293945
 10
48.59999847412109
 20
76.70000076293945
 97
        0
 97
        0
 92
        1
 93
        1
 72
     4
 94
        3
 73
     0
 74
     1
 95
       35
 96
       31
 40
0.0
 40
0.0
 40
0.0
 40
0.0
 40
1.0
 40
1.0
 40
1.0
 40
2.0
 40
2.0
 40
2.0
 40
3.0
 40
3.0
 40
3.0
 40
4.0
 40
4.0
 40
4.0
 40
5.0
 40
5.0
 40
5.0
 40
6.0
 40
6.0
 40
6.0
 40
7.0
 40
7.0
 40
7.0
 40
8.0
 40
8.0
 40
8.0
 40
9.0
 40
9.0
 40
9.0
 40
10.0
 40
10.0
 40
10.0
 40
10.0
 10
34.70000076293945
 20
81.0999984741211
 10
35.20000076293945
 20
82.29999923706055
 10
36.20000076293945
 20
83.19999694824219
 10
37.5
 20
83.79999923706055
 10
38.29999923706055
 20
84.0999984741211
 10
39.09999847412109
 20
84.29999923706055
 10
39.79999923706055
 20
84.29999923706055
 10
41.70000076293945
 20
84.29999923706055
 10
43.09999847412109
 20
83.20000076293945
 10
43.79999923706055
 20
81.20000076293945
 10
44.39999771118164
 20
79.5
 10
45.0
 20
77.60000228881836
 10
45.59999847412109
 20
75.70000076293945
 10
46.09999847412109
 20
74.10000228881836
 10
46.59999847412109
 20
72.60000228881836
 10
47.09999847412109
 20
71.0
 10
45.0
 20
72.0999984741211
 10
43.29999923706055
 20
73.29999923706055
 10
41.89999771118164
 20
74.29999923706055
 10
39.79999923706055
 20
75.70000076293945
 10
38.29999923706055
 20
76.79999923706055
 10
36.89999771118164
 20
76.79999923706055
 10
36.29999923706055
 20
76.79999923706055
 10
35.69999694824219
 20
76.70000076293945
 10
35.09999847412109
 20
76.5999984741211
 10
34.89999771118164
 20
76.89999771118164
 10
34.79999923706055
 20
77.29999923706055
 10
34.59999847412109
 20
77.5999984741211
 10
34.29999923706055
 20
78.5999984741211
 10
34.29999923706055
 20
79.9000015258789
 10
34.70000076293945
 20
81.0999984741211
 97
        0
 97
        0
 92
        1
 93
        1
 72
     4
 94
        3
 73
     0
 74
     1
 95
       41
 96
       37
 40
0.0
 40
0.0
 40
0.0
 40
0.0
 40
1.0
 40
1.0
 40
1.0
 40
2.0
 40
2.0
 40
2.0
 40
3.0
 40
3.0
 40
3.0
 40
4.0
 40
4.0
 40
4.0
 40
5.0
 40
5.0
 40
5.0
 40
6.0
 40
6.0
 40
6.0
 40
7.0
 40
7.0
 40
7.0
 40
8.0
 40
8.0
 40
8.0
 40
9.0
 40
9.0
 40
9.0
 40
10.0
 40
10.0
 40
10.0
 40
11.0
 40
11.0
 40
11.0
 40
12.0
 40
12.0
 40
12.0
 40
12.0
 10
26.39999961853027
 20
72.4000015258789
 10
26.79999923706055
 20
73.4000015258789
 10
27.69999885559082
 20
74.20000076293945
 10
28.79999923706055
 20
74.70000076293945
 10
29.5
 20
75.0
 10
30.19999885559082
 20
75.10000228881836
 10
30.79999923706055
 20
75.10000228881836
 10
31.29999923706055
 20
75.10000228881836
 10
31.79999923706055
 20
75.00000381469727
 10
32.20000076293945
 20
74.80000305175781
 10
31.0
 20
73.60000228881836
 10
30.30000114440918
 20
72.00000381469727
 10
30.30000114440918
 20
70.50000381469727
 10
30.30000114440918
 20
69.00000381469727
 10
31.50000190734863
 20
63.40000534057617
 10
36.70000076293945
 20
58.20000457763672
 10
36.79999923706055
 20
58.10000610351562
 10
36.79999923706055
 20
58.10000610351562
 10
36.90000152587891
 20
58.00000762939453
 10
36.60000228881836
 20
57.80001068115234
 10
36.20000076293945
 20
57.60000610351562
 10
35.80000305175781
 20
57.40000915527344
 10
35.40000152587891
 20
57.30001068115234
 10
35.10000228881836
 20
57.20001220703125
 10
34.80000305175781
 20
57.20001220703125
 10
33.60000228881836
 20
57.20001220703125
 10
32.30000305175781
 20
58.40000915527344
 10
30.40000343322754
 20
61.30001068115234
 10
29.00000381469727
 20
63.5000114440918
 10
28.40000343322754
 20
64.80001068115234
 10
27.40000343322754
 20
67.20001220703125
 10
27.10000419616699
 20
67.80001068115234
 10
26.80000305175781
 20
68.5000114440918
 10
26.50000381469727
 20
69.30001068115234
 10
26.0
 20
70.29999923706055
 10
26.0
 20
71.4000015258789
 10
26.39999961853027
 20
72.4000015258789
 97
        0
 97
        0
 92
        1
 93
        1
 72
     4
 94
        3
 73
     0
 74
     1
 95
       74
 96
       70
 40
0.0
 40
0.0
 40
0.0
 40
0.0
 40
1.0
 40
1.0
 40
1.0
 40
2.0
 40
2.0
 40
2.0
 40
3.0
 40
3.0
 40
3.0
 40
4.0
 40
4.0
 40
4.0
 40
5.0
 40
5.0
 40
5.0
 40
6.0
 40
6.0
 40
6.0
 40
7.0
 40
7.0
 40
7.0
 40
8.0
 40
8.0
 40
8.0
 40
9.0
 40
9.0
 40
9.0
 40
10.0
 40
10.0
 40
10.0
 40
11.0
 40
11.0
 40
11.0
 40
12.0
 40
12.0
 40
12.0
 40
13.0
 40
13.0
 40
13.0
 40
14.0
 40
14.0
 40
14.0
 40
15.0
 40
15.0
 40
15.0
 40
16.0
 40
16.0
 40
16.0
 40
17.0
 40
17.0
 40
17.0
 40
18.0
 40
18.0
 40
18.0
 40
19.0
 40
19.0
 40
19.0
 40
20.0
 40
20.0
 40
20.0
 40
21.0
 40
21.0
 40
21.0
 40
22.0
 40
22.0
 40
22.0
 40
23.0
 40
23.0
 40
23.0
 40
23.0
 10
68.5
 20
39.90000152587891
 10
64.4000015258789
 20
35.0
 10
58.29999923706055
 20
32.30000305175781
 10
50.79999923706055
 20
32.30000305175781
 10
44.39999771118164
 20
32.30000305175781
 10
38.0
 20
34.70000457763672
 10
33.5
 20
39.20000457763672
 10
28.79999923706055
 20
43.59999847412109
 10
26.0
 20
49.40000152587891
 10
26.0
 20
55.59999847412109
 10
26.0
 20
55.59999847412109
 10
26.0
 20
63.89999771118164
 10
26.0
 20
63.89999771118164
 10
26.70000076293945
 20
62.59999847412109
 10
27.39999961853027
 20
61.29999923706055
 10
28.20000076293945
 20
60.09999847412109
 10
30.30000114440918
 20
57.0
 10
32.29999923706055
 20
55.0
 10
34.90000152587891
 20
55.0
 10
34.90000152587891
 20
55.0
 10
34.90000152587891
 20
55.0
 10
34.90000152587891
 20
55.0
 10
35.30000305175781
 20
55.0
 10
36.0
 20
55.09999847412109
 10
36.70000076293945
 20
55.30000305175781
 10
37.5
 20
55.60000610351562
 10
38.20000076293945
 20
56.0
 10
38.70000076293945
 20
56.40000152587891
 10
41.29999923706055
 20
54.30000305175781
 10
44.29999923706055
 20
52.5
 10
47.80000305175781
 20
51.20000457763672
 10
53.10000228881836
 20
49.20000457763672
 10
59.40000152587891
 20
48.20000457763672
 10
66.5
 20
48.20000457763672
 10
67.0999984741211
 20
48.20000457763672
 10
67.5999984741211
 20
48.70000457763672
 10
67.5999984741211
 20
49.30000305175781
 10
67.5999984741211
 20
49.90000152587891
 10
67.0999984741211
 20
50.40000152587891
 10
66.5
 20
50.40000152587891
 10
54.20000076293945
 20
50.40000152587891
 10
44.40000152587891
 20
53.59999847412109
 10
38.40000152587891
 20
59.70000457763672
 10
33.70000076293945
 20
64.40000534057617
 10
32.70000076293945
 20
69.40000534057617
 10
32.70000076293945
 20
70.40000534057617
 10
32.70000076293945
 20
72.30000686645508
 10
34.10000228881836
 20
74.20000457763672
 10
37.20000076293945
 20
74.20000457763672
 10
37.90000152587891
 20
74.20000457763672
 10
39.29999923706055
 20
73.20000457763672
 10
40.90000152587891
 20
72.10000610351562
 10
45.30000305175781
 20
69.10000610351562
 10
52.70000076293945
 20
64.00000762939453
 10
66.19999694824219
 20
63.70000457763672
 10
66.19999694824219
 20
63.70000457763672
 10
66.19999694824219
 20
63.70000457763672
 10
66.19999694824219
 20
63.70000457763672
 10
66.19999694824219
 20
63.70000457763672
 10
67.39999389648438
 20
63.70000457763672
 10
67.39999389648438
 20
63.70000457763672
 10
72.29999542236328
 20
63.70000457763672
 10
74.19999694824219
 20
59.70000457763672
 10
74.19999694824219
 20
57.10000610351562
 10
74.19999694824219
 20
57.10000610351562
 10
74.19999694824219
 20
56.10000610351562
 10
74.19999694824219
 20
56.10000610351562
 10
74.0
 20
49.69999694824219
 10
72.0
 20
44.09999847412109
 10
68.5
 20
39.90000152587891
 97
        0
 97
        0
 75
     2
 76
     1
 98
        0
  0
ENDSEC
  0
SECTION
  2
OBJECTS
  0
DICTIONARY
  5
C
330
0
100
AcDbDictionary
281
     1
  3
ACAD_GROUP
350
D
  3
ACAD_LAYOUT
350
1A
  3
ACAD_MATERIAL
350
3B
  3
ACAD_MLEADERSTYLE
350
49
  3
ACAD_MLINESTYLE
350
17
  3
ACAD_PLOTSETTINGS
350
19
  3
ACAD_PLOTSTYLENAME
350
E
  3
ACAD_TABLESTYLE
350
48
  3
ACAD_VISUALSTYLE
350
2A
  0
SUN
  5
3F
330
29
100
AcDbSun
 90
        1
290
     0
 63
     7
421
 16777215
 40
1.0
291
     1
 91
  2455826
 92
 54000000
292
     0
 70
     2
 71
   256
280
     1
  0
DICTIONARY
  5
D
102
{ACAD_REACTORS
330
C
102
}
330
C
100
AcDbDictionary
281
     1
  0
DICTIONARY
  5
1A
102
{ACAD_REACTORS
330
C
102
}
330
C
100
AcDbDictionary
281
     1
  3
Layout1
350
1E
  3
Layout2
350
26
  3
Model
350
22
  0
DICTIONARY
  5
3B
102
{ACAD_REACTORS
330
C
102
}
330
C
100
AcDbDictionary
281
     1
  3
ByBlock
350
3D
  3
ByLayer
350
3C
  3
Global
350
3E
  0
DICTIONARY
  5
49
102
{ACAD_REACTORS
330
C
102
}
330
C
100
AcDbDictionary
281
     1
  0
DICTIONARY
  5
17
102
{ACAD_REACTORS
330
C
102
}
330
C
100
AcDbDictionary
281
     1
  3
Standard
350
18
  0
DICTIONARY
  5
19
102
{ACAD_REACTORS
330
C
102
}
330
C
100
AcDbDictionary
281
     1
  0
ACDBDICTIONARYWDFLT
  5
E
102
{ACAD_REACTORS
330
C
102
}
330
C
100
AcDbDictionary
281
     1
  3
Normal
350
F
100
AcDbDictionaryWithDefault
340
F
  0
DICTIONARY
  5
48
102
{ACAD_REACTORS
330
C
102
}
330
C
100
AcDbDictionary
281
     1
  0
DICTIONARY
  5
2A
102
{ACAD_REACTORS
330
C
102
}
330
C
100
AcDbDictionary
281
     1
  3
2dWireframe
350
2F
  3
3D Hidden
350
31
  3
3dWireframe
350
30
  3
Basic
350
32
  3
Brighten
350
36
  3
ColorChange
350
3A
  3
Conceptual
350
34
  3
Dim
350
35
  3
Facepattern
350
39
  3
Flat
350
2B
  3
FlatWithEdges
350
2C
  3
Gouraud
350
2D
  3
GouraudWithEdges
350
2E
  3
Linepattern
350
38
  3
Realistic
350
33
  3
Thicken
350
37
  0
LAYOUT
  5
1E
102
{ACAD_REACTORS
330
1A
102
}
330
1A
100
AcDbPlotSettings
  1

  2
none_device
  4

  6

 40
0.0
 41
0.0
 42
0.0
 43
0.0
 44
0.0
 45
0.0
 46
0.0
 47
0.0
 48
0.0
 49
0.0
140
0.0
141
0.0
142
1.0
143
1.0
 70
   688
 72
     0
 73
     0
 74
     5
  7

 75
    16
 76
     0
 77
     2
 78
   300
147
1.0
148
0.0
149
0.0
100
AcDbLayout
  1
Layout1
 70
     1
 71
     1
 10
0.0
 20
0.0
 11
12.0
 21
9.0
 12
0.0
 22
0.0
 32
0.0
 14
1.000000000000000E+20
 24
1.000000000000000E+20
 34
1.000000000000000E+20
 15
-1.000000000000000E+20
 25
-1.000000000000000E+20
 35
-1.000000000000000E+20
146
0.0
 13
0.0
 23
0.0
 33
0.0
 16
1.0
 26
0.0
 36
0.0
 17
0.0
 27
1.0
 37
0.0
 76
     0
330
1B
  0
LAYOUT
  5
26
102
{ACAD_REACTORS
330
1A
102
}
330
1A
100
AcDbPlotSettings
  1

  2
none_device
  4

  6

 40
0.0
 41
0.0
 42
0.0
 43
0.0
 44
0.0
 45
0.0
 46
0.0
 47
0.0
 48
0.0
 49
0.0
140
0.0
141
0.0
142
1.0
143
1.0
 70
   688
 72
     0
 73
     0
 74
     5
  7

 75
    16
 76
     0
 77
     2
 78
   300
147
1.0
148
0.0
149
0.0
100
AcDbLayout
  1
Layout2
 70
     1
 71
     2
 10
0.0
 20
0.0
 11
0.0
 21
0.0
 12
0.0
 22
0.0
 32
0.0
 14
0.0
 24
0.0
 34
0.0
 15
0.0
 25
0.0
 35
0.0
146
0.0
 13
0.0
 23
0.0
 33
0.0
 16
1.0
 26
0.0
 36
0.0
 17
0.0
 27
1.0
 37
0.0
 76
     0
330
23
  0
LAYOUT
  5
22
102
{ACAD_REACTORS
330
1A
102
}
330
1A
100
AcDbPlotSettings
  1

  2
none_device
  4

  6

 40
0.0
 41
0.0
 42
0.0
 43
0.0
 44
0.0
 45
0.0
 46
0.0
 47
0.0
 48
0.0
 49
0.0
140
0.0
141
0.0
142
1.0
143
1.0
 70
  1712
 72
     0
 73
     0
 74
     0
  7

 75
     0
 76
     0
 77
     2
 78
   300
147
1.0
148
0.0
149
0.0
100
AcDbLayout
  1
Model
 70
     1
 71
     0
 10
0.0
 20
0.0
 11
12.0
 21
9.0
 12
0.0
 22
0.0
 32
0.0
 14
1.000000000000000E+20
 24
1.000000000000000E+20
 34
1.000000000000000E+20
 15
-1.000000000000000E+20
 25
-1.000000000000000E+20
 35
-1.000000000000000E+20
146
0.0
 13
0.0
 23
0.0
 33
0.0
 16
1.0
 26
0.0
 36
0.0
 17
0.0
 27
1.0
 37
0.0
 76
     0
330
1F
331
29
  0
MATERIAL
  5
3D
102
{ACAD_REACTORS
330
3B
102
}
330
3B
100
AcDbMaterial
  1
ByBlock
 72
     1
 94
      127
  0
MATERIAL
  5
3C
102
{ACAD_REACTORS
330
3B
102
}
330
3B
100
AcDbMaterial
  1
ByLayer
 72
     1
 94
      127
  0
MATERIAL
  5
3E
102
{ACAD_REACTORS
330
3B
102
}
330
3B
100
AcDbMaterial
  1
Global
 72
     1
 94
      127
  0
MLINESTYLE
  5
18
102
{ACAD_REACTORS
330
17
102
}
330
17
100
AcDbMlineStyle
  2
Standard
 70
     0
  3

 62
   256
 51
90.0
 52
90.0
 71
     2
 49
0.5
 62
   256
  6
BYLAYER
 49
-0.5
 62
   256
  6
BYLAYER
  0
ACDBPLACEHOLDER
  5
F
102
{ACAD_REACTORS
330
E
102
}
330
E
  0
VISUALSTYLE
  5
2F
102
{ACAD_REACTORS
330
2A
102
}
330
2A
100
AcDbVisualStyle
  2
2dWireframe
 70
     4
177
     2
291
     0
 71
     0
176
     1
 72
     2
176
     1
 73
     0
176
     1
 90
        0
176
     1
 40
-0.6
176
     1
 41
-30.0
176
     1
 62
     5
 63
     7
421
 16777215
176
     1
 74
     1
176
     1
 91
        4
176
     1
 64
     7
176
     1
 65
   257
176
     1
 75
     1
176
     1
175
     1
176
     1
 42
1.0
176
     1
 92
        0
176
     1
 66
   257
176
     1
 43
1.0
176
     1
 76
     1
176
     1
 77
     6
176
     1
 78
     2
176
     1
 67
     7
176
     1
 79
     5
176
     1
170
     0
176
     1
171
     0
176
     1
290
     0
176
     1
 93
        1
176
     1
 44
0.0
176
     1
173
     0
176
     1
  0
VISUALSTYLE
  5
31
102
{ACAD_REACTORS
330
2A
102
}
330
2A
100
AcDbVisualStyle
  2
3D Hidden
 70
     6
177
     2
291
     0
 71
     1
176
     1
 72
     2
176
     1
 73
     2
176
     1
 90
        0
176
     1
 40
-0.6
176
     1
 41
-30.0
176
     1
 62
     5
 63
     7
421
 16777215
176
     1
 74
     2
176
     1
 91
        2
176
     1
 64
     7
176
     1
 65
   257
176
     1
 75
     2
176
     1
175
     1
176
     1
 42
40.0
176
     1
 92
        0
176
     1
 66
   257
176
     1
 43
1.0
176
     1
 76
     1
176
     1
 77
     6
176
     1
 78
     2
176
     1
 67
     7
176
     1
 79
     3
176
     1
170
     0
176
     1
171
     0
176
     1
290
     0
176
     1
 93
        1
176
     1
 44
0.0
176
     1
173
     0
176
     1
  0
VISUALSTYLE
  5
30
102
{ACAD_REACTORS
330
2A
102
}
330
2A
100
AcDbVisualStyle
  2
3dWireframe
 70
     5
177
     2
291
     0
 71
     0
176
     1
 72
     2
176
     1
 73
     0
176
     1
 90
        0
176
     1
 40
-0.6
176
     1
 41
-30.0
176
     1
 62
     5
 63
     7
421
 16777215
176
     1
 74
     1
176
     1
 91
        4
176
     1
 64
     7
176
     1
 65
   257
176
     1
 75
     1
176
     1
175
     1
176
     1
 42
1.0
176
     1
 92
        0
176
     1
 66
   257
176
     1
 43
1.0
176
     1
 76
     1
176
     1
 77
     6
176
     1
 78
     2
176
     1
 67
     7
176
     1
 79
     5
176
     1
170
     0
176
     1
171
     0
176
     1
290
     0
176
     1
 93
        1
176
     1
 44
0.0
176
     1
173
     0
176
     1
  0
VISUALSTYLE
  5
32
102
{ACAD_REACTORS
330
2A
102
}
330
2A
100
AcDbVisualStyle
  2
Basic
 70
     7
177
     2
291
     1
 71
     1
176
     1
 72
     0
176
     1
 73
     1
176
     1
 90
        0
176
     1
 40
-0.6
176
     1
 41
-30.0
176
     1
 62
     5
 63
     7
421
 16777215
176
     1
 74
     0
176
     1
 91
        4
176
     1
 64
     7
176
     1
 65
   257
176
     1
 75
     1
176
     1
175
     1
176
     1
 42
1.0
176
     1
 92
        8
176
     1
 66
     7
176
     1
 43
1.0
176
     1
 76
     1
176
     1
 77
     6
176
     1
 78
     2
176
     1
 67
     7
176
     1
 79
     5
176
     1
170
     0
176
     1
171
     0
176
     1
290
     0
176
     1
 93
        1
176
     1
 44
0.0
176
     1
173
     0
176
     1
  0
VISUALSTYLE
  5
36
102
{ACAD_REACTORS
330
2A
102
}
330
2A
100
AcDbVisualStyle
  2
Brighten
 70
    12
177
     2
291
     1
 71
     2
176
     1
 72
     2
176
     1
 73
     0
176
     1
 90
        0
176
     1
 40
-0.6
176
     1
 41
-30.0
176
     1
 62
     5
 63
     7
421
 16777215
176
     1
 74
     1
176
     1
 91
        4
176
     1
 64
     7
176
     1
 65
   257
176
     1
 75
     1
176
     1
175
     1
176
     1
 42
1.0
176
     1
 92
        8
176
     1
 66
     7
176
     1
 43
1.0
176
     1
 76
     1
176
     1
 77
     6
176
     1
 78
     2
176
     1
 67
     7
176
     1
 79
     5
176
     1
170
     0
176
     1
171
     0
176
     1
290
     0
176
     1
 93
        1
176
     1
 44
50.0
176
     1
173
     0
176
     1
  0
VISUALSTYLE
  5
3A
102
{ACAD_REACTORS
330
2A
102
}
330
2A
100
AcDbVisualStyle
  2
ColorChange
 70
    16
177
     2
291
     1
 71
     2
176
     1
 72
     2
176
     1
 73
     3
176
     1
 90
        0
176
     1
 40
-0.6
176
     1
 41
-30.0
176
     1
 62
     5
 63
     8
421
  8421504
176
     1
 74
     1
176
     1
 91
        4
176
     1
 64
     7
176
     1
 65
   257
176
     1
 75
     1
176
     1
175
     1
176
     1
 42
1.0
176
     1
 92
        8
176
     1
 66
     8
424
  8421504
176
     1
 43
1.0
176
     1
 76
     1
176
     1
 77
     6
176
     1
 78
     2
176
     1
 67
     7
176
     1
 79
     5
176
     1
170
     0
176
     1
171
     0
176
     1
290
     0
176
     1
 93
        1
176
     1
 44
0.0
176
     1
173
     0
176
     1
  0
VISUALSTYLE
  5
34
102
{ACAD_REACTORS
330
2A
102
}
330
2A
100
AcDbVisualStyle
  2
Conceptual
 70
     9
177
     2
291
     0
 71
     3
176
     1
 72
     2
176
     1
 73
     0
176
     1
 90
        0
176
     1
 40
-0.6
176
     1
 41
-30.0
176
     1
 62
     5
 63
     7
421
 16777215
176
     1
 74
     2
176
     1
 91
        2
176
     1
 64
     7
176
     1
 65
   257
176
     1
 75
     1
176
     1
175
     1
176
     1
 42
40.0
176
     1
 92
        8
176
     1
 66
     7
176
     1
 43
1.0
176
     1
 76
     1
176
     1
 77
     6
176
     1
 78
     2
176
     1
 67
     7
176
     1
 79
     3
176
     1
170
     0
176
     1
171
     0
176
     1
290
     0
176
     1
 93
        1
176
     1
 44
0.0
176
     1
173
     0
176
     1
  0
VISUALSTYLE
  5
35
102
{ACAD_REACTORS
330
2A
102
}
330
2A
100
AcDbVisualStyle
  2
Dim
 70
    11
177
     2
291
     1
 71
     2
176
     1
 72
     2
176
     1
 73
     0
176
     1
 90
        0
176
     1
 40
-0.6
176
     1
 41
-30.0
176
     1
 62
     5
 63
     7
421
 16777215
176
     1
 74
     1
176
     1
 91
        4
176
     1
 64
     7
176
     1
 65
   257
176
     1
 75
     1
176
     1
175
     1
176
     1
 42
1.0
176
     1
 92
        8
176
     1
 66
     7
176
     1
 43
1.0
176
     1
 76
     1
176
     1
 77
     6
176
     1
 78
     2
176
     1
 67
     7
176
     1
 79
     5
176
     1
170
     0
176
     1
171
     0
176
     1
290
     0
176
     1
 93
        1
176
     1
 44
-50.0
176
     1
173
     0
176
     1
  0
VISUALSTYLE
  5
39
102
{ACAD_REACTORS
330
2A
102
}
330
2A
100
AcDbVisualStyle
  2
Facepattern
 70
    15
177
     2
291
     1
 71
     2
176
     1
 72
     2
176
     1
 73
     0
176
     1
 90
        0
176
     1
 40
-0.6
176
     1
 41
-30.0
176
     1
 62
     5
 63
     7
421
 16777215
176
     1
 74
     1
176
     1
 91
        4
176
     1
 64
     7
176
     1
 65
   257
176
     1
 75
     1
176
     1
175
     1
176
     1
 42
1.0
176
     1
 92
        8
176
     1
 66
     7
176
     1
 43
1.0
176
     1
 76
     1
176
     1
 77
     6
176
     1
 78
     2
176
     1
 67
     7
176
     1
 79
     5
176
     1
170
     0
176
     1
171
     0
176
     1
290
     0
176
     1
 93
        1
176
     1
 44
0.0
176
     1
173
     0
176
     1
  0
VISUALSTYLE
  5
2B
102
{ACAD_REACTORS
330
2A
102
}
330
2A
100
AcDbVisualStyle
  2
Flat
 70
     0
177
     2
291
     1
 71
     2
176
     1
 72
     1
176
     1
 73
     1
176
     1
 90
        2
176
     1
 40
-0.6
176
     1
 41
30.0
176
     1
 62
     5
 63
     7
421
 16777215
176
     1
 74
     0
176
     1
 91
        4
176
     1
 64
     7
176
     1
 65
   257
176
     1
 75
     1
176
     1
175
     1
176
     1
 42
1.0
176
     1
 92
        8
176
     1
 66
     7
176
     1
 43
1.0
176
     1
 76
     1
176
     1
 77
     6
176
     1
 78
     2
176
     1
 67
     7
176
     1
 79
     5
176
     1
170
     0
176
     1
171
     0
176
     1
290
     0
176
     1
 93
       13
176
     1
 44
0.0
176
     1
173
     0
176
     1
  0
VISUALSTYLE
  5
2C
102
{ACAD_REACTORS
330
2A
102
}
330
2A
100
AcDbVisualStyle
  2
FlatWithEdges
 70
     1
177
     2
291
     1
 71
     2
176
     1
 72
     1
176
     1
 73
     1
176
     1
 90
        2
176
     1
 40
-0.6
176
     1
 41
30.0
176
     1
 62
     5
 63
     7
421
 16777215
176
     1
 74
     1
176
     1
 91
        4
176
     1
 64
     7
176
     1
 65
   257
176
     1
 75
     1
176
     1
175
     1
176
     1
 42
1.0
176
     1
 92
        0
176
     1
 66
   257
176
     1
 43
1.0
176
     1
 76
     1
176
     1
 77
     6
176
     1
 78
     2
176
     1
 67
     7
176
     1
 79
     5
176
     1
170
     0
176
     1
171
     0
176
     1
290
     0
176
     1
 93
       13
176
     1
 44
0.0
176
     1
173
     0
176
     1
  0
VISUALSTYLE
  5
2D
102
{ACAD_REACTORS
330
2A
102
}
330
2A
100
AcDbVisualStyle
  2
Gouraud
 70
     2
177
     2
291
     1
 71
     2
176
     1
 72
     2
176
     1
 73
     1
176
     1
 90
        2
176
     1
 40
-0.6
176
     1
 41
30.0
176
     1
 62
     5
 63
     7
421
 16777215
176
     1
 74
     0
176
     1
 91
        4
176
     1
 64
     7
176
     1
 65
   257
176
     1
 75
     1
176
     1
175
     1
176
     1
 42
1.0
176
     1
 92
        0
176
     1
 66
     7
176
     1
 43
1.0
176
     1
 76
     1
176
     1
 77
     6
176
     1
 78
     2
176
     1
 67
     7
176
     1
 79
     5
176
     1
170
     0
176
     1
171
     0
176
     1
290
     0
176
     1
 93
       13
176
     1
 44
0.0
176
     1
173
     0
176
     1
  0
VISUALSTYLE
  5
2E
102
{ACAD_REACTORS
330
2A
102
}
330
2A
100
AcDbVisualStyle
  2
GouraudWithEdges
 70
     3
177
     2
291
     1
 71
     2
176
     1
 72
     2
176
     1
 73
     1
176
     1
 90
        2
176
     1
 40
-0.6
176
     1
 41
30.0
176
     1
 62
     5
 63
     7
421
 16777215
176
     1
 74
     1
176
     1
 91
        4
176
     1
 64
     7
176
     1
 65
   257
176
     1
 75
     1
176
     1
175
     1
176
     1
 42
1.0
176
     1
 92
        0
176
     1
 66
   257
176
     1
 43
1.0
176
     1
 76
     1
176
     1
 77
     6
176
     1
 78
     2
176
     1
 67
     7
176
     1
 79
     5
176
     1
170
     0
176
     1
171
     0
176
     1
290
     0
176
     1
 93
       13
176
     1
 44
0.0
176
     1
173
     0
176
     1
  0
VISUALSTYLE
  5
38
102
{ACAD_REACTORS
330
2A
102
}
330
2A
100
AcDbVisualStyle
  2
Linepattern
 70
    14
177
     2
291
     1
 71
     2
176
     1
 72
     2
176
     1
 73
     0
176
     1
 90
        0
176
     1
 40
-0.6
176
     1
 41
-30.0
176
     1
 62
     5
 63
     7
421
 16777215
176
     1
 74
     1
176
     1
 91
        4
176
     1
 64
     7
176
     1
 65
   257
176
     1
 75
     7
176
     1
175
     7
176
     1
 42
1.0
176
     1
 92
        8
176
     1
 66
     7
176
     1
 43
1.0
176
     1
 76
     1
176
     1
 77
     6
176
     1
 78
     2
176
     1
 67
     7
176
     1
 79
     5
176
     1
170
     0
176
     1
171
     0
176
     1
290
     0
176
     1
 93
        1
176
     1
 44
0.0
176
     1
173
     0
176
     1
  0
VISUALSTYLE
  5
33
102
{ACAD_REACTORS
330
2A
102
}
330
2A
100
AcDbVisualStyle
  2
Realistic
 70
     8
177
     2
291
     0
 71
     2
176
     1
 72
     2
176
     1
 73
     0
176
     1
 90
        0
176
     1
 40
-0.6
176
     1
 41
-30.0
176
     1
 62
     5
 63
     7
421
 16777215
176
     1
 74
     1
176
     1
 91
        0
176
     1
 64
     7
176
     1
 65
   257
176
     1
 75
     1
176
     1
175
     1
176
     1
 42
1.0
176
     1
 92
        8
176
     1
 66
     8
424
  7895160
176
     1
 43
1.0
176
     1
 76
     1
176
     1
 77
     6
176
     1
 78
     2
176
     1
 67
     7
176
     1
 79
     5
176
     1
170
     0
176
     1
171
     0
176
     1
290
     0
176
     1
 93
       13
176
     1
 44
0.0
176
     1
173
     0
176
     1
  0
VISUALSTYLE
  5
37
102
{ACAD_REACTORS
330
2A
102
}
330
2A
100
AcDbVisualStyle
  2
Thicken
 70
    13
177
     2
291
     1
 71
     2
176
     1
 72
     2
176
     1
 73
     0
176
     1
 90
        0
176
     1
 40
-0.6
176
     1
 41
-30.0
176
     1
 62
     5
 63
     7
421
 16777215
176
     1
 74
     1
176
     1
 91
        4
176
     1
 64
     7
176
     1
 65
   257
176
     1
 75
     1
176
     1
175
     1
176
     1
 42
1.0
176
     1
 92
       12
176
     1
 66
     7
176
     1
 43
1.0
176
     1
 76
     1
176
     1
 77
     6
176
     1
 78
     2
176
     1
 67
     7
176
     1
 79
     5
176
     1
170
     0
176
     1
171
     0
176
     1
290
     0
176
     1
 93
        1
176
     1
 44
0.0
176
     1
173
     0
176
     1
  0
ENDSEC
  0
EOF
