<?xml version="1.0" encoding="utf-8"?>
<!-- Generator: Adobe Illustrator 19.2.1, SVG Export Plug-In . SVG Version: 6.00 Build 0)  -->
<svg version="1.1" id="Layer_1" xmlns="http://www.w3.org/2000/svg" xmlns:xlink="http://www.w3.org/1999/xlink" x="0px" y="0px"
	 viewBox="0 0 100 125" style="enable-background:new 0 0 100 125;" xml:space="preserve">
<g>
	<path d="M36.3,95C23,95,12.2,84.2,12.2,70.8c0-2.7,0.2-4.7,0.4-6.5c0.3-2.8,0.5-5-0.1-9C11.8,50.5,9.4,37.5,8,29.8
		c-0.6-3.3-1.1-5.8-1.2-6.6c-0.6-3.4,0.8-5.9,3.8-6.6c1.2-0.3,2.4-0.2,3.4,0.1c-0.2-0.7-0.3-1.2-0.3-1.4C13,12.5,14.4,9.9,17,9
		c0.6-0.2,1.3-0.3,1.9-0.3c2.1,0,4,1.3,4.8,3.3c0.7,1.8,9.5,31.2,10,33.4c0.3,1.4,0.8,1.4,1.2,1.4c0.2,0,1-0.2,1.2-1.3
		c0.3-1.8,8.9-33.9,10.1-36.9C47,6.3,48.9,5,51.3,5c0.6,0,1.2,0.1,1.8,0.2c3,0.7,4.4,3.5,4.2,6c0.9-0.5,2-0.9,3.1-0.9
		c0.5,0,1,0.1,1.4,0.2c3.2,0.7,5.2,3.6,4.7,7c-0.6,4.1-5.5,30.5-6,32.7c-0.4,2-1.3,9-1.1,12c0.2,4.2,3,7,6.9,7c2.2,0,4.4-1.3,7-2.8
		c3.1-1.9,6.7-4,11.3-4.2c0.3,0,0.6,0,0.8,0c2.3,0,4.2,0.5,5.6,1.4c1.4,0.9,2.3,2.2,2.5,3.7c0.5,3-1.7,5.9-5.4,7.1
		c-2.4,0.8-5.5,3.2-8.8,5.8c-4.1,3.2-8.4,6.6-12.4,7.7c-2.4,0.7-4.8,1.5-7.3,2.4C53,92.5,45.8,95,36.3,95z M12,18.8
		c-0.3,0-0.7,0-1.1,0.1c-1.7,0.4-2.3,1.7-2,3.8c0.1,0.8,0.6,3.4,1.2,6.6c1.5,8.3,3.8,20.8,4.5,25.6c0.6,4.3,0.4,6.8,0.1,9.6
		c-0.2,1.7-0.3,3.7-0.3,6.3c0,12,9.8,21.8,21.8,21.8c9,0,15.8-2.4,22.4-4.7c2.6-0.9,5-1.8,7.5-2.4c3.5-1,7.6-4.2,11.5-7.3
		c3.5-2.7,6.8-5.3,9.6-6.2c2.9-1,4-3,3.8-4.5c-0.3-1.9-2.5-3.1-5.7-3.1c-0.2,0-0.5,0-0.7,0c-4,0.2-7.1,2.1-10.1,3.9
		c-2.7,1.6-5.3,3.2-8.2,3.2c-5.2,0-9-3.8-9.3-9.2c-0.2-3.3,0.7-10.4,1.2-12.6c0.5-2.2,5.4-28.5,5.9-32.6c0.3-2.2-0.8-3.9-2.8-4.3
		c-0.3-0.1-0.6-0.1-0.9-0.1c-1.6,0-2.8,0.9-3.3,2.4C56.5,17,51.4,39.4,48.8,51c-0.1,0.6-0.8,1-1.4,0.9c-0.6-0.1-1-0.8-0.9-1.4
		c0.3-1.5,7.9-37,8.4-39c0.3-1.3-0.2-3.4-2.3-3.9c-0.4-0.1-0.8-0.2-1.2-0.2c-1.4,0-2.4,0.7-3,2c-1.2,3-9.8,35-10,36.4
		c-0.3,2.2-2.1,3.3-3.6,3.3c-1.8,0-2.9-1.1-3.5-3.2c-0.4-1.7-9.2-31.3-9.9-33.1C21.1,12,20.2,11,18.8,11c-0.4,0-0.8,0.1-1.1,0.2
		c-1.5,0.5-2.2,1.9-1.8,3.5c0.6,2.3,8.7,36.4,8.8,36.7c0.2,0.6-0.2,1.3-0.9,1.4c-0.6,0.2-1.3-0.2-1.4-0.9
		c-0.1-0.3-7.1-29.4-7.6-31.5C14.3,19,12.6,18.8,12,18.8z"/>
</g>
</svg>
