  0
SECTION
  2
HEADER
  9
$ACADVER
  1
AC1024
  9
$ACADMAINTVER
 70
     6
  9
$DWGCODEPAGE
  3
UNDEFINED
  9
$INSBASE
 10
0.0
 20
0.0
 30
0.0
  9
$EXTMIN
 10
1.000000000000000E+20
 20
1.000000000000000E+20
 30
1.000000000000000E+20
  9
$EXTMAX
 10
-1.000000000000000E+20
 20
-1.000000000000000E+20
 30
-1.000000000000000E+20
  9
$LIMMIN
 10
0.0
 20
0.0
  9
$LIMMAX
 10
12.0
 20
9.0
  9
$ORTHOMODE
 70
     0
  9
$REGENMODE
 70
     1
  9
$FILLMODE
 70
     1
  9
$QTEXTMODE
 70
     0
  9
$MIRRTEXT
 70
     1
  9
$LTSCALE
 40
1.0
  9
$ATTMODE
 70
     1
  9
$TEXTSIZE
 40
0.2
  9
$TRACEWID
 40
0.05
  9
$TEXTSTYLE
  7
Standard
  9
$CLAYER
  8
0
  9
$CELTYPE
  6
ByLayer
  9
$CECOLOR
 62
   256
  9
$CELTSCALE
 40
1.0
  9
$DISPSILH
 70
     0
  9
$DIMSCALE
 40
1.0
  9
$DIMASZ
 40
0.18
  9
$DIMEXO
 40
0.0625
  9
$DIMDLI
 40
0.38
  9
$DIMRND
 40
0.0
  9
$DIMDLE
 40
0.0
  9
$DIMEXE
 40
0.18
  9
$DIMTP
 40
0.0
  9
$DIMTM
 40
0.0
  9
$DIMTXT
 40
0.18
  9
$DIMCEN
 40
0.09
  9
$DIMTSZ
 40
0.0
  9
$DIMTOL
 70
     0
  9
$DIMLIM
 70
     0
  9
$DIMTIH
 70
     1
  9
$DIMTOH
 70
     1
  9
$DIMSE1
 70
     0
  9
$DIMSE2
 70
     0
  9
$DIMTAD
 70
     0
  9
$DIMZIN
 70
     0
  9
$DIMBLK
  1

  9
$DIMASO
 70
     1
  9
$DIMSHO
 70
     1
  9
$DIMPOST
  1

  9
$DIMAPOST
  1

  9
$DIMALT
 70
     0
  9
$DIMALTD
 70
     2
  9
$DIMALTF
 40
25.4
  9
$DIMLFAC
 40
1.0
  9
$DIMTOFL
 70
     0
  9
$DIMTVP
 40
0.0
  9
$DIMTIX
 70
     0
  9
$DIMSOXD
 70
     0
  9
$DIMSAH
 70
     0
  9
$DIMBLK1
  1

  9
$DIMBLK2
  1

  9
$DIMSTYLE
  2
Standard
  9
$DIMCLRD
 70
     0
  9
$DIMCLRE
 70
     0
  9
$DIMCLRT
 70
     0
  9
$DIMTFAC
 40
1.0
  9
$DIMGAP
 40
0.09
  9
$DIMJUST
 70
     0
  9
$DIMSD1
 70
     0
  9
$DIMSD2
 70
     0
  9
$DIMTOLJ
 70
     1
  9
$DIMTZIN
 70
     0
  9
$DIMALTZ
 70
     0
  9
$DIMALTTZ
 70
     0
  9
$DIMUPT
 70
     0
  9
$DIMDEC
 70
     4
  9
$DIMTDEC
 70
     4
  9
$DIMALTU
 70
     2
  9
$DIMALTTD
 70
     2
  9
$DIMTXSTY
  7
Standard
  9
$DIMAUNIT
 70
     0
  9
$DIMADEC
 70
     0
  9
$DIMALTRND
 40
0.0
  9
$DIMAZIN
 70
     0
  9
$DIMDSEP
 70
    46
  9
$DIMATFIT
 70
     3
  9
$DIMFRAC
 70
     0
  9
$DIMLDRBLK
  1

  9
$DIMLUNIT
 70
     2
  9
$DIMLWD
 70
    -2
  9
$DIMLWE
 70
    -2
  9
$DIMTMOVE
 70
     0
  9
$DIMFXL
 40
1.0
  9
$DIMFXLON
 70
     0
  9
$DIMJOGANG
 40
0.7853981633974483
  9
$DIMTFILL
 70
     0
  9
$DIMTFILLCLR
 70
     0
  9
$DIMARCSYM
 70
     0
  9
$DIMLTYPE
  6

  9
$DIMLTEX1
  6

  9
$DIMLTEX2
  6

  9
$DIMTXTDIRECTION
 70
     0
  9
$LUNITS
 70
     2
  9
$LUPREC
 70
     4
  9
$SKETCHINC
 40
0.1
  9
$FILLETRAD
 40
0.5
  9
$AUNITS
 70
     0
  9
$AUPREC
 70
     0
  9
$MENU
  1
.
  9
$ELEVATION
 40
0.0
  9
$PELEVATION
 40
0.0
  9
$THICKNESS
 40
0.0
  9
$LIMCHECK
 70
     0
  9
$CHAMFERA
 40
0.5
  9
$CHAMFERB
 40
0.5
  9
$CHAMFERC
 40
1.0
  9
$CHAMFERD
 40
0.0
  9
$SKPOLY
 70
     0
  9
$TDCREATE
 40
2457525.589930544
  9
$TDUCREATE
 40
2457525.798263889
  9
$TDUPDATE
 40
2457525.589930544
  9
$TDUUPDATE
 40
2457525.798263889
  9
$TDINDWG
 40
0.0000000116
  9
$TDUSRTIMER
 40
0.0000000116
  9
$USRTIMER
 70
     1
  9
$ANGBASE
 50
0.0
  9
$ANGDIR
 70
     0
  9
$PDMODE
 70
     0
  9
$PDSIZE
 40
0.0
  9
$PLINEWID
 40
0.0
  9
$SPLFRAME
 70
     0
  9
$SPLINETYPE
 70
     6
  9
$SPLINESEGS
 70
     8
  9
$HANDSEED
  5
4A
  9
$SURFTAB1
 70
     6
  9
$SURFTAB2
 70
     6
  9
$SURFTYPE
 70
     6
  9
$SURFU
 70
     6
  9
$SURFV
 70
     6
  9
$UCSBASE
  2

  9
$UCSNAME
  2

  9
$UCSORG
 10
0.0
 20
0.0
 30
0.0
  9
$UCSXDIR
 10
1.0
 20
0.0
 30
0.0
  9
$UCSYDIR
 10
0.0
 20
1.0
 30
0.0
  9
$UCSORTHOREF
  2

  9
$UCSORTHOVIEW
 70
     0
  9
$UCSORGTOP
 10
0.0
 20
0.0
 30
0.0
  9
$UCSORGBOTTOM
 10
0.0
 20
0.0
 30
0.0
  9
$UCSORGLEFT
 10
0.0
 20
0.0
 30
0.0
  9
$UCSORGRIGHT
 10
0.0
 20
0.0
 30
0.0
  9
$UCSORGFRONT
 10
0.0
 20
0.0
 30
0.0
  9
$UCSORGBACK
 10
0.0
 20
0.0
 30
0.0
  9
$PUCSBASE
  2

  9
$PUCSNAME
  2

  9
$PUCSORG
 10
0.0
 20
0.0
 30
0.0
  9
$PUCSXDIR
 10
1.0
 20
0.0
 30
0.0
  9
$PUCSYDIR
 10
0.0
 20
1.0
 30
0.0
  9
$PUCSORTHOREF
  2

  9
$PUCSORTHOVIEW
 70
     0
  9
$PUCSORGTOP
 10
0.0
 20
0.0
 30
0.0
  9
$PUCSORGBOTTOM
 10
0.0
 20
0.0
 30
0.0
  9
$PUCSORGLEFT
 10
0.0
 20
0.0
 30
0.0
  9
$PUCSORGRIGHT
 10
0.0
 20
0.0
 30
0.0
  9
$PUCSORGFRONT
 10
0.0
 20
0.0
 30
0.0
  9
$PUCSORGBACK
 10
0.0
 20
0.0
 30
0.0
  9
$USERI1
 70
     0
  9
$USERI2
 70
     0
  9
$USERI3
 70
     0
  9
$USERI4
 70
     0
  9
$USERI5
 70
     0
  9
$USERR1
 40
0.0
  9
$USERR2
 40
0.0
  9
$USERR3
 40
0.0
  9
$USERR4
 40
0.0
  9
$USERR5
 40
0.0
  9
$WORLDVIEW
 70
     1
  9
$SHADEDGE
 70
     3
  9
$SHADEDIF
 70
    70
  9
$TILEMODE
 70
     1
  9
$MAXACTVP
 70
    64
  9
$PINSBASE
 10
0.0
 20
0.0
 30
0.0
  9
$PLIMCHECK
 70
     0
  9
$PEXTMIN
 10
1.000000000000000E+20
 20
1.000000000000000E+20
 30
1.000000000000000E+20
  9
$PEXTMAX
 10
-1.000000000000000E+20
 20
-1.000000000000000E+20
 30
-1.000000000000000E+20
  9
$PLIMMIN
 10
0.0
 20
0.0
  9
$PLIMMAX
 10
12.0
 20
9.0
  9
$UNITMODE
 70
     0
  9
$VISRETAIN
 70
     1
  9
$PLINEGEN
 70
     0
  9
$PSLTSCALE
 70
     1
  9
$TREEDEPTH
 70
  3020
  9
$CMLSTYLE
  2
Standard
  9
$CMLJUST
 70
     0
  9
$CMLSCALE
 40
1.0
  9
$PROXYGRAPHICS
 70
     1
  9
$MEASUREMENT
 70
     0
  9
$CELWEIGHT
370
    -1
  9
$ENDCAPS
280
     0
  9
$JOINSTYLE
280
     0
  9
$LWDISPLAY
290
     1
  9
$INSUNITS
 70
     1
  9
$HYPERLINKBASE
  1

  9
$STYLESHEET
  1

  9
$XEDIT
290
     1
  9
$CEPSNTYPE
380
     0
  9
$PSTYLEMODE
290
     1
  9
$FINGERPRINTGUID
  2
{EC3FD296-6056-45A1-2C1D-E36CA5F9CF82}
  9
$VERSIONGUID
  2
{FAEB1C32-E019-11D5-929B-00C0DF256EC4}
  9
$EXTNAMES
290
     1
  9
$PSVPSCALE
 40
0.0
  9
$OLESTARTUP
290
     0
  9
$SORTENTS
280
   127
  9
$INDEXCTL
280
     0
  9
$HIDETEXT
280
     1
  9
$XCLIPFRAME
280
     2
  9
$HALOGAP
280
     0
  9
$OBSCOLOR
 70
   257
  9
$OBSLTYPE
280
     0
  9
$INTERSECTIONDISPLAY
280
     0
  9
$INTERSECTIONCOLOR
 70
   257
  9
$DIMASSOC
280
     2
  9
$PROJECTNAME
  1

  9
$CAMERADISPLAY
290
     0
  9
$LENSLENGTH
 40
50.0
  9
$CAMERAHEIGHT
 40
0.0
  9
$STEPSPERSEC
 40
2.0
  9
$STEPSIZE
 40
6.0
  9
$3DDWFPREC
 40
2.0
  9
$PSOLWIDTH
 40
0.25
  9
$PSOLHEIGHT
 40
4.0
  9
$LOFTANG1
 40
1.570796326794897
  9
$LOFTANG2
 40
1.570796326794897
  9
$LOFTMAG1
 40
0.0
  9
$LOFTMAG2
 40
0.0
  9
$LOFTPARAM
 70
     7
  9
$LOFTNORMALS
280
     1
  9
$LATITUDE
 40
37.795
  9
$LONGITUDE
 40
-122.394
  9
$NORTHDIRECTION
 40
0.0
  9
$TIMEZONE
 70
 -8000
  9
$LIGHTGLYPHDISPLAY
280
     1
  9
$TILEMODELIGHTSYNCH
280
     1
  9
$CMATERIAL
347
3C
  9
$SOLIDHIST
280
     1
  9
$SHOWHIST
280
     1
  9
$DWFFRAME
280
     2
  9
$DGNFRAME
280
     2
  9
$REALWORLDSCALE
290
     1
  9
$INTERFERECOLOR
 62
   256
  9
$CSHADOW
280
     0
  9
$SHADOWPLANELOCATION
 40
0.0
  0
ENDSEC
  0
SECTION
  2
CLASSES
  0
CLASS
  1
ACDBDICTIONARYWDFLT
  2
AcDbDictionaryWithDefault
  3
ObjectDBX Classes
 90
        0
 91
        4
280
     0
281
     0
  0
CLASS
  1
VISUALSTYLE
  2
AcDbVisualStyle
  3
ObjectDBX Classes
 90
     4095
 91
        4
280
     0
281
     0
  0
CLASS
  1
MATERIAL
  2
AcDbMaterial
  3
ObjectDBX Classes
 90
     1153
 91
        4
280
     0
281
     0
  0
CLASS
  1
SUN
  2
AcDbSun
  3
SCENEOE
 90
     1024
 91
        4
280
     0
281
     0
  0
ENDSEC
  0
SECTION
  2
TABLES
  0
TABLE
  2
VPORT
  5
8
330
0
100
AcDbSymbolTable
 70
     1
  0
VPORT
  5
29
330
8
100
AcDbSymbolTableRecord
100
AcDbViewportTableRecord
  2
*Active
 70
     0
 10
0.0
 20
0.0
 11
1.0
 21
1.0
 12
0.0
 22
0.0
 13
0.0
 23
0.0
 14
0.5
 24
0.5
 15
0.5
 25
0.5
 16
0.0
 26
0.0
 36
1.0
 17
50.0
 27
62.5
 37
0.0
 40
125.0
 41
0.8
 42
50.0
 43
0.0
 44
0.0
 50
0.0
 51
0.0
 71
     0
 72
   100
 73
     1
 74
     3
 75
     0
 76
     0
 77
     0
 78
     0
281
     0
 65
     1
110
0.0
120
0.0
130
0.0
111
1.0
121
0.0
131
0.0
112
0.0
122
1.0
132
0.0
 79
     0
146
0.0
 60
     3
 61
     5
292
     1
282
     1
141
0.0
142
0.0
 63
   250
361
3F
  0
ENDTAB
  0
TABLE
  2
LTYPE
  5
5
330
0
100
AcDbSymbolTable
 70
     1
  0
LTYPE
  5
14
330
5
100
AcDbSymbolTableRecord
100
AcDbLinetypeTableRecord
  2
ByBlock
 70
     0
  3

 72
    65
 73
     0
 40
0.0
  0
LTYPE
  5
15
330
5
100
AcDbSymbolTableRecord
100
AcDbLinetypeTableRecord
  2
ByLayer
 70
     0
  3

 72
    65
 73
     0
 40
0.0
  0
LTYPE
  5
16
330
5
100
AcDbSymbolTableRecord
100
AcDbLinetypeTableRecord
  2
Continuous
 70
     0
  3
Solid line
 72
    65
 73
     0
 40
0.0
  0
ENDTAB
  0
TABLE
  2
LAYER
  5
2
330
0
100
AcDbSymbolTable
 70
     2
  0
LAYER
  5
10
330
2
100
AcDbSymbolTableRecord
100
AcDbLayerTableRecord
  2
0
 70
     0
 62
     7
  6
Continuous
370
    -3
390
F
347
3E
  0
LAYER
  5
40
330
2
100
AcDbSymbolTableRecord
100
AcDbLayerTableRecord
  2
Layer 1
 70
     0
 62
     7
  6
Continuous
370
    -3
390
F
347
3E
  0
ENDTAB
  0
TABLE
  2
STYLE
  5
3
330
0
100
AcDbSymbolTable
 70
     1
  0
STYLE
  5
11
330
3
100
AcDbSymbolTableRecord
100
AcDbTextStyleTableRecord
  2
Standard
 70
     0
 40
0.0
 41
1.0
 50
0.0
 71
     0
 42
0.2
  3
txt
  4

  0
ENDTAB
  0
TABLE
  2
VIEW
  5
6
330
0
100
AcDbSymbolTable
 70
     0
  0
ENDTAB
  0
TABLE
  2
UCS
  5
7
330
0
100
AcDbSymbolTable
 70
     0
  0
ENDTAB
  0
TABLE
  2
APPID
  5
9
330
0
100
AcDbSymbolTable
 70
     1
  0
APPID
  5
12
330
9
100
AcDbSymbolTableRecord
100
AcDbRegAppTableRecord
  2
ACAD
 70
     0
  0
ENDTAB
  0
TABLE
  2
DIMSTYLE
  5
A
330
0
100
AcDbSymbolTable
 70
     1
100
AcDbDimStyleTable
  0
DIMSTYLE
105
27
330
A
100
AcDbSymbolTableRecord
100
AcDbDimStyleTableRecord
  2
Standard
 70
     0
178
     0
340
11
  0
ENDTAB
  0
TABLE
  2
BLOCK_RECORD
  5
1
330
0
100
AcDbSymbolTable
 70
     2
  0
BLOCK_RECORD
  5
1F
330
1
100
AcDbSymbolTableRecord
100
AcDbBlockTableRecord
  2
*Model_Space
340
22
 70
     0
280
     1
281
     0
  0
BLOCK_RECORD
  5
1B
330
1
100
AcDbSymbolTableRecord
100
AcDbBlockTableRecord
  2
*Paper_Space
340
1E
 70
     0
280
     1
281
     0
  0
BLOCK_RECORD
  5
23
330
1
100
AcDbSymbolTableRecord
100
AcDbBlockTableRecord
  2
*Paper_Space0
340
26
 70
     0
280
     1
281
     0
  0
BLOCK_RECORD
  5
41
330
1
100
AcDbSymbolTableRecord
100
AcDbBlockTableRecord
  2
block 2
340
0
102
{BLKREFS
331
42
102
}
 70
     0
280
     1
281
     0
  0
ENDTAB
  0
ENDSEC
  0
SECTION
  2
BLOCKS
  0
BLOCK
  5
20
330
1F
100
AcDbEntity
  8
0
100
AcDbBlockBegin
  2
*Model_Space
 70
     0
 10
0.0
 20
0.0
 30
0.0
  3
*Model_Space
  1

  0
ENDBLK
  5
21
330
1F
100
AcDbEntity
  8
0
100
AcDbBlockEnd
  0
BLOCK
  5
1C
330
1B
100
AcDbEntity
 67
     1
  8
0
100
AcDbBlockBegin
  2
*Paper_Space
 70
     0
 10
0.0
 20
0.0
 30
0.0
  3
*Paper_Space
  1

  0
ENDBLK
  5
1D
330
1B
100
AcDbEntity
 67
     1
  8
0
100
AcDbBlockEnd
  0
BLOCK
  5
24
330
23
100
AcDbEntity
  8
0
100
AcDbBlockBegin
  2
*Paper_Space0
 70
     0
 10
0.0
 20
0.0
 30
0.0
  3
*Paper_Space0
  1

  0
ENDBLK
  5
25
330
23
100
AcDbEntity
  8
0
100
AcDbBlockEnd
  0
BLOCK
  5
43
330
41
100
AcDbEntity
  8
0
100
AcDbBlockBegin
  2
block 2
 70
     0
 10
0.0
 20
0.0
 30
0.0
  3
block 2
  1

  0
SPLINE
  5
45
330
41
100
AcDbEntity
  8
Layer 1
370
     0
100
AcDbSpline
210
0.0
220
0.0
230
1.0
 70
    11
 71
     3
 72
   107
 73
   103
 74
     0
 42
0.0000000001
 43
0.0000000001
 12
1.0
 22
0.0
 32
0.0
 13
1.0
 23
0.0
 33
0.0
 40
0.0
 40
0.0
 40
0.0
 40
0.0
 40
1.0
 40
1.0
 40
1.0
 40
2.0
 40
2.0
 40
2.0
 40
3.0
 40
3.0
 40
3.0
 40
4.0
 40
4.0
 40
4.0
 40
5.0
 40
5.0
 40
5.0
 40
6.0
 40
6.0
 40
6.0
 40
7.0
 40
7.0
 40
7.0
 40
8.0
 40
8.0
 40
8.0
 40
9.0
 40
9.0
 40
9.0
 40
10.0
 40
10.0
 40
10.0
 40
11.0
 40
11.0
 40
11.0
 40
12.0
 40
12.0
 40
12.0
 40
13.0
 40
13.0
 40
13.0
 40
14.0
 40
14.0
 40
14.0
 40
15.0
 40
15.0
 40
15.0
 40
16.0
 40
16.0
 40
16.0
 40
17.0
 40
17.0
 40
17.0
 40
18.0
 40
18.0
 40
18.0
 40
19.0
 40
19.0
 40
19.0
 40
20.0
 40
20.0
 40
20.0
 40
21.0
 40
21.0
 40
21.0
 40
22.0
 40
22.0
 40
22.0
 40
23.0
 40
23.0
 40
23.0
 40
24.0
 40
24.0
 40
24.0
 40
25.0
 40
25.0
 40
25.0
 40
26.0
 40
26.0
 40
26.0
 40
27.0
 40
27.0
 40
27.0
 40
28.0
 40
28.0
 40
28.0
 40
29.0
 40
29.0
 40
29.0
 40
30.0
 40
30.0
 40
30.0
 40
31.0
 40
31.0
 40
31.0
 40
32.0
 40
32.0
 40
32.0
 40
33.0
 40
33.0
 40
33.0
 40
34.0
 40
34.0
 40
34.0
 40
34.0
 10
36.29999923706055
 20
30.0
 30
0.0
 10
23.0
 20
30.0
 30
0.0
 10
12.19999980926514
 20
40.80000305175781
 30
0.0
 10
12.19999980926514
 20
54.19999694824219
 30
0.0
 10
12.19999980926514
 20
56.89999389648438
 30
0.0
 10
12.39999961853027
 20
58.89999389648438
 30
0.0
 10
12.59999942779541
 20
60.69999694824219
 30
0.0
 10
12.89999961853027
 20
63.49999618530273
 30
0.0
 10
13.09999942779541
 20
65.69999694824219
 30
0.0
 10
12.49999904632568
 20
69.69999694824219
 30
0.0
 10
11.79999923706055
 20
74.49999618530273
 30
0.0
 10
9.399999618530273
 20
87.49999618530273
 30
0.0
 10
7.999999046325684
 20
95.19999694824219
 30
0.0
 10
7.399999141693115
 20
98.49999618530273
 30
0.0
 10
6.899999141693115
 20
100.9999961853027
 30
0.0
 10
6.799999237060547
 20
101.7999973297119
 30
0.0
 10
6.199999332427979
 20
105.1999969482422
 30
0.0
 10
7.59999942779541
 20
107.6999969482422
 30
0.0
 10
10.59999942779541
 20
108.3999977111816
 30
0.0
 10
11.79999923706055
 20
108.6999969482422
 30
0.0
 10
13.0
 20
108.5999984741211
 30
0.0
 10
14.0
 20
108.2999973297119
 30
0.0
 10
13.80000019073486
 20
108.9999980926514
 30
0.0
 10
13.69999980926514
 20
109.4999971389771
 30
0.0
 10
13.69999980926514
 20
109.6999969482422
 30
0.0
 10
13.0
 20
112.4999971389771
 30
0.0
 10
14.39999961853027
 20
115.0999965667725
 30
0.0
 10
17.0
 20
115.9999971389771
 30
0.0
 10
17.60000038146973
 20
116.1999969482422
 30
0.0
 10
18.29999923706055
 20
116.2999973297119
 30
0.0
 10
18.89999961853027
 20
116.2999973297119
 30
0.0
 10
21.0
 20
116.2999973297119
 30
0.0
 10
22.89999961853027
 20
114.9999971389771
 30
0.0
 10
23.70000076293945
 20
112.9999971389771
 30
0.0
 10
24.40000152587891
 20
111.1999969482422
 30
0.0
 10
33.20000076293945
 20
81.79999542236328
 30
0.0
 10
33.70000076293945
 20
79.59999465942383
 30
0.0
 10
34.0
 20
78.19999313354492
 30
0.0
 10
34.5
 20
78.19999313354492
 30
0.0
 10
34.90000152587891
 20
78.19999313354492
 30
0.0
 10
35.10000228881836
 20
78.19999313354492
 30
0.0
 10
35.90000152587891
 20
78.39999389648438
 30
0.0
 10
36.10000228881836
 20
79.49999237060547
 30
0.0
 10
36.40000152587891
 20
81.29999160766602
 30
0.0
 10
45.0
 20
113.3999938964844
 30
0.0
 10
46.20000457763672
 20
116.3999938964844
 30
0.0
 10
47.0
 20
118.6999998092651
 30
0.0
 10
48.90000152587891
 20
120.0
 30
0.0
 10
51.29999923706055
 20
120.0
 30
0.0
 10
51.89999771118164
 20
120.0
 30
0.0
 10
52.5
 20
119.9000000953674
 30
0.0
 10
53.09999847412109
 20
119.8000001907349
 30
0.0
 10
56.09999847412109
 20
119.1000003814697
 30
0.0
 10
57.5
 20
116.3000001907349
 30
0.0
 10
57.29999923706055
 20
113.8000001907349
 30
0.0
 10
58.20000076293945
 20
114.3000001907349
 30
0.0
 10
59.29999923706055
 20
114.6999998092651
 30
0.0
 10
60.39999771118164
 20
114.6999998092651
 30
0.0
 10
60.89999771118164
 20
114.6999998092651
 30
0.0
 10
61.39999771118164
 20
114.5999994277954
 30
0.0
 10
61.79999923706055
 20
114.5
 30
0.0
 10
65.0
 20
113.8000001907349
 30
0.0
 10
67.0
 20
110.8999996185303
 30
0.0
 10
66.5
 20
107.5
 30
0.0
 10
65.9000015258789
 20
103.3999996185303
 30
0.0
 10
61.0
 20
77.0
 30
0.0
 10
60.5
 20
74.79999923706055
 30
0.0
 10
60.09999847412109
 20
72.79999923706055
 30
0.0
 10
59.20000076293945
 20
65.79999923706055
 30
0.0
 10
59.40000152587891
 20
62.79999923706055
 30
0.0
 10
59.60000228881836
 20
58.59999847412109
 30
0.0
 10
62.40000152587891
 20
55.80000305175781
 30
0.0
 10
66.30000305175781
 20
55.80000305175781
 30
0.0
 10
68.5
 20
55.80000305175781
 30
0.0
 10
70.70000457763672
 20
57.10000610351562
 30
0.0
 10
73.30000305175781
 20
58.60000610351562
 30
0.0
 10
76.4000015258789
 20
60.50000762939453
 30
0.0
 10
80.0
 20
62.60000610351562
 30
0.0
 10
84.60000610351562
 20
62.80000686645508
 30
0.0
 10
84.90000915527344
 20
62.80000686645508
 30
0.0
 10
85.20000457763672
 20
62.80000686645508
 30
0.0
 10
85.40000915527344
 20
62.80000686645508
 30
0.0
 10
87.70001220703125
 20
62.80000686645508
 30
0.0
 10
89.60000610351562
 20
62.30000686645508
 30
0.0
 10
91.00000762939453
 20
61.40000534057617
 30
0.0
 10
92.40000915527344
 20
60.50000762939453
 30
0.0
 10
93.30001068115234
 20
59.20000457763672
 30
0.0
 10
93.50000762939453
 20
57.70000457763672
 30
0.0
 10
94.00000762939453
 20
54.70000457763672
 30
0.0
 10
91.80001068115234
 20
51.80000305175781
 30
0.0
 10
88.10000610351562
 20
50.60000610351562
 30
0.0
 10
85.70000457763672
 20
49.80000305175781
 30
0.0
 10
82.60000610351562
 20
47.40000915527344
 30
0.0
 10
79.30000305175781
 20
44.80000305175781
 30
0.0
 10
75.20000457763672
 20
41.60000610351562
 30
0.0
 10
70.9000015258789
 20
38.20000457763672
 30
0.0
 10
66.9000015258789
 20
37.10000610351562
 30
0.0
 10
64.5
 20
36.40000915527344
 30
0.0
 10
62.10000228881836
 20
35.60000610351562
 30
0.0
 10
59.60000228881836
 20
34.70000457763672
 30
0.0
 10
53.0
 20
32.5
 30
0.0
 10
45.79999923706055
 20
30.0
 30
0.0
 10
36.29999923706055
 20
30.0
 30
0.0
  0
SPLINE
  5
46
330
41
100
AcDbEntity
  8
Layer 1
370
     0
100
AcDbSpline
210
0.0
220
0.0
230
1.0
 70
    11
 71
     3
 72
   128
 73
   124
 74
     0
 42
0.0000000001
 43
0.0000000001
 12
1.0
 22
0.0
 32
0.0
 13
1.0
 23
0.0
 33
0.0
 40
0.0
 40
0.0
 40
0.0
 40
0.0
 40
1.0
 40
1.0
 40
1.0
 40
2.0
 40
2.0
 40
2.0
 40
3.0
 40
3.0
 40
3.0
 40
4.0
 40
4.0
 40
4.0
 40
5.0
 40
5.0
 40
5.0
 40
6.0
 40
6.0
 40
6.0
 40
7.0
 40
7.0
 40
7.0
 40
8.0
 40
8.0
 40
8.0
 40
9.0
 40
9.0
 40
9.0
 40
10.0
 40
10.0
 40
10.0
 40
11.0
 40
11.0
 40
11.0
 40
12.0
 40
12.0
 40
12.0
 40
13.0
 40
13.0
 40
13.0
 40
14.0
 40
14.0
 40
14.0
 40
15.0
 40
15.0
 40
15.0
 40
16.0
 40
16.0
 40
16.0
 40
17.0
 40
17.0
 40
17.0
 40
18.0
 40
18.0
 40
18.0
 40
19.0
 40
19.0
 40
19.0
 40
20.0
 40
20.0
 40
20.0
 40
21.0
 40
21.0
 40
21.0
 40
22.0
 40
22.0
 40
22.0
 40
23.0
 40
23.0
 40
23.0
 40
24.0
 40
24.0
 40
24.0
 40
25.0
 40
25.0
 40
25.0
 40
26.0
 40
26.0
 40
26.0
 40
27.0
 40
27.0
 40
27.0
 40
28.0
 40
28.0
 40
28.0
 40
29.0
 40
29.0
 40
29.0
 40
30.0
 40
30.0
 40
30.0
 40
31.0
 40
31.0
 40
31.0
 40
32.0
 40
32.0
 40
32.0
 40
33.0
 40
33.0
 40
33.0
 40
34.0
 40
34.0
 40
34.0
 40
35.0
 40
35.0
 40
35.0
 40
36.0
 40
36.0
 40
36.0
 40
37.0
 40
37.0
 40
37.0
 40
38.0
 40
38.0
 40
38.0
 40
39.0
 40
39.0
 40
39.0
 40
40.0
 40
40.0
 40
40.0
 40
41.0
 40
41.0
 40
41.0
 40
41.0
 10
12.0
 20
106.2000007629395
 30
0.0
 10
11.69999980926514
 20
106.2000007629395
 30
0.0
 10
11.30000019073486
 20
106.2000007629395
 30
0.0
 10
10.89999961853027
 20
106.1000003814697
 30
0.0
 10
9.199999809265137
 20
105.7000007629395
 30
0.0
 10
8.59999942779541
 20
104.3999996185303
 30
0.0
 10
8.899999618530273
 20
102.3000011444092
 30
0.0
 10
9.0
 20
101.5000019073486
 30
0.0
 10
9.5
 20
98.9000015258789
 30
0.0
 10
10.09999942779541
 20
95.70000076293945
 30
0.0
 10
11.59999942779541
 20
87.4000015258789
 30
0.0
 10
13.89999961853027
 20
74.9000015258789
 30
0.0
 10
14.59999942779541
 20
70.0999984741211
 30
0.0
 10
15.19999980926514
 20
65.79999923706055
 30
0.0
 10
14.99999904632568
 20
63.29999923706055
 30
0.0
 10
14.69999980926514
 20
60.5
 30
0.0
 10
14.5
 20
58.80000305175781
 30
0.0
 10
14.39999961853027
 20
56.80000305175781
 30
0.0
 10
14.39999961853027
 20
54.19999694824219
 30
0.0
 10
14.39999961853027
 20
42.19999694824219
 30
0.0
 10
24.20000076293945
 20
32.39999389648438
 30
0.0
 10
36.19999694824219
 20
32.39999389648438
 30
0.0
 10
45.19999694824219
 20
32.39999389648438
 30
0.0
 10
51.99999618530273
 20
34.79999542236328
 30
0.0
 10
58.59999847412109
 20
37.09999084472656
 30
0.0
 10
61.19999694824219
 20
37.99999237060547
 30
0.0
 10
63.59999847412109
 20
38.89999389648438
 30
0.0
 10
66.0999984741211
 20
39.49999237060547
 30
0.0
 10
69.5999984741211
 20
40.49999237060547
 30
0.0
 10
73.69999694824219
 20
43.69998931884766
 30
0.0
 10
77.5999984741211
 20
46.79999542236328
 30
0.0
 10
81.0999984741211
 20
49.49999237060547
 30
0.0
 10
84.4000015258789
 20
52.09999847412109
 30
0.0
 10
87.19999694824219
 20
52.99999237060547
 30
0.0
 10
90.0999984741211
 20
53.99999237060547
 30
0.0
 10
91.19999694824219
 20
55.99999237060547
 30
0.0
 10
91.0
 20
57.49999237060547
 30
0.0
 10
90.69999694824219
 20
59.39999389648438
 30
0.0
 10
88.5
 20
60.59999084472656
 30
0.0
 10
85.30000305175781
 20
60.59999084472656
 30
0.0
 10
85.10000610351562
 20
60.59999084472656
 30
0.0
 10
84.80000305175781
 20
60.59999084472656
 30
0.0
 10
84.60000610351562
 20
60.59999084472656
 30
0.0
 10
80.60000610351562
 20
60.39999389648438
 30
0.0
 10
77.50000762939453
 20
58.49999237060547
 30
0.0
 10
74.50000762939453
 20
56.69998931884766
 30
0.0
 10
71.80001068115234
 20
55.09999084472656
 30
0.0
 10
69.20000457763672
 20
53.49999237060547
 30
0.0
 10
66.30001068115234
 20
53.49999237060547
 30
0.0
 10
61.10000991821289
 20
53.49999237060547
 30
0.0
 10
57.30001068115234
 20
57.29999542236328
 30
0.0
 10
57.0000114440918
 20
62.69999313354492
 30
0.0
 10
56.80001068115234
 20
65.99999237060547
 30
0.0
 10
57.70001220703125
 20
73.09999084472656
 30
0.0
 10
58.20001220703125
 20
75.29999542236328
 30
0.0
 10
58.70001220703125
 20
77.49999618530273
 30
0.0
 10
63.60001373291016
 20
103.7999954223633
 30
0.0
 10
64.10001373291016
 20
107.8999938964844
 30
0.0
 10
64.40001678466797
 20
110.0999937057495
 30
0.0
 10
63.30001449584961
 20
111.7999935150146
 30
0.0
 10
61.30001449584961
 20
112.1999940872192
 30
0.0
 10
61.00001525878906
 20
112.299994468689
 30
0.0
 10
60.70001602172852
 20
112.299994468689
 30
0.0
 10
60.4000129699707
 20
112.299994468689
 30
0.0
 10
58.80001449584961
 20
112.299994468689
 30
0.0
 10
57.60001373291016
 20
111.3999948501587
 30
0.0
 10
57.10001373291016
 20
109.8999938964844
 30
0.0
 10
56.5
 20
108.0
 30
0.0
 10
51.40000152587891
 20
85.5999984741211
 30
0.0
 10
48.79999923706055
 20
74.0
 30
0.0
 10
48.70000076293945
 20
73.4000015258789
 30
0.0
 10
48.0
 20
73.0
 30
0.0
 10
47.39999771118164
 20
73.0999984741211
 30
0.0
 10
46.79999923706055
 20
73.19999694824219
 30
0.0
 10
46.39999771118164
 20
73.89999771118164
 30
0.0
 10
46.49999618530273
 20
74.5
 30
0.0
 10
46.79999542236328
 20
76.0
 30
0.0
 10
54.39999771118164
 20
111.5
 30
0.0
 10
54.89999389648438
 20
113.5
 30
0.0
 10
55.19999313354492
 20
114.8000001907349
 30
0.0
 10
54.69999313354492
 20
116.8999996185303
 30
0.0
 10
52.59999465942383
 20
117.4000000953674
 30
0.0
 10
52.19999313354492
 20
117.5
 30
0.0
 10
51.79999542236328
 20
117.5999999046326
 30
0.0
 10
51.39999389648438
 20
117.5999999046326
 30
0.0
 10
49.99999237060547
 20
117.5999999046326
 30
0.0
 10
48.99999237060547
 20
116.8999996185303
 30
0.0
 10
48.39999389648438
 20
115.6000003814697
 30
0.0
 10
47.19999313354492
 20
112.6000003814697
 30
0.0
 10
38.59999465942383
 20
80.5999984741211
 30
0.0
 10
38.39999389648438
 20
79.19999694824219
 30
0.0
 10
38.09999465942383
 20
76.99999618530273
 30
0.0
 10
36.29999542236328
 20
75.89999771118164
 30
0.0
 10
34.79999542236328
 20
75.89999771118164
 30
0.0
 10
32.99999618530273
 20
75.89999771118164
 30
0.0
 10
31.89999580383301
 20
76.99999618530273
 30
0.0
 10
31.29999542236328
 20
79.0999984741211
 30
0.0
 10
30.89999580383301
 20
80.79999923706055
 30
0.0
 10
22.09999465942383
 20
110.3999977111816
 30
0.0
 10
21.39999580383301
 20
112.1999969482422
 30
0.0
 10
21.09999656677246
 20
112.9999971389771
 30
0.0
 10
20.19999504089355
 20
113.9999971389771
 30
0.0
 10
18.79999542236328
 20
113.9999971389771
 30
0.0
 10
18.39999580383301
 20
113.9999971389771
 30
0.0
 10
17.99999618530273
 20
113.8999967575073
 30
0.0
 10
17.69999504089355
 20
113.7999973297119
 30
0.0
 10
16.19999504089355
 20
113.2999973297119
 30
0.0
 10
15.49999523162842
 20
111.8999977111816
 30
0.0
 10
15.89999485015869
 20
110.2999973297119
 30
0.0
 10
16.4999942779541
 20
107.9999980926514
 30
0.0
 10
24.59999465942383
 20
73.89999389648438
 30
0.0
 10
24.69999504089355
 20
73.5999984741211
 30
0.0
 10
24.89999580383301
 20
73.0
 30
0.0
 10
24.4999942779541
 20
72.29999923706055
 30
0.0
 10
23.79999542236328
 20
72.19999694824219
 30
0.0
 10
23.19999504089355
 20
71.99999618530273
 30
0.0
 10
22.49999618530273
 20
72.39999771118164
 30
0.0
 10
22.39999580383301
 20
73.0999984741211
 30
0.0
 10
22.29999542236328
 20
73.39999771118164
 30
0.0
 10
15.29999542236328
 20
102.4999980926514
 30
0.0
 10
14.79999542236328
 20
104.5999984741211
 30
0.0
 10
14.30000019073486
 20
106.0
 30
0.0
 10
12.60000038146973
 20
106.2000007629395
 30
0.0
 10
12.0
 20
106.2000007629395
 30
0.0
  0
HATCH
  5
47
330
41
100
AcDbEntity
  8
Layer 1
 62
     7
420
 16777215
100
AcDbHatch
 10
0.0
 20
0.0
 30
0.0
210
0.0
220
0.0
230
1.0
  2
SOLID
 70
     1
 71
     0
 91
        2
 92
        1
 93
        1
 72
     4
 94
        3
 73
     0
 74
     1
 95
      107
 96
      103
 40
0.0
 40
0.0
 40
0.0
 40
0.0
 40
1.0
 40
1.0
 40
1.0
 40
2.0
 40
2.0
 40
2.0
 40
3.0
 40
3.0
 40
3.0
 40
4.0
 40
4.0
 40
4.0
 40
5.0
 40
5.0
 40
5.0
 40
6.0
 40
6.0
 40
6.0
 40
7.0
 40
7.0
 40
7.0
 40
8.0
 40
8.0
 40
8.0
 40
9.0
 40
9.0
 40
9.0
 40
10.0
 40
10.0
 40
10.0
 40
11.0
 40
11.0
 40
11.0
 40
12.0
 40
12.0
 40
12.0
 40
13.0
 40
13.0
 40
13.0
 40
14.0
 40
14.0
 40
14.0
 40
15.0
 40
15.0
 40
15.0
 40
16.0
 40
16.0
 40
16.0
 40
17.0
 40
17.0
 40
17.0
 40
18.0
 40
18.0
 40
18.0
 40
19.0
 40
19.0
 40
19.0
 40
20.0
 40
20.0
 40
20.0
 40
21.0
 40
21.0
 40
21.0
 40
22.0
 40
22.0
 40
22.0
 40
23.0
 40
23.0
 40
23.0
 40
24.0
 40
24.0
 40
24.0
 40
25.0
 40
25.0
 40
25.0
 40
26.0
 40
26.0
 40
26.0
 40
27.0
 40
27.0
 40
27.0
 40
28.0
 40
28.0
 40
28.0
 40
29.0
 40
29.0
 40
29.0
 40
30.0
 40
30.0
 40
30.0
 40
31.0
 40
31.0
 40
31.0
 40
32.0
 40
32.0
 40
32.0
 40
33.0
 40
33.0
 40
33.0
 40
34.0
 40
34.0
 40
34.0
 40
34.0
 10
36.29999923706055
 20
30.0
 10
23.0
 20
30.0
 10
12.19999980926514
 20
40.80000305175781
 10
12.19999980926514
 20
54.19999694824219
 10
12.19999980926514
 20
56.89999389648438
 10
12.39999961853027
 20
58.89999389648438
 10
12.59999942779541
 20
60.69999694824219
 10
12.89999961853027
 20
63.49999618530273
 10
13.09999942779541
 20
65.69999694824219
 10
12.49999904632568
 20
69.69999694824219
 10
11.79999923706055
 20
74.49999618530273
 10
9.399999618530273
 20
87.49999618530273
 10
7.999999046325684
 20
95.19999694824219
 10
7.399999141693115
 20
98.49999618530273
 10
6.899999141693115
 20
100.9999961853027
 10
6.799999237060547
 20
101.7999973297119
 10
6.199999332427979
 20
105.1999969482422
 10
7.59999942779541
 20
107.6999969482422
 10
10.59999942779541
 20
108.3999977111816
 10
11.79999923706055
 20
108.6999969482422
 10
13.0
 20
108.5999984741211
 10
14.0
 20
108.2999973297119
 10
13.80000019073486
 20
108.9999980926514
 10
13.69999980926514
 20
109.4999971389771
 10
13.69999980926514
 20
109.6999969482422
 10
13.0
 20
112.4999971389771
 10
14.39999961853027
 20
115.0999965667725
 10
17.0
 20
115.9999971389771
 10
17.60000038146973
 20
116.1999969482422
 10
18.29999923706055
 20
116.2999973297119
 10
18.89999961853027
 20
116.2999973297119
 10
21.0
 20
116.2999973297119
 10
22.89999961853027
 20
114.9999971389771
 10
23.70000076293945
 20
112.9999971389771
 10
24.40000152587891
 20
111.1999969482422
 10
33.20000076293945
 20
81.79999542236328
 10
33.70000076293945
 20
79.59999465942383
 10
34.0
 20
78.19999313354492
 10
34.5
 20
78.19999313354492
 10
34.90000152587891
 20
78.19999313354492
 10
35.10000228881836
 20
78.19999313354492
 10
35.90000152587891
 20
78.39999389648438
 10
36.10000228881836
 20
79.49999237060547
 10
36.40000152587891
 20
81.29999160766602
 10
45.0
 20
113.3999938964844
 10
46.20000457763672
 20
116.3999938964844
 10
47.0
 20
118.6999998092651
 10
48.90000152587891
 20
120.0
 10
51.29999923706055
 20
120.0
 10
51.89999771118164
 20
120.0
 10
52.5
 20
119.9000000953674
 10
53.09999847412109
 20
119.8000001907349
 10
56.09999847412109
 20
119.1000003814697
 10
57.5
 20
116.3000001907349
 10
57.29999923706055
 20
113.8000001907349
 10
58.20000076293945
 20
114.3000001907349
 10
59.29999923706055
 20
114.6999998092651
 10
60.39999771118164
 20
114.6999998092651
 10
60.89999771118164
 20
114.6999998092651
 10
61.39999771118164
 20
114.5999994277954
 10
61.79999923706055
 20
114.5
 10
65.0
 20
113.8000001907349
 10
67.0
 20
110.8999996185303
 10
66.5
 20
107.5
 10
65.9000015258789
 20
103.3999996185303
 10
61.0
 20
77.0
 10
60.5
 20
74.79999923706055
 10
60.09999847412109
 20
72.79999923706055
 10
59.20000076293945
 20
65.79999923706055
 10
59.40000152587891
 20
62.79999923706055
 10
59.60000228881836
 20
58.59999847412109
 10
62.40000152587891
 20
55.80000305175781
 10
66.30000305175781
 20
55.80000305175781
 10
68.5
 20
55.80000305175781
 10
70.70000457763672
 20
57.10000610351562
 10
73.30000305175781
 20
58.60000610351562
 10
76.4000015258789
 20
60.50000762939453
 10
80.0
 20
62.60000610351562
 10
84.60000610351562
 20
62.80000686645508
 10
84.90000915527344
 20
62.80000686645508
 10
85.20000457763672
 20
62.80000686645508
 10
85.40000915527344
 20
62.80000686645508
 10
87.70001220703125
 20
62.80000686645508
 10
89.60000610351562
 20
62.30000686645508
 10
91.00000762939453
 20
61.40000534057617
 10
92.40000915527344
 20
60.50000762939453
 10
93.30001068115234
 20
59.20000457763672
 10
93.50000762939453
 20
57.70000457763672
 10
94.00000762939453
 20
54.70000457763672
 10
91.80001068115234
 20
51.80000305175781
 10
88.10000610351562
 20
50.60000610351562
 10
85.70000457763672
 20
49.80000305175781
 10
82.60000610351562
 20
47.40000915527344
 10
79.30000305175781
 20
44.80000305175781
 10
75.20000457763672
 20
41.60000610351562
 10
70.9000015258789
 20
38.20000457763672
 10
66.9000015258789
 20
37.10000610351562
 10
64.5
 20
36.40000915527344
 10
62.10000228881836
 20
35.60000610351562
 10
59.60000228881836
 20
34.70000457763672
 10
53.0
 20
32.5
 10
45.79999923706055
 20
30.0
 10
36.29999923706055
 20
30.0
 97
        0
 97
        0
 92
        1
 93
        1
 72
     4
 94
        3
 73
     0
 74
     1
 95
      128
 96
      124
 40
0.0
 40
0.0
 40
0.0
 40
0.0
 40
1.0
 40
1.0
 40
1.0
 40
2.0
 40
2.0
 40
2.0
 40
3.0
 40
3.0
 40
3.0
 40
4.0
 40
4.0
 40
4.0
 40
5.0
 40
5.0
 40
5.0
 40
6.0
 40
6.0
 40
6.0
 40
7.0
 40
7.0
 40
7.0
 40
8.0
 40
8.0
 40
8.0
 40
9.0
 40
9.0
 40
9.0
 40
10.0
 40
10.0
 40
10.0
 40
11.0
 40
11.0
 40
11.0
 40
12.0
 40
12.0
 40
12.0
 40
13.0
 40
13.0
 40
13.0
 40
14.0
 40
14.0
 40
14.0
 40
15.0
 40
15.0
 40
15.0
 40
16.0
 40
16.0
 40
16.0
 40
17.0
 40
17.0
 40
17.0
 40
18.0
 40
18.0
 40
18.0
 40
19.0
 40
19.0
 40
19.0
 40
20.0
 40
20.0
 40
20.0
 40
21.0
 40
21.0
 40
21.0
 40
22.0
 40
22.0
 40
22.0
 40
23.0
 40
23.0
 40
23.0
 40
24.0
 40
24.0
 40
24.0
 40
25.0
 40
25.0
 40
25.0
 40
26.0
 40
26.0
 40
26.0
 40
27.0
 40
27.0
 40
27.0
 40
28.0
 40
28.0
 40
28.0
 40
29.0
 40
29.0
 40
29.0
 40
30.0
 40
30.0
 40
30.0
 40
31.0
 40
31.0
 40
31.0
 40
32.0
 40
32.0
 40
32.0
 40
33.0
 40
33.0
 40
33.0
 40
34.0
 40
34.0
 40
34.0
 40
35.0
 40
35.0
 40
35.0
 40
36.0
 40
36.0
 40
36.0
 40
37.0
 40
37.0
 40
37.0
 40
38.0
 40
38.0
 40
38.0
 40
39.0
 40
39.0
 40
39.0
 40
40.0
 40
40.0
 40
40.0
 40
41.0
 40
41.0
 40
41.0
 40
41.0
 10
12.0
 20
106.2000007629395
 10
11.69999980926514
 20
106.2000007629395
 10
11.30000019073486
 20
106.2000007629395
 10
10.89999961853027
 20
106.1000003814697
 10
9.199999809265137
 20
105.7000007629395
 10
8.59999942779541
 20
104.3999996185303
 10
8.899999618530273
 20
102.3000011444092
 10
9.0
 20
101.5000019073486
 10
9.5
 20
98.9000015258789
 10
10.09999942779541
 20
95.70000076293945
 10
11.59999942779541
 20
87.4000015258789
 10
13.89999961853027
 20
74.9000015258789
 10
14.59999942779541
 20
70.0999984741211
 10
15.19999980926514
 20
65.79999923706055
 10
14.99999904632568
 20
63.29999923706055
 10
14.69999980926514
 20
60.5
 10
14.5
 20
58.80000305175781
 10
14.39999961853027
 20
56.80000305175781
 10
14.39999961853027
 20
54.19999694824219
 10
14.39999961853027
 20
42.19999694824219
 10
24.20000076293945
 20
32.39999389648438
 10
36.19999694824219
 20
32.39999389648438
 10
45.19999694824219
 20
32.39999389648438
 10
51.99999618530273
 20
34.79999542236328
 10
58.59999847412109
 20
37.09999084472656
 10
61.19999694824219
 20
37.99999237060547
 10
63.59999847412109
 20
38.89999389648438
 10
66.0999984741211
 20
39.49999237060547
 10
69.5999984741211
 20
40.49999237060547
 10
73.69999694824219
 20
43.69998931884766
 10
77.5999984741211
 20
46.79999542236328
 10
81.0999984741211
 20
49.49999237060547
 10
84.4000015258789
 20
52.09999847412109
 10
87.19999694824219
 20
52.99999237060547
 10
90.0999984741211
 20
53.99999237060547
 10
91.19999694824219
 20
55.99999237060547
 10
91.0
 20
57.49999237060547
 10
90.69999694824219
 20
59.39999389648438
 10
88.5
 20
60.59999084472656
 10
85.30000305175781
 20
60.59999084472656
 10
85.10000610351562
 20
60.59999084472656
 10
84.80000305175781
 20
60.59999084472656
 10
84.60000610351562
 20
60.59999084472656
 10
80.60000610351562
 20
60.39999389648438
 10
77.50000762939453
 20
58.49999237060547
 10
74.50000762939453
 20
56.69998931884766
 10
71.80001068115234
 20
55.09999084472656
 10
69.20000457763672
 20
53.49999237060547
 10
66.30001068115234
 20
53.49999237060547
 10
61.10000991821289
 20
53.49999237060547
 10
57.30001068115234
 20
57.29999542236328
 10
57.0000114440918
 20
62.69999313354492
 10
56.80001068115234
 20
65.99999237060547
 10
57.70001220703125
 20
73.09999084472656
 10
58.20001220703125
 20
75.29999542236328
 10
58.70001220703125
 20
77.49999618530273
 10
63.60001373291016
 20
103.7999954223633
 10
64.10001373291016
 20
107.8999938964844
 10
64.40001678466797
 20
110.0999937057495
 10
63.30001449584961
 20
111.7999935150146
 10
61.30001449584961
 20
112.1999940872192
 10
61.00001525878906
 20
112.299994468689
 10
60.70001602172852
 20
112.299994468689
 10
60.4000129699707
 20
112.299994468689
 10
58.80001449584961
 20
112.299994468689
 10
57.60001373291016
 20
111.3999948501587
 10
57.10001373291016
 20
109.8999938964844
 10
56.5
 20
108.0
 10
51.40000152587891
 20
85.5999984741211
 10
48.79999923706055
 20
74.0
 10
48.70000076293945
 20
73.4000015258789
 10
48.0
 20
73.0
 10
47.39999771118164
 20
73.0999984741211
 10
46.79999923706055
 20
73.19999694824219
 10
46.39999771118164
 20
73.89999771118164
 10
46.49999618530273
 20
74.5
 10
46.79999542236328
 20
76.0
 10
54.39999771118164
 20
111.5
 10
54.89999389648438
 20
113.5
 10
55.19999313354492
 20
114.8000001907349
 10
54.69999313354492
 20
116.8999996185303
 10
52.59999465942383
 20
117.4000000953674
 10
52.19999313354492
 20
117.5
 10
51.79999542236328
 20
117.5999999046326
 10
51.39999389648438
 20
117.5999999046326
 10
49.99999237060547
 20
117.5999999046326
 10
48.99999237060547
 20
116.8999996185303
 10
48.39999389648438
 20
115.6000003814697
 10
47.19999313354492
 20
112.6000003814697
 10
38.59999465942383
 20
80.5999984741211
 10
38.39999389648438
 20
79.19999694824219
 10
38.09999465942383
 20
76.99999618530273
 10
36.29999542236328
 20
75.89999771118164
 10
34.79999542236328
 20
75.89999771118164
 10
32.99999618530273
 20
75.89999771118164
 10
31.89999580383301
 20
76.99999618530273
 10
31.29999542236328
 20
79.0999984741211
 10
30.89999580383301
 20
80.79999923706055
 10
22.09999465942383
 20
110.3999977111816
 10
21.39999580383301
 20
112.1999969482422
 10
21.09999656677246
 20
112.9999971389771
 10
20.19999504089355
 20
113.9999971389771
 10
18.79999542236328
 20
113.9999971389771
 10
18.39999580383301
 20
113.9999971389771
 10
17.99999618530273
 20
113.8999967575073
 10
17.69999504089355
 20
113.7999973297119
 10
16.19999504089355
 20
113.2999973297119
 10
15.49999523162842
 20
111.8999977111816
 10
15.89999485015869
 20
110.2999973297119
 10
16.4999942779541
 20
107.9999980926514
 10
24.59999465942383
 20
73.89999389648438
 10
24.69999504089355
 20
73.5999984741211
 10
24.89999580383301
 20
73.0
 10
24.4999942779541
 20
72.29999923706055
 10
23.79999542236328
 20
72.19999694824219
 10
23.19999504089355
 20
71.99999618530273
 10
22.49999618530273
 20
72.39999771118164
 10
22.39999580383301
 20
73.0999984741211
 10
22.29999542236328
 20
73.39999771118164
 10
15.29999542236328
 20
102.4999980926514
 10
14.79999542236328
 20
104.5999984741211
 10
14.30000019073486
 20
106.0
 10
12.60000038146973
 20
106.2000007629395
 10
12.0
 20
106.2000007629395
 97
        0
 97
        0
 75
     2
 76
     1
 98
        0
  0
ENDBLK
  5
44
330
41
100
AcDbEntity
  8
0
100
AcDbBlockEnd
  0
ENDSEC
  0
SECTION
  2
ENTITIES
  0
INSERT
  5
42
330
1F
100
AcDbEntity
  8
Layer 1
100
AcDbBlockReference
  2
block 2
 10
0.0
 20
0.0
 30
0.0
  0
ENDSEC
  0
SECTION
  2
OBJECTS
  0
DICTIONARY
  5
C
330
0
100
AcDbDictionary
281
     1
  3
ACAD_GROUP
350
D
  3
ACAD_LAYOUT
350
1A
  3
ACAD_MATERIAL
350
3B
  3
ACAD_MLEADERSTYLE
350
49
  3
ACAD_MLINESTYLE
350
17
  3
ACAD_PLOTSETTINGS
350
19
  3
ACAD_PLOTSTYLENAME
350
E
  3
ACAD_TABLESTYLE
350
48
  3
ACAD_VISUALSTYLE
350
2A
  0
SUN
  5
3F
330
29
100
AcDbSun
 90
        1
290
     0
 63
     7
421
 16777215
 40
1.0
291
     1
 91
  2455826
 92
 54000000
292
     0
 70
     2
 71
   256
280
     1
  0
DICTIONARY
  5
D
102
{ACAD_REACTORS
330
C
102
}
330
C
100
AcDbDictionary
281
     1
  0
DICTIONARY
  5
1A
102
{ACAD_REACTORS
330
C
102
}
330
C
100
AcDbDictionary
281
     1
  3
Layout1
350
1E
  3
Layout2
350
26
  3
Model
350
22
  0
DICTIONARY
  5
3B
102
{ACAD_REACTORS
330
C
102
}
330
C
100
AcDbDictionary
281
     1
  3
ByBlock
350
3D
  3
ByLayer
350
3C
  3
Global
350
3E
  0
DICTIONARY
  5
49
102
{ACAD_REACTORS
330
C
102
}
330
C
100
AcDbDictionary
281
     1
  0
DICTIONARY
  5
17
102
{ACAD_REACTORS
330
C
102
}
330
C
100
AcDbDictionary
281
     1
  3
Standard
350
18
  0
DICTIONARY
  5
19
102
{ACAD_REACTORS
330
C
102
}
330
C
100
AcDbDictionary
281
     1
  0
ACDBDICTIONARYWDFLT
  5
E
102
{ACAD_REACTORS
330
C
102
}
330
C
100
AcDbDictionary
281
     1
  3
Normal
350
F
100
AcDbDictionaryWithDefault
340
F
  0
DICTIONARY
  5
48
102
{ACAD_REACTORS
330
C
102
}
330
C
100
AcDbDictionary
281
     1
  0
DICTIONARY
  5
2A
102
{ACAD_REACTORS
330
C
102
}
330
C
100
AcDbDictionary
281
     1
  3
2dWireframe
350
2F
  3
3D Hidden
350
31
  3
3dWireframe
350
30
  3
Basic
350
32
  3
Brighten
350
36
  3
ColorChange
350
3A
  3
Conceptual
350
34
  3
Dim
350
35
  3
Facepattern
350
39
  3
Flat
350
2B
  3
FlatWithEdges
350
2C
  3
Gouraud
350
2D
  3
GouraudWithEdges
350
2E
  3
Linepattern
350
38
  3
Realistic
350
33
  3
Thicken
350
37
  0
LAYOUT
  5
1E
102
{ACAD_REACTORS
330
1A
102
}
330
1A
100
AcDbPlotSettings
  1

  2
none_device
  4

  6

 40
0.0
 41
0.0
 42
0.0
 43
0.0
 44
0.0
 45
0.0
 46
0.0
 47
0.0
 48
0.0
 49
0.0
140
0.0
141
0.0
142
1.0
143
1.0
 70
   688
 72
     0
 73
     0
 74
     5
  7

 75
    16
 76
     0
 77
     2
 78
   300
147
1.0
148
0.0
149
0.0
100
AcDbLayout
  1
Layout1
 70
     1
 71
     1
 10
0.0
 20
0.0
 11
12.0
 21
9.0
 12
0.0
 22
0.0
 32
0.0
 14
1.000000000000000E+20
 24
1.000000000000000E+20
 34
1.000000000000000E+20
 15
-1.000000000000000E+20
 25
-1.000000000000000E+20
 35
-1.000000000000000E+20
146
0.0
 13
0.0
 23
0.0
 33
0.0
 16
1.0
 26
0.0
 36
0.0
 17
0.0
 27
1.0
 37
0.0
 76
     0
330
1B
  0
LAYOUT
  5
26
102
{ACAD_REACTORS
330
1A
102
}
330
1A
100
AcDbPlotSettings
  1

  2
none_device
  4

  6

 40
0.0
 41
0.0
 42
0.0
 43
0.0
 44
0.0
 45
0.0
 46
0.0
 47
0.0
 48
0.0
 49
0.0
140
0.0
141
0.0
142
1.0
143
1.0
 70
   688
 72
     0
 73
     0
 74
     5
  7

 75
    16
 76
     0
 77
     2
 78
   300
147
1.0
148
0.0
149
0.0
100
AcDbLayout
  1
Layout2
 70
     1
 71
     2
 10
0.0
 20
0.0
 11
0.0
 21
0.0
 12
0.0
 22
0.0
 32
0.0
 14
0.0
 24
0.0
 34
0.0
 15
0.0
 25
0.0
 35
0.0
146
0.0
 13
0.0
 23
0.0
 33
0.0
 16
1.0
 26
0.0
 36
0.0
 17
0.0
 27
1.0
 37
0.0
 76
     0
330
23
  0
LAYOUT
  5
22
102
{ACAD_REACTORS
330
1A
102
}
330
1A
100
AcDbPlotSettings
  1

  2
none_device
  4

  6

 40
0.0
 41
0.0
 42
0.0
 43
0.0
 44
0.0
 45
0.0
 46
0.0
 47
0.0
 48
0.0
 49
0.0
140
0.0
141
0.0
142
1.0
143
1.0
 70
  1712
 72
     0
 73
     0
 74
     0
  7

 75
     0
 76
     0
 77
     2
 78
   300
147
1.0
148
0.0
149
0.0
100
AcDbLayout
  1
Model
 70
     1
 71
     0
 10
0.0
 20
0.0
 11
12.0
 21
9.0
 12
0.0
 22
0.0
 32
0.0
 14
1.000000000000000E+20
 24
1.000000000000000E+20
 34
1.000000000000000E+20
 15
-1.000000000000000E+20
 25
-1.000000000000000E+20
 35
-1.000000000000000E+20
146
0.0
 13
0.0
 23
0.0
 33
0.0
 16
1.0
 26
0.0
 36
0.0
 17
0.0
 27
1.0
 37
0.0
 76
     0
330
1F
331
29
  0
MATERIAL
  5
3D
102
{ACAD_REACTORS
330
3B
102
}
330
3B
100
AcDbMaterial
  1
ByBlock
 72
     1
 94
      127
  0
MATERIAL
  5
3C
102
{ACAD_REACTORS
330
3B
102
}
330
3B
100
AcDbMaterial
  1
ByLayer
 72
     1
 94
      127
  0
MATERIAL
  5
3E
102
{ACAD_REACTORS
330
3B
102
}
330
3B
100
AcDbMaterial
  1
Global
 72
     1
 94
      127
  0
MLINESTYLE
  5
18
102
{ACAD_REACTORS
330
17
102
}
330
17
100
AcDbMlineStyle
  2
Standard
 70
     0
  3

 62
   256
 51
90.0
 52
90.0
 71
     2
 49
0.5
 62
   256
  6
BYLAYER
 49
-0.5
 62
   256
  6
BYLAYER
  0
ACDBPLACEHOLDER
  5
F
102
{ACAD_REACTORS
330
E
102
}
330
E
  0
VISUALSTYLE
  5
2F
102
{ACAD_REACTORS
330
2A
102
}
330
2A
100
AcDbVisualStyle
  2
2dWireframe
 70
     4
177
     2
291
     0
 71
     0
176
     1
 72
     2
176
     1
 73
     0
176
     1
 90
        0
176
     1
 40
-0.6
176
     1
 41
-30.0
176
     1
 62
     5
 63
     7
421
 16777215
176
     1
 74
     1
176
     1
 91
        4
176
     1
 64
     7
176
     1
 65
   257
176
     1
 75
     1
176
     1
175
     1
176
     1
 42
1.0
176
     1
 92
        0
176
     1
 66
   257
176
     1
 43
1.0
176
     1
 76
     1
176
     1
 77
     6
176
     1
 78
     2
176
     1
 67
     7
176
     1
 79
     5
176
     1
170
     0
176
     1
171
     0
176
     1
290
     0
176
     1
 93
        1
176
     1
 44
0.0
176
     1
173
     0
176
     1
  0
VISUALSTYLE
  5
31
102
{ACAD_REACTORS
330
2A
102
}
330
2A
100
AcDbVisualStyle
  2
3D Hidden
 70
     6
177
     2
291
     0
 71
     1
176
     1
 72
     2
176
     1
 73
     2
176
     1
 90
        0
176
     1
 40
-0.6
176
     1
 41
-30.0
176
     1
 62
     5
 63
     7
421
 16777215
176
     1
 74
     2
176
     1
 91
        2
176
     1
 64
     7
176
     1
 65
   257
176
     1
 75
     2
176
     1
175
     1
176
     1
 42
40.0
176
     1
 92
        0
176
     1
 66
   257
176
     1
 43
1.0
176
     1
 76
     1
176
     1
 77
     6
176
     1
 78
     2
176
     1
 67
     7
176
     1
 79
     3
176
     1
170
     0
176
     1
171
     0
176
     1
290
     0
176
     1
 93
        1
176
     1
 44
0.0
176
     1
173
     0
176
     1
  0
VISUALSTYLE
  5
30
102
{ACAD_REACTORS
330
2A
102
}
330
2A
100
AcDbVisualStyle
  2
3dWireframe
 70
     5
177
     2
291
     0
 71
     0
176
     1
 72
     2
176
     1
 73
     0
176
     1
 90
        0
176
     1
 40
-0.6
176
     1
 41
-30.0
176
     1
 62
     5
 63
     7
421
 16777215
176
     1
 74
     1
176
     1
 91
        4
176
     1
 64
     7
176
     1
 65
   257
176
     1
 75
     1
176
     1
175
     1
176
     1
 42
1.0
176
     1
 92
        0
176
     1
 66
   257
176
     1
 43
1.0
176
     1
 76
     1
176
     1
 77
     6
176
     1
 78
     2
176
     1
 67
     7
176
     1
 79
     5
176
     1
170
     0
176
     1
171
     0
176
     1
290
     0
176
     1
 93
        1
176
     1
 44
0.0
176
     1
173
     0
176
     1
  0
VISUALSTYLE
  5
32
102
{ACAD_REACTORS
330
2A
102
}
330
2A
100
AcDbVisualStyle
  2
Basic
 70
     7
177
     2
291
     1
 71
     1
176
     1
 72
     0
176
     1
 73
     1
176
     1
 90
        0
176
     1
 40
-0.6
176
     1
 41
-30.0
176
     1
 62
     5
 63
     7
421
 16777215
176
     1
 74
     0
176
     1
 91
        4
176
     1
 64
     7
176
     1
 65
   257
176
     1
 75
     1
176
     1
175
     1
176
     1
 42
1.0
176
     1
 92
        8
176
     1
 66
     7
176
     1
 43
1.0
176
     1
 76
     1
176
     1
 77
     6
176
     1
 78
     2
176
     1
 67
     7
176
     1
 79
     5
176
     1
170
     0
176
     1
171
     0
176
     1
290
     0
176
     1
 93
        1
176
     1
 44
0.0
176
     1
173
     0
176
     1
  0
VISUALSTYLE
  5
36
102
{ACAD_REACTORS
330
2A
102
}
330
2A
100
AcDbVisualStyle
  2
Brighten
 70
    12
177
     2
291
     1
 71
     2
176
     1
 72
     2
176
     1
 73
     0
176
     1
 90
        0
176
     1
 40
-0.6
176
     1
 41
-30.0
176
     1
 62
     5
 63
     7
421
 16777215
176
     1
 74
     1
176
     1
 91
        4
176
     1
 64
     7
176
     1
 65
   257
176
     1
 75
     1
176
     1
175
     1
176
     1
 42
1.0
176
     1
 92
        8
176
     1
 66
     7
176
     1
 43
1.0
176
     1
 76
     1
176
     1
 77
     6
176
     1
 78
     2
176
     1
 67
     7
176
     1
 79
     5
176
     1
170
     0
176
     1
171
     0
176
     1
290
     0
176
     1
 93
        1
176
     1
 44
50.0
176
     1
173
     0
176
     1
  0
VISUALSTYLE
  5
3A
102
{ACAD_REACTORS
330
2A
102
}
330
2A
100
AcDbVisualStyle
  2
ColorChange
 70
    16
177
     2
291
     1
 71
     2
176
     1
 72
     2
176
     1
 73
     3
176
     1
 90
        0
176
     1
 40
-0.6
176
     1
 41
-30.0
176
     1
 62
     5
 63
     8
421
  8421504
176
     1
 74
     1
176
     1
 91
        4
176
     1
 64
     7
176
     1
 65
   257
176
     1
 75
     1
176
     1
175
     1
176
     1
 42
1.0
176
     1
 92
        8
176
     1
 66
     8
424
  8421504
176
     1
 43
1.0
176
     1
 76
     1
176
     1
 77
     6
176
     1
 78
     2
176
     1
 67
     7
176
     1
 79
     5
176
     1
170
     0
176
     1
171
     0
176
     1
290
     0
176
     1
 93
        1
176
     1
 44
0.0
176
     1
173
     0
176
     1
  0
VISUALSTYLE
  5
34
102
{ACAD_REACTORS
330
2A
102
}
330
2A
100
AcDbVisualStyle
  2
Conceptual
 70
     9
177
     2
291
     0
 71
     3
176
     1
 72
     2
176
     1
 73
     0
176
     1
 90
        0
176
     1
 40
-0.6
176
     1
 41
-30.0
176
     1
 62
     5
 63
     7
421
 16777215
176
     1
 74
     2
176
     1
 91
        2
176
     1
 64
     7
176
     1
 65
   257
176
     1
 75
     1
176
     1
175
     1
176
     1
 42
40.0
176
     1
 92
        8
176
     1
 66
     7
176
     1
 43
1.0
176
     1
 76
     1
176
     1
 77
     6
176
     1
 78
     2
176
     1
 67
     7
176
     1
 79
     3
176
     1
170
     0
176
     1
171
     0
176
     1
290
     0
176
     1
 93
        1
176
     1
 44
0.0
176
     1
173
     0
176
     1
  0
VISUALSTYLE
  5
35
102
{ACAD_REACTORS
330
2A
102
}
330
2A
100
AcDbVisualStyle
  2
Dim
 70
    11
177
     2
291
     1
 71
     2
176
     1
 72
     2
176
     1
 73
     0
176
     1
 90
        0
176
     1
 40
-0.6
176
     1
 41
-30.0
176
     1
 62
     5
 63
     7
421
 16777215
176
     1
 74
     1
176
     1
 91
        4
176
     1
 64
     7
176
     1
 65
   257
176
     1
 75
     1
176
     1
175
     1
176
     1
 42
1.0
176
     1
 92
        8
176
     1
 66
     7
176
     1
 43
1.0
176
     1
 76
     1
176
     1
 77
     6
176
     1
 78
     2
176
     1
 67
     7
176
     1
 79
     5
176
     1
170
     0
176
     1
171
     0
176
     1
290
     0
176
     1
 93
        1
176
     1
 44
-50.0
176
     1
173
     0
176
     1
  0
VISUALSTYLE
  5
39
102
{ACAD_REACTORS
330
2A
102
}
330
2A
100
AcDbVisualStyle
  2
Facepattern
 70
    15
177
     2
291
     1
 71
     2
176
     1
 72
     2
176
     1
 73
     0
176
     1
 90
        0
176
     1
 40
-0.6
176
     1
 41
-30.0
176
     1
 62
     5
 63
     7
421
 16777215
176
     1
 74
     1
176
     1
 91
        4
176
     1
 64
     7
176
     1
 65
   257
176
     1
 75
     1
176
     1
175
     1
176
     1
 42
1.0
176
     1
 92
        8
176
     1
 66
     7
176
     1
 43
1.0
176
     1
 76
     1
176
     1
 77
     6
176
     1
 78
     2
176
     1
 67
     7
176
     1
 79
     5
176
     1
170
     0
176
     1
171
     0
176
     1
290
     0
176
     1
 93
        1
176
     1
 44
0.0
176
     1
173
     0
176
     1
  0
VISUALSTYLE
  5
2B
102
{ACAD_REACTORS
330
2A
102
}
330
2A
100
AcDbVisualStyle
  2
Flat
 70
     0
177
     2
291
     1
 71
     2
176
     1
 72
     1
176
     1
 73
     1
176
     1
 90
        2
176
     1
 40
-0.6
176
     1
 41
30.0
176
     1
 62
     5
 63
     7
421
 16777215
176
     1
 74
     0
176
     1
 91
        4
176
     1
 64
     7
176
     1
 65
   257
176
     1
 75
     1
176
     1
175
     1
176
     1
 42
1.0
176
     1
 92
        8
176
     1
 66
     7
176
     1
 43
1.0
176
     1
 76
     1
176
     1
 77
     6
176
     1
 78
     2
176
     1
 67
     7
176
     1
 79
     5
176
     1
170
     0
176
     1
171
     0
176
     1
290
     0
176
     1
 93
       13
176
     1
 44
0.0
176
     1
173
     0
176
     1
  0
VISUALSTYLE
  5
2C
102
{ACAD_REACTORS
330
2A
102
}
330
2A
100
AcDbVisualStyle
  2
FlatWithEdges
 70
     1
177
     2
291
     1
 71
     2
176
     1
 72
     1
176
     1
 73
     1
176
     1
 90
        2
176
     1
 40
-0.6
176
     1
 41
30.0
176
     1
 62
     5
 63
     7
421
 16777215
176
     1
 74
     1
176
     1
 91
        4
176
     1
 64
     7
176
     1
 65
   257
176
     1
 75
     1
176
     1
175
     1
176
     1
 42
1.0
176
     1
 92
        0
176
     1
 66
   257
176
     1
 43
1.0
176
     1
 76
     1
176
     1
 77
     6
176
     1
 78
     2
176
     1
 67
     7
176
     1
 79
     5
176
     1
170
     0
176
     1
171
     0
176
     1
290
     0
176
     1
 93
       13
176
     1
 44
0.0
176
     1
173
     0
176
     1
  0
VISUALSTYLE
  5
2D
102
{ACAD_REACTORS
330
2A
102
}
330
2A
100
AcDbVisualStyle
  2
Gouraud
 70
     2
177
     2
291
     1
 71
     2
176
     1
 72
     2
176
     1
 73
     1
176
     1
 90
        2
176
     1
 40
-0.6
176
     1
 41
30.0
176
     1
 62
     5
 63
     7
421
 16777215
176
     1
 74
     0
176
     1
 91
        4
176
     1
 64
     7
176
     1
 65
   257
176
     1
 75
     1
176
     1
175
     1
176
     1
 42
1.0
176
     1
 92
        0
176
     1
 66
     7
176
     1
 43
1.0
176
     1
 76
     1
176
     1
 77
     6
176
     1
 78
     2
176
     1
 67
     7
176
     1
 79
     5
176
     1
170
     0
176
     1
171
     0
176
     1
290
     0
176
     1
 93
       13
176
     1
 44
0.0
176
     1
173
     0
176
     1
  0
VISUALSTYLE
  5
2E
102
{ACAD_REACTORS
330
2A
102
}
330
2A
100
AcDbVisualStyle
  2
GouraudWithEdges
 70
     3
177
     2
291
     1
 71
     2
176
     1
 72
     2
176
     1
 73
     1
176
     1
 90
        2
176
     1
 40
-0.6
176
     1
 41
30.0
176
     1
 62
     5
 63
     7
421
 16777215
176
     1
 74
     1
176
     1
 91
        4
176
     1
 64
     7
176
     1
 65
   257
176
     1
 75
     1
176
     1
175
     1
176
     1
 42
1.0
176
     1
 92
        0
176
     1
 66
   257
176
     1
 43
1.0
176
     1
 76
     1
176
     1
 77
     6
176
     1
 78
     2
176
     1
 67
     7
176
     1
 79
     5
176
     1
170
     0
176
     1
171
     0
176
     1
290
     0
176
     1
 93
       13
176
     1
 44
0.0
176
     1
173
     0
176
     1
  0
VISUALSTYLE
  5
38
102
{ACAD_REACTORS
330
2A
102
}
330
2A
100
AcDbVisualStyle
  2
Linepattern
 70
    14
177
     2
291
     1
 71
     2
176
     1
 72
     2
176
     1
 73
     0
176
     1
 90
        0
176
     1
 40
-0.6
176
     1
 41
-30.0
176
     1
 62
     5
 63
     7
421
 16777215
176
     1
 74
     1
176
     1
 91
        4
176
     1
 64
     7
176
     1
 65
   257
176
     1
 75
     7
176
     1
175
     7
176
     1
 42
1.0
176
     1
 92
        8
176
     1
 66
     7
176
     1
 43
1.0
176
     1
 76
     1
176
     1
 77
     6
176
     1
 78
     2
176
     1
 67
     7
176
     1
 79
     5
176
     1
170
     0
176
     1
171
     0
176
     1
290
     0
176
     1
 93
        1
176
     1
 44
0.0
176
     1
173
     0
176
     1
  0
VISUALSTYLE
  5
33
102
{ACAD_REACTORS
330
2A
102
}
330
2A
100
AcDbVisualStyle
  2
Realistic
 70
     8
177
     2
291
     0
 71
     2
176
     1
 72
     2
176
     1
 73
     0
176
     1
 90
        0
176
     1
 40
-0.6
176
     1
 41
-30.0
176
     1
 62
     5
 63
     7
421
 16777215
176
     1
 74
     1
176
     1
 91
        0
176
     1
 64
     7
176
     1
 65
   257
176
     1
 75
     1
176
     1
175
     1
176
     1
 42
1.0
176
     1
 92
        8
176
     1
 66
     8
424
  7895160
176
     1
 43
1.0
176
     1
 76
     1
176
     1
 77
     6
176
     1
 78
     2
176
     1
 67
     7
176
     1
 79
     5
176
     1
170
     0
176
     1
171
     0
176
     1
290
     0
176
     1
 93
       13
176
     1
 44
0.0
176
     1
173
     0
176
     1
  0
VISUALSTYLE
  5
37
102
{ACAD_REACTORS
330
2A
102
}
330
2A
100
AcDbVisualStyle
  2
Thicken
 70
    13
177
     2
291
     1
 71
     2
176
     1
 72
     2
176
     1
 73
     0
176
     1
 90
        0
176
     1
 40
-0.6
176
     1
 41
-30.0
176
     1
 62
     5
 63
     7
421
 16777215
176
     1
 74
     1
176
     1
 91
        4
176
     1
 64
     7
176
     1
 65
   257
176
     1
 75
     1
176
     1
175
     1
176
     1
 42
1.0
176
     1
 92
       12
176
     1
 66
     7
176
     1
 43
1.0
176
     1
 76
     1
176
     1
 77
     6
176
     1
 78
     2
176
     1
 67
     7
176
     1
 79
     5
176
     1
170
     0
176
     1
171
     0
176
     1
290
     0
176
     1
 93
        1
176
     1
 44
0.0
176
     1
173
     0
176
     1
  0
ENDSEC
  0
EOF
