<?xml version="1.0" encoding="utf-8"?>
<!-- Generator: Adobe Illustrator 19.2.1, SVG Export Plug-In . SVG Version: 6.00 Build 0)  -->
<svg version="1.1" id="Layer_1" xmlns="http://www.w3.org/2000/svg" xmlns:xlink="http://www.w3.org/1999/xlink" x="0px" y="0px"
	 viewBox="0 0 100 125" style="enable-background:new 0 0 100 125;" xml:space="preserve">
<path d="M76,48.5c-1.3-6.2,0.1-34,0.2-36.1c0.3-3.6-1.4-6.2-4.6-7.1C69.9,4.8,68.1,5,66.5,6C65,6.8,64,8.3,63.7,10
	c-0.4,2.1-1.2,7.8-2.1,14.3c-0.5,3.4-0.9,6.9-1.4,10.2c-0.5-1.1-1.2-2.1-2.1-2.8c-1.6-1.3-3.9-1.8-6.3-1.4c-2.3,0.3-4.2,1.4-5.4,3.2
	c-1,1.4-1.5,3.2-1.4,5c-0.3-0.3-0.7-0.6-1.1-0.8c-1.7-1-3.8-1.2-6.1-0.6c-2.1,0.6-3.8,1.8-4.8,3.6c-0.9,1.5-1.1,3.3-0.8,5
	c-1.4-0.6-3.1-0.7-4.8-0.2c-1.9,0.5-3.4,1.6-4.3,3.2c-0.9,1.6-1.1,3.4-0.5,5.2c0.1,0.5,0.3,0.9,0.4,1.4l0,0v12.9
	c0,7.2,2.9,14,8.2,19.1s12.3,7.9,19.6,7.9c18.6,0,26.9-13.9,26.9-27.7C77.7,60.7,77.6,56.6,76,48.5z M64,24.6
	c0.8-6.2,1.6-12.1,2-14.2c0.2-1,0.8-1.9,1.8-2.5c0.9-0.6,2.1-0.7,3.1-0.4c2.1,0.6,3,2.2,2.9,4.6c0,0.3-1.6,29.8-0.2,36.8
	c0.9,4.4,1.3,7.7,1.5,10.8c-1.3-1.4-3.5-2.9-7-2.9c-2.3,0-4.5-0.1-6.4-0.4c0.3-1.1,0.4-2.4,0.3-3.8c-0.3-2.4-0.4-5.3-0.6-8.1
	c0-0.4-0.1-0.9-0.1-1.3C62.1,38.8,63.1,31.3,64,24.6z M48.3,34.9c0.9-1.2,2.2-2,3.8-2.2c1.8-0.3,3.4,0.1,4.5,0.9
	c1.1,0.8,1.7,2.1,1.8,3.8c0.2,2.1,0.4,4.6,0.6,7.3c0.2,2.8,0.4,5.8,0.6,8.2c0.1,1.3,0,2.4-0.3,3.2c-3.6-0.6-6.6-1.6-9.2-2.8
	c-0.1-0.5-0.2-1.1-0.3-1.7c-0.8-3.9-1.7-8.4-2.4-12.6C47.1,37.5,47.5,36.1,48.3,34.9z M35.1,41.7c0.7-1.2,1.8-2,3.3-2.4
	c1.6-0.4,3.1-0.3,4.2,0.4c1,0.6,1.7,1.7,2.1,3.2c0.4,1.9,0.8,3.9,1.2,6c0.2,0.8,0.3,1.6,0.5,2.4c-1.8-1.1-3.4-2.1-4.6-3
	c-2.2-1.5-3.8-2.6-5.3-2.6c-0.6,0-1.1,0-1.6,0.1c0-0.1-0.1-0.3-0.1-0.4C34.3,44.3,34.5,42.9,35.1,41.7z M25.2,49.7
	c0.6-1,1.6-1.7,2.8-2.1c1.2-0.3,2.3-0.3,3.2,0.1c-1.3,1.2-1.9,2.9-1.9,4.5s1.2,7.2,6.4,12.6c-0.3,0.7-0.9,1.4-2.6,1.8
	c-1.4,0.4-2.6,0.2-5.1-4.8c-1.2-2.5-1.6-3.9-2.4-6.5c-0.2-0.7-0.4-1.5-0.7-2.4C24.5,51.9,24.7,50.7,25.2,49.7z M69.5,84.6
	c-4.3,5.2-10.8,8-18.7,8c-6.8,0-13.1-2.6-18-7.3c-4.8-4.7-7.5-10.8-7.5-17.4v-5.8c0.1,0.3,0.3,0.6,0.4,0.9c1.6,3.2,3.4,6.2,6.5,6.2
	c0.4,0,0.9-0.1,1.4-0.2c1.8-0.5,3-1.3,3.8-2.4c2.8,2.5,6.3,4.5,10.2,6c5.6,2.1,12.2,3.2,19.8,3.2c0.7,0,1.2-0.5,1.2-1.2
	s-0.5-1.2-1.2-1.2c-13,0-23.3-3.4-29.7-9.8c-5-5-6.1-10.3-6.1-11.3c0-2,1.5-4,4.7-4c0.8,0,2.2,1,3.9,2.2c4.8,3.3,12.8,8.8,27.9,8.8
	c5.2,0,7.1,4.3,7.1,7v0.1c0,0.3,0,0.6,0,0.9C75.3,74,73.3,80.1,69.5,84.6z"/>
</svg>
