<?xml version="1.0" encoding="utf-8"?>
<!-- Generator: Adobe Illustrator 19.2.1, SVG Export Plug-In . SVG Version: 6.00 Build 0)  -->
<svg version="1.1" id="Layer_1" xmlns="http://www.w3.org/2000/svg" xmlns:xlink="http://www.w3.org/1999/xlink" x="0px" y="0px"
	 viewBox="0 0 100 125" style="enable-background:new 0 0 100 125;" xml:space="preserve">
<path d="M76.3,10.9c-3.6-1.1-6.7,0.4-7.9,3.9c-1.1,2.9-8.4,25.5-8.6,26.5c-0.1,0.5-0.3,0.8-0.5,0.8c-0.4,0-0.5-0.8-0.6-1.1
	c-0.2-1.5-2.5-26.4-2.8-29.3c-0.2-2.1-1.2-4.1-2.7-5.3C52,5.3,50.6,4.9,49,5c-3.7,0.3-5.8,2.7-5.8,6.7c0,2.2,0.8,15.6,1.3,24.5
	c0.2,3.8,0.4,7.1,0.4,7.4c0,1.2-0.2,1.4-0.2,1.5c0,0-0.1,0.1-0.4,0.1c0,0-0.1,0-0.2-0.1c-0.5-1.6-1-3.2-1.6-4.7
	c-0.7-2.1-2-3.6-3.7-4.3c-1.8-0.8-3.9-0.8-6.1,0.1c-2,0.8-3.5,2.3-4.3,4.1c-0.7,1.6-0.7,3.4-0.1,5c-1.4-0.4-3.1-0.3-4.8,0.3
	c-1.8,0.7-3.2,2-3.8,3.7c-0.7,1.6-0.6,3.5,0.1,5.2c0,0,0.1,0.1,0.2,0.1c0,0.2,0.1,0.3,0.1,0.5V68c0,7.2,2.8,13.9,8.1,19.1
	c5.3,5.1,12.2,7.9,19.5,7.9c18.5,0,26.8-13.9,26.8-27.6c0-0.3,0-0.7,0-1l0,0c0-0.1,0-0.1,0-0.2c-0.1-3.3-0.4-5.6-0.7-7.6
	c-0.2-1.4-0.4-2.6-0.4-3.7c0-2.6,6.4-32.7,7.4-36.4C81.5,15.1,79.7,11.9,76.3,10.9z M30.7,41.3c0.5-1.2,1.6-2.2,2.9-2.8
	c1.6-0.6,3-0.7,4.2-0.1c1.1,0.5,1.9,1.5,2.5,2.9c0.7,1.8,1.3,3.8,1.9,5.8c0.5,1.6,1.1,3.3,1.6,4.9c-2.2-1.2-4-2.4-5.4-3.4
	c-2.2-1.5-3.7-2.6-5.3-2.6c-0.7,0-1.3,0.1-1.9,0.2c-0.2-0.4-0.3-0.7-0.5-1.1C30.3,43.8,30.2,42.5,30.7,41.3z M21.9,50.4
	c0.4-1.1,1.3-1.9,2.5-2.4c0.9-0.3,2.3-0.7,3.6-0.1c-1.3,1.2-2,2.9-2,4.6c0,1.6,1.2,7.4,6.7,13c0.1,0.1,0.1,0.1,0.2,0.2
	c-0.3,0.2-0.7,0.4-1.2,0.6c-1.3,0.5-2.5,0.6-5.7-4.1c-1.5-2.3-2.1-3.7-3.2-6.2c-0.3-0.7-0.6-1.4-1-2.2
	C21.5,52.6,21.5,51.4,21.9,50.4z M66.2,84.6c-4.3,5.2-10.8,8-18.6,8c-6.7,0-13.2-2.6-18-7.2C24.7,80.7,22,74.6,22,68v-8
	c1,1,1.2,2.1,2,3.3c1.9,2.8,3.9,5.4,6.7,5.4c0.6,0,1.3-0.1,1.9-0.4c0.9-0.3,1.6-0.7,2.1-1.2c2.7,2.3,5.9,4.1,9.6,5.5
	c5.6,2.1,12.2,3.2,19.7,3.2c0.7,0,1.2-0.5,1.2-1.2s-0.5-1.2-1.2-1.2c-13,0-23.2-3.4-29.6-9.7c-5-5-6-10.2-6-11.3c0-2,1.4-4,4.7-4
	c0.8,0,2.2,1,3.9,2.2c4.8,3.3,12.7,8.8,27.8,8.8c5,0,7,4,7.1,6.7c0,0.4,0,0.8,0,1.3C71.9,74,69.9,80.2,66.2,84.6z M78.2,17.9
	c-0.7,2.6-7.4,33.8-7.4,37c0,1.3,0.2,2.5,0.4,4c0,0.1,0,0.3,0.1,0.4c-1.3-1.2-3.4-2.4-6.5-2.4c-7.7,0-13.5-1.5-17.9-3.5
	c-0.1-0.2-0.1-0.4-0.2-0.7c-0.6-1.7-1.2-3.5-1.8-5.3c2.4-0.4,2.4-2.7,2.4-3.9c0-0.3-0.1-2.3-0.4-7.5c-0.5-8.3-1.3-22.3-1.3-24.4
	c0-2.8,1.1-4.2,3.6-4.4c0.9-0.1,1.7,0.2,2.4,0.8c1,0.8,1.7,2.2,1.8,3.7c0.2,2,2.5,27.7,2.8,29.5c0.4,2.9,2.4,3.1,2.9,3.1
	c0.7,0,2.3-0.3,2.9-2.6c0.2-0.7,7.3-22.8,8.6-26.3c1.1-2.9,3.3-2.9,5-2.4C77.7,13.8,78.8,15.8,78.2,17.9z"/>
</svg>
