  0
SECTION
  2
HEADER
  9
$ACADVER
  1
AC1024
  9
$ACADMAINTVER
 70
     6
  9
$DWGCODEPAGE
  3
UNDEFINED
  9
$INSBASE
 10
0.0
 20
0.0
 30
0.0
  9
$EXTMIN
 10
1.000000000000000E+20
 20
1.000000000000000E+20
 30
1.000000000000000E+20
  9
$EXTMAX
 10
-1.000000000000000E+20
 20
-1.000000000000000E+20
 30
-1.000000000000000E+20
  9
$LIMMIN
 10
0.0
 20
0.0
  9
$LIMMAX
 10
12.0
 20
9.0
  9
$ORTHOMODE
 70
     0
  9
$REGENMODE
 70
     1
  9
$FILLMODE
 70
     1
  9
$QTEXTMODE
 70
     0
  9
$MIRRTEXT
 70
     1
  9
$LTSCALE
 40
1.0
  9
$ATTMODE
 70
     1
  9
$TEXTSIZE
 40
0.2
  9
$TRACEWID
 40
0.05
  9
$TEXTSTYLE
  7
Standard
  9
$CLAYER
  8
0
  9
$CELTYPE
  6
ByLayer
  9
$CECOLOR
 62
   256
  9
$CELTSCALE
 40
1.0
  9
$DISPSILH
 70
     0
  9
$DIMSCALE
 40
1.0
  9
$DIMASZ
 40
0.18
  9
$DIMEXO
 40
0.0625
  9
$DIMDLI
 40
0.38
  9
$DIMRND
 40
0.0
  9
$DIMDLE
 40
0.0
  9
$DIMEXE
 40
0.18
  9
$DIMTP
 40
0.0
  9
$DIMTM
 40
0.0
  9
$DIMTXT
 40
0.18
  9
$DIMCEN
 40
0.09
  9
$DIMTSZ
 40
0.0
  9
$DIMTOL
 70
     0
  9
$DIMLIM
 70
     0
  9
$DIMTIH
 70
     1
  9
$DIMTOH
 70
     1
  9
$DIMSE1
 70
     0
  9
$DIMSE2
 70
     0
  9
$DIMTAD
 70
     0
  9
$DIMZIN
 70
     0
  9
$DIMBLK
  1

  9
$DIMASO
 70
     1
  9
$DIMSHO
 70
     1
  9
$DIMPOST
  1

  9
$DIMAPOST
  1

  9
$DIMALT
 70
     0
  9
$DIMALTD
 70
     2
  9
$DIMALTF
 40
25.4
  9
$DIMLFAC
 40
1.0
  9
$DIMTOFL
 70
     0
  9
$DIMTVP
 40
0.0
  9
$DIMTIX
 70
     0
  9
$DIMSOXD
 70
     0
  9
$DIMSAH
 70
     0
  9
$DIMBLK1
  1

  9
$DIMBLK2
  1

  9
$DIMSTYLE
  2
Standard
  9
$DIMCLRD
 70
     0
  9
$DIMCLRE
 70
     0
  9
$DIMCLRT
 70
     0
  9
$DIMTFAC
 40
1.0
  9
$DIMGAP
 40
0.09
  9
$DIMJUST
 70
     0
  9
$DIMSD1
 70
     0
  9
$DIMSD2
 70
     0
  9
$DIMTOLJ
 70
     1
  9
$DIMTZIN
 70
     0
  9
$DIMALTZ
 70
     0
  9
$DIMALTTZ
 70
     0
  9
$DIMUPT
 70
     0
  9
$DIMDEC
 70
     4
  9
$DIMTDEC
 70
     4
  9
$DIMALTU
 70
     2
  9
$DIMALTTD
 70
     2
  9
$DIMTXSTY
  7
Standard
  9
$DIMAUNIT
 70
     0
  9
$DIMADEC
 70
     0
  9
$DIMALTRND
 40
0.0
  9
$DIMAZIN
 70
     0
  9
$DIMDSEP
 70
    46
  9
$DIMATFIT
 70
     3
  9
$DIMFRAC
 70
     0
  9
$DIMLDRBLK
  1

  9
$DIMLUNIT
 70
     2
  9
$DIMLWD
 70
    -2
  9
$DIMLWE
 70
    -2
  9
$DIMTMOVE
 70
     0
  9
$DIMFXL
 40
1.0
  9
$DIMFXLON
 70
     0
  9
$DIMJOGANG
 40
0.7853981633974483
  9
$DIMTFILL
 70
     0
  9
$DIMTFILLCLR
 70
     0
  9
$DIMARCSYM
 70
     0
  9
$DIMLTYPE
  6

  9
$DIMLTEX1
  6

  9
$DIMLTEX2
  6

  9
$DIMTXTDIRECTION
 70
     0
  9
$LUNITS
 70
     2
  9
$LUPREC
 70
     4
  9
$SKETCHINC
 40
0.1
  9
$FILLETRAD
 40
0.5
  9
$AUNITS
 70
     0
  9
$AUPREC
 70
     0
  9
$MENU
  1
.
  9
$ELEVATION
 40
0.0
  9
$PELEVATION
 40
0.0
  9
$THICKNESS
 40
0.0
  9
$LIMCHECK
 70
     0
  9
$CHAMFERA
 40
0.5
  9
$CHAMFERB
 40
0.5
  9
$CHAMFERC
 40
1.0
  9
$CHAMFERD
 40
0.0
  9
$SKPOLY
 70
     0
  9
$TDCREATE
 40
2457525.590381933
  9
$TDUCREATE
 40
2457525.798715278
  9
$TDUPDATE
 40
2457525.590381933
  9
$TDUUPDATE
 40
2457525.798715278
  9
$TDINDWG
 40
0.0000000116
  9
$TDUSRTIMER
 40
0.0000000116
  9
$USRTIMER
 70
     1
  9
$ANGBASE
 50
0.0
  9
$ANGDIR
 70
     0
  9
$PDMODE
 70
     0
  9
$PDSIZE
 40
0.0
  9
$PLINEWID
 40
0.0
  9
$SPLFRAME
 70
     0
  9
$SPLINETYPE
 70
     6
  9
$SPLINESEGS
 70
     8
  9
$HANDSEED
  5
49
  9
$SURFTAB1
 70
     6
  9
$SURFTAB2
 70
     6
  9
$SURFTYPE
 70
     6
  9
$SURFU
 70
     6
  9
$SURFV
 70
     6
  9
$UCSBASE
  2

  9
$UCSNAME
  2

  9
$UCSORG
 10
0.0
 20
0.0
 30
0.0
  9
$UCSXDIR
 10
1.0
 20
0.0
 30
0.0
  9
$UCSYDIR
 10
0.0
 20
1.0
 30
0.0
  9
$UCSORTHOREF
  2

  9
$UCSORTHOVIEW
 70
     0
  9
$UCSORGTOP
 10
0.0
 20
0.0
 30
0.0
  9
$UCSORGBOTTOM
 10
0.0
 20
0.0
 30
0.0
  9
$UCSORGLEFT
 10
0.0
 20
0.0
 30
0.0
  9
$UCSORGRIGHT
 10
0.0
 20
0.0
 30
0.0
  9
$UCSORGFRONT
 10
0.0
 20
0.0
 30
0.0
  9
$UCSORGBACK
 10
0.0
 20
0.0
 30
0.0
  9
$PUCSBASE
  2

  9
$PUCSNAME
  2

  9
$PUCSORG
 10
0.0
 20
0.0
 30
0.0
  9
$PUCSXDIR
 10
1.0
 20
0.0
 30
0.0
  9
$PUCSYDIR
 10
0.0
 20
1.0
 30
0.0
  9
$PUCSORTHOREF
  2

  9
$PUCSORTHOVIEW
 70
     0
  9
$PUCSORGTOP
 10
0.0
 20
0.0
 30
0.0
  9
$PUCSORGBOTTOM
 10
0.0
 20
0.0
 30
0.0
  9
$PUCSORGLEFT
 10
0.0
 20
0.0
 30
0.0
  9
$PUCSORGRIGHT
 10
0.0
 20
0.0
 30
0.0
  9
$PUCSORGFRONT
 10
0.0
 20
0.0
 30
0.0
  9
$PUCSORGBACK
 10
0.0
 20
0.0
 30
0.0
  9
$USERI1
 70
     0
  9
$USERI2
 70
     0
  9
$USERI3
 70
     0
  9
$USERI4
 70
     0
  9
$USERI5
 70
     0
  9
$USERR1
 40
0.0
  9
$USERR2
 40
0.0
  9
$USERR3
 40
0.0
  9
$USERR4
 40
0.0
  9
$USERR5
 40
0.0
  9
$WORLDVIEW
 70
     1
  9
$SHADEDGE
 70
     3
  9
$SHADEDIF
 70
    70
  9
$TILEMODE
 70
     1
  9
$MAXACTVP
 70
    64
  9
$PINSBASE
 10
0.0
 20
0.0
 30
0.0
  9
$PLIMCHECK
 70
     0
  9
$PEXTMIN
 10
1.000000000000000E+20
 20
1.000000000000000E+20
 30
1.000000000000000E+20
  9
$PEXTMAX
 10
-1.000000000000000E+20
 20
-1.000000000000000E+20
 30
-1.000000000000000E+20
  9
$PLIMMIN
 10
0.0
 20
0.0
  9
$PLIMMAX
 10
12.0
 20
9.0
  9
$UNITMODE
 70
     0
  9
$VISRETAIN
 70
     1
  9
$PLINEGEN
 70
     0
  9
$PSLTSCALE
 70
     1
  9
$TREEDEPTH
 70
  3020
  9
$CMLSTYLE
  2
Standard
  9
$CMLJUST
 70
     0
  9
$CMLSCALE
 40
1.0
  9
$PROXYGRAPHICS
 70
     1
  9
$MEASUREMENT
 70
     0
  9
$CELWEIGHT
370
    -1
  9
$ENDCAPS
280
     0
  9
$JOINSTYLE
280
     0
  9
$LWDISPLAY
290
     1
  9
$INSUNITS
 70
     1
  9
$HYPERLINKBASE
  1

  9
$STYLESHEET
  1

  9
$XEDIT
290
     1
  9
$CEPSNTYPE
380
     0
  9
$PSTYLEMODE
290
     1
  9
$FINGERPRINTGUID
  2
{0B42AA7C-1E00-B2FC-8250-1FE7CAB71FE0}
  9
$VERSIONGUID
  2
{FAEB1C32-E019-11D5-929B-00C0DF256EC4}
  9
$EXTNAMES
290
     1
  9
$PSVPSCALE
 40
0.0
  9
$OLESTARTUP
290
     0
  9
$SORTENTS
280
   127
  9
$INDEXCTL
280
     0
  9
$HIDETEXT
280
     1
  9
$XCLIPFRAME
280
     2
  9
$HALOGAP
280
     0
  9
$OBSCOLOR
 70
   257
  9
$OBSLTYPE
280
     0
  9
$INTERSECTIONDISPLAY
280
     0
  9
$INTERSECTIONCOLOR
 70
   257
  9
$DIMASSOC
280
     2
  9
$PROJECTNAME
  1

  9
$CAMERADISPLAY
290
     0
  9
$LENSLENGTH
 40
50.0
  9
$CAMERAHEIGHT
 40
0.0
  9
$STEPSPERSEC
 40
2.0
  9
$STEPSIZE
 40
6.0
  9
$3DDWFPREC
 40
2.0
  9
$PSOLWIDTH
 40
0.25
  9
$PSOLHEIGHT
 40
4.0
  9
$LOFTANG1
 40
1.570796326794897
  9
$LOFTANG2
 40
1.570796326794897
  9
$LOFTMAG1
 40
0.0
  9
$LOFTMAG2
 40
0.0
  9
$LOFTPARAM
 70
     7
  9
$LOFTNORMALS
280
     1
  9
$LATITUDE
 40
37.795
  9
$LONGITUDE
 40
-122.394
  9
$NORTHDIRECTION
 40
0.0
  9
$TIMEZONE
 70
 -8000
  9
$LIGHTGLYPHDISPLAY
280
     1
  9
$TILEMODELIGHTSYNCH
280
     1
  9
$CMATERIAL
347
3C
  9
$SOLIDHIST
280
     1
  9
$SHOWHIST
280
     1
  9
$DWFFRAME
280
     2
  9
$DGNFRAME
280
     2
  9
$REALWORLDSCALE
290
     1
  9
$INTERFERECOLOR
 62
   256
  9
$CSHADOW
280
     0
  9
$SHADOWPLANELOCATION
 40
0.0
  0
ENDSEC
  0
SECTION
  2
CLASSES
  0
CLASS
  1
ACDBDICTIONARYWDFLT
  2
AcDbDictionaryWithDefault
  3
ObjectDBX Classes
 90
        0
 91
        4
280
     0
281
     0
  0
CLASS
  1
VISUALSTYLE
  2
AcDbVisualStyle
  3
ObjectDBX Classes
 90
     4095
 91
        4
280
     0
281
     0
  0
CLASS
  1
MATERIAL
  2
AcDbMaterial
  3
ObjectDBX Classes
 90
     1153
 91
        4
280
     0
281
     0
  0
CLASS
  1
SUN
  2
AcDbSun
  3
SCENEOE
 90
     1024
 91
        4
280
     0
281
     0
  0
ENDSEC
  0
SECTION
  2
TABLES
  0
TABLE
  2
VPORT
  5
8
330
0
100
AcDbSymbolTable
 70
     1
  0
VPORT
  5
29
330
8
100
AcDbSymbolTableRecord
100
AcDbViewportTableRecord
  2
*Active
 70
     0
 10
0.0
 20
0.0
 11
1.0
 21
1.0
 12
0.0
 22
0.0
 13
0.0
 23
0.0
 14
0.5
 24
0.5
 15
0.5
 25
0.5
 16
0.0
 26
0.0
 36
1.0
 17
50.0
 27
62.5
 37
0.0
 40
125.0
 41
0.8
 42
50.0
 43
0.0
 44
0.0
 50
0.0
 51
0.0
 71
     0
 72
   100
 73
     1
 74
     3
 75
     0
 76
     0
 77
     0
 78
     0
281
     0
 65
     1
110
0.0
120
0.0
130
0.0
111
1.0
121
0.0
131
0.0
112
0.0
122
1.0
132
0.0
 79
     0
146
0.0
 60
     3
 61
     5
292
     1
282
     1
141
0.0
142
0.0
 63
   250
361
3F
  0
ENDTAB
  0
TABLE
  2
LTYPE
  5
5
330
0
100
AcDbSymbolTable
 70
     1
  0
LTYPE
  5
14
330
5
100
AcDbSymbolTableRecord
100
AcDbLinetypeTableRecord
  2
ByBlock
 70
     0
  3

 72
    65
 73
     0
 40
0.0
  0
LTYPE
  5
15
330
5
100
AcDbSymbolTableRecord
100
AcDbLinetypeTableRecord
  2
ByLayer
 70
     0
  3

 72
    65
 73
     0
 40
0.0
  0
LTYPE
  5
16
330
5
100
AcDbSymbolTableRecord
100
AcDbLinetypeTableRecord
  2
Continuous
 70
     0
  3
Solid line
 72
    65
 73
     0
 40
0.0
  0
ENDTAB
  0
TABLE
  2
LAYER
  5
2
330
0
100
AcDbSymbolTable
 70
     2
  0
LAYER
  5
10
330
2
100
AcDbSymbolTableRecord
100
AcDbLayerTableRecord
  2
0
 70
     0
 62
     7
  6
Continuous
370
    -3
390
F
347
3E
  0
LAYER
  5
40
330
2
100
AcDbSymbolTableRecord
100
AcDbLayerTableRecord
  2
Layer 1
 70
     0
 62
     7
  6
Continuous
370
    -3
390
F
347
3E
  0
ENDTAB
  0
TABLE
  2
STYLE
  5
3
330
0
100
AcDbSymbolTable
 70
     1
  0
STYLE
  5
11
330
3
100
AcDbSymbolTableRecord
100
AcDbTextStyleTableRecord
  2
Standard
 70
     0
 40
0.0
 41
1.0
 50
0.0
 71
     0
 42
0.2
  3
txt
  4

  0
ENDTAB
  0
TABLE
  2
VIEW
  5
6
330
0
100
AcDbSymbolTable
 70
     0
  0
ENDTAB
  0
TABLE
  2
UCS
  5
7
330
0
100
AcDbSymbolTable
 70
     0
  0
ENDTAB
  0
TABLE
  2
APPID
  5
9
330
0
100
AcDbSymbolTable
 70
     1
  0
APPID
  5
12
330
9
100
AcDbSymbolTableRecord
100
AcDbRegAppTableRecord
  2
ACAD
 70
     0
  0
ENDTAB
  0
TABLE
  2
DIMSTYLE
  5
A
330
0
100
AcDbSymbolTable
 70
     1
100
AcDbDimStyleTable
  0
DIMSTYLE
105
27
330
A
100
AcDbSymbolTableRecord
100
AcDbDimStyleTableRecord
  2
Standard
 70
     0
178
     0
340
11
  0
ENDTAB
  0
TABLE
  2
BLOCK_RECORD
  5
1
330
0
100
AcDbSymbolTable
 70
     1
  0
BLOCK_RECORD
  5
1F
330
1
100
AcDbSymbolTableRecord
100
AcDbBlockTableRecord
  2
*Model_Space
340
22
 70
     0
280
     1
281
     0
  0
BLOCK_RECORD
  5
1B
330
1
100
AcDbSymbolTableRecord
100
AcDbBlockTableRecord
  2
*Paper_Space
340
1E
 70
     0
280
     1
281
     0
  0
BLOCK_RECORD
  5
23
330
1
100
AcDbSymbolTableRecord
100
AcDbBlockTableRecord
  2
*Paper_Space0
340
26
 70
     0
280
     1
281
     0
  0
ENDTAB
  0
ENDSEC
  0
SECTION
  2
BLOCKS
  0
BLOCK
  5
20
330
1F
100
AcDbEntity
  8
0
100
AcDbBlockBegin
  2
*Model_Space
 70
     0
 10
0.0
 20
0.0
 30
0.0
  3
*Model_Space
  1

  0
ENDBLK
  5
21
330
1F
100
AcDbEntity
  8
0
100
AcDbBlockEnd
  0
BLOCK
  5
1C
330
1B
100
AcDbEntity
 67
     1
  8
0
100
AcDbBlockBegin
  2
*Paper_Space
 70
     0
 10
0.0
 20
0.0
 30
0.0
  3
*Paper_Space
  1

  0
ENDBLK
  5
1D
330
1B
100
AcDbEntity
 67
     1
  8
0
100
AcDbBlockEnd
  0
BLOCK
  5
24
330
23
100
AcDbEntity
  8
0
100
AcDbBlockBegin
  2
*Paper_Space0
 70
     0
 10
0.0
 20
0.0
 30
0.0
  3
*Paper_Space0
  1

  0
ENDBLK
  5
25
330
23
100
AcDbEntity
  8
0
100
AcDbBlockEnd
  0
ENDSEC
  0
SECTION
  2
ENTITIES
  0
SPLINE
  5
41
330
1F
100
AcDbEntity
  8
Layer 1
370
     0
100
AcDbSpline
210
0.0
220
0.0
230
1.0
 70
    11
 71
     3
 72
   107
 73
   103
 74
     0
 42
0.0000000001
 43
0.0000000001
 12
1.0
 22
0.0
 32
0.0
 13
1.0
 23
0.0
 33
0.0
 40
0.0
 40
0.0
 40
0.0
 40
0.0
 40
1.0
 40
1.0
 40
1.0
 40
2.0
 40
2.0
 40
2.0
 40
3.0
 40
3.0
 40
3.0
 40
4.0
 40
4.0
 40
4.0
 40
5.0
 40
5.0
 40
5.0
 40
6.0
 40
6.0
 40
6.0
 40
7.0
 40
7.0
 40
7.0
 40
8.0
 40
8.0
 40
8.0
 40
9.0
 40
9.0
 40
9.0
 40
10.0
 40
10.0
 40
10.0
 40
11.0
 40
11.0
 40
11.0
 40
12.0
 40
12.0
 40
12.0
 40
13.0
 40
13.0
 40
13.0
 40
14.0
 40
14.0
 40
14.0
 40
15.0
 40
15.0
 40
15.0
 40
16.0
 40
16.0
 40
16.0
 40
17.0
 40
17.0
 40
17.0
 40
18.0
 40
18.0
 40
18.0
 40
19.0
 40
19.0
 40
19.0
 40
20.0
 40
20.0
 40
20.0
 40
21.0
 40
21.0
 40
21.0
 40
22.0
 40
22.0
 40
22.0
 40
23.0
 40
23.0
 40
23.0
 40
24.0
 40
24.0
 40
24.0
 40
25.0
 40
25.0
 40
25.0
 40
26.0
 40
26.0
 40
26.0
 40
27.0
 40
27.0
 40
27.0
 40
28.0
 40
28.0
 40
28.0
 40
29.0
 40
29.0
 40
29.0
 40
30.0
 40
30.0
 40
30.0
 40
31.0
 40
31.0
 40
31.0
 40
32.0
 40
32.0
 40
32.0
 40
33.0
 40
33.0
 40
33.0
 40
34.0
 40
34.0
 40
34.0
 40
34.0
 10
76.30000305175781
 20
114.1000003814697
 30
0.0
 10
72.70000457763672
 20
115.2000007629395
 30
0.0
 10
69.60000610351562
 20
113.7000007629395
 30
0.0
 10
68.4000015258789
 20
110.2000007629395
 30
0.0
 10
67.30000305175781
 20
107.3000011444092
 30
0.0
 10
60.0
 20
84.70000076293945
 30
0.0
 10
59.80000305175781
 20
83.70000076293945
 30
0.0
 10
59.70000457763672
 20
83.20000076293945
 30
0.0
 10
59.50000381469727
 20
82.9000015258789
 30
0.0
 10
59.30000305175781
 20
82.9000015258789
 30
0.0
 10
58.90000152587891
 20
82.9000015258789
 30
0.0
 10
58.80000305175781
 20
83.70000076293945
 30
0.0
 10
58.70000457763672
 20
84.0
 30
0.0
 10
58.50000381469727
 20
85.5
 30
0.0
 10
56.20000457763672
 20
110.3999996185303
 30
0.0
 10
55.90000534057617
 20
113.2999992370605
 30
0.0
 10
55.70000457763672
 20
115.3999996185303
 30
0.0
 10
54.70000457763672
 20
117.3999991416931
 30
0.0
 10
53.20000457763672
 20
118.5999994277954
 30
0.0
 10
52.0
 20
119.6999998092651
 30
0.0
 10
50.59999847412109
 20
120.0999999046326
 30
0.0
 10
49.0
 20
120.0
 30
0.0
 10
45.29999923706055
 20
119.6999998092651
 30
0.0
 10
43.20000076293945
 20
117.3000001907349
 30
0.0
 10
43.20000076293945
 20
113.3000001907349
 30
0.0
 10
43.20000076293945
 20
111.1000003814697
 30
0.0
 10
44.0
 20
97.70000076293945
 30
0.0
 10
44.5
 20
88.79999923706055
 30
0.0
 10
44.70000076293945
 20
85.0
 30
0.0
 10
44.90000152587891
 20
81.70000076293945
 30
0.0
 10
44.90000152587891
 20
81.39999771118164
 30
0.0
 10
44.90000152587891
 20
80.19999694824219
 30
0.0
 10
44.70000076293945
 20
79.99999618530273
 30
0.0
 10
44.70000076293945
 20
79.89999771118164
 30
0.0
 10
44.70000076293945
 20
79.89999771118164
 30
0.0
 10
44.60000228881836
 20
79.79999923706055
 30
0.0
 10
44.29999923706055
 20
79.79999923706055
 30
0.0
 10
44.29999923706055
 20
79.79999923706055
 30
0.0
 10
44.20000076293945
 20
79.79999923706055
 30
0.0
 10
44.09999847412109
 20
79.89999771118164
 30
0.0
 10
43.59999847412109
 20
81.49999618530273
 30
0.0
 10
43.09999847412109
 20
83.0999984741211
 30
0.0
 10
42.5
 20
84.5999984741211
 30
0.0
 10
41.79999923706055
 20
86.69999694824219
 30
0.0
 10
40.5
 20
88.19999694824219
 30
0.0
 10
38.79999923706055
 20
88.89999771118164
 30
0.0
 10
37.0
 20
89.69999694824219
 30
0.0
 10
34.89999771118164
 20
89.69999694824219
 30
0.0
 10
32.70000076293945
 20
88.79999923706055
 30
0.0
 10
30.70000076293945
 20
88.0
 30
0.0
 10
29.20000076293945
 20
86.5
 30
0.0
 10
28.40000152587891
 20
84.70000076293945
 30
0.0
 10
27.70000076293945
 20
83.10000228881836
 30
0.0
 10
27.70000076293945
 20
81.29999923706055
 30
0.0
 10
28.30000114440918
 20
79.70000076293945
 30
0.0
 10
26.90000152587891
 20
80.10000228881836
 30
0.0
 10
25.20000076293945
 20
80.0
 30
0.0
 10
23.5
 20
79.4000015258789
 30
0.0
 10
21.70000076293945
 20
78.70000076293945
 30
0.0
 10
20.29999923706055
 20
77.4000015258789
 30
0.0
 10
19.70000076293945
 20
75.70000076293945
 30
0.0
 10
19.0
 20
74.10000228881836
 30
0.0
 10
19.10000038146973
 20
72.20000076293945
 30
0.0
 10
19.80000114440918
 20
70.5
 30
0.0
 10
19.80000114440918
 20
70.5
 30
0.0
 10
19.90000152587891
 20
70.4000015258789
 30
0.0
 10
20.00000190734863
 20
70.4000015258789
 30
0.0
 10
20.00000190734863
 20
70.20000076293945
 30
0.0
 10
20.10000228881836
 20
70.10000228881836
 30
0.0
 10
20.10000228881836
 20
69.9000015258789
 30
0.0
 10
20.10000228881836
 20
69.9000015258789
 30
0.0
 10
20.10000228881836
 20
57.0
 30
0.0
 10
20.10000228881836
 20
57.0
 30
0.0
 10
20.10000228881836
 20
49.80000305175781
 30
0.0
 10
22.90000152587891
 20
43.09999847412109
 30
0.0
 10
28.20000267028809
 20
37.90000152587891
 30
0.0
 10
33.50000381469727
 20
32.80000305175781
 30
0.0
 10
40.40000152587891
 20
30.0
 30
0.0
 10
47.70000457763672
 20
30.0
 30
0.0
 10
66.20000457763672
 20
30.0
 30
0.0
 10
74.5
 20
43.90000152587891
 30
0.0
 10
74.5
 20
57.59999847412109
 30
0.0
 10
74.5
 20
57.90000152587891
 30
0.0
 10
74.5
 20
58.29999542236328
 30
0.0
 10
74.5
 20
58.59999847412109
 30
0.0
 10
74.5
 20
58.59999847412109
 30
0.0
 10
74.5
 20
58.59999847412109
 30
0.0
 10
74.5
 20
58.59999847412109
 30
0.0
 10
74.5
 20
58.69999694824219
 30
0.0
 10
74.5
 20
58.69999694824219
 30
0.0
 10
74.5
 20
58.79999542236328
 30
0.0
 10
74.4000015258789
 20
62.09999465942383
 30
0.0
 10
74.0999984741211
 20
64.39999389648438
 30
0.0
 10
73.80000305175781
 20
66.39999389648438
 30
0.0
 10
73.60000610351562
 20
67.79999542236328
 30
0.0
 10
73.4000015258789
 20
68.99999237060547
 30
0.0
 10
73.4000015258789
 20
70.09999465942383
 30
0.0
 10
73.4000015258789
 20
72.69999313354492
 30
0.0
 10
79.80000305175781
 20
102.7999954223633
 30
0.0
 10
80.80000305175781
 20
106.4999961853027
 30
0.0
 10
81.5
 20
109.8999996185303
 30
0.0
 10
79.69999694824219
 20
113.1000003814697
 30
0.0
 10
76.30000305175781
 20
114.1000003814697
 30
0.0
  0
SPLINE
  5
42
330
1F
100
AcDbEntity
  8
Layer 1
370
     0
100
AcDbSpline
210
0.0
220
0.0
230
1.0
 70
    11
 71
     3
 72
    35
 73
    31
 74
     0
 42
0.0000000001
 43
0.0000000001
 12
1.0
 22
0.0
 32
0.0
 13
1.0
 23
0.0
 33
0.0
 40
0.0
 40
0.0
 40
0.0
 40
0.0
 40
1.0
 40
1.0
 40
1.0
 40
2.0
 40
2.0
 40
2.0
 40
3.0
 40
3.0
 40
3.0
 40
4.0
 40
4.0
 40
4.0
 40
5.0
 40
5.0
 40
5.0
 40
6.0
 40
6.0
 40
6.0
 40
7.0
 40
7.0
 40
7.0
 40
8.0
 40
8.0
 40
8.0
 40
9.0
 40
9.0
 40
9.0
 40
10.0
 40
10.0
 40
10.0
 40
10.0
 10
30.70000076293945
 20
83.70000076293945
 30
0.0
 10
31.20000076293945
 20
84.9000015258789
 30
0.0
 10
32.29999923706055
 20
85.9000015258789
 30
0.0
 10
33.60000228881836
 20
86.5
 30
0.0
 10
35.20000076293945
 20
87.0999984741211
 30
0.0
 10
36.60000228881836
 20
87.20000076293945
 30
0.0
 10
37.80000305175781
 20
86.5999984741211
 30
0.0
 10
38.90000152587891
 20
86.0999984741211
 30
0.0
 10
39.70000457763672
 20
85.0999984741211
 30
0.0
 10
40.30000305175781
 20
83.69999694824219
 30
0.0
 10
41.00000381469727
 20
81.89999771118164
 30
0.0
 10
41.60000228881836
 20
79.89999771118164
 30
0.0
 10
42.20000457763672
 20
77.89999771118164
 30
0.0
 10
42.70000457763672
 20
76.29999923706055
 30
0.0
 10
43.30000305175781
 20
74.5999984741211
 30
0.0
 10
43.80000305175781
 20
72.99999618530273
 30
0.0
 10
41.60000228881836
 20
74.19999694824219
 30
0.0
 10
39.80000305175781
 20
75.39999771118164
 30
0.0
 10
38.40000152587891
 20
76.39999771118164
 30
0.0
 10
36.20000076293945
 20
77.89999771118164
 30
0.0
 10
34.70000076293945
 20
78.99999618530273
 30
0.0
 10
33.10000228881836
 20
78.99999618530273
 30
0.0
 10
32.40000152587891
 20
78.99999618530273
 30
0.0
 10
31.80000305175781
 20
78.89999771118164
 30
0.0
 10
31.20000267028809
 20
78.79999542236328
 30
0.0
 10
31.00000190734863
 20
79.19999694824219
 30
0.0
 10
30.90000343322754
 20
79.49999618530273
 30
0.0
 10
30.70000267028809
 20
79.89999389648438
 30
0.0
 10
30.29999923706055
 20
81.20000076293945
 30
0.0
 10
30.20000076293945
 20
82.5
 30
0.0
 10
30.70000076293945
 20
83.70000076293945
 30
0.0
  0
SPLINE
  5
43
330
1F
100
AcDbEntity
  8
Layer 1
370
     0
100
AcDbSpline
210
0.0
220
0.0
230
1.0
 70
    11
 71
     3
 72
    35
 73
    31
 74
     0
 42
0.0000000001
 43
0.0000000001
 12
1.0
 22
0.0
 32
0.0
 13
1.0
 23
0.0
 33
0.0
 40
0.0
 40
0.0
 40
0.0
 40
0.0
 40
1.0
 40
1.0
 40
1.0
 40
2.0
 40
2.0
 40
2.0
 40
3.0
 40
3.0
 40
3.0
 40
4.0
 40
4.0
 40
4.0
 40
5.0
 40
5.0
 40
5.0
 40
6.0
 40
6.0
 40
6.0
 40
7.0
 40
7.0
 40
7.0
 40
8.0
 40
8.0
 40
8.0
 40
9.0
 40
9.0
 40
9.0
 40
10.0
 40
10.0
 40
10.0
 40
10.0
 10
21.89999961853027
 20
74.5999984741211
 30
0.0
 10
22.29999923706055
 20
75.69999694824219
 30
0.0
 10
23.19999885559082
 20
76.5
 30
0.0
 10
24.39999961853027
 20
77.0
 30
0.0
 10
25.29999923706055
 20
77.29999923706055
 30
0.0
 10
26.69999885559082
 20
77.70000076293945
 30
0.0
 10
28.0
 20
77.0999984741211
 30
0.0
 10
26.70000076293945
 20
75.89999771118164
 30
0.0
 10
26.0
 20
74.19999694824219
 30
0.0
 10
26.0
 20
72.5
 30
0.0
 10
26.0
 20
70.9000015258789
 30
0.0
 10
27.20000076293945
 20
65.0999984741211
 30
0.0
 10
32.70000076293945
 20
59.5
 30
0.0
 10
32.79999923706055
 20
59.40000152587891
 30
0.0
 10
32.79999923706055
 20
59.40000152587891
 30
0.0
 10
32.90000152587891
 20
59.30000305175781
 30
0.0
 10
32.60000228881836
 20
59.10000610351562
 30
0.0
 10
32.20000076293945
 20
58.90000152587891
 30
0.0
 10
31.70000076293945
 20
58.70000457763672
 30
0.0
 10
30.40000152587891
 20
58.20000457763672
 30
0.0
 10
29.20000076293945
 20
58.10000610351562
 30
0.0
 10
26.0
 20
62.80000305175781
 30
0.0
 10
24.5
 20
65.10000228881836
 30
0.0
 10
23.89999961853027
 20
66.50000381469727
 30
0.0
 10
22.79999923706055
 20
69.00000381469727
 30
0.0
 10
22.5
 20
69.70000457763672
 30
0.0
 10
22.19999885559082
 20
70.40000534057617
 30
0.0
 10
21.79999923706055
 20
71.20000457763672
 30
0.0
 10
21.5
 20
72.4000015258789
 30
0.0
 10
21.5
 20
73.5999984741211
 30
0.0
 10
21.89999961853027
 20
74.5999984741211
 30
0.0
  0
SPLINE
  5
44
330
1F
100
AcDbEntity
  8
Layer 1
370
     0
100
AcDbSpline
210
0.0
220
0.0
230
1.0
 70
    11
 71
     3
 72
    65
 73
    61
 74
     0
 42
0.0000000001
 43
0.0000000001
 12
1.0
 22
0.0
 32
0.0
 13
1.0
 23
0.0
 33
0.0
 40
0.0
 40
0.0
 40
0.0
 40
0.0
 40
1.0
 40
1.0
 40
1.0
 40
2.0
 40
2.0
 40
2.0
 40
3.0
 40
3.0
 40
3.0
 40
4.0
 40
4.0
 40
4.0
 40
5.0
 40
5.0
 40
5.0
 40
6.0
 40
6.0
 40
6.0
 40
7.0
 40
7.0
 40
7.0
 40
8.0
 40
8.0
 40
8.0
 40
9.0
 40
9.0
 40
9.0
 40
10.0
 40
10.0
 40
10.0
 40
11.0
 40
11.0
 40
11.0
 40
12.0
 40
12.0
 40
12.0
 40
13.0
 40
13.0
 40
13.0
 40
14.0
 40
14.0
 40
14.0
 40
15.0
 40
15.0
 40
15.0
 40
16.0
 40
16.0
 40
16.0
 40
17.0
 40
17.0
 40
17.0
 40
18.0
 40
18.0
 40
18.0
 40
19.0
 40
19.0
 40
19.0
 40
20.0
 40
20.0
 40
20.0
 40
20.0
 10
66.19999694824219
 20
40.40000152587891
 30
0.0
 10
61.89999771118164
 20
35.20000457763672
 30
0.0
 10
55.39999771118164
 20
32.40000152587891
 30
0.0
 10
47.59999847412109
 20
32.40000152587891
 30
0.0
 10
40.89999771118164
 20
32.40000152587891
 30
0.0
 10
34.39999771118164
 20
35.0
 30
0.0
 10
29.59999847412109
 20
39.59999847412109
 30
0.0
 10
24.70000076293945
 20
44.30000305175781
 30
0.0
 10
22.0
 20
50.40000152587891
 30
0.0
 10
22.0
 20
57.0
 30
0.0
 10
22.0
 20
57.0
 30
0.0
 10
22.0
 20
65.0
 30
0.0
 10
22.0
 20
65.0
 30
0.0
 10
23.0
 20
64.0
 30
0.0
 10
23.20000076293945
 20
62.90000152587891
 30
0.0
 10
24.0
 20
61.70000076293945
 30
0.0
 10
25.89999961853027
 20
58.90000152587891
 30
0.0
 10
27.89999961853027
 20
56.30000305175781
 30
0.0
 10
30.70000076293945
 20
56.30000305175781
 30
0.0
 10
31.30000114440918
 20
56.30000305175781
 30
0.0
 10
32.0
 20
56.40000152587891
 30
0.0
 10
32.60000228881836
 20
56.70000457763672
 30
0.0
 10
33.50000381469727
 20
57.00000762939453
 30
0.0
 10
34.20000076293945
 20
57.40000152587891
 30
0.0
 10
34.70000076293945
 20
57.90000152587891
 30
0.0
 10
37.40000152587891
 20
55.59999847412109
 30
0.0
 10
40.60000228881836
 20
53.80000305175781
 30
0.0
 10
44.30000305175781
 20
52.40000152587891
 30
0.0
 10
49.90000152587891
 20
50.30000305175781
 30
0.0
 10
56.50000381469727
 20
49.20000457763672
 30
0.0
 10
64.0
 20
49.20000457763672
 30
0.0
 10
64.69999694824219
 20
49.20000457763672
 30
0.0
 10
65.19999694824219
 20
49.70000457763672
 30
0.0
 10
65.19999694824219
 20
50.40000152587891
 30
0.0
 10
65.19999694824219
 20
51.09999847412109
 30
0.0
 10
64.69999694824219
 20
51.59999847412109
 30
0.0
 10
63.99999618530273
 20
51.59999847412109
 30
0.0
 10
50.99999618530273
 20
51.59999847412109
 30
0.0
 10
40.79999542236328
 20
55.0
 30
0.0
 10
34.39999389648438
 20
61.29999923706055
 30
0.0
 10
29.39999389648438
 20
66.29999923706055
 30
0.0
 10
28.39999389648438
 20
71.5
 30
0.0
 10
28.39999389648438
 20
72.5999984741211
 30
0.0
 10
28.39999389648438
 20
74.5999984741211
 30
0.0
 10
29.79999351501465
 20
76.5999984741211
 30
0.0
 10
33.09999465942383
 20
76.5999984741211
 30
0.0
 10
33.89999389648438
 20
76.5999984741211
 30
0.0
 10
35.29999542236328
 20
75.5999984741211
 30
0.0
 10
36.99999618530273
 20
74.39999771118164
 30
0.0
 10
41.79999542236328
 20
71.0999984741211
 30
0.0
 10
49.69999694824219
 20
65.5999984741211
 30
0.0
 10
64.79999542236328
 20
65.5999984741211
 30
0.0
 10
69.79999542236328
 20
65.5999984741211
 30
0.0
 10
71.79999542236328
 20
61.59999847412109
 30
0.0
 10
71.89999389648438
 20
58.90000152587891
 30
0.0
 10
71.89999389648438
 20
58.5
 30
0.0
 10
71.89999389648438
 20
58.09999847412109
 30
0.0
 10
71.89999389648438
 20
57.59999847412109
 30
0.0
 10
71.9000015258789
 20
51.0
 30
0.0
 10
69.9000015258789
 20
44.80000305175781
 30
0.0
 10
66.19999694824219
 20
40.40000152587891
 30
0.0
  0
SPLINE
  5
45
330
1F
100
AcDbEntity
  8
Layer 1
370
     0
100
AcDbSpline
210
0.0
220
0.0
230
1.0
 70
    11
 71
     3
 72
    62
 73
    58
 74
     0
 42
0.0000000001
 43
0.0000000001
 12
1.0
 22
0.0
 32
0.0
 13
1.0
 23
0.0
 33
0.0
 40
0.0
 40
0.0
 40
0.0
 40
0.0
 40
1.0
 40
1.0
 40
1.0
 40
2.0
 40
2.0
 40
2.0
 40
3.0
 40
3.0
 40
3.0
 40
4.0
 40
4.0
 40
4.0
 40
5.0
 40
5.0
 40
5.0
 40
6.0
 40
6.0
 40
6.0
 40
7.0
 40
7.0
 40
7.0
 40
8.0
 40
8.0
 40
8.0
 40
9.0
 40
9.0
 40
9.0
 40
10.0
 40
10.0
 40
10.0
 40
11.0
 40
11.0
 40
11.0
 40
12.0
 40
12.0
 40
12.0
 40
13.0
 40
13.0
 40
13.0
 40
14.0
 40
14.0
 40
14.0
 40
15.0
 40
15.0
 40
15.0
 40
16.0
 40
16.0
 40
16.0
 40
17.0
 40
17.0
 40
17.0
 40
18.0
 40
18.0
 40
18.0
 40
19.0
 40
19.0
 40
19.0
 40
19.0
 10
78.19999694824219
 20
107.1000003814697
 30
0.0
 10
77.5
 20
104.5
 30
0.0
 10
70.79999542236328
 20
73.30000305175781
 30
0.0
 10
70.79999542236328
 20
70.0999984741211
 30
0.0
 10
70.79999542236328
 20
68.79999923706055
 30
0.0
 10
70.99999237060547
 20
67.5999984741211
 30
0.0
 10
71.19999694824219
 20
66.0999984741211
 30
0.0
 10
71.19999694824219
 20
66.0
 30
0.0
 10
71.19999694824219
 20
65.79999923706055
 30
0.0
 10
71.29999542236328
 20
65.69999694824219
 30
0.0
 10
69.99999237060547
 20
66.89999771118164
 30
0.0
 10
67.89999389648438
 20
68.0999984741211
 30
0.0
 10
64.79999542236328
 20
68.0999984741211
 30
0.0
 10
57.09999465942383
 20
68.0999984741211
 30
0.0
 10
51.29999542236328
 20
69.5999984741211
 30
0.0
 10
46.89999389648438
 20
71.5999984741211
 30
0.0
 10
46.79999542236328
 20
71.79999923706055
 30
0.0
 10
46.79999542236328
 20
72.0
 30
0.0
 10
46.69999313354492
 20
72.29999923706055
 30
0.0
 10
46.09999465942383
 20
74.0
 30
0.0
 10
45.49999237060547
 20
75.79999923706055
 30
0.0
 10
44.89999389648438
 20
77.5999984741211
 30
0.0
 10
47.29999542236328
 20
78.0
 30
0.0
 10
47.29999542236328
 20
80.29999923706055
 30
0.0
 10
47.29999542236328
 20
81.5
 30
0.0
 10
47.29999542236328
 20
81.79999923706055
 30
0.0
 10
47.19999694824219
 20
83.79999923706055
 30
0.0
 10
46.89999389648438
 20
89.0
 30
0.0
 10
46.39999389648438
 20
97.29999923706055
 30
0.0
 10
45.59999465942383
 20
111.2999992370605
 30
0.0
 10
45.59999465942383
 20
113.3999996185303
 30
0.0
 10
45.59999465942383
 20
116.1999998092651
 30
0.0
 10
46.69999313354492
 20
117.5999994277954
 30
0.0
 10
49.19999313354492
 20
117.7999997138977
 30
0.0
 10
50.09999465942383
 20
117.8999996185303
 30
0.0
 10
50.89999389648438
 20
117.5999999046326
 30
0.0
 10
51.59999465942383
 20
117.0
 30
0.0
 10
52.59999465942383
 20
116.1999998092651
 30
0.0
 10
53.29999542236328
 20
114.8000001907349
 30
0.0
 10
53.39999389648438
 20
113.3000001907349
 30
0.0
 10
53.59999465942383
 20
111.3000001907349
 30
0.0
 10
55.89999389648438
 20
85.5999984741211
 30
0.0
 10
56.19999313354492
 20
83.79999923706055
 30
0.0
 10
56.59999465942383
 20
80.89999771118164
 30
0.0
 10
58.59999465942383
 20
80.70000076293945
 30
0.0
 10
59.09999465942383
 20
80.70000076293945
 30
0.0
 10
59.79999542236328
 20
80.70000076293945
 30
0.0
 10
61.39999389648438
 20
81.0
 30
0.0
 10
61.99999618530273
 20
83.29999923706055
 30
0.0
 10
62.19999694824219
 20
84.0
 30
0.0
 10
69.29999542236328
 20
106.0999984741211
 30
0.0
 10
70.5999984741211
 20
109.5999984741211
 30
0.0
 10
71.69999694824219
 20
112.4999980926514
 30
0.0
 10
73.9000015258789
 20
112.4999980926514
 30
0.0
 10
75.5999984741211
 20
111.9999980926514
 30
0.0
 10
77.69999694824219
 20
111.1999998092651
 30
0.0
 10
78.80000305175781
 20
109.1999998092651
 30
0.0
 10
78.19999694824219
 20
107.1000003814697
 30
0.0
  0
HATCH
  5
46
330
1F
100
AcDbEntity
  8
Layer 1
 62
     7
420
 16777215
100
AcDbHatch
 10
0.0
 20
0.0
 30
0.0
210
0.0
220
0.0
230
1.0
  2
SOLID
 70
     1
 71
     0
 91
        5
 92
        1
 93
        1
 72
     4
 94
        3
 73
     0
 74
     1
 95
      107
 96
      103
 40
0.0
 40
0.0
 40
0.0
 40
0.0
 40
1.0
 40
1.0
 40
1.0
 40
2.0
 40
2.0
 40
2.0
 40
3.0
 40
3.0
 40
3.0
 40
4.0
 40
4.0
 40
4.0
 40
5.0
 40
5.0
 40
5.0
 40
6.0
 40
6.0
 40
6.0
 40
7.0
 40
7.0
 40
7.0
 40
8.0
 40
8.0
 40
8.0
 40
9.0
 40
9.0
 40
9.0
 40
10.0
 40
10.0
 40
10.0
 40
11.0
 40
11.0
 40
11.0
 40
12.0
 40
12.0
 40
12.0
 40
13.0
 40
13.0
 40
13.0
 40
14.0
 40
14.0
 40
14.0
 40
15.0
 40
15.0
 40
15.0
 40
16.0
 40
16.0
 40
16.0
 40
17.0
 40
17.0
 40
17.0
 40
18.0
 40
18.0
 40
18.0
 40
19.0
 40
19.0
 40
19.0
 40
20.0
 40
20.0
 40
20.0
 40
21.0
 40
21.0
 40
21.0
 40
22.0
 40
22.0
 40
22.0
 40
23.0
 40
23.0
 40
23.0
 40
24.0
 40
24.0
 40
24.0
 40
25.0
 40
25.0
 40
25.0
 40
26.0
 40
26.0
 40
26.0
 40
27.0
 40
27.0
 40
27.0
 40
28.0
 40
28.0
 40
28.0
 40
29.0
 40
29.0
 40
29.0
 40
30.0
 40
30.0
 40
30.0
 40
31.0
 40
31.0
 40
31.0
 40
32.0
 40
32.0
 40
32.0
 40
33.0
 40
33.0
 40
33.0
 40
34.0
 40
34.0
 40
34.0
 40
34.0
 10
76.30000305175781
 20
114.1000003814697
 10
72.70000457763672
 20
115.2000007629395
 10
69.60000610351562
 20
113.7000007629395
 10
68.4000015258789
 20
110.2000007629395
 10
67.30000305175781
 20
107.3000011444092
 10
60.0
 20
84.70000076293945
 10
59.80000305175781
 20
83.70000076293945
 10
59.70000457763672
 20
83.20000076293945
 10
59.50000381469727
 20
82.9000015258789
 10
59.30000305175781
 20
82.9000015258789
 10
58.90000152587891
 20
82.9000015258789
 10
58.80000305175781
 20
83.70000076293945
 10
58.70000457763672
 20
84.0
 10
58.50000381469727
 20
85.5
 10
56.20000457763672
 20
110.3999996185303
 10
55.90000534057617
 20
113.2999992370605
 10
55.70000457763672
 20
115.3999996185303
 10
54.70000457763672
 20
117.3999991416931
 10
53.20000457763672
 20
118.5999994277954
 10
52.0
 20
119.6999998092651
 10
50.59999847412109
 20
120.0999999046326
 10
49.0
 20
120.0
 10
45.29999923706055
 20
119.6999998092651
 10
43.20000076293945
 20
117.3000001907349
 10
43.20000076293945
 20
113.3000001907349
 10
43.20000076293945
 20
111.1000003814697
 10
44.0
 20
97.70000076293945
 10
44.5
 20
88.79999923706055
 10
44.70000076293945
 20
85.0
 10
44.90000152587891
 20
81.70000076293945
 10
44.90000152587891
 20
81.39999771118164
 10
44.90000152587891
 20
80.19999694824219
 10
44.70000076293945
 20
79.99999618530273
 10
44.70000076293945
 20
79.89999771118164
 10
44.70000076293945
 20
79.89999771118164
 10
44.60000228881836
 20
79.79999923706055
 10
44.29999923706055
 20
79.79999923706055
 10
44.29999923706055
 20
79.79999923706055
 10
44.20000076293945
 20
79.79999923706055
 10
44.09999847412109
 20
79.89999771118164
 10
43.59999847412109
 20
81.49999618530273
 10
43.09999847412109
 20
83.0999984741211
 10
42.5
 20
84.5999984741211
 10
41.79999923706055
 20
86.69999694824219
 10
40.5
 20
88.19999694824219
 10
38.79999923706055
 20
88.89999771118164
 10
37.0
 20
89.69999694824219
 10
34.89999771118164
 20
89.69999694824219
 10
32.70000076293945
 20
88.79999923706055
 10
30.70000076293945
 20
88.0
 10
29.20000076293945
 20
86.5
 10
28.40000152587891
 20
84.70000076293945
 10
27.70000076293945
 20
83.10000228881836
 10
27.70000076293945
 20
81.29999923706055
 10
28.30000114440918
 20
79.70000076293945
 10
26.90000152587891
 20
80.10000228881836
 10
25.20000076293945
 20
80.0
 10
23.5
 20
79.4000015258789
 10
21.70000076293945
 20
78.70000076293945
 10
20.29999923706055
 20
77.4000015258789
 10
19.70000076293945
 20
75.70000076293945
 10
19.0
 20
74.10000228881836
 10
19.10000038146973
 20
72.20000076293945
 10
19.80000114440918
 20
70.5
 10
19.80000114440918
 20
70.5
 10
19.90000152587891
 20
70.4000015258789
 10
20.00000190734863
 20
70.4000015258789
 10
20.00000190734863
 20
70.20000076293945
 10
20.10000228881836
 20
70.10000228881836
 10
20.10000228881836
 20
69.9000015258789
 10
20.10000228881836
 20
69.9000015258789
 10
20.10000228881836
 20
57.0
 10
20.10000228881836
 20
57.0
 10
20.10000228881836
 20
49.80000305175781
 10
22.90000152587891
 20
43.09999847412109
 10
28.20000267028809
 20
37.90000152587891
 10
33.50000381469727
 20
32.80000305175781
 10
40.40000152587891
 20
30.0
 10
47.70000457763672
 20
30.0
 10
66.20000457763672
 20
30.0
 10
74.5
 20
43.90000152587891
 10
74.5
 20
57.59999847412109
 10
74.5
 20
57.90000152587891
 10
74.5
 20
58.29999542236328
 10
74.5
 20
58.59999847412109
 10
74.5
 20
58.59999847412109
 10
74.5
 20
58.59999847412109
 10
74.5
 20
58.59999847412109
 10
74.5
 20
58.69999694824219
 10
74.5
 20
58.69999694824219
 10
74.5
 20
58.79999542236328
 10
74.4000015258789
 20
62.09999465942383
 10
74.0999984741211
 20
64.39999389648438
 10
73.80000305175781
 20
66.39999389648438
 10
73.60000610351562
 20
67.79999542236328
 10
73.4000015258789
 20
68.99999237060547
 10
73.4000015258789
 20
70.09999465942383
 10
73.4000015258789
 20
72.69999313354492
 10
79.80000305175781
 20
102.7999954223633
 10
80.80000305175781
 20
106.4999961853027
 10
81.5
 20
109.8999996185303
 10
79.69999694824219
 20
113.1000003814697
 10
76.30000305175781
 20
114.1000003814697
 97
        0
 97
        0
 92
        1
 93
        1
 72
     4
 94
        3
 73
     0
 74
     1
 95
       35
 96
       31
 40
0.0
 40
0.0
 40
0.0
 40
0.0
 40
1.0
 40
1.0
 40
1.0
 40
2.0
 40
2.0
 40
2.0
 40
3.0
 40
3.0
 40
3.0
 40
4.0
 40
4.0
 40
4.0
 40
5.0
 40
5.0
 40
5.0
 40
6.0
 40
6.0
 40
6.0
 40
7.0
 40
7.0
 40
7.0
 40
8.0
 40
8.0
 40
8.0
 40
9.0
 40
9.0
 40
9.0
 40
10.0
 40
10.0
 40
10.0
 40
10.0
 10
30.70000076293945
 20
83.70000076293945
 10
31.20000076293945
 20
84.9000015258789
 10
32.29999923706055
 20
85.9000015258789
 10
33.60000228881836
 20
86.5
 10
35.20000076293945
 20
87.0999984741211
 10
36.60000228881836
 20
87.20000076293945
 10
37.80000305175781
 20
86.5999984741211
 10
38.90000152587891
 20
86.0999984741211
 10
39.70000457763672
 20
85.0999984741211
 10
40.30000305175781
 20
83.69999694824219
 10
41.00000381469727
 20
81.89999771118164
 10
41.60000228881836
 20
79.89999771118164
 10
42.20000457763672
 20
77.89999771118164
 10
42.70000457763672
 20
76.29999923706055
 10
43.30000305175781
 20
74.5999984741211
 10
43.80000305175781
 20
72.99999618530273
 10
41.60000228881836
 20
74.19999694824219
 10
39.80000305175781
 20
75.39999771118164
 10
38.40000152587891
 20
76.39999771118164
 10
36.20000076293945
 20
77.89999771118164
 10
34.70000076293945
 20
78.99999618530273
 10
33.10000228881836
 20
78.99999618530273
 10
32.40000152587891
 20
78.99999618530273
 10
31.80000305175781
 20
78.89999771118164
 10
31.20000267028809
 20
78.79999542236328
 10
31.00000190734863
 20
79.19999694824219
 10
30.90000343322754
 20
79.49999618530273
 10
30.70000267028809
 20
79.89999389648438
 10
30.29999923706055
 20
81.20000076293945
 10
30.20000076293945
 20
82.5
 10
30.70000076293945
 20
83.70000076293945
 97
        0
 97
        0
 92
        1
 93
        1
 72
     4
 94
        3
 73
     0
 74
     1
 95
       35
 96
       31
 40
0.0
 40
0.0
 40
0.0
 40
0.0
 40
1.0
 40
1.0
 40
1.0
 40
2.0
 40
2.0
 40
2.0
 40
3.0
 40
3.0
 40
3.0
 40
4.0
 40
4.0
 40
4.0
 40
5.0
 40
5.0
 40
5.0
 40
6.0
 40
6.0
 40
6.0
 40
7.0
 40
7.0
 40
7.0
 40
8.0
 40
8.0
 40
8.0
 40
9.0
 40
9.0
 40
9.0
 40
10.0
 40
10.0
 40
10.0
 40
10.0
 10
21.89999961853027
 20
74.5999984741211
 10
22.29999923706055
 20
75.69999694824219
 10
23.19999885559082
 20
76.5
 10
24.39999961853027
 20
77.0
 10
25.29999923706055
 20
77.29999923706055
 10
26.69999885559082
 20
77.70000076293945
 10
28.0
 20
77.0999984741211
 10
26.70000076293945
 20
75.89999771118164
 10
26.0
 20
74.19999694824219
 10
26.0
 20
72.5
 10
26.0
 20
70.9000015258789
 10
27.20000076293945
 20
65.0999984741211
 10
32.70000076293945
 20
59.5
 10
32.79999923706055
 20
59.40000152587891
 10
32.79999923706055
 20
59.40000152587891
 10
32.90000152587891
 20
59.30000305175781
 10
32.60000228881836
 20
59.10000610351562
 10
32.20000076293945
 20
58.90000152587891
 10
31.70000076293945
 20
58.70000457763672
 10
30.40000152587891
 20
58.20000457763672
 10
29.20000076293945
 20
58.10000610351562
 10
26.0
 20
62.80000305175781
 10
24.5
 20
65.10000228881836
 10
23.89999961853027
 20
66.50000381469727
 10
22.79999923706055
 20
69.00000381469727
 10
22.5
 20
69.70000457763672
 10
22.19999885559082
 20
70.40000534057617
 10
21.79999923706055
 20
71.20000457763672
 10
21.5
 20
72.4000015258789
 10
21.5
 20
73.5999984741211
 10
21.89999961853027
 20
74.5999984741211
 97
        0
 97
        0
 92
        1
 93
        1
 72
     4
 94
        3
 73
     0
 74
     1
 95
       65
 96
       61
 40
0.0
 40
0.0
 40
0.0
 40
0.0
 40
1.0
 40
1.0
 40
1.0
 40
2.0
 40
2.0
 40
2.0
 40
3.0
 40
3.0
 40
3.0
 40
4.0
 40
4.0
 40
4.0
 40
5.0
 40
5.0
 40
5.0
 40
6.0
 40
6.0
 40
6.0
 40
7.0
 40
7.0
 40
7.0
 40
8.0
 40
8.0
 40
8.0
 40
9.0
 40
9.0
 40
9.0
 40
10.0
 40
10.0
 40
10.0
 40
11.0
 40
11.0
 40
11.0
 40
12.0
 40
12.0
 40
12.0
 40
13.0
 40
13.0
 40
13.0
 40
14.0
 40
14.0
 40
14.0
 40
15.0
 40
15.0
 40
15.0
 40
16.0
 40
16.0
 40
16.0
 40
17.0
 40
17.0
 40
17.0
 40
18.0
 40
18.0
 40
18.0
 40
19.0
 40
19.0
 40
19.0
 40
20.0
 40
20.0
 40
20.0
 40
20.0
 10
66.19999694824219
 20
40.40000152587891
 10
61.89999771118164
 20
35.20000457763672
 10
55.39999771118164
 20
32.40000152587891
 10
47.59999847412109
 20
32.40000152587891
 10
40.89999771118164
 20
32.40000152587891
 10
34.39999771118164
 20
35.0
 10
29.59999847412109
 20
39.59999847412109
 10
24.70000076293945
 20
44.30000305175781
 10
22.0
 20
50.40000152587891
 10
22.0
 20
57.0
 10
22.0
 20
57.0
 10
22.0
 20
65.0
 10
22.0
 20
65.0
 10
23.0
 20
64.0
 10
23.20000076293945
 20
62.90000152587891
 10
24.0
 20
61.70000076293945
 10
25.89999961853027
 20
58.90000152587891
 10
27.89999961853027
 20
56.30000305175781
 10
30.70000076293945
 20
56.30000305175781
 10
31.30000114440918
 20
56.30000305175781
 10
32.0
 20
56.40000152587891
 10
32.60000228881836
 20
56.70000457763672
 10
33.50000381469727
 20
57.00000762939453
 10
34.20000076293945
 20
57.40000152587891
 10
34.70000076293945
 20
57.90000152587891
 10
37.40000152587891
 20
55.59999847412109
 10
40.60000228881836
 20
53.80000305175781
 10
44.30000305175781
 20
52.40000152587891
 10
49.90000152587891
 20
50.30000305175781
 10
56.50000381469727
 20
49.20000457763672
 10
64.0
 20
49.20000457763672
 10
64.69999694824219
 20
49.20000457763672
 10
65.19999694824219
 20
49.70000457763672
 10
65.19999694824219
 20
50.40000152587891
 10
65.19999694824219
 20
51.09999847412109
 10
64.69999694824219
 20
51.59999847412109
 10
63.99999618530273
 20
51.59999847412109
 10
50.99999618530273
 20
51.59999847412109
 10
40.79999542236328
 20
55.0
 10
34.39999389648438
 20
61.29999923706055
 10
29.39999389648438
 20
66.29999923706055
 10
28.39999389648438
 20
71.5
 10
28.39999389648438
 20
72.5999984741211
 10
28.39999389648438
 20
74.5999984741211
 10
29.79999351501465
 20
76.5999984741211
 10
33.09999465942383
 20
76.5999984741211
 10
33.89999389648438
 20
76.5999984741211
 10
35.29999542236328
 20
75.5999984741211
 10
36.99999618530273
 20
74.39999771118164
 10
41.79999542236328
 20
71.0999984741211
 10
49.69999694824219
 20
65.5999984741211
 10
64.79999542236328
 20
65.5999984741211
 10
69.79999542236328
 20
65.5999984741211
 10
71.79999542236328
 20
61.59999847412109
 10
71.89999389648438
 20
58.90000152587891
 10
71.89999389648438
 20
58.5
 10
71.89999389648438
 20
58.09999847412109
 10
71.89999389648438
 20
57.59999847412109
 10
71.9000015258789
 20
51.0
 10
69.9000015258789
 20
44.80000305175781
 10
66.19999694824219
 20
40.40000152587891
 97
        0
 97
        0
 92
        1
 93
        1
 72
     4
 94
        3
 73
     0
 74
     1
 95
       62
 96
       58
 40
0.0
 40
0.0
 40
0.0
 40
0.0
 40
1.0
 40
1.0
 40
1.0
 40
2.0
 40
2.0
 40
2.0
 40
3.0
 40
3.0
 40
3.0
 40
4.0
 40
4.0
 40
4.0
 40
5.0
 40
5.0
 40
5.0
 40
6.0
 40
6.0
 40
6.0
 40
7.0
 40
7.0
 40
7.0
 40
8.0
 40
8.0
 40
8.0
 40
9.0
 40
9.0
 40
9.0
 40
10.0
 40
10.0
 40
10.0
 40
11.0
 40
11.0
 40
11.0
 40
12.0
 40
12.0
 40
12.0
 40
13.0
 40
13.0
 40
13.0
 40
14.0
 40
14.0
 40
14.0
 40
15.0
 40
15.0
 40
15.0
 40
16.0
 40
16.0
 40
16.0
 40
17.0
 40
17.0
 40
17.0
 40
18.0
 40
18.0
 40
18.0
 40
19.0
 40
19.0
 40
19.0
 40
19.0
 10
78.19999694824219
 20
107.1000003814697
 10
77.5
 20
104.5
 10
70.79999542236328
 20
73.30000305175781
 10
70.79999542236328
 20
70.0999984741211
 10
70.79999542236328
 20
68.79999923706055
 10
70.99999237060547
 20
67.5999984741211
 10
71.19999694824219
 20
66.0999984741211
 10
71.19999694824219
 20
66.0
 10
71.19999694824219
 20
65.79999923706055
 10
71.29999542236328
 20
65.69999694824219
 10
69.99999237060547
 20
66.89999771118164
 10
67.89999389648438
 20
68.0999984741211
 10
64.79999542236328
 20
68.0999984741211
 10
57.09999465942383
 20
68.0999984741211
 10
51.29999542236328
 20
69.5999984741211
 10
46.89999389648438
 20
71.5999984741211
 10
46.79999542236328
 20
71.79999923706055
 10
46.79999542236328
 20
72.0
 10
46.69999313354492
 20
72.29999923706055
 10
46.09999465942383
 20
74.0
 10
45.49999237060547
 20
75.79999923706055
 10
44.89999389648438
 20
77.5999984741211
 10
47.29999542236328
 20
78.0
 10
47.29999542236328
 20
80.29999923706055
 10
47.29999542236328
 20
81.5
 10
47.29999542236328
 20
81.79999923706055
 10
47.19999694824219
 20
83.79999923706055
 10
46.89999389648438
 20
89.0
 10
46.39999389648438
 20
97.29999923706055
 10
45.59999465942383
 20
111.2999992370605
 10
45.59999465942383
 20
113.3999996185303
 10
45.59999465942383
 20
116.1999998092651
 10
46.69999313354492
 20
117.5999994277954
 10
49.19999313354492
 20
117.7999997138977
 10
50.09999465942383
 20
117.8999996185303
 10
50.89999389648438
 20
117.5999999046326
 10
51.59999465942383
 20
117.0
 10
52.59999465942383
 20
116.1999998092651
 10
53.29999542236328
 20
114.8000001907349
 10
53.39999389648438
 20
113.3000001907349
 10
53.59999465942383
 20
111.3000001907349
 10
55.89999389648438
 20
85.5999984741211
 10
56.19999313354492
 20
83.79999923706055
 10
56.59999465942383
 20
80.89999771118164
 10
58.59999465942383
 20
80.70000076293945
 10
59.09999465942383
 20
80.70000076293945
 10
59.79999542236328
 20
80.70000076293945
 10
61.39999389648438
 20
81.0
 10
61.99999618530273
 20
83.29999923706055
 10
62.19999694824219
 20
84.0
 10
69.29999542236328
 20
106.0999984741211
 10
70.5999984741211
 20
109.5999984741211
 10
71.69999694824219
 20
112.4999980926514
 10
73.9000015258789
 20
112.4999980926514
 10
75.5999984741211
 20
111.9999980926514
 10
77.69999694824219
 20
111.1999998092651
 10
78.80000305175781
 20
109.1999998092651
 10
78.19999694824219
 20
107.1000003814697
 97
        0
 97
        0
 75
     2
 76
     1
 98
        0
  0
ENDSEC
  0
SECTION
  2
OBJECTS
  0
DICTIONARY
  5
C
330
0
100
AcDbDictionary
281
     1
  3
ACAD_GROUP
350
D
  3
ACAD_LAYOUT
350
1A
  3
ACAD_MATERIAL
350
3B
  3
ACAD_MLEADERSTYLE
350
48
  3
ACAD_MLINESTYLE
350
17
  3
ACAD_PLOTSETTINGS
350
19
  3
ACAD_PLOTSTYLENAME
350
E
  3
ACAD_TABLESTYLE
350
47
  3
ACAD_VISUALSTYLE
350
2A
  0
SUN
  5
3F
330
29
100
AcDbSun
 90
        1
290
     0
 63
     7
421
 16777215
 40
1.0
291
     1
 91
  2455826
 92
 54000000
292
     0
 70
     2
 71
   256
280
     1
  0
DICTIONARY
  5
D
102
{ACAD_REACTORS
330
C
102
}
330
C
100
AcDbDictionary
281
     1
  0
DICTIONARY
  5
1A
102
{ACAD_REACTORS
330
C
102
}
330
C
100
AcDbDictionary
281
     1
  3
Layout1
350
1E
  3
Layout2
350
26
  3
Model
350
22
  0
DICTIONARY
  5
3B
102
{ACAD_REACTORS
330
C
102
}
330
C
100
AcDbDictionary
281
     1
  3
ByBlock
350
3D
  3
ByLayer
350
3C
  3
Global
350
3E
  0
DICTIONARY
  5
48
102
{ACAD_REACTORS
330
C
102
}
330
C
100
AcDbDictionary
281
     1
  0
DICTIONARY
  5
17
102
{ACAD_REACTORS
330
C
102
}
330
C
100
AcDbDictionary
281
     1
  3
Standard
350
18
  0
DICTIONARY
  5
19
102
{ACAD_REACTORS
330
C
102
}
330
C
100
AcDbDictionary
281
     1
  0
ACDBDICTIONARYWDFLT
  5
E
102
{ACAD_REACTORS
330
C
102
}
330
C
100
AcDbDictionary
281
     1
  3
Normal
350
F
100
AcDbDictionaryWithDefault
340
F
  0
DICTIONARY
  5
47
102
{ACAD_REACTORS
330
C
102
}
330
C
100
AcDbDictionary
281
     1
  0
DICTIONARY
  5
2A
102
{ACAD_REACTORS
330
C
102
}
330
C
100
AcDbDictionary
281
     1
  3
2dWireframe
350
2F
  3
3D Hidden
350
31
  3
3dWireframe
350
30
  3
Basic
350
32
  3
Brighten
350
36
  3
ColorChange
350
3A
  3
Conceptual
350
34
  3
Dim
350
35
  3
Facepattern
350
39
  3
Flat
350
2B
  3
FlatWithEdges
350
2C
  3
Gouraud
350
2D
  3
GouraudWithEdges
350
2E
  3
Linepattern
350
38
  3
Realistic
350
33
  3
Thicken
350
37
  0
LAYOUT
  5
1E
102
{ACAD_REACTORS
330
1A
102
}
330
1A
100
AcDbPlotSettings
  1

  2
none_device
  4

  6

 40
0.0
 41
0.0
 42
0.0
 43
0.0
 44
0.0
 45
0.0
 46
0.0
 47
0.0
 48
0.0
 49
0.0
140
0.0
141
0.0
142
1.0
143
1.0
 70
   688
 72
     0
 73
     0
 74
     5
  7

 75
    16
 76
     0
 77
     2
 78
   300
147
1.0
148
0.0
149
0.0
100
AcDbLayout
  1
Layout1
 70
     1
 71
     1
 10
0.0
 20
0.0
 11
12.0
 21
9.0
 12
0.0
 22
0.0
 32
0.0
 14
1.000000000000000E+20
 24
1.000000000000000E+20
 34
1.000000000000000E+20
 15
-1.000000000000000E+20
 25
-1.000000000000000E+20
 35
-1.000000000000000E+20
146
0.0
 13
0.0
 23
0.0
 33
0.0
 16
1.0
 26
0.0
 36
0.0
 17
0.0
 27
1.0
 37
0.0
 76
     0
330
1B
  0
LAYOUT
  5
26
102
{ACAD_REACTORS
330
1A
102
}
330
1A
100
AcDbPlotSettings
  1

  2
none_device
  4

  6

 40
0.0
 41
0.0
 42
0.0
 43
0.0
 44
0.0
 45
0.0
 46
0.0
 47
0.0
 48
0.0
 49
0.0
140
0.0
141
0.0
142
1.0
143
1.0
 70
   688
 72
     0
 73
     0
 74
     5
  7

 75
    16
 76
     0
 77
     2
 78
   300
147
1.0
148
0.0
149
0.0
100
AcDbLayout
  1
Layout2
 70
     1
 71
     2
 10
0.0
 20
0.0
 11
0.0
 21
0.0
 12
0.0
 22
0.0
 32
0.0
 14
0.0
 24
0.0
 34
0.0
 15
0.0
 25
0.0
 35
0.0
146
0.0
 13
0.0
 23
0.0
 33
0.0
 16
1.0
 26
0.0
 36
0.0
 17
0.0
 27
1.0
 37
0.0
 76
     0
330
23
  0
LAYOUT
  5
22
102
{ACAD_REACTORS
330
1A
102
}
330
1A
100
AcDbPlotSettings
  1

  2
none_device
  4

  6

 40
0.0
 41
0.0
 42
0.0
 43
0.0
 44
0.0
 45
0.0
 46
0.0
 47
0.0
 48
0.0
 49
0.0
140
0.0
141
0.0
142
1.0
143
1.0
 70
  1712
 72
     0
 73
     0
 74
     0
  7

 75
     0
 76
     0
 77
     2
 78
   300
147
1.0
148
0.0
149
0.0
100
AcDbLayout
  1
Model
 70
     1
 71
     0
 10
0.0
 20
0.0
 11
12.0
 21
9.0
 12
0.0
 22
0.0
 32
0.0
 14
1.000000000000000E+20
 24
1.000000000000000E+20
 34
1.000000000000000E+20
 15
-1.000000000000000E+20
 25
-1.000000000000000E+20
 35
-1.000000000000000E+20
146
0.0
 13
0.0
 23
0.0
 33
0.0
 16
1.0
 26
0.0
 36
0.0
 17
0.0
 27
1.0
 37
0.0
 76
     0
330
1F
331
29
  0
MATERIAL
  5
3D
102
{ACAD_REACTORS
330
3B
102
}
330
3B
100
AcDbMaterial
  1
ByBlock
 72
     1
 94
      127
  0
MATERIAL
  5
3C
102
{ACAD_REACTORS
330
3B
102
}
330
3B
100
AcDbMaterial
  1
ByLayer
 72
     1
 94
      127
  0
MATERIAL
  5
3E
102
{ACAD_REACTORS
330
3B
102
}
330
3B
100
AcDbMaterial
  1
Global
 72
     1
 94
      127
  0
MLINESTYLE
  5
18
102
{ACAD_REACTORS
330
17
102
}
330
17
100
AcDbMlineStyle
  2
Standard
 70
     0
  3

 62
   256
 51
90.0
 52
90.0
 71
     2
 49
0.5
 62
   256
  6
BYLAYER
 49
-0.5
 62
   256
  6
BYLAYER
  0
ACDBPLACEHOLDER
  5
F
102
{ACAD_REACTORS
330
E
102
}
330
E
  0
VISUALSTYLE
  5
2F
102
{ACAD_REACTORS
330
2A
102
}
330
2A
100
AcDbVisualStyle
  2
2dWireframe
 70
     4
177
     2
291
     0
 71
     0
176
     1
 72
     2
176
     1
 73
     0
176
     1
 90
        0
176
     1
 40
-0.6
176
     1
 41
-30.0
176
     1
 62
     5
 63
     7
421
 16777215
176
     1
 74
     1
176
     1
 91
        4
176
     1
 64
     7
176
     1
 65
   257
176
     1
 75
     1
176
     1
175
     1
176
     1
 42
1.0
176
     1
 92
        0
176
     1
 66
   257
176
     1
 43
1.0
176
     1
 76
     1
176
     1
 77
     6
176
     1
 78
     2
176
     1
 67
     7
176
     1
 79
     5
176
     1
170
     0
176
     1
171
     0
176
     1
290
     0
176
     1
 93
        1
176
     1
 44
0.0
176
     1
173
     0
176
     1
  0
VISUALSTYLE
  5
31
102
{ACAD_REACTORS
330
2A
102
}
330
2A
100
AcDbVisualStyle
  2
3D Hidden
 70
     6
177
     2
291
     0
 71
     1
176
     1
 72
     2
176
     1
 73
     2
176
     1
 90
        0
176
     1
 40
-0.6
176
     1
 41
-30.0
176
     1
 62
     5
 63
     7
421
 16777215
176
     1
 74
     2
176
     1
 91
        2
176
     1
 64
     7
176
     1
 65
   257
176
     1
 75
     2
176
     1
175
     1
176
     1
 42
40.0
176
     1
 92
        0
176
     1
 66
   257
176
     1
 43
1.0
176
     1
 76
     1
176
     1
 77
     6
176
     1
 78
     2
176
     1
 67
     7
176
     1
 79
     3
176
     1
170
     0
176
     1
171
     0
176
     1
290
     0
176
     1
 93
        1
176
     1
 44
0.0
176
     1
173
     0
176
     1
  0
VISUALSTYLE
  5
30
102
{ACAD_REACTORS
330
2A
102
}
330
2A
100
AcDbVisualStyle
  2
3dWireframe
 70
     5
177
     2
291
     0
 71
     0
176
     1
 72
     2
176
     1
 73
     0
176
     1
 90
        0
176
     1
 40
-0.6
176
     1
 41
-30.0
176
     1
 62
     5
 63
     7
421
 16777215
176
     1
 74
     1
176
     1
 91
        4
176
     1
 64
     7
176
     1
 65
   257
176
     1
 75
     1
176
     1
175
     1
176
     1
 42
1.0
176
     1
 92
        0
176
     1
 66
   257
176
     1
 43
1.0
176
     1
 76
     1
176
     1
 77
     6
176
     1
 78
     2
176
     1
 67
     7
176
     1
 79
     5
176
     1
170
     0
176
     1
171
     0
176
     1
290
     0
176
     1
 93
        1
176
     1
 44
0.0
176
     1
173
     0
176
     1
  0
VISUALSTYLE
  5
32
102
{ACAD_REACTORS
330
2A
102
}
330
2A
100
AcDbVisualStyle
  2
Basic
 70
     7
177
     2
291
     1
 71
     1
176
     1
 72
     0
176
     1
 73
     1
176
     1
 90
        0
176
     1
 40
-0.6
176
     1
 41
-30.0
176
     1
 62
     5
 63
     7
421
 16777215
176
     1
 74
     0
176
     1
 91
        4
176
     1
 64
     7
176
     1
 65
   257
176
     1
 75
     1
176
     1
175
     1
176
     1
 42
1.0
176
     1
 92
        8
176
     1
 66
     7
176
     1
 43
1.0
176
     1
 76
     1
176
     1
 77
     6
176
     1
 78
     2
176
     1
 67
     7
176
     1
 79
     5
176
     1
170
     0
176
     1
171
     0
176
     1
290
     0
176
     1
 93
        1
176
     1
 44
0.0
176
     1
173
     0
176
     1
  0
VISUALSTYLE
  5
36
102
{ACAD_REACTORS
330
2A
102
}
330
2A
100
AcDbVisualStyle
  2
Brighten
 70
    12
177
     2
291
     1
 71
     2
176
     1
 72
     2
176
     1
 73
     0
176
     1
 90
        0
176
     1
 40
-0.6
176
     1
 41
-30.0
176
     1
 62
     5
 63
     7
421
 16777215
176
     1
 74
     1
176
     1
 91
        4
176
     1
 64
     7
176
     1
 65
   257
176
     1
 75
     1
176
     1
175
     1
176
     1
 42
1.0
176
     1
 92
        8
176
     1
 66
     7
176
     1
 43
1.0
176
     1
 76
     1
176
     1
 77
     6
176
     1
 78
     2
176
     1
 67
     7
176
     1
 79
     5
176
     1
170
     0
176
     1
171
     0
176
     1
290
     0
176
     1
 93
        1
176
     1
 44
50.0
176
     1
173
     0
176
     1
  0
VISUALSTYLE
  5
3A
102
{ACAD_REACTORS
330
2A
102
}
330
2A
100
AcDbVisualStyle
  2
ColorChange
 70
    16
177
     2
291
     1
 71
     2
176
     1
 72
     2
176
     1
 73
     3
176
     1
 90
        0
176
     1
 40
-0.6
176
     1
 41
-30.0
176
     1
 62
     5
 63
     8
421
  8421504
176
     1
 74
     1
176
     1
 91
        4
176
     1
 64
     7
176
     1
 65
   257
176
     1
 75
     1
176
     1
175
     1
176
     1
 42
1.0
176
     1
 92
        8
176
     1
 66
     8
424
  8421504
176
     1
 43
1.0
176
     1
 76
     1
176
     1
 77
     6
176
     1
 78
     2
176
     1
 67
     7
176
     1
 79
     5
176
     1
170
     0
176
     1
171
     0
176
     1
290
     0
176
     1
 93
        1
176
     1
 44
0.0
176
     1
173
     0
176
     1
  0
VISUALSTYLE
  5
34
102
{ACAD_REACTORS
330
2A
102
}
330
2A
100
AcDbVisualStyle
  2
Conceptual
 70
     9
177
     2
291
     0
 71
     3
176
     1
 72
     2
176
     1
 73
     0
176
     1
 90
        0
176
     1
 40
-0.6
176
     1
 41
-30.0
176
     1
 62
     5
 63
     7
421
 16777215
176
     1
 74
     2
176
     1
 91
        2
176
     1
 64
     7
176
     1
 65
   257
176
     1
 75
     1
176
     1
175
     1
176
     1
 42
40.0
176
     1
 92
        8
176
     1
 66
     7
176
     1
 43
1.0
176
     1
 76
     1
176
     1
 77
     6
176
     1
 78
     2
176
     1
 67
     7
176
     1
 79
     3
176
     1
170
     0
176
     1
171
     0
176
     1
290
     0
176
     1
 93
        1
176
     1
 44
0.0
176
     1
173
     0
176
     1
  0
VISUALSTYLE
  5
35
102
{ACAD_REACTORS
330
2A
102
}
330
2A
100
AcDbVisualStyle
  2
Dim
 70
    11
177
     2
291
     1
 71
     2
176
     1
 72
     2
176
     1
 73
     0
176
     1
 90
        0
176
     1
 40
-0.6
176
     1
 41
-30.0
176
     1
 62
     5
 63
     7
421
 16777215
176
     1
 74
     1
176
     1
 91
        4
176
     1
 64
     7
176
     1
 65
   257
176
     1
 75
     1
176
     1
175
     1
176
     1
 42
1.0
176
     1
 92
        8
176
     1
 66
     7
176
     1
 43
1.0
176
     1
 76
     1
176
     1
 77
     6
176
     1
 78
     2
176
     1
 67
     7
176
     1
 79
     5
176
     1
170
     0
176
     1
171
     0
176
     1
290
     0
176
     1
 93
        1
176
     1
 44
-50.0
176
     1
173
     0
176
     1
  0
VISUALSTYLE
  5
39
102
{ACAD_REACTORS
330
2A
102
}
330
2A
100
AcDbVisualStyle
  2
Facepattern
 70
    15
177
     2
291
     1
 71
     2
176
     1
 72
     2
176
     1
 73
     0
176
     1
 90
        0
176
     1
 40
-0.6
176
     1
 41
-30.0
176
     1
 62
     5
 63
     7
421
 16777215
176
     1
 74
     1
176
     1
 91
        4
176
     1
 64
     7
176
     1
 65
   257
176
     1
 75
     1
176
     1
175
     1
176
     1
 42
1.0
176
     1
 92
        8
176
     1
 66
     7
176
     1
 43
1.0
176
     1
 76
     1
176
     1
 77
     6
176
     1
 78
     2
176
     1
 67
     7
176
     1
 79
     5
176
     1
170
     0
176
     1
171
     0
176
     1
290
     0
176
     1
 93
        1
176
     1
 44
0.0
176
     1
173
     0
176
     1
  0
VISUALSTYLE
  5
2B
102
{ACAD_REACTORS
330
2A
102
}
330
2A
100
AcDbVisualStyle
  2
Flat
 70
     0
177
     2
291
     1
 71
     2
176
     1
 72
     1
176
     1
 73
     1
176
     1
 90
        2
176
     1
 40
-0.6
176
     1
 41
30.0
176
     1
 62
     5
 63
     7
421
 16777215
176
     1
 74
     0
176
     1
 91
        4
176
     1
 64
     7
176
     1
 65
   257
176
     1
 75
     1
176
     1
175
     1
176
     1
 42
1.0
176
     1
 92
        8
176
     1
 66
     7
176
     1
 43
1.0
176
     1
 76
     1
176
     1
 77
     6
176
     1
 78
     2
176
     1
 67
     7
176
     1
 79
     5
176
     1
170
     0
176
     1
171
     0
176
     1
290
     0
176
     1
 93
       13
176
     1
 44
0.0
176
     1
173
     0
176
     1
  0
VISUALSTYLE
  5
2C
102
{ACAD_REACTORS
330
2A
102
}
330
2A
100
AcDbVisualStyle
  2
FlatWithEdges
 70
     1
177
     2
291
     1
 71
     2
176
     1
 72
     1
176
     1
 73
     1
176
     1
 90
        2
176
     1
 40
-0.6
176
     1
 41
30.0
176
     1
 62
     5
 63
     7
421
 16777215
176
     1
 74
     1
176
     1
 91
        4
176
     1
 64
     7
176
     1
 65
   257
176
     1
 75
     1
176
     1
175
     1
176
     1
 42
1.0
176
     1
 92
        0
176
     1
 66
   257
176
     1
 43
1.0
176
     1
 76
     1
176
     1
 77
     6
176
     1
 78
     2
176
     1
 67
     7
176
     1
 79
     5
176
     1
170
     0
176
     1
171
     0
176
     1
290
     0
176
     1
 93
       13
176
     1
 44
0.0
176
     1
173
     0
176
     1
  0
VISUALSTYLE
  5
2D
102
{ACAD_REACTORS
330
2A
102
}
330
2A
100
AcDbVisualStyle
  2
Gouraud
 70
     2
177
     2
291
     1
 71
     2
176
     1
 72
     2
176
     1
 73
     1
176
     1
 90
        2
176
     1
 40
-0.6
176
     1
 41
30.0
176
     1
 62
     5
 63
     7
421
 16777215
176
     1
 74
     0
176
     1
 91
        4
176
     1
 64
     7
176
     1
 65
   257
176
     1
 75
     1
176
     1
175
     1
176
     1
 42
1.0
176
     1
 92
        0
176
     1
 66
     7
176
     1
 43
1.0
176
     1
 76
     1
176
     1
 77
     6
176
     1
 78
     2
176
     1
 67
     7
176
     1
 79
     5
176
     1
170
     0
176
     1
171
     0
176
     1
290
     0
176
     1
 93
       13
176
     1
 44
0.0
176
     1
173
     0
176
     1
  0
VISUALSTYLE
  5
2E
102
{ACAD_REACTORS
330
2A
102
}
330
2A
100
AcDbVisualStyle
  2
GouraudWithEdges
 70
     3
177
     2
291
     1
 71
     2
176
     1
 72
     2
176
     1
 73
     1
176
     1
 90
        2
176
     1
 40
-0.6
176
     1
 41
30.0
176
     1
 62
     5
 63
     7
421
 16777215
176
     1
 74
     1
176
     1
 91
        4
176
     1
 64
     7
176
     1
 65
   257
176
     1
 75
     1
176
     1
175
     1
176
     1
 42
1.0
176
     1
 92
        0
176
     1
 66
   257
176
     1
 43
1.0
176
     1
 76
     1
176
     1
 77
     6
176
     1
 78
     2
176
     1
 67
     7
176
     1
 79
     5
176
     1
170
     0
176
     1
171
     0
176
     1
290
     0
176
     1
 93
       13
176
     1
 44
0.0
176
     1
173
     0
176
     1
  0
VISUALSTYLE
  5
38
102
{ACAD_REACTORS
330
2A
102
}
330
2A
100
AcDbVisualStyle
  2
Linepattern
 70
    14
177
     2
291
     1
 71
     2
176
     1
 72
     2
176
     1
 73
     0
176
     1
 90
        0
176
     1
 40
-0.6
176
     1
 41
-30.0
176
     1
 62
     5
 63
     7
421
 16777215
176
     1
 74
     1
176
     1
 91
        4
176
     1
 64
     7
176
     1
 65
   257
176
     1
 75
     7
176
     1
175
     7
176
     1
 42
1.0
176
     1
 92
        8
176
     1
 66
     7
176
     1
 43
1.0
176
     1
 76
     1
176
     1
 77
     6
176
     1
 78
     2
176
     1
 67
     7
176
     1
 79
     5
176
     1
170
     0
176
     1
171
     0
176
     1
290
     0
176
     1
 93
        1
176
     1
 44
0.0
176
     1
173
     0
176
     1
  0
VISUALSTYLE
  5
33
102
{ACAD_REACTORS
330
2A
102
}
330
2A
100
AcDbVisualStyle
  2
Realistic
 70
     8
177
     2
291
     0
 71
     2
176
     1
 72
     2
176
     1
 73
     0
176
     1
 90
        0
176
     1
 40
-0.6
176
     1
 41
-30.0
176
     1
 62
     5
 63
     7
421
 16777215
176
     1
 74
     1
176
     1
 91
        0
176
     1
 64
     7
176
     1
 65
   257
176
     1
 75
     1
176
     1
175
     1
176
     1
 42
1.0
176
     1
 92
        8
176
     1
 66
     8
424
  7895160
176
     1
 43
1.0
176
     1
 76
     1
176
     1
 77
     6
176
     1
 78
     2
176
     1
 67
     7
176
     1
 79
     5
176
     1
170
     0
176
     1
171
     0
176
     1
290
     0
176
     1
 93
       13
176
     1
 44
0.0
176
     1
173
     0
176
     1
  0
VISUALSTYLE
  5
37
102
{ACAD_REACTORS
330
2A
102
}
330
2A
100
AcDbVisualStyle
  2
Thicken
 70
    13
177
     2
291
     1
 71
     2
176
     1
 72
     2
176
     1
 73
     0
176
     1
 90
        0
176
     1
 40
-0.6
176
     1
 41
-30.0
176
     1
 62
     5
 63
     7
421
 16777215
176
     1
 74
     1
176
     1
 91
        4
176
     1
 64
     7
176
     1
 65
   257
176
     1
 75
     1
176
     1
175
     1
176
     1
 42
1.0
176
     1
 92
       12
176
     1
 66
     7
176
     1
 43
1.0
176
     1
 76
     1
176
     1
 77
     6
176
     1
 78
     2
176
     1
 67
     7
176
     1
 79
     5
176
     1
170
     0
176
     1
171
     0
176
     1
290
     0
176
     1
 93
        1
176
     1
 44
0.0
176
     1
173
     0
176
     1
  0
ENDSEC
  0
EOF
