<?xml version="1.0" encoding="utf-8"?>
<!-- Generator: Adobe Illustrator 19.2.1, SVG Export Plug-In . SVG Version: 6.00 Build 0)  -->
<svg version="1.1" id="Layer_1" xmlns="http://www.w3.org/2000/svg" xmlns:xlink="http://www.w3.org/1999/xlink" x="0px" y="0px"
	 viewBox="0 0 100 125" style="enable-background:new 0 0 100 125;" xml:space="preserve">
<path d="M79.6,5.3C75.9,4.2,72.2,6,71,9.6c-0.9,2.6-5.6,17.2-7.9,24.4c-0.3-0.7-0.7-1.4-1.2-2c-1.5-1.7-3.7-2.7-6.4-2.9
	c-2.5-0.2-4.8,0.6-6.5,2.2c-1,0.9-1.7,2-2.2,3.2c-0.4-0.6-0.8-1.2-1.4-1.7c-1.5-1.4-3.7-2-6.2-1.8c-2.3,0.2-4.3,1.2-5.6,2.8
	c-0.5,0.6-0.9,1.2-1.2,1.9c-1.5-7.7-3.7-18.6-4-20.7c-0.6-4.1-4-5.8-7-5.5c-2.5,0.3-5.9,2.7-5.5,7v1.8C18.6,45.4,19,52,19,52.7v13.6
	c0,7.6,3.2,14.8,8.9,20.2c5.5,5.5,13,8.5,20.8,8.5c19.7,0,28.5-14.7,28.5-29.3c0-0.4,0-1.2,0-1.3c-0.1-3.5-0.4-6-0.7-8.1
	c-0.2-1.5-0.4-2.7-0.4-3.9c0-2.8,7-35.6,7.8-38.6C85,9.6,82.6,6.2,79.6,5.3z M48.8,37.3c0.1-1.7,0.7-3.2,1.9-4.2
	c1.2-1.1,2.8-1.6,4.6-1.5c2,0.1,3.6,0.8,4.6,2c1,1.1,1.3,2.6,1.2,4.5c-0.2,2.3-0.6,4.7-0.9,7.2c-0.4,2.7-0.7,5.4-1,8.1
	c0,0.2-0.1,0.5-0.1,0.7c-4.1-0.6-7.5-1.6-10.3-2.8c0-1.4,0-2.8,0-4.2C48.7,44,48.6,40.8,48.8,37.3z M35.6,35.4
	c0.9-1.1,2.3-1.8,3.9-1.9c1.8-0.1,3.3,0.3,4.3,1.2s1.5,2.1,1.5,3.8c0.1,2.1,0.1,4.2,0.1,6.5c0,1.5,0,3.1,0,4.6
	c-2.6-1.4-4.6-2.8-6.2-3.9c-1.7-1.2-3-2.1-4.3-2.5c-0.2-1.4-0.3-2.6-0.5-3.9C34.3,37.8,34.7,36.5,35.6,35.4z M68.6,84
	c-4.6,5.5-11.4,8.5-19.8,8.5c-7.2,0-13.9-2.7-19-7.7S22,73.3,22,66.4V52.7c0-1.2-1.1-12.6-3.3-34.7l-0.2-1.8
	c-0.3-2.8,2.1-4.1,3.3-4.2c1.8-0.2,3.8,0.7,4.2,3.3c0.5,3.1,4.6,23.6,5.5,27.9C27.8,44,26,46.9,26,49.7c0,1.7,1.3,7.9,7.2,13.8
	c3.3,3.3,7.4,5.9,12.3,7.7c5.9,2.2,12.9,3.4,20.9,3.4c0.7,0,1.3-0.6,1.3-1.3c0-0.7-0.6-1.3-1.3-1.3C52.6,72,41.7,68.4,35,61.6
	c-5.3-5.3-6.4-10.9-6.4-12c0-2.1,1.5-4.2,5-4.2c0.8,0,2.4,1.1,4.1,2.3c5.1,3.5,13.5,9.4,29.5,9.4c5.3,0,7.4,4.3,7.5,7.2
	c0,0.4,0,0.9,0,1.4C74.8,72.7,72.6,79.2,68.6,84z M81.4,13.1c-0.8,2.9-7.9,36-7.9,39.3c0,1.3,0.2,2.7,0.5,4.3c0,0.2,0,0.3,0.1,0.5
	c-1.4-1.3-3.6-2.6-6.9-2.6c-2,0-3.8-0.1-5.6-0.3c0-0.2,0.1-0.5,0.1-0.8c0.3-2.6,0.6-5.4,1-8c0.2-1.8,0.5-3.5,0.7-5.2
	c0.4-0.5,0.7-1.1,0.9-1.9c0.2-0.9,7.8-24.3,9.1-28.1c0.7-2.2,3.1-3.3,5.4-2.6C80.7,8.3,82.1,10.5,81.4,13.1z"/>
</svg>
