<?xml version="1.0" encoding="utf-8"?>
<!-- Generator: Adobe Illustrator 19.2.1, SVG Export Plug-In . SVG Version: 6.00 Build 0)  -->
<svg version="1.1" id="Layer_1" xmlns="http://www.w3.org/2000/svg" xmlns:xlink="http://www.w3.org/1999/xlink" x="0px" y="0px"
	 viewBox="0 0 100 125" style="enable-background:new 0 0 100 125;" xml:space="preserve">
<path d="M80.6,11.7c-3.3-0.8-6.2,0.9-7.3,4.3c-0.4,1.2-9,29.2-9.5,31c-0.1,0.3-0.2,0.4-0.3,0.5c-0.1-0.1-0.1-0.2-0.2-0.5
	c-0.5-1.9-3-8.9-7.9-22l0,0c0.7-4.6,1.3-8.4,1.6-9.7c0.3-1.6,0-3.2-0.8-4.5C55.4,9.3,54,8.3,52.4,8c-1.2-0.2-2.3-0.2-3.2,0.1
	c-0.6-1.1-1.6-2-2.8-2.5c-1.5-0.7-3.2-0.8-4.8-0.2c-3.3,1.2-4.9,4.7-3.8,8c0.5,1.4,1.8,5.4,4.1,12c-2.3,9.1-5,20-5.4,21.6
	c0,0.1,0,0.3,0,0.4c-0.4,0.1-0.7,0.2-1,0.3v-0.1C35,46.2,31,36.3,28.1,29.1c-1.3-3.2-2.3-5.8-2.5-6.3c-1.3-3.2-4.6-4.2-7-3.3
	c-2.9,1.1-4.3,4-3.3,7c0.9,2.8,9.2,29,9.7,31.7c0.4,2.2,0.3,4.5,0.1,6.8C25,66.1,25,67.2,25,68.2c0,7.1,2.9,13.9,8.1,18.9
	c5.2,5.1,12.1,7.9,19.5,7.9C71,95,79.2,81.3,79.3,67.6v-0.1c0-0.1,0-0.2,0-0.3c0-3.7-0.4-6.3-0.7-8.4c-0.2-1.4-0.4-2.6-0.4-3.6
	c0-2.2,4.2-22.5,6.1-31.2c0.5-2.5,0.9-4.4,1-5C85.7,15.5,83.8,12.4,80.6,11.7z M40,12.7c-0.6-1.8,0-4.1,2.3-5c1-0.4,2-0.3,3,0.1
	C46,8.1,46.6,8.7,47,9.4c-0.8,0.8-1.5,1.8-2,3.2v0.1c0,0.1-0.9,3.7-2.1,8.6C41.4,16.6,40.4,13.8,40,12.7z M71,84.7
	c-4.3,5.2-10.7,7.9-18.5,7.9c-6.7,0-13-2.6-17.8-7.2s-7.4-10.7-7.4-17.2c0-1,0.1-2,0.1-3.1c0.2-2.3,0.3-4.9-0.2-7.4
	c-0.6-2.8-8.8-29.1-9.8-31.9c-0.4-1.4-0.2-3.2,1.8-4c1.4-0.5,3.2,0,4,1.9c0.2,0.5,1.2,3,2.5,6.3c2.7,6.8,6.9,17,7.3,18.4
	c0.1,0.2,0.1,0.3,0.2,0.5c-1.5,1.2-2.2,3-2.2,4.7c0,1.6,1.2,7.4,6.7,12.9c3.1,3.1,6.9,5.5,11.5,7.2c5.5,2.1,12.1,3.2,19.6,3.2
	c0.7,0,1.2-0.5,1.2-1.2s-0.5-1.2-1.2-1.2c-12.9,0-23.1-3.3-29.4-9.7c-4.9-5-6-10.2-6-11.2c0-2,1.4-4,4.7-4c0.8,0,2.2,1,3.9,2.1
	c4.7,3.3,12.7,8.8,27.6,8.8c5,0,6.9,4,7.1,6.7c0,0.1,0,0.2,0,0.3C76.7,74.2,74.7,80.3,71,84.7z M82.7,18.5c-0.1,0.6-0.5,2.4-1,4.9
	c-3.2,15.2-6.1,29.6-6.1,31.7c0,1.3,0.2,2.5,0.4,4c0.1,0.5,0.2,1,0.2,1.5c-1.3-1.3-3.4-2.5-6.6-2.5c-14.2,0-21.7-5.2-26.2-8.3
	c-1.8-1.3-3.2-2.2-4.5-2.5c1.1-4.3,8-32.3,8.5-34.1c1-2.9,3-3.2,4.5-2.9c2.3,0.5,3.1,2.7,2.8,4.5c-0.7,3.9-4.9,31.5-5.1,32.7
	c-0.1,0.7,0.3,1.3,1,1.4c0.1,0,0.1,0,0.2,0c0.6,0,1.1-0.4,1.2-1c0-0.2,1.4-9.4,2.8-18C57,36,60.4,45.6,61,47.7
	c0.5,1.7,1.6,2.3,2.5,2.3l0,0c1.2,0,2.2-1,2.6-2.4c0.5-1.7,9.4-30.7,9.5-30.9c1-3.1,3.5-2.9,4.5-2.7C82,14.4,83.1,16.4,82.7,18.5z"
	/>
</svg>
