  0
SECTION
  2
HEADER
  9
$ACADVER
  1
AC1024
  9
$ACADMAINTVER
 70
     6
  9
$DWGCODEPAGE
  3
UNDEFINED
  9
$INSBASE
 10
0.0
 20
0.0
 30
0.0
  9
$EXTMIN
 10
1.000000000000000E+20
 20
1.000000000000000E+20
 30
1.000000000000000E+20
  9
$EXTMAX
 10
-1.000000000000000E+20
 20
-1.000000000000000E+20
 30
-1.000000000000000E+20
  9
$LIMMIN
 10
0.0
 20
0.0
  9
$LIMMAX
 10
12.0
 20
9.0
  9
$ORTHOMODE
 70
     0
  9
$REGENMODE
 70
     1
  9
$FILLMODE
 70
     1
  9
$QTEXTMODE
 70
     0
  9
$MIRRTEXT
 70
     1
  9
$LTSCALE
 40
1.0
  9
$ATTMODE
 70
     1
  9
$TEXTSIZE
 40
0.2
  9
$TRACEWID
 40
0.05
  9
$TEXTSTYLE
  7
Standard
  9
$CLAYER
  8
0
  9
$CELTYPE
  6
ByLayer
  9
$CECOLOR
 62
   256
  9
$CELTSCALE
 40
1.0
  9
$DISPSILH
 70
     0
  9
$DIMSCALE
 40
1.0
  9
$DIMASZ
 40
0.18
  9
$DIMEXO
 40
0.0625
  9
$DIMDLI
 40
0.38
  9
$DIMRND
 40
0.0
  9
$DIMDLE
 40
0.0
  9
$DIMEXE
 40
0.18
  9
$DIMTP
 40
0.0
  9
$DIMTM
 40
0.0
  9
$DIMTXT
 40
0.18
  9
$DIMCEN
 40
0.09
  9
$DIMTSZ
 40
0.0
  9
$DIMTOL
 70
     0
  9
$DIMLIM
 70
     0
  9
$DIMTIH
 70
     1
  9
$DIMTOH
 70
     1
  9
$DIMSE1
 70
     0
  9
$DIMSE2
 70
     0
  9
$DIMTAD
 70
     0
  9
$DIMZIN
 70
     0
  9
$DIMBLK
  1

  9
$DIMASO
 70
     1
  9
$DIMSHO
 70
     1
  9
$DIMPOST
  1

  9
$DIMAPOST
  1

  9
$DIMALT
 70
     0
  9
$DIMALTD
 70
     2
  9
$DIMALTF
 40
25.4
  9
$DIMLFAC
 40
1.0
  9
$DIMTOFL
 70
     0
  9
$DIMTVP
 40
0.0
  9
$DIMTIX
 70
     0
  9
$DIMSOXD
 70
     0
  9
$DIMSAH
 70
     0
  9
$DIMBLK1
  1

  9
$DIMBLK2
  1

  9
$DIMSTYLE
  2
Standard
  9
$DIMCLRD
 70
     0
  9
$DIMCLRE
 70
     0
  9
$DIMCLRT
 70
     0
  9
$DIMTFAC
 40
1.0
  9
$DIMGAP
 40
0.09
  9
$DIMJUST
 70
     0
  9
$DIMSD1
 70
     0
  9
$DIMSD2
 70
     0
  9
$DIMTOLJ
 70
     1
  9
$DIMTZIN
 70
     0
  9
$DIMALTZ
 70
     0
  9
$DIMALTTZ
 70
     0
  9
$DIMUPT
 70
     0
  9
$DIMDEC
 70
     4
  9
$DIMTDEC
 70
     4
  9
$DIMALTU
 70
     2
  9
$DIMALTTD
 70
     2
  9
$DIMTXSTY
  7
Standard
  9
$DIMAUNIT
 70
     0
  9
$DIMADEC
 70
     0
  9
$DIMALTRND
 40
0.0
  9
$DIMAZIN
 70
     0
  9
$DIMDSEP
 70
    46
  9
$DIMATFIT
 70
     3
  9
$DIMFRAC
 70
     0
  9
$DIMLDRBLK
  1

  9
$DIMLUNIT
 70
     2
  9
$DIMLWD
 70
    -2
  9
$DIMLWE
 70
    -2
  9
$DIMTMOVE
 70
     0
  9
$DIMFXL
 40
1.0
  9
$DIMFXLON
 70
     0
  9
$DIMJOGANG
 40
0.7853981633974483
  9
$DIMTFILL
 70
     0
  9
$DIMTFILLCLR
 70
     0
  9
$DIMARCSYM
 70
     0
  9
$DIMLTYPE
  6

  9
$DIMLTEX1
  6

  9
$DIMLTEX2
  6

  9
$DIMTXTDIRECTION
 70
     0
  9
$LUNITS
 70
     2
  9
$LUPREC
 70
     4
  9
$SKETCHINC
 40
0.1
  9
$FILLETRAD
 40
0.5
  9
$AUNITS
 70
     0
  9
$AUPREC
 70
     0
  9
$MENU
  1
.
  9
$ELEVATION
 40
0.0
  9
$PELEVATION
 40
0.0
  9
$THICKNESS
 40
0.0
  9
$LIMCHECK
 70
     0
  9
$CHAMFERA
 40
0.5
  9
$CHAMFERB
 40
0.5
  9
$CHAMFERC
 40
1.0
  9
$CHAMFERD
 40
0.0
  9
$SKPOLY
 70
     0
  9
$TDCREATE
 40
2457525.591527766
  9
$TDUCREATE
 40
2457525.799861111
  9
$TDUPDATE
 40
2457525.591527766
  9
$TDUUPDATE
 40
2457525.799861111
  9
$TDINDWG
 40
0.0000000116
  9
$TDUSRTIMER
 40
0.0000000116
  9
$USRTIMER
 70
     1
  9
$ANGBASE
 50
0.0
  9
$ANGDIR
 70
     0
  9
$PDMODE
 70
     0
  9
$PDSIZE
 40
0.0
  9
$PLINEWID
 40
0.0
  9
$SPLFRAME
 70
     0
  9
$SPLINETYPE
 70
     6
  9
$SPLINESEGS
 70
     8
  9
$HANDSEED
  5
48
  9
$SURFTAB1
 70
     6
  9
$SURFTAB2
 70
     6
  9
$SURFTYPE
 70
     6
  9
$SURFU
 70
     6
  9
$SURFV
 70
     6
  9
$UCSBASE
  2

  9
$UCSNAME
  2

  9
$UCSORG
 10
0.0
 20
0.0
 30
0.0
  9
$UCSXDIR
 10
1.0
 20
0.0
 30
0.0
  9
$UCSYDIR
 10
0.0
 20
1.0
 30
0.0
  9
$UCSORTHOREF
  2

  9
$UCSORTHOVIEW
 70
     0
  9
$UCSORGTOP
 10
0.0
 20
0.0
 30
0.0
  9
$UCSORGBOTTOM
 10
0.0
 20
0.0
 30
0.0
  9
$UCSORGLEFT
 10
0.0
 20
0.0
 30
0.0
  9
$UCSORGRIGHT
 10
0.0
 20
0.0
 30
0.0
  9
$UCSORGFRONT
 10
0.0
 20
0.0
 30
0.0
  9
$UCSORGBACK
 10
0.0
 20
0.0
 30
0.0
  9
$PUCSBASE
  2

  9
$PUCSNAME
  2

  9
$PUCSORG
 10
0.0
 20
0.0
 30
0.0
  9
$PUCSXDIR
 10
1.0
 20
0.0
 30
0.0
  9
$PUCSYDIR
 10
0.0
 20
1.0
 30
0.0
  9
$PUCSORTHOREF
  2

  9
$PUCSORTHOVIEW
 70
     0
  9
$PUCSORGTOP
 10
0.0
 20
0.0
 30
0.0
  9
$PUCSORGBOTTOM
 10
0.0
 20
0.0
 30
0.0
  9
$PUCSORGLEFT
 10
0.0
 20
0.0
 30
0.0
  9
$PUCSORGRIGHT
 10
0.0
 20
0.0
 30
0.0
  9
$PUCSORGFRONT
 10
0.0
 20
0.0
 30
0.0
  9
$PUCSORGBACK
 10
0.0
 20
0.0
 30
0.0
  9
$USERI1
 70
     0
  9
$USERI2
 70
     0
  9
$USERI3
 70
     0
  9
$USERI4
 70
     0
  9
$USERI5
 70
     0
  9
$USERR1
 40
0.0
  9
$USERR2
 40
0.0
  9
$USERR3
 40
0.0
  9
$USERR4
 40
0.0
  9
$USERR5
 40
0.0
  9
$WORLDVIEW
 70
     1
  9
$SHADEDGE
 70
     3
  9
$SHADEDIF
 70
    70
  9
$TILEMODE
 70
     1
  9
$MAXACTVP
 70
    64
  9
$PINSBASE
 10
0.0
 20
0.0
 30
0.0
  9
$PLIMCHECK
 70
     0
  9
$PEXTMIN
 10
1.000000000000000E+20
 20
1.000000000000000E+20
 30
1.000000000000000E+20
  9
$PEXTMAX
 10
-1.000000000000000E+20
 20
-1.000000000000000E+20
 30
-1.000000000000000E+20
  9
$PLIMMIN
 10
0.0
 20
0.0
  9
$PLIMMAX
 10
12.0
 20
9.0
  9
$UNITMODE
 70
     0
  9
$VISRETAIN
 70
     1
  9
$PLINEGEN
 70
     0
  9
$PSLTSCALE
 70
     1
  9
$TREEDEPTH
 70
  3020
  9
$CMLSTYLE
  2
Standard
  9
$CMLJUST
 70
     0
  9
$CMLSCALE
 40
1.0
  9
$PROXYGRAPHICS
 70
     1
  9
$MEASUREMENT
 70
     0
  9
$CELWEIGHT
370
    -1
  9
$ENDCAPS
280
     0
  9
$JOINSTYLE
280
     0
  9
$LWDISPLAY
290
     1
  9
$INSUNITS
 70
     1
  9
$HYPERLINKBASE
  1

  9
$STYLESHEET
  1

  9
$XEDIT
290
     1
  9
$CEPSNTYPE
380
     0
  9
$PSTYLEMODE
290
     1
  9
$FINGERPRINTGUID
  2
{03DB669D-A558-F5FF-EB4F-9427AECA7436}
  9
$VERSIONGUID
  2
{FAEB1C32-E019-11D5-929B-00C0DF256EC4}
  9
$EXTNAMES
290
     1
  9
$PSVPSCALE
 40
0.0
  9
$OLESTARTUP
290
     0
  9
$SORTENTS
280
   127
  9
$INDEXCTL
280
     0
  9
$HIDETEXT
280
     1
  9
$XCLIPFRAME
280
     2
  9
$HALOGAP
280
     0
  9
$OBSCOLOR
 70
   257
  9
$OBSLTYPE
280
     0
  9
$INTERSECTIONDISPLAY
280
     0
  9
$INTERSECTIONCOLOR
 70
   257
  9
$DIMASSOC
280
     2
  9
$PROJECTNAME
  1

  9
$CAMERADISPLAY
290
     0
  9
$LENSLENGTH
 40
50.0
  9
$CAMERAHEIGHT
 40
0.0
  9
$STEPSPERSEC
 40
2.0
  9
$STEPSIZE
 40
6.0
  9
$3DDWFPREC
 40
2.0
  9
$PSOLWIDTH
 40
0.25
  9
$PSOLHEIGHT
 40
4.0
  9
$LOFTANG1
 40
1.570796326794897
  9
$LOFTANG2
 40
1.570796326794897
  9
$LOFTMAG1
 40
0.0
  9
$LOFTMAG2
 40
0.0
  9
$LOFTPARAM
 70
     7
  9
$LOFTNORMALS
280
     1
  9
$LATITUDE
 40
37.795
  9
$LONGITUDE
 40
-122.394
  9
$NORTHDIRECTION
 40
0.0
  9
$TIMEZONE
 70
 -8000
  9
$LIGHTGLYPHDISPLAY
280
     1
  9
$TILEMODELIGHTSYNCH
280
     1
  9
$CMATERIAL
347
3C
  9
$SOLIDHIST
280
     1
  9
$SHOWHIST
280
     1
  9
$DWFFRAME
280
     2
  9
$DGNFRAME
280
     2
  9
$REALWORLDSCALE
290
     1
  9
$INTERFERECOLOR
 62
   256
  9
$CSHADOW
280
     0
  9
$SHADOWPLANELOCATION
 40
0.0
  0
ENDSEC
  0
SECTION
  2
CLASSES
  0
CLASS
  1
ACDBDICTIONARYWDFLT
  2
AcDbDictionaryWithDefault
  3
ObjectDBX Classes
 90
        0
 91
        4
280
     0
281
     0
  0
CLASS
  1
VISUALSTYLE
  2
AcDbVisualStyle
  3
ObjectDBX Classes
 90
     4095
 91
        4
280
     0
281
     0
  0
CLASS
  1
MATERIAL
  2
AcDbMaterial
  3
ObjectDBX Classes
 90
     1153
 91
        4
280
     0
281
     0
  0
CLASS
  1
SUN
  2
AcDbSun
  3
SCENEOE
 90
     1024
 91
        4
280
     0
281
     0
  0
ENDSEC
  0
SECTION
  2
TABLES
  0
TABLE
  2
VPORT
  5
8
330
0
100
AcDbSymbolTable
 70
     1
  0
VPORT
  5
29
330
8
100
AcDbSymbolTableRecord
100
AcDbViewportTableRecord
  2
*Active
 70
     0
 10
0.0
 20
0.0
 11
1.0
 21
1.0
 12
0.0
 22
0.0
 13
0.0
 23
0.0
 14
0.5
 24
0.5
 15
0.5
 25
0.5
 16
0.0
 26
0.0
 36
1.0
 17
50.0
 27
62.5
 37
0.0
 40
125.0
 41
0.8
 42
50.0
 43
0.0
 44
0.0
 50
0.0
 51
0.0
 71
     0
 72
   100
 73
     1
 74
     3
 75
     0
 76
     0
 77
     0
 78
     0
281
     0
 65
     1
110
0.0
120
0.0
130
0.0
111
1.0
121
0.0
131
0.0
112
0.0
122
1.0
132
0.0
 79
     0
146
0.0
 60
     3
 61
     5
292
     1
282
     1
141
0.0
142
0.0
 63
   250
361
3F
  0
ENDTAB
  0
TABLE
  2
LTYPE
  5
5
330
0
100
AcDbSymbolTable
 70
     1
  0
LTYPE
  5
14
330
5
100
AcDbSymbolTableRecord
100
AcDbLinetypeTableRecord
  2
ByBlock
 70
     0
  3

 72
    65
 73
     0
 40
0.0
  0
LTYPE
  5
15
330
5
100
AcDbSymbolTableRecord
100
AcDbLinetypeTableRecord
  2
ByLayer
 70
     0
  3

 72
    65
 73
     0
 40
0.0
  0
LTYPE
  5
16
330
5
100
AcDbSymbolTableRecord
100
AcDbLinetypeTableRecord
  2
Continuous
 70
     0
  3
Solid line
 72
    65
 73
     0
 40
0.0
  0
ENDTAB
  0
TABLE
  2
LAYER
  5
2
330
0
100
AcDbSymbolTable
 70
     2
  0
LAYER
  5
10
330
2
100
AcDbSymbolTableRecord
100
AcDbLayerTableRecord
  2
0
 70
     0
 62
     7
  6
Continuous
370
    -3
390
F
347
3E
  0
LAYER
  5
40
330
2
100
AcDbSymbolTableRecord
100
AcDbLayerTableRecord
  2
Layer 1
 70
     0
 62
     7
  6
Continuous
370
    -3
390
F
347
3E
  0
ENDTAB
  0
TABLE
  2
STYLE
  5
3
330
0
100
AcDbSymbolTable
 70
     1
  0
STYLE
  5
11
330
3
100
AcDbSymbolTableRecord
100
AcDbTextStyleTableRecord
  2
Standard
 70
     0
 40
0.0
 41
1.0
 50
0.0
 71
     0
 42
0.2
  3
txt
  4

  0
ENDTAB
  0
TABLE
  2
VIEW
  5
6
330
0
100
AcDbSymbolTable
 70
     0
  0
ENDTAB
  0
TABLE
  2
UCS
  5
7
330
0
100
AcDbSymbolTable
 70
     0
  0
ENDTAB
  0
TABLE
  2
APPID
  5
9
330
0
100
AcDbSymbolTable
 70
     1
  0
APPID
  5
12
330
9
100
AcDbSymbolTableRecord
100
AcDbRegAppTableRecord
  2
ACAD
 70
     0
  0
ENDTAB
  0
TABLE
  2
DIMSTYLE
  5
A
330
0
100
AcDbSymbolTable
 70
     1
100
AcDbDimStyleTable
  0
DIMSTYLE
105
27
330
A
100
AcDbSymbolTableRecord
100
AcDbDimStyleTableRecord
  2
Standard
 70
     0
178
     0
340
11
  0
ENDTAB
  0
TABLE
  2
BLOCK_RECORD
  5
1
330
0
100
AcDbSymbolTable
 70
     1
  0
BLOCK_RECORD
  5
1F
330
1
100
AcDbSymbolTableRecord
100
AcDbBlockTableRecord
  2
*Model_Space
340
22
 70
     0
280
     1
281
     0
  0
BLOCK_RECORD
  5
1B
330
1
100
AcDbSymbolTableRecord
100
AcDbBlockTableRecord
  2
*Paper_Space
340
1E
 70
     0
280
     1
281
     0
  0
BLOCK_RECORD
  5
23
330
1
100
AcDbSymbolTableRecord
100
AcDbBlockTableRecord
  2
*Paper_Space0
340
26
 70
     0
280
     1
281
     0
  0
ENDTAB
  0
ENDSEC
  0
SECTION
  2
BLOCKS
  0
BLOCK
  5
20
330
1F
100
AcDbEntity
  8
0
100
AcDbBlockBegin
  2
*Model_Space
 70
     0
 10
0.0
 20
0.0
 30
0.0
  3
*Model_Space
  1

  0
ENDBLK
  5
21
330
1F
100
AcDbEntity
  8
0
100
AcDbBlockEnd
  0
BLOCK
  5
1C
330
1B
100
AcDbEntity
 67
     1
  8
0
100
AcDbBlockBegin
  2
*Paper_Space
 70
     0
 10
0.0
 20
0.0
 30
0.0
  3
*Paper_Space
  1

  0
ENDBLK
  5
1D
330
1B
100
AcDbEntity
 67
     1
  8
0
100
AcDbBlockEnd
  0
BLOCK
  5
24
330
23
100
AcDbEntity
  8
0
100
AcDbBlockBegin
  2
*Paper_Space0
 70
     0
 10
0.0
 20
0.0
 30
0.0
  3
*Paper_Space0
  1

  0
ENDBLK
  5
25
330
23
100
AcDbEntity
  8
0
100
AcDbBlockEnd
  0
ENDSEC
  0
SECTION
  2
ENTITIES
  0
SPLINE
  5
41
330
1F
100
AcDbEntity
  8
Layer 1
370
     0
100
AcDbSpline
210
0.0
220
0.0
230
1.0
 70
    11
 71
     3
 72
   110
 73
   106
 74
     0
 42
0.0000000001
 43
0.0000000001
 12
1.0
 22
0.0
 32
0.0
 13
1.0
 23
0.0
 33
0.0
 40
0.0
 40
0.0
 40
0.0
 40
0.0
 40
1.0
 40
1.0
 40
1.0
 40
2.0
 40
2.0
 40
2.0
 40
3.0
 40
3.0
 40
3.0
 40
4.0
 40
4.0
 40
4.0
 40
5.0
 40
5.0
 40
5.0
 40
6.0
 40
6.0
 40
6.0
 40
7.0
 40
7.0
 40
7.0
 40
8.0
 40
8.0
 40
8.0
 40
9.0
 40
9.0
 40
9.0
 40
10.0
 40
10.0
 40
10.0
 40
11.0
 40
11.0
 40
11.0
 40
12.0
 40
12.0
 40
12.0
 40
13.0
 40
13.0
 40
13.0
 40
14.0
 40
14.0
 40
14.0
 40
15.0
 40
15.0
 40
15.0
 40
16.0
 40
16.0
 40
16.0
 40
17.0
 40
17.0
 40
17.0
 40
18.0
 40
18.0
 40
18.0
 40
19.0
 40
19.0
 40
19.0
 40
20.0
 40
20.0
 40
20.0
 40
21.0
 40
21.0
 40
21.0
 40
22.0
 40
22.0
 40
22.0
 40
23.0
 40
23.0
 40
23.0
 40
24.0
 40
24.0
 40
24.0
 40
25.0
 40
25.0
 40
25.0
 40
26.0
 40
26.0
 40
26.0
 40
27.0
 40
27.0
 40
27.0
 40
28.0
 40
28.0
 40
28.0
 40
29.0
 40
29.0
 40
29.0
 40
30.0
 40
30.0
 40
30.0
 40
31.0
 40
31.0
 40
31.0
 40
32.0
 40
32.0
 40
32.0
 40
33.0
 40
33.0
 40
33.0
 40
34.0
 40
34.0
 40
34.0
 40
35.0
 40
35.0
 40
35.0
 40
35.0
 10
80.5999984741211
 20
113.3000001907349
 30
0.0
 10
77.29999542236328
 20
114.1000003814697
 30
0.0
 10
74.4000015258789
 20
112.4000005722046
 30
0.0
 10
73.29999542236328
 20
109.0
 30
0.0
 10
72.89999389648438
 20
107.7999992370605
 30
0.0
 10
64.29999542236328
 20
79.79999923706055
 30
0.0
 10
63.79999542236328
 20
78.0
 30
0.0
 10
63.69999694824219
 20
77.70000076293945
 30
0.0
 10
63.59999465942383
 20
77.5999984741211
 30
0.0
 10
63.49999618530273
 20
77.5
 30
0.0
 10
63.39999771118164
 20
77.5999984741211
 30
0.0
 10
63.39999771118164
 20
77.70000076293945
 30
0.0
 10
63.29999542236328
 20
78.0
 30
0.0
 10
62.79999542236328
 20
79.9000015258789
 30
0.0
 10
60.29999542236328
 20
86.9000015258789
 30
0.0
 10
55.39999389648438
 20
100.0
 30
0.0
 10
55.39999389648438
 20
100.0
 30
0.0
 10
55.39999389648438
 20
100.0
 30
0.0
 10
55.39999389648438
 20
100.0
 30
0.0
 10
56.09999465942383
 20
104.6000003814697
 30
0.0
 10
56.69999313354492
 20
108.3999996185303
 30
0.0
 10
56.99999237060547
 20
109.6999998092651
 30
0.0
 10
57.29999160766602
 20
111.3000001907349
 30
0.0
 10
56.99999237060547
 20
112.8999996185303
 30
0.0
 10
56.19999313354492
 20
114.1999998092651
 30
0.0
 10
55.40000152587891
 20
115.6999998092651
 30
0.0
 10
54.0
 20
116.6999998092651
 30
0.0
 10
52.40000152587891
 20
117.0
 30
0.0
 10
51.20000076293945
 20
117.1999998092651
 30
0.0
 10
50.10000228881836
 20
117.1999998092651
 30
0.0
 10
49.20000076293945
 20
116.8999996185303
 30
0.0
 10
48.60000228881836
 20
117.9999995231628
 30
0.0
 10
47.60000228881836
 20
118.8999996185303
 30
0.0
 10
46.40000152587891
 20
119.3999996185303
 30
0.0
 10
44.90000152587891
 20
120.0999994277954
 30
0.0
 10
43.20000076293945
 20
120.1999998092651
 30
0.0
 10
41.60000228881836
 20
119.5999994277954
 30
0.0
 10
38.30000305175781
 20
118.3999996185303
 30
0.0
 10
36.70000076293945
 20
114.8999996185303
 30
0.0
 10
37.80000305175781
 20
111.5999994277954
 30
0.0
 10
38.30000305175781
 20
110.1999998092651
 30
0.0
 10
39.60000228881836
 20
106.1999988555908
 30
0.0
 10
41.90000152587891
 20
99.5999984741211
 30
0.0
 10
39.60000228881836
 20
90.5
 30
0.0
 10
36.90000152587891
 20
79.5999984741211
 30
0.0
 10
36.5
 20
78.0
 30
0.0
 10
36.5
 20
77.9000015258789
 30
0.0
 10
36.5
 20
77.70000076293945
 30
0.0
 10
36.5
 20
77.5999984741211
 30
0.0
 10
36.09999847412109
 20
77.5
 30
0.0
 10
35.79999923706055
 20
77.39999771118164
 30
0.0
 10
35.5
 20
77.29999923706055
 30
0.0
 10
35.5
 20
77.29999923706055
 30
0.0
 10
35.5
 20
77.39999771118164
 30
0.0
 10
35.5
 20
77.39999771118164
 30
0.0
 10
35.0
 20
78.79999923706055
 30
0.0
 10
31.0
 20
88.69999694824219
 30
0.0
 10
28.10000038146973
 20
95.89999771118164
 30
0.0
 10
26.80000114440918
 20
99.0999984741211
 30
0.0
 10
25.80000114440918
 20
101.6999969482422
 30
0.0
 10
25.60000038146973
 20
102.1999969482422
 30
0.0
 10
24.30000114440918
 20
105.3999977111816
 30
0.0
 10
21.0
 20
106.3999977111816
 30
0.0
 10
18.60000038146973
 20
105.4999961853027
 30
0.0
 10
15.70000076293945
 20
104.399995803833
 30
0.0
 10
14.30000019073486
 20
101.4999961853027
 30
0.0
 10
15.30000019073486
 20
98.49999618530273
 30
0.0
 10
16.20000076293945
 20
95.69999694824219
 30
0.0
 10
24.5
 20
69.49999618530273
 30
0.0
 10
25.0
 20
66.79999542236328
 30
0.0
 10
25.39999961853027
 20
64.59999465942383
 30
0.0
 10
25.29999923706055
 20
62.29999542236328
 30
0.0
 10
25.10000038146973
 20
59.99999237060547
 30
0.0
 10
25.0
 20
58.89999389648438
 30
0.0
 10
25.0
 20
57.79999542236328
 30
0.0
 10
25.0
 20
56.79999542236328
 30
0.0
 10
25.0
 20
49.69999694824219
 30
0.0
 10
27.89999961853027
 20
42.89999389648438
 30
0.0
 10
33.09999847412109
 20
37.89999389648438
 30
0.0
 10
38.29999923706055
 20
32.79999542236328
 30
0.0
 10
45.19999694824219
 20
29.99999237060547
 30
0.0
 10
52.59999847412109
 20
29.99999237060547
 30
0.0
 10
71.0
 20
29.99999237060547
 30
0.0
 10
79.19999694824219
 20
43.69998931884766
 30
0.0
 10
79.30000305175781
 20
57.39999389648438
 30
0.0
 10
79.30000305175781
 20
57.39999389648438
 30
0.0
 10
79.30000305175781
 20
57.49999237060547
 30
0.0
 10
79.30000305175781
 20
57.49999237060547
 30
0.0
 10
79.30000305175781
 20
57.59999084472656
 30
0.0
 10
79.30000305175781
 20
57.69998931884766
 30
0.0
 10
79.30000305175781
 20
57.79999542236328
 30
0.0
 10
79.30000305175781
 20
61.49999618530273
 30
0.0
 10
78.9000015258789
 20
64.09999465942383
 30
0.0
 10
78.60000610351562
 20
66.19999694824219
 30
0.0
 10
78.40000915527344
 20
67.5999984741211
 30
0.0
 10
78.20000457763672
 20
68.79999542236328
 30
0.0
 10
78.20000457763672
 20
69.79999542236328
 30
0.0
 10
78.20000457763672
 20
71.99999618530273
 30
0.0
 10
82.4000015258789
 20
92.29999542236328
 30
0.0
 10
84.30000305175781
 20
100.9999961853027
 30
0.0
 10
84.80000305175781
 20
103.4999961853027
 30
0.0
 10
85.20000457763672
 20
105.399995803833
 30
0.0
 10
85.30000305175781
 20
105.9999961853027
 30
0.0
 10
85.69999694824219
 20
109.5
 30
0.0
 10
83.80000305175781
 20
112.6000003814697
 30
0.0
 10
80.5999984741211
 20
113.3000001907349
 30
0.0
  0
SPLINE
  5
42
330
1F
100
AcDbEntity
  8
Layer 1
370
     0
100
AcDbSpline
210
0.0
220
0.0
230
1.0
 70
    11
 71
     3
 72
    26
 73
    22
 74
     0
 42
0.0000000001
 43
0.0000000001
 12
1.0
 22
0.0
 32
0.0
 13
1.0
 23
0.0
 33
0.0
 40
0.0
 40
0.0
 40
0.0
 40
0.0
 40
1.0
 40
1.0
 40
1.0
 40
2.0
 40
2.0
 40
2.0
 40
3.0
 40
3.0
 40
3.0
 40
4.0
 40
4.0
 40
4.0
 40
5.0
 40
5.0
 40
5.0
 40
6.0
 40
6.0
 40
6.0
 40
7.0
 40
7.0
 40
7.0
 40
7.0
 10
40.0
 20
112.3000001907349
 30
0.0
 10
39.40000152587891
 20
114.1000003814697
 30
0.0
 10
40.0
 20
116.3999996185303
 30
0.0
 10
42.29999923706055
 20
117.3000001907349
 30
0.0
 10
43.29999923706055
 20
117.7000002861023
 30
0.0
 10
44.29999923706055
 20
117.6000003814697
 30
0.0
 10
45.29999923706055
 20
117.2000002861023
 30
0.0
 10
46.0
 20
116.9000005722046
 30
0.0
 10
46.59999847412109
 20
116.3000001907349
 30
0.0
 10
47.0
 20
115.6000003814697
 30
0.0
 10
46.20000076293945
 20
114.8000001907349
 30
0.0
 10
45.5
 20
113.8000001907349
 30
0.0
 10
45.0
 20
112.4000005722046
 30
0.0
 10
45.0
 20
112.4000005722046
 30
0.0
 10
45.0
 20
112.3000001907349
 30
0.0
 10
45.0
 20
112.3000001907349
 30
0.0
 10
45.0
 20
112.1999998092651
 30
0.0
 10
44.09999847412109
 20
108.6000003814697
 30
0.0
 10
42.90000152587891
 20
103.7000007629395
 30
0.0
 10
41.40000152587891
 20
108.3999996185303
 30
0.0
 10
40.40000152587891
 20
111.1999998092651
 30
0.0
 10
40.0
 20
112.3000001907349
 30
0.0
  0
SPLINE
  5
43
330
1F
100
AcDbEntity
  8
Layer 1
370
     0
100
AcDbSpline
210
0.0
220
0.0
230
1.0
 70
    11
 71
     3
 72
    80
 73
    76
 74
     0
 42
0.0000000001
 43
0.0000000001
 12
1.0
 22
0.0
 32
0.0
 13
1.0
 23
0.0
 33
0.0
 40
0.0
 40
0.0
 40
0.0
 40
0.0
 40
1.0
 40
1.0
 40
1.0
 40
2.0
 40
2.0
 40
2.0
 40
3.0
 40
3.0
 40
3.0
 40
4.0
 40
4.0
 40
4.0
 40
5.0
 40
5.0
 40
5.0
 40
6.0
 40
6.0
 40
6.0
 40
7.0
 40
7.0
 40
7.0
 40
8.0
 40
8.0
 40
8.0
 40
9.0
 40
9.0
 40
9.0
 40
10.0
 40
10.0
 40
10.0
 40
11.0
 40
11.0
 40
11.0
 40
12.0
 40
12.0
 40
12.0
 40
13.0
 40
13.0
 40
13.0
 40
14.0
 40
14.0
 40
14.0
 40
15.0
 40
15.0
 40
15.0
 40
16.0
 40
16.0
 40
16.0
 40
17.0
 40
17.0
 40
17.0
 40
18.0
 40
18.0
 40
18.0
 40
19.0
 40
19.0
 40
19.0
 40
20.0
 40
20.0
 40
20.0
 40
21.0
 40
21.0
 40
21.0
 40
22.0
 40
22.0
 40
22.0
 40
23.0
 40
23.0
 40
23.0
 40
24.0
 40
24.0
 40
24.0
 40
25.0
 40
25.0
 40
25.0
 40
25.0
 10
71.0
 20
40.30000305175781
 30
0.0
 10
66.69999694824219
 20
35.10000610351562
 30
0.0
 10
60.29999923706055
 20
32.40000152587891
 30
0.0
 10
52.5
 20
32.40000152587891
 30
0.0
 10
45.79999923706055
 20
32.40000152587891
 30
0.0
 10
39.5
 20
35.0
 30
0.0
 10
34.70000076293945
 20
39.59999847412109
 30
0.0
 10
29.90000152587891
 20
44.19999694824219
 30
0.0
 10
27.30000114440918
 20
50.29999542236328
 30
0.0
 10
27.30000114440918
 20
56.80000305175781
 30
0.0
 10
27.30000114440918
 20
57.80000305175781
 30
0.0
 10
27.40000152587891
 20
58.80000305175781
 30
0.0
 10
27.40000152587891
 20
59.90000152587891
 30
0.0
 10
27.60000228881836
 20
62.20000076293945
 30
0.0
 10
27.70000076293945
 20
64.80000305175781
 30
0.0
 10
27.20000076293945
 20
67.30000305175781
 30
0.0
 10
26.60000038146973
 20
70.10000228881836
 30
0.0
 10
18.40000152587891
 20
96.40000343322754
 30
0.0
 10
17.40000152587891
 20
99.20000267028809
 30
0.0
 10
17.00000190734863
 20
100.6000022888184
 30
0.0
 10
17.20000076293945
 20
102.4000034332275
 30
0.0
 10
19.20000076293945
 20
103.2000026702881
 30
0.0
 10
20.60000038146973
 20
103.7000026702881
 30
0.0
 10
22.40000152587891
 20
103.2000026702881
 30
0.0
 10
23.20000076293945
 20
101.3000030517578
 30
0.0
 10
23.40000152587891
 20
100.8000030517578
 30
0.0
 10
24.40000152587891
 20
98.30000305175781
 30
0.0
 10
25.70000076293945
 20
95.00000381469727
 30
0.0
 10
28.40000152587891
 20
88.20000457763672
 30
0.0
 10
32.60000228881836
 20
78.00000381469727
 30
0.0
 10
33.0
 20
76.60000610351562
 30
0.0
 10
33.09999847412109
 20
76.40000534057617
 30
0.0
 10
33.09999847412109
 20
76.30000686645508
 30
0.0
 10
33.20000076293945
 20
76.10000610351562
 30
0.0
 10
31.70000076293945
 20
74.90000534057617
 30
0.0
 10
31.0
 20
73.10000610351562
 30
0.0
 10
31.0
 20
71.40000534057617
 30
0.0
 10
31.0
 20
69.80000686645508
 30
0.0
 10
32.20000076293945
 20
64.00000381469727
 30
0.0
 10
37.70000076293945
 20
58.50000762939453
 30
0.0
 10
40.79999923706055
 20
55.40000915527344
 30
0.0
 10
44.60000228881836
 20
53.00000762939453
 30
0.0
 10
49.20000076293945
 20
51.30001068115234
 30
0.0
 10
54.70000076293945
 20
49.20001220703125
 30
0.0
 10
61.30000305175781
 20
48.10001373291016
 30
0.0
 10
68.80000305175781
 20
48.10001373291016
 30
0.0
 10
69.5
 20
48.10001373291016
 30
0.0
 10
70.0
 20
48.60001373291016
 30
0.0
 10
70.0
 20
49.30001068115234
 30
0.0
 10
70.0
 20
50.00000762939453
 30
0.0
 10
69.5
 20
50.50000762939453
 30
0.0
 10
68.80000305175781
 20
50.50000762939453
 30
0.0
 10
55.90000152587891
 20
50.50000762939453
 30
0.0
 10
45.70000457763672
 20
53.80001068115234
 30
0.0
 10
39.40000152587891
 20
60.20000457763672
 30
0.0
 10
34.5
 20
65.20000457763672
 30
0.0
 10
33.40000152587891
 20
70.40000534057617
 30
0.0
 10
33.40000152587891
 20
71.40000534057617
 30
0.0
 10
33.40000152587891
 20
73.40000534057617
 30
0.0
 10
34.80000305175781
 20
75.40000534057617
 30
0.0
 10
38.10000228881836
 20
75.40000534057617
 30
0.0
 10
38.90000152587891
 20
75.40000534057617
 30
0.0
 10
40.30000305175781
 20
74.40000534057617
 30
0.0
 10
42.00000381469727
 20
73.30000686645508
 30
0.0
 10
46.70000457763672
 20
70.00000762939453
 30
0.0
 10
54.70000457763672
 20
64.50000762939453
 30
0.0
 10
69.60000610351562
 20
64.50000762939453
 30
0.0
 10
74.60000610351562
 20
64.50000762939453
 30
0.0
 10
76.50000762939453
 20
60.50000762939453
 30
0.0
 10
76.70000457763672
 20
57.80001068115234
 30
0.0
 10
76.70000457763672
 20
57.70001220703125
 30
0.0
 10
76.70000457763672
 20
57.60001373291016
 30
0.0
 10
76.70000457763672
 20
57.50000762939453
 30
0.0
 10
76.69999694824219
 20
50.80000305175781
 30
0.0
 10
74.69999694824219
 20
44.69999694824219
 30
0.0
 10
71.0
 20
40.30000305175781
 30
0.0
  0
SPLINE
  5
44
330
1F
100
AcDbEntity
  8
Layer 1
370
     0
100
AcDbSpline
210
0.0
220
0.0
230
1.0
 70
    11
 71
     3
 72
    71
 73
    67
 74
     0
 42
0.0000000001
 43
0.0000000001
 12
1.0
 22
0.0
 32
0.0
 13
1.0
 23
0.0
 33
0.0
 40
0.0
 40
0.0
 40
0.0
 40
0.0
 40
1.0
 40
1.0
 40
1.0
 40
2.0
 40
2.0
 40
2.0
 40
3.0
 40
3.0
 40
3.0
 40
4.0
 40
4.0
 40
4.0
 40
5.0
 40
5.0
 40
5.0
 40
6.0
 40
6.0
 40
6.0
 40
7.0
 40
7.0
 40
7.0
 40
8.0
 40
8.0
 40
8.0
 40
9.0
 40
9.0
 40
9.0
 40
10.0
 40
10.0
 40
10.0
 40
11.0
 40
11.0
 40
11.0
 40
12.0
 40
12.0
 40
12.0
 40
13.0
 40
13.0
 40
13.0
 40
14.0
 40
14.0
 40
14.0
 40
15.0
 40
15.0
 40
15.0
 40
16.0
 40
16.0
 40
16.0
 40
17.0
 40
17.0
 40
17.0
 40
18.0
 40
18.0
 40
18.0
 40
19.0
 40
19.0
 40
19.0
 40
20.0
 40
20.0
 40
20.0
 40
21.0
 40
21.0
 40
21.0
 40
22.0
 40
22.0
 40
22.0
 40
22.0
 10
82.69999694824219
 20
106.5
 30
0.0
 10
82.5999984741211
 20
105.8999996185303
 30
0.0
 10
82.19999694824219
 20
104.1000003814697
 30
0.0
 10
81.69999694824219
 20
101.6000003814697
 30
0.0
 10
78.5
 20
86.4000015258789
 30
0.0
 10
75.5999984741211
 20
72.0
 30
0.0
 10
75.5999984741211
 20
69.9000015258789
 30
0.0
 10
75.5999984741211
 20
68.60000228881836
 30
0.0
 10
75.79999542236328
 20
67.4000015258789
 30
0.0
 10
76.0
 20
65.9000015258789
 30
0.0
 10
76.0999984741211
 20
65.4000015258789
 30
0.0
 10
76.19999694824219
 20
64.9000015258789
 30
0.0
 10
76.19999694824219
 20
64.4000015258789
 30
0.0
 10
74.89999389648438
 20
65.70000076293945
 30
0.0
 10
72.79999542236328
 20
66.9000015258789
 30
0.0
 10
69.5999984741211
 20
66.9000015258789
 30
0.0
 10
55.39999771118164
 20
66.9000015258789
 30
0.0
 10
47.89999771118164
 20
72.10000228881836
 30
0.0
 10
43.39999771118164
 20
75.20000076293945
 30
0.0
 10
41.59999847412109
 20
76.5
 30
0.0
 10
40.19999694824219
 20
77.4000015258789
 30
0.0
 10
38.89999771118164
 20
77.70000076293945
 30
0.0
 10
40.0
 20
82.0
 30
0.0
 10
46.90000152587891
 20
110.0
 30
0.0
 10
47.40000152587891
 20
111.8000001907349
 30
0.0
 10
48.40000152587891
 20
114.7000007629395
 30
0.0
 10
50.40000152587891
 20
115.0
 30
0.0
 10
51.90000152587891
 20
114.7000007629395
 30
0.0
 10
54.20000076293945
 20
114.2000007629395
 30
0.0
 10
55.0
 20
112.0000009536743
 30
0.0
 10
54.70000076293945
 20
110.2000007629395
 30
0.0
 10
54.0
 20
106.3000011444092
 30
0.0
 10
49.79999923706055
 20
78.70000076293945
 30
0.0
 10
49.60000228881836
 20
77.5
 30
0.0
 10
49.50000381469727
 20
76.79999923706055
 30
0.0
 10
49.90000152587891
 20
76.20000076293945
 30
0.0
 10
50.60000228881836
 20
76.0999984741211
 30
0.0
 10
50.70000076293945
 20
76.0999984741211
 30
0.0
 10
50.70000076293945
 20
76.0999984741211
 30
0.0
 10
50.80000305175781
 20
76.0999984741211
 30
0.0
 10
51.40000152587891
 20
76.0999984741211
 30
0.0
 10
51.90000152587891
 20
76.5
 30
0.0
 10
52.00000381469727
 20
77.0999984741211
 30
0.0
 10
52.00000381469727
 20
77.29999923706055
 30
0.0
 10
53.40000534057617
 20
86.5
 30
0.0
 10
54.80000305175781
 20
95.0999984741211
 30
0.0
 10
57.0
 20
89.0
 30
0.0
 10
60.40000152587891
 20
79.4000015258789
 30
0.0
 10
61.0
 20
77.29999923706055
 30
0.0
 10
61.5
 20
75.5999984741211
 30
0.0
 10
62.59999847412109
 20
75.0
 30
0.0
 10
63.5
 20
75.0
 30
0.0
 10
63.5
 20
75.0
 30
0.0
 10
63.5
 20
75.0
 30
0.0
 10
63.5
 20
75.0
 30
0.0
 10
64.69999694824219
 20
75.0
 30
0.0
 10
65.69999694824219
 20
76.0
 30
0.0
 10
66.0999984741211
 20
77.4000015258789
 30
0.0
 10
66.5999984741211
 20
79.10000228881836
 30
0.0
 10
75.5
 20
108.1000022888184
 30
0.0
 10
75.5999984741211
 20
108.3000011444092
 30
0.0
 10
76.5999984741211
 20
111.4000015258789
 30
0.0
 10
79.0999984741211
 20
111.2000007629395
 30
0.0
 10
80.0999984741211
 20
111.0000009536743
 30
0.0
 10
82.0
 20
110.6000003814697
 30
0.0
 10
83.0999984741211
 20
108.6000003814697
 30
0.0
 10
82.69999694824219
 20
106.5
 30
0.0
  0
HATCH
  5
45
330
1F
100
AcDbEntity
  8
Layer 1
 62
     7
420
 16777215
100
AcDbHatch
 10
0.0
 20
0.0
 30
0.0
210
0.0
220
0.0
230
1.0
  2
SOLID
 70
     1
 71
     0
 91
        4
 92
        1
 93
        1
 72
     4
 94
        3
 73
     0
 74
     1
 95
      110
 96
      106
 40
0.0
 40
0.0
 40
0.0
 40
0.0
 40
1.0
 40
1.0
 40
1.0
 40
2.0
 40
2.0
 40
2.0
 40
3.0
 40
3.0
 40
3.0
 40
4.0
 40
4.0
 40
4.0
 40
5.0
 40
5.0
 40
5.0
 40
6.0
 40
6.0
 40
6.0
 40
7.0
 40
7.0
 40
7.0
 40
8.0
 40
8.0
 40
8.0
 40
9.0
 40
9.0
 40
9.0
 40
10.0
 40
10.0
 40
10.0
 40
11.0
 40
11.0
 40
11.0
 40
12.0
 40
12.0
 40
12.0
 40
13.0
 40
13.0
 40
13.0
 40
14.0
 40
14.0
 40
14.0
 40
15.0
 40
15.0
 40
15.0
 40
16.0
 40
16.0
 40
16.0
 40
17.0
 40
17.0
 40
17.0
 40
18.0
 40
18.0
 40
18.0
 40
19.0
 40
19.0
 40
19.0
 40
20.0
 40
20.0
 40
20.0
 40
21.0
 40
21.0
 40
21.0
 40
22.0
 40
22.0
 40
22.0
 40
23.0
 40
23.0
 40
23.0
 40
24.0
 40
24.0
 40
24.0
 40
25.0
 40
25.0
 40
25.0
 40
26.0
 40
26.0
 40
26.0
 40
27.0
 40
27.0
 40
27.0
 40
28.0
 40
28.0
 40
28.0
 40
29.0
 40
29.0
 40
29.0
 40
30.0
 40
30.0
 40
30.0
 40
31.0
 40
31.0
 40
31.0
 40
32.0
 40
32.0
 40
32.0
 40
33.0
 40
33.0
 40
33.0
 40
34.0
 40
34.0
 40
34.0
 40
35.0
 40
35.0
 40
35.0
 40
35.0
 10
80.5999984741211
 20
113.3000001907349
 10
77.29999542236328
 20
114.1000003814697
 10
74.4000015258789
 20
112.4000005722046
 10
73.29999542236328
 20
109.0
 10
72.89999389648438
 20
107.7999992370605
 10
64.29999542236328
 20
79.79999923706055
 10
63.79999542236328
 20
78.0
 10
63.69999694824219
 20
77.70000076293945
 10
63.59999465942383
 20
77.5999984741211
 10
63.49999618530273
 20
77.5
 10
63.39999771118164
 20
77.5999984741211
 10
63.39999771118164
 20
77.70000076293945
 10
63.29999542236328
 20
78.0
 10
62.79999542236328
 20
79.9000015258789
 10
60.29999542236328
 20
86.9000015258789
 10
55.39999389648438
 20
100.0
 10
55.39999389648438
 20
100.0
 10
55.39999389648438
 20
100.0
 10
55.39999389648438
 20
100.0
 10
56.09999465942383
 20
104.6000003814697
 10
56.69999313354492
 20
108.3999996185303
 10
56.99999237060547
 20
109.6999998092651
 10
57.29999160766602
 20
111.3000001907349
 10
56.99999237060547
 20
112.8999996185303
 10
56.19999313354492
 20
114.1999998092651
 10
55.40000152587891
 20
115.6999998092651
 10
54.0
 20
116.6999998092651
 10
52.40000152587891
 20
117.0
 10
51.20000076293945
 20
117.1999998092651
 10
50.10000228881836
 20
117.1999998092651
 10
49.20000076293945
 20
116.8999996185303
 10
48.60000228881836
 20
117.9999995231628
 10
47.60000228881836
 20
118.8999996185303
 10
46.40000152587891
 20
119.3999996185303
 10
44.90000152587891
 20
120.0999994277954
 10
43.20000076293945
 20
120.1999998092651
 10
41.60000228881836
 20
119.5999994277954
 10
38.30000305175781
 20
118.3999996185303
 10
36.70000076293945
 20
114.8999996185303
 10
37.80000305175781
 20
111.5999994277954
 10
38.30000305175781
 20
110.1999998092651
 10
39.60000228881836
 20
106.1999988555908
 10
41.90000152587891
 20
99.5999984741211
 10
39.60000228881836
 20
90.5
 10
36.90000152587891
 20
79.5999984741211
 10
36.5
 20
78.0
 10
36.5
 20
77.9000015258789
 10
36.5
 20
77.70000076293945
 10
36.5
 20
77.5999984741211
 10
36.09999847412109
 20
77.5
 10
35.79999923706055
 20
77.39999771118164
 10
35.5
 20
77.29999923706055
 10
35.5
 20
77.29999923706055
 10
35.5
 20
77.39999771118164
 10
35.5
 20
77.39999771118164
 10
35.0
 20
78.79999923706055
 10
31.0
 20
88.69999694824219
 10
28.10000038146973
 20
95.89999771118164
 10
26.80000114440918
 20
99.0999984741211
 10
25.80000114440918
 20
101.6999969482422
 10
25.60000038146973
 20
102.1999969482422
 10
24.30000114440918
 20
105.3999977111816
 10
21.0
 20
106.3999977111816
 10
18.60000038146973
 20
105.4999961853027
 10
15.70000076293945
 20
104.399995803833
 10
14.30000019073486
 20
101.4999961853027
 10
15.30000019073486
 20
98.49999618530273
 10
16.20000076293945
 20
95.69999694824219
 10
24.5
 20
69.49999618530273
 10
25.0
 20
66.79999542236328
 10
25.39999961853027
 20
64.59999465942383
 10
25.29999923706055
 20
62.29999542236328
 10
25.10000038146973
 20
59.99999237060547
 10
25.0
 20
58.89999389648438
 10
25.0
 20
57.79999542236328
 10
25.0
 20
56.79999542236328
 10
25.0
 20
49.69999694824219
 10
27.89999961853027
 20
42.89999389648438
 10
33.09999847412109
 20
37.89999389648438
 10
38.29999923706055
 20
32.79999542236328
 10
45.19999694824219
 20
29.99999237060547
 10
52.59999847412109
 20
29.99999237060547
 10
71.0
 20
29.99999237060547
 10
79.19999694824219
 20
43.69998931884766
 10
79.30000305175781
 20
57.39999389648438
 10
79.30000305175781
 20
57.39999389648438
 10
79.30000305175781
 20
57.49999237060547
 10
79.30000305175781
 20
57.49999237060547
 10
79.30000305175781
 20
57.59999084472656
 10
79.30000305175781
 20
57.69998931884766
 10
79.30000305175781
 20
57.79999542236328
 10
79.30000305175781
 20
61.49999618530273
 10
78.9000015258789
 20
64.09999465942383
 10
78.60000610351562
 20
66.19999694824219
 10
78.40000915527344
 20
67.5999984741211
 10
78.20000457763672
 20
68.79999542236328
 10
78.20000457763672
 20
69.79999542236328
 10
78.20000457763672
 20
71.99999618530273
 10
82.4000015258789
 20
92.29999542236328
 10
84.30000305175781
 20
100.9999961853027
 10
84.80000305175781
 20
103.4999961853027
 10
85.20000457763672
 20
105.399995803833
 10
85.30000305175781
 20
105.9999961853027
 10
85.69999694824219
 20
109.5
 10
83.80000305175781
 20
112.6000003814697
 10
80.5999984741211
 20
113.3000001907349
 97
        0
 97
        0
 92
        1
 93
        1
 72
     4
 94
        3
 73
     0
 74
     1
 95
       26
 96
       22
 40
0.0
 40
0.0
 40
0.0
 40
0.0
 40
1.0
 40
1.0
 40
1.0
 40
2.0
 40
2.0
 40
2.0
 40
3.0
 40
3.0
 40
3.0
 40
4.0
 40
4.0
 40
4.0
 40
5.0
 40
5.0
 40
5.0
 40
6.0
 40
6.0
 40
6.0
 40
7.0
 40
7.0
 40
7.0
 40
7.0
 10
40.0
 20
112.3000001907349
 10
39.40000152587891
 20
114.1000003814697
 10
40.0
 20
116.3999996185303
 10
42.29999923706055
 20
117.3000001907349
 10
43.29999923706055
 20
117.7000002861023
 10
44.29999923706055
 20
117.6000003814697
 10
45.29999923706055
 20
117.2000002861023
 10
46.0
 20
116.9000005722046
 10
46.59999847412109
 20
116.3000001907349
 10
47.0
 20
115.6000003814697
 10
46.20000076293945
 20
114.8000001907349
 10
45.5
 20
113.8000001907349
 10
45.0
 20
112.4000005722046
 10
45.0
 20
112.4000005722046
 10
45.0
 20
112.3000001907349
 10
45.0
 20
112.3000001907349
 10
45.0
 20
112.1999998092651
 10
44.09999847412109
 20
108.6000003814697
 10
42.90000152587891
 20
103.7000007629395
 10
41.40000152587891
 20
108.3999996185303
 10
40.40000152587891
 20
111.1999998092651
 10
40.0
 20
112.3000001907349
 97
        0
 97
        0
 92
        1
 93
        1
 72
     4
 94
        3
 73
     0
 74
     1
 95
       80
 96
       76
 40
0.0
 40
0.0
 40
0.0
 40
0.0
 40
1.0
 40
1.0
 40
1.0
 40
2.0
 40
2.0
 40
2.0
 40
3.0
 40
3.0
 40
3.0
 40
4.0
 40
4.0
 40
4.0
 40
5.0
 40
5.0
 40
5.0
 40
6.0
 40
6.0
 40
6.0
 40
7.0
 40
7.0
 40
7.0
 40
8.0
 40
8.0
 40
8.0
 40
9.0
 40
9.0
 40
9.0
 40
10.0
 40
10.0
 40
10.0
 40
11.0
 40
11.0
 40
11.0
 40
12.0
 40
12.0
 40
12.0
 40
13.0
 40
13.0
 40
13.0
 40
14.0
 40
14.0
 40
14.0
 40
15.0
 40
15.0
 40
15.0
 40
16.0
 40
16.0
 40
16.0
 40
17.0
 40
17.0
 40
17.0
 40
18.0
 40
18.0
 40
18.0
 40
19.0
 40
19.0
 40
19.0
 40
20.0
 40
20.0
 40
20.0
 40
21.0
 40
21.0
 40
21.0
 40
22.0
 40
22.0
 40
22.0
 40
23.0
 40
23.0
 40
23.0
 40
24.0
 40
24.0
 40
24.0
 40
25.0
 40
25.0
 40
25.0
 40
25.0
 10
71.0
 20
40.30000305175781
 10
66.69999694824219
 20
35.10000610351562
 10
60.29999923706055
 20
32.40000152587891
 10
52.5
 20
32.40000152587891
 10
45.79999923706055
 20
32.40000152587891
 10
39.5
 20
35.0
 10
34.70000076293945
 20
39.59999847412109
 10
29.90000152587891
 20
44.19999694824219
 10
27.30000114440918
 20
50.29999542236328
 10
27.30000114440918
 20
56.80000305175781
 10
27.30000114440918
 20
57.80000305175781
 10
27.40000152587891
 20
58.80000305175781
 10
27.40000152587891
 20
59.90000152587891
 10
27.60000228881836
 20
62.20000076293945
 10
27.70000076293945
 20
64.80000305175781
 10
27.20000076293945
 20
67.30000305175781
 10
26.60000038146973
 20
70.10000228881836
 10
18.40000152587891
 20
96.40000343322754
 10
17.40000152587891
 20
99.20000267028809
 10
17.00000190734863
 20
100.6000022888184
 10
17.20000076293945
 20
102.4000034332275
 10
19.20000076293945
 20
103.2000026702881
 10
20.60000038146973
 20
103.7000026702881
 10
22.40000152587891
 20
103.2000026702881
 10
23.20000076293945
 20
101.3000030517578
 10
23.40000152587891
 20
100.8000030517578
 10
24.40000152587891
 20
98.30000305175781
 10
25.70000076293945
 20
95.00000381469727
 10
28.40000152587891
 20
88.20000457763672
 10
32.60000228881836
 20
78.00000381469727
 10
33.0
 20
76.60000610351562
 10
33.09999847412109
 20
76.40000534057617
 10
33.09999847412109
 20
76.30000686645508
 10
33.20000076293945
 20
76.10000610351562
 10
31.70000076293945
 20
74.90000534057617
 10
31.0
 20
73.10000610351562
 10
31.0
 20
71.40000534057617
 10
31.0
 20
69.80000686645508
 10
32.20000076293945
 20
64.00000381469727
 10
37.70000076293945
 20
58.50000762939453
 10
40.79999923706055
 20
55.40000915527344
 10
44.60000228881836
 20
53.00000762939453
 10
49.20000076293945
 20
51.30001068115234
 10
54.70000076293945
 20
49.20001220703125
 10
61.30000305175781
 20
48.10001373291016
 10
68.80000305175781
 20
48.10001373291016
 10
69.5
 20
48.10001373291016
 10
70.0
 20
48.60001373291016
 10
70.0
 20
49.30001068115234
 10
70.0
 20
50.00000762939453
 10
69.5
 20
50.50000762939453
 10
68.80000305175781
 20
50.50000762939453
 10
55.90000152587891
 20
50.50000762939453
 10
45.70000457763672
 20
53.80001068115234
 10
39.40000152587891
 20
60.20000457763672
 10
34.5
 20
65.20000457763672
 10
33.40000152587891
 20
70.40000534057617
 10
33.40000152587891
 20
71.40000534057617
 10
33.40000152587891
 20
73.40000534057617
 10
34.80000305175781
 20
75.40000534057617
 10
38.10000228881836
 20
75.40000534057617
 10
38.90000152587891
 20
75.40000534057617
 10
40.30000305175781
 20
74.40000534057617
 10
42.00000381469727
 20
73.30000686645508
 10
46.70000457763672
 20
70.00000762939453
 10
54.70000457763672
 20
64.50000762939453
 10
69.60000610351562
 20
64.50000762939453
 10
74.60000610351562
 20
64.50000762939453
 10
76.50000762939453
 20
60.50000762939453
 10
76.70000457763672
 20
57.80001068115234
 10
76.70000457763672
 20
57.70001220703125
 10
76.70000457763672
 20
57.60001373291016
 10
76.70000457763672
 20
57.50000762939453
 10
76.69999694824219
 20
50.80000305175781
 10
74.69999694824219
 20
44.69999694824219
 10
71.0
 20
40.30000305175781
 97
        0
 97
        0
 92
        1
 93
        1
 72
     4
 94
        3
 73
     0
 74
     1
 95
       71
 96
       67
 40
0.0
 40
0.0
 40
0.0
 40
0.0
 40
1.0
 40
1.0
 40
1.0
 40
2.0
 40
2.0
 40
2.0
 40
3.0
 40
3.0
 40
3.0
 40
4.0
 40
4.0
 40
4.0
 40
5.0
 40
5.0
 40
5.0
 40
6.0
 40
6.0
 40
6.0
 40
7.0
 40
7.0
 40
7.0
 40
8.0
 40
8.0
 40
8.0
 40
9.0
 40
9.0
 40
9.0
 40
10.0
 40
10.0
 40
10.0
 40
11.0
 40
11.0
 40
11.0
 40
12.0
 40
12.0
 40
12.0
 40
13.0
 40
13.0
 40
13.0
 40
14.0
 40
14.0
 40
14.0
 40
15.0
 40
15.0
 40
15.0
 40
16.0
 40
16.0
 40
16.0
 40
17.0
 40
17.0
 40
17.0
 40
18.0
 40
18.0
 40
18.0
 40
19.0
 40
19.0
 40
19.0
 40
20.0
 40
20.0
 40
20.0
 40
21.0
 40
21.0
 40
21.0
 40
22.0
 40
22.0
 40
22.0
 40
22.0
 10
82.69999694824219
 20
106.5
 10
82.5999984741211
 20
105.8999996185303
 10
82.19999694824219
 20
104.1000003814697
 10
81.69999694824219
 20
101.6000003814697
 10
78.5
 20
86.4000015258789
 10
75.5999984741211
 20
72.0
 10
75.5999984741211
 20
69.9000015258789
 10
75.5999984741211
 20
68.60000228881836
 10
75.79999542236328
 20
67.4000015258789
 10
76.0
 20
65.9000015258789
 10
76.0999984741211
 20
65.4000015258789
 10
76.19999694824219
 20
64.9000015258789
 10
76.19999694824219
 20
64.4000015258789
 10
74.89999389648438
 20
65.70000076293945
 10
72.79999542236328
 20
66.9000015258789
 10
69.5999984741211
 20
66.9000015258789
 10
55.39999771118164
 20
66.9000015258789
 10
47.89999771118164
 20
72.10000228881836
 10
43.39999771118164
 20
75.20000076293945
 10
41.59999847412109
 20
76.5
 10
40.19999694824219
 20
77.4000015258789
 10
38.89999771118164
 20
77.70000076293945
 10
40.0
 20
82.0
 10
46.90000152587891
 20
110.0
 10
47.40000152587891
 20
111.8000001907349
 10
48.40000152587891
 20
114.7000007629395
 10
50.40000152587891
 20
115.0
 10
51.90000152587891
 20
114.7000007629395
 10
54.20000076293945
 20
114.2000007629395
 10
55.0
 20
112.0000009536743
 10
54.70000076293945
 20
110.2000007629395
 10
54.0
 20
106.3000011444092
 10
49.79999923706055
 20
78.70000076293945
 10
49.60000228881836
 20
77.5
 10
49.50000381469727
 20
76.79999923706055
 10
49.90000152587891
 20
76.20000076293945
 10
50.60000228881836
 20
76.0999984741211
 10
50.70000076293945
 20
76.0999984741211
 10
50.70000076293945
 20
76.0999984741211
 10
50.80000305175781
 20
76.0999984741211
 10
51.40000152587891
 20
76.0999984741211
 10
51.90000152587891
 20
76.5
 10
52.00000381469727
 20
77.0999984741211
 10
52.00000381469727
 20
77.29999923706055
 10
53.40000534057617
 20
86.5
 10
54.80000305175781
 20
95.0999984741211
 10
57.0
 20
89.0
 10
60.40000152587891
 20
79.4000015258789
 10
61.0
 20
77.29999923706055
 10
61.5
 20
75.5999984741211
 10
62.59999847412109
 20
75.0
 10
63.5
 20
75.0
 10
63.5
 20
75.0
 10
63.5
 20
75.0
 10
63.5
 20
75.0
 10
64.69999694824219
 20
75.0
 10
65.69999694824219
 20
76.0
 10
66.0999984741211
 20
77.4000015258789
 10
66.5999984741211
 20
79.10000228881836
 10
75.5
 20
108.1000022888184
 10
75.5999984741211
 20
108.3000011444092
 10
76.5999984741211
 20
111.4000015258789
 10
79.0999984741211
 20
111.2000007629395
 10
80.0999984741211
 20
111.0000009536743
 10
82.0
 20
110.6000003814697
 10
83.0999984741211
 20
108.6000003814697
 10
82.69999694824219
 20
106.5
 97
        0
 97
        0
 75
     2
 76
     1
 98
        0
  0
ENDSEC
  0
SECTION
  2
OBJECTS
  0
DICTIONARY
  5
C
330
0
100
AcDbDictionary
281
     1
  3
ACAD_GROUP
350
D
  3
ACAD_LAYOUT
350
1A
  3
ACAD_MATERIAL
350
3B
  3
ACAD_MLEADERSTYLE
350
47
  3
ACAD_MLINESTYLE
350
17
  3
ACAD_PLOTSETTINGS
350
19
  3
ACAD_PLOTSTYLENAME
350
E
  3
ACAD_TABLESTYLE
350
46
  3
ACAD_VISUALSTYLE
350
2A
  0
SUN
  5
3F
330
29
100
AcDbSun
 90
        1
290
     0
 63
     7
421
 16777215
 40
1.0
291
     1
 91
  2455826
 92
 54000000
292
     0
 70
     2
 71
   256
280
     1
  0
DICTIONARY
  5
D
102
{ACAD_REACTORS
330
C
102
}
330
C
100
AcDbDictionary
281
     1
  0
DICTIONARY
  5
1A
102
{ACAD_REACTORS
330
C
102
}
330
C
100
AcDbDictionary
281
     1
  3
Layout1
350
1E
  3
Layout2
350
26
  3
Model
350
22
  0
DICTIONARY
  5
3B
102
{ACAD_REACTORS
330
C
102
}
330
C
100
AcDbDictionary
281
     1
  3
ByBlock
350
3D
  3
ByLayer
350
3C
  3
Global
350
3E
  0
DICTIONARY
  5
47
102
{ACAD_REACTORS
330
C
102
}
330
C
100
AcDbDictionary
281
     1
  0
DICTIONARY
  5
17
102
{ACAD_REACTORS
330
C
102
}
330
C
100
AcDbDictionary
281
     1
  3
Standard
350
18
  0
DICTIONARY
  5
19
102
{ACAD_REACTORS
330
C
102
}
330
C
100
AcDbDictionary
281
     1
  0
ACDBDICTIONARYWDFLT
  5
E
102
{ACAD_REACTORS
330
C
102
}
330
C
100
AcDbDictionary
281
     1
  3
Normal
350
F
100
AcDbDictionaryWithDefault
340
F
  0
DICTIONARY
  5
46
102
{ACAD_REACTORS
330
C
102
}
330
C
100
AcDbDictionary
281
     1
  0
DICTIONARY
  5
2A
102
{ACAD_REACTORS
330
C
102
}
330
C
100
AcDbDictionary
281
     1
  3
2dWireframe
350
2F
  3
3D Hidden
350
31
  3
3dWireframe
350
30
  3
Basic
350
32
  3
Brighten
350
36
  3
ColorChange
350
3A
  3
Conceptual
350
34
  3
Dim
350
35
  3
Facepattern
350
39
  3
Flat
350
2B
  3
FlatWithEdges
350
2C
  3
Gouraud
350
2D
  3
GouraudWithEdges
350
2E
  3
Linepattern
350
38
  3
Realistic
350
33
  3
Thicken
350
37
  0
LAYOUT
  5
1E
102
{ACAD_REACTORS
330
1A
102
}
330
1A
100
AcDbPlotSettings
  1

  2
none_device
  4

  6

 40
0.0
 41
0.0
 42
0.0
 43
0.0
 44
0.0
 45
0.0
 46
0.0
 47
0.0
 48
0.0
 49
0.0
140
0.0
141
0.0
142
1.0
143
1.0
 70
   688
 72
     0
 73
     0
 74
     5
  7

 75
    16
 76
     0
 77
     2
 78
   300
147
1.0
148
0.0
149
0.0
100
AcDbLayout
  1
Layout1
 70
     1
 71
     1
 10
0.0
 20
0.0
 11
12.0
 21
9.0
 12
0.0
 22
0.0
 32
0.0
 14
1.000000000000000E+20
 24
1.000000000000000E+20
 34
1.000000000000000E+20
 15
-1.000000000000000E+20
 25
-1.000000000000000E+20
 35
-1.000000000000000E+20
146
0.0
 13
0.0
 23
0.0
 33
0.0
 16
1.0
 26
0.0
 36
0.0
 17
0.0
 27
1.0
 37
0.0
 76
     0
330
1B
  0
LAYOUT
  5
26
102
{ACAD_REACTORS
330
1A
102
}
330
1A
100
AcDbPlotSettings
  1

  2
none_device
  4

  6

 40
0.0
 41
0.0
 42
0.0
 43
0.0
 44
0.0
 45
0.0
 46
0.0
 47
0.0
 48
0.0
 49
0.0
140
0.0
141
0.0
142
1.0
143
1.0
 70
   688
 72
     0
 73
     0
 74
     5
  7

 75
    16
 76
     0
 77
     2
 78
   300
147
1.0
148
0.0
149
0.0
100
AcDbLayout
  1
Layout2
 70
     1
 71
     2
 10
0.0
 20
0.0
 11
0.0
 21
0.0
 12
0.0
 22
0.0
 32
0.0
 14
0.0
 24
0.0
 34
0.0
 15
0.0
 25
0.0
 35
0.0
146
0.0
 13
0.0
 23
0.0
 33
0.0
 16
1.0
 26
0.0
 36
0.0
 17
0.0
 27
1.0
 37
0.0
 76
     0
330
23
  0
LAYOUT
  5
22
102
{ACAD_REACTORS
330
1A
102
}
330
1A
100
AcDbPlotSettings
  1

  2
none_device
  4

  6

 40
0.0
 41
0.0
 42
0.0
 43
0.0
 44
0.0
 45
0.0
 46
0.0
 47
0.0
 48
0.0
 49
0.0
140
0.0
141
0.0
142
1.0
143
1.0
 70
  1712
 72
     0
 73
     0
 74
     0
  7

 75
     0
 76
     0
 77
     2
 78
   300
147
1.0
148
0.0
149
0.0
100
AcDbLayout
  1
Model
 70
     1
 71
     0
 10
0.0
 20
0.0
 11
12.0
 21
9.0
 12
0.0
 22
0.0
 32
0.0
 14
1.000000000000000E+20
 24
1.000000000000000E+20
 34
1.000000000000000E+20
 15
-1.000000000000000E+20
 25
-1.000000000000000E+20
 35
-1.000000000000000E+20
146
0.0
 13
0.0
 23
0.0
 33
0.0
 16
1.0
 26
0.0
 36
0.0
 17
0.0
 27
1.0
 37
0.0
 76
     0
330
1F
331
29
  0
MATERIAL
  5
3D
102
{ACAD_REACTORS
330
3B
102
}
330
3B
100
AcDbMaterial
  1
ByBlock
 72
     1
 94
      127
  0
MATERIAL
  5
3C
102
{ACAD_REACTORS
330
3B
102
}
330
3B
100
AcDbMaterial
  1
ByLayer
 72
     1
 94
      127
  0
MATERIAL
  5
3E
102
{ACAD_REACTORS
330
3B
102
}
330
3B
100
AcDbMaterial
  1
Global
 72
     1
 94
      127
  0
MLINESTYLE
  5
18
102
{ACAD_REACTORS
330
17
102
}
330
17
100
AcDbMlineStyle
  2
Standard
 70
     0
  3

 62
   256
 51
90.0
 52
90.0
 71
     2
 49
0.5
 62
   256
  6
BYLAYER
 49
-0.5
 62
   256
  6
BYLAYER
  0
ACDBPLACEHOLDER
  5
F
102
{ACAD_REACTORS
330
E
102
}
330
E
  0
VISUALSTYLE
  5
2F
102
{ACAD_REACTORS
330
2A
102
}
330
2A
100
AcDbVisualStyle
  2
2dWireframe
 70
     4
177
     2
291
     0
 71
     0
176
     1
 72
     2
176
     1
 73
     0
176
     1
 90
        0
176
     1
 40
-0.6
176
     1
 41
-30.0
176
     1
 62
     5
 63
     7
421
 16777215
176
     1
 74
     1
176
     1
 91
        4
176
     1
 64
     7
176
     1
 65
   257
176
     1
 75
     1
176
     1
175
     1
176
     1
 42
1.0
176
     1
 92
        0
176
     1
 66
   257
176
     1
 43
1.0
176
     1
 76
     1
176
     1
 77
     6
176
     1
 78
     2
176
     1
 67
     7
176
     1
 79
     5
176
     1
170
     0
176
     1
171
     0
176
     1
290
     0
176
     1
 93
        1
176
     1
 44
0.0
176
     1
173
     0
176
     1
  0
VISUALSTYLE
  5
31
102
{ACAD_REACTORS
330
2A
102
}
330
2A
100
AcDbVisualStyle
  2
3D Hidden
 70
     6
177
     2
291
     0
 71
     1
176
     1
 72
     2
176
     1
 73
     2
176
     1
 90
        0
176
     1
 40
-0.6
176
     1
 41
-30.0
176
     1
 62
     5
 63
     7
421
 16777215
176
     1
 74
     2
176
     1
 91
        2
176
     1
 64
     7
176
     1
 65
   257
176
     1
 75
     2
176
     1
175
     1
176
     1
 42
40.0
176
     1
 92
        0
176
     1
 66
   257
176
     1
 43
1.0
176
     1
 76
     1
176
     1
 77
     6
176
     1
 78
     2
176
     1
 67
     7
176
     1
 79
     3
176
     1
170
     0
176
     1
171
     0
176
     1
290
     0
176
     1
 93
        1
176
     1
 44
0.0
176
     1
173
     0
176
     1
  0
VISUALSTYLE
  5
30
102
{ACAD_REACTORS
330
2A
102
}
330
2A
100
AcDbVisualStyle
  2
3dWireframe
 70
     5
177
     2
291
     0
 71
     0
176
     1
 72
     2
176
     1
 73
     0
176
     1
 90
        0
176
     1
 40
-0.6
176
     1
 41
-30.0
176
     1
 62
     5
 63
     7
421
 16777215
176
     1
 74
     1
176
     1
 91
        4
176
     1
 64
     7
176
     1
 65
   257
176
     1
 75
     1
176
     1
175
     1
176
     1
 42
1.0
176
     1
 92
        0
176
     1
 66
   257
176
     1
 43
1.0
176
     1
 76
     1
176
     1
 77
     6
176
     1
 78
     2
176
     1
 67
     7
176
     1
 79
     5
176
     1
170
     0
176
     1
171
     0
176
     1
290
     0
176
     1
 93
        1
176
     1
 44
0.0
176
     1
173
     0
176
     1
  0
VISUALSTYLE
  5
32
102
{ACAD_REACTORS
330
2A
102
}
330
2A
100
AcDbVisualStyle
  2
Basic
 70
     7
177
     2
291
     1
 71
     1
176
     1
 72
     0
176
     1
 73
     1
176
     1
 90
        0
176
     1
 40
-0.6
176
     1
 41
-30.0
176
     1
 62
     5
 63
     7
421
 16777215
176
     1
 74
     0
176
     1
 91
        4
176
     1
 64
     7
176
     1
 65
   257
176
     1
 75
     1
176
     1
175
     1
176
     1
 42
1.0
176
     1
 92
        8
176
     1
 66
     7
176
     1
 43
1.0
176
     1
 76
     1
176
     1
 77
     6
176
     1
 78
     2
176
     1
 67
     7
176
     1
 79
     5
176
     1
170
     0
176
     1
171
     0
176
     1
290
     0
176
     1
 93
        1
176
     1
 44
0.0
176
     1
173
     0
176
     1
  0
VISUALSTYLE
  5
36
102
{ACAD_REACTORS
330
2A
102
}
330
2A
100
AcDbVisualStyle
  2
Brighten
 70
    12
177
     2
291
     1
 71
     2
176
     1
 72
     2
176
     1
 73
     0
176
     1
 90
        0
176
     1
 40
-0.6
176
     1
 41
-30.0
176
     1
 62
     5
 63
     7
421
 16777215
176
     1
 74
     1
176
     1
 91
        4
176
     1
 64
     7
176
     1
 65
   257
176
     1
 75
     1
176
     1
175
     1
176
     1
 42
1.0
176
     1
 92
        8
176
     1
 66
     7
176
     1
 43
1.0
176
     1
 76
     1
176
     1
 77
     6
176
     1
 78
     2
176
     1
 67
     7
176
     1
 79
     5
176
     1
170
     0
176
     1
171
     0
176
     1
290
     0
176
     1
 93
        1
176
     1
 44
50.0
176
     1
173
     0
176
     1
  0
VISUALSTYLE
  5
3A
102
{ACAD_REACTORS
330
2A
102
}
330
2A
100
AcDbVisualStyle
  2
ColorChange
 70
    16
177
     2
291
     1
 71
     2
176
     1
 72
     2
176
     1
 73
     3
176
     1
 90
        0
176
     1
 40
-0.6
176
     1
 41
-30.0
176
     1
 62
     5
 63
     8
421
  8421504
176
     1
 74
     1
176
     1
 91
        4
176
     1
 64
     7
176
     1
 65
   257
176
     1
 75
     1
176
     1
175
     1
176
     1
 42
1.0
176
     1
 92
        8
176
     1
 66
     8
424
  8421504
176
     1
 43
1.0
176
     1
 76
     1
176
     1
 77
     6
176
     1
 78
     2
176
     1
 67
     7
176
     1
 79
     5
176
     1
170
     0
176
     1
171
     0
176
     1
290
     0
176
     1
 93
        1
176
     1
 44
0.0
176
     1
173
     0
176
     1
  0
VISUALSTYLE
  5
34
102
{ACAD_REACTORS
330
2A
102
}
330
2A
100
AcDbVisualStyle
  2
Conceptual
 70
     9
177
     2
291
     0
 71
     3
176
     1
 72
     2
176
     1
 73
     0
176
     1
 90
        0
176
     1
 40
-0.6
176
     1
 41
-30.0
176
     1
 62
     5
 63
     7
421
 16777215
176
     1
 74
     2
176
     1
 91
        2
176
     1
 64
     7
176
     1
 65
   257
176
     1
 75
     1
176
     1
175
     1
176
     1
 42
40.0
176
     1
 92
        8
176
     1
 66
     7
176
     1
 43
1.0
176
     1
 76
     1
176
     1
 77
     6
176
     1
 78
     2
176
     1
 67
     7
176
     1
 79
     3
176
     1
170
     0
176
     1
171
     0
176
     1
290
     0
176
     1
 93
        1
176
     1
 44
0.0
176
     1
173
     0
176
     1
  0
VISUALSTYLE
  5
35
102
{ACAD_REACTORS
330
2A
102
}
330
2A
100
AcDbVisualStyle
  2
Dim
 70
    11
177
     2
291
     1
 71
     2
176
     1
 72
     2
176
     1
 73
     0
176
     1
 90
        0
176
     1
 40
-0.6
176
     1
 41
-30.0
176
     1
 62
     5
 63
     7
421
 16777215
176
     1
 74
     1
176
     1
 91
        4
176
     1
 64
     7
176
     1
 65
   257
176
     1
 75
     1
176
     1
175
     1
176
     1
 42
1.0
176
     1
 92
        8
176
     1
 66
     7
176
     1
 43
1.0
176
     1
 76
     1
176
     1
 77
     6
176
     1
 78
     2
176
     1
 67
     7
176
     1
 79
     5
176
     1
170
     0
176
     1
171
     0
176
     1
290
     0
176
     1
 93
        1
176
     1
 44
-50.0
176
     1
173
     0
176
     1
  0
VISUALSTYLE
  5
39
102
{ACAD_REACTORS
330
2A
102
}
330
2A
100
AcDbVisualStyle
  2
Facepattern
 70
    15
177
     2
291
     1
 71
     2
176
     1
 72
     2
176
     1
 73
     0
176
     1
 90
        0
176
     1
 40
-0.6
176
     1
 41
-30.0
176
     1
 62
     5
 63
     7
421
 16777215
176
     1
 74
     1
176
     1
 91
        4
176
     1
 64
     7
176
     1
 65
   257
176
     1
 75
     1
176
     1
175
     1
176
     1
 42
1.0
176
     1
 92
        8
176
     1
 66
     7
176
     1
 43
1.0
176
     1
 76
     1
176
     1
 77
     6
176
     1
 78
     2
176
     1
 67
     7
176
     1
 79
     5
176
     1
170
     0
176
     1
171
     0
176
     1
290
     0
176
     1
 93
        1
176
     1
 44
0.0
176
     1
173
     0
176
     1
  0
VISUALSTYLE
  5
2B
102
{ACAD_REACTORS
330
2A
102
}
330
2A
100
AcDbVisualStyle
  2
Flat
 70
     0
177
     2
291
     1
 71
     2
176
     1
 72
     1
176
     1
 73
     1
176
     1
 90
        2
176
     1
 40
-0.6
176
     1
 41
30.0
176
     1
 62
     5
 63
     7
421
 16777215
176
     1
 74
     0
176
     1
 91
        4
176
     1
 64
     7
176
     1
 65
   257
176
     1
 75
     1
176
     1
175
     1
176
     1
 42
1.0
176
     1
 92
        8
176
     1
 66
     7
176
     1
 43
1.0
176
     1
 76
     1
176
     1
 77
     6
176
     1
 78
     2
176
     1
 67
     7
176
     1
 79
     5
176
     1
170
     0
176
     1
171
     0
176
     1
290
     0
176
     1
 93
       13
176
     1
 44
0.0
176
     1
173
     0
176
     1
  0
VISUALSTYLE
  5
2C
102
{ACAD_REACTORS
330
2A
102
}
330
2A
100
AcDbVisualStyle
  2
FlatWithEdges
 70
     1
177
     2
291
     1
 71
     2
176
     1
 72
     1
176
     1
 73
     1
176
     1
 90
        2
176
     1
 40
-0.6
176
     1
 41
30.0
176
     1
 62
     5
 63
     7
421
 16777215
176
     1
 74
     1
176
     1
 91
        4
176
     1
 64
     7
176
     1
 65
   257
176
     1
 75
     1
176
     1
175
     1
176
     1
 42
1.0
176
     1
 92
        0
176
     1
 66
   257
176
     1
 43
1.0
176
     1
 76
     1
176
     1
 77
     6
176
     1
 78
     2
176
     1
 67
     7
176
     1
 79
     5
176
     1
170
     0
176
     1
171
     0
176
     1
290
     0
176
     1
 93
       13
176
     1
 44
0.0
176
     1
173
     0
176
     1
  0
VISUALSTYLE
  5
2D
102
{ACAD_REACTORS
330
2A
102
}
330
2A
100
AcDbVisualStyle
  2
Gouraud
 70
     2
177
     2
291
     1
 71
     2
176
     1
 72
     2
176
     1
 73
     1
176
     1
 90
        2
176
     1
 40
-0.6
176
     1
 41
30.0
176
     1
 62
     5
 63
     7
421
 16777215
176
     1
 74
     0
176
     1
 91
        4
176
     1
 64
     7
176
     1
 65
   257
176
     1
 75
     1
176
     1
175
     1
176
     1
 42
1.0
176
     1
 92
        0
176
     1
 66
     7
176
     1
 43
1.0
176
     1
 76
     1
176
     1
 77
     6
176
     1
 78
     2
176
     1
 67
     7
176
     1
 79
     5
176
     1
170
     0
176
     1
171
     0
176
     1
290
     0
176
     1
 93
       13
176
     1
 44
0.0
176
     1
173
     0
176
     1
  0
VISUALSTYLE
  5
2E
102
{ACAD_REACTORS
330
2A
102
}
330
2A
100
AcDbVisualStyle
  2
GouraudWithEdges
 70
     3
177
     2
291
     1
 71
     2
176
     1
 72
     2
176
     1
 73
     1
176
     1
 90
        2
176
     1
 40
-0.6
176
     1
 41
30.0
176
     1
 62
     5
 63
     7
421
 16777215
176
     1
 74
     1
176
     1
 91
        4
176
     1
 64
     7
176
     1
 65
   257
176
     1
 75
     1
176
     1
175
     1
176
     1
 42
1.0
176
     1
 92
        0
176
     1
 66
   257
176
     1
 43
1.0
176
     1
 76
     1
176
     1
 77
     6
176
     1
 78
     2
176
     1
 67
     7
176
     1
 79
     5
176
     1
170
     0
176
     1
171
     0
176
     1
290
     0
176
     1
 93
       13
176
     1
 44
0.0
176
     1
173
     0
176
     1
  0
VISUALSTYLE
  5
38
102
{ACAD_REACTORS
330
2A
102
}
330
2A
100
AcDbVisualStyle
  2
Linepattern
 70
    14
177
     2
291
     1
 71
     2
176
     1
 72
     2
176
     1
 73
     0
176
     1
 90
        0
176
     1
 40
-0.6
176
     1
 41
-30.0
176
     1
 62
     5
 63
     7
421
 16777215
176
     1
 74
     1
176
     1
 91
        4
176
     1
 64
     7
176
     1
 65
   257
176
     1
 75
     7
176
     1
175
     7
176
     1
 42
1.0
176
     1
 92
        8
176
     1
 66
     7
176
     1
 43
1.0
176
     1
 76
     1
176
     1
 77
     6
176
     1
 78
     2
176
     1
 67
     7
176
     1
 79
     5
176
     1
170
     0
176
     1
171
     0
176
     1
290
     0
176
     1
 93
        1
176
     1
 44
0.0
176
     1
173
     0
176
     1
  0
VISUALSTYLE
  5
33
102
{ACAD_REACTORS
330
2A
102
}
330
2A
100
AcDbVisualStyle
  2
Realistic
 70
     8
177
     2
291
     0
 71
     2
176
     1
 72
     2
176
     1
 73
     0
176
     1
 90
        0
176
     1
 40
-0.6
176
     1
 41
-30.0
176
     1
 62
     5
 63
     7
421
 16777215
176
     1
 74
     1
176
     1
 91
        0
176
     1
 64
     7
176
     1
 65
   257
176
     1
 75
     1
176
     1
175
     1
176
     1
 42
1.0
176
     1
 92
        8
176
     1
 66
     8
424
  7895160
176
     1
 43
1.0
176
     1
 76
     1
176
     1
 77
     6
176
     1
 78
     2
176
     1
 67
     7
176
     1
 79
     5
176
     1
170
     0
176
     1
171
     0
176
     1
290
     0
176
     1
 93
       13
176
     1
 44
0.0
176
     1
173
     0
176
     1
  0
VISUALSTYLE
  5
37
102
{ACAD_REACTORS
330
2A
102
}
330
2A
100
AcDbVisualStyle
  2
Thicken
 70
    13
177
     2
291
     1
 71
     2
176
     1
 72
     2
176
     1
 73
     0
176
     1
 90
        0
176
     1
 40
-0.6
176
     1
 41
-30.0
176
     1
 62
     5
 63
     7
421
 16777215
176
     1
 74
     1
176
     1
 91
        4
176
     1
 64
     7
176
     1
 65
   257
176
     1
 75
     1
176
     1
175
     1
176
     1
 42
1.0
176
     1
 92
       12
176
     1
 66
     7
176
     1
 43
1.0
176
     1
 76
     1
176
     1
 77
     6
176
     1
 78
     2
176
     1
 67
     7
176
     1
 79
     5
176
     1
170
     0
176
     1
171
     0
176
     1
290
     0
176
     1
 93
        1
176
     1
 44
0.0
176
     1
173
     0
176
     1
  0
ENDSEC
  0
EOF
