<?xml version="1.0" encoding="utf-8"?>
<!-- Generator: Adobe Illustrator 19.2.1, SVG Export Plug-In . SVG Version: 6.00 Build 0)  -->
<svg version="1.1" id="Layer_1" xmlns="http://www.w3.org/2000/svg" xmlns:xlink="http://www.w3.org/1999/xlink" x="0px" y="0px"
	 viewBox="0 0 100 125" style="enable-background:new 0 0 100 125;" xml:space="preserve">
<g>
	<path d="M24.2,31.1c0,0-10.4-7-17.3-3.4C0,31.4-2.2,46.6,4.8,52.9c3,2.7,4,3.2,5.6,3.4c4,0.4,15.2-0.1,21,0
		C31.5,56.4,24.2,38.2,24.2,31.1z"/>
	<path d="M34.3,28.3c0,0-4.5-8.5-9.5-4.6c-0.8,2.2-0.5,3.6,0,4.4c0.5,0.8,2.8,1.9,2.8,1.9s-1.2,24.5,8.4,32.4
		C35.5,52.6,30.4,39.4,34.3,28.3z"/>
	<path d="M37.1,73.4c0,0-4.7-35.5-2-40.9c2.6-5.4,4-5.2,4-5.2s-6.7-6.9-5.8-10.7c0.8-3.8,2.9-1.8,2.9-1.8L46.3,25
		c0,0,5.1-0.5,10,2.9c5,3.4,8,6.5,8,6.5s-10-2.6-22.2,4.2c0,0-2.1,4.8-2.8,10.3C38.6,54.4,37.1,73.4,37.1,73.4z"/>
	<ellipse transform="matrix(0.9583 -0.2857 0.2857 0.9583 -14.1313 22.065)" cx="68.6" cy="59.5" rx="3.8" ry="3.9"/>
	<path d="M94.3,36.1c-4.3-5.9-13.7-4.4-15.5-1.6c-1.8,2.9-2.2,17.8-2.2,17.8c-2.4-5.9-8.4-14.1-9.9-15c-1.6-1-5.1-1.8-8.8,0
		c-3.7,1.8-9.3,2-9.3,2s-4.3-0.2-6.5,4.7c-3.9,4.5-5,29.4-5,29.4s-9.6-5.2-11.1-1.1c-1.5,4.1,1.4,9.1,4.9,9.2c3.5,0.1,7-4.8,7-4.8
		c6.1,7.8,21.7,14.8,35,6.1c13.3-8.7,6.9-23.1,6.9-23.1c16.5-0.7,16.5-3.6,18.8-6.3C100.9,50.7,98.6,42.1,94.3,36.1z M45.8,69.1
		c-3.1-0.9-4.6-4.9-3.4-8.8c1.2-3.9,4.6-6.4,7.7-5.5c3.1,0.9,4.6,4.9,3.4,8.8C52.3,67.6,48.8,70.1,45.8,69.1z M48.8,73.8
		c0,0,6.3,8,21,3.4C69.8,77.2,59.2,89.5,48.8,73.8z M72.9,66.6c-3.1,0.9-6.5-1.5-7.7-5.5c-1.2-3.9,0.4-7.9,3.4-8.8
		c3.1-0.9,6.5,1.5,7.7,5.5C77.5,61.7,75.9,65.7,72.9,66.6z"/>
	<ellipse transform="matrix(0.2858 -0.9583 0.9583 0.2858 -22.0838 91.0566)" cx="50" cy="60.3" rx="3.9" ry="3.8"/>
</g>
</svg>
