<?xml version="1.0" encoding="utf-8"?>
<!-- Generator: Adobe Illustrator 19.2.1, SVG Export Plug-In . SVG Version: 6.00 Build 0)  -->
<svg version="1.1" id="Layer_1" xmlns="http://www.w3.org/2000/svg" xmlns:xlink="http://www.w3.org/1999/xlink" x="0px" y="0px"
	 viewBox="0 0 100 125" style="enable-background:new 0 0 100 125;" xml:space="preserve">
<path d="M78.1,66l-1-8.7l0,0l0,0l-6.2,5.2l1.6,0.8c0,0,0.2,7.9-9.2,7.9c-9.4,0-9.9-8.4-9.9-8.4V37.7H64h0c0,0,2.2-0.8,2.2-3
	c0-2.3-2.2-3-2.2-3l-8.2-0.2c2.5-1.8,4-4.7,4-8c0-5.5-4.4-9.9-9.9-9.9c-5.5,0-9.9,4.4-9.9,9.9c0,3.3,1.6,6.2,4,8L36,31.7
	c0,0-2.2,0.7-2.2,3s2.2,3,2.2,3h10.7v25.2c0,0-0.5,8.4-10,8.4s-9.2-7.9-9.2-7.9l1.6-0.8l-6.2-5.2l-1,8.7l2.4-1.5c0,0,2,8.8,11,12.5
	c8.9,3.6,13,5.8,14.7,9.3v0.1c0,0,0,0,0,0c0,0,0,0,0,0v0c0,0,0,0,0,0c0,0,0,0,0,0v0c0,0,0,0,0,0v-0.1c1.8-3.5,5.8-5.7,14.7-9.3
	c8.9-3.6,10.9-12.2,11-12.5L78.1,66L78.1,66L78.1,66z M50,27.6L50,27.6c-2.3,0-4.1-1.8-4.1-4.1c0-2.3,1.8-4.1,4.1-4.1
	c2.3,0,4.1,1.8,4.1,4.1S52.2,27.6,50,27.6z"/>
</svg>
