<?xml version="1.0" encoding="utf-8"?>
<!-- Generator: Adobe Illustrator 19.2.1, SVG Export Plug-In . SVG Version: 6.00 Build 0)  -->
<svg version="1.1" id="Layer_1" xmlns="http://www.w3.org/2000/svg" xmlns:xlink="http://www.w3.org/1999/xlink" x="0px" y="0px"
	 viewBox="0 0 100 125" style="enable-background:new 0 0 100 125;" xml:space="preserve">
<path d="M75.4,51.9c-2.6-11.7-12.5-14.5-12.5-14.5c-1.7,15.2,6.5,20.1,7.4,21.3s-1.5,2.7-2.4,3.3c-5.5,3.6-7.4-7.7-7.7-10.5
	c0,0,0-0.1,0-0.1c0-0.2,0-0.4,0-0.4l0,0c-1.5-13.7-12.5-24.3-25.8-24.3c-14.4,0-26,12.3-26,27.5c0,17.6,8.5,19.2,23.1,19.2
	c0,0,2.2,0,2.2,0c34.7,0,36.9-6.6,39.8-12c0.5-0.9,1.4-1,1.4-1c16-2,16.9-14.7,16.9-14.7C77.9,43.6,75.4,51.9,75.4,51.9z M15.3,60.1
	c-0.8,0-1.5-0.7-1.5-1.5s0.7-1.5,1.5-1.5s1.5,0.7,1.5,1.5S16.1,60.1,15.3,60.1z M34.4,28.9c-1.3,0-2.4-0.3-2.4-0.7s1.1-0.7,2.4-0.7
	c1.3,0,2.4,0.3,2.4,0.7S35.7,28.9,34.4,28.9z"/>
</svg>
