  0
SECTION
  2
HEADER
  9
$ACADVER
  1
AC1024
  9
$ACADMAINTVER
 70
     6
  9
$DWGCODEPAGE
  3
UNDEFINED
  9
$INSBASE
 10
0.0
 20
0.0
 30
0.0
  9
$EXTMIN
 10
1.000000000000000E+20
 20
1.000000000000000E+20
 30
1.000000000000000E+20
  9
$EXTMAX
 10
-1.000000000000000E+20
 20
-1.000000000000000E+20
 30
-1.000000000000000E+20
  9
$LIMMIN
 10
0.0
 20
0.0
  9
$LIMMAX
 10
12.0
 20
9.0
  9
$ORTHOMODE
 70
     0
  9
$REGENMODE
 70
     1
  9
$FILLMODE
 70
     1
  9
$QTEXTMODE
 70
     0
  9
$MIRRTEXT
 70
     1
  9
$LTSCALE
 40
1.0
  9
$ATTMODE
 70
     1
  9
$TEXTSIZE
 40
0.2
  9
$TRACEWID
 40
0.05
  9
$TEXTSTYLE
  7
Standard
  9
$CLAYER
  8
0
  9
$CELTYPE
  6
ByLayer
  9
$CECOLOR
 62
   256
  9
$CELTSCALE
 40
1.0
  9
$DISPSILH
 70
     0
  9
$DIMSCALE
 40
1.0
  9
$DIMASZ
 40
0.18
  9
$DIMEXO
 40
0.0625
  9
$DIMDLI
 40
0.38
  9
$DIMRND
 40
0.0
  9
$DIMDLE
 40
0.0
  9
$DIMEXE
 40
0.18
  9
$DIMTP
 40
0.0
  9
$DIMTM
 40
0.0
  9
$DIMTXT
 40
0.18
  9
$DIMCEN
 40
0.09
  9
$DIMTSZ
 40
0.0
  9
$DIMTOL
 70
     0
  9
$DIMLIM
 70
     0
  9
$DIMTIH
 70
     1
  9
$DIMTOH
 70
     1
  9
$DIMSE1
 70
     0
  9
$DIMSE2
 70
     0
  9
$DIMTAD
 70
     0
  9
$DIMZIN
 70
     0
  9
$DIMBLK
  1

  9
$DIMASO
 70
     1
  9
$DIMSHO
 70
     1
  9
$DIMPOST
  1

  9
$DIMAPOST
  1

  9
$DIMALT
 70
     0
  9
$DIMALTD
 70
     2
  9
$DIMALTF
 40
25.4
  9
$DIMLFAC
 40
1.0
  9
$DIMTOFL
 70
     0
  9
$DIMTVP
 40
0.0
  9
$DIMTIX
 70
     0
  9
$DIMSOXD
 70
     0
  9
$DIMSAH
 70
     0
  9
$DIMBLK1
  1

  9
$DIMBLK2
  1

  9
$DIMSTYLE
  2
Standard
  9
$DIMCLRD
 70
     0
  9
$DIMCLRE
 70
     0
  9
$DIMCLRT
 70
     0
  9
$DIMTFAC
 40
1.0
  9
$DIMGAP
 40
0.09
  9
$DIMJUST
 70
     0
  9
$DIMSD1
 70
     0
  9
$DIMSD2
 70
     0
  9
$DIMTOLJ
 70
     1
  9
$DIMTZIN
 70
     0
  9
$DIMALTZ
 70
     0
  9
$DIMALTTZ
 70
     0
  9
$DIMUPT
 70
     0
  9
$DIMDEC
 70
     4
  9
$DIMTDEC
 70
     4
  9
$DIMALTU
 70
     2
  9
$DIMALTTD
 70
     2
  9
$DIMTXSTY
  7
Standard
  9
$DIMAUNIT
 70
     0
  9
$DIMADEC
 70
     0
  9
$DIMALTRND
 40
0.0
  9
$DIMAZIN
 70
     0
  9
$DIMDSEP
 70
    46
  9
$DIMATFIT
 70
     3
  9
$DIMFRAC
 70
     0
  9
$DIMLDRBLK
  1

  9
$DIMLUNIT
 70
     2
  9
$DIMLWD
 70
    -2
  9
$DIMLWE
 70
    -2
  9
$DIMTMOVE
 70
     0
  9
$DIMFXL
 40
1.0
  9
$DIMFXLON
 70
     0
  9
$DIMJOGANG
 40
0.7853981633974483
  9
$DIMTFILL
 70
     0
  9
$DIMTFILLCLR
 70
     0
  9
$DIMARCSYM
 70
     0
  9
$DIMLTYPE
  6

  9
$DIMLTEX1
  6

  9
$DIMLTEX2
  6

  9
$DIMTXTDIRECTION
 70
     0
  9
$LUNITS
 70
     2
  9
$LUPREC
 70
     4
  9
$SKETCHINC
 40
0.1
  9
$FILLETRAD
 40
0.5
  9
$AUNITS
 70
     0
  9
$AUPREC
 70
     0
  9
$MENU
  1
.
  9
$ELEVATION
 40
0.0
  9
$PELEVATION
 40
0.0
  9
$THICKNESS
 40
0.0
  9
$LIMCHECK
 70
     0
  9
$CHAMFERA
 40
0.5
  9
$CHAMFERB
 40
0.5
  9
$CHAMFERC
 40
1.0
  9
$CHAMFERD
 40
0.0
  9
$SKPOLY
 70
     0
  9
$TDCREATE
 40
2457535.59099537
  9
$TDUCREATE
 40
2457535.799328704
  9
$TDUPDATE
 40
2457535.59099537
  9
$TDUUPDATE
 40
2457535.799328704
  9
$TDINDWG
 40
0.0000000116
  9
$TDUSRTIMER
 40
0.0000000116
  9
$USRTIMER
 70
     1
  9
$ANGBASE
 50
0.0
  9
$ANGDIR
 70
     0
  9
$PDMODE
 70
     0
  9
$PDSIZE
 40
0.0
  9
$PLINEWID
 40
0.0
  9
$SPLFRAME
 70
     0
  9
$SPLINETYPE
 70
     6
  9
$SPLINESEGS
 70
     8
  9
$HANDSEED
  5
4B
  9
$SURFTAB1
 70
     6
  9
$SURFTAB2
 70
     6
  9
$SURFTYPE
 70
     6
  9
$SURFU
 70
     6
  9
$SURFV
 70
     6
  9
$UCSBASE
  2

  9
$UCSNAME
  2

  9
$UCSORG
 10
0.0
 20
0.0
 30
0.0
  9
$UCSXDIR
 10
1.0
 20
0.0
 30
0.0
  9
$UCSYDIR
 10
0.0
 20
1.0
 30
0.0
  9
$UCSORTHOREF
  2

  9
$UCSORTHOVIEW
 70
     0
  9
$UCSORGTOP
 10
0.0
 20
0.0
 30
0.0
  9
$UCSORGBOTTOM
 10
0.0
 20
0.0
 30
0.0
  9
$UCSORGLEFT
 10
0.0
 20
0.0
 30
0.0
  9
$UCSORGRIGHT
 10
0.0
 20
0.0
 30
0.0
  9
$UCSORGFRONT
 10
0.0
 20
0.0
 30
0.0
  9
$UCSORGBACK
 10
0.0
 20
0.0
 30
0.0
  9
$PUCSBASE
  2

  9
$PUCSNAME
  2

  9
$PUCSORG
 10
0.0
 20
0.0
 30
0.0
  9
$PUCSXDIR
 10
1.0
 20
0.0
 30
0.0
  9
$PUCSYDIR
 10
0.0
 20
1.0
 30
0.0
  9
$PUCSORTHOREF
  2

  9
$PUCSORTHOVIEW
 70
     0
  9
$PUCSORGTOP
 10
0.0
 20
0.0
 30
0.0
  9
$PUCSORGBOTTOM
 10
0.0
 20
0.0
 30
0.0
  9
$PUCSORGLEFT
 10
0.0
 20
0.0
 30
0.0
  9
$PUCSORGRIGHT
 10
0.0
 20
0.0
 30
0.0
  9
$PUCSORGFRONT
 10
0.0
 20
0.0
 30
0.0
  9
$PUCSORGBACK
 10
0.0
 20
0.0
 30
0.0
  9
$USERI1
 70
     0
  9
$USERI2
 70
     0
  9
$USERI3
 70
     0
  9
$USERI4
 70
     0
  9
$USERI5
 70
     0
  9
$USERR1
 40
0.0
  9
$USERR2
 40
0.0
  9
$USERR3
 40
0.0
  9
$USERR4
 40
0.0
  9
$USERR5
 40
0.0
  9
$WORLDVIEW
 70
     1
  9
$SHADEDGE
 70
     3
  9
$SHADEDIF
 70
    70
  9
$TILEMODE
 70
     1
  9
$MAXACTVP
 70
    64
  9
$PINSBASE
 10
0.0
 20
0.0
 30
0.0
  9
$PLIMCHECK
 70
     0
  9
$PEXTMIN
 10
1.000000000000000E+20
 20
1.000000000000000E+20
 30
1.000000000000000E+20
  9
$PEXTMAX
 10
-1.000000000000000E+20
 20
-1.000000000000000E+20
 30
-1.000000000000000E+20
  9
$PLIMMIN
 10
0.0
 20
0.0
  9
$PLIMMAX
 10
12.0
 20
9.0
  9
$UNITMODE
 70
     0
  9
$VISRETAIN
 70
     1
  9
$PLINEGEN
 70
     0
  9
$PSLTSCALE
 70
     1
  9
$TREEDEPTH
 70
  3020
  9
$CMLSTYLE
  2
Standard
  9
$CMLJUST
 70
     0
  9
$CMLSCALE
 40
1.0
  9
$PROXYGRAPHICS
 70
     1
  9
$MEASUREMENT
 70
     0
  9
$CELWEIGHT
370
    -1
  9
$ENDCAPS
280
     0
  9
$JOINSTYLE
280
     0
  9
$LWDISPLAY
290
     1
  9
$INSUNITS
 70
     1
  9
$HYPERLINKBASE
  1

  9
$STYLESHEET
  1

  9
$XEDIT
290
     1
  9
$CEPSNTYPE
380
     0
  9
$PSTYLEMODE
290
     1
  9
$FINGERPRINTGUID
  2
{16C1947E-3A1D-7D11-038A-39D136A30DDD}
  9
$VERSIONGUID
  2
{FAEB1C32-E019-11D5-929B-00C0DF256EC4}
  9
$EXTNAMES
290
     1
  9
$PSVPSCALE
 40
0.0
  9
$OLESTARTUP
290
     0
  9
$SORTENTS
280
   127
  9
$INDEXCTL
280
     0
  9
$HIDETEXT
280
     1
  9
$XCLIPFRAME
280
     2
  9
$HALOGAP
280
     0
  9
$OBSCOLOR
 70
   257
  9
$OBSLTYPE
280
     0
  9
$INTERSECTIONDISPLAY
280
     0
  9
$INTERSECTIONCOLOR
 70
   257
  9
$DIMASSOC
280
     2
  9
$PROJECTNAME
  1

  9
$CAMERADISPLAY
290
     0
  9
$LENSLENGTH
 40
50.0
  9
$CAMERAHEIGHT
 40
0.0
  9
$STEPSPERSEC
 40
2.0
  9
$STEPSIZE
 40
6.0
  9
$3DDWFPREC
 40
2.0
  9
$PSOLWIDTH
 40
0.25
  9
$PSOLHEIGHT
 40
4.0
  9
$LOFTANG1
 40
1.570796326794897
  9
$LOFTANG2
 40
1.570796326794897
  9
$LOFTMAG1
 40
0.0
  9
$LOFTMAG2
 40
0.0
  9
$LOFTPARAM
 70
     7
  9
$LOFTNORMALS
280
     1
  9
$LATITUDE
 40
37.795
  9
$LONGITUDE
 40
-122.394
  9
$NORTHDIRECTION
 40
0.0
  9
$TIMEZONE
 70
 -8000
  9
$LIGHTGLYPHDISPLAY
280
     1
  9
$TILEMODELIGHTSYNCH
280
     1
  9
$CMATERIAL
347
3C
  9
$SOLIDHIST
280
     1
  9
$SHOWHIST
280
     1
  9
$DWFFRAME
280
     2
  9
$DGNFRAME
280
     2
  9
$REALWORLDSCALE
290
     1
  9
$INTERFERECOLOR
 62
   256
  9
$CSHADOW
280
     0
  9
$SHADOWPLANELOCATION
 40
0.0
  0
ENDSEC
  0
SECTION
  2
CLASSES
  0
CLASS
  1
ACDBDICTIONARYWDFLT
  2
AcDbDictionaryWithDefault
  3
ObjectDBX Classes
 90
        0
 91
        4
280
     0
281
     0
  0
CLASS
  1
VISUALSTYLE
  2
AcDbVisualStyle
  3
ObjectDBX Classes
 90
     4095
 91
        4
280
     0
281
     0
  0
CLASS
  1
MATERIAL
  2
AcDbMaterial
  3
ObjectDBX Classes
 90
     1153
 91
        4
280
     0
281
     0
  0
CLASS
  1
SUN
  2
AcDbSun
  3
SCENEOE
 90
     1024
 91
        4
280
     0
281
     0
  0
ENDSEC
  0
SECTION
  2
TABLES
  0
TABLE
  2
VPORT
  5
8
330
0
100
AcDbSymbolTable
 70
     1
  0
VPORT
  5
29
330
8
100
AcDbSymbolTableRecord
100
AcDbViewportTableRecord
  2
*Active
 70
     0
 10
0.0
 20
0.0
 11
1.0
 21
1.0
 12
0.0
 22
0.0
 13
0.0
 23
0.0
 14
0.5
 24
0.5
 15
0.5
 25
0.5
 16
0.0
 26
0.0
 36
1.0
 17
50.0
 27
62.5
 37
0.0
 40
125.0
 41
0.8
 42
50.0
 43
0.0
 44
0.0
 50
0.0
 51
0.0
 71
     0
 72
   100
 73
     1
 74
     3
 75
     0
 76
     0
 77
     0
 78
     0
281
     0
 65
     1
110
0.0
120
0.0
130
0.0
111
1.0
121
0.0
131
0.0
112
0.0
122
1.0
132
0.0
 79
     0
146
0.0
 60
     3
 61
     5
292
     1
282
     1
141
0.0
142
0.0
 63
   250
361
3F
  0
ENDTAB
  0
TABLE
  2
LTYPE
  5
5
330
0
100
AcDbSymbolTable
 70
     1
  0
LTYPE
  5
14
330
5
100
AcDbSymbolTableRecord
100
AcDbLinetypeTableRecord
  2
ByBlock
 70
     0
  3

 72
    65
 73
     0
 40
0.0
  0
LTYPE
  5
15
330
5
100
AcDbSymbolTableRecord
100
AcDbLinetypeTableRecord
  2
ByLayer
 70
     0
  3

 72
    65
 73
     0
 40
0.0
  0
LTYPE
  5
16
330
5
100
AcDbSymbolTableRecord
100
AcDbLinetypeTableRecord
  2
Continuous
 70
     0
  3
Solid line
 72
    65
 73
     0
 40
0.0
  0
ENDTAB
  0
TABLE
  2
LAYER
  5
2
330
0
100
AcDbSymbolTable
 70
     2
  0
LAYER
  5
10
330
2
100
AcDbSymbolTableRecord
100
AcDbLayerTableRecord
  2
0
 70
     0
 62
     7
  6
Continuous
370
    -3
390
F
347
3E
  0
LAYER
  5
40
330
2
100
AcDbSymbolTableRecord
100
AcDbLayerTableRecord
  2
Layer 1
 70
     0
 62
     7
  6
Continuous
370
    -3
390
F
347
3E
  0
ENDTAB
  0
TABLE
  2
STYLE
  5
3
330
0
100
AcDbSymbolTable
 70
     1
  0
STYLE
  5
11
330
3
100
AcDbSymbolTableRecord
100
AcDbTextStyleTableRecord
  2
Standard
 70
     0
 40
0.0
 41
1.0
 50
0.0
 71
     0
 42
0.2
  3
txt
  4

  0
ENDTAB
  0
TABLE
  2
VIEW
  5
6
330
0
100
AcDbSymbolTable
 70
     0
  0
ENDTAB
  0
TABLE
  2
UCS
  5
7
330
0
100
AcDbSymbolTable
 70
     0
  0
ENDTAB
  0
TABLE
  2
APPID
  5
9
330
0
100
AcDbSymbolTable
 70
     1
  0
APPID
  5
12
330
9
100
AcDbSymbolTableRecord
100
AcDbRegAppTableRecord
  2
ACAD
 70
     0
  0
ENDTAB
  0
TABLE
  2
DIMSTYLE
  5
A
330
0
100
AcDbSymbolTable
 70
     1
100
AcDbDimStyleTable
  0
DIMSTYLE
105
27
330
A
100
AcDbSymbolTableRecord
100
AcDbDimStyleTableRecord
  2
Standard
 70
     0
178
     0
340
11
  0
ENDTAB
  0
TABLE
  2
BLOCK_RECORD
  5
1
330
0
100
AcDbSymbolTable
 70
     1
  0
BLOCK_RECORD
  5
1F
330
1
100
AcDbSymbolTableRecord
100
AcDbBlockTableRecord
  2
*Model_Space
340
22
 70
     0
280
     1
281
     0
  0
BLOCK_RECORD
  5
1B
330
1
100
AcDbSymbolTableRecord
100
AcDbBlockTableRecord
  2
*Paper_Space
340
1E
 70
     0
280
     1
281
     0
  0
BLOCK_RECORD
  5
23
330
1
100
AcDbSymbolTableRecord
100
AcDbBlockTableRecord
  2
*Paper_Space0
340
26
 70
     0
280
     1
281
     0
  0
ENDTAB
  0
ENDSEC
  0
SECTION
  2
BLOCKS
  0
BLOCK
  5
20
330
1F
100
AcDbEntity
  8
0
100
AcDbBlockBegin
  2
*Model_Space
 70
     0
 10
0.0
 20
0.0
 30
0.0
  3
*Model_Space
  1

  0
ENDBLK
  5
21
330
1F
100
AcDbEntity
  8
0
100
AcDbBlockEnd
  0
BLOCK
  5
1C
330
1B
100
AcDbEntity
 67
     1
  8
0
100
AcDbBlockBegin
  2
*Paper_Space
 70
     0
 10
0.0
 20
0.0
 30
0.0
  3
*Paper_Space
  1

  0
ENDBLK
  5
1D
330
1B
100
AcDbEntity
 67
     1
  8
0
100
AcDbBlockEnd
  0
BLOCK
  5
24
330
23
100
AcDbEntity
  8
0
100
AcDbBlockBegin
  2
*Paper_Space0
 70
     0
 10
0.0
 20
0.0
 30
0.0
  3
*Paper_Space0
  1

  0
ENDBLK
  5
25
330
23
100
AcDbEntity
  8
0
100
AcDbBlockEnd
  0
ENDSEC
  0
SECTION
  2
ENTITIES
  0
SPLINE
  5
41
330
1F
100
AcDbEntity
  8
Layer 1
370
     0
100
AcDbSpline
210
0.0
220
0.0
230
1.0
 70
    11
 71
     3
 72
   371
 73
   367
 74
     0
 42
0.0000000001
 43
0.0000000001
 12
1.0
 22
0.0
 32
0.0
 13
1.0
 23
0.0
 33
0.0
 40
0.0
 40
0.0
 40
0.0
 40
0.0
 40
1.0
 40
1.0
 40
1.0
 40
2.0
 40
2.0
 40
2.0
 40
3.0
 40
3.0
 40
3.0
 40
4.0
 40
4.0
 40
4.0
 40
5.0
 40
5.0
 40
5.0
 40
6.0
 40
6.0
 40
6.0
 40
7.0
 40
7.0
 40
7.0
 40
8.0
 40
8.0
 40
8.0
 40
9.0
 40
9.0
 40
9.0
 40
10.0
 40
10.0
 40
10.0
 40
11.0
 40
11.0
 40
11.0
 40
12.0
 40
12.0
 40
12.0
 40
13.0
 40
13.0
 40
13.0
 40
14.0
 40
14.0
 40
14.0
 40
15.0
 40
15.0
 40
15.0
 40
16.0
 40
16.0
 40
16.0
 40
17.0
 40
17.0
 40
17.0
 40
18.0
 40
18.0
 40
18.0
 40
19.0
 40
19.0
 40
19.0
 40
20.0
 40
20.0
 40
20.0
 40
21.0
 40
21.0
 40
21.0
 40
22.0
 40
22.0
 40
22.0
 40
23.0
 40
23.0
 40
23.0
 40
24.0
 40
24.0
 40
24.0
 40
25.0
 40
25.0
 40
25.0
 40
26.0
 40
26.0
 40
26.0
 40
27.0
 40
27.0
 40
27.0
 40
28.0
 40
28.0
 40
28.0
 40
29.0
 40
29.0
 40
29.0
 40
30.0
 40
30.0
 40
30.0
 40
31.0
 40
31.0
 40
31.0
 40
32.0
 40
32.0
 40
32.0
 40
33.0
 40
33.0
 40
33.0
 40
34.0
 40
34.0
 40
34.0
 40
35.0
 40
35.0
 40
35.0
 40
36.0
 40
36.0
 40
36.0
 40
37.0
 40
37.0
 40
37.0
 40
38.0
 40
38.0
 40
38.0
 40
39.0
 40
39.0
 40
39.0
 40
40.0
 40
40.0
 40
40.0
 40
41.0
 40
41.0
 40
41.0
 40
42.0
 40
42.0
 40
42.0
 40
43.0
 40
43.0
 40
43.0
 40
44.0
 40
44.0
 40
44.0
 40
45.0
 40
45.0
 40
45.0
 40
46.0
 40
46.0
 40
46.0
 40
47.0
 40
47.0
 40
47.0
 40
48.0
 40
48.0
 40
48.0
 40
49.0
 40
49.0
 40
49.0
 40
50.0
 40
50.0
 40
50.0
 40
51.0
 40
51.0
 40
51.0
 40
52.0
 40
52.0
 40
52.0
 40
53.0
 40
53.0
 40
53.0
 40
54.0
 40
54.0
 40
54.0
 40
55.0
 40
55.0
 40
55.0
 40
56.0
 40
56.0
 40
56.0
 40
57.0
 40
57.0
 40
57.0
 40
58.0
 40
58.0
 40
58.0
 40
59.0
 40
59.0
 40
59.0
 40
60.0
 40
60.0
 40
60.0
 40
61.0
 40
61.0
 40
61.0
 40
62.0
 40
62.0
 40
62.0
 40
63.0
 40
63.0
 40
63.0
 40
64.0
 40
64.0
 40
64.0
 40
65.0
 40
65.0
 40
65.0
 40
66.0
 40
66.0
 40
66.0
 40
67.0
 40
67.0
 40
67.0
 40
68.0
 40
68.0
 40
68.0
 40
69.0
 40
69.0
 40
69.0
 40
70.0
 40
70.0
 40
70.0
 40
71.0
 40
71.0
 40
71.0
 40
72.0
 40
72.0
 40
72.0
 40
73.0
 40
73.0
 40
73.0
 40
74.0
 40
74.0
 40
74.0
 40
75.0
 40
75.0
 40
75.0
 40
76.0
 40
76.0
 40
76.0
 40
77.0
 40
77.0
 40
77.0
 40
78.0
 40
78.0
 40
78.0
 40
79.0
 40
79.0
 40
79.0
 40
80.0
 40
80.0
 40
80.0
 40
81.0
 40
81.0
 40
81.0
 40
82.0
 40
82.0
 40
82.0
 40
83.0
 40
83.0
 40
83.0
 40
84.0
 40
84.0
 40
84.0
 40
85.0
 40
85.0
 40
85.0
 40
86.0
 40
86.0
 40
86.0
 40
87.0
 40
87.0
 40
87.0
 40
88.0
 40
88.0
 40
88.0
 40
89.0
 40
89.0
 40
89.0
 40
90.0
 40
90.0
 40
90.0
 40
91.0
 40
91.0
 40
91.0
 40
92.0
 40
92.0
 40
92.0
 40
93.0
 40
93.0
 40
93.0
 40
94.0
 40
94.0
 40
94.0
 40
95.0
 40
95.0
 40
95.0
 40
96.0
 40
96.0
 40
96.0
 40
97.0
 40
97.0
 40
97.0
 40
98.0
 40
98.0
 40
98.0
 40
99.0
 40
99.0
 40
99.0
 40
100.0
 40
100.0
 40
100.0
 40
101.0
 40
101.0
 40
101.0
 40
102.0
 40
102.0
 40
102.0
 40
103.0
 40
103.0
 40
103.0
 40
104.0
 40
104.0
 40
104.0
 40
105.0
 40
105.0
 40
105.0
 40
106.0
 40
106.0
 40
106.0
 40
107.0
 40
107.0
 40
107.0
 40
108.0
 40
108.0
 40
108.0
 40
109.0
 40
109.0
 40
109.0
 40
110.0
 40
110.0
 40
110.0
 40
111.0
 40
111.0
 40
111.0
 40
112.0
 40
112.0
 40
112.0
 40
113.0
 40
113.0
 40
113.0
 40
114.0
 40
114.0
 40
114.0
 40
115.0
 40
115.0
 40
115.0
 40
116.0
 40
116.0
 40
116.0
 40
117.0
 40
117.0
 40
117.0
 40
118.0
 40
118.0
 40
118.0
 40
119.0
 40
119.0
 40
119.0
 40
120.0
 40
120.0
 40
120.0
 40
121.0
 40
121.0
 40
121.0
 40
122.0
 40
122.0
 40
122.0
 40
122.0
 10
91.45899963378906
 20
67.02299880981445
 30
0.0
 10
93.97799682617188
 20
72.18199920654297
 30
0.0
 10
95.447998046875
 20
79.03099822998047
 30
0.0
 10
94.84100341796875
 20
88.11899948120117
 30
0.0
 10
94.60100555419922
 20
87.1359977722168
 30
0.0
 10
94.13500213623047
 20
85.10799789428711
 30
0.0
 10
93.23500061035156
 20
80.91899871826172
 30
0.0
 10
93.14399719238281
 20
80.49699783325195
 30
0.0
 10
93.0510025024414
 20
80.02199935913086
 30
0.0
 10
92.9530029296875
 20
79.51899719238281
 30
0.0
 10
91.6550064086914
 20
72.8969955444336
 30
0.0
 10
88.95500183105469
 20
59.11899566650391
 30
0.0
 10
69.43000030517578
 20
53.44699859619141
 30
0.0
 10
69.3949966430664
 20
53.43699645996094
 30
0.0
 10
69.36000061035156
 20
53.43199920654297
 30
0.0
 10
69.32600402832031
 20
53.43199920654297
 30
0.0
 10
69.16400146484375
 20
53.43199920654297
 30
0.0
 10
69.01500701904297
 20
53.53800201416016
 30
0.0
 10
68.96700286865234
 20
53.70199584960938
 30
0.0
 10
68.91000366210938
 20
53.89999389648438
 30
0.0
 10
69.02300262451172
 20
54.10699462890625
 30
0.0
 10
69.22200012207031
 20
54.16499328613281
 30
0.0
 10
77.45999908447266
 20
56.55799102783203
 30
0.0
 10
83.572998046875
 20
60.70599365234375
 30
0.0
 10
87.39199829101562
 20
66.49299240112305
 30
0.0
 10
90.58899688720703
 20
71.33899307250977
 30
0.0
 10
91.57099914550781
 20
76.34799194335938
 30
0.0
 10
92.22100067138672
 20
79.66299438476562
 30
0.0
 10
92.31999969482422
 20
80.16899490356445
 30
0.0
 10
92.41400146484375
 20
80.6469955444336
 30
0.0
 10
92.5060043334961
 20
81.07599258422852
 30
0.0
 10
93.21400451660156
 20
84.37299346923828
 30
0.0
 10
93.74000549316406
 20
86.73599243164062
 30
0.0
 10
94.06900787353516
 20
88.09899139404297
 30
0.0
 10
94.37001037597656
 20
89.34999084472656
 30
0.0
 10
94.42700958251953
 20
89.58499145507812
 30
0.0
 10
94.72901153564453
 20
89.58098983764648
 30
0.0
 10
94.68701171875
 20
90.0529899597168
 30
0.0
 10
94.6410140991211
 20
90.52899169921875
 30
0.0
 10
94.5880126953125
 20
91.01298904418945
 30
0.0
 10
94.53001403808594
 20
91.00698852539062
 30
0.0
 10
94.47101593017578
 20
91.00498962402344
 30
0.0
 10
94.4110107421875
 20
91.01498794555664
 30
0.0
 10
94.3910140991211
 20
91.01798629760742
 30
0.0
 10
93.80300903320312
 20
91.10698699951172
 30
0.0
 10
92.81501007080078
 20
91.14298629760742
 30
0.0
 10
92.49700927734375
 20
89.95098495483398
 30
0.0
 10
91.47200775146484
 20
85.98998641967773
 30
0.0
 10
89.30001068115234
 20
76.63898468017578
 30
0.0
 10
86.10001373291016
 20
62.86198425292969
 30
0.0
 10
74.9840087890625
 20
58.00298309326172
 30
0.0
 10
70.35401153564453
 20
56.55398559570312
 30
0.0
 10
70.2590103149414
 20
56.52398681640625
 30
0.0
 10
70.18701171875
 20
56.50198364257812
 30
0.0
 10
70.1410140991211
 20
56.48598480224609
 30
0.0
 10
70.10101318359375
 20
56.47198486328125
 30
0.0
 10
70.06001281738281
 20
56.46598815917969
 30
0.0
 10
70.02001190185547
 20
56.46598815917969
 30
0.0
 10
69.8650131225586
 20
56.46598815917969
 30
0.0
 10
69.72000885009766
 20
56.56298828125
 30
0.0
 10
69.6670150756836
 20
56.71798706054688
 30
0.0
 10
69.60001373291016
 20
56.91298675537109
 30
0.0
 10
69.70401763916016
 20
57.12598419189453
 30
0.0
 10
69.89901733398438
 20
57.19298553466797
 30
0.0
 10
69.94902038574219
 20
57.20998382568359
 30
0.0
 10
70.02801513671875
 20
57.2349853515625
 30
0.0
 10
70.13101959228516
 20
57.26698303222656
 30
0.0
 10
74.63902282714844
 20
58.67798614501953
 30
0.0
 10
85.46002197265625
 20
63.406982421875
 30
0.0
 10
88.5730209350586
 20
76.8079833984375
 30
0.0
 10
90.64701843261719
 20
85.73798370361328
 30
0.0
 10
91.67802429199219
 20
89.76398468017578
 30
0.0
 10
92.0470199584961
 20
91.156982421875
 30
0.0
 10
91.46601867675781
 20
91.1579818725586
 30
0.0
 10
90.79901885986328
 20
91.13898086547852
 30
0.0
 10
90.05902099609375
 20
91.08098220825195
 30
0.0
 10
89.8239974975586
 20
89.68000030517578
 30
0.0
 10
89.0
 20
85.35900115966797
 30
0.0
 10
86.40699768066406
 20
76.03499984741211
 30
0.0
 10
83.66699981689453
 20
66.18000030517578
 30
0.0
 10
75.48099517822266
 20
61.49499893188477
 30
0.0
 10
70.84600067138672
 20
59.58000183105469
 30
0.0
 10
70.76399993896484
 20
59.54600524902344
 30
0.0
 10
70.697998046875
 20
59.51900482177734
 30
0.0
 10
70.6500015258789
 20
59.49800109863281
 30
0.0
 10
70.60200500488281
 20
59.47699737548828
 30
0.0
 10
70.552001953125
 20
59.46700286865234
 30
0.0
 10
70.50199890136719
 20
59.46700286865234
 30
0.0
 10
70.35700225830078
 20
59.46700286865234
 30
0.0
 10
70.22000122070312
 20
59.552001953125
 30
0.0
 10
70.15899658203125
 20
59.69300079345703
 30
0.0
 10
70.07799530029297
 20
59.88200378417969
 30
0.0
 10
70.16499328613281
 20
60.10199737548828
 30
0.0
 10
70.35399627685547
 20
60.18399810791016
 30
0.0
 10
70.40499877929688
 20
60.20600128173828
 30
0.0
 10
70.4729995727539
 20
60.23400115966797
 30
0.0
 10
70.55999755859375
 20
60.26999664306641
 30
0.0
 10
75.06900024414062
 20
62.13399505615234
 30
0.0
 10
83.03099822998047
 20
66.68599700927734
 30
0.0
 10
85.68599700927734
 20
76.2349967956543
 30
0.0
 10
88.13899993896484
 20
85.0569953918457
 30
0.0
 10
89.00899505615234
 20
89.43699645996094
 30
0.0
 10
89.28099822998047
 20
91.00699615478516
 30
0.0
 10
88.58999633789062
 20
90.93099594116211
 30
0.0
 10
87.8499984741211
 20
90.82099533081055
 30
0.0
 10
87.07499694824219
 20
90.66599655151367
 30
0.0
 10
86.78299713134766
 20
89.06299591064453
 30
0.0
 10
85.72200012207031
 20
83.80199813842773
 30
0.0
 10
83.16099548339844
 20
76.14299774169922
 30
0.0
 10
79.99699401855469
 20
66.67899703979492
 30
0.0
 10
73.42699432373047
 20
63.58399963378906
 30
0.0
 10
71.26799774169922
 20
62.56699752807617
 30
0.0
 10
71.07799530029297
 20
62.47799682617188
 30
0.0
 10
70.92399597167969
 20
62.40499877929688
 30
0.0
 10
70.81199645996094
 20
62.34599685668945
 30
0.0
 10
70.75699615478516
 20
62.31699752807617
 30
0.0
 10
70.6969985961914
 20
62.30299758911133
 30
0.0
 10
70.63899993896484
 20
62.30299758911133
 30
0.0
 10
70.50399780273438
 20
62.30299758911133
 30
0.0
 10
70.375
 20
62.37599945068359
 30
0.0
 10
70.30799865722656
 20
62.50299835205078
 30
0.0
 10
70.21199798583984
 20
62.68599700927734
 30
0.0
 10
70.28299713134766
 20
62.9109992980957
 30
0.0
 10
70.46599578857422
 20
63.00699996948242
 30
0.0
 10
70.58499908447266
 20
63.06999969482422
 30
0.0
 10
70.74899291992188
 20
63.14699935913086
 30
0.0
 10
70.94999694824219
 20
63.24200057983398
 30
0.0
 10
73.03699493408203
 20
64.22600173950195
 30
0.0
 10
79.38999938964844
 20
67.21900177001953
 30
0.0
 10
82.45299530029297
 20
76.37900161743164
 30
0.0
 10
84.85699462890625
 20
83.56700134277344
 30
0.0
 10
85.92899322509766
 20
88.62200164794922
 30
0.0
 10
86.28399658203125
 20
90.49400329589844
 30
0.0
 10
85.53099822998047
 20
90.3170051574707
 30
0.0
 10
84.75199890136719
 20
90.09400177001953
 30
0.0
 10
83.95599365234375
 20
89.8180046081543
 30
0.0
 10
83.7199935913086
 20
88.04500579833984
 30
0.0
 10
82.78899383544922
 20
82.30300521850586
 30
0.0
 10
79.95599365234375
 20
75.88900375366211
 30
0.0
 10
77.72698974609375
 20
70.84200286865234
 30
0.0
 10
74.5669937133789
 20
67.28500366210938
 30
0.0
 10
70.8169937133789
 20
65.60200500488281
 30
0.0
 10
70.75199127197266
 20
65.57300567626953
 30
0.0
 10
70.70299530029297
 20
65.55100631713867
 30
0.0
 10
70.67098999023438
 20
65.53500366210938
 30
0.0
 10
70.61698913574219
 20
65.50700378417969
 30
0.0
 10
70.55899047851562
 20
65.49400329589844
 30
0.0
 10
70.50199127197266
 20
65.49400329589844
 30
0.0
 10
70.3659896850586
 20
65.49400329589844
 30
0.0
 10
70.23399353027344
 20
65.56900405883789
 30
0.0
 10
70.16899108886719
 20
65.69900512695312
 30
0.0
 10
70.07598876953125
 20
65.88300323486328
 30
0.0
 10
70.14899444580078
 20
66.10800552368164
 30
0.0
 10
70.33299255371094
 20
66.20100402832031
 30
0.0
 10
70.37199401855469
 20
66.22100448608398
 30
0.0
 10
70.43199157714844
 20
66.24800491333008
 30
0.0
 10
70.51199340820312
 20
66.28400421142578
 30
0.0
 10
74.09099578857422
 20
67.8900032043457
 30
0.0
 10
77.1209945678711
 20
71.31600570678711
 30
0.0
 10
79.27399444580078
 20
76.19100189208984
 30
0.0
 10
81.8899917602539
 20
82.11600112915039
 30
0.0
 10
82.86099243164062
 20
87.44600296020508
 30
0.0
 10
83.16299438476562
 20
89.5270004272461
 30
0.0
 10
82.33099365234375
 20
89.20399856567383
 30
0.0
 10
81.48699188232422
 20
88.81999969482422
 30
0.0
 10
80.64399719238281
 20
88.36299896240234
 30
0.0
 10
80.61299896240234
 20
88.34600067138672
 30
0.0
 10
80.58300018310547
 20
88.32999801635742
 30
0.0
 10
80.55199432373047
 20
88.3129997253418
 30
0.0
 10
80.29399108886719
 20
87.05500030517578
 30
0.0
 10
79.61499786376953
 20
84.04700088500977
 30
0.0
 10
78.41999816894531
 20
80.71199798583984
 30
0.0
 10
76.3030014038086
 20
74.80799865722656
 30
0.0
 10
73.66199493408203
 20
70.74799728393555
 30
0.0
 10
70.56900024414062
 20
68.6449966430664
 30
0.0
 10
70.50499725341797
 20
68.60099792480469
 30
0.0
 10
70.43099975585938
 20
68.57999801635742
 30
0.0
 10
70.35900115966797
 20
68.57999801635742
 30
0.0
 10
70.23899841308594
 20
68.57999801635742
 30
0.0
 10
70.12200164794922
 20
68.63699722290039
 30
0.0
 10
70.05000305175781
 20
68.74299621582031
 30
0.0
 10
69.93400573730469
 20
68.91399765014648
 30
0.0
 10
69.9780044555664
 20
69.14599609375
 30
0.0
 10
70.14900207519531
 20
69.26199722290039
 30
0.0
 10
76.0320053100586
 20
73.26199722290039
 30
0.0
 10
78.87800598144531
 20
84.18199920654297
 30
0.0
 10
79.68800354003906
 20
87.8479995727539
 30
0.0
 10
78.54300689697266
 20
87.23600006103516
 30
0.0
 10
77.54200744628906
 20
86.71799850463867
 30
0.0
 10
76.66600036621094
 20
86.27999877929688
 30
0.0
 10
76.44300079345703
 20
85.30199813842773
 30
0.0
 10
75.98100280761719
 20
83.46299743652344
 30
0.0
 10
75.24199676513672
 20
81.41600036621094
 30
0.0
 10
73.77099609375
 20
77.34199905395508
 30
0.0
 10
71.96599578857422
 20
74.42300033569336
 30
0.0
 10
69.8759994506836
 20
72.74100112915039
 30
0.0
 10
69.80699920654297
 20
72.68500137329102
 30
0.0
 10
69.7239990234375
 20
72.65800094604492
 30
0.0
 10
69.64199829101562
 20
72.65800094604492
 30
0.0
 10
69.53299713134766
 20
72.65800094604492
 30
0.0
 10
69.42499542236328
 20
72.70600128173828
 30
0.0
 10
69.35099792480469
 20
72.79700088500977
 30
0.0
 10
69.22100067138672
 20
72.95800018310547
 30
0.0
 10
69.24700164794922
 20
73.19300079345703
 30
0.0
 10
69.40799713134766
 20
73.32200241088867
 30
0.0
 10
73.11499786376953
 20
76.30600357055664
 30
0.0
 10
75.09700012207031
 20
83.01300048828125
 30
0.0
 10
75.7959976196289
 20
85.85100173950195
 30
0.0
 10
74.9280014038086
 20
85.43200302124023
 30
0.0
 10
74.19200134277344
 20
85.10000228881836
 30
0.0
 10
73.55299377441406
 20
84.83400344848633
 30
0.0
 10
73.48299407958984
 20
84.19600296020508
 30
0.0
 10
72.97199249267578
 20
80.73400497436523
 30
0.0
 10
69.80699157714844
 20
76.56700134277344
 30
0.0
 10
69.73299407958984
 20
76.47000122070312
 30
0.0
 10
69.62199401855469
 20
76.41900253295898
 30
0.0
 10
69.50899505615234
 20
76.41900253295898
 30
0.0
 10
69.42999267578125
 20
76.41900253295898
 30
0.0
 10
69.35099792480469
 20
76.44400405883789
 30
0.0
 10
69.28299713134766
 20
76.49500274658203
 30
0.0
 10
69.1189956665039
 20
76.62000274658203
 30
0.0
 10
69.08699798583984
 20
76.85400390625
 30
0.0
 10
69.21099853515625
 20
77.01800155639648
 30
0.0
 10
71.80500030517578
 20
80.43200302124023
 30
0.0
 10
72.5479965209961
 20
83.39599990844727
 30
0.0
 10
72.74800109863281
 20
84.5150032043457
 30
0.0
 10
71.40399932861328
 20
84.01100158691406
 30
0.0
 10
70.52200317382812
 20
83.83300399780273
 30
0.0
 10
69.60700225830078
 20
83.69400405883789
 30
0.0
 10
69.60400390625
 20
83.6930046081543
 30
0.0
 10
69.5999984741211
 20
83.69400405883789
 30
0.0
 10
69.59700012207031
 20
83.6930046081543
 30
0.0
 10
69.3219985961914
 20
83.65100479125977
 30
0.0
 10
69.0469970703125
 20
83.62800598144531
 30
0.0
 10
68.77200317382812
 20
83.62800598144531
 30
0.0
 10
68.76900482177734
 20
83.62800598144531
 30
0.0
 10
68.76600646972656
 20
83.62800598144531
 30
0.0
 10
68.76300048828125
 20
83.62800598144531
 30
0.0
 10
66.72200012207031
 20
83.6310043334961
 30
0.0
 10
65.3550033569336
 20
84.81600570678711
 30
0.0
 10
64.91699981689453
 20
85.2560043334961
 30
0.0
 10
64.41500091552734
 20
85.6660041809082
 30
0.0
 10
64.09400177001953
 20
86.28800582885742
 30
0.0
 10
64.09400177001953
 20
86.98500442504883
 30
0.0
 10
64.09400177001953
 20
88.21600341796875
 30
0.0
 10
65.09500122070312
 20
89.21700286865234
 30
0.0
 10
66.32600402832031
 20
89.21700286865234
 30
0.0
 10
67.5570068359375
 20
89.21700286865234
 30
0.0
 10
68.5580062866211
 20
88.21600341796875
 30
0.0
 10
68.5580062866211
 20
86.98500442504883
 30
0.0
 10
68.5580062866211
 20
86.21200561523438
 30
0.0
 10
68.16300964355469
 20
85.531005859375
 30
0.0
 10
67.56501007080078
 20
85.1300048828125
 30
0.0
 10
67.92401123046875
 20
85.01300430297852
 30
0.0
 10
68.32801055908203
 20
84.93500518798828
 30
0.0
 10
68.77301025390625
 20
84.93500518798828
 30
0.0
 10
68.77700805664062
 20
84.93500518798828
 30
0.0
 10
68.78101348876953
 20
84.93500518798828
 30
0.0
 10
68.7850112915039
 20
84.93500518798828
 30
0.0
 10
68.99101257324219
 20
84.93600463867188
 30
0.0
 10
69.19901275634766
 20
84.9520034790039
 30
0.0
 10
69.40701293945312
 20
84.98500442504883
 30
0.0
 10
69.40801239013672
 20
84.98500442504883
 30
0.0
 10
69.4100112915039
 20
84.98600387573242
 30
0.0
 10
69.4110107421875
 20
84.98600387573242
 30
0.0
 10
69.41600799560547
 20
84.98700332641602
 30
0.0
 10
69.42101287841797
 20
84.98800277709961
 30
0.0
 10
69.42501068115234
 20
84.98800277709961
 30
0.0
 10
70.88800811767578
 20
85.22300338745117
 30
0.0
 10
72.39900970458984
 20
86.24200439453125
 30
0.0
 10
73.92601013183594
 20
88.02800369262695
 30
0.0
 10
76.739013671875
 20
91.3170051574707
 30
0.0
 10
81.14401245117188
 20
93.55600357055664
 30
0.0
 10
86.66400909423828
 20
94.50300407409668
 30
0.0
 10
90.27600860595703
 20
95.12200355529785
 30
0.0
 10
93.22400665283203
 20
95.00800323486328
 30
0.0
 10
94.00501251220703
 20
94.96100425720215
 30
0.0
 10
93.39501190185547
 20
97.12100410461426
 30
0.0
 10
90.3630142211914
 20
103.8080043792725
 30
0.0
 10
76.18401336669922
 20
103.8080043792725
 30
0.0
 10
59.27401351928711
 20
103.8080043792725
 30
0.0
 10
51.86101531982422
 20
79.50000381469727
 30
0.0
 10
46.58501434326172
 20
79.14800262451172
 30
0.0
 10
41.30801391601562
 20
78.79600143432617
 30
0.0
 10
37.35801315307617
 20
84.43200302124023
 30
0.0
 10
43.03201293945312
 20
88.30700302124023
 30
0.0
 10
48.70601272583008
 20
92.18200302124023
 30
0.0
 10
56.49001312255859
 20
95.10200309753418
 30
0.0
 10
58.34401321411133
 20
103.8070030212402
 30
0.0
 10
60.18001174926758
 20
112.4290027618408
 30
0.0
 10
58.84501266479492
 20
113.5080032348633
 30
0.0
 10
58.84501266479492
 20
113.5080032348633
 30
0.0
 10
58.84501266479492
 20
113.5080032348633
 30
0.0
 10
50.5260124206543
 20
106.3240032196045
 30
0.0
 10
43.03201293945312
 20
102.0450019836426
 30
0.0
 10
38.55801391601562
 20
99.4900016784668
 30
0.0
 10
34.51801300048828
 20
98.15400123596191
 30
0.0
 10
34.21401214599609
 20
95.87200164794922
 30
0.0
 10
33.91001129150391
 20
93.59000205993652
 30
0.0
 10
32.90601348876953
 20
101.3400020599365
 30
0.0
 10
25.65801239013672
 20
102.7490005493164
 30
0.0
 10
18.41001129150391
 20
104.1580009460449
 30
0.0
 10
8.76101303100586
 20
101.3400001525879
 30
0.0
 10
6.892011642456055
 20
104.1580009460449
 30
0.0
 10
5.023011684417725
 20
106.976001739502
 30
0.0
 10
5.023011684417725
 20
106.976001739502
 30
0.0
 10
5.023011684417725
 20
106.976001739502
 30
0.0
 10
5.023011684417725
 20
106.976001739502
 30
0.0
 10
8.888011932373047
 20
92.53200149536133
 30
0.0
 10
18.58101081848145
 20
90.41900253295898
 30
0.0
 10
28.27400970458984
 20
88.30500411987305
 30
0.0
 10
29.48701095581055
 20
87.24800109863281
 30
0.0
 10
29.48701095581055
 20
87.24800109863281
 30
0.0
 10
29.48701095581055
 20
87.24800109863281
 30
0.0
 10
24.57099914550781
 20
56.50900268554688
 30
0.0
 10
52.02099990844727
 20
50.47000122070312
 30
0.0
 10
52.07400131225586
 20
53.28900146484375
 30
0.0
 10
51.72999954223633
 20
56.27300262451172
 30
0.0
 10
51.43099975585938
 20
58.85200500488281
 30
0.0
 10
51.39400100708008
 20
59.17300415039062
 30
0.0
 10
51.35699844360352
 20
59.48900604248047
 30
0.0
 10
51.32199859619141
 20
59.79700469970703
 30
0.0
 10
50.46099853515625
 20
67.38300323486328
 30
0.0
 10
54.30899810791016
 20
72.82100677490234
 30
0.0
 10
54.4739990234375
 20
73.04900360107422
 30
0.0
 10
54.68499755859375
 20
73.34200286865234
 30
0.0
 10
55.09399795532227
 20
73.40800476074219
 30
0.0
 10
55.38699722290039
 20
73.19700241088867
 30
0.0
 10
55.67999649047852
 20
72.98600387573242
 30
0.0
 10
55.74599838256836
 20
72.5780029296875
 30
0.0
 10
55.53499603271484
 20
72.28500366210938
 30
0.0
 10
55.49799728393555
 20
72.23300552368164
 30
0.0
 10
51.81899642944336
 20
67.01100158691406
 30
0.0
 10
52.62099456787109
 20
59.94500732421875
 30
0.0
 10
52.6559944152832
 20
59.63700866699219
 30
0.0
 10
52.69199371337891
 20
59.32300567626953
 30
0.0
 10
52.72899627685547
 20
59.00300598144531
 30
0.0
 10
53.04199600219727
 20
56.30400848388672
 30
0.0
 10
53.34299468994141
 20
50.21000671386719
 30
0.0
 10
53.34299468994141
 20
50.21000671386719
 30
0.0
 10
53.33899307250977
 20
46.02900695800781
 30
0.0
 10
52.54599380493164
 20
42.09300994873047
 30
0.0
 10
49.58699417114258
 20
40.05101013183594
 30
0.0
 10
44.47899627685547
 20
36.52800750732422
 30
0.0
 10
44.47899627685547
 20
36.52800750732422
 30
0.0
 10
44.47899627685547
 20
36.52800750732422
 30
0.0
 10
44.47899627685547
 20
36.52800750732422
 30
0.0
 10
61.74999618530273
 20
34.92401123046875
 30
0.0
 10
68.0260009765625
 20
51.30101013183594
 30
0.0
 10
68.0260009765625
 20
51.30101013183594
 30
0.0
 10
68.33100128173828
 20
51.32401275634766
 30
0.0
 10
68.33100128173828
 20
51.32401275634766
 30
0.0
 10
68.33100128173828
 20
51.32401275634766
 30
0.0
 10
73.7550048828125
 20
51.62200927734375
 30
0.0
 10
79.70899963378906
 20
54.82601165771484
 30
0.0
 10
79.70899963378906
 20
54.82601165771484
 30
0.0
 10
79.70800018310547
 20
54.82501220703125
 30
0.0
 10
79.70800018310547
 20
54.82501220703125
 30
0.0
 10
81.88600158691406
 20
51.04301452636719
 30
0.0
 10
76.73699951171875
 20
41.69601440429688
 30
0.0
 10
76.73699951171875
 20
41.69601440429688
 30
0.0
 10
92.32599639892578
 20
44.86699676513672
 30
0.0
 10
91.45899963378906
 20
67.02299880981445
 30
0.0
 10
91.45899963378906
 20
67.02299880981445
 30
0.0
 10
91.45899963378906
 20
67.02299880981445
 30
0.0
 10
91.45899963378906
 20
67.02299880981445
 30
0.0
 10
91.45899963378906
 20
67.02299880981445
 30
0.0
  0
SPLINE
  5
42
330
1F
100
AcDbEntity
  8
Layer 1
370
     0
100
AcDbSpline
210
0.0
220
0.0
230
1.0
 70
    11
 71
     3
 72
    26
 73
    22
 74
     0
 42
0.0000000001
 43
0.0000000001
 12
1.0
 22
0.0
 32
0.0
 13
1.0
 23
0.0
 33
0.0
 40
0.0
 40
0.0
 40
0.0
 40
0.0
 40
1.0
 40
1.0
 40
1.0
 40
2.0
 40
2.0
 40
2.0
 40
3.0
 40
3.0
 40
3.0
 40
4.0
 40
4.0
 40
4.0
 40
5.0
 40
5.0
 40
5.0
 40
6.0
 40
6.0
 40
6.0
 40
7.0
 40
7.0
 40
7.0
 40
7.0
 10
54.68000030517578
 20
107.4839992523193
 30
0.0
 10
54.68000030517578
 20
107.4839992523193
 30
0.0
 10
55.34199905395508
 20
107.9860000610352
 30
0.0
 10
55.34199905395508
 20
107.9860000610352
 30
0.0
 10
55.54800033569336
 20
108.1420001983643
 30
0.0
 10
55.84099960327148
 20
108.1019992828369
 30
0.0
 10
55.99599838256836
 20
107.8959999084473
 30
0.0
 10
56.15199661254883
 20
107.6909999847412
 30
0.0
 10
56.11199951171875
 20
107.3980007171631
 30
0.0
 10
55.90599822998047
 20
107.242000579834
 30
0.0
 10
55.90599822998047
 20
107.242000579834
 30
0.0
 10
55.24399948120117
 20
106.7399997711182
 30
0.0
 10
55.24399948120117
 20
106.7399997711182
 30
0.0
 10
55.15999984741211
 20
106.6760005950928
 30
0.0
 10
55.06100082397461
 20
106.6450004577637
 30
0.0
 10
54.96199798583984
 20
106.6450004577637
 30
0.0
 10
54.82099914550781
 20
106.6450004577637
 30
0.0
 10
54.68099975585938
 20
106.7089996337891
 30
0.0
 10
54.58999633789062
 20
106.8299999237061
 30
0.0
 10
54.43399810791016
 20
107.0349998474121
 30
0.0
 10
54.4739990234375
 20
107.3279991149902
 30
0.0
 10
54.68000030517578
 20
107.4839992523193
 30
0.0
  0
SPLINE
  5
43
330
1F
100
AcDbEntity
  8
Layer 1
370
     0
100
AcDbSpline
210
0.0
220
0.0
230
1.0
 70
    11
 71
     3
 72
    26
 73
    22
 74
     0
 42
0.0000000001
 43
0.0000000001
 12
1.0
 22
0.0
 32
0.0
 13
1.0
 23
0.0
 33
0.0
 40
0.0
 40
0.0
 40
0.0
 40
0.0
 40
1.0
 40
1.0
 40
1.0
 40
2.0
 40
2.0
 40
2.0
 40
3.0
 40
3.0
 40
3.0
 40
4.0
 40
4.0
 40
4.0
 40
5.0
 40
5.0
 40
5.0
 40
6.0
 40
6.0
 40
6.0
 40
7.0
 40
7.0
 40
7.0
 40
7.0
 10
48.70899963378906
 20
102.9529991149902
 30
0.0
 10
48.70899963378906
 20
102.9529991149902
 30
0.0
 10
53.30599975585938
 20
106.4409980773926
 30
0.0
 10
53.30599975585938
 20
106.4409980773926
 30
0.0
 10
53.51100158691406
 20
106.5969982147217
 30
0.0
 10
53.80400085449219
 20
106.5569972991943
 30
0.0
 10
53.95999908447266
 20
106.3509979248047
 30
0.0
 10
54.11599731445312
 20
106.1459980010986
 30
0.0
 10
54.07600021362305
 20
105.8529987335205
 30
0.0
 10
53.86999893188477
 20
105.6969985961914
 30
0.0
 10
53.86999893188477
 20
105.6969985961914
 30
0.0
 10
49.27299880981445
 20
102.2089996337891
 30
0.0
 10
49.27299880981445
 20
102.2089996337891
 30
0.0
 10
49.18899917602539
 20
102.1450004577637
 30
0.0
 10
49.0890007019043
 20
102.1140003204346
 30
0.0
 10
48.99099731445312
 20
102.1140003204346
 30
0.0
 10
48.84999847412109
 20
102.1140003204346
 30
0.0
 10
48.70999908447266
 20
102.17799949646
 30
0.0
 10
48.61899566650391
 20
102.298999786377
 30
0.0
 10
48.4630012512207
 20
102.503999710083
 30
0.0
 10
48.50299835205078
 20
102.7970008850098
 30
0.0
 10
48.70899963378906
 20
102.9529991149902
 30
0.0
  0
SPLINE
  5
44
330
1F
100
AcDbEntity
  8
Layer 1
370
     0
100
AcDbSpline
210
0.0
220
0.0
230
1.0
 70
    11
 71
     3
 72
    26
 73
    22
 74
     0
 42
0.0000000001
 43
0.0000000001
 12
1.0
 22
0.0
 32
0.0
 13
1.0
 23
0.0
 33
0.0
 40
0.0
 40
0.0
 40
0.0
 40
0.0
 40
1.0
 40
1.0
 40
1.0
 40
2.0
 40
2.0
 40
2.0
 40
3.0
 40
3.0
 40
3.0
 40
4.0
 40
4.0
 40
4.0
 40
5.0
 40
5.0
 40
5.0
 40
6.0
 40
6.0
 40
6.0
 40
7.0
 40
7.0
 40
7.0
 40
7.0
 10
31.73600006103516
 20
80.37900161743164
 30
0.0
 10
31.37899971008301
 20
84.54400253295898
 30
0.0
 10
31.81999969482422
 20
86.63199996948242
 30
0.0
 10
31.8390007019043
 20
86.71900177001953
 30
0.0
 10
31.89400100708008
 20
86.97100067138672
 30
0.0
 10
32.14200210571289
 20
87.13100051879883
 30
0.0
 10
32.39500045776367
 20
87.07600021362305
 30
0.0
 10
32.64699935913086
 20
87.02099990844727
 30
0.0
 10
32.80599975585938
 20
86.77299880981445
 30
0.0
 10
32.75199890136719
 20
86.52099990844727
 30
0.0
 10
32.74599838256836
 20
86.49399948120117
 30
0.0
 10
32.32399749755859
 20
84.45600128173828
 30
0.0
 10
32.66699981689453
 20
80.45899963378906
 30
0.0
 10
32.68899917602539
 20
80.20199966430664
 30
0.0
 10
32.49800109863281
 20
79.97599792480469
 30
0.0
 10
32.24200057983398
 20
79.95399856567383
 30
0.0
 10
32.22800064086914
 20
79.95299911499023
 30
0.0
 10
32.21500015258789
 20
79.95199966430664
 30
0.0
 10
32.20199966430664
 20
79.95199966430664
 30
0.0
 10
31.96100044250488
 20
79.95199966430664
 30
0.0
 10
31.75699996948242
 20
80.13600158691406
 30
0.0
 10
31.73600006103516
 20
80.37900161743164
 30
0.0
  0
SPLINE
  5
45
330
1F
100
AcDbEntity
  8
Layer 1
370
     0
100
AcDbSpline
210
0.0
220
0.0
230
1.0
 70
    11
 71
     3
 72
    26
 73
    22
 74
     0
 42
0.0000000001
 43
0.0000000001
 12
1.0
 22
0.0
 32
0.0
 13
1.0
 23
0.0
 33
0.0
 40
0.0
 40
0.0
 40
0.0
 40
0.0
 40
1.0
 40
1.0
 40
1.0
 40
2.0
 40
2.0
 40
2.0
 40
3.0
 40
3.0
 40
3.0
 40
4.0
 40
4.0
 40
4.0
 40
5.0
 40
5.0
 40
5.0
 40
6.0
 40
6.0
 40
6.0
 40
7.0
 40
7.0
 40
7.0
 40
7.0
 10
32.55599975585938
 20
76.87799835205078
 30
0.0
 10
32.52899932861328
 20
76.87299728393555
 30
0.0
 10
32.50199890136719
 20
76.87099838256836
 30
0.0
 10
32.47499847412109
 20
76.87099838256836
 30
0.0
 10
32.25199890136719
 20
76.87099838256836
 30
0.0
 10
32.05500030517578
 20
77.03099822998047
 30
0.0
 10
32.01599884033203
 20
77.25799942016602
 30
0.0
 10
31.95099830627441
 20
77.63199996948242
 30
0.0
 10
31.90599822998047
 20
78.45000076293945
 30
0.0
 10
31.90099906921387
 20
78.54199981689453
 30
0.0
 10
31.88699913024902
 20
78.79999923706055
 30
0.0
 10
32.08499908447266
 20
79.01900100708008
 30
0.0
 10
32.34199905395508
 20
79.03300094604492
 30
0.0
 10
32.59799957275391
 20
79.052001953125
 30
0.0
 10
32.81999969482422
 20
78.84900283813477
 30
0.0
 10
32.83300018310547
 20
78.59199905395508
 30
0.0
 10
32.84600067138672
 20
78.35799789428711
 30
0.0
 10
32.88800048828125
 20
77.68999862670898
 30
0.0
 10
32.93600082397461
 20
77.41999816894531
 30
0.0
 10
32.97999954223633
 20
77.16400146484375
 30
0.0
 10
32.81000137329102
 20
76.92200088500977
 30
0.0
 10
32.55599975585938
 20
76.87799835205078
 30
0.0
  0
SPLINE
  5
46
330
1F
100
AcDbEntity
  8
Layer 1
370
     0
100
AcDbSpline
210
0.0
220
0.0
230
1.0
 70
    11
 71
     3
 72
    26
 73
    22
 74
     0
 42
0.0000000001
 43
0.0000000001
 12
1.0
 22
0.0
 32
0.0
 13
1.0
 23
0.0
 33
0.0
 40
0.0
 40
0.0
 40
0.0
 40
0.0
 40
1.0
 40
1.0
 40
1.0
 40
2.0
 40
2.0
 40
2.0
 40
3.0
 40
3.0
 40
3.0
 40
4.0
 40
4.0
 40
4.0
 40
5.0
 40
5.0
 40
5.0
 40
6.0
 40
6.0
 40
6.0
 40
7.0
 40
7.0
 40
7.0
 40
7.0
 10
62.20100021362305
 20
46.7239990234375
 30
0.0
 10
59.07300186157227
 20
43.37100219726562
 30
0.0
 10
56.44200134277344
 20
41.96599578857422
 30
0.0
 10
56.33200073242188
 20
41.90799713134766
 30
0.0
 10
56.26300048828125
 20
41.87199401855469
 30
0.0
 10
56.1879997253418
 20
41.85399627685547
 30
0.0
 10
56.1150016784668
 20
41.85399627685547
 30
0.0
 10
55.94700241088867
 20
41.85399627685547
 30
0.0
 10
55.78499984741211
 20
41.94499969482422
 30
0.0
 10
55.70100021362305
 20
42.10399627685547
 30
0.0
 10
55.58100128173828
 20
42.33199310302734
 30
0.0
 10
55.66799926757812
 20
42.61399841308594
 30
0.0
 10
55.89599990844727
 20
42.73499298095703
 30
0.0
 10
55.92200088500977
 20
42.74899291992188
 30
0.0
 10
58.50699996948242
 20
44.13499450683594
 30
0.0
 10
61.51800155639648
 20
47.36199188232422
 30
0.0
 10
61.69400024414062
 20
47.55099487304688
 30
0.0
 10
61.9900016784668
 20
47.56098937988281
 30
0.0
 10
62.17800140380859
 20
47.38499450683594
 30
0.0
 10
62.36700057983398
 20
47.20800018310547
 30
0.0
 10
62.37699890136719
 20
46.91300201416016
 30
0.0
 10
62.20100021362305
 20
46.7239990234375
 30
0.0
  0
SPLINE
  5
47
330
1F
100
AcDbEntity
  8
Layer 1
370
     0
100
AcDbSpline
210
0.0
220
0.0
230
1.0
 70
    11
 71
     3
 72
    26
 73
    22
 74
     0
 42
0.0000000001
 43
0.0000000001
 12
1.0
 22
0.0
 32
0.0
 13
1.0
 23
0.0
 33
0.0
 40
0.0
 40
0.0
 40
0.0
 40
0.0
 40
1.0
 40
1.0
 40
1.0
 40
2.0
 40
2.0
 40
2.0
 40
3.0
 40
3.0
 40
3.0
 40
4.0
 40
4.0
 40
4.0
 40
5.0
 40
5.0
 40
5.0
 40
6.0
 40
6.0
 40
6.0
 40
7.0
 40
7.0
 40
7.0
 40
7.0
 10
64.21399688720703
 20
49.40499877929688
 30
0.0
 10
64.00299835205078
 20
49.04000091552734
 30
0.0
 10
63.43499755859375
 20
48.28099822998047
 30
0.0
 10
63.41099548339844
 20
48.24900054931641
 30
0.0
 10
63.31899642944336
 20
48.12699890136719
 30
0.0
 10
63.17899703979492
 20
48.06200408935547
 30
0.0
 10
63.03699493408203
 20
48.06200408935547
 30
0.0
 10
62.93899536132812
 20
48.06200408935547
 30
0.0
 10
62.84099578857422
 20
48.09200286865234
 30
0.0
 10
62.75699615478516
 20
48.15500640869141
 30
0.0
 10
62.55099487304688
 20
48.31000518798828
 30
0.0
 10
62.50899505615234
 20
48.60300445556641
 30
0.0
 10
62.66399765014648
 20
48.80900573730469
 30
0.0
 10
62.81899642944336
 20
49.01500701904297
 30
0.0
 10
63.25399780273438
 20
49.6090087890625
 30
0.0
 10
63.40599822998047
 20
49.87100219726562
 30
0.0
 10
63.53499984741211
 20
50.09400177001953
 30
0.0
 10
63.81999969482422
 20
50.17200469970703
 30
0.0
 10
64.04399871826172
 20
50.04199981689453
 30
0.0
 10
64.26599884033203
 20
49.91400146484375
 30
0.0
 10
64.34300231933594
 20
49.62799835205078
 30
0.0
 10
64.21399688720703
 20
49.40499877929688
 30
0.0
  0
HATCH
  5
48
330
1F
100
AcDbEntity
  8
Layer 1
 62
     7
420
 16777215
100
AcDbHatch
 10
0.0
 20
0.0
 30
0.0
210
0.0
220
0.0
230
1.0
  2
SOLID
 70
     1
 71
     0
 91
        7
 92
        1
 93
        1
 72
     4
 94
        3
 73
     0
 74
     1
 95
      371
 96
      367
 40
0.0
 40
0.0
 40
0.0
 40
0.0
 40
1.0
 40
1.0
 40
1.0
 40
2.0
 40
2.0
 40
2.0
 40
3.0
 40
3.0
 40
3.0
 40
4.0
 40
4.0
 40
4.0
 40
5.0
 40
5.0
 40
5.0
 40
6.0
 40
6.0
 40
6.0
 40
7.0
 40
7.0
 40
7.0
 40
8.0
 40
8.0
 40
8.0
 40
9.0
 40
9.0
 40
9.0
 40
10.0
 40
10.0
 40
10.0
 40
11.0
 40
11.0
 40
11.0
 40
12.0
 40
12.0
 40
12.0
 40
13.0
 40
13.0
 40
13.0
 40
14.0
 40
14.0
 40
14.0
 40
15.0
 40
15.0
 40
15.0
 40
16.0
 40
16.0
 40
16.0
 40
17.0
 40
17.0
 40
17.0
 40
18.0
 40
18.0
 40
18.0
 40
19.0
 40
19.0
 40
19.0
 40
20.0
 40
20.0
 40
20.0
 40
21.0
 40
21.0
 40
21.0
 40
22.0
 40
22.0
 40
22.0
 40
23.0
 40
23.0
 40
23.0
 40
24.0
 40
24.0
 40
24.0
 40
25.0
 40
25.0
 40
25.0
 40
26.0
 40
26.0
 40
26.0
 40
27.0
 40
27.0
 40
27.0
 40
28.0
 40
28.0
 40
28.0
 40
29.0
 40
29.0
 40
29.0
 40
30.0
 40
30.0
 40
30.0
 40
31.0
 40
31.0
 40
31.0
 40
32.0
 40
32.0
 40
32.0
 40
33.0
 40
33.0
 40
33.0
 40
34.0
 40
34.0
 40
34.0
 40
35.0
 40
35.0
 40
35.0
 40
36.0
 40
36.0
 40
36.0
 40
37.0
 40
37.0
 40
37.0
 40
38.0
 40
38.0
 40
38.0
 40
39.0
 40
39.0
 40
39.0
 40
40.0
 40
40.0
 40
40.0
 40
41.0
 40
41.0
 40
41.0
 40
42.0
 40
42.0
 40
42.0
 40
43.0
 40
43.0
 40
43.0
 40
44.0
 40
44.0
 40
44.0
 40
45.0
 40
45.0
 40
45.0
 40
46.0
 40
46.0
 40
46.0
 40
47.0
 40
47.0
 40
47.0
 40
48.0
 40
48.0
 40
48.0
 40
49.0
 40
49.0
 40
49.0
 40
50.0
 40
50.0
 40
50.0
 40
51.0
 40
51.0
 40
51.0
 40
52.0
 40
52.0
 40
52.0
 40
53.0
 40
53.0
 40
53.0
 40
54.0
 40
54.0
 40
54.0
 40
55.0
 40
55.0
 40
55.0
 40
56.0
 40
56.0
 40
56.0
 40
57.0
 40
57.0
 40
57.0
 40
58.0
 40
58.0
 40
58.0
 40
59.0
 40
59.0
 40
59.0
 40
60.0
 40
60.0
 40
60.0
 40
61.0
 40
61.0
 40
61.0
 40
62.0
 40
62.0
 40
62.0
 40
63.0
 40
63.0
 40
63.0
 40
64.0
 40
64.0
 40
64.0
 40
65.0
 40
65.0
 40
65.0
 40
66.0
 40
66.0
 40
66.0
 40
67.0
 40
67.0
 40
67.0
 40
68.0
 40
68.0
 40
68.0
 40
69.0
 40
69.0
 40
69.0
 40
70.0
 40
70.0
 40
70.0
 40
71.0
 40
71.0
 40
71.0
 40
72.0
 40
72.0
 40
72.0
 40
73.0
 40
73.0
 40
73.0
 40
74.0
 40
74.0
 40
74.0
 40
75.0
 40
75.0
 40
75.0
 40
76.0
 40
76.0
 40
76.0
 40
77.0
 40
77.0
 40
77.0
 40
78.0
 40
78.0
 40
78.0
 40
79.0
 40
79.0
 40
79.0
 40
80.0
 40
80.0
 40
80.0
 40
81.0
 40
81.0
 40
81.0
 40
82.0
 40
82.0
 40
82.0
 40
83.0
 40
83.0
 40
83.0
 40
84.0
 40
84.0
 40
84.0
 40
85.0
 40
85.0
 40
85.0
 40
86.0
 40
86.0
 40
86.0
 40
87.0
 40
87.0
 40
87.0
 40
88.0
 40
88.0
 40
88.0
 40
89.0
 40
89.0
 40
89.0
 40
90.0
 40
90.0
 40
90.0
 40
91.0
 40
91.0
 40
91.0
 40
92.0
 40
92.0
 40
92.0
 40
93.0
 40
93.0
 40
93.0
 40
94.0
 40
94.0
 40
94.0
 40
95.0
 40
95.0
 40
95.0
 40
96.0
 40
96.0
 40
96.0
 40
97.0
 40
97.0
 40
97.0
 40
98.0
 40
98.0
 40
98.0
 40
99.0
 40
99.0
 40
99.0
 40
100.0
 40
100.0
 40
100.0
 40
101.0
 40
101.0
 40
101.0
 40
102.0
 40
102.0
 40
102.0
 40
103.0
 40
103.0
 40
103.0
 40
104.0
 40
104.0
 40
104.0
 40
105.0
 40
105.0
 40
105.0
 40
106.0
 40
106.0
 40
106.0
 40
107.0
 40
107.0
 40
107.0
 40
108.0
 40
108.0
 40
108.0
 40
109.0
 40
109.0
 40
109.0
 40
110.0
 40
110.0
 40
110.0
 40
111.0
 40
111.0
 40
111.0
 40
112.0
 40
112.0
 40
112.0
 40
113.0
 40
113.0
 40
113.0
 40
114.0
 40
114.0
 40
114.0
 40
115.0
 40
115.0
 40
115.0
 40
116.0
 40
116.0
 40
116.0
 40
117.0
 40
117.0
 40
117.0
 40
118.0
 40
118.0
 40
118.0
 40
119.0
 40
119.0
 40
119.0
 40
120.0
 40
120.0
 40
120.0
 40
121.0
 40
121.0
 40
121.0
 40
122.0
 40
122.0
 40
122.0
 40
122.0
 10
91.45899963378906
 20
67.02299880981445
 10
93.97799682617188
 20
72.18199920654297
 10
95.447998046875
 20
79.03099822998047
 10
94.84100341796875
 20
88.11899948120117
 10
94.60100555419922
 20
87.1359977722168
 10
94.13500213623047
 20
85.10799789428711
 10
93.23500061035156
 20
80.91899871826172
 10
93.14399719238281
 20
80.49699783325195
 10
93.0510025024414
 20
80.02199935913086
 10
92.9530029296875
 20
79.51899719238281
 10
91.6550064086914
 20
72.8969955444336
 10
88.95500183105469
 20
59.11899566650391
 10
69.43000030517578
 20
53.44699859619141
 10
69.3949966430664
 20
53.43699645996094
 10
69.36000061035156
 20
53.43199920654297
 10
69.32600402832031
 20
53.43199920654297
 10
69.16400146484375
 20
53.43199920654297
 10
69.01500701904297
 20
53.53800201416016
 10
68.96700286865234
 20
53.70199584960938
 10
68.91000366210938
 20
53.89999389648438
 10
69.02300262451172
 20
54.10699462890625
 10
69.22200012207031
 20
54.16499328613281
 10
77.45999908447266
 20
56.55799102783203
 10
83.572998046875
 20
60.70599365234375
 10
87.39199829101562
 20
66.49299240112305
 10
90.58899688720703
 20
71.33899307250977
 10
91.57099914550781
 20
76.34799194335938
 10
92.22100067138672
 20
79.66299438476562
 10
92.31999969482422
 20
80.16899490356445
 10
92.41400146484375
 20
80.6469955444336
 10
92.5060043334961
 20
81.07599258422852
 10
93.21400451660156
 20
84.37299346923828
 10
93.74000549316406
 20
86.73599243164062
 10
94.06900787353516
 20
88.09899139404297
 10
94.37001037597656
 20
89.34999084472656
 10
94.42700958251953
 20
89.58499145507812
 10
94.72901153564453
 20
89.58098983764648
 10
94.68701171875
 20
90.0529899597168
 10
94.6410140991211
 20
90.52899169921875
 10
94.5880126953125
 20
91.01298904418945
 10
94.53001403808594
 20
91.00698852539062
 10
94.47101593017578
 20
91.00498962402344
 10
94.4110107421875
 20
91.01498794555664
 10
94.3910140991211
 20
91.01798629760742
 10
93.80300903320312
 20
91.10698699951172
 10
92.81501007080078
 20
91.14298629760742
 10
92.49700927734375
 20
89.95098495483398
 10
91.47200775146484
 20
85.98998641967773
 10
89.30001068115234
 20
76.63898468017578
 10
86.10001373291016
 20
62.86198425292969
 10
74.9840087890625
 20
58.00298309326172
 10
70.35401153564453
 20
56.55398559570312
 10
70.2590103149414
 20
56.52398681640625
 10
70.18701171875
 20
56.50198364257812
 10
70.1410140991211
 20
56.48598480224609
 10
70.10101318359375
 20
56.47198486328125
 10
70.06001281738281
 20
56.46598815917969
 10
70.02001190185547
 20
56.46598815917969
 10
69.8650131225586
 20
56.46598815917969
 10
69.72000885009766
 20
56.56298828125
 10
69.6670150756836
 20
56.71798706054688
 10
69.60001373291016
 20
56.91298675537109
 10
69.70401763916016
 20
57.12598419189453
 10
69.89901733398438
 20
57.19298553466797
 10
69.94902038574219
 20
57.20998382568359
 10
70.02801513671875
 20
57.2349853515625
 10
70.13101959228516
 20
57.26698303222656
 10
74.63902282714844
 20
58.67798614501953
 10
85.46002197265625
 20
63.406982421875
 10
88.5730209350586
 20
76.8079833984375
 10
90.64701843261719
 20
85.73798370361328
 10
91.67802429199219
 20
89.76398468017578
 10
92.0470199584961
 20
91.156982421875
 10
91.46601867675781
 20
91.1579818725586
 10
90.79901885986328
 20
91.13898086547852
 10
90.05902099609375
 20
91.08098220825195
 10
89.8239974975586
 20
89.68000030517578
 10
89.0
 20
85.35900115966797
 10
86.40699768066406
 20
76.03499984741211
 10
83.66699981689453
 20
66.18000030517578
 10
75.48099517822266
 20
61.49499893188477
 10
70.84600067138672
 20
59.58000183105469
 10
70.76399993896484
 20
59.54600524902344
 10
70.697998046875
 20
59.51900482177734
 10
70.6500015258789
 20
59.49800109863281
 10
70.60200500488281
 20
59.47699737548828
 10
70.552001953125
 20
59.46700286865234
 10
70.50199890136719
 20
59.46700286865234
 10
70.35700225830078
 20
59.46700286865234
 10
70.22000122070312
 20
59.552001953125
 10
70.15899658203125
 20
59.69300079345703
 10
70.07799530029297
 20
59.88200378417969
 10
70.16499328613281
 20
60.10199737548828
 10
70.35399627685547
 20
60.18399810791016
 10
70.40499877929688
 20
60.20600128173828
 10
70.4729995727539
 20
60.23400115966797
 10
70.55999755859375
 20
60.26999664306641
 10
75.06900024414062
 20
62.13399505615234
 10
83.03099822998047
 20
66.68599700927734
 10
85.68599700927734
 20
76.2349967956543
 10
88.13899993896484
 20
85.0569953918457
 10
89.00899505615234
 20
89.43699645996094
 10
89.28099822998047
 20
91.00699615478516
 10
88.58999633789062
 20
90.93099594116211
 10
87.8499984741211
 20
90.82099533081055
 10
87.07499694824219
 20
90.66599655151367
 10
86.78299713134766
 20
89.06299591064453
 10
85.72200012207031
 20
83.80199813842773
 10
83.16099548339844
 20
76.14299774169922
 10
79.99699401855469
 20
66.67899703979492
 10
73.42699432373047
 20
63.58399963378906
 10
71.26799774169922
 20
62.56699752807617
 10
71.07799530029297
 20
62.47799682617188
 10
70.92399597167969
 20
62.40499877929688
 10
70.81199645996094
 20
62.34599685668945
 10
70.75699615478516
 20
62.31699752807617
 10
70.6969985961914
 20
62.30299758911133
 10
70.63899993896484
 20
62.30299758911133
 10
70.50399780273438
 20
62.30299758911133
 10
70.375
 20
62.37599945068359
 10
70.30799865722656
 20
62.50299835205078
 10
70.21199798583984
 20
62.68599700927734
 10
70.28299713134766
 20
62.9109992980957
 10
70.46599578857422
 20
63.00699996948242
 10
70.58499908447266
 20
63.06999969482422
 10
70.74899291992188
 20
63.14699935913086
 10
70.94999694824219
 20
63.24200057983398
 10
73.03699493408203
 20
64.22600173950195
 10
79.38999938964844
 20
67.21900177001953
 10
82.45299530029297
 20
76.37900161743164
 10
84.85699462890625
 20
83.56700134277344
 10
85.92899322509766
 20
88.62200164794922
 10
86.28399658203125
 20
90.49400329589844
 10
85.53099822998047
 20
90.3170051574707
 10
84.75199890136719
 20
90.09400177001953
 10
83.95599365234375
 20
89.8180046081543
 10
83.7199935913086
 20
88.04500579833984
 10
82.78899383544922
 20
82.30300521850586
 10
79.95599365234375
 20
75.88900375366211
 10
77.72698974609375
 20
70.84200286865234
 10
74.5669937133789
 20
67.28500366210938
 10
70.8169937133789
 20
65.60200500488281
 10
70.75199127197266
 20
65.57300567626953
 10
70.70299530029297
 20
65.55100631713867
 10
70.67098999023438
 20
65.53500366210938
 10
70.61698913574219
 20
65.50700378417969
 10
70.55899047851562
 20
65.49400329589844
 10
70.50199127197266
 20
65.49400329589844
 10
70.3659896850586
 20
65.49400329589844
 10
70.23399353027344
 20
65.56900405883789
 10
70.16899108886719
 20
65.69900512695312
 10
70.07598876953125
 20
65.88300323486328
 10
70.14899444580078
 20
66.10800552368164
 10
70.33299255371094
 20
66.20100402832031
 10
70.37199401855469
 20
66.22100448608398
 10
70.43199157714844
 20
66.24800491333008
 10
70.51199340820312
 20
66.28400421142578
 10
74.09099578857422
 20
67.8900032043457
 10
77.1209945678711
 20
71.31600570678711
 10
79.27399444580078
 20
76.19100189208984
 10
81.8899917602539
 20
82.11600112915039
 10
82.86099243164062
 20
87.44600296020508
 10
83.16299438476562
 20
89.5270004272461
 10
82.33099365234375
 20
89.20399856567383
 10
81.48699188232422
 20
88.81999969482422
 10
80.64399719238281
 20
88.36299896240234
 10
80.61299896240234
 20
88.34600067138672
 10
80.58300018310547
 20
88.32999801635742
 10
80.55199432373047
 20
88.3129997253418
 10
80.29399108886719
 20
87.05500030517578
 10
79.61499786376953
 20
84.04700088500977
 10
78.41999816894531
 20
80.71199798583984
 10
76.3030014038086
 20
74.80799865722656
 10
73.66199493408203
 20
70.74799728393555
 10
70.56900024414062
 20
68.6449966430664
 10
70.50499725341797
 20
68.60099792480469
 10
70.43099975585938
 20
68.57999801635742
 10
70.35900115966797
 20
68.57999801635742
 10
70.23899841308594
 20
68.57999801635742
 10
70.12200164794922
 20
68.63699722290039
 10
70.05000305175781
 20
68.74299621582031
 10
69.93400573730469
 20
68.91399765014648
 10
69.9780044555664
 20
69.14599609375
 10
70.14900207519531
 20
69.26199722290039
 10
76.0320053100586
 20
73.26199722290039
 10
78.87800598144531
 20
84.18199920654297
 10
79.68800354003906
 20
87.8479995727539
 10
78.54300689697266
 20
87.23600006103516
 10
77.54200744628906
 20
86.71799850463867
 10
76.66600036621094
 20
86.27999877929688
 10
76.44300079345703
 20
85.30199813842773
 10
75.98100280761719
 20
83.46299743652344
 10
75.24199676513672
 20
81.41600036621094
 10
73.77099609375
 20
77.34199905395508
 10
71.96599578857422
 20
74.42300033569336
 10
69.8759994506836
 20
72.74100112915039
 10
69.80699920654297
 20
72.68500137329102
 10
69.7239990234375
 20
72.65800094604492
 10
69.64199829101562
 20
72.65800094604492
 10
69.53299713134766
 20
72.65800094604492
 10
69.42499542236328
 20
72.70600128173828
 10
69.35099792480469
 20
72.79700088500977
 10
69.22100067138672
 20
72.95800018310547
 10
69.24700164794922
 20
73.19300079345703
 10
69.40799713134766
 20
73.32200241088867
 10
73.11499786376953
 20
76.30600357055664
 10
75.09700012207031
 20
83.01300048828125
 10
75.7959976196289
 20
85.85100173950195
 10
74.9280014038086
 20
85.43200302124023
 10
74.19200134277344
 20
85.10000228881836
 10
73.55299377441406
 20
84.83400344848633
 10
73.48299407958984
 20
84.19600296020508
 10
72.97199249267578
 20
80.73400497436523
 10
69.80699157714844
 20
76.56700134277344
 10
69.73299407958984
 20
76.47000122070312
 10
69.62199401855469
 20
76.41900253295898
 10
69.50899505615234
 20
76.41900253295898
 10
69.42999267578125
 20
76.41900253295898
 10
69.35099792480469
 20
76.44400405883789
 10
69.28299713134766
 20
76.49500274658203
 10
69.1189956665039
 20
76.62000274658203
 10
69.08699798583984
 20
76.85400390625
 10
69.21099853515625
 20
77.01800155639648
 10
71.80500030517578
 20
80.43200302124023
 10
72.5479965209961
 20
83.39599990844727
 10
72.74800109863281
 20
84.5150032043457
 10
71.40399932861328
 20
84.01100158691406
 10
70.52200317382812
 20
83.83300399780273
 10
69.60700225830078
 20
83.69400405883789
 10
69.60400390625
 20
83.6930046081543
 10
69.5999984741211
 20
83.69400405883789
 10
69.59700012207031
 20
83.6930046081543
 10
69.3219985961914
 20
83.65100479125977
 10
69.0469970703125
 20
83.62800598144531
 10
68.77200317382812
 20
83.62800598144531
 10
68.76900482177734
 20
83.62800598144531
 10
68.76600646972656
 20
83.62800598144531
 10
68.76300048828125
 20
83.62800598144531
 10
66.72200012207031
 20
83.6310043334961
 10
65.3550033569336
 20
84.81600570678711
 10
64.91699981689453
 20
85.2560043334961
 10
64.41500091552734
 20
85.6660041809082
 10
64.09400177001953
 20
86.28800582885742
 10
64.09400177001953
 20
86.98500442504883
 10
64.09400177001953
 20
88.21600341796875
 10
65.09500122070312
 20
89.21700286865234
 10
66.32600402832031
 20
89.21700286865234
 10
67.5570068359375
 20
89.21700286865234
 10
68.5580062866211
 20
88.21600341796875
 10
68.5580062866211
 20
86.98500442504883
 10
68.5580062866211
 20
86.21200561523438
 10
68.16300964355469
 20
85.531005859375
 10
67.56501007080078
 20
85.1300048828125
 10
67.92401123046875
 20
85.01300430297852
 10
68.32801055908203
 20
84.93500518798828
 10
68.77301025390625
 20
84.93500518798828
 10
68.77700805664062
 20
84.93500518798828
 10
68.78101348876953
 20
84.93500518798828
 10
68.7850112915039
 20
84.93500518798828
 10
68.99101257324219
 20
84.93600463867188
 10
69.19901275634766
 20
84.9520034790039
 10
69.40701293945312
 20
84.98500442504883
 10
69.40801239013672
 20
84.98500442504883
 10
69.4100112915039
 20
84.98600387573242
 10
69.4110107421875
 20
84.98600387573242
 10
69.41600799560547
 20
84.98700332641602
 10
69.42101287841797
 20
84.98800277709961
 10
69.42501068115234
 20
84.98800277709961
 10
70.88800811767578
 20
85.22300338745117
 10
72.39900970458984
 20
86.24200439453125
 10
73.92601013183594
 20
88.02800369262695
 10
76.739013671875
 20
91.3170051574707
 10
81.14401245117188
 20
93.55600357055664
 10
86.66400909423828
 20
94.50300407409668
 10
90.27600860595703
 20
95.12200355529785
 10
93.22400665283203
 20
95.00800323486328
 10
94.00501251220703
 20
94.96100425720215
 10
93.39501190185547
 20
97.12100410461426
 10
90.3630142211914
 20
103.8080043792725
 10
76.18401336669922
 20
103.8080043792725
 10
59.27401351928711
 20
103.8080043792725
 10
51.86101531982422
 20
79.50000381469727
 10
46.58501434326172
 20
79.14800262451172
 10
41.30801391601562
 20
78.79600143432617
 10
37.35801315307617
 20
84.43200302124023
 10
43.03201293945312
 20
88.30700302124023
 10
48.70601272583008
 20
92.18200302124023
 10
56.49001312255859
 20
95.10200309753418
 10
58.34401321411133
 20
103.8070030212402
 10
60.18001174926758
 20
112.4290027618408
 10
58.84501266479492
 20
113.5080032348633
 10
58.84501266479492
 20
113.5080032348633
 10
58.84501266479492
 20
113.5080032348633
 10
50.5260124206543
 20
106.3240032196045
 10
43.03201293945312
 20
102.0450019836426
 10
38.55801391601562
 20
99.4900016784668
 10
34.51801300048828
 20
98.15400123596191
 10
34.21401214599609
 20
95.87200164794922
 10
33.91001129150391
 20
93.59000205993652
 10
32.90601348876953
 20
101.3400020599365
 10
25.65801239013672
 20
102.7490005493164
 10
18.41001129150391
 20
104.1580009460449
 10
8.76101303100586
 20
101.3400001525879
 10
6.892011642456055
 20
104.1580009460449
 10
5.023011684417725
 20
106.976001739502
 10
5.023011684417725
 20
106.976001739502
 10
5.023011684417725
 20
106.976001739502
 10
5.023011684417725
 20
106.976001739502
 10
8.888011932373047
 20
92.53200149536133
 10
18.58101081848145
 20
90.41900253295898
 10
28.27400970458984
 20
88.30500411987305
 10
29.48701095581055
 20
87.24800109863281
 10
29.48701095581055
 20
87.24800109863281
 10
29.48701095581055
 20
87.24800109863281
 10
24.57099914550781
 20
56.50900268554688
 10
52.02099990844727
 20
50.47000122070312
 10
52.07400131225586
 20
53.28900146484375
 10
51.72999954223633
 20
56.27300262451172
 10
51.43099975585938
 20
58.85200500488281
 10
51.39400100708008
 20
59.17300415039062
 10
51.35699844360352
 20
59.48900604248047
 10
51.32199859619141
 20
59.79700469970703
 10
50.46099853515625
 20
67.38300323486328
 10
54.30899810791016
 20
72.82100677490234
 10
54.4739990234375
 20
73.04900360107422
 10
54.68499755859375
 20
73.34200286865234
 10
55.09399795532227
 20
73.40800476074219
 10
55.38699722290039
 20
73.19700241088867
 10
55.67999649047852
 20
72.98600387573242
 10
55.74599838256836
 20
72.5780029296875
 10
55.53499603271484
 20
72.28500366210938
 10
55.49799728393555
 20
72.23300552368164
 10
51.81899642944336
 20
67.01100158691406
 10
52.62099456787109
 20
59.94500732421875
 10
52.6559944152832
 20
59.63700866699219
 10
52.69199371337891
 20
59.32300567626953
 10
52.72899627685547
 20
59.00300598144531
 10
53.04199600219727
 20
56.30400848388672
 10
53.34299468994141
 20
50.21000671386719
 10
53.34299468994141
 20
50.21000671386719
 10
53.33899307250977
 20
46.02900695800781
 10
52.54599380493164
 20
42.09300994873047
 10
49.58699417114258
 20
40.05101013183594
 10
44.47899627685547
 20
36.52800750732422
 10
44.47899627685547
 20
36.52800750732422
 10
44.47899627685547
 20
36.52800750732422
 10
44.47899627685547
 20
36.52800750732422
 10
61.74999618530273
 20
34.92401123046875
 10
68.0260009765625
 20
51.30101013183594
 10
68.0260009765625
 20
51.30101013183594
 10
68.33100128173828
 20
51.32401275634766
 10
68.33100128173828
 20
51.32401275634766
 10
68.33100128173828
 20
51.32401275634766
 10
73.7550048828125
 20
51.62200927734375
 10
79.70899963378906
 20
54.82601165771484
 10
79.70899963378906
 20
54.82601165771484
 10
79.70800018310547
 20
54.82501220703125
 10
79.70800018310547
 20
54.82501220703125
 10
81.88600158691406
 20
51.04301452636719
 10
76.73699951171875
 20
41.69601440429688
 10
76.73699951171875
 20
41.69601440429688
 10
92.32599639892578
 20
44.86699676513672
 10
91.45899963378906
 20
67.02299880981445
 10
91.45899963378906
 20
67.02299880981445
 10
91.45899963378906
 20
67.02299880981445
 10
91.45899963378906
 20
67.02299880981445
 10
91.45899963378906
 20
67.02299880981445
 97
        0
 97
        0
 92
        1
 93
        1
 72
     4
 94
        3
 73
     0
 74
     1
 95
       26
 96
       22
 40
0.0
 40
0.0
 40
0.0
 40
0.0
 40
1.0
 40
1.0
 40
1.0
 40
2.0
 40
2.0
 40
2.0
 40
3.0
 40
3.0
 40
3.0
 40
4.0
 40
4.0
 40
4.0
 40
5.0
 40
5.0
 40
5.0
 40
6.0
 40
6.0
 40
6.0
 40
7.0
 40
7.0
 40
7.0
 40
7.0
 10
54.68000030517578
 20
107.4839992523193
 10
54.68000030517578
 20
107.4839992523193
 10
55.34199905395508
 20
107.9860000610352
 10
55.34199905395508
 20
107.9860000610352
 10
55.54800033569336
 20
108.1420001983643
 10
55.84099960327148
 20
108.1019992828369
 10
55.99599838256836
 20
107.8959999084473
 10
56.15199661254883
 20
107.6909999847412
 10
56.11199951171875
 20
107.3980007171631
 10
55.90599822998047
 20
107.242000579834
 10
55.90599822998047
 20
107.242000579834
 10
55.24399948120117
 20
106.7399997711182
 10
55.24399948120117
 20
106.7399997711182
 10
55.15999984741211
 20
106.6760005950928
 10
55.06100082397461
 20
106.6450004577637
 10
54.96199798583984
 20
106.6450004577637
 10
54.82099914550781
 20
106.6450004577637
 10
54.68099975585938
 20
106.7089996337891
 10
54.58999633789062
 20
106.8299999237061
 10
54.43399810791016
 20
107.0349998474121
 10
54.4739990234375
 20
107.3279991149902
 10
54.68000030517578
 20
107.4839992523193
 97
        0
 97
        0
 92
        1
 93
        1
 72
     4
 94
        3
 73
     0
 74
     1
 95
       26
 96
       22
 40
0.0
 40
0.0
 40
0.0
 40
0.0
 40
1.0
 40
1.0
 40
1.0
 40
2.0
 40
2.0
 40
2.0
 40
3.0
 40
3.0
 40
3.0
 40
4.0
 40
4.0
 40
4.0
 40
5.0
 40
5.0
 40
5.0
 40
6.0
 40
6.0
 40
6.0
 40
7.0
 40
7.0
 40
7.0
 40
7.0
 10
48.70899963378906
 20
102.9529991149902
 10
48.70899963378906
 20
102.9529991149902
 10
53.30599975585938
 20
106.4409980773926
 10
53.30599975585938
 20
106.4409980773926
 10
53.51100158691406
 20
106.5969982147217
 10
53.80400085449219
 20
106.5569972991943
 10
53.95999908447266
 20
106.3509979248047
 10
54.11599731445312
 20
106.1459980010986
 10
54.07600021362305
 20
105.8529987335205
 10
53.86999893188477
 20
105.6969985961914
 10
53.86999893188477
 20
105.6969985961914
 10
49.27299880981445
 20
102.2089996337891
 10
49.27299880981445
 20
102.2089996337891
 10
49.18899917602539
 20
102.1450004577637
 10
49.0890007019043
 20
102.1140003204346
 10
48.99099731445312
 20
102.1140003204346
 10
48.84999847412109
 20
102.1140003204346
 10
48.70999908447266
 20
102.17799949646
 10
48.61899566650391
 20
102.298999786377
 10
48.4630012512207
 20
102.503999710083
 10
48.50299835205078
 20
102.7970008850098
 10
48.70899963378906
 20
102.9529991149902
 97
        0
 97
        0
 92
        1
 93
        1
 72
     4
 94
        3
 73
     0
 74
     1
 95
       26
 96
       22
 40
0.0
 40
0.0
 40
0.0
 40
0.0
 40
1.0
 40
1.0
 40
1.0
 40
2.0
 40
2.0
 40
2.0
 40
3.0
 40
3.0
 40
3.0
 40
4.0
 40
4.0
 40
4.0
 40
5.0
 40
5.0
 40
5.0
 40
6.0
 40
6.0
 40
6.0
 40
7.0
 40
7.0
 40
7.0
 40
7.0
 10
31.73600006103516
 20
80.37900161743164
 10
31.37899971008301
 20
84.54400253295898
 10
31.81999969482422
 20
86.63199996948242
 10
31.8390007019043
 20
86.71900177001953
 10
31.89400100708008
 20
86.97100067138672
 10
32.14200210571289
 20
87.13100051879883
 10
32.39500045776367
 20
87.07600021362305
 10
32.64699935913086
 20
87.02099990844727
 10
32.80599975585938
 20
86.77299880981445
 10
32.75199890136719
 20
86.52099990844727
 10
32.74599838256836
 20
86.49399948120117
 10
32.32399749755859
 20
84.45600128173828
 10
32.66699981689453
 20
80.45899963378906
 10
32.68899917602539
 20
80.20199966430664
 10
32.49800109863281
 20
79.97599792480469
 10
32.24200057983398
 20
79.95399856567383
 10
32.22800064086914
 20
79.95299911499023
 10
32.21500015258789
 20
79.95199966430664
 10
32.20199966430664
 20
79.95199966430664
 10
31.96100044250488
 20
79.95199966430664
 10
31.75699996948242
 20
80.13600158691406
 10
31.73600006103516
 20
80.37900161743164
 97
        0
 97
        0
 92
        1
 93
        1
 72
     4
 94
        3
 73
     0
 74
     1
 95
       26
 96
       22
 40
0.0
 40
0.0
 40
0.0
 40
0.0
 40
1.0
 40
1.0
 40
1.0
 40
2.0
 40
2.0
 40
2.0
 40
3.0
 40
3.0
 40
3.0
 40
4.0
 40
4.0
 40
4.0
 40
5.0
 40
5.0
 40
5.0
 40
6.0
 40
6.0
 40
6.0
 40
7.0
 40
7.0
 40
7.0
 40
7.0
 10
32.55599975585938
 20
76.87799835205078
 10
32.52899932861328
 20
76.87299728393555
 10
32.50199890136719
 20
76.87099838256836
 10
32.47499847412109
 20
76.87099838256836
 10
32.25199890136719
 20
76.87099838256836
 10
32.05500030517578
 20
77.03099822998047
 10
32.01599884033203
 20
77.25799942016602
 10
31.95099830627441
 20
77.63199996948242
 10
31.90599822998047
 20
78.45000076293945
 10
31.90099906921387
 20
78.54199981689453
 10
31.88699913024902
 20
78.79999923706055
 10
32.08499908447266
 20
79.01900100708008
 10
32.34199905395508
 20
79.03300094604492
 10
32.59799957275391
 20
79.052001953125
 10
32.81999969482422
 20
78.84900283813477
 10
32.83300018310547
 20
78.59199905395508
 10
32.84600067138672
 20
78.35799789428711
 10
32.88800048828125
 20
77.68999862670898
 10
32.93600082397461
 20
77.41999816894531
 10
32.97999954223633
 20
77.16400146484375
 10
32.81000137329102
 20
76.92200088500977
 10
32.55599975585938
 20
76.87799835205078
 97
        0
 97
        0
 92
        1
 93
        1
 72
     4
 94
        3
 73
     0
 74
     1
 95
       26
 96
       22
 40
0.0
 40
0.0
 40
0.0
 40
0.0
 40
1.0
 40
1.0
 40
1.0
 40
2.0
 40
2.0
 40
2.0
 40
3.0
 40
3.0
 40
3.0
 40
4.0
 40
4.0
 40
4.0
 40
5.0
 40
5.0
 40
5.0
 40
6.0
 40
6.0
 40
6.0
 40
7.0
 40
7.0
 40
7.0
 40
7.0
 10
62.20100021362305
 20
46.7239990234375
 10
59.07300186157227
 20
43.37100219726562
 10
56.44200134277344
 20
41.96599578857422
 10
56.33200073242188
 20
41.90799713134766
 10
56.26300048828125
 20
41.87199401855469
 10
56.1879997253418
 20
41.85399627685547
 10
56.1150016784668
 20
41.85399627685547
 10
55.94700241088867
 20
41.85399627685547
 10
55.78499984741211
 20
41.94499969482422
 10
55.70100021362305
 20
42.10399627685547
 10
55.58100128173828
 20
42.33199310302734
 10
55.66799926757812
 20
42.61399841308594
 10
55.89599990844727
 20
42.73499298095703
 10
55.92200088500977
 20
42.74899291992188
 10
58.50699996948242
 20
44.13499450683594
 10
61.51800155639648
 20
47.36199188232422
 10
61.69400024414062
 20
47.55099487304688
 10
61.9900016784668
 20
47.56098937988281
 10
62.17800140380859
 20
47.38499450683594
 10
62.36700057983398
 20
47.20800018310547
 10
62.37699890136719
 20
46.91300201416016
 10
62.20100021362305
 20
46.7239990234375
 97
        0
 97
        0
 92
        1
 93
        1
 72
     4
 94
        3
 73
     0
 74
     1
 95
       26
 96
       22
 40
0.0
 40
0.0
 40
0.0
 40
0.0
 40
1.0
 40
1.0
 40
1.0
 40
2.0
 40
2.0
 40
2.0
 40
3.0
 40
3.0
 40
3.0
 40
4.0
 40
4.0
 40
4.0
 40
5.0
 40
5.0
 40
5.0
 40
6.0
 40
6.0
 40
6.0
 40
7.0
 40
7.0
 40
7.0
 40
7.0
 10
64.21399688720703
 20
49.40499877929688
 10
64.00299835205078
 20
49.04000091552734
 10
63.43499755859375
 20
48.28099822998047
 10
63.41099548339844
 20
48.24900054931641
 10
63.31899642944336
 20
48.12699890136719
 10
63.17899703979492
 20
48.06200408935547
 10
63.03699493408203
 20
48.06200408935547
 10
62.93899536132812
 20
48.06200408935547
 10
62.84099578857422
 20
48.09200286865234
 10
62.75699615478516
 20
48.15500640869141
 10
62.55099487304688
 20
48.31000518798828
 10
62.50899505615234
 20
48.60300445556641
 10
62.66399765014648
 20
48.80900573730469
 10
62.81899642944336
 20
49.01500701904297
 10
63.25399780273438
 20
49.6090087890625
 10
63.40599822998047
 20
49.87100219726562
 10
63.53499984741211
 20
50.09400177001953
 10
63.81999969482422
 20
50.17200469970703
 10
64.04399871826172
 20
50.04199981689453
 10
64.26599884033203
 20
49.91400146484375
 10
64.34300231933594
 20
49.62799835205078
 10
64.21399688720703
 20
49.40499877929688
 97
        0
 97
        0
 75
     2
 76
     1
 98
        0
  0
ENDSEC
  0
SECTION
  2
OBJECTS
  0
DICTIONARY
  5
C
330
0
100
AcDbDictionary
281
     1
  3
ACAD_GROUP
350
D
  3
ACAD_LAYOUT
350
1A
  3
ACAD_MATERIAL
350
3B
  3
ACAD_MLEADERSTYLE
350
4A
  3
ACAD_MLINESTYLE
350
17
  3
ACAD_PLOTSETTINGS
350
19
  3
ACAD_PLOTSTYLENAME
350
E
  3
ACAD_TABLESTYLE
350
49
  3
ACAD_VISUALSTYLE
350
2A
  0
SUN
  5
3F
330
29
100
AcDbSun
 90
        1
290
     0
 63
     7
421
 16777215
 40
1.0
291
     1
 91
  2455826
 92
 54000000
292
     0
 70
     2
 71
   256
280
     1
  0
DICTIONARY
  5
D
102
{ACAD_REACTORS
330
C
102
}
330
C
100
AcDbDictionary
281
     1
  0
DICTIONARY
  5
1A
102
{ACAD_REACTORS
330
C
102
}
330
C
100
AcDbDictionary
281
     1
  3
Layout1
350
1E
  3
Layout2
350
26
  3
Model
350
22
  0
DICTIONARY
  5
3B
102
{ACAD_REACTORS
330
C
102
}
330
C
100
AcDbDictionary
281
     1
  3
ByBlock
350
3D
  3
ByLayer
350
3C
  3
Global
350
3E
  0
DICTIONARY
  5
4A
102
{ACAD_REACTORS
330
C
102
}
330
C
100
AcDbDictionary
281
     1
  0
DICTIONARY
  5
17
102
{ACAD_REACTORS
330
C
102
}
330
C
100
AcDbDictionary
281
     1
  3
Standard
350
18
  0
DICTIONARY
  5
19
102
{ACAD_REACTORS
330
C
102
}
330
C
100
AcDbDictionary
281
     1
  0
ACDBDICTIONARYWDFLT
  5
E
102
{ACAD_REACTORS
330
C
102
}
330
C
100
AcDbDictionary
281
     1
  3
Normal
350
F
100
AcDbDictionaryWithDefault
340
F
  0
DICTIONARY
  5
49
102
{ACAD_REACTORS
330
C
102
}
330
C
100
AcDbDictionary
281
     1
  0
DICTIONARY
  5
2A
102
{ACAD_REACTORS
330
C
102
}
330
C
100
AcDbDictionary
281
     1
  3
2dWireframe
350
2F
  3
3D Hidden
350
31
  3
3dWireframe
350
30
  3
Basic
350
32
  3
Brighten
350
36
  3
ColorChange
350
3A
  3
Conceptual
350
34
  3
Dim
350
35
  3
Facepattern
350
39
  3
Flat
350
2B
  3
FlatWithEdges
350
2C
  3
Gouraud
350
2D
  3
GouraudWithEdges
350
2E
  3
Linepattern
350
38
  3
Realistic
350
33
  3
Thicken
350
37
  0
LAYOUT
  5
1E
102
{ACAD_REACTORS
330
1A
102
}
330
1A
100
AcDbPlotSettings
  1

  2
none_device
  4

  6

 40
0.0
 41
0.0
 42
0.0
 43
0.0
 44
0.0
 45
0.0
 46
0.0
 47
0.0
 48
0.0
 49
0.0
140
0.0
141
0.0
142
1.0
143
1.0
 70
   688
 72
     0
 73
     0
 74
     5
  7

 75
    16
 76
     0
 77
     2
 78
   300
147
1.0
148
0.0
149
0.0
100
AcDbLayout
  1
Layout1
 70
     1
 71
     1
 10
0.0
 20
0.0
 11
12.0
 21
9.0
 12
0.0
 22
0.0
 32
0.0
 14
1.000000000000000E+20
 24
1.000000000000000E+20
 34
1.000000000000000E+20
 15
-1.000000000000000E+20
 25
-1.000000000000000E+20
 35
-1.000000000000000E+20
146
0.0
 13
0.0
 23
0.0
 33
0.0
 16
1.0
 26
0.0
 36
0.0
 17
0.0
 27
1.0
 37
0.0
 76
     0
330
1B
  0
LAYOUT
  5
26
102
{ACAD_REACTORS
330
1A
102
}
330
1A
100
AcDbPlotSettings
  1

  2
none_device
  4

  6

 40
0.0
 41
0.0
 42
0.0
 43
0.0
 44
0.0
 45
0.0
 46
0.0
 47
0.0
 48
0.0
 49
0.0
140
0.0
141
0.0
142
1.0
143
1.0
 70
   688
 72
     0
 73
     0
 74
     5
  7

 75
    16
 76
     0
 77
     2
 78
   300
147
1.0
148
0.0
149
0.0
100
AcDbLayout
  1
Layout2
 70
     1
 71
     2
 10
0.0
 20
0.0
 11
0.0
 21
0.0
 12
0.0
 22
0.0
 32
0.0
 14
0.0
 24
0.0
 34
0.0
 15
0.0
 25
0.0
 35
0.0
146
0.0
 13
0.0
 23
0.0
 33
0.0
 16
1.0
 26
0.0
 36
0.0
 17
0.0
 27
1.0
 37
0.0
 76
     0
330
23
  0
LAYOUT
  5
22
102
{ACAD_REACTORS
330
1A
102
}
330
1A
100
AcDbPlotSettings
  1

  2
none_device
  4

  6

 40
0.0
 41
0.0
 42
0.0
 43
0.0
 44
0.0
 45
0.0
 46
0.0
 47
0.0
 48
0.0
 49
0.0
140
0.0
141
0.0
142
1.0
143
1.0
 70
  1712
 72
     0
 73
     0
 74
     0
  7

 75
     0
 76
     0
 77
     2
 78
   300
147
1.0
148
0.0
149
0.0
100
AcDbLayout
  1
Model
 70
     1
 71
     0
 10
0.0
 20
0.0
 11
12.0
 21
9.0
 12
0.0
 22
0.0
 32
0.0
 14
1.000000000000000E+20
 24
1.000000000000000E+20
 34
1.000000000000000E+20
 15
-1.000000000000000E+20
 25
-1.000000000000000E+20
 35
-1.000000000000000E+20
146
0.0
 13
0.0
 23
0.0
 33
0.0
 16
1.0
 26
0.0
 36
0.0
 17
0.0
 27
1.0
 37
0.0
 76
     0
330
1F
331
29
  0
MATERIAL
  5
3D
102
{ACAD_REACTORS
330
3B
102
}
330
3B
100
AcDbMaterial
  1
ByBlock
 72
     1
 94
      127
  0
MATERIAL
  5
3C
102
{ACAD_REACTORS
330
3B
102
}
330
3B
100
AcDbMaterial
  1
ByLayer
 72
     1
 94
      127
  0
MATERIAL
  5
3E
102
{ACAD_REACTORS
330
3B
102
}
330
3B
100
AcDbMaterial
  1
Global
 72
     1
 94
      127
  0
MLINESTYLE
  5
18
102
{ACAD_REACTORS
330
17
102
}
330
17
100
AcDbMlineStyle
  2
Standard
 70
     0
  3

 62
   256
 51
90.0
 52
90.0
 71
     2
 49
0.5
 62
   256
  6
BYLAYER
 49
-0.5
 62
   256
  6
BYLAYER
  0
ACDBPLACEHOLDER
  5
F
102
{ACAD_REACTORS
330
E
102
}
330
E
  0
VISUALSTYLE
  5
2F
102
{ACAD_REACTORS
330
2A
102
}
330
2A
100
AcDbVisualStyle
  2
2dWireframe
 70
     4
177
     2
291
     0
 71
     0
176
     1
 72
     2
176
     1
 73
     0
176
     1
 90
        0
176
     1
 40
-0.6
176
     1
 41
-30.0
176
     1
 62
     5
 63
     7
421
 16777215
176
     1
 74
     1
176
     1
 91
        4
176
     1
 64
     7
176
     1
 65
   257
176
     1
 75
     1
176
     1
175
     1
176
     1
 42
1.0
176
     1
 92
        0
176
     1
 66
   257
176
     1
 43
1.0
176
     1
 76
     1
176
     1
 77
     6
176
     1
 78
     2
176
     1
 67
     7
176
     1
 79
     5
176
     1
170
     0
176
     1
171
     0
176
     1
290
     0
176
     1
 93
        1
176
     1
 44
0.0
176
     1
173
     0
176
     1
  0
VISUALSTYLE
  5
31
102
{ACAD_REACTORS
330
2A
102
}
330
2A
100
AcDbVisualStyle
  2
3D Hidden
 70
     6
177
     2
291
     0
 71
     1
176
     1
 72
     2
176
     1
 73
     2
176
     1
 90
        0
176
     1
 40
-0.6
176
     1
 41
-30.0
176
     1
 62
     5
 63
     7
421
 16777215
176
     1
 74
     2
176
     1
 91
        2
176
     1
 64
     7
176
     1
 65
   257
176
     1
 75
     2
176
     1
175
     1
176
     1
 42
40.0
176
     1
 92
        0
176
     1
 66
   257
176
     1
 43
1.0
176
     1
 76
     1
176
     1
 77
     6
176
     1
 78
     2
176
     1
 67
     7
176
     1
 79
     3
176
     1
170
     0
176
     1
171
     0
176
     1
290
     0
176
     1
 93
        1
176
     1
 44
0.0
176
     1
173
     0
176
     1
  0
VISUALSTYLE
  5
30
102
{ACAD_REACTORS
330
2A
102
}
330
2A
100
AcDbVisualStyle
  2
3dWireframe
 70
     5
177
     2
291
     0
 71
     0
176
     1
 72
     2
176
     1
 73
     0
176
     1
 90
        0
176
     1
 40
-0.6
176
     1
 41
-30.0
176
     1
 62
     5
 63
     7
421
 16777215
176
     1
 74
     1
176
     1
 91
        4
176
     1
 64
     7
176
     1
 65
   257
176
     1
 75
     1
176
     1
175
     1
176
     1
 42
1.0
176
     1
 92
        0
176
     1
 66
   257
176
     1
 43
1.0
176
     1
 76
     1
176
     1
 77
     6
176
     1
 78
     2
176
     1
 67
     7
176
     1
 79
     5
176
     1
170
     0
176
     1
171
     0
176
     1
290
     0
176
     1
 93
        1
176
     1
 44
0.0
176
     1
173
     0
176
     1
  0
VISUALSTYLE
  5
32
102
{ACAD_REACTORS
330
2A
102
}
330
2A
100
AcDbVisualStyle
  2
Basic
 70
     7
177
     2
291
     1
 71
     1
176
     1
 72
     0
176
     1
 73
     1
176
     1
 90
        0
176
     1
 40
-0.6
176
     1
 41
-30.0
176
     1
 62
     5
 63
     7
421
 16777215
176
     1
 74
     0
176
     1
 91
        4
176
     1
 64
     7
176
     1
 65
   257
176
     1
 75
     1
176
     1
175
     1
176
     1
 42
1.0
176
     1
 92
        8
176
     1
 66
     7
176
     1
 43
1.0
176
     1
 76
     1
176
     1
 77
     6
176
     1
 78
     2
176
     1
 67
     7
176
     1
 79
     5
176
     1
170
     0
176
     1
171
     0
176
     1
290
     0
176
     1
 93
        1
176
     1
 44
0.0
176
     1
173
     0
176
     1
  0
VISUALSTYLE
  5
36
102
{ACAD_REACTORS
330
2A
102
}
330
2A
100
AcDbVisualStyle
  2
Brighten
 70
    12
177
     2
291
     1
 71
     2
176
     1
 72
     2
176
     1
 73
     0
176
     1
 90
        0
176
     1
 40
-0.6
176
     1
 41
-30.0
176
     1
 62
     5
 63
     7
421
 16777215
176
     1
 74
     1
176
     1
 91
        4
176
     1
 64
     7
176
     1
 65
   257
176
     1
 75
     1
176
     1
175
     1
176
     1
 42
1.0
176
     1
 92
        8
176
     1
 66
     7
176
     1
 43
1.0
176
     1
 76
     1
176
     1
 77
     6
176
     1
 78
     2
176
     1
 67
     7
176
     1
 79
     5
176
     1
170
     0
176
     1
171
     0
176
     1
290
     0
176
     1
 93
        1
176
     1
 44
50.0
176
     1
173
     0
176
     1
  0
VISUALSTYLE
  5
3A
102
{ACAD_REACTORS
330
2A
102
}
330
2A
100
AcDbVisualStyle
  2
ColorChange
 70
    16
177
     2
291
     1
 71
     2
176
     1
 72
     2
176
     1
 73
     3
176
     1
 90
        0
176
     1
 40
-0.6
176
     1
 41
-30.0
176
     1
 62
     5
 63
     8
421
  8421504
176
     1
 74
     1
176
     1
 91
        4
176
     1
 64
     7
176
     1
 65
   257
176
     1
 75
     1
176
     1
175
     1
176
     1
 42
1.0
176
     1
 92
        8
176
     1
 66
     8
424
  8421504
176
     1
 43
1.0
176
     1
 76
     1
176
     1
 77
     6
176
     1
 78
     2
176
     1
 67
     7
176
     1
 79
     5
176
     1
170
     0
176
     1
171
     0
176
     1
290
     0
176
     1
 93
        1
176
     1
 44
0.0
176
     1
173
     0
176
     1
  0
VISUALSTYLE
  5
34
102
{ACAD_REACTORS
330
2A
102
}
330
2A
100
AcDbVisualStyle
  2
Conceptual
 70
     9
177
     2
291
     0
 71
     3
176
     1
 72
     2
176
     1
 73
     0
176
     1
 90
        0
176
     1
 40
-0.6
176
     1
 41
-30.0
176
     1
 62
     5
 63
     7
421
 16777215
176
     1
 74
     2
176
     1
 91
        2
176
     1
 64
     7
176
     1
 65
   257
176
     1
 75
     1
176
     1
175
     1
176
     1
 42
40.0
176
     1
 92
        8
176
     1
 66
     7
176
     1
 43
1.0
176
     1
 76
     1
176
     1
 77
     6
176
     1
 78
     2
176
     1
 67
     7
176
     1
 79
     3
176
     1
170
     0
176
     1
171
     0
176
     1
290
     0
176
     1
 93
        1
176
     1
 44
0.0
176
     1
173
     0
176
     1
  0
VISUALSTYLE
  5
35
102
{ACAD_REACTORS
330
2A
102
}
330
2A
100
AcDbVisualStyle
  2
Dim
 70
    11
177
     2
291
     1
 71
     2
176
     1
 72
     2
176
     1
 73
     0
176
     1
 90
        0
176
     1
 40
-0.6
176
     1
 41
-30.0
176
     1
 62
     5
 63
     7
421
 16777215
176
     1
 74
     1
176
     1
 91
        4
176
     1
 64
     7
176
     1
 65
   257
176
     1
 75
     1
176
     1
175
     1
176
     1
 42
1.0
176
     1
 92
        8
176
     1
 66
     7
176
     1
 43
1.0
176
     1
 76
     1
176
     1
 77
     6
176
     1
 78
     2
176
     1
 67
     7
176
     1
 79
     5
176
     1
170
     0
176
     1
171
     0
176
     1
290
     0
176
     1
 93
        1
176
     1
 44
-50.0
176
     1
173
     0
176
     1
  0
VISUALSTYLE
  5
39
102
{ACAD_REACTORS
330
2A
102
}
330
2A
100
AcDbVisualStyle
  2
Facepattern
 70
    15
177
     2
291
     1
 71
     2
176
     1
 72
     2
176
     1
 73
     0
176
     1
 90
        0
176
     1
 40
-0.6
176
     1
 41
-30.0
176
     1
 62
     5
 63
     7
421
 16777215
176
     1
 74
     1
176
     1
 91
        4
176
     1
 64
     7
176
     1
 65
   257
176
     1
 75
     1
176
     1
175
     1
176
     1
 42
1.0
176
     1
 92
        8
176
     1
 66
     7
176
     1
 43
1.0
176
     1
 76
     1
176
     1
 77
     6
176
     1
 78
     2
176
     1
 67
     7
176
     1
 79
     5
176
     1
170
     0
176
     1
171
     0
176
     1
290
     0
176
     1
 93
        1
176
     1
 44
0.0
176
     1
173
     0
176
     1
  0
VISUALSTYLE
  5
2B
102
{ACAD_REACTORS
330
2A
102
}
330
2A
100
AcDbVisualStyle
  2
Flat
 70
     0
177
     2
291
     1
 71
     2
176
     1
 72
     1
176
     1
 73
     1
176
     1
 90
        2
176
     1
 40
-0.6
176
     1
 41
30.0
176
     1
 62
     5
 63
     7
421
 16777215
176
     1
 74
     0
176
     1
 91
        4
176
     1
 64
     7
176
     1
 65
   257
176
     1
 75
     1
176
     1
175
     1
176
     1
 42
1.0
176
     1
 92
        8
176
     1
 66
     7
176
     1
 43
1.0
176
     1
 76
     1
176
     1
 77
     6
176
     1
 78
     2
176
     1
 67
     7
176
     1
 79
     5
176
     1
170
     0
176
     1
171
     0
176
     1
290
     0
176
     1
 93
       13
176
     1
 44
0.0
176
     1
173
     0
176
     1
  0
VISUALSTYLE
  5
2C
102
{ACAD_REACTORS
330
2A
102
}
330
2A
100
AcDbVisualStyle
  2
FlatWithEdges
 70
     1
177
     2
291
     1
 71
     2
176
     1
 72
     1
176
     1
 73
     1
176
     1
 90
        2
176
     1
 40
-0.6
176
     1
 41
30.0
176
     1
 62
     5
 63
     7
421
 16777215
176
     1
 74
     1
176
     1
 91
        4
176
     1
 64
     7
176
     1
 65
   257
176
     1
 75
     1
176
     1
175
     1
176
     1
 42
1.0
176
     1
 92
        0
176
     1
 66
   257
176
     1
 43
1.0
176
     1
 76
     1
176
     1
 77
     6
176
     1
 78
     2
176
     1
 67
     7
176
     1
 79
     5
176
     1
170
     0
176
     1
171
     0
176
     1
290
     0
176
     1
 93
       13
176
     1
 44
0.0
176
     1
173
     0
176
     1
  0
VISUALSTYLE
  5
2D
102
{ACAD_REACTORS
330
2A
102
}
330
2A
100
AcDbVisualStyle
  2
Gouraud
 70
     2
177
     2
291
     1
 71
     2
176
     1
 72
     2
176
     1
 73
     1
176
     1
 90
        2
176
     1
 40
-0.6
176
     1
 41
30.0
176
     1
 62
     5
 63
     7
421
 16777215
176
     1
 74
     0
176
     1
 91
        4
176
     1
 64
     7
176
     1
 65
   257
176
     1
 75
     1
176
     1
175
     1
176
     1
 42
1.0
176
     1
 92
        0
176
     1
 66
     7
176
     1
 43
1.0
176
     1
 76
     1
176
     1
 77
     6
176
     1
 78
     2
176
     1
 67
     7
176
     1
 79
     5
176
     1
170
     0
176
     1
171
     0
176
     1
290
     0
176
     1
 93
       13
176
     1
 44
0.0
176
     1
173
     0
176
     1
  0
VISUALSTYLE
  5
2E
102
{ACAD_REACTORS
330
2A
102
}
330
2A
100
AcDbVisualStyle
  2
GouraudWithEdges
 70
     3
177
     2
291
     1
 71
     2
176
     1
 72
     2
176
     1
 73
     1
176
     1
 90
        2
176
     1
 40
-0.6
176
     1
 41
30.0
176
     1
 62
     5
 63
     7
421
 16777215
176
     1
 74
     1
176
     1
 91
        4
176
     1
 64
     7
176
     1
 65
   257
176
     1
 75
     1
176
     1
175
     1
176
     1
 42
1.0
176
     1
 92
        0
176
     1
 66
   257
176
     1
 43
1.0
176
     1
 76
     1
176
     1
 77
     6
176
     1
 78
     2
176
     1
 67
     7
176
     1
 79
     5
176
     1
170
     0
176
     1
171
     0
176
     1
290
     0
176
     1
 93
       13
176
     1
 44
0.0
176
     1
173
     0
176
     1
  0
VISUALSTYLE
  5
38
102
{ACAD_REACTORS
330
2A
102
}
330
2A
100
AcDbVisualStyle
  2
Linepattern
 70
    14
177
     2
291
     1
 71
     2
176
     1
 72
     2
176
     1
 73
     0
176
     1
 90
        0
176
     1
 40
-0.6
176
     1
 41
-30.0
176
     1
 62
     5
 63
     7
421
 16777215
176
     1
 74
     1
176
     1
 91
        4
176
     1
 64
     7
176
     1
 65
   257
176
     1
 75
     7
176
     1
175
     7
176
     1
 42
1.0
176
     1
 92
        8
176
     1
 66
     7
176
     1
 43
1.0
176
     1
 76
     1
176
     1
 77
     6
176
     1
 78
     2
176
     1
 67
     7
176
     1
 79
     5
176
     1
170
     0
176
     1
171
     0
176
     1
290
     0
176
     1
 93
        1
176
     1
 44
0.0
176
     1
173
     0
176
     1
  0
VISUALSTYLE
  5
33
102
{ACAD_REACTORS
330
2A
102
}
330
2A
100
AcDbVisualStyle
  2
Realistic
 70
     8
177
     2
291
     0
 71
     2
176
     1
 72
     2
176
     1
 73
     0
176
     1
 90
        0
176
     1
 40
-0.6
176
     1
 41
-30.0
176
     1
 62
     5
 63
     7
421
 16777215
176
     1
 74
     1
176
     1
 91
        0
176
     1
 64
     7
176
     1
 65
   257
176
     1
 75
     1
176
     1
175
     1
176
     1
 42
1.0
176
     1
 92
        8
176
     1
 66
     8
424
  7895160
176
     1
 43
1.0
176
     1
 76
     1
176
     1
 77
     6
176
     1
 78
     2
176
     1
 67
     7
176
     1
 79
     5
176
     1
170
     0
176
     1
171
     0
176
     1
290
     0
176
     1
 93
       13
176
     1
 44
0.0
176
     1
173
     0
176
     1
  0
VISUALSTYLE
  5
37
102
{ACAD_REACTORS
330
2A
102
}
330
2A
100
AcDbVisualStyle
  2
Thicken
 70
    13
177
     2
291
     1
 71
     2
176
     1
 72
     2
176
     1
 73
     0
176
     1
 90
        0
176
     1
 40
-0.6
176
     1
 41
-30.0
176
     1
 62
     5
 63
     7
421
 16777215
176
     1
 74
     1
176
     1
 91
        4
176
     1
 64
     7
176
     1
 65
   257
176
     1
 75
     1
176
     1
175
     1
176
     1
 42
1.0
176
     1
 92
       12
176
     1
 66
     7
176
     1
 43
1.0
176
     1
 76
     1
176
     1
 77
     6
176
     1
 78
     2
176
     1
 67
     7
176
     1
 79
     5
176
     1
170
     0
176
     1
171
     0
176
     1
290
     0
176
     1
 93
        1
176
     1
 44
0.0
176
     1
173
     0
176
     1
  0
ENDSEC
  0
EOF
