<?xml version="1.0" encoding="utf-8"?>
<!-- Generator: Adobe Illustrator 19.2.1, SVG Export Plug-In . SVG Version: 6.00 Build 0)  -->
<svg version="1.1" id="Layer_1" xmlns="http://www.w3.org/2000/svg" xmlns:xlink="http://www.w3.org/1999/xlink" x="0px" y="0px"
	 viewBox="0 0 100 125" style="enable-background:new 0 0 100 125;" xml:space="preserve">
<path d="M91.5,58c2.5-5.2,4-12,3.4-21.1c-0.2,1-0.7,3-1.6,7.2c-0.1,0.4-0.2,0.9-0.3,1.4c-1.3,6.6-4,20.4-23.5,26.1c0,0-0.1,0-0.1,0
	c-0.2,0-0.3-0.1-0.4-0.3c-0.1-0.2,0.1-0.4,0.3-0.5c8.2-2.4,14.4-6.5,18.2-12.3c3.2-4.8,4.2-9.9,4.8-13.2c0.1-0.5,0.2-1,0.3-1.4
	c0.7-3.3,1.2-5.7,1.6-7c0.3-1.3,0.4-1.5,0.7-1.5c0-0.5-0.1-0.9-0.1-1.4c-0.1,0-0.1,0-0.2,0c0,0-0.6-0.1-1.6-0.1
	c-0.3,1.2-1.3,5.2-3.5,14.5C86.1,62.1,75,67,70.4,68.4c-0.1,0-0.2,0.1-0.2,0.1c0,0-0.1,0-0.1,0c-0.2,0-0.3-0.1-0.4-0.3
	c-0.1-0.2,0-0.4,0.2-0.5c0.1,0,0.1,0,0.2-0.1c4.5-1.4,15.3-6.1,18.4-19.5c2.1-8.9,3.1-13,3.5-14.3c-0.6,0-1.2,0-2,0.1
	c-0.2,1.4-1.1,5.7-3.7,15c-2.7,9.9-10.9,14.5-15.6,16.5c-0.1,0-0.1,0.1-0.2,0.1s-0.1,0-0.1,0c-0.1,0-0.3-0.1-0.3-0.2
	c-0.1-0.2,0-0.4,0.2-0.5c0.1,0,0.1-0.1,0.2-0.1c4.5-1.9,12.5-6.4,15.1-16c2.5-8.8,3.3-13.2,3.6-14.8c-0.7,0.1-1.4,0.2-2.2,0.3
	c-0.3,1.6-1.4,6.9-3.9,14.5c-3.2,9.5-9.7,12.6-11.9,13.6c-0.2,0.1-0.3,0.2-0.5,0.2c-0.1,0-0.1,0-0.2,0c-0.1,0-0.3-0.1-0.3-0.2
	c-0.1-0.2,0-0.4,0.2-0.5c0.1-0.1,0.3-0.1,0.5-0.2c2.1-1,8.4-4,11.5-13.1c2.4-7.2,3.5-12.2,3.8-14.1c-0.8,0.2-1.5,0.4-2.3,0.7
	c-0.2,1.8-1.2,7.5-4,13.9c-2.2,5-5.4,8.6-9.1,10.3c-0.1,0-0.1,0.1-0.1,0.1c-0.1,0-0.1,0-0.2,0c-0.1,0-0.3-0.1-0.3-0.2
	c-0.1-0.2,0-0.4,0.2-0.5c0,0,0.1,0,0.2-0.1c3.6-1.6,6.6-5,8.8-9.9c2.6-5.9,3.6-11.3,3.9-13.3c-0.8,0.3-1.7,0.7-2.5,1.2
	c0,0-0.1,0-0.1,0c-0.3,1.3-0.9,4.3-2.1,7.6c-2.1,5.9-4.8,10-7.9,12.1c-0.1,0-0.1,0.1-0.2,0.1c-0.1,0-0.2-0.1-0.3-0.2
	c-0.1-0.2-0.1-0.4,0.1-0.5c5.9-4,8.7-14.9,9.5-18.6c-1.1,0.6-2.1,1.1-3,1.6c-0.2,1-0.7,2.8-1.4,4.9c-1.5,4.1-3.3,7-5.4,8.7
	c-0.1,0.1-0.2,0.1-0.2,0.1c-0.1,0-0.2,0-0.3-0.1c-0.1-0.2-0.1-0.4,0.1-0.5c3.7-3,5.7-9.7,6.4-12.5c-0.9,0.4-1.6,0.8-2.2,1
	c-0.1,0.6-0.6,4.1-3.7,8.3c-0.1,0.1-0.2,0.1-0.3,0.1c-0.1,0-0.2,0-0.2-0.1c-0.2-0.1-0.2-0.4-0.1-0.5c2.6-3.4,3.3-6.4,3.5-7.5
	c-1.3,0.5-2.2,0.7-3.1,0.8c0,0,0,0,0,0c-0.3,0-0.6,0.1-0.8,0.1c0,0,0,0,0,0c-2,0-3.4-1.2-3.8-1.6c-0.5-0.4-0.8-1-0.8-1.7
	c0-1.2,1-2.2,2.2-2.2s2.2,1,2.2,2.2c0,0.8-0.4,1.5-1,1.9c0.4,0.1,0.8,0.2,1.2,0.2c0,0,0,0,0,0c0.2,0,0.4,0,0.6,0c0,0,0,0,0,0
	c0,0,0,0,0,0c1.5-0.2,3-1.3,4.5-3c2.8-3.3,7.2-5.5,12.7-6.5c3.6-0.6,6.6-0.5,7.3-0.5c-0.6-2.2-3.6-8.8-17.8-8.8
	c-16.9,0-24.3,24.3-29.6,24.7c-5.3,0.4-9.2-5.3-3.6-9.2s13.5-6.8,15.3-15.5c1.8-8.6,0.5-9.7,0.5-9.7S50.5,18.7,43,23
	c-4.5,2.6-8.5,3.9-8.8,6.2s-1.3-5.5-8.6-6.9c-7.2-1.4-16.9,1.4-18.8-1.4S5,18,5,18s3.9,14.4,13.6,16.6c9.7,2.1,10.9,3.2,10.9,3.2
	S24.6,68.5,52,74.5c0.1-2.8-0.3-5.8-0.6-8.4c0-0.3-0.1-0.6-0.1-0.9c-0.9-7.6,3-13,3.2-13.3c0.2-0.3,0.6-0.4,0.9-0.1
	c0.3,0.2,0.4,0.6,0.1,0.9c0,0.1-3.7,5.3-2.9,12.3c0,0.3,0.1,0.6,0.1,0.9c0.3,2.7,0.6,8.8,0.6,8.8c0,4.2-0.8,8.1-3.8,10.2
	c-5.1,3.5-5.1,3.5-5.1,3.5S61.7,90.1,68,73.7l0.3,0c0,0,5.4-0.3,11.4-3.5l0,0c2.2,3.8-3,13.1-3,13.1C92.3,80.1,91.5,58,91.5,58
	L91.5,58z M54.7,17.5l0.7-0.5c0.2-0.2,0.5-0.1,0.7,0.1c0.2,0.2,0.1,0.5-0.1,0.7l-0.7,0.5c-0.1,0.1-0.2,0.1-0.3,0.1
	c-0.1,0-0.3-0.1-0.4-0.2C54.4,18,54.5,17.7,54.7,17.5z M48.7,22l4.6-3.5c0.2-0.2,0.5-0.1,0.7,0.1c0.2,0.2,0.1,0.5-0.1,0.7l-4.6,3.5
	c-0.1,0.1-0.2,0.1-0.3,0.1c-0.1,0-0.3-0.1-0.4-0.2C48.5,22.5,48.5,22.2,48.7,22z M31.7,44.6c-0.4-4.2,0.1-6.3,0.1-6.3
	c0.1-0.3,0.3-0.4,0.6-0.4c0.3,0.1,0.4,0.3,0.4,0.6c0,0-0.4,2.1-0.1,6.1c0,0.3-0.2,0.5-0.4,0.5c0,0,0,0,0,0
	C32,45,31.8,44.9,31.7,44.6z M32.6,48.1C32.5,48.1,32.5,48.1,32.6,48.1c-0.3,0-0.5-0.2-0.5-0.4c-0.1-0.4-0.1-1.2-0.1-1.3
	c0-0.3,0.2-0.5,0.4-0.5c0.3,0,0.5,0.2,0.5,0.4c0,0.2,0.1,0.9,0.1,1.2C33,47.8,32.8,48.1,32.6,48.1z M62.2,78.3
	c-3.1,3.4-5.8,4.8-5.9,4.8c-0.1,0-0.1,0.1-0.2,0.1c-0.2,0-0.3-0.1-0.4-0.2c-0.1-0.2,0-0.5,0.2-0.6c0,0,2.6-1.4,5.6-4.6
	c0.2-0.2,0.5-0.2,0.7,0C62.4,77.8,62.4,78.1,62.2,78.3z M64.2,75.6c-0.2,0.4-0.8,1.1-0.8,1.2c-0.1,0.1-0.2,0.2-0.4,0.2
	c-0.1,0-0.2,0-0.3-0.1c-0.2-0.2-0.2-0.4-0.1-0.7c0.2-0.2,0.6-0.8,0.7-1.1c0.1-0.2,0.4-0.3,0.6-0.2C64.3,75.1,64.3,75.4,64.2,75.6z"
	/>
</svg>
