<svg id="Layer_1" data-name="Layer 1" xmlns="http://www.w3.org/2000/svg" viewBox="0 0 76.18 76.41"><title>Brittle Star</title><path d="M82.43,55c-4.85-2.2-18-8.46-20.73-11.1s-3.22-5.2-.1-13.86,1.75-18.1-1.2-18.2c-4.41-.15-2.16,5.3-5.09,11.77s-6.24,12.57-9,12.54-10.49-4.25-19.87-9.77-9.73-.1-5.59,4.73,18.23,13.05,16,16.6S23,55,15.43,57.58s-1.36,7,4.56,7.51,19.94-6,24.5-3.53S48.3,75.71,52.1,83.81s6.16,3.49,6.11-1.72-1.08-21.87,2.23-24.25,13.26,2.59,22.44,3.69S87.27,57.15,82.43,55ZM21.61,27.32h0l-0.06,0-0.06,0-0.05,0-0.05,0-0.05,0,0,0,0,0,0,0,0,0,0,0,0,0a0.3,0.3,0,0,1,0-.54,0.31,0.31,0,0,1,.26,0l0,0,0,0,0,0,0,0,0,0,0,0,0,0,0,0,0.05,0,0.05,0,0.06,0h0a0.29,0.29,0,0,1,.09.07A0.3,0.3,0,0,1,21.61,27.32Zm2.17,1-0.05,0-0.09,0-0.09,0-0.09,0-0.09,0-0.08,0-0.06,0a0.3,0.3,0,0,1,0-.52,0.3,0.3,0,0,1,.3,0l0.06,0,0.08,0,0.08,0,0.09,0,0.09,0,0.09,0,0.06,0a0.27,0.27,0,0,1,.1.08A0.3,0.3,0,0,1,23.77,28.36Zm2.5,1a0.3,0.3,0,0,1-.34.06l-0.06,0-0.11,0-0.11,0-0.1-.05-0.1,0-0.06,0A0.3,0.3,0,0,1,25.26,29a0.3,0.3,0,0,1,.4-0.4l0.06,0,0.1,0,0.11,0L26,28.77l0.11,0.05,0.05,0A0.3,0.3,0,0,1,26.28,29.33Zm1.82,1.1-0.05,0-0.12-.06-0.12-.06-0.12-.06-0.12-.06h0a0.3,0.3,0,0,1,.26-0.54h0l0.12,0.06,0.12,0.06,0.12,0.06,0.12,0.06,0.05,0A0.3,0.3,0,0,1,28.09,30.43Zm2.48,1a0.3,0.3,0,0,1-.35.05l-0.1-.05L30,31.39l-0.12-.06-0.13-.06,0,0A0.3,0.3,0,0,1,30,30.7l0.05,0,0.13,0.06,0.13,0.06,0.13,0.07L30.5,31A0.3,0.3,0,0,1,30.58,31.46Zm2.11,1.13a0.3,0.3,0,0,1-.34,0l0,0-0.13-.07L32,32.46l-0.13-.07-0.09-.05a0.3,0.3,0,0,1-.15-0.18,0.3,0.3,0,0,1,.43-0.35l0.09,0,0.13,0.07L32.46,32l0.13,0.07,0,0A0.3,0.3,0,0,1,32.69,32.58Zm2.1,1.16a0.3,0.3,0,0,1-.35,0l-0.06,0-0.13-.07-0.13-.07L34,33.52l-0.07,0a0.3,0.3,0,0,1-.12-0.13,0.3,0.3,0,0,1,.42-0.4l0.07,0,0.13,0.07,0.13,0.07,0.13,0.07,0.06,0A0.3,0.3,0,0,1,34.79,33.74ZM36.5,35l0,0-0.13-.08-0.13-.08-0.13-.08-0.08,0a0.3,0.3,0,0,1-.12-0.12,0.3,0.3,0,0,1,.42-0.39l0.08,0,0.13,0.08,0.13,0.08,0.13,0.08,0.05,0A0.3,0.3,0,0,1,36.5,35ZM17.17,60.66h0l-0.06,0-0.06,0-0.06,0-0.06,0-0.06,0-0.05,0-0.05,0-0.05,0,0,0-0.11,0a0.3,0.3,0,0,1-.15-0.57l0.06,0,0.06,0,0.06,0,0.06,0,0.06,0,0.06,0,0.06,0,0.06,0,0.06,0h0A0.3,0.3,0,1,1,17.17,60.66ZM19.43,60H19.37l-0.09,0-0.09,0-0.09,0H19l-0.08,0-0.08,0h0a0.3,0.3,0,1,1-.14-0.58h0l0.08,0,0.09,0,0.09,0,0.09,0h0l0.07,0,0.09,0h0.13l0.12,0A0.3,0.3,0,0,1,19.43,60Zm2.34-.48H21.7l-0.1,0-0.1,0-0.1,0-0.1,0-0.1,0a0.3,0.3,0,0,1-.32-0.43,0.3,0.3,0,0,1,.21-0.16l0.1,0,0.1,0,0.1,0,0.1,0,0.1,0h0.07A0.3,0.3,0,0,1,21.77,59.54Zm2.59-.64a0.3,0.3,0,0,1-.23.21l-0.09,0-0.12,0-0.12,0-0.12,0-0.12,0H23.42a0.3,0.3,0,0,1,0-.59h0l0.12,0,0.12,0,0.12,0,0.12,0,0.09,0A0.3,0.3,0,0,1,24.36,58.9Zm2.35-.41a0.3,0.3,0,0,1-.22.18h0l-0.13,0-0.13,0-0.12,0-0.13,0H25.78a0.3,0.3,0,0,1,0-.59h0.07l0.12,0,0.13,0,0.12,0,0.13,0h0A0.3,0.3,0,0,1,26.71,58.49Zm2.14-.29H28.77l-0.13,0-0.13,0-0.13,0-0.12,0a0.28,0.28,0,0,1-.14,0,0.3,0.3,0,0,1,0-.58l0.13,0,0.13,0,0.13,0,0.13,0,0.07,0a0.29,0.29,0,0,1,.18,0A0.3,0.3,0,0,1,28.84,58.21Zm2.52-.63a0.28,0.28,0,0,1-.17.11h0l-0.13,0-0.13,0-0.13,0-0.13,0h0a0.3,0.3,0,0,1-.13-0.58h0l0.13,0,0.13,0,0.13,0,0.13,0h0A0.3,0.3,0,0,1,31.36,57.57Zm2.16-.5-0.12,0-0.13,0-0.13,0-0.13,0-0.06,0a0.29,0.29,0,0,1-.22,0,0.3,0.3,0,0,1,.06-0.56l0.06,0,0.13,0,0.13,0,0.13,0,0.12,0A0.3,0.3,0,1,1,33.53,57.07Zm2.5-.91a0.3,0.3,0,0,1-.19.2h0l-0.13,0-0.13,0-0.13,0-0.13,0h0A0.3,0.3,0,1,1,35.08,56h0l0.13,0,0.13,0,0.13,0,0.13,0h0A0.3,0.3,0,0,1,36,56.16Zm2.07-.64-0.1,0-0.13.05-0.13,0-0.13.05-0.08,0a0.3,0.3,0,0,1-.36-0.43,0.28,0.28,0,0,1,.15-0.13l0.08,0,0.13,0,0.13,0,0.13,0,0.1,0A0.3,0.3,0,1,1,38.1,55.53Zm0.7-19.23a0.3,0.3,0,0,1-.28,0l-0.06,0-0.12-.08-0.12-.08L38.08,36l-0.07,0a0.3,0.3,0,0,1,.14-0.55,0.29,0.29,0,0,1,.19,0l0.07,0,0.12,0.08,0.13,0.08,0.12,0.08,0.06,0A0.3,0.3,0,0,1,38.79,36.3ZM40.3,54.53l-0.06,0-0.12.06L40,54.68l-0.12.06-0.12.06a0.31,0.31,0,0,1-.22,0,0.3,0.3,0,0,1,0-.56l0.12-.06,0.12-.06,0.12-.06L40,54,40,54A0.3,0.3,0,1,1,40.3,54.53Zm0.5-16.88a0.3,0.3,0,0,1-.34,0h0l-0.11-.08-0.12-.08-0.12-.08L40,37.3h0a0.3,0.3,0,0,1,.35-0.49h0l0.12,0.08L40.58,37l0.12,0.09,0.12,0.08h0A0.3,0.3,0,0,1,40.8,37.65ZM61.12,13.73a0.3,0.3,0,0,1,.12.2v0.64a0.3,0.3,0,0,1-.6,0V14A0.3,0.3,0,0,1,61.12,13.73ZM60.5,16.92V16.33a0.28,0.28,0,0,1,0-.12,0.3,0.3,0,0,1,.56.18V17h0a0.3,0.3,0,0,1-.43.23,0.3,0.3,0,0,1-.17-0.31h0Zm-0.33,2.31V19.14l0-.09V18.69a0.29,0.29,0,0,1,0-.12,0.3,0.3,0,0,1,.55.21v0.08l0,0.09v0.42a0.31,0.31,0,0,1,0,.11,0.3,0.3,0,0,1-.55-0.2V19.23Zm-0.41,2.36,0-.1,0-.1,0-.1,0-.1,0-.1v0a0.32,0.32,0,0,1,.08-0.16,0.3,0.3,0,0,1,.51.27v0l0,0.1,0,0.1,0,0.1,0,0.1,0,0.1v0a0.32,0.32,0,0,1,0,.11,0.3,0.3,0,0,1-.55-0.22v0ZM59.29,23.9l0-.11,0-.11,0-.11,0-.11,0-.08a0.3,0.3,0,1,1,.59.12l0,0.08,0,0.11,0,0.11,0,0.11,0,0.11,0,0.07a0.28,0.28,0,0,1,0,.11A0.3,0.3,0,0,1,59.28,24Zm-0.54,2.38,0-.11,0-.11,0-.11,0-.11,0-.11v0a0.28,0.28,0,0,1,0-.11,0.3,0.3,0,0,1,.53.25v0l0,0.11,0,0.11,0,0.11,0,0.11,0,0.11v0a0.31,0.31,0,0,1-.1.16,0.3,0.3,0,0,1-.48-0.3v0Zm-2,6.89,0-.07,0-.09,0-.09,0-.09,0-.09,0-.09v0a0.3,0.3,0,0,1,.57.19l0,0,0,0.09,0,0.09,0,0.09,0,0.09,0,0.09,0,0.07a0.31,0.31,0,0,1-.08.12A0.3,0.3,0,0,1,56.76,33.18Zm-0.89,2.19h0l0-.07,0-.07,0-.07,0-.07L56,35l0-.08,0-.08v0a0.3,0.3,0,0,1,.55.24v0l0,0.08,0,0.08,0,0.08,0,0.08,0,0.08,0,0.07,0,0.07h0a0.3,0.3,0,0,1-.53,0A0.29,0.29,0,0,1,55.86,35.38ZM56.25,74A0.3,0.3,0,0,1,56,73.79V73.2A0.31,0.31,0,0,1,56,73a0.3,0.3,0,0,1,.56.12v0.6A0.3,0.3,0,0,1,56.25,74Zm0.53,1.49v0.6a0.3,0.3,0,0,1-.6,0v-0.6a0.3,0.3,0,0,1,.06-0.2A0.3,0.3,0,0,1,56.78,75.54Zm-0.43-4a0.3,0.3,0,0,1-.58-0.08V71.3l0-.14,0-.14,0-.14V70.82a0.3,0.3,0,1,1,.59-0.08V70.8l0,0.14,0,0.14,0,0.14v0.12A0.28,0.28,0,0,1,56.36,71.5Zm-1.59-34v0l0,0,0,0,0,0,0,0,0,0,0,0,0,0,0,0,0,0,0,0,0,0v0a0.31,0.31,0,0,1,.18-0.15,0.3,0.3,0,0,1,.35.43v0l0,0,0,0,0,0,0,0,0,0,0,0,0,0,0,0,0,0,0,0,0,0,0,0A0.3,0.3,0,1,1,54.76,37.49Zm-1.08,2.16h0l0,0,0,0,0,0,0,0,0,0,0,0,0,0,0,0,0,0,0,0,0,0,0,0,0,0,0,0,0,0h0a0.3,0.3,0,0,1,.54.26h0l0,0,0,0,0,0,0,0,0,0,0,0,0,0,0,0,0,0,0,0,0,0,0,0v0l0,0,0,0h0A0.3,0.3,0,0,1,53.69,39.65Zm-1,2.23h0V41.32h0a0.3,0.3,0,0,1,.56.22h0v0.53h0a0.32,0.32,0,0,1-.11.14A0.3,0.3,0,0,1,52.73,41.87Zm-7.3-.28a0.3,0.3,0,0,1,.24.12l0,0,0.07,0.09,0.07,0.09L45.89,42,46,42.11,46,42.2v0a0.3,0.3,0,0,1,.05.17,0.3,0.3,0,0,1-.55.17v0l-0.06-.08-0.06-.09-0.06-.09-0.06-.09-0.06-.09,0,0A0.3,0.3,0,0,1,45.44,41.59Zm-3,11.74-0.06,0-0.11.07-0.11.07L42,53.58l-0.11.07h0a0.31,0.31,0,0,1-.15,0,0.3,0.3,0,0,1-.15-0.56h0l0.11-.06,0,0,0.07,0,0.11-.07L42,52.87l0.06,0a0.32,0.32,0,0,1,.13,0A0.3,0.3,0,0,1,42.42,53.34ZM42.33,39.11l-0.05,0L42.17,39l-0.1-.09L42,38.81l-0.1-.08a0.3,0.3,0,1,1,.38-0.46l0.1,0.08,0.1,0.09,0.1,0.09,0.1,0.09,0.05,0A0.3,0.3,0,0,1,42.33,39.11Zm2.06,12.81-0.1.08-0.1.08-0.1.08-0.1.08-0.07.05a0.3,0.3,0,0,1-.18.06,0.3,0.3,0,0,1-.18-0.54l0.06-.05,0.1-.08,0.1-.08,0.1-.08,0.1-.08A0.3,0.3,0,0,1,44.39,51.92ZM44,40.73l0,0-0.08-.09-0.08-.09-0.09-.09-0.09-.09,0,0a0.3,0.3,0,1,1,.42-0.43l0.05,0.05L44.2,40l0.09,0.09,0.09,0.09,0.09,0.09,0,0a0.31,0.31,0,0,1,.08.16A0.3,0.3,0,0,1,44,40.73Zm3.31,11.92c-3.18-.86-3.28-4.24-2-6.6a6,6,0,0,1,1.35-1.7h0a0.3,0.3,0,0,1-.28-0.19l0-.09h0a0.3,0.3,0,1,1,.55-0.23v0L47,44a0.29,0.29,0,0,1,0,.2c1.31-1,3.07-1.23,5.26-.28h0a0.29,0.29,0,0,1,0-.09V43.65h0a0.3,0.3,0,0,1,.53-0.14,0.29,0.29,0,0,1,.06.24h0v0h0v0h0v0h0a0.3,0.3,0,0,1-.06.14,0.27,0.27,0,0,1-.12.08c2.91,1.5,3.73,4.37,2.51,6.61S50.53,53.52,47.35,52.65Zm5.58,2.25V54.83l0-.1,0-.1,0-.1,0-.1,0-.1h0a0.3,0.3,0,0,1,.59-0.12h0l0,0.1,0,0.1,0,0.1,0,0.1,0,0.1,0,0.07a0.3,0.3,0,0,1,0,.17A0.3,0.3,0,0,1,52.94,54.9Zm0.47,2.35,0-.1,0-.12,0-.12,0-.12,0-.12v0a0.3,0.3,0,0,1,.38-0.35,0.3,0.3,0,0,1,.21.23v0l0,0.12,0,0.12,0,0.12L54,57l0,0.09A0.3,0.3,0,0,1,53.4,57.26Zm0.45,2.35,0-.08,0-.13,0-.13,0-.13,0-.12a0.3,0.3,0,0,1,.59-0.11l0,0.12,0,0.13,0,0.13,0,0.13,0,0.08A0.3,0.3,0,1,1,53.86,59.6ZM54.3,62v0l0-.14,0-.14,0-.14,0-.14h0a0.31,0.31,0,0,1,0-.12,0.3,0.3,0,0,1,.59,0h0l0,0.14,0,0.14,0,0.14,0,0.14v0a0.29,0.29,0,0,1-.06.24A0.3,0.3,0,0,1,54.3,62Zm0.42,2.36h0l0-.14,0-.14,0-.14,0-.14h0a0.3,0.3,0,0,1,.59-0.1h0l0,0.14,0,0.14,0,0.14,0,0.14h0A0.3,0.3,0,0,1,54.72,64.32Zm0.39,2.36V66.59l0-.14,0-.14,0-.14V66.09a0.3,0.3,0,0,1,.59-0.1v0.07l0,0.14,0,0.14,0,0.14v0.09a0.25,0.25,0,0,1,0,.14A0.3,0.3,0,0,1,55.11,66.68ZM55.47,69h0l0-.14,0-.14,0-.14,0-.14h0a0.31,0.31,0,0,1,.06-0.23,0.3,0.3,0,0,1,.53.14h0l0,0.14,0,0.14,0,0.14,0,0.14h0a0.3,0.3,0,0,1,0,.18A0.3,0.3,0,0,1,55.47,69Zm0.9,13.75,0,0.06,0,0.07,0,0.07,0,0.07,0,0.07,0,0.07,0,0.07,0,0.06,0,0.06a0.3,0.3,0,0,1-.54-0.26l0-.06,0-.06,0-.06,0-.06,0-.06,0-.06,0-.06,0-.06,0-.06A0.3,0.3,0,0,1,56.36,82.8Zm0.44-2.42V81a0.28,0.28,0,0,1,0,.13,0.3,0.3,0,0,1-.54-0.21V80.33h0a0.32,0.32,0,0,1,0-.1,0.3,0.3,0,0,1,.57.15h0Zm0.08-2v0.2a0.3,0.3,0,1,1-.6,0V78a0.3,0.3,0,0,1,.6,0v0.4Zm0.64-30.83a0.3,0.3,0,0,1-.33.16H57.14l-0.09,0-0.09,0-0.09,0-0.08,0-0.08,0h-0.1a0.3,0.3,0,0,1-.12,0A0.3,0.3,0,0,1,56.72,47h0.1l0.08,0L57,47l0.09,0,0.09,0,0.09,0h0.06A0.3,0.3,0,0,1,57.53,47.53Zm0.7-16.93,0,0.1,0,0.1,0,0.1,0,0.1,0,0.09a0.3,0.3,0,0,1-.07.12,0.3,0.3,0,0,1-.5-0.3l0-.09,0-.1,0-.1,0-.1,0-.1,0-.08a0.29,0.29,0,0,1,.1-0.15,0.3,0.3,0,0,1,.47.32Zm0-1.66a0.3,0.3,0,0,1-.11-0.32l0-.07,0-.1,0-.11,0-.11,0-.11,0-.08a0.3,0.3,0,1,1,.58.15l0,0.08,0,0.11,0,0.11,0,0.11,0,0.11,0,0.07A0.3,0.3,0,0,1,58.27,28.94ZM59.53,48.2l-0.1,0-0.1,0-0.1,0-0.1,0-0.1,0-0.08,0-0.11,0a0.3,0.3,0,0,1,.24-0.53l0.08,0,0.1,0,0.1,0,0.1,0,0.1,0,0.1,0a0.31,0.31,0,0,1,.16.1A0.3,0.3,0,0,1,59.53,48.2Zm2.63,0.49a0.3,0.3,0,0,1-.31.1h0l-0.11,0-0.11,0-0.11,0-0.11,0-0.1,0a0.3,0.3,0,0,1-.18-0.44,0.3,0.3,0,0,1,.34-0.14l0.1,0,0.11,0,0.11,0,0.11,0,0.11,0h0A0.3,0.3,0,0,1,62.16,48.69Zm2.32,0.64a0.3,0.3,0,0,1-.33.12l-0.1,0-0.12,0-0.12,0-0.12,0-0.12,0a0.3,0.3,0,0,1,.17-0.58l0.12,0,0.12,0,0.12,0,0.12,0,0.1,0A0.3,0.3,0,0,1,64.48,49.33Zm2.2,0.8a0.29,0.29,0,0,1-.25,0h0l-0.13,0-0.12,0L66,50l-0.12,0h0A0.3,0.3,0,1,1,66,49.4h0l0.12,0,0.13,0,0.13,0,0.13,0h0A0.3,0.3,0,0,1,66.68,50.13Zm2,0.8h0l-0.12,0-0.13,0-0.12,0-0.13,0h0a0.3,0.3,0,1,1,.2-0.57h0l0.13,0,0.13,0,0.13,0,0.13,0h0A0.3,0.3,0,1,1,68.69,50.92Zm2.25,0.82-0.12,0-0.13,0-0.12,0-0.13,0-0.06,0A0.3,0.3,0,0,1,70.59,51l0.06,0,0.13,0,0.13,0,0.13,0,0.13,0a0.32,0.32,0,0,1,.11.07A0.3,0.3,0,0,1,70.94,51.74Zm2.22,0.88-0.07,0L73,52.54l-0.12-.05-0.12-.05-0.1,0a0.27,0.27,0,0,1-.12-0.08,0.3,0.3,0,0,1,.34-0.47l0.11,0,0.13,0L73.18,52,73.31,52l0.07,0a0.27,0.27,0,0,1,.12.09A0.3,0.3,0,0,1,73.15,52.62Zm2.54,0.88a0.3,0.3,0,0,1-.34.07l0,0-0.12-.06-0.12-.06-0.12-.06-0.12-.05h0A0.3,0.3,0,0,1,75,52.78h0l0.12,0.05,0.12,0.06,0.12,0.06L75.55,53l0,0A0.3,0.3,0,0,1,75.69,53.5Zm1.81,1.1-0.07,0-0.12-.06-0.11-.06-0.11-.06L77,54.33a0.32,0.32,0,0,1-.11-0.08,0.3,0.3,0,0,1,.37-0.46l0.11,0.06,0.12,0.06L77.58,54,77.7,54l0.07,0,0.07,0.05A0.3,0.3,0,0,1,77.5,54.59Zm2.1,1.12-0.07,0-0.11-.06-0.11-.06-0.11-.06-0.11-.06h0A0.3,0.3,0,0,1,79,54.94a0.29,0.29,0,0,1,.34,0h0L79.51,55,79.62,55l0.11,0.06,0.11,0.06,0.07,0a0.29,0.29,0,0,1,.12.13A0.3,0.3,0,0,1,79.6,55.71Zm2,1.24-0.08-.06-0.1-.06-0.1-.06-0.1-.06-0.1-.06,0,0a0.33,0.33,0,0,1-.1-0.11,0.3,0.3,0,0,1,.43-0.4l0,0,0.1,0.06,0.1,0.06,0.1,0.06,0.1,0.06L82,56.44A0.3,0.3,0,0,1,81.64,56.95Zm2.17,1.45a0.3,0.3,0,0,1-.26-0.06l-0.08-.06-0.08-.06-0.08-.06-0.08-.06L83.14,58l-0.06,0a0.32,0.32,0,0,1-.1-0.15,0.3,0.3,0,0,1,.47-0.33l0.06,0,0.09,0.06,0.08,0.07,0.08,0.06,0.08,0.06,0.08,0.07A0.3,0.3,0,0,1,83.81,58.4Z" transform="translate(-11.91 -11.8)"/><polygon points="7.4 47.66 7.39 47.63 7.46 47.93 7.4 47.66"/><polygon points="7.39 47.63 7.17 47.69 6.8 47.77 6.95 48.35 7.17 47.99 7.39 47.63"/></svg>