  0
SECTION
  2
HEADER
  9
$ACADVER
  1
AC1024
  9
$ACADMAINTVER
 70
     6
  9
$DWGCODEPAGE
  3
UNDEFINED
  9
$INSBASE
 10
0.0
 20
0.0
 30
0.0
  9
$EXTMIN
 10
1.000000000000000E+20
 20
1.000000000000000E+20
 30
1.000000000000000E+20
  9
$EXTMAX
 10
-1.000000000000000E+20
 20
-1.000000000000000E+20
 30
-1.000000000000000E+20
  9
$LIMMIN
 10
0.0
 20
0.0
  9
$LIMMAX
 10
12.0
 20
9.0
  9
$ORTHOMODE
 70
     0
  9
$REGENMODE
 70
     1
  9
$FILLMODE
 70
     1
  9
$QTEXTMODE
 70
     0
  9
$MIRRTEXT
 70
     1
  9
$LTSCALE
 40
1.0
  9
$ATTMODE
 70
     1
  9
$TEXTSIZE
 40
0.2
  9
$TRACEWID
 40
0.05
  9
$TEXTSTYLE
  7
Standard
  9
$CLAYER
  8
0
  9
$CELTYPE
  6
ByLayer
  9
$CECOLOR
 62
   256
  9
$CELTSCALE
 40
1.0
  9
$DISPSILH
 70
     0
  9
$DIMSCALE
 40
1.0
  9
$DIMASZ
 40
0.18
  9
$DIMEXO
 40
0.0625
  9
$DIMDLI
 40
0.38
  9
$DIMRND
 40
0.0
  9
$DIMDLE
 40
0.0
  9
$DIMEXE
 40
0.18
  9
$DIMTP
 40
0.0
  9
$DIMTM
 40
0.0
  9
$DIMTXT
 40
0.18
  9
$DIMCEN
 40
0.09
  9
$DIMTSZ
 40
0.0
  9
$DIMTOL
 70
     0
  9
$DIMLIM
 70
     0
  9
$DIMTIH
 70
     1
  9
$DIMTOH
 70
     1
  9
$DIMSE1
 70
     0
  9
$DIMSE2
 70
     0
  9
$DIMTAD
 70
     0
  9
$DIMZIN
 70
     0
  9
$DIMBLK
  1

  9
$DIMASO
 70
     1
  9
$DIMSHO
 70
     1
  9
$DIMPOST
  1

  9
$DIMAPOST
  1

  9
$DIMALT
 70
     0
  9
$DIMALTD
 70
     2
  9
$DIMALTF
 40
25.4
  9
$DIMLFAC
 40
1.0
  9
$DIMTOFL
 70
     0
  9
$DIMTVP
 40
0.0
  9
$DIMTIX
 70
     0
  9
$DIMSOXD
 70
     0
  9
$DIMSAH
 70
     0
  9
$DIMBLK1
  1

  9
$DIMBLK2
  1

  9
$DIMSTYLE
  2
Standard
  9
$DIMCLRD
 70
     0
  9
$DIMCLRE
 70
     0
  9
$DIMCLRT
 70
     0
  9
$DIMTFAC
 40
1.0
  9
$DIMGAP
 40
0.09
  9
$DIMJUST
 70
     0
  9
$DIMSD1
 70
     0
  9
$DIMSD2
 70
     0
  9
$DIMTOLJ
 70
     1
  9
$DIMTZIN
 70
     0
  9
$DIMALTZ
 70
     0
  9
$DIMALTTZ
 70
     0
  9
$DIMUPT
 70
     0
  9
$DIMDEC
 70
     4
  9
$DIMTDEC
 70
     4
  9
$DIMALTU
 70
     2
  9
$DIMALTTD
 70
     2
  9
$DIMTXSTY
  7
Standard
  9
$DIMAUNIT
 70
     0
  9
$DIMADEC
 70
     0
  9
$DIMALTRND
 40
0.0
  9
$DIMAZIN
 70
     0
  9
$DIMDSEP
 70
    46
  9
$DIMATFIT
 70
     3
  9
$DIMFRAC
 70
     0
  9
$DIMLDRBLK
  1

  9
$DIMLUNIT
 70
     2
  9
$DIMLWD
 70
    -2
  9
$DIMLWE
 70
    -2
  9
$DIMTMOVE
 70
     0
  9
$DIMFXL
 40
1.0
  9
$DIMFXLON
 70
     0
  9
$DIMJOGANG
 40
0.7853981633974483
  9
$DIMTFILL
 70
     0
  9
$DIMTFILLCLR
 70
     0
  9
$DIMARCSYM
 70
     0
  9
$DIMLTYPE
  6

  9
$DIMLTEX1
  6

  9
$DIMLTEX2
  6

  9
$DIMTXTDIRECTION
 70
     0
  9
$LUNITS
 70
     2
  9
$LUPREC
 70
     4
  9
$SKETCHINC
 40
0.1
  9
$FILLETRAD
 40
0.5
  9
$AUNITS
 70
     0
  9
$AUPREC
 70
     0
  9
$MENU
  1
.
  9
$ELEVATION
 40
0.0
  9
$PELEVATION
 40
0.0
  9
$THICKNESS
 40
0.0
  9
$LIMCHECK
 70
     0
  9
$CHAMFERA
 40
0.5
  9
$CHAMFERB
 40
0.5
  9
$CHAMFERC
 40
1.0
  9
$CHAMFERD
 40
0.0
  9
$SKPOLY
 70
     0
  9
$TDCREATE
 40
2457535.593530081
  9
$TDUCREATE
 40
2457535.801863426
  9
$TDUPDATE
 40
2457535.593530081
  9
$TDUUPDATE
 40
2457535.801863426
  9
$TDINDWG
 40
0.0000000116
  9
$TDUSRTIMER
 40
0.0000000116
  9
$USRTIMER
 70
     1
  9
$ANGBASE
 50
0.0
  9
$ANGDIR
 70
     0
  9
$PDMODE
 70
     0
  9
$PDSIZE
 40
0.0
  9
$PLINEWID
 40
0.0
  9
$SPLFRAME
 70
     0
  9
$SPLINETYPE
 70
     6
  9
$SPLINESEGS
 70
     8
  9
$HANDSEED
  5
45
  9
$SURFTAB1
 70
     6
  9
$SURFTAB2
 70
     6
  9
$SURFTYPE
 70
     6
  9
$SURFU
 70
     6
  9
$SURFV
 70
     6
  9
$UCSBASE
  2

  9
$UCSNAME
  2

  9
$UCSORG
 10
0.0
 20
0.0
 30
0.0
  9
$UCSXDIR
 10
1.0
 20
0.0
 30
0.0
  9
$UCSYDIR
 10
0.0
 20
1.0
 30
0.0
  9
$UCSORTHOREF
  2

  9
$UCSORTHOVIEW
 70
     0
  9
$UCSORGTOP
 10
0.0
 20
0.0
 30
0.0
  9
$UCSORGBOTTOM
 10
0.0
 20
0.0
 30
0.0
  9
$UCSORGLEFT
 10
0.0
 20
0.0
 30
0.0
  9
$UCSORGRIGHT
 10
0.0
 20
0.0
 30
0.0
  9
$UCSORGFRONT
 10
0.0
 20
0.0
 30
0.0
  9
$UCSORGBACK
 10
0.0
 20
0.0
 30
0.0
  9
$PUCSBASE
  2

  9
$PUCSNAME
  2

  9
$PUCSORG
 10
0.0
 20
0.0
 30
0.0
  9
$PUCSXDIR
 10
1.0
 20
0.0
 30
0.0
  9
$PUCSYDIR
 10
0.0
 20
1.0
 30
0.0
  9
$PUCSORTHOREF
  2

  9
$PUCSORTHOVIEW
 70
     0
  9
$PUCSORGTOP
 10
0.0
 20
0.0
 30
0.0
  9
$PUCSORGBOTTOM
 10
0.0
 20
0.0
 30
0.0
  9
$PUCSORGLEFT
 10
0.0
 20
0.0
 30
0.0
  9
$PUCSORGRIGHT
 10
0.0
 20
0.0
 30
0.0
  9
$PUCSORGFRONT
 10
0.0
 20
0.0
 30
0.0
  9
$PUCSORGBACK
 10
0.0
 20
0.0
 30
0.0
  9
$USERI1
 70
     0
  9
$USERI2
 70
     0
  9
$USERI3
 70
     0
  9
$USERI4
 70
     0
  9
$USERI5
 70
     0
  9
$USERR1
 40
0.0
  9
$USERR2
 40
0.0
  9
$USERR3
 40
0.0
  9
$USERR4
 40
0.0
  9
$USERR5
 40
0.0
  9
$WORLDVIEW
 70
     1
  9
$SHADEDGE
 70
     3
  9
$SHADEDIF
 70
    70
  9
$TILEMODE
 70
     1
  9
$MAXACTVP
 70
    64
  9
$PINSBASE
 10
0.0
 20
0.0
 30
0.0
  9
$PLIMCHECK
 70
     0
  9
$PEXTMIN
 10
1.000000000000000E+20
 20
1.000000000000000E+20
 30
1.000000000000000E+20
  9
$PEXTMAX
 10
-1.000000000000000E+20
 20
-1.000000000000000E+20
 30
-1.000000000000000E+20
  9
$PLIMMIN
 10
0.0
 20
0.0
  9
$PLIMMAX
 10
12.0
 20
9.0
  9
$UNITMODE
 70
     0
  9
$VISRETAIN
 70
     1
  9
$PLINEGEN
 70
     0
  9
$PSLTSCALE
 70
     1
  9
$TREEDEPTH
 70
  3020
  9
$CMLSTYLE
  2
Standard
  9
$CMLJUST
 70
     0
  9
$CMLSCALE
 40
1.0
  9
$PROXYGRAPHICS
 70
     1
  9
$MEASUREMENT
 70
     0
  9
$CELWEIGHT
370
    -1
  9
$ENDCAPS
280
     0
  9
$JOINSTYLE
280
     0
  9
$LWDISPLAY
290
     1
  9
$INSUNITS
 70
     1
  9
$HYPERLINKBASE
  1

  9
$STYLESHEET
  1

  9
$XEDIT
290
     1
  9
$CEPSNTYPE
380
     0
  9
$PSTYLEMODE
290
     1
  9
$FINGERPRINTGUID
  2
{CAA67BCC-62E3-8819-433D-D59482C2A7E3}
  9
$VERSIONGUID
  2
{FAEB1C32-E019-11D5-929B-00C0DF256EC4}
  9
$EXTNAMES
290
     1
  9
$PSVPSCALE
 40
0.0
  9
$OLESTARTUP
290
     0
  9
$SORTENTS
280
   127
  9
$INDEXCTL
280
     0
  9
$HIDETEXT
280
     1
  9
$XCLIPFRAME
280
     2
  9
$HALOGAP
280
     0
  9
$OBSCOLOR
 70
   257
  9
$OBSLTYPE
280
     0
  9
$INTERSECTIONDISPLAY
280
     0
  9
$INTERSECTIONCOLOR
 70
   257
  9
$DIMASSOC
280
     2
  9
$PROJECTNAME
  1

  9
$CAMERADISPLAY
290
     0
  9
$LENSLENGTH
 40
50.0
  9
$CAMERAHEIGHT
 40
0.0
  9
$STEPSPERSEC
 40
2.0
  9
$STEPSIZE
 40
6.0
  9
$3DDWFPREC
 40
2.0
  9
$PSOLWIDTH
 40
0.25
  9
$PSOLHEIGHT
 40
4.0
  9
$LOFTANG1
 40
1.570796326794897
  9
$LOFTANG2
 40
1.570796326794897
  9
$LOFTMAG1
 40
0.0
  9
$LOFTMAG2
 40
0.0
  9
$LOFTPARAM
 70
     7
  9
$LOFTNORMALS
280
     1
  9
$LATITUDE
 40
37.795
  9
$LONGITUDE
 40
-122.394
  9
$NORTHDIRECTION
 40
0.0
  9
$TIMEZONE
 70
 -8000
  9
$LIGHTGLYPHDISPLAY
280
     1
  9
$TILEMODELIGHTSYNCH
280
     1
  9
$CMATERIAL
347
3C
  9
$SOLIDHIST
280
     1
  9
$SHOWHIST
280
     1
  9
$DWFFRAME
280
     2
  9
$DGNFRAME
280
     2
  9
$REALWORLDSCALE
290
     1
  9
$INTERFERECOLOR
 62
   256
  9
$CSHADOW
280
     0
  9
$SHADOWPLANELOCATION
 40
0.0
  0
ENDSEC
  0
SECTION
  2
CLASSES
  0
CLASS
  1
ACDBDICTIONARYWDFLT
  2
AcDbDictionaryWithDefault
  3
ObjectDBX Classes
 90
        0
 91
        4
280
     0
281
     0
  0
CLASS
  1
VISUALSTYLE
  2
AcDbVisualStyle
  3
ObjectDBX Classes
 90
     4095
 91
        4
280
     0
281
     0
  0
CLASS
  1
MATERIAL
  2
AcDbMaterial
  3
ObjectDBX Classes
 90
     1153
 91
        4
280
     0
281
     0
  0
CLASS
  1
SUN
  2
AcDbSun
  3
SCENEOE
 90
     1024
 91
        4
280
     0
281
     0
  0
ENDSEC
  0
SECTION
  2
TABLES
  0
TABLE
  2
VPORT
  5
8
330
0
100
AcDbSymbolTable
 70
     1
  0
VPORT
  5
29
330
8
100
AcDbSymbolTableRecord
100
AcDbViewportTableRecord
  2
*Active
 70
     0
 10
0.0
 20
0.0
 11
1.0
 21
1.0
 12
0.0
 22
0.0
 13
0.0
 23
0.0
 14
0.5
 24
0.5
 15
0.5
 25
0.5
 16
0.0
 26
0.0
 36
1.0
 17
50.0
 27
62.5
 37
0.0
 40
125.0
 41
0.8
 42
50.0
 43
0.0
 44
0.0
 50
0.0
 51
0.0
 71
     0
 72
   100
 73
     1
 74
     3
 75
     0
 76
     0
 77
     0
 78
     0
281
     0
 65
     1
110
0.0
120
0.0
130
0.0
111
1.0
121
0.0
131
0.0
112
0.0
122
1.0
132
0.0
 79
     0
146
0.0
 60
     3
 61
     5
292
     1
282
     1
141
0.0
142
0.0
 63
   250
361
3F
  0
ENDTAB
  0
TABLE
  2
LTYPE
  5
5
330
0
100
AcDbSymbolTable
 70
     1
  0
LTYPE
  5
14
330
5
100
AcDbSymbolTableRecord
100
AcDbLinetypeTableRecord
  2
ByBlock
 70
     0
  3

 72
    65
 73
     0
 40
0.0
  0
LTYPE
  5
15
330
5
100
AcDbSymbolTableRecord
100
AcDbLinetypeTableRecord
  2
ByLayer
 70
     0
  3

 72
    65
 73
     0
 40
0.0
  0
LTYPE
  5
16
330
5
100
AcDbSymbolTableRecord
100
AcDbLinetypeTableRecord
  2
Continuous
 70
     0
  3
Solid line
 72
    65
 73
     0
 40
0.0
  0
ENDTAB
  0
TABLE
  2
LAYER
  5
2
330
0
100
AcDbSymbolTable
 70
     2
  0
LAYER
  5
10
330
2
100
AcDbSymbolTableRecord
100
AcDbLayerTableRecord
  2
0
 70
     0
 62
     7
  6
Continuous
370
    -3
390
F
347
3E
  0
LAYER
  5
40
330
2
100
AcDbSymbolTableRecord
100
AcDbLayerTableRecord
  2
Layer 1
 70
     0
 62
     7
  6
Continuous
370
    -3
390
F
347
3E
  0
ENDTAB
  0
TABLE
  2
STYLE
  5
3
330
0
100
AcDbSymbolTable
 70
     1
  0
STYLE
  5
11
330
3
100
AcDbSymbolTableRecord
100
AcDbTextStyleTableRecord
  2
Standard
 70
     0
 40
0.0
 41
1.0
 50
0.0
 71
     0
 42
0.2
  3
txt
  4

  0
ENDTAB
  0
TABLE
  2
VIEW
  5
6
330
0
100
AcDbSymbolTable
 70
     0
  0
ENDTAB
  0
TABLE
  2
UCS
  5
7
330
0
100
AcDbSymbolTable
 70
     0
  0
ENDTAB
  0
TABLE
  2
APPID
  5
9
330
0
100
AcDbSymbolTable
 70
     1
  0
APPID
  5
12
330
9
100
AcDbSymbolTableRecord
100
AcDbRegAppTableRecord
  2
ACAD
 70
     0
  0
ENDTAB
  0
TABLE
  2
DIMSTYLE
  5
A
330
0
100
AcDbSymbolTable
 70
     1
100
AcDbDimStyleTable
  0
DIMSTYLE
105
27
330
A
100
AcDbSymbolTableRecord
100
AcDbDimStyleTableRecord
  2
Standard
 70
     0
178
     0
340
11
  0
ENDTAB
  0
TABLE
  2
BLOCK_RECORD
  5
1
330
0
100
AcDbSymbolTable
 70
     1
  0
BLOCK_RECORD
  5
1F
330
1
100
AcDbSymbolTableRecord
100
AcDbBlockTableRecord
  2
*Model_Space
340
22
 70
     0
280
     1
281
     0
  0
BLOCK_RECORD
  5
1B
330
1
100
AcDbSymbolTableRecord
100
AcDbBlockTableRecord
  2
*Paper_Space
340
1E
 70
     0
280
     1
281
     0
  0
BLOCK_RECORD
  5
23
330
1
100
AcDbSymbolTableRecord
100
AcDbBlockTableRecord
  2
*Paper_Space0
340
26
 70
     0
280
     1
281
     0
  0
ENDTAB
  0
ENDSEC
  0
SECTION
  2
BLOCKS
  0
BLOCK
  5
20
330
1F
100
AcDbEntity
  8
0
100
AcDbBlockBegin
  2
*Model_Space
 70
     0
 10
0.0
 20
0.0
 30
0.0
  3
*Model_Space
  1

  0
ENDBLK
  5
21
330
1F
100
AcDbEntity
  8
0
100
AcDbBlockEnd
  0
BLOCK
  5
1C
330
1B
100
AcDbEntity
 67
     1
  8
0
100
AcDbBlockBegin
  2
*Paper_Space
 70
     0
 10
0.0
 20
0.0
 30
0.0
  3
*Paper_Space
  1

  0
ENDBLK
  5
1D
330
1B
100
AcDbEntity
 67
     1
  8
0
100
AcDbBlockEnd
  0
BLOCK
  5
24
330
23
100
AcDbEntity
  8
0
100
AcDbBlockBegin
  2
*Paper_Space0
 70
     0
 10
0.0
 20
0.0
 30
0.0
  3
*Paper_Space0
  1

  0
ENDBLK
  5
25
330
23
100
AcDbEntity
  8
0
100
AcDbBlockEnd
  0
ENDSEC
  0
SECTION
  2
ENTITIES
  0
SPLINE
  5
41
330
1F
100
AcDbEntity
  8
Layer 1
370
     0
100
AcDbSpline
210
0.0
220
0.0
230
1.0
 70
    11
 71
     3
 72
   191
 73
   187
 74
     0
 42
0.0000000001
 43
0.0000000001
 12
1.0
 22
0.0
 32
0.0
 13
1.0
 23
0.0
 33
0.0
 40
0.0
 40
0.0
 40
0.0
 40
0.0
 40
1.0
 40
1.0
 40
1.0
 40
2.0
 40
2.0
 40
2.0
 40
3.0
 40
3.0
 40
3.0
 40
4.0
 40
4.0
 40
4.0
 40
5.0
 40
5.0
 40
5.0
 40
6.0
 40
6.0
 40
6.0
 40
7.0
 40
7.0
 40
7.0
 40
8.0
 40
8.0
 40
8.0
 40
9.0
 40
9.0
 40
9.0
 40
10.0
 40
10.0
 40
10.0
 40
11.0
 40
11.0
 40
11.0
 40
12.0
 40
12.0
 40
12.0
 40
13.0
 40
13.0
 40
13.0
 40
14.0
 40
14.0
 40
14.0
 40
15.0
 40
15.0
 40
15.0
 40
16.0
 40
16.0
 40
16.0
 40
17.0
 40
17.0
 40
17.0
 40
18.0
 40
18.0
 40
18.0
 40
19.0
 40
19.0
 40
19.0
 40
20.0
 40
20.0
 40
20.0
 40
21.0
 40
21.0
 40
21.0
 40
22.0
 40
22.0
 40
22.0
 40
23.0
 40
23.0
 40
23.0
 40
24.0
 40
24.0
 40
24.0
 40
25.0
 40
25.0
 40
25.0
 40
26.0
 40
26.0
 40
26.0
 40
27.0
 40
27.0
 40
27.0
 40
28.0
 40
28.0
 40
28.0
 40
29.0
 40
29.0
 40
29.0
 40
30.0
 40
30.0
 40
30.0
 40
31.0
 40
31.0
 40
31.0
 40
32.0
 40
32.0
 40
32.0
 40
33.0
 40
33.0
 40
33.0
 40
34.0
 40
34.0
 40
34.0
 40
35.0
 40
35.0
 40
35.0
 40
36.0
 40
36.0
 40
36.0
 40
37.0
 40
37.0
 40
37.0
 40
38.0
 40
38.0
 40
38.0
 40
39.0
 40
39.0
 40
39.0
 40
40.0
 40
40.0
 40
40.0
 40
41.0
 40
41.0
 40
41.0
 40
42.0
 40
42.0
 40
42.0
 40
43.0
 40
43.0
 40
43.0
 40
44.0
 40
44.0
 40
44.0
 40
45.0
 40
45.0
 40
45.0
 40
46.0
 40
46.0
 40
46.0
 40
47.0
 40
47.0
 40
47.0
 40
48.0
 40
48.0
 40
48.0
 40
49.0
 40
49.0
 40
49.0
 40
50.0
 40
50.0
 40
50.0
 40
51.0
 40
51.0
 40
51.0
 40
52.0
 40
52.0
 40
52.0
 40
53.0
 40
53.0
 40
53.0
 40
54.0
 40
54.0
 40
54.0
 40
55.0
 40
55.0
 40
55.0
 40
56.0
 40
56.0
 40
56.0
 40
57.0
 40
57.0
 40
57.0
 40
58.0
 40
58.0
 40
58.0
 40
59.0
 40
59.0
 40
59.0
 40
60.0
 40
60.0
 40
60.0
 40
61.0
 40
61.0
 40
61.0
 40
62.0
 40
62.0
 40
62.0
 40
62.0
 10
86.60600280761719
 20
95.7490005493164
 30
0.0
 10
86.58700561523438
 20
95.76799964904785
 30
0.0
 10
86.56900024414062
 20
95.78499984741211
 30
0.0
 10
86.55000305175781
 20
95.80400085449219
 30
0.0
 10
85.67900085449219
 20
96.64800071716309
 30
0.0
 10
84.26600646972656
 20
96.5570011138916
 30
0.0
 10
83.45899963378906
 20
95.6520004272461
 30
0.0
 10
83.45899963378906
 20
95.6520004272461
 30
0.0
 10
76.21199798583984
 20
87.52199935913086
 30
0.0
 10
76.21199798583984
 20
87.52199935913086
 30
0.0
 10
75.33100128173828
 20
86.53300094604492
 30
0.0
 10
73.70800018310547
 20
87.34099960327148
 30
0.0
 10
73.96499633789062
 20
88.63999938964844
 30
0.0
 10
73.96499633789062
 20
88.63999938964844
 30
0.0
 10
74.86100006103516
 20
93.17799949645996
 30
0.0
 10
74.86100006103516
 20
93.17799949645996
 30
0.0
 10
75.01200103759766
 20
93.9429988861084
 30
0.0
 10
74.14900207519531
 20
94.51300048828125
 30
0.0
 10
73.51399993896484
 20
94.05900001525879
 30
0.0
 10
72.47200012207031
 20
93.31599998474121
 30
0.0
 10
71.44999694824219
 20
92.45299911499023
 30
0.0
 10
70.4749984741211
 20
91.47800064086914
 30
0.0
 10
66.89799499511719
 20
87.9020004272461
 30
0.0
 10
64.82899475097656
 20
83.6879997253418
 30
0.0
 10
64.6259994506836
 20
80.24700164794922
 30
0.0
 10
62.56700134277344
 20
81.1240005493164
 30
0.0
 10
60.20100021362305
 20
81.81700134277344
 30
0.0
 10
57.61999893188477
 20
82.28300094604492
 30
0.0
 10
57.61999893188477
 20
82.29899978637695
 30
0.0
 10
57.62400054931641
 20
82.3120002746582
 30
0.0
 10
57.62400054931641
 20
82.32699966430664
 30
0.0
 10
57.62400054931641
 20
83.28499984741211
 30
0.0
 10
56.84700012207031
 20
84.0620002746582
 30
0.0
 10
55.88899993896484
 20
84.0620002746582
 30
0.0
 10
55.70199966430664
 20
84.0620002746582
 30
0.0
 10
55.52700042724609
 20
84.0250015258789
 30
0.0
 10
55.35900115966797
 20
83.97000122070312
 30
0.0
 10
55.33399963378906
 20
83.96200180053711
 30
0.0
 10
55.30900192260742
 20
83.95600128173828
 30
0.0
 10
55.28499984741211
 20
83.94800186157227
 30
0.0
 10
55.12300109863281
 20
83.88700103759766
 30
0.0
 10
54.97299957275391
 20
83.802001953125
 30
0.0
 10
54.8390007019043
 20
83.69900131225586
 30
0.0
 10
54.82400131225586
 20
83.6879997253418
 30
0.0
 10
54.81100082397461
 20
83.677001953125
 30
0.0
 10
54.79700088500977
 20
83.66500091552734
 30
0.0
 10
54.51300048828125
 20
83.43300247192383
 30
0.0
 10
54.30400085449219
 20
83.1150016784668
 30
0.0
 10
54.21200180053711
 20
82.74800109863281
 30
0.0
 10
52.84600067138672
 20
82.87800216674805
 30
0.0
 10
51.44000244140625
 20
82.94900131225586
 30
0.0
 10
50.0
 20
82.94900131225586
 30
0.0
 10
48.56000137329102
 20
82.94900131225586
 30
0.0
 10
47.15299987792969
 20
82.87800216674805
 30
0.0
 10
45.7869987487793
 20
82.74800109863281
 30
0.0
 10
45.59799957275391
 20
83.50200271606445
 30
0.0
 10
44.92099761962891
 20
84.0620002746582
 30
0.0
 10
44.1089973449707
 20
84.0620002746582
 30
0.0
 10
43.14999771118164
 20
84.0620002746582
 30
0.0
 10
42.37499618530273
 20
83.28499984741211
 30
0.0
 10
42.37499618530273
 20
82.32699966430664
 30
0.0
 10
42.37499618530273
 20
82.3120002746582
 30
0.0
 10
42.37899780273438
 20
82.29800033569336
 30
0.0
 10
42.37899780273438
 20
82.28300094604492
 30
0.0
 10
39.79799652099609
 20
81.81800079345703
 30
0.0
 10
37.43099975585938
 20
81.1240005493164
 30
0.0
 10
35.37099838256836
 20
80.24700164794922
 30
0.0
 10
35.16999816894531
 20
83.6870002746582
 30
0.0
 10
33.09999847412109
 20
87.9020004272461
 30
0.0
 10
29.52299880981445
 20
91.47800064086914
 30
0.0
 10
28.54799842834473
 20
92.45299911499023
 30
0.0
 10
27.52599906921387
 20
93.31599998474121
 30
0.0
 10
26.48399925231934
 20
94.05900001525879
 30
0.0
 10
25.8489990234375
 20
94.51300048828125
 30
0.0
 10
24.98600006103516
 20
93.94300079345703
 30
0.0
 10
25.13699913024902
 20
93.17799949645996
 30
0.0
 10
25.13699913024902
 20
93.17799949645996
 30
0.0
 10
26.03399848937988
 20
88.63999938964844
 30
0.0
 10
26.03399848937988
 20
88.63999938964844
 30
0.0
 10
26.2909984588623
 20
87.34099960327148
 30
0.0
 10
24.66799926757812
 20
86.53300094604492
 30
0.0
 10
23.7859992980957
 20
87.52199935913086
 30
0.0
 10
23.7859992980957
 20
87.52199935913086
 30
0.0
 10
16.53999900817871
 20
95.6520004272461
 30
0.0
 10
16.53999900817871
 20
95.6520004272461
 30
0.0
 10
15.73199939727783
 20
96.5570011138916
 30
0.0
 10
14.3179988861084
 20
96.64800071716309
 30
0.0
 10
13.44799900054932
 20
95.80400085449219
 30
0.0
 10
13.42899894714355
 20
95.78500175476074
 30
0.0
 10
13.4109992980957
 20
95.76800155639648
 30
0.0
 10
13.39199924468994
 20
95.7490005493164
 30
0.0
 10
10.11799907684326
 20
92.47500228881836
 30
0.0
 10
12.02999877929688
 20
85.25199890136719
 30
0.0
 10
17.66299819946289
 20
79.61800003051758
 30
0.0
 10
20.85099792480469
 20
76.43099975585938
 30
0.0
 10
24.54499816894531
 20
74.4370002746582
 30
0.0
 10
27.74599838256836
 20
73.89799880981445
 30
0.0
 10
27.38199806213379
 20
73.07499694824219
 30
0.0
 10
27.18399810791016
 20
72.21899795532227
 30
0.0
 10
27.18399810791016
 20
71.33899688720703
 30
0.0
 10
27.18399810791016
 20
68.68599700927734
 30
0.0
 10
28.93699836730957
 20
66.24099731445312
 30
0.0
 10
31.8809986114502
 20
64.28599548339844
 30
0.0
 10
31.8809986114502
 20
64.28599548339844
 30
0.0
 10
23.52099990844727
 20
55.92699432373047
 30
0.0
 10
23.52099990844727
 20
55.92699432373047
 30
0.0
 10
22.99300003051758
 20
55.39799499511719
 30
0.0
 10
22.99300003051758
 20
54.54099273681641
 30
0.0
 10
23.52099990844727
 20
54.01399230957031
 30
0.0
 10
23.52099990844727
 20
54.01399230957031
 30
0.0
 10
23.52700042724609
 20
54.00799560546875
 30
0.0
 10
23.52700042724609
 20
54.00799560546875
 30
0.0
 10
24.05500030517578
 20
53.47999572753906
 30
0.0
 10
24.91200065612793
 20
53.47999572753906
 30
0.0
 10
25.44000053405762
 20
54.00799560546875
 30
0.0
 10
25.44000053405762
 20
54.00799560546875
 30
0.0
 10
34.33599853515625
 20
62.90399551391602
 30
0.0
 10
34.33599853515625
 20
62.90399551391602
 30
0.0
 10
35.67799758911133
 20
62.25799560546875
 30
0.0
 10
37.17299652099609
 20
61.69499588012695
 30
0.0
 10
38.79199981689453
 20
61.22899627685547
 30
0.0
 10
38.79199981689453
 20
61.22899627685547
 30
0.0
 10
33.48899841308594
 20
55.92699432373047
 30
0.0
 10
33.48899841308594
 20
55.92699432373047
 30
0.0
 10
32.96199798583984
 20
55.39799499511719
 30
0.0
 10
32.96199798583984
 20
54.54099273681641
 30
0.0
 10
33.48899841308594
 20
54.01399230957031
 30
0.0
 10
33.48899841308594
 20
54.01399230957031
 30
0.0
 10
33.49499893188477
 20
54.00799560546875
 30
0.0
 10
33.49499893188477
 20
54.00799560546875
 30
0.0
 10
34.02299880981445
 20
53.47999572753906
 30
0.0
 10
34.87999725341797
 20
53.47999572753906
 30
0.0
 10
35.40699768066406
 20
54.00799560546875
 30
0.0
 10
35.40699768066406
 20
54.00799560546875
 30
0.0
 10
41.88699722290039
 20
60.48799896240234
 30
0.0
 10
41.88699722290039
 20
60.48799896240234
 30
0.0
 10
44.40799713134766
 20
60.0
 30
0.0
 10
47.14099884033203
 20
59.72999572753906
 30
0.0
 10
49.99799728393555
 20
59.72999572753906
 30
0.0
 10
52.85499572753906
 20
59.72999572753906
 30
0.0
 10
55.58799743652344
 20
59.99999237060547
 30
0.0
 10
58.10799789428711
 20
60.48799896240234
 30
0.0
 10
58.10799789428711
 20
60.48799896240234
 30
0.0
 10
64.58799743652344
 20
54.00799560546875
 30
0.0
 10
64.58799743652344
 20
54.00799560546875
 30
0.0
 10
65.11599731445312
 20
53.47999572753906
 30
0.0
 10
65.97200012207031
 20
53.47999572753906
 30
0.0
 10
66.5
 20
54.00799560546875
 30
0.0
 10
66.5
 20
54.00799560546875
 30
0.0
 10
66.50599670410156
 20
54.01399230957031
 30
0.0
 10
66.50599670410156
 20
54.01399230957031
 30
0.0
 10
67.03399658203125
 20
54.54099273681641
 30
0.0
 10
67.03399658203125
 20
55.39799499511719
 30
0.0
 10
66.50599670410156
 20
55.92699432373047
 30
0.0
 10
66.50599670410156
 20
55.92699432373047
 30
0.0
 10
61.20399475097656
 20
61.22899627685547
 30
0.0
 10
61.20399475097656
 20
61.22899627685547
 30
0.0
 10
62.82199478149414
 20
61.69499588012695
 30
0.0
 10
64.3169937133789
 20
62.25799560546875
 30
0.0
 10
65.65899658203125
 20
62.90399551391602
 30
0.0
 10
65.65899658203125
 20
62.90399551391602
 30
0.0
 10
74.55499267578125
 20
54.00799560546875
 30
0.0
 10
74.55499267578125
 20
54.00799560546875
 30
0.0
 10
75.08299255371094
 20
53.47999572753906
 30
0.0
 10
75.93999481201172
 20
53.47999572753906
 30
0.0
 10
76.4679946899414
 20
54.00799560546875
 30
0.0
 10
76.4679946899414
 20
54.00799560546875
 30
0.0
 10
76.47299194335938
 20
54.01399230957031
 30
0.0
 10
76.47299194335938
 20
54.01399230957031
 30
0.0
 10
77.00199127197266
 20
54.54099273681641
 30
0.0
 10
77.00199127197266
 20
55.39799499511719
 30
0.0
 10
76.47299194335938
 20
55.92699432373047
 30
0.0
 10
76.47299194335938
 20
55.92699432373047
 30
0.0
 10
68.1139907836914
 20
64.28599548339844
 30
0.0
 10
68.1139907836914
 20
64.28599548339844
 30
0.0
 10
71.05799102783203
 20
66.24099731445312
 30
0.0
 10
72.81098937988281
 20
68.68499755859375
 30
0.0
 10
72.81098937988281
 20
71.33899688720703
 30
0.0
 10
72.81098937988281
 20
72.21899795532227
 30
0.0
 10
72.61299133300781
 20
73.0739974975586
 30
0.0
 10
72.24899291992188
 20
73.89799499511719
 30
0.0
 10
75.44998931884766
 20
74.43699645996094
 30
0.0
 10
79.14498901367188
 20
76.43099594116211
 30
0.0
 10
82.33199310302734
 20
79.61799621582031
 30
0.0
 10
87.96900177001953
 20
85.25199890136719
 30
0.0
 10
89.88099670410156
 20
92.4749984741211
 30
0.0
 10
86.60600280761719
 20
95.7490005493164
 30
0.0
  0
HATCH
  5
42
330
1F
100
AcDbEntity
  8
Layer 1
 62
     7
420
 16777215
100
AcDbHatch
 10
0.0
 20
0.0
 30
0.0
210
0.0
220
0.0
230
1.0
  2
SOLID
 70
     1
 71
     0
 91
        1
 92
        1
 93
        1
 72
     4
 94
        3
 73
     0
 74
     1
 95
      191
 96
      187
 40
0.0
 40
0.0
 40
0.0
 40
0.0
 40
1.0
 40
1.0
 40
1.0
 40
2.0
 40
2.0
 40
2.0
 40
3.0
 40
3.0
 40
3.0
 40
4.0
 40
4.0
 40
4.0
 40
5.0
 40
5.0
 40
5.0
 40
6.0
 40
6.0
 40
6.0
 40
7.0
 40
7.0
 40
7.0
 40
8.0
 40
8.0
 40
8.0
 40
9.0
 40
9.0
 40
9.0
 40
10.0
 40
10.0
 40
10.0
 40
11.0
 40
11.0
 40
11.0
 40
12.0
 40
12.0
 40
12.0
 40
13.0
 40
13.0
 40
13.0
 40
14.0
 40
14.0
 40
14.0
 40
15.0
 40
15.0
 40
15.0
 40
16.0
 40
16.0
 40
16.0
 40
17.0
 40
17.0
 40
17.0
 40
18.0
 40
18.0
 40
18.0
 40
19.0
 40
19.0
 40
19.0
 40
20.0
 40
20.0
 40
20.0
 40
21.0
 40
21.0
 40
21.0
 40
22.0
 40
22.0
 40
22.0
 40
23.0
 40
23.0
 40
23.0
 40
24.0
 40
24.0
 40
24.0
 40
25.0
 40
25.0
 40
25.0
 40
26.0
 40
26.0
 40
26.0
 40
27.0
 40
27.0
 40
27.0
 40
28.0
 40
28.0
 40
28.0
 40
29.0
 40
29.0
 40
29.0
 40
30.0
 40
30.0
 40
30.0
 40
31.0
 40
31.0
 40
31.0
 40
32.0
 40
32.0
 40
32.0
 40
33.0
 40
33.0
 40
33.0
 40
34.0
 40
34.0
 40
34.0
 40
35.0
 40
35.0
 40
35.0
 40
36.0
 40
36.0
 40
36.0
 40
37.0
 40
37.0
 40
37.0
 40
38.0
 40
38.0
 40
38.0
 40
39.0
 40
39.0
 40
39.0
 40
40.0
 40
40.0
 40
40.0
 40
41.0
 40
41.0
 40
41.0
 40
42.0
 40
42.0
 40
42.0
 40
43.0
 40
43.0
 40
43.0
 40
44.0
 40
44.0
 40
44.0
 40
45.0
 40
45.0
 40
45.0
 40
46.0
 40
46.0
 40
46.0
 40
47.0
 40
47.0
 40
47.0
 40
48.0
 40
48.0
 40
48.0
 40
49.0
 40
49.0
 40
49.0
 40
50.0
 40
50.0
 40
50.0
 40
51.0
 40
51.0
 40
51.0
 40
52.0
 40
52.0
 40
52.0
 40
53.0
 40
53.0
 40
53.0
 40
54.0
 40
54.0
 40
54.0
 40
55.0
 40
55.0
 40
55.0
 40
56.0
 40
56.0
 40
56.0
 40
57.0
 40
57.0
 40
57.0
 40
58.0
 40
58.0
 40
58.0
 40
59.0
 40
59.0
 40
59.0
 40
60.0
 40
60.0
 40
60.0
 40
61.0
 40
61.0
 40
61.0
 40
62.0
 40
62.0
 40
62.0
 40
62.0
 10
86.60600280761719
 20
95.7490005493164
 10
86.58700561523438
 20
95.76799964904785
 10
86.56900024414062
 20
95.78499984741211
 10
86.55000305175781
 20
95.80400085449219
 10
85.67900085449219
 20
96.64800071716309
 10
84.26600646972656
 20
96.5570011138916
 10
83.45899963378906
 20
95.6520004272461
 10
83.45899963378906
 20
95.6520004272461
 10
76.21199798583984
 20
87.52199935913086
 10
76.21199798583984
 20
87.52199935913086
 10
75.33100128173828
 20
86.53300094604492
 10
73.70800018310547
 20
87.34099960327148
 10
73.96499633789062
 20
88.63999938964844
 10
73.96499633789062
 20
88.63999938964844
 10
74.86100006103516
 20
93.17799949645996
 10
74.86100006103516
 20
93.17799949645996
 10
75.01200103759766
 20
93.9429988861084
 10
74.14900207519531
 20
94.51300048828125
 10
73.51399993896484
 20
94.05900001525879
 10
72.47200012207031
 20
93.31599998474121
 10
71.44999694824219
 20
92.45299911499023
 10
70.4749984741211
 20
91.47800064086914
 10
66.89799499511719
 20
87.9020004272461
 10
64.82899475097656
 20
83.6879997253418
 10
64.6259994506836
 20
80.24700164794922
 10
62.56700134277344
 20
81.1240005493164
 10
60.20100021362305
 20
81.81700134277344
 10
57.61999893188477
 20
82.28300094604492
 10
57.61999893188477
 20
82.29899978637695
 10
57.62400054931641
 20
82.3120002746582
 10
57.62400054931641
 20
82.32699966430664
 10
57.62400054931641
 20
83.28499984741211
 10
56.84700012207031
 20
84.0620002746582
 10
55.88899993896484
 20
84.0620002746582
 10
55.70199966430664
 20
84.0620002746582
 10
55.52700042724609
 20
84.0250015258789
 10
55.35900115966797
 20
83.97000122070312
 10
55.33399963378906
 20
83.96200180053711
 10
55.30900192260742
 20
83.95600128173828
 10
55.28499984741211
 20
83.94800186157227
 10
55.12300109863281
 20
83.88700103759766
 10
54.97299957275391
 20
83.802001953125
 10
54.8390007019043
 20
83.69900131225586
 10
54.82400131225586
 20
83.6879997253418
 10
54.81100082397461
 20
83.677001953125
 10
54.79700088500977
 20
83.66500091552734
 10
54.51300048828125
 20
83.43300247192383
 10
54.30400085449219
 20
83.1150016784668
 10
54.21200180053711
 20
82.74800109863281
 10
52.84600067138672
 20
82.87800216674805
 10
51.44000244140625
 20
82.94900131225586
 10
50.0
 20
82.94900131225586
 10
48.56000137329102
 20
82.94900131225586
 10
47.15299987792969
 20
82.87800216674805
 10
45.7869987487793
 20
82.74800109863281
 10
45.59799957275391
 20
83.50200271606445
 10
44.92099761962891
 20
84.0620002746582
 10
44.1089973449707
 20
84.0620002746582
 10
43.14999771118164
 20
84.0620002746582
 10
42.37499618530273
 20
83.28499984741211
 10
42.37499618530273
 20
82.32699966430664
 10
42.37499618530273
 20
82.3120002746582
 10
42.37899780273438
 20
82.29800033569336
 10
42.37899780273438
 20
82.28300094604492
 10
39.79799652099609
 20
81.81800079345703
 10
37.43099975585938
 20
81.1240005493164
 10
35.37099838256836
 20
80.24700164794922
 10
35.16999816894531
 20
83.6870002746582
 10
33.09999847412109
 20
87.9020004272461
 10
29.52299880981445
 20
91.47800064086914
 10
28.54799842834473
 20
92.45299911499023
 10
27.52599906921387
 20
93.31599998474121
 10
26.48399925231934
 20
94.05900001525879
 10
25.8489990234375
 20
94.51300048828125
 10
24.98600006103516
 20
93.94300079345703
 10
25.13699913024902
 20
93.17799949645996
 10
25.13699913024902
 20
93.17799949645996
 10
26.03399848937988
 20
88.63999938964844
 10
26.03399848937988
 20
88.63999938964844
 10
26.2909984588623
 20
87.34099960327148
 10
24.66799926757812
 20
86.53300094604492
 10
23.7859992980957
 20
87.52199935913086
 10
23.7859992980957
 20
87.52199935913086
 10
16.53999900817871
 20
95.6520004272461
 10
16.53999900817871
 20
95.6520004272461
 10
15.73199939727783
 20
96.5570011138916
 10
14.3179988861084
 20
96.64800071716309
 10
13.44799900054932
 20
95.80400085449219
 10
13.42899894714355
 20
95.78500175476074
 10
13.4109992980957
 20
95.76800155639648
 10
13.39199924468994
 20
95.7490005493164
 10
10.11799907684326
 20
92.47500228881836
 10
12.02999877929688
 20
85.25199890136719
 10
17.66299819946289
 20
79.61800003051758
 10
20.85099792480469
 20
76.43099975585938
 10
24.54499816894531
 20
74.4370002746582
 10
27.74599838256836
 20
73.89799880981445
 10
27.38199806213379
 20
73.07499694824219
 10
27.18399810791016
 20
72.21899795532227
 10
27.18399810791016
 20
71.33899688720703
 10
27.18399810791016
 20
68.68599700927734
 10
28.93699836730957
 20
66.24099731445312
 10
31.8809986114502
 20
64.28599548339844
 10
31.8809986114502
 20
64.28599548339844
 10
23.52099990844727
 20
55.92699432373047
 10
23.52099990844727
 20
55.92699432373047
 10
22.99300003051758
 20
55.39799499511719
 10
22.99300003051758
 20
54.54099273681641
 10
23.52099990844727
 20
54.01399230957031
 10
23.52099990844727
 20
54.01399230957031
 10
23.52700042724609
 20
54.00799560546875
 10
23.52700042724609
 20
54.00799560546875
 10
24.05500030517578
 20
53.47999572753906
 10
24.91200065612793
 20
53.47999572753906
 10
25.44000053405762
 20
54.00799560546875
 10
25.44000053405762
 20
54.00799560546875
 10
34.33599853515625
 20
62.90399551391602
 10
34.33599853515625
 20
62.90399551391602
 10
35.67799758911133
 20
62.25799560546875
 10
37.17299652099609
 20
61.69499588012695
 10
38.79199981689453
 20
61.22899627685547
 10
38.79199981689453
 20
61.22899627685547
 10
33.48899841308594
 20
55.92699432373047
 10
33.48899841308594
 20
55.92699432373047
 10
32.96199798583984
 20
55.39799499511719
 10
32.96199798583984
 20
54.54099273681641
 10
33.48899841308594
 20
54.01399230957031
 10
33.48899841308594
 20
54.01399230957031
 10
33.49499893188477
 20
54.00799560546875
 10
33.49499893188477
 20
54.00799560546875
 10
34.02299880981445
 20
53.47999572753906
 10
34.87999725341797
 20
53.47999572753906
 10
35.40699768066406
 20
54.00799560546875
 10
35.40699768066406
 20
54.00799560546875
 10
41.88699722290039
 20
60.48799896240234
 10
41.88699722290039
 20
60.48799896240234
 10
44.40799713134766
 20
60.0
 10
47.14099884033203
 20
59.72999572753906
 10
49.99799728393555
 20
59.72999572753906
 10
52.85499572753906
 20
59.72999572753906
 10
55.58799743652344
 20
59.99999237060547
 10
58.10799789428711
 20
60.48799896240234
 10
58.10799789428711
 20
60.48799896240234
 10
64.58799743652344
 20
54.00799560546875
 10
64.58799743652344
 20
54.00799560546875
 10
65.11599731445312
 20
53.47999572753906
 10
65.97200012207031
 20
53.47999572753906
 10
66.5
 20
54.00799560546875
 10
66.5
 20
54.00799560546875
 10
66.50599670410156
 20
54.01399230957031
 10
66.50599670410156
 20
54.01399230957031
 10
67.03399658203125
 20
54.54099273681641
 10
67.03399658203125
 20
55.39799499511719
 10
66.50599670410156
 20
55.92699432373047
 10
66.50599670410156
 20
55.92699432373047
 10
61.20399475097656
 20
61.22899627685547
 10
61.20399475097656
 20
61.22899627685547
 10
62.82199478149414
 20
61.69499588012695
 10
64.3169937133789
 20
62.25799560546875
 10
65.65899658203125
 20
62.90399551391602
 10
65.65899658203125
 20
62.90399551391602
 10
74.55499267578125
 20
54.00799560546875
 10
74.55499267578125
 20
54.00799560546875
 10
75.08299255371094
 20
53.47999572753906
 10
75.93999481201172
 20
53.47999572753906
 10
76.4679946899414
 20
54.00799560546875
 10
76.4679946899414
 20
54.00799560546875
 10
76.47299194335938
 20
54.01399230957031
 10
76.47299194335938
 20
54.01399230957031
 10
77.00199127197266
 20
54.54099273681641
 10
77.00199127197266
 20
55.39799499511719
 10
76.47299194335938
 20
55.92699432373047
 10
76.47299194335938
 20
55.92699432373047
 10
68.1139907836914
 20
64.28599548339844
 10
68.1139907836914
 20
64.28599548339844
 10
71.05799102783203
 20
66.24099731445312
 10
72.81098937988281
 20
68.68499755859375
 10
72.81098937988281
 20
71.33899688720703
 10
72.81098937988281
 20
72.21899795532227
 10
72.61299133300781
 20
73.0739974975586
 10
72.24899291992188
 20
73.89799499511719
 10
75.44998931884766
 20
74.43699645996094
 10
79.14498901367188
 20
76.43099594116211
 10
82.33199310302734
 20
79.61799621582031
 10
87.96900177001953
 20
85.25199890136719
 10
89.88099670410156
 20
92.4749984741211
 10
86.60600280761719
 20
95.7490005493164
 97
        0
 97
        0
 75
     2
 76
     1
 98
        0
  0
ENDSEC
  0
SECTION
  2
OBJECTS
  0
DICTIONARY
  5
C
330
0
100
AcDbDictionary
281
     1
  3
ACAD_GROUP
350
D
  3
ACAD_LAYOUT
350
1A
  3
ACAD_MATERIAL
350
3B
  3
ACAD_MLEADERSTYLE
350
44
  3
ACAD_MLINESTYLE
350
17
  3
ACAD_PLOTSETTINGS
350
19
  3
ACAD_PLOTSTYLENAME
350
E
  3
ACAD_TABLESTYLE
350
43
  3
ACAD_VISUALSTYLE
350
2A
  0
SUN
  5
3F
330
29
100
AcDbSun
 90
        1
290
     0
 63
     7
421
 16777215
 40
1.0
291
     1
 91
  2455826
 92
 54000000
292
     0
 70
     2
 71
   256
280
     1
  0
DICTIONARY
  5
D
102
{ACAD_REACTORS
330
C
102
}
330
C
100
AcDbDictionary
281
     1
  0
DICTIONARY
  5
1A
102
{ACAD_REACTORS
330
C
102
}
330
C
100
AcDbDictionary
281
     1
  3
Layout1
350
1E
  3
Layout2
350
26
  3
Model
350
22
  0
DICTIONARY
  5
3B
102
{ACAD_REACTORS
330
C
102
}
330
C
100
AcDbDictionary
281
     1
  3
ByBlock
350
3D
  3
ByLayer
350
3C
  3
Global
350
3E
  0
DICTIONARY
  5
44
102
{ACAD_REACTORS
330
C
102
}
330
C
100
AcDbDictionary
281
     1
  0
DICTIONARY
  5
17
102
{ACAD_REACTORS
330
C
102
}
330
C
100
AcDbDictionary
281
     1
  3
Standard
350
18
  0
DICTIONARY
  5
19
102
{ACAD_REACTORS
330
C
102
}
330
C
100
AcDbDictionary
281
     1
  0
ACDBDICTIONARYWDFLT
  5
E
102
{ACAD_REACTORS
330
C
102
}
330
C
100
AcDbDictionary
281
     1
  3
Normal
350
F
100
AcDbDictionaryWithDefault
340
F
  0
DICTIONARY
  5
43
102
{ACAD_REACTORS
330
C
102
}
330
C
100
AcDbDictionary
281
     1
  0
DICTIONARY
  5
2A
102
{ACAD_REACTORS
330
C
102
}
330
C
100
AcDbDictionary
281
     1
  3
2dWireframe
350
2F
  3
3D Hidden
350
31
  3
3dWireframe
350
30
  3
Basic
350
32
  3
Brighten
350
36
  3
ColorChange
350
3A
  3
Conceptual
350
34
  3
Dim
350
35
  3
Facepattern
350
39
  3
Flat
350
2B
  3
FlatWithEdges
350
2C
  3
Gouraud
350
2D
  3
GouraudWithEdges
350
2E
  3
Linepattern
350
38
  3
Realistic
350
33
  3
Thicken
350
37
  0
LAYOUT
  5
1E
102
{ACAD_REACTORS
330
1A
102
}
330
1A
100
AcDbPlotSettings
  1

  2
none_device
  4

  6

 40
0.0
 41
0.0
 42
0.0
 43
0.0
 44
0.0
 45
0.0
 46
0.0
 47
0.0
 48
0.0
 49
0.0
140
0.0
141
0.0
142
1.0
143
1.0
 70
   688
 72
     0
 73
     0
 74
     5
  7

 75
    16
 76
     0
 77
     2
 78
   300
147
1.0
148
0.0
149
0.0
100
AcDbLayout
  1
Layout1
 70
     1
 71
     1
 10
0.0
 20
0.0
 11
12.0
 21
9.0
 12
0.0
 22
0.0
 32
0.0
 14
1.000000000000000E+20
 24
1.000000000000000E+20
 34
1.000000000000000E+20
 15
-1.000000000000000E+20
 25
-1.000000000000000E+20
 35
-1.000000000000000E+20
146
0.0
 13
0.0
 23
0.0
 33
0.0
 16
1.0
 26
0.0
 36
0.0
 17
0.0
 27
1.0
 37
0.0
 76
     0
330
1B
  0
LAYOUT
  5
26
102
{ACAD_REACTORS
330
1A
102
}
330
1A
100
AcDbPlotSettings
  1

  2
none_device
  4

  6

 40
0.0
 41
0.0
 42
0.0
 43
0.0
 44
0.0
 45
0.0
 46
0.0
 47
0.0
 48
0.0
 49
0.0
140
0.0
141
0.0
142
1.0
143
1.0
 70
   688
 72
     0
 73
     0
 74
     5
  7

 75
    16
 76
     0
 77
     2
 78
   300
147
1.0
148
0.0
149
0.0
100
AcDbLayout
  1
Layout2
 70
     1
 71
     2
 10
0.0
 20
0.0
 11
0.0
 21
0.0
 12
0.0
 22
0.0
 32
0.0
 14
0.0
 24
0.0
 34
0.0
 15
0.0
 25
0.0
 35
0.0
146
0.0
 13
0.0
 23
0.0
 33
0.0
 16
1.0
 26
0.0
 36
0.0
 17
0.0
 27
1.0
 37
0.0
 76
     0
330
23
  0
LAYOUT
  5
22
102
{ACAD_REACTORS
330
1A
102
}
330
1A
100
AcDbPlotSettings
  1

  2
none_device
  4

  6

 40
0.0
 41
0.0
 42
0.0
 43
0.0
 44
0.0
 45
0.0
 46
0.0
 47
0.0
 48
0.0
 49
0.0
140
0.0
141
0.0
142
1.0
143
1.0
 70
  1712
 72
     0
 73
     0
 74
     0
  7

 75
     0
 76
     0
 77
     2
 78
   300
147
1.0
148
0.0
149
0.0
100
AcDbLayout
  1
Model
 70
     1
 71
     0
 10
0.0
 20
0.0
 11
12.0
 21
9.0
 12
0.0
 22
0.0
 32
0.0
 14
1.000000000000000E+20
 24
1.000000000000000E+20
 34
1.000000000000000E+20
 15
-1.000000000000000E+20
 25
-1.000000000000000E+20
 35
-1.000000000000000E+20
146
0.0
 13
0.0
 23
0.0
 33
0.0
 16
1.0
 26
0.0
 36
0.0
 17
0.0
 27
1.0
 37
0.0
 76
     0
330
1F
331
29
  0
MATERIAL
  5
3D
102
{ACAD_REACTORS
330
3B
102
}
330
3B
100
AcDbMaterial
  1
ByBlock
 72
     1
 94
      127
  0
MATERIAL
  5
3C
102
{ACAD_REACTORS
330
3B
102
}
330
3B
100
AcDbMaterial
  1
ByLayer
 72
     1
 94
      127
  0
MATERIAL
  5
3E
102
{ACAD_REACTORS
330
3B
102
}
330
3B
100
AcDbMaterial
  1
Global
 72
     1
 94
      127
  0
MLINESTYLE
  5
18
102
{ACAD_REACTORS
330
17
102
}
330
17
100
AcDbMlineStyle
  2
Standard
 70
     0
  3

 62
   256
 51
90.0
 52
90.0
 71
     2
 49
0.5
 62
   256
  6
BYLAYER
 49
-0.5
 62
   256
  6
BYLAYER
  0
ACDBPLACEHOLDER
  5
F
102
{ACAD_REACTORS
330
E
102
}
330
E
  0
VISUALSTYLE
  5
2F
102
{ACAD_REACTORS
330
2A
102
}
330
2A
100
AcDbVisualStyle
  2
2dWireframe
 70
     4
177
     2
291
     0
 71
     0
176
     1
 72
     2
176
     1
 73
     0
176
     1
 90
        0
176
     1
 40
-0.6
176
     1
 41
-30.0
176
     1
 62
     5
 63
     7
421
 16777215
176
     1
 74
     1
176
     1
 91
        4
176
     1
 64
     7
176
     1
 65
   257
176
     1
 75
     1
176
     1
175
     1
176
     1
 42
1.0
176
     1
 92
        0
176
     1
 66
   257
176
     1
 43
1.0
176
     1
 76
     1
176
     1
 77
     6
176
     1
 78
     2
176
     1
 67
     7
176
     1
 79
     5
176
     1
170
     0
176
     1
171
     0
176
     1
290
     0
176
     1
 93
        1
176
     1
 44
0.0
176
     1
173
     0
176
     1
  0
VISUALSTYLE
  5
31
102
{ACAD_REACTORS
330
2A
102
}
330
2A
100
AcDbVisualStyle
  2
3D Hidden
 70
     6
177
     2
291
     0
 71
     1
176
     1
 72
     2
176
     1
 73
     2
176
     1
 90
        0
176
     1
 40
-0.6
176
     1
 41
-30.0
176
     1
 62
     5
 63
     7
421
 16777215
176
     1
 74
     2
176
     1
 91
        2
176
     1
 64
     7
176
     1
 65
   257
176
     1
 75
     2
176
     1
175
     1
176
     1
 42
40.0
176
     1
 92
        0
176
     1
 66
   257
176
     1
 43
1.0
176
     1
 76
     1
176
     1
 77
     6
176
     1
 78
     2
176
     1
 67
     7
176
     1
 79
     3
176
     1
170
     0
176
     1
171
     0
176
     1
290
     0
176
     1
 93
        1
176
     1
 44
0.0
176
     1
173
     0
176
     1
  0
VISUALSTYLE
  5
30
102
{ACAD_REACTORS
330
2A
102
}
330
2A
100
AcDbVisualStyle
  2
3dWireframe
 70
     5
177
     2
291
     0
 71
     0
176
     1
 72
     2
176
     1
 73
     0
176
     1
 90
        0
176
     1
 40
-0.6
176
     1
 41
-30.0
176
     1
 62
     5
 63
     7
421
 16777215
176
     1
 74
     1
176
     1
 91
        4
176
     1
 64
     7
176
     1
 65
   257
176
     1
 75
     1
176
     1
175
     1
176
     1
 42
1.0
176
     1
 92
        0
176
     1
 66
   257
176
     1
 43
1.0
176
     1
 76
     1
176
     1
 77
     6
176
     1
 78
     2
176
     1
 67
     7
176
     1
 79
     5
176
     1
170
     0
176
     1
171
     0
176
     1
290
     0
176
     1
 93
        1
176
     1
 44
0.0
176
     1
173
     0
176
     1
  0
VISUALSTYLE
  5
32
102
{ACAD_REACTORS
330
2A
102
}
330
2A
100
AcDbVisualStyle
  2
Basic
 70
     7
177
     2
291
     1
 71
     1
176
     1
 72
     0
176
     1
 73
     1
176
     1
 90
        0
176
     1
 40
-0.6
176
     1
 41
-30.0
176
     1
 62
     5
 63
     7
421
 16777215
176
     1
 74
     0
176
     1
 91
        4
176
     1
 64
     7
176
     1
 65
   257
176
     1
 75
     1
176
     1
175
     1
176
     1
 42
1.0
176
     1
 92
        8
176
     1
 66
     7
176
     1
 43
1.0
176
     1
 76
     1
176
     1
 77
     6
176
     1
 78
     2
176
     1
 67
     7
176
     1
 79
     5
176
     1
170
     0
176
     1
171
     0
176
     1
290
     0
176
     1
 93
        1
176
     1
 44
0.0
176
     1
173
     0
176
     1
  0
VISUALSTYLE
  5
36
102
{ACAD_REACTORS
330
2A
102
}
330
2A
100
AcDbVisualStyle
  2
Brighten
 70
    12
177
     2
291
     1
 71
     2
176
     1
 72
     2
176
     1
 73
     0
176
     1
 90
        0
176
     1
 40
-0.6
176
     1
 41
-30.0
176
     1
 62
     5
 63
     7
421
 16777215
176
     1
 74
     1
176
     1
 91
        4
176
     1
 64
     7
176
     1
 65
   257
176
     1
 75
     1
176
     1
175
     1
176
     1
 42
1.0
176
     1
 92
        8
176
     1
 66
     7
176
     1
 43
1.0
176
     1
 76
     1
176
     1
 77
     6
176
     1
 78
     2
176
     1
 67
     7
176
     1
 79
     5
176
     1
170
     0
176
     1
171
     0
176
     1
290
     0
176
     1
 93
        1
176
     1
 44
50.0
176
     1
173
     0
176
     1
  0
VISUALSTYLE
  5
3A
102
{ACAD_REACTORS
330
2A
102
}
330
2A
100
AcDbVisualStyle
  2
ColorChange
 70
    16
177
     2
291
     1
 71
     2
176
     1
 72
     2
176
     1
 73
     3
176
     1
 90
        0
176
     1
 40
-0.6
176
     1
 41
-30.0
176
     1
 62
     5
 63
     8
421
  8421504
176
     1
 74
     1
176
     1
 91
        4
176
     1
 64
     7
176
     1
 65
   257
176
     1
 75
     1
176
     1
175
     1
176
     1
 42
1.0
176
     1
 92
        8
176
     1
 66
     8
424
  8421504
176
     1
 43
1.0
176
     1
 76
     1
176
     1
 77
     6
176
     1
 78
     2
176
     1
 67
     7
176
     1
 79
     5
176
     1
170
     0
176
     1
171
     0
176
     1
290
     0
176
     1
 93
        1
176
     1
 44
0.0
176
     1
173
     0
176
     1
  0
VISUALSTYLE
  5
34
102
{ACAD_REACTORS
330
2A
102
}
330
2A
100
AcDbVisualStyle
  2
Conceptual
 70
     9
177
     2
291
     0
 71
     3
176
     1
 72
     2
176
     1
 73
     0
176
     1
 90
        0
176
     1
 40
-0.6
176
     1
 41
-30.0
176
     1
 62
     5
 63
     7
421
 16777215
176
     1
 74
     2
176
     1
 91
        2
176
     1
 64
     7
176
     1
 65
   257
176
     1
 75
     1
176
     1
175
     1
176
     1
 42
40.0
176
     1
 92
        8
176
     1
 66
     7
176
     1
 43
1.0
176
     1
 76
     1
176
     1
 77
     6
176
     1
 78
     2
176
     1
 67
     7
176
     1
 79
     3
176
     1
170
     0
176
     1
171
     0
176
     1
290
     0
176
     1
 93
        1
176
     1
 44
0.0
176
     1
173
     0
176
     1
  0
VISUALSTYLE
  5
35
102
{ACAD_REACTORS
330
2A
102
}
330
2A
100
AcDbVisualStyle
  2
Dim
 70
    11
177
     2
291
     1
 71
     2
176
     1
 72
     2
176
     1
 73
     0
176
     1
 90
        0
176
     1
 40
-0.6
176
     1
 41
-30.0
176
     1
 62
     5
 63
     7
421
 16777215
176
     1
 74
     1
176
     1
 91
        4
176
     1
 64
     7
176
     1
 65
   257
176
     1
 75
     1
176
     1
175
     1
176
     1
 42
1.0
176
     1
 92
        8
176
     1
 66
     7
176
     1
 43
1.0
176
     1
 76
     1
176
     1
 77
     6
176
     1
 78
     2
176
     1
 67
     7
176
     1
 79
     5
176
     1
170
     0
176
     1
171
     0
176
     1
290
     0
176
     1
 93
        1
176
     1
 44
-50.0
176
     1
173
     0
176
     1
  0
VISUALSTYLE
  5
39
102
{ACAD_REACTORS
330
2A
102
}
330
2A
100
AcDbVisualStyle
  2
Facepattern
 70
    15
177
     2
291
     1
 71
     2
176
     1
 72
     2
176
     1
 73
     0
176
     1
 90
        0
176
     1
 40
-0.6
176
     1
 41
-30.0
176
     1
 62
     5
 63
     7
421
 16777215
176
     1
 74
     1
176
     1
 91
        4
176
     1
 64
     7
176
     1
 65
   257
176
     1
 75
     1
176
     1
175
     1
176
     1
 42
1.0
176
     1
 92
        8
176
     1
 66
     7
176
     1
 43
1.0
176
     1
 76
     1
176
     1
 77
     6
176
     1
 78
     2
176
     1
 67
     7
176
     1
 79
     5
176
     1
170
     0
176
     1
171
     0
176
     1
290
     0
176
     1
 93
        1
176
     1
 44
0.0
176
     1
173
     0
176
     1
  0
VISUALSTYLE
  5
2B
102
{ACAD_REACTORS
330
2A
102
}
330
2A
100
AcDbVisualStyle
  2
Flat
 70
     0
177
     2
291
     1
 71
     2
176
     1
 72
     1
176
     1
 73
     1
176
     1
 90
        2
176
     1
 40
-0.6
176
     1
 41
30.0
176
     1
 62
     5
 63
     7
421
 16777215
176
     1
 74
     0
176
     1
 91
        4
176
     1
 64
     7
176
     1
 65
   257
176
     1
 75
     1
176
     1
175
     1
176
     1
 42
1.0
176
     1
 92
        8
176
     1
 66
     7
176
     1
 43
1.0
176
     1
 76
     1
176
     1
 77
     6
176
     1
 78
     2
176
     1
 67
     7
176
     1
 79
     5
176
     1
170
     0
176
     1
171
     0
176
     1
290
     0
176
     1
 93
       13
176
     1
 44
0.0
176
     1
173
     0
176
     1
  0
VISUALSTYLE
  5
2C
102
{ACAD_REACTORS
330
2A
102
}
330
2A
100
AcDbVisualStyle
  2
FlatWithEdges
 70
     1
177
     2
291
     1
 71
     2
176
     1
 72
     1
176
     1
 73
     1
176
     1
 90
        2
176
     1
 40
-0.6
176
     1
 41
30.0
176
     1
 62
     5
 63
     7
421
 16777215
176
     1
 74
     1
176
     1
 91
        4
176
     1
 64
     7
176
     1
 65
   257
176
     1
 75
     1
176
     1
175
     1
176
     1
 42
1.0
176
     1
 92
        0
176
     1
 66
   257
176
     1
 43
1.0
176
     1
 76
     1
176
     1
 77
     6
176
     1
 78
     2
176
     1
 67
     7
176
     1
 79
     5
176
     1
170
     0
176
     1
171
     0
176
     1
290
     0
176
     1
 93
       13
176
     1
 44
0.0
176
     1
173
     0
176
     1
  0
VISUALSTYLE
  5
2D
102
{ACAD_REACTORS
330
2A
102
}
330
2A
100
AcDbVisualStyle
  2
Gouraud
 70
     2
177
     2
291
     1
 71
     2
176
     1
 72
     2
176
     1
 73
     1
176
     1
 90
        2
176
     1
 40
-0.6
176
     1
 41
30.0
176
     1
 62
     5
 63
     7
421
 16777215
176
     1
 74
     0
176
     1
 91
        4
176
     1
 64
     7
176
     1
 65
   257
176
     1
 75
     1
176
     1
175
     1
176
     1
 42
1.0
176
     1
 92
        0
176
     1
 66
     7
176
     1
 43
1.0
176
     1
 76
     1
176
     1
 77
     6
176
     1
 78
     2
176
     1
 67
     7
176
     1
 79
     5
176
     1
170
     0
176
     1
171
     0
176
     1
290
     0
176
     1
 93
       13
176
     1
 44
0.0
176
     1
173
     0
176
     1
  0
VISUALSTYLE
  5
2E
102
{ACAD_REACTORS
330
2A
102
}
330
2A
100
AcDbVisualStyle
  2
GouraudWithEdges
 70
     3
177
     2
291
     1
 71
     2
176
     1
 72
     2
176
     1
 73
     1
176
     1
 90
        2
176
     1
 40
-0.6
176
     1
 41
30.0
176
     1
 62
     5
 63
     7
421
 16777215
176
     1
 74
     1
176
     1
 91
        4
176
     1
 64
     7
176
     1
 65
   257
176
     1
 75
     1
176
     1
175
     1
176
     1
 42
1.0
176
     1
 92
        0
176
     1
 66
   257
176
     1
 43
1.0
176
     1
 76
     1
176
     1
 77
     6
176
     1
 78
     2
176
     1
 67
     7
176
     1
 79
     5
176
     1
170
     0
176
     1
171
     0
176
     1
290
     0
176
     1
 93
       13
176
     1
 44
0.0
176
     1
173
     0
176
     1
  0
VISUALSTYLE
  5
38
102
{ACAD_REACTORS
330
2A
102
}
330
2A
100
AcDbVisualStyle
  2
Linepattern
 70
    14
177
     2
291
     1
 71
     2
176
     1
 72
     2
176
     1
 73
     0
176
     1
 90
        0
176
     1
 40
-0.6
176
     1
 41
-30.0
176
     1
 62
     5
 63
     7
421
 16777215
176
     1
 74
     1
176
     1
 91
        4
176
     1
 64
     7
176
     1
 65
   257
176
     1
 75
     7
176
     1
175
     7
176
     1
 42
1.0
176
     1
 92
        8
176
     1
 66
     7
176
     1
 43
1.0
176
     1
 76
     1
176
     1
 77
     6
176
     1
 78
     2
176
     1
 67
     7
176
     1
 79
     5
176
     1
170
     0
176
     1
171
     0
176
     1
290
     0
176
     1
 93
        1
176
     1
 44
0.0
176
     1
173
     0
176
     1
  0
VISUALSTYLE
  5
33
102
{ACAD_REACTORS
330
2A
102
}
330
2A
100
AcDbVisualStyle
  2
Realistic
 70
     8
177
     2
291
     0
 71
     2
176
     1
 72
     2
176
     1
 73
     0
176
     1
 90
        0
176
     1
 40
-0.6
176
     1
 41
-30.0
176
     1
 62
     5
 63
     7
421
 16777215
176
     1
 74
     1
176
     1
 91
        0
176
     1
 64
     7
176
     1
 65
   257
176
     1
 75
     1
176
     1
175
     1
176
     1
 42
1.0
176
     1
 92
        8
176
     1
 66
     8
424
  7895160
176
     1
 43
1.0
176
     1
 76
     1
176
     1
 77
     6
176
     1
 78
     2
176
     1
 67
     7
176
     1
 79
     5
176
     1
170
     0
176
     1
171
     0
176
     1
290
     0
176
     1
 93
       13
176
     1
 44
0.0
176
     1
173
     0
176
     1
  0
VISUALSTYLE
  5
37
102
{ACAD_REACTORS
330
2A
102
}
330
2A
100
AcDbVisualStyle
  2
Thicken
 70
    13
177
     2
291
     1
 71
     2
176
     1
 72
     2
176
     1
 73
     0
176
     1
 90
        0
176
     1
 40
-0.6
176
     1
 41
-30.0
176
     1
 62
     5
 63
     7
421
 16777215
176
     1
 74
     1
176
     1
 91
        4
176
     1
 64
     7
176
     1
 65
   257
176
     1
 75
     1
176
     1
175
     1
176
     1
 42
1.0
176
     1
 92
       12
176
     1
 66
     7
176
     1
 43
1.0
176
     1
 76
     1
176
     1
 77
     6
176
     1
 78
     2
176
     1
 67
     7
176
     1
 79
     5
176
     1
170
     0
176
     1
171
     0
176
     1
290
     0
176
     1
 93
        1
176
     1
 44
0.0
176
     1
173
     0
176
     1
  0
ENDSEC
  0
EOF
