  0
SECTION
  2
HEADER
  9
$ACADVER
  1
AC1024
  9
$ACADMAINTVER
 70
     6
  9
$DWGCODEPAGE
  3
UNDEFINED
  9
$INSBASE
 10
0.0
 20
0.0
 30
0.0
  9
$EXTMIN
 10
1.000000000000000E+20
 20
1.000000000000000E+20
 30
1.000000000000000E+20
  9
$EXTMAX
 10
-1.000000000000000E+20
 20
-1.000000000000000E+20
 30
-1.000000000000000E+20
  9
$LIMMIN
 10
0.0
 20
0.0
  9
$LIMMAX
 10
12.0
 20
9.0
  9
$ORTHOMODE
 70
     0
  9
$REGENMODE
 70
     1
  9
$FILLMODE
 70
     1
  9
$QTEXTMODE
 70
     0
  9
$MIRRTEXT
 70
     1
  9
$LTSCALE
 40
1.0
  9
$ATTMODE
 70
     1
  9
$TEXTSIZE
 40
0.2
  9
$TRACEWID
 40
0.05
  9
$TEXTSTYLE
  7
Standard
  9
$CLAYER
  8
0
  9
$CELTYPE
  6
ByLayer
  9
$CECOLOR
 62
   256
  9
$CELTSCALE
 40
1.0
  9
$DISPSILH
 70
     0
  9
$DIMSCALE
 40
1.0
  9
$DIMASZ
 40
0.18
  9
$DIMEXO
 40
0.0625
  9
$DIMDLI
 40
0.38
  9
$DIMRND
 40
0.0
  9
$DIMDLE
 40
0.0
  9
$DIMEXE
 40
0.18
  9
$DIMTP
 40
0.0
  9
$DIMTM
 40
0.0
  9
$DIMTXT
 40
0.18
  9
$DIMCEN
 40
0.09
  9
$DIMTSZ
 40
0.0
  9
$DIMTOL
 70
     0
  9
$DIMLIM
 70
     0
  9
$DIMTIH
 70
     1
  9
$DIMTOH
 70
     1
  9
$DIMSE1
 70
     0
  9
$DIMSE2
 70
     0
  9
$DIMTAD
 70
     0
  9
$DIMZIN
 70
     0
  9
$DIMBLK
  1

  9
$DIMASO
 70
     1
  9
$DIMSHO
 70
     1
  9
$DIMPOST
  1

  9
$DIMAPOST
  1

  9
$DIMALT
 70
     0
  9
$DIMALTD
 70
     2
  9
$DIMALTF
 40
25.4
  9
$DIMLFAC
 40
1.0
  9
$DIMTOFL
 70
     0
  9
$DIMTVP
 40
0.0
  9
$DIMTIX
 70
     0
  9
$DIMSOXD
 70
     0
  9
$DIMSAH
 70
     0
  9
$DIMBLK1
  1

  9
$DIMBLK2
  1

  9
$DIMSTYLE
  2
Standard
  9
$DIMCLRD
 70
     0
  9
$DIMCLRE
 70
     0
  9
$DIMCLRT
 70
     0
  9
$DIMTFAC
 40
1.0
  9
$DIMGAP
 40
0.09
  9
$DIMJUST
 70
     0
  9
$DIMSD1
 70
     0
  9
$DIMSD2
 70
     0
  9
$DIMTOLJ
 70
     1
  9
$DIMTZIN
 70
     0
  9
$DIMALTZ
 70
     0
  9
$DIMALTTZ
 70
     0
  9
$DIMUPT
 70
     0
  9
$DIMDEC
 70
     4
  9
$DIMTDEC
 70
     4
  9
$DIMALTU
 70
     2
  9
$DIMALTTD
 70
     2
  9
$DIMTXSTY
  7
Standard
  9
$DIMAUNIT
 70
     0
  9
$DIMADEC
 70
     0
  9
$DIMALTRND
 40
0.0
  9
$DIMAZIN
 70
     0
  9
$DIMDSEP
 70
    46
  9
$DIMATFIT
 70
     3
  9
$DIMFRAC
 70
     0
  9
$DIMLDRBLK
  1

  9
$DIMLUNIT
 70
     2
  9
$DIMLWD
 70
    -2
  9
$DIMLWE
 70
    -2
  9
$DIMTMOVE
 70
     0
  9
$DIMFXL
 40
1.0
  9
$DIMFXLON
 70
     0
  9
$DIMJOGANG
 40
0.7853981633974483
  9
$DIMTFILL
 70
     0
  9
$DIMTFILLCLR
 70
     0
  9
$DIMARCSYM
 70
     0
  9
$DIMLTYPE
  6

  9
$DIMLTEX1
  6

  9
$DIMLTEX2
  6

  9
$DIMTXTDIRECTION
 70
     0
  9
$LUNITS
 70
     2
  9
$LUPREC
 70
     4
  9
$SKETCHINC
 40
0.1
  9
$FILLETRAD
 40
0.5
  9
$AUNITS
 70
     0
  9
$AUPREC
 70
     0
  9
$MENU
  1
.
  9
$ELEVATION
 40
0.0
  9
$PELEVATION
 40
0.0
  9
$THICKNESS
 40
0.0
  9
$LIMCHECK
 70
     0
  9
$CHAMFERA
 40
0.5
  9
$CHAMFERB
 40
0.5
  9
$CHAMFERC
 40
1.0
  9
$CHAMFERD
 40
0.0
  9
$SKPOLY
 70
     0
  9
$TDCREATE
 40
2457526.650833333
  9
$TDUCREATE
 40
2457526.859166667
  9
$TDUPDATE
 40
2457526.650833333
  9
$TDUUPDATE
 40
2457526.859166667
  9
$TDINDWG
 40
0.0000000116
  9
$TDUSRTIMER
 40
0.0000000116
  9
$USRTIMER
 70
     1
  9
$ANGBASE
 50
0.0
  9
$ANGDIR
 70
     0
  9
$PDMODE
 70
     0
  9
$PDSIZE
 40
0.0
  9
$PLINEWID
 40
0.0
  9
$SPLFRAME
 70
     0
  9
$SPLINETYPE
 70
     6
  9
$SPLINESEGS
 70
     8
  9
$HANDSEED
  5
4D
  9
$SURFTAB1
 70
     6
  9
$SURFTAB2
 70
     6
  9
$SURFTYPE
 70
     6
  9
$SURFU
 70
     6
  9
$SURFV
 70
     6
  9
$UCSBASE
  2

  9
$UCSNAME
  2

  9
$UCSORG
 10
0.0
 20
0.0
 30
0.0
  9
$UCSXDIR
 10
1.0
 20
0.0
 30
0.0
  9
$UCSYDIR
 10
0.0
 20
1.0
 30
0.0
  9
$UCSORTHOREF
  2

  9
$UCSORTHOVIEW
 70
     0
  9
$UCSORGTOP
 10
0.0
 20
0.0
 30
0.0
  9
$UCSORGBOTTOM
 10
0.0
 20
0.0
 30
0.0
  9
$UCSORGLEFT
 10
0.0
 20
0.0
 30
0.0
  9
$UCSORGRIGHT
 10
0.0
 20
0.0
 30
0.0
  9
$UCSORGFRONT
 10
0.0
 20
0.0
 30
0.0
  9
$UCSORGBACK
 10
0.0
 20
0.0
 30
0.0
  9
$PUCSBASE
  2

  9
$PUCSNAME
  2

  9
$PUCSORG
 10
0.0
 20
0.0
 30
0.0
  9
$PUCSXDIR
 10
1.0
 20
0.0
 30
0.0
  9
$PUCSYDIR
 10
0.0
 20
1.0
 30
0.0
  9
$PUCSORTHOREF
  2

  9
$PUCSORTHOVIEW
 70
     0
  9
$PUCSORGTOP
 10
0.0
 20
0.0
 30
0.0
  9
$PUCSORGBOTTOM
 10
0.0
 20
0.0
 30
0.0
  9
$PUCSORGLEFT
 10
0.0
 20
0.0
 30
0.0
  9
$PUCSORGRIGHT
 10
0.0
 20
0.0
 30
0.0
  9
$PUCSORGFRONT
 10
0.0
 20
0.0
 30
0.0
  9
$PUCSORGBACK
 10
0.0
 20
0.0
 30
0.0
  9
$USERI1
 70
     0
  9
$USERI2
 70
     0
  9
$USERI3
 70
     0
  9
$USERI4
 70
     0
  9
$USERI5
 70
     0
  9
$USERR1
 40
0.0
  9
$USERR2
 40
0.0
  9
$USERR3
 40
0.0
  9
$USERR4
 40
0.0
  9
$USERR5
 40
0.0
  9
$WORLDVIEW
 70
     1
  9
$SHADEDGE
 70
     3
  9
$SHADEDIF
 70
    70
  9
$TILEMODE
 70
     1
  9
$MAXACTVP
 70
    64
  9
$PINSBASE
 10
0.0
 20
0.0
 30
0.0
  9
$PLIMCHECK
 70
     0
  9
$PEXTMIN
 10
1.000000000000000E+20
 20
1.000000000000000E+20
 30
1.000000000000000E+20
  9
$PEXTMAX
 10
-1.000000000000000E+20
 20
-1.000000000000000E+20
 30
-1.000000000000000E+20
  9
$PLIMMIN
 10
0.0
 20
0.0
  9
$PLIMMAX
 10
12.0
 20
9.0
  9
$UNITMODE
 70
     0
  9
$VISRETAIN
 70
     1
  9
$PLINEGEN
 70
     0
  9
$PSLTSCALE
 70
     1
  9
$TREEDEPTH
 70
  3020
  9
$CMLSTYLE
  2
Standard
  9
$CMLJUST
 70
     0
  9
$CMLSCALE
 40
1.0
  9
$PROXYGRAPHICS
 70
     1
  9
$MEASUREMENT
 70
     0
  9
$CELWEIGHT
370
    -1
  9
$ENDCAPS
280
     0
  9
$JOINSTYLE
280
     0
  9
$LWDISPLAY
290
     1
  9
$INSUNITS
 70
     1
  9
$HYPERLINKBASE
  1

  9
$STYLESHEET
  1

  9
$XEDIT
290
     1
  9
$CEPSNTYPE
380
     0
  9
$PSTYLEMODE
290
     1
  9
$FINGERPRINTGUID
  2
{FAE1ED56-E1DA-990F-7EE3-5F634BC03013}
  9
$VERSIONGUID
  2
{FAEB1C32-E019-11D5-929B-00C0DF256EC4}
  9
$EXTNAMES
290
     1
  9
$PSVPSCALE
 40
0.0
  9
$OLESTARTUP
290
     0
  9
$SORTENTS
280
   127
  9
$INDEXCTL
280
     0
  9
$HIDETEXT
280
     1
  9
$XCLIPFRAME
280
     2
  9
$HALOGAP
280
     0
  9
$OBSCOLOR
 70
   257
  9
$OBSLTYPE
280
     0
  9
$INTERSECTIONDISPLAY
280
     0
  9
$INTERSECTIONCOLOR
 70
   257
  9
$DIMASSOC
280
     2
  9
$PROJECTNAME
  1

  9
$CAMERADISPLAY
290
     0
  9
$LENSLENGTH
 40
50.0
  9
$CAMERAHEIGHT
 40
0.0
  9
$STEPSPERSEC
 40
2.0
  9
$STEPSIZE
 40
6.0
  9
$3DDWFPREC
 40
2.0
  9
$PSOLWIDTH
 40
0.25
  9
$PSOLHEIGHT
 40
4.0
  9
$LOFTANG1
 40
1.570796326794897
  9
$LOFTANG2
 40
1.570796326794897
  9
$LOFTMAG1
 40
0.0
  9
$LOFTMAG2
 40
0.0
  9
$LOFTPARAM
 70
     7
  9
$LOFTNORMALS
280
     1
  9
$LATITUDE
 40
37.795
  9
$LONGITUDE
 40
-122.394
  9
$NORTHDIRECTION
 40
0.0
  9
$TIMEZONE
 70
 -8000
  9
$LIGHTGLYPHDISPLAY
280
     1
  9
$TILEMODELIGHTSYNCH
280
     1
  9
$CMATERIAL
347
3C
  9
$SOLIDHIST
280
     1
  9
$SHOWHIST
280
     1
  9
$DWFFRAME
280
     2
  9
$DGNFRAME
280
     2
  9
$REALWORLDSCALE
290
     1
  9
$INTERFERECOLOR
 62
   256
  9
$CSHADOW
280
     0
  9
$SHADOWPLANELOCATION
 40
0.0
  0
ENDSEC
  0
SECTION
  2
CLASSES
  0
CLASS
  1
ACDBDICTIONARYWDFLT
  2
AcDbDictionaryWithDefault
  3
ObjectDBX Classes
 90
        0
 91
        4
280
     0
281
     0
  0
CLASS
  1
VISUALSTYLE
  2
AcDbVisualStyle
  3
ObjectDBX Classes
 90
     4095
 91
        4
280
     0
281
     0
  0
CLASS
  1
MATERIAL
  2
AcDbMaterial
  3
ObjectDBX Classes
 90
     1153
 91
        4
280
     0
281
     0
  0
CLASS
  1
SUN
  2
AcDbSun
  3
SCENEOE
 90
     1024
 91
        4
280
     0
281
     0
  0
ENDSEC
  0
SECTION
  2
TABLES
  0
TABLE
  2
VPORT
  5
8
330
0
100
AcDbSymbolTable
 70
     1
  0
VPORT
  5
29
330
8
100
AcDbSymbolTableRecord
100
AcDbViewportTableRecord
  2
*Active
 70
     0
 10
0.0
 20
0.0
 11
1.0
 21
1.0
 12
0.0
 22
0.0
 13
0.0
 23
0.0
 14
0.5
 24
0.5
 15
0.5
 25
0.5
 16
0.0
 26
0.0
 36
1.0
 17
50.0
 27
62.5
 37
0.0
 40
125.0
 41
0.8
 42
50.0
 43
0.0
 44
0.0
 50
0.0
 51
0.0
 71
     0
 72
   100
 73
     1
 74
     3
 75
     0
 76
     0
 77
     0
 78
     0
281
     0
 65
     1
110
0.0
120
0.0
130
0.0
111
1.0
121
0.0
131
0.0
112
0.0
122
1.0
132
0.0
 79
     0
146
0.0
 60
     3
 61
     5
292
     1
282
     1
141
0.0
142
0.0
 63
   250
361
3F
  0
ENDTAB
  0
TABLE
  2
LTYPE
  5
5
330
0
100
AcDbSymbolTable
 70
     1
  0
LTYPE
  5
14
330
5
100
AcDbSymbolTableRecord
100
AcDbLinetypeTableRecord
  2
ByBlock
 70
     0
  3

 72
    65
 73
     0
 40
0.0
  0
LTYPE
  5
15
330
5
100
AcDbSymbolTableRecord
100
AcDbLinetypeTableRecord
  2
ByLayer
 70
     0
  3

 72
    65
 73
     0
 40
0.0
  0
LTYPE
  5
16
330
5
100
AcDbSymbolTableRecord
100
AcDbLinetypeTableRecord
  2
Continuous
 70
     0
  3
Solid line
 72
    65
 73
     0
 40
0.0
  0
ENDTAB
  0
TABLE
  2
LAYER
  5
2
330
0
100
AcDbSymbolTable
 70
     2
  0
LAYER
  5
10
330
2
100
AcDbSymbolTableRecord
100
AcDbLayerTableRecord
  2
0
 70
     0
 62
     7
  6
Continuous
370
    -3
390
F
347
3E
  0
LAYER
  5
40
330
2
100
AcDbSymbolTableRecord
100
AcDbLayerTableRecord
  2
Layer 1
 70
     0
 62
     7
  6
Continuous
370
    -3
390
F
347
3E
  0
ENDTAB
  0
TABLE
  2
STYLE
  5
3
330
0
100
AcDbSymbolTable
 70
     1
  0
STYLE
  5
11
330
3
100
AcDbSymbolTableRecord
100
AcDbTextStyleTableRecord
  2
Standard
 70
     0
 40
0.0
 41
1.0
 50
0.0
 71
     0
 42
0.2
  3
txt
  4

  0
ENDTAB
  0
TABLE
  2
VIEW
  5
6
330
0
100
AcDbSymbolTable
 70
     0
  0
ENDTAB
  0
TABLE
  2
UCS
  5
7
330
0
100
AcDbSymbolTable
 70
     0
  0
ENDTAB
  0
TABLE
  2
APPID
  5
9
330
0
100
AcDbSymbolTable
 70
     1
  0
APPID
  5
12
330
9
100
AcDbSymbolTableRecord
100
AcDbRegAppTableRecord
  2
ACAD
 70
     0
  0
ENDTAB
  0
TABLE
  2
DIMSTYLE
  5
A
330
0
100
AcDbSymbolTable
 70
     1
100
AcDbDimStyleTable
  0
DIMSTYLE
105
27
330
A
100
AcDbSymbolTableRecord
100
AcDbDimStyleTableRecord
  2
Standard
 70
     0
178
     0
340
11
  0
ENDTAB
  0
TABLE
  2
BLOCK_RECORD
  5
1
330
0
100
AcDbSymbolTable
 70
     1
  0
BLOCK_RECORD
  5
1F
330
1
100
AcDbSymbolTableRecord
100
AcDbBlockTableRecord
  2
*Model_Space
340
22
 70
     0
280
     1
281
     0
  0
BLOCK_RECORD
  5
1B
330
1
100
AcDbSymbolTableRecord
100
AcDbBlockTableRecord
  2
*Paper_Space
340
1E
 70
     0
280
     1
281
     0
  0
BLOCK_RECORD
  5
23
330
1
100
AcDbSymbolTableRecord
100
AcDbBlockTableRecord
  2
*Paper_Space0
340
26
 70
     0
280
     1
281
     0
  0
ENDTAB
  0
ENDSEC
  0
SECTION
  2
BLOCKS
  0
BLOCK
  5
20
330
1F
100
AcDbEntity
  8
0
100
AcDbBlockBegin
  2
*Model_Space
 70
     0
 10
0.0
 20
0.0
 30
0.0
  3
*Model_Space
  1

  0
ENDBLK
  5
21
330
1F
100
AcDbEntity
  8
0
100
AcDbBlockEnd
  0
BLOCK
  5
1C
330
1B
100
AcDbEntity
 67
     1
  8
0
100
AcDbBlockBegin
  2
*Paper_Space
 70
     0
 10
0.0
 20
0.0
 30
0.0
  3
*Paper_Space
  1

  0
ENDBLK
  5
1D
330
1B
100
AcDbEntity
 67
     1
  8
0
100
AcDbBlockEnd
  0
BLOCK
  5
24
330
23
100
AcDbEntity
  8
0
100
AcDbBlockBegin
  2
*Paper_Space0
 70
     0
 10
0.0
 20
0.0
 30
0.0
  3
*Paper_Space0
  1

  0
ENDBLK
  5
25
330
23
100
AcDbEntity
  8
0
100
AcDbBlockEnd
  0
ENDSEC
  0
SECTION
  2
ENTITIES
  0
SPLINE
  5
41
330
1F
100
AcDbEntity
  8
Layer 1
370
     0
100
AcDbSpline
210
0.0
220
0.0
230
1.0
 70
    11
 71
     3
 72
   104
 73
   100
 74
     0
 42
0.0000000001
 43
0.0000000001
 12
1.0
 22
0.0
 32
0.0
 13
1.0
 23
0.0
 33
0.0
 40
0.0
 40
0.0
 40
0.0
 40
0.0
 40
1.0
 40
1.0
 40
1.0
 40
2.0
 40
2.0
 40
2.0
 40
3.0
 40
3.0
 40
3.0
 40
4.0
 40
4.0
 40
4.0
 40
5.0
 40
5.0
 40
5.0
 40
6.0
 40
6.0
 40
6.0
 40
7.0
 40
7.0
 40
7.0
 40
8.0
 40
8.0
 40
8.0
 40
9.0
 40
9.0
 40
9.0
 40
10.0
 40
10.0
 40
10.0
 40
11.0
 40
11.0
 40
11.0
 40
12.0
 40
12.0
 40
12.0
 40
13.0
 40
13.0
 40
13.0
 40
14.0
 40
14.0
 40
14.0
 40
15.0
 40
15.0
 40
15.0
 40
16.0
 40
16.0
 40
16.0
 40
17.0
 40
17.0
 40
17.0
 40
18.0
 40
18.0
 40
18.0
 40
19.0
 40
19.0
 40
19.0
 40
20.0
 40
20.0
 40
20.0
 40
21.0
 40
21.0
 40
21.0
 40
22.0
 40
22.0
 40
22.0
 40
23.0
 40
23.0
 40
23.0
 40
24.0
 40
24.0
 40
24.0
 40
25.0
 40
25.0
 40
25.0
 40
26.0
 40
26.0
 40
26.0
 40
27.0
 40
27.0
 40
27.0
 40
28.0
 40
28.0
 40
28.0
 40
29.0
 40
29.0
 40
29.0
 40
30.0
 40
30.0
 40
30.0
 40
31.0
 40
31.0
 40
31.0
 40
32.0
 40
32.0
 40
32.0
 40
33.0
 40
33.0
 40
33.0
 40
33.0
 10
77.87799835205078
 20
99.95499992370605
 30
0.0
 10
69.44099426269531
 20
107.3559989929199
 30
0.0
 10
56.60099792480469
 20
109.0380001068115
 30
0.0
 10
51.88899993896484
 20
108.7859992980957
 30
0.0
 10
50.93199920654297
 20
108.7349987030029
 30
0.0
 10
49.26699829101562
 20
108.5539989471436
 30
0.0
 10
49.26699829101562
 20
108.5539989471436
 30
0.0
 10
48.16999816894531
 20
110.6079998016357
 30
0.0
 10
42.70100021362305
 20
117.826000213623
 30
0.0
 10
31.26000022888184
 20
119.4710001945496
 30
0.0
 10
31.26000022888184
 20
119.4710001945496
 30
0.0
 10
27.84700012207031
 20
119.9620003700256
 30
0.0
 10
27.84700012207031
 20
119.9620003700256
 30
0.0
 10
27.33300018310547
 20
120.03600025177
 30
0.0
 10
26.9950008392334
 20
119.4410004615784
 30
0.0
 10
27.32200050354004
 20
119.0380001068115
 30
0.0
 10
29.5
 20
116.3559999465942
 30
0.0
 10
34.74900054931641
 20
109.6180000305176
 30
0.0
 10
35.10200119018555
 20
106.556999206543
 30
0.0
 10
35.12700271606445
 20
106.3389987945557
 30
0.0
 10
35.03000259399414
 20
106.1259994506836
 30
0.0
 10
34.84600067138672
 20
106.0059986114502
 30
0.0
 10
32.44100189208984
 20
104.4509983062744
 30
0.0
 10
17.88300132751465
 20
99.58499908447266
 30
0.0
 10
14.39200019836426
 20
75.30799865722656
 30
0.0
 10
12.75899982452393
 20
63.95399856567383
 30
0.0
 10
19.0310001373291
 20
54.20700073242188
 30
0.0
 10
19.0310001373291
 20
54.20700073242188
 30
0.0
 10
17.07699966430664
 20
52.55400085449219
 30
0.0
 10
12.33200073242188
 20
45.64800262451172
 30
0.0
 10
12.32600021362305
 20
39.01000213623047
 30
0.0
 10
12.32100009918213
 20
33.74500274658203
 30
0.0
 10
13.35799980163574
 20
31.33100128173828
 30
0.0
 10
14.12600040435791
 20
30.26599884033203
 30
0.0
 10
14.41300010681152
 20
29.86699676513672
 30
0.0
 10
15.03800010681152
 20
30.00099945068359
 30
0.0
 10
15.14400005340576
 20
30.48099517822266
 30
0.0
 10
15.67399978637695
 20
32.88799285888672
 30
0.0
 10
17.18899917602539
 20
38.96499633789062
 30
0.0
 10
19.40399932861328
 20
41.17599487304688
 30
0.0
 10
22.1919994354248
 20
43.95899200439453
 30
0.0
 10
25.42599868774414
 20
44.30199432373047
 30
0.0
 10
24.70399856567383
 20
47.58399200439453
 30
0.0
 10
24.70399856567383
 20
47.58399200439453
 30
0.0
 10
24.2289981842041
 20
49.74098968505859
 30
0.0
 10
24.2289981842041
 20
49.74098968505859
 30
0.0
 10
24.1309986114502
 20
50.18798828125
 30
0.0
 10
24.57099914550781
 20
50.56198883056641
 30
0.0
 10
24.99699783325195
 20
50.39398956298828
 30
0.0
 10
26.73199844360352
 20
49.70799255371094
 30
0.0
 10
30.29399871826172
 20
48.8389892578125
 30
0.0
 10
32.50599670410156
 20
52.02799224853516
 30
0.0
 10
34.56999588012695
 20
55.00299072265625
 30
0.0
 10
38.99899673461914
 20
55.20999145507812
 30
0.0
 10
41.58499908447266
 20
55.04499053955078
 30
0.0
 10
42.15999984741211
 20
55.00798797607422
 30
0.0
 10
42.42200088500977
 20
55.74899291992188
 30
0.0
 10
41.95000076293945
 20
56.08099365234375
 30
0.0
 10
38.85200119018555
 20
58.25799560546875
 30
0.0
 10
31.59600067138672
 20
60.43299102783203
 30
0.0
 10
24.03600120544434
 20
56.78099060058594
 30
0.0
 10
23.67500114440918
 20
56.60698699951172
 30
0.0
 10
23.25100135803223
 20
56.85198974609375
 30
0.0
 10
23.22100067138672
 20
57.25199127197266
 30
0.0
 10
22.98400115966797
 20
60.468994140625
 30
0.0
 10
22.84800148010254
 20
73.73099136352539
 30
0.0
 10
30.5260009765625
 20
79.77599334716797
 30
0.0
 10
38.52899932861328
 20
86.07699203491211
 30
0.0
 10
48.12100219726562
 20
85.82199478149414
 30
0.0
 10
50.10700225830078
 20
85.6929931640625
 30
0.0
 10
50.3380012512207
 20
85.67799377441406
 30
0.0
 10
50.53600311279297
 20
85.52499389648438
 30
0.0
 10
50.61000061035156
 20
85.30499267578125
 30
0.0
 10
51.05100250244141
 20
83.98799133300781
 30
0.0
 10
52.25600051879883
 20
79.21499252319336
 30
0.0
 10
48.79500198364258
 20
73.96499252319336
 30
0.0
 10
48.79500198364258
 20
73.96499252319336
 30
0.0
 10
46.2390022277832
 20
70.08599090576172
 30
0.0
 10
46.2390022277832
 20
70.08599090576172
 30
0.0
 10
45.8910026550293
 20
69.55799102783203
 30
0.0
 10
46.53100204467773
 20
68.94099044799805
 30
0.0
 10
47.04700088500977
 20
69.30699157714844
 30
0.0
 10
50.48100280761719
 20
71.74599075317383
 30
0.0
 10
56.64400100708008
 20
76.91499328613281
 30
0.0
 10
57.93000030517578
 20
83.3379898071289
 30
0.0
 10
58.00099945068359
 20
83.69398880004883
 30
0.0
 10
58.37400054931641
 20
83.89899063110352
 30
0.0
 10
58.70899963378906
 20
83.75999069213867
 30
0.0
 10
61.27299880981445
 20
82.69998931884766
 30
0.0
 10
71.26599884033203
 20
78.21599197387695
 30
0.0
 10
71.26599884033203
 20
67.54898834228516
 30
0.0
 10
71.26599884033203
 20
57.49298858642578
 30
0.0
 10
74.92399597167969
 20
58.43698883056641
 30
0.0
 10
76.37200164794922
 20
58.73899078369141
 30
0.0
 10
79.38300323486328
 20
59.36698913574219
 30
0.0
 10
79.74100494384766
 20
67.30599212646484
 30
0.0
 10
79.572998046875
 20
68.90499114990234
 30
0.0
 10
79.57099914550781
 20
68.90499877929688
 30
0.0
 10
98.88500213623047
 20
81.52799987792969
 30
0.0
 10
77.87799835205078
 20
99.95499992370605
 30
0.0
  0
SPLINE
  5
42
330
1F
100
AcDbEntity
  8
Layer 1
370
     0
100
AcDbSpline
210
0.0
220
0.0
230
1.0
 70
    11
 71
     3
 72
    26
 73
    22
 74
     0
 42
0.0000000001
 43
0.0000000001
 12
1.0
 22
0.0
 32
0.0
 13
1.0
 23
0.0
 33
0.0
 40
0.0
 40
0.0
 40
0.0
 40
0.0
 40
1.0
 40
1.0
 40
1.0
 40
2.0
 40
2.0
 40
2.0
 40
3.0
 40
3.0
 40
3.0
 40
4.0
 40
4.0
 40
4.0
 40
5.0
 40
5.0
 40
5.0
 40
6.0
 40
6.0
 40
6.0
 40
7.0
 40
7.0
 40
7.0
 40
7.0
 10
25.59600067138672
 20
55.38800048828125
 30
0.0
 10
25.71600151062012
 20
55.44699859619141
 30
0.0
 10
28.56900024414062
 20
56.84300231933594
 30
0.0
 10
31.26100158691406
 20
56.77100372314453
 30
0.0
 10
31.53400230407715
 20
56.76300048828125
 30
0.0
 10
31.74900245666504
 20
56.53600311279297
 30
0.0
 10
31.74100112915039
 20
56.26300048828125
 30
0.0
 10
31.73300170898438
 20
55.98999786376953
 30
0.0
 10
31.50400161743164
 20
55.77400207519531
 30
0.0
 10
31.23300170898438
 20
55.78299713134766
 30
0.0
 10
28.78200149536133
 20
55.85299682617188
 30
0.0
 10
26.06300163269043
 20
54.51599884033203
 30
0.0
 10
26.03600120544434
 20
54.50299835205078
 30
0.0
 10
25.96500205993652
 20
54.46799468994141
 30
0.0
 10
25.89000129699707
 20
54.45099639892578
 30
0.0
 10
25.81600189208984
 20
54.45099639892578
 30
0.0
 10
25.63400268554688
 20
54.45099639892578
 30
0.0
 10
25.4590015411377
 20
54.55199432373047
 30
0.0
 10
25.37300109863281
 20
54.72599792480469
 30
0.0
 10
25.25200080871582
 20
54.97000122070312
 30
0.0
 10
25.35099983215332
 20
55.26599884033203
 30
0.0
 10
25.59600067138672
 20
55.38800048828125
 30
0.0
  0
SPLINE
  5
43
330
1F
100
AcDbEntity
  8
Layer 1
370
     0
100
AcDbSpline
210
0.0
220
0.0
230
1.0
 70
    11
 71
     3
 72
    26
 73
    22
 74
     0
 42
0.0000000001
 43
0.0000000001
 12
1.0
 22
0.0
 32
0.0
 13
1.0
 23
0.0
 33
0.0
 40
0.0
 40
0.0
 40
0.0
 40
0.0
 40
1.0
 40
1.0
 40
1.0
 40
2.0
 40
2.0
 40
2.0
 40
3.0
 40
3.0
 40
3.0
 40
4.0
 40
4.0
 40
4.0
 40
5.0
 40
5.0
 40
5.0
 40
6.0
 40
6.0
 40
6.0
 40
7.0
 40
7.0
 40
7.0
 40
7.0
 10
17.63599967956543
 20
62.69699859619141
 30
0.0
 10
15.45999908447266
 20
69.61100006103516
 30
0.0
 10
16.76799964904785
 20
76.10699844360352
 30
0.0
 10
16.82499885559082
 20
76.37999725341797
 30
0.0
 10
16.8809986114502
 20
76.6469955444336
 30
0.0
 10
17.14199829101562
 20
76.81999588012695
 30
0.0
 10
17.40899848937988
 20
76.76299667358398
 30
0.0
 10
17.67599868774414
 20
76.7079963684082
 30
0.0
 10
17.84799766540527
 20
76.44599533081055
 30
0.0
 10
17.79299926757812
 20
76.17799758911133
 30
0.0
 10
17.77999877929688
 20
76.11299896240234
 30
0.0
 10
16.48299980163574
 20
69.65299606323242
 30
0.0
 10
18.57899856567383
 20
62.99299621582031
 30
0.0
 10
18.6609992980957
 20
62.73299789428711
 30
0.0
 10
18.51599884033203
 20
62.45499801635742
 30
0.0
 10
18.2559986114502
 20
62.37299728393555
 30
0.0
 10
18.20699882507324
 20
62.35799789428711
 30
0.0
 10
18.15699768066406
 20
62.34999847412109
 30
0.0
 10
18.10699844360352
 20
62.34999847412109
 30
0.0
 10
17.89800071716309
 20
62.35100173950195
 30
0.0
 10
17.70299911499023
 20
62.48600006103516
 30
0.0
 10
17.63599967956543
 20
62.69699859619141
 30
0.0
  0
SPLINE
  5
44
330
1F
100
AcDbEntity
  8
Layer 1
370
     0
100
AcDbSpline
210
0.0
220
0.0
230
1.0
 70
    11
 71
     3
 72
    26
 73
    22
 74
     0
 42
0.0000000001
 43
0.0000000001
 12
1.0
 22
0.0
 32
0.0
 13
1.0
 23
0.0
 33
0.0
 40
0.0
 40
0.0
 40
0.0
 40
0.0
 40
1.0
 40
1.0
 40
1.0
 40
2.0
 40
2.0
 40
2.0
 40
3.0
 40
3.0
 40
3.0
 40
4.0
 40
4.0
 40
4.0
 40
5.0
 40
5.0
 40
5.0
 40
6.0
 40
6.0
 40
6.0
 40
7.0
 40
7.0
 40
7.0
 40
7.0
 10
19.30699920654297
 20
59.50499725341797
 30
0.0
 10
19.24799919128418
 20
59.48199462890625
 30
0.0
 10
19.1879997253418
 20
59.47200012207031
 30
0.0
 10
19.12899971008301
 20
59.47200012207031
 30
0.0
 10
18.93099975585938
 20
59.47200012207031
 30
0.0
 10
18.74300003051758
 20
59.59200286865234
 30
0.0
 10
18.66799926757812
 20
59.78900146484375
 30
0.0
 10
18.66799926757812
 20
59.78900146484375
 30
0.0
 10
18.11299896240234
 20
61.22800064086914
 30
0.0
 10
18.11299896240234
 20
61.22800064086914
 30
0.0
 10
18.01499938964844
 20
61.48300170898438
 30
0.0
 10
18.14099884033203
 20
61.76900100708008
 30
0.0
 10
18.39599990844727
 20
61.86700057983398
 30
0.0
 10
18.64999961853027
 20
61.96599960327148
 30
0.0
 10
18.9370002746582
 20
61.8390007019043
 30
0.0
 10
19.03499984741211
 20
61.58399963378906
 30
0.0
 10
19.03499984741211
 20
61.58399963378906
 30
0.0
 10
19.59000015258789
 20
60.14499664306641
 30
0.0
 10
19.59000015258789
 20
60.14499664306641
 30
0.0
 10
19.6879997253418
 20
59.88999938964844
 30
0.0
 10
19.5620002746582
 20
59.60399627685547
 30
0.0
 10
19.30699920654297
 20
59.50499725341797
 30
0.0
  0
SPLINE
  5
45
330
1F
100
AcDbEntity
  8
Layer 1
370
     0
100
AcDbSpline
210
0.0
220
0.0
230
1.0
 70
    11
 71
     3
 72
    29
 73
    25
 74
     0
 42
0.0000000001
 43
0.0000000001
 12
1.0
 22
0.0
 32
0.0
 13
1.0
 23
0.0
 33
0.0
 40
0.0
 40
0.0
 40
0.0
 40
0.0
 40
1.0
 40
1.0
 40
1.0
 40
2.0
 40
2.0
 40
2.0
 40
3.0
 40
3.0
 40
3.0
 40
4.0
 40
4.0
 40
4.0
 40
5.0
 40
5.0
 40
5.0
 40
6.0
 40
6.0
 40
6.0
 40
7.0
 40
7.0
 40
7.0
 40
8.0
 40
8.0
 40
8.0
 40
8.0
 10
22.68400001525879
 20
46.93800354003906
 30
0.0
 10
22.58600044250488
 20
46.41699981689453
 30
0.0
 10
22.29199981689453
 20
45.98800659179688
 30
0.0
 10
21.80999946594238
 20
45.66100311279297
 30
0.0
 10
21.72500038146973
 20
45.60300445556641
 30
0.0
 10
21.62800025939941
 20
45.57600402832031
 30
0.0
 10
21.53299903869629
 20
45.57600402832031
 30
0.0
 10
21.37499809265137
 20
45.57600402832031
 30
0.0
 10
21.2189998626709
 20
45.65200042724609
 30
0.0
 10
21.12299919128418
 20
45.79300689697266
 30
0.0
 10
20.96999931335449
 20
46.01900482177734
 30
0.0
 10
21.02899932861328
 20
46.32600402832031
 30
0.0
 10
21.2549991607666
 20
46.48000335693359
 30
0.0
 10
21.35400009155273
 20
46.54700469970703
 30
0.0
 10
22.19499969482422
 20
47.16800689697266
 30
0.0
 10
21.38799858093262
 20
48.36400604248047
 30
0.0
 10
21.23599815368652
 20
48.59000396728516
 30
0.0
 10
21.29399871826172
 20
48.89700317382812
 30
0.0
 10
21.51899909973145
 20
49.05000305175781
 30
0.0
 10
21.74399948120117
 20
49.2030029296875
 30
0.0
 10
22.04999923706055
 20
49.14700317382812
 30
0.0
 10
22.20399856567383
 20
48.92200469970703
 30
0.0
 10
22.27300071716309
 20
48.82099914550781
 30
0.0
 10
22.86899948120117
 20
47.91699981689453
 30
0.0
 10
22.68400001525879
 20
46.93800354003906
 30
0.0
  0
SPLINE
  5
46
330
1F
100
AcDbEntity
  8
Layer 1
370
     0
100
AcDbSpline
210
0.0
220
0.0
230
1.0
 70
    11
 71
     3
 72
    26
 73
    22
 74
     0
 42
0.0000000001
 43
0.0000000001
 12
1.0
 22
0.0
 32
0.0
 13
1.0
 23
0.0
 33
0.0
 40
0.0
 40
0.0
 40
0.0
 40
0.0
 40
1.0
 40
1.0
 40
1.0
 40
2.0
 40
2.0
 40
2.0
 40
3.0
 40
3.0
 40
3.0
 40
4.0
 40
4.0
 40
4.0
 40
5.0
 40
5.0
 40
5.0
 40
6.0
 40
6.0
 40
6.0
 40
7.0
 40
7.0
 40
7.0
 40
7.0
 10
70.54100036621094
 20
101.5149993896484
 30
0.0
 10
70.44999694824219
 20
101.3529987335205
 30
0.0
 10
70.28199768066406
 20
101.261999130249
 30
0.0
 10
70.10900115966797
 20
101.261999130249
 30
0.0
 10
70.0270004272461
 20
101.261999130249
 30
0.0
 10
69.94400024414062
 20
101.2819995880127
 30
0.0
 10
69.86800384521484
 20
101.3249988555908
 30
0.0
 10
69.85700225830078
 20
101.3309993743896
 30
0.0
 10
68.78500366210938
 20
101.9299983978271
 30
0.0
 10
67.6810073852539
 20
102.382999420166
 30
0.0
 10
67.42800903320312
 20
102.4869995117188
 30
0.0
 10
67.3080062866211
 20
102.7749996185303
 30
0.0
 10
67.4110107421875
 20
103.0279998779297
 30
0.0
 10
67.51500701904297
 20
103.2810001373291
 30
0.0
 10
67.80300903320312
 20
103.4020004272461
 30
0.0
 10
68.0560073852539
 20
103.2980003356934
 30
0.0
 10
69.21701049804688
 20
102.82200050354
 30
0.0
 10
70.30500793457031
 20
102.2130012512207
 30
0.0
 10
70.35100555419922
 20
102.1879997253418
 30
0.0
 10
70.58999633789062
 20
102.0550003051758
 30
0.0
 10
70.67500305175781
 20
101.7530002593994
 30
0.0
 10
70.54100036621094
 20
101.5149993896484
 30
0.0
  0
SPLINE
  5
47
330
1F
100
AcDbEntity
  8
Layer 1
370
     0
100
AcDbSpline
210
0.0
220
0.0
230
1.0
 70
    11
 71
     3
 72
    26
 73
    22
 74
     0
 42
0.0000000001
 43
0.0000000001
 12
1.0
 22
0.0
 32
0.0
 13
1.0
 23
0.0
 33
0.0
 40
0.0
 40
0.0
 40
0.0
 40
0.0
 40
1.0
 40
1.0
 40
1.0
 40
2.0
 40
2.0
 40
2.0
 40
3.0
 40
3.0
 40
3.0
 40
4.0
 40
4.0
 40
4.0
 40
5.0
 40
5.0
 40
5.0
 40
6.0
 40
6.0
 40
6.0
 40
7.0
 40
7.0
 40
7.0
 40
7.0
 10
71.27200317382812
 20
100.5279998779297
 30
0.0
 10
71.03900146484375
 20
100.6700000762939
 30
0.0
 10
70.96500396728516
 20
100.9739990234375
 30
0.0
 10
71.10700225830078
 20
101.2080001831055
 30
0.0
 10
71.2490005493164
 20
101.4409999847412
 30
0.0
 10
71.5530014038086
 20
101.5149993896484
 30
0.0
 10
71.78700256347656
 20
101.3730010986328
 30
0.0
 10
76.61300659179688
 20
98.43400192260742
 30
0.0
 10
78.94300079345703
 20
95.44700050354004
 30
0.0
 10
79.04000091552734
 20
95.32100105285645
 30
0.0
 10
79.20700073242188
 20
95.10500144958496
 30
0.0
 10
79.16600036621094
 20
94.79500198364258
 30
0.0
 10
78.95000457763672
 20
94.62800025939941
 30
0.0
 10
78.8600082397461
 20
94.55900001525879
 30
0.0
 10
78.7540054321289
 20
94.52499961853027
 30
0.0
 10
78.64800262451172
 20
94.52499961853027
 30
0.0
 10
78.5
 20
94.52499961853027
 30
0.0
 10
78.35400390625
 20
94.59099960327148
 30
0.0
 10
78.2560043334961
 20
94.71699905395508
 30
0.0
 10
78.23400115966797
 20
94.74600028991699
 30
0.0
 10
75.92900085449219
 20
97.6919994354248
 30
0.0
 10
71.27200317382812
 20
100.5279998779297
 30
0.0
  0
SPLINE
  5
48
330
1F
100
AcDbEntity
  8
Layer 1
370
     0
100
AcDbSpline
210
0.0
220
0.0
230
1.0
 70
    11
 71
     3
 72
    29
 73
    25
 74
     0
 42
0.0000000001
 43
0.0000000001
 12
1.0
 22
0.0
 32
0.0
 13
1.0
 23
0.0
 33
0.0
 40
0.0
 40
0.0
 40
0.0
 40
0.0
 40
1.0
 40
1.0
 40
1.0
 40
2.0
 40
2.0
 40
2.0
 40
3.0
 40
3.0
 40
3.0
 40
4.0
 40
4.0
 40
4.0
 40
5.0
 40
5.0
 40
5.0
 40
6.0
 40
6.0
 40
6.0
 40
7.0
 40
7.0
 40
7.0
 40
8.0
 40
8.0
 40
8.0
 40
8.0
 10
79.60700225830078
 20
75.66699981689453
 30
0.0
 10
79.48200225830078
 20
74.79899978637695
 30
0.0
 10
78.72700500488281
 20
74.14400100708008
 30
0.0
 10
77.85100555419922
 20
74.14400100708008
 30
0.0
 10
77.85100555419922
 20
74.14400100708008
 30
0.0
 10
77.85100555419922
 20
74.14400100708008
 30
0.0
 10
77.85100555419922
 20
74.14400100708008
 30
0.0
 10
77.76600646972656
 20
74.14400100708008
 30
0.0
 10
77.6810073852539
 20
74.1500015258789
 30
0.0
 10
77.59700775146484
 20
74.16200256347656
 30
0.0
 10
77.12800598144531
 20
74.2300033569336
 30
0.0
 10
76.71300506591797
 20
74.47600173950195
 30
0.0
 10
76.42900848388672
 20
74.8550033569336
 30
0.0
 10
76.14501190185547
 20
75.23500442504883
 30
0.0
 10
76.02600860595703
 20
75.7020034790039
 30
0.0
 10
76.09300994873047
 20
76.17100524902344
 30
0.0
 10
76.21800994873047
 20
77.03900527954102
 30
0.0
 10
76.97300720214844
 20
77.69400405883789
 30
0.0
 10
77.84900665283203
 20
77.69400405883789
 30
0.0
 10
77.93400573730469
 20
77.69400405883789
 30
0.0
 10
78.01900482177734
 20
77.68800354003906
 30
0.0
 10
78.1030044555664
 20
77.6760025024414
 30
0.0
 10
79.0719985961914
 20
77.5369987487793
 30
0.0
 10
79.74700164794922
 20
76.6349983215332
 30
0.0
 10
79.60700225830078
 20
75.66699981689453
 30
0.0
  0
SPLINE
  5
49
330
1F
100
AcDbEntity
  8
Layer 1
370
     0
100
AcDbSpline
210
0.0
220
0.0
230
1.0
 70
    11
 71
     3
 72
    23
 73
    19
 74
     0
 42
0.0000000001
 43
0.0000000001
 12
1.0
 22
0.0
 32
0.0
 13
1.0
 23
0.0
 33
0.0
 40
0.0
 40
0.0
 40
0.0
 40
0.0
 40
1.0
 40
1.0
 40
1.0
 40
2.0
 40
2.0
 40
2.0
 40
3.0
 40
3.0
 40
3.0
 40
4.0
 40
4.0
 40
4.0
 40
5.0
 40
5.0
 40
5.0
 40
6.0
 40
6.0
 40
6.0
 40
6.0
 10
78.43299865722656
 20
75.83499908447266
 30
0.0
 10
78.38800048828125
 20
75.51899719238281
 30
0.0
 10
78.08999633789062
 20
75.28899765014648
 30
0.0
 10
77.76699829101562
 20
75.33599853515625
 30
0.0
 10
77.61100006103516
 20
75.35799789428711
 30
0.0
 10
77.4739990234375
 20
75.43999862670898
 30
0.0
 10
77.37999725341797
 20
75.56599807739258
 30
0.0
 10
77.28599548339844
 20
75.69199752807617
 30
0.0
 10
77.2459945678711
 20
75.84699630737305
 30
0.0
 10
77.26899719238281
 20
76.00199890136719
 30
0.0
 10
77.30999755859375
 20
76.28999710083008
 30
0.0
 10
77.55999755859375
 20
76.50699996948242
 30
0.0
 10
77.8499984741211
 20
76.50699996948242
 30
0.0
 10
77.87799835205078
 20
76.50699996948242
 30
0.0
 10
77.90699768066406
 20
76.50500106811523
 30
0.0
 10
77.93499755859375
 20
76.5009994506836
 30
0.0
 10
78.25499725341797
 20
76.45500183105469
 30
0.0
 10
78.47899627685547
 20
76.15700149536133
 30
0.0
 10
78.43299865722656
 20
75.83499908447266
 30
0.0
  0
HATCH
  5
4A
330
1F
100
AcDbEntity
  8
Layer 1
 62
     7
420
 16777215
100
AcDbHatch
 10
0.0
 20
0.0
 30
0.0
210
0.0
220
0.0
230
1.0
  2
SOLID
 70
     1
 71
     0
 91
        9
 92
        1
 93
        1
 72
     4
 94
        3
 73
     0
 74
     1
 95
      104
 96
      100
 40
0.0
 40
0.0
 40
0.0
 40
0.0
 40
1.0
 40
1.0
 40
1.0
 40
2.0
 40
2.0
 40
2.0
 40
3.0
 40
3.0
 40
3.0
 40
4.0
 40
4.0
 40
4.0
 40
5.0
 40
5.0
 40
5.0
 40
6.0
 40
6.0
 40
6.0
 40
7.0
 40
7.0
 40
7.0
 40
8.0
 40
8.0
 40
8.0
 40
9.0
 40
9.0
 40
9.0
 40
10.0
 40
10.0
 40
10.0
 40
11.0
 40
11.0
 40
11.0
 40
12.0
 40
12.0
 40
12.0
 40
13.0
 40
13.0
 40
13.0
 40
14.0
 40
14.0
 40
14.0
 40
15.0
 40
15.0
 40
15.0
 40
16.0
 40
16.0
 40
16.0
 40
17.0
 40
17.0
 40
17.0
 40
18.0
 40
18.0
 40
18.0
 40
19.0
 40
19.0
 40
19.0
 40
20.0
 40
20.0
 40
20.0
 40
21.0
 40
21.0
 40
21.0
 40
22.0
 40
22.0
 40
22.0
 40
23.0
 40
23.0
 40
23.0
 40
24.0
 40
24.0
 40
24.0
 40
25.0
 40
25.0
 40
25.0
 40
26.0
 40
26.0
 40
26.0
 40
27.0
 40
27.0
 40
27.0
 40
28.0
 40
28.0
 40
28.0
 40
29.0
 40
29.0
 40
29.0
 40
30.0
 40
30.0
 40
30.0
 40
31.0
 40
31.0
 40
31.0
 40
32.0
 40
32.0
 40
32.0
 40
33.0
 40
33.0
 40
33.0
 40
33.0
 10
77.87799835205078
 20
99.95499992370605
 10
69.44099426269531
 20
107.3559989929199
 10
56.60099792480469
 20
109.0380001068115
 10
51.88899993896484
 20
108.7859992980957
 10
50.93199920654297
 20
108.7349987030029
 10
49.26699829101562
 20
108.5539989471436
 10
49.26699829101562
 20
108.5539989471436
 10
48.16999816894531
 20
110.6079998016357
 10
42.70100021362305
 20
117.826000213623
 10
31.26000022888184
 20
119.4710001945496
 10
31.26000022888184
 20
119.4710001945496
 10
27.84700012207031
 20
119.9620003700256
 10
27.84700012207031
 20
119.9620003700256
 10
27.33300018310547
 20
120.03600025177
 10
26.9950008392334
 20
119.4410004615784
 10
27.32200050354004
 20
119.0380001068115
 10
29.5
 20
116.3559999465942
 10
34.74900054931641
 20
109.6180000305176
 10
35.10200119018555
 20
106.556999206543
 10
35.12700271606445
 20
106.3389987945557
 10
35.03000259399414
 20
106.1259994506836
 10
34.84600067138672
 20
106.0059986114502
 10
32.44100189208984
 20
104.4509983062744
 10
17.88300132751465
 20
99.58499908447266
 10
14.39200019836426
 20
75.30799865722656
 10
12.75899982452393
 20
63.95399856567383
 10
19.0310001373291
 20
54.20700073242188
 10
19.0310001373291
 20
54.20700073242188
 10
17.07699966430664
 20
52.55400085449219
 10
12.33200073242188
 20
45.64800262451172
 10
12.32600021362305
 20
39.01000213623047
 10
12.32100009918213
 20
33.74500274658203
 10
13.35799980163574
 20
31.33100128173828
 10
14.12600040435791
 20
30.26599884033203
 10
14.41300010681152
 20
29.86699676513672
 10
15.03800010681152
 20
30.00099945068359
 10
15.14400005340576
 20
30.48099517822266
 10
15.67399978637695
 20
32.88799285888672
 10
17.18899917602539
 20
38.96499633789062
 10
19.40399932861328
 20
41.17599487304688
 10
22.1919994354248
 20
43.95899200439453
 10
25.42599868774414
 20
44.30199432373047
 10
24.70399856567383
 20
47.58399200439453
 10
24.70399856567383
 20
47.58399200439453
 10
24.2289981842041
 20
49.74098968505859
 10
24.2289981842041
 20
49.74098968505859
 10
24.1309986114502
 20
50.18798828125
 10
24.57099914550781
 20
50.56198883056641
 10
24.99699783325195
 20
50.39398956298828
 10
26.73199844360352
 20
49.70799255371094
 10
30.29399871826172
 20
48.8389892578125
 10
32.50599670410156
 20
52.02799224853516
 10
34.56999588012695
 20
55.00299072265625
 10
38.99899673461914
 20
55.20999145507812
 10
41.58499908447266
 20
55.04499053955078
 10
42.15999984741211
 20
55.00798797607422
 10
42.42200088500977
 20
55.74899291992188
 10
41.95000076293945
 20
56.08099365234375
 10
38.85200119018555
 20
58.25799560546875
 10
31.59600067138672
 20
60.43299102783203
 10
24.03600120544434
 20
56.78099060058594
 10
23.67500114440918
 20
56.60698699951172
 10
23.25100135803223
 20
56.85198974609375
 10
23.22100067138672
 20
57.25199127197266
 10
22.98400115966797
 20
60.468994140625
 10
22.84800148010254
 20
73.73099136352539
 10
30.5260009765625
 20
79.77599334716797
 10
38.52899932861328
 20
86.07699203491211
 10
48.12100219726562
 20
85.82199478149414
 10
50.10700225830078
 20
85.6929931640625
 10
50.3380012512207
 20
85.67799377441406
 10
50.53600311279297
 20
85.52499389648438
 10
50.61000061035156
 20
85.30499267578125
 10
51.05100250244141
 20
83.98799133300781
 10
52.25600051879883
 20
79.21499252319336
 10
48.79500198364258
 20
73.96499252319336
 10
48.79500198364258
 20
73.96499252319336
 10
46.2390022277832
 20
70.08599090576172
 10
46.2390022277832
 20
70.08599090576172
 10
45.8910026550293
 20
69.55799102783203
 10
46.53100204467773
 20
68.94099044799805
 10
47.04700088500977
 20
69.30699157714844
 10
50.48100280761719
 20
71.74599075317383
 10
56.64400100708008
 20
76.91499328613281
 10
57.93000030517578
 20
83.3379898071289
 10
58.00099945068359
 20
83.69398880004883
 10
58.37400054931641
 20
83.89899063110352
 10
58.70899963378906
 20
83.75999069213867
 10
61.27299880981445
 20
82.69998931884766
 10
71.26599884033203
 20
78.21599197387695
 10
71.26599884033203
 20
67.54898834228516
 10
71.26599884033203
 20
57.49298858642578
 10
74.92399597167969
 20
58.43698883056641
 10
76.37200164794922
 20
58.73899078369141
 10
79.38300323486328
 20
59.36698913574219
 10
79.74100494384766
 20
67.30599212646484
 10
79.572998046875
 20
68.90499114990234
 10
79.57099914550781
 20
68.90499877929688
 10
98.88500213623047
 20
81.52799987792969
 10
77.87799835205078
 20
99.95499992370605
 97
        0
 97
        0
 92
        1
 93
        1
 72
     4
 94
        3
 73
     0
 74
     1
 95
       26
 96
       22
 40
0.0
 40
0.0
 40
0.0
 40
0.0
 40
1.0
 40
1.0
 40
1.0
 40
2.0
 40
2.0
 40
2.0
 40
3.0
 40
3.0
 40
3.0
 40
4.0
 40
4.0
 40
4.0
 40
5.0
 40
5.0
 40
5.0
 40
6.0
 40
6.0
 40
6.0
 40
7.0
 40
7.0
 40
7.0
 40
7.0
 10
25.59600067138672
 20
55.38800048828125
 10
25.71600151062012
 20
55.44699859619141
 10
28.56900024414062
 20
56.84300231933594
 10
31.26100158691406
 20
56.77100372314453
 10
31.53400230407715
 20
56.76300048828125
 10
31.74900245666504
 20
56.53600311279297
 10
31.74100112915039
 20
56.26300048828125
 10
31.73300170898438
 20
55.98999786376953
 10
31.50400161743164
 20
55.77400207519531
 10
31.23300170898438
 20
55.78299713134766
 10
28.78200149536133
 20
55.85299682617188
 10
26.06300163269043
 20
54.51599884033203
 10
26.03600120544434
 20
54.50299835205078
 10
25.96500205993652
 20
54.46799468994141
 10
25.89000129699707
 20
54.45099639892578
 10
25.81600189208984
 20
54.45099639892578
 10
25.63400268554688
 20
54.45099639892578
 10
25.4590015411377
 20
54.55199432373047
 10
25.37300109863281
 20
54.72599792480469
 10
25.25200080871582
 20
54.97000122070312
 10
25.35099983215332
 20
55.26599884033203
 10
25.59600067138672
 20
55.38800048828125
 97
        0
 97
        0
 92
        1
 93
        1
 72
     4
 94
        3
 73
     0
 74
     1
 95
       26
 96
       22
 40
0.0
 40
0.0
 40
0.0
 40
0.0
 40
1.0
 40
1.0
 40
1.0
 40
2.0
 40
2.0
 40
2.0
 40
3.0
 40
3.0
 40
3.0
 40
4.0
 40
4.0
 40
4.0
 40
5.0
 40
5.0
 40
5.0
 40
6.0
 40
6.0
 40
6.0
 40
7.0
 40
7.0
 40
7.0
 40
7.0
 10
17.63599967956543
 20
62.69699859619141
 10
15.45999908447266
 20
69.61100006103516
 10
16.76799964904785
 20
76.10699844360352
 10
16.82499885559082
 20
76.37999725341797
 10
16.8809986114502
 20
76.6469955444336
 10
17.14199829101562
 20
76.81999588012695
 10
17.40899848937988
 20
76.76299667358398
 10
17.67599868774414
 20
76.7079963684082
 10
17.84799766540527
 20
76.44599533081055
 10
17.79299926757812
 20
76.17799758911133
 10
17.77999877929688
 20
76.11299896240234
 10
16.48299980163574
 20
69.65299606323242
 10
18.57899856567383
 20
62.99299621582031
 10
18.6609992980957
 20
62.73299789428711
 10
18.51599884033203
 20
62.45499801635742
 10
18.2559986114502
 20
62.37299728393555
 10
18.20699882507324
 20
62.35799789428711
 10
18.15699768066406
 20
62.34999847412109
 10
18.10699844360352
 20
62.34999847412109
 10
17.89800071716309
 20
62.35100173950195
 10
17.70299911499023
 20
62.48600006103516
 10
17.63599967956543
 20
62.69699859619141
 97
        0
 97
        0
 92
        1
 93
        1
 72
     4
 94
        3
 73
     0
 74
     1
 95
       26
 96
       22
 40
0.0
 40
0.0
 40
0.0
 40
0.0
 40
1.0
 40
1.0
 40
1.0
 40
2.0
 40
2.0
 40
2.0
 40
3.0
 40
3.0
 40
3.0
 40
4.0
 40
4.0
 40
4.0
 40
5.0
 40
5.0
 40
5.0
 40
6.0
 40
6.0
 40
6.0
 40
7.0
 40
7.0
 40
7.0
 40
7.0
 10
19.30699920654297
 20
59.50499725341797
 10
19.24799919128418
 20
59.48199462890625
 10
19.1879997253418
 20
59.47200012207031
 10
19.12899971008301
 20
59.47200012207031
 10
18.93099975585938
 20
59.47200012207031
 10
18.74300003051758
 20
59.59200286865234
 10
18.66799926757812
 20
59.78900146484375
 10
18.66799926757812
 20
59.78900146484375
 10
18.11299896240234
 20
61.22800064086914
 10
18.11299896240234
 20
61.22800064086914
 10
18.01499938964844
 20
61.48300170898438
 10
18.14099884033203
 20
61.76900100708008
 10
18.39599990844727
 20
61.86700057983398
 10
18.64999961853027
 20
61.96599960327148
 10
18.9370002746582
 20
61.8390007019043
 10
19.03499984741211
 20
61.58399963378906
 10
19.03499984741211
 20
61.58399963378906
 10
19.59000015258789
 20
60.14499664306641
 10
19.59000015258789
 20
60.14499664306641
 10
19.6879997253418
 20
59.88999938964844
 10
19.5620002746582
 20
59.60399627685547
 10
19.30699920654297
 20
59.50499725341797
 97
        0
 97
        0
 92
        1
 93
        1
 72
     4
 94
        3
 73
     0
 74
     1
 95
       29
 96
       25
 40
0.0
 40
0.0
 40
0.0
 40
0.0
 40
1.0
 40
1.0
 40
1.0
 40
2.0
 40
2.0
 40
2.0
 40
3.0
 40
3.0
 40
3.0
 40
4.0
 40
4.0
 40
4.0
 40
5.0
 40
5.0
 40
5.0
 40
6.0
 40
6.0
 40
6.0
 40
7.0
 40
7.0
 40
7.0
 40
8.0
 40
8.0
 40
8.0
 40
8.0
 10
22.68400001525879
 20
46.93800354003906
 10
22.58600044250488
 20
46.41699981689453
 10
22.29199981689453
 20
45.98800659179688
 10
21.80999946594238
 20
45.66100311279297
 10
21.72500038146973
 20
45.60300445556641
 10
21.62800025939941
 20
45.57600402832031
 10
21.53299903869629
 20
45.57600402832031
 10
21.37499809265137
 20
45.57600402832031
 10
21.2189998626709
 20
45.65200042724609
 10
21.12299919128418
 20
45.79300689697266
 10
20.96999931335449
 20
46.01900482177734
 10
21.02899932861328
 20
46.32600402832031
 10
21.2549991607666
 20
46.48000335693359
 10
21.35400009155273
 20
46.54700469970703
 10
22.19499969482422
 20
47.16800689697266
 10
21.38799858093262
 20
48.36400604248047
 10
21.23599815368652
 20
48.59000396728516
 10
21.29399871826172
 20
48.89700317382812
 10
21.51899909973145
 20
49.05000305175781
 10
21.74399948120117
 20
49.2030029296875
 10
22.04999923706055
 20
49.14700317382812
 10
22.20399856567383
 20
48.92200469970703
 10
22.27300071716309
 20
48.82099914550781
 10
22.86899948120117
 20
47.91699981689453
 10
22.68400001525879
 20
46.93800354003906
 97
        0
 97
        0
 92
        1
 93
        1
 72
     4
 94
        3
 73
     0
 74
     1
 95
       26
 96
       22
 40
0.0
 40
0.0
 40
0.0
 40
0.0
 40
1.0
 40
1.0
 40
1.0
 40
2.0
 40
2.0
 40
2.0
 40
3.0
 40
3.0
 40
3.0
 40
4.0
 40
4.0
 40
4.0
 40
5.0
 40
5.0
 40
5.0
 40
6.0
 40
6.0
 40
6.0
 40
7.0
 40
7.0
 40
7.0
 40
7.0
 10
70.54100036621094
 20
101.5149993896484
 10
70.44999694824219
 20
101.3529987335205
 10
70.28199768066406
 20
101.261999130249
 10
70.10900115966797
 20
101.261999130249
 10
70.0270004272461
 20
101.261999130249
 10
69.94400024414062
 20
101.2819995880127
 10
69.86800384521484
 20
101.3249988555908
 10
69.85700225830078
 20
101.3309993743896
 10
68.78500366210938
 20
101.9299983978271
 10
67.6810073852539
 20
102.382999420166
 10
67.42800903320312
 20
102.4869995117188
 10
67.3080062866211
 20
102.7749996185303
 10
67.4110107421875
 20
103.0279998779297
 10
67.51500701904297
 20
103.2810001373291
 10
67.80300903320312
 20
103.4020004272461
 10
68.0560073852539
 20
103.2980003356934
 10
69.21701049804688
 20
102.82200050354
 10
70.30500793457031
 20
102.2130012512207
 10
70.35100555419922
 20
102.1879997253418
 10
70.58999633789062
 20
102.0550003051758
 10
70.67500305175781
 20
101.7530002593994
 10
70.54100036621094
 20
101.5149993896484
 97
        0
 97
        0
 92
        1
 93
        1
 72
     4
 94
        3
 73
     0
 74
     1
 95
       26
 96
       22
 40
0.0
 40
0.0
 40
0.0
 40
0.0
 40
1.0
 40
1.0
 40
1.0
 40
2.0
 40
2.0
 40
2.0
 40
3.0
 40
3.0
 40
3.0
 40
4.0
 40
4.0
 40
4.0
 40
5.0
 40
5.0
 40
5.0
 40
6.0
 40
6.0
 40
6.0
 40
7.0
 40
7.0
 40
7.0
 40
7.0
 10
71.27200317382812
 20
100.5279998779297
 10
71.03900146484375
 20
100.6700000762939
 10
70.96500396728516
 20
100.9739990234375
 10
71.10700225830078
 20
101.2080001831055
 10
71.2490005493164
 20
101.4409999847412
 10
71.5530014038086
 20
101.5149993896484
 10
71.78700256347656
 20
101.3730010986328
 10
76.61300659179688
 20
98.43400192260742
 10
78.94300079345703
 20
95.44700050354004
 10
79.04000091552734
 20
95.32100105285645
 10
79.20700073242188
 20
95.10500144958496
 10
79.16600036621094
 20
94.79500198364258
 10
78.95000457763672
 20
94.62800025939941
 10
78.8600082397461
 20
94.55900001525879
 10
78.7540054321289
 20
94.52499961853027
 10
78.64800262451172
 20
94.52499961853027
 10
78.5
 20
94.52499961853027
 10
78.35400390625
 20
94.59099960327148
 10
78.2560043334961
 20
94.71699905395508
 10
78.23400115966797
 20
94.74600028991699
 10
75.92900085449219
 20
97.6919994354248
 10
71.27200317382812
 20
100.5279998779297
 97
        0
 97
        0
 92
        1
 93
        1
 72
     4
 94
        3
 73
     0
 74
     1
 95
       29
 96
       25
 40
0.0
 40
0.0
 40
0.0
 40
0.0
 40
1.0
 40
1.0
 40
1.0
 40
2.0
 40
2.0
 40
2.0
 40
3.0
 40
3.0
 40
3.0
 40
4.0
 40
4.0
 40
4.0
 40
5.0
 40
5.0
 40
5.0
 40
6.0
 40
6.0
 40
6.0
 40
7.0
 40
7.0
 40
7.0
 40
8.0
 40
8.0
 40
8.0
 40
8.0
 10
79.60700225830078
 20
75.66699981689453
 10
79.48200225830078
 20
74.79899978637695
 10
78.72700500488281
 20
74.14400100708008
 10
77.85100555419922
 20
74.14400100708008
 10
77.85100555419922
 20
74.14400100708008
 10
77.85100555419922
 20
74.14400100708008
 10
77.85100555419922
 20
74.14400100708008
 10
77.76600646972656
 20
74.14400100708008
 10
77.6810073852539
 20
74.1500015258789
 10
77.59700775146484
 20
74.16200256347656
 10
77.12800598144531
 20
74.2300033569336
 10
76.71300506591797
 20
74.47600173950195
 10
76.42900848388672
 20
74.8550033569336
 10
76.14501190185547
 20
75.23500442504883
 10
76.02600860595703
 20
75.7020034790039
 10
76.09300994873047
 20
76.17100524902344
 10
76.21800994873047
 20
77.03900527954102
 10
76.97300720214844
 20
77.69400405883789
 10
77.84900665283203
 20
77.69400405883789
 10
77.93400573730469
 20
77.69400405883789
 10
78.01900482177734
 20
77.68800354003906
 10
78.1030044555664
 20
77.6760025024414
 10
79.0719985961914
 20
77.5369987487793
 10
79.74700164794922
 20
76.6349983215332
 10
79.60700225830078
 20
75.66699981689453
 97
        0
 97
        0
 92
        1
 93
        1
 72
     4
 94
        3
 73
     0
 74
     1
 95
       23
 96
       19
 40
0.0
 40
0.0
 40
0.0
 40
0.0
 40
1.0
 40
1.0
 40
1.0
 40
2.0
 40
2.0
 40
2.0
 40
3.0
 40
3.0
 40
3.0
 40
4.0
 40
4.0
 40
4.0
 40
5.0
 40
5.0
 40
5.0
 40
6.0
 40
6.0
 40
6.0
 40
6.0
 10
78.43299865722656
 20
75.83499908447266
 10
78.38800048828125
 20
75.51899719238281
 10
78.08999633789062
 20
75.28899765014648
 10
77.76699829101562
 20
75.33599853515625
 10
77.61100006103516
 20
75.35799789428711
 10
77.4739990234375
 20
75.43999862670898
 10
77.37999725341797
 20
75.56599807739258
 10
77.28599548339844
 20
75.69199752807617
 10
77.2459945678711
 20
75.84699630737305
 10
77.26899719238281
 20
76.00199890136719
 10
77.30999755859375
 20
76.28999710083008
 10
77.55999755859375
 20
76.50699996948242
 10
77.8499984741211
 20
76.50699996948242
 10
77.87799835205078
 20
76.50699996948242
 10
77.90699768066406
 20
76.50500106811523
 10
77.93499755859375
 20
76.5009994506836
 10
78.25499725341797
 20
76.45500183105469
 10
78.47899627685547
 20
76.15700149536133
 10
78.43299865722656
 20
75.83499908447266
 97
        0
 97
        0
 75
     2
 76
     1
 98
        0
  0
ENDSEC
  0
SECTION
  2
OBJECTS
  0
DICTIONARY
  5
C
330
0
100
AcDbDictionary
281
     1
  3
ACAD_GROUP
350
D
  3
ACAD_LAYOUT
350
1A
  3
ACAD_MATERIAL
350
3B
  3
ACAD_MLEADERSTYLE
350
4C
  3
ACAD_MLINESTYLE
350
17
  3
ACAD_PLOTSETTINGS
350
19
  3
ACAD_PLOTSTYLENAME
350
E
  3
ACAD_TABLESTYLE
350
4B
  3
ACAD_VISUALSTYLE
350
2A
  0
SUN
  5
3F
330
29
100
AcDbSun
 90
        1
290
     0
 63
     7
421
 16777215
 40
1.0
291
     1
 91
  2455826
 92
 54000000
292
     0
 70
     2
 71
   256
280
     1
  0
DICTIONARY
  5
D
102
{ACAD_REACTORS
330
C
102
}
330
C
100
AcDbDictionary
281
     1
  0
DICTIONARY
  5
1A
102
{ACAD_REACTORS
330
C
102
}
330
C
100
AcDbDictionary
281
     1
  3
Layout1
350
1E
  3
Layout2
350
26
  3
Model
350
22
  0
DICTIONARY
  5
3B
102
{ACAD_REACTORS
330
C
102
}
330
C
100
AcDbDictionary
281
     1
  3
ByBlock
350
3D
  3
ByLayer
350
3C
  3
Global
350
3E
  0
DICTIONARY
  5
4C
102
{ACAD_REACTORS
330
C
102
}
330
C
100
AcDbDictionary
281
     1
  0
DICTIONARY
  5
17
102
{ACAD_REACTORS
330
C
102
}
330
C
100
AcDbDictionary
281
     1
  3
Standard
350
18
  0
DICTIONARY
  5
19
102
{ACAD_REACTORS
330
C
102
}
330
C
100
AcDbDictionary
281
     1
  0
ACDBDICTIONARYWDFLT
  5
E
102
{ACAD_REACTORS
330
C
102
}
330
C
100
AcDbDictionary
281
     1
  3
Normal
350
F
100
AcDbDictionaryWithDefault
340
F
  0
DICTIONARY
  5
4B
102
{ACAD_REACTORS
330
C
102
}
330
C
100
AcDbDictionary
281
     1
  0
DICTIONARY
  5
2A
102
{ACAD_REACTORS
330
C
102
}
330
C
100
AcDbDictionary
281
     1
  3
2dWireframe
350
2F
  3
3D Hidden
350
31
  3
3dWireframe
350
30
  3
Basic
350
32
  3
Brighten
350
36
  3
ColorChange
350
3A
  3
Conceptual
350
34
  3
Dim
350
35
  3
Facepattern
350
39
  3
Flat
350
2B
  3
FlatWithEdges
350
2C
  3
Gouraud
350
2D
  3
GouraudWithEdges
350
2E
  3
Linepattern
350
38
  3
Realistic
350
33
  3
Thicken
350
37
  0
LAYOUT
  5
1E
102
{ACAD_REACTORS
330
1A
102
}
330
1A
100
AcDbPlotSettings
  1

  2
none_device
  4

  6

 40
0.0
 41
0.0
 42
0.0
 43
0.0
 44
0.0
 45
0.0
 46
0.0
 47
0.0
 48
0.0
 49
0.0
140
0.0
141
0.0
142
1.0
143
1.0
 70
   688
 72
     0
 73
     0
 74
     5
  7

 75
    16
 76
     0
 77
     2
 78
   300
147
1.0
148
0.0
149
0.0
100
AcDbLayout
  1
Layout1
 70
     1
 71
     1
 10
0.0
 20
0.0
 11
12.0
 21
9.0
 12
0.0
 22
0.0
 32
0.0
 14
1.000000000000000E+20
 24
1.000000000000000E+20
 34
1.000000000000000E+20
 15
-1.000000000000000E+20
 25
-1.000000000000000E+20
 35
-1.000000000000000E+20
146
0.0
 13
0.0
 23
0.0
 33
0.0
 16
1.0
 26
0.0
 36
0.0
 17
0.0
 27
1.0
 37
0.0
 76
     0
330
1B
  0
LAYOUT
  5
26
102
{ACAD_REACTORS
330
1A
102
}
330
1A
100
AcDbPlotSettings
  1

  2
none_device
  4

  6

 40
0.0
 41
0.0
 42
0.0
 43
0.0
 44
0.0
 45
0.0
 46
0.0
 47
0.0
 48
0.0
 49
0.0
140
0.0
141
0.0
142
1.0
143
1.0
 70
   688
 72
     0
 73
     0
 74
     5
  7

 75
    16
 76
     0
 77
     2
 78
   300
147
1.0
148
0.0
149
0.0
100
AcDbLayout
  1
Layout2
 70
     1
 71
     2
 10
0.0
 20
0.0
 11
0.0
 21
0.0
 12
0.0
 22
0.0
 32
0.0
 14
0.0
 24
0.0
 34
0.0
 15
0.0
 25
0.0
 35
0.0
146
0.0
 13
0.0
 23
0.0
 33
0.0
 16
1.0
 26
0.0
 36
0.0
 17
0.0
 27
1.0
 37
0.0
 76
     0
330
23
  0
LAYOUT
  5
22
102
{ACAD_REACTORS
330
1A
102
}
330
1A
100
AcDbPlotSettings
  1

  2
none_device
  4

  6

 40
0.0
 41
0.0
 42
0.0
 43
0.0
 44
0.0
 45
0.0
 46
0.0
 47
0.0
 48
0.0
 49
0.0
140
0.0
141
0.0
142
1.0
143
1.0
 70
  1712
 72
     0
 73
     0
 74
     0
  7

 75
     0
 76
     0
 77
     2
 78
   300
147
1.0
148
0.0
149
0.0
100
AcDbLayout
  1
Model
 70
     1
 71
     0
 10
0.0
 20
0.0
 11
12.0
 21
9.0
 12
0.0
 22
0.0
 32
0.0
 14
1.000000000000000E+20
 24
1.000000000000000E+20
 34
1.000000000000000E+20
 15
-1.000000000000000E+20
 25
-1.000000000000000E+20
 35
-1.000000000000000E+20
146
0.0
 13
0.0
 23
0.0
 33
0.0
 16
1.0
 26
0.0
 36
0.0
 17
0.0
 27
1.0
 37
0.0
 76
     0
330
1F
331
29
  0
MATERIAL
  5
3D
102
{ACAD_REACTORS
330
3B
102
}
330
3B
100
AcDbMaterial
  1
ByBlock
 72
     1
 94
      127
  0
MATERIAL
  5
3C
102
{ACAD_REACTORS
330
3B
102
}
330
3B
100
AcDbMaterial
  1
ByLayer
 72
     1
 94
      127
  0
MATERIAL
  5
3E
102
{ACAD_REACTORS
330
3B
102
}
330
3B
100
AcDbMaterial
  1
Global
 72
     1
 94
      127
  0
MLINESTYLE
  5
18
102
{ACAD_REACTORS
330
17
102
}
330
17
100
AcDbMlineStyle
  2
Standard
 70
     0
  3

 62
   256
 51
90.0
 52
90.0
 71
     2
 49
0.5
 62
   256
  6
BYLAYER
 49
-0.5
 62
   256
  6
BYLAYER
  0
ACDBPLACEHOLDER
  5
F
102
{ACAD_REACTORS
330
E
102
}
330
E
  0
VISUALSTYLE
  5
2F
102
{ACAD_REACTORS
330
2A
102
}
330
2A
100
AcDbVisualStyle
  2
2dWireframe
 70
     4
177
     2
291
     0
 71
     0
176
     1
 72
     2
176
     1
 73
     0
176
     1
 90
        0
176
     1
 40
-0.6
176
     1
 41
-30.0
176
     1
 62
     5
 63
     7
421
 16777215
176
     1
 74
     1
176
     1
 91
        4
176
     1
 64
     7
176
     1
 65
   257
176
     1
 75
     1
176
     1
175
     1
176
     1
 42
1.0
176
     1
 92
        0
176
     1
 66
   257
176
     1
 43
1.0
176
     1
 76
     1
176
     1
 77
     6
176
     1
 78
     2
176
     1
 67
     7
176
     1
 79
     5
176
     1
170
     0
176
     1
171
     0
176
     1
290
     0
176
     1
 93
        1
176
     1
 44
0.0
176
     1
173
     0
176
     1
  0
VISUALSTYLE
  5
31
102
{ACAD_REACTORS
330
2A
102
}
330
2A
100
AcDbVisualStyle
  2
3D Hidden
 70
     6
177
     2
291
     0
 71
     1
176
     1
 72
     2
176
     1
 73
     2
176
     1
 90
        0
176
     1
 40
-0.6
176
     1
 41
-30.0
176
     1
 62
     5
 63
     7
421
 16777215
176
     1
 74
     2
176
     1
 91
        2
176
     1
 64
     7
176
     1
 65
   257
176
     1
 75
     2
176
     1
175
     1
176
     1
 42
40.0
176
     1
 92
        0
176
     1
 66
   257
176
     1
 43
1.0
176
     1
 76
     1
176
     1
 77
     6
176
     1
 78
     2
176
     1
 67
     7
176
     1
 79
     3
176
     1
170
     0
176
     1
171
     0
176
     1
290
     0
176
     1
 93
        1
176
     1
 44
0.0
176
     1
173
     0
176
     1
  0
VISUALSTYLE
  5
30
102
{ACAD_REACTORS
330
2A
102
}
330
2A
100
AcDbVisualStyle
  2
3dWireframe
 70
     5
177
     2
291
     0
 71
     0
176
     1
 72
     2
176
     1
 73
     0
176
     1
 90
        0
176
     1
 40
-0.6
176
     1
 41
-30.0
176
     1
 62
     5
 63
     7
421
 16777215
176
     1
 74
     1
176
     1
 91
        4
176
     1
 64
     7
176
     1
 65
   257
176
     1
 75
     1
176
     1
175
     1
176
     1
 42
1.0
176
     1
 92
        0
176
     1
 66
   257
176
     1
 43
1.0
176
     1
 76
     1
176
     1
 77
     6
176
     1
 78
     2
176
     1
 67
     7
176
     1
 79
     5
176
     1
170
     0
176
     1
171
     0
176
     1
290
     0
176
     1
 93
        1
176
     1
 44
0.0
176
     1
173
     0
176
     1
  0
VISUALSTYLE
  5
32
102
{ACAD_REACTORS
330
2A
102
}
330
2A
100
AcDbVisualStyle
  2
Basic
 70
     7
177
     2
291
     1
 71
     1
176
     1
 72
     0
176
     1
 73
     1
176
     1
 90
        0
176
     1
 40
-0.6
176
     1
 41
-30.0
176
     1
 62
     5
 63
     7
421
 16777215
176
     1
 74
     0
176
     1
 91
        4
176
     1
 64
     7
176
     1
 65
   257
176
     1
 75
     1
176
     1
175
     1
176
     1
 42
1.0
176
     1
 92
        8
176
     1
 66
     7
176
     1
 43
1.0
176
     1
 76
     1
176
     1
 77
     6
176
     1
 78
     2
176
     1
 67
     7
176
     1
 79
     5
176
     1
170
     0
176
     1
171
     0
176
     1
290
     0
176
     1
 93
        1
176
     1
 44
0.0
176
     1
173
     0
176
     1
  0
VISUALSTYLE
  5
36
102
{ACAD_REACTORS
330
2A
102
}
330
2A
100
AcDbVisualStyle
  2
Brighten
 70
    12
177
     2
291
     1
 71
     2
176
     1
 72
     2
176
     1
 73
     0
176
     1
 90
        0
176
     1
 40
-0.6
176
     1
 41
-30.0
176
     1
 62
     5
 63
     7
421
 16777215
176
     1
 74
     1
176
     1
 91
        4
176
     1
 64
     7
176
     1
 65
   257
176
     1
 75
     1
176
     1
175
     1
176
     1
 42
1.0
176
     1
 92
        8
176
     1
 66
     7
176
     1
 43
1.0
176
     1
 76
     1
176
     1
 77
     6
176
     1
 78
     2
176
     1
 67
     7
176
     1
 79
     5
176
     1
170
     0
176
     1
171
     0
176
     1
290
     0
176
     1
 93
        1
176
     1
 44
50.0
176
     1
173
     0
176
     1
  0
VISUALSTYLE
  5
3A
102
{ACAD_REACTORS
330
2A
102
}
330
2A
100
AcDbVisualStyle
  2
ColorChange
 70
    16
177
     2
291
     1
 71
     2
176
     1
 72
     2
176
     1
 73
     3
176
     1
 90
        0
176
     1
 40
-0.6
176
     1
 41
-30.0
176
     1
 62
     5
 63
     8
421
  8421504
176
     1
 74
     1
176
     1
 91
        4
176
     1
 64
     7
176
     1
 65
   257
176
     1
 75
     1
176
     1
175
     1
176
     1
 42
1.0
176
     1
 92
        8
176
     1
 66
     8
424
  8421504
176
     1
 43
1.0
176
     1
 76
     1
176
     1
 77
     6
176
     1
 78
     2
176
     1
 67
     7
176
     1
 79
     5
176
     1
170
     0
176
     1
171
     0
176
     1
290
     0
176
     1
 93
        1
176
     1
 44
0.0
176
     1
173
     0
176
     1
  0
VISUALSTYLE
  5
34
102
{ACAD_REACTORS
330
2A
102
}
330
2A
100
AcDbVisualStyle
  2
Conceptual
 70
     9
177
     2
291
     0
 71
     3
176
     1
 72
     2
176
     1
 73
     0
176
     1
 90
        0
176
     1
 40
-0.6
176
     1
 41
-30.0
176
     1
 62
     5
 63
     7
421
 16777215
176
     1
 74
     2
176
     1
 91
        2
176
     1
 64
     7
176
     1
 65
   257
176
     1
 75
     1
176
     1
175
     1
176
     1
 42
40.0
176
     1
 92
        8
176
     1
 66
     7
176
     1
 43
1.0
176
     1
 76
     1
176
     1
 77
     6
176
     1
 78
     2
176
     1
 67
     7
176
     1
 79
     3
176
     1
170
     0
176
     1
171
     0
176
     1
290
     0
176
     1
 93
        1
176
     1
 44
0.0
176
     1
173
     0
176
     1
  0
VISUALSTYLE
  5
35
102
{ACAD_REACTORS
330
2A
102
}
330
2A
100
AcDbVisualStyle
  2
Dim
 70
    11
177
     2
291
     1
 71
     2
176
     1
 72
     2
176
     1
 73
     0
176
     1
 90
        0
176
     1
 40
-0.6
176
     1
 41
-30.0
176
     1
 62
     5
 63
     7
421
 16777215
176
     1
 74
     1
176
     1
 91
        4
176
     1
 64
     7
176
     1
 65
   257
176
     1
 75
     1
176
     1
175
     1
176
     1
 42
1.0
176
     1
 92
        8
176
     1
 66
     7
176
     1
 43
1.0
176
     1
 76
     1
176
     1
 77
     6
176
     1
 78
     2
176
     1
 67
     7
176
     1
 79
     5
176
     1
170
     0
176
     1
171
     0
176
     1
290
     0
176
     1
 93
        1
176
     1
 44
-50.0
176
     1
173
     0
176
     1
  0
VISUALSTYLE
  5
39
102
{ACAD_REACTORS
330
2A
102
}
330
2A
100
AcDbVisualStyle
  2
Facepattern
 70
    15
177
     2
291
     1
 71
     2
176
     1
 72
     2
176
     1
 73
     0
176
     1
 90
        0
176
     1
 40
-0.6
176
     1
 41
-30.0
176
     1
 62
     5
 63
     7
421
 16777215
176
     1
 74
     1
176
     1
 91
        4
176
     1
 64
     7
176
     1
 65
   257
176
     1
 75
     1
176
     1
175
     1
176
     1
 42
1.0
176
     1
 92
        8
176
     1
 66
     7
176
     1
 43
1.0
176
     1
 76
     1
176
     1
 77
     6
176
     1
 78
     2
176
     1
 67
     7
176
     1
 79
     5
176
     1
170
     0
176
     1
171
     0
176
     1
290
     0
176
     1
 93
        1
176
     1
 44
0.0
176
     1
173
     0
176
     1
  0
VISUALSTYLE
  5
2B
102
{ACAD_REACTORS
330
2A
102
}
330
2A
100
AcDbVisualStyle
  2
Flat
 70
     0
177
     2
291
     1
 71
     2
176
     1
 72
     1
176
     1
 73
     1
176
     1
 90
        2
176
     1
 40
-0.6
176
     1
 41
30.0
176
     1
 62
     5
 63
     7
421
 16777215
176
     1
 74
     0
176
     1
 91
        4
176
     1
 64
     7
176
     1
 65
   257
176
     1
 75
     1
176
     1
175
     1
176
     1
 42
1.0
176
     1
 92
        8
176
     1
 66
     7
176
     1
 43
1.0
176
     1
 76
     1
176
     1
 77
     6
176
     1
 78
     2
176
     1
 67
     7
176
     1
 79
     5
176
     1
170
     0
176
     1
171
     0
176
     1
290
     0
176
     1
 93
       13
176
     1
 44
0.0
176
     1
173
     0
176
     1
  0
VISUALSTYLE
  5
2C
102
{ACAD_REACTORS
330
2A
102
}
330
2A
100
AcDbVisualStyle
  2
FlatWithEdges
 70
     1
177
     2
291
     1
 71
     2
176
     1
 72
     1
176
     1
 73
     1
176
     1
 90
        2
176
     1
 40
-0.6
176
     1
 41
30.0
176
     1
 62
     5
 63
     7
421
 16777215
176
     1
 74
     1
176
     1
 91
        4
176
     1
 64
     7
176
     1
 65
   257
176
     1
 75
     1
176
     1
175
     1
176
     1
 42
1.0
176
     1
 92
        0
176
     1
 66
   257
176
     1
 43
1.0
176
     1
 76
     1
176
     1
 77
     6
176
     1
 78
     2
176
     1
 67
     7
176
     1
 79
     5
176
     1
170
     0
176
     1
171
     0
176
     1
290
     0
176
     1
 93
       13
176
     1
 44
0.0
176
     1
173
     0
176
     1
  0
VISUALSTYLE
  5
2D
102
{ACAD_REACTORS
330
2A
102
}
330
2A
100
AcDbVisualStyle
  2
Gouraud
 70
     2
177
     2
291
     1
 71
     2
176
     1
 72
     2
176
     1
 73
     1
176
     1
 90
        2
176
     1
 40
-0.6
176
     1
 41
30.0
176
     1
 62
     5
 63
     7
421
 16777215
176
     1
 74
     0
176
     1
 91
        4
176
     1
 64
     7
176
     1
 65
   257
176
     1
 75
     1
176
     1
175
     1
176
     1
 42
1.0
176
     1
 92
        0
176
     1
 66
     7
176
     1
 43
1.0
176
     1
 76
     1
176
     1
 77
     6
176
     1
 78
     2
176
     1
 67
     7
176
     1
 79
     5
176
     1
170
     0
176
     1
171
     0
176
     1
290
     0
176
     1
 93
       13
176
     1
 44
0.0
176
     1
173
     0
176
     1
  0
VISUALSTYLE
  5
2E
102
{ACAD_REACTORS
330
2A
102
}
330
2A
100
AcDbVisualStyle
  2
GouraudWithEdges
 70
     3
177
     2
291
     1
 71
     2
176
     1
 72
     2
176
     1
 73
     1
176
     1
 90
        2
176
     1
 40
-0.6
176
     1
 41
30.0
176
     1
 62
     5
 63
     7
421
 16777215
176
     1
 74
     1
176
     1
 91
        4
176
     1
 64
     7
176
     1
 65
   257
176
     1
 75
     1
176
     1
175
     1
176
     1
 42
1.0
176
     1
 92
        0
176
     1
 66
   257
176
     1
 43
1.0
176
     1
 76
     1
176
     1
 77
     6
176
     1
 78
     2
176
     1
 67
     7
176
     1
 79
     5
176
     1
170
     0
176
     1
171
     0
176
     1
290
     0
176
     1
 93
       13
176
     1
 44
0.0
176
     1
173
     0
176
     1
  0
VISUALSTYLE
  5
38
102
{ACAD_REACTORS
330
2A
102
}
330
2A
100
AcDbVisualStyle
  2
Linepattern
 70
    14
177
     2
291
     1
 71
     2
176
     1
 72
     2
176
     1
 73
     0
176
     1
 90
        0
176
     1
 40
-0.6
176
     1
 41
-30.0
176
     1
 62
     5
 63
     7
421
 16777215
176
     1
 74
     1
176
     1
 91
        4
176
     1
 64
     7
176
     1
 65
   257
176
     1
 75
     7
176
     1
175
     7
176
     1
 42
1.0
176
     1
 92
        8
176
     1
 66
     7
176
     1
 43
1.0
176
     1
 76
     1
176
     1
 77
     6
176
     1
 78
     2
176
     1
 67
     7
176
     1
 79
     5
176
     1
170
     0
176
     1
171
     0
176
     1
290
     0
176
     1
 93
        1
176
     1
 44
0.0
176
     1
173
     0
176
     1
  0
VISUALSTYLE
  5
33
102
{ACAD_REACTORS
330
2A
102
}
330
2A
100
AcDbVisualStyle
  2
Realistic
 70
     8
177
     2
291
     0
 71
     2
176
     1
 72
     2
176
     1
 73
     0
176
     1
 90
        0
176
     1
 40
-0.6
176
     1
 41
-30.0
176
     1
 62
     5
 63
     7
421
 16777215
176
     1
 74
     1
176
     1
 91
        0
176
     1
 64
     7
176
     1
 65
   257
176
     1
 75
     1
176
     1
175
     1
176
     1
 42
1.0
176
     1
 92
        8
176
     1
 66
     8
424
  7895160
176
     1
 43
1.0
176
     1
 76
     1
176
     1
 77
     6
176
     1
 78
     2
176
     1
 67
     7
176
     1
 79
     5
176
     1
170
     0
176
     1
171
     0
176
     1
290
     0
176
     1
 93
       13
176
     1
 44
0.0
176
     1
173
     0
176
     1
  0
VISUALSTYLE
  5
37
102
{ACAD_REACTORS
330
2A
102
}
330
2A
100
AcDbVisualStyle
  2
Thicken
 70
    13
177
     2
291
     1
 71
     2
176
     1
 72
     2
176
     1
 73
     0
176
     1
 90
        0
176
     1
 40
-0.6
176
     1
 41
-30.0
176
     1
 62
     5
 63
     7
421
 16777215
176
     1
 74
     1
176
     1
 91
        4
176
     1
 64
     7
176
     1
 65
   257
176
     1
 75
     1
176
     1
175
     1
176
     1
 42
1.0
176
     1
 92
       12
176
     1
 66
     7
176
     1
 43
1.0
176
     1
 76
     1
176
     1
 77
     6
176
     1
 78
     2
176
     1
 67
     7
176
     1
 79
     5
176
     1
170
     0
176
     1
171
     0
176
     1
290
     0
176
     1
 93
        1
176
     1
 44
0.0
176
     1
173
     0
176
     1
  0
ENDSEC
  0
EOF
