<?xml version="1.0" encoding="utf-8"?>
<!-- Generator: Adobe Illustrator 19.2.1, SVG Export Plug-In . SVG Version: 6.00 Build 0)  -->
<svg version="1.1" id="Layer_1" xmlns="http://www.w3.org/2000/svg" xmlns:xlink="http://www.w3.org/1999/xlink" x="0px" y="0px"
	 viewBox="0 0 100 125" style="enable-background:new 0 0 100 125;" xml:space="preserve">
<path d="M77.9,25c-8.4-7.4-21.3-9.1-26-8.8c-1,0.1-2.6,0.2-2.6,0.2c-1.1-2.1-6.6-9.3-18-10.9L27.8,5C27.3,5,27,5.6,27.3,6
	c2.2,2.7,7.4,9.4,7.8,12.5c0,0.2-0.1,0.4-0.3,0.6c-2.4,1.6-17,6.4-20.5,30.7C12.8,61,19,70.8,19,70.8c-2,1.7-6.7,8.6-6.7,15.2
	c0,5.3,1,7.7,1.8,8.7c0.3,0.4,0.9,0.3,1-0.2c0.5-2.4,2-8.5,4.3-10.7c2.8-2.8,6-3.1,5.3-6.4l-0.5-2.2c-0.1-0.4,0.3-0.8,0.8-0.7
	c1.7,0.7,5.3,1.6,7.5-1.6c2.1-3,6.5-3.2,9.1-3c0.6,0,0.8-0.7,0.4-1c-3.1-2.2-10.4-4.4-17.9-0.7c-0.4,0.2-0.8-0.1-0.8-0.5
	c-0.2-3.2-0.4-16.5,7.3-22.5c8-6.3,17.6-6,19.6-5.9c0.2,0,0.4,0.2,0.5,0.4c0.4,1.3,1.6,6.1-1.8,11.3l-2.6,3.9
	c-0.3,0.5,0.3,1.1,0.8,0.8c3.4-2.4,9.6-7.6,10.9-14c0.1-0.4,0.4-0.6,0.8-0.4c2.6,1.1,12.6,5.5,12.6,16.2c0,10.1,3.7,9.1,5.1,8.8
	c3-0.6,3.4-8.6,3.2-10.2C79.6,56.1,98.9,43.5,77.9,25z M25.6,69.6c0.1-0.1,3-1.5,5.7-1.4c0.3,0,0.5,0.2,0.5,0.5
	c0,0.3-0.2,0.5-0.5,0.5c-2.5-0.1-5.2,1.3-5.2,1.3c-0.1,0-0.1,0.1-0.2,0.1c-0.2,0-0.4-0.1-0.4-0.3C25.3,70,25.4,69.7,25.6,69.6z
	 M17.6,62.3c-2.2-6.9-0.9-13.4-0.8-13.7c0.1-0.3,0.3-0.4,0.6-0.4c0.3,0.1,0.4,0.3,0.4,0.6c0,0.1-1.3,6.5,0.8,13.2
	c0.1,0.3-0.1,0.5-0.3,0.6c0,0-0.1,0-0.1,0C17.9,62.6,17.7,62.5,17.6,62.3z M19.3,65.5c-0.1,0-0.1,0-0.2,0c-0.2,0-0.4-0.1-0.5-0.3
	l-0.6-1.4c-0.1-0.3,0-0.5,0.3-0.6c0.3-0.1,0.5,0,0.6,0.3l0.6,1.4C19.7,65.1,19.6,65.4,19.3,65.5z M22.7,78.1
	c-0.1,0.5-0.4,0.9-0.9,1.3c-0.1,0.1-0.2,0.1-0.3,0.1c-0.2,0-0.3-0.1-0.4-0.2C21,79,21,78.7,21.3,78.5c0.1-0.1,0.9-0.7,0.1-1.9
	c-0.2-0.2-0.1-0.5,0.1-0.7s0.5-0.1,0.7,0.1C22.3,76.2,22.9,77.1,22.7,78.1z M70.5,23.5c-0.1,0.2-0.3,0.3-0.4,0.3
	c-0.1,0-0.2,0-0.2-0.1c0,0-1.1-0.6-2.2-1.1c-0.3-0.1-0.4-0.4-0.3-0.6c0.1-0.3,0.4-0.4,0.6-0.3c1.2,0.5,2.2,1.1,2.3,1.1
	C70.6,22.9,70.7,23.2,70.5,23.5z M71.3,24.5C71,24.3,71,24,71.1,23.8c0.1-0.2,0.4-0.3,0.7-0.2c4.8,2.9,7.2,5.9,7.3,6.1
	c0.2,0.2,0.1,0.5-0.1,0.7c-0.1,0.1-0.2,0.1-0.3,0.1c-0.1,0-0.3-0.1-0.4-0.2C78.2,30.3,75.9,27.3,71.3,24.5z M79.6,49.3
	c-0.1,0.9-0.9,1.5-1.8,1.5l0,0c-0.1,0-0.2,0-0.3,0c-0.5-0.1-0.9-0.3-1.2-0.7c-0.3-0.4-0.4-0.8-0.3-1.3c0.1-0.9,0.9-1.5,1.8-1.5
	c0.1,0,0.2,0,0.3,0C79.1,47.5,79.7,48.4,79.6,49.3z M78.4,49.2c0,0.3-0.3,0.5-0.7,0.5c-0.2,0-0.3-0.1-0.4-0.2s-0.1-0.3-0.1-0.4
	c0-0.3,0.3-0.5,0.6-0.5c0,0,0.1,0,0.1,0C78.3,48.5,78.5,48.8,78.4,49.2z"/>
</svg>
