<?xml version="1.0" encoding="utf-8"?>
<!-- Generator: Adobe Illustrator 19.2.1, SVG Export Plug-In . SVG Version: 6.00 Build 0)  -->
<svg version="1.1" baseProfile="basic" id="Layer_1"
	 xmlns="http://www.w3.org/2000/svg" xmlns:xlink="http://www.w3.org/1999/xlink" x="0px" y="0px" viewBox="0 0 100 125"
	 xml:space="preserve">
<path d="M95.2,50c-9.5-10.2-23-16.5-38-16.5c-12.2,0-23.4,4.2-32.3,11.3c-5.8-4.6-12.6-8-20.1-9.8c4.9,3.9,9.4,9,13.2,15
	c-3.8,6-8.3,11.1-13.2,15.1c7.4-1.8,14.2-5.2,20.1-9.8c8.9,7.1,20.1,11.3,32.3,11.3c11.7,0,22.5-3.9,31.2-10.5
	c-0.4-0.9-2.5-3.7-10.8-3.7c0,0,6-3,14.9,0.3C93.4,51.8,94.3,50.9,95.2,50z M74.5,47.6c-1.7,0-3.2-1.4-3.2-3.2
	c0-1.7,1.4-3.2,3.2-3.2s3.2,1.4,3.2,3.2C77.7,46.2,76.2,47.6,74.5,47.6z"/>
</svg>
