<?xml version="1.0" encoding="utf-8"?>
<!-- Generator: Adobe Illustrator 19.2.1, SVG Export Plug-In . SVG Version: 6.00 Build 0)  -->
<svg version="1.1" id="Layer_1" xmlns="http://www.w3.org/2000/svg" xmlns:xlink="http://www.w3.org/1999/xlink" x="0px" y="0px"
	 viewBox="0 0 100 125" style="enable-background:new 0 0 100 125;" xml:space="preserve">
<path d="M25.1,44.1c0,0-1.5-1.3-2.9-1.6c-0.5-0.1-6.9,2.8-7.1,2.8c-0.2,0-2.4,0.9-3.3,0.7c-0.9-0.2-2.1-0.8-3.1-1.7
	c-0.3-0.2-2.4-0.6-2.2-1.9c0.2-1.4,0.6-1.5,2-2.3c1.5-0.8,2.8-3.4,6.5-4.7c3.7-1.3,4.1-6.5,30.8-6.5c0,0,0.2-0.7,2.4-1.5
	c2.2-0.7,5,2.8,5.2,3.9c0.2,1.1,0.4,3.3,0,3.7s-3.7,1.8-5.4,1.8c-1.7-0.1-7,0.5-6.3,1.9c0.7,1.3,1.7,1.3,1.7,1.3l7,2.9l7.6,3.2
	c0,0,6.9,2,9.5,2.1c2.7-1.4,16.5-8.5,24.5-8.2c0.8,0,1.7,0.1,1.7,0.5c0.1,0.9-10.4,2.6-18.8,12.9c0,0,1.9,5.4,3,7.6
	c0,0-2.4,0-3.7-0.7c-1.1-0.7-6.3-6.5-6.5-7.2c-0.2-0.7-2.4-0.1-5.6,1.1c-2.3,0.8-4.6,0.5-9.3,0.1c-0.3-0.1,13.2,15.1-6.7-0.8
	c-2.8-0.2-5.9-0.5-7.9-1c0,0-10.7,8.9-12.4,8.5C24.1,60.7,31,50.4,31,50.4L25.1,44.1z"/>
</svg>
