  0
SECTION
  2
HEADER
  9
$ACADVER
  1
AC1024
  9
$ACADMAINTVER
 70
     6
  9
$DWGCODEPAGE
  3
UNDEFINED
  9
$INSBASE
 10
0.0
 20
0.0
 30
0.0
  9
$EXTMIN
 10
1.000000000000000E+20
 20
1.000000000000000E+20
 30
1.000000000000000E+20
  9
$EXTMAX
 10
-1.000000000000000E+20
 20
-1.000000000000000E+20
 30
-1.000000000000000E+20
  9
$LIMMIN
 10
0.0
 20
0.0
  9
$LIMMAX
 10
12.0
 20
9.0
  9
$ORTHOMODE
 70
     0
  9
$REGENMODE
 70
     1
  9
$FILLMODE
 70
     1
  9
$QTEXTMODE
 70
     0
  9
$MIRRTEXT
 70
     1
  9
$LTSCALE
 40
1.0
  9
$ATTMODE
 70
     1
  9
$TEXTSIZE
 40
0.2
  9
$TRACEWID
 40
0.05
  9
$TEXTSTYLE
  7
Standard
  9
$CLAYER
  8
0
  9
$CELTYPE
  6
ByLayer
  9
$CECOLOR
 62
   256
  9
$CELTSCALE
 40
1.0
  9
$DISPSILH
 70
     0
  9
$DIMSCALE
 40
1.0
  9
$DIMASZ
 40
0.18
  9
$DIMEXO
 40
0.0625
  9
$DIMDLI
 40
0.38
  9
$DIMRND
 40
0.0
  9
$DIMDLE
 40
0.0
  9
$DIMEXE
 40
0.18
  9
$DIMTP
 40
0.0
  9
$DIMTM
 40
0.0
  9
$DIMTXT
 40
0.18
  9
$DIMCEN
 40
0.09
  9
$DIMTSZ
 40
0.0
  9
$DIMTOL
 70
     0
  9
$DIMLIM
 70
     0
  9
$DIMTIH
 70
     1
  9
$DIMTOH
 70
     1
  9
$DIMSE1
 70
     0
  9
$DIMSE2
 70
     0
  9
$DIMTAD
 70
     0
  9
$DIMZIN
 70
     0
  9
$DIMBLK
  1

  9
$DIMASO
 70
     1
  9
$DIMSHO
 70
     1
  9
$DIMPOST
  1

  9
$DIMAPOST
  1

  9
$DIMALT
 70
     0
  9
$DIMALTD
 70
     2
  9
$DIMALTF
 40
25.4
  9
$DIMLFAC
 40
1.0
  9
$DIMTOFL
 70
     0
  9
$DIMTVP
 40
0.0
  9
$DIMTIX
 70
     0
  9
$DIMSOXD
 70
     0
  9
$DIMSAH
 70
     0
  9
$DIMBLK1
  1

  9
$DIMBLK2
  1

  9
$DIMSTYLE
  2
Standard
  9
$DIMCLRD
 70
     0
  9
$DIMCLRE
 70
     0
  9
$DIMCLRT
 70
     0
  9
$DIMTFAC
 40
1.0
  9
$DIMGAP
 40
0.09
  9
$DIMJUST
 70
     0
  9
$DIMSD1
 70
     0
  9
$DIMSD2
 70
     0
  9
$DIMTOLJ
 70
     1
  9
$DIMTZIN
 70
     0
  9
$DIMALTZ
 70
     0
  9
$DIMALTTZ
 70
     0
  9
$DIMUPT
 70
     0
  9
$DIMDEC
 70
     4
  9
$DIMTDEC
 70
     4
  9
$DIMALTU
 70
     2
  9
$DIMALTTD
 70
     2
  9
$DIMTXSTY
  7
Standard
  9
$DIMAUNIT
 70
     0
  9
$DIMADEC
 70
     0
  9
$DIMALTRND
 40
0.0
  9
$DIMAZIN
 70
     0
  9
$DIMDSEP
 70
    46
  9
$DIMATFIT
 70
     3
  9
$DIMFRAC
 70
     0
  9
$DIMLDRBLK
  1

  9
$DIMLUNIT
 70
     2
  9
$DIMLWD
 70
    -2
  9
$DIMLWE
 70
    -2
  9
$DIMTMOVE
 70
     0
  9
$DIMFXL
 40
1.0
  9
$DIMFXLON
 70
     0
  9
$DIMJOGANG
 40
0.7853981633974483
  9
$DIMTFILL
 70
     0
  9
$DIMTFILLCLR
 70
     0
  9
$DIMARCSYM
 70
     0
  9
$DIMLTYPE
  6

  9
$DIMLTEX1
  6

  9
$DIMLTEX2
  6

  9
$DIMTXTDIRECTION
 70
     0
  9
$LUNITS
 70
     2
  9
$LUPREC
 70
     4
  9
$SKETCHINC
 40
0.1
  9
$FILLETRAD
 40
0.5
  9
$AUNITS
 70
     0
  9
$AUPREC
 70
     0
  9
$MENU
  1
.
  9
$ELEVATION
 40
0.0
  9
$PELEVATION
 40
0.0
  9
$THICKNESS
 40
0.0
  9
$LIMCHECK
 70
     0
  9
$CHAMFERA
 40
0.5
  9
$CHAMFERB
 40
0.5
  9
$CHAMFERC
 40
1.0
  9
$CHAMFERD
 40
0.0
  9
$SKPOLY
 70
     0
  9
$TDCREATE
 40
2457535.598564803
  9
$TDUCREATE
 40
2457535.806898148
  9
$TDUPDATE
 40
2457535.598564803
  9
$TDUUPDATE
 40
2457535.806898148
  9
$TDINDWG
 40
0.0000000116
  9
$TDUSRTIMER
 40
0.0000000116
  9
$USRTIMER
 70
     1
  9
$ANGBASE
 50
0.0
  9
$ANGDIR
 70
     0
  9
$PDMODE
 70
     0
  9
$PDSIZE
 40
0.0
  9
$PLINEWID
 40
0.0
  9
$SPLFRAME
 70
     0
  9
$SPLINETYPE
 70
     6
  9
$SPLINESEGS
 70
     8
  9
$HANDSEED
  5
4D
  9
$SURFTAB1
 70
     6
  9
$SURFTAB2
 70
     6
  9
$SURFTYPE
 70
     6
  9
$SURFU
 70
     6
  9
$SURFV
 70
     6
  9
$UCSBASE
  2

  9
$UCSNAME
  2

  9
$UCSORG
 10
0.0
 20
0.0
 30
0.0
  9
$UCSXDIR
 10
1.0
 20
0.0
 30
0.0
  9
$UCSYDIR
 10
0.0
 20
1.0
 30
0.0
  9
$UCSORTHOREF
  2

  9
$UCSORTHOVIEW
 70
     0
  9
$UCSORGTOP
 10
0.0
 20
0.0
 30
0.0
  9
$UCSORGBOTTOM
 10
0.0
 20
0.0
 30
0.0
  9
$UCSORGLEFT
 10
0.0
 20
0.0
 30
0.0
  9
$UCSORGRIGHT
 10
0.0
 20
0.0
 30
0.0
  9
$UCSORGFRONT
 10
0.0
 20
0.0
 30
0.0
  9
$UCSORGBACK
 10
0.0
 20
0.0
 30
0.0
  9
$PUCSBASE
  2

  9
$PUCSNAME
  2

  9
$PUCSORG
 10
0.0
 20
0.0
 30
0.0
  9
$PUCSXDIR
 10
1.0
 20
0.0
 30
0.0
  9
$PUCSYDIR
 10
0.0
 20
1.0
 30
0.0
  9
$PUCSORTHOREF
  2

  9
$PUCSORTHOVIEW
 70
     0
  9
$PUCSORGTOP
 10
0.0
 20
0.0
 30
0.0
  9
$PUCSORGBOTTOM
 10
0.0
 20
0.0
 30
0.0
  9
$PUCSORGLEFT
 10
0.0
 20
0.0
 30
0.0
  9
$PUCSORGRIGHT
 10
0.0
 20
0.0
 30
0.0
  9
$PUCSORGFRONT
 10
0.0
 20
0.0
 30
0.0
  9
$PUCSORGBACK
 10
0.0
 20
0.0
 30
0.0
  9
$USERI1
 70
     0
  9
$USERI2
 70
     0
  9
$USERI3
 70
     0
  9
$USERI4
 70
     0
  9
$USERI5
 70
     0
  9
$USERR1
 40
0.0
  9
$USERR2
 40
0.0
  9
$USERR3
 40
0.0
  9
$USERR4
 40
0.0
  9
$USERR5
 40
0.0
  9
$WORLDVIEW
 70
     1
  9
$SHADEDGE
 70
     3
  9
$SHADEDIF
 70
    70
  9
$TILEMODE
 70
     1
  9
$MAXACTVP
 70
    64
  9
$PINSBASE
 10
0.0
 20
0.0
 30
0.0
  9
$PLIMCHECK
 70
     0
  9
$PEXTMIN
 10
1.000000000000000E+20
 20
1.000000000000000E+20
 30
1.000000000000000E+20
  9
$PEXTMAX
 10
-1.000000000000000E+20
 20
-1.000000000000000E+20
 30
-1.000000000000000E+20
  9
$PLIMMIN
 10
0.0
 20
0.0
  9
$PLIMMAX
 10
12.0
 20
9.0
  9
$UNITMODE
 70
     0
  9
$VISRETAIN
 70
     1
  9
$PLINEGEN
 70
     0
  9
$PSLTSCALE
 70
     1
  9
$TREEDEPTH
 70
  3020
  9
$CMLSTYLE
  2
Standard
  9
$CMLJUST
 70
     0
  9
$CMLSCALE
 40
1.0
  9
$PROXYGRAPHICS
 70
     1
  9
$MEASUREMENT
 70
     0
  9
$CELWEIGHT
370
    -1
  9
$ENDCAPS
280
     0
  9
$JOINSTYLE
280
     0
  9
$LWDISPLAY
290
     1
  9
$INSUNITS
 70
     1
  9
$HYPERLINKBASE
  1

  9
$STYLESHEET
  1

  9
$XEDIT
290
     1
  9
$CEPSNTYPE
380
     0
  9
$PSTYLEMODE
290
     1
  9
$FINGERPRINTGUID
  2
{3CFD6AE5-8E54-B31D-C6FE-AF829B7EA826}
  9
$VERSIONGUID
  2
{FAEB1C32-E019-11D5-929B-00C0DF256EC4}
  9
$EXTNAMES
290
     1
  9
$PSVPSCALE
 40
0.0
  9
$OLESTARTUP
290
     0
  9
$SORTENTS
280
   127
  9
$INDEXCTL
280
     0
  9
$HIDETEXT
280
     1
  9
$XCLIPFRAME
280
     2
  9
$HALOGAP
280
     0
  9
$OBSCOLOR
 70
   257
  9
$OBSLTYPE
280
     0
  9
$INTERSECTIONDISPLAY
280
     0
  9
$INTERSECTIONCOLOR
 70
   257
  9
$DIMASSOC
280
     2
  9
$PROJECTNAME
  1

  9
$CAMERADISPLAY
290
     0
  9
$LENSLENGTH
 40
50.0
  9
$CAMERAHEIGHT
 40
0.0
  9
$STEPSPERSEC
 40
2.0
  9
$STEPSIZE
 40
6.0
  9
$3DDWFPREC
 40
2.0
  9
$PSOLWIDTH
 40
0.25
  9
$PSOLHEIGHT
 40
4.0
  9
$LOFTANG1
 40
1.570796326794897
  9
$LOFTANG2
 40
1.570796326794897
  9
$LOFTMAG1
 40
0.0
  9
$LOFTMAG2
 40
0.0
  9
$LOFTPARAM
 70
     7
  9
$LOFTNORMALS
280
     1
  9
$LATITUDE
 40
37.795
  9
$LONGITUDE
 40
-122.394
  9
$NORTHDIRECTION
 40
0.0
  9
$TIMEZONE
 70
 -8000
  9
$LIGHTGLYPHDISPLAY
280
     1
  9
$TILEMODELIGHTSYNCH
280
     1
  9
$CMATERIAL
347
3C
  9
$SOLIDHIST
280
     1
  9
$SHOWHIST
280
     1
  9
$DWFFRAME
280
     2
  9
$DGNFRAME
280
     2
  9
$REALWORLDSCALE
290
     1
  9
$INTERFERECOLOR
 62
   256
  9
$CSHADOW
280
     0
  9
$SHADOWPLANELOCATION
 40
0.0
  0
ENDSEC
  0
SECTION
  2
CLASSES
  0
CLASS
  1
ACDBDICTIONARYWDFLT
  2
AcDbDictionaryWithDefault
  3
ObjectDBX Classes
 90
        0
 91
        4
280
     0
281
     0
  0
CLASS
  1
VISUALSTYLE
  2
AcDbVisualStyle
  3
ObjectDBX Classes
 90
     4095
 91
        4
280
     0
281
     0
  0
CLASS
  1
MATERIAL
  2
AcDbMaterial
  3
ObjectDBX Classes
 90
     1153
 91
        4
280
     0
281
     0
  0
CLASS
  1
SUN
  2
AcDbSun
  3
SCENEOE
 90
     1024
 91
        4
280
     0
281
     0
  0
ENDSEC
  0
SECTION
  2
TABLES
  0
TABLE
  2
VPORT
  5
8
330
0
100
AcDbSymbolTable
 70
     1
  0
VPORT
  5
29
330
8
100
AcDbSymbolTableRecord
100
AcDbViewportTableRecord
  2
*Active
 70
     0
 10
0.0
 20
0.0
 11
1.0
 21
1.0
 12
0.0
 22
0.0
 13
0.0
 23
0.0
 14
0.5
 24
0.5
 15
0.5
 25
0.5
 16
0.0
 26
0.0
 36
1.0
 17
50.0
 27
62.5
 37
0.0
 40
125.0
 41
0.8
 42
50.0
 43
0.0
 44
0.0
 50
0.0
 51
0.0
 71
     0
 72
   100
 73
     1
 74
     3
 75
     0
 76
     0
 77
     0
 78
     0
281
     0
 65
     1
110
0.0
120
0.0
130
0.0
111
1.0
121
0.0
131
0.0
112
0.0
122
1.0
132
0.0
 79
     0
146
0.0
 60
     3
 61
     5
292
     1
282
     1
141
0.0
142
0.0
 63
   250
361
3F
  0
ENDTAB
  0
TABLE
  2
LTYPE
  5
5
330
0
100
AcDbSymbolTable
 70
     1
  0
LTYPE
  5
14
330
5
100
AcDbSymbolTableRecord
100
AcDbLinetypeTableRecord
  2
ByBlock
 70
     0
  3

 72
    65
 73
     0
 40
0.0
  0
LTYPE
  5
15
330
5
100
AcDbSymbolTableRecord
100
AcDbLinetypeTableRecord
  2
ByLayer
 70
     0
  3

 72
    65
 73
     0
 40
0.0
  0
LTYPE
  5
16
330
5
100
AcDbSymbolTableRecord
100
AcDbLinetypeTableRecord
  2
Continuous
 70
     0
  3
Solid line
 72
    65
 73
     0
 40
0.0
  0
ENDTAB
  0
TABLE
  2
LAYER
  5
2
330
0
100
AcDbSymbolTable
 70
     2
  0
LAYER
  5
10
330
2
100
AcDbSymbolTableRecord
100
AcDbLayerTableRecord
  2
0
 70
     0
 62
     7
  6
Continuous
370
    -3
390
F
347
3E
  0
LAYER
  5
40
330
2
100
AcDbSymbolTableRecord
100
AcDbLayerTableRecord
  2
Layer 1
 70
     0
 62
     7
  6
Continuous
370
    -3
390
F
347
3E
  0
ENDTAB
  0
TABLE
  2
STYLE
  5
3
330
0
100
AcDbSymbolTable
 70
     1
  0
STYLE
  5
11
330
3
100
AcDbSymbolTableRecord
100
AcDbTextStyleTableRecord
  2
Standard
 70
     0
 40
0.0
 41
1.0
 50
0.0
 71
     0
 42
0.2
  3
txt
  4

  0
ENDTAB
  0
TABLE
  2
VIEW
  5
6
330
0
100
AcDbSymbolTable
 70
     0
  0
ENDTAB
  0
TABLE
  2
UCS
  5
7
330
0
100
AcDbSymbolTable
 70
     0
  0
ENDTAB
  0
TABLE
  2
APPID
  5
9
330
0
100
AcDbSymbolTable
 70
     1
  0
APPID
  5
12
330
9
100
AcDbSymbolTableRecord
100
AcDbRegAppTableRecord
  2
ACAD
 70
     0
  0
ENDTAB
  0
TABLE
  2
DIMSTYLE
  5
A
330
0
100
AcDbSymbolTable
 70
     1
100
AcDbDimStyleTable
  0
DIMSTYLE
105
27
330
A
100
AcDbSymbolTableRecord
100
AcDbDimStyleTableRecord
  2
Standard
 70
     0
178
     0
340
11
  0
ENDTAB
  0
TABLE
  2
BLOCK_RECORD
  5
1
330
0
100
AcDbSymbolTable
 70
     1
  0
BLOCK_RECORD
  5
1F
330
1
100
AcDbSymbolTableRecord
100
AcDbBlockTableRecord
  2
*Model_Space
340
22
 70
     0
280
     1
281
     0
  0
BLOCK_RECORD
  5
1B
330
1
100
AcDbSymbolTableRecord
100
AcDbBlockTableRecord
  2
*Paper_Space
340
1E
 70
     0
280
     1
281
     0
  0
BLOCK_RECORD
  5
23
330
1
100
AcDbSymbolTableRecord
100
AcDbBlockTableRecord
  2
*Paper_Space0
340
26
 70
     0
280
     1
281
     0
  0
ENDTAB
  0
ENDSEC
  0
SECTION
  2
BLOCKS
  0
BLOCK
  5
20
330
1F
100
AcDbEntity
  8
0
100
AcDbBlockBegin
  2
*Model_Space
 70
     0
 10
0.0
 20
0.0
 30
0.0
  3
*Model_Space
  1

  0
ENDBLK
  5
21
330
1F
100
AcDbEntity
  8
0
100
AcDbBlockEnd
  0
BLOCK
  5
1C
330
1B
100
AcDbEntity
 67
     1
  8
0
100
AcDbBlockBegin
  2
*Paper_Space
 70
     0
 10
0.0
 20
0.0
 30
0.0
  3
*Paper_Space
  1

  0
ENDBLK
  5
1D
330
1B
100
AcDbEntity
 67
     1
  8
0
100
AcDbBlockEnd
  0
BLOCK
  5
24
330
23
100
AcDbEntity
  8
0
100
AcDbBlockBegin
  2
*Paper_Space0
 70
     0
 10
0.0
 20
0.0
 30
0.0
  3
*Paper_Space0
  1

  0
ENDBLK
  5
25
330
23
100
AcDbEntity
  8
0
100
AcDbBlockEnd
  0
ENDSEC
  0
SECTION
  2
ENTITIES
  0
SPLINE
  5
41
330
1F
100
AcDbEntity
  8
Layer 1
370
     0
100
AcDbSpline
210
0.0
220
0.0
230
1.0
 70
    11
 71
     3
 72
   281
 73
   277
 74
     0
 42
0.0000000001
 43
0.0000000001
 12
1.0
 22
0.0
 32
0.0
 13
1.0
 23
0.0
 33
0.0
 40
0.0
 40
0.0
 40
0.0
 40
0.0
 40
1.0
 40
1.0
 40
1.0
 40
2.0
 40
2.0
 40
2.0
 40
3.0
 40
3.0
 40
3.0
 40
4.0
 40
4.0
 40
4.0
 40
5.0
 40
5.0
 40
5.0
 40
6.0
 40
6.0
 40
6.0
 40
7.0
 40
7.0
 40
7.0
 40
8.0
 40
8.0
 40
8.0
 40
9.0
 40
9.0
 40
9.0
 40
10.0
 40
10.0
 40
10.0
 40
11.0
 40
11.0
 40
11.0
 40
12.0
 40
12.0
 40
12.0
 40
13.0
 40
13.0
 40
13.0
 40
14.0
 40
14.0
 40
14.0
 40
15.0
 40
15.0
 40
15.0
 40
16.0
 40
16.0
 40
16.0
 40
17.0
 40
17.0
 40
17.0
 40
18.0
 40
18.0
 40
18.0
 40
19.0
 40
19.0
 40
19.0
 40
20.0
 40
20.0
 40
20.0
 40
21.0
 40
21.0
 40
21.0
 40
22.0
 40
22.0
 40
22.0
 40
23.0
 40
23.0
 40
23.0
 40
24.0
 40
24.0
 40
24.0
 40
25.0
 40
25.0
 40
25.0
 40
26.0
 40
26.0
 40
26.0
 40
27.0
 40
27.0
 40
27.0
 40
28.0
 40
28.0
 40
28.0
 40
29.0
 40
29.0
 40
29.0
 40
30.0
 40
30.0
 40
30.0
 40
31.0
 40
31.0
 40
31.0
 40
32.0
 40
32.0
 40
32.0
 40
33.0
 40
33.0
 40
33.0
 40
34.0
 40
34.0
 40
34.0
 40
35.0
 40
35.0
 40
35.0
 40
36.0
 40
36.0
 40
36.0
 40
37.0
 40
37.0
 40
37.0
 40
38.0
 40
38.0
 40
38.0
 40
39.0
 40
39.0
 40
39.0
 40
40.0
 40
40.0
 40
40.0
 40
41.0
 40
41.0
 40
41.0
 40
42.0
 40
42.0
 40
42.0
 40
43.0
 40
43.0
 40
43.0
 40
44.0
 40
44.0
 40
44.0
 40
45.0
 40
45.0
 40
45.0
 40
46.0
 40
46.0
 40
46.0
 40
47.0
 40
47.0
 40
47.0
 40
48.0
 40
48.0
 40
48.0
 40
49.0
 40
49.0
 40
49.0
 40
50.0
 40
50.0
 40
50.0
 40
51.0
 40
51.0
 40
51.0
 40
52.0
 40
52.0
 40
52.0
 40
53.0
 40
53.0
 40
53.0
 40
54.0
 40
54.0
 40
54.0
 40
55.0
 40
55.0
 40
55.0
 40
56.0
 40
56.0
 40
56.0
 40
57.0
 40
57.0
 40
57.0
 40
58.0
 40
58.0
 40
58.0
 40
59.0
 40
59.0
 40
59.0
 40
60.0
 40
60.0
 40
60.0
 40
61.0
 40
61.0
 40
61.0
 40
62.0
 40
62.0
 40
62.0
 40
63.0
 40
63.0
 40
63.0
 40
64.0
 40
64.0
 40
64.0
 40
65.0
 40
65.0
 40
65.0
 40
66.0
 40
66.0
 40
66.0
 40
67.0
 40
67.0
 40
67.0
 40
68.0
 40
68.0
 40
68.0
 40
69.0
 40
69.0
 40
69.0
 40
70.0
 40
70.0
 40
70.0
 40
71.0
 40
71.0
 40
71.0
 40
72.0
 40
72.0
 40
72.0
 40
73.0
 40
73.0
 40
73.0
 40
74.0
 40
74.0
 40
74.0
 40
75.0
 40
75.0
 40
75.0
 40
76.0
 40
76.0
 40
76.0
 40
77.0
 40
77.0
 40
77.0
 40
78.0
 40
78.0
 40
78.0
 40
79.0
 40
79.0
 40
79.0
 40
80.0
 40
80.0
 40
80.0
 40
81.0
 40
81.0
 40
81.0
 40
82.0
 40
82.0
 40
82.0
 40
83.0
 40
83.0
 40
83.0
 40
84.0
 40
84.0
 40
84.0
 40
85.0
 40
85.0
 40
85.0
 40
86.0
 40
86.0
 40
86.0
 40
87.0
 40
87.0
 40
87.0
 40
88.0
 40
88.0
 40
88.0
 40
89.0
 40
89.0
 40
89.0
 40
90.0
 40
90.0
 40
90.0
 40
91.0
 40
91.0
 40
91.0
 40
92.0
 40
92.0
 40
92.0
 40
92.0
 10
88.32599639892578
 20
63.76399993896484
 30
0.0
 10
88.32599639892578
 20
63.76399993896484
 30
0.0
 10
81.69499969482422
 20
66.46599960327148
 30
0.0
 10
81.69499969482422
 20
66.46599960327148
 30
0.0
 10
80.49500274658203
 20
66.95499801635742
 30
0.0
 10
79.14800262451172
 20
66.82799911499023
 30
0.0
 10
78.05500030517578
 20
66.1520004272461
 30
0.0
 10
77.8239974975586
 20
66.28499984741211
 30
0.0
 10
77.59200286865234
 20
66.42000198364258
 30
0.0
 10
77.34400177001953
 20
66.55699920654297
 30
0.0
 10
76.61199951171875
 20
66.95800018310547
 30
0.0
 10
75.89700317382812
 20
67.33699798583984
 30
0.0
 10
75.18800354003906
 20
67.6989974975586
 30
0.0
 10
76.63300323486328
 20
72.64899826049805
 30
0.0
 10
76.58700561523438
 20
77.86099624633789
 30
0.0
 10
75.04700469970703
 20
82.78499603271484
 30
0.0
 10
75.04700469970703
 20
82.78499603271484
 30
0.0
 10
78.1310043334961
 20
84.08699798583984
 30
0.0
 10
78.1310043334961
 20
84.08699798583984
 30
0.0
 10
79.2020034790039
 20
83.51199722290039
 30
0.0
 10
80.46300506591797
 20
83.44399642944336
 30
0.0
 10
81.59000396728516
 20
83.91799926757812
 30
0.0
 10
81.59000396728516
 20
83.91799926757812
 30
0.0
 10
88.18800354003906
 20
86.6969985961914
 30
0.0
 10
88.18800354003906
 20
86.6969985961914
 30
0.0
 10
89.18400573730469
 20
87.11599731445312
 30
0.0
 10
89.95700073242188
 20
87.89699935913086
 30
0.0
 10
90.36600494384766
 20
88.90099716186523
 30
0.0
 10
90.77400207519531
 20
89.90099716186523
 30
0.0
 10
90.76600646972656
 20
91.00099563598633
 30
0.0
 10
90.34500122070312
 20
91.99599838256836
 30
0.0
 10
89.92900085449219
 20
92.99399948120117
 30
0.0
 10
89.14500427246094
 20
93.76599884033203
 30
0.0
 10
88.14400482177734
 20
94.17499923706055
 30
0.0
 10
87.14000701904297
 20
94.58300018310547
 30
0.0
 10
86.04200744628906
 20
94.57499885559082
 30
0.0
 10
85.04700469970703
 20
94.1560001373291
 30
0.0
 10
85.04700469970703
 20
94.1560001373291
 30
0.0
 10
78.44900512695312
 20
91.37699890136719
 30
0.0
 10
78.44900512695312
 20
91.37699890136719
 30
0.0
 10
77.46500396728516
 20
90.96099853515625
 30
0.0
 10
76.69700622558594
 20
90.18499755859375
 30
0.0
 10
76.29500579833984
 20
89.19499969482422
 30
0.0
 10
76.24000549316406
 20
89.06000137329102
 30
0.0
 10
76.19500732421875
 20
88.92200088500977
 30
0.0
 10
76.1550064086914
 20
88.78400039672852
 30
0.0
 10
76.1550064086914
 20
88.78400039672852
 30
0.0
 10
73.06700897216797
 20
87.48400115966797
 30
0.0
 10
73.06700897216797
 20
87.48400115966797
 30
0.0
 10
70.61701202392578
 20
92.02899932861328
 30
0.0
 10
66.92301177978516
 20
95.70000076293945
 30
0.0
 10
62.37400817871094
 20
98.12300109863281
 30
0.0
 10
62.60700988769531
 20
98.88500022888184
 30
0.0
 10
62.83700942993164
 20
99.65800094604492
 30
0.0
 10
63.05900955200195
 20
100.4660015106201
 30
0.0
 10
63.13301086425781
 20
100.7390022277832
 30
0.0
 10
63.20301055908203
 20
100.9970016479492
 30
0.0
 10
63.26601028442383
 20
101.2600021362305
 30
0.0
 10
64.51300811767578
 20
101.5680027008057
 30
0.0
 10
65.54300689697266
 20
102.4420013427734
 30
0.0
 10
66.03201293945312
 20
103.6440029144287
 30
0.0
 10
66.03201293945312
 20
103.6440029144287
 30
0.0
 10
68.7330093383789
 20
110.2740030288696
 30
0.0
 10
68.7330093383789
 20
110.2740030288696
 30
0.0
 10
69.57501220703125
 20
112.3420028686523
 30
0.0
 10
68.57801055908203
 20
114.7070026397705
 30
0.0
 10
66.5110092163086
 20
115.5470027923584
 30
0.0
 10
64.44600677490234
 20
116.3870029449463
 30
0.0
 10
62.07801055908203
 20
115.3930025100708
 30
0.0
 10
61.23700714111328
 20
113.3280029296875
 30
0.0
 10
61.23700714111328
 20
113.3280029296875
 30
0.0
 10
58.53700637817383
 20
106.6970024108887
 30
0.0
 10
58.53700637817383
 20
106.6970024108887
 30
0.0
 10
58.04800796508789
 20
105.4970016479492
 30
0.0
 10
58.17400741577148
 20
104.1480026245117
 30
0.0
 10
58.84900665283203
 20
103.0590019226074
 30
0.0
 10
58.71700668334961
 20
102.8270015716553
 30
0.0
 10
58.5830078125
 20
102.5920028686523
 30
0.0
 10
58.44300842285156
 20
102.3440017700195
 30
0.0
 10
58.04300689697266
 20
101.6150016784668
 30
0.0
 10
57.66400909423828
 20
100.8990020751953
 30
0.0
 10
57.30200958251953
 20
100.1880016326904
 30
0.0
 10
52.35300827026367
 20
101.6340007781982
 30
0.0
 10
47.14300918579102
 20
101.5860023498535
 30
0.0
 10
42.21300888061523
 20
100.0470008850098
 30
0.0
 10
42.21300888061523
 20
100.0470008850098
 30
0.0
 10
40.91400909423828
 20
103.1350002288818
 30
0.0
 10
40.91400909423828
 20
103.1350002288818
 30
0.0
 10
40.98500823974609
 20
103.2630004882812
 30
0.0
 10
41.0470085144043
 20
103.3920001983643
 30
0.0
 10
41.10100936889648
 20
103.5249996185303
 30
0.0
 10
41.50600814819336
 20
104.5219993591309
 30
0.0
 10
41.49900817871094
 20
105.6079998016357
 30
0.0
 10
41.08501052856445
 20
106.5909996032715
 30
0.0
 10
41.08501052856445
 20
106.5909996032715
 30
0.0
 10
38.30701065063477
 20
113.1879997253418
 30
0.0
 10
38.30701065063477
 20
113.1879997253418
 30
0.0
 10
37.88701248168945
 20
114.1859998703003
 30
0.0
 10
37.10401153564453
 20
114.9589996337891
 30
0.0
 10
36.10201263427734
 20
115.3669996261597
 30
0.0
 10
35.10201263427734
 20
115.7729997634888
 30
0.0
 10
34.00101089477539
 20
115.7679996490479
 30
0.0
 10
33.00401306152344
 20
115.3449993133545
 30
0.0
 10
32.01001358032227
 20
114.92799949646
 30
0.0
 10
31.23701286315918
 20
114.1449995040894
 30
0.0
 10
30.82901382446289
 20
113.1419992446899
 30
0.0
 10
30.42101287841797
 20
112.140998840332
 30
0.0
 10
30.42801475524902
 20
111.0409994125366
 30
0.0
 10
30.84701347351074
 20
110.0449991226196
 30
0.0
 10
30.84701347351074
 20
110.0449991226196
 30
0.0
 10
33.62601470947266
 20
103.447998046875
 30
0.0
 10
33.62601470947266
 20
103.447998046875
 30
0.0
 10
34.10101318359375
 20
102.3209972381592
 30
0.0
 10
35.0510139465332
 20
101.4899978637695
 30
0.0
 10
36.22001647949219
 20
101.1529979705811
 30
0.0
 10
36.22001647949219
 20
101.1529979705811
 30
0.0
 10
37.52001571655273
 20
98.06499862670898
 30
0.0
 10
37.52001571655273
 20
98.06499862670898
 30
0.0
 10
32.97501373291016
 20
95.61799812316895
 30
0.0
 10
29.30401611328125
 20
91.9229965209961
 30
0.0
 10
26.87801551818848
 20
87.37099838256836
 30
0.0
 10
26.12001609802246
 20
87.60400009155273
 30
0.0
 10
25.34301567077637
 20
87.83499908447266
 30
0.0
 10
24.53701591491699
 20
88.05899810791016
 30
0.0
 10
24.26501655578613
 20
88.13299942016602
 30
0.0
 10
24.0040168762207
 20
88.20199966430664
 30
0.0
 10
23.74501609802246
 20
88.26899719238281
 30
0.0
 10
23.43701553344727
 20
89.51399612426758
 30
0.0
 10
22.56001663208008
 20
90.54199600219727
 30
0.0
 10
21.36001586914062
 20
91.03199768066406
 30
0.0
 10
21.36001586914062
 20
91.03199768066406
 30
0.0
 10
14.7290153503418
 20
93.73299789428711
 30
0.0
 10
14.7290153503418
 20
93.73299789428711
 30
0.0
 10
12.66201591491699
 20
94.57499694824219
 30
0.0
 10
10.2960147857666
 20
93.5779972076416
 30
0.0
 10
9.456015586853027
 20
91.5099983215332
 30
0.0
 10
8.614015579223633
 20
89.44499969482422
 30
0.0
 10
9.611015319824219
 20
87.07999801635742
 30
0.0
 10
11.67801570892334
 20
86.23799896240234
 30
0.0
 10
11.67801570892334
 20
86.23799896240234
 30
0.0
 10
18.30901527404785
 20
83.5369987487793
 30
0.0
 10
18.30901527404785
 20
83.5369987487793
 30
0.0
 10
19.5090160369873
 20
83.04800033569336
 30
0.0
 10
20.85501480102539
 20
83.17399978637695
 30
0.0
 10
21.9470157623291
 20
83.84700012207031
 30
0.0
 10
22.17801666259766
 20
83.71500015258789
 30
0.0
 10
22.41401672363281
 20
83.58100128173828
 30
0.0
 10
22.66001510620117
 20
83.44300079345703
 30
0.0
 10
23.39301490783691
 20
83.04100036621094
 30
0.0
 10
24.10701560974121
 20
82.66600036621094
 30
0.0
 10
24.81901550292969
 20
82.302001953125
 30
0.0
 10
23.37001609802246
 20
77.34900283813477
 30
0.0
 10
23.42001533508301
 20
72.1400032043457
 30
0.0
 10
24.96001625061035
 20
67.21200180053711
 30
0.0
 10
24.96001625061035
 20
67.21200180053711
 30
0.0
 10
21.87201690673828
 20
65.91400146484375
 30
0.0
 10
21.87201690673828
 20
65.91400146484375
 30
0.0
 10
20.80401611328125
 20
66.4890022277832
 30
0.0
 10
19.54201698303223
 20
66.56100082397461
 30
0.0
 10
18.41301727294922
 20
66.08200073242188
 30
0.0
 10
18.41301727294922
 20
66.08200073242188
 30
0.0
 10
11.81601715087891
 20
63.30400085449219
 30
0.0
 10
11.81601715087891
 20
63.30400085449219
 30
0.0
 10
10.82201671600342
 20
62.88500213623047
 30
0.0
 10
10.04701709747314
 20
62.10400009155273
 30
0.0
 10
9.638017654418945
 20
61.10000228881836
 30
0.0
 10
9.233017921447754
 20
60.10000610351562
 30
0.0
 10
9.238018035888672
 20
58.99800109863281
 30
0.0
 10
9.659017562866211
 20
58.00300598144531
 30
0.0
 10
10.07601737976074
 20
57.00600433349609
 30
0.0
 10
10.85901737213135
 20
56.23200225830078
 30
0.0
 10
11.86201763153076
 20
55.82600402832031
 30
0.0
 10
12.86301803588867
 20
55.41700744628906
 30
0.0
 10
13.96401786804199
 20
55.42500305175781
 30
0.0
 10
14.95901775360107
 20
55.84500122070312
 30
0.0
 10
14.95901775360107
 20
55.84500122070312
 30
0.0
 10
21.5570182800293
 20
58.62300109863281
 30
0.0
 10
21.5570182800293
 20
58.62300109863281
 30
0.0
 10
22.54201889038086
 20
59.03600311279297
 30
0.0
 10
23.30401802062988
 20
59.81200408935547
 30
0.0
 10
23.71001815795898
 20
60.80400085449219
 30
0.0
 10
23.76401901245117
 20
60.94000244140625
 30
0.0
 10
23.81001853942871
 20
61.07900238037109
 30
0.0
 10
23.85401725769043
 20
61.21699905395508
 30
0.0
 10
23.85401725769043
 20
61.21699905395508
 30
0.0
 10
26.93801689147949
 20
62.51499938964844
 30
0.0
 10
26.93801689147949
 20
62.51499938964844
 30
0.0
 10
29.38801765441895
 20
57.9739990234375
 30
0.0
 10
33.08301544189453
 20
54.29899597167969
 30
0.0
 10
37.63501739501953
 20
51.87599945068359
 30
0.0
 10
37.40001678466797
 20
51.11899566650391
 30
0.0
 10
37.16701889038086
 20
50.33899688720703
 30
0.0
 10
36.94301605224609
 20
49.53299713134766
 30
0.0
 10
36.87001419067383
 20
49.26199340820312
 30
0.0
 10
36.80301666259766
 20
49.00199890136719
 30
0.0
 10
36.73601531982422
 20
48.74299621582031
 30
0.0
 10
35.49101638793945
 20
48.43299865722656
 30
0.0
 10
34.46101379394531
 20
47.55799865722656
 30
0.0
 10
33.97301483154297
 20
46.35499572753906
 30
0.0
 10
33.97301483154297
 20
46.35499572753906
 30
0.0
 10
31.27501487731934
 20
39.7239990234375
 30
0.0
 10
31.27501487731934
 20
39.7239990234375
 30
0.0
 10
30.43101501464844
 20
37.65999603271484
 30
0.0
 10
31.42901420593262
 20
35.29100036621094
 30
0.0
 10
33.49401473999023
 20
34.45199584960938
 30
0.0
 10
35.56201553344727
 20
33.60999298095703
 30
0.0
 10
37.9270133972168
 20
34.60599517822266
 30
0.0
 10
38.76801300048828
 20
36.67099761962891
 30
0.0
 10
38.76801300048828
 20
36.67099761962891
 30
0.0
 10
41.46901321411133
 20
43.30199432373047
 30
0.0
 10
41.46901321411133
 20
43.30199432373047
 30
0.0
 10
41.95601272583008
 20
44.50199127197266
 30
0.0
 10
41.83201217651367
 20
45.84899139404297
 30
0.0
 10
41.15501403808594
 20
46.94099426269531
 30
0.0
 10
41.291015625
 20
47.17299652099609
 30
0.0
 10
41.42401504516602
 20
47.40699768066406
 30
0.0
 10
41.55901336669922
 20
47.65399169921875
 30
0.0
 10
41.96101379394531
 20
48.38699340820312
 30
0.0
 10
42.33901214599609
 20
49.10298919677734
 30
0.0
 10
42.70101165771484
 20
49.81298828125
 30
0.0
 10
47.65601348876953
 20
48.36798858642578
 30
0.0
 10
52.86101150512695
 20
48.41398620605469
 30
0.0
 10
57.79001235961914
 20
49.95598602294922
 30
0.0
 10
57.79001235961914
 20
49.95598602294922
 30
0.0
 10
59.09001159667969
 20
46.86498260498047
 30
0.0
 10
59.09001159667969
 20
46.86498260498047
 30
0.0
 10
59.02101135253906
 20
46.74098205566406
 30
0.0
 10
58.96100997924805
 20
46.6099853515625
 30
0.0
 10
58.90501022338867
 20
46.47498321533203
 30
0.0
 10
58.5000114440918
 20
45.48198699951172
 30
0.0
 10
58.50701141357422
 20
44.39198303222656
 30
0.0
 10
58.92401123046875
 20
43.40998077392578
 30
0.0
 10
58.92401123046875
 20
43.40998077392578
 30
0.0
 10
61.69901275634766
 20
36.81198120117188
 30
0.0
 10
61.69901275634766
 20
36.81198120117188
 30
0.0
 10
62.11901092529297
 20
35.81797790527344
 30
0.0
 10
62.90301132202148
 20
35.04198455810547
 30
0.0
 10
63.90401458740234
 20
34.63397979736328
 30
0.0
 10
64.90501403808594
 20
34.22597503662109
 30
0.0
 10
66.00101470947266
 20
34.23397827148438
 30
0.0
 10
67.00101470947266
 20
34.65498352050781
 30
0.0
 10
67.9950180053711
 20
35.07398223876953
 30
0.0
 10
68.77001190185547
 20
35.85498046875
 30
0.0
 10
69.17901611328125
 20
36.85498046875
 30
0.0
 10
69.5870132446289
 20
37.85897827148438
 30
0.0
 10
69.57901763916016
 20
38.958984375
 30
0.0
 10
69.16001892089844
 20
39.95298004150391
 30
0.0
 10
69.16001892089844
 20
39.95298004150391
 30
0.0
 10
66.38101959228516
 20
46.552978515625
 30
0.0
 10
66.38101959228516
 20
46.552978515625
 30
0.0
 10
65.90702056884766
 20
47.67997741699219
 30
0.0
 10
64.95601654052734
 20
48.51497650146484
 30
0.0
 10
63.78601837158203
 20
48.84897613525391
 30
0.0
 10
63.78601837158203
 20
48.84897613525391
 30
0.0
 10
62.48801803588867
 20
51.93297576904297
 30
0.0
 10
62.48801803588867
 20
51.93297576904297
 30
0.0
 10
67.03001403808594
 20
54.38397216796875
 30
0.0
 10
70.70401763916016
 20
58.0789794921875
 30
0.0
 10
73.12701416015625
 20
62.63197708129883
 30
0.0
 10
73.88801574707031
 20
62.39397811889648
 30
0.0
 10
74.66401672363281
 20
62.16397857666016
 30
0.0
 10
75.47001647949219
 20
61.94397735595703
 30
0.0
 10
75.739013671875
 20
61.86697769165039
 30
0.0
 10
76.00401306152344
 20
61.79997634887695
 30
0.0
 10
76.26101684570312
 20
61.73297882080078
 30
0.0
 10
76.57101440429688
 20
60.48897552490234
 30
0.0
 10
77.44902038574219
 20
59.45797729492188
 30
0.0
 10
78.64801788330078
 20
58.96897888183594
 30
0.0
 10
78.64801788330078
 20
58.96897888183594
 30
0.0
 10
85.27901458740234
 20
56.26898193359375
 30
0.0
 10
85.27901458740234
 20
56.26898193359375
 30
0.0
 10
87.34701538085938
 20
55.42998504638672
 30
0.0
 10
89.7120132446289
 20
56.42398071289062
 30
0.0
 10
90.55301666259766
 20
58.49098205566406
 30
0.0
 10
91.38700103759766
 20
60.55899810791016
 30
0.0
 10
90.39399719238281
 20
62.92200088500977
 30
0.0
 10
88.32599639892578
 20
63.76399993896484
 30
0.0
  0
SPLINE
  5
42
330
1F
100
AcDbEntity
  8
Layer 1
370
     0
100
AcDbSpline
210
0.0
220
0.0
230
1.0
 70
    11
 71
     3
 72
    29
 73
    25
 74
     0
 42
0.0000000001
 43
0.0000000001
 12
1.0
 22
0.0
 32
0.0
 13
1.0
 23
0.0
 33
0.0
 40
0.0
 40
0.0
 40
0.0
 40
0.0
 40
1.0
 40
1.0
 40
1.0
 40
2.0
 40
2.0
 40
2.0
 40
3.0
 40
3.0
 40
3.0
 40
4.0
 40
4.0
 40
4.0
 40
5.0
 40
5.0
 40
5.0
 40
6.0
 40
6.0
 40
6.0
 40
7.0
 40
7.0
 40
7.0
 40
8.0
 40
8.0
 40
8.0
 40
8.0
 10
56.58499908447266
 20
84.57099914550781
 30
0.0
 10
57.12699890136719
 20
85.76699829101562
 30
0.0
 10
57.71500015258789
 20
86.96299743652344
 30
0.0
 10
58.2859992980957
 20
88.12199783325195
 30
0.0
 10
59.04700088500977
 20
89.66799926757812
 30
0.0
 10
59.8390007019043
 20
91.26899719238281
 30
0.0
 10
60.49399948120117
 20
92.83599853515625
 30
0.0
 10
60.57899856567383
 20
93.0459976196289
 30
0.0
 10
60.65599822998047
 20
93.26199913024902
 30
0.0
 10
60.74499893188477
 20
93.47599792480469
 30
0.0
 10
64.01300048828125
 20
91.58099746704102
 30
0.0
 10
66.6989974975586
 20
88.88299942016602
 30
0.0
 10
68.5719985961914
 20
85.59099578857422
 30
0.0
 10
68.5719985961914
 20
85.59099578857422
 30
0.0
 10
55.84099960327148
 20
80.22499465942383
 30
0.0
 10
55.84099960327148
 20
80.22499465942383
 30
0.0
 10
55.56499862670898
 20
80.53399276733398
 30
0.0
 10
55.27299880981445
 20
80.82699584960938
 30
0.0
 10
54.94699859619141
 20
81.08699417114258
 30
0.0
 10
55.28199768066406
 20
81.78999328613281
 30
0.0
 10
55.61199951171875
 20
82.48899459838867
 30
0.0
 10
55.94499969482422
 20
83.19899368286133
 30
0.0
 10
55.94499969482422
 20
83.19899368286133
 30
0.0
 10
56.58499908447266
 20
84.57099914550781
 30
0.0
 10
56.58499908447266
 20
84.57099914550781
 30
0.0
  0
SPLINE
  5
43
330
1F
100
AcDbEntity
  8
Layer 1
370
     0
100
AcDbSpline
210
0.0
220
0.0
230
1.0
 70
    11
 71
     3
 72
    29
 73
    25
 74
     0
 42
0.0000000001
 43
0.0000000001
 12
1.0
 22
0.0
 32
0.0
 13
1.0
 23
0.0
 33
0.0
 40
0.0
 40
0.0
 40
0.0
 40
0.0
 40
1.0
 40
1.0
 40
1.0
 40
2.0
 40
2.0
 40
2.0
 40
3.0
 40
3.0
 40
3.0
 40
4.0
 40
4.0
 40
4.0
 40
5.0
 40
5.0
 40
5.0
 40
6.0
 40
6.0
 40
6.0
 40
7.0
 40
7.0
 40
7.0
 40
8.0
 40
8.0
 40
8.0
 40
8.0
 10
55.22100067138672
 20
95.72699928283691
 30
0.0
 10
55.13000106811523
 20
95.51099967956543
 30
0.0
 10
55.03400039672852
 20
95.29899978637695
 30
0.0
 10
54.94800186157227
 20
95.08699989318848
 30
0.0
 10
54.32600021362305
 20
93.51700019836426
 30
0.0
 10
53.77000045776367
 20
91.81900024414062
 30
0.0
 10
53.23600006103516
 20
90.1780014038086
 30
0.0
 10
52.8380012512207
 20
88.95199966430664
 30
0.0
 10
52.41899871826172
 20
87.68099975585938
 30
0.0
 10
51.96900177001953
 20
86.4370002746582
 30
0.0
 10
51.96900177001953
 20
86.4370002746582
 30
0.0
 10
51.47200012207031
 20
85.01800155639648
 30
0.0
 10
51.47200012207031
 20
85.01800155639648
 30
0.0
 10
51.21500015258789
 20
84.27900314331055
 30
0.0
 10
50.9630012512207
 20
83.54600143432617
 30
0.0
 10
50.71099853515625
 20
82.81300354003906
 30
0.0
 10
50.29399871826172
 20
82.85100173950195
 30
0.0
 10
49.88299942016602
 20
82.84900283813477
 30
0.0
 10
49.4739990234375
 20
82.82000350952148
 30
0.0
 10
49.4739990234375
 20
82.82000350952148
 30
0.0
 10
44.10499954223633
 20
95.54999923706055
 30
0.0
 10
44.10499954223633
 20
95.54999923706055
 30
0.0
 10
47.74800109863281
 20
96.60300064086914
 30
0.0
 10
51.55500030517578
 20
96.6560001373291
 30
0.0
 10
55.22100067138672
 20
95.72699928283691
 30
0.0
  0
SPLINE
  5
44
330
1F
100
AcDbEntity
  8
Layer 1
370
     0
100
AcDbSpline
210
0.0
220
0.0
230
1.0
 70
    11
 71
     3
 72
    29
 73
    25
 74
     0
 42
0.0000000001
 43
0.0000000001
 12
1.0
 22
0.0
 32
0.0
 13
1.0
 23
0.0
 33
0.0
 40
0.0
 40
0.0
 40
0.0
 40
0.0
 40
1.0
 40
1.0
 40
1.0
 40
2.0
 40
2.0
 40
2.0
 40
3.0
 40
3.0
 40
3.0
 40
4.0
 40
4.0
 40
4.0
 40
5.0
 40
5.0
 40
5.0
 40
6.0
 40
6.0
 40
6.0
 40
7.0
 40
7.0
 40
7.0
 40
8.0
 40
8.0
 40
8.0
 40
8.0
 10
39.4119987487793
 20
93.57099914550781
 30
0.0
 10
39.4119987487793
 20
93.57099914550781
 30
0.0
 10
44.77399826049805
 20
80.84299850463867
 30
0.0
 10
44.77399826049805
 20
80.84299850463867
 30
0.0
 10
44.46599960327148
 20
80.56699752807617
 30
0.0
 10
44.17499923706055
 20
80.27499771118164
 30
0.0
 10
43.90999984741211
 20
79.9489974975586
 30
0.0
 10
43.21099853515625
 20
80.28299713134766
 30
0.0
 10
42.50799942016602
 20
80.61399841308594
 30
0.0
 10
41.80099868774414
 20
80.9469985961914
 30
0.0
 10
41.80099868774414
 20
80.9469985961914
 30
0.0
 10
40.42599868774414
 20
81.58499908447266
 30
0.0
 10
40.42599868774414
 20
81.58499908447266
 30
0.0
 10
39.2339973449707
 20
82.1259994506836
 30
0.0
 10
38.03799819946289
 20
82.71500015258789
 30
0.0
 10
36.87899780273438
 20
83.28499984741211
 30
0.0
 10
35.32899856567383
 20
84.04999923706055
 30
0.0
 10
33.72799682617188
 20
84.8380012512207
 30
0.0
 10
32.16299819946289
 20
85.49200057983398
 30
0.0
 10
31.95399856567383
 20
85.5790023803711
 30
0.0
 10
31.73599815368652
 20
85.65700149536133
 30
0.0
 10
31.52299880981445
 20
85.74200057983398
 30
0.0
 10
33.41600036621094
 20
89.01399993896484
 30
0.0
 10
36.11600112915039
 20
91.70000076293945
 30
0.0
 10
39.4119987487793
 20
93.57099914550781
 30
0.0
  0
SPLINE
  5
45
330
1F
100
AcDbEntity
  8
Layer 1
370
     0
100
AcDbSpline
210
0.0
220
0.0
230
1.0
 70
    11
 71
     3
 72
    29
 73
    25
 74
     0
 42
0.0000000001
 43
0.0000000001
 12
1.0
 22
0.0
 32
0.0
 13
1.0
 23
0.0
 33
0.0
 40
0.0
 40
0.0
 40
0.0
 40
0.0
 40
1.0
 40
1.0
 40
1.0
 40
2.0
 40
2.0
 40
2.0
 40
3.0
 40
3.0
 40
3.0
 40
4.0
 40
4.0
 40
4.0
 40
5.0
 40
5.0
 40
5.0
 40
6.0
 40
6.0
 40
6.0
 40
7.0
 40
7.0
 40
7.0
 40
8.0
 40
8.0
 40
8.0
 40
8.0
 10
29.27499961853027
 20
80.2229995727539
 30
0.0
 10
29.48799896240234
 20
80.13100051879883
 30
0.0
 10
29.70299911499023
 20
80.0359992980957
 30
0.0
 10
29.91499900817871
 20
79.947998046875
 30
0.0
 10
31.48299980163574
 20
79.32699966430664
 30
0.0
 10
33.18000030517578
 20
78.77399826049805
 30
0.0
 10
34.822998046875
 20
78.23699951171875
 30
0.0
 10
36.05099868774414
 20
77.83599853515625
 30
0.0
 10
37.31899642944336
 20
77.42300033569336
 30
0.0
 10
38.56199645996094
 20
76.96799850463867
 30
0.0
 10
38.56199645996094
 20
76.96799850463867
 30
0.0
 10
39.97899627685547
 20
76.4739990234375
 30
0.0
 10
39.97899627685547
 20
76.4739990234375
 30
0.0
 10
40.72099685668945
 20
76.21599960327148
 30
0.0
 10
41.45099639892578
 20
75.96199798583984
 30
0.0
 10
42.18599700927734
 20
75.71199798583984
 30
0.0
 10
42.14899826049805
 20
75.29499816894531
 30
0.0
 10
42.15299606323242
 20
74.88399887084961
 30
0.0
 10
42.18099594116211
 20
74.4749984741211
 30
0.0
 10
42.18099594116211
 20
74.4749984741211
 30
0.0
 10
29.44999694824219
 20
69.11000061035156
 30
0.0
 10
29.44999694824219
 20
69.11000061035156
 30
0.0
 10
28.39900016784668
 20
72.74700164794922
 30
0.0
 10
28.34499931335449
 20
76.55699920654297
 30
0.0
 10
29.27499961853027
 20
80.2229995727539
 30
0.0
  0
SPLINE
  5
46
330
1F
100
AcDbEntity
  8
Layer 1
370
     0
100
AcDbSpline
210
0.0
220
0.0
230
1.0
 70
    11
 71
     3
 72
    29
 73
    25
 74
     0
 42
0.0000000001
 43
0.0000000001
 12
1.0
 22
0.0
 32
0.0
 13
1.0
 23
0.0
 33
0.0
 40
0.0
 40
0.0
 40
0.0
 40
0.0
 40
1.0
 40
1.0
 40
1.0
 40
2.0
 40
2.0
 40
2.0
 40
3.0
 40
3.0
 40
3.0
 40
4.0
 40
4.0
 40
4.0
 40
5.0
 40
5.0
 40
5.0
 40
6.0
 40
6.0
 40
6.0
 40
7.0
 40
7.0
 40
7.0
 40
8.0
 40
8.0
 40
8.0
 40
8.0
 10
43.41500091552734
 20
65.43099975585938
 30
0.0
 10
42.87100219726562
 20
64.23799896240234
 30
0.0
 10
42.28300094604492
 20
63.03799819946289
 30
0.0
 10
41.71200180053711
 20
61.88100051879883
 30
0.0
 10
40.94900131225586
 20
60.33100128173828
 30
0.0
 10
40.16300201416016
 20
58.73100280761719
 30
0.0
 10
39.50500106811523
 20
57.16500091552734
 30
0.0
 10
39.42000198364258
 20
56.95500183105469
 30
0.0
 10
39.34000015258789
 20
56.73799896240234
 30
0.0
 10
39.25600051879883
 20
56.52400207519531
 30
0.0
 10
35.98600006103516
 20
58.41899871826172
 30
0.0
 10
33.29600143432617
 20
61.11700057983398
 30
0.0
 10
31.42900085449219
 20
64.41300201416016
 30
0.0
 10
31.42900085449219
 20
64.41300201416016
 30
0.0
 10
44.15600204467773
 20
69.7750015258789
 30
0.0
 10
44.15600204467773
 20
69.7750015258789
 30
0.0
 10
44.43300247192383
 20
69.46600341796875
 30
0.0
 10
44.72600173950195
 20
69.1760025024414
 30
0.0
 10
45.05000305175781
 20
68.91400146484375
 30
0.0
 10
44.71600341796875
 20
68.21200180053711
 30
0.0
 10
44.38500213623047
 20
67.50900268554688
 30
0.0
 10
44.05700302124023
 20
66.802001953125
 30
0.0
 10
44.05700302124023
 20
66.802001953125
 30
0.0
 10
43.41500091552734
 20
65.43099975585938
 30
0.0
 10
43.41500091552734
 20
65.43099975585938
 30
0.0
  0
SPLINE
  5
47
330
1F
100
AcDbEntity
  8
Layer 1
370
     0
100
AcDbSpline
210
0.0
220
0.0
230
1.0
 70
    11
 71
     3
 72
    29
 73
    25
 74
     0
 42
0.0000000001
 43
0.0000000001
 12
1.0
 22
0.0
 32
0.0
 13
1.0
 23
0.0
 33
0.0
 40
0.0
 40
0.0
 40
0.0
 40
0.0
 40
1.0
 40
1.0
 40
1.0
 40
2.0
 40
2.0
 40
2.0
 40
3.0
 40
3.0
 40
3.0
 40
4.0
 40
4.0
 40
4.0
 40
5.0
 40
5.0
 40
5.0
 40
6.0
 40
6.0
 40
6.0
 40
7.0
 40
7.0
 40
7.0
 40
8.0
 40
8.0
 40
8.0
 40
8.0
 10
44.77999877929688
 20
54.27999877929688
 30
0.0
 10
44.86599731445312
 20
54.48999786376953
 30
0.0
 10
44.96699905395508
 20
54.70400238037109
 30
0.0
 10
45.05500030517578
 20
54.91699981689453
 30
0.0
 10
45.67300033569336
 20
56.48699951171875
 30
0.0
 10
46.22900009155273
 20
58.18099975585938
 30
0.0
 10
46.76499938964844
 20
59.822998046875
 30
0.0
 10
47.16600036621094
 20
61.04899978637695
 30
0.0
 10
47.58100128173828
 20
62.31899642944336
 30
0.0
 10
48.03099822998047
 20
63.56199645996094
 30
0.0
 10
48.03099822998047
 20
63.56199645996094
 30
0.0
 10
48.52699661254883
 20
64.98099517822266
 30
0.0
 10
48.52699661254883
 20
64.98099517822266
 30
0.0
 10
48.78599548339844
 20
65.7199935913086
 30
0.0
 10
49.03799819946289
 20
66.45399475097656
 30
0.0
 10
49.28799819946289
 20
67.18599700927734
 30
0.0
 10
49.70599746704102
 20
67.14599609375
 30
0.0
 10
50.11999893188477
 20
67.14999771118164
 30
0.0
 10
50.52899932861328
 20
67.18099594116211
 30
0.0
 10
50.52899932861328
 20
67.18099594116211
 30
0.0
 10
55.89299774169922
 20
54.44899749755859
 30
0.0
 10
55.89299774169922
 20
54.44899749755859
 30
0.0
 10
52.25299835205078
 20
53.39900207519531
 30
0.0
 10
48.44300079345703
 20
53.34799957275391
 30
0.0
 10
44.77999877929688
 20
54.27999877929688
 30
0.0
  0
SPLINE
  5
48
330
1F
100
AcDbEntity
  8
Layer 1
370
     0
100
AcDbSpline
210
0.0
220
0.0
230
1.0
 70
    11
 71
     3
 72
    29
 73
    25
 74
     0
 42
0.0000000001
 43
0.0000000001
 12
1.0
 22
0.0
 32
0.0
 13
1.0
 23
0.0
 33
0.0
 40
0.0
 40
0.0
 40
0.0
 40
0.0
 40
1.0
 40
1.0
 40
1.0
 40
2.0
 40
2.0
 40
2.0
 40
3.0
 40
3.0
 40
3.0
 40
4.0
 40
4.0
 40
4.0
 40
5.0
 40
5.0
 40
5.0
 40
6.0
 40
6.0
 40
6.0
 40
7.0
 40
7.0
 40
7.0
 40
8.0
 40
8.0
 40
8.0
 40
8.0
 10
60.5890007019043
 20
56.42900085449219
 30
0.0
 10
60.5890007019043
 20
56.42900085449219
 30
0.0
 10
55.22299957275391
 20
69.16100311279297
 30
0.0
 10
55.22299957275391
 20
69.16100311279297
 30
0.0
 10
55.53499984741211
 20
69.43300247192383
 30
0.0
 10
55.82500076293945
 20
69.7280044555664
 30
0.0
 10
56.08699798583984
 20
70.0510025024414
 30
0.0
 10
56.78899765014648
 20
69.71900177001953
 30
0.0
 10
57.48999786376953
 20
69.38500213623047
 30
0.0
 10
58.19899749755859
 20
69.05700302124023
 30
0.0
 10
58.19899749755859
 20
69.05700302124023
 30
0.0
 10
59.56899642944336
 20
68.4160041809082
 30
0.0
 10
59.56899642944336
 20
68.4160041809082
 30
0.0
 10
60.76399612426758
 20
67.87200546264648
 30
0.0
 10
61.96199798583984
 20
67.28300476074219
 30
0.0
 10
63.1199951171875
 20
66.71300506591797
 30
0.0
 10
64.66999816894531
 20
65.95100402832031
 30
0.0
 10
66.27099609375
 20
65.16100311279297
 30
0.0
 10
67.83599853515625
 20
64.5060043334961
 30
0.0
 10
68.04299926757812
 20
64.42200469970703
 30
0.0
 10
68.26200103759766
 20
64.3440055847168
 30
0.0
 10
68.47599792480469
 20
64.25900268554688
 30
0.0
 10
66.58200073242188
 20
60.98799896240234
 30
0.0
 10
63.88199996948242
 20
58.29799652099609
 30
0.0
 10
60.5890007019043
 20
56.42900085449219
 30
0.0
  0
SPLINE
  5
49
330
1F
100
AcDbEntity
  8
Layer 1
370
     0
100
AcDbSpline
210
0.0
220
0.0
230
1.0
 70
    11
 71
     3
 72
    29
 73
    25
 74
     0
 42
0.0000000001
 43
0.0000000001
 12
1.0
 22
0.0
 32
0.0
 13
1.0
 23
0.0
 33
0.0
 40
0.0
 40
0.0
 40
0.0
 40
0.0
 40
1.0
 40
1.0
 40
1.0
 40
2.0
 40
2.0
 40
2.0
 40
3.0
 40
3.0
 40
3.0
 40
4.0
 40
4.0
 40
4.0
 40
5.0
 40
5.0
 40
5.0
 40
6.0
 40
6.0
 40
6.0
 40
7.0
 40
7.0
 40
7.0
 40
8.0
 40
8.0
 40
8.0
 40
8.0
 10
70.7249984741211
 20
69.78099822998047
 30
0.0
 10
70.50899505615234
 20
69.86899948120117
 30
0.0
 10
70.29499816894531
 20
69.96799850463867
 30
0.0
 10
70.08399963378906
 20
70.05399703979492
 30
0.0
 10
68.51699829101562
 20
70.6729965209961
 30
0.0
 10
66.81900024414062
 20
71.22899627685547
 30
0.0
 10
65.1780014038086
 20
71.76499557495117
 30
0.0
 10
63.95000076293945
 20
72.16699600219727
 30
0.0
 10
62.67900085449219
 20
72.58099365234375
 30
0.0
 10
61.43900299072266
 20
73.03299713134766
 30
0.0
 10
61.43900299072266
 20
73.03299713134766
 30
0.0
 10
60.01900482177734
 20
73.52699661254883
 30
0.0
 10
60.01900482177734
 20
73.52699661254883
 30
0.0
 10
59.28300476074219
 20
73.78599548339844
 30
0.0
 10
58.54700469970703
 20
74.03899765014648
 30
0.0
 10
57.81500625610352
 20
74.28799819946289
 30
0.0
 10
57.84900665283203
 20
74.70499801635742
 30
0.0
 10
57.84900665283203
 20
75.11899948120117
 30
0.0
 10
57.82200622558594
 20
75.52799987792969
 30
0.0
 10
57.82200622558594
 20
75.52799987792969
 30
0.0
 10
70.55000305175781
 20
80.89299774169922
 30
0.0
 10
70.55000305175781
 20
80.89299774169922
 30
0.0
 10
71.60099792480469
 20
77.25600051879883
 30
0.0
 10
71.65299987792969
 20
73.44400024414062
 30
0.0
 10
70.7249984741211
 20
69.78099822998047
 30
0.0
  0
HATCH
  5
4A
330
1F
100
AcDbEntity
  8
Layer 1
 62
     7
420
 16777215
100
AcDbHatch
 10
0.0
 20
0.0
 30
0.0
210
0.0
220
0.0
230
1.0
  2
SOLID
 70
     1
 71
     0
 91
        9
 92
        1
 93
        1
 72
     4
 94
        3
 73
     0
 74
     1
 95
      281
 96
      277
 40
0.0
 40
0.0
 40
0.0
 40
0.0
 40
1.0
 40
1.0
 40
1.0
 40
2.0
 40
2.0
 40
2.0
 40
3.0
 40
3.0
 40
3.0
 40
4.0
 40
4.0
 40
4.0
 40
5.0
 40
5.0
 40
5.0
 40
6.0
 40
6.0
 40
6.0
 40
7.0
 40
7.0
 40
7.0
 40
8.0
 40
8.0
 40
8.0
 40
9.0
 40
9.0
 40
9.0
 40
10.0
 40
10.0
 40
10.0
 40
11.0
 40
11.0
 40
11.0
 40
12.0
 40
12.0
 40
12.0
 40
13.0
 40
13.0
 40
13.0
 40
14.0
 40
14.0
 40
14.0
 40
15.0
 40
15.0
 40
15.0
 40
16.0
 40
16.0
 40
16.0
 40
17.0
 40
17.0
 40
17.0
 40
18.0
 40
18.0
 40
18.0
 40
19.0
 40
19.0
 40
19.0
 40
20.0
 40
20.0
 40
20.0
 40
21.0
 40
21.0
 40
21.0
 40
22.0
 40
22.0
 40
22.0
 40
23.0
 40
23.0
 40
23.0
 40
24.0
 40
24.0
 40
24.0
 40
25.0
 40
25.0
 40
25.0
 40
26.0
 40
26.0
 40
26.0
 40
27.0
 40
27.0
 40
27.0
 40
28.0
 40
28.0
 40
28.0
 40
29.0
 40
29.0
 40
29.0
 40
30.0
 40
30.0
 40
30.0
 40
31.0
 40
31.0
 40
31.0
 40
32.0
 40
32.0
 40
32.0
 40
33.0
 40
33.0
 40
33.0
 40
34.0
 40
34.0
 40
34.0
 40
35.0
 40
35.0
 40
35.0
 40
36.0
 40
36.0
 40
36.0
 40
37.0
 40
37.0
 40
37.0
 40
38.0
 40
38.0
 40
38.0
 40
39.0
 40
39.0
 40
39.0
 40
40.0
 40
40.0
 40
40.0
 40
41.0
 40
41.0
 40
41.0
 40
42.0
 40
42.0
 40
42.0
 40
43.0
 40
43.0
 40
43.0
 40
44.0
 40
44.0
 40
44.0
 40
45.0
 40
45.0
 40
45.0
 40
46.0
 40
46.0
 40
46.0
 40
47.0
 40
47.0
 40
47.0
 40
48.0
 40
48.0
 40
48.0
 40
49.0
 40
49.0
 40
49.0
 40
50.0
 40
50.0
 40
50.0
 40
51.0
 40
51.0
 40
51.0
 40
52.0
 40
52.0
 40
52.0
 40
53.0
 40
53.0
 40
53.0
 40
54.0
 40
54.0
 40
54.0
 40
55.0
 40
55.0
 40
55.0
 40
56.0
 40
56.0
 40
56.0
 40
57.0
 40
57.0
 40
57.0
 40
58.0
 40
58.0
 40
58.0
 40
59.0
 40
59.0
 40
59.0
 40
60.0
 40
60.0
 40
60.0
 40
61.0
 40
61.0
 40
61.0
 40
62.0
 40
62.0
 40
62.0
 40
63.0
 40
63.0
 40
63.0
 40
64.0
 40
64.0
 40
64.0
 40
65.0
 40
65.0
 40
65.0
 40
66.0
 40
66.0
 40
66.0
 40
67.0
 40
67.0
 40
67.0
 40
68.0
 40
68.0
 40
68.0
 40
69.0
 40
69.0
 40
69.0
 40
70.0
 40
70.0
 40
70.0
 40
71.0
 40
71.0
 40
71.0
 40
72.0
 40
72.0
 40
72.0
 40
73.0
 40
73.0
 40
73.0
 40
74.0
 40
74.0
 40
74.0
 40
75.0
 40
75.0
 40
75.0
 40
76.0
 40
76.0
 40
76.0
 40
77.0
 40
77.0
 40
77.0
 40
78.0
 40
78.0
 40
78.0
 40
79.0
 40
79.0
 40
79.0
 40
80.0
 40
80.0
 40
80.0
 40
81.0
 40
81.0
 40
81.0
 40
82.0
 40
82.0
 40
82.0
 40
83.0
 40
83.0
 40
83.0
 40
84.0
 40
84.0
 40
84.0
 40
85.0
 40
85.0
 40
85.0
 40
86.0
 40
86.0
 40
86.0
 40
87.0
 40
87.0
 40
87.0
 40
88.0
 40
88.0
 40
88.0
 40
89.0
 40
89.0
 40
89.0
 40
90.0
 40
90.0
 40
90.0
 40
91.0
 40
91.0
 40
91.0
 40
92.0
 40
92.0
 40
92.0
 40
92.0
 10
88.32599639892578
 20
63.76399993896484
 10
88.32599639892578
 20
63.76399993896484
 10
81.69499969482422
 20
66.46599960327148
 10
81.69499969482422
 20
66.46599960327148
 10
80.49500274658203
 20
66.95499801635742
 10
79.14800262451172
 20
66.82799911499023
 10
78.05500030517578
 20
66.1520004272461
 10
77.8239974975586
 20
66.28499984741211
 10
77.59200286865234
 20
66.42000198364258
 10
77.34400177001953
 20
66.55699920654297
 10
76.61199951171875
 20
66.95800018310547
 10
75.89700317382812
 20
67.33699798583984
 10
75.18800354003906
 20
67.6989974975586
 10
76.63300323486328
 20
72.64899826049805
 10
76.58700561523438
 20
77.86099624633789
 10
75.04700469970703
 20
82.78499603271484
 10
75.04700469970703
 20
82.78499603271484
 10
78.1310043334961
 20
84.08699798583984
 10
78.1310043334961
 20
84.08699798583984
 10
79.2020034790039
 20
83.51199722290039
 10
80.46300506591797
 20
83.44399642944336
 10
81.59000396728516
 20
83.91799926757812
 10
81.59000396728516
 20
83.91799926757812
 10
88.18800354003906
 20
86.6969985961914
 10
88.18800354003906
 20
86.6969985961914
 10
89.18400573730469
 20
87.11599731445312
 10
89.95700073242188
 20
87.89699935913086
 10
90.36600494384766
 20
88.90099716186523
 10
90.77400207519531
 20
89.90099716186523
 10
90.76600646972656
 20
91.00099563598633
 10
90.34500122070312
 20
91.99599838256836
 10
89.92900085449219
 20
92.99399948120117
 10
89.14500427246094
 20
93.76599884033203
 10
88.14400482177734
 20
94.17499923706055
 10
87.14000701904297
 20
94.58300018310547
 10
86.04200744628906
 20
94.57499885559082
 10
85.04700469970703
 20
94.1560001373291
 10
85.04700469970703
 20
94.1560001373291
 10
78.44900512695312
 20
91.37699890136719
 10
78.44900512695312
 20
91.37699890136719
 10
77.46500396728516
 20
90.96099853515625
 10
76.69700622558594
 20
90.18499755859375
 10
76.29500579833984
 20
89.19499969482422
 10
76.24000549316406
 20
89.06000137329102
 10
76.19500732421875
 20
88.92200088500977
 10
76.1550064086914
 20
88.78400039672852
 10
76.1550064086914
 20
88.78400039672852
 10
73.06700897216797
 20
87.48400115966797
 10
73.06700897216797
 20
87.48400115966797
 10
70.61701202392578
 20
92.02899932861328
 10
66.92301177978516
 20
95.70000076293945
 10
62.37400817871094
 20
98.12300109863281
 10
62.60700988769531
 20
98.88500022888184
 10
62.83700942993164
 20
99.65800094604492
 10
63.05900955200195
 20
100.4660015106201
 10
63.13301086425781
 20
100.7390022277832
 10
63.20301055908203
 20
100.9970016479492
 10
63.26601028442383
 20
101.2600021362305
 10
64.51300811767578
 20
101.5680027008057
 10
65.54300689697266
 20
102.4420013427734
 10
66.03201293945312
 20
103.6440029144287
 10
66.03201293945312
 20
103.6440029144287
 10
68.7330093383789
 20
110.2740030288696
 10
68.7330093383789
 20
110.2740030288696
 10
69.57501220703125
 20
112.3420028686523
 10
68.57801055908203
 20
114.7070026397705
 10
66.5110092163086
 20
115.5470027923584
 10
64.44600677490234
 20
116.3870029449463
 10
62.07801055908203
 20
115.3930025100708
 10
61.23700714111328
 20
113.3280029296875
 10
61.23700714111328
 20
113.3280029296875
 10
58.53700637817383
 20
106.6970024108887
 10
58.53700637817383
 20
106.6970024108887
 10
58.04800796508789
 20
105.4970016479492
 10
58.17400741577148
 20
104.1480026245117
 10
58.84900665283203
 20
103.0590019226074
 10
58.71700668334961
 20
102.8270015716553
 10
58.5830078125
 20
102.5920028686523
 10
58.44300842285156
 20
102.3440017700195
 10
58.04300689697266
 20
101.6150016784668
 10
57.66400909423828
 20
100.8990020751953
 10
57.30200958251953
 20
100.1880016326904
 10
52.35300827026367
 20
101.6340007781982
 10
47.14300918579102
 20
101.5860023498535
 10
42.21300888061523
 20
100.0470008850098
 10
42.21300888061523
 20
100.0470008850098
 10
40.91400909423828
 20
103.1350002288818
 10
40.91400909423828
 20
103.1350002288818
 10
40.98500823974609
 20
103.2630004882812
 10
41.0470085144043
 20
103.3920001983643
 10
41.10100936889648
 20
103.5249996185303
 10
41.50600814819336
 20
104.5219993591309
 10
41.49900817871094
 20
105.6079998016357
 10
41.08501052856445
 20
106.5909996032715
 10
41.08501052856445
 20
106.5909996032715
 10
38.30701065063477
 20
113.1879997253418
 10
38.30701065063477
 20
113.1879997253418
 10
37.88701248168945
 20
114.1859998703003
 10
37.10401153564453
 20
114.9589996337891
 10
36.10201263427734
 20
115.3669996261597
 10
35.10201263427734
 20
115.7729997634888
 10
34.00101089477539
 20
115.7679996490479
 10
33.00401306152344
 20
115.3449993133545
 10
32.01001358032227
 20
114.92799949646
 10
31.23701286315918
 20
114.1449995040894
 10
30.82901382446289
 20
113.1419992446899
 10
30.42101287841797
 20
112.140998840332
 10
30.42801475524902
 20
111.0409994125366
 10
30.84701347351074
 20
110.0449991226196
 10
30.84701347351074
 20
110.0449991226196
 10
33.62601470947266
 20
103.447998046875
 10
33.62601470947266
 20
103.447998046875
 10
34.10101318359375
 20
102.3209972381592
 10
35.0510139465332
 20
101.4899978637695
 10
36.22001647949219
 20
101.1529979705811
 10
36.22001647949219
 20
101.1529979705811
 10
37.52001571655273
 20
98.06499862670898
 10
37.52001571655273
 20
98.06499862670898
 10
32.97501373291016
 20
95.61799812316895
 10
29.30401611328125
 20
91.9229965209961
 10
26.87801551818848
 20
87.37099838256836
 10
26.12001609802246
 20
87.60400009155273
 10
25.34301567077637
 20
87.83499908447266
 10
24.53701591491699
 20
88.05899810791016
 10
24.26501655578613
 20
88.13299942016602
 10
24.0040168762207
 20
88.20199966430664
 10
23.74501609802246
 20
88.26899719238281
 10
23.43701553344727
 20
89.51399612426758
 10
22.56001663208008
 20
90.54199600219727
 10
21.36001586914062
 20
91.03199768066406
 10
21.36001586914062
 20
91.03199768066406
 10
14.7290153503418
 20
93.73299789428711
 10
14.7290153503418
 20
93.73299789428711
 10
12.66201591491699
 20
94.57499694824219
 10
10.2960147857666
 20
93.5779972076416
 10
9.456015586853027
 20
91.5099983215332
 10
8.614015579223633
 20
89.44499969482422
 10
9.611015319824219
 20
87.07999801635742
 10
11.67801570892334
 20
86.23799896240234
 10
11.67801570892334
 20
86.23799896240234
 10
18.30901527404785
 20
83.5369987487793
 10
18.30901527404785
 20
83.5369987487793
 10
19.5090160369873
 20
83.04800033569336
 10
20.85501480102539
 20
83.17399978637695
 10
21.9470157623291
 20
83.84700012207031
 10
22.17801666259766
 20
83.71500015258789
 10
22.41401672363281
 20
83.58100128173828
 10
22.66001510620117
 20
83.44300079345703
 10
23.39301490783691
 20
83.04100036621094
 10
24.10701560974121
 20
82.66600036621094
 10
24.81901550292969
 20
82.302001953125
 10
23.37001609802246
 20
77.34900283813477
 10
23.42001533508301
 20
72.1400032043457
 10
24.96001625061035
 20
67.21200180053711
 10
24.96001625061035
 20
67.21200180053711
 10
21.87201690673828
 20
65.91400146484375
 10
21.87201690673828
 20
65.91400146484375
 10
20.80401611328125
 20
66.4890022277832
 10
19.54201698303223
 20
66.56100082397461
 10
18.41301727294922
 20
66.08200073242188
 10
18.41301727294922
 20
66.08200073242188
 10
11.81601715087891
 20
63.30400085449219
 10
11.81601715087891
 20
63.30400085449219
 10
10.82201671600342
 20
62.88500213623047
 10
10.04701709747314
 20
62.10400009155273
 10
9.638017654418945
 20
61.10000228881836
 10
9.233017921447754
 20
60.10000610351562
 10
9.238018035888672
 20
58.99800109863281
 10
9.659017562866211
 20
58.00300598144531
 10
10.07601737976074
 20
57.00600433349609
 10
10.85901737213135
 20
56.23200225830078
 10
11.86201763153076
 20
55.82600402832031
 10
12.86301803588867
 20
55.41700744628906
 10
13.96401786804199
 20
55.42500305175781
 10
14.95901775360107
 20
55.84500122070312
 10
14.95901775360107
 20
55.84500122070312
 10
21.5570182800293
 20
58.62300109863281
 10
21.5570182800293
 20
58.62300109863281
 10
22.54201889038086
 20
59.03600311279297
 10
23.30401802062988
 20
59.81200408935547
 10
23.71001815795898
 20
60.80400085449219
 10
23.76401901245117
 20
60.94000244140625
 10
23.81001853942871
 20
61.07900238037109
 10
23.85401725769043
 20
61.21699905395508
 10
23.85401725769043
 20
61.21699905395508
 10
26.93801689147949
 20
62.51499938964844
 10
26.93801689147949
 20
62.51499938964844
 10
29.38801765441895
 20
57.9739990234375
 10
33.08301544189453
 20
54.29899597167969
 10
37.63501739501953
 20
51.87599945068359
 10
37.40001678466797
 20
51.11899566650391
 10
37.16701889038086
 20
50.33899688720703
 10
36.94301605224609
 20
49.53299713134766
 10
36.87001419067383
 20
49.26199340820312
 10
36.80301666259766
 20
49.00199890136719
 10
36.73601531982422
 20
48.74299621582031
 10
35.49101638793945
 20
48.43299865722656
 10
34.46101379394531
 20
47.55799865722656
 10
33.97301483154297
 20
46.35499572753906
 10
33.97301483154297
 20
46.35499572753906
 10
31.27501487731934
 20
39.7239990234375
 10
31.27501487731934
 20
39.7239990234375
 10
30.43101501464844
 20
37.65999603271484
 10
31.42901420593262
 20
35.29100036621094
 10
33.49401473999023
 20
34.45199584960938
 10
35.56201553344727
 20
33.60999298095703
 10
37.9270133972168
 20
34.60599517822266
 10
38.76801300048828
 20
36.67099761962891
 10
38.76801300048828
 20
36.67099761962891
 10
41.46901321411133
 20
43.30199432373047
 10
41.46901321411133
 20
43.30199432373047
 10
41.95601272583008
 20
44.50199127197266
 10
41.83201217651367
 20
45.84899139404297
 10
41.15501403808594
 20
46.94099426269531
 10
41.291015625
 20
47.17299652099609
 10
41.42401504516602
 20
47.40699768066406
 10
41.55901336669922
 20
47.65399169921875
 10
41.96101379394531
 20
48.38699340820312
 10
42.33901214599609
 20
49.10298919677734
 10
42.70101165771484
 20
49.81298828125
 10
47.65601348876953
 20
48.36798858642578
 10
52.86101150512695
 20
48.41398620605469
 10
57.79001235961914
 20
49.95598602294922
 10
57.79001235961914
 20
49.95598602294922
 10
59.09001159667969
 20
46.86498260498047
 10
59.09001159667969
 20
46.86498260498047
 10
59.02101135253906
 20
46.74098205566406
 10
58.96100997924805
 20
46.6099853515625
 10
58.90501022338867
 20
46.47498321533203
 10
58.5000114440918
 20
45.48198699951172
 10
58.50701141357422
 20
44.39198303222656
 10
58.92401123046875
 20
43.40998077392578
 10
58.92401123046875
 20
43.40998077392578
 10
61.69901275634766
 20
36.81198120117188
 10
61.69901275634766
 20
36.81198120117188
 10
62.11901092529297
 20
35.81797790527344
 10
62.90301132202148
 20
35.04198455810547
 10
63.90401458740234
 20
34.63397979736328
 10
64.90501403808594
 20
34.22597503662109
 10
66.00101470947266
 20
34.23397827148438
 10
67.00101470947266
 20
34.65498352050781
 10
67.9950180053711
 20
35.07398223876953
 10
68.77001190185547
 20
35.85498046875
 10
69.17901611328125
 20
36.85498046875
 10
69.5870132446289
 20
37.85897827148438
 10
69.57901763916016
 20
38.958984375
 10
69.16001892089844
 20
39.95298004150391
 10
69.16001892089844
 20
39.95298004150391
 10
66.38101959228516
 20
46.552978515625
 10
66.38101959228516
 20
46.552978515625
 10
65.90702056884766
 20
47.67997741699219
 10
64.95601654052734
 20
48.51497650146484
 10
63.78601837158203
 20
48.84897613525391
 10
63.78601837158203
 20
48.84897613525391
 10
62.48801803588867
 20
51.93297576904297
 10
62.48801803588867
 20
51.93297576904297
 10
67.03001403808594
 20
54.38397216796875
 10
70.70401763916016
 20
58.0789794921875
 10
73.12701416015625
 20
62.63197708129883
 10
73.88801574707031
 20
62.39397811889648
 10
74.66401672363281
 20
62.16397857666016
 10
75.47001647949219
 20
61.94397735595703
 10
75.739013671875
 20
61.86697769165039
 10
76.00401306152344
 20
61.79997634887695
 10
76.26101684570312
 20
61.73297882080078
 10
76.57101440429688
 20
60.48897552490234
 10
77.44902038574219
 20
59.45797729492188
 10
78.64801788330078
 20
58.96897888183594
 10
78.64801788330078
 20
58.96897888183594
 10
85.27901458740234
 20
56.26898193359375
 10
85.27901458740234
 20
56.26898193359375
 10
87.34701538085938
 20
55.42998504638672
 10
89.7120132446289
 20
56.42398071289062
 10
90.55301666259766
 20
58.49098205566406
 10
91.38700103759766
 20
60.55899810791016
 10
90.39399719238281
 20
62.92200088500977
 10
88.32599639892578
 20
63.76399993896484
 97
        0
 97
        0
 92
        1
 93
        1
 72
     4
 94
        3
 73
     0
 74
     1
 95
       29
 96
       25
 40
0.0
 40
0.0
 40
0.0
 40
0.0
 40
1.0
 40
1.0
 40
1.0
 40
2.0
 40
2.0
 40
2.0
 40
3.0
 40
3.0
 40
3.0
 40
4.0
 40
4.0
 40
4.0
 40
5.0
 40
5.0
 40
5.0
 40
6.0
 40
6.0
 40
6.0
 40
7.0
 40
7.0
 40
7.0
 40
8.0
 40
8.0
 40
8.0
 40
8.0
 10
56.58499908447266
 20
84.57099914550781
 10
57.12699890136719
 20
85.76699829101562
 10
57.71500015258789
 20
86.96299743652344
 10
58.2859992980957
 20
88.12199783325195
 10
59.04700088500977
 20
89.66799926757812
 10
59.8390007019043
 20
91.26899719238281
 10
60.49399948120117
 20
92.83599853515625
 10
60.57899856567383
 20
93.0459976196289
 10
60.65599822998047
 20
93.26199913024902
 10
60.74499893188477
 20
93.47599792480469
 10
64.01300048828125
 20
91.58099746704102
 10
66.6989974975586
 20
88.88299942016602
 10
68.5719985961914
 20
85.59099578857422
 10
68.5719985961914
 20
85.59099578857422
 10
55.84099960327148
 20
80.22499465942383
 10
55.84099960327148
 20
80.22499465942383
 10
55.56499862670898
 20
80.53399276733398
 10
55.27299880981445
 20
80.82699584960938
 10
54.94699859619141
 20
81.08699417114258
 10
55.28199768066406
 20
81.78999328613281
 10
55.61199951171875
 20
82.48899459838867
 10
55.94499969482422
 20
83.19899368286133
 10
55.94499969482422
 20
83.19899368286133
 10
56.58499908447266
 20
84.57099914550781
 10
56.58499908447266
 20
84.57099914550781
 97
        0
 97
        0
 92
        1
 93
        1
 72
     4
 94
        3
 73
     0
 74
     1
 95
       29
 96
       25
 40
0.0
 40
0.0
 40
0.0
 40
0.0
 40
1.0
 40
1.0
 40
1.0
 40
2.0
 40
2.0
 40
2.0
 40
3.0
 40
3.0
 40
3.0
 40
4.0
 40
4.0
 40
4.0
 40
5.0
 40
5.0
 40
5.0
 40
6.0
 40
6.0
 40
6.0
 40
7.0
 40
7.0
 40
7.0
 40
8.0
 40
8.0
 40
8.0
 40
8.0
 10
55.22100067138672
 20
95.72699928283691
 10
55.13000106811523
 20
95.51099967956543
 10
55.03400039672852
 20
95.29899978637695
 10
54.94800186157227
 20
95.08699989318848
 10
54.32600021362305
 20
93.51700019836426
 10
53.77000045776367
 20
91.81900024414062
 10
53.23600006103516
 20
90.1780014038086
 10
52.8380012512207
 20
88.95199966430664
 10
52.41899871826172
 20
87.68099975585938
 10
51.96900177001953
 20
86.4370002746582
 10
51.96900177001953
 20
86.4370002746582
 10
51.47200012207031
 20
85.01800155639648
 10
51.47200012207031
 20
85.01800155639648
 10
51.21500015258789
 20
84.27900314331055
 10
50.9630012512207
 20
83.54600143432617
 10
50.71099853515625
 20
82.81300354003906
 10
50.29399871826172
 20
82.85100173950195
 10
49.88299942016602
 20
82.84900283813477
 10
49.4739990234375
 20
82.82000350952148
 10
49.4739990234375
 20
82.82000350952148
 10
44.10499954223633
 20
95.54999923706055
 10
44.10499954223633
 20
95.54999923706055
 10
47.74800109863281
 20
96.60300064086914
 10
51.55500030517578
 20
96.6560001373291
 10
55.22100067138672
 20
95.72699928283691
 97
        0
 97
        0
 92
        1
 93
        1
 72
     4
 94
        3
 73
     0
 74
     1
 95
       29
 96
       25
 40
0.0
 40
0.0
 40
0.0
 40
0.0
 40
1.0
 40
1.0
 40
1.0
 40
2.0
 40
2.0
 40
2.0
 40
3.0
 40
3.0
 40
3.0
 40
4.0
 40
4.0
 40
4.0
 40
5.0
 40
5.0
 40
5.0
 40
6.0
 40
6.0
 40
6.0
 40
7.0
 40
7.0
 40
7.0
 40
8.0
 40
8.0
 40
8.0
 40
8.0
 10
39.4119987487793
 20
93.57099914550781
 10
39.4119987487793
 20
93.57099914550781
 10
44.77399826049805
 20
80.84299850463867
 10
44.77399826049805
 20
80.84299850463867
 10
44.46599960327148
 20
80.56699752807617
 10
44.17499923706055
 20
80.27499771118164
 10
43.90999984741211
 20
79.9489974975586
 10
43.21099853515625
 20
80.28299713134766
 10
42.50799942016602
 20
80.61399841308594
 10
41.80099868774414
 20
80.9469985961914
 10
41.80099868774414
 20
80.9469985961914
 10
40.42599868774414
 20
81.58499908447266
 10
40.42599868774414
 20
81.58499908447266
 10
39.2339973449707
 20
82.1259994506836
 10
38.03799819946289
 20
82.71500015258789
 10
36.87899780273438
 20
83.28499984741211
 10
35.32899856567383
 20
84.04999923706055
 10
33.72799682617188
 20
84.8380012512207
 10
32.16299819946289
 20
85.49200057983398
 10
31.95399856567383
 20
85.5790023803711
 10
31.73599815368652
 20
85.65700149536133
 10
31.52299880981445
 20
85.74200057983398
 10
33.41600036621094
 20
89.01399993896484
 10
36.11600112915039
 20
91.70000076293945
 10
39.4119987487793
 20
93.57099914550781
 97
        0
 97
        0
 92
        1
 93
        1
 72
     4
 94
        3
 73
     0
 74
     1
 95
       29
 96
       25
 40
0.0
 40
0.0
 40
0.0
 40
0.0
 40
1.0
 40
1.0
 40
1.0
 40
2.0
 40
2.0
 40
2.0
 40
3.0
 40
3.0
 40
3.0
 40
4.0
 40
4.0
 40
4.0
 40
5.0
 40
5.0
 40
5.0
 40
6.0
 40
6.0
 40
6.0
 40
7.0
 40
7.0
 40
7.0
 40
8.0
 40
8.0
 40
8.0
 40
8.0
 10
29.27499961853027
 20
80.2229995727539
 10
29.48799896240234
 20
80.13100051879883
 10
29.70299911499023
 20
80.0359992980957
 10
29.91499900817871
 20
79.947998046875
 10
31.48299980163574
 20
79.32699966430664
 10
33.18000030517578
 20
78.77399826049805
 10
34.822998046875
 20
78.23699951171875
 10
36.05099868774414
 20
77.83599853515625
 10
37.31899642944336
 20
77.42300033569336
 10
38.56199645996094
 20
76.96799850463867
 10
38.56199645996094
 20
76.96799850463867
 10
39.97899627685547
 20
76.4739990234375
 10
39.97899627685547
 20
76.4739990234375
 10
40.72099685668945
 20
76.21599960327148
 10
41.45099639892578
 20
75.96199798583984
 10
42.18599700927734
 20
75.71199798583984
 10
42.14899826049805
 20
75.29499816894531
 10
42.15299606323242
 20
74.88399887084961
 10
42.18099594116211
 20
74.4749984741211
 10
42.18099594116211
 20
74.4749984741211
 10
29.44999694824219
 20
69.11000061035156
 10
29.44999694824219
 20
69.11000061035156
 10
28.39900016784668
 20
72.74700164794922
 10
28.34499931335449
 20
76.55699920654297
 10
29.27499961853027
 20
80.2229995727539
 97
        0
 97
        0
 92
        1
 93
        1
 72
     4
 94
        3
 73
     0
 74
     1
 95
       29
 96
       25
 40
0.0
 40
0.0
 40
0.0
 40
0.0
 40
1.0
 40
1.0
 40
1.0
 40
2.0
 40
2.0
 40
2.0
 40
3.0
 40
3.0
 40
3.0
 40
4.0
 40
4.0
 40
4.0
 40
5.0
 40
5.0
 40
5.0
 40
6.0
 40
6.0
 40
6.0
 40
7.0
 40
7.0
 40
7.0
 40
8.0
 40
8.0
 40
8.0
 40
8.0
 10
43.41500091552734
 20
65.43099975585938
 10
42.87100219726562
 20
64.23799896240234
 10
42.28300094604492
 20
63.03799819946289
 10
41.71200180053711
 20
61.88100051879883
 10
40.94900131225586
 20
60.33100128173828
 10
40.16300201416016
 20
58.73100280761719
 10
39.50500106811523
 20
57.16500091552734
 10
39.42000198364258
 20
56.95500183105469
 10
39.34000015258789
 20
56.73799896240234
 10
39.25600051879883
 20
56.52400207519531
 10
35.98600006103516
 20
58.41899871826172
 10
33.29600143432617
 20
61.11700057983398
 10
31.42900085449219
 20
64.41300201416016
 10
31.42900085449219
 20
64.41300201416016
 10
44.15600204467773
 20
69.7750015258789
 10
44.15600204467773
 20
69.7750015258789
 10
44.43300247192383
 20
69.46600341796875
 10
44.72600173950195
 20
69.1760025024414
 10
45.05000305175781
 20
68.91400146484375
 10
44.71600341796875
 20
68.21200180053711
 10
44.38500213623047
 20
67.50900268554688
 10
44.05700302124023
 20
66.802001953125
 10
44.05700302124023
 20
66.802001953125
 10
43.41500091552734
 20
65.43099975585938
 10
43.41500091552734
 20
65.43099975585938
 97
        0
 97
        0
 92
        1
 93
        1
 72
     4
 94
        3
 73
     0
 74
     1
 95
       29
 96
       25
 40
0.0
 40
0.0
 40
0.0
 40
0.0
 40
1.0
 40
1.0
 40
1.0
 40
2.0
 40
2.0
 40
2.0
 40
3.0
 40
3.0
 40
3.0
 40
4.0
 40
4.0
 40
4.0
 40
5.0
 40
5.0
 40
5.0
 40
6.0
 40
6.0
 40
6.0
 40
7.0
 40
7.0
 40
7.0
 40
8.0
 40
8.0
 40
8.0
 40
8.0
 10
44.77999877929688
 20
54.27999877929688
 10
44.86599731445312
 20
54.48999786376953
 10
44.96699905395508
 20
54.70400238037109
 10
45.05500030517578
 20
54.91699981689453
 10
45.67300033569336
 20
56.48699951171875
 10
46.22900009155273
 20
58.18099975585938
 10
46.76499938964844
 20
59.822998046875
 10
47.16600036621094
 20
61.04899978637695
 10
47.58100128173828
 20
62.31899642944336
 10
48.03099822998047
 20
63.56199645996094
 10
48.03099822998047
 20
63.56199645996094
 10
48.52699661254883
 20
64.98099517822266
 10
48.52699661254883
 20
64.98099517822266
 10
48.78599548339844
 20
65.7199935913086
 10
49.03799819946289
 20
66.45399475097656
 10
49.28799819946289
 20
67.18599700927734
 10
49.70599746704102
 20
67.14599609375
 10
50.11999893188477
 20
67.14999771118164
 10
50.52899932861328
 20
67.18099594116211
 10
50.52899932861328
 20
67.18099594116211
 10
55.89299774169922
 20
54.44899749755859
 10
55.89299774169922
 20
54.44899749755859
 10
52.25299835205078
 20
53.39900207519531
 10
48.44300079345703
 20
53.34799957275391
 10
44.77999877929688
 20
54.27999877929688
 97
        0
 97
        0
 92
        1
 93
        1
 72
     4
 94
        3
 73
     0
 74
     1
 95
       29
 96
       25
 40
0.0
 40
0.0
 40
0.0
 40
0.0
 40
1.0
 40
1.0
 40
1.0
 40
2.0
 40
2.0
 40
2.0
 40
3.0
 40
3.0
 40
3.0
 40
4.0
 40
4.0
 40
4.0
 40
5.0
 40
5.0
 40
5.0
 40
6.0
 40
6.0
 40
6.0
 40
7.0
 40
7.0
 40
7.0
 40
8.0
 40
8.0
 40
8.0
 40
8.0
 10
60.5890007019043
 20
56.42900085449219
 10
60.5890007019043
 20
56.42900085449219
 10
55.22299957275391
 20
69.16100311279297
 10
55.22299957275391
 20
69.16100311279297
 10
55.53499984741211
 20
69.43300247192383
 10
55.82500076293945
 20
69.7280044555664
 10
56.08699798583984
 20
70.0510025024414
 10
56.78899765014648
 20
69.71900177001953
 10
57.48999786376953
 20
69.38500213623047
 10
58.19899749755859
 20
69.05700302124023
 10
58.19899749755859
 20
69.05700302124023
 10
59.56899642944336
 20
68.4160041809082
 10
59.56899642944336
 20
68.4160041809082
 10
60.76399612426758
 20
67.87200546264648
 10
61.96199798583984
 20
67.28300476074219
 10
63.1199951171875
 20
66.71300506591797
 10
64.66999816894531
 20
65.95100402832031
 10
66.27099609375
 20
65.16100311279297
 10
67.83599853515625
 20
64.5060043334961
 10
68.04299926757812
 20
64.42200469970703
 10
68.26200103759766
 20
64.3440055847168
 10
68.47599792480469
 20
64.25900268554688
 10
66.58200073242188
 20
60.98799896240234
 10
63.88199996948242
 20
58.29799652099609
 10
60.5890007019043
 20
56.42900085449219
 97
        0
 97
        0
 92
        1
 93
        1
 72
     4
 94
        3
 73
     0
 74
     1
 95
       29
 96
       25
 40
0.0
 40
0.0
 40
0.0
 40
0.0
 40
1.0
 40
1.0
 40
1.0
 40
2.0
 40
2.0
 40
2.0
 40
3.0
 40
3.0
 40
3.0
 40
4.0
 40
4.0
 40
4.0
 40
5.0
 40
5.0
 40
5.0
 40
6.0
 40
6.0
 40
6.0
 40
7.0
 40
7.0
 40
7.0
 40
8.0
 40
8.0
 40
8.0
 40
8.0
 10
70.7249984741211
 20
69.78099822998047
 10
70.50899505615234
 20
69.86899948120117
 10
70.29499816894531
 20
69.96799850463867
 10
70.08399963378906
 20
70.05399703979492
 10
68.51699829101562
 20
70.6729965209961
 10
66.81900024414062
 20
71.22899627685547
 10
65.1780014038086
 20
71.76499557495117
 10
63.95000076293945
 20
72.16699600219727
 10
62.67900085449219
 20
72.58099365234375
 10
61.43900299072266
 20
73.03299713134766
 10
61.43900299072266
 20
73.03299713134766
 10
60.01900482177734
 20
73.52699661254883
 10
60.01900482177734
 20
73.52699661254883
 10
59.28300476074219
 20
73.78599548339844
 10
58.54700469970703
 20
74.03899765014648
 10
57.81500625610352
 20
74.28799819946289
 10
57.84900665283203
 20
74.70499801635742
 10
57.84900665283203
 20
75.11899948120117
 10
57.82200622558594
 20
75.52799987792969
 10
57.82200622558594
 20
75.52799987792969
 10
70.55000305175781
 20
80.89299774169922
 10
70.55000305175781
 20
80.89299774169922
 10
71.60099792480469
 20
77.25600051879883
 10
71.65299987792969
 20
73.44400024414062
 10
70.7249984741211
 20
69.78099822998047
 97
        0
 97
        0
 75
     2
 76
     1
 98
        0
  0
ENDSEC
  0
SECTION
  2
OBJECTS
  0
DICTIONARY
  5
C
330
0
100
AcDbDictionary
281
     1
  3
ACAD_GROUP
350
D
  3
ACAD_LAYOUT
350
1A
  3
ACAD_MATERIAL
350
3B
  3
ACAD_MLEADERSTYLE
350
4C
  3
ACAD_MLINESTYLE
350
17
  3
ACAD_PLOTSETTINGS
350
19
  3
ACAD_PLOTSTYLENAME
350
E
  3
ACAD_TABLESTYLE
350
4B
  3
ACAD_VISUALSTYLE
350
2A
  0
SUN
  5
3F
330
29
100
AcDbSun
 90
        1
290
     0
 63
     7
421
 16777215
 40
1.0
291
     1
 91
  2455826
 92
 54000000
292
     0
 70
     2
 71
   256
280
     1
  0
DICTIONARY
  5
D
102
{ACAD_REACTORS
330
C
102
}
330
C
100
AcDbDictionary
281
     1
  0
DICTIONARY
  5
1A
102
{ACAD_REACTORS
330
C
102
}
330
C
100
AcDbDictionary
281
     1
  3
Layout1
350
1E
  3
Layout2
350
26
  3
Model
350
22
  0
DICTIONARY
  5
3B
102
{ACAD_REACTORS
330
C
102
}
330
C
100
AcDbDictionary
281
     1
  3
ByBlock
350
3D
  3
ByLayer
350
3C
  3
Global
350
3E
  0
DICTIONARY
  5
4C
102
{ACAD_REACTORS
330
C
102
}
330
C
100
AcDbDictionary
281
     1
  0
DICTIONARY
  5
17
102
{ACAD_REACTORS
330
C
102
}
330
C
100
AcDbDictionary
281
     1
  3
Standard
350
18
  0
DICTIONARY
  5
19
102
{ACAD_REACTORS
330
C
102
}
330
C
100
AcDbDictionary
281
     1
  0
ACDBDICTIONARYWDFLT
  5
E
102
{ACAD_REACTORS
330
C
102
}
330
C
100
AcDbDictionary
281
     1
  3
Normal
350
F
100
AcDbDictionaryWithDefault
340
F
  0
DICTIONARY
  5
4B
102
{ACAD_REACTORS
330
C
102
}
330
C
100
AcDbDictionary
281
     1
  0
DICTIONARY
  5
2A
102
{ACAD_REACTORS
330
C
102
}
330
C
100
AcDbDictionary
281
     1
  3
2dWireframe
350
2F
  3
3D Hidden
350
31
  3
3dWireframe
350
30
  3
Basic
350
32
  3
Brighten
350
36
  3
ColorChange
350
3A
  3
Conceptual
350
34
  3
Dim
350
35
  3
Facepattern
350
39
  3
Flat
350
2B
  3
FlatWithEdges
350
2C
  3
Gouraud
350
2D
  3
GouraudWithEdges
350
2E
  3
Linepattern
350
38
  3
Realistic
350
33
  3
Thicken
350
37
  0
LAYOUT
  5
1E
102
{ACAD_REACTORS
330
1A
102
}
330
1A
100
AcDbPlotSettings
  1

  2
none_device
  4

  6

 40
0.0
 41
0.0
 42
0.0
 43
0.0
 44
0.0
 45
0.0
 46
0.0
 47
0.0
 48
0.0
 49
0.0
140
0.0
141
0.0
142
1.0
143
1.0
 70
   688
 72
     0
 73
     0
 74
     5
  7

 75
    16
 76
     0
 77
     2
 78
   300
147
1.0
148
0.0
149
0.0
100
AcDbLayout
  1
Layout1
 70
     1
 71
     1
 10
0.0
 20
0.0
 11
12.0
 21
9.0
 12
0.0
 22
0.0
 32
0.0
 14
1.000000000000000E+20
 24
1.000000000000000E+20
 34
1.000000000000000E+20
 15
-1.000000000000000E+20
 25
-1.000000000000000E+20
 35
-1.000000000000000E+20
146
0.0
 13
0.0
 23
0.0
 33
0.0
 16
1.0
 26
0.0
 36
0.0
 17
0.0
 27
1.0
 37
0.0
 76
     0
330
1B
  0
LAYOUT
  5
26
102
{ACAD_REACTORS
330
1A
102
}
330
1A
100
AcDbPlotSettings
  1

  2
none_device
  4

  6

 40
0.0
 41
0.0
 42
0.0
 43
0.0
 44
0.0
 45
0.0
 46
0.0
 47
0.0
 48
0.0
 49
0.0
140
0.0
141
0.0
142
1.0
143
1.0
 70
   688
 72
     0
 73
     0
 74
     5
  7

 75
    16
 76
     0
 77
     2
 78
   300
147
1.0
148
0.0
149
0.0
100
AcDbLayout
  1
Layout2
 70
     1
 71
     2
 10
0.0
 20
0.0
 11
0.0
 21
0.0
 12
0.0
 22
0.0
 32
0.0
 14
0.0
 24
0.0
 34
0.0
 15
0.0
 25
0.0
 35
0.0
146
0.0
 13
0.0
 23
0.0
 33
0.0
 16
1.0
 26
0.0
 36
0.0
 17
0.0
 27
1.0
 37
0.0
 76
     0
330
23
  0
LAYOUT
  5
22
102
{ACAD_REACTORS
330
1A
102
}
330
1A
100
AcDbPlotSettings
  1

  2
none_device
  4

  6

 40
0.0
 41
0.0
 42
0.0
 43
0.0
 44
0.0
 45
0.0
 46
0.0
 47
0.0
 48
0.0
 49
0.0
140
0.0
141
0.0
142
1.0
143
1.0
 70
  1712
 72
     0
 73
     0
 74
     0
  7

 75
     0
 76
     0
 77
     2
 78
   300
147
1.0
148
0.0
149
0.0
100
AcDbLayout
  1
Model
 70
     1
 71
     0
 10
0.0
 20
0.0
 11
12.0
 21
9.0
 12
0.0
 22
0.0
 32
0.0
 14
1.000000000000000E+20
 24
1.000000000000000E+20
 34
1.000000000000000E+20
 15
-1.000000000000000E+20
 25
-1.000000000000000E+20
 35
-1.000000000000000E+20
146
0.0
 13
0.0
 23
0.0
 33
0.0
 16
1.0
 26
0.0
 36
0.0
 17
0.0
 27
1.0
 37
0.0
 76
     0
330
1F
331
29
  0
MATERIAL
  5
3D
102
{ACAD_REACTORS
330
3B
102
}
330
3B
100
AcDbMaterial
  1
ByBlock
 72
     1
 94
      127
  0
MATERIAL
  5
3C
102
{ACAD_REACTORS
330
3B
102
}
330
3B
100
AcDbMaterial
  1
ByLayer
 72
     1
 94
      127
  0
MATERIAL
  5
3E
102
{ACAD_REACTORS
330
3B
102
}
330
3B
100
AcDbMaterial
  1
Global
 72
     1
 94
      127
  0
MLINESTYLE
  5
18
102
{ACAD_REACTORS
330
17
102
}
330
17
100
AcDbMlineStyle
  2
Standard
 70
     0
  3

 62
   256
 51
90.0
 52
90.0
 71
     2
 49
0.5
 62
   256
  6
BYLAYER
 49
-0.5
 62
   256
  6
BYLAYER
  0
ACDBPLACEHOLDER
  5
F
102
{ACAD_REACTORS
330
E
102
}
330
E
  0
VISUALSTYLE
  5
2F
102
{ACAD_REACTORS
330
2A
102
}
330
2A
100
AcDbVisualStyle
  2
2dWireframe
 70
     4
177
     2
291
     0
 71
     0
176
     1
 72
     2
176
     1
 73
     0
176
     1
 90
        0
176
     1
 40
-0.6
176
     1
 41
-30.0
176
     1
 62
     5
 63
     7
421
 16777215
176
     1
 74
     1
176
     1
 91
        4
176
     1
 64
     7
176
     1
 65
   257
176
     1
 75
     1
176
     1
175
     1
176
     1
 42
1.0
176
     1
 92
        0
176
     1
 66
   257
176
     1
 43
1.0
176
     1
 76
     1
176
     1
 77
     6
176
     1
 78
     2
176
     1
 67
     7
176
     1
 79
     5
176
     1
170
     0
176
     1
171
     0
176
     1
290
     0
176
     1
 93
        1
176
     1
 44
0.0
176
     1
173
     0
176
     1
  0
VISUALSTYLE
  5
31
102
{ACAD_REACTORS
330
2A
102
}
330
2A
100
AcDbVisualStyle
  2
3D Hidden
 70
     6
177
     2
291
     0
 71
     1
176
     1
 72
     2
176
     1
 73
     2
176
     1
 90
        0
176
     1
 40
-0.6
176
     1
 41
-30.0
176
     1
 62
     5
 63
     7
421
 16777215
176
     1
 74
     2
176
     1
 91
        2
176
     1
 64
     7
176
     1
 65
   257
176
     1
 75
     2
176
     1
175
     1
176
     1
 42
40.0
176
     1
 92
        0
176
     1
 66
   257
176
     1
 43
1.0
176
     1
 76
     1
176
     1
 77
     6
176
     1
 78
     2
176
     1
 67
     7
176
     1
 79
     3
176
     1
170
     0
176
     1
171
     0
176
     1
290
     0
176
     1
 93
        1
176
     1
 44
0.0
176
     1
173
     0
176
     1
  0
VISUALSTYLE
  5
30
102
{ACAD_REACTORS
330
2A
102
}
330
2A
100
AcDbVisualStyle
  2
3dWireframe
 70
     5
177
     2
291
     0
 71
     0
176
     1
 72
     2
176
     1
 73
     0
176
     1
 90
        0
176
     1
 40
-0.6
176
     1
 41
-30.0
176
     1
 62
     5
 63
     7
421
 16777215
176
     1
 74
     1
176
     1
 91
        4
176
     1
 64
     7
176
     1
 65
   257
176
     1
 75
     1
176
     1
175
     1
176
     1
 42
1.0
176
     1
 92
        0
176
     1
 66
   257
176
     1
 43
1.0
176
     1
 76
     1
176
     1
 77
     6
176
     1
 78
     2
176
     1
 67
     7
176
     1
 79
     5
176
     1
170
     0
176
     1
171
     0
176
     1
290
     0
176
     1
 93
        1
176
     1
 44
0.0
176
     1
173
     0
176
     1
  0
VISUALSTYLE
  5
32
102
{ACAD_REACTORS
330
2A
102
}
330
2A
100
AcDbVisualStyle
  2
Basic
 70
     7
177
     2
291
     1
 71
     1
176
     1
 72
     0
176
     1
 73
     1
176
     1
 90
        0
176
     1
 40
-0.6
176
     1
 41
-30.0
176
     1
 62
     5
 63
     7
421
 16777215
176
     1
 74
     0
176
     1
 91
        4
176
     1
 64
     7
176
     1
 65
   257
176
     1
 75
     1
176
     1
175
     1
176
     1
 42
1.0
176
     1
 92
        8
176
     1
 66
     7
176
     1
 43
1.0
176
     1
 76
     1
176
     1
 77
     6
176
     1
 78
     2
176
     1
 67
     7
176
     1
 79
     5
176
     1
170
     0
176
     1
171
     0
176
     1
290
     0
176
     1
 93
        1
176
     1
 44
0.0
176
     1
173
     0
176
     1
  0
VISUALSTYLE
  5
36
102
{ACAD_REACTORS
330
2A
102
}
330
2A
100
AcDbVisualStyle
  2
Brighten
 70
    12
177
     2
291
     1
 71
     2
176
     1
 72
     2
176
     1
 73
     0
176
     1
 90
        0
176
     1
 40
-0.6
176
     1
 41
-30.0
176
     1
 62
     5
 63
     7
421
 16777215
176
     1
 74
     1
176
     1
 91
        4
176
     1
 64
     7
176
     1
 65
   257
176
     1
 75
     1
176
     1
175
     1
176
     1
 42
1.0
176
     1
 92
        8
176
     1
 66
     7
176
     1
 43
1.0
176
     1
 76
     1
176
     1
 77
     6
176
     1
 78
     2
176
     1
 67
     7
176
     1
 79
     5
176
     1
170
     0
176
     1
171
     0
176
     1
290
     0
176
     1
 93
        1
176
     1
 44
50.0
176
     1
173
     0
176
     1
  0
VISUALSTYLE
  5
3A
102
{ACAD_REACTORS
330
2A
102
}
330
2A
100
AcDbVisualStyle
  2
ColorChange
 70
    16
177
     2
291
     1
 71
     2
176
     1
 72
     2
176
     1
 73
     3
176
     1
 90
        0
176
     1
 40
-0.6
176
     1
 41
-30.0
176
     1
 62
     5
 63
     8
421
  8421504
176
     1
 74
     1
176
     1
 91
        4
176
     1
 64
     7
176
     1
 65
   257
176
     1
 75
     1
176
     1
175
     1
176
     1
 42
1.0
176
     1
 92
        8
176
     1
 66
     8
424
  8421504
176
     1
 43
1.0
176
     1
 76
     1
176
     1
 77
     6
176
     1
 78
     2
176
     1
 67
     7
176
     1
 79
     5
176
     1
170
     0
176
     1
171
     0
176
     1
290
     0
176
     1
 93
        1
176
     1
 44
0.0
176
     1
173
     0
176
     1
  0
VISUALSTYLE
  5
34
102
{ACAD_REACTORS
330
2A
102
}
330
2A
100
AcDbVisualStyle
  2
Conceptual
 70
     9
177
     2
291
     0
 71
     3
176
     1
 72
     2
176
     1
 73
     0
176
     1
 90
        0
176
     1
 40
-0.6
176
     1
 41
-30.0
176
     1
 62
     5
 63
     7
421
 16777215
176
     1
 74
     2
176
     1
 91
        2
176
     1
 64
     7
176
     1
 65
   257
176
     1
 75
     1
176
     1
175
     1
176
     1
 42
40.0
176
     1
 92
        8
176
     1
 66
     7
176
     1
 43
1.0
176
     1
 76
     1
176
     1
 77
     6
176
     1
 78
     2
176
     1
 67
     7
176
     1
 79
     3
176
     1
170
     0
176
     1
171
     0
176
     1
290
     0
176
     1
 93
        1
176
     1
 44
0.0
176
     1
173
     0
176
     1
  0
VISUALSTYLE
  5
35
102
{ACAD_REACTORS
330
2A
102
}
330
2A
100
AcDbVisualStyle
  2
Dim
 70
    11
177
     2
291
     1
 71
     2
176
     1
 72
     2
176
     1
 73
     0
176
     1
 90
        0
176
     1
 40
-0.6
176
     1
 41
-30.0
176
     1
 62
     5
 63
     7
421
 16777215
176
     1
 74
     1
176
     1
 91
        4
176
     1
 64
     7
176
     1
 65
   257
176
     1
 75
     1
176
     1
175
     1
176
     1
 42
1.0
176
     1
 92
        8
176
     1
 66
     7
176
     1
 43
1.0
176
     1
 76
     1
176
     1
 77
     6
176
     1
 78
     2
176
     1
 67
     7
176
     1
 79
     5
176
     1
170
     0
176
     1
171
     0
176
     1
290
     0
176
     1
 93
        1
176
     1
 44
-50.0
176
     1
173
     0
176
     1
  0
VISUALSTYLE
  5
39
102
{ACAD_REACTORS
330
2A
102
}
330
2A
100
AcDbVisualStyle
  2
Facepattern
 70
    15
177
     2
291
     1
 71
     2
176
     1
 72
     2
176
     1
 73
     0
176
     1
 90
        0
176
     1
 40
-0.6
176
     1
 41
-30.0
176
     1
 62
     5
 63
     7
421
 16777215
176
     1
 74
     1
176
     1
 91
        4
176
     1
 64
     7
176
     1
 65
   257
176
     1
 75
     1
176
     1
175
     1
176
     1
 42
1.0
176
     1
 92
        8
176
     1
 66
     7
176
     1
 43
1.0
176
     1
 76
     1
176
     1
 77
     6
176
     1
 78
     2
176
     1
 67
     7
176
     1
 79
     5
176
     1
170
     0
176
     1
171
     0
176
     1
290
     0
176
     1
 93
        1
176
     1
 44
0.0
176
     1
173
     0
176
     1
  0
VISUALSTYLE
  5
2B
102
{ACAD_REACTORS
330
2A
102
}
330
2A
100
AcDbVisualStyle
  2
Flat
 70
     0
177
     2
291
     1
 71
     2
176
     1
 72
     1
176
     1
 73
     1
176
     1
 90
        2
176
     1
 40
-0.6
176
     1
 41
30.0
176
     1
 62
     5
 63
     7
421
 16777215
176
     1
 74
     0
176
     1
 91
        4
176
     1
 64
     7
176
     1
 65
   257
176
     1
 75
     1
176
     1
175
     1
176
     1
 42
1.0
176
     1
 92
        8
176
     1
 66
     7
176
     1
 43
1.0
176
     1
 76
     1
176
     1
 77
     6
176
     1
 78
     2
176
     1
 67
     7
176
     1
 79
     5
176
     1
170
     0
176
     1
171
     0
176
     1
290
     0
176
     1
 93
       13
176
     1
 44
0.0
176
     1
173
     0
176
     1
  0
VISUALSTYLE
  5
2C
102
{ACAD_REACTORS
330
2A
102
}
330
2A
100
AcDbVisualStyle
  2
FlatWithEdges
 70
     1
177
     2
291
     1
 71
     2
176
     1
 72
     1
176
     1
 73
     1
176
     1
 90
        2
176
     1
 40
-0.6
176
     1
 41
30.0
176
     1
 62
     5
 63
     7
421
 16777215
176
     1
 74
     1
176
     1
 91
        4
176
     1
 64
     7
176
     1
 65
   257
176
     1
 75
     1
176
     1
175
     1
176
     1
 42
1.0
176
     1
 92
        0
176
     1
 66
   257
176
     1
 43
1.0
176
     1
 76
     1
176
     1
 77
     6
176
     1
 78
     2
176
     1
 67
     7
176
     1
 79
     5
176
     1
170
     0
176
     1
171
     0
176
     1
290
     0
176
     1
 93
       13
176
     1
 44
0.0
176
     1
173
     0
176
     1
  0
VISUALSTYLE
  5
2D
102
{ACAD_REACTORS
330
2A
102
}
330
2A
100
AcDbVisualStyle
  2
Gouraud
 70
     2
177
     2
291
     1
 71
     2
176
     1
 72
     2
176
     1
 73
     1
176
     1
 90
        2
176
     1
 40
-0.6
176
     1
 41
30.0
176
     1
 62
     5
 63
     7
421
 16777215
176
     1
 74
     0
176
     1
 91
        4
176
     1
 64
     7
176
     1
 65
   257
176
     1
 75
     1
176
     1
175
     1
176
     1
 42
1.0
176
     1
 92
        0
176
     1
 66
     7
176
     1
 43
1.0
176
     1
 76
     1
176
     1
 77
     6
176
     1
 78
     2
176
     1
 67
     7
176
     1
 79
     5
176
     1
170
     0
176
     1
171
     0
176
     1
290
     0
176
     1
 93
       13
176
     1
 44
0.0
176
     1
173
     0
176
     1
  0
VISUALSTYLE
  5
2E
102
{ACAD_REACTORS
330
2A
102
}
330
2A
100
AcDbVisualStyle
  2
GouraudWithEdges
 70
     3
177
     2
291
     1
 71
     2
176
     1
 72
     2
176
     1
 73
     1
176
     1
 90
        2
176
     1
 40
-0.6
176
     1
 41
30.0
176
     1
 62
     5
 63
     7
421
 16777215
176
     1
 74
     1
176
     1
 91
        4
176
     1
 64
     7
176
     1
 65
   257
176
     1
 75
     1
176
     1
175
     1
176
     1
 42
1.0
176
     1
 92
        0
176
     1
 66
   257
176
     1
 43
1.0
176
     1
 76
     1
176
     1
 77
     6
176
     1
 78
     2
176
     1
 67
     7
176
     1
 79
     5
176
     1
170
     0
176
     1
171
     0
176
     1
290
     0
176
     1
 93
       13
176
     1
 44
0.0
176
     1
173
     0
176
     1
  0
VISUALSTYLE
  5
38
102
{ACAD_REACTORS
330
2A
102
}
330
2A
100
AcDbVisualStyle
  2
Linepattern
 70
    14
177
     2
291
     1
 71
     2
176
     1
 72
     2
176
     1
 73
     0
176
     1
 90
        0
176
     1
 40
-0.6
176
     1
 41
-30.0
176
     1
 62
     5
 63
     7
421
 16777215
176
     1
 74
     1
176
     1
 91
        4
176
     1
 64
     7
176
     1
 65
   257
176
     1
 75
     7
176
     1
175
     7
176
     1
 42
1.0
176
     1
 92
        8
176
     1
 66
     7
176
     1
 43
1.0
176
     1
 76
     1
176
     1
 77
     6
176
     1
 78
     2
176
     1
 67
     7
176
     1
 79
     5
176
     1
170
     0
176
     1
171
     0
176
     1
290
     0
176
     1
 93
        1
176
     1
 44
0.0
176
     1
173
     0
176
     1
  0
VISUALSTYLE
  5
33
102
{ACAD_REACTORS
330
2A
102
}
330
2A
100
AcDbVisualStyle
  2
Realistic
 70
     8
177
     2
291
     0
 71
     2
176
     1
 72
     2
176
     1
 73
     0
176
     1
 90
        0
176
     1
 40
-0.6
176
     1
 41
-30.0
176
     1
 62
     5
 63
     7
421
 16777215
176
     1
 74
     1
176
     1
 91
        0
176
     1
 64
     7
176
     1
 65
   257
176
     1
 75
     1
176
     1
175
     1
176
     1
 42
1.0
176
     1
 92
        8
176
     1
 66
     8
424
  7895160
176
     1
 43
1.0
176
     1
 76
     1
176
     1
 77
     6
176
     1
 78
     2
176
     1
 67
     7
176
     1
 79
     5
176
     1
170
     0
176
     1
171
     0
176
     1
290
     0
176
     1
 93
       13
176
     1
 44
0.0
176
     1
173
     0
176
     1
  0
VISUALSTYLE
  5
37
102
{ACAD_REACTORS
330
2A
102
}
330
2A
100
AcDbVisualStyle
  2
Thicken
 70
    13
177
     2
291
     1
 71
     2
176
     1
 72
     2
176
     1
 73
     0
176
     1
 90
        0
176
     1
 40
-0.6
176
     1
 41
-30.0
176
     1
 62
     5
 63
     7
421
 16777215
176
     1
 74
     1
176
     1
 91
        4
176
     1
 64
     7
176
     1
 65
   257
176
     1
 75
     1
176
     1
175
     1
176
     1
 42
1.0
176
     1
 92
       12
176
     1
 66
     7
176
     1
 43
1.0
176
     1
 76
     1
176
     1
 77
     6
176
     1
 78
     2
176
     1
 67
     7
176
     1
 79
     5
176
     1
170
     0
176
     1
171
     0
176
     1
290
     0
176
     1
 93
        1
176
     1
 44
0.0
176
     1
173
     0
176
     1
  0
ENDSEC
  0
EOF
