<?xml version="1.0" encoding="utf-8"?>
<!-- Generator: Adobe Illustrator 19.2.1, SVG Export Plug-In . SVG Version: 6.00 Build 0)  -->
<svg version="1.1" id="Layer_1" xmlns="http://www.w3.org/2000/svg" xmlns:xlink="http://www.w3.org/1999/xlink" x="0px" y="0px"
	 viewBox="0 0 100 125" style="enable-background:new 0 0 100 125;" xml:space="preserve">
<path d="M88.3,61.2l-6.6-2.7c-1.2-0.5-2.5-0.4-3.6,0.3c-0.2-0.1-0.5-0.3-0.7-0.4c-0.7-0.4-1.4-0.8-2.2-1.1c1.4-5,1.4-10.2-0.1-15.1
	l3.1-1.3c1.1,0.6,2.3,0.6,3.5,0.2l6.6-2.8c1-0.4,1.8-1.2,2.2-2.2c0.4-1,0.4-2.1,0-3.1c-0.4-1-1.2-1.8-2.2-2.2c-1-0.4-2.1-0.4-3.1,0
	l-6.6,2.8c-1,0.4-1.8,1.2-2.2,2.2c-0.1,0.1-0.1,0.3-0.1,0.4l-3.1,1.3c-2.4-4.5-6.1-8.2-10.7-10.6c0.2-0.8,0.5-1.5,0.7-2.3
	c0.1-0.3,0.1-0.5,0.2-0.8c1.2-0.3,2.3-1.2,2.8-2.4l2.7-6.6c0.8-2.1-0.2-4.4-2.2-5.3c-2.1-0.8-4.4,0.2-5.3,2.2l-2.7,6.6
	c-0.5,1.2-0.4,2.5,0.3,3.6c-0.1,0.2-0.3,0.5-0.4,0.7c-0.4,0.7-0.8,1.4-1.1,2.2c-4.9-1.4-10.2-1.4-15.1,0.1l-1.3-3.1
	c0.1-0.1,0.1-0.3,0.2-0.4c0.4-1,0.4-2.1,0-3.1l-2.8-6.6c-0.4-1-1.2-1.8-2.2-2.2c-1-0.4-2.1-0.4-3.1,0c-1,0.4-1.8,1.2-2.2,2.2
	c-0.4,1-0.4,2.1,0,3.1l2.8,6.6c0.5,1.1,1.4,2,2.6,2.3l1.3,3.1c-4.5,2.4-8.2,6.1-10.6,10.7c-0.8-0.2-1.5-0.5-2.3-0.7
	c-0.3-0.1-0.5-0.1-0.8-0.2c-0.3-1.2-1.2-2.3-2.4-2.8l-6.6-2.7c-2.1-0.8-4.4,0.2-5.3,2.2c-0.8,2.1,0.2,4.4,2.2,5.3l6.6,2.7
	c1.2,0.5,2.5,0.4,3.6-0.3c0.2,0.1,0.5,0.3,0.7,0.4c0.7,0.4,1.4,0.8,2.2,1.1c-1.4,5-1.4,10.2,0.1,15.1l-3.1,1.3
	c-1.1-0.6-2.3-0.6-3.5-0.2l-6.6,2.8c-1,0.4-1.8,1.2-2.2,2.2c-0.4,1-0.4,2.1,0,3.1c0.4,1,1.2,1.8,2.2,2.2c1,0.4,2.1,0.4,3.1,0
	l6.6-2.8c1-0.4,1.7-1.2,2.2-2.2c0.1-0.1,0.1-0.3,0.1-0.4l3.1-1.3c2.5,4.5,6.1,8.2,10.7,10.6c-0.2,0.8-0.5,1.5-0.7,2.3
	c-0.1,0.3-0.1,0.5-0.2,0.8c-1.2,0.3-2.3,1.2-2.8,2.4l-2.7,6.6c-0.8,2.1,0.2,4.4,2.2,5.3c2.1,0.8,4.4-0.2,5.3-2.2l2.7-6.6
	c0.5-1.2,0.4-2.5-0.3-3.6c0.1-0.2,0.3-0.5,0.4-0.7c0.4-0.7,0.8-1.4,1.1-2.2c5,1.4,10.2,1.4,15.1-0.1l1.3,3.1
	c-0.1,0.1-0.1,0.3-0.2,0.4c-0.4,1-0.4,2.1,0,3.1l2.8,6.6c0.4,1,1.2,1.8,2.2,2.2c1,0.4,2.1,0.4,3.1,0c1-0.4,1.8-1.2,2.2-2.2
	c0.4-1,0.4-2.1,0-3.1l-2.8-6.6c-0.5-1.1-1.4-2-2.6-2.3l-1.3-3.1c4.5-2.5,8.2-6.1,10.6-10.7c0.8,0.2,1.5,0.5,2.3,0.7
	c0.3,0.1,0.5,0.1,0.8,0.2c0.3,1.2,1.2,2.3,2.4,2.8l6.6,2.7c2.1,0.8,4.4-0.2,5.3-2.2C91.4,64.4,90.4,62.1,88.3,61.2z M56.6,40.4
	c0.5-1.2,1.1-2.4,1.7-3.6c0.8-1.5,1.6-3.1,2.2-4.7c0.1-0.2,0.2-0.4,0.3-0.6c3.3,1.9,6,4.6,7.8,7.9l-12.7,5.4
	c-0.3-0.3-0.6-0.6-0.9-0.9c0.3-0.7,0.7-1.4,1-2.1L56.6,40.4z M55.2,29.3c-0.1,0.2-0.2,0.4-0.3,0.6c-0.6,1.6-1.2,3.3-1.7,4.9
	c-0.4,1.2-0.8,2.5-1.3,3.7L51.5,40c-0.3,0.7-0.5,1.5-0.8,2.2c-0.4,0-0.8,0-1.2,0l-5.4-12.7C47.7,28.4,51.6,28.3,55.2,29.3z
	 M39.4,31.4l5.4,12.7c-0.3,0.3-0.6,0.6-0.9,0.9c-0.7-0.3-1.4-0.7-2.1-1l-1.4-0.6c-1.2-0.5-2.4-1.1-3.5-1.7c-1.5-0.8-3.2-1.6-4.7-2.2
	c-0.2-0.1-0.4-0.2-0.6-0.2C33.4,36,36.1,33.3,39.4,31.4z M29.3,44.8c0.2,0.1,0.4,0.2,0.6,0.3c1.6,0.6,3.3,1.2,4.9,1.7
	c1.2,0.4,2.5,0.8,3.7,1.3l1.4,0.5c0.7,0.3,1.5,0.5,2.2,0.8c0,0.4,0,0.8,0,1.2l-12.7,5.4C28.4,52.3,28.3,48.4,29.3,44.8z M43.4,59.6
	c-0.5,1.2-1.1,2.4-1.7,3.5c-0.8,1.5-1.5,3.1-2.2,4.7c-0.1,0.2-0.2,0.4-0.2,0.6c-3.3-1.9-6-4.6-7.8-7.9l12.7-5.4
	c0.3,0.3,0.6,0.6,0.9,0.9c-0.3,0.7-0.7,1.4-1,2.1L43.4,59.6z M44.8,70.7c0.1-0.2,0.2-0.4,0.3-0.6c0.6-1.6,1.2-3.3,1.7-4.9
	c0.4-1.2,0.8-2.5,1.3-3.7l0.5-1.4c0.3-0.7,0.5-1.5,0.8-2.2c0.4,0,0.8,0,1.2,0l5.4,12.7C52.3,71.6,48.4,71.7,44.8,70.7z M60.6,68.6
	l-5.4-12.7c0.3-0.3,0.6-0.6,0.9-0.9c0.7,0.3,1.4,0.7,2.1,1l1.4,0.6c1.2,0.5,2.4,1.1,3.6,1.7c1.6,0.8,3.2,1.6,4.7,2.2
	c0.2,0.1,0.4,0.2,0.6,0.2C66.6,64,63.9,66.7,60.6,68.6z M70.7,55.2c-0.2-0.1-0.4-0.2-0.6-0.3c-1.6-0.6-3.3-1.2-4.9-1.7
	c-1.2-0.4-2.5-0.8-3.7-1.3L60,51.5c-0.7-0.3-1.5-0.5-2.2-0.8c0-0.4,0-0.8,0-1.2l12.7-5.4C71.6,47.7,71.7,51.6,70.7,55.2z"/>
</svg>
