<?xml version="1.0" encoding="utf-8"?>
<!-- Generator: Adobe Illustrator 19.2.1, SVG Export Plug-In . SVG Version: 6.00 Build 0)  -->
<svg version="1.1" id="Layer_1" xmlns="http://www.w3.org/2000/svg" xmlns:xlink="http://www.w3.org/1999/xlink" x="0px" y="0px"
	 viewBox="0 0 100 125" style="enable-background:new 0 0 100 125;" xml:space="preserve">
<g>
	<g>
		<path d="M67.6,39.6c5.1-2.9,4.3-8.1,4.2-12.9c-0.2-8.3-6.9-19.8-22.1-20C34.4,6.6,17.1,15.6,16.9,31c-0.1,7.3,6.2,10,12.8,10.8
			c1.1,0.1,1.8,1.1,1.8,2.1c-0.6,9.4-4.5,18.8-2.8,28.2c0.2,1.2,1.1,2.1,2.2,2.4c2.1,0.4,3.1-2,3.4-3.9c1.7-8.7,2.6-17.7,2.5-26.6
			c0-1.1,0.8-2,1.9-2c1-0.1,2-0.1,2.8-0.2l0,0c1.2-0.1,2.2,0.8,2.2,2c0.1,12-0.7,25.7-2.4,37.1c-0.3,1.7-0.5,3.5,0.4,5
			c0.4,0.7,1.2,1.3,2.1,1.4c1.6,0.1,2.6-1.3,3.2-2.7c0.7-1.6,1.3-3.2,1.7-4.9c0.1-0.5,0.9-0.4,0.9,0.1c0,4.2,0.1,7.3,0.1,8.1
			c0.1,0.8,0.1,1.7,0.5,2.4s1.1,1.4,2,1.3c1.3-0.1,1.9-1.7,2.2-3c3.4-15.2,4.7-30.7,4.1-46.3c0-0.4,0.3-0.8,0.7-0.8l0,0
			c0.5,0,0.9,0.3,0.9,0.8c0.5,12.5,1,25,1.5,37.5c0,1.2,0.1,2.5,0.6,3.6s1.6,2.1,2.8,2c1.1,0,2-0.8,2.6-1.7c0.5-0.9,0.7-2,0.9-3.1
			c2.2-13.7,2-27.7-0.7-41.3L67.6,39.6z M52.8,10.5c0.2-0.7,1.1-1.2,1.8-1.2s1.5,0.4,2.2,0.8c1.5,0.9,2.8,1.9,4,3.2
			c0.5,0.5,0.9,1.1,0.8,1.8c-0.1,0.8-1.1,1.3-1.9,1.2s-1.6-0.6-2.2-1c-1-0.7-2-1.3-3-2c-0.5-0.3-1-0.7-1.3-1.1
			C52.8,11.7,52.6,11.1,52.8,10.5z M28.6,38.3c-0.5,0.1-1,0.2-1.5,0.2c-1.4,0-2.7-0.5-3.8-1.4c-1.4-1.2-2.2-2.9-2.4-4.9
			c-0.2-1.6,0.2-3.3,0.9-4.7c1-1.9,2.6-3.3,4-4.6c0.2-0.2,0.5-0.2,0.7,0s0.2,0.5,0,0.7c-1.4,1.3-2.9,2.6-3.8,4.3
			c-0.7,1.3-0.9,2.7-0.8,4.2c0.2,1.7,0.9,3.2,2.1,4.2s2.9,1.5,4.4,1c0.3-0.1,0.5,0.1,0.6,0.3C29,37.9,28.9,38.2,28.6,38.3z
			 M39.4,32.5c0-1.3,1.1-2.4,2.4-2.4c1.3,0,2.4,1.1,2.4,2.4c0,1.3-1.1,2.4-2.4,2.4C40.5,34.9,39.4,33.9,39.4,32.5z M52.5,31.8
			c0-0.9,0.7-1.6,1.6-1.6s1.6,0.7,1.6,1.6s-0.7,1.6-1.6,1.6S52.5,32.8,52.5,31.8z"/>
	</g>
</g>
</svg>
