<?xml version="1.0" encoding="utf-8"?>
<!-- Generator: Adobe Illustrator 19.2.1, SVG Export Plug-In . SVG Version: 6.00 Build 0)  -->
<svg version="1.1" id="Layer_1" xmlns="http://www.w3.org/2000/svg" xmlns:xlink="http://www.w3.org/1999/xlink" x="0px" y="0px"
	 viewBox="0 0 100 125" style="enable-background:new 0 0 100 125;" xml:space="preserve">
<g>
	<path d="M90.5,28.6c0,0,0,8.2-9.6,8.2c-5.1,0-8.3,3.9-10.1,7.5c-2.1-1.4-4.9-2.9-8.4-4L64,29.7c-4.2,4.4-12,1.2-17.4,2
		c-7.7,1.2-11.7,5.4-13.2,7.6c-1.8,0.4-3.4,0.9-4.9,1.5c0,0,0,0,0,0l0,0c-7.1,2.6-11.6,6.3-14,8.8c-1.8-1.3-4.2-2.5-5.8-1.4
		c-3.1,2,0.5,4.8,0.5,4.8s-4,2.2-0.5,4.9c2.6,2,5.1-0.3,6.8-2.6c3,2.3,8,5.7,14.7,8c0.1,0.1,0.3,0.1,0.5,0.2
		c0.4,0.1,0.8,0.3,1.3,0.4c0.2,0.1,0.4,0.1,0.6,0.2c0.4,0.1,0.9,0.2,1.3,0.4c0.2,0,0.4,0.1,0.5,0.1c0.6,0.2,1.2,0.3,1.9,0.4
		c0,0,0,0,0,0c0.6,0.1,1.2,0.2,1.9,0.4c0.2,0,0.4,0.1,0.6,0.1c0.5,0.1,0.9,0.1,1.4,0.2c0.1,0,0.2,0,0.3,0c1.3,1.2,3.2,2.4,5.8,3.1
		c3.7,1,9.2-0.7,11.7,2.6l-0.2-6.7c7-1.8,11.7-5.1,14.7-8c2,2.3,4.8,4.5,9.3,6.9c2.5,1.3,6.2,7.7,6.2,7.7c6.7-8.7-1.5-20.9-1.5-20.9
		C97.8,42.2,90.5,28.6,90.5,28.6z"/>
</g>
</svg>
