<?xml version="1.0" encoding="utf-8"?>
<!-- Generator: Adobe Illustrator 19.2.1, SVG Export Plug-In . SVG Version: 6.00 Build 0)  -->
<svg version="1.1" id="Layer_1" xmlns="http://www.w3.org/2000/svg" xmlns:xlink="http://www.w3.org/1999/xlink" x="0px" y="0px"
	 viewBox="0 0 100 125" style="enable-background:new 0 0 100 125;" xml:space="preserve">
<path d="M5.6,18c0,0,4.5,10.6,7,16.2c0.8,1.9,1.4,3.2,1.6,3.4c0.5,0.8,1.7,1.3,3.8,0s2.5-2.9,2-3.9c-0.2-0.3-1.1-1.4-2.4-2.9
	C13.5,26.2,5.6,18,5.6,18z"/>
<path d="M72.6,48.5c4.5,7.3,8.3,16.3,13.4,19.8c3.2,2.2,11.8,2.4,8.1,5.7c-1,0.9-8.1,1.7-8.1,1.7s-1.3,8.6-3.1,5.8
	c-2.8-4.2-9.9-13.4-16.6-13.7c-6.4-0.2-19.7,3.3-27.5,3.3c-9.3,0-17.5-2.4-23.6-6.5c0,0-5.2,2.3-8,0.6c-1.1-0.7,3-4.8,3-4.8
	C6.8,56.9,5,52.9,5,48.5c0-12.5,15.1-22.7,33.8-22.7S66.1,37.8,72.6,48.5z M9,45.3c-0.7,0-1.2,0.5-1.2,1.2s0.5,1.2,1.2,1.2
	s1.2-0.5,1.2-1.2S9.6,45.3,9,45.3z M27.2,45.3c-0.7,0-1.2,0.5-1.2,1.2s0.5,1.2,1.2,1.2s1.2-0.5,1.2-1.2S27.9,45.3,27.2,45.3z
	 M18.2,37.9c2.3-1.4,2.7-3.2,2.1-4.4c-0.1-0.2-0.4-0.6-2.4-2.9L17.2,31c1.9,2.1,2.4,2.7,2.5,2.9c0.4,0.8,0,2.3-1.9,3.4
	c-1.6,0.9-2.7,1-3.3,0.1c-0.1-0.1-0.4-0.8-1.6-3.5l-0.6,0.5c1.2,2.8,1.5,3.2,1.6,3.4c0.2,0.4,0.8,0.9,1.9,0.9
	C16.4,38.7,17.2,38.5,18.2,37.9z M22.7,53.5c0-0.3-0.2-0.5-0.5-0.5s-0.5,0.2-0.5,0.5c0,1.2-1.5,2.2-3.2,2.2s-3.2-1-3.2-2.2
	c0-0.3-0.2-0.5-0.5-0.5s-0.5,0.2-0.5,0.5c0,1.8,1.9,3.3,4.3,3.3C20.8,56.8,22.7,55.3,22.7,53.5z M39.5,60.8c0.3-0.1,0.4-0.5,0.3-0.7
	s-0.5-0.4-0.7-0.3c0,0-3.1,1.4-6.6,1.1c-0.2,0-0.7-0.1-0.7-0.3c-0.2-0.7,1.3-2.6,2.9-4c0.2-0.2,0.2-0.5,0-0.8
	c-0.2-0.2-0.5-0.2-0.8,0c-0.9,0.8-3.7,3.5-3.2,5.2c0.1,0.4,0.5,0.9,1.7,1.1c0.4,0,0.8,0.1,1.2,0.1C36.8,62,39.4,60.8,39.5,60.8z"/>
<polygon points="12.5,25 8.7,25 8.6,25 12.1,25 "/>
</svg>
