<?xml version="1.0" encoding="utf-8"?>
<!-- Generator: Adobe Illustrator 19.2.1, SVG Export Plug-In . SVG Version: 6.00 Build 0)  -->
<svg version="1.1" baseProfile="basic" id="Layer_1"
	 xmlns="http://www.w3.org/2000/svg" xmlns:xlink="http://www.w3.org/1999/xlink" x="0px" y="0px" viewBox="0 0 100 125"
	 xml:space="preserve">
<style type="text/css">
	.st0{fill:#FFFFFF;}
</style>
<path d="M11.7,20.5L11.7,20.5l-0.1-0.2l-0.1-0.2c0-0.1-0.1-0.2-0.1-0.3c-0.2-0.4-0.3-0.9-0.4-1.3c-0.2-0.9-0.3-1.8-0.1-2.7
	c0.2-0.9,0.6-1.7,1.2-2.3c0.6-0.6,1.4-1.1,2.3-1.3c0.4-0.1,0.8-0.2,1.2-0.2c0.1,0,0.2,0,0.3,0c0,0,0.1,0,0.2,0h0.1l0.1,0
	c0.2,0,0.4,0.1,0.6,0.2c0.2,0.1,0.3,0.2,0.4,0.3c0.1,0.1,0.2,0.2,0.3,0.4l0,0.1l0,0l0,0l0,0v0l0,0.1l0,0c0,0.1,0.1,0.2,0.1,0.2
	c0,0.2,0,0.3,0,0.5c0,0.3-0.2,0.6-0.3,0.9c-0.1,0.1-0.2,0.2-0.3,0.3c-0.1,0.1-0.2,0.2-0.4,0.2c-0.3,0.1-0.5,0.1-0.7,0
	c-0.1,0-0.1,0-0.2,0l0,0l0,0l0,0h0l0,0c0,0,0,0-0.1,0c-0.1,0-0.2-0.1-0.2-0.2c-0.2-0.2-0.2-0.3-0.3-0.5C15,14.3,15,14.1,15,14
	c0,0,0-0.1,0-0.2s0-0.1,0-0.1c0,0,0-0.1,0-0.1l0,0c0-0.1,0-0.1-0.1-0.2c-0.1,0-0.2,0-0.2,0.1c0,0,0,0,0,0.1c0,0,0,0.1,0,0.1
	s0,0.1,0,0.2c0,0.2,0,0.3,0,0.5c0,0.2,0.2,0.4,0.3,0.6c0.1,0.1,0.2,0.2,0.3,0.3c0,0,0.1,0,0.1,0.1l0,0h0l0,0l0,0l0,0
	c0.1,0,0.2,0.1,0.2,0.1c0.3,0.1,0.6,0.1,1,0c0.2,0,0.4-0.1,0.5-0.2c0.2-0.1,0.3-0.2,0.5-0.4c0.3-0.3,0.5-0.7,0.6-1.1
	c0-0.2,0.1-0.5,0-0.7c0-0.1,0-0.2-0.1-0.4l0-0.1l0-0.1v0l0,0l0-0.1c-0.1-0.2-0.2-0.5-0.4-0.6c-0.2-0.2-0.4-0.4-0.6-0.5
	s-0.5-0.2-0.7-0.3l-0.1,0c0,0-0.1,0-0.1,0c-0.1,0-0.2,0-0.2,0c-0.2,0-0.3-0.1-0.4-0.1c-0.5-0.1-1.1,0-1.6,0.1
	c-1.1,0.2-2.1,0.7-3,1.5s-1.5,1.8-1.9,3S8.8,17.7,9,18.8c0.1,0.6,0.2,1.1,0.4,1.6c0,0.1,0.1,0.3,0.1,0.4L9.6,21l0.1,0.2
	c0.1,0.3,0.2,0.5,0.3,0.8c0.4,1,0.8,1.9,1.2,2.7c0.1,0.1,0.2,0.2,0.2,0.3c1.1,1.8,2.2,2,1.6,2.7c-0.3,0.3-0.9,0.5-1.5,0.4h0
	c0,0-0.1,0-0.1,0c-0.1,0-0.1,0-0.2,0c0,0-0.1,0-0.1,0h0c-0.3-0.1-0.6-0.2-0.8-0.3L10,27.6c-0.5-0.2-0.9-0.6-1.2-1.1
	c-0.3-0.5-0.6-1.1-0.9-1.7c-0.3-0.6-0.6-1.3-1-2C6.7,22.5,6.4,22.2,6,22c-0.2-0.1-0.4-0.2-0.6-0.3c-0.2,0-0.4-0.1-0.6-0.1
	c-0.2,0-0.4,0-0.6,0.1l-0.2,0l-0.1,0c-0.1,0-0.2,0.1-0.3,0.1c-0.3,0.2-0.7,0.4-0.9,0.7c-0.2,0.3-0.3,0.6-0.3,1
	c0,0.3,0.1,0.6,0.2,0.9s0.3,0.5,0.5,0.6c0.2,0.1,0.5,0.2,0.6,0.2c0.2,0,0.3-0.1,0.5-0.1c0.1-0.1,0.2-0.1,0.3-0.2
	c0.1,0,0.1-0.1,0.2-0.1c0,0,0,0,0,0c0,0,0.1-0.1,0-0.2c0-0.1-0.1-0.1-0.2,0l0,0c0,0,0,0,0,0c0-0.1-0.1-0.1-0.2-0.1
	c-0.2,0.1-0.4,0.2-0.6,0.1c-0.2,0-0.5-0.2-0.5-0.5c0-0.2,0-0.3,0-0.5c0-0.2,0.1-0.3,0.3-0.4C3.6,23,3.8,23,4,22.9c0,0,0.1,0,0.2,0
	h0.1l0,0c0,0,0,0,0,0l0,0h0h0c0.1,0,0.2,0,0.3,0c0.2,0,0.4,0.1,0.5,0.2s0.3,0.3,0.4,0.5c0.1,0.2,0.2,0.5,0.3,0.8
	c0.1,0.3,0.2,0.6,0.3,1c0.2,0.7,0.5,1.4,0.9,2.1c0.4,0.7,0.9,1.4,1.6,2l0.3,0.2C9.1,29.9,9.1,30,9.2,30c0.2,0.1,0.4,0.2,0.6,0.3
	c0.4,0.2,0.9,0.3,1.3,0.4c0.3,0,0.5,0,0.8,0l0,0c0,0,1,0,1.4,0.5c0.1,0.2,0.3,0.3,0.2,0.7c-0.1,0.5-0.3,0.7-1,0.6l0,0
	c-0.5,0-1.1-0.1-1.7,0c-0.6,0-1.1,0.2-1.5,0.4c-0.2,0.1-0.5,0.2-0.7,0.4c-0.1,0.1-0.2,0.2-0.3,0.3c-0.1,0.1-0.2,0.2-0.2,0.3
	C8,34.1,8,34.4,8,34.7c0,0.3,0.1,0.5,0.3,0.6c0.2,0.2,0.3,0.3,0.5,0.3c0.2,0.1,0.3,0.1,0.5,0c0.3-0.1,0.5-0.2,0.6-0.3
	c0,0,0.1-0.1,0.1-0.1c0,0,0,0,0,0c0,0,0-0.1,0-0.2c0-0.1-0.1-0.1-0.2,0l0,0c0,0,0,0,0,0c0,0-0.1,0-0.1,0.1c-0.1,0-0.3,0.1-0.4,0.1
	c-0.1,0-0.2,0-0.3-0.1c-0.1,0-0.2-0.1-0.2-0.2c-0.1-0.2-0.1-0.5,0.1-0.6c0.1-0.1,0.2-0.2,0.3-0.2C9.3,34.1,9.5,34,9.7,34
	c0.4-0.1,0.8-0.1,1.2,0c0.5,0,0.9,0.2,1.4,0.3c0.2,0.1,0.5,0.1,0.8,0.2c0,0,0.1,0,0.1,0c1.5,0.4,3.3,2,2,3.8c0,0-0.1,0.1-0.2,0.2
	c-0.3,0.3-0.7,0.5-1.1,0.7c-0.1,0-0.2,0.1-0.3,0.1c-0.1,0-0.1,0-0.2,0l-0.2,0c-0.2,0-0.4,0-0.6,0c-0.4-0.1-0.8-0.3-0.9-0.6
	c-0.1-0.1-0.2-0.3-0.2-0.4v0c0,0,0,0,0-0.1s0-0.1,0-0.1c0-0.1,0.1-0.2,0.1-0.2c0.2-0.3,0.4-0.4,0.6-0.4c0.2,0,0.3,0,0.5,0.1
	c0,0,0.1,0.1,0.1,0.1c0,0,0,0,0,0l0,0c0,0,0.1,0,0.2,0c0,0,0.1-0.1,0-0.2c0,0,0,0,0,0c0,0-0.1-0.1-0.1-0.1c-0.1,0-0.2-0.1-0.2-0.2
	c-0.1,0-0.3-0.1-0.4-0.1c-0.3,0-0.7,0.2-0.9,0.5c-0.1,0.1-0.2,0.2-0.2,0.3c0,0,0,0.1-0.1,0.2c0,0,0,0,0,0.1l0,0.1
	c-0.1,0.3,0,0.5,0.1,0.8c0.1,0.3,0.3,0.5,0.5,0.7c0.2,0.2,0.5,0.4,0.7,0.5s0.6,0.2,0.9,0.3c0.1,0,0.1,0,0.2,0c0.1,0,0.2,0,0.2,0
	c0.2,0,0.3,0,0.5,0c0.3,0,0.6-0.1,1-0.2c0.3-0.1,0.6-0.3,0.9-0.5c0.6-0.4,1.1-0.9,1.4-1.5c0.2-0.3,0.4-0.5,0.5-0.8
	c0.1-0.2,0.2-0.3,0.3-0.5c0.4-0.6,1.2-1.1,2-1.2c0.9,0,1.8,0.6,2.3,1.2c0.1,0.2,0.2,0.3,0.3,0.5c0.2,0.3,0.3,0.5,0.5,0.8
	c0.4,0.5,0.9,1.1,1.5,1.5c0.3,0.2,0.6,0.3,0.9,0.5c0.3,0.1,0.6,0.2,1,0.2c0.2,0,0.3,0,0.5,0c0.1,0,0.2,0,0.2,0c0.1,0,0.1,0,0.2,0
	c0.3,0,0.6-0.1,0.9-0.3c0.3-0.1,0.5-0.3,0.7-0.5s0.4-0.5,0.5-0.7c0.1-0.3,0.1-0.6,0.1-0.8L29.8,38c0,0,0-0.1-0.1-0.1
	c0-0.1-0.1-0.1-0.1-0.2c-0.1-0.1-0.2-0.2-0.2-0.2c-0.3-0.3-0.6-0.5-0.9-0.5c-0.2,0-0.3,0-0.4,0.1c-0.1,0-0.2,0.1-0.2,0.2
	c-0.1,0-0.1,0.1-0.1,0.1c0,0,0,0,0,0c0,0,0,0.1,0,0.2c0,0,0.2,0,0.2,0l0,0c0,0,0,0,0,0c0,0,0,0,0.1-0.1c0.1-0.1,0.3-0.2,0.5-0.1
	s0.5,0.2,0.6,0.4c0,0.1,0.1,0.1,0.1,0.2c0,0,0,0.1,0,0.1c0,0,0,0,0,0.1v0c0,0.2,0,0.3-0.2,0.4c-0.2,0.3-0.6,0.5-0.9,0.6
	c-0.2,0-0.4,0-0.6,0c0,0-0.1,0-0.2,0c-0.1,0-0.1,0-0.2,0c-0.1,0-0.2-0.1-0.3-0.1c-0.5-0.2-0.8-0.4-1.1-0.7c0,0-0.1-0.1-0.2-0.2
	c-1.3-1.8,0.5-3.4,2-3.8c0,0,0.1,0,0.1,0c0.3-0.1,0.5-0.2,0.8-0.2c0.5-0.1,0.9-0.2,1.4-0.3c0.4,0,0.9,0,1.2,0c0.2,0,0.4,0.1,0.5,0.2
	c0.1,0.1,0.3,0.2,0.3,0.2c0.2,0.2,0.2,0.5,0.1,0.6c0,0.1-0.1,0.2-0.2,0.2c-0.1,0-0.2,0.1-0.3,0.1c-0.2,0-0.3,0-0.4-0.1
	c0,0-0.1,0-0.1-0.1c0,0,0,0,0,0l0,0c0,0-0.1,0-0.2,0c0,0,0,0.2,0,0.2c0,0,0,0,0,0c0,0,0.1,0.1,0.1,0.1c0.1,0.1,0.3,0.2,0.6,0.3
	c0.2,0,0.3,0,0.5,0c0.2-0.1,0.3-0.2,0.5-0.3c0.2-0.2,0.2-0.4,0.3-0.6c0-0.3,0-0.5-0.2-0.8c-0.1-0.1-0.2-0.2-0.2-0.3
	c-0.1-0.1-0.2-0.2-0.3-0.3c-0.2-0.2-0.5-0.3-0.7-0.4c-0.5-0.2-1-0.3-1.6-0.4c-0.6,0-1.1,0-1.7,0c-0.6,0-0.9-0.2-1-0.6
	c-0.1-0.4,0.1-0.5,0.2-0.7c0.4-0.5,1.4-0.5,1.4-0.5l0,0c0.2,0,0.5,0,0.8,0c0.4-0.1,0.9-0.2,1.3-0.4c0.2-0.1,0.4-0.2,0.6-0.3
	c0.1-0.1,0.2-0.1,0.3-0.2l0.3-0.2c0.7-0.6,1.2-1.3,1.6-2c0.4-0.7,0.6-1.5,0.9-2.1c0.1-0.3,0.2-0.6,0.3-1c0.1-0.3,0.2-0.6,0.3-0.8
	s0.2-0.4,0.4-0.6c0.2-0.1,0.3-0.2,0.5-0.2c0.1,0,0.2,0,0.3,0h0h0l0,0l0,0l0,0h0.1c0,0,0.1,0,0.2,0c0.2,0,0.4,0.1,0.5,0.2
	c0.1,0.1,0.2,0.3,0.3,0.4c0,0.2,0,0.3,0,0.5c-0.1,0.3-0.3,0.5-0.5,0.5c-0.2,0-0.5,0-0.6-0.1c-0.1,0-0.1-0.1-0.2-0.1c0,0,0,0,0,0l0,0
	c0,0-0.1,0-0.2,0c0,0,0,0.2,0,0.2c0,0,0,0,0,0c0,0,0.1,0.1,0.2,0.1s0.2,0.1,0.3,0.2c0.1,0,0.3,0.1,0.5,0.1c0.2,0,0.4,0,0.6-0.2
	c0.2-0.1,0.4-0.3,0.5-0.6c0.1-0.3,0.2-0.5,0.2-0.9c-0.1-0.2-0.2-0.6-0.4-0.9c-0.2-0.3-0.5-0.5-0.9-0.7c-0.1,0-0.2-0.1-0.3-0.1
	l-0.1,0l-0.2,0c-0.2,0-0.4-0.1-0.6-0.1c-0.2,0-0.4,0-0.6,0.1c-0.2,0-0.4,0.2-0.6,0.3c-0.4,0.2-0.7,0.6-0.9,0.9c-0.5,0.7-0.7,1.3-1,2
	c-0.3,0.6-0.6,1.2-0.9,1.7c-0.3,0.5-0.8,0.8-1.2,1.1c-1.1,0.4-2,0.8-2.5,0.1c-0.4-0.5,0-0.9,0.4-1.4c0.1-0.1,0.2-0.2,0.3-0.3
	c0.2-0.3,0.5-0.6,0.6-0.9c0.2-0.3,0.4-0.7,0.6-1c0.2-0.3,0.3-0.7,0.5-1.1c0.3-0.7,0.4-1.5,0.5-2.2c0-0.8,0-1.5-0.2-2.2
	c0-0.2-0.1-0.3-0.2-0.5c0-0.1,0-0.2-0.1-0.2c0-0.1-0.1-0.2-0.1-0.2c-0.2-0.3-0.3-0.6-0.6-0.9c-0.4-0.5-0.9-0.9-1.5-1.1
	c-0.3-0.1-0.6-0.2-0.8-0.2c-0.3,0-0.5,0-0.8,0.1c-0.2,0.1-0.5,0.2-0.6,0.3c-0.2,0.2-0.3,0.3-0.3,0.5c-0.1,0.3-0.1,0.7,0.1,0.8
	c0.1,0.1,0.2,0.1,0.2,0.1c0.1,0,0.1,0,0.1,0c0.1,0,0.1,0,0.2-0.1c0-0.1,0-0.2-0.1-0.2c0,0-0.1,0-0.1-0.1c0,0,0-0.1,0-0.2
	s0-0.2,0.1-0.3c0.1-0.2,0.3-0.4,0.7-0.4c0.2,0,0.3,0,0.6,0c0.2,0,0.4,0.1,0.6,0.2c0.4,0.2,0.7,0.6,1,1c0.1,0.2,0.2,0.5,0.3,0.7
	c0,0.1,0,0.1,0,0.2c0,0,0,0.2,0,0.2c0,0.2,0,0.3,0.1,0.4c0,0.6,0,1.1-0.1,1.7c-0.2,0.6-0.3,1.1-0.6,1.7c-0.2,0.3-0.3,0.5-0.5,0.8
	c-0.2,0.2-0.4,0.5-0.6,0.7c-0.2,0.2-0.4,0.4-0.6,0.6c-0.2,0.2-0.5,0.4-0.6,0.6c-0.1,0.1-0.2,0.2-0.3,0.3c-0.9,0.8-1.5,1.1-1.9,1.2
	c0.4-1.1,0.6-2.3,0.6-3.3c0-3.2-2-4.1-4.4-4.5C18,18.7,16,19.6,16,22.8c0,1.1,0.2,2.2,0.6,3.3c-0.6-0.3-1.5-0.9-2.4-2.1
	c-0.2-0.3-0.5-0.7-0.8-1c-0.1-0.2-0.3-0.3-0.4-0.5c-0.2-0.2-0.3-0.3-0.4-0.5"/>
<circle class="st0" cx="20.3" cy="19.2" r="0.4"/>
</svg>
