  0
SECTION
  2
HEADER
  9
$ACADVER
  1
AC1024
  9
$ACADMAINTVER
 70
     6
  9
$DWGCODEPAGE
  3
UNDEFINED
  9
$INSBASE
 10
0.0
 20
0.0
 30
0.0
  9
$EXTMIN
 10
1.000000000000000E+20
 20
1.000000000000000E+20
 30
1.000000000000000E+20
  9
$EXTMAX
 10
-1.000000000000000E+20
 20
-1.000000000000000E+20
 30
-1.000000000000000E+20
  9
$LIMMIN
 10
0.0
 20
0.0
  9
$LIMMAX
 10
12.0
 20
9.0
  9
$ORTHOMODE
 70
     0
  9
$REGENMODE
 70
     1
  9
$FILLMODE
 70
     1
  9
$QTEXTMODE
 70
     0
  9
$MIRRTEXT
 70
     1
  9
$LTSCALE
 40
1.0
  9
$ATTMODE
 70
     1
  9
$TEXTSIZE
 40
0.2
  9
$TRACEWID
 40
0.05
  9
$TEXTSTYLE
  7
Standard
  9
$CLAYER
  8
0
  9
$CELTYPE
  6
ByLayer
  9
$CECOLOR
 62
   256
  9
$CELTSCALE
 40
1.0
  9
$DISPSILH
 70
     0
  9
$DIMSCALE
 40
1.0
  9
$DIMASZ
 40
0.18
  9
$DIMEXO
 40
0.0625
  9
$DIMDLI
 40
0.38
  9
$DIMRND
 40
0.0
  9
$DIMDLE
 40
0.0
  9
$DIMEXE
 40
0.18
  9
$DIMTP
 40
0.0
  9
$DIMTM
 40
0.0
  9
$DIMTXT
 40
0.18
  9
$DIMCEN
 40
0.09
  9
$DIMTSZ
 40
0.0
  9
$DIMTOL
 70
     0
  9
$DIMLIM
 70
     0
  9
$DIMTIH
 70
     1
  9
$DIMTOH
 70
     1
  9
$DIMSE1
 70
     0
  9
$DIMSE2
 70
     0
  9
$DIMTAD
 70
     0
  9
$DIMZIN
 70
     0
  9
$DIMBLK
  1

  9
$DIMASO
 70
     1
  9
$DIMSHO
 70
     1
  9
$DIMPOST
  1

  9
$DIMAPOST
  1

  9
$DIMALT
 70
     0
  9
$DIMALTD
 70
     2
  9
$DIMALTF
 40
25.4
  9
$DIMLFAC
 40
1.0
  9
$DIMTOFL
 70
     0
  9
$DIMTVP
 40
0.0
  9
$DIMTIX
 70
     0
  9
$DIMSOXD
 70
     0
  9
$DIMSAH
 70
     0
  9
$DIMBLK1
  1

  9
$DIMBLK2
  1

  9
$DIMSTYLE
  2
Standard
  9
$DIMCLRD
 70
     0
  9
$DIMCLRE
 70
     0
  9
$DIMCLRT
 70
     0
  9
$DIMTFAC
 40
1.0
  9
$DIMGAP
 40
0.09
  9
$DIMJUST
 70
     0
  9
$DIMSD1
 70
     0
  9
$DIMSD2
 70
     0
  9
$DIMTOLJ
 70
     1
  9
$DIMTZIN
 70
     0
  9
$DIMALTZ
 70
     0
  9
$DIMALTTZ
 70
     0
  9
$DIMUPT
 70
     0
  9
$DIMDEC
 70
     4
  9
$DIMTDEC
 70
     4
  9
$DIMALTU
 70
     2
  9
$DIMALTTD
 70
     2
  9
$DIMTXSTY
  7
Standard
  9
$DIMAUNIT
 70
     0
  9
$DIMADEC
 70
     0
  9
$DIMALTRND
 40
0.0
  9
$DIMAZIN
 70
     0
  9
$DIMDSEP
 70
    46
  9
$DIMATFIT
 70
     3
  9
$DIMFRAC
 70
     0
  9
$DIMLDRBLK
  1

  9
$DIMLUNIT
 70
     2
  9
$DIMLWD
 70
    -2
  9
$DIMLWE
 70
    -2
  9
$DIMTMOVE
 70
     0
  9
$DIMFXL
 40
1.0
  9
$DIMFXLON
 70
     0
  9
$DIMJOGANG
 40
0.7853981633974483
  9
$DIMTFILL
 70
     0
  9
$DIMTFILLCLR
 70
     0
  9
$DIMARCSYM
 70
     0
  9
$DIMLTYPE
  6

  9
$DIMLTEX1
  6

  9
$DIMLTEX2
  6

  9
$DIMTXTDIRECTION
 70
     0
  9
$LUNITS
 70
     2
  9
$LUPREC
 70
     4
  9
$SKETCHINC
 40
0.1
  9
$FILLETRAD
 40
0.5
  9
$AUNITS
 70
     0
  9
$AUPREC
 70
     0
  9
$MENU
  1
.
  9
$ELEVATION
 40
0.0
  9
$PELEVATION
 40
0.0
  9
$THICKNESS
 40
0.0
  9
$LIMCHECK
 70
     0
  9
$CHAMFERA
 40
0.5
  9
$CHAMFERB
 40
0.5
  9
$CHAMFERC
 40
1.0
  9
$CHAMFERD
 40
0.0
  9
$SKPOLY
 70
     0
  9
$TDCREATE
 40
2457532.716342593
  9
$TDUCREATE
 40
2457532.924675926
  9
$TDUPDATE
 40
2457532.716342593
  9
$TDUUPDATE
 40
2457532.924675926
  9
$TDINDWG
 40
0.0000000116
  9
$TDUSRTIMER
 40
0.0000000116
  9
$USRTIMER
 70
     1
  9
$ANGBASE
 50
0.0
  9
$ANGDIR
 70
     0
  9
$PDMODE
 70
     0
  9
$PDSIZE
 40
0.0
  9
$PLINEWID
 40
0.0
  9
$SPLFRAME
 70
     0
  9
$SPLINETYPE
 70
     6
  9
$SPLINESEGS
 70
     8
  9
$HANDSEED
  5
46
  9
$SURFTAB1
 70
     6
  9
$SURFTAB2
 70
     6
  9
$SURFTYPE
 70
     6
  9
$SURFU
 70
     6
  9
$SURFV
 70
     6
  9
$UCSBASE
  2

  9
$UCSNAME
  2

  9
$UCSORG
 10
0.0
 20
0.0
 30
0.0
  9
$UCSXDIR
 10
1.0
 20
0.0
 30
0.0
  9
$UCSYDIR
 10
0.0
 20
1.0
 30
0.0
  9
$UCSORTHOREF
  2

  9
$UCSORTHOVIEW
 70
     0
  9
$UCSORGTOP
 10
0.0
 20
0.0
 30
0.0
  9
$UCSORGBOTTOM
 10
0.0
 20
0.0
 30
0.0
  9
$UCSORGLEFT
 10
0.0
 20
0.0
 30
0.0
  9
$UCSORGRIGHT
 10
0.0
 20
0.0
 30
0.0
  9
$UCSORGFRONT
 10
0.0
 20
0.0
 30
0.0
  9
$UCSORGBACK
 10
0.0
 20
0.0
 30
0.0
  9
$PUCSBASE
  2

  9
$PUCSNAME
  2

  9
$PUCSORG
 10
0.0
 20
0.0
 30
0.0
  9
$PUCSXDIR
 10
1.0
 20
0.0
 30
0.0
  9
$PUCSYDIR
 10
0.0
 20
1.0
 30
0.0
  9
$PUCSORTHOREF
  2

  9
$PUCSORTHOVIEW
 70
     0
  9
$PUCSORGTOP
 10
0.0
 20
0.0
 30
0.0
  9
$PUCSORGBOTTOM
 10
0.0
 20
0.0
 30
0.0
  9
$PUCSORGLEFT
 10
0.0
 20
0.0
 30
0.0
  9
$PUCSORGRIGHT
 10
0.0
 20
0.0
 30
0.0
  9
$PUCSORGFRONT
 10
0.0
 20
0.0
 30
0.0
  9
$PUCSORGBACK
 10
0.0
 20
0.0
 30
0.0
  9
$USERI1
 70
     0
  9
$USERI2
 70
     0
  9
$USERI3
 70
     0
  9
$USERI4
 70
     0
  9
$USERI5
 70
     0
  9
$USERR1
 40
0.0
  9
$USERR2
 40
0.0
  9
$USERR3
 40
0.0
  9
$USERR4
 40
0.0
  9
$USERR5
 40
0.0
  9
$WORLDVIEW
 70
     1
  9
$SHADEDGE
 70
     3
  9
$SHADEDIF
 70
    70
  9
$TILEMODE
 70
     1
  9
$MAXACTVP
 70
    64
  9
$PINSBASE
 10
0.0
 20
0.0
 30
0.0
  9
$PLIMCHECK
 70
     0
  9
$PEXTMIN
 10
1.000000000000000E+20
 20
1.000000000000000E+20
 30
1.000000000000000E+20
  9
$PEXTMAX
 10
-1.000000000000000E+20
 20
-1.000000000000000E+20
 30
-1.000000000000000E+20
  9
$PLIMMIN
 10
0.0
 20
0.0
  9
$PLIMMAX
 10
12.0
 20
9.0
  9
$UNITMODE
 70
     0
  9
$VISRETAIN
 70
     1
  9
$PLINEGEN
 70
     0
  9
$PSLTSCALE
 70
     1
  9
$TREEDEPTH
 70
  3020
  9
$CMLSTYLE
  2
Standard
  9
$CMLJUST
 70
     0
  9
$CMLSCALE
 40
1.0
  9
$PROXYGRAPHICS
 70
     1
  9
$MEASUREMENT
 70
     0
  9
$CELWEIGHT
370
    -1
  9
$ENDCAPS
280
     0
  9
$JOINSTYLE
280
     0
  9
$LWDISPLAY
290
     1
  9
$INSUNITS
 70
     1
  9
$HYPERLINKBASE
  1

  9
$STYLESHEET
  1

  9
$XEDIT
290
     1
  9
$CEPSNTYPE
380
     0
  9
$PSTYLEMODE
290
     1
  9
$FINGERPRINTGUID
  2
{0B78FC63-0BAE-9C2B-9C92-7D13A0E15930}
  9
$VERSIONGUID
  2
{FAEB1C32-E019-11D5-929B-00C0DF256EC4}
  9
$EXTNAMES
290
     1
  9
$PSVPSCALE
 40
0.0
  9
$OLESTARTUP
290
     0
  9
$SORTENTS
280
   127
  9
$INDEXCTL
280
     0
  9
$HIDETEXT
280
     1
  9
$XCLIPFRAME
280
     2
  9
$HALOGAP
280
     0
  9
$OBSCOLOR
 70
   257
  9
$OBSLTYPE
280
     0
  9
$INTERSECTIONDISPLAY
280
     0
  9
$INTERSECTIONCOLOR
 70
   257
  9
$DIMASSOC
280
     2
  9
$PROJECTNAME
  1

  9
$CAMERADISPLAY
290
     0
  9
$LENSLENGTH
 40
50.0
  9
$CAMERAHEIGHT
 40
0.0
  9
$STEPSPERSEC
 40
2.0
  9
$STEPSIZE
 40
6.0
  9
$3DDWFPREC
 40
2.0
  9
$PSOLWIDTH
 40
0.25
  9
$PSOLHEIGHT
 40
4.0
  9
$LOFTANG1
 40
1.570796326794897
  9
$LOFTANG2
 40
1.570796326794897
  9
$LOFTMAG1
 40
0.0
  9
$LOFTMAG2
 40
0.0
  9
$LOFTPARAM
 70
     7
  9
$LOFTNORMALS
280
     1
  9
$LATITUDE
 40
37.795
  9
$LONGITUDE
 40
-122.394
  9
$NORTHDIRECTION
 40
0.0
  9
$TIMEZONE
 70
 -8000
  9
$LIGHTGLYPHDISPLAY
280
     1
  9
$TILEMODELIGHTSYNCH
280
     1
  9
$CMATERIAL
347
3C
  9
$SOLIDHIST
280
     1
  9
$SHOWHIST
280
     1
  9
$DWFFRAME
280
     2
  9
$DGNFRAME
280
     2
  9
$REALWORLDSCALE
290
     1
  9
$INTERFERECOLOR
 62
   256
  9
$CSHADOW
280
     0
  9
$SHADOWPLANELOCATION
 40
0.0
  0
ENDSEC
  0
SECTION
  2
CLASSES
  0
CLASS
  1
ACDBDICTIONARYWDFLT
  2
AcDbDictionaryWithDefault
  3
ObjectDBX Classes
 90
        0
 91
        4
280
     0
281
     0
  0
CLASS
  1
VISUALSTYLE
  2
AcDbVisualStyle
  3
ObjectDBX Classes
 90
     4095
 91
        4
280
     0
281
     0
  0
CLASS
  1
MATERIAL
  2
AcDbMaterial
  3
ObjectDBX Classes
 90
     1153
 91
        4
280
     0
281
     0
  0
CLASS
  1
SUN
  2
AcDbSun
  3
SCENEOE
 90
     1024
 91
        4
280
     0
281
     0
  0
ENDSEC
  0
SECTION
  2
TABLES
  0
TABLE
  2
VPORT
  5
8
330
0
100
AcDbSymbolTable
 70
     1
  0
VPORT
  5
29
330
8
100
AcDbSymbolTableRecord
100
AcDbViewportTableRecord
  2
*Active
 70
     0
 10
0.0
 20
0.0
 11
1.0
 21
1.0
 12
0.0
 22
0.0
 13
0.0
 23
0.0
 14
0.5
 24
0.5
 15
0.5
 25
0.5
 16
0.0
 26
0.0
 36
1.0
 17
50.0
 27
62.5
 37
0.0
 40
125.0
 41
0.8
 42
50.0
 43
0.0
 44
0.0
 50
0.0
 51
0.0
 71
     0
 72
   100
 73
     1
 74
     3
 75
     0
 76
     0
 77
     0
 78
     0
281
     0
 65
     1
110
0.0
120
0.0
130
0.0
111
1.0
121
0.0
131
0.0
112
0.0
122
1.0
132
0.0
 79
     0
146
0.0
 60
     3
 61
     5
292
     1
282
     1
141
0.0
142
0.0
 63
   250
361
3F
  0
ENDTAB
  0
TABLE
  2
LTYPE
  5
5
330
0
100
AcDbSymbolTable
 70
     1
  0
LTYPE
  5
14
330
5
100
AcDbSymbolTableRecord
100
AcDbLinetypeTableRecord
  2
ByBlock
 70
     0
  3

 72
    65
 73
     0
 40
0.0
  0
LTYPE
  5
15
330
5
100
AcDbSymbolTableRecord
100
AcDbLinetypeTableRecord
  2
ByLayer
 70
     0
  3

 72
    65
 73
     0
 40
0.0
  0
LTYPE
  5
16
330
5
100
AcDbSymbolTableRecord
100
AcDbLinetypeTableRecord
  2
Continuous
 70
     0
  3
Solid line
 72
    65
 73
     0
 40
0.0
  0
ENDTAB
  0
TABLE
  2
LAYER
  5
2
330
0
100
AcDbSymbolTable
 70
     2
  0
LAYER
  5
10
330
2
100
AcDbSymbolTableRecord
100
AcDbLayerTableRecord
  2
0
 70
     0
 62
     7
  6
Continuous
370
    -3
390
F
347
3E
  0
LAYER
  5
40
330
2
100
AcDbSymbolTableRecord
100
AcDbLayerTableRecord
  2
Layer 1
 70
     0
 62
     7
  6
Continuous
370
    -3
390
F
347
3E
  0
ENDTAB
  0
TABLE
  2
STYLE
  5
3
330
0
100
AcDbSymbolTable
 70
     1
  0
STYLE
  5
11
330
3
100
AcDbSymbolTableRecord
100
AcDbTextStyleTableRecord
  2
Standard
 70
     0
 40
0.0
 41
1.0
 50
0.0
 71
     0
 42
0.2
  3
txt
  4

  0
ENDTAB
  0
TABLE
  2
VIEW
  5
6
330
0
100
AcDbSymbolTable
 70
     0
  0
ENDTAB
  0
TABLE
  2
UCS
  5
7
330
0
100
AcDbSymbolTable
 70
     0
  0
ENDTAB
  0
TABLE
  2
APPID
  5
9
330
0
100
AcDbSymbolTable
 70
     1
  0
APPID
  5
12
330
9
100
AcDbSymbolTableRecord
100
AcDbRegAppTableRecord
  2
ACAD
 70
     0
  0
ENDTAB
  0
TABLE
  2
DIMSTYLE
  5
A
330
0
100
AcDbSymbolTable
 70
     1
100
AcDbDimStyleTable
  0
DIMSTYLE
105
27
330
A
100
AcDbSymbolTableRecord
100
AcDbDimStyleTableRecord
  2
Standard
 70
     0
178
     0
340
11
  0
ENDTAB
  0
TABLE
  2
BLOCK_RECORD
  5
1
330
0
100
AcDbSymbolTable
 70
     1
  0
BLOCK_RECORD
  5
1F
330
1
100
AcDbSymbolTableRecord
100
AcDbBlockTableRecord
  2
*Model_Space
340
22
 70
     0
280
     1
281
     0
  0
BLOCK_RECORD
  5
1B
330
1
100
AcDbSymbolTableRecord
100
AcDbBlockTableRecord
  2
*Paper_Space
340
1E
 70
     0
280
     1
281
     0
  0
BLOCK_RECORD
  5
23
330
1
100
AcDbSymbolTableRecord
100
AcDbBlockTableRecord
  2
*Paper_Space0
340
26
 70
     0
280
     1
281
     0
  0
ENDTAB
  0
ENDSEC
  0
SECTION
  2
BLOCKS
  0
BLOCK
  5
20
330
1F
100
AcDbEntity
  8
0
100
AcDbBlockBegin
  2
*Model_Space
 70
     0
 10
0.0
 20
0.0
 30
0.0
  3
*Model_Space
  1

  0
ENDBLK
  5
21
330
1F
100
AcDbEntity
  8
0
100
AcDbBlockEnd
  0
BLOCK
  5
1C
330
1B
100
AcDbEntity
 67
     1
  8
0
100
AcDbBlockBegin
  2
*Paper_Space
 70
     0
 10
0.0
 20
0.0
 30
0.0
  3
*Paper_Space
  1

  0
ENDBLK
  5
1D
330
1B
100
AcDbEntity
 67
     1
  8
0
100
AcDbBlockEnd
  0
BLOCK
  5
24
330
23
100
AcDbEntity
  8
0
100
AcDbBlockBegin
  2
*Paper_Space0
 70
     0
 10
0.0
 20
0.0
 30
0.0
  3
*Paper_Space0
  1

  0
ENDBLK
  5
25
330
23
100
AcDbEntity
  8
0
100
AcDbBlockEnd
  0
ENDSEC
  0
SECTION
  2
ENTITIES
  0
SPLINE
  5
41
330
1F
100
AcDbEntity
  8
Layer 1
370
     0
100
AcDbSpline
210
0.0
220
0.0
230
1.0
 70
    11
 71
     3
 72
  1190
 73
  1186
 74
     0
 42
0.0000000001
 43
0.0000000001
 12
1.0
 22
0.0
 32
0.0
 13
1.0
 23
0.0
 33
0.0
 40
0.0
 40
0.0
 40
0.0
 40
0.0
 40
1.0
 40
1.0
 40
1.0
 40
2.0
 40
2.0
 40
2.0
 40
3.0
 40
3.0
 40
3.0
 40
4.0
 40
4.0
 40
4.0
 40
5.0
 40
5.0
 40
5.0
 40
6.0
 40
6.0
 40
6.0
 40
7.0
 40
7.0
 40
7.0
 40
8.0
 40
8.0
 40
8.0
 40
9.0
 40
9.0
 40
9.0
 40
10.0
 40
10.0
 40
10.0
 40
11.0
 40
11.0
 40
11.0
 40
12.0
 40
12.0
 40
12.0
 40
13.0
 40
13.0
 40
13.0
 40
14.0
 40
14.0
 40
14.0
 40
15.0
 40
15.0
 40
15.0
 40
16.0
 40
16.0
 40
16.0
 40
17.0
 40
17.0
 40
17.0
 40
18.0
 40
18.0
 40
18.0
 40
19.0
 40
19.0
 40
19.0
 40
20.0
 40
20.0
 40
20.0
 40
21.0
 40
21.0
 40
21.0
 40
22.0
 40
22.0
 40
22.0
 40
23.0
 40
23.0
 40
23.0
 40
24.0
 40
24.0
 40
24.0
 40
25.0
 40
25.0
 40
25.0
 40
26.0
 40
26.0
 40
26.0
 40
27.0
 40
27.0
 40
27.0
 40
28.0
 40
28.0
 40
28.0
 40
29.0
 40
29.0
 40
29.0
 40
30.0
 40
30.0
 40
30.0
 40
31.0
 40
31.0
 40
31.0
 40
32.0
 40
32.0
 40
32.0
 40
33.0
 40
33.0
 40
33.0
 40
34.0
 40
34.0
 40
34.0
 40
35.0
 40
35.0
 40
35.0
 40
36.0
 40
36.0
 40
36.0
 40
37.0
 40
37.0
 40
37.0
 40
38.0
 40
38.0
 40
38.0
 40
39.0
 40
39.0
 40
39.0
 40
40.0
 40
40.0
 40
40.0
 40
41.0
 40
41.0
 40
41.0
 40
42.0
 40
42.0
 40
42.0
 40
43.0
 40
43.0
 40
43.0
 40
44.0
 40
44.0
 40
44.0
 40
45.0
 40
45.0
 40
45.0
 40
46.0
 40
46.0
 40
46.0
 40
47.0
 40
47.0
 40
47.0
 40
48.0
 40
48.0
 40
48.0
 40
49.0
 40
49.0
 40
49.0
 40
50.0
 40
50.0
 40
50.0
 40
51.0
 40
51.0
 40
51.0
 40
52.0
 40
52.0
 40
52.0
 40
53.0
 40
53.0
 40
53.0
 40
54.0
 40
54.0
 40
54.0
 40
55.0
 40
55.0
 40
55.0
 40
56.0
 40
56.0
 40
56.0
 40
57.0
 40
57.0
 40
57.0
 40
58.0
 40
58.0
 40
58.0
 40
59.0
 40
59.0
 40
59.0
 40
60.0
 40
60.0
 40
60.0
 40
61.0
 40
61.0
 40
61.0
 40
62.0
 40
62.0
 40
62.0
 40
63.0
 40
63.0
 40
63.0
 40
64.0
 40
64.0
 40
64.0
 40
65.0
 40
65.0
 40
65.0
 40
66.0
 40
66.0
 40
66.0
 40
67.0
 40
67.0
 40
67.0
 40
68.0
 40
68.0
 40
68.0
 40
69.0
 40
69.0
 40
69.0
 40
70.0
 40
70.0
 40
70.0
 40
71.0
 40
71.0
 40
71.0
 40
72.0
 40
72.0
 40
72.0
 40
73.0
 40
73.0
 40
73.0
 40
74.0
 40
74.0
 40
74.0
 40
75.0
 40
75.0
 40
75.0
 40
76.0
 40
76.0
 40
76.0
 40
77.0
 40
77.0
 40
77.0
 40
78.0
 40
78.0
 40
78.0
 40
79.0
 40
79.0
 40
79.0
 40
80.0
 40
80.0
 40
80.0
 40
81.0
 40
81.0
 40
81.0
 40
82.0
 40
82.0
 40
82.0
 40
83.0
 40
83.0
 40
83.0
 40
84.0
 40
84.0
 40
84.0
 40
85.0
 40
85.0
 40
85.0
 40
86.0
 40
86.0
 40
86.0
 40
87.0
 40
87.0
 40
87.0
 40
88.0
 40
88.0
 40
88.0
 40
89.0
 40
89.0
 40
89.0
 40
90.0
 40
90.0
 40
90.0
 40
91.0
 40
91.0
 40
91.0
 40
92.0
 40
92.0
 40
92.0
 40
93.0
 40
93.0
 40
93.0
 40
94.0
 40
94.0
 40
94.0
 40
95.0
 40
95.0
 40
95.0
 40
96.0
 40
96.0
 40
96.0
 40
97.0
 40
97.0
 40
97.0
 40
98.0
 40
98.0
 40
98.0
 40
99.0
 40
99.0
 40
99.0
 40
100.0
 40
100.0
 40
100.0
 40
101.0
 40
101.0
 40
101.0
 40
102.0
 40
102.0
 40
102.0
 40
103.0
 40
103.0
 40
103.0
 40
104.0
 40
104.0
 40
104.0
 40
105.0
 40
105.0
 40
105.0
 40
106.0
 40
106.0
 40
106.0
 40
107.0
 40
107.0
 40
107.0
 40
108.0
 40
108.0
 40
108.0
 40
109.0
 40
109.0
 40
109.0
 40
110.0
 40
110.0
 40
110.0
 40
111.0
 40
111.0
 40
111.0
 40
112.0
 40
112.0
 40
112.0
 40
113.0
 40
113.0
 40
113.0
 40
114.0
 40
114.0
 40
114.0
 40
115.0
 40
115.0
 40
115.0
 40
116.0
 40
116.0
 40
116.0
 40
117.0
 40
117.0
 40
117.0
 40
118.0
 40
118.0
 40
118.0
 40
119.0
 40
119.0
 40
119.0
 40
120.0
 40
120.0
 40
120.0
 40
121.0
 40
121.0
 40
121.0
 40
122.0
 40
122.0
 40
122.0
 40
123.0
 40
123.0
 40
123.0
 40
124.0
 40
124.0
 40
124.0
 40
125.0
 40
125.0
 40
125.0
 40
126.0
 40
126.0
 40
126.0
 40
127.0
 40
127.0
 40
127.0
 40
128.0
 40
128.0
 40
128.0
 40
129.0
 40
129.0
 40
129.0
 40
130.0
 40
130.0
 40
130.0
 40
131.0
 40
131.0
 40
131.0
 40
132.0
 40
132.0
 40
132.0
 40
133.0
 40
133.0
 40
133.0
 40
134.0
 40
134.0
 40
134.0
 40
135.0
 40
135.0
 40
135.0
 40
136.0
 40
136.0
 40
136.0
 40
137.0
 40
137.0
 40
137.0
 40
138.0
 40
138.0
 40
138.0
 40
139.0
 40
139.0
 40
139.0
 40
140.0
 40
140.0
 40
140.0
 40
141.0
 40
141.0
 40
141.0
 40
142.0
 40
142.0
 40
142.0
 40
143.0
 40
143.0
 40
143.0
 40
144.0
 40
144.0
 40
144.0
 40
145.0
 40
145.0
 40
145.0
 40
146.0
 40
146.0
 40
146.0
 40
147.0
 40
147.0
 40
147.0
 40
148.0
 40
148.0
 40
148.0
 40
149.0
 40
149.0
 40
149.0
 40
150.0
 40
150.0
 40
150.0
 40
151.0
 40
151.0
 40
151.0
 40
152.0
 40
152.0
 40
152.0
 40
153.0
 40
153.0
 40
153.0
 40
154.0
 40
154.0
 40
154.0
 40
155.0
 40
155.0
 40
155.0
 40
156.0
 40
156.0
 40
156.0
 40
157.0
 40
157.0
 40
157.0
 40
158.0
 40
158.0
 40
158.0
 40
159.0
 40
159.0
 40
159.0
 40
160.0
 40
160.0
 40
160.0
 40
161.0
 40
161.0
 40
161.0
 40
162.0
 40
162.0
 40
162.0
 40
163.0
 40
163.0
 40
163.0
 40
164.0
 40
164.0
 40
164.0
 40
165.0
 40
165.0
 40
165.0
 40
166.0
 40
166.0
 40
166.0
 40
167.0
 40
167.0
 40
167.0
 40
168.0
 40
168.0
 40
168.0
 40
169.0
 40
169.0
 40
169.0
 40
170.0
 40
170.0
 40
170.0
 40
171.0
 40
171.0
 40
171.0
 40
172.0
 40
172.0
 40
172.0
 40
173.0
 40
173.0
 40
173.0
 40
174.0
 40
174.0
 40
174.0
 40
175.0
 40
175.0
 40
175.0
 40
176.0
 40
176.0
 40
176.0
 40
177.0
 40
177.0
 40
177.0
 40
178.0
 40
178.0
 40
178.0
 40
179.0
 40
179.0
 40
179.0
 40
180.0
 40
180.0
 40
180.0
 40
181.0
 40
181.0
 40
181.0
 40
182.0
 40
182.0
 40
182.0
 40
183.0
 40
183.0
 40
183.0
 40
184.0
 40
184.0
 40
184.0
 40
185.0
 40
185.0
 40
185.0
 40
186.0
 40
186.0
 40
186.0
 40
187.0
 40
187.0
 40
187.0
 40
188.0
 40
188.0
 40
188.0
 40
189.0
 40
189.0
 40
189.0
 40
190.0
 40
190.0
 40
190.0
 40
191.0
 40
191.0
 40
191.0
 40
192.0
 40
192.0
 40
192.0
 40
193.0
 40
193.0
 40
193.0
 40
194.0
 40
194.0
 40
194.0
 40
195.0
 40
195.0
 40
195.0
 40
196.0
 40
196.0
 40
196.0
 40
197.0
 40
197.0
 40
197.0
 40
198.0
 40
198.0
 40
198.0
 40
199.0
 40
199.0
 40
199.0
 40
200.0
 40
200.0
 40
200.0
 40
201.0
 40
201.0
 40
201.0
 40
202.0
 40
202.0
 40
202.0
 40
203.0
 40
203.0
 40
203.0
 40
204.0
 40
204.0
 40
204.0
 40
205.0
 40
205.0
 40
205.0
 40
206.0
 40
206.0
 40
206.0
 40
207.0
 40
207.0
 40
207.0
 40
208.0
 40
208.0
 40
208.0
 40
209.0
 40
209.0
 40
209.0
 40
210.0
 40
210.0
 40
210.0
 40
211.0
 40
211.0
 40
211.0
 40
212.0
 40
212.0
 40
212.0
 40
213.0
 40
213.0
 40
213.0
 40
214.0
 40
214.0
 40
214.0
 40
215.0
 40
215.0
 40
215.0
 40
216.0
 40
216.0
 40
216.0
 40
217.0
 40
217.0
 40
217.0
 40
218.0
 40
218.0
 40
218.0
 40
219.0
 40
219.0
 40
219.0
 40
220.0
 40
220.0
 40
220.0
 40
221.0
 40
221.0
 40
221.0
 40
222.0
 40
222.0
 40
222.0
 40
223.0
 40
223.0
 40
223.0
 40
224.0
 40
224.0
 40
224.0
 40
225.0
 40
225.0
 40
225.0
 40
226.0
 40
226.0
 40
226.0
 40
227.0
 40
227.0
 40
227.0
 40
228.0
 40
228.0
 40
228.0
 40
229.0
 40
229.0
 40
229.0
 40
230.0
 40
230.0
 40
230.0
 40
231.0
 40
231.0
 40
231.0
 40
232.0
 40
232.0
 40
232.0
 40
233.0
 40
233.0
 40
233.0
 40
234.0
 40
234.0
 40
234.0
 40
235.0
 40
235.0
 40
235.0
 40
236.0
 40
236.0
 40
236.0
 40
237.0
 40
237.0
 40
237.0
 40
238.0
 40
238.0
 40
238.0
 40
239.0
 40
239.0
 40
239.0
 40
240.0
 40
240.0
 40
240.0
 40
241.0
 40
241.0
 40
241.0
 40
242.0
 40
242.0
 40
242.0
 40
243.0
 40
243.0
 40
243.0
 40
244.0
 40
244.0
 40
244.0
 40
245.0
 40
245.0
 40
245.0
 40
246.0
 40
246.0
 40
246.0
 40
247.0
 40
247.0
 40
247.0
 40
248.0
 40
248.0
 40
248.0
 40
249.0
 40
249.0
 40
249.0
 40
250.0
 40
250.0
 40
250.0
 40
251.0
 40
251.0
 40
251.0
 40
252.0
 40
252.0
 40
252.0
 40
253.0
 40
253.0
 40
253.0
 40
254.0
 40
254.0
 40
254.0
 40
255.0
 40
255.0
 40
255.0
 40
256.0
 40
256.0
 40
256.0
 40
257.0
 40
257.0
 40
257.0
 40
258.0
 40
258.0
 40
258.0
 40
259.0
 40
259.0
 40
259.0
 40
260.0
 40
260.0
 40
260.0
 40
261.0
 40
261.0
 40
261.0
 40
262.0
 40
262.0
 40
262.0
 40
263.0
 40
263.0
 40
263.0
 40
264.0
 40
264.0
 40
264.0
 40
265.0
 40
265.0
 40
265.0
 40
266.0
 40
266.0
 40
266.0
 40
267.0
 40
267.0
 40
267.0
 40
268.0
 40
268.0
 40
268.0
 40
269.0
 40
269.0
 40
269.0
 40
270.0
 40
270.0
 40
270.0
 40
271.0
 40
271.0
 40
271.0
 40
272.0
 40
272.0
 40
272.0
 40
273.0
 40
273.0
 40
273.0
 40
274.0
 40
274.0
 40
274.0
 40
275.0
 40
275.0
 40
275.0
 40
276.0
 40
276.0
 40
276.0
 40
277.0
 40
277.0
 40
277.0
 40
278.0
 40
278.0
 40
278.0
 40
279.0
 40
279.0
 40
279.0
 40
280.0
 40
280.0
 40
280.0
 40
281.0
 40
281.0
 40
281.0
 40
282.0
 40
282.0
 40
282.0
 40
283.0
 40
283.0
 40
283.0
 40
284.0
 40
284.0
 40
284.0
 40
285.0
 40
285.0
 40
285.0
 40
286.0
 40
286.0
 40
286.0
 40
287.0
 40
287.0
 40
287.0
 40
288.0
 40
288.0
 40
288.0
 40
289.0
 40
289.0
 40
289.0
 40
290.0
 40
290.0
 40
290.0
 40
291.0
 40
291.0
 40
291.0
 40
292.0
 40
292.0
 40
292.0
 40
293.0
 40
293.0
 40
293.0
 40
294.0
 40
294.0
 40
294.0
 40
295.0
 40
295.0
 40
295.0
 40
296.0
 40
296.0
 40
296.0
 40
297.0
 40
297.0
 40
297.0
 40
298.0
 40
298.0
 40
298.0
 40
299.0
 40
299.0
 40
299.0
 40
300.0
 40
300.0
 40
300.0
 40
301.0
 40
301.0
 40
301.0
 40
302.0
 40
302.0
 40
302.0
 40
303.0
 40
303.0
 40
303.0
 40
304.0
 40
304.0
 40
304.0
 40
305.0
 40
305.0
 40
305.0
 40
306.0
 40
306.0
 40
306.0
 40
307.0
 40
307.0
 40
307.0
 40
308.0
 40
308.0
 40
308.0
 40
309.0
 40
309.0
 40
309.0
 40
310.0
 40
310.0
 40
310.0
 40
311.0
 40
311.0
 40
311.0
 40
312.0
 40
312.0
 40
312.0
 40
313.0
 40
313.0
 40
313.0
 40
314.0
 40
314.0
 40
314.0
 40
315.0
 40
315.0
 40
315.0
 40
316.0
 40
316.0
 40
316.0
 40
317.0
 40
317.0
 40
317.0
 40
318.0
 40
318.0
 40
318.0
 40
319.0
 40
319.0
 40
319.0
 40
320.0
 40
320.0
 40
320.0
 40
321.0
 40
321.0
 40
321.0
 40
322.0
 40
322.0
 40
322.0
 40
323.0
 40
323.0
 40
323.0
 40
324.0
 40
324.0
 40
324.0
 40
325.0
 40
325.0
 40
325.0
 40
326.0
 40
326.0
 40
326.0
 40
327.0
 40
327.0
 40
327.0
 40
328.0
 40
328.0
 40
328.0
 40
329.0
 40
329.0
 40
329.0
 40
330.0
 40
330.0
 40
330.0
 40
331.0
 40
331.0
 40
331.0
 40
332.0
 40
332.0
 40
332.0
 40
333.0
 40
333.0
 40
333.0
 40
334.0
 40
334.0
 40
334.0
 40
335.0
 40
335.0
 40
335.0
 40
336.0
 40
336.0
 40
336.0
 40
337.0
 40
337.0
 40
337.0
 40
338.0
 40
338.0
 40
338.0
 40
339.0
 40
339.0
 40
339.0
 40
340.0
 40
340.0
 40
340.0
 40
341.0
 40
341.0
 40
341.0
 40
342.0
 40
342.0
 40
342.0
 40
343.0
 40
343.0
 40
343.0
 40
344.0
 40
344.0
 40
344.0
 40
345.0
 40
345.0
 40
345.0
 40
346.0
 40
346.0
 40
346.0
 40
347.0
 40
347.0
 40
347.0
 40
348.0
 40
348.0
 40
348.0
 40
349.0
 40
349.0
 40
349.0
 40
350.0
 40
350.0
 40
350.0
 40
351.0
 40
351.0
 40
351.0
 40
352.0
 40
352.0
 40
352.0
 40
353.0
 40
353.0
 40
353.0
 40
354.0
 40
354.0
 40
354.0
 40
355.0
 40
355.0
 40
355.0
 40
356.0
 40
356.0
 40
356.0
 40
357.0
 40
357.0
 40
357.0
 40
358.0
 40
358.0
 40
358.0
 40
359.0
 40
359.0
 40
359.0
 40
360.0
 40
360.0
 40
360.0
 40
361.0
 40
361.0
 40
361.0
 40
362.0
 40
362.0
 40
362.0
 40
363.0
 40
363.0
 40
363.0
 40
364.0
 40
364.0
 40
364.0
 40
365.0
 40
365.0
 40
365.0
 40
366.0
 40
366.0
 40
366.0
 40
367.0
 40
367.0
 40
367.0
 40
368.0
 40
368.0
 40
368.0
 40
369.0
 40
369.0
 40
369.0
 40
370.0
 40
370.0
 40
370.0
 40
371.0
 40
371.0
 40
371.0
 40
372.0
 40
372.0
 40
372.0
 40
373.0
 40
373.0
 40
373.0
 40
374.0
 40
374.0
 40
374.0
 40
375.0
 40
375.0
 40
375.0
 40
376.0
 40
376.0
 40
376.0
 40
377.0
 40
377.0
 40
377.0
 40
378.0
 40
378.0
 40
378.0
 40
379.0
 40
379.0
 40
379.0
 40
380.0
 40
380.0
 40
380.0
 40
381.0
 40
381.0
 40
381.0
 40
382.0
 40
382.0
 40
382.0
 40
383.0
 40
383.0
 40
383.0
 40
384.0
 40
384.0
 40
384.0
 40
385.0
 40
385.0
 40
385.0
 40
386.0
 40
386.0
 40
386.0
 40
387.0
 40
387.0
 40
387.0
 40
388.0
 40
388.0
 40
388.0
 40
389.0
 40
389.0
 40
389.0
 40
390.0
 40
390.0
 40
390.0
 40
391.0
 40
391.0
 40
391.0
 40
392.0
 40
392.0
 40
392.0
 40
393.0
 40
393.0
 40
393.0
 40
394.0
 40
394.0
 40
394.0
 40
395.0
 40
395.0
 40
395.0
 40
395.0
 10
96.69999694824219
 20
83.20000076293945
 30
0.0
 10
96.0999984741211
 20
84.0
 30
0.0
 10
95.29999542236328
 20
84.60000228881836
 30
0.0
 10
94.39999389648438
 20
85.0
 30
0.0
 10
94.19999694824219
 20
85.0999984741211
 30
0.0
 10
93.89999389648438
 20
85.20000076293945
 30
0.0
 10
93.69999694824219
 20
85.29999923706055
 30
0.0
 10
93.69999694824219
 20
85.29999923706055
 30
0.0
 10
93.39999389648438
 20
85.39999771118164
 30
0.0
 10
93.39999389648438
 20
85.39999771118164
 30
0.0
 10
93.39999389648438
 20
85.39999771118164
 30
0.0
 10
92.99999237060547
 20
85.49999618530273
 30
0.0
 10
92.99999237060547
 20
85.49999618530273
 30
0.0
 10
92.49999237060547
 20
85.59999465942383
 30
0.0
 10
91.99999237060547
 20
85.69999694824219
 30
0.0
 10
91.49999237060547
 20
85.69999694824219
 30
0.0
 10
90.99999237060547
 20
85.69999694824219
 30
0.0
 10
90.39999389648438
 20
85.69999694824219
 30
0.0
 10
89.79999542236328
 20
85.49999618530273
 30
0.0
 10
89.19999694824219
 20
85.39999771118164
 30
0.0
 10
88.69999694824219
 20
85.09999465942383
 30
0.0
 10
88.0999984741211
 20
84.79999542236328
 30
0.0
 10
87.0
 20
84.19999694824219
 30
0.0
 10
86.29999542236328
 20
83.19999694824219
 30
0.0
 10
85.69999694824219
 20
82.39999389648438
 30
0.0
 10
84.5
 20
80.59999465942383
 30
0.0
 10
83.79999542236328
 20
78.89999389648438
 30
0.0
 10
83.0999984741211
 20
77.19999313354492
 30
0.0
 10
82.4000015258789
 20
75.49999237060547
 30
0.0
 10
81.5999984741211
 20
73.99999237060547
 30
0.0
 10
80.5999984741211
 20
72.69999313354492
 30
0.0
 10
79.69999694824219
 20
71.39999389648438
 30
0.0
 10
78.5999984741211
 20
70.49999237060547
 30
0.0
 10
77.4000015258789
 20
69.89999389648438
 30
0.0
 10
74.5
 20
68.89999389648438
 30
0.0
 10
72.20000457763672
 20
67.69999313354492
 30
0.0
 10
70.70000457763672
 20
69.59999465942383
 30
0.0
 10
69.70000457763672
 20
70.89999389648438
 30
0.0
 10
70.80000305175781
 20
71.99999618530273
 30
0.0
 10
71.80000305175781
 20
73.29999542236328
 30
0.0
 10
72.10000610351562
 20
73.59999465942383
 30
0.0
 10
72.30000305175781
 20
73.89999389648438
 30
0.0
 10
72.60000610351562
 20
74.19999694824219
 30
0.0
 10
73.20000457763672
 20
74.99999618530273
 30
0.0
 10
73.80000305175781
 20
75.79999542236328
 30
0.0
 10
74.30000305175781
 20
76.69999694824219
 30
0.0
 10
74.80000305175781
 20
77.5999984741211
 30
0.0
 10
75.30000305175781
 20
78.49999618530273
 30
0.0
 10
75.80000305175781
 20
79.39999771118164
 30
0.0
 10
76.30000305175781
 20
80.29999923706055
 30
0.0
 10
76.70000457763672
 20
81.19999694824219
 30
0.0
 10
77.0
 20
82.19999694824219
 30
0.0
 10
77.69999694824219
 20
84.0999984741211
 30
0.0
 10
78.0999984741211
 20
86.0999984741211
 30
0.0
 10
78.30000305175781
 20
88.0999984741211
 30
0.0
 10
78.4000015258789
 20
90.0999984741211
 30
0.0
 10
78.20000457763672
 20
92.0999984741211
 30
0.0
 10
77.70000457763672
 20
93.99999809265137
 30
0.0
 10
77.60000610351562
 20
94.49999809265137
 30
0.0
 10
77.4000015258789
 20
94.89999771118164
 30
0.0
 10
77.20000457763672
 20
95.29999732971191
 30
0.0
 10
77.10000610351562
 20
95.59999656677246
 30
0.0
 10
77.10000610351562
 20
95.69999694824219
 30
0.0
 10
76.9000015258789
 20
95.89999771118164
 30
0.0
 10
76.80000305175781
 20
96.0999984741211
 30
0.0
 10
76.70000457763672
 20
96.29999732971191
 30
0.0
 10
76.5999984741211
 20
96.49999809265137
 30
0.0
 10
76.19999694824219
 20
97.29999732971191
 30
0.0
 10
75.69999694824219
 20
98.0999984741211
 30
0.0
 10
75.0999984741211
 20
98.79999732971191
 30
0.0
 10
74.0
 20
100.1999969482422
 30
0.0
 10
72.5999984741211
 20
101.1999969482422
 30
0.0
 10
71.19999694824219
 20
101.7999973297119
 30
0.0
 10
70.5
 20
102.0999965667725
 30
0.0
 10
69.69999694824219
 20
102.2999973297119
 30
0.0
 10
69.0
 20
102.2999973297119
 30
0.0
 10
68.30000305175781
 20
102.3999977111816
 30
0.0
 10
67.5999984741211
 20
102.2999973297119
 30
0.0
 10
67.0
 20
102.0999965667725
 30
0.0
 10
66.4000015258789
 20
101.899995803833
 30
0.0
 10
65.80000305175781
 20
101.5999965667725
 30
0.0
 10
65.4000015258789
 20
101.1999969482422
 30
0.0
 10
65.0
 20
100.7999973297119
 30
0.0
 10
64.70000457763672
 20
100.2999973297119
 30
0.0
 10
64.5
 20
99.89999771118164
 30
0.0
 10
64.19999694824219
 20
98.99999809265137
 30
0.0
 10
64.30000305175781
 20
98.0999984741211
 30
0.0
 10
64.80000305175781
 20
97.69999694824219
 30
0.0
 10
65.0
 20
97.49999618530273
 30
0.0
 10
65.30000305175781
 20
97.39999771118164
 30
0.0
 10
65.4000015258789
 20
97.39999771118164
 30
0.0
 10
65.5999984741211
 20
97.39999771118164
 30
0.0
 10
65.5999984741211
 20
97.39999771118164
 30
0.0
 10
65.5999984741211
 20
97.39999771118164
 30
0.0
 10
65.79999542236328
 20
97.39999771118164
 30
0.0
 10
65.9000015258789
 20
97.49999809265137
 30
0.0
 10
66.0
 20
97.69999694824219
 30
0.0
 10
66.0
 20
97.89999771118164
 30
0.0
 10
65.9000015258789
 20
98.09999656677246
 30
0.0
 10
65.69999694824219
 20
98.09999656677246
 30
0.0
 10
65.69999694824219
 20
98.09999656677246
 30
0.0
 10
65.5
 20
98.09999656677246
 30
0.0
 10
65.39999389648438
 20
98.29999732971191
 30
0.0
 10
65.29999542236328
 20
98.39999771118164
 30
0.0
 10
65.29999542236328
 20
98.59999656677246
 30
0.0
 10
65.29999542236328
 20
98.79999732971191
 30
0.0
 10
65.29999542236328
 20
98.99999809265137
 30
0.0
 10
65.39999389648438
 20
99.29999732971191
 30
0.0
 10
65.49999237060547
 20
99.59999656677246
 30
0.0
 10
65.79999542236328
 20
100.1999969482422
 30
0.0
 10
66.39999389648438
 20
100.6999969482422
 30
0.0
 10
67.29999542236328
 20
100.6999969482422
 30
0.0
 10
67.69999694824219
 20
100.7999973297119
 30
0.0
 10
68.19999694824219
 20
100.6999969482422
 30
0.0
 10
68.79999542236328
 20
100.5999965667725
 30
0.0
 10
69.29999542236328
 20
100.4999961853027
 30
0.0
 10
69.79999542236328
 20
100.2999973297119
 30
0.0
 10
70.29999542236328
 20
99.99999618530273
 30
0.0
 10
71.29999542236328
 20
99.39999580383301
 30
0.0
 10
72.19999694824219
 20
98.49999618530273
 30
0.0
 10
72.89999389648438
 20
97.29999542236328
 30
0.0
 10
73.19999694824219
 20
96.69999504089355
 30
0.0
 10
73.49999237060547
 20
96.09999465942383
 30
0.0
 10
73.69999694824219
 20
95.39999580383301
 30
0.0
 10
73.79999542236328
 20
95.19999504089355
 30
0.0
 10
73.79999542236328
 20
95.09999656677246
 30
0.0
 10
73.79999542236328
 20
94.89999580383301
 30
0.0
 10
73.79999542236328
 20
94.79999542236328
 30
0.0
 10
73.89999389648438
 20
94.49999618530273
 30
0.0
 10
73.89999389648438
 20
94.39999580383301
 30
0.0
 10
73.99999237060547
 20
93.99999618530273
 30
0.0
 10
73.99999237060547
 20
93.69999504089355
 30
0.0
 10
74.09999084472656
 20
93.29999542236328
 30
0.0
 10
74.19998931884766
 20
91.79999542236328
 30
0.0
 10
74.09999084472656
 20
90.29999542236328
 30
0.0
 10
73.79998779296875
 20
88.69999694824219
 30
0.0
 10
73.39998626708984
 20
87.19999694824219
 30
0.0
 10
72.89998626708984
 20
85.69999694824219
 30
0.0
 10
72.09999084472656
 20
84.29999542236328
 30
0.0
 10
71.69998931884766
 20
83.59999465942383
 30
0.0
 10
71.29998779296875
 20
82.89999389648438
 30
0.0
 10
70.79998779296875
 20
82.29999542236328
 30
0.0
 10
70.29998779296875
 20
81.69999694824219
 30
0.0
 10
69.79998779296875
 20
81.09999465942383
 30
0.0
 10
69.29998779296875
 20
80.49999618530273
 30
0.0
 10
68.69998931884766
 20
79.89999771118164
 30
0.0
 10
68.19998931884766
 20
79.39999771118164
 30
0.0
 10
67.59999084472656
 20
78.89999771118164
 30
0.0
 10
66.99999237060547
 20
78.39999771118164
 30
0.0
 10
66.39999389648438
 20
77.89999771118164
 30
0.0
 10
65.89999389648438
 20
77.39999771118164
 30
0.0
 10
65.59999084472656
 20
77.0999984741211
 30
0.0
 10
65.29999542236328
 20
76.89999771118164
 30
0.0
 10
64.99999237060547
 20
76.5999984741211
 30
0.0
 10
62.49999237060547
 20
74.5
 30
0.0
 10
60.99999237060547
 20
73.5999984741211
 30
0.0
 10
59.99999237060547
 20
73.29999923706055
 30
0.0
 10
61.09999084472656
 20
76.20000076293945
 30
0.0
 10
61.69999313354492
 20
79.29999923706055
 30
0.0
 10
61.69999313354492
 20
82.19999694824219
 30
0.0
 10
61.69999313354492
 20
90.69999694824219
 30
0.0
 10
56.29999160766602
 20
93.19999694824219
 30
0.0
 10
50.09999084472656
 20
94.19999694824219
 30
0.0
 10
43.89999008178711
 20
93.29999732971191
 30
0.0
 10
38.49999237060547
 20
90.79999542236328
 30
0.0
 10
38.49999237060547
 20
82.19999694824219
 30
0.0
 10
38.49999237060547
 20
79.39999771118164
 30
0.0
 10
39.09999084472656
 20
76.29999542236328
 30
0.0
 10
40.09999084472656
 20
73.49999618530273
 30
0.0
 10
38.39999008178711
 20
74.19999694824219
 30
0.0
 10
36.09999084472656
 20
75.89999771118164
 30
0.0
 10
33.69998931884766
 20
78.99999618530273
 30
0.0
 10
33.09999084472656
 20
79.89999771118164
 30
0.0
 10
32.39999008178711
 20
80.79999542236328
 30
0.0
 10
31.69998931884766
 20
81.69999694824219
 30
0.0
 10
31.39999008178711
 20
82.0999984741211
 30
0.0
 10
30.9999885559082
 20
82.5999984741211
 30
0.0
 10
30.69998931884766
 20
82.99999618530273
 30
0.0
 10
30.29998970031738
 20
83.39999771118164
 30
0.0
 10
29.9999885559082
 20
83.89999771118164
 30
0.0
 10
29.69998931884766
 20
84.39999771118164
 30
0.0
 10
28.9999885559082
 20
85.29999923706055
 30
0.0
 10
28.39999008178711
 20
86.29999923706055
 30
0.0
 10
27.79998970031738
 20
87.39999771118164
 30
0.0
 10
27.69998931884766
 20
87.69999694824219
 30
0.0
 10
27.49999046325684
 20
87.89999771118164
 30
0.0
 10
27.39999008178711
 20
88.19999694824219
 30
0.0
 10
27.39999008178711
 20
88.19999694824219
 30
0.0
 10
27.0
 20
88.29999923706055
 30
0.0
 10
27.0
 20
88.29999923706055
 30
0.0
 10
27.0
 20
88.29999923706055
 30
0.0
 10
27.0
 20
88.29999923706055
 30
0.0
 10
27.0
 20
88.29999923706055
 30
0.0
 10
27.0
 20
88.29999923706055
 30
0.0
 10
27.0
 20
88.29999923706055
 30
0.0
 10
27.0
 20
88.29999923706055
 30
0.0
 10
27.0
 20
88.29999923706055
 30
0.0
 10
27.0
 20
88.39999771118164
 30
0.0
 10
27.0
 20
88.39999771118164
 30
0.0
 10
27.0
 20
88.39999771118164
 30
0.0
 10
27.0
 20
88.49999618530273
 30
0.0
 10
27.0
 20
88.49999618530273
 30
0.0
 10
27.0
 20
88.49999618530273
 30
0.0
 10
26.89999961853027
 20
88.69999694824219
 30
0.0
 10
26.89999961853027
 20
88.69999694824219
 30
0.0
 10
26.89999961853027
 20
88.69999694824219
 30
0.0
 10
26.69999885559082
 20
89.0999984741211
 30
0.0
 10
26.69999885559082
 20
89.0999984741211
 30
0.0
 10
26.69999885559082
 20
89.0999984741211
 30
0.0
 10
26.49999809265137
 20
89.5
 30
0.0
 10
26.49999809265137
 20
89.5
 30
0.0
 10
26.39999771118164
 20
89.79999923706055
 30
0.0
 10
26.29999732971191
 20
90.0
 30
0.0
 10
26.19999885559082
 20
90.29999923706055
 30
0.0
 10
25.79999923706055
 20
91.39999771118164
 30
0.0
 10
25.39999961853027
 20
92.5999984741211
 30
0.0
 10
25.09999847412109
 20
93.79999923706055
 30
0.0
 10
24.59999847412109
 20
96.19999885559082
 30
0.0
 10
24.39999771118164
 20
98.5999984741211
 30
0.0
 10
24.89999771118164
 20
100.8999996185303
 30
0.0
 10
25.39999771118164
 20
103.1999988555908
 30
0.0
 10
26.49999809265137
 20
105.2999992370605
 30
0.0
 10
28.19999694824219
 20
107.0
 30
0.0
 10
29.79999732971191
 20
108.7000007629395
 30
0.0
 10
31.99999618530273
 20
109.8999996185303
 30
0.0
 10
34.19999694824219
 20
110.5
 30
0.0
 10
35.29999542236328
 20
110.8000001907349
 30
0.0
 10
36.39999771118164
 20
111.0
 30
0.0
 10
37.39999771118164
 20
110.8999996185303
 30
0.0
 10
37.69999694824219
 20
110.8999996185303
 30
0.0
 10
37.89999771118164
 20
110.8999996185303
 30
0.0
 10
38.19999694824219
 20
110.7999992370605
 30
0.0
 10
38.29999542236328
 20
110.7999992370605
 30
0.0
 10
38.39999771118164
 20
110.7999992370605
 30
0.0
 10
38.59999847412109
 20
110.6999988555908
 30
0.0
 10
38.59999847412109
 20
110.6999988555908
 30
0.0
 10
38.79999923706055
 20
110.6999988555908
 30
0.0
 10
38.79999923706055
 20
110.6999988555908
 30
0.0
 10
38.79999923706055
 20
110.6999988555908
 30
0.0
 10
39.0
 20
110.5999984741211
 30
0.0
 10
39.0
 20
110.5999984741211
 30
0.0
 10
39.59999847412109
 20
110.4999980926514
 30
0.0
 10
40.09999847412109
 20
110.2999982833862
 30
0.0
 10
40.5
 20
110.0999984741211
 30
0.0
 10
41.0
 20
109.899998664856
 30
0.0
 10
41.29999923706055
 20
109.6999988555908
 30
0.0
 10
41.59999847412109
 20
109.399998664856
 30
0.0
 10
41.89999771118164
 20
109.0999984741211
 30
0.0
 10
42.19999694824219
 20
108.7999992370605
 30
0.0
 10
42.39999771118164
 20
108.3999977111816
 30
0.0
 10
42.39999771118164
 20
108.3999977111816
 30
0.0
 10
42.49999618530273
 20
108.1999969482422
 30
0.0
 10
42.49999618530273
 20
108.1999969482422
 30
0.0
 10
42.49999618530273
 20
108.1999969482422
 30
0.0
 10
42.49999618530273
 20
108.1999969482422
 30
0.0
 10
42.49999618530273
 20
108.1999969482422
 30
0.0
 10
42.49999618530273
 20
108.1999969482422
 30
0.0
 10
42.49999618530273
 20
108.1999969482422
 30
0.0
 10
42.49999618530273
 20
108.1999969482422
 30
0.0
 10
42.49999618530273
 20
108.1999969482422
 30
0.0
 10
42.49999618530273
 20
108.1999969482422
 30
0.0
 10
42.49999618530273
 20
108.1999969482422
 30
0.0
 10
42.49999618530273
 20
108.1999969482422
 30
0.0
 10
42.49999618530273
 20
108.0999965667725
 30
0.0
 10
42.49999618530273
 20
108.0999965667725
 30
0.0
 10
42.49999618530273
 20
108.0999965667725
 30
0.0
 10
42.59999465942383
 20
107.899995803833
 30
0.0
 10
42.59999465942383
 20
107.899995803833
 30
0.0
 10
42.59999465942383
 20
107.899995803833
 30
0.0
 10
42.69999313354492
 20
107.7999954223633
 30
0.0
 10
42.69999313354492
 20
107.7999954223633
 30
0.0
 10
42.79999160766602
 20
107.5999946594238
 30
0.0
 10
42.89999389648438
 20
107.399995803833
 30
0.0
 10
42.89999389648438
 20
107.1999950408936
 30
0.0
 10
42.99999237060547
 20
106.7999954223633
 30
0.0
 10
42.99999237060547
 20
106.399995803833
 30
0.0
 10
42.99999237060547
 20
105.9999942779541
 30
0.0
 10
42.89999389648438
 20
105.1999950408936
 30
0.0
 10
42.59999084472656
 20
104.3999938964844
 30
0.0
 10
42.09999084472656
 20
103.6999950408936
 30
0.0
 10
41.89999008178711
 20
103.399995803833
 30
0.0
 10
41.59999084472656
 20
103.1999950408936
 30
0.0
 10
41.29999160766602
 20
102.899995803833
 30
0.0
 10
40.99999237060547
 20
102.6999950408936
 30
0.0
 10
40.69999313354492
 20
102.4999961853027
 30
0.0
 10
40.29999160766602
 20
102.399995803833
 30
0.0
 10
39.59999084472656
 20
102.1999950408936
 30
0.0
 10
38.99999237060547
 20
102.1999950408936
 30
0.0
 10
38.39999008178711
 20
102.2999954223633
 30
0.0
 10
38.19998931884766
 20
102.2999954223633
 30
0.0
 10
38.09999084472656
 20
102.399995803833
 30
0.0
 10
37.9999885559082
 20
102.399995803833
 30
0.0
 10
37.9999885559082
 20
102.399995803833
 30
0.0
 10
37.9999885559082
 20
102.399995803833
 30
0.0
 10
37.9999885559082
 20
102.399995803833
 30
0.0
 10
37.9999885559082
 20
102.399995803833
 30
0.0
 10
37.9999885559082
 20
102.399995803833
 30
0.0
 10
37.9999885559082
 20
102.399995803833
 30
0.0
 10
37.9999885559082
 20
102.399995803833
 30
0.0
 10
37.9999885559082
 20
102.399995803833
 30
0.0
 10
37.9999885559082
 20
102.399995803833
 30
0.0
 10
37.9999885559082
 20
102.399995803833
 30
0.0
 10
37.89999008178711
 20
102.399995803833
 30
0.0
 10
37.89999008178711
 20
102.399995803833
 30
0.0
 10
37.89999008178711
 20
102.399995803833
 30
0.0
 10
37.79999160766602
 20
102.4999961853027
 30
0.0
 10
37.79999160766602
 20
102.4999961853027
 30
0.0
 10
37.69999313354492
 20
102.4999961853027
 30
0.0
 10
37.69999313354492
 20
102.5999965667725
 30
0.0
 10
37.59999084472656
 20
102.5999965667725
 30
0.0
 10
37.39999008178711
 20
102.6999969482422
 30
0.0
 10
37.09999084472656
 20
102.899995803833
 30
0.0
 10
36.99999237060547
 20
103.0999965667725
 30
0.0
 10
36.59999084472656
 20
103.4999961853027
 30
0.0
 10
36.39999389648438
 20
103.899995803833
 30
0.0
 10
36.29999160766602
 20
104.2999973297119
 30
0.0
 10
36.0
 20
105.0
 30
0.0
 10
36.0
 20
105.3999996185303
 30
0.0
 10
36.0
 20
105.6000003814697
 30
0.0
 10
36.0
 20
105.7000007629395
 30
0.0
 10
36.0
 20
105.8999996185303
 30
0.0
 10
36.0
 20
106.0
 30
0.0
 10
36.0
 20
106.1000003814697
 30
0.0
 10
36.0
 20
106.2000007629395
 30
0.0
 10
36.0
 20
106.2999992370605
 30
0.0
 10
36.0
 20
106.3999996185303
 30
0.0
 10
36.0
 20
106.5
 30
0.0
 10
36.0
 20
106.5
 30
0.0
 10
36.0
 20
106.5
 30
0.0
 10
36.0
 20
106.5
 30
0.0
 10
36.0
 20
106.5
 30
0.0
 10
36.0
 20
106.7000007629395
 30
0.0
 10
35.90000152587891
 20
106.7999992370605
 30
0.0
 10
35.79999923706055
 20
106.8999996185303
 30
0.0
 10
35.59999847412109
 20
107.0
 30
0.0
 10
35.39999771118164
 20
106.8999996185303
 30
0.0
 10
35.39999771118164
 20
106.6999988555908
 30
0.0
 10
35.39999771118164
 20
106.6999988555908
 30
0.0
 10
35.39999771118164
 20
106.5999984741211
 30
0.0
 10
35.29999923706055
 20
106.3999996185303
 30
0.0
 10
35.29999923706055
 20
106.2999992370605
 30
0.0
 10
35.20000076293945
 20
106.1999988555908
 30
0.0
 10
35.20000076293945
 20
106.1000003814697
 30
0.0
 10
35.20000076293945
 20
106.0
 30
0.0
 10
35.10000228881836
 20
105.8000011444092
 30
0.0
 10
35.10000228881836
 20
105.6000003814697
 30
0.0
 10
35.10000228881836
 20
105.2000007629395
 30
0.0
 10
35.10000228881836
 20
104.8000011444092
 30
0.0
 10
35.20000076293945
 20
104.3000011444092
 30
0.0
 10
35.29999923706055
 20
103.8000011444092
 30
0.0
 10
35.60000228881836
 20
103.2000007629395
 30
0.0
 10
36.0
 20
102.7000007629395
 30
0.0
 10
36.20000076293945
 20
102.4000015258789
 30
0.0
 10
36.5
 20
102.2000007629395
 30
0.0
 10
36.79999923706055
 20
102.0
 30
0.0
 10
36.89999771118164
 20
101.8999996185303
 30
0.0
 10
37.0
 20
101.8999996185303
 30
0.0
 10
37.0
 20
101.7999992370605
 30
0.0
 10
37.0
 20
101.7999992370605
 30
0.0
 10
37.09999847412109
 20
101.6999988555908
 30
0.0
 10
37.09999847412109
 20
101.6999988555908
 30
0.0
 10
37.09999847412109
 20
101.6999988555908
 30
0.0
 10
37.19999694824219
 20
101.6999988555908
 30
0.0
 10
37.19999694824219
 20
101.6999988555908
 30
0.0
 10
37.19999694824219
 20
101.6999988555908
 30
0.0
 10
37.19999694824219
 20
101.6999988555908
 30
0.0
 10
37.19999694824219
 20
101.6999988555908
 30
0.0
 10
37.19999694824219
 20
101.6999988555908
 30
0.0
 10
37.19999694824219
 20
101.6999988555908
 30
0.0
 10
37.19999694824219
 20
101.6999988555908
 30
0.0
 10
37.19999694824219
 20
101.6999988555908
 30
0.0
 10
37.19999694824219
 20
101.6999988555908
 30
0.0
 10
37.19999694824219
 20
101.6999988555908
 30
0.0
 10
37.39999771118164
 20
101.5999984741211
 30
0.0
 10
37.59999847412109
 20
101.4999980926514
 30
0.0
 10
37.79999542236328
 20
101.4999980926514
 30
0.0
 10
38.59999465942383
 20
101.1999988555908
 30
0.0
 10
39.49999618530273
 20
101.1999988555908
 30
0.0
 10
40.49999618530273
 20
101.3999977111816
 30
0.0
 10
40.99999618530273
 20
101.4999980926514
 30
0.0
 10
41.49999618530273
 20
101.6999969482422
 30
0.0
 10
41.89999771118164
 20
101.9999980926514
 30
0.0
 10
42.39999771118164
 20
102.2999973297119
 30
0.0
 10
42.79999923706055
 20
102.5999984741211
 30
0.0
 10
43.19999694824219
 20
103.0999984741211
 30
0.0
 10
43.89999771118164
 20
103.8999977111816
 30
0.0
 10
44.49999618530273
 20
104.8999977111816
 30
0.0
 10
44.79999542236328
 20
106.0999984741211
 30
0.0
 10
44.89999389648438
 20
106.6999988555908
 30
0.0
 10
44.99999618530273
 20
107.3999977111816
 30
0.0
 10
44.89999389648438
 20
107.9999980926514
 30
0.0
 10
44.79999542236328
 20
108.2999973297119
 30
0.0
 10
44.79999542236328
 20
108.5999984741211
 30
0.0
 10
44.69999313354492
 20
108.9999980926514
 30
0.0
 10
44.69999313354492
 20
108.9999980926514
 30
0.0
 10
44.59999465942383
 20
109.1999979019165
 30
0.0
 10
44.59999465942383
 20
109.1999979019165
 30
0.0
 10
44.59999465942383
 20
109.1999979019165
 30
0.0
 10
44.49999618530273
 20
109.3999977111816
 30
0.0
 10
44.49999618530273
 20
109.3999977111816
 30
0.0
 10
44.49999618530273
 20
109.3999977111816
 30
0.0
 10
44.49999618530273
 20
109.4999980926514
 30
0.0
 10
44.49999618530273
 20
109.4999980926514
 30
0.0
 10
44.49999618530273
 20
109.4999980926514
 30
0.0
 10
44.39999771118164
 20
109.5999984741211
 30
0.0
 10
44.39999771118164
 20
109.5999984741211
 30
0.0
 10
44.39999771118164
 20
109.5999984741211
 30
0.0
 10
44.29999923706055
 20
109.7999982833862
 30
0.0
 10
44.29999923706055
 20
109.7999982833862
 30
0.0
 10
44.0
 20
110.399998664856
 30
0.0
 10
43.70000076293945
 20
110.9999980926514
 30
0.0
 10
43.20000076293945
 20
111.4999980926514
 30
0.0
 10
42.70000076293945
 20
111.9999980926514
 30
0.0
 10
42.10000228881836
 20
112.4999980926514
 30
0.0
 10
41.5
 20
112.7999982833862
 30
0.0
 10
40.90000152587891
 20
113.0999984741211
 30
0.0
 10
40.29999923706055
 20
113.399998664856
 30
0.0
 10
39.70000076293945
 20
113.5999984741211
 30
0.0
 10
39.70000076293945
 20
113.5999984741211
 30
0.0
 10
39.5
 20
113.6999988555908
 30
0.0
 10
39.5
 20
113.6999988555908
 30
0.0
 10
39.40000152587891
 20
113.6999988555908
 30
0.0
 10
39.29999923706055
 20
113.7999992370605
 30
0.0
 10
39.20000076293945
 20
113.7999992370605
 30
0.0
 10
39.0
 20
113.8999996185303
 30
0.0
 10
38.79999923706055
 20
113.8999996185303
 30
0.0
 10
38.70000076293945
 20
113.8999996185303
 30
0.0
 10
38.29999923706055
 20
114.0
 30
0.0
 10
38.0
 20
114.0999994277954
 30
0.0
 10
37.60000228881836
 20
114.0999994277954
 30
0.0
 10
36.20000076293945
 20
114.2999992370605
 30
0.0
 10
34.70000076293945
 20
114.1999998092651
 30
0.0
 10
33.30000305175781
 20
113.8999996185303
 30
0.0
 10
30.50000381469727
 20
113.2999992370605
 30
0.0
 10
27.70000267028809
 20
112.0
 30
0.0
 10
25.40000343322754
 20
110.0
 30
0.0
 10
23.10000419616699
 20
108.0
 30
0.0
 10
21.30000305175781
 20
105.2000007629395
 30
0.0
 10
20.40000343322754
 20
102.1000003814697
 30
0.0
 10
19.50000381469727
 20
99.0
 30
0.0
 10
19.50000381469727
 20
95.79999923706055
 30
0.0
 10
20.00000381469727
 20
92.9000015258789
 30
0.0
 10
20.20000457763672
 20
91.4000015258789
 30
0.0
 10
20.60000419616699
 20
90.0
 30
0.0
 10
21.00000381469727
 20
88.60000228881836
 30
0.0
 10
21.10000419616699
 20
88.30000305175781
 30
0.0
 10
21.20000457763672
 20
87.9000015258789
 30
0.0
 10
21.30000305175781
 20
87.60000228881836
 30
0.0
 10
21.30000305175781
 20
87.60000228881836
 30
0.0
 10
21.50000381469727
 20
87.10000228881836
 30
0.0
 10
21.50000381469727
 20
87.10000228881836
 30
0.0
 10
21.50000381469727
 20
87.10000228881836
 30
0.0
 10
21.70000457763672
 20
86.60000228881836
 30
0.0
 10
21.70000457763672
 20
86.60000228881836
 30
0.0
 10
21.90000534057617
 20
85.9000015258789
 30
0.0
 10
22.20000457763672
 20
85.30000305175781
 30
0.0
 10
22.40000534057617
 20
84.60000228881836
 30
0.0
 10
23.40000534057617
 20
82.00000381469727
 30
0.0
 10
24.40000534057617
 20
79.60000228881836
 30
0.0
 10
25.70000457763672
 20
77.4000015258789
 30
0.0
 10
25.90000534057617
 20
77.10000228881836
 30
0.0
 10
26.10000419616699
 20
76.80000305175781
 30
0.0
 10
26.30000495910645
 20
76.5
 30
0.0
 10
29.20000457763672
 20
71.79999923706055
 30
0.0
 10
32.20000457763672
 20
71.0999984741211
 30
0.0
 10
30.50000381469727
 20
69.29999923706055
 30
0.0
 10
29.60000419616699
 20
68.39999771118164
 30
0.0
 10
28.10000419616699
 20
68.0999984741211
 30
0.0
 10
26.50000381469727
 20
68.29999923706055
 30
0.0
 10
26.50000381469727
 20
68.29999923706055
 30
0.0
 10
26.40000343322754
 20
68.29999923706055
 30
0.0
 10
26.40000343322754
 20
68.29999923706055
 30
0.0
 10
26.30000305175781
 20
68.29999923706055
 30
0.0
 10
26.20000267028809
 20
68.29999923706055
 30
0.0
 10
26.10000419616699
 20
68.29999923706055
 30
0.0
 10
25.90000343322754
 20
68.29999923706055
 30
0.0
 10
25.80000495910645
 20
68.39999771118164
 30
0.0
 10
25.60000419616699
 20
68.39999771118164
 30
0.0
 10
25.50000381469727
 20
68.39999771118164
 30
0.0
 10
25.40000343322754
 20
68.39999771118164
 30
0.0
 10
25.30000495910645
 20
68.49999618530273
 30
0.0
 10
25.30000495910645
 20
68.49999618530273
 30
0.0
 10
25.20000457763672
 20
68.49999618530273
 30
0.0
 10
25.20000457763672
 20
68.49999618530273
 30
0.0
 10
24.40000534057617
 20
68.69999694824219
 30
0.0
 10
23.70000457763672
 20
68.99999618530273
 30
0.0
 10
23.00000381469727
 20
69.29999542236328
 30
0.0
 10
23.00000381469727
 20
69.29999542236328
 30
0.0
 10
22.70000457763672
 20
69.49999618530273
 30
0.0
 10
22.70000457763672
 20
69.49999618530273
 30
0.0
 10
21.50000381469727
 20
70.09999465942383
 30
0.0
 10
20.30000495910645
 20
71.09999465942383
 30
0.0
 10
19.40000534057617
 20
72.39999771118164
 30
0.0
 10
18.5000057220459
 20
73.69999694824219
 30
0.0
 10
17.70000457763672
 20
75.19999694824219
 30
0.0
 10
16.90000534057617
 20
76.89999771118164
 30
0.0
 10
16.10000610351562
 20
78.5999984741211
 30
0.0
 10
15.40000534057617
 20
80.29999923706055
 30
0.0
 10
14.30000495910645
 20
82.0999984741211
 30
0.0
 10
13.70000457763672
 20
83.0
 30
0.0
 10
12.90000534057617
 20
83.89999771118164
 30
0.0
 10
11.90000534057617
 20
84.5
 30
0.0
 10
11.40000534057617
 20
84.79999923706055
 30
0.0
 10
10.80000495910645
 20
85.0999984741211
 30
0.0
 10
10.20000553131104
 20
85.20000076293945
 30
0.0
 10
9.600005149841309
 20
85.29999923706055
 30
0.0
 10
9.100005149841309
 20
85.4000015258789
 30
0.0
 10
8.500005722045898
 20
85.4000015258789
 30
0.0
 10
8.000005722045898
 20
85.4000015258789
 30
0.0
 10
7.500005722045898
 20
85.30000305175781
 30
0.0
 10
7.000005722045898
 20
85.20000076293945
 30
0.0
 10
7.000005722045898
 20
85.20000076293945
 30
0.0
 10
6.600005626678467
 20
85.10000228881836
 30
0.0
 10
6.600005626678467
 20
85.10000228881836
 30
0.0
 10
6.600005626678467
 20
85.10000228881836
 30
0.0
 10
6.300005435943604
 20
85.00000381469727
 30
0.0
 10
6.300005435943604
 20
85.00000381469727
 30
0.0
 10
6.00000524520874
 20
84.90000534057617
 30
0.0
 10
5.800005435943604
 20
84.80000305175781
 30
0.0
 10
5.600005626678467
 20
84.70000457763672
 30
0.0
 10
4.700005531311035
 20
84.30000305175781
 30
0.0
 10
3.800005674362183
 20
83.70000457763672
 30
0.0
 10
3.300005674362183
 20
82.90000534057617
 30
0.0
 10
2.700005531311035
 20
82.10000610351562
 30
0.0
 10
2.500005722045898
 20
81.20000457763672
 30
0.0
 10
2.40000581741333
 20
80.30000686645508
 30
0.0
 10
2.40000581741333
 20
79.50000762939453
 30
0.0
 10
2.600005865097046
 20
78.70000839233398
 30
0.0
 10
2.90000581741333
 20
78.00000762939453
 30
0.0
 10
3.200005769729614
 20
77.30000686645508
 30
0.0
 10
3.700005769729614
 20
76.80000686645508
 30
0.0
 10
4.300005912780762
 20
76.50000762939453
 30
0.0
 10
4.90000581741333
 20
76.20000839233398
 30
0.0
 10
5.500005722045898
 20
76.10000610351562
 30
0.0
 10
6.000005722045898
 20
76.10000610351562
 30
0.0
 10
6.500005722045898
 20
76.10000610351562
 30
0.0
 10
6.90000581741333
 20
76.30000686645508
 30
0.0
 10
7.300005912780762
 20
76.40000534057617
 30
0.0
 10
7.600006103515625
 20
76.60000610351562
 30
0.0
 10
7.90000581741333
 20
76.70000457763672
 30
0.0
 10
8.100006103515625
 20
76.90000534057617
 30
0.0
 10
8.300005912780762
 20
77.00000381469727
 30
0.0
 10
8.400006294250488
 20
77.20000457763672
 30
0.0
 10
8.500005722045898
 20
77.20000457763672
 30
0.0
 10
8.600006103515625
 20
77.30000305175781
 30
0.0
 10
8.600006103515625
 20
77.30000305175781
 30
0.0
 10
8.600006103515625
 20
77.30000305175781
 30
0.0
 10
8.700006484985352
 20
77.4000015258789
 30
0.0
 10
8.800005912780762
 20
77.60000228881836
 30
0.0
 10
8.700006484985352
 20
77.70000457763672
 30
0.0
 10
8.600006103515625
 20
77.90000534057617
 30
0.0
 10
8.400006294250488
 20
77.90000534057617
 30
0.0
 10
8.200006484985352
 20
77.80000305175781
 30
0.0
 10
8.200006484985352
 20
77.80000305175781
 30
0.0
 10
8.200006484985352
 20
77.80000305175781
 30
0.0
 10
8.200006484985352
 20
77.80000305175781
 30
0.0
 10
8.200006484985352
 20
77.80000305175781
 30
0.0
 10
8.200006484985352
 20
77.80000305175781
 30
0.0
 10
8.100006103515625
 20
77.70000457763672
 30
0.0
 10
8.0
 20
78.0
 30
0.0
 10
7.900000095367432
 20
78.0
 30
0.0
 10
7.699999809265137
 20
77.9000015258789
 30
0.0
 10
7.299999713897705
 20
77.70000076293945
 30
0.0
 10
6.699999809265137
 20
77.5
 30
0.0
 10
6.099999904632568
 20
77.60000228881836
 30
0.0
 10
5.5
 20
77.70000076293945
 30
0.0
 10
4.899999618530273
 20
78.20000076293945
 30
0.0
 10
4.699999809265137
 20
79.00000381469727
 30
0.0
 10
4.599999904632568
 20
79.40000534057617
 30
0.0
 10
4.599999904632568
 20
79.90000534057617
 30
0.0
 10
4.699999809265137
 20
80.30000305175781
 30
0.0
 10
4.799999713897705
 20
80.70000457763672
 30
0.0
 10
5.0
 20
81.10000228881836
 30
0.0
 10
5.399999618530273
 20
81.4000015258789
 30
0.0
 10
5.699999809265137
 20
81.70000076293945
 30
0.0
 10
6.199999809265137
 20
81.9000015258789
 30
0.0
 10
6.699999809265137
 20
82.0
 30
0.0
 10
6.799999713897705
 20
82.0
 30
0.0
 10
7.0
 20
82.0
 30
0.0
 10
7.099999904632568
 20
82.0999984741211
 30
0.0
 10
7.099999904632568
 20
82.0999984741211
 30
0.0
 10
7.400000095367432
 20
82.0999984741211
 30
0.0
 10
7.400000095367432
 20
82.0999984741211
 30
0.0
 10
7.400000095367432
 20
82.0999984741211
 30
0.0
 10
7.400000095367432
 20
82.0999984741211
 30
0.0
 10
7.400000095367432
 20
82.0999984741211
 30
0.0
 10
7.400000095367432
 20
82.0999984741211
 30
0.0
 10
7.300000190734863
 20
82.0999984741211
 30
0.0
 10
7.400000095367432
 20
82.0999984741211
 30
0.0
 10
7.400000095367432
 20
82.0999984741211
 30
0.0
 10
7.400000095367432
 20
82.0999984741211
 30
0.0
 10
7.400000095367432
 20
82.0999984741211
 30
0.0
 10
7.400000095367432
 20
82.0999984741211
 30
0.0
 10
7.5
 20
82.0999984741211
 30
0.0
 10
7.5
 20
82.0999984741211
 30
0.0
 10
7.5
 20
82.0999984741211
 30
0.0
 10
7.599999904632568
 20
82.0999984741211
 30
0.0
 10
7.599999904632568
 20
82.0999984741211
 30
0.0
 10
7.900000095367432
 20
82.0999984741211
 30
0.0
 10
8.199999809265137
 20
82.0999984741211
 30
0.0
 10
8.5
 20
82.0
 30
0.0
 10
9.100000381469727
 20
81.9000015258789
 30
0.0
 10
9.5
 20
81.70000076293945
 30
0.0
 10
9.899999618530273
 20
81.4000015258789
 30
0.0
 10
10.29999923706055
 20
81.10000228881836
 30
0.0
 10
10.59999942779541
 20
80.60000228881836
 30
0.0
 10
10.89999961853027
 20
80.0
 30
0.0
 10
11.19999980926514
 20
79.4000015258789
 30
0.0
 10
11.5
 20
78.5999984741211
 30
0.0
 10
11.69999980926514
 20
77.79999923706055
 30
0.0
 10
12.0
 20
76.89999771118164
 30
0.0
 10
12.19999980926514
 20
76.0999984741211
 30
0.0
 10
12.5
 20
75.20000076293945
 30
0.0
 10
13.10000038146973
 20
73.4000015258789
 30
0.0
 10
13.69999980926514
 20
71.4000015258789
 30
0.0
 10
14.80000019073486
 20
69.5
 30
0.0
 10
15.80000019073486
 20
67.5999984741211
 30
0.0
 10
17.20000076293945
 20
65.70000076293945
 30
0.0
 10
19.10000038146973
 20
64.20000076293945
 30
0.0
 10
19.10000038146973
 20
64.20000076293945
 30
0.0
 10
19.80000114440918
 20
63.70000076293945
 30
0.0
 10
19.80000114440918
 20
63.70000076293945
 30
0.0
 10
20.10000038146973
 20
63.5
 30
0.0
 10
20.30000114440918
 20
63.29999923706055
 30
0.0
 10
20.60000038146973
 20
63.20000076293945
 30
0.0
 10
21.10000038146973
 20
62.90000152587891
 30
0.0
 10
21.60000038146973
 20
62.60000228881836
 30
0.0
 10
22.20000076293945
 20
62.29999923706055
 30
0.0
 10
23.30000114440918
 20
61.79999923706055
 30
0.0
 10
24.5
 20
61.5
 30
0.0
 10
25.60000038146973
 20
61.29999923706055
 30
0.0
 10
26.30000114440918
 20
61.20000076293945
 30
0.0
 10
26.89999961853027
 20
61.20000076293945
 30
0.0
 10
27.60000038146973
 20
61.20000076293945
 30
0.0
 10
27.60000038146973
 20
61.20000076293945
 30
0.0
 10
27.60000038146973
 20
61.20000076293945
 30
0.0
 10
27.60000038146973
 20
61.20000076293945
 30
0.0
 10
27.60000038146973
 20
61.20000076293945
 30
0.0
 10
30.30000114440918
 20
61.20000076293945
 30
0.0
 10
31.39999961853027
 20
60.0
 30
0.0
 10
31.69999885559082
 20
59.59999847412109
 30
0.0
 10
32.09999847412109
 20
59.19999694824219
 30
0.0
 10
31.89999961853027
 20
58.19999694824219
 30
0.0
 10
31.69999885559082
 20
57.0
 30
0.0
 10
31.0
 20
56.39999389648438
 30
0.0
 10
29.29999923706055
 20
56.5
 30
0.0
 10
29.29999923706055
 20
56.5
 30
0.0
 10
29.29999923706055
 20
56.5
 30
0.0
 10
29.29999923706055
 20
56.5
 30
0.0
 10
27.89999961853027
 20
56.59999847412109
 30
0.0
 10
26.39999961853027
 20
56.69999694824219
 30
0.0
 10
24.89999961853027
 20
56.5
 30
0.0
 10
23.39999961853027
 20
56.40000152587891
 30
0.0
 10
22.0
 20
56.0
 30
0.0
 10
20.79999923706055
 20
55.40000152587891
 30
0.0
 10
20.19999885559082
 20
55.09999847412109
 30
0.0
 10
19.59999847412109
 20
54.80000305175781
 30
0.0
 10
19.0
 20
54.40000152587891
 30
0.0
 10
18.70000076293945
 20
54.20000457763672
 30
0.0
 10
18.39999961853027
 20
53.90000152587891
 30
0.0
 10
18.20000076293945
 20
53.70000457763672
 30
0.0
 10
18.0
 20
53.40000152587891
 30
0.0
 10
17.80000114440918
 20
53.10000610351562
 30
0.0
 10
17.60000038146973
 20
52.80000305175781
 30
0.0
 10
17.30000114440918
 20
52.20000457763672
 30
0.0
 10
17.20000076293945
 20
51.40000152587891
 30
0.0
 10
17.20000076293945
 20
50.80000305175781
 30
0.0
 10
17.30000114440918
 20
50.10000610351562
 30
0.0
 10
17.5
 20
49.60000610351562
 30
0.0
 10
17.90000152587891
 20
49.10000610351562
 30
0.0
 10
18.30000114440918
 20
48.70000457763672
 30
0.0
 10
18.70000076293945
 20
48.30000305175781
 30
0.0
 10
19.20000076293945
 20
48.20000457763672
 30
0.0
 10
19.70000076293945
 20
48.00000762939453
 30
0.0
 10
20.10000038146973
 20
48.00000762939453
 30
0.0
 10
20.5
 20
48.10000610351562
 30
0.0
 10
21.29999923706055
 20
48.30000305175781
 30
0.0
 10
21.70000076293945
 20
48.60000610351562
 30
0.0
 10
22.0
 20
48.80000305175781
 30
0.0
 10
22.10000038146973
 20
48.90000152587891
 30
0.0
 10
22.20000076293945
 20
49.0
 30
0.0
 10
22.29999923706055
 20
49.10000610351562
 30
0.0
 10
22.39999961853027
 20
49.20000457763672
 30
0.0
 10
22.39999961853027
 20
49.20000457763672
 30
0.0
 10
22.39999961853027
 20
49.20000457763672
 30
0.0
 10
22.5
 20
49.30000305175781
 30
0.0
 10
22.5
 20
49.50000762939453
 30
0.0
 10
22.5
 20
49.60000610351562
 30
0.0
 10
22.39999961853027
 20
49.80000305175781
 30
0.0
 10
22.20000076293945
 20
49.80000305175781
 30
0.0
 10
22.0
 20
49.70000457763672
 30
0.0
 10
22.0
 20
49.70000457763672
 30
0.0
 10
22.0
 20
49.70000457763672
 30
0.0
 10
22.0
 20
49.70000457763672
 30
0.0
 10
22.0
 20
49.70000457763672
 30
0.0
 10
22.0
 20
49.70000457763672
 30
0.0
 10
21.89999961853027
 20
49.60000610351562
 30
0.0
 10
21.79999923706055
 20
49.60000610351562
 30
0.0
 10
21.69999885559082
 20
49.50000762939453
 30
0.0
 10
21.60000038146973
 20
49.40000915527344
 30
0.0
 10
21.30000114440918
 20
49.30001068115234
 30
0.0
 10
20.89999961853027
 20
49.10000610351562
 30
0.0
 10
20.5
 20
49.10000610351562
 30
0.0
 10
20.29999923706055
 20
49.10000610351562
 30
0.0
 10
20.0
 20
49.20000457763672
 30
0.0
 10
19.79999923706055
 20
49.30000305175781
 30
0.0
 10
19.59999847412109
 20
49.40000152587891
 30
0.0
 10
19.39999961853027
 20
49.60000610351562
 30
0.0
 10
19.29999923706055
 20
49.90000152587891
 30
0.0
 10
19.09999847412109
 20
50.40000152587891
 30
0.0
 10
19.09999847412109
 20
51.09999847412109
 30
0.0
 10
19.5
 20
51.59999847412109
 30
0.0
 10
19.70000076293945
 20
51.90000152587891
 30
0.0
 10
20.0
 20
52.09999847412109
 30
0.0
 10
20.39999961853027
 20
52.19999694824219
 30
0.0
 10
20.79999923706055
 20
52.39999389648438
 30
0.0
 10
21.29999923706055
 20
52.5
 30
0.0
 10
21.79999923706055
 20
52.59999847412109
 30
0.0
 10
22.79999923706055
 20
52.79999542236328
 30
0.0
 10
23.89999961853027
 20
52.79999542236328
 30
0.0
 10
25.09999847412109
 20
52.69999694824219
 30
0.0
 10
26.29999923706055
 20
52.59999847412109
 30
0.0
 10
27.49999809265137
 20
52.29999542236328
 30
0.0
 10
28.69999885559082
 20
52.0
 30
0.0
 10
29.29999923706055
 20
51.80000305175781
 30
0.0
 10
29.99999809265137
 20
51.69999694824219
 30
0.0
 10
30.69999885559082
 20
51.5
 30
0.0
 10
30.79999923706055
 20
51.5
 30
0.0
 10
30.89999961853027
 20
51.40000152587891
 30
0.0
 10
30.99999809265137
 20
51.40000152587891
 30
0.0
 10
34.89999771118164
 20
50.30000305175781
 30
0.0
 10
39.79999923706055
 20
46.09999847412109
 30
0.0
 10
36.39999771118164
 20
41.30000305175781
 30
0.0
 10
36.29999923706055
 20
41.20000457763672
 30
0.0
 10
36.19999694824219
 20
41.0
 30
0.0
 10
35.99999618530273
 20
40.90000152587891
 30
0.0
 10
35.19999694824219
 20
40.09999847412109
 30
0.0
 10
34.19999694824219
 20
39.5
 30
0.0
 10
32.99999618530273
 20
39.09999847412109
 30
0.0
 10
32.69999694824219
 20
39.0
 30
0.0
 10
32.39999771118164
 20
38.90000152587891
 30
0.0
 10
32.09999465942383
 20
38.79999542236328
 30
0.0
 10
31.89999389648438
 20
38.79999542236328
 30
0.0
 10
31.79999542236328
 20
38.69999694824219
 30
0.0
 10
31.59999465942383
 20
38.69999694824219
 30
0.0
 10
31.59999465942383
 20
38.69999694824219
 30
0.0
 10
31.19999504089355
 20
38.59999847412109
 30
0.0
 10
31.19999504089355
 20
38.59999847412109
 30
0.0
 10
30.69999504089355
 20
38.5
 30
0.0
 10
30.19999504089355
 20
38.59999847412109
 30
0.0
 10
29.69999504089355
 20
38.69999694824219
 30
0.0
 10
28.69999504089355
 20
38.89999389648438
 30
0.0
 10
27.69999504089355
 20
39.5
 30
0.0
 10
27.19999504089355
 20
40.19999694824219
 30
0.0
 10
26.89999580383301
 20
40.5
 30
0.0
 10
26.79999542236328
 20
40.89999389648438
 30
0.0
 10
26.79999542236328
 20
41.29999542236328
 30
0.0
 10
26.79999542236328
 20
41.29999542236328
 30
0.0
 10
26.79999542236328
 20
41.39999389648438
 30
0.0
 10
26.79999542236328
 20
41.39999389648438
 30
0.0
 10
26.79999542236328
 20
41.49999237060547
 30
0.0
 10
26.79999542236328
 20
41.49999237060547
 30
0.0
 10
26.79999542236328
 20
41.59999084472656
 30
0.0
 10
26.79999542236328
 20
41.69998931884766
 30
0.0
 10
26.79999542236328
 20
41.79998779296875
 30
0.0
 10
26.89999580383301
 20
41.89999389648438
 30
0.0
 10
26.99999618530273
 20
42.09999084472656
 30
0.0
 10
27.09999656677246
 20
42.29999542236328
 30
0.0
 10
27.19999504089355
 20
42.39999389648438
 30
0.0
 10
27.59999465942383
 20
43.09999084472656
 30
0.0
 10
28.29999542236328
 20
43.39999389648438
 30
0.0
 10
28.79999542236328
 20
43.49999237060547
 30
0.0
 10
29.29999542236328
 20
43.59999084472656
 30
0.0
 10
29.69999504089355
 20
43.39999389648438
 30
0.0
 10
29.99999618530273
 20
43.19998931884766
 30
0.0
 10
30.09999656677246
 20
43.09999084472656
 30
0.0
 10
30.19999694824219
 20
42.99999237060547
 30
0.0
 10
30.29999542236328
 20
42.99999237060547
 30
0.0
 10
30.39999580383301
 20
42.89999389648438
 30
0.0
 10
30.39999580383301
 20
42.89999389648438
 30
0.0
 10
30.39999580383301
 20
42.89999389648438
 30
0.0
 10
30.39999580383301
 20
42.89999389648438
 30
0.0
 10
30.39999580383301
 20
42.89999389648438
 30
0.0
 10
30.39999580383301
 20
42.89999389648438
 30
0.0
 10
30.49999618530273
 20
42.79999542236328
 30
0.0
 10
30.69999504089355
 20
42.79999542236328
 30
0.0
 10
30.89999580383301
 20
42.89999389648438
 30
0.0
 10
30.99999618530273
 20
42.99999237060547
 30
0.0
 10
31.09999656677246
 20
43.19999694824219
 30
0.0
 10
30.99999618530273
 20
43.39999389648438
 30
0.0
 10
30.99999618530273
 20
43.39999389648438
 30
0.0
 10
30.99999618530273
 20
43.39999389648438
 30
0.0
 10
30.89999580383301
 20
43.49999237060547
 30
0.0
 10
30.79999542236328
 20
43.59999084472656
 30
0.0
 10
30.69999504089355
 20
43.69998931884766
 30
0.0
 10
30.59999656677246
 20
43.79999542236328
 30
0.0
 10
30.39999580383301
 20
43.89999389648438
 30
0.0
 10
30.19999694824219
 20
44.09999847412109
 30
0.0
 10
29.99999618530273
 20
44.19999694824219
 30
0.0
 10
29.69999694824219
 20
44.29999542236328
 30
0.0
 10
29.29999542236328
 20
44.39999389648438
 30
0.0
 10
28.89999580383301
 20
44.39999389648438
 30
0.0
 10
28.09999656677246
 20
44.39999389648438
 30
0.0
 10
27.09999656677246
 20
43.89999389648438
 30
0.0
 10
26.39999580383301
 20
43.09999084472656
 30
0.0
 10
26.19999504089355
 20
42.89999389648438
 30
0.0
 10
26.09999656677246
 20
42.59999084472656
 30
0.0
 10
25.89999580383301
 20
42.39999389648438
 30
0.0
 10
25.79999542236328
 20
42.29999542236328
 30
0.0
 10
25.79999542236328
 20
42.09999084472656
 30
0.0
 10
25.69999504089355
 20
41.99999237060547
 30
0.0
 10
25.69999504089355
 20
41.89999389648438
 30
0.0
 10
25.69999504089355
 20
41.89999389648438
 30
0.0
 10
25.59999465942383
 20
41.79999542236328
 30
0.0
 10
25.59999465942383
 20
41.79999542236328
 30
0.0
 10
25.4999942779541
 20
41.59999847412109
 30
0.0
 10
25.4999942779541
 20
41.59999847412109
 30
0.0
 10
25.29999351501465
 20
40.90000152587891
 30
0.0
 10
25.39999389648438
 20
40.19999694824219
 30
0.0
 10
25.69999504089355
 20
39.5
 30
0.0
 10
25.9999942779541
 20
38.80000305175781
 30
0.0
 10
26.39999580383301
 20
38.19999694824219
 30
0.0
 10
26.9999942779541
 20
37.69999694824219
 30
0.0
 10
27.4999942779541
 20
37.19999694824219
 30
0.0
 10
28.19999504089355
 20
36.69999694824219
 30
0.0
 10
28.89999389648438
 20
36.39999389648438
 30
0.0
 10
29.59999465942383
 20
36.09999084472656
 30
0.0
 10
30.39999389648438
 20
35.79999542236328
 30
0.0
 10
31.39999389648438
 20
35.69999694824219
 30
0.0
 10
31.69999313354492
 20
35.69999694824219
 30
0.0
 10
31.69999313354492
 20
35.69999694824219
 30
0.0
 10
31.9999942779541
 20
35.69999694824219
 30
0.0
 10
32.19999313354492
 20
35.69999694824219
 30
0.0
 10
32.39999389648438
 20
35.69999694824219
 30
0.0
 10
32.59999465942383
 20
35.69999694824219
 30
0.0
 10
32.99999618530273
 20
35.69999694824219
 30
0.0
 10
33.39999389648438
 20
35.69999694824219
 30
0.0
 10
33.79999542236328
 20
35.79999542236328
 30
0.0
 10
34.59999465942383
 20
35.89999389648438
 30
0.0
 10
35.49999618530273
 20
36.09999847412109
 30
0.0
 10
36.39999389648438
 20
36.39999389648438
 30
0.0
 10
37.29999160766602
 20
36.69998931884766
 30
0.0
 10
38.09999465942383
 20
37.09999084472656
 30
0.0
 10
38.89999389648438
 20
37.59999084472656
 30
0.0
 10
40.49999237060547
 20
38.59999084472656
 30
0.0
 10
41.69999313354492
 20
40.09999084472656
 30
0.0
 10
42.69999313354492
 20
41.49999237060547
 30
0.0
 10
43.19999313354492
 20
42.19998931884766
 30
0.0
 10
43.69999313354492
 20
42.89999389648438
 30
0.0
 10
44.09999465942383
 20
43.59999084472656
 30
0.0
 10
44.39999389648438
 20
43.99999237060547
 30
0.0
 10
44.59999465942383
 20
44.39999389648438
 30
0.0
 10
44.79999542236328
 20
44.79998779296875
 30
0.0
 10
45.89999389648438
 20
46.29998779296875
 30
0.0
 10
47.89999389648438
 20
47.59999084472656
 30
0.0
 10
50.09999465942383
 20
47.89998626708984
 30
0.0
 10
52.59999465942383
 20
47.79998779296875
 30
0.0
 10
54.89999389648438
 20
46.39998626708984
 30
0.0
 10
56.19999313354492
 20
44.79998779296875
 30
0.0
 10
56.39999389648438
 20
44.39998626708984
 30
0.0
 10
56.69999313354492
 20
43.99998474121094
 30
0.0
 10
56.99999237060547
 20
43.59999084472656
 30
0.0
 10
57.39999389648438
 20
42.89999389648438
 30
0.0
 10
57.89999389648438
 20
42.19998931884766
 30
0.0
 10
58.39999389648438
 20
41.49999237060547
 30
0.0
 10
59.39999389648438
 20
40.09999084472656
 30
0.0
 10
60.69999313354492
 20
38.69998931884766
 30
0.0
 10
62.29999542236328
 20
37.59999084472656
 30
0.0
 10
63.09999465942383
 20
37.09999084472656
 30
0.0
 10
63.89999389648438
 20
36.69998931884766
 30
0.0
 10
64.79999542236328
 20
36.39999389648438
 30
0.0
 10
65.69999694824219
 20
36.09999084472656
 30
0.0
 10
66.49999237060547
 20
35.89999389648438
 30
0.0
 10
67.39999389648438
 20
35.79999542236328
 30
0.0
 10
67.79999542236328
 20
35.79999542236328
 30
0.0
 10
68.19999694824219
 20
35.69999694824219
 30
0.0
 10
68.59999084472656
 20
35.69999694824219
 30
0.0
 10
68.79998779296875
 20
35.69999694824219
 30
0.0
 10
68.99999237060547
 20
35.69999694824219
 30
0.0
 10
69.19998931884766
 20
35.69999694824219
 30
0.0
 10
69.49999237060547
 20
35.69999694824219
 30
0.0
 10
69.49999237060547
 20
35.69999694824219
 30
0.0
 10
69.79998779296875
 20
35.69999694824219
 30
0.0
 10
70.69998931884766
 20
35.79999542236328
 30
0.0
 10
71.49998474121094
 20
36.0
 30
0.0
 10
72.19998931884766
 20
36.39999389648438
 30
0.0
 10
72.89998626708984
 20
36.69999694824219
 30
0.0
 10
73.59999084472656
 20
37.19999694824219
 30
0.0
 10
74.09999084472656
 20
37.69999694824219
 30
0.0
 10
74.59999084472656
 20
38.19999694824219
 30
0.0
 10
75.09999084472656
 20
38.89999389648438
 30
0.0
 10
75.29998779296875
 20
39.5
 30
0.0
 10
75.59999084472656
 20
40.19999694824219
 30
0.0
 10
75.59999084472656
 20
41.0
 30
0.0
 10
75.49998474121094
 20
41.59999847412109
 30
0.0
 10
75.49998474121094
 20
41.59999847412109
 30
0.0
 10
75.0
 20
42.0
 30
0.0
 10
75.0
 20
42.0
 30
0.0
 10
75.0
 20
42.09999847412109
 30
0.0
 10
75.0
 20
42.09999847412109
 30
0.0
 10
74.9000015258789
 20
42.19999694824219
 30
0.0
 10
74.80000305175781
 20
42.39999389648438
 30
0.0
 10
74.80000305175781
 20
42.5
 30
0.0
 10
74.70000457763672
 20
42.59999847412109
 30
0.0
 10
74.60000610351562
 20
42.90000152587891
 30
0.0
 10
74.4000015258789
 20
43.09999847412109
 30
0.0
 10
74.20000457763672
 20
43.29999542236328
 30
0.0
 10
73.50000762939453
 20
44.09999847412109
 30
0.0
 10
72.60000610351562
 20
44.59999847412109
 30
0.0
 10
71.70000457763672
 20
44.59999847412109
 30
0.0
 10
71.30000305175781
 20
44.59999847412109
 30
0.0
 10
70.9000015258789
 20
44.5
 30
0.0
 10
70.60000610351562
 20
44.40000152587891
 30
0.0
 10
70.30000305175781
 20
44.30000305175781
 30
0.0
 10
70.10000610351562
 20
44.09999847412109
 30
0.0
 10
70.00000762939453
 20
44.0
 30
0.0
 10
69.80001068115234
 20
43.90000152587891
 30
0.0
 10
69.70000457763672
 20
43.69999694824219
 30
0.0
 10
69.70000457763672
 20
43.69999694824219
 30
0.0
 10
69.60000610351562
 20
43.59999847412109
 30
0.0
 10
69.60000610351562
 20
43.59999847412109
 30
0.0
 10
69.60000610351562
 20
43.59999847412109
 30
0.0
 10
69.50000762939453
 20
43.5
 30
0.0
 10
69.50000762939453
 20
43.29999542236328
 30
0.0
 10
69.60000610351562
 20
43.09999847412109
 30
0.0
 10
69.70000457763672
 20
43.0
 30
0.0
 10
70.00000762939453
 20
43.0
 30
0.0
 10
70.10000610351562
 20
43.09999847412109
 30
0.0
 10
70.10000610351562
 20
43.09999847412109
 30
0.0
 10
70.10000610351562
 20
43.09999847412109
 30
0.0
 10
70.10000610351562
 20
43.09999847412109
 30
0.0
 10
70.10000610351562
 20
43.09999847412109
 30
0.0
 10
70.10000610351562
 20
43.09999847412109
 30
0.0
 10
70.20000457763672
 20
43.19999694824219
 30
0.0
 10
70.30000305175781
 20
43.29999542236328
 30
0.0
 10
70.30000305175781
 20
43.29999542236328
 30
0.0
 10
70.50000762939453
 20
43.39999389648438
 30
0.0
 10
70.70000457763672
 20
43.59999084472656
 30
0.0
 10
71.20000457763672
 20
43.79999542236328
 30
0.0
 10
71.70000457763672
 20
43.69999694824219
 30
0.0
 10
72.20000457763672
 20
43.59999847412109
 30
0.0
 10
72.9000015258789
 20
43.29999542236328
 30
0.0
 10
73.30000305175781
 20
42.59999847412109
 30
0.0
 10
73.4000015258789
 20
42.40000152587891
 30
0.0
 10
73.5
 20
42.29999542236328
 30
0.0
 10
73.60000610351562
 20
42.09999847412109
 30
0.0
 10
73.60000610351562
 20
42.0
 30
0.0
 10
73.70000457763672
 20
41.90000152587891
 30
0.0
 10
73.70000457763672
 20
41.79999542236328
 30
0.0
 10
73.70000457763672
 20
41.79999542236328
 30
0.0
 10
73.70000457763672
 20
41.69999694824219
 30
0.0
 10
73.70000457763672
 20
41.59999847412109
 30
0.0
 10
73.70000457763672
 20
41.59999847412109
 30
0.0
 10
73.70000457763672
 20
41.5
 30
0.0
 10
73.70000457763672
 20
41.5
 30
0.0
 10
73.70000457763672
 20
41.09999847412109
 30
0.0
 10
73.60000610351562
 20
40.69999694824219
 30
0.0
 10
73.30000305175781
 20
40.40000152587891
 30
0.0
 10
72.80000305175781
 20
39.70000457763672
 30
0.0
 10
71.80000305175781
 20
39.20000457763672
 30
0.0
 10
70.80000305175781
 20
38.90000152587891
 30
0.0
 10
70.30000305175781
 20
38.80000305175781
 30
0.0
 10
69.70000457763672
 20
38.80000305175781
 30
0.0
 10
69.30000305175781
 20
38.80000305175781
 30
0.0
 10
69.30000305175781
 20
38.80000305175781
 30
0.0
 10
68.9000015258789
 20
38.80000305175781
 30
0.0
 10
68.9000015258789
 20
38.90000152587891
 30
0.0
 10
68.70000457763672
 20
38.90000152587891
 30
0.0
 10
68.5999984741211
 20
39.0
 30
0.0
 10
68.4000015258789
 20
39.0
 30
0.0
 10
68.0999984741211
 20
39.09999847412109
 30
0.0
 10
67.80000305175781
 20
39.19999694824219
 30
0.0
 10
67.5
 20
39.30000305175781
 30
0.0
 10
66.30000305175781
 20
39.70000457763672
 30
0.0
 10
65.30000305175781
 20
40.30000305175781
 30
0.0
 10
64.5
 20
41.10000610351562
 30
0.0
 10
64.4000015258789
 20
41.20000457763672
 30
0.0
 10
64.30000305175781
 20
41.40000915527344
 30
0.0
 10
64.0999984741211
 20
41.50000762939453
 30
0.0
 10
60.69999694824219
 20
46.20000457763672
 30
0.0
 10
65.5
 20
50.50000762939453
 30
0.0
 10
69.4000015258789
 20
51.60000610351562
 30
0.0
 10
69.5
 20
51.60000610351562
 30
0.0
 10
69.5999984741211
 20
51.70000457763672
 30
0.0
 10
69.70000457763672
 20
51.70000457763672
 30
0.0
 10
70.4000015258789
 20
51.90000152587891
 30
0.0
 10
71.00000762939453
 20
52.10000610351562
 30
0.0
 10
71.70000457763672
 20
52.20000457763672
 30
0.0
 10
73.00000762939453
 20
52.50000762939453
 30
0.0
 10
74.20000457763672
 20
52.80000305175781
 30
0.0
 10
75.30000305175781
 20
52.90000152587891
 30
0.0
 10
76.4000015258789
 20
53.0
 30
0.0
 10
77.60000610351562
 20
53.0
 30
0.0
 10
78.60000610351562
 20
52.80000305175781
 30
0.0
 10
79.10000610351562
 20
52.70000457763672
 30
0.0
 10
79.60000610351562
 20
52.5
 30
0.0
 10
80.00000762939453
 20
52.40000152587891
 30
0.0
 10
80.30001068115234
 20
52.20000457763672
 30
0.0
 10
80.70000457763672
 20
52.0
 30
0.0
 10
80.90000915527344
 20
51.80000305175781
 30
0.0
 10
81.30001068115234
 20
51.30000305175781
 30
0.0
 10
81.40000915527344
 20
50.60000610351562
 30
0.0
 10
81.10000610351562
 20
50.10000610351562
 30
0.0
 10
81.00000762939453
 20
49.90000915527344
 30
0.0
 10
80.80000305175781
 20
49.60000610351562
 30
0.0
 10
80.60000610351562
 20
49.50000762939453
 30
0.0
 10
80.40000915527344
 20
49.40000915527344
 30
0.0
 10
80.20000457763672
 20
49.30001068115234
 30
0.0
 10
79.90000915527344
 20
49.30001068115234
 30
0.0
 10
79.40000915527344
 20
49.30001068115234
 30
0.0
 10
79.00000762939453
 20
49.40000915527344
 30
0.0
 10
78.80001068115234
 20
49.60001373291016
 30
0.0
 10
78.70001220703125
 20
49.70001220703125
 30
0.0
 10
78.60001373291016
 20
49.70001220703125
 30
0.0
 10
78.50000762939453
 20
49.80001068115234
 30
0.0
 10
78.40000915527344
 20
49.80001068115234
 30
0.0
 10
78.40000915527344
 20
49.90000915527344
 30
0.0
 10
78.40000915527344
 20
49.90000915527344
 30
0.0
 10
78.40000915527344
 20
49.90000915527344
 30
0.0
 10
78.40000915527344
 20
49.90000915527344
 30
0.0
 10
78.40000915527344
 20
49.90000915527344
 30
0.0
 10
78.30001068115234
 20
50.00000762939453
 30
0.0
 10
78.10000610351562
 20
50.00000762939453
 30
0.0
 10
78.00000762939453
 20
49.80001068115234
 30
0.0
 10
77.90000915527344
 20
49.70001220703125
 30
0.0
 10
77.90000915527344
 20
49.40000915527344
 30
0.0
 10
78.00000762939453
 20
49.30001068115234
 30
0.0
 10
78.00000762939453
 20
49.30001068115234
 30
0.0
 10
78.00000762939453
 20
49.30001068115234
 30
0.0
 10
78.10000610351562
 20
49.20001220703125
 30
0.0
 10
78.20000457763672
 20
49.10001373291016
 30
0.0
 10
78.30000305175781
 20
49.00001525878906
 30
0.0
 10
78.40000915527344
 20
48.90000915527344
 30
0.0
 10
78.70001220703125
 20
48.70001220703125
 30
0.0
 10
79.10000610351562
 20
48.30001068115234
 30
0.0
 10
79.90000915527344
 20
48.20001220703125
 30
0.0
 10
80.30001068115234
 20
48.10001373291016
 30
0.0
 10
80.70001220703125
 20
48.10001373291016
 30
0.0
 10
81.20001220703125
 20
48.30001068115234
 30
0.0
 10
81.70001220703125
 20
48.50000762939453
 30
0.0
 10
82.10001373291016
 20
48.80001068115234
 30
0.0
 10
82.50001525878906
 20
49.20001220703125
 30
0.0
 10
82.90001678466797
 20
49.60001373291016
 30
0.0
 10
83.10001373291016
 20
50.20001220703125
 30
0.0
 10
83.20001220703125
 20
50.90000915527344
 30
0.0
 10
83.30001068115234
 20
51.60000610351562
 30
0.0
 10
83.20001220703125
 20
52.30001068115234
 30
0.0
 10
82.80001068115234
 20
52.90000915527344
 30
0.0
 10
82.60001373291016
 20
53.20001220703125
 30
0.0
 10
82.40000915527344
 20
53.50000762939453
 30
0.0
 10
82.20001220703125
 20
53.80001068115234
 30
0.0
 10
82.00001525878906
 20
54.10001373291016
 30
0.0
 10
81.70001220703125
 20
54.30001068115234
 30
0.0
 10
81.40000915527344
 20
54.50000762939453
 30
0.0
 10
80.80001068115234
 20
54.90000915527344
 30
0.0
 10
80.20001220703125
 20
55.20000457763672
 30
0.0
 10
79.60000610351562
 20
55.50000762939453
 30
0.0
 10
78.30000305175781
 20
56.10000610351562
 30
0.0
 10
76.90000915527344
 20
56.40000915527344
 30
0.0
 10
75.40000915527344
 20
56.60000610351562
 30
0.0
 10
73.90000915527344
 20
56.70000457763672
 30
0.0
 10
72.40000915527344
 20
56.70000457763672
 30
0.0
 10
71.00000762939453
 20
56.60000610351562
 30
0.0
 10
69.30001068115234
 20
56.50000762939453
 30
0.0
 10
68.60000610351562
 20
57.10000610351562
 30
0.0
 10
68.40000915527344
 20
58.30000305175781
 30
0.0
 10
68.20001220703125
 20
59.30000305175781
 30
0.0
 10
68.60000610351562
 20
59.70000457763672
 30
0.0
 10
68.90000915527344
 20
60.10000610351562
 30
0.0
 10
70.00000762939453
 20
61.30000686645508
 30
0.0
 10
72.70001220703125
 20
61.30000686645508
 30
0.0
 10
72.70001220703125
 20
61.30000686645508
 30
0.0
 10
72.70001220703125
 20
61.30000686645508
 30
0.0
 10
72.70001220703125
 20
61.30000686645508
 30
0.0
 10
72.70001220703125
 20
61.30000686645508
 30
0.0
 10
73.30001068115234
 20
61.30000686645508
 30
0.0
 10
74.00001525878906
 20
61.30000686645508
 30
0.0
 10
74.70001220703125
 20
61.40000534057617
 30
0.0
 10
75.80001068115234
 20
61.60000610351562
 30
0.0
 10
77.00001525878906
 20
61.90000534057617
 30
0.0
 10
78.10001373291016
 20
62.40000534057617
 30
0.0
 10
78.60001373291016
 20
62.60000610351562
 30
0.0
 10
79.20001220703125
 20
62.90000534057617
 30
0.0
 10
79.70001220703125
 20
63.30000686645508
 30
0.0
 10
80.00001525878906
 20
63.50000762939453
 30
0.0
 10
80.20001220703125
 20
63.60000610351562
 30
0.0
 10
80.50001525878906
 20
63.80000686645508
 30
0.0
 10
80.50001525878906
 20
63.80000686645508
 30
0.0
 10
81.20001220703125
 20
64.30000686645508
 30
0.0
 10
81.20001220703125
 20
64.30000686645508
 30
0.0
 10
83.00001525878906
 20
65.80000686645508
 30
0.0
 10
84.40000915527344
 20
67.70000839233398
 30
0.0
 10
85.50001525878906
 20
69.70000839233398
 30
0.0
 10
86.50001525878906
 20
71.60000991821289
 30
0.0
 10
87.20001220703125
 20
73.60000991821289
 30
0.0
 10
87.80001831054688
 20
75.40000915527344
 30
0.0
 10
88.10002136230469
 20
76.30001068115234
 30
0.0
 10
88.30001831054688
 20
77.10000991821289
 30
0.0
 10
88.60002136230469
 20
78.00000762939453
 30
0.0
 10
88.9000244140625
 20
78.80000686645508
 30
0.0
 10
89.10002136230469
 20
79.60000610351562
 30
0.0
 10
89.4000244140625
 20
80.20000839233398
 30
0.0
 10
89.70002746582031
 20
80.80000686645508
 30
0.0
 10
90.0000228881836
 20
81.30000686645508
 30
0.0
 10
90.4000244140625
 20
81.70000839233398
 30
0.0
 10
90.8000259399414
 20
82.00000762939453
 30
0.0
 10
91.20002746582031
 20
82.20000839233398
 30
0.0
 10
91.70002746582031
 20
82.30000686645508
 30
0.0
 10
92.00003051757812
 20
82.30000686645508
 30
0.0
 10
92.3000259399414
 20
82.40000534057617
 30
0.0
 10
92.60002899169922
 20
82.40000534057617
 30
0.0
 10
92.60002899169922
 20
82.40000534057617
 30
0.0
 10
92.70002746582031
 20
82.40000534057617
 30
0.0
 10
92.70002746582031
 20
82.40000534057617
 30
0.0
 10
92.70002746582031
 20
82.40000534057617
 30
0.0
 10
92.8000259399414
 20
82.40000534057617
 30
0.0
 10
92.8000259399414
 20
82.40000534057617
 30
0.0
 10
92.8000259399414
 20
82.40000534057617
 30
0.0
 10
92.8000259399414
 20
82.40000534057617
 30
0.0
 10
92.8000259399414
 20
82.40000534057617
 30
0.0
 10
92.8000259399414
 20
82.40000534057617
 30
0.0
 10
92.8000259399414
 20
82.40000534057617
 30
0.0
 10
92.8000259399414
 20
82.40000534057617
 30
0.0
 10
92.8000259399414
 20
82.40000534057617
 30
0.0
 10
92.8000259399414
 20
82.40000534057617
 30
0.0
 10
92.8000259399414
 20
82.40000534057617
 30
0.0
 10
92.8000259399414
 20
82.40000534057617
 30
0.0
 10
93.10002899169922
 20
82.40000534057617
 30
0.0
 10
93.10002899169922
 20
82.40000534057617
 30
0.0
 10
93.20002746582031
 20
82.40000534057617
 30
0.0
 10
93.3000259399414
 20
82.40000534057617
 30
0.0
 10
93.50003051757812
 20
82.30000686645508
 30
0.0
 10
94.00003051757812
 20
82.20000839233398
 30
0.0
 10
94.50003051757812
 20
82.00000762939453
 30
0.0
 10
94.80003356933594
 20
81.70000839233398
 30
0.0
 10
95.10003662109375
 20
81.40000915527344
 30
0.0
 10
95.40003204345703
 20
81.00000762939453
 30
0.0
 10
95.50003051757812
 20
80.60000991821289
 30
0.0
 10
95.60002899169922
 20
80.20000839233398
 30
0.0
 10
95.60002899169922
 20
79.70000839233398
 30
0.0
 10
95.50003051757812
 20
79.30001068115234
 30
0.0
 10
95.30003356933594
 20
78.5000114440918
 30
0.0
 10
94.70002746582031
 20
78.0000114440918
 30
0.0
 10
94.10002899169922
 20
77.90000915527344
 30
0.0
 10
93.50003051757812
 20
77.80001068115234
 30
0.0
 10
92.90003204345703
 20
78.00000762939453
 30
0.0
 10
92.50003051757812
 20
78.20000839233398
 30
0.0
 10
92.30003356933594
 20
78.30000686645508
 30
0.0
 10
92.20002746582031
 20
78.40000915527344
 30
0.0
 10
92.10002899169922
 20
78.40000915527344
 30
0.0
 10
92.00003051757812
 20
78.40000915527344
 30
0.0
 10
92.00003051757812
 20
78.50000762939453
 30
0.0
 10
92.00003051757812
 20
78.50000762939453
 30
0.0
 10
92.00003051757812
 20
78.50000762939453
 30
0.0
 10
92.00003051757812
 20
78.50000762939453
 30
0.0
 10
92.00003051757812
 20
78.50000762939453
 30
0.0
 10
91.90003204345703
 20
78.60000610351562
 30
0.0
 10
91.70002746582031
 20
78.50000762939453
 30
0.0
 10
91.60002899169922
 20
78.40000915527344
 30
0.0
 10
91.50003051757812
 20
78.30001068115234
 30
0.0
 10
91.50003051757812
 20
78.00000762939453
 30
0.0
 10
91.60002899169922
 20
77.90000915527344
 30
0.0
 10
91.60002899169922
 20
77.90000915527344
 30
0.0
 10
91.60002899169922
 20
77.90000915527344
 30
0.0
 10
91.70002746582031
 20
77.80001068115234
 30
0.0
 10
91.8000259399414
 20
77.70001220703125
 30
0.0
 10
91.9000244140625
 20
77.60000991821289
 30
0.0
 10
92.10002899169922
 20
77.5000114440918
 30
0.0
 10
92.3000259399414
 20
77.4000129699707
 30
0.0
 10
92.50003051757812
 20
77.20001220703125
 30
0.0
 10
92.90003204345703
 20
77.0000114440918
 30
0.0
 10
93.20003509521484
 20
76.9000129699707
 30
0.0
 10
93.70003509521484
 20
76.70001220703125
 30
0.0
 10
94.20003509521484
 20
76.70001220703125
 30
0.0
 10
94.70003509521484
 20
76.70001220703125
 30
0.0
 10
95.30003356933594
 20
76.80001068115234
 30
0.0
 10
95.90003204345703
 20
77.10001373291016
 30
0.0
 10
96.50003051757812
 20
77.4000129699707
 30
0.0
 10
97.00003051757812
 20
78.00001525878906
 30
0.0
 10
97.30003356933594
 20
78.60001373291016
 30
0.0
 10
97.60003662109375
 20
79.30001449584961
 30
0.0
 10
97.80003356933594
 20
80.00001525878906
 30
0.0
 10
97.80003356933594
 20
80.9000129699707
 30
0.0
 10
97.5
 20
81.5
 30
0.0
 10
97.19999694824219
 20
82.4000015258789
 30
0.0
 10
96.69999694824219
 20
83.20000076293945
 30
0.0
  0
HATCH
  5
42
330
1F
100
AcDbEntity
  8
Layer 1
 62
     7
420
 16777215
100
AcDbHatch
 10
0.0
 20
0.0
 30
0.0
210
0.0
220
0.0
230
1.0
  2
SOLID
 70
     1
 71
     0
 91
        1
 92
        1
 93
        1
 72
     4
 94
        3
 73
     0
 74
     1
 95
     1190
 96
     1186
 40
0.0
 40
0.0
 40
0.0
 40
0.0
 40
1.0
 40
1.0
 40
1.0
 40
2.0
 40
2.0
 40
2.0
 40
3.0
 40
3.0
 40
3.0
 40
4.0
 40
4.0
 40
4.0
 40
5.0
 40
5.0
 40
5.0
 40
6.0
 40
6.0
 40
6.0
 40
7.0
 40
7.0
 40
7.0
 40
8.0
 40
8.0
 40
8.0
 40
9.0
 40
9.0
 40
9.0
 40
10.0
 40
10.0
 40
10.0
 40
11.0
 40
11.0
 40
11.0
 40
12.0
 40
12.0
 40
12.0
 40
13.0
 40
13.0
 40
13.0
 40
14.0
 40
14.0
 40
14.0
 40
15.0
 40
15.0
 40
15.0
 40
16.0
 40
16.0
 40
16.0
 40
17.0
 40
17.0
 40
17.0
 40
18.0
 40
18.0
 40
18.0
 40
19.0
 40
19.0
 40
19.0
 40
20.0
 40
20.0
 40
20.0
 40
21.0
 40
21.0
 40
21.0
 40
22.0
 40
22.0
 40
22.0
 40
23.0
 40
23.0
 40
23.0
 40
24.0
 40
24.0
 40
24.0
 40
25.0
 40
25.0
 40
25.0
 40
26.0
 40
26.0
 40
26.0
 40
27.0
 40
27.0
 40
27.0
 40
28.0
 40
28.0
 40
28.0
 40
29.0
 40
29.0
 40
29.0
 40
30.0
 40
30.0
 40
30.0
 40
31.0
 40
31.0
 40
31.0
 40
32.0
 40
32.0
 40
32.0
 40
33.0
 40
33.0
 40
33.0
 40
34.0
 40
34.0
 40
34.0
 40
35.0
 40
35.0
 40
35.0
 40
36.0
 40
36.0
 40
36.0
 40
37.0
 40
37.0
 40
37.0
 40
38.0
 40
38.0
 40
38.0
 40
39.0
 40
39.0
 40
39.0
 40
40.0
 40
40.0
 40
40.0
 40
41.0
 40
41.0
 40
41.0
 40
42.0
 40
42.0
 40
42.0
 40
43.0
 40
43.0
 40
43.0
 40
44.0
 40
44.0
 40
44.0
 40
45.0
 40
45.0
 40
45.0
 40
46.0
 40
46.0
 40
46.0
 40
47.0
 40
47.0
 40
47.0
 40
48.0
 40
48.0
 40
48.0
 40
49.0
 40
49.0
 40
49.0
 40
50.0
 40
50.0
 40
50.0
 40
51.0
 40
51.0
 40
51.0
 40
52.0
 40
52.0
 40
52.0
 40
53.0
 40
53.0
 40
53.0
 40
54.0
 40
54.0
 40
54.0
 40
55.0
 40
55.0
 40
55.0
 40
56.0
 40
56.0
 40
56.0
 40
57.0
 40
57.0
 40
57.0
 40
58.0
 40
58.0
 40
58.0
 40
59.0
 40
59.0
 40
59.0
 40
60.0
 40
60.0
 40
60.0
 40
61.0
 40
61.0
 40
61.0
 40
62.0
 40
62.0
 40
62.0
 40
63.0
 40
63.0
 40
63.0
 40
64.0
 40
64.0
 40
64.0
 40
65.0
 40
65.0
 40
65.0
 40
66.0
 40
66.0
 40
66.0
 40
67.0
 40
67.0
 40
67.0
 40
68.0
 40
68.0
 40
68.0
 40
69.0
 40
69.0
 40
69.0
 40
70.0
 40
70.0
 40
70.0
 40
71.0
 40
71.0
 40
71.0
 40
72.0
 40
72.0
 40
72.0
 40
73.0
 40
73.0
 40
73.0
 40
74.0
 40
74.0
 40
74.0
 40
75.0
 40
75.0
 40
75.0
 40
76.0
 40
76.0
 40
76.0
 40
77.0
 40
77.0
 40
77.0
 40
78.0
 40
78.0
 40
78.0
 40
79.0
 40
79.0
 40
79.0
 40
80.0
 40
80.0
 40
80.0
 40
81.0
 40
81.0
 40
81.0
 40
82.0
 40
82.0
 40
82.0
 40
83.0
 40
83.0
 40
83.0
 40
84.0
 40
84.0
 40
84.0
 40
85.0
 40
85.0
 40
85.0
 40
86.0
 40
86.0
 40
86.0
 40
87.0
 40
87.0
 40
87.0
 40
88.0
 40
88.0
 40
88.0
 40
89.0
 40
89.0
 40
89.0
 40
90.0
 40
90.0
 40
90.0
 40
91.0
 40
91.0
 40
91.0
 40
92.0
 40
92.0
 40
92.0
 40
93.0
 40
93.0
 40
93.0
 40
94.0
 40
94.0
 40
94.0
 40
95.0
 40
95.0
 40
95.0
 40
96.0
 40
96.0
 40
96.0
 40
97.0
 40
97.0
 40
97.0
 40
98.0
 40
98.0
 40
98.0
 40
99.0
 40
99.0
 40
99.0
 40
100.0
 40
100.0
 40
100.0
 40
101.0
 40
101.0
 40
101.0
 40
102.0
 40
102.0
 40
102.0
 40
103.0
 40
103.0
 40
103.0
 40
104.0
 40
104.0
 40
104.0
 40
105.0
 40
105.0
 40
105.0
 40
106.0
 40
106.0
 40
106.0
 40
107.0
 40
107.0
 40
107.0
 40
108.0
 40
108.0
 40
108.0
 40
109.0
 40
109.0
 40
109.0
 40
110.0
 40
110.0
 40
110.0
 40
111.0
 40
111.0
 40
111.0
 40
112.0
 40
112.0
 40
112.0
 40
113.0
 40
113.0
 40
113.0
 40
114.0
 40
114.0
 40
114.0
 40
115.0
 40
115.0
 40
115.0
 40
116.0
 40
116.0
 40
116.0
 40
117.0
 40
117.0
 40
117.0
 40
118.0
 40
118.0
 40
118.0
 40
119.0
 40
119.0
 40
119.0
 40
120.0
 40
120.0
 40
120.0
 40
121.0
 40
121.0
 40
121.0
 40
122.0
 40
122.0
 40
122.0
 40
123.0
 40
123.0
 40
123.0
 40
124.0
 40
124.0
 40
124.0
 40
125.0
 40
125.0
 40
125.0
 40
126.0
 40
126.0
 40
126.0
 40
127.0
 40
127.0
 40
127.0
 40
128.0
 40
128.0
 40
128.0
 40
129.0
 40
129.0
 40
129.0
 40
130.0
 40
130.0
 40
130.0
 40
131.0
 40
131.0
 40
131.0
 40
132.0
 40
132.0
 40
132.0
 40
133.0
 40
133.0
 40
133.0
 40
134.0
 40
134.0
 40
134.0
 40
135.0
 40
135.0
 40
135.0
 40
136.0
 40
136.0
 40
136.0
 40
137.0
 40
137.0
 40
137.0
 40
138.0
 40
138.0
 40
138.0
 40
139.0
 40
139.0
 40
139.0
 40
140.0
 40
140.0
 40
140.0
 40
141.0
 40
141.0
 40
141.0
 40
142.0
 40
142.0
 40
142.0
 40
143.0
 40
143.0
 40
143.0
 40
144.0
 40
144.0
 40
144.0
 40
145.0
 40
145.0
 40
145.0
 40
146.0
 40
146.0
 40
146.0
 40
147.0
 40
147.0
 40
147.0
 40
148.0
 40
148.0
 40
148.0
 40
149.0
 40
149.0
 40
149.0
 40
150.0
 40
150.0
 40
150.0
 40
151.0
 40
151.0
 40
151.0
 40
152.0
 40
152.0
 40
152.0
 40
153.0
 40
153.0
 40
153.0
 40
154.0
 40
154.0
 40
154.0
 40
155.0
 40
155.0
 40
155.0
 40
156.0
 40
156.0
 40
156.0
 40
157.0
 40
157.0
 40
157.0
 40
158.0
 40
158.0
 40
158.0
 40
159.0
 40
159.0
 40
159.0
 40
160.0
 40
160.0
 40
160.0
 40
161.0
 40
161.0
 40
161.0
 40
162.0
 40
162.0
 40
162.0
 40
163.0
 40
163.0
 40
163.0
 40
164.0
 40
164.0
 40
164.0
 40
165.0
 40
165.0
 40
165.0
 40
166.0
 40
166.0
 40
166.0
 40
167.0
 40
167.0
 40
167.0
 40
168.0
 40
168.0
 40
168.0
 40
169.0
 40
169.0
 40
169.0
 40
170.0
 40
170.0
 40
170.0
 40
171.0
 40
171.0
 40
171.0
 40
172.0
 40
172.0
 40
172.0
 40
173.0
 40
173.0
 40
173.0
 40
174.0
 40
174.0
 40
174.0
 40
175.0
 40
175.0
 40
175.0
 40
176.0
 40
176.0
 40
176.0
 40
177.0
 40
177.0
 40
177.0
 40
178.0
 40
178.0
 40
178.0
 40
179.0
 40
179.0
 40
179.0
 40
180.0
 40
180.0
 40
180.0
 40
181.0
 40
181.0
 40
181.0
 40
182.0
 40
182.0
 40
182.0
 40
183.0
 40
183.0
 40
183.0
 40
184.0
 40
184.0
 40
184.0
 40
185.0
 40
185.0
 40
185.0
 40
186.0
 40
186.0
 40
186.0
 40
187.0
 40
187.0
 40
187.0
 40
188.0
 40
188.0
 40
188.0
 40
189.0
 40
189.0
 40
189.0
 40
190.0
 40
190.0
 40
190.0
 40
191.0
 40
191.0
 40
191.0
 40
192.0
 40
192.0
 40
192.0
 40
193.0
 40
193.0
 40
193.0
 40
194.0
 40
194.0
 40
194.0
 40
195.0
 40
195.0
 40
195.0
 40
196.0
 40
196.0
 40
196.0
 40
197.0
 40
197.0
 40
197.0
 40
198.0
 40
198.0
 40
198.0
 40
199.0
 40
199.0
 40
199.0
 40
200.0
 40
200.0
 40
200.0
 40
201.0
 40
201.0
 40
201.0
 40
202.0
 40
202.0
 40
202.0
 40
203.0
 40
203.0
 40
203.0
 40
204.0
 40
204.0
 40
204.0
 40
205.0
 40
205.0
 40
205.0
 40
206.0
 40
206.0
 40
206.0
 40
207.0
 40
207.0
 40
207.0
 40
208.0
 40
208.0
 40
208.0
 40
209.0
 40
209.0
 40
209.0
 40
210.0
 40
210.0
 40
210.0
 40
211.0
 40
211.0
 40
211.0
 40
212.0
 40
212.0
 40
212.0
 40
213.0
 40
213.0
 40
213.0
 40
214.0
 40
214.0
 40
214.0
 40
215.0
 40
215.0
 40
215.0
 40
216.0
 40
216.0
 40
216.0
 40
217.0
 40
217.0
 40
217.0
 40
218.0
 40
218.0
 40
218.0
 40
219.0
 40
219.0
 40
219.0
 40
220.0
 40
220.0
 40
220.0
 40
221.0
 40
221.0
 40
221.0
 40
222.0
 40
222.0
 40
222.0
 40
223.0
 40
223.0
 40
223.0
 40
224.0
 40
224.0
 40
224.0
 40
225.0
 40
225.0
 40
225.0
 40
226.0
 40
226.0
 40
226.0
 40
227.0
 40
227.0
 40
227.0
 40
228.0
 40
228.0
 40
228.0
 40
229.0
 40
229.0
 40
229.0
 40
230.0
 40
230.0
 40
230.0
 40
231.0
 40
231.0
 40
231.0
 40
232.0
 40
232.0
 40
232.0
 40
233.0
 40
233.0
 40
233.0
 40
234.0
 40
234.0
 40
234.0
 40
235.0
 40
235.0
 40
235.0
 40
236.0
 40
236.0
 40
236.0
 40
237.0
 40
237.0
 40
237.0
 40
238.0
 40
238.0
 40
238.0
 40
239.0
 40
239.0
 40
239.0
 40
240.0
 40
240.0
 40
240.0
 40
241.0
 40
241.0
 40
241.0
 40
242.0
 40
242.0
 40
242.0
 40
243.0
 40
243.0
 40
243.0
 40
244.0
 40
244.0
 40
244.0
 40
245.0
 40
245.0
 40
245.0
 40
246.0
 40
246.0
 40
246.0
 40
247.0
 40
247.0
 40
247.0
 40
248.0
 40
248.0
 40
248.0
 40
249.0
 40
249.0
 40
249.0
 40
250.0
 40
250.0
 40
250.0
 40
251.0
 40
251.0
 40
251.0
 40
252.0
 40
252.0
 40
252.0
 40
253.0
 40
253.0
 40
253.0
 40
254.0
 40
254.0
 40
254.0
 40
255.0
 40
255.0
 40
255.0
 40
256.0
 40
256.0
 40
256.0
 40
257.0
 40
257.0
 40
257.0
 40
258.0
 40
258.0
 40
258.0
 40
259.0
 40
259.0
 40
259.0
 40
260.0
 40
260.0
 40
260.0
 40
261.0
 40
261.0
 40
261.0
 40
262.0
 40
262.0
 40
262.0
 40
263.0
 40
263.0
 40
263.0
 40
264.0
 40
264.0
 40
264.0
 40
265.0
 40
265.0
 40
265.0
 40
266.0
 40
266.0
 40
266.0
 40
267.0
 40
267.0
 40
267.0
 40
268.0
 40
268.0
 40
268.0
 40
269.0
 40
269.0
 40
269.0
 40
270.0
 40
270.0
 40
270.0
 40
271.0
 40
271.0
 40
271.0
 40
272.0
 40
272.0
 40
272.0
 40
273.0
 40
273.0
 40
273.0
 40
274.0
 40
274.0
 40
274.0
 40
275.0
 40
275.0
 40
275.0
 40
276.0
 40
276.0
 40
276.0
 40
277.0
 40
277.0
 40
277.0
 40
278.0
 40
278.0
 40
278.0
 40
279.0
 40
279.0
 40
279.0
 40
280.0
 40
280.0
 40
280.0
 40
281.0
 40
281.0
 40
281.0
 40
282.0
 40
282.0
 40
282.0
 40
283.0
 40
283.0
 40
283.0
 40
284.0
 40
284.0
 40
284.0
 40
285.0
 40
285.0
 40
285.0
 40
286.0
 40
286.0
 40
286.0
 40
287.0
 40
287.0
 40
287.0
 40
288.0
 40
288.0
 40
288.0
 40
289.0
 40
289.0
 40
289.0
 40
290.0
 40
290.0
 40
290.0
 40
291.0
 40
291.0
 40
291.0
 40
292.0
 40
292.0
 40
292.0
 40
293.0
 40
293.0
 40
293.0
 40
294.0
 40
294.0
 40
294.0
 40
295.0
 40
295.0
 40
295.0
 40
296.0
 40
296.0
 40
296.0
 40
297.0
 40
297.0
 40
297.0
 40
298.0
 40
298.0
 40
298.0
 40
299.0
 40
299.0
 40
299.0
 40
300.0
 40
300.0
 40
300.0
 40
301.0
 40
301.0
 40
301.0
 40
302.0
 40
302.0
 40
302.0
 40
303.0
 40
303.0
 40
303.0
 40
304.0
 40
304.0
 40
304.0
 40
305.0
 40
305.0
 40
305.0
 40
306.0
 40
306.0
 40
306.0
 40
307.0
 40
307.0
 40
307.0
 40
308.0
 40
308.0
 40
308.0
 40
309.0
 40
309.0
 40
309.0
 40
310.0
 40
310.0
 40
310.0
 40
311.0
 40
311.0
 40
311.0
 40
312.0
 40
312.0
 40
312.0
 40
313.0
 40
313.0
 40
313.0
 40
314.0
 40
314.0
 40
314.0
 40
315.0
 40
315.0
 40
315.0
 40
316.0
 40
316.0
 40
316.0
 40
317.0
 40
317.0
 40
317.0
 40
318.0
 40
318.0
 40
318.0
 40
319.0
 40
319.0
 40
319.0
 40
320.0
 40
320.0
 40
320.0
 40
321.0
 40
321.0
 40
321.0
 40
322.0
 40
322.0
 40
322.0
 40
323.0
 40
323.0
 40
323.0
 40
324.0
 40
324.0
 40
324.0
 40
325.0
 40
325.0
 40
325.0
 40
326.0
 40
326.0
 40
326.0
 40
327.0
 40
327.0
 40
327.0
 40
328.0
 40
328.0
 40
328.0
 40
329.0
 40
329.0
 40
329.0
 40
330.0
 40
330.0
 40
330.0
 40
331.0
 40
331.0
 40
331.0
 40
332.0
 40
332.0
 40
332.0
 40
333.0
 40
333.0
 40
333.0
 40
334.0
 40
334.0
 40
334.0
 40
335.0
 40
335.0
 40
335.0
 40
336.0
 40
336.0
 40
336.0
 40
337.0
 40
337.0
 40
337.0
 40
338.0
 40
338.0
 40
338.0
 40
339.0
 40
339.0
 40
339.0
 40
340.0
 40
340.0
 40
340.0
 40
341.0
 40
341.0
 40
341.0
 40
342.0
 40
342.0
 40
342.0
 40
343.0
 40
343.0
 40
343.0
 40
344.0
 40
344.0
 40
344.0
 40
345.0
 40
345.0
 40
345.0
 40
346.0
 40
346.0
 40
346.0
 40
347.0
 40
347.0
 40
347.0
 40
348.0
 40
348.0
 40
348.0
 40
349.0
 40
349.0
 40
349.0
 40
350.0
 40
350.0
 40
350.0
 40
351.0
 40
351.0
 40
351.0
 40
352.0
 40
352.0
 40
352.0
 40
353.0
 40
353.0
 40
353.0
 40
354.0
 40
354.0
 40
354.0
 40
355.0
 40
355.0
 40
355.0
 40
356.0
 40
356.0
 40
356.0
 40
357.0
 40
357.0
 40
357.0
 40
358.0
 40
358.0
 40
358.0
 40
359.0
 40
359.0
 40
359.0
 40
360.0
 40
360.0
 40
360.0
 40
361.0
 40
361.0
 40
361.0
 40
362.0
 40
362.0
 40
362.0
 40
363.0
 40
363.0
 40
363.0
 40
364.0
 40
364.0
 40
364.0
 40
365.0
 40
365.0
 40
365.0
 40
366.0
 40
366.0
 40
366.0
 40
367.0
 40
367.0
 40
367.0
 40
368.0
 40
368.0
 40
368.0
 40
369.0
 40
369.0
 40
369.0
 40
370.0
 40
370.0
 40
370.0
 40
371.0
 40
371.0
 40
371.0
 40
372.0
 40
372.0
 40
372.0
 40
373.0
 40
373.0
 40
373.0
 40
374.0
 40
374.0
 40
374.0
 40
375.0
 40
375.0
 40
375.0
 40
376.0
 40
376.0
 40
376.0
 40
377.0
 40
377.0
 40
377.0
 40
378.0
 40
378.0
 40
378.0
 40
379.0
 40
379.0
 40
379.0
 40
380.0
 40
380.0
 40
380.0
 40
381.0
 40
381.0
 40
381.0
 40
382.0
 40
382.0
 40
382.0
 40
383.0
 40
383.0
 40
383.0
 40
384.0
 40
384.0
 40
384.0
 40
385.0
 40
385.0
 40
385.0
 40
386.0
 40
386.0
 40
386.0
 40
387.0
 40
387.0
 40
387.0
 40
388.0
 40
388.0
 40
388.0
 40
389.0
 40
389.0
 40
389.0
 40
390.0
 40
390.0
 40
390.0
 40
391.0
 40
391.0
 40
391.0
 40
392.0
 40
392.0
 40
392.0
 40
393.0
 40
393.0
 40
393.0
 40
394.0
 40
394.0
 40
394.0
 40
395.0
 40
395.0
 40
395.0
 40
395.0
 10
96.69999694824219
 20
83.20000076293945
 10
96.0999984741211
 20
84.0
 10
95.29999542236328
 20
84.60000228881836
 10
94.39999389648438
 20
85.0
 10
94.19999694824219
 20
85.0999984741211
 10
93.89999389648438
 20
85.20000076293945
 10
93.69999694824219
 20
85.29999923706055
 10
93.69999694824219
 20
85.29999923706055
 10
93.39999389648438
 20
85.39999771118164
 10
93.39999389648438
 20
85.39999771118164
 10
93.39999389648438
 20
85.39999771118164
 10
92.99999237060547
 20
85.49999618530273
 10
92.99999237060547
 20
85.49999618530273
 10
92.49999237060547
 20
85.59999465942383
 10
91.99999237060547
 20
85.69999694824219
 10
91.49999237060547
 20
85.69999694824219
 10
90.99999237060547
 20
85.69999694824219
 10
90.39999389648438
 20
85.69999694824219
 10
89.79999542236328
 20
85.49999618530273
 10
89.19999694824219
 20
85.39999771118164
 10
88.69999694824219
 20
85.09999465942383
 10
88.0999984741211
 20
84.79999542236328
 10
87.0
 20
84.19999694824219
 10
86.29999542236328
 20
83.19999694824219
 10
85.69999694824219
 20
82.39999389648438
 10
84.5
 20
80.59999465942383
 10
83.79999542236328
 20
78.89999389648438
 10
83.0999984741211
 20
77.19999313354492
 10
82.4000015258789
 20
75.49999237060547
 10
81.5999984741211
 20
73.99999237060547
 10
80.5999984741211
 20
72.69999313354492
 10
79.69999694824219
 20
71.39999389648438
 10
78.5999984741211
 20
70.49999237060547
 10
77.4000015258789
 20
69.89999389648438
 10
74.5
 20
68.89999389648438
 10
72.20000457763672
 20
67.69999313354492
 10
70.70000457763672
 20
69.59999465942383
 10
69.70000457763672
 20
70.89999389648438
 10
70.80000305175781
 20
71.99999618530273
 10
71.80000305175781
 20
73.29999542236328
 10
72.10000610351562
 20
73.59999465942383
 10
72.30000305175781
 20
73.89999389648438
 10
72.60000610351562
 20
74.19999694824219
 10
73.20000457763672
 20
74.99999618530273
 10
73.80000305175781
 20
75.79999542236328
 10
74.30000305175781
 20
76.69999694824219
 10
74.80000305175781
 20
77.5999984741211
 10
75.30000305175781
 20
78.49999618530273
 10
75.80000305175781
 20
79.39999771118164
 10
76.30000305175781
 20
80.29999923706055
 10
76.70000457763672
 20
81.19999694824219
 10
77.0
 20
82.19999694824219
 10
77.69999694824219
 20
84.0999984741211
 10
78.0999984741211
 20
86.0999984741211
 10
78.30000305175781
 20
88.0999984741211
 10
78.4000015258789
 20
90.0999984741211
 10
78.20000457763672
 20
92.0999984741211
 10
77.70000457763672
 20
93.99999809265137
 10
77.60000610351562
 20
94.49999809265137
 10
77.4000015258789
 20
94.89999771118164
 10
77.20000457763672
 20
95.29999732971191
 10
77.10000610351562
 20
95.59999656677246
 10
77.10000610351562
 20
95.69999694824219
 10
76.9000015258789
 20
95.89999771118164
 10
76.80000305175781
 20
96.0999984741211
 10
76.70000457763672
 20
96.29999732971191
 10
76.5999984741211
 20
96.49999809265137
 10
76.19999694824219
 20
97.29999732971191
 10
75.69999694824219
 20
98.0999984741211
 10
75.0999984741211
 20
98.79999732971191
 10
74.0
 20
100.1999969482422
 10
72.5999984741211
 20
101.1999969482422
 10
71.19999694824219
 20
101.7999973297119
 10
70.5
 20
102.0999965667725
 10
69.69999694824219
 20
102.2999973297119
 10
69.0
 20
102.2999973297119
 10
68.30000305175781
 20
102.3999977111816
 10
67.5999984741211
 20
102.2999973297119
 10
67.0
 20
102.0999965667725
 10
66.4000015258789
 20
101.899995803833
 10
65.80000305175781
 20
101.5999965667725
 10
65.4000015258789
 20
101.1999969482422
 10
65.0
 20
100.7999973297119
 10
64.70000457763672
 20
100.2999973297119
 10
64.5
 20
99.89999771118164
 10
64.19999694824219
 20
98.99999809265137
 10
64.30000305175781
 20
98.0999984741211
 10
64.80000305175781
 20
97.69999694824219
 10
65.0
 20
97.49999618530273
 10
65.30000305175781
 20
97.39999771118164
 10
65.4000015258789
 20
97.39999771118164
 10
65.5999984741211
 20
97.39999771118164
 10
65.5999984741211
 20
97.39999771118164
 10
65.5999984741211
 20
97.39999771118164
 10
65.79999542236328
 20
97.39999771118164
 10
65.9000015258789
 20
97.49999809265137
 10
66.0
 20
97.69999694824219
 10
66.0
 20
97.89999771118164
 10
65.9000015258789
 20
98.09999656677246
 10
65.69999694824219
 20
98.09999656677246
 10
65.69999694824219
 20
98.09999656677246
 10
65.5
 20
98.09999656677246
 10
65.39999389648438
 20
98.29999732971191
 10
65.29999542236328
 20
98.39999771118164
 10
65.29999542236328
 20
98.59999656677246
 10
65.29999542236328
 20
98.79999732971191
 10
65.29999542236328
 20
98.99999809265137
 10
65.39999389648438
 20
99.29999732971191
 10
65.49999237060547
 20
99.59999656677246
 10
65.79999542236328
 20
100.1999969482422
 10
66.39999389648438
 20
100.6999969482422
 10
67.29999542236328
 20
100.6999969482422
 10
67.69999694824219
 20
100.7999973297119
 10
68.19999694824219
 20
100.6999969482422
 10
68.79999542236328
 20
100.5999965667725
 10
69.29999542236328
 20
100.4999961853027
 10
69.79999542236328
 20
100.2999973297119
 10
70.29999542236328
 20
99.99999618530273
 10
71.29999542236328
 20
99.39999580383301
 10
72.19999694824219
 20
98.49999618530273
 10
72.89999389648438
 20
97.29999542236328
 10
73.19999694824219
 20
96.69999504089355
 10
73.49999237060547
 20
96.09999465942383
 10
73.69999694824219
 20
95.39999580383301
 10
73.79999542236328
 20
95.19999504089355
 10
73.79999542236328
 20
95.09999656677246
 10
73.79999542236328
 20
94.89999580383301
 10
73.79999542236328
 20
94.79999542236328
 10
73.89999389648438
 20
94.49999618530273
 10
73.89999389648438
 20
94.39999580383301
 10
73.99999237060547
 20
93.99999618530273
 10
73.99999237060547
 20
93.69999504089355
 10
74.09999084472656
 20
93.29999542236328
 10
74.19998931884766
 20
91.79999542236328
 10
74.09999084472656
 20
90.29999542236328
 10
73.79998779296875
 20
88.69999694824219
 10
73.39998626708984
 20
87.19999694824219
 10
72.89998626708984
 20
85.69999694824219
 10
72.09999084472656
 20
84.29999542236328
 10
71.69998931884766
 20
83.59999465942383
 10
71.29998779296875
 20
82.89999389648438
 10
70.79998779296875
 20
82.29999542236328
 10
70.29998779296875
 20
81.69999694824219
 10
69.79998779296875
 20
81.09999465942383
 10
69.29998779296875
 20
80.49999618530273
 10
68.69998931884766
 20
79.89999771118164
 10
68.19998931884766
 20
79.39999771118164
 10
67.59999084472656
 20
78.89999771118164
 10
66.99999237060547
 20
78.39999771118164
 10
66.39999389648438
 20
77.89999771118164
 10
65.89999389648438
 20
77.39999771118164
 10
65.59999084472656
 20
77.0999984741211
 10
65.29999542236328
 20
76.89999771118164
 10
64.99999237060547
 20
76.5999984741211
 10
62.49999237060547
 20
74.5
 10
60.99999237060547
 20
73.5999984741211
 10
59.99999237060547
 20
73.29999923706055
 10
61.09999084472656
 20
76.20000076293945
 10
61.69999313354492
 20
79.29999923706055
 10
61.69999313354492
 20
82.19999694824219
 10
61.69999313354492
 20
90.69999694824219
 10
56.29999160766602
 20
93.19999694824219
 10
50.09999084472656
 20
94.19999694824219
 10
43.89999008178711
 20
93.29999732971191
 10
38.49999237060547
 20
90.79999542236328
 10
38.49999237060547
 20
82.19999694824219
 10
38.49999237060547
 20
79.39999771118164
 10
39.09999084472656
 20
76.29999542236328
 10
40.09999084472656
 20
73.49999618530273
 10
38.39999008178711
 20
74.19999694824219
 10
36.09999084472656
 20
75.89999771118164
 10
33.69998931884766
 20
78.99999618530273
 10
33.09999084472656
 20
79.89999771118164
 10
32.39999008178711
 20
80.79999542236328
 10
31.69998931884766
 20
81.69999694824219
 10
31.39999008178711
 20
82.0999984741211
 10
30.9999885559082
 20
82.5999984741211
 10
30.69998931884766
 20
82.99999618530273
 10
30.29998970031738
 20
83.39999771118164
 10
29.9999885559082
 20
83.89999771118164
 10
29.69998931884766
 20
84.39999771118164
 10
28.9999885559082
 20
85.29999923706055
 10
28.39999008178711
 20
86.29999923706055
 10
27.79998970031738
 20
87.39999771118164
 10
27.69998931884766
 20
87.69999694824219
 10
27.49999046325684
 20
87.89999771118164
 10
27.39999008178711
 20
88.19999694824219
 10
27.39999008178711
 20
88.19999694824219
 10
27.0
 20
88.29999923706055
 10
27.0
 20
88.29999923706055
 10
27.0
 20
88.29999923706055
 10
27.0
 20
88.29999923706055
 10
27.0
 20
88.29999923706055
 10
27.0
 20
88.29999923706055
 10
27.0
 20
88.29999923706055
 10
27.0
 20
88.29999923706055
 10
27.0
 20
88.29999923706055
 10
27.0
 20
88.39999771118164
 10
27.0
 20
88.39999771118164
 10
27.0
 20
88.39999771118164
 10
27.0
 20
88.49999618530273
 10
27.0
 20
88.49999618530273
 10
27.0
 20
88.49999618530273
 10
26.89999961853027
 20
88.69999694824219
 10
26.89999961853027
 20
88.69999694824219
 10
26.89999961853027
 20
88.69999694824219
 10
26.69999885559082
 20
89.0999984741211
 10
26.69999885559082
 20
89.0999984741211
 10
26.69999885559082
 20
89.0999984741211
 10
26.49999809265137
 20
89.5
 10
26.49999809265137
 20
89.5
 10
26.39999771118164
 20
89.79999923706055
 10
26.29999732971191
 20
90.0
 10
26.19999885559082
 20
90.29999923706055
 10
25.79999923706055
 20
91.39999771118164
 10
25.39999961853027
 20
92.5999984741211
 10
25.09999847412109
 20
93.79999923706055
 10
24.59999847412109
 20
96.19999885559082
 10
24.39999771118164
 20
98.5999984741211
 10
24.89999771118164
 20
100.8999996185303
 10
25.39999771118164
 20
103.1999988555908
 10
26.49999809265137
 20
105.2999992370605
 10
28.19999694824219
 20
107.0
 10
29.79999732971191
 20
108.7000007629395
 10
31.99999618530273
 20
109.8999996185303
 10
34.19999694824219
 20
110.5
 10
35.29999542236328
 20
110.8000001907349
 10
36.39999771118164
 20
111.0
 10
37.39999771118164
 20
110.8999996185303
 10
37.69999694824219
 20
110.8999996185303
 10
37.89999771118164
 20
110.8999996185303
 10
38.19999694824219
 20
110.7999992370605
 10
38.29999542236328
 20
110.7999992370605
 10
38.39999771118164
 20
110.7999992370605
 10
38.59999847412109
 20
110.6999988555908
 10
38.59999847412109
 20
110.6999988555908
 10
38.79999923706055
 20
110.6999988555908
 10
38.79999923706055
 20
110.6999988555908
 10
38.79999923706055
 20
110.6999988555908
 10
39.0
 20
110.5999984741211
 10
39.0
 20
110.5999984741211
 10
39.59999847412109
 20
110.4999980926514
 10
40.09999847412109
 20
110.2999982833862
 10
40.5
 20
110.0999984741211
 10
41.0
 20
109.899998664856
 10
41.29999923706055
 20
109.6999988555908
 10
41.59999847412109
 20
109.399998664856
 10
41.89999771118164
 20
109.0999984741211
 10
42.19999694824219
 20
108.7999992370605
 10
42.39999771118164
 20
108.3999977111816
 10
42.39999771118164
 20
108.3999977111816
 10
42.49999618530273
 20
108.1999969482422
 10
42.49999618530273
 20
108.1999969482422
 10
42.49999618530273
 20
108.1999969482422
 10
42.49999618530273
 20
108.1999969482422
 10
42.49999618530273
 20
108.1999969482422
 10
42.49999618530273
 20
108.1999969482422
 10
42.49999618530273
 20
108.1999969482422
 10
42.49999618530273
 20
108.1999969482422
 10
42.49999618530273
 20
108.1999969482422
 10
42.49999618530273
 20
108.1999969482422
 10
42.49999618530273
 20
108.1999969482422
 10
42.49999618530273
 20
108.1999969482422
 10
42.49999618530273
 20
108.0999965667725
 10
42.49999618530273
 20
108.0999965667725
 10
42.49999618530273
 20
108.0999965667725
 10
42.59999465942383
 20
107.899995803833
 10
42.59999465942383
 20
107.899995803833
 10
42.59999465942383
 20
107.899995803833
 10
42.69999313354492
 20
107.7999954223633
 10
42.69999313354492
 20
107.7999954223633
 10
42.79999160766602
 20
107.5999946594238
 10
42.89999389648438
 20
107.399995803833
 10
42.89999389648438
 20
107.1999950408936
 10
42.99999237060547
 20
106.7999954223633
 10
42.99999237060547
 20
106.399995803833
 10
42.99999237060547
 20
105.9999942779541
 10
42.89999389648438
 20
105.1999950408936
 10
42.59999084472656
 20
104.3999938964844
 10
42.09999084472656
 20
103.6999950408936
 10
41.89999008178711
 20
103.399995803833
 10
41.59999084472656
 20
103.1999950408936
 10
41.29999160766602
 20
102.899995803833
 10
40.99999237060547
 20
102.6999950408936
 10
40.69999313354492
 20
102.4999961853027
 10
40.29999160766602
 20
102.399995803833
 10
39.59999084472656
 20
102.1999950408936
 10
38.99999237060547
 20
102.1999950408936
 10
38.39999008178711
 20
102.2999954223633
 10
38.19998931884766
 20
102.2999954223633
 10
38.09999084472656
 20
102.399995803833
 10
37.9999885559082
 20
102.399995803833
 10
37.9999885559082
 20
102.399995803833
 10
37.9999885559082
 20
102.399995803833
 10
37.9999885559082
 20
102.399995803833
 10
37.9999885559082
 20
102.399995803833
 10
37.9999885559082
 20
102.399995803833
 10
37.9999885559082
 20
102.399995803833
 10
37.9999885559082
 20
102.399995803833
 10
37.9999885559082
 20
102.399995803833
 10
37.9999885559082
 20
102.399995803833
 10
37.9999885559082
 20
102.399995803833
 10
37.89999008178711
 20
102.399995803833
 10
37.89999008178711
 20
102.399995803833
 10
37.89999008178711
 20
102.399995803833
 10
37.79999160766602
 20
102.4999961853027
 10
37.79999160766602
 20
102.4999961853027
 10
37.69999313354492
 20
102.4999961853027
 10
37.69999313354492
 20
102.5999965667725
 10
37.59999084472656
 20
102.5999965667725
 10
37.39999008178711
 20
102.6999969482422
 10
37.09999084472656
 20
102.899995803833
 10
36.99999237060547
 20
103.0999965667725
 10
36.59999084472656
 20
103.4999961853027
 10
36.39999389648438
 20
103.899995803833
 10
36.29999160766602
 20
104.2999973297119
 10
36.0
 20
105.0
 10
36.0
 20
105.3999996185303
 10
36.0
 20
105.6000003814697
 10
36.0
 20
105.7000007629395
 10
36.0
 20
105.8999996185303
 10
36.0
 20
106.0
 10
36.0
 20
106.1000003814697
 10
36.0
 20
106.2000007629395
 10
36.0
 20
106.2999992370605
 10
36.0
 20
106.3999996185303
 10
36.0
 20
106.5
 10
36.0
 20
106.5
 10
36.0
 20
106.5
 10
36.0
 20
106.5
 10
36.0
 20
106.5
 10
36.0
 20
106.7000007629395
 10
35.90000152587891
 20
106.7999992370605
 10
35.79999923706055
 20
106.8999996185303
 10
35.59999847412109
 20
107.0
 10
35.39999771118164
 20
106.8999996185303
 10
35.39999771118164
 20
106.6999988555908
 10
35.39999771118164
 20
106.6999988555908
 10
35.39999771118164
 20
106.5999984741211
 10
35.29999923706055
 20
106.3999996185303
 10
35.29999923706055
 20
106.2999992370605
 10
35.20000076293945
 20
106.1999988555908
 10
35.20000076293945
 20
106.1000003814697
 10
35.20000076293945
 20
106.0
 10
35.10000228881836
 20
105.8000011444092
 10
35.10000228881836
 20
105.6000003814697
 10
35.10000228881836
 20
105.2000007629395
 10
35.10000228881836
 20
104.8000011444092
 10
35.20000076293945
 20
104.3000011444092
 10
35.29999923706055
 20
103.8000011444092
 10
35.60000228881836
 20
103.2000007629395
 10
36.0
 20
102.7000007629395
 10
36.20000076293945
 20
102.4000015258789
 10
36.5
 20
102.2000007629395
 10
36.79999923706055
 20
102.0
 10
36.89999771118164
 20
101.8999996185303
 10
37.0
 20
101.8999996185303
 10
37.0
 20
101.7999992370605
 10
37.0
 20
101.7999992370605
 10
37.09999847412109
 20
101.6999988555908
 10
37.09999847412109
 20
101.6999988555908
 10
37.09999847412109
 20
101.6999988555908
 10
37.19999694824219
 20
101.6999988555908
 10
37.19999694824219
 20
101.6999988555908
 10
37.19999694824219
 20
101.6999988555908
 10
37.19999694824219
 20
101.6999988555908
 10
37.19999694824219
 20
101.6999988555908
 10
37.19999694824219
 20
101.6999988555908
 10
37.19999694824219
 20
101.6999988555908
 10
37.19999694824219
 20
101.6999988555908
 10
37.19999694824219
 20
101.6999988555908
 10
37.19999694824219
 20
101.6999988555908
 10
37.19999694824219
 20
101.6999988555908
 10
37.39999771118164
 20
101.5999984741211
 10
37.59999847412109
 20
101.4999980926514
 10
37.79999542236328
 20
101.4999980926514
 10
38.59999465942383
 20
101.1999988555908
 10
39.49999618530273
 20
101.1999988555908
 10
40.49999618530273
 20
101.3999977111816
 10
40.99999618530273
 20
101.4999980926514
 10
41.49999618530273
 20
101.6999969482422
 10
41.89999771118164
 20
101.9999980926514
 10
42.39999771118164
 20
102.2999973297119
 10
42.79999923706055
 20
102.5999984741211
 10
43.19999694824219
 20
103.0999984741211
 10
43.89999771118164
 20
103.8999977111816
 10
44.49999618530273
 20
104.8999977111816
 10
44.79999542236328
 20
106.0999984741211
 10
44.89999389648438
 20
106.6999988555908
 10
44.99999618530273
 20
107.3999977111816
 10
44.89999389648438
 20
107.9999980926514
 10
44.79999542236328
 20
108.2999973297119
 10
44.79999542236328
 20
108.5999984741211
 10
44.69999313354492
 20
108.9999980926514
 10
44.69999313354492
 20
108.9999980926514
 10
44.59999465942383
 20
109.1999979019165
 10
44.59999465942383
 20
109.1999979019165
 10
44.59999465942383
 20
109.1999979019165
 10
44.49999618530273
 20
109.3999977111816
 10
44.49999618530273
 20
109.3999977111816
 10
44.49999618530273
 20
109.3999977111816
 10
44.49999618530273
 20
109.4999980926514
 10
44.49999618530273
 20
109.4999980926514
 10
44.49999618530273
 20
109.4999980926514
 10
44.39999771118164
 20
109.5999984741211
 10
44.39999771118164
 20
109.5999984741211
 10
44.39999771118164
 20
109.5999984741211
 10
44.29999923706055
 20
109.7999982833862
 10
44.29999923706055
 20
109.7999982833862
 10
44.0
 20
110.399998664856
 10
43.70000076293945
 20
110.9999980926514
 10
43.20000076293945
 20
111.4999980926514
 10
42.70000076293945
 20
111.9999980926514
 10
42.10000228881836
 20
112.4999980926514
 10
41.5
 20
112.7999982833862
 10
40.90000152587891
 20
113.0999984741211
 10
40.29999923706055
 20
113.399998664856
 10
39.70000076293945
 20
113.5999984741211
 10
39.70000076293945
 20
113.5999984741211
 10
39.5
 20
113.6999988555908
 10
39.5
 20
113.6999988555908
 10
39.40000152587891
 20
113.6999988555908
 10
39.29999923706055
 20
113.7999992370605
 10
39.20000076293945
 20
113.7999992370605
 10
39.0
 20
113.8999996185303
 10
38.79999923706055
 20
113.8999996185303
 10
38.70000076293945
 20
113.8999996185303
 10
38.29999923706055
 20
114.0
 10
38.0
 20
114.0999994277954
 10
37.60000228881836
 20
114.0999994277954
 10
36.20000076293945
 20
114.2999992370605
 10
34.70000076293945
 20
114.1999998092651
 10
33.30000305175781
 20
113.8999996185303
 10
30.50000381469727
 20
113.2999992370605
 10
27.70000267028809
 20
112.0
 10
25.40000343322754
 20
110.0
 10
23.10000419616699
 20
108.0
 10
21.30000305175781
 20
105.2000007629395
 10
20.40000343322754
 20
102.1000003814697
 10
19.50000381469727
 20
99.0
 10
19.50000381469727
 20
95.79999923706055
 10
20.00000381469727
 20
92.9000015258789
 10
20.20000457763672
 20
91.4000015258789
 10
20.60000419616699
 20
90.0
 10
21.00000381469727
 20
88.60000228881836
 10
21.10000419616699
 20
88.30000305175781
 10
21.20000457763672
 20
87.9000015258789
 10
21.30000305175781
 20
87.60000228881836
 10
21.30000305175781
 20
87.60000228881836
 10
21.50000381469727
 20
87.10000228881836
 10
21.50000381469727
 20
87.10000228881836
 10
21.50000381469727
 20
87.10000228881836
 10
21.70000457763672
 20
86.60000228881836
 10
21.70000457763672
 20
86.60000228881836
 10
21.90000534057617
 20
85.9000015258789
 10
22.20000457763672
 20
85.30000305175781
 10
22.40000534057617
 20
84.60000228881836
 10
23.40000534057617
 20
82.00000381469727
 10
24.40000534057617
 20
79.60000228881836
 10
25.70000457763672
 20
77.4000015258789
 10
25.90000534057617
 20
77.10000228881836
 10
26.10000419616699
 20
76.80000305175781
 10
26.30000495910645
 20
76.5
 10
29.20000457763672
 20
71.79999923706055
 10
32.20000457763672
 20
71.0999984741211
 10
30.50000381469727
 20
69.29999923706055
 10
29.60000419616699
 20
68.39999771118164
 10
28.10000419616699
 20
68.0999984741211
 10
26.50000381469727
 20
68.29999923706055
 10
26.50000381469727
 20
68.29999923706055
 10
26.40000343322754
 20
68.29999923706055
 10
26.40000343322754
 20
68.29999923706055
 10
26.30000305175781
 20
68.29999923706055
 10
26.20000267028809
 20
68.29999923706055
 10
26.10000419616699
 20
68.29999923706055
 10
25.90000343322754
 20
68.29999923706055
 10
25.80000495910645
 20
68.39999771118164
 10
25.60000419616699
 20
68.39999771118164
 10
25.50000381469727
 20
68.39999771118164
 10
25.40000343322754
 20
68.39999771118164
 10
25.30000495910645
 20
68.49999618530273
 10
25.30000495910645
 20
68.49999618530273
 10
25.20000457763672
 20
68.49999618530273
 10
25.20000457763672
 20
68.49999618530273
 10
24.40000534057617
 20
68.69999694824219
 10
23.70000457763672
 20
68.99999618530273
 10
23.00000381469727
 20
69.29999542236328
 10
23.00000381469727
 20
69.29999542236328
 10
22.70000457763672
 20
69.49999618530273
 10
22.70000457763672
 20
69.49999618530273
 10
21.50000381469727
 20
70.09999465942383
 10
20.30000495910645
 20
71.09999465942383
 10
19.40000534057617
 20
72.39999771118164
 10
18.5000057220459
 20
73.69999694824219
 10
17.70000457763672
 20
75.19999694824219
 10
16.90000534057617
 20
76.89999771118164
 10
16.10000610351562
 20
78.5999984741211
 10
15.40000534057617
 20
80.29999923706055
 10
14.30000495910645
 20
82.0999984741211
 10
13.70000457763672
 20
83.0
 10
12.90000534057617
 20
83.89999771118164
 10
11.90000534057617
 20
84.5
 10
11.40000534057617
 20
84.79999923706055
 10
10.80000495910645
 20
85.0999984741211
 10
10.20000553131104
 20
85.20000076293945
 10
9.600005149841309
 20
85.29999923706055
 10
9.100005149841309
 20
85.4000015258789
 10
8.500005722045898
 20
85.4000015258789
 10
8.000005722045898
 20
85.4000015258789
 10
7.500005722045898
 20
85.30000305175781
 10
7.000005722045898
 20
85.20000076293945
 10
7.000005722045898
 20
85.20000076293945
 10
6.600005626678467
 20
85.10000228881836
 10
6.600005626678467
 20
85.10000228881836
 10
6.600005626678467
 20
85.10000228881836
 10
6.300005435943604
 20
85.00000381469727
 10
6.300005435943604
 20
85.00000381469727
 10
6.00000524520874
 20
84.90000534057617
 10
5.800005435943604
 20
84.80000305175781
 10
5.600005626678467
 20
84.70000457763672
 10
4.700005531311035
 20
84.30000305175781
 10
3.800005674362183
 20
83.70000457763672
 10
3.300005674362183
 20
82.90000534057617
 10
2.700005531311035
 20
82.10000610351562
 10
2.500005722045898
 20
81.20000457763672
 10
2.40000581741333
 20
80.30000686645508
 10
2.40000581741333
 20
79.50000762939453
 10
2.600005865097046
 20
78.70000839233398
 10
2.90000581741333
 20
78.00000762939453
 10
3.200005769729614
 20
77.30000686645508
 10
3.700005769729614
 20
76.80000686645508
 10
4.300005912780762
 20
76.50000762939453
 10
4.90000581741333
 20
76.20000839233398
 10
5.500005722045898
 20
76.10000610351562
 10
6.000005722045898
 20
76.10000610351562
 10
6.500005722045898
 20
76.10000610351562
 10
6.90000581741333
 20
76.30000686645508
 10
7.300005912780762
 20
76.40000534057617
 10
7.600006103515625
 20
76.60000610351562
 10
7.90000581741333
 20
76.70000457763672
 10
8.100006103515625
 20
76.90000534057617
 10
8.300005912780762
 20
77.00000381469727
 10
8.400006294250488
 20
77.20000457763672
 10
8.500005722045898
 20
77.20000457763672
 10
8.600006103515625
 20
77.30000305175781
 10
8.600006103515625
 20
77.30000305175781
 10
8.600006103515625
 20
77.30000305175781
 10
8.700006484985352
 20
77.4000015258789
 10
8.800005912780762
 20
77.60000228881836
 10
8.700006484985352
 20
77.70000457763672
 10
8.600006103515625
 20
77.90000534057617
 10
8.400006294250488
 20
77.90000534057617
 10
8.200006484985352
 20
77.80000305175781
 10
8.200006484985352
 20
77.80000305175781
 10
8.200006484985352
 20
77.80000305175781
 10
8.200006484985352
 20
77.80000305175781
 10
8.200006484985352
 20
77.80000305175781
 10
8.200006484985352
 20
77.80000305175781
 10
8.100006103515625
 20
77.70000457763672
 10
8.0
 20
78.0
 10
7.900000095367432
 20
78.0
 10
7.699999809265137
 20
77.9000015258789
 10
7.299999713897705
 20
77.70000076293945
 10
6.699999809265137
 20
77.5
 10
6.099999904632568
 20
77.60000228881836
 10
5.5
 20
77.70000076293945
 10
4.899999618530273
 20
78.20000076293945
 10
4.699999809265137
 20
79.00000381469727
 10
4.599999904632568
 20
79.40000534057617
 10
4.599999904632568
 20
79.90000534057617
 10
4.699999809265137
 20
80.30000305175781
 10
4.799999713897705
 20
80.70000457763672
 10
5.0
 20
81.10000228881836
 10
5.399999618530273
 20
81.4000015258789
 10
5.699999809265137
 20
81.70000076293945
 10
6.199999809265137
 20
81.9000015258789
 10
6.699999809265137
 20
82.0
 10
6.799999713897705
 20
82.0
 10
7.0
 20
82.0
 10
7.099999904632568
 20
82.0999984741211
 10
7.099999904632568
 20
82.0999984741211
 10
7.400000095367432
 20
82.0999984741211
 10
7.400000095367432
 20
82.0999984741211
 10
7.400000095367432
 20
82.0999984741211
 10
7.400000095367432
 20
82.0999984741211
 10
7.400000095367432
 20
82.0999984741211
 10
7.400000095367432
 20
82.0999984741211
 10
7.300000190734863
 20
82.0999984741211
 10
7.400000095367432
 20
82.0999984741211
 10
7.400000095367432
 20
82.0999984741211
 10
7.400000095367432
 20
82.0999984741211
 10
7.400000095367432
 20
82.0999984741211
 10
7.400000095367432
 20
82.0999984741211
 10
7.5
 20
82.0999984741211
 10
7.5
 20
82.0999984741211
 10
7.5
 20
82.0999984741211
 10
7.599999904632568
 20
82.0999984741211
 10
7.599999904632568
 20
82.0999984741211
 10
7.900000095367432
 20
82.0999984741211
 10
8.199999809265137
 20
82.0999984741211
 10
8.5
 20
82.0
 10
9.100000381469727
 20
81.9000015258789
 10
9.5
 20
81.70000076293945
 10
9.899999618530273
 20
81.4000015258789
 10
10.29999923706055
 20
81.10000228881836
 10
10.59999942779541
 20
80.60000228881836
 10
10.89999961853027
 20
80.0
 10
11.19999980926514
 20
79.4000015258789
 10
11.5
 20
78.5999984741211
 10
11.69999980926514
 20
77.79999923706055
 10
12.0
 20
76.89999771118164
 10
12.19999980926514
 20
76.0999984741211
 10
12.5
 20
75.20000076293945
 10
13.10000038146973
 20
73.4000015258789
 10
13.69999980926514
 20
71.4000015258789
 10
14.80000019073486
 20
69.5
 10
15.80000019073486
 20
67.5999984741211
 10
17.20000076293945
 20
65.70000076293945
 10
19.10000038146973
 20
64.20000076293945
 10
19.10000038146973
 20
64.20000076293945
 10
19.80000114440918
 20
63.70000076293945
 10
19.80000114440918
 20
63.70000076293945
 10
20.10000038146973
 20
63.5
 10
20.30000114440918
 20
63.29999923706055
 10
20.60000038146973
 20
63.20000076293945
 10
21.10000038146973
 20
62.90000152587891
 10
21.60000038146973
 20
62.60000228881836
 10
22.20000076293945
 20
62.29999923706055
 10
23.30000114440918
 20
61.79999923706055
 10
24.5
 20
61.5
 10
25.60000038146973
 20
61.29999923706055
 10
26.30000114440918
 20
61.20000076293945
 10
26.89999961853027
 20
61.20000076293945
 10
27.60000038146973
 20
61.20000076293945
 10
27.60000038146973
 20
61.20000076293945
 10
27.60000038146973
 20
61.20000076293945
 10
27.60000038146973
 20
61.20000076293945
 10
27.60000038146973
 20
61.20000076293945
 10
30.30000114440918
 20
61.20000076293945
 10
31.39999961853027
 20
60.0
 10
31.69999885559082
 20
59.59999847412109
 10
32.09999847412109
 20
59.19999694824219
 10
31.89999961853027
 20
58.19999694824219
 10
31.69999885559082
 20
57.0
 10
31.0
 20
56.39999389648438
 10
29.29999923706055
 20
56.5
 10
29.29999923706055
 20
56.5
 10
29.29999923706055
 20
56.5
 10
29.29999923706055
 20
56.5
 10
27.89999961853027
 20
56.59999847412109
 10
26.39999961853027
 20
56.69999694824219
 10
24.89999961853027
 20
56.5
 10
23.39999961853027
 20
56.40000152587891
 10
22.0
 20
56.0
 10
20.79999923706055
 20
55.40000152587891
 10
20.19999885559082
 20
55.09999847412109
 10
19.59999847412109
 20
54.80000305175781
 10
19.0
 20
54.40000152587891
 10
18.70000076293945
 20
54.20000457763672
 10
18.39999961853027
 20
53.90000152587891
 10
18.20000076293945
 20
53.70000457763672
 10
18.0
 20
53.40000152587891
 10
17.80000114440918
 20
53.10000610351562
 10
17.60000038146973
 20
52.80000305175781
 10
17.30000114440918
 20
52.20000457763672
 10
17.20000076293945
 20
51.40000152587891
 10
17.20000076293945
 20
50.80000305175781
 10
17.30000114440918
 20
50.10000610351562
 10
17.5
 20
49.60000610351562
 10
17.90000152587891
 20
49.10000610351562
 10
18.30000114440918
 20
48.70000457763672
 10
18.70000076293945
 20
48.30000305175781
 10
19.20000076293945
 20
48.20000457763672
 10
19.70000076293945
 20
48.00000762939453
 10
20.10000038146973
 20
48.00000762939453
 10
20.5
 20
48.10000610351562
 10
21.29999923706055
 20
48.30000305175781
 10
21.70000076293945
 20
48.60000610351562
 10
22.0
 20
48.80000305175781
 10
22.10000038146973
 20
48.90000152587891
 10
22.20000076293945
 20
49.0
 10
22.29999923706055
 20
49.10000610351562
 10
22.39999961853027
 20
49.20000457763672
 10
22.39999961853027
 20
49.20000457763672
 10
22.39999961853027
 20
49.20000457763672
 10
22.5
 20
49.30000305175781
 10
22.5
 20
49.50000762939453
 10
22.5
 20
49.60000610351562
 10
22.39999961853027
 20
49.80000305175781
 10
22.20000076293945
 20
49.80000305175781
 10
22.0
 20
49.70000457763672
 10
22.0
 20
49.70000457763672
 10
22.0
 20
49.70000457763672
 10
22.0
 20
49.70000457763672
 10
22.0
 20
49.70000457763672
 10
22.0
 20
49.70000457763672
 10
21.89999961853027
 20
49.60000610351562
 10
21.79999923706055
 20
49.60000610351562
 10
21.69999885559082
 20
49.50000762939453
 10
21.60000038146973
 20
49.40000915527344
 10
21.30000114440918
 20
49.30001068115234
 10
20.89999961853027
 20
49.10000610351562
 10
20.5
 20
49.10000610351562
 10
20.29999923706055
 20
49.10000610351562
 10
20.0
 20
49.20000457763672
 10
19.79999923706055
 20
49.30000305175781
 10
19.59999847412109
 20
49.40000152587891
 10
19.39999961853027
 20
49.60000610351562
 10
19.29999923706055
 20
49.90000152587891
 10
19.09999847412109
 20
50.40000152587891
 10
19.09999847412109
 20
51.09999847412109
 10
19.5
 20
51.59999847412109
 10
19.70000076293945
 20
51.90000152587891
 10
20.0
 20
52.09999847412109
 10
20.39999961853027
 20
52.19999694824219
 10
20.79999923706055
 20
52.39999389648438
 10
21.29999923706055
 20
52.5
 10
21.79999923706055
 20
52.59999847412109
 10
22.79999923706055
 20
52.79999542236328
 10
23.89999961853027
 20
52.79999542236328
 10
25.09999847412109
 20
52.69999694824219
 10
26.29999923706055
 20
52.59999847412109
 10
27.49999809265137
 20
52.29999542236328
 10
28.69999885559082
 20
52.0
 10
29.29999923706055
 20
51.80000305175781
 10
29.99999809265137
 20
51.69999694824219
 10
30.69999885559082
 20
51.5
 10
30.79999923706055
 20
51.5
 10
30.89999961853027
 20
51.40000152587891
 10
30.99999809265137
 20
51.40000152587891
 10
34.89999771118164
 20
50.30000305175781
 10
39.79999923706055
 20
46.09999847412109
 10
36.39999771118164
 20
41.30000305175781
 10
36.29999923706055
 20
41.20000457763672
 10
36.19999694824219
 20
41.0
 10
35.99999618530273
 20
40.90000152587891
 10
35.19999694824219
 20
40.09999847412109
 10
34.19999694824219
 20
39.5
 10
32.99999618530273
 20
39.09999847412109
 10
32.69999694824219
 20
39.0
 10
32.39999771118164
 20
38.90000152587891
 10
32.09999465942383
 20
38.79999542236328
 10
31.89999389648438
 20
38.79999542236328
 10
31.79999542236328
 20
38.69999694824219
 10
31.59999465942383
 20
38.69999694824219
 10
31.59999465942383
 20
38.69999694824219
 10
31.19999504089355
 20
38.59999847412109
 10
31.19999504089355
 20
38.59999847412109
 10
30.69999504089355
 20
38.5
 10
30.19999504089355
 20
38.59999847412109
 10
29.69999504089355
 20
38.69999694824219
 10
28.69999504089355
 20
38.89999389648438
 10
27.69999504089355
 20
39.5
 10
27.19999504089355
 20
40.19999694824219
 10
26.89999580383301
 20
40.5
 10
26.79999542236328
 20
40.89999389648438
 10
26.79999542236328
 20
41.29999542236328
 10
26.79999542236328
 20
41.29999542236328
 10
26.79999542236328
 20
41.39999389648438
 10
26.79999542236328
 20
41.39999389648438
 10
26.79999542236328
 20
41.49999237060547
 10
26.79999542236328
 20
41.49999237060547
 10
26.79999542236328
 20
41.59999084472656
 10
26.79999542236328
 20
41.69998931884766
 10
26.79999542236328
 20
41.79998779296875
 10
26.89999580383301
 20
41.89999389648438
 10
26.99999618530273
 20
42.09999084472656
 10
27.09999656677246
 20
42.29999542236328
 10
27.19999504089355
 20
42.39999389648438
 10
27.59999465942383
 20
43.09999084472656
 10
28.29999542236328
 20
43.39999389648438
 10
28.79999542236328
 20
43.49999237060547
 10
29.29999542236328
 20
43.59999084472656
 10
29.69999504089355
 20
43.39999389648438
 10
29.99999618530273
 20
43.19998931884766
 10
30.09999656677246
 20
43.09999084472656
 10
30.19999694824219
 20
42.99999237060547
 10
30.29999542236328
 20
42.99999237060547
 10
30.39999580383301
 20
42.89999389648438
 10
30.39999580383301
 20
42.89999389648438
 10
30.39999580383301
 20
42.89999389648438
 10
30.39999580383301
 20
42.89999389648438
 10
30.39999580383301
 20
42.89999389648438
 10
30.39999580383301
 20
42.89999389648438
 10
30.49999618530273
 20
42.79999542236328
 10
30.69999504089355
 20
42.79999542236328
 10
30.89999580383301
 20
42.89999389648438
 10
30.99999618530273
 20
42.99999237060547
 10
31.09999656677246
 20
43.19999694824219
 10
30.99999618530273
 20
43.39999389648438
 10
30.99999618530273
 20
43.39999389648438
 10
30.99999618530273
 20
43.39999389648438
 10
30.89999580383301
 20
43.49999237060547
 10
30.79999542236328
 20
43.59999084472656
 10
30.69999504089355
 20
43.69998931884766
 10
30.59999656677246
 20
43.79999542236328
 10
30.39999580383301
 20
43.89999389648438
 10
30.19999694824219
 20
44.09999847412109
 10
29.99999618530273
 20
44.19999694824219
 10
29.69999694824219
 20
44.29999542236328
 10
29.29999542236328
 20
44.39999389648438
 10
28.89999580383301
 20
44.39999389648438
 10
28.09999656677246
 20
44.39999389648438
 10
27.09999656677246
 20
43.89999389648438
 10
26.39999580383301
 20
43.09999084472656
 10
26.19999504089355
 20
42.89999389648438
 10
26.09999656677246
 20
42.59999084472656
 10
25.89999580383301
 20
42.39999389648438
 10
25.79999542236328
 20
42.29999542236328
 10
25.79999542236328
 20
42.09999084472656
 10
25.69999504089355
 20
41.99999237060547
 10
25.69999504089355
 20
41.89999389648438
 10
25.69999504089355
 20
41.89999389648438
 10
25.59999465942383
 20
41.79999542236328
 10
25.59999465942383
 20
41.79999542236328
 10
25.4999942779541
 20
41.59999847412109
 10
25.4999942779541
 20
41.59999847412109
 10
25.29999351501465
 20
40.90000152587891
 10
25.39999389648438
 20
40.19999694824219
 10
25.69999504089355
 20
39.5
 10
25.9999942779541
 20
38.80000305175781
 10
26.39999580383301
 20
38.19999694824219
 10
26.9999942779541
 20
37.69999694824219
 10
27.4999942779541
 20
37.19999694824219
 10
28.19999504089355
 20
36.69999694824219
 10
28.89999389648438
 20
36.39999389648438
 10
29.59999465942383
 20
36.09999084472656
 10
30.39999389648438
 20
35.79999542236328
 10
31.39999389648438
 20
35.69999694824219
 10
31.69999313354492
 20
35.69999694824219
 10
31.69999313354492
 20
35.69999694824219
 10
31.9999942779541
 20
35.69999694824219
 10
32.19999313354492
 20
35.69999694824219
 10
32.39999389648438
 20
35.69999694824219
 10
32.59999465942383
 20
35.69999694824219
 10
32.99999618530273
 20
35.69999694824219
 10
33.39999389648438
 20
35.69999694824219
 10
33.79999542236328
 20
35.79999542236328
 10
34.59999465942383
 20
35.89999389648438
 10
35.49999618530273
 20
36.09999847412109
 10
36.39999389648438
 20
36.39999389648438
 10
37.29999160766602
 20
36.69998931884766
 10
38.09999465942383
 20
37.09999084472656
 10
38.89999389648438
 20
37.59999084472656
 10
40.49999237060547
 20
38.59999084472656
 10
41.69999313354492
 20
40.09999084472656
 10
42.69999313354492
 20
41.49999237060547
 10
43.19999313354492
 20
42.19998931884766
 10
43.69999313354492
 20
42.89999389648438
 10
44.09999465942383
 20
43.59999084472656
 10
44.39999389648438
 20
43.99999237060547
 10
44.59999465942383
 20
44.39999389648438
 10
44.79999542236328
 20
44.79998779296875
 10
45.89999389648438
 20
46.29998779296875
 10
47.89999389648438
 20
47.59999084472656
 10
50.09999465942383
 20
47.89998626708984
 10
52.59999465942383
 20
47.79998779296875
 10
54.89999389648438
 20
46.39998626708984
 10
56.19999313354492
 20
44.79998779296875
 10
56.39999389648438
 20
44.39998626708984
 10
56.69999313354492
 20
43.99998474121094
 10
56.99999237060547
 20
43.59999084472656
 10
57.39999389648438
 20
42.89999389648438
 10
57.89999389648438
 20
42.19998931884766
 10
58.39999389648438
 20
41.49999237060547
 10
59.39999389648438
 20
40.09999084472656
 10
60.69999313354492
 20
38.69998931884766
 10
62.29999542236328
 20
37.59999084472656
 10
63.09999465942383
 20
37.09999084472656
 10
63.89999389648438
 20
36.69998931884766
 10
64.79999542236328
 20
36.39999389648438
 10
65.69999694824219
 20
36.09999084472656
 10
66.49999237060547
 20
35.89999389648438
 10
67.39999389648438
 20
35.79999542236328
 10
67.79999542236328
 20
35.79999542236328
 10
68.19999694824219
 20
35.69999694824219
 10
68.59999084472656
 20
35.69999694824219
 10
68.79998779296875
 20
35.69999694824219
 10
68.99999237060547
 20
35.69999694824219
 10
69.19998931884766
 20
35.69999694824219
 10
69.49999237060547
 20
35.69999694824219
 10
69.49999237060547
 20
35.69999694824219
 10
69.79998779296875
 20
35.69999694824219
 10
70.69998931884766
 20
35.79999542236328
 10
71.49998474121094
 20
36.0
 10
72.19998931884766
 20
36.39999389648438
 10
72.89998626708984
 20
36.69999694824219
 10
73.59999084472656
 20
37.19999694824219
 10
74.09999084472656
 20
37.69999694824219
 10
74.59999084472656
 20
38.19999694824219
 10
75.09999084472656
 20
38.89999389648438
 10
75.29998779296875
 20
39.5
 10
75.59999084472656
 20
40.19999694824219
 10
75.59999084472656
 20
41.0
 10
75.49998474121094
 20
41.59999847412109
 10
75.49998474121094
 20
41.59999847412109
 10
75.0
 20
42.0
 10
75.0
 20
42.0
 10
75.0
 20
42.09999847412109
 10
75.0
 20
42.09999847412109
 10
74.9000015258789
 20
42.19999694824219
 10
74.80000305175781
 20
42.39999389648438
 10
74.80000305175781
 20
42.5
 10
74.70000457763672
 20
42.59999847412109
 10
74.60000610351562
 20
42.90000152587891
 10
74.4000015258789
 20
43.09999847412109
 10
74.20000457763672
 20
43.29999542236328
 10
73.50000762939453
 20
44.09999847412109
 10
72.60000610351562
 20
44.59999847412109
 10
71.70000457763672
 20
44.59999847412109
 10
71.30000305175781
 20
44.59999847412109
 10
70.9000015258789
 20
44.5
 10
70.60000610351562
 20
44.40000152587891
 10
70.30000305175781
 20
44.30000305175781
 10
70.10000610351562
 20
44.09999847412109
 10
70.00000762939453
 20
44.0
 10
69.80001068115234
 20
43.90000152587891
 10
69.70000457763672
 20
43.69999694824219
 10
69.70000457763672
 20
43.69999694824219
 10
69.60000610351562
 20
43.59999847412109
 10
69.60000610351562
 20
43.59999847412109
 10
69.60000610351562
 20
43.59999847412109
 10
69.50000762939453
 20
43.5
 10
69.50000762939453
 20
43.29999542236328
 10
69.60000610351562
 20
43.09999847412109
 10
69.70000457763672
 20
43.0
 10
70.00000762939453
 20
43.0
 10
70.10000610351562
 20
43.09999847412109
 10
70.10000610351562
 20
43.09999847412109
 10
70.10000610351562
 20
43.09999847412109
 10
70.10000610351562
 20
43.09999847412109
 10
70.10000610351562
 20
43.09999847412109
 10
70.10000610351562
 20
43.09999847412109
 10
70.20000457763672
 20
43.19999694824219
 10
70.30000305175781
 20
43.29999542236328
 10
70.30000305175781
 20
43.29999542236328
 10
70.50000762939453
 20
43.39999389648438
 10
70.70000457763672
 20
43.59999084472656
 10
71.20000457763672
 20
43.79999542236328
 10
71.70000457763672
 20
43.69999694824219
 10
72.20000457763672
 20
43.59999847412109
 10
72.9000015258789
 20
43.29999542236328
 10
73.30000305175781
 20
42.59999847412109
 10
73.4000015258789
 20
42.40000152587891
 10
73.5
 20
42.29999542236328
 10
73.60000610351562
 20
42.09999847412109
 10
73.60000610351562
 20
42.0
 10
73.70000457763672
 20
41.90000152587891
 10
73.70000457763672
 20
41.79999542236328
 10
73.70000457763672
 20
41.79999542236328
 10
73.70000457763672
 20
41.69999694824219
 10
73.70000457763672
 20
41.59999847412109
 10
73.70000457763672
 20
41.59999847412109
 10
73.70000457763672
 20
41.5
 10
73.70000457763672
 20
41.5
 10
73.70000457763672
 20
41.09999847412109
 10
73.60000610351562
 20
40.69999694824219
 10
73.30000305175781
 20
40.40000152587891
 10
72.80000305175781
 20
39.70000457763672
 10
71.80000305175781
 20
39.20000457763672
 10
70.80000305175781
 20
38.90000152587891
 10
70.30000305175781
 20
38.80000305175781
 10
69.70000457763672
 20
38.80000305175781
 10
69.30000305175781
 20
38.80000305175781
 10
69.30000305175781
 20
38.80000305175781
 10
68.9000015258789
 20
38.80000305175781
 10
68.9000015258789
 20
38.90000152587891
 10
68.70000457763672
 20
38.90000152587891
 10
68.5999984741211
 20
39.0
 10
68.4000015258789
 20
39.0
 10
68.0999984741211
 20
39.09999847412109
 10
67.80000305175781
 20
39.19999694824219
 10
67.5
 20
39.30000305175781
 10
66.30000305175781
 20
39.70000457763672
 10
65.30000305175781
 20
40.30000305175781
 10
64.5
 20
41.10000610351562
 10
64.4000015258789
 20
41.20000457763672
 10
64.30000305175781
 20
41.40000915527344
 10
64.0999984741211
 20
41.50000762939453
 10
60.69999694824219
 20
46.20000457763672
 10
65.5
 20
50.50000762939453
 10
69.4000015258789
 20
51.60000610351562
 10
69.5
 20
51.60000610351562
 10
69.5999984741211
 20
51.70000457763672
 10
69.70000457763672
 20
51.70000457763672
 10
70.4000015258789
 20
51.90000152587891
 10
71.00000762939453
 20
52.10000610351562
 10
71.70000457763672
 20
52.20000457763672
 10
73.00000762939453
 20
52.50000762939453
 10
74.20000457763672
 20
52.80000305175781
 10
75.30000305175781
 20
52.90000152587891
 10
76.4000015258789
 20
53.0
 10
77.60000610351562
 20
53.0
 10
78.60000610351562
 20
52.80000305175781
 10
79.10000610351562
 20
52.70000457763672
 10
79.60000610351562
 20
52.5
 10
80.00000762939453
 20
52.40000152587891
 10
80.30001068115234
 20
52.20000457763672
 10
80.70000457763672
 20
52.0
 10
80.90000915527344
 20
51.80000305175781
 10
81.30001068115234
 20
51.30000305175781
 10
81.40000915527344
 20
50.60000610351562
 10
81.10000610351562
 20
50.10000610351562
 10
81.00000762939453
 20
49.90000915527344
 10
80.80000305175781
 20
49.60000610351562
 10
80.60000610351562
 20
49.50000762939453
 10
80.40000915527344
 20
49.40000915527344
 10
80.20000457763672
 20
49.30001068115234
 10
79.90000915527344
 20
49.30001068115234
 10
79.40000915527344
 20
49.30001068115234
 10
79.00000762939453
 20
49.40000915527344
 10
78.80001068115234
 20
49.60001373291016
 10
78.70001220703125
 20
49.70001220703125
 10
78.60001373291016
 20
49.70001220703125
 10
78.50000762939453
 20
49.80001068115234
 10
78.40000915527344
 20
49.80001068115234
 10
78.40000915527344
 20
49.90000915527344
 10
78.40000915527344
 20
49.90000915527344
 10
78.40000915527344
 20
49.90000915527344
 10
78.40000915527344
 20
49.90000915527344
 10
78.40000915527344
 20
49.90000915527344
 10
78.30001068115234
 20
50.00000762939453
 10
78.10000610351562
 20
50.00000762939453
 10
78.00000762939453
 20
49.80001068115234
 10
77.90000915527344
 20
49.70001220703125
 10
77.90000915527344
 20
49.40000915527344
 10
78.00000762939453
 20
49.30001068115234
 10
78.00000762939453
 20
49.30001068115234
 10
78.00000762939453
 20
49.30001068115234
 10
78.10000610351562
 20
49.20001220703125
 10
78.20000457763672
 20
49.10001373291016
 10
78.30000305175781
 20
49.00001525878906
 10
78.40000915527344
 20
48.90000915527344
 10
78.70001220703125
 20
48.70001220703125
 10
79.10000610351562
 20
48.30001068115234
 10
79.90000915527344
 20
48.20001220703125
 10
80.30001068115234
 20
48.10001373291016
 10
80.70001220703125
 20
48.10001373291016
 10
81.20001220703125
 20
48.30001068115234
 10
81.70001220703125
 20
48.50000762939453
 10
82.10001373291016
 20
48.80001068115234
 10
82.50001525878906
 20
49.20001220703125
 10
82.90001678466797
 20
49.60001373291016
 10
83.10001373291016
 20
50.20001220703125
 10
83.20001220703125
 20
50.90000915527344
 10
83.30001068115234
 20
51.60000610351562
 10
83.20001220703125
 20
52.30001068115234
 10
82.80001068115234
 20
52.90000915527344
 10
82.60001373291016
 20
53.20001220703125
 10
82.40000915527344
 20
53.50000762939453
 10
82.20001220703125
 20
53.80001068115234
 10
82.00001525878906
 20
54.10001373291016
 10
81.70001220703125
 20
54.30001068115234
 10
81.40000915527344
 20
54.50000762939453
 10
80.80001068115234
 20
54.90000915527344
 10
80.20001220703125
 20
55.20000457763672
 10
79.60000610351562
 20
55.50000762939453
 10
78.30000305175781
 20
56.10000610351562
 10
76.90000915527344
 20
56.40000915527344
 10
75.40000915527344
 20
56.60000610351562
 10
73.90000915527344
 20
56.70000457763672
 10
72.40000915527344
 20
56.70000457763672
 10
71.00000762939453
 20
56.60000610351562
 10
69.30001068115234
 20
56.50000762939453
 10
68.60000610351562
 20
57.10000610351562
 10
68.40000915527344
 20
58.30000305175781
 10
68.20001220703125
 20
59.30000305175781
 10
68.60000610351562
 20
59.70000457763672
 10
68.90000915527344
 20
60.10000610351562
 10
70.00000762939453
 20
61.30000686645508
 10
72.70001220703125
 20
61.30000686645508
 10
72.70001220703125
 20
61.30000686645508
 10
72.70001220703125
 20
61.30000686645508
 10
72.70001220703125
 20
61.30000686645508
 10
72.70001220703125
 20
61.30000686645508
 10
73.30001068115234
 20
61.30000686645508
 10
74.00001525878906
 20
61.30000686645508
 10
74.70001220703125
 20
61.40000534057617
 10
75.80001068115234
 20
61.60000610351562
 10
77.00001525878906
 20
61.90000534057617
 10
78.10001373291016
 20
62.40000534057617
 10
78.60001373291016
 20
62.60000610351562
 10
79.20001220703125
 20
62.90000534057617
 10
79.70001220703125
 20
63.30000686645508
 10
80.00001525878906
 20
63.50000762939453
 10
80.20001220703125
 20
63.60000610351562
 10
80.50001525878906
 20
63.80000686645508
 10
80.50001525878906
 20
63.80000686645508
 10
81.20001220703125
 20
64.30000686645508
 10
81.20001220703125
 20
64.30000686645508
 10
83.00001525878906
 20
65.80000686645508
 10
84.40000915527344
 20
67.70000839233398
 10
85.50001525878906
 20
69.70000839233398
 10
86.50001525878906
 20
71.60000991821289
 10
87.20001220703125
 20
73.60000991821289
 10
87.80001831054688
 20
75.40000915527344
 10
88.10002136230469
 20
76.30001068115234
 10
88.30001831054688
 20
77.10000991821289
 10
88.60002136230469
 20
78.00000762939453
 10
88.9000244140625
 20
78.80000686645508
 10
89.10002136230469
 20
79.60000610351562
 10
89.4000244140625
 20
80.20000839233398
 10
89.70002746582031
 20
80.80000686645508
 10
90.0000228881836
 20
81.30000686645508
 10
90.4000244140625
 20
81.70000839233398
 10
90.8000259399414
 20
82.00000762939453
 10
91.20002746582031
 20
82.20000839233398
 10
91.70002746582031
 20
82.30000686645508
 10
92.00003051757812
 20
82.30000686645508
 10
92.3000259399414
 20
82.40000534057617
 10
92.60002899169922
 20
82.40000534057617
 10
92.60002899169922
 20
82.40000534057617
 10
92.70002746582031
 20
82.40000534057617
 10
92.70002746582031
 20
82.40000534057617
 10
92.70002746582031
 20
82.40000534057617
 10
92.8000259399414
 20
82.40000534057617
 10
92.8000259399414
 20
82.40000534057617
 10
92.8000259399414
 20
82.40000534057617
 10
92.8000259399414
 20
82.40000534057617
 10
92.8000259399414
 20
82.40000534057617
 10
92.8000259399414
 20
82.40000534057617
 10
92.8000259399414
 20
82.40000534057617
 10
92.8000259399414
 20
82.40000534057617
 10
92.8000259399414
 20
82.40000534057617
 10
92.8000259399414
 20
82.40000534057617
 10
92.8000259399414
 20
82.40000534057617
 10
92.8000259399414
 20
82.40000534057617
 10
93.10002899169922
 20
82.40000534057617
 10
93.10002899169922
 20
82.40000534057617
 10
93.20002746582031
 20
82.40000534057617
 10
93.3000259399414
 20
82.40000534057617
 10
93.50003051757812
 20
82.30000686645508
 10
94.00003051757812
 20
82.20000839233398
 10
94.50003051757812
 20
82.00000762939453
 10
94.80003356933594
 20
81.70000839233398
 10
95.10003662109375
 20
81.40000915527344
 10
95.40003204345703
 20
81.00000762939453
 10
95.50003051757812
 20
80.60000991821289
 10
95.60002899169922
 20
80.20000839233398
 10
95.60002899169922
 20
79.70000839233398
 10
95.50003051757812
 20
79.30001068115234
 10
95.30003356933594
 20
78.5000114440918
 10
94.70002746582031
 20
78.0000114440918
 10
94.10002899169922
 20
77.90000915527344
 10
93.50003051757812
 20
77.80001068115234
 10
92.90003204345703
 20
78.00000762939453
 10
92.50003051757812
 20
78.20000839233398
 10
92.30003356933594
 20
78.30000686645508
 10
92.20002746582031
 20
78.40000915527344
 10
92.10002899169922
 20
78.40000915527344
 10
92.00003051757812
 20
78.40000915527344
 10
92.00003051757812
 20
78.50000762939453
 10
92.00003051757812
 20
78.50000762939453
 10
92.00003051757812
 20
78.50000762939453
 10
92.00003051757812
 20
78.50000762939453
 10
92.00003051757812
 20
78.50000762939453
 10
91.90003204345703
 20
78.60000610351562
 10
91.70002746582031
 20
78.50000762939453
 10
91.60002899169922
 20
78.40000915527344
 10
91.50003051757812
 20
78.30001068115234
 10
91.50003051757812
 20
78.00000762939453
 10
91.60002899169922
 20
77.90000915527344
 10
91.60002899169922
 20
77.90000915527344
 10
91.60002899169922
 20
77.90000915527344
 10
91.70002746582031
 20
77.80001068115234
 10
91.8000259399414
 20
77.70001220703125
 10
91.9000244140625
 20
77.60000991821289
 10
92.10002899169922
 20
77.5000114440918
 10
92.3000259399414
 20
77.4000129699707
 10
92.50003051757812
 20
77.20001220703125
 10
92.90003204345703
 20
77.0000114440918
 10
93.20003509521484
 20
76.9000129699707
 10
93.70003509521484
 20
76.70001220703125
 10
94.20003509521484
 20
76.70001220703125
 10
94.70003509521484
 20
76.70001220703125
 10
95.30003356933594
 20
76.80001068115234
 10
95.90003204345703
 20
77.10001373291016
 10
96.50003051757812
 20
77.4000129699707
 10
97.00003051757812
 20
78.00001525878906
 10
97.30003356933594
 20
78.60001373291016
 10
97.60003662109375
 20
79.30001449584961
 10
97.80003356933594
 20
80.00001525878906
 10
97.80003356933594
 20
80.9000129699707
 10
97.5
 20
81.5
 10
97.19999694824219
 20
82.4000015258789
 10
96.69999694824219
 20
83.20000076293945
 97
        0
 97
        0
 75
     2
 76
     1
 98
        0
  0
SPLINE
  5
43
330
1F
100
AcDbEntity
  8
Layer 1
370
     0
100
AcDbSpline
210
0.0
220
0.0
230
1.0
 70
    11
 71
     3
 72
    17
 73
    13
 74
     0
 42
0.0000000001
 43
0.0000000001
 12
1.0
 22
0.0
 32
0.0
 13
1.0
 23
0.0
 33
0.0
 40
0.0
 40
0.0
 40
0.0
 40
0.0
 40
1.0
 40
1.0
 40
1.0
 40
2.0
 40
2.0
 40
2.0
 40
3.0
 40
3.0
 40
3.0
 40
4.0
 40
4.0
 40
4.0
 40
4.0
 10
50.29999923706055
 20
91.4000015258789
 30
0.0
 10
51.5150260925293
 20
91.4000015258789
 30
0.0
 10
52.5
 20
90.4150276184082
 30
0.0
 10
52.5
 20
89.20000076293945
 30
0.0
 10
52.5
 20
87.9849739074707
 30
0.0
 10
51.5150260925293
 20
87.0
 30
0.0
 10
50.29999923706055
 20
87.0
 30
0.0
 10
49.0849723815918
 20
87.0
 30
0.0
 10
48.09999847412109
 20
87.9849739074707
 30
0.0
 10
48.09999847412109
 20
89.20000076293945
 30
0.0
 10
48.09999847412109
 20
90.4150276184082
 30
0.0
 10
49.0849723815918
 20
91.4000015258789
 30
0.0
 10
50.29999923706055
 20
91.4000015258789
 30
0.0
  0
ENDSEC
  0
SECTION
  2
OBJECTS
  0
DICTIONARY
  5
C
330
0
100
AcDbDictionary
281
     1
  3
ACAD_GROUP
350
D
  3
ACAD_LAYOUT
350
1A
  3
ACAD_MATERIAL
350
3B
  3
ACAD_MLEADERSTYLE
350
45
  3
ACAD_MLINESTYLE
350
17
  3
ACAD_PLOTSETTINGS
350
19
  3
ACAD_PLOTSTYLENAME
350
E
  3
ACAD_TABLESTYLE
350
44
  3
ACAD_VISUALSTYLE
350
2A
  0
SUN
  5
3F
330
29
100
AcDbSun
 90
        1
290
     0
 63
     7
421
 16777215
 40
1.0
291
     1
 91
  2455826
 92
 54000000
292
     0
 70
     2
 71
   256
280
     1
  0
DICTIONARY
  5
D
102
{ACAD_REACTORS
330
C
102
}
330
C
100
AcDbDictionary
281
     1
  0
DICTIONARY
  5
1A
102
{ACAD_REACTORS
330
C
102
}
330
C
100
AcDbDictionary
281
     1
  3
Layout1
350
1E
  3
Layout2
350
26
  3
Model
350
22
  0
DICTIONARY
  5
3B
102
{ACAD_REACTORS
330
C
102
}
330
C
100
AcDbDictionary
281
     1
  3
ByBlock
350
3D
  3
ByLayer
350
3C
  3
Global
350
3E
  0
DICTIONARY
  5
45
102
{ACAD_REACTORS
330
C
102
}
330
C
100
AcDbDictionary
281
     1
  0
DICTIONARY
  5
17
102
{ACAD_REACTORS
330
C
102
}
330
C
100
AcDbDictionary
281
     1
  3
Standard
350
18
  0
DICTIONARY
  5
19
102
{ACAD_REACTORS
330
C
102
}
330
C
100
AcDbDictionary
281
     1
  0
ACDBDICTIONARYWDFLT
  5
E
102
{ACAD_REACTORS
330
C
102
}
330
C
100
AcDbDictionary
281
     1
  3
Normal
350
F
100
AcDbDictionaryWithDefault
340
F
  0
DICTIONARY
  5
44
102
{ACAD_REACTORS
330
C
102
}
330
C
100
AcDbDictionary
281
     1
  0
DICTIONARY
  5
2A
102
{ACAD_REACTORS
330
C
102
}
330
C
100
AcDbDictionary
281
     1
  3
2dWireframe
350
2F
  3
3D Hidden
350
31
  3
3dWireframe
350
30
  3
Basic
350
32
  3
Brighten
350
36
  3
ColorChange
350
3A
  3
Conceptual
350
34
  3
Dim
350
35
  3
Facepattern
350
39
  3
Flat
350
2B
  3
FlatWithEdges
350
2C
  3
Gouraud
350
2D
  3
GouraudWithEdges
350
2E
  3
Linepattern
350
38
  3
Realistic
350
33
  3
Thicken
350
37
  0
LAYOUT
  5
1E
102
{ACAD_REACTORS
330
1A
102
}
330
1A
100
AcDbPlotSettings
  1

  2
none_device
  4

  6

 40
0.0
 41
0.0
 42
0.0
 43
0.0
 44
0.0
 45
0.0
 46
0.0
 47
0.0
 48
0.0
 49
0.0
140
0.0
141
0.0
142
1.0
143
1.0
 70
   688
 72
     0
 73
     0
 74
     5
  7

 75
    16
 76
     0
 77
     2
 78
   300
147
1.0
148
0.0
149
0.0
100
AcDbLayout
  1
Layout1
 70
     1
 71
     1
 10
0.0
 20
0.0
 11
12.0
 21
9.0
 12
0.0
 22
0.0
 32
0.0
 14
1.000000000000000E+20
 24
1.000000000000000E+20
 34
1.000000000000000E+20
 15
-1.000000000000000E+20
 25
-1.000000000000000E+20
 35
-1.000000000000000E+20
146
0.0
 13
0.0
 23
0.0
 33
0.0
 16
1.0
 26
0.0
 36
0.0
 17
0.0
 27
1.0
 37
0.0
 76
     0
330
1B
  0
LAYOUT
  5
26
102
{ACAD_REACTORS
330
1A
102
}
330
1A
100
AcDbPlotSettings
  1

  2
none_device
  4

  6

 40
0.0
 41
0.0
 42
0.0
 43
0.0
 44
0.0
 45
0.0
 46
0.0
 47
0.0
 48
0.0
 49
0.0
140
0.0
141
0.0
142
1.0
143
1.0
 70
   688
 72
     0
 73
     0
 74
     5
  7

 75
    16
 76
     0
 77
     2
 78
   300
147
1.0
148
0.0
149
0.0
100
AcDbLayout
  1
Layout2
 70
     1
 71
     2
 10
0.0
 20
0.0
 11
0.0
 21
0.0
 12
0.0
 22
0.0
 32
0.0
 14
0.0
 24
0.0
 34
0.0
 15
0.0
 25
0.0
 35
0.0
146
0.0
 13
0.0
 23
0.0
 33
0.0
 16
1.0
 26
0.0
 36
0.0
 17
0.0
 27
1.0
 37
0.0
 76
     0
330
23
  0
LAYOUT
  5
22
102
{ACAD_REACTORS
330
1A
102
}
330
1A
100
AcDbPlotSettings
  1

  2
none_device
  4

  6

 40
0.0
 41
0.0
 42
0.0
 43
0.0
 44
0.0
 45
0.0
 46
0.0
 47
0.0
 48
0.0
 49
0.0
140
0.0
141
0.0
142
1.0
143
1.0
 70
  1712
 72
     0
 73
     0
 74
     0
  7

 75
     0
 76
     0
 77
     2
 78
   300
147
1.0
148
0.0
149
0.0
100
AcDbLayout
  1
Model
 70
     1
 71
     0
 10
0.0
 20
0.0
 11
12.0
 21
9.0
 12
0.0
 22
0.0
 32
0.0
 14
1.000000000000000E+20
 24
1.000000000000000E+20
 34
1.000000000000000E+20
 15
-1.000000000000000E+20
 25
-1.000000000000000E+20
 35
-1.000000000000000E+20
146
0.0
 13
0.0
 23
0.0
 33
0.0
 16
1.0
 26
0.0
 36
0.0
 17
0.0
 27
1.0
 37
0.0
 76
     0
330
1F
331
29
  0
MATERIAL
  5
3D
102
{ACAD_REACTORS
330
3B
102
}
330
3B
100
AcDbMaterial
  1
ByBlock
 72
     1
 94
      127
  0
MATERIAL
  5
3C
102
{ACAD_REACTORS
330
3B
102
}
330
3B
100
AcDbMaterial
  1
ByLayer
 72
     1
 94
      127
  0
MATERIAL
  5
3E
102
{ACAD_REACTORS
330
3B
102
}
330
3B
100
AcDbMaterial
  1
Global
 72
     1
 94
      127
  0
MLINESTYLE
  5
18
102
{ACAD_REACTORS
330
17
102
}
330
17
100
AcDbMlineStyle
  2
Standard
 70
     0
  3

 62
   256
 51
90.0
 52
90.0
 71
     2
 49
0.5
 62
   256
  6
BYLAYER
 49
-0.5
 62
   256
  6
BYLAYER
  0
ACDBPLACEHOLDER
  5
F
102
{ACAD_REACTORS
330
E
102
}
330
E
  0
VISUALSTYLE
  5
2F
102
{ACAD_REACTORS
330
2A
102
}
330
2A
100
AcDbVisualStyle
  2
2dWireframe
 70
     4
177
     2
291
     0
 71
     0
176
     1
 72
     2
176
     1
 73
     0
176
     1
 90
        0
176
     1
 40
-0.6
176
     1
 41
-30.0
176
     1
 62
     5
 63
     7
421
 16777215
176
     1
 74
     1
176
     1
 91
        4
176
     1
 64
     7
176
     1
 65
   257
176
     1
 75
     1
176
     1
175
     1
176
     1
 42
1.0
176
     1
 92
        0
176
     1
 66
   257
176
     1
 43
1.0
176
     1
 76
     1
176
     1
 77
     6
176
     1
 78
     2
176
     1
 67
     7
176
     1
 79
     5
176
     1
170
     0
176
     1
171
     0
176
     1
290
     0
176
     1
 93
        1
176
     1
 44
0.0
176
     1
173
     0
176
     1
  0
VISUALSTYLE
  5
31
102
{ACAD_REACTORS
330
2A
102
}
330
2A
100
AcDbVisualStyle
  2
3D Hidden
 70
     6
177
     2
291
     0
 71
     1
176
     1
 72
     2
176
     1
 73
     2
176
     1
 90
        0
176
     1
 40
-0.6
176
     1
 41
-30.0
176
     1
 62
     5
 63
     7
421
 16777215
176
     1
 74
     2
176
     1
 91
        2
176
     1
 64
     7
176
     1
 65
   257
176
     1
 75
     2
176
     1
175
     1
176
     1
 42
40.0
176
     1
 92
        0
176
     1
 66
   257
176
     1
 43
1.0
176
     1
 76
     1
176
     1
 77
     6
176
     1
 78
     2
176
     1
 67
     7
176
     1
 79
     3
176
     1
170
     0
176
     1
171
     0
176
     1
290
     0
176
     1
 93
        1
176
     1
 44
0.0
176
     1
173
     0
176
     1
  0
VISUALSTYLE
  5
30
102
{ACAD_REACTORS
330
2A
102
}
330
2A
100
AcDbVisualStyle
  2
3dWireframe
 70
     5
177
     2
291
     0
 71
     0
176
     1
 72
     2
176
     1
 73
     0
176
     1
 90
        0
176
     1
 40
-0.6
176
     1
 41
-30.0
176
     1
 62
     5
 63
     7
421
 16777215
176
     1
 74
     1
176
     1
 91
        4
176
     1
 64
     7
176
     1
 65
   257
176
     1
 75
     1
176
     1
175
     1
176
     1
 42
1.0
176
     1
 92
        0
176
     1
 66
   257
176
     1
 43
1.0
176
     1
 76
     1
176
     1
 77
     6
176
     1
 78
     2
176
     1
 67
     7
176
     1
 79
     5
176
     1
170
     0
176
     1
171
     0
176
     1
290
     0
176
     1
 93
        1
176
     1
 44
0.0
176
     1
173
     0
176
     1
  0
VISUALSTYLE
  5
32
102
{ACAD_REACTORS
330
2A
102
}
330
2A
100
AcDbVisualStyle
  2
Basic
 70
     7
177
     2
291
     1
 71
     1
176
     1
 72
     0
176
     1
 73
     1
176
     1
 90
        0
176
     1
 40
-0.6
176
     1
 41
-30.0
176
     1
 62
     5
 63
     7
421
 16777215
176
     1
 74
     0
176
     1
 91
        4
176
     1
 64
     7
176
     1
 65
   257
176
     1
 75
     1
176
     1
175
     1
176
     1
 42
1.0
176
     1
 92
        8
176
     1
 66
     7
176
     1
 43
1.0
176
     1
 76
     1
176
     1
 77
     6
176
     1
 78
     2
176
     1
 67
     7
176
     1
 79
     5
176
     1
170
     0
176
     1
171
     0
176
     1
290
     0
176
     1
 93
        1
176
     1
 44
0.0
176
     1
173
     0
176
     1
  0
VISUALSTYLE
  5
36
102
{ACAD_REACTORS
330
2A
102
}
330
2A
100
AcDbVisualStyle
  2
Brighten
 70
    12
177
     2
291
     1
 71
     2
176
     1
 72
     2
176
     1
 73
     0
176
     1
 90
        0
176
     1
 40
-0.6
176
     1
 41
-30.0
176
     1
 62
     5
 63
     7
421
 16777215
176
     1
 74
     1
176
     1
 91
        4
176
     1
 64
     7
176
     1
 65
   257
176
     1
 75
     1
176
     1
175
     1
176
     1
 42
1.0
176
     1
 92
        8
176
     1
 66
     7
176
     1
 43
1.0
176
     1
 76
     1
176
     1
 77
     6
176
     1
 78
     2
176
     1
 67
     7
176
     1
 79
     5
176
     1
170
     0
176
     1
171
     0
176
     1
290
     0
176
     1
 93
        1
176
     1
 44
50.0
176
     1
173
     0
176
     1
  0
VISUALSTYLE
  5
3A
102
{ACAD_REACTORS
330
2A
102
}
330
2A
100
AcDbVisualStyle
  2
ColorChange
 70
    16
177
     2
291
     1
 71
     2
176
     1
 72
     2
176
     1
 73
     3
176
     1
 90
        0
176
     1
 40
-0.6
176
     1
 41
-30.0
176
     1
 62
     5
 63
     8
421
  8421504
176
     1
 74
     1
176
     1
 91
        4
176
     1
 64
     7
176
     1
 65
   257
176
     1
 75
     1
176
     1
175
     1
176
     1
 42
1.0
176
     1
 92
        8
176
     1
 66
     8
424
  8421504
176
     1
 43
1.0
176
     1
 76
     1
176
     1
 77
     6
176
     1
 78
     2
176
     1
 67
     7
176
     1
 79
     5
176
     1
170
     0
176
     1
171
     0
176
     1
290
     0
176
     1
 93
        1
176
     1
 44
0.0
176
     1
173
     0
176
     1
  0
VISUALSTYLE
  5
34
102
{ACAD_REACTORS
330
2A
102
}
330
2A
100
AcDbVisualStyle
  2
Conceptual
 70
     9
177
     2
291
     0
 71
     3
176
     1
 72
     2
176
     1
 73
     0
176
     1
 90
        0
176
     1
 40
-0.6
176
     1
 41
-30.0
176
     1
 62
     5
 63
     7
421
 16777215
176
     1
 74
     2
176
     1
 91
        2
176
     1
 64
     7
176
     1
 65
   257
176
     1
 75
     1
176
     1
175
     1
176
     1
 42
40.0
176
     1
 92
        8
176
     1
 66
     7
176
     1
 43
1.0
176
     1
 76
     1
176
     1
 77
     6
176
     1
 78
     2
176
     1
 67
     7
176
     1
 79
     3
176
     1
170
     0
176
     1
171
     0
176
     1
290
     0
176
     1
 93
        1
176
     1
 44
0.0
176
     1
173
     0
176
     1
  0
VISUALSTYLE
  5
35
102
{ACAD_REACTORS
330
2A
102
}
330
2A
100
AcDbVisualStyle
  2
Dim
 70
    11
177
     2
291
     1
 71
     2
176
     1
 72
     2
176
     1
 73
     0
176
     1
 90
        0
176
     1
 40
-0.6
176
     1
 41
-30.0
176
     1
 62
     5
 63
     7
421
 16777215
176
     1
 74
     1
176
     1
 91
        4
176
     1
 64
     7
176
     1
 65
   257
176
     1
 75
     1
176
     1
175
     1
176
     1
 42
1.0
176
     1
 92
        8
176
     1
 66
     7
176
     1
 43
1.0
176
     1
 76
     1
176
     1
 77
     6
176
     1
 78
     2
176
     1
 67
     7
176
     1
 79
     5
176
     1
170
     0
176
     1
171
     0
176
     1
290
     0
176
     1
 93
        1
176
     1
 44
-50.0
176
     1
173
     0
176
     1
  0
VISUALSTYLE
  5
39
102
{ACAD_REACTORS
330
2A
102
}
330
2A
100
AcDbVisualStyle
  2
Facepattern
 70
    15
177
     2
291
     1
 71
     2
176
     1
 72
     2
176
     1
 73
     0
176
     1
 90
        0
176
     1
 40
-0.6
176
     1
 41
-30.0
176
     1
 62
     5
 63
     7
421
 16777215
176
     1
 74
     1
176
     1
 91
        4
176
     1
 64
     7
176
     1
 65
   257
176
     1
 75
     1
176
     1
175
     1
176
     1
 42
1.0
176
     1
 92
        8
176
     1
 66
     7
176
     1
 43
1.0
176
     1
 76
     1
176
     1
 77
     6
176
     1
 78
     2
176
     1
 67
     7
176
     1
 79
     5
176
     1
170
     0
176
     1
171
     0
176
     1
290
     0
176
     1
 93
        1
176
     1
 44
0.0
176
     1
173
     0
176
     1
  0
VISUALSTYLE
  5
2B
102
{ACAD_REACTORS
330
2A
102
}
330
2A
100
AcDbVisualStyle
  2
Flat
 70
     0
177
     2
291
     1
 71
     2
176
     1
 72
     1
176
     1
 73
     1
176
     1
 90
        2
176
     1
 40
-0.6
176
     1
 41
30.0
176
     1
 62
     5
 63
     7
421
 16777215
176
     1
 74
     0
176
     1
 91
        4
176
     1
 64
     7
176
     1
 65
   257
176
     1
 75
     1
176
     1
175
     1
176
     1
 42
1.0
176
     1
 92
        8
176
     1
 66
     7
176
     1
 43
1.0
176
     1
 76
     1
176
     1
 77
     6
176
     1
 78
     2
176
     1
 67
     7
176
     1
 79
     5
176
     1
170
     0
176
     1
171
     0
176
     1
290
     0
176
     1
 93
       13
176
     1
 44
0.0
176
     1
173
     0
176
     1
  0
VISUALSTYLE
  5
2C
102
{ACAD_REACTORS
330
2A
102
}
330
2A
100
AcDbVisualStyle
  2
FlatWithEdges
 70
     1
177
     2
291
     1
 71
     2
176
     1
 72
     1
176
     1
 73
     1
176
     1
 90
        2
176
     1
 40
-0.6
176
     1
 41
30.0
176
     1
 62
     5
 63
     7
421
 16777215
176
     1
 74
     1
176
     1
 91
        4
176
     1
 64
     7
176
     1
 65
   257
176
     1
 75
     1
176
     1
175
     1
176
     1
 42
1.0
176
     1
 92
        0
176
     1
 66
   257
176
     1
 43
1.0
176
     1
 76
     1
176
     1
 77
     6
176
     1
 78
     2
176
     1
 67
     7
176
     1
 79
     5
176
     1
170
     0
176
     1
171
     0
176
     1
290
     0
176
     1
 93
       13
176
     1
 44
0.0
176
     1
173
     0
176
     1
  0
VISUALSTYLE
  5
2D
102
{ACAD_REACTORS
330
2A
102
}
330
2A
100
AcDbVisualStyle
  2
Gouraud
 70
     2
177
     2
291
     1
 71
     2
176
     1
 72
     2
176
     1
 73
     1
176
     1
 90
        2
176
     1
 40
-0.6
176
     1
 41
30.0
176
     1
 62
     5
 63
     7
421
 16777215
176
     1
 74
     0
176
     1
 91
        4
176
     1
 64
     7
176
     1
 65
   257
176
     1
 75
     1
176
     1
175
     1
176
     1
 42
1.0
176
     1
 92
        0
176
     1
 66
     7
176
     1
 43
1.0
176
     1
 76
     1
176
     1
 77
     6
176
     1
 78
     2
176
     1
 67
     7
176
     1
 79
     5
176
     1
170
     0
176
     1
171
     0
176
     1
290
     0
176
     1
 93
       13
176
     1
 44
0.0
176
     1
173
     0
176
     1
  0
VISUALSTYLE
  5
2E
102
{ACAD_REACTORS
330
2A
102
}
330
2A
100
AcDbVisualStyle
  2
GouraudWithEdges
 70
     3
177
     2
291
     1
 71
     2
176
     1
 72
     2
176
     1
 73
     1
176
     1
 90
        2
176
     1
 40
-0.6
176
     1
 41
30.0
176
     1
 62
     5
 63
     7
421
 16777215
176
     1
 74
     1
176
     1
 91
        4
176
     1
 64
     7
176
     1
 65
   257
176
     1
 75
     1
176
     1
175
     1
176
     1
 42
1.0
176
     1
 92
        0
176
     1
 66
   257
176
     1
 43
1.0
176
     1
 76
     1
176
     1
 77
     6
176
     1
 78
     2
176
     1
 67
     7
176
     1
 79
     5
176
     1
170
     0
176
     1
171
     0
176
     1
290
     0
176
     1
 93
       13
176
     1
 44
0.0
176
     1
173
     0
176
     1
  0
VISUALSTYLE
  5
38
102
{ACAD_REACTORS
330
2A
102
}
330
2A
100
AcDbVisualStyle
  2
Linepattern
 70
    14
177
     2
291
     1
 71
     2
176
     1
 72
     2
176
     1
 73
     0
176
     1
 90
        0
176
     1
 40
-0.6
176
     1
 41
-30.0
176
     1
 62
     5
 63
     7
421
 16777215
176
     1
 74
     1
176
     1
 91
        4
176
     1
 64
     7
176
     1
 65
   257
176
     1
 75
     7
176
     1
175
     7
176
     1
 42
1.0
176
     1
 92
        8
176
     1
 66
     7
176
     1
 43
1.0
176
     1
 76
     1
176
     1
 77
     6
176
     1
 78
     2
176
     1
 67
     7
176
     1
 79
     5
176
     1
170
     0
176
     1
171
     0
176
     1
290
     0
176
     1
 93
        1
176
     1
 44
0.0
176
     1
173
     0
176
     1
  0
VISUALSTYLE
  5
33
102
{ACAD_REACTORS
330
2A
102
}
330
2A
100
AcDbVisualStyle
  2
Realistic
 70
     8
177
     2
291
     0
 71
     2
176
     1
 72
     2
176
     1
 73
     0
176
     1
 90
        0
176
     1
 40
-0.6
176
     1
 41
-30.0
176
     1
 62
     5
 63
     7
421
 16777215
176
     1
 74
     1
176
     1
 91
        0
176
     1
 64
     7
176
     1
 65
   257
176
     1
 75
     1
176
     1
175
     1
176
     1
 42
1.0
176
     1
 92
        8
176
     1
 66
     8
424
  7895160
176
     1
 43
1.0
176
     1
 76
     1
176
     1
 77
     6
176
     1
 78
     2
176
     1
 67
     7
176
     1
 79
     5
176
     1
170
     0
176
     1
171
     0
176
     1
290
     0
176
     1
 93
       13
176
     1
 44
0.0
176
     1
173
     0
176
     1
  0
VISUALSTYLE
  5
37
102
{ACAD_REACTORS
330
2A
102
}
330
2A
100
AcDbVisualStyle
  2
Thicken
 70
    13
177
     2
291
     1
 71
     2
176
     1
 72
     2
176
     1
 73
     0
176
     1
 90
        0
176
     1
 40
-0.6
176
     1
 41
-30.0
176
     1
 62
     5
 63
     7
421
 16777215
176
     1
 74
     1
176
     1
 91
        4
176
     1
 64
     7
176
     1
 65
   257
176
     1
 75
     1
176
     1
175
     1
176
     1
 42
1.0
176
     1
 92
       12
176
     1
 66
     7
176
     1
 43
1.0
176
     1
 76
     1
176
     1
 77
     6
176
     1
 78
     2
176
     1
 67
     7
176
     1
 79
     5
176
     1
170
     0
176
     1
171
     0
176
     1
290
     0
176
     1
 93
        1
176
     1
 44
0.0
176
     1
173
     0
176
     1
  0
ENDSEC
  0
EOF
