<?xml version="1.0" encoding="utf-8"?>
<!-- Generator: Adobe Illustrator 19.2.1, SVG Export Plug-In . SVG Version: 6.00 Build 0)  -->
<svg version="1.1" id="Layer_1" xmlns="http://www.w3.org/2000/svg" xmlns:xlink="http://www.w3.org/1999/xlink" x="0px" y="0px"
	 viewBox="0 0 100 125" style="enable-background:new 0 0 100 125;" xml:space="preserve">
<style type="text/css">
	.st0{stroke:#000000;stroke-miterlimit:10;}
</style>
<path class="st0" d="M89.7,13.6c-4.4-1.9-9.9-2.4-16.4-1.3s-13.9,3.7-22.1,8c-0.4-0.7-1.1-1.5-2.1-2.5s-2.2-2-3.8-3.2
	c-2.3-1.8-6.2-3.1-9.8-3.9s-6.9-0.8-8,0s0.8,1.8,3.2,3.3s5.4,3.5,6.6,6.2c0.7,1.6,1.3,2.9,2,3.9s1.3,1.8,1.9,2.3
	C34.6,31.4,30,37,26.9,42.6s-4.7,11-5.6,15.7c-2.6,0-5.7,0.3-8.5,1S7.3,61,5.6,62.2c-2.8,2.1-0.5,2.2,2.6,2.4
	c3.1,0.1,6.9,0.2,7.2,2.1c0.4,2.2,0.1,4.1-0.7,7.1s-2.4,7.2-4.6,14c-2.3,7.1,1.3,4.4,5.7-1.9S25.7,69.8,27,62.7
	c2.4-3.1,7.3-6.5,13.3-9.9s13.1-6.9,19.9-9.9c0.5-0.2,1-0.5,1.5-0.7s1-0.5,1.5-0.7c-0.1,2.2,0.1,4.2,0.6,5.7s1.3,2.4,2.2,2.5
	c1,0.1,2.1-0.8,2.9-2.4s1.5-3.9,1.8-6.4c0.1-0.7,0.1-1.3,0.1-1.9s0-1.2,0-1.8c6.8-4.3,12.8-9.6,16.4-14.2S92.2,14.7,89.7,13.6z
	 M41.6,50.5c-6,4.2-13.1,8.1-15.1,10l0,0c0-0.1,0.4-0.1,0.3-0.2C45.5,46,24,51.5,32.6,45.5c8.8-6.2,27.2-5.5,27.9-4.4
	C61.3,42.2,50.4,44.3,41.6,50.5z M73.6,16.9c3.4-2.4,4-1.2,4.4-0.4c0.4,0.8,0.9,1.9-3,3.2c-2.1,0.7-4,1.2-4.4,0.4
	S71.8,18.2,73.6,16.9z M69.7,35.1l1,0.9c-0.3-2-2.7-4.2-3.5-4.9c0.3-0.8,2.1-1.9,3.5-2.8c4.8-3.1,17.9-13.5,18.8-12.7
	s-1.5,6.2-7.1,11.3C78.1,30.8,70.5,36,69.7,35.1z"/>
</svg>
