  0
SECTION
  2
HEADER
  9
$ACADVER
  1
AC1024
  9
$ACADMAINTVER
 70
     6
  9
$DWGCODEPAGE
  3
UNDEFINED
  9
$INSBASE
 10
0.0
 20
0.0
 30
0.0
  9
$EXTMIN
 10
1.000000000000000E+20
 20
1.000000000000000E+20
 30
1.000000000000000E+20
  9
$EXTMAX
 10
-1.000000000000000E+20
 20
-1.000000000000000E+20
 30
-1.000000000000000E+20
  9
$LIMMIN
 10
0.0
 20
0.0
  9
$LIMMAX
 10
12.0
 20
9.0
  9
$ORTHOMODE
 70
     0
  9
$REGENMODE
 70
     1
  9
$FILLMODE
 70
     1
  9
$QTEXTMODE
 70
     0
  9
$MIRRTEXT
 70
     1
  9
$LTSCALE
 40
1.0
  9
$ATTMODE
 70
     1
  9
$TEXTSIZE
 40
0.2
  9
$TRACEWID
 40
0.05
  9
$TEXTSTYLE
  7
Standard
  9
$CLAYER
  8
0
  9
$CELTYPE
  6
ByLayer
  9
$CECOLOR
 62
   256
  9
$CELTSCALE
 40
1.0
  9
$DISPSILH
 70
     0
  9
$DIMSCALE
 40
1.0
  9
$DIMASZ
 40
0.18
  9
$DIMEXO
 40
0.0625
  9
$DIMDLI
 40
0.38
  9
$DIMRND
 40
0.0
  9
$DIMDLE
 40
0.0
  9
$DIMEXE
 40
0.18
  9
$DIMTP
 40
0.0
  9
$DIMTM
 40
0.0
  9
$DIMTXT
 40
0.18
  9
$DIMCEN
 40
0.09
  9
$DIMTSZ
 40
0.0
  9
$DIMTOL
 70
     0
  9
$DIMLIM
 70
     0
  9
$DIMTIH
 70
     1
  9
$DIMTOH
 70
     1
  9
$DIMSE1
 70
     0
  9
$DIMSE2
 70
     0
  9
$DIMTAD
 70
     0
  9
$DIMZIN
 70
     0
  9
$DIMBLK
  1

  9
$DIMASO
 70
     1
  9
$DIMSHO
 70
     1
  9
$DIMPOST
  1

  9
$DIMAPOST
  1

  9
$DIMALT
 70
     0
  9
$DIMALTD
 70
     2
  9
$DIMALTF
 40
25.4
  9
$DIMLFAC
 40
1.0
  9
$DIMTOFL
 70
     0
  9
$DIMTVP
 40
0.0
  9
$DIMTIX
 70
     0
  9
$DIMSOXD
 70
     0
  9
$DIMSAH
 70
     0
  9
$DIMBLK1
  1

  9
$DIMBLK2
  1

  9
$DIMSTYLE
  2
Standard
  9
$DIMCLRD
 70
     0
  9
$DIMCLRE
 70
     0
  9
$DIMCLRT
 70
     0
  9
$DIMTFAC
 40
1.0
  9
$DIMGAP
 40
0.09
  9
$DIMJUST
 70
     0
  9
$DIMSD1
 70
     0
  9
$DIMSD2
 70
     0
  9
$DIMTOLJ
 70
     1
  9
$DIMTZIN
 70
     0
  9
$DIMALTZ
 70
     0
  9
$DIMALTTZ
 70
     0
  9
$DIMUPT
 70
     0
  9
$DIMDEC
 70
     4
  9
$DIMTDEC
 70
     4
  9
$DIMALTU
 70
     2
  9
$DIMALTTD
 70
     2
  9
$DIMTXSTY
  7
Standard
  9
$DIMAUNIT
 70
     0
  9
$DIMADEC
 70
     0
  9
$DIMALTRND
 40
0.0
  9
$DIMAZIN
 70
     0
  9
$DIMDSEP
 70
    46
  9
$DIMATFIT
 70
     3
  9
$DIMFRAC
 70
     0
  9
$DIMLDRBLK
  1

  9
$DIMLUNIT
 70
     2
  9
$DIMLWD
 70
    -2
  9
$DIMLWE
 70
    -2
  9
$DIMTMOVE
 70
     0
  9
$DIMFXL
 40
1.0
  9
$DIMFXLON
 70
     0
  9
$DIMJOGANG
 40
0.7853981633974483
  9
$DIMTFILL
 70
     0
  9
$DIMTFILLCLR
 70
     0
  9
$DIMARCSYM
 70
     0
  9
$DIMLTYPE
  6

  9
$DIMLTEX1
  6

  9
$DIMLTEX2
  6

  9
$DIMTXTDIRECTION
 70
     0
  9
$LUNITS
 70
     2
  9
$LUPREC
 70
     4
  9
$SKETCHINC
 40
0.1
  9
$FILLETRAD
 40
0.5
  9
$AUNITS
 70
     0
  9
$AUPREC
 70
     0
  9
$MENU
  1
.
  9
$ELEVATION
 40
0.0
  9
$PELEVATION
 40
0.0
  9
$THICKNESS
 40
0.0
  9
$LIMCHECK
 70
     0
  9
$CHAMFERA
 40
0.5
  9
$CHAMFERB
 40
0.5
  9
$CHAMFERC
 40
1.0
  9
$CHAMFERD
 40
0.0
  9
$SKPOLY
 70
     0
  9
$TDCREATE
 40
2457535.610694433
  9
$TDUCREATE
 40
2457535.819027778
  9
$TDUPDATE
 40
2457535.610694433
  9
$TDUUPDATE
 40
2457535.819027778
  9
$TDINDWG
 40
0.0000000116
  9
$TDUSRTIMER
 40
0.0000000116
  9
$USRTIMER
 70
     1
  9
$ANGBASE
 50
0.0
  9
$ANGDIR
 70
     0
  9
$PDMODE
 70
     0
  9
$PDSIZE
 40
0.0
  9
$PLINEWID
 40
0.0
  9
$SPLFRAME
 70
     0
  9
$SPLINETYPE
 70
     6
  9
$SPLINESEGS
 70
     8
  9
$HANDSEED
  5
50
  9
$SURFTAB1
 70
     6
  9
$SURFTAB2
 70
     6
  9
$SURFTYPE
 70
     6
  9
$SURFU
 70
     6
  9
$SURFV
 70
     6
  9
$UCSBASE
  2

  9
$UCSNAME
  2

  9
$UCSORG
 10
0.0
 20
0.0
 30
0.0
  9
$UCSXDIR
 10
1.0
 20
0.0
 30
0.0
  9
$UCSYDIR
 10
0.0
 20
1.0
 30
0.0
  9
$UCSORTHOREF
  2

  9
$UCSORTHOVIEW
 70
     0
  9
$UCSORGTOP
 10
0.0
 20
0.0
 30
0.0
  9
$UCSORGBOTTOM
 10
0.0
 20
0.0
 30
0.0
  9
$UCSORGLEFT
 10
0.0
 20
0.0
 30
0.0
  9
$UCSORGRIGHT
 10
0.0
 20
0.0
 30
0.0
  9
$UCSORGFRONT
 10
0.0
 20
0.0
 30
0.0
  9
$UCSORGBACK
 10
0.0
 20
0.0
 30
0.0
  9
$PUCSBASE
  2

  9
$PUCSNAME
  2

  9
$PUCSORG
 10
0.0
 20
0.0
 30
0.0
  9
$PUCSXDIR
 10
1.0
 20
0.0
 30
0.0
  9
$PUCSYDIR
 10
0.0
 20
1.0
 30
0.0
  9
$PUCSORTHOREF
  2

  9
$PUCSORTHOVIEW
 70
     0
  9
$PUCSORGTOP
 10
0.0
 20
0.0
 30
0.0
  9
$PUCSORGBOTTOM
 10
0.0
 20
0.0
 30
0.0
  9
$PUCSORGLEFT
 10
0.0
 20
0.0
 30
0.0
  9
$PUCSORGRIGHT
 10
0.0
 20
0.0
 30
0.0
  9
$PUCSORGFRONT
 10
0.0
 20
0.0
 30
0.0
  9
$PUCSORGBACK
 10
0.0
 20
0.0
 30
0.0
  9
$USERI1
 70
     0
  9
$USERI2
 70
     0
  9
$USERI3
 70
     0
  9
$USERI4
 70
     0
  9
$USERI5
 70
     0
  9
$USERR1
 40
0.0
  9
$USERR2
 40
0.0
  9
$USERR3
 40
0.0
  9
$USERR4
 40
0.0
  9
$USERR5
 40
0.0
  9
$WORLDVIEW
 70
     1
  9
$SHADEDGE
 70
     3
  9
$SHADEDIF
 70
    70
  9
$TILEMODE
 70
     1
  9
$MAXACTVP
 70
    64
  9
$PINSBASE
 10
0.0
 20
0.0
 30
0.0
  9
$PLIMCHECK
 70
     0
  9
$PEXTMIN
 10
1.000000000000000E+20
 20
1.000000000000000E+20
 30
1.000000000000000E+20
  9
$PEXTMAX
 10
-1.000000000000000E+20
 20
-1.000000000000000E+20
 30
-1.000000000000000E+20
  9
$PLIMMIN
 10
0.0
 20
0.0
  9
$PLIMMAX
 10
12.0
 20
9.0
  9
$UNITMODE
 70
     0
  9
$VISRETAIN
 70
     1
  9
$PLINEGEN
 70
     0
  9
$PSLTSCALE
 70
     1
  9
$TREEDEPTH
 70
  3020
  9
$CMLSTYLE
  2
Standard
  9
$CMLJUST
 70
     0
  9
$CMLSCALE
 40
1.0
  9
$PROXYGRAPHICS
 70
     1
  9
$MEASUREMENT
 70
     0
  9
$CELWEIGHT
370
    -1
  9
$ENDCAPS
280
     0
  9
$JOINSTYLE
280
     0
  9
$LWDISPLAY
290
     1
  9
$INSUNITS
 70
     1
  9
$HYPERLINKBASE
  1

  9
$STYLESHEET
  1

  9
$XEDIT
290
     1
  9
$CEPSNTYPE
380
     0
  9
$PSTYLEMODE
290
     1
  9
$FINGERPRINTGUID
  2
{E23A0CCE-4B94-ED47-AC0D-1310890D8FD2}
  9
$VERSIONGUID
  2
{FAEB1C32-E019-11D5-929B-00C0DF256EC4}
  9
$EXTNAMES
290
     1
  9
$PSVPSCALE
 40
0.0
  9
$OLESTARTUP
290
     0
  9
$SORTENTS
280
   127
  9
$INDEXCTL
280
     0
  9
$HIDETEXT
280
     1
  9
$XCLIPFRAME
280
     2
  9
$HALOGAP
280
     0
  9
$OBSCOLOR
 70
   257
  9
$OBSLTYPE
280
     0
  9
$INTERSECTIONDISPLAY
280
     0
  9
$INTERSECTIONCOLOR
 70
   257
  9
$DIMASSOC
280
     2
  9
$PROJECTNAME
  1

  9
$CAMERADISPLAY
290
     0
  9
$LENSLENGTH
 40
50.0
  9
$CAMERAHEIGHT
 40
0.0
  9
$STEPSPERSEC
 40
2.0
  9
$STEPSIZE
 40
6.0
  9
$3DDWFPREC
 40
2.0
  9
$PSOLWIDTH
 40
0.25
  9
$PSOLHEIGHT
 40
4.0
  9
$LOFTANG1
 40
1.570796326794897
  9
$LOFTANG2
 40
1.570796326794897
  9
$LOFTMAG1
 40
0.0
  9
$LOFTMAG2
 40
0.0
  9
$LOFTPARAM
 70
     7
  9
$LOFTNORMALS
280
     1
  9
$LATITUDE
 40
37.795
  9
$LONGITUDE
 40
-122.394
  9
$NORTHDIRECTION
 40
0.0
  9
$TIMEZONE
 70
 -8000
  9
$LIGHTGLYPHDISPLAY
280
     1
  9
$TILEMODELIGHTSYNCH
280
     1
  9
$CMATERIAL
347
3C
  9
$SOLIDHIST
280
     1
  9
$SHOWHIST
280
     1
  9
$DWFFRAME
280
     2
  9
$DGNFRAME
280
     2
  9
$REALWORLDSCALE
290
     1
  9
$INTERFERECOLOR
 62
   256
  9
$CSHADOW
280
     0
  9
$SHADOWPLANELOCATION
 40
0.0
  0
ENDSEC
  0
SECTION
  2
CLASSES
  0
CLASS
  1
ACDBDICTIONARYWDFLT
  2
AcDbDictionaryWithDefault
  3
ObjectDBX Classes
 90
        0
 91
        4
280
     0
281
     0
  0
CLASS
  1
VISUALSTYLE
  2
AcDbVisualStyle
  3
ObjectDBX Classes
 90
     4095
 91
        4
280
     0
281
     0
  0
CLASS
  1
MATERIAL
  2
AcDbMaterial
  3
ObjectDBX Classes
 90
     1153
 91
        4
280
     0
281
     0
  0
CLASS
  1
SUN
  2
AcDbSun
  3
SCENEOE
 90
     1024
 91
        4
280
     0
281
     0
  0
ENDSEC
  0
SECTION
  2
TABLES
  0
TABLE
  2
VPORT
  5
8
330
0
100
AcDbSymbolTable
 70
     1
  0
VPORT
  5
29
330
8
100
AcDbSymbolTableRecord
100
AcDbViewportTableRecord
  2
*Active
 70
     0
 10
0.0
 20
0.0
 11
1.0
 21
1.0
 12
0.0
 22
0.0
 13
0.0
 23
0.0
 14
0.5
 24
0.5
 15
0.5
 25
0.5
 16
0.0
 26
0.0
 36
1.0
 17
50.0
 27
62.5
 37
0.0
 40
125.0
 41
0.8
 42
50.0
 43
0.0
 44
0.0
 50
0.0
 51
0.0
 71
     0
 72
   100
 73
     1
 74
     3
 75
     0
 76
     0
 77
     0
 78
     0
281
     0
 65
     1
110
0.0
120
0.0
130
0.0
111
1.0
121
0.0
131
0.0
112
0.0
122
1.0
132
0.0
 79
     0
146
0.0
 60
     3
 61
     5
292
     1
282
     1
141
0.0
142
0.0
 63
   250
361
3F
  0
ENDTAB
  0
TABLE
  2
LTYPE
  5
5
330
0
100
AcDbSymbolTable
 70
     1
  0
LTYPE
  5
14
330
5
100
AcDbSymbolTableRecord
100
AcDbLinetypeTableRecord
  2
ByBlock
 70
     0
  3

 72
    65
 73
     0
 40
0.0
  0
LTYPE
  5
15
330
5
100
AcDbSymbolTableRecord
100
AcDbLinetypeTableRecord
  2
ByLayer
 70
     0
  3

 72
    65
 73
     0
 40
0.0
  0
LTYPE
  5
16
330
5
100
AcDbSymbolTableRecord
100
AcDbLinetypeTableRecord
  2
Continuous
 70
     0
  3
Solid line
 72
    65
 73
     0
 40
0.0
  0
ENDTAB
  0
TABLE
  2
LAYER
  5
2
330
0
100
AcDbSymbolTable
 70
     2
  0
LAYER
  5
10
330
2
100
AcDbSymbolTableRecord
100
AcDbLayerTableRecord
  2
0
 70
     0
 62
     7
  6
Continuous
370
    -3
390
F
347
3E
  0
LAYER
  5
40
330
2
100
AcDbSymbolTableRecord
100
AcDbLayerTableRecord
  2
Layer 1
 70
     0
 62
     7
  6
Continuous
370
    -3
390
F
347
3E
  0
ENDTAB
  0
TABLE
  2
STYLE
  5
3
330
0
100
AcDbSymbolTable
 70
     1
  0
STYLE
  5
11
330
3
100
AcDbSymbolTableRecord
100
AcDbTextStyleTableRecord
  2
Standard
 70
     0
 40
0.0
 41
1.0
 50
0.0
 71
     0
 42
0.2
  3
txt
  4

  0
ENDTAB
  0
TABLE
  2
VIEW
  5
6
330
0
100
AcDbSymbolTable
 70
     0
  0
ENDTAB
  0
TABLE
  2
UCS
  5
7
330
0
100
AcDbSymbolTable
 70
     0
  0
ENDTAB
  0
TABLE
  2
APPID
  5
9
330
0
100
AcDbSymbolTable
 70
     1
  0
APPID
  5
12
330
9
100
AcDbSymbolTableRecord
100
AcDbRegAppTableRecord
  2
ACAD
 70
     0
  0
ENDTAB
  0
TABLE
  2
DIMSTYLE
  5
A
330
0
100
AcDbSymbolTable
 70
     1
100
AcDbDimStyleTable
  0
DIMSTYLE
105
27
330
A
100
AcDbSymbolTableRecord
100
AcDbDimStyleTableRecord
  2
Standard
 70
     0
178
     0
340
11
  0
ENDTAB
  0
TABLE
  2
BLOCK_RECORD
  5
1
330
0
100
AcDbSymbolTable
 70
     1
  0
BLOCK_RECORD
  5
1F
330
1
100
AcDbSymbolTableRecord
100
AcDbBlockTableRecord
  2
*Model_Space
340
22
 70
     0
280
     1
281
     0
  0
BLOCK_RECORD
  5
1B
330
1
100
AcDbSymbolTableRecord
100
AcDbBlockTableRecord
  2
*Paper_Space
340
1E
 70
     0
280
     1
281
     0
  0
BLOCK_RECORD
  5
23
330
1
100
AcDbSymbolTableRecord
100
AcDbBlockTableRecord
  2
*Paper_Space0
340
26
 70
     0
280
     1
281
     0
  0
ENDTAB
  0
ENDSEC
  0
SECTION
  2
BLOCKS
  0
BLOCK
  5
20
330
1F
100
AcDbEntity
  8
0
100
AcDbBlockBegin
  2
*Model_Space
 70
     0
 10
0.0
 20
0.0
 30
0.0
  3
*Model_Space
  1

  0
ENDBLK
  5
21
330
1F
100
AcDbEntity
  8
0
100
AcDbBlockEnd
  0
BLOCK
  5
1C
330
1B
100
AcDbEntity
 67
     1
  8
0
100
AcDbBlockBegin
  2
*Paper_Space
 70
     0
 10
0.0
 20
0.0
 30
0.0
  3
*Paper_Space
  1

  0
ENDBLK
  5
1D
330
1B
100
AcDbEntity
 67
     1
  8
0
100
AcDbBlockEnd
  0
BLOCK
  5
24
330
23
100
AcDbEntity
  8
0
100
AcDbBlockBegin
  2
*Paper_Space0
 70
     0
 10
0.0
 20
0.0
 30
0.0
  3
*Paper_Space0
  1

  0
ENDBLK
  5
25
330
23
100
AcDbEntity
  8
0
100
AcDbBlockEnd
  0
ENDSEC
  0
SECTION
  2
ENTITIES
  0
SPLINE
  5
41
330
1F
100
AcDbEntity
  8
Layer 1
370
     0
100
AcDbSpline
210
0.0
220
0.0
230
1.0
 70
    11
 71
     3
 72
   293
 73
   289
 74
     0
 42
0.0000000001
 43
0.0000000001
 12
1.0
 22
0.0
 32
0.0
 13
1.0
 23
0.0
 33
0.0
 40
0.0
 40
0.0
 40
0.0
 40
0.0
 40
1.0
 40
1.0
 40
1.0
 40
2.0
 40
2.0
 40
2.0
 40
3.0
 40
3.0
 40
3.0
 40
4.0
 40
4.0
 40
4.0
 40
5.0
 40
5.0
 40
5.0
 40
6.0
 40
6.0
 40
6.0
 40
7.0
 40
7.0
 40
7.0
 40
8.0
 40
8.0
 40
8.0
 40
9.0
 40
9.0
 40
9.0
 40
10.0
 40
10.0
 40
10.0
 40
11.0
 40
11.0
 40
11.0
 40
12.0
 40
12.0
 40
12.0
 40
13.0
 40
13.0
 40
13.0
 40
14.0
 40
14.0
 40
14.0
 40
15.0
 40
15.0
 40
15.0
 40
16.0
 40
16.0
 40
16.0
 40
17.0
 40
17.0
 40
17.0
 40
18.0
 40
18.0
 40
18.0
 40
19.0
 40
19.0
 40
19.0
 40
20.0
 40
20.0
 40
20.0
 40
21.0
 40
21.0
 40
21.0
 40
22.0
 40
22.0
 40
22.0
 40
23.0
 40
23.0
 40
23.0
 40
24.0
 40
24.0
 40
24.0
 40
25.0
 40
25.0
 40
25.0
 40
26.0
 40
26.0
 40
26.0
 40
27.0
 40
27.0
 40
27.0
 40
28.0
 40
28.0
 40
28.0
 40
29.0
 40
29.0
 40
29.0
 40
30.0
 40
30.0
 40
30.0
 40
31.0
 40
31.0
 40
31.0
 40
32.0
 40
32.0
 40
32.0
 40
33.0
 40
33.0
 40
33.0
 40
34.0
 40
34.0
 40
34.0
 40
35.0
 40
35.0
 40
35.0
 40
36.0
 40
36.0
 40
36.0
 40
37.0
 40
37.0
 40
37.0
 40
38.0
 40
38.0
 40
38.0
 40
39.0
 40
39.0
 40
39.0
 40
40.0
 40
40.0
 40
40.0
 40
41.0
 40
41.0
 40
41.0
 40
42.0
 40
42.0
 40
42.0
 40
43.0
 40
43.0
 40
43.0
 40
44.0
 40
44.0
 40
44.0
 40
45.0
 40
45.0
 40
45.0
 40
46.0
 40
46.0
 40
46.0
 40
47.0
 40
47.0
 40
47.0
 40
48.0
 40
48.0
 40
48.0
 40
49.0
 40
49.0
 40
49.0
 40
50.0
 40
50.0
 40
50.0
 40
51.0
 40
51.0
 40
51.0
 40
52.0
 40
52.0
 40
52.0
 40
53.0
 40
53.0
 40
53.0
 40
54.0
 40
54.0
 40
54.0
 40
55.0
 40
55.0
 40
55.0
 40
56.0
 40
56.0
 40
56.0
 40
57.0
 40
57.0
 40
57.0
 40
58.0
 40
58.0
 40
58.0
 40
59.0
 40
59.0
 40
59.0
 40
60.0
 40
60.0
 40
60.0
 40
61.0
 40
61.0
 40
61.0
 40
62.0
 40
62.0
 40
62.0
 40
63.0
 40
63.0
 40
63.0
 40
64.0
 40
64.0
 40
64.0
 40
65.0
 40
65.0
 40
65.0
 40
66.0
 40
66.0
 40
66.0
 40
67.0
 40
67.0
 40
67.0
 40
68.0
 40
68.0
 40
68.0
 40
69.0
 40
69.0
 40
69.0
 40
70.0
 40
70.0
 40
70.0
 40
71.0
 40
71.0
 40
71.0
 40
72.0
 40
72.0
 40
72.0
 40
73.0
 40
73.0
 40
73.0
 40
74.0
 40
74.0
 40
74.0
 40
75.0
 40
75.0
 40
75.0
 40
76.0
 40
76.0
 40
76.0
 40
77.0
 40
77.0
 40
77.0
 40
78.0
 40
78.0
 40
78.0
 40
79.0
 40
79.0
 40
79.0
 40
80.0
 40
80.0
 40
80.0
 40
81.0
 40
81.0
 40
81.0
 40
82.0
 40
82.0
 40
82.0
 40
83.0
 40
83.0
 40
83.0
 40
84.0
 40
84.0
 40
84.0
 40
85.0
 40
85.0
 40
85.0
 40
86.0
 40
86.0
 40
86.0
 40
87.0
 40
87.0
 40
87.0
 40
88.0
 40
88.0
 40
88.0
 40
89.0
 40
89.0
 40
89.0
 40
90.0
 40
90.0
 40
90.0
 40
91.0
 40
91.0
 40
91.0
 40
92.0
 40
92.0
 40
92.0
 40
93.0
 40
93.0
 40
93.0
 40
94.0
 40
94.0
 40
94.0
 40
95.0
 40
95.0
 40
95.0
 40
96.0
 40
96.0
 40
96.0
 40
96.0
 10
93.875
 20
76.46599960327148
 30
0.0
 10
93.875
 20
76.46599960327148
 30
0.0
 10
85.06700134277344
 20
70.95000076293945
 30
0.0
 10
85.06700134277344
 20
70.95000076293945
 30
0.0
 10
85.06700134277344
 20
70.95000076293945
 30
0.0
 10
85.20700073242188
 20
74.95600128173828
 30
0.0
 10
84.69000244140625
 20
80.10400009155273
 30
0.0
 10
84.69000244140625
 20
80.10400009155273
 30
0.0
 10
84.69200134277344
 20
80.09199905395508
 30
0.0
 10
84.69200134277344
 20
80.09199905395508
 30
0.0
 10
84.69200134277344
 20
80.09199905395508
 30
0.0
 10
88.4260025024414
 20
83.49300003051758
 30
0.0
 10
88.4260025024414
 20
83.49300003051758
 30
0.0
 10
88.4260025024414
 20
83.49300003051758
 30
0.0
 10
84.12300109863281
 20
84.19100189208984
 30
0.0
 10
84.12300109863281
 20
84.19100189208984
 30
0.0
 10
84.12300109863281
 20
84.19100189208984
 30
0.0
 10
84.1259994506836
 20
84.16800308227539
 30
0.0
 10
84.1259994506836
 20
84.16800308227539
 30
0.0
 10
83.83899688720703
 20
85.77800369262695
 30
0.0
 10
83.46099853515625
 20
87.45600128173828
 30
0.0
 10
82.96299743652344
 20
89.15500259399414
 30
0.0
 10
82.96299743652344
 20
89.15500259399414
 30
0.0
 10
82.96299743652344
 20
89.15500259399414
 30
0.0
 10
82.96299743652344
 20
89.15500259399414
 30
0.0
 10
82.96299743652344
 20
89.15500259399414
 30
0.0
 10
89.68399810791016
 20
96.94200325012207
 30
0.0
 10
89.68399810791016
 20
96.94200325012207
 30
0.0
 10
89.68399810791016
 20
96.94200325012207
 30
0.0
 10
81.13899993896484
 20
94.1400032043457
 30
0.0
 10
81.13899993896484
 20
94.1400032043457
 30
0.0
 10
81.13899993896484
 20
94.1400032043457
 30
0.0
 10
81.1520004272461
 20
94.10300254821777
 30
0.0
 10
81.1520004272461
 20
94.10300254821777
 30
0.0
 10
80.06800079345703
 20
96.53200149536133
 30
0.0
 10
78.68399810791016
 20
98.90100288391113
 30
0.0
 10
76.91999816894531
 20
101.0620021820068
 30
0.0
 10
76.91999816894531
 20
101.0620021820068
 30
0.0
 10
76.93899536132812
 20
101.0420017242432
 30
0.0
 10
76.93899536132812
 20
101.0420017242432
 30
0.0
 10
76.93899536132812
 20
101.0420017242432
 30
0.0
 10
81.03299713134766
 20
108.9080009460449
 30
0.0
 10
81.03299713134766
 20
108.9080009460449
 30
0.0
 10
81.03299713134766
 20
108.9080009460449
 30
0.0
 10
74.11399841308594
 20
104.0139999389648
 30
0.0
 10
74.11399841308594
 20
104.0139999389648
 30
0.0
 10
74.11399841308594
 20
104.0139999389648
 30
0.0
 10
74.11599731445312
 20
104.011999130249
 30
0.0
 10
74.11599731445312
 20
104.011999130249
 30
0.0
 10
71.90499877929688
 20
105.9979991912842
 30
0.0
 10
69.2490005493164
 20
107.6849994659424
 30
0.0
 10
66.06299591064453
 20
108.9159984588623
 30
0.0
 10
66.06299591064453
 20
108.9159984588623
 30
0.0
 10
66.08999633789062
 20
108.9079990386963
 30
0.0
 10
66.08999633789062
 20
108.9079990386963
 30
0.0
 10
66.08999633789062
 20
108.9079990386963
 30
0.0
 10
66.08999633789062
 20
116.4469995498657
 30
0.0
 10
66.08999633789062
 20
116.4469995498657
 30
0.0
 10
66.08999633789062
 20
116.4469995498657
 30
0.0
 10
61.96699523925781
 20
110.168999671936
 30
0.0
 10
61.96699523925781
 20
110.168999671936
 30
0.0
 10
61.96699523925781
 20
110.168999671936
 30
0.0
 10
62.0469970703125
 20
110.1440000534058
 30
0.0
 10
62.0469970703125
 20
110.1440000534058
 30
0.0
 10
60.34199523925781
 20
110.5419998168945
 30
0.0
 10
58.51299667358398
 20
110.826000213623
 30
0.0
 10
56.5469970703125
 20
110.9750003814697
 30
0.0
 10
56.5469970703125
 20
110.9750003814697
 30
0.0
 10
56.65499877929688
 20
110.9700002670288
 30
0.0
 10
56.65499877929688
 20
110.9700002670288
 30
0.0
 10
56.65499877929688
 20
110.9700002670288
 30
0.0
 10
55.54999923706055
 20
117.311999797821
 30
0.0
 10
55.54999923706055
 20
117.311999797821
 30
0.0
 10
55.54999923706055
 20
117.311999797821
 30
0.0
 10
53.6619987487793
 20
111.0989999771118
 30
0.0
 10
53.6619987487793
 20
111.0989999771118
 30
0.0
 10
51.82499694824219
 20
111.1160001754761
 30
0.0
 10
50.08799743652344
 20
111.0550003051758
 30
0.0
 10
48.43599700927734
 20
110.9329996109009
 30
0.0
 10
48.43599700927734
 20
110.9329996109009
 30
0.0
 10
48.47699737548828
 20
110.9399995803833
 30
0.0
 10
48.47699737548828
 20
110.9399995803833
 30
0.0
 10
48.47699737548828
 20
110.9399995803833
 30
0.0
 10
45.87599563598633
 20
113.6159992218018
 30
0.0
 10
45.87599563598633
 20
113.6159992218018
 30
0.0
 10
45.87599563598633
 20
113.6159992218018
 30
0.0
 10
43.23299407958984
 20
110.2949991226196
 30
0.0
 10
43.23299407958984
 20
110.2949991226196
 30
0.0
 10
43.23299407958984
 20
110.2949991226196
 30
0.0
 10
39.42799377441406
 20
115.503999710083
 30
0.0
 10
39.42799377441406
 20
115.503999710083
 30
0.0
 10
39.42799377441406
 20
115.503999710083
 30
0.0
 10
39.42799377441406
 20
109.4440002441406
 30
0.0
 10
39.42799377441406
 20
109.4440002441406
 30
0.0
 10
39.42799377441406
 20
109.4440002441406
 30
0.0
 10
39.44599533081055
 20
109.44700050354
 30
0.0
 10
39.44599533081055
 20
109.44700050354
 30
0.0
 10
37.58599472045898
 20
108.9400005340576
 30
0.0
 10
35.88499450683594
 20
108.3339996337891
 30
0.0
 10
34.33499526977539
 20
107.6459999084473
 30
0.0
 10
34.33499526977539
 20
107.6459999084473
 30
0.0
 10
34.33599472045898
 20
107.6469993591309
 30
0.0
 10
34.33599472045898
 20
107.6469993591309
 30
0.0
 10
34.33599472045898
 20
107.6469993591309
 30
0.0
 10
29.2809944152832
 20
114.4819993972778
 30
0.0
 10
29.2809944152832
 20
114.4819993972778
 30
0.0
 10
29.2809944152832
 20
114.4819993972778
 30
0.0
 10
30.47799491882324
 20
105.5989990234375
 30
0.0
 10
30.47799491882324
 20
105.5989990234375
 30
0.0
 10
30.47799491882324
 20
105.5989990234375
 30
0.0
 10
30.50199508666992
 20
105.6119995117188
 30
0.0
 10
30.50199508666992
 20
105.6119995117188
 30
0.0
 10
27.56699562072754
 20
103.7709999084473
 30
0.0
 10
25.32499504089355
 20
101.6280002593994
 30
0.0
 10
23.61599540710449
 20
99.43499946594238
 30
0.0
 10
23.61599540710449
 20
99.43499946594238
 30
0.0
 10
23.6199951171875
 20
99.44099998474121
 30
0.0
 10
23.6199951171875
 20
99.44099998474121
 30
0.0
 10
23.6199951171875
 20
99.44099998474121
 30
0.0
 10
16.38199615478516
 20
102.6849994659424
 30
0.0
 10
16.38199615478516
 20
102.6849994659424
 30
0.0
 10
16.38199615478516
 20
102.6849994659424
 30
0.0
 10
20.96599578857422
 20
95.2819995880127
 30
0.0
 10
20.96599578857422
 20
95.2819995880127
 30
0.0
 10
20.96599578857422
 20
95.2819995880127
 30
0.0
 10
20.96699523925781
 20
95.28299903869629
 30
0.0
 10
20.96699523925781
 20
95.28299903869629
 30
0.0
 10
18.86799621582031
 20
91.19499969482422
 30
0.0
 10
17.66157990016382
 20
86.49963724868485
 30
0.0
 10
17.51458054103296
 20
84.99963724868485
 30
0.0
 10
19.44525781441007
 20
85.62800979614258
 30
0.0
 10
21.62725700219562
 20
84.41564243234006
 30
0.0
 10
21.50699615478516
 20
82.63100051879883
 30
0.0
 10
21.39012220917175
 20
80.89661940945098
 30
0.0
 10
20.40809122676728
 20
79.72815773078582
 30
0.0
 10
18.5360914861667
 20
79.72815773078582
 30
0.0
 10
17.45109240169404
 20
79.72815773078582
 30
0.0
 10
15.99042576708416
 20
80.8797684132278
 30
0.0
 10
16.17225903273265
 20
82.34530427626487
 30
0.0
 10
15.47025936842601
 20
81.46930482558128
 30
0.0
 10
13.94099521636963
 20
78.96999740600586
 30
0.0
 10
13.09899520874023
 20
78.0359992980957
 30
0.0
 10
12.45499515533447
 20
77.3219985961914
 30
0.0
 10
12.02799510955811
 20
76.5620002746582
 30
0.0
 10
11.74799537658691
 20
75.81800079345703
 30
0.0
 10
11.74799537658691
 20
75.81800079345703
 30
0.0
 10
18.25299453735352
 20
75.81800079345703
 30
0.0
 10
18.25299453735352
 20
75.81800079345703
 30
0.0
 10
18.58299446105957
 20
75.81800079345703
 30
0.0
 10
18.85099411010742
 20
75.54999923706055
 30
0.0
 10
18.85099411010742
 20
75.22000122070312
 30
0.0
 10
18.85099411010742
 20
74.8900032043457
 30
0.0
 10
18.58299446105957
 20
74.62200164794922
 30
0.0
 10
18.25299453735352
 20
74.62200164794922
 30
0.0
 10
18.25299453735352
 20
74.62200164794922
 30
0.0
 10
11.41199493408203
 20
74.62200164794922
 30
0.0
 10
11.41199493408203
 20
74.62200164794922
 30
0.0
 10
11.04499530792236
 20
72.70700073242188
 30
0.0
 10
11.50499534606934
 20
71.14800262451172
 30
0.0
 10
11.50499534606934
 20
71.14800262451172
 30
0.0
 10
11.50499534606934
 20
71.14800262451172
 30
0.0
 10
12.10699558258057
 20
69.10700225830078
 30
0.0
 10
13.50699520111084
 20
66.09300231933594
 30
0.0
 10
13.45299530029297
 20
66.06400299072266
 30
0.0
 10
13.36599540710449
 20
66.01700210571289
 30
0.0
 10
13.24899482727051
 20
65.94800186157227
 30
0.0
 10
12.62899494171143
 20
65.58400344848633
 30
0.0
 10
11.26899528503418
 20
64.68500137329102
 30
0.0
 10
10.63299465179443
 20
63.49200057983398
 30
0.0
 10
9.793994903564453
 20
61.91899871826172
 30
0.0
 10
7.067994594573975
 20
61.18500137329102
 30
0.0
 10
5.284994602203369
 20
62.23400115966797
 30
0.0
 10
3.551994562149048
 20
63.25400161743164
 30
0.0
 10
10.61799430847168
 20
55.33799743652344
 30
0.0
 10
16.02399444580078
 20
61.31900024414062
 30
0.0
 10
17.40899467468262
 20
58.98400115966797
 30
0.0
 10
19.14999389648438
 20
56.45899963378906
 30
0.0
 10
21.29599380493164
 20
54.01399993896484
 30
0.0
 10
21.29599380493164
 20
54.01399993896484
 30
0.0
 10
21.28899383544922
 20
54.02100372314453
 30
0.0
 10
21.28899383544922
 20
54.02100372314453
 30
0.0
 10
21.28899383544922
 20
54.02100372314453
 30
0.0
 10
19.60699462890625
 20
47.24000549316406
 30
0.0
 10
19.60699462890625
 20
47.24000549316406
 30
0.0
 10
19.60699462890625
 20
47.24000549316406
 30
0.0
 10
25.70299530029297
 20
49.67600250244141
 30
0.0
 10
25.70299530029297
 20
49.67600250244141
 30
0.0
 10
25.70299530029297
 20
49.67600250244141
 30
0.0
 10
25.67799949645996
 20
49.69999694824219
 30
0.0
 10
25.67799949645996
 20
49.69999694824219
 30
0.0
 10
27.48200035095215
 20
48.17399597167969
 30
0.0
 10
29.48600006103516
 20
46.76199340820312
 30
0.0
 10
31.70699882507324
 20
45.54499816894531
 30
0.0
 10
31.70699882507324
 20
45.54499816894531
 30
0.0
 10
31.6929988861084
 20
45.54999542236328
 30
0.0
 10
31.6929988861084
 20
45.54999542236328
 30
0.0
 10
31.6929988861084
 20
45.54999542236328
 30
0.0
 10
31.26299858093262
 20
36.697998046875
 30
0.0
 10
31.26299858093262
 20
36.697998046875
 30
0.0
 10
31.26299858093262
 20
36.697998046875
 30
0.0
 10
37.0989990234375
 20
43.16500091552734
 30
0.0
 10
37.0989990234375
 20
43.16500091552734
 30
0.0
 10
37.0989990234375
 20
43.16500091552734
 30
0.0
 10
38.71899795532227
 20
36.697998046875
 30
0.0
 10
38.71899795532227
 20
36.697998046875
 30
0.0
 10
38.71899795532227
 20
36.697998046875
 30
0.0
 10
40.99099731445312
 20
42.08599853515625
 30
0.0
 10
40.99099731445312
 20
42.08599853515625
 30
0.0
 10
40.99099731445312
 20
42.08599853515625
 30
0.0
 10
40.96599578857422
 20
42.09500122070312
 30
0.0
 10
40.96599578857422
 20
42.09500122070312
 30
0.0
 10
41.6099967956543
 20
41.95600128173828
 30
0.0
 10
42.26599502563477
 20
41.83200073242188
 30
0.0
 10
42.93599700927734
 20
41.72599792480469
 30
0.0
 10
42.93599700927734
 20
41.72599792480469
 30
0.0
 10
42.88699722290039
 20
41.73099517822266
 30
0.0
 10
42.88699722290039
 20
41.73099517822266
 30
0.0
 10
42.88699722290039
 20
41.73099517822266
 30
0.0
 10
44.38099670410156
 20
32.68699645996094
 30
0.0
 10
44.38099670410156
 20
32.68699645996094
 30
0.0
 10
44.38099670410156
 20
32.68699645996094
 30
0.0
 10
47.68399810791016
 20
41.25999450683594
 30
0.0
 10
47.68399810791016
 20
41.25999450683594
 30
0.0
 10
47.68399810791016
 20
41.25999450683594
 30
0.0
 10
47.31099700927734
 20
41.2969970703125
 30
0.0
 10
47.31099700927734
 20
41.2969970703125
 30
0.0
 10
47.84799575805664
 20
41.27499389648438
 30
0.0
 10
48.38999557495117
 20
41.25999450683594
 30
0.0
 10
48.94199752807617
 20
41.25999450683594
 30
0.0
 10
50.7089958190918
 20
41.25999450683594
 30
0.0
 10
52.39299774169922
 20
41.35399627685547
 30
0.0
 10
53.99899673461914
 20
41.52999114990234
 30
0.0
 10
53.99899673461914
 20
41.52999114990234
 30
0.0
 10
53.98899841308594
 20
41.52799224853516
 30
0.0
 10
53.98899841308594
 20
41.52799224853516
 30
0.0
 10
53.98899841308594
 20
41.52799224853516
 30
0.0
 10
57.35799789428711
 20
32.68699645996094
 30
0.0
 10
57.35799789428711
 20
32.68699645996094
 30
0.0
 10
57.35799789428711
 20
32.68699645996094
 30
0.0
 10
58.35499954223633
 20
42.23999786376953
 30
0.0
 10
58.35499954223633
 20
42.23999786376953
 30
0.0
 10
58.35499954223633
 20
42.23999786376953
 30
0.0
 10
58.30500030517578
 20
42.23199462890625
 30
0.0
 10
58.30500030517578
 20
42.23199462890625
 30
0.0
 10
61.31399917602539
 20
42.88999176025391
 30
0.0
 10
64.00199890136719
 20
43.84799194335938
 30
0.0
 10
66.39599609375
 20
45.00899505615234
 30
0.0
 10
66.39599609375
 20
45.00899505615234
 30
0.0
 10
66.37799835205078
 20
44.99799346923828
 30
0.0
 10
66.37799835205078
 20
44.99799346923828
 30
0.0
 10
66.37799835205078
 20
44.99799346923828
 30
0.0
 10
70.80699920654297
 20
38.03499603271484
 30
0.0
 10
70.80699920654297
 20
38.03499603271484
 30
0.0
 10
70.80699920654297
 20
38.03499603271484
 30
0.0
 10
71.66099548339844
 20
48.17499542236328
 30
0.0
 10
71.7719955444336
 20
48.25799560546875
 30
0.0
 10
71.7719955444336
 20
48.25799560546875
 30
0.0
 10
71.76299285888672
 20
48.25199890136719
 30
0.0
 10
71.76299285888672
 20
48.25199890136719
 30
0.0
 10
73.85699462890625
 20
49.79799652099609
 30
0.0
 10
75.63699340820312
 20
51.48200225830078
 30
0.0
 10
77.1419906616211
 20
53.17499542236328
 30
0.0
 10
77.1419906616211
 20
53.17499542236328
 30
0.0
 10
77.13799285888672
 20
53.16999816894531
 30
0.0
 10
77.13799285888672
 20
53.16999816894531
 30
0.0
 10
77.13799285888672
 20
53.16999816894531
 30
0.0
 10
83.23399353027344
 20
47.78599548339844
 30
0.0
 10
83.23399353027344
 20
47.78599548339844
 30
0.0
 10
83.23399353027344
 20
47.78599548339844
 30
0.0
 10
80.4419937133789
 20
57.48699951171875
 30
0.0
 10
80.4419937133789
 20
57.48699951171875
 30
0.0
 10
83.43599700927734
 20
62.05099868774414
 30
0.0
 10
84.49299621582031
 20
65.7959976196289
 30
0.0
 10
84.49299621582031
 20
65.7959976196289
 30
0.0
 10
84.49299621582031
 20
65.7959976196289
 30
0.0
 10
90.72799682617188
 20
57.87300109863281
 30
0.0
 10
90.72799682617188
 20
57.87300109863281
 30
0.0
 10
91.14999389648438
 20
57.33699798583984
 30
0.0
 10
92.01199340820312
 20
57.63100433349609
 30
0.0
 10
92.01599884033203
 20
58.31400299072266
 30
0.0
 10
92.02899932861328
 20
61.09200286865234
 30
0.0
 10
92.2229995727539
 20
66.12900161743164
 30
0.0
 10
93.30799865722656
 20
70.4780044555664
 30
0.0
 10
93.84600067138672
 20
72.63500595092773
 30
0.0
 10
94.44499969482422
 20
74.36100387573242
 30
0.0
 10
94.92900085449219
 20
75.58600616455078
 30
0.0
 10
95.18299865722656
 20
76.23600006103516
 30
0.0
 10
94.46600341796875
 20
76.83599853515625
 30
0.0
 10
93.875
 20
76.46599960327148
 30
0.0
  0
SPLINE
  5
42
330
1F
100
AcDbEntity
  8
Layer 1
370
     0
100
AcDbSpline
210
0.0
220
0.0
230
1.0
 70
    11
 71
     3
 72
    38
 73
    34
 74
     0
 42
0.0000000001
 43
0.0000000001
 12
1.0
 22
0.0
 32
0.0
 13
1.0
 23
0.0
 33
0.0
 40
0.0
 40
0.0
 40
0.0
 40
0.0
 40
1.0
 40
1.0
 40
1.0
 40
2.0
 40
2.0
 40
2.0
 40
3.0
 40
3.0
 40
3.0
 40
4.0
 40
4.0
 40
4.0
 40
5.0
 40
5.0
 40
5.0
 40
6.0
 40
6.0
 40
6.0
 40
7.0
 40
7.0
 40
7.0
 40
8.0
 40
8.0
 40
8.0
 40
9.0
 40
9.0
 40
9.0
 40
10.0
 40
10.0
 40
10.0
 40
11.0
 40
11.0
 40
11.0
 40
11.0
 10
56.9010009765625
 20
96.06900024414062
 30
0.0
 10
56.9010009765625
 20
96.06900024414062
 30
0.0
 10
60.04700088500977
 20
101.5740013122559
 30
0.0
 10
60.04700088500977
 20
101.5740013122559
 30
0.0
 10
60.17800140380859
 20
101.8030014038086
 30
0.0
 10
60.44000244140625
 20
101.9240016937256
 30
0.0
 10
60.69900131225586
 20
101.8740005493164
 30
0.0
 10
60.95800018310547
 20
101.8250007629395
 30
0.0
 10
61.15700149536133
 20
101.6160011291504
 30
0.0
 10
61.19499969482422
 20
101.355001449585
 30
0.0
 10
61.19499969482422
 20
101.355001449585
 30
0.0
 10
62.13899993896484
 20
94.7490005493164
 30
0.0
 10
62.13899993896484
 20
94.7490005493164
 30
0.0
 10
62.1870002746582
 20
94.41100120544434
 30
0.0
 10
61.95299911499023
 20
94.0979995727539
 30
0.0
 10
61.6150016784668
 20
94.05000114440918
 30
0.0
 10
61.58500289916992
 20
94.04600143432617
 30
0.0
 10
61.55600357055664
 20
94.04400062561035
 30
0.0
 10
61.52700042724609
 20
94.04400062561035
 30
0.0
 10
61.22500228881836
 20
94.04400062561035
 30
0.0
 10
60.95999908447266
 20
94.26600074768066
 30
0.0
 10
60.91600036621094
 20
94.57400131225586
 30
0.0
 10
60.91600036621094
 20
94.57400131225586
 30
0.0
 10
60.22700119018555
 20
99.39800071716309
 30
0.0
 10
60.22700119018555
 20
99.39800071716309
 30
0.0
 10
60.22700119018555
 20
99.39800071716309
 30
0.0
 10
57.97400283813477
 20
95.45600128173828
 30
0.0
 10
57.97400283813477
 20
95.45600128173828
 30
0.0
 10
57.80500411987305
 20
95.16000175476074
 30
0.0
 10
57.42800140380859
 20
95.0570011138916
 30
0.0
 10
57.13100433349609
 20
95.22600173950195
 30
0.0
 10
56.83499908447266
 20
95.39599990844727
 30
0.0
 10
56.73199844360352
 20
95.77300071716309
 30
0.0
 10
56.9010009765625
 20
96.06900024414062
 30
0.0
  0
SPLINE
  5
43
330
1F
100
AcDbEntity
  8
Layer 1
370
     0
100
AcDbSpline
210
0.0
220
0.0
230
1.0
 70
    11
 71
     3
 72
    38
 73
    34
 74
     0
 42
0.0000000001
 43
0.0000000001
 12
1.0
 22
0.0
 32
0.0
 13
1.0
 23
0.0
 33
0.0
 40
0.0
 40
0.0
 40
0.0
 40
0.0
 40
1.0
 40
1.0
 40
1.0
 40
2.0
 40
2.0
 40
2.0
 40
3.0
 40
3.0
 40
3.0
 40
4.0
 40
4.0
 40
4.0
 40
5.0
 40
5.0
 40
5.0
 40
6.0
 40
6.0
 40
6.0
 40
7.0
 40
7.0
 40
7.0
 40
8.0
 40
8.0
 40
8.0
 40
9.0
 40
9.0
 40
9.0
 40
10.0
 40
10.0
 40
10.0
 40
11.0
 40
11.0
 40
11.0
 40
11.0
 10
53.52700042724609
 20
88.71500015258789
 30
0.0
 10
53.52700042724609
 20
88.71500015258789
 30
0.0
 10
56.04399871826172
 20
91.38899993896484
 30
0.0
 10
56.04399871826172
 20
91.38899993896484
 30
0.0
 10
56.19699859619141
 20
91.55199813842773
 30
0.0
 10
56.42699813842773
 20
91.61899948120117
 30
0.0
 10
56.64299774169922
 20
91.56499862670898
 30
0.0
 10
56.8599967956543
 20
91.5109977722168
 30
0.0
 10
57.03099822998047
 20
91.34399795532227
 30
0.0
 10
57.08999633789062
 20
91.12799835205078
 30
0.0
 10
57.08999633789062
 20
91.12799835205078
 30
0.0
 10
58.03399658203125
 20
87.66699981689453
 30
0.0
 10
58.03399658203125
 20
87.66699981689453
 30
0.0
 10
58.12399673461914
 20
87.3380012512207
 30
0.0
 10
57.92999649047852
 20
86.99800109863281
 30
0.0
 10
57.59999847412109
 20
86.90900039672852
 30
0.0
 10
57.54599761962891
 20
86.89400100708008
 30
0.0
 10
57.49099731445312
 20
86.88700103759766
 30
0.0
 10
57.4370002746582
 20
86.88700103759766
 30
0.0
 10
57.16500091552734
 20
86.88700103759766
 30
0.0
 10
56.91600036621094
 20
87.06800079345703
 30
0.0
 10
56.84099960327148
 20
87.34200286865234
 30
0.0
 10
56.84099960327148
 20
87.34200286865234
 30
0.0
 10
56.1870002746582
 20
89.7390022277832
 30
0.0
 10
56.1870002746582
 20
89.7390022277832
 30
0.0
 10
56.1870002746582
 20
89.7390022277832
 30
0.0
 10
54.42599868774414
 20
87.86800384521484
 30
0.0
 10
54.42599868774414
 20
87.86800384521484
 30
0.0
 10
54.19199752807617
 20
87.62000274658203
 30
0.0
 10
53.80099868774414
 20
87.60800552368164
 30
0.0
 10
53.55299758911133
 20
87.84200286865234
 30
0.0
 10
53.30500030517578
 20
88.07500076293945
 30
0.0
 10
53.29299926757812
 20
88.46599960327148
 30
0.0
 10
53.52700042724609
 20
88.71500015258789
 30
0.0
  0
SPLINE
  5
44
330
1F
100
AcDbEntity
  8
Layer 1
370
     0
100
AcDbSpline
210
0.0
220
0.0
230
1.0
 70
    11
 71
     3
 72
    17
 73
    13
 74
     0
 42
0.0000000001
 43
0.0000000001
 12
1.0
 22
0.0
 32
0.0
 13
1.0
 23
0.0
 33
0.0
 40
0.0
 40
0.0
 40
0.0
 40
0.0
 40
1.0
 40
1.0
 40
1.0
 40
2.0
 40
2.0
 40
2.0
 40
3.0
 40
3.0
 40
3.0
 40
4.0
 40
4.0
 40
4.0
 40
4.0
 10
25.6095555381944
 20
84.41564243234006
 30
0.0
 10
26.75129270986417
 20
84.41564243234006
 30
0.0
 10
27.67989369426959
 20
83.48704144793464
 30
0.0
 10
27.67989369426959
 20
82.34530427626487
 30
0.0
 10
27.67989369426959
 20
81.20356710459419
 30
0.0
 10
26.75082350329831
 20
80.27496612018967
 30
0.0
 10
25.6095555381944
 20
80.27496612018967
 30
0.0
 10
24.46781836652463
 20
80.27496612018967
 30
0.0
 10
23.53874817555334
 20
81.20356710459419
 30
0.0
 10
23.53874817555334
 20
82.34530427626487
 30
0.0
 10
23.53874817555334
 20
83.48704144793464
 30
0.0
 10
24.46781836652463
 20
84.41564243234006
 30
0.0
 10
25.6095555381944
 20
84.41564243234006
 30
0.0
  0
SPLINE
  5
45
330
1F
100
AcDbEntity
  8
Layer 1
370
     0
100
AcDbSpline
210
0.0
220
0.0
230
1.0
 70
    11
 71
     3
 72
    26
 73
    22
 74
     0
 42
0.0000000001
 43
0.0000000001
 12
1.0
 22
0.0
 32
0.0
 13
1.0
 23
0.0
 33
0.0
 40
0.0
 40
0.0
 40
0.0
 40
0.0
 40
1.0
 40
1.0
 40
1.0
 40
2.0
 40
2.0
 40
2.0
 40
3.0
 40
3.0
 40
3.0
 40
4.0
 40
4.0
 40
4.0
 40
5.0
 40
5.0
 40
5.0
 40
6.0
 40
6.0
 40
6.0
 40
7.0
 40
7.0
 40
7.0
 40
7.0
 10
39.2869987487793
 20
47.51399993896484
 30
0.0
 10
39.22200012207031
 20
47.28800201416016
 30
0.0
 10
39.01599884033203
 20
47.14099884033203
 30
0.0
 10
38.79199981689453
 20
47.14099884033203
 30
0.0
 10
38.74499893188477
 20
47.14099884033203
 30
0.0
 10
38.69699859619141
 20
47.14699554443359
 30
0.0
 10
38.65000152587891
 20
47.16099548339844
 30
0.0
 10
28.63999938964844
 20
50.02799987792969
 30
0.0
 10
23.95299911499023
 20
59.08000183105469
 30
0.0
 10
23.75799942016602
 20
59.46399688720703
 30
0.0
 10
23.6299991607666
 20
59.71799468994141
 30
0.0
 10
23.73099899291992
 20
60.02700042724609
 30
0.0
 10
23.98399925231934
 20
60.15599822998047
 30
0.0
 10
24.23799896240234
 20
60.28399658203125
 30
0.0
 10
24.54699897766113
 20
60.18399810791016
 30
0.0
 10
24.67599868774414
 20
59.93000030517578
 30
0.0
 10
24.72199821472168
 20
59.84000396728516
 30
0.0
 10
29.36499786376953
 20
50.89199829101562
 30
0.0
 10
38.93299865722656
 20
48.1510009765625
 30
0.0
 10
39.20700073242188
 20
48.072998046875
 30
0.0
 10
39.3650016784668
 20
47.78800201416016
 30
0.0
 10
39.2869987487793
 20
47.51399993896484
 30
0.0
  0
SPLINE
  5
46
330
1F
100
AcDbEntity
  8
Layer 1
370
     0
100
AcDbSpline
210
0.0
220
0.0
230
1.0
 70
    11
 71
     3
 72
    35
 73
    31
 74
     0
 42
0.0000000001
 43
0.0000000001
 12
1.0
 22
0.0
 32
0.0
 13
1.0
 23
0.0
 33
0.0
 40
0.0
 40
0.0
 40
0.0
 40
0.0
 40
1.0
 40
1.0
 40
1.0
 40
2.0
 40
2.0
 40
2.0
 40
3.0
 40
3.0
 40
3.0
 40
4.0
 40
4.0
 40
4.0
 40
5.0
 40
5.0
 40
5.0
 40
6.0
 40
6.0
 40
6.0
 40
7.0
 40
7.0
 40
7.0
 40
8.0
 40
8.0
 40
8.0
 40
9.0
 40
9.0
 40
9.0
 40
10.0
 40
10.0
 40
10.0
 40
10.0
 10
41.01499938964844
 20
94.19799995422363
 30
0.0
 10
40.75799942016602
 20
93.9729995727539
 30
0.0
 10
40.36899948120117
 20
93.99799919128418
 30
0.0
 10
40.14299774169922
 20
94.25399971008301
 30
0.0
 10
40.14299774169922
 20
94.25399971008301
 30
0.0
 10
36.66299819946289
 20
98.2140007019043
 30
0.0
 10
36.66299819946289
 20
98.2140007019043
 30
0.0
 10
36.66299819946289
 20
98.2140007019043
 30
0.0
 10
36.66299819946289
 20
92.45999908447266
 30
0.0
 10
36.66299819946289
 20
92.45999908447266
 30
0.0
 10
36.66299819946289
 20
92.11899948120117
 30
0.0
 10
36.38699722290039
 20
91.84199905395508
 30
0.0
 10
36.04499816894531
 20
91.84199905395508
 30
0.0
 10
35.70399856567383
 20
91.84199905395508
 30
0.0
 10
35.42699813842773
 20
92.11899948120117
 30
0.0
 10
35.42699813842773
 20
92.45999908447266
 30
0.0
 10
35.42699813842773
 20
92.45999908447266
 30
0.0
 10
35.42699813842773
 20
99.85299873352051
 30
0.0
 10
35.42699813842773
 20
99.85299873352051
 30
0.0
 10
35.42699813842773
 20
100.1099987030029
 30
0.0
 10
35.58599853515625
 20
100.3399982452393
 30
0.0
 10
35.82699966430664
 20
100.4309978485107
 30
0.0
 10
36.06800079345703
 20
100.5209980010986
 30
0.0
 10
36.34000015258789
 20
100.4539985656738
 30
0.0
 10
36.50899887084961
 20
100.2609977722168
 30
0.0
 10
36.50899887084961
 20
100.2609977722168
 30
0.0
 10
41.06999969482422
 20
95.06999778747559
 30
0.0
 10
41.06999969482422
 20
95.06999778747559
 30
0.0
 10
41.29600143432617
 20
94.8129997253418
 30
0.0
 10
41.27099990844727
 20
94.42300033569336
 30
0.0
 10
41.01499938964844
 20
94.19799995422363
 30
0.0
  0
SPLINE
  5
47
330
1F
100
AcDbEntity
  8
Layer 1
370
     0
100
AcDbSpline
210
0.0
220
0.0
230
1.0
 70
    11
 71
     3
 72
    35
 73
    31
 74
     0
 42
0.0000000001
 43
0.0000000001
 12
1.0
 22
0.0
 32
0.0
 13
1.0
 23
0.0
 33
0.0
 40
0.0
 40
0.0
 40
0.0
 40
0.0
 40
1.0
 40
1.0
 40
1.0
 40
2.0
 40
2.0
 40
2.0
 40
3.0
 40
3.0
 40
3.0
 40
4.0
 40
4.0
 40
4.0
 40
5.0
 40
5.0
 40
5.0
 40
6.0
 40
6.0
 40
6.0
 40
7.0
 40
7.0
 40
7.0
 40
8.0
 40
8.0
 40
8.0
 40
9.0
 40
9.0
 40
9.0
 40
10.0
 40
10.0
 40
10.0
 40
10.0
 10
42.3489990234375
 20
86.24700164794922
 30
0.0
 10
42.3489990234375
 20
86.24700164794922
 30
0.0
 10
42.3489990234375
 20
90.96600341796875
 30
0.0
 10
42.3489990234375
 20
90.96600341796875
 30
0.0
 10
42.3489990234375
 20
91.21800231933594
 30
0.0
 10
42.50299835205078
 20
91.44500350952148
 30
0.0
 10
42.73699951171875
 20
91.53900527954102
 30
0.0
 10
42.97100067138672
 20
91.63300704956055
 30
0.0
 10
43.23899841308594
 20
91.57500457763672
 30
0.0
 10
43.41299819946289
 20
91.39200592041016
 30
0.0
 10
43.41299819946289
 20
91.39200592041016
 30
0.0
 10
46.71599960327148
 20
87.9310073852539
 30
0.0
 10
46.71599960327148
 20
87.9310073852539
 30
0.0
 10
46.95199966430664
 20
87.68400573730469
 30
0.0
 10
46.94200134277344
 20
87.29300689697266
 30
0.0
 10
46.69599914550781
 20
87.0580062866211
 30
0.0
 10
46.44899749755859
 20
86.82300567626953
 30
0.0
 10
46.05799865722656
 20
86.83100509643555
 30
0.0
 10
45.822998046875
 20
87.07800674438477
 30
0.0
 10
45.822998046875
 20
87.07800674438477
 30
0.0
 10
43.58399963378906
 20
89.42300796508789
 30
0.0
 10
43.58399963378906
 20
89.42300796508789
 30
0.0
 10
43.58399963378906
 20
89.42300796508789
 30
0.0
 10
43.58399963378906
 20
86.24600982666016
 30
0.0
 10
43.58399963378906
 20
86.24600982666016
 30
0.0
 10
43.58399963378906
 20
85.90501022338867
 30
0.0
 10
43.30799865722656
 20
85.62800979614258
 30
0.0
 10
42.96599960327148
 20
85.62800979614258
 30
0.0
 10
42.62400054931641
 20
85.62800979614258
 30
0.0
 10
42.3489990234375
 20
85.90499877929688
 30
0.0
 10
42.3489990234375
 20
86.24700164794922
 30
0.0
  0
SPLINE
  5
48
330
1F
100
AcDbEntity
  8
Layer 1
370
     0
100
AcDbSpline
210
0.0
220
0.0
230
1.0
 70
    11
 71
     3
 72
    26
 73
    22
 74
     0
 42
0.0000000001
 43
0.0000000001
 12
1.0
 22
0.0
 32
0.0
 13
1.0
 23
0.0
 33
0.0
 40
0.0
 40
0.0
 40
0.0
 40
0.0
 40
1.0
 40
1.0
 40
1.0
 40
2.0
 40
2.0
 40
2.0
 40
3.0
 40
3.0
 40
3.0
 40
4.0
 40
4.0
 40
4.0
 40
5.0
 40
5.0
 40
5.0
 40
6.0
 40
6.0
 40
6.0
 40
7.0
 40
7.0
 40
7.0
 40
7.0
 10
46.6150016784668
 20
46.55799865722656
 30
0.0
 10
46.26100158691406
 20
46.51899719238281
 30
0.0
 10
45.92600250244141
 20
46.50399780273438
 30
0.0
 10
45.61600112915039
 20
46.50399780273438
 30
0.0
 10
44.38299942016602
 20
46.50399780273438
 30
0.0
 10
43.55500030517578
 20
46.75099945068359
 30
0.0
 10
43.51200103759766
 20
46.76399993896484
 30
0.0
 10
43.2400016784668
 20
46.84700012207031
 30
0.0
 10
43.08700180053711
 20
47.13400268554688
 30
0.0
 10
43.17000198364258
 20
47.40599822998047
 30
0.0
 10
43.25300216674805
 20
47.677001953125
 30
0.0
 10
43.54000091552734
 20
47.83000183105469
 30
0.0
 10
43.81100082397461
 20
47.74900054931641
 30
0.0
 10
43.82200241088867
 20
47.74600219726562
 30
0.0
 10
44.95899963378906
 20
47.41200256347656
 30
0.0
 10
46.50300216674805
 20
47.58200073242188
 30
0.0
 10
46.78800201416016
 20
47.61199951171875
 30
0.0
 10
47.04000091552734
 20
47.40900421142578
 30
0.0
 10
47.07100296020508
 20
47.12599945068359
 30
0.0
 10
47.10100173950195
 20
46.84200286865234
 30
0.0
 10
46.89699935913086
 20
46.58799743652344
 30
0.0
 10
46.6150016784668
 20
46.55799865722656
 30
0.0
  0
SPLINE
  5
49
330
1F
100
AcDbEntity
  8
Layer 1
370
     0
100
AcDbSpline
210
0.0
220
0.0
230
1.0
 70
    11
 71
     3
 72
    38
 73
    34
 74
     0
 42
0.0000000001
 43
0.0000000001
 12
1.0
 22
0.0
 32
0.0
 13
1.0
 23
0.0
 33
0.0
 40
0.0
 40
0.0
 40
0.0
 40
0.0
 40
1.0
 40
1.0
 40
1.0
 40
2.0
 40
2.0
 40
2.0
 40
3.0
 40
3.0
 40
3.0
 40
4.0
 40
4.0
 40
4.0
 40
5.0
 40
5.0
 40
5.0
 40
6.0
 40
6.0
 40
6.0
 40
7.0
 40
7.0
 40
7.0
 40
8.0
 40
8.0
 40
8.0
 40
9.0
 40
9.0
 40
9.0
 40
10.0
 40
10.0
 40
10.0
 40
11.0
 40
11.0
 40
11.0
 40
11.0
 10
51.18399810791016
 20
95.96299934387207
 30
0.0
 10
51.11899948120117
 20
95.94099998474121
 30
0.0
 10
51.05399703979492
 20
95.93099975585938
 30
0.0
 10
50.98899841308594
 20
95.93099975585938
 30
0.0
 10
50.72999954223633
 20
95.93099975585938
 30
0.0
 10
50.48899841308594
 20
96.09499931335449
 30
0.0
 10
50.40299987792969
 20
96.35400009155273
 30
0.0
 10
50.40299987792969
 20
96.35400009155273
 30
0.0
 10
48.83200073242188
 20
101.0659999847412
 30
0.0
 10
48.83200073242188
 20
101.0659999847412
 30
0.0
 10
48.83200073242188
 20
101.0659999847412
 30
0.0
 10
47.49300003051758
 20
96.37899971008301
 30
0.0
 10
47.49300003051758
 20
96.37899971008301
 30
0.0
 10
47.39899826049805
 20
96.05100059509277
 30
0.0
 10
47.05699920654297
 20
95.86100006103516
 30
0.0
 10
46.72900009155273
 20
95.95499992370605
 30
0.0
 10
46.4010009765625
 20
96.04899978637695
 30
0.0
 10
46.21099853515625
 20
96.39100074768066
 30
0.0
 10
46.30500030517578
 20
96.7189998626709
 30
0.0
 10
46.30500030517578
 20
96.7189998626709
 30
0.0
 10
48.19300079345703
 20
103.3250007629395
 30
0.0
 10
48.19300079345703
 20
103.3250007629395
 30
0.0
 10
48.26700210571289
 20
103.5850009918213
 30
0.0
 10
48.50300216674805
 20
103.7670001983643
 30
0.0
 10
48.77300262451172
 20
103.7730007171631
 30
0.0
 10
49.04700088500977
 20
103.7760009765625
 30
0.0
 10
49.28700256347656
 20
103.6079998016357
 30
0.0
 10
49.37200164794922
 20
103.3509998321533
 30
0.0
 10
49.37200164794922
 20
103.3509998321533
 30
0.0
 10
51.57400131225586
 20
96.74499893188477
 30
0.0
 10
51.57400131225586
 20
96.74499893188477
 30
0.0
 10
51.68199920654297
 20
96.42099952697754
 30
0.0
 10
51.50699996948242
 20
96.07099914550781
 30
0.0
 10
51.18399810791016
 20
95.96299934387207
 30
0.0
  0
SPLINE
  5
4A
330
1F
100
AcDbEntity
  8
Layer 1
370
     0
100
AcDbSpline
210
0.0
220
0.0
230
1.0
 70
    11
 71
     3
 72
    68
 73
    64
 74
     0
 42
0.0000000001
 43
0.0000000001
 12
1.0
 22
0.0
 32
0.0
 13
1.0
 23
0.0
 33
0.0
 40
0.0
 40
0.0
 40
0.0
 40
0.0
 40
1.0
 40
1.0
 40
1.0
 40
2.0
 40
2.0
 40
2.0
 40
3.0
 40
3.0
 40
3.0
 40
4.0
 40
4.0
 40
4.0
 40
5.0
 40
5.0
 40
5.0
 40
6.0
 40
6.0
 40
6.0
 40
7.0
 40
7.0
 40
7.0
 40
8.0
 40
8.0
 40
8.0
 40
9.0
 40
9.0
 40
9.0
 40
10.0
 40
10.0
 40
10.0
 40
11.0
 40
11.0
 40
11.0
 40
12.0
 40
12.0
 40
12.0
 40
13.0
 40
13.0
 40
13.0
 40
14.0
 40
14.0
 40
14.0
 40
15.0
 40
15.0
 40
15.0
 40
16.0
 40
16.0
 40
16.0
 40
17.0
 40
17.0
 40
17.0
 40
18.0
 40
18.0
 40
18.0
 40
19.0
 40
19.0
 40
19.0
 40
20.0
 40
20.0
 40
20.0
 40
21.0
 40
21.0
 40
21.0
 40
21.0
 10
70.36399841308594
 20
62.88600158691406
 30
0.0
 10
70.24199676513672
 20
62.76000213623047
 30
0.0
 10
67.32699584960938
 20
59.78700256347656
 30
0.0
 10
63.50099945068359
 20
59.75399780273438
 30
0.0
 10
63.47999954223633
 20
59.75399780273438
 30
0.0
 10
63.45800018310547
 20
59.75399780273438
 30
0.0
 10
63.4370002746582
 20
59.75399780273438
 30
0.0
 10
61.35200119018555
 20
59.75399780273438
 30
0.0
 10
59.42100143432617
 20
60.62799835205078
 30
0.0
 10
57.69599914550781
 20
62.35299682617188
 30
0.0
 10
54.42599868774414
 20
65.62299728393555
 30
0.0
 10
52.97699737548828
 20
65.80299758911133
 30
0.0
 10
52.50699996948242
 20
65.72899627685547
 30
0.0
 10
52.25099945068359
 20
65.68899536132812
 30
0.0
 10
52.16799926757812
 20
65.54999542236328
 30
0.0
 10
52.15399932861328
 20
65.5219955444336
 30
0.0
 10
52.16299819946289
 20
65.53999710083008
 30
0.0
 10
52.16600036621094
 20
65.55099487304688
 30
0.0
 10
52.16600036621094
 20
65.55099487304688
 30
0.0
 10
52.16600036621094
 20
65.55099487304688
 30
0.0
 10
52.04500198364258
 20
65.59799575805664
 30
0.0
 10
52.04500198364258
 20
65.59799575805664
 30
0.0
 10
51.31500244140625
 20
65.87999725341797
 30
0.0
 10
51.37500381469727
 20
66.95299530029297
 30
0.0
 10
52.13800048828125
 20
67.12499618530273
 30
0.0
 10
52.14799880981445
 20
67.12699508666992
 30
0.0
 10
52.15800094604492
 20
67.12899780273438
 30
0.0
 10
52.16799926757812
 20
67.13099670410156
 30
0.0
 10
53.71500015258789
 20
67.4579963684082
 30
0.0
 10
55.85799789428711
 20
66.22899627685547
 30
0.0
 10
58.71500015258789
 20
63.37199783325195
 30
0.0
 10
60.17399978637695
 20
61.91299819946289
 30
0.0
 10
61.78300094604492
 20
61.18199920654297
 30
0.0
 10
63.48799896240234
 20
61.19599914550781
 30
0.0
 10
65.20899963378906
 20
61.21099853515625
 30
0.0
 10
66.74800109863281
 20
61.96799850463867
 30
0.0
 10
67.81299591064453
 20
62.67499923706055
 30
0.0
 10
65.39099884033203
 20
62.84399795532227
 30
0.0
 10
62.89899444580078
 20
65.4370002746582
 30
0.0
 10
62.03499603271484
 20
67.86399841308594
 30
0.0
 10
61.13299560546875
 20
70.39699935913086
 30
0.0
 10
58.2339973449707
 20
70.42599868774414
 30
0.0
 10
58.20499420166016
 20
70.42599868774414
 30
0.0
 10
57.8069953918457
 20
70.42599868774414
 30
0.0
 10
57.48399353027344
 20
70.7490005493164
 30
0.0
 10
57.48399353027344
 20
71.14699935913086
 30
0.0
 10
57.48399353027344
 20
71.54499816894531
 30
0.0
 10
57.8069953918457
 20
71.86800003051758
 30
0.0
 10
58.20499420166016
 20
71.86800003051758
 30
0.0
 10
58.36599349975586
 20
71.86800003051758
 30
0.0
 10
62.15399551391602
 20
71.82799911499023
 30
0.0
 10
63.39299392700195
 20
68.3479995727539
 30
0.0
 10
64.25699615478516
 20
65.9209976196289
 30
0.0
 10
66.57099151611328
 20
64.10800170898438
 30
0.0
 10
68.06199645996094
 20
64.10800170898438
 30
0.0
 10
68.06199645996094
 20
64.10800170898438
 30
0.0
 10
69.8239974975586
 20
64.10800170898438
 30
0.0
 10
69.8239974975586
 20
64.10800170898438
 30
0.0
 10
70.03099822998047
 20
64.10800170898438
 30
0.0
 10
70.23699951171875
 20
64.03100204467773
 30
0.0
 10
70.375
 20
63.87600326538086
 30
0.0
 10
70.64299774169922
 20
63.57899856567383
 30
0.0
 10
70.62000274658203
 20
63.1510009765625
 30
0.0
 10
70.36399841308594
 20
62.88600158691406
 30
0.0
  0
SPLINE
  5
4B
330
1F
100
AcDbEntity
  8
Layer 1
370
     0
100
AcDbSpline
210
0.0
220
0.0
230
1.0
 70
    11
 71
     3
 72
    38
 73
    34
 74
     0
 42
0.0000000001
 43
0.0000000001
 12
1.0
 22
0.0
 32
0.0
 13
1.0
 23
0.0
 33
0.0
 40
0.0
 40
0.0
 40
0.0
 40
0.0
 40
1.0
 40
1.0
 40
1.0
 40
2.0
 40
2.0
 40
2.0
 40
3.0
 40
3.0
 40
3.0
 40
4.0
 40
4.0
 40
4.0
 40
5.0
 40
5.0
 40
5.0
 40
6.0
 40
6.0
 40
6.0
 40
7.0
 40
7.0
 40
7.0
 40
8.0
 40
8.0
 40
8.0
 40
9.0
 40
9.0
 40
9.0
 40
10.0
 40
10.0
 40
10.0
 40
11.0
 40
11.0
 40
11.0
 40
11.0
 10
68.70800018310547
 20
87.67100143432617
 30
0.0
 10
68.61199951171875
 20
87.4280014038086
 30
0.0
 10
68.37899780273438
 20
87.28000259399414
 30
0.0
 10
68.13300323486328
 20
87.28000259399414
 30
0.0
 10
68.0570068359375
 20
87.28000259399414
 30
0.0
 10
67.98100280761719
 20
87.29400253295898
 30
0.0
 10
67.906005859375
 20
87.32300186157227
 30
0.0
 10
67.58900451660156
 20
87.44800186157227
 30
0.0
 10
67.4330062866211
 20
87.80700302124023
 30
0.0
 10
67.55900573730469
 20
88.125
 30
0.0
 10
67.55900573730469
 20
88.125
 30
0.0
 10
69.49800872802734
 20
93.03000068664551
 30
0.0
 10
69.49800872802734
 20
93.03000068664551
 30
0.0
 10
69.49800872802734
 20
93.03000068664551
 30
0.0
 10
65.80500793457031
 20
90.53200149536133
 30
0.0
 10
65.80500793457031
 20
90.53200149536133
 30
0.0
 10
65.52201080322266
 20
90.34099960327148
 30
0.0
 10
65.13800811767578
 20
90.41500091552734
 30
0.0
 10
64.94700622558594
 20
90.69700241088867
 30
0.0
 10
64.7560043334961
 20
90.9800033569336
 30
0.0
 10
64.83000946044922
 20
91.3640022277832
 30
0.0
 10
65.11200714111328
 20
91.55500411987305
 30
0.0
 10
65.11200714111328
 20
91.55500411987305
 30
0.0
 10
70.46000671386719
 20
95.17300415039062
 30
0.0
 10
70.46000671386719
 20
95.17300415039062
 30
0.0
 10
70.68400573730469
 20
95.32500457763672
 30
0.0
 10
70.98101043701172
 20
95.31300354003906
 30
0.0
 10
71.19300842285156
 20
95.14300346374512
 30
0.0
 10
71.40400695800781
 20
94.97300338745117
 30
0.0
 10
71.48001098632812
 20
94.68600273132324
 30
0.0
 10
71.38101196289062
 20
94.43400382995605
 30
0.0
 10
71.38101196289062
 20
94.43400382995605
 30
0.0
 10
68.70800018310547
 20
87.67100143432617
 30
0.0
 10
68.70800018310547
 20
87.67100143432617
 30
0.0
  0
SPLINE
  5
4C
330
1F
100
AcDbEntity
  8
Layer 1
370
     0
100
AcDbSpline
210
0.0
220
0.0
230
1.0
 70
    11
 71
     3
 72
    38
 73
    34
 74
     0
 42
0.0000000001
 43
0.0000000001
 12
1.0
 22
0.0
 32
0.0
 13
1.0
 23
0.0
 33
0.0
 40
0.0
 40
0.0
 40
0.0
 40
0.0
 40
1.0
 40
1.0
 40
1.0
 40
2.0
 40
2.0
 40
2.0
 40
3.0
 40
3.0
 40
3.0
 40
4.0
 40
4.0
 40
4.0
 40
5.0
 40
5.0
 40
5.0
 40
6.0
 40
6.0
 40
6.0
 40
7.0
 40
7.0
 40
7.0
 40
8.0
 40
8.0
 40
8.0
 40
9.0
 40
9.0
 40
9.0
 40
10.0
 40
10.0
 40
10.0
 40
11.0
 40
11.0
 40
11.0
 40
11.0
 10
78.97000122070312
 20
83.78400039672852
 30
0.0
 10
78.97000122070312
 20
83.78400039672852
 30
0.0
 10
73.77899932861328
 20
78.12100219726562
 30
0.0
 10
73.77899932861328
 20
78.12100219726562
 30
0.0
 10
73.65699768066406
 20
77.98800277709961
 30
0.0
 10
73.48999786376953
 20
77.92100143432617
 30
0.0
 10
73.322998046875
 20
77.92100143432617
 30
0.0
 10
73.17399597167969
 20
77.92100143432617
 30
0.0
 10
73.02399444580078
 20
77.97500228881836
 30
0.0
 10
72.90599822998047
 20
78.08300018310547
 30
0.0
 10
72.65499877929688
 20
78.31399917602539
 30
0.0
 10
72.63800048828125
 20
78.70399856567383
 30
0.0
 10
72.86799621582031
 20
78.95600128173828
 30
0.0
 10
72.86799621582031
 20
78.95600128173828
 30
0.0
 10
76.89199829101562
 20
83.34500122070312
 30
0.0
 10
76.89199829101562
 20
83.34500122070312
 30
0.0
 10
76.89199829101562
 20
83.34500122070312
 30
0.0
 10
71.9949951171875
 20
82.64599990844727
 30
0.0
 10
71.9949951171875
 20
82.64599990844727
 30
0.0
 10
71.65799713134766
 20
82.5989990234375
 30
0.0
 10
71.3449935913086
 20
82.83200073242188
 30
0.0
 10
71.2959976196289
 20
83.16999816894531
 30
0.0
 10
71.24800109863281
 20
83.50799942016602
 30
0.0
 10
71.48199462890625
 20
83.82099914550781
 30
0.0
 10
71.81999969482422
 20
83.86899948120117
 30
0.0
 10
71.81999969482422
 20
83.86899948120117
 30
0.0
 10
78.4260025024414
 20
84.8129997253418
 30
0.0
 10
78.4260025024414
 20
84.8129997253418
 30
0.0
 10
78.68400573730469
 20
84.8499984741211
 30
0.0
 10
78.93800354003906
 20
84.72000122070312
 30
0.0
 10
79.06000518798828
 20
84.48999786376953
 30
0.0
 10
79.18299865722656
 20
84.25899887084961
 30
0.0
 10
79.14600372314453
 20
83.97700119018555
 30
0.0
 10
78.97000122070312
 20
83.78400039672852
 30
0.0
  0
HATCH
  5
4D
330
1F
100
AcDbEntity
  8
Layer 1
 62
     7
420
 16777215
100
AcDbHatch
 10
0.0
 20
0.0
 30
0.0
210
0.0
220
0.0
230
1.0
  2
SOLID
 70
     1
 71
     0
 91
       12
 92
        1
 93
        1
 72
     4
 94
        3
 73
     0
 74
     1
 95
      293
 96
      289
 40
0.0
 40
0.0
 40
0.0
 40
0.0
 40
1.0
 40
1.0
 40
1.0
 40
2.0
 40
2.0
 40
2.0
 40
3.0
 40
3.0
 40
3.0
 40
4.0
 40
4.0
 40
4.0
 40
5.0
 40
5.0
 40
5.0
 40
6.0
 40
6.0
 40
6.0
 40
7.0
 40
7.0
 40
7.0
 40
8.0
 40
8.0
 40
8.0
 40
9.0
 40
9.0
 40
9.0
 40
10.0
 40
10.0
 40
10.0
 40
11.0
 40
11.0
 40
11.0
 40
12.0
 40
12.0
 40
12.0
 40
13.0
 40
13.0
 40
13.0
 40
14.0
 40
14.0
 40
14.0
 40
15.0
 40
15.0
 40
15.0
 40
16.0
 40
16.0
 40
16.0
 40
17.0
 40
17.0
 40
17.0
 40
18.0
 40
18.0
 40
18.0
 40
19.0
 40
19.0
 40
19.0
 40
20.0
 40
20.0
 40
20.0
 40
21.0
 40
21.0
 40
21.0
 40
22.0
 40
22.0
 40
22.0
 40
23.0
 40
23.0
 40
23.0
 40
24.0
 40
24.0
 40
24.0
 40
25.0
 40
25.0
 40
25.0
 40
26.0
 40
26.0
 40
26.0
 40
27.0
 40
27.0
 40
27.0
 40
28.0
 40
28.0
 40
28.0
 40
29.0
 40
29.0
 40
29.0
 40
30.0
 40
30.0
 40
30.0
 40
31.0
 40
31.0
 40
31.0
 40
32.0
 40
32.0
 40
32.0
 40
33.0
 40
33.0
 40
33.0
 40
34.0
 40
34.0
 40
34.0
 40
35.0
 40
35.0
 40
35.0
 40
36.0
 40
36.0
 40
36.0
 40
37.0
 40
37.0
 40
37.0
 40
38.0
 40
38.0
 40
38.0
 40
39.0
 40
39.0
 40
39.0
 40
40.0
 40
40.0
 40
40.0
 40
41.0
 40
41.0
 40
41.0
 40
42.0
 40
42.0
 40
42.0
 40
43.0
 40
43.0
 40
43.0
 40
44.0
 40
44.0
 40
44.0
 40
45.0
 40
45.0
 40
45.0
 40
46.0
 40
46.0
 40
46.0
 40
47.0
 40
47.0
 40
47.0
 40
48.0
 40
48.0
 40
48.0
 40
49.0
 40
49.0
 40
49.0
 40
50.0
 40
50.0
 40
50.0
 40
51.0
 40
51.0
 40
51.0
 40
52.0
 40
52.0
 40
52.0
 40
53.0
 40
53.0
 40
53.0
 40
54.0
 40
54.0
 40
54.0
 40
55.0
 40
55.0
 40
55.0
 40
56.0
 40
56.0
 40
56.0
 40
57.0
 40
57.0
 40
57.0
 40
58.0
 40
58.0
 40
58.0
 40
59.0
 40
59.0
 40
59.0
 40
60.0
 40
60.0
 40
60.0
 40
61.0
 40
61.0
 40
61.0
 40
62.0
 40
62.0
 40
62.0
 40
63.0
 40
63.0
 40
63.0
 40
64.0
 40
64.0
 40
64.0
 40
65.0
 40
65.0
 40
65.0
 40
66.0
 40
66.0
 40
66.0
 40
67.0
 40
67.0
 40
67.0
 40
68.0
 40
68.0
 40
68.0
 40
69.0
 40
69.0
 40
69.0
 40
70.0
 40
70.0
 40
70.0
 40
71.0
 40
71.0
 40
71.0
 40
72.0
 40
72.0
 40
72.0
 40
73.0
 40
73.0
 40
73.0
 40
74.0
 40
74.0
 40
74.0
 40
75.0
 40
75.0
 40
75.0
 40
76.0
 40
76.0
 40
76.0
 40
77.0
 40
77.0
 40
77.0
 40
78.0
 40
78.0
 40
78.0
 40
79.0
 40
79.0
 40
79.0
 40
80.0
 40
80.0
 40
80.0
 40
81.0
 40
81.0
 40
81.0
 40
82.0
 40
82.0
 40
82.0
 40
83.0
 40
83.0
 40
83.0
 40
84.0
 40
84.0
 40
84.0
 40
85.0
 40
85.0
 40
85.0
 40
86.0
 40
86.0
 40
86.0
 40
87.0
 40
87.0
 40
87.0
 40
88.0
 40
88.0
 40
88.0
 40
89.0
 40
89.0
 40
89.0
 40
90.0
 40
90.0
 40
90.0
 40
91.0
 40
91.0
 40
91.0
 40
92.0
 40
92.0
 40
92.0
 40
93.0
 40
93.0
 40
93.0
 40
94.0
 40
94.0
 40
94.0
 40
95.0
 40
95.0
 40
95.0
 40
96.0
 40
96.0
 40
96.0
 40
96.0
 10
93.875
 20
76.46599960327148
 10
93.875
 20
76.46599960327148
 10
85.06700134277344
 20
70.95000076293945
 10
85.06700134277344
 20
70.95000076293945
 10
85.06700134277344
 20
70.95000076293945
 10
85.20700073242188
 20
74.95600128173828
 10
84.69000244140625
 20
80.10400009155273
 10
84.69000244140625
 20
80.10400009155273
 10
84.69200134277344
 20
80.09199905395508
 10
84.69200134277344
 20
80.09199905395508
 10
84.69200134277344
 20
80.09199905395508
 10
88.4260025024414
 20
83.49300003051758
 10
88.4260025024414
 20
83.49300003051758
 10
88.4260025024414
 20
83.49300003051758
 10
84.12300109863281
 20
84.19100189208984
 10
84.12300109863281
 20
84.19100189208984
 10
84.12300109863281
 20
84.19100189208984
 10
84.1259994506836
 20
84.16800308227539
 10
84.1259994506836
 20
84.16800308227539
 10
83.83899688720703
 20
85.77800369262695
 10
83.46099853515625
 20
87.45600128173828
 10
82.96299743652344
 20
89.15500259399414
 10
82.96299743652344
 20
89.15500259399414
 10
82.96299743652344
 20
89.15500259399414
 10
82.96299743652344
 20
89.15500259399414
 10
82.96299743652344
 20
89.15500259399414
 10
89.68399810791016
 20
96.94200325012207
 10
89.68399810791016
 20
96.94200325012207
 10
89.68399810791016
 20
96.94200325012207
 10
81.13899993896484
 20
94.1400032043457
 10
81.13899993896484
 20
94.1400032043457
 10
81.13899993896484
 20
94.1400032043457
 10
81.1520004272461
 20
94.10300254821777
 10
81.1520004272461
 20
94.10300254821777
 10
80.06800079345703
 20
96.53200149536133
 10
78.68399810791016
 20
98.90100288391113
 10
76.91999816894531
 20
101.0620021820068
 10
76.91999816894531
 20
101.0620021820068
 10
76.93899536132812
 20
101.0420017242432
 10
76.93899536132812
 20
101.0420017242432
 10
76.93899536132812
 20
101.0420017242432
 10
81.03299713134766
 20
108.9080009460449
 10
81.03299713134766
 20
108.9080009460449
 10
81.03299713134766
 20
108.9080009460449
 10
74.11399841308594
 20
104.0139999389648
 10
74.11399841308594
 20
104.0139999389648
 10
74.11399841308594
 20
104.0139999389648
 10
74.11599731445312
 20
104.011999130249
 10
74.11599731445312
 20
104.011999130249
 10
71.90499877929688
 20
105.9979991912842
 10
69.2490005493164
 20
107.6849994659424
 10
66.06299591064453
 20
108.9159984588623
 10
66.06299591064453
 20
108.9159984588623
 10
66.08999633789062
 20
108.9079990386963
 10
66.08999633789062
 20
108.9079990386963
 10
66.08999633789062
 20
108.9079990386963
 10
66.08999633789062
 20
116.4469995498657
 10
66.08999633789062
 20
116.4469995498657
 10
66.08999633789062
 20
116.4469995498657
 10
61.96699523925781
 20
110.168999671936
 10
61.96699523925781
 20
110.168999671936
 10
61.96699523925781
 20
110.168999671936
 10
62.0469970703125
 20
110.1440000534058
 10
62.0469970703125
 20
110.1440000534058
 10
60.34199523925781
 20
110.5419998168945
 10
58.51299667358398
 20
110.826000213623
 10
56.5469970703125
 20
110.9750003814697
 10
56.5469970703125
 20
110.9750003814697
 10
56.65499877929688
 20
110.9700002670288
 10
56.65499877929688
 20
110.9700002670288
 10
56.65499877929688
 20
110.9700002670288
 10
55.54999923706055
 20
117.311999797821
 10
55.54999923706055
 20
117.311999797821
 10
55.54999923706055
 20
117.311999797821
 10
53.6619987487793
 20
111.0989999771118
 10
53.6619987487793
 20
111.0989999771118
 10
51.82499694824219
 20
111.1160001754761
 10
50.08799743652344
 20
111.0550003051758
 10
48.43599700927734
 20
110.9329996109009
 10
48.43599700927734
 20
110.9329996109009
 10
48.47699737548828
 20
110.9399995803833
 10
48.47699737548828
 20
110.9399995803833
 10
48.47699737548828
 20
110.9399995803833
 10
45.87599563598633
 20
113.6159992218018
 10
45.87599563598633
 20
113.6159992218018
 10
45.87599563598633
 20
113.6159992218018
 10
43.23299407958984
 20
110.2949991226196
 10
43.23299407958984
 20
110.2949991226196
 10
43.23299407958984
 20
110.2949991226196
 10
39.42799377441406
 20
115.503999710083
 10
39.42799377441406
 20
115.503999710083
 10
39.42799377441406
 20
115.503999710083
 10
39.42799377441406
 20
109.4440002441406
 10
39.42799377441406
 20
109.4440002441406
 10
39.42799377441406
 20
109.4440002441406
 10
39.44599533081055
 20
109.44700050354
 10
39.44599533081055
 20
109.44700050354
 10
37.58599472045898
 20
108.9400005340576
 10
35.88499450683594
 20
108.3339996337891
 10
34.33499526977539
 20
107.6459999084473
 10
34.33499526977539
 20
107.6459999084473
 10
34.33599472045898
 20
107.6469993591309
 10
34.33599472045898
 20
107.6469993591309
 10
34.33599472045898
 20
107.6469993591309
 10
29.2809944152832
 20
114.4819993972778
 10
29.2809944152832
 20
114.4819993972778
 10
29.2809944152832
 20
114.4819993972778
 10
30.47799491882324
 20
105.5989990234375
 10
30.47799491882324
 20
105.5989990234375
 10
30.47799491882324
 20
105.5989990234375
 10
30.50199508666992
 20
105.6119995117188
 10
30.50199508666992
 20
105.6119995117188
 10
27.56699562072754
 20
103.7709999084473
 10
25.32499504089355
 20
101.6280002593994
 10
23.61599540710449
 20
99.43499946594238
 10
23.61599540710449
 20
99.43499946594238
 10
23.6199951171875
 20
99.44099998474121
 10
23.6199951171875
 20
99.44099998474121
 10
23.6199951171875
 20
99.44099998474121
 10
16.38199615478516
 20
102.6849994659424
 10
16.38199615478516
 20
102.6849994659424
 10
16.38199615478516
 20
102.6849994659424
 10
20.96599578857422
 20
95.2819995880127
 10
20.96599578857422
 20
95.2819995880127
 10
20.96599578857422
 20
95.2819995880127
 10
20.96699523925781
 20
95.28299903869629
 10
20.96699523925781
 20
95.28299903869629
 10
18.86799621582031
 20
91.19499969482422
 10
17.66157990016382
 20
86.49963724868485
 10
17.51458054103296
 20
84.99963724868485
 10
19.44525781441007
 20
85.62800979614258
 10
21.62725700219562
 20
84.41564243234006
 10
21.50699615478516
 20
82.63100051879883
 10
21.39012220917175
 20
80.89661940945098
 10
20.40809122676728
 20
79.72815773078582
 10
18.5360914861667
 20
79.72815773078582
 10
17.45109240169404
 20
79.72815773078582
 10
15.99042576708416
 20
80.8797684132278
 10
16.17225903273265
 20
82.34530427626487
 10
15.47025936842601
 20
81.46930482558128
 10
13.94099521636963
 20
78.96999740600586
 10
13.09899520874023
 20
78.0359992980957
 10
12.45499515533447
 20
77.3219985961914
 10
12.02799510955811
 20
76.5620002746582
 10
11.74799537658691
 20
75.81800079345703
 10
11.74799537658691
 20
75.81800079345703
 10
18.25299453735352
 20
75.81800079345703
 10
18.25299453735352
 20
75.81800079345703
 10
18.58299446105957
 20
75.81800079345703
 10
18.85099411010742
 20
75.54999923706055
 10
18.85099411010742
 20
75.22000122070312
 10
18.85099411010742
 20
74.8900032043457
 10
18.58299446105957
 20
74.62200164794922
 10
18.25299453735352
 20
74.62200164794922
 10
18.25299453735352
 20
74.62200164794922
 10
11.41199493408203
 20
74.62200164794922
 10
11.41199493408203
 20
74.62200164794922
 10
11.04499530792236
 20
72.70700073242188
 10
11.50499534606934
 20
71.14800262451172
 10
11.50499534606934
 20
71.14800262451172
 10
11.50499534606934
 20
71.14800262451172
 10
12.10699558258057
 20
69.10700225830078
 10
13.50699520111084
 20
66.09300231933594
 10
13.45299530029297
 20
66.06400299072266
 10
13.36599540710449
 20
66.01700210571289
 10
13.24899482727051
 20
65.94800186157227
 10
12.62899494171143
 20
65.58400344848633
 10
11.26899528503418
 20
64.68500137329102
 10
10.63299465179443
 20
63.49200057983398
 10
9.793994903564453
 20
61.91899871826172
 10
7.067994594573975
 20
61.18500137329102
 10
5.284994602203369
 20
62.23400115966797
 10
3.551994562149048
 20
63.25400161743164
 10
10.61799430847168
 20
55.33799743652344
 10
16.02399444580078
 20
61.31900024414062
 10
17.40899467468262
 20
58.98400115966797
 10
19.14999389648438
 20
56.45899963378906
 10
21.29599380493164
 20
54.01399993896484
 10
21.29599380493164
 20
54.01399993896484
 10
21.28899383544922
 20
54.02100372314453
 10
21.28899383544922
 20
54.02100372314453
 10
21.28899383544922
 20
54.02100372314453
 10
19.60699462890625
 20
47.24000549316406
 10
19.60699462890625
 20
47.24000549316406
 10
19.60699462890625
 20
47.24000549316406
 10
25.70299530029297
 20
49.67600250244141
 10
25.70299530029297
 20
49.67600250244141
 10
25.70299530029297
 20
49.67600250244141
 10
25.67799949645996
 20
49.69999694824219
 10
25.67799949645996
 20
49.69999694824219
 10
27.48200035095215
 20
48.17399597167969
 10
29.48600006103516
 20
46.76199340820312
 10
31.70699882507324
 20
45.54499816894531
 10
31.70699882507324
 20
45.54499816894531
 10
31.6929988861084
 20
45.54999542236328
 10
31.6929988861084
 20
45.54999542236328
 10
31.6929988861084
 20
45.54999542236328
 10
31.26299858093262
 20
36.697998046875
 10
31.26299858093262
 20
36.697998046875
 10
31.26299858093262
 20
36.697998046875
 10
37.0989990234375
 20
43.16500091552734
 10
37.0989990234375
 20
43.16500091552734
 10
37.0989990234375
 20
43.16500091552734
 10
38.71899795532227
 20
36.697998046875
 10
38.71899795532227
 20
36.697998046875
 10
38.71899795532227
 20
36.697998046875
 10
40.99099731445312
 20
42.08599853515625
 10
40.99099731445312
 20
42.08599853515625
 10
40.99099731445312
 20
42.08599853515625
 10
40.96599578857422
 20
42.09500122070312
 10
40.96599578857422
 20
42.09500122070312
 10
41.6099967956543
 20
41.95600128173828
 10
42.26599502563477
 20
41.83200073242188
 10
42.93599700927734
 20
41.72599792480469
 10
42.93599700927734
 20
41.72599792480469
 10
42.88699722290039
 20
41.73099517822266
 10
42.88699722290039
 20
41.73099517822266
 10
42.88699722290039
 20
41.73099517822266
 10
44.38099670410156
 20
32.68699645996094
 10
44.38099670410156
 20
32.68699645996094
 10
44.38099670410156
 20
32.68699645996094
 10
47.68399810791016
 20
41.25999450683594
 10
47.68399810791016
 20
41.25999450683594
 10
47.68399810791016
 20
41.25999450683594
 10
47.31099700927734
 20
41.2969970703125
 10
47.31099700927734
 20
41.2969970703125
 10
47.84799575805664
 20
41.27499389648438
 10
48.38999557495117
 20
41.25999450683594
 10
48.94199752807617
 20
41.25999450683594
 10
50.7089958190918
 20
41.25999450683594
 10
52.39299774169922
 20
41.35399627685547
 10
53.99899673461914
 20
41.52999114990234
 10
53.99899673461914
 20
41.52999114990234
 10
53.98899841308594
 20
41.52799224853516
 10
53.98899841308594
 20
41.52799224853516
 10
53.98899841308594
 20
41.52799224853516
 10
57.35799789428711
 20
32.68699645996094
 10
57.35799789428711
 20
32.68699645996094
 10
57.35799789428711
 20
32.68699645996094
 10
58.35499954223633
 20
42.23999786376953
 10
58.35499954223633
 20
42.23999786376953
 10
58.35499954223633
 20
42.23999786376953
 10
58.30500030517578
 20
42.23199462890625
 10
58.30500030517578
 20
42.23199462890625
 10
61.31399917602539
 20
42.88999176025391
 10
64.00199890136719
 20
43.84799194335938
 10
66.39599609375
 20
45.00899505615234
 10
66.39599609375
 20
45.00899505615234
 10
66.37799835205078
 20
44.99799346923828
 10
66.37799835205078
 20
44.99799346923828
 10
66.37799835205078
 20
44.99799346923828
 10
70.80699920654297
 20
38.03499603271484
 10
70.80699920654297
 20
38.03499603271484
 10
70.80699920654297
 20
38.03499603271484
 10
71.66099548339844
 20
48.17499542236328
 10
71.7719955444336
 20
48.25799560546875
 10
71.7719955444336
 20
48.25799560546875
 10
71.76299285888672
 20
48.25199890136719
 10
71.76299285888672
 20
48.25199890136719
 10
73.85699462890625
 20
49.79799652099609
 10
75.63699340820312
 20
51.48200225830078
 10
77.1419906616211
 20
53.17499542236328
 10
77.1419906616211
 20
53.17499542236328
 10
77.13799285888672
 20
53.16999816894531
 10
77.13799285888672
 20
53.16999816894531
 10
77.13799285888672
 20
53.16999816894531
 10
83.23399353027344
 20
47.78599548339844
 10
83.23399353027344
 20
47.78599548339844
 10
83.23399353027344
 20
47.78599548339844
 10
80.4419937133789
 20
57.48699951171875
 10
80.4419937133789
 20
57.48699951171875
 10
83.43599700927734
 20
62.05099868774414
 10
84.49299621582031
 20
65.7959976196289
 10
84.49299621582031
 20
65.7959976196289
 10
84.49299621582031
 20
65.7959976196289
 10
90.72799682617188
 20
57.87300109863281
 10
90.72799682617188
 20
57.87300109863281
 10
91.14999389648438
 20
57.33699798583984
 10
92.01199340820312
 20
57.63100433349609
 10
92.01599884033203
 20
58.31400299072266
 10
92.02899932861328
 20
61.09200286865234
 10
92.2229995727539
 20
66.12900161743164
 10
93.30799865722656
 20
70.4780044555664
 10
93.84600067138672
 20
72.63500595092773
 10
94.44499969482422
 20
74.36100387573242
 10
94.92900085449219
 20
75.58600616455078
 10
95.18299865722656
 20
76.23600006103516
 10
94.46600341796875
 20
76.83599853515625
 10
93.875
 20
76.46599960327148
 97
        0
 97
        0
 92
        1
 93
        1
 72
     4
 94
        3
 73
     0
 74
     1
 95
       38
 96
       34
 40
0.0
 40
0.0
 40
0.0
 40
0.0
 40
1.0
 40
1.0
 40
1.0
 40
2.0
 40
2.0
 40
2.0
 40
3.0
 40
3.0
 40
3.0
 40
4.0
 40
4.0
 40
4.0
 40
5.0
 40
5.0
 40
5.0
 40
6.0
 40
6.0
 40
6.0
 40
7.0
 40
7.0
 40
7.0
 40
8.0
 40
8.0
 40
8.0
 40
9.0
 40
9.0
 40
9.0
 40
10.0
 40
10.0
 40
10.0
 40
11.0
 40
11.0
 40
11.0
 40
11.0
 10
56.9010009765625
 20
96.06900024414062
 10
56.9010009765625
 20
96.06900024414062
 10
60.04700088500977
 20
101.5740013122559
 10
60.04700088500977
 20
101.5740013122559
 10
60.17800140380859
 20
101.8030014038086
 10
60.44000244140625
 20
101.9240016937256
 10
60.69900131225586
 20
101.8740005493164
 10
60.95800018310547
 20
101.8250007629395
 10
61.15700149536133
 20
101.6160011291504
 10
61.19499969482422
 20
101.355001449585
 10
61.19499969482422
 20
101.355001449585
 10
62.13899993896484
 20
94.7490005493164
 10
62.13899993896484
 20
94.7490005493164
 10
62.1870002746582
 20
94.41100120544434
 10
61.95299911499023
 20
94.0979995727539
 10
61.6150016784668
 20
94.05000114440918
 10
61.58500289916992
 20
94.04600143432617
 10
61.55600357055664
 20
94.04400062561035
 10
61.52700042724609
 20
94.04400062561035
 10
61.22500228881836
 20
94.04400062561035
 10
60.95999908447266
 20
94.26600074768066
 10
60.91600036621094
 20
94.57400131225586
 10
60.91600036621094
 20
94.57400131225586
 10
60.22700119018555
 20
99.39800071716309
 10
60.22700119018555
 20
99.39800071716309
 10
60.22700119018555
 20
99.39800071716309
 10
57.97400283813477
 20
95.45600128173828
 10
57.97400283813477
 20
95.45600128173828
 10
57.80500411987305
 20
95.16000175476074
 10
57.42800140380859
 20
95.0570011138916
 10
57.13100433349609
 20
95.22600173950195
 10
56.83499908447266
 20
95.39599990844727
 10
56.73199844360352
 20
95.77300071716309
 10
56.9010009765625
 20
96.06900024414062
 97
        0
 97
        0
 92
        1
 93
        1
 72
     4
 94
        3
 73
     0
 74
     1
 95
       38
 96
       34
 40
0.0
 40
0.0
 40
0.0
 40
0.0
 40
1.0
 40
1.0
 40
1.0
 40
2.0
 40
2.0
 40
2.0
 40
3.0
 40
3.0
 40
3.0
 40
4.0
 40
4.0
 40
4.0
 40
5.0
 40
5.0
 40
5.0
 40
6.0
 40
6.0
 40
6.0
 40
7.0
 40
7.0
 40
7.0
 40
8.0
 40
8.0
 40
8.0
 40
9.0
 40
9.0
 40
9.0
 40
10.0
 40
10.0
 40
10.0
 40
11.0
 40
11.0
 40
11.0
 40
11.0
 10
53.52700042724609
 20
88.71500015258789
 10
53.52700042724609
 20
88.71500015258789
 10
56.04399871826172
 20
91.38899993896484
 10
56.04399871826172
 20
91.38899993896484
 10
56.19699859619141
 20
91.55199813842773
 10
56.42699813842773
 20
91.61899948120117
 10
56.64299774169922
 20
91.56499862670898
 10
56.8599967956543
 20
91.5109977722168
 10
57.03099822998047
 20
91.34399795532227
 10
57.08999633789062
 20
91.12799835205078
 10
57.08999633789062
 20
91.12799835205078
 10
58.03399658203125
 20
87.66699981689453
 10
58.03399658203125
 20
87.66699981689453
 10
58.12399673461914
 20
87.3380012512207
 10
57.92999649047852
 20
86.99800109863281
 10
57.59999847412109
 20
86.90900039672852
 10
57.54599761962891
 20
86.89400100708008
 10
57.49099731445312
 20
86.88700103759766
 10
57.4370002746582
 20
86.88700103759766
 10
57.16500091552734
 20
86.88700103759766
 10
56.91600036621094
 20
87.06800079345703
 10
56.84099960327148
 20
87.34200286865234
 10
56.84099960327148
 20
87.34200286865234
 10
56.1870002746582
 20
89.7390022277832
 10
56.1870002746582
 20
89.7390022277832
 10
56.1870002746582
 20
89.7390022277832
 10
54.42599868774414
 20
87.86800384521484
 10
54.42599868774414
 20
87.86800384521484
 10
54.19199752807617
 20
87.62000274658203
 10
53.80099868774414
 20
87.60800552368164
 10
53.55299758911133
 20
87.84200286865234
 10
53.30500030517578
 20
88.07500076293945
 10
53.29299926757812
 20
88.46599960327148
 10
53.52700042724609
 20
88.71500015258789
 97
        0
 97
        0
 92
        1
 93
        1
 72
     4
 94
        3
 73
     0
 74
     1
 95
       17
 96
       13
 40
0.0
 40
0.0
 40
0.0
 40
0.0
 40
1.0
 40
1.0
 40
1.0
 40
2.0
 40
2.0
 40
2.0
 40
3.0
 40
3.0
 40
3.0
 40
4.0
 40
4.0
 40
4.0
 40
4.0
 10
25.6095555381944
 20
84.41564243234006
 10
26.75129270986417
 20
84.41564243234006
 10
27.67989369426959
 20
83.48704144793464
 10
27.67989369426959
 20
82.34530427626487
 10
27.67989369426959
 20
81.20356710459419
 10
26.75082350329831
 20
80.27496612018967
 10
25.6095555381944
 20
80.27496612018967
 10
24.46781836652463
 20
80.27496612018967
 10
23.53874817555334
 20
81.20356710459419
 10
23.53874817555334
 20
82.34530427626487
 10
23.53874817555334
 20
83.48704144793464
 10
24.46781836652463
 20
84.41564243234006
 10
25.6095555381944
 20
84.41564243234006
 97
        0
 97
        0
 92
        1
 93
        1
 72
     4
 94
        3
 73
     0
 74
     1
 95
       26
 96
       22
 40
0.0
 40
0.0
 40
0.0
 40
0.0
 40
1.0
 40
1.0
 40
1.0
 40
2.0
 40
2.0
 40
2.0
 40
3.0
 40
3.0
 40
3.0
 40
4.0
 40
4.0
 40
4.0
 40
5.0
 40
5.0
 40
5.0
 40
6.0
 40
6.0
 40
6.0
 40
7.0
 40
7.0
 40
7.0
 40
7.0
 10
39.2869987487793
 20
47.51399993896484
 10
39.22200012207031
 20
47.28800201416016
 10
39.01599884033203
 20
47.14099884033203
 10
38.79199981689453
 20
47.14099884033203
 10
38.74499893188477
 20
47.14099884033203
 10
38.69699859619141
 20
47.14699554443359
 10
38.65000152587891
 20
47.16099548339844
 10
28.63999938964844
 20
50.02799987792969
 10
23.95299911499023
 20
59.08000183105469
 10
23.75799942016602
 20
59.46399688720703
 10
23.6299991607666
 20
59.71799468994141
 10
23.73099899291992
 20
60.02700042724609
 10
23.98399925231934
 20
60.15599822998047
 10
24.23799896240234
 20
60.28399658203125
 10
24.54699897766113
 20
60.18399810791016
 10
24.67599868774414
 20
59.93000030517578
 10
24.72199821472168
 20
59.84000396728516
 10
29.36499786376953
 20
50.89199829101562
 10
38.93299865722656
 20
48.1510009765625
 10
39.20700073242188
 20
48.072998046875
 10
39.3650016784668
 20
47.78800201416016
 10
39.2869987487793
 20
47.51399993896484
 97
        0
 97
        0
 92
        1
 93
        1
 72
     4
 94
        3
 73
     0
 74
     1
 95
       35
 96
       31
 40
0.0
 40
0.0
 40
0.0
 40
0.0
 40
1.0
 40
1.0
 40
1.0
 40
2.0
 40
2.0
 40
2.0
 40
3.0
 40
3.0
 40
3.0
 40
4.0
 40
4.0
 40
4.0
 40
5.0
 40
5.0
 40
5.0
 40
6.0
 40
6.0
 40
6.0
 40
7.0
 40
7.0
 40
7.0
 40
8.0
 40
8.0
 40
8.0
 40
9.0
 40
9.0
 40
9.0
 40
10.0
 40
10.0
 40
10.0
 40
10.0
 10
41.01499938964844
 20
94.19799995422363
 10
40.75799942016602
 20
93.9729995727539
 10
40.36899948120117
 20
93.99799919128418
 10
40.14299774169922
 20
94.25399971008301
 10
40.14299774169922
 20
94.25399971008301
 10
36.66299819946289
 20
98.2140007019043
 10
36.66299819946289
 20
98.2140007019043
 10
36.66299819946289
 20
98.2140007019043
 10
36.66299819946289
 20
92.45999908447266
 10
36.66299819946289
 20
92.45999908447266
 10
36.66299819946289
 20
92.11899948120117
 10
36.38699722290039
 20
91.84199905395508
 10
36.04499816894531
 20
91.84199905395508
 10
35.70399856567383
 20
91.84199905395508
 10
35.42699813842773
 20
92.11899948120117
 10
35.42699813842773
 20
92.45999908447266
 10
35.42699813842773
 20
92.45999908447266
 10
35.42699813842773
 20
99.85299873352051
 10
35.42699813842773
 20
99.85299873352051
 10
35.42699813842773
 20
100.1099987030029
 10
35.58599853515625
 20
100.3399982452393
 10
35.82699966430664
 20
100.4309978485107
 10
36.06800079345703
 20
100.5209980010986
 10
36.34000015258789
 20
100.4539985656738
 10
36.50899887084961
 20
100.2609977722168
 10
36.50899887084961
 20
100.2609977722168
 10
41.06999969482422
 20
95.06999778747559
 10
41.06999969482422
 20
95.06999778747559
 10
41.29600143432617
 20
94.8129997253418
 10
41.27099990844727
 20
94.42300033569336
 10
41.01499938964844
 20
94.19799995422363
 97
        0
 97
        0
 92
        1
 93
        1
 72
     4
 94
        3
 73
     0
 74
     1
 95
       35
 96
       31
 40
0.0
 40
0.0
 40
0.0
 40
0.0
 40
1.0
 40
1.0
 40
1.0
 40
2.0
 40
2.0
 40
2.0
 40
3.0
 40
3.0
 40
3.0
 40
4.0
 40
4.0
 40
4.0
 40
5.0
 40
5.0
 40
5.0
 40
6.0
 40
6.0
 40
6.0
 40
7.0
 40
7.0
 40
7.0
 40
8.0
 40
8.0
 40
8.0
 40
9.0
 40
9.0
 40
9.0
 40
10.0
 40
10.0
 40
10.0
 40
10.0
 10
42.3489990234375
 20
86.24700164794922
 10
42.3489990234375
 20
86.24700164794922
 10
42.3489990234375
 20
90.96600341796875
 10
42.3489990234375
 20
90.96600341796875
 10
42.3489990234375
 20
91.21800231933594
 10
42.50299835205078
 20
91.44500350952148
 10
42.73699951171875
 20
91.53900527954102
 10
42.97100067138672
 20
91.63300704956055
 10
43.23899841308594
 20
91.57500457763672
 10
43.41299819946289
 20
91.39200592041016
 10
43.41299819946289
 20
91.39200592041016
 10
46.71599960327148
 20
87.9310073852539
 10
46.71599960327148
 20
87.9310073852539
 10
46.95199966430664
 20
87.68400573730469
 10
46.94200134277344
 20
87.29300689697266
 10
46.69599914550781
 20
87.0580062866211
 10
46.44899749755859
 20
86.82300567626953
 10
46.05799865722656
 20
86.83100509643555
 10
45.822998046875
 20
87.07800674438477
 10
45.822998046875
 20
87.07800674438477
 10
43.58399963378906
 20
89.42300796508789
 10
43.58399963378906
 20
89.42300796508789
 10
43.58399963378906
 20
89.42300796508789
 10
43.58399963378906
 20
86.24600982666016
 10
43.58399963378906
 20
86.24600982666016
 10
43.58399963378906
 20
85.90501022338867
 10
43.30799865722656
 20
85.62800979614258
 10
42.96599960327148
 20
85.62800979614258
 10
42.62400054931641
 20
85.62800979614258
 10
42.3489990234375
 20
85.90499877929688
 10
42.3489990234375
 20
86.24700164794922
 97
        0
 97
        0
 92
        1
 93
        1
 72
     4
 94
        3
 73
     0
 74
     1
 95
       26
 96
       22
 40
0.0
 40
0.0
 40
0.0
 40
0.0
 40
1.0
 40
1.0
 40
1.0
 40
2.0
 40
2.0
 40
2.0
 40
3.0
 40
3.0
 40
3.0
 40
4.0
 40
4.0
 40
4.0
 40
5.0
 40
5.0
 40
5.0
 40
6.0
 40
6.0
 40
6.0
 40
7.0
 40
7.0
 40
7.0
 40
7.0
 10
46.6150016784668
 20
46.55799865722656
 10
46.26100158691406
 20
46.51899719238281
 10
45.92600250244141
 20
46.50399780273438
 10
45.61600112915039
 20
46.50399780273438
 10
44.38299942016602
 20
46.50399780273438
 10
43.55500030517578
 20
46.75099945068359
 10
43.51200103759766
 20
46.76399993896484
 10
43.2400016784668
 20
46.84700012207031
 10
43.08700180053711
 20
47.13400268554688
 10
43.17000198364258
 20
47.40599822998047
 10
43.25300216674805
 20
47.677001953125
 10
43.54000091552734
 20
47.83000183105469
 10
43.81100082397461
 20
47.74900054931641
 10
43.82200241088867
 20
47.74600219726562
 10
44.95899963378906
 20
47.41200256347656
 10
46.50300216674805
 20
47.58200073242188
 10
46.78800201416016
 20
47.61199951171875
 10
47.04000091552734
 20
47.40900421142578
 10
47.07100296020508
 20
47.12599945068359
 10
47.10100173950195
 20
46.84200286865234
 10
46.89699935913086
 20
46.58799743652344
 10
46.6150016784668
 20
46.55799865722656
 97
        0
 97
        0
 92
        1
 93
        1
 72
     4
 94
        3
 73
     0
 74
     1
 95
       38
 96
       34
 40
0.0
 40
0.0
 40
0.0
 40
0.0
 40
1.0
 40
1.0
 40
1.0
 40
2.0
 40
2.0
 40
2.0
 40
3.0
 40
3.0
 40
3.0
 40
4.0
 40
4.0
 40
4.0
 40
5.0
 40
5.0
 40
5.0
 40
6.0
 40
6.0
 40
6.0
 40
7.0
 40
7.0
 40
7.0
 40
8.0
 40
8.0
 40
8.0
 40
9.0
 40
9.0
 40
9.0
 40
10.0
 40
10.0
 40
10.0
 40
11.0
 40
11.0
 40
11.0
 40
11.0
 10
51.18399810791016
 20
95.96299934387207
 10
51.11899948120117
 20
95.94099998474121
 10
51.05399703979492
 20
95.93099975585938
 10
50.98899841308594
 20
95.93099975585938
 10
50.72999954223633
 20
95.93099975585938
 10
50.48899841308594
 20
96.09499931335449
 10
50.40299987792969
 20
96.35400009155273
 10
50.40299987792969
 20
96.35400009155273
 10
48.83200073242188
 20
101.0659999847412
 10
48.83200073242188
 20
101.0659999847412
 10
48.83200073242188
 20
101.0659999847412
 10
47.49300003051758
 20
96.37899971008301
 10
47.49300003051758
 20
96.37899971008301
 10
47.39899826049805
 20
96.05100059509277
 10
47.05699920654297
 20
95.86100006103516
 10
46.72900009155273
 20
95.95499992370605
 10
46.4010009765625
 20
96.04899978637695
 10
46.21099853515625
 20
96.39100074768066
 10
46.30500030517578
 20
96.7189998626709
 10
46.30500030517578
 20
96.7189998626709
 10
48.19300079345703
 20
103.3250007629395
 10
48.19300079345703
 20
103.3250007629395
 10
48.26700210571289
 20
103.5850009918213
 10
48.50300216674805
 20
103.7670001983643
 10
48.77300262451172
 20
103.7730007171631
 10
49.04700088500977
 20
103.7760009765625
 10
49.28700256347656
 20
103.6079998016357
 10
49.37200164794922
 20
103.3509998321533
 10
49.37200164794922
 20
103.3509998321533
 10
51.57400131225586
 20
96.74499893188477
 10
51.57400131225586
 20
96.74499893188477
 10
51.68199920654297
 20
96.42099952697754
 10
51.50699996948242
 20
96.07099914550781
 10
51.18399810791016
 20
95.96299934387207
 97
        0
 97
        0
 92
        1
 93
        1
 72
     4
 94
        3
 73
     0
 74
     1
 95
       68
 96
       64
 40
0.0
 40
0.0
 40
0.0
 40
0.0
 40
1.0
 40
1.0
 40
1.0
 40
2.0
 40
2.0
 40
2.0
 40
3.0
 40
3.0
 40
3.0
 40
4.0
 40
4.0
 40
4.0
 40
5.0
 40
5.0
 40
5.0
 40
6.0
 40
6.0
 40
6.0
 40
7.0
 40
7.0
 40
7.0
 40
8.0
 40
8.0
 40
8.0
 40
9.0
 40
9.0
 40
9.0
 40
10.0
 40
10.0
 40
10.0
 40
11.0
 40
11.0
 40
11.0
 40
12.0
 40
12.0
 40
12.0
 40
13.0
 40
13.0
 40
13.0
 40
14.0
 40
14.0
 40
14.0
 40
15.0
 40
15.0
 40
15.0
 40
16.0
 40
16.0
 40
16.0
 40
17.0
 40
17.0
 40
17.0
 40
18.0
 40
18.0
 40
18.0
 40
19.0
 40
19.0
 40
19.0
 40
20.0
 40
20.0
 40
20.0
 40
21.0
 40
21.0
 40
21.0
 40
21.0
 10
70.36399841308594
 20
62.88600158691406
 10
70.24199676513672
 20
62.76000213623047
 10
67.32699584960938
 20
59.78700256347656
 10
63.50099945068359
 20
59.75399780273438
 10
63.47999954223633
 20
59.75399780273438
 10
63.45800018310547
 20
59.75399780273438
 10
63.4370002746582
 20
59.75399780273438
 10
61.35200119018555
 20
59.75399780273438
 10
59.42100143432617
 20
60.62799835205078
 10
57.69599914550781
 20
62.35299682617188
 10
54.42599868774414
 20
65.62299728393555
 10
52.97699737548828
 20
65.80299758911133
 10
52.50699996948242
 20
65.72899627685547
 10
52.25099945068359
 20
65.68899536132812
 10
52.16799926757812
 20
65.54999542236328
 10
52.15399932861328
 20
65.5219955444336
 10
52.16299819946289
 20
65.53999710083008
 10
52.16600036621094
 20
65.55099487304688
 10
52.16600036621094
 20
65.55099487304688
 10
52.16600036621094
 20
65.55099487304688
 10
52.04500198364258
 20
65.59799575805664
 10
52.04500198364258
 20
65.59799575805664
 10
51.31500244140625
 20
65.87999725341797
 10
51.37500381469727
 20
66.95299530029297
 10
52.13800048828125
 20
67.12499618530273
 10
52.14799880981445
 20
67.12699508666992
 10
52.15800094604492
 20
67.12899780273438
 10
52.16799926757812
 20
67.13099670410156
 10
53.71500015258789
 20
67.4579963684082
 10
55.85799789428711
 20
66.22899627685547
 10
58.71500015258789
 20
63.37199783325195
 10
60.17399978637695
 20
61.91299819946289
 10
61.78300094604492
 20
61.18199920654297
 10
63.48799896240234
 20
61.19599914550781
 10
65.20899963378906
 20
61.21099853515625
 10
66.74800109863281
 20
61.96799850463867
 10
67.81299591064453
 20
62.67499923706055
 10
65.39099884033203
 20
62.84399795532227
 10
62.89899444580078
 20
65.4370002746582
 10
62.03499603271484
 20
67.86399841308594
 10
61.13299560546875
 20
70.39699935913086
 10
58.2339973449707
 20
70.42599868774414
 10
58.20499420166016
 20
70.42599868774414
 10
57.8069953918457
 20
70.42599868774414
 10
57.48399353027344
 20
70.7490005493164
 10
57.48399353027344
 20
71.14699935913086
 10
57.48399353027344
 20
71.54499816894531
 10
57.8069953918457
 20
71.86800003051758
 10
58.20499420166016
 20
71.86800003051758
 10
58.36599349975586
 20
71.86800003051758
 10
62.15399551391602
 20
71.82799911499023
 10
63.39299392700195
 20
68.3479995727539
 10
64.25699615478516
 20
65.9209976196289
 10
66.57099151611328
 20
64.10800170898438
 10
68.06199645996094
 20
64.10800170898438
 10
68.06199645996094
 20
64.10800170898438
 10
69.8239974975586
 20
64.10800170898438
 10
69.8239974975586
 20
64.10800170898438
 10
70.03099822998047
 20
64.10800170898438
 10
70.23699951171875
 20
64.03100204467773
 10
70.375
 20
63.87600326538086
 10
70.64299774169922
 20
63.57899856567383
 10
70.62000274658203
 20
63.1510009765625
 10
70.36399841308594
 20
62.88600158691406
 97
        0
 97
        0
 92
        1
 93
        1
 72
     4
 94
        3
 73
     0
 74
     1
 95
       38
 96
       34
 40
0.0
 40
0.0
 40
0.0
 40
0.0
 40
1.0
 40
1.0
 40
1.0
 40
2.0
 40
2.0
 40
2.0
 40
3.0
 40
3.0
 40
3.0
 40
4.0
 40
4.0
 40
4.0
 40
5.0
 40
5.0
 40
5.0
 40
6.0
 40
6.0
 40
6.0
 40
7.0
 40
7.0
 40
7.0
 40
8.0
 40
8.0
 40
8.0
 40
9.0
 40
9.0
 40
9.0
 40
10.0
 40
10.0
 40
10.0
 40
11.0
 40
11.0
 40
11.0
 40
11.0
 10
68.70800018310547
 20
87.67100143432617
 10
68.61199951171875
 20
87.4280014038086
 10
68.37899780273438
 20
87.28000259399414
 10
68.13300323486328
 20
87.28000259399414
 10
68.0570068359375
 20
87.28000259399414
 10
67.98100280761719
 20
87.29400253295898
 10
67.906005859375
 20
87.32300186157227
 10
67.58900451660156
 20
87.44800186157227
 10
67.4330062866211
 20
87.80700302124023
 10
67.55900573730469
 20
88.125
 10
67.55900573730469
 20
88.125
 10
69.49800872802734
 20
93.03000068664551
 10
69.49800872802734
 20
93.03000068664551
 10
69.49800872802734
 20
93.03000068664551
 10
65.80500793457031
 20
90.53200149536133
 10
65.80500793457031
 20
90.53200149536133
 10
65.52201080322266
 20
90.34099960327148
 10
65.13800811767578
 20
90.41500091552734
 10
64.94700622558594
 20
90.69700241088867
 10
64.7560043334961
 20
90.9800033569336
 10
64.83000946044922
 20
91.3640022277832
 10
65.11200714111328
 20
91.55500411987305
 10
65.11200714111328
 20
91.55500411987305
 10
70.46000671386719
 20
95.17300415039062
 10
70.46000671386719
 20
95.17300415039062
 10
70.68400573730469
 20
95.32500457763672
 10
70.98101043701172
 20
95.31300354003906
 10
71.19300842285156
 20
95.14300346374512
 10
71.40400695800781
 20
94.97300338745117
 10
71.48001098632812
 20
94.68600273132324
 10
71.38101196289062
 20
94.43400382995605
 10
71.38101196289062
 20
94.43400382995605
 10
68.70800018310547
 20
87.67100143432617
 10
68.70800018310547
 20
87.67100143432617
 97
        0
 97
        0
 92
        1
 93
        1
 72
     4
 94
        3
 73
     0
 74
     1
 95
       38
 96
       34
 40
0.0
 40
0.0
 40
0.0
 40
0.0
 40
1.0
 40
1.0
 40
1.0
 40
2.0
 40
2.0
 40
2.0
 40
3.0
 40
3.0
 40
3.0
 40
4.0
 40
4.0
 40
4.0
 40
5.0
 40
5.0
 40
5.0
 40
6.0
 40
6.0
 40
6.0
 40
7.0
 40
7.0
 40
7.0
 40
8.0
 40
8.0
 40
8.0
 40
9.0
 40
9.0
 40
9.0
 40
10.0
 40
10.0
 40
10.0
 40
11.0
 40
11.0
 40
11.0
 40
11.0
 10
78.97000122070312
 20
83.78400039672852
 10
78.97000122070312
 20
83.78400039672852
 10
73.77899932861328
 20
78.12100219726562
 10
73.77899932861328
 20
78.12100219726562
 10
73.65699768066406
 20
77.98800277709961
 10
73.48999786376953
 20
77.92100143432617
 10
73.322998046875
 20
77.92100143432617
 10
73.17399597167969
 20
77.92100143432617
 10
73.02399444580078
 20
77.97500228881836
 10
72.90599822998047
 20
78.08300018310547
 10
72.65499877929688
 20
78.31399917602539
 10
72.63800048828125
 20
78.70399856567383
 10
72.86799621582031
 20
78.95600128173828
 10
72.86799621582031
 20
78.95600128173828
 10
76.89199829101562
 20
83.34500122070312
 10
76.89199829101562
 20
83.34500122070312
 10
76.89199829101562
 20
83.34500122070312
 10
71.9949951171875
 20
82.64599990844727
 10
71.9949951171875
 20
82.64599990844727
 10
71.65799713134766
 20
82.5989990234375
 10
71.3449935913086
 20
82.83200073242188
 10
71.2959976196289
 20
83.16999816894531
 10
71.24800109863281
 20
83.50799942016602
 10
71.48199462890625
 20
83.82099914550781
 10
71.81999969482422
 20
83.86899948120117
 10
71.81999969482422
 20
83.86899948120117
 10
78.4260025024414
 20
84.8129997253418
 10
78.4260025024414
 20
84.8129997253418
 10
78.68400573730469
 20
84.8499984741211
 10
78.93800354003906
 20
84.72000122070312
 10
79.06000518798828
 20
84.48999786376953
 10
79.18299865722656
 20
84.25899887084961
 10
79.14600372314453
 20
83.97700119018555
 10
78.97000122070312
 20
83.78400039672852
 97
        0
 97
        0
 75
     2
 76
     1
 98
        0
  0
ENDSEC
  0
SECTION
  2
OBJECTS
  0
DICTIONARY
  5
C
330
0
100
AcDbDictionary
281
     1
  3
ACAD_GROUP
350
D
  3
ACAD_LAYOUT
350
1A
  3
ACAD_MATERIAL
350
3B
  3
ACAD_MLEADERSTYLE
350
4F
  3
ACAD_MLINESTYLE
350
17
  3
ACAD_PLOTSETTINGS
350
19
  3
ACAD_PLOTSTYLENAME
350
E
  3
ACAD_TABLESTYLE
350
4E
  3
ACAD_VISUALSTYLE
350
2A
  0
SUN
  5
3F
330
29
100
AcDbSun
 90
        1
290
     0
 63
     7
421
 16777215
 40
1.0
291
     1
 91
  2455826
 92
 54000000
292
     0
 70
     2
 71
   256
280
     1
  0
DICTIONARY
  5
D
102
{ACAD_REACTORS
330
C
102
}
330
C
100
AcDbDictionary
281
     1
  0
DICTIONARY
  5
1A
102
{ACAD_REACTORS
330
C
102
}
330
C
100
AcDbDictionary
281
     1
  3
Layout1
350
1E
  3
Layout2
350
26
  3
Model
350
22
  0
DICTIONARY
  5
3B
102
{ACAD_REACTORS
330
C
102
}
330
C
100
AcDbDictionary
281
     1
  3
ByBlock
350
3D
  3
ByLayer
350
3C
  3
Global
350
3E
  0
DICTIONARY
  5
4F
102
{ACAD_REACTORS
330
C
102
}
330
C
100
AcDbDictionary
281
     1
  0
DICTIONARY
  5
17
102
{ACAD_REACTORS
330
C
102
}
330
C
100
AcDbDictionary
281
     1
  3
Standard
350
18
  0
DICTIONARY
  5
19
102
{ACAD_REACTORS
330
C
102
}
330
C
100
AcDbDictionary
281
     1
  0
ACDBDICTIONARYWDFLT
  5
E
102
{ACAD_REACTORS
330
C
102
}
330
C
100
AcDbDictionary
281
     1
  3
Normal
350
F
100
AcDbDictionaryWithDefault
340
F
  0
DICTIONARY
  5
4E
102
{ACAD_REACTORS
330
C
102
}
330
C
100
AcDbDictionary
281
     1
  0
DICTIONARY
  5
2A
102
{ACAD_REACTORS
330
C
102
}
330
C
100
AcDbDictionary
281
     1
  3
2dWireframe
350
2F
  3
3D Hidden
350
31
  3
3dWireframe
350
30
  3
Basic
350
32
  3
Brighten
350
36
  3
ColorChange
350
3A
  3
Conceptual
350
34
  3
Dim
350
35
  3
Facepattern
350
39
  3
Flat
350
2B
  3
FlatWithEdges
350
2C
  3
Gouraud
350
2D
  3
GouraudWithEdges
350
2E
  3
Linepattern
350
38
  3
Realistic
350
33
  3
Thicken
350
37
  0
LAYOUT
  5
1E
102
{ACAD_REACTORS
330
1A
102
}
330
1A
100
AcDbPlotSettings
  1

  2
none_device
  4

  6

 40
0.0
 41
0.0
 42
0.0
 43
0.0
 44
0.0
 45
0.0
 46
0.0
 47
0.0
 48
0.0
 49
0.0
140
0.0
141
0.0
142
1.0
143
1.0
 70
   688
 72
     0
 73
     0
 74
     5
  7

 75
    16
 76
     0
 77
     2
 78
   300
147
1.0
148
0.0
149
0.0
100
AcDbLayout
  1
Layout1
 70
     1
 71
     1
 10
0.0
 20
0.0
 11
12.0
 21
9.0
 12
0.0
 22
0.0
 32
0.0
 14
1.000000000000000E+20
 24
1.000000000000000E+20
 34
1.000000000000000E+20
 15
-1.000000000000000E+20
 25
-1.000000000000000E+20
 35
-1.000000000000000E+20
146
0.0
 13
0.0
 23
0.0
 33
0.0
 16
1.0
 26
0.0
 36
0.0
 17
0.0
 27
1.0
 37
0.0
 76
     0
330
1B
  0
LAYOUT
  5
26
102
{ACAD_REACTORS
330
1A
102
}
330
1A
100
AcDbPlotSettings
  1

  2
none_device
  4

  6

 40
0.0
 41
0.0
 42
0.0
 43
0.0
 44
0.0
 45
0.0
 46
0.0
 47
0.0
 48
0.0
 49
0.0
140
0.0
141
0.0
142
1.0
143
1.0
 70
   688
 72
     0
 73
     0
 74
     5
  7

 75
    16
 76
     0
 77
     2
 78
   300
147
1.0
148
0.0
149
0.0
100
AcDbLayout
  1
Layout2
 70
     1
 71
     2
 10
0.0
 20
0.0
 11
0.0
 21
0.0
 12
0.0
 22
0.0
 32
0.0
 14
0.0
 24
0.0
 34
0.0
 15
0.0
 25
0.0
 35
0.0
146
0.0
 13
0.0
 23
0.0
 33
0.0
 16
1.0
 26
0.0
 36
0.0
 17
0.0
 27
1.0
 37
0.0
 76
     0
330
23
  0
LAYOUT
  5
22
102
{ACAD_REACTORS
330
1A
102
}
330
1A
100
AcDbPlotSettings
  1

  2
none_device
  4

  6

 40
0.0
 41
0.0
 42
0.0
 43
0.0
 44
0.0
 45
0.0
 46
0.0
 47
0.0
 48
0.0
 49
0.0
140
0.0
141
0.0
142
1.0
143
1.0
 70
  1712
 72
     0
 73
     0
 74
     0
  7

 75
     0
 76
     0
 77
     2
 78
   300
147
1.0
148
0.0
149
0.0
100
AcDbLayout
  1
Model
 70
     1
 71
     0
 10
0.0
 20
0.0
 11
12.0
 21
9.0
 12
0.0
 22
0.0
 32
0.0
 14
1.000000000000000E+20
 24
1.000000000000000E+20
 34
1.000000000000000E+20
 15
-1.000000000000000E+20
 25
-1.000000000000000E+20
 35
-1.000000000000000E+20
146
0.0
 13
0.0
 23
0.0
 33
0.0
 16
1.0
 26
0.0
 36
0.0
 17
0.0
 27
1.0
 37
0.0
 76
     0
330
1F
331
29
  0
MATERIAL
  5
3D
102
{ACAD_REACTORS
330
3B
102
}
330
3B
100
AcDbMaterial
  1
ByBlock
 72
     1
 94
      127
  0
MATERIAL
  5
3C
102
{ACAD_REACTORS
330
3B
102
}
330
3B
100
AcDbMaterial
  1
ByLayer
 72
     1
 94
      127
  0
MATERIAL
  5
3E
102
{ACAD_REACTORS
330
3B
102
}
330
3B
100
AcDbMaterial
  1
Global
 72
     1
 94
      127
  0
MLINESTYLE
  5
18
102
{ACAD_REACTORS
330
17
102
}
330
17
100
AcDbMlineStyle
  2
Standard
 70
     0
  3

 62
   256
 51
90.0
 52
90.0
 71
     2
 49
0.5
 62
   256
  6
BYLAYER
 49
-0.5
 62
   256
  6
BYLAYER
  0
ACDBPLACEHOLDER
  5
F
102
{ACAD_REACTORS
330
E
102
}
330
E
  0
VISUALSTYLE
  5
2F
102
{ACAD_REACTORS
330
2A
102
}
330
2A
100
AcDbVisualStyle
  2
2dWireframe
 70
     4
177
     2
291
     0
 71
     0
176
     1
 72
     2
176
     1
 73
     0
176
     1
 90
        0
176
     1
 40
-0.6
176
     1
 41
-30.0
176
     1
 62
     5
 63
     7
421
 16777215
176
     1
 74
     1
176
     1
 91
        4
176
     1
 64
     7
176
     1
 65
   257
176
     1
 75
     1
176
     1
175
     1
176
     1
 42
1.0
176
     1
 92
        0
176
     1
 66
   257
176
     1
 43
1.0
176
     1
 76
     1
176
     1
 77
     6
176
     1
 78
     2
176
     1
 67
     7
176
     1
 79
     5
176
     1
170
     0
176
     1
171
     0
176
     1
290
     0
176
     1
 93
        1
176
     1
 44
0.0
176
     1
173
     0
176
     1
  0
VISUALSTYLE
  5
31
102
{ACAD_REACTORS
330
2A
102
}
330
2A
100
AcDbVisualStyle
  2
3D Hidden
 70
     6
177
     2
291
     0
 71
     1
176
     1
 72
     2
176
     1
 73
     2
176
     1
 90
        0
176
     1
 40
-0.6
176
     1
 41
-30.0
176
     1
 62
     5
 63
     7
421
 16777215
176
     1
 74
     2
176
     1
 91
        2
176
     1
 64
     7
176
     1
 65
   257
176
     1
 75
     2
176
     1
175
     1
176
     1
 42
40.0
176
     1
 92
        0
176
     1
 66
   257
176
     1
 43
1.0
176
     1
 76
     1
176
     1
 77
     6
176
     1
 78
     2
176
     1
 67
     7
176
     1
 79
     3
176
     1
170
     0
176
     1
171
     0
176
     1
290
     0
176
     1
 93
        1
176
     1
 44
0.0
176
     1
173
     0
176
     1
  0
VISUALSTYLE
  5
30
102
{ACAD_REACTORS
330
2A
102
}
330
2A
100
AcDbVisualStyle
  2
3dWireframe
 70
     5
177
     2
291
     0
 71
     0
176
     1
 72
     2
176
     1
 73
     0
176
     1
 90
        0
176
     1
 40
-0.6
176
     1
 41
-30.0
176
     1
 62
     5
 63
     7
421
 16777215
176
     1
 74
     1
176
     1
 91
        4
176
     1
 64
     7
176
     1
 65
   257
176
     1
 75
     1
176
     1
175
     1
176
     1
 42
1.0
176
     1
 92
        0
176
     1
 66
   257
176
     1
 43
1.0
176
     1
 76
     1
176
     1
 77
     6
176
     1
 78
     2
176
     1
 67
     7
176
     1
 79
     5
176
     1
170
     0
176
     1
171
     0
176
     1
290
     0
176
     1
 93
        1
176
     1
 44
0.0
176
     1
173
     0
176
     1
  0
VISUALSTYLE
  5
32
102
{ACAD_REACTORS
330
2A
102
}
330
2A
100
AcDbVisualStyle
  2
Basic
 70
     7
177
     2
291
     1
 71
     1
176
     1
 72
     0
176
     1
 73
     1
176
     1
 90
        0
176
     1
 40
-0.6
176
     1
 41
-30.0
176
     1
 62
     5
 63
     7
421
 16777215
176
     1
 74
     0
176
     1
 91
        4
176
     1
 64
     7
176
     1
 65
   257
176
     1
 75
     1
176
     1
175
     1
176
     1
 42
1.0
176
     1
 92
        8
176
     1
 66
     7
176
     1
 43
1.0
176
     1
 76
     1
176
     1
 77
     6
176
     1
 78
     2
176
     1
 67
     7
176
     1
 79
     5
176
     1
170
     0
176
     1
171
     0
176
     1
290
     0
176
     1
 93
        1
176
     1
 44
0.0
176
     1
173
     0
176
     1
  0
VISUALSTYLE
  5
36
102
{ACAD_REACTORS
330
2A
102
}
330
2A
100
AcDbVisualStyle
  2
Brighten
 70
    12
177
     2
291
     1
 71
     2
176
     1
 72
     2
176
     1
 73
     0
176
     1
 90
        0
176
     1
 40
-0.6
176
     1
 41
-30.0
176
     1
 62
     5
 63
     7
421
 16777215
176
     1
 74
     1
176
     1
 91
        4
176
     1
 64
     7
176
     1
 65
   257
176
     1
 75
     1
176
     1
175
     1
176
     1
 42
1.0
176
     1
 92
        8
176
     1
 66
     7
176
     1
 43
1.0
176
     1
 76
     1
176
     1
 77
     6
176
     1
 78
     2
176
     1
 67
     7
176
     1
 79
     5
176
     1
170
     0
176
     1
171
     0
176
     1
290
     0
176
     1
 93
        1
176
     1
 44
50.0
176
     1
173
     0
176
     1
  0
VISUALSTYLE
  5
3A
102
{ACAD_REACTORS
330
2A
102
}
330
2A
100
AcDbVisualStyle
  2
ColorChange
 70
    16
177
     2
291
     1
 71
     2
176
     1
 72
     2
176
     1
 73
     3
176
     1
 90
        0
176
     1
 40
-0.6
176
     1
 41
-30.0
176
     1
 62
     5
 63
     8
421
  8421504
176
     1
 74
     1
176
     1
 91
        4
176
     1
 64
     7
176
     1
 65
   257
176
     1
 75
     1
176
     1
175
     1
176
     1
 42
1.0
176
     1
 92
        8
176
     1
 66
     8
424
  8421504
176
     1
 43
1.0
176
     1
 76
     1
176
     1
 77
     6
176
     1
 78
     2
176
     1
 67
     7
176
     1
 79
     5
176
     1
170
     0
176
     1
171
     0
176
     1
290
     0
176
     1
 93
        1
176
     1
 44
0.0
176
     1
173
     0
176
     1
  0
VISUALSTYLE
  5
34
102
{ACAD_REACTORS
330
2A
102
}
330
2A
100
AcDbVisualStyle
  2
Conceptual
 70
     9
177
     2
291
     0
 71
     3
176
     1
 72
     2
176
     1
 73
     0
176
     1
 90
        0
176
     1
 40
-0.6
176
     1
 41
-30.0
176
     1
 62
     5
 63
     7
421
 16777215
176
     1
 74
     2
176
     1
 91
        2
176
     1
 64
     7
176
     1
 65
   257
176
     1
 75
     1
176
     1
175
     1
176
     1
 42
40.0
176
     1
 92
        8
176
     1
 66
     7
176
     1
 43
1.0
176
     1
 76
     1
176
     1
 77
     6
176
     1
 78
     2
176
     1
 67
     7
176
     1
 79
     3
176
     1
170
     0
176
     1
171
     0
176
     1
290
     0
176
     1
 93
        1
176
     1
 44
0.0
176
     1
173
     0
176
     1
  0
VISUALSTYLE
  5
35
102
{ACAD_REACTORS
330
2A
102
}
330
2A
100
AcDbVisualStyle
  2
Dim
 70
    11
177
     2
291
     1
 71
     2
176
     1
 72
     2
176
     1
 73
     0
176
     1
 90
        0
176
     1
 40
-0.6
176
     1
 41
-30.0
176
     1
 62
     5
 63
     7
421
 16777215
176
     1
 74
     1
176
     1
 91
        4
176
     1
 64
     7
176
     1
 65
   257
176
     1
 75
     1
176
     1
175
     1
176
     1
 42
1.0
176
     1
 92
        8
176
     1
 66
     7
176
     1
 43
1.0
176
     1
 76
     1
176
     1
 77
     6
176
     1
 78
     2
176
     1
 67
     7
176
     1
 79
     5
176
     1
170
     0
176
     1
171
     0
176
     1
290
     0
176
     1
 93
        1
176
     1
 44
-50.0
176
     1
173
     0
176
     1
  0
VISUALSTYLE
  5
39
102
{ACAD_REACTORS
330
2A
102
}
330
2A
100
AcDbVisualStyle
  2
Facepattern
 70
    15
177
     2
291
     1
 71
     2
176
     1
 72
     2
176
     1
 73
     0
176
     1
 90
        0
176
     1
 40
-0.6
176
     1
 41
-30.0
176
     1
 62
     5
 63
     7
421
 16777215
176
     1
 74
     1
176
     1
 91
        4
176
     1
 64
     7
176
     1
 65
   257
176
     1
 75
     1
176
     1
175
     1
176
     1
 42
1.0
176
     1
 92
        8
176
     1
 66
     7
176
     1
 43
1.0
176
     1
 76
     1
176
     1
 77
     6
176
     1
 78
     2
176
     1
 67
     7
176
     1
 79
     5
176
     1
170
     0
176
     1
171
     0
176
     1
290
     0
176
     1
 93
        1
176
     1
 44
0.0
176
     1
173
     0
176
     1
  0
VISUALSTYLE
  5
2B
102
{ACAD_REACTORS
330
2A
102
}
330
2A
100
AcDbVisualStyle
  2
Flat
 70
     0
177
     2
291
     1
 71
     2
176
     1
 72
     1
176
     1
 73
     1
176
     1
 90
        2
176
     1
 40
-0.6
176
     1
 41
30.0
176
     1
 62
     5
 63
     7
421
 16777215
176
     1
 74
     0
176
     1
 91
        4
176
     1
 64
     7
176
     1
 65
   257
176
     1
 75
     1
176
     1
175
     1
176
     1
 42
1.0
176
     1
 92
        8
176
     1
 66
     7
176
     1
 43
1.0
176
     1
 76
     1
176
     1
 77
     6
176
     1
 78
     2
176
     1
 67
     7
176
     1
 79
     5
176
     1
170
     0
176
     1
171
     0
176
     1
290
     0
176
     1
 93
       13
176
     1
 44
0.0
176
     1
173
     0
176
     1
  0
VISUALSTYLE
  5
2C
102
{ACAD_REACTORS
330
2A
102
}
330
2A
100
AcDbVisualStyle
  2
FlatWithEdges
 70
     1
177
     2
291
     1
 71
     2
176
     1
 72
     1
176
     1
 73
     1
176
     1
 90
        2
176
     1
 40
-0.6
176
     1
 41
30.0
176
     1
 62
     5
 63
     7
421
 16777215
176
     1
 74
     1
176
     1
 91
        4
176
     1
 64
     7
176
     1
 65
   257
176
     1
 75
     1
176
     1
175
     1
176
     1
 42
1.0
176
     1
 92
        0
176
     1
 66
   257
176
     1
 43
1.0
176
     1
 76
     1
176
     1
 77
     6
176
     1
 78
     2
176
     1
 67
     7
176
     1
 79
     5
176
     1
170
     0
176
     1
171
     0
176
     1
290
     0
176
     1
 93
       13
176
     1
 44
0.0
176
     1
173
     0
176
     1
  0
VISUALSTYLE
  5
2D
102
{ACAD_REACTORS
330
2A
102
}
330
2A
100
AcDbVisualStyle
  2
Gouraud
 70
     2
177
     2
291
     1
 71
     2
176
     1
 72
     2
176
     1
 73
     1
176
     1
 90
        2
176
     1
 40
-0.6
176
     1
 41
30.0
176
     1
 62
     5
 63
     7
421
 16777215
176
     1
 74
     0
176
     1
 91
        4
176
     1
 64
     7
176
     1
 65
   257
176
     1
 75
     1
176
     1
175
     1
176
     1
 42
1.0
176
     1
 92
        0
176
     1
 66
     7
176
     1
 43
1.0
176
     1
 76
     1
176
     1
 77
     6
176
     1
 78
     2
176
     1
 67
     7
176
     1
 79
     5
176
     1
170
     0
176
     1
171
     0
176
     1
290
     0
176
     1
 93
       13
176
     1
 44
0.0
176
     1
173
     0
176
     1
  0
VISUALSTYLE
  5
2E
102
{ACAD_REACTORS
330
2A
102
}
330
2A
100
AcDbVisualStyle
  2
GouraudWithEdges
 70
     3
177
     2
291
     1
 71
     2
176
     1
 72
     2
176
     1
 73
     1
176
     1
 90
        2
176
     1
 40
-0.6
176
     1
 41
30.0
176
     1
 62
     5
 63
     7
421
 16777215
176
     1
 74
     1
176
     1
 91
        4
176
     1
 64
     7
176
     1
 65
   257
176
     1
 75
     1
176
     1
175
     1
176
     1
 42
1.0
176
     1
 92
        0
176
     1
 66
   257
176
     1
 43
1.0
176
     1
 76
     1
176
     1
 77
     6
176
     1
 78
     2
176
     1
 67
     7
176
     1
 79
     5
176
     1
170
     0
176
     1
171
     0
176
     1
290
     0
176
     1
 93
       13
176
     1
 44
0.0
176
     1
173
     0
176
     1
  0
VISUALSTYLE
  5
38
102
{ACAD_REACTORS
330
2A
102
}
330
2A
100
AcDbVisualStyle
  2
Linepattern
 70
    14
177
     2
291
     1
 71
     2
176
     1
 72
     2
176
     1
 73
     0
176
     1
 90
        0
176
     1
 40
-0.6
176
     1
 41
-30.0
176
     1
 62
     5
 63
     7
421
 16777215
176
     1
 74
     1
176
     1
 91
        4
176
     1
 64
     7
176
     1
 65
   257
176
     1
 75
     7
176
     1
175
     7
176
     1
 42
1.0
176
     1
 92
        8
176
     1
 66
     7
176
     1
 43
1.0
176
     1
 76
     1
176
     1
 77
     6
176
     1
 78
     2
176
     1
 67
     7
176
     1
 79
     5
176
     1
170
     0
176
     1
171
     0
176
     1
290
     0
176
     1
 93
        1
176
     1
 44
0.0
176
     1
173
     0
176
     1
  0
VISUALSTYLE
  5
33
102
{ACAD_REACTORS
330
2A
102
}
330
2A
100
AcDbVisualStyle
  2
Realistic
 70
     8
177
     2
291
     0
 71
     2
176
     1
 72
     2
176
     1
 73
     0
176
     1
 90
        0
176
     1
 40
-0.6
176
     1
 41
-30.0
176
     1
 62
     5
 63
     7
421
 16777215
176
     1
 74
     1
176
     1
 91
        0
176
     1
 64
     7
176
     1
 65
   257
176
     1
 75
     1
176
     1
175
     1
176
     1
 42
1.0
176
     1
 92
        8
176
     1
 66
     8
424
  7895160
176
     1
 43
1.0
176
     1
 76
     1
176
     1
 77
     6
176
     1
 78
     2
176
     1
 67
     7
176
     1
 79
     5
176
     1
170
     0
176
     1
171
     0
176
     1
290
     0
176
     1
 93
       13
176
     1
 44
0.0
176
     1
173
     0
176
     1
  0
VISUALSTYLE
  5
37
102
{ACAD_REACTORS
330
2A
102
}
330
2A
100
AcDbVisualStyle
  2
Thicken
 70
    13
177
     2
291
     1
 71
     2
176
     1
 72
     2
176
     1
 73
     0
176
     1
 90
        0
176
     1
 40
-0.6
176
     1
 41
-30.0
176
     1
 62
     5
 63
     7
421
 16777215
176
     1
 74
     1
176
     1
 91
        4
176
     1
 64
     7
176
     1
 65
   257
176
     1
 75
     1
176
     1
175
     1
176
     1
 42
1.0
176
     1
 92
       12
176
     1
 66
     7
176
     1
 43
1.0
176
     1
 76
     1
176
     1
 77
     6
176
     1
 78
     2
176
     1
 67
     7
176
     1
 79
     5
176
     1
170
     0
176
     1
171
     0
176
     1
290
     0
176
     1
 93
        1
176
     1
 44
0.0
176
     1
173
     0
176
     1
  0
ENDSEC
  0
EOF
