<?xml version="1.0" encoding="utf-8"?>
<!-- Generator: Adobe Illustrator 19.2.1, SVG Export Plug-In . SVG Version: 6.00 Build 0)  -->
<svg version="1.1" id="Layer_1" xmlns="http://www.w3.org/2000/svg" xmlns:xlink="http://www.w3.org/1999/xlink" x="0px" y="0px"
	 viewBox="0 0 100 125" style="enable-background:new 0 0 100 125;" xml:space="preserve">
<path d="M93.9,48.5L85.1,54c0,0,0.1-4-0.4-9.2l0,0l3.7-3.4l-4.3-0.7l0,0c-0.3-1.6-0.7-3.3-1.2-5l0,0l6.7-7.8l-8.5,2.8l0,0
	c-1.1-2.4-2.5-4.8-4.2-7l0,0l4.1-7.9L74.1,21l0,0c-2.2-2-4.9-3.7-8.1-4.9l0,0V8.6L62,14.8l0.1,0c-1.7-0.4-3.5-0.7-5.5-0.8l0.1,0
	l-1.1-6.3l-1.9,6.2c-1.8,0-3.6,0-5.2,0.2l0,0l-2.6-2.7l-2.6,3.3l-3.8-5.2v6.1l0,0c-1.9,0.5-3.6,1.1-5.1,1.8l0,0l-5.1-6.8l1.2,8.9
	l0,0c-2.9,1.8-5.2,4-6.9,6.2l0,0l-7.2-3.2l4.6,7.4l0,0c-2.1,4.1-3.3,8.8-3.5,10.3c1.9-0.6,4.1,0.6,4,2.4c-0.1,1.7-1.1,2.9-3,2.9
	c-1.1,0-2.5-1.2-2.4-2.6c-0.7,0.9-2.2,3.4-3.1,4.3c-0.6,0.7-1.1,1.5-1.4,2.2h6.5c0.3,0,0.6,0.3,0.6,0.6s-0.3,0.6-0.6,0.6h-6.8
	c-0.4,1.9,0.1,3.5,0.1,3.5s0.6,2,2,5.1c-0.1,0-0.1,0.1-0.3,0.1c-0.6,0.4-2,1.3-2.6,2.5c-0.8,1.6-3.6,2.3-5.3,1.3
	c-1.7-1,5.3,6.9,10.7,0.9c1.4,2.3,3.1,4.9,5.3,7.3l0,0l-1.7,6.8l6.1-2.4l0,0c1.8,1.5,3.8,2.9,6,4.2l0,0l-0.4,8.9l5.8-6.5l1.6,6.5
	l2.3-5.4l0,0c0.6,0.1,1.3,0.3,2,0.4l0,0l1.5,9l3.3-8.6l-0.4,0c0.5,0,1.1,0,1.6,0c1.8,0,3.5-0.1,5.1-0.3l0,0l3.4,8.8l1-9.6l0,0
	c3-0.7,5.7-1.6,8.1-2.8l0,0l4.4,7c0,0,0.9-10.1,1-10.2l0,0c2.1-1.5,3.9-3.2,5.4-4.9l0,0l6.1,5.4l-2.8-9.7c3-4.6,4.1-8.3,4.1-8.3
	l6.2,7.9c0.4,0.5,1.3,0.2,1.3-0.4c0-2.8,0.2-7.8,1.3-12.2c0.5-2.2,1.1-3.9,1.6-5.1C95.2,48.8,94.5,48.2,93.9,48.5z M56.9,28.9
	l3.1-5.5c0.1-0.2,0.4-0.4,0.7-0.3c0.3,0,0.5,0.3,0.5,0.5l0.9,6.6c0,0.3-0.2,0.7-0.5,0.7c0,0-0.1,0-0.1,0c-0.3,0-0.6-0.2-0.6-0.5
	l-0.7-4.8L58,29.5c-0.2,0.3-0.5,0.4-0.8,0.2C56.8,29.6,56.7,29.2,56.9,28.9z M53.5,36.3l2.5-2.7c0.2-0.2,0.4-0.2,0.6-0.2
	c0.2,0.1,0.4,0.2,0.4,0.4l0.9,3.5c0.1,0.3-0.1,0.7-0.4,0.8c-0.1,0-0.1,0-0.2,0c-0.3,0-0.5-0.2-0.6-0.5l-0.7-2.4l-1.8,1.9
	c-0.2,0.2-0.6,0.3-0.9,0C53.3,36.9,53.3,36.5,53.5,36.3z M25.6,40.6c1.1,0,2.1,0.9,2.1,2.1c0,1.1-0.9,2.1-2.1,2.1
	c-1.1,0-2.1-0.9-2.1-2.1C23.5,41.5,24.5,40.6,25.6,40.6z M39.3,77.5c-0.1,0.2-0.3,0.4-0.5,0.4c0,0-0.1,0-0.1,0
	C28.6,75,24,65.9,23.8,65.5c-0.1-0.3,0-0.6,0.2-0.7c0.3-0.1,0.6,0,0.7,0.2c0,0.1,4.7,9,14.3,11.8C39.2,76.9,39.4,77.2,39.3,77.5z
	 M41,30.8c-0.3,0.2-0.6,0.2-0.9-0.1l-3.5-4v5.8c0,0.3-0.3,0.6-0.6,0.6c-0.3,0-0.6-0.3-0.6-0.6v-7.4c0-0.3,0.2-0.5,0.4-0.6
	c0.2-0.1,0.5,0,0.7,0.2l4.6,5.2C41.3,30.2,41.3,30.6,41,30.8z M42.3,38.8V34c0-0.3,0.2-0.5,0.4-0.6s0.5,0,0.7,0.1l3.3,3.5
	c0.2,0.2,0.2,0.6,0,0.9c-0.2,0.2-0.6,0.2-0.9,0l-2.2-2.3v3.2c0,0.3-0.3,0.6-0.6,0.6S42.3,39.1,42.3,38.8z M46.6,78.4
	c-0.4,0-0.7,0.1-1,0.1c-1.2,0-2.1-0.2-2.1-0.3c-0.3-0.1-0.4-0.4-0.3-0.6c0.1-0.3,0.4-0.4,0.6-0.3c0,0,1.1,0.3,2.7,0.2
	c0.3,0,0.5,0.2,0.6,0.5C47.1,78.2,46.9,78.4,46.6,78.4z M51.2,29c-0.1,0-0.1,0-0.2,0c-0.3,0-0.5-0.2-0.6-0.4l-1.6-4.7l-1.3,4.7
	c-0.1,0.3-0.4,0.5-0.8,0.4s-0.5-0.4-0.4-0.8l1.9-6.6c0.1-0.3,0.3-0.4,0.6-0.4c0.3,0,0.5,0.2,0.6,0.4l2.2,6.6
	C51.7,28.6,51.5,28.9,51.2,29z M70.4,62.1c-0.1,0.1-3,3.1-6.9,3.1c0,0,0,0-0.1,0c-2.1,0-4-0.9-5.7-2.6c-3.3-3.3-4.7-3.5-5.2-3.4
	c-0.3,0-0.3,0.2-0.4,0.2c0,0,0,0,0,0l-0.1,0c-0.7-0.3-0.7-1.4,0.1-1.5c0,0,0,0,0,0c1.5-0.3,3.7,0.9,6.5,3.8c1.5,1.5,3.1,2.2,4.8,2.2
	c1.7,0,3.3-0.8,4.3-1.5c-2.4-0.2-4.9-2.8-5.8-5.2c-0.9-2.5-3.8-2.6-3.8-2.6c-0.4,0-0.7-0.3-0.7-0.7s0.3-0.7,0.7-0.7
	c0.2,0,3.9,0,5.2,3.5c0.9,2.4,3.2,4.2,4.7,4.2h1.8c0.2,0,0.4,0.1,0.6,0.2C70.6,61.4,70.6,61.8,70.4,62.1z M68.7,37.3
	c-0.1,0.2-0.3,0.4-0.6,0.4c-0.1,0-0.2,0-0.2,0c-0.3-0.1-0.5-0.5-0.3-0.8l1.9-4.9l-3.7,2.5c-0.3,0.2-0.7,0.1-0.9-0.2
	c-0.2-0.3-0.1-0.7,0.2-0.9l5.3-3.6c0.2-0.2,0.5-0.1,0.7,0c0.2,0.2,0.3,0.5,0.2,0.7L68.7,37.3z M79,41.2l-5.2,5.7
	c-0.1,0.1-0.3,0.2-0.5,0.2c-0.1,0-0.3-0.1-0.4-0.2c-0.3-0.2-0.3-0.6,0-0.9l4-4.4L72,42.4c-0.3,0-0.7-0.2-0.7-0.5
	c0-0.3,0.2-0.7,0.5-0.7l6.6-0.9c0.3,0,0.5,0.1,0.6,0.3C79.2,40.7,79.1,41,79,41.2z"/>
</svg>
