<?xml version="1.0" encoding="utf-8"?>
<!-- Generator: Adobe Illustrator 19.2.1, SVG Export Plug-In . SVG Version: 6.00 Build 0)  -->
<svg version="1.1" id="Layer_1" xmlns="http://www.w3.org/2000/svg" xmlns:xlink="http://www.w3.org/1999/xlink" x="0px" y="0px"
	 viewBox="0 0 100 125" style="enable-background:new 0 0 100 125;" xml:space="preserve">
<g>
	<path d="M72.4,26.1c-1.3-1.1-3.7-0.4-4.8-0.8c-8.2-2.8-3.5-3.9-9.8-8.7c-1.7-1.3-4.4-6.2-4.8-7.7l-1.9,0.4C45.5,9.5,43,5.1,43,5.1
		C41.6,5.5,41.4,7,41.4,7c-0.9-0.8-1.7,0.7-1.7,0.7c2.1,3.7-1.8,3.6-1.8,3.6c0.5,2.6-2.3,3.4-2.3,3.4c0.9,3.1-2.2,4.2-2.2,4.2
		c1.6,2.9-0.6,4.1-0.6,4.1c1.9,2.5,0.1,4.8,0.1,4.8c2.3,2.1,1,5.4,1,5.4c3.1,1.6,2,4.8,2,4.8c3.4,1.4,1.5,4.6,1.5,4.6
		c3,1.4,1.5,4.5,1.5,4.5c3.7,0.2,1.7,4.2,3.6,4.9c-1.2,0.7-2.3,0.6-3,0.9c-3.6,1.6-1.4,2.8,0.2,8c0.5,1.7-0.2,3.9,3.9,3.9
		c0,0.1,0,0.3-0.1,0.4c-0.8,5-6.8,10.7-6.5,17.2c0.2,4.1,3.6,13.5,13.2,9.9c8.1-3.1,6.9-10.9,3.7-13c-2.6-1.8-6.1-0.9-7.2,0.7
		c-3.1,4.7,1.6,6.7,3.6,6.3c2.3-0.5,3.5-2.9,2.6-4.1c-1.3-1.6-2.7-1.4-3.4-0.8c-0.9,0.8,0.2,2.1,0.2,2.1c-1.5,0.4-1.8-1.1-1.5-1.6
		c1.2-2.8,4.6-1.4,5.6,0.4c1.3,2.3,0.9,7-4.5,8.1c-8.4,1.6-10.1-10.5,1-17.3c7.5-3.1,12.1-14.5,12.1-14.5c-1-1.1-0.1-5.8-0.1-5.8
		c-1.2-1.3-1.6-4.3-0.9-6.4c-3.8-2.7-2.9-6.8-2.9-6.8c-3.8-0.5-3.1-4.1-3.1-4.1c-4.4-0.8-3.8-3.7-3.8-3.7c-3,0-2-2.6-2-2.6
		c-1.3,0.1-7-5-5.7-8.7c-0.2,4,4.1,6.3,4.4,6.4c1.2,0.6,2.5,1.2,7.6,0.8c1-0.1,8.2,1.4,10.6,2.9c2.9,1.9,3.8,1.4,3.8,1.4
		C72.7,31,73.8,27.3,72.4,26.1z M55.1,18.9c-0.5,0-1-0.4-1-1s0.4-1,1-1c0.5,0,1,0.4,1,1S55.7,18.9,55.1,18.9z"/>
</g>
</svg>
