  0
SECTION
  2
HEADER
  9
$ACADVER
  1
AC1024
  9
$ACADMAINTVER
 70
     6
  9
$DWGCODEPAGE
  3
UNDEFINED
  9
$INSBASE
 10
0.0
 20
0.0
 30
0.0
  9
$EXTMIN
 10
1.000000000000000E+20
 20
1.000000000000000E+20
 30
1.000000000000000E+20
  9
$EXTMAX
 10
-1.000000000000000E+20
 20
-1.000000000000000E+20
 30
-1.000000000000000E+20
  9
$LIMMIN
 10
0.0
 20
0.0
  9
$LIMMAX
 10
12.0
 20
9.0
  9
$ORTHOMODE
 70
     0
  9
$REGENMODE
 70
     1
  9
$FILLMODE
 70
     1
  9
$QTEXTMODE
 70
     0
  9
$MIRRTEXT
 70
     1
  9
$LTSCALE
 40
1.0
  9
$ATTMODE
 70
     1
  9
$TEXTSIZE
 40
0.2
  9
$TRACEWID
 40
0.05
  9
$TEXTSTYLE
  7
Standard
  9
$CLAYER
  8
0
  9
$CELTYPE
  6
ByLayer
  9
$CECOLOR
 62
   256
  9
$CELTSCALE
 40
1.0
  9
$DISPSILH
 70
     0
  9
$DIMSCALE
 40
1.0
  9
$DIMASZ
 40
0.18
  9
$DIMEXO
 40
0.0625
  9
$DIMDLI
 40
0.38
  9
$DIMRND
 40
0.0
  9
$DIMDLE
 40
0.0
  9
$DIMEXE
 40
0.18
  9
$DIMTP
 40
0.0
  9
$DIMTM
 40
0.0
  9
$DIMTXT
 40
0.18
  9
$DIMCEN
 40
0.09
  9
$DIMTSZ
 40
0.0
  9
$DIMTOL
 70
     0
  9
$DIMLIM
 70
     0
  9
$DIMTIH
 70
     1
  9
$DIMTOH
 70
     1
  9
$DIMSE1
 70
     0
  9
$DIMSE2
 70
     0
  9
$DIMTAD
 70
     0
  9
$DIMZIN
 70
     0
  9
$DIMBLK
  1

  9
$DIMASO
 70
     1
  9
$DIMSHO
 70
     1
  9
$DIMPOST
  1

  9
$DIMAPOST
  1

  9
$DIMALT
 70
     0
  9
$DIMALTD
 70
     2
  9
$DIMALTF
 40
25.4
  9
$DIMLFAC
 40
1.0
  9
$DIMTOFL
 70
     0
  9
$DIMTVP
 40
0.0
  9
$DIMTIX
 70
     0
  9
$DIMSOXD
 70
     0
  9
$DIMSAH
 70
     0
  9
$DIMBLK1
  1

  9
$DIMBLK2
  1

  9
$DIMSTYLE
  2
Standard
  9
$DIMCLRD
 70
     0
  9
$DIMCLRE
 70
     0
  9
$DIMCLRT
 70
     0
  9
$DIMTFAC
 40
1.0
  9
$DIMGAP
 40
0.09
  9
$DIMJUST
 70
     0
  9
$DIMSD1
 70
     0
  9
$DIMSD2
 70
     0
  9
$DIMTOLJ
 70
     1
  9
$DIMTZIN
 70
     0
  9
$DIMALTZ
 70
     0
  9
$DIMALTTZ
 70
     0
  9
$DIMUPT
 70
     0
  9
$DIMDEC
 70
     4
  9
$DIMTDEC
 70
     4
  9
$DIMALTU
 70
     2
  9
$DIMALTTD
 70
     2
  9
$DIMTXSTY
  7
Standard
  9
$DIMAUNIT
 70
     0
  9
$DIMADEC
 70
     0
  9
$DIMALTRND
 40
0.0
  9
$DIMAZIN
 70
     0
  9
$DIMDSEP
 70
    46
  9
$DIMATFIT
 70
     3
  9
$DIMFRAC
 70
     0
  9
$DIMLDRBLK
  1

  9
$DIMLUNIT
 70
     2
  9
$DIMLWD
 70
    -2
  9
$DIMLWE
 70
    -2
  9
$DIMTMOVE
 70
     0
  9
$DIMFXL
 40
1.0
  9
$DIMFXLON
 70
     0
  9
$DIMJOGANG
 40
0.7853981633974483
  9
$DIMTFILL
 70
     0
  9
$DIMTFILLCLR
 70
     0
  9
$DIMARCSYM
 70
     0
  9
$DIMLTYPE
  6

  9
$DIMLTEX1
  6

  9
$DIMLTEX2
  6

  9
$DIMTXTDIRECTION
 70
     0
  9
$LUNITS
 70
     2
  9
$LUPREC
 70
     4
  9
$SKETCHINC
 40
0.1
  9
$FILLETRAD
 40
0.5
  9
$AUNITS
 70
     0
  9
$AUPREC
 70
     0
  9
$MENU
  1
.
  9
$ELEVATION
 40
0.0
  9
$PELEVATION
 40
0.0
  9
$THICKNESS
 40
0.0
  9
$LIMCHECK
 70
     0
  9
$CHAMFERA
 40
0.5
  9
$CHAMFERB
 40
0.5
  9
$CHAMFERC
 40
1.0
  9
$CHAMFERD
 40
0.0
  9
$SKPOLY
 70
     0
  9
$TDCREATE
 40
2457526.652893519
  9
$TDUCREATE
 40
2457526.861226852
  9
$TDUPDATE
 40
2457526.652893519
  9
$TDUUPDATE
 40
2457526.861226852
  9
$TDINDWG
 40
0.0000000116
  9
$TDUSRTIMER
 40
0.0000000116
  9
$USRTIMER
 70
     1
  9
$ANGBASE
 50
0.0
  9
$ANGDIR
 70
     0
  9
$PDMODE
 70
     0
  9
$PDSIZE
 40
0.0
  9
$PLINEWID
 40
0.0
  9
$SPLFRAME
 70
     0
  9
$SPLINETYPE
 70
     6
  9
$SPLINESEGS
 70
     8
  9
$HANDSEED
  5
4D
  9
$SURFTAB1
 70
     6
  9
$SURFTAB2
 70
     6
  9
$SURFTYPE
 70
     6
  9
$SURFU
 70
     6
  9
$SURFV
 70
     6
  9
$UCSBASE
  2

  9
$UCSNAME
  2

  9
$UCSORG
 10
0.0
 20
0.0
 30
0.0
  9
$UCSXDIR
 10
1.0
 20
0.0
 30
0.0
  9
$UCSYDIR
 10
0.0
 20
1.0
 30
0.0
  9
$UCSORTHOREF
  2

  9
$UCSORTHOVIEW
 70
     0
  9
$UCSORGTOP
 10
0.0
 20
0.0
 30
0.0
  9
$UCSORGBOTTOM
 10
0.0
 20
0.0
 30
0.0
  9
$UCSORGLEFT
 10
0.0
 20
0.0
 30
0.0
  9
$UCSORGRIGHT
 10
0.0
 20
0.0
 30
0.0
  9
$UCSORGFRONT
 10
0.0
 20
0.0
 30
0.0
  9
$UCSORGBACK
 10
0.0
 20
0.0
 30
0.0
  9
$PUCSBASE
  2

  9
$PUCSNAME
  2

  9
$PUCSORG
 10
0.0
 20
0.0
 30
0.0
  9
$PUCSXDIR
 10
1.0
 20
0.0
 30
0.0
  9
$PUCSYDIR
 10
0.0
 20
1.0
 30
0.0
  9
$PUCSORTHOREF
  2

  9
$PUCSORTHOVIEW
 70
     0
  9
$PUCSORGTOP
 10
0.0
 20
0.0
 30
0.0
  9
$PUCSORGBOTTOM
 10
0.0
 20
0.0
 30
0.0
  9
$PUCSORGLEFT
 10
0.0
 20
0.0
 30
0.0
  9
$PUCSORGRIGHT
 10
0.0
 20
0.0
 30
0.0
  9
$PUCSORGFRONT
 10
0.0
 20
0.0
 30
0.0
  9
$PUCSORGBACK
 10
0.0
 20
0.0
 30
0.0
  9
$USERI1
 70
     0
  9
$USERI2
 70
     0
  9
$USERI3
 70
     0
  9
$USERI4
 70
     0
  9
$USERI5
 70
     0
  9
$USERR1
 40
0.0
  9
$USERR2
 40
0.0
  9
$USERR3
 40
0.0
  9
$USERR4
 40
0.0
  9
$USERR5
 40
0.0
  9
$WORLDVIEW
 70
     1
  9
$SHADEDGE
 70
     3
  9
$SHADEDIF
 70
    70
  9
$TILEMODE
 70
     1
  9
$MAXACTVP
 70
    64
  9
$PINSBASE
 10
0.0
 20
0.0
 30
0.0
  9
$PLIMCHECK
 70
     0
  9
$PEXTMIN
 10
1.000000000000000E+20
 20
1.000000000000000E+20
 30
1.000000000000000E+20
  9
$PEXTMAX
 10
-1.000000000000000E+20
 20
-1.000000000000000E+20
 30
-1.000000000000000E+20
  9
$PLIMMIN
 10
0.0
 20
0.0
  9
$PLIMMAX
 10
12.0
 20
9.0
  9
$UNITMODE
 70
     0
  9
$VISRETAIN
 70
     1
  9
$PLINEGEN
 70
     0
  9
$PSLTSCALE
 70
     1
  9
$TREEDEPTH
 70
  3020
  9
$CMLSTYLE
  2
Standard
  9
$CMLJUST
 70
     0
  9
$CMLSCALE
 40
1.0
  9
$PROXYGRAPHICS
 70
     1
  9
$MEASUREMENT
 70
     0
  9
$CELWEIGHT
370
    -1
  9
$ENDCAPS
280
     0
  9
$JOINSTYLE
280
     0
  9
$LWDISPLAY
290
     1
  9
$INSUNITS
 70
     1
  9
$HYPERLINKBASE
  1

  9
$STYLESHEET
  1

  9
$XEDIT
290
     1
  9
$CEPSNTYPE
380
     0
  9
$PSTYLEMODE
290
     1
  9
$FINGERPRINTGUID
  2
{D8F964F7-9DF8-8C2B-F6A3-46CB00AC12CF}
  9
$VERSIONGUID
  2
{FAEB1C32-E019-11D5-929B-00C0DF256EC4}
  9
$EXTNAMES
290
     1
  9
$PSVPSCALE
 40
0.0
  9
$OLESTARTUP
290
     0
  9
$SORTENTS
280
   127
  9
$INDEXCTL
280
     0
  9
$HIDETEXT
280
     1
  9
$XCLIPFRAME
280
     2
  9
$HALOGAP
280
     0
  9
$OBSCOLOR
 70
   257
  9
$OBSLTYPE
280
     0
  9
$INTERSECTIONDISPLAY
280
     0
  9
$INTERSECTIONCOLOR
 70
   257
  9
$DIMASSOC
280
     2
  9
$PROJECTNAME
  1

  9
$CAMERADISPLAY
290
     0
  9
$LENSLENGTH
 40
50.0
  9
$CAMERAHEIGHT
 40
0.0
  9
$STEPSPERSEC
 40
2.0
  9
$STEPSIZE
 40
6.0
  9
$3DDWFPREC
 40
2.0
  9
$PSOLWIDTH
 40
0.25
  9
$PSOLHEIGHT
 40
4.0
  9
$LOFTANG1
 40
1.570796326794897
  9
$LOFTANG2
 40
1.570796326794897
  9
$LOFTMAG1
 40
0.0
  9
$LOFTMAG2
 40
0.0
  9
$LOFTPARAM
 70
     7
  9
$LOFTNORMALS
280
     1
  9
$LATITUDE
 40
37.795
  9
$LONGITUDE
 40
-122.394
  9
$NORTHDIRECTION
 40
0.0
  9
$TIMEZONE
 70
 -8000
  9
$LIGHTGLYPHDISPLAY
280
     1
  9
$TILEMODELIGHTSYNCH
280
     1
  9
$CMATERIAL
347
3C
  9
$SOLIDHIST
280
     1
  9
$SHOWHIST
280
     1
  9
$DWFFRAME
280
     2
  9
$DGNFRAME
280
     2
  9
$REALWORLDSCALE
290
     1
  9
$INTERFERECOLOR
 62
   256
  9
$CSHADOW
280
     0
  9
$SHADOWPLANELOCATION
 40
0.0
  0
ENDSEC
  0
SECTION
  2
CLASSES
  0
CLASS
  1
ACDBDICTIONARYWDFLT
  2
AcDbDictionaryWithDefault
  3
ObjectDBX Classes
 90
        0
 91
        4
280
     0
281
     0
  0
CLASS
  1
VISUALSTYLE
  2
AcDbVisualStyle
  3
ObjectDBX Classes
 90
     4095
 91
        4
280
     0
281
     0
  0
CLASS
  1
MATERIAL
  2
AcDbMaterial
  3
ObjectDBX Classes
 90
     1153
 91
        4
280
     0
281
     0
  0
CLASS
  1
SUN
  2
AcDbSun
  3
SCENEOE
 90
     1024
 91
        4
280
     0
281
     0
  0
ENDSEC
  0
SECTION
  2
TABLES
  0
TABLE
  2
VPORT
  5
8
330
0
100
AcDbSymbolTable
 70
     1
  0
VPORT
  5
29
330
8
100
AcDbSymbolTableRecord
100
AcDbViewportTableRecord
  2
*Active
 70
     0
 10
0.0
 20
0.0
 11
1.0
 21
1.0
 12
0.0
 22
0.0
 13
0.0
 23
0.0
 14
0.5
 24
0.5
 15
0.5
 25
0.5
 16
0.0
 26
0.0
 36
1.0
 17
50.0
 27
62.5
 37
0.0
 40
125.0
 41
0.8
 42
50.0
 43
0.0
 44
0.0
 50
0.0
 51
0.0
 71
     0
 72
   100
 73
     1
 74
     3
 75
     0
 76
     0
 77
     0
 78
     0
281
     0
 65
     1
110
0.0
120
0.0
130
0.0
111
1.0
121
0.0
131
0.0
112
0.0
122
1.0
132
0.0
 79
     0
146
0.0
 60
     3
 61
     5
292
     1
282
     1
141
0.0
142
0.0
 63
   250
361
3F
  0
ENDTAB
  0
TABLE
  2
LTYPE
  5
5
330
0
100
AcDbSymbolTable
 70
     1
  0
LTYPE
  5
14
330
5
100
AcDbSymbolTableRecord
100
AcDbLinetypeTableRecord
  2
ByBlock
 70
     0
  3

 72
    65
 73
     0
 40
0.0
  0
LTYPE
  5
15
330
5
100
AcDbSymbolTableRecord
100
AcDbLinetypeTableRecord
  2
ByLayer
 70
     0
  3

 72
    65
 73
     0
 40
0.0
  0
LTYPE
  5
16
330
5
100
AcDbSymbolTableRecord
100
AcDbLinetypeTableRecord
  2
Continuous
 70
     0
  3
Solid line
 72
    65
 73
     0
 40
0.0
  0
ENDTAB
  0
TABLE
  2
LAYER
  5
2
330
0
100
AcDbSymbolTable
 70
     2
  0
LAYER
  5
10
330
2
100
AcDbSymbolTableRecord
100
AcDbLayerTableRecord
  2
0
 70
     0
 62
     7
  6
Continuous
370
    -3
390
F
347
3E
  0
LAYER
  5
40
330
2
100
AcDbSymbolTableRecord
100
AcDbLayerTableRecord
  2
Layer 1
 70
     0
 62
     7
  6
Continuous
370
    -3
390
F
347
3E
  0
ENDTAB
  0
TABLE
  2
STYLE
  5
3
330
0
100
AcDbSymbolTable
 70
     1
  0
STYLE
  5
11
330
3
100
AcDbSymbolTableRecord
100
AcDbTextStyleTableRecord
  2
Standard
 70
     0
 40
0.0
 41
1.0
 50
0.0
 71
     0
 42
0.2
  3
txt
  4

  0
ENDTAB
  0
TABLE
  2
VIEW
  5
6
330
0
100
AcDbSymbolTable
 70
     0
  0
ENDTAB
  0
TABLE
  2
UCS
  5
7
330
0
100
AcDbSymbolTable
 70
     0
  0
ENDTAB
  0
TABLE
  2
APPID
  5
9
330
0
100
AcDbSymbolTable
 70
     1
  0
APPID
  5
12
330
9
100
AcDbSymbolTableRecord
100
AcDbRegAppTableRecord
  2
ACAD
 70
     0
  0
ENDTAB
  0
TABLE
  2
DIMSTYLE
  5
A
330
0
100
AcDbSymbolTable
 70
     1
100
AcDbDimStyleTable
  0
DIMSTYLE
105
27
330
A
100
AcDbSymbolTableRecord
100
AcDbDimStyleTableRecord
  2
Standard
 70
     0
178
     0
340
11
  0
ENDTAB
  0
TABLE
  2
BLOCK_RECORD
  5
1
330
0
100
AcDbSymbolTable
 70
     1
  0
BLOCK_RECORD
  5
1F
330
1
100
AcDbSymbolTableRecord
100
AcDbBlockTableRecord
  2
*Model_Space
340
22
 70
     0
280
     1
281
     0
  0
BLOCK_RECORD
  5
1B
330
1
100
AcDbSymbolTableRecord
100
AcDbBlockTableRecord
  2
*Paper_Space
340
1E
 70
     0
280
     1
281
     0
  0
BLOCK_RECORD
  5
23
330
1
100
AcDbSymbolTableRecord
100
AcDbBlockTableRecord
  2
*Paper_Space0
340
26
 70
     0
280
     1
281
     0
  0
ENDTAB
  0
ENDSEC
  0
SECTION
  2
BLOCKS
  0
BLOCK
  5
20
330
1F
100
AcDbEntity
  8
0
100
AcDbBlockBegin
  2
*Model_Space
 70
     0
 10
0.0
 20
0.0
 30
0.0
  3
*Model_Space
  1

  0
ENDBLK
  5
21
330
1F
100
AcDbEntity
  8
0
100
AcDbBlockEnd
  0
BLOCK
  5
1C
330
1B
100
AcDbEntity
 67
     1
  8
0
100
AcDbBlockBegin
  2
*Paper_Space
 70
     0
 10
0.0
 20
0.0
 30
0.0
  3
*Paper_Space
  1

  0
ENDBLK
  5
1D
330
1B
100
AcDbEntity
 67
     1
  8
0
100
AcDbBlockEnd
  0
BLOCK
  5
24
330
23
100
AcDbEntity
  8
0
100
AcDbBlockBegin
  2
*Paper_Space0
 70
     0
 10
0.0
 20
0.0
 30
0.0
  3
*Paper_Space0
  1

  0
ENDBLK
  5
25
330
23
100
AcDbEntity
  8
0
100
AcDbBlockEnd
  0
ENDSEC
  0
SECTION
  2
ENTITIES
  0
SPLINE
  5
41
330
1F
100
AcDbEntity
  8
Layer 1
370
     0
100
AcDbSpline
210
0.0
220
0.0
230
1.0
 70
    11
 71
     3
 72
   173
 73
   169
 74
     0
 42
0.0000000001
 43
0.0000000001
 12
1.0
 22
0.0
 32
0.0
 13
1.0
 23
0.0
 33
0.0
 40
0.0
 40
0.0
 40
0.0
 40
0.0
 40
1.0
 40
1.0
 40
1.0
 40
2.0
 40
2.0
 40
2.0
 40
3.0
 40
3.0
 40
3.0
 40
4.0
 40
4.0
 40
4.0
 40
5.0
 40
5.0
 40
5.0
 40
6.0
 40
6.0
 40
6.0
 40
7.0
 40
7.0
 40
7.0
 40
8.0
 40
8.0
 40
8.0
 40
9.0
 40
9.0
 40
9.0
 40
10.0
 40
10.0
 40
10.0
 40
11.0
 40
11.0
 40
11.0
 40
12.0
 40
12.0
 40
12.0
 40
13.0
 40
13.0
 40
13.0
 40
14.0
 40
14.0
 40
14.0
 40
15.0
 40
15.0
 40
15.0
 40
16.0
 40
16.0
 40
16.0
 40
17.0
 40
17.0
 40
17.0
 40
18.0
 40
18.0
 40
18.0
 40
19.0
 40
19.0
 40
19.0
 40
20.0
 40
20.0
 40
20.0
 40
21.0
 40
21.0
 40
21.0
 40
22.0
 40
22.0
 40
22.0
 40
23.0
 40
23.0
 40
23.0
 40
24.0
 40
24.0
 40
24.0
 40
25.0
 40
25.0
 40
25.0
 40
26.0
 40
26.0
 40
26.0
 40
27.0
 40
27.0
 40
27.0
 40
28.0
 40
28.0
 40
28.0
 40
29.0
 40
29.0
 40
29.0
 40
30.0
 40
30.0
 40
30.0
 40
31.0
 40
31.0
 40
31.0
 40
32.0
 40
32.0
 40
32.0
 40
33.0
 40
33.0
 40
33.0
 40
34.0
 40
34.0
 40
34.0
 40
35.0
 40
35.0
 40
35.0
 40
36.0
 40
36.0
 40
36.0
 40
37.0
 40
37.0
 40
37.0
 40
38.0
 40
38.0
 40
38.0
 40
39.0
 40
39.0
 40
39.0
 40
40.0
 40
40.0
 40
40.0
 40
41.0
 40
41.0
 40
41.0
 40
42.0
 40
42.0
 40
42.0
 40
43.0
 40
43.0
 40
43.0
 40
44.0
 40
44.0
 40
44.0
 40
45.0
 40
45.0
 40
45.0
 40
46.0
 40
46.0
 40
46.0
 40
47.0
 40
47.0
 40
47.0
 40
48.0
 40
48.0
 40
48.0
 40
49.0
 40
49.0
 40
49.0
 40
50.0
 40
50.0
 40
50.0
 40
51.0
 40
51.0
 40
51.0
 40
52.0
 40
52.0
 40
52.0
 40
53.0
 40
53.0
 40
53.0
 40
54.0
 40
54.0
 40
54.0
 40
55.0
 40
55.0
 40
55.0
 40
56.0
 40
56.0
 40
56.0
 40
56.0
 10
89.8550033569336
 20
95.60600090026855
 30
0.0
 10
89.8550033569336
 20
95.60600090026855
 30
0.0
 10
91.69499969482422
 20
96.8070011138916
 30
0.0
 10
91.69499969482422
 20
96.8070011138916
 30
0.0
 10
91.96600341796875
 20
96.98400115966797
 30
0.0
 10
92.3280029296875
 20
96.90800094604492
 30
0.0
 10
92.50599670410156
 20
96.63700103759766
 30
0.0
 10
92.68299865722656
 20
96.36600112915039
 30
0.0
 10
92.60599517822266
 20
96.00300025939941
 30
0.0
 10
92.33599853515625
 20
95.82600021362305
 30
0.0
 10
92.33599853515625
 20
95.82600021362305
 30
0.0
 10
92.00399780273438
 20
95.60900115966797
 30
0.0
 10
92.00399780273438
 20
95.60900115966797
 30
0.0
 10
92.00399780273438
 20
95.60900115966797
 30
0.0
 10
92.44300079345703
 20
94.97100067138672
 30
0.0
 10
92.44300079345703
 20
94.97100067138672
 30
0.0
 10
93.01300048828125
 20
94.92700004577637
 30
0.0
 10
93.9729995727539
 20
94.95499992370605
 30
0.0
 10
94.56400299072266
 20
95.3080005645752
 30
0.0
 10
94.71400451660156
 20
95.39700126647949
 30
0.0
 10
94.83800506591797
 20
95.4680004119873
 30
0.0
 10
94.94400024414062
 20
95.52300071716309
 30
0.0
 10
94.91200256347656
 20
96.25200080871582
 30
0.0
 10
94.75
 20
97.00699996948242
 30
0.0
 10
94.4280014038086
 20
97.78800010681152
 30
0.0
 10
91.04199981689453
 20
106.0179996490479
 30
0.0
 10
74.38300323486328
 20
102.7889995574951
 30
0.0
 10
65.52799987792969
 20
92.00199890136719
 30
0.0
 10
65.40299987792969
 20
91.822998046875
 30
0.0
 10
64.05899810791016
 20
90.05500030517578
 30
0.0
 10
64.06600189208984
 20
90.0719985961914
 30
0.0
 10
61.23600006103516
 20
86.08499908447266
 30
0.0
 10
59.74500274658203
 20
81.51599884033203
 30
0.0
 10
59.74500274658203
 20
76.75399780273438
 30
0.0
 10
59.74500274658203
 20
76.37699890136719
 30
0.0
 10
59.43900299072266
 20
76.07099914550781
 30
0.0
 10
59.06200408935547
 20
76.07099914550781
 30
0.0
 10
58.68500518798828
 20
76.07099914550781
 30
0.0
 10
58.37900543212891
 20
76.37699890136719
 30
0.0
 10
58.37900543212891
 20
76.75399780273438
 30
0.0
 10
58.37900543212891
 20
81.24499893188477
 30
0.0
 10
59.62500381469727
 20
85.57099914550781
 30
0.0
 10
62.00700378417969
 20
89.44099807739258
 30
0.0
 10
58.32600402832031
 20
88.47899627685547
 30
0.0
 10
49.46300506591797
 20
87.18199920654297
 30
0.0
 10
32.98600387573242
 20
90.11599731445312
 30
0.0
 10
16.48999977111816
 20
93.05500030517578
 30
0.0
 10
9.564000129699707
 20
83.9370002746582
 30
0.0
 10
9.755000114440918
 20
73.49399948120117
 30
0.0
 10
9.930000305175781
 20
63.9370002746582
 30
0.0
 10
16.71699905395508
 20
60.58300018310547
 30
0.0
 10
12.90200042724609
 20
58.57499694824219
 30
0.0
 10
7.88800048828125
 20
55.93699645996094
 30
0.0
 10
0.5069999694824219
 20
52.70899963378906
 30
0.0
 10
8.784000396728516
 20
52.70899963378906
 30
0.0
 10
25.42399978637695
 20
52.70899963378906
 30
0.0
 10
25.26600074768066
 20
59.83499908447266
 30
0.0
 10
24.80299949645996
 20
61.33000183105469
 30
0.0
 10
24.77099990844727
 20
61.43400192260742
 30
0.0
 10
24.86800003051758
 20
61.53000259399414
 30
0.0
 10
24.96999931335449
 20
61.49500274658203
 30
0.0
 10
26.33399963378906
 20
61.02400207519531
 30
0.0
 10
31.96799850463867
 20
59.11500549316406
 30
0.0
 10
36.54000091552734
 20
58.08700561523438
 30
0.0
 10
35.8910026550293
 20
59.97800445556641
 30
0.0
 10
35.56600189208984
 20
61.83200454711914
 30
0.0
 10
35.29899978637695
 20
63.36800384521484
 30
0.0
 10
35.29899978637695
 20
63.36800384521484
 30
0.0
 10
35.22100067138672
 20
63.81600570678711
 30
0.0
 10
35.22100067138672
 20
63.81600570678711
 30
0.0
 10
34.26599884033203
 20
69.23400497436523
 30
0.0
 10
35.29899978637695
 20
73.56400680541992
 30
0.0
 10
35.34300231933594
 20
73.74600601196289
 30
0.0
 10
35.43300247192383
 20
74.11300659179688
 30
0.0
 10
35.802001953125
 20
74.33700561523438
 30
0.0
 10
36.16900253295898
 20
74.24700546264648
 30
0.0
 10
36.53600311279297
 20
74.1570053100586
 30
0.0
 10
36.76000213623047
 20
73.78800582885742
 30
0.0
 10
36.67000198364258
 20
73.42100524902344
 30
0.0
 10
36.65400314331055
 20
73.3530044555664
 30
0.0
 10
35.6670036315918
 20
69.15900421142578
 30
0.0
 10
36.56600189208984
 20
64.05300521850586
 30
0.0
 10
36.56600189208984
 20
64.05300521850586
 30
0.0
 10
36.64500045776367
 20
63.60200500488281
 30
0.0
 10
36.64500045776367
 20
63.60200500488281
 30
0.0
 10
36.92399978637695
 20
61.99900436401367
 30
0.0
 10
37.26900100708008
 20
60.02700805664062
 30
0.0
 10
38.01100158691406
 20
58.05900573730469
 30
0.0
 10
38.01100158691406
 20
58.05900573730469
 30
0.0
 10
38.91300201416016
 20
55.99100494384766
 30
0.0
 10
38.91300201416016
 20
55.99100494384766
 30
0.0
 10
40.36600112915039
 20
53.16300201416016
 30
0.0
 10
42.84400177001953
 20
50.54500579833984
 30
0.0
 10
47.34200286865234
 20
49.19300842285156
 30
0.0
 10
58.44000244140625
 20
45.8590087890625
 30
0.0
 10
66.3270034790039
 20
48.56700897216797
 30
0.0
 10
63.6300048828125
 20
49.54300689697266
 30
0.0
 10
61.00300598144531
 20
50.49400329589844
 30
0.0
 10
58.27600479125977
 20
50.59300994873047
 30
0.0
 10
56.21400451660156
 20
51.05200958251953
 30
0.0
 10
53.30500411987305
 20
51.69901275634766
 30
0.0
 10
52.11400604248047
 20
52.64701080322266
 30
0.0
 10
51.01000595092773
 20
54.54400634765625
 30
0.0
 10
50.9580078125
 20
54.63300323486328
 30
0.0
 10
50.11500549316406
 20
56.03200531005859
 30
0.0
 10
52.11500549316406
 20
55.95200347900391
 30
0.0
 10
54.44900512695312
 20
55.99900054931641
 30
0.0
 10
58.4320068359375
 20
56.41699981689453
 30
0.0
 10
64.92200469970703
 20
58.65299987792969
 30
0.0
 10
69.07600402832031
 20
60.08399963378906
 30
0.0
 10
72.59200286865234
 20
62.31800079345703
 30
0.0
 10
75.55000305175781
 20
64.91999816894531
 30
0.0
 10
75.55000305175781
 20
64.91999816894531
 30
0.0
 10
75.53500366210938
 20
64.90399932861328
 30
0.0
 10
75.53500366210938
 20
64.90399932861328
 30
0.0
 10
75.53500366210938
 20
64.90399932861328
 30
0.0
 10
76.21100616455078
 20
63.03099822998047
 30
0.0
 10
75.58500671386719
 20
61.20800018310547
 30
0.0
 10
75.25000762939453
 20
60.23200225830078
 30
0.0
 10
73.74600982666016
 20
58.60299682617188
 30
0.0
 10
71.77400970458984
 20
57.33599853515625
 30
0.0
 10
66.6100082397461
 20
54.01999664306641
 30
0.0
 10
72.84201049804688
 20
54.64399719238281
 30
0.0
 10
76.1090087890625
 20
56.17599487304688
 30
0.0
 10
83.37500762939453
 20
59.58399200439453
 30
0.0
 10
80.92700958251953
 20
65.06199645996094
 30
0.0
 10
80.44400787353516
 20
70.10299682617188
 30
0.0
 10
80.44400787353516
 20
70.10299682617188
 30
0.0
 10
80.43400573730469
 20
70.09299850463867
 30
0.0
 10
80.43400573730469
 20
70.09299850463867
 30
0.0
 10
85.51200866699219
 20
76.50499725341797
 30
0.0
 10
88.07300567626953
 20
83.40999984741211
 30
0.0
 10
88.94600677490234
 20
86.10499572753906
 30
0.0
 10
84.82400512695312
 20
83.5459976196289
 30
0.0
 10
80.3070068359375
 20
82.13799667358398
 30
0.0
 10
80.0040054321289
 20
82.04499435424805
 30
0.0
 10
79.93700408935547
 20
82.02499389648438
 30
0.0
 10
79.87000274658203
 20
82.01499557495117
 30
0.0
 10
79.80400848388672
 20
82.01499557495117
 30
0.0
 10
79.51200866699219
 20
82.01499557495117
 30
0.0
 10
79.24100494384766
 20
82.20399475097656
 30
0.0
 10
79.15100860595703
 20
82.49799728393555
 30
0.0
 10
79.04000854492188
 20
82.8589973449707
 30
0.0
 10
79.24301147460938
 20
83.24099731445312
 30
0.0
 10
79.60401153564453
 20
83.35199737548828
 30
0.0
 10
79.6860122680664
 20
83.37699890136719
 30
0.0
 10
85.47401428222656
 20
85.18299865722656
 30
0.0
 10
89.79000854492188
 20
88.322998046875
 30
0.0
 10
89.85501098632812
 20
88.43599700927734
 30
0.0
 10
89.91600799560547
 20
88.52699661254883
 30
0.0
 10
89.96100616455078
 20
88.57499694824219
 30
0.0
 10
91.16000366210938
 20
89.83899688720703
 30
0.0
 10
91.36100769042969
 20
92.86499786376953
 30
0.0
 10
91.33900451660156
 20
94.15899658203125
 30
0.0
 10
91.33900451660156
 20
94.15899658203125
 30
0.0
 10
90.8550033569336
 20
94.86199569702148
 30
0.0
 10
90.8550033569336
 20
94.86199569702148
 30
0.0
 10
90.8550033569336
 20
94.86199569702148
 30
0.0
 10
90.49200439453125
 20
94.62499618530273
 30
0.0
 10
90.49200439453125
 20
94.62499618530273
 30
0.0
 10
90.39300537109375
 20
94.56099700927734
 30
0.0
 10
90.2820053100586
 20
94.52999687194824
 30
0.0
 10
90.17200469970703
 20
94.52999687194824
 30
0.0
 10
89.98100280761719
 20
94.52999687194824
 30
0.0
 10
89.79300689697266
 20
94.62399673461914
 30
0.0
 10
89.6810073852539
 20
94.7959976196289
 30
0.0
 10
89.50700378417969
 20
95.06599998474121
 30
0.0
 10
89.58399963378906
 20
95.42900085449219
 30
0.0
 10
89.8550033569336
 20
95.60600090026855
 30
0.0
  0
SPLINE
  5
42
330
1F
100
AcDbEntity
  8
Layer 1
370
     0
100
AcDbSpline
210
0.0
220
0.0
230
1.0
 70
    11
 71
     3
 72
    26
 73
    22
 74
     0
 42
0.0000000001
 43
0.0000000001
 12
1.0
 22
0.0
 32
0.0
 13
1.0
 23
0.0
 33
0.0
 40
0.0
 40
0.0
 40
0.0
 40
0.0
 40
1.0
 40
1.0
 40
1.0
 40
2.0
 40
2.0
 40
2.0
 40
3.0
 40
3.0
 40
3.0
 40
4.0
 40
4.0
 40
4.0
 40
5.0
 40
5.0
 40
5.0
 40
6.0
 40
6.0
 40
6.0
 40
7.0
 40
7.0
 40
7.0
 40
7.0
 10
16.12299919128418
 20
84.17699813842773
 30
0.0
 10
16.70899963378906
 20
84.64699935913086
 30
0.0
 10
17.34299850463867
 20
85.03999710083008
 30
0.0
 10
17.36999893188477
 20
85.05699920654297
 30
0.0
 10
17.59999847412109
 20
85.1989974975586
 30
0.0
 10
17.89999961853027
 20
85.12799835205078
 30
0.0
 10
18.04199981689453
 20
84.89899826049805
 30
0.0
 10
18.18400001525879
 20
84.66999816894531
 30
0.0
 10
18.11299896240234
 20
84.36899948120117
 30
0.0
 10
17.88399887084961
 20
84.22699737548828
 30
0.0
 10
17.87799835205078
 20
84.22299575805664
 30
0.0
 10
17.27199935913086
 20
83.84699630737305
 30
0.0
 10
16.73399925231934
 20
83.41599655151367
 30
0.0
 10
16.64399909973145
 20
83.34399795532227
 30
0.0
 10
16.5359992980957
 20
83.30899810791016
 30
0.0
 10
16.42899894714355
 20
83.30899810791016
 30
0.0
 10
16.2859992980957
 20
83.30899810791016
 30
0.0
 10
16.14399909973145
 20
83.37199783325195
 30
0.0
 10
16.04799842834473
 20
83.49199676513672
 30
0.0
 10
15.87899971008301
 20
83.70100021362305
 30
0.0
 10
15.91300010681152
 20
84.00799942016602
 30
0.0
 10
16.12299919128418
 20
84.17699813842773
 30
0.0
  0
SPLINE
  5
43
330
1F
100
AcDbEntity
  8
Layer 1
370
     0
100
AcDbSpline
210
0.0
220
0.0
230
1.0
 70
    11
 71
     3
 72
    26
 73
    22
 74
     0
 42
0.0000000001
 43
0.0000000001
 12
1.0
 22
0.0
 32
0.0
 13
1.0
 23
0.0
 33
0.0
 40
0.0
 40
0.0
 40
0.0
 40
0.0
 40
1.0
 40
1.0
 40
1.0
 40
2.0
 40
2.0
 40
2.0
 40
3.0
 40
3.0
 40
3.0
 40
4.0
 40
4.0
 40
4.0
 40
5.0
 40
5.0
 40
5.0
 40
6.0
 40
6.0
 40
6.0
 40
7.0
 40
7.0
 40
7.0
 40
7.0
 10
16.88199996948242
 20
55.26499938964844
 30
0.0
 10
16.83099937438965
 20
55.25199890136719
 30
0.0
 10
15.62399959564209
 20
54.94699859619141
 30
0.0
 10
14.97299957275391
 20
54.83399963378906
 30
0.0
 10
14.94499969482422
 20
54.82900238037109
 30
0.0
 10
14.91699981689453
 20
54.82699584960938
 30
0.0
 10
14.88899993896484
 20
54.82699584960938
 30
0.0
 10
14.6560001373291
 20
54.82699584960938
 30
0.0
 10
14.44999980926514
 20
54.99399566650391
 30
0.0
 10
14.40900039672852
 20
55.23199462890625
 30
0.0
 10
14.36300086975098
 20
55.49799346923828
 30
0.0
 10
14.54100036621094
 20
55.74999237060547
 30
0.0
 10
14.80600070953369
 20
55.79599761962891
 30
0.0
 10
15.42000102996826
 20
55.90299987792969
 30
0.0
 10
16.63000106811523
 20
56.20899963378906
 30
0.0
 10
16.64200019836426
 20
56.21199798583984
 30
0.0
 10
16.90299987792969
 20
56.27899932861328
 30
0.0
 10
17.16900062561035
 20
56.1199951171875
 30
0.0
 10
17.23500061035156
 20
55.85900115966797
 30
0.0
 10
17.30200004577637
 20
55.59600067138672
 30
0.0
 10
17.14399909973145
 20
55.33100128173828
 30
0.0
 10
16.88199996948242
 20
55.26499938964844
 30
0.0
  0
SPLINE
  5
44
330
1F
100
AcDbEntity
  8
Layer 1
370
     0
100
AcDbSpline
210
0.0
220
0.0
230
1.0
 70
    11
 71
     3
 72
    26
 73
    22
 74
     0
 42
0.0000000001
 43
0.0000000001
 12
1.0
 22
0.0
 32
0.0
 13
1.0
 23
0.0
 33
0.0
 40
0.0
 40
0.0
 40
0.0
 40
0.0
 40
1.0
 40
1.0
 40
1.0
 40
2.0
 40
2.0
 40
2.0
 40
3.0
 40
3.0
 40
3.0
 40
4.0
 40
4.0
 40
4.0
 40
5.0
 40
5.0
 40
5.0
 40
6.0
 40
6.0
 40
6.0
 40
7.0
 40
7.0
 40
7.0
 40
7.0
 10
18.15399932861328
 20
55.70099639892578
 30
0.0
 10
18.09799957275391
 20
55.67999267578125
 30
0.0
 10
18.03999900817871
 20
55.66999816894531
 30
0.0
 10
17.98399925231934
 20
55.66999816894531
 30
0.0
 10
17.7859992980957
 20
55.66999816894531
 30
0.0
 10
17.59999847412109
 20
55.79100036621094
 30
0.0
 10
17.52699851989746
 20
55.98799896240234
 30
0.0
 10
17.43299865722656
 20
56.24099731445312
 30
0.0
 10
17.56199836730957
 20
56.52199554443359
 30
0.0
 10
17.81399917602539
 20
56.61599731445312
 30
0.0
 10
21.65299987792969
 20
58.04599761962891
 30
0.0
 10
21.85799980163574
 20
60.65599822998047
 30
0.0
 10
21.86499977111816
 20
60.76699829101562
 30
0.0
 10
21.88199996948242
 20
61.03499984741211
 30
0.0
 10
22.11999893188477
 20
61.24300003051758
 30
0.0
 10
22.37899971008301
 20
61.22599792480469
 30
0.0
 10
22.64699935913086
 20
61.21099853515625
 30
0.0
 10
22.85300064086914
 20
60.98500061035156
 30
0.0
 10
22.84000015258789
 20
60.71699523925781
 30
0.0
 10
22.83300018310547
 20
60.58000183105469
 30
0.0
 10
22.62700080871582
 20
57.36599731445312
 30
0.0
 10
18.15399932861328
 20
55.70099639892578
 30
0.0
  0
SPLINE
  5
45
330
1F
100
AcDbEntity
  8
Layer 1
370
     0
100
AcDbSpline
210
0.0
220
0.0
230
1.0
 70
    11
 71
     3
 72
    29
 73
    25
 74
     0
 42
0.0000000001
 43
0.0000000001
 12
1.0
 22
0.0
 32
0.0
 13
1.0
 23
0.0
 33
0.0
 40
0.0
 40
0.0
 40
0.0
 40
0.0
 40
1.0
 40
1.0
 40
1.0
 40
2.0
 40
2.0
 40
2.0
 40
3.0
 40
3.0
 40
3.0
 40
4.0
 40
4.0
 40
4.0
 40
5.0
 40
5.0
 40
5.0
 40
6.0
 40
6.0
 40
6.0
 40
7.0
 40
7.0
 40
7.0
 40
8.0
 40
8.0
 40
8.0
 40
8.0
 10
24.26000022888184
 20
86.75500106811523
 30
0.0
 10
24.23900032043457
 20
86.75400161743164
 30
0.0
 10
22.11100006103516
 20
86.6760025024414
 30
0.0
 10
19.38800048828125
 20
85.125
 30
0.0
 10
19.3120002746582
 20
85.08200073242188
 30
0.0
 10
19.22900009155273
 20
85.06100082397461
 30
0.0
 10
19.14700126647949
 20
85.06100082397461
 30
0.0
 10
18.97800064086914
 20
85.06100082397461
 30
0.0
 10
18.81300163269043
 20
85.1500015258789
 30
0.0
 10
18.72300148010254
 20
85.30800247192383
 30
0.0
 10
18.59000205993652
 20
85.5420036315918
 30
0.0
 10
18.67100143432617
 20
85.84000396728516
 30
0.0
 10
18.90500068664551
 20
85.97400283813477
 30
0.0
 10
21.85700035095215
 20
87.65600204467773
 30
0.0
 10
24.14000129699707
 20
87.72900390625
 30
0.0
 10
24.23600006103516
 20
87.73200225830078
 30
0.0
 10
24.23999977111816
 20
87.73200225830078
 30
0.0
 10
24.24399948120117
 20
87.73200225830078
 30
0.0
 10
24.24799919128418
 20
87.73200225830078
 30
0.0
 10
24.51199913024902
 20
87.73200225830078
 30
0.0
 10
24.72900009155273
 20
87.52100372314453
 30
0.0
 10
24.73600006103516
 20
87.25600051879883
 30
0.0
 10
24.74200057983398
 20
86.98500061035156
 30
0.0
 10
24.53000068664551
 20
86.76200103759766
 30
0.0
 10
24.26000022888184
 20
86.75500106811523
 30
0.0
  0
SPLINE
  5
46
330
1F
100
AcDbEntity
  8
Layer 1
370
     0
100
AcDbSpline
210
0.0
220
0.0
230
1.0
 70
    11
 71
     3
 72
    26
 73
    22
 74
     0
 42
0.0000000001
 43
0.0000000001
 12
1.0
 22
0.0
 32
0.0
 13
1.0
 23
0.0
 33
0.0
 40
0.0
 40
0.0
 40
0.0
 40
0.0
 40
1.0
 40
1.0
 40
1.0
 40
2.0
 40
2.0
 40
2.0
 40
3.0
 40
3.0
 40
3.0
 40
4.0
 40
4.0
 40
4.0
 40
5.0
 40
5.0
 40
5.0
 40
6.0
 40
6.0
 40
6.0
 40
7.0
 40
7.0
 40
7.0
 40
7.0
 10
39.35800170898438
 20
64.15399932861328
 30
0.0
 10
39.32500076293945
 20
64.14699935913086
 30
0.0
 10
39.29199981689453
 20
64.14400100708008
 30
0.0
 10
39.25900268554688
 20
64.14400100708008
 30
0.0
 10
39.03200149536133
 20
64.14400100708008
 30
0.0
 10
38.82900238037109
 20
64.3030014038086
 30
0.0
 10
38.78200149536133
 20
64.53400039672852
 30
0.0
 10
37.99500274658203
 20
68.35900115966797
 30
0.0
 10
38.74600219726562
 20
72.9739990234375
 30
0.0
 10
38.77900314331055
 20
73.16899871826172
 30
0.0
 10
38.82300186157227
 20
73.43499755859375
 30
0.0
 10
39.07400131225586
 20
73.61499786376953
 30
0.0
 10
39.34000396728516
 20
73.56999969482422
 30
0.0
 10
39.60600280761719
 20
73.5260009765625
 30
0.0
 10
39.78600311279297
 20
73.27399826049805
 30
0.0
 10
39.74200439453125
 20
73.00899887084961
 30
0.0
 10
39.73400497436523
 20
72.96299743652344
 30
0.0
 10
38.98900604248047
 20
68.375
 30
0.0
 10
39.73900604248047
 20
64.73099899291992
 30
0.0
 10
39.79199981689453
 20
64.46599960327148
 30
0.0
 10
39.62200164794922
 20
64.20800018310547
 30
0.0
 10
39.35800170898438
 20
64.15399932861328
 30
0.0
  0
SPLINE
  5
47
330
1F
100
AcDbEntity
  8
Layer 1
370
     0
100
AcDbSpline
210
0.0
220
0.0
230
1.0
 70
    11
 71
     3
 72
    17
 73
    13
 74
     0
 42
0.0000000001
 43
0.0000000001
 12
1.0
 22
0.0
 32
0.0
 13
1.0
 23
0.0
 33
0.0
 40
0.0
 40
0.0
 40
0.0
 40
0.0
 40
1.0
 40
1.0
 40
1.0
 40
2.0
 40
2.0
 40
2.0
 40
3.0
 40
3.0
 40
3.0
 40
4.0
 40
4.0
 40
4.0
 40
4.0
 10
83.23200225830078
 20
93.73200035095215
 30
0.0
 10
82.38999938964844
 20
93.73200035095215
 30
0.0
 10
81.70500183105469
 20
94.41699981689453
 30
0.0
 10
81.70500183105469
 20
95.25900077819824
 30
0.0
 10
81.70500183105469
 20
96.10100173950195
 30
0.0
 10
82.38999938964844
 20
96.78600120544434
 30
0.0
 10
83.23200225830078
 20
96.78600120544434
 30
0.0
 10
84.07400512695312
 20
96.78600120544434
 30
0.0
 10
84.75900268554688
 20
96.10100173950195
 30
0.0
 10
84.75900268554688
 20
95.25900077819824
 30
0.0
 10
84.75900268554688
 20
94.41799926757812
 30
0.0
 10
84.0739974975586
 20
93.73200035095215
 30
0.0
 10
83.23200225830078
 20
93.73200035095215
 30
0.0
  0
SPLINE
  5
48
330
1F
100
AcDbEntity
  8
Layer 1
370
     0
100
AcDbSpline
210
0.0
220
0.0
230
1.0
 70
    11
 71
     3
 72
    17
 73
    13
 74
     0
 42
0.0000000001
 43
0.0000000001
 12
1.0
 22
0.0
 32
0.0
 13
1.0
 23
0.0
 33
0.0
 40
0.0
 40
0.0
 40
0.0
 40
0.0
 40
1.0
 40
1.0
 40
1.0
 40
2.0
 40
2.0
 40
2.0
 40
3.0
 40
3.0
 40
3.0
 40
4.0
 40
4.0
 40
4.0
 40
4.0
 10
83.78299713134766
 20
95.26000022888184
 30
0.0
 10
83.78299713134766
 20
94.95599937438965
 30
0.0
 10
83.53599548339844
 20
94.70899963378906
 30
0.0
 10
83.23199462890625
 20
94.70899963378906
 30
0.0
 10
82.92799377441406
 20
94.70899963378906
 30
0.0
 10
82.68099212646484
 20
94.95599937438965
 30
0.0
 10
82.68099212646484
 20
95.26000022888184
 30
0.0
 10
82.68099212646484
 20
95.56400108337402
 30
0.0
 10
82.92799377441406
 20
95.81100082397461
 30
0.0
 10
83.23199462890625
 20
95.81100082397461
 30
0.0
 10
83.53599548339844
 20
95.81100082397461
 30
0.0
 10
83.78299713134766
 20
95.56399917602539
 30
0.0
 10
83.78299713134766
 20
95.26000022888184
 30
0.0
  0
SPLINE
  5
49
330
1F
100
AcDbEntity
  8
Layer 1
370
     0
100
AcDbSpline
210
0.0
220
0.0
230
1.0
 70
    11
 71
     3
 72
    17
 73
    13
 74
     0
 42
0.0000000001
 43
0.0000000001
 12
1.0
 22
0.0
 32
0.0
 13
1.0
 23
0.0
 33
0.0
 40
0.0
 40
0.0
 40
0.0
 40
0.0
 40
1.0
 40
1.0
 40
1.0
 40
2.0
 40
2.0
 40
2.0
 40
3.0
 40
3.0
 40
3.0
 40
4.0
 40
4.0
 40
4.0
 40
4.0
 10
92.91500091552734
 20
93.58399963378906
 30
0.0
 10
93.46900177001953
 20
93.58399963378906
 30
0.0
 10
94.16799926757812
 20
93.6520004272461
 30
0.0
 10
94.79800415039062
 20
93.9060001373291
 30
0.0
 10
94.42100524902344
 20
92.24499893188477
 30
0.0
 10
93.37700653076172
 20
90.74499893188477
 30
0.0
 10
92.00200653076172
 20
89.42300033569336
 30
0.0
 10
92.54600524902344
 20
90.89200210571289
 30
0.0
 10
92.67601013183594
 20
92.5989990234375
 30
0.0
 10
92.7020034790039
 20
93.5880012512207
 30
0.0
 10
92.77100372314453
 20
93.58600044250488
 30
0.0
 10
92.84100341796875
 20
93.58399963378906
 30
0.0
 10
92.91500091552734
 20
93.58399963378906
 30
0.0
  0
HATCH
  5
4A
330
1F
100
AcDbEntity
  8
Layer 1
 62
     7
420
 16777215
100
AcDbHatch
 10
0.0
 20
0.0
 30
0.0
210
0.0
220
0.0
230
1.0
  2
SOLID
 70
     1
 71
     0
 91
        9
 92
        1
 93
        1
 72
     4
 94
        3
 73
     0
 74
     1
 95
      173
 96
      169
 40
0.0
 40
0.0
 40
0.0
 40
0.0
 40
1.0
 40
1.0
 40
1.0
 40
2.0
 40
2.0
 40
2.0
 40
3.0
 40
3.0
 40
3.0
 40
4.0
 40
4.0
 40
4.0
 40
5.0
 40
5.0
 40
5.0
 40
6.0
 40
6.0
 40
6.0
 40
7.0
 40
7.0
 40
7.0
 40
8.0
 40
8.0
 40
8.0
 40
9.0
 40
9.0
 40
9.0
 40
10.0
 40
10.0
 40
10.0
 40
11.0
 40
11.0
 40
11.0
 40
12.0
 40
12.0
 40
12.0
 40
13.0
 40
13.0
 40
13.0
 40
14.0
 40
14.0
 40
14.0
 40
15.0
 40
15.0
 40
15.0
 40
16.0
 40
16.0
 40
16.0
 40
17.0
 40
17.0
 40
17.0
 40
18.0
 40
18.0
 40
18.0
 40
19.0
 40
19.0
 40
19.0
 40
20.0
 40
20.0
 40
20.0
 40
21.0
 40
21.0
 40
21.0
 40
22.0
 40
22.0
 40
22.0
 40
23.0
 40
23.0
 40
23.0
 40
24.0
 40
24.0
 40
24.0
 40
25.0
 40
25.0
 40
25.0
 40
26.0
 40
26.0
 40
26.0
 40
27.0
 40
27.0
 40
27.0
 40
28.0
 40
28.0
 40
28.0
 40
29.0
 40
29.0
 40
29.0
 40
30.0
 40
30.0
 40
30.0
 40
31.0
 40
31.0
 40
31.0
 40
32.0
 40
32.0
 40
32.0
 40
33.0
 40
33.0
 40
33.0
 40
34.0
 40
34.0
 40
34.0
 40
35.0
 40
35.0
 40
35.0
 40
36.0
 40
36.0
 40
36.0
 40
37.0
 40
37.0
 40
37.0
 40
38.0
 40
38.0
 40
38.0
 40
39.0
 40
39.0
 40
39.0
 40
40.0
 40
40.0
 40
40.0
 40
41.0
 40
41.0
 40
41.0
 40
42.0
 40
42.0
 40
42.0
 40
43.0
 40
43.0
 40
43.0
 40
44.0
 40
44.0
 40
44.0
 40
45.0
 40
45.0
 40
45.0
 40
46.0
 40
46.0
 40
46.0
 40
47.0
 40
47.0
 40
47.0
 40
48.0
 40
48.0
 40
48.0
 40
49.0
 40
49.0
 40
49.0
 40
50.0
 40
50.0
 40
50.0
 40
51.0
 40
51.0
 40
51.0
 40
52.0
 40
52.0
 40
52.0
 40
53.0
 40
53.0
 40
53.0
 40
54.0
 40
54.0
 40
54.0
 40
55.0
 40
55.0
 40
55.0
 40
56.0
 40
56.0
 40
56.0
 40
56.0
 10
89.8550033569336
 20
95.60600090026855
 10
89.8550033569336
 20
95.60600090026855
 10
91.69499969482422
 20
96.8070011138916
 10
91.69499969482422
 20
96.8070011138916
 10
91.96600341796875
 20
96.98400115966797
 10
92.3280029296875
 20
96.90800094604492
 10
92.50599670410156
 20
96.63700103759766
 10
92.68299865722656
 20
96.36600112915039
 10
92.60599517822266
 20
96.00300025939941
 10
92.33599853515625
 20
95.82600021362305
 10
92.33599853515625
 20
95.82600021362305
 10
92.00399780273438
 20
95.60900115966797
 10
92.00399780273438
 20
95.60900115966797
 10
92.00399780273438
 20
95.60900115966797
 10
92.44300079345703
 20
94.97100067138672
 10
92.44300079345703
 20
94.97100067138672
 10
93.01300048828125
 20
94.92700004577637
 10
93.9729995727539
 20
94.95499992370605
 10
94.56400299072266
 20
95.3080005645752
 10
94.71400451660156
 20
95.39700126647949
 10
94.83800506591797
 20
95.4680004119873
 10
94.94400024414062
 20
95.52300071716309
 10
94.91200256347656
 20
96.25200080871582
 10
94.75
 20
97.00699996948242
 10
94.4280014038086
 20
97.78800010681152
 10
91.04199981689453
 20
106.0179996490479
 10
74.38300323486328
 20
102.7889995574951
 10
65.52799987792969
 20
92.00199890136719
 10
65.40299987792969
 20
91.822998046875
 10
64.05899810791016
 20
90.05500030517578
 10
64.06600189208984
 20
90.0719985961914
 10
61.23600006103516
 20
86.08499908447266
 10
59.74500274658203
 20
81.51599884033203
 10
59.74500274658203
 20
76.75399780273438
 10
59.74500274658203
 20
76.37699890136719
 10
59.43900299072266
 20
76.07099914550781
 10
59.06200408935547
 20
76.07099914550781
 10
58.68500518798828
 20
76.07099914550781
 10
58.37900543212891
 20
76.37699890136719
 10
58.37900543212891
 20
76.75399780273438
 10
58.37900543212891
 20
81.24499893188477
 10
59.62500381469727
 20
85.57099914550781
 10
62.00700378417969
 20
89.44099807739258
 10
58.32600402832031
 20
88.47899627685547
 10
49.46300506591797
 20
87.18199920654297
 10
32.98600387573242
 20
90.11599731445312
 10
16.48999977111816
 20
93.05500030517578
 10
9.564000129699707
 20
83.9370002746582
 10
9.755000114440918
 20
73.49399948120117
 10
9.930000305175781
 20
63.9370002746582
 10
16.71699905395508
 20
60.58300018310547
 10
12.90200042724609
 20
58.57499694824219
 10
7.88800048828125
 20
55.93699645996094
 10
0.5069999694824219
 20
52.70899963378906
 10
8.784000396728516
 20
52.70899963378906
 10
25.42399978637695
 20
52.70899963378906
 10
25.26600074768066
 20
59.83499908447266
 10
24.80299949645996
 20
61.33000183105469
 10
24.77099990844727
 20
61.43400192260742
 10
24.86800003051758
 20
61.53000259399414
 10
24.96999931335449
 20
61.49500274658203
 10
26.33399963378906
 20
61.02400207519531
 10
31.96799850463867
 20
59.11500549316406
 10
36.54000091552734
 20
58.08700561523438
 10
35.8910026550293
 20
59.97800445556641
 10
35.56600189208984
 20
61.83200454711914
 10
35.29899978637695
 20
63.36800384521484
 10
35.29899978637695
 20
63.36800384521484
 10
35.22100067138672
 20
63.81600570678711
 10
35.22100067138672
 20
63.81600570678711
 10
34.26599884033203
 20
69.23400497436523
 10
35.29899978637695
 20
73.56400680541992
 10
35.34300231933594
 20
73.74600601196289
 10
35.43300247192383
 20
74.11300659179688
 10
35.802001953125
 20
74.33700561523438
 10
36.16900253295898
 20
74.24700546264648
 10
36.53600311279297
 20
74.1570053100586
 10
36.76000213623047
 20
73.78800582885742
 10
36.67000198364258
 20
73.42100524902344
 10
36.65400314331055
 20
73.3530044555664
 10
35.6670036315918
 20
69.15900421142578
 10
36.56600189208984
 20
64.05300521850586
 10
36.56600189208984
 20
64.05300521850586
 10
36.64500045776367
 20
63.60200500488281
 10
36.64500045776367
 20
63.60200500488281
 10
36.92399978637695
 20
61.99900436401367
 10
37.26900100708008
 20
60.02700805664062
 10
38.01100158691406
 20
58.05900573730469
 10
38.01100158691406
 20
58.05900573730469
 10
38.91300201416016
 20
55.99100494384766
 10
38.91300201416016
 20
55.99100494384766
 10
40.36600112915039
 20
53.16300201416016
 10
42.84400177001953
 20
50.54500579833984
 10
47.34200286865234
 20
49.19300842285156
 10
58.44000244140625
 20
45.8590087890625
 10
66.3270034790039
 20
48.56700897216797
 10
63.6300048828125
 20
49.54300689697266
 10
61.00300598144531
 20
50.49400329589844
 10
58.27600479125977
 20
50.59300994873047
 10
56.21400451660156
 20
51.05200958251953
 10
53.30500411987305
 20
51.69901275634766
 10
52.11400604248047
 20
52.64701080322266
 10
51.01000595092773
 20
54.54400634765625
 10
50.9580078125
 20
54.63300323486328
 10
50.11500549316406
 20
56.03200531005859
 10
52.11500549316406
 20
55.95200347900391
 10
54.44900512695312
 20
55.99900054931641
 10
58.4320068359375
 20
56.41699981689453
 10
64.92200469970703
 20
58.65299987792969
 10
69.07600402832031
 20
60.08399963378906
 10
72.59200286865234
 20
62.31800079345703
 10
75.55000305175781
 20
64.91999816894531
 10
75.55000305175781
 20
64.91999816894531
 10
75.53500366210938
 20
64.90399932861328
 10
75.53500366210938
 20
64.90399932861328
 10
75.53500366210938
 20
64.90399932861328
 10
76.21100616455078
 20
63.03099822998047
 10
75.58500671386719
 20
61.20800018310547
 10
75.25000762939453
 20
60.23200225830078
 10
73.74600982666016
 20
58.60299682617188
 10
71.77400970458984
 20
57.33599853515625
 10
66.6100082397461
 20
54.01999664306641
 10
72.84201049804688
 20
54.64399719238281
 10
76.1090087890625
 20
56.17599487304688
 10
83.37500762939453
 20
59.58399200439453
 10
80.92700958251953
 20
65.06199645996094
 10
80.44400787353516
 20
70.10299682617188
 10
80.44400787353516
 20
70.10299682617188
 10
80.43400573730469
 20
70.09299850463867
 10
80.43400573730469
 20
70.09299850463867
 10
85.51200866699219
 20
76.50499725341797
 10
88.07300567626953
 20
83.40999984741211
 10
88.94600677490234
 20
86.10499572753906
 10
84.82400512695312
 20
83.5459976196289
 10
80.3070068359375
 20
82.13799667358398
 10
80.0040054321289
 20
82.04499435424805
 10
79.93700408935547
 20
82.02499389648438
 10
79.87000274658203
 20
82.01499557495117
 10
79.80400848388672
 20
82.01499557495117
 10
79.51200866699219
 20
82.01499557495117
 10
79.24100494384766
 20
82.20399475097656
 10
79.15100860595703
 20
82.49799728393555
 10
79.04000854492188
 20
82.8589973449707
 10
79.24301147460938
 20
83.24099731445312
 10
79.60401153564453
 20
83.35199737548828
 10
79.6860122680664
 20
83.37699890136719
 10
85.47401428222656
 20
85.18299865722656
 10
89.79000854492188
 20
88.322998046875
 10
89.85501098632812
 20
88.43599700927734
 10
89.91600799560547
 20
88.52699661254883
 10
89.96100616455078
 20
88.57499694824219
 10
91.16000366210938
 20
89.83899688720703
 10
91.36100769042969
 20
92.86499786376953
 10
91.33900451660156
 20
94.15899658203125
 10
91.33900451660156
 20
94.15899658203125
 10
90.8550033569336
 20
94.86199569702148
 10
90.8550033569336
 20
94.86199569702148
 10
90.8550033569336
 20
94.86199569702148
 10
90.49200439453125
 20
94.62499618530273
 10
90.49200439453125
 20
94.62499618530273
 10
90.39300537109375
 20
94.56099700927734
 10
90.2820053100586
 20
94.52999687194824
 10
90.17200469970703
 20
94.52999687194824
 10
89.98100280761719
 20
94.52999687194824
 10
89.79300689697266
 20
94.62399673461914
 10
89.6810073852539
 20
94.7959976196289
 10
89.50700378417969
 20
95.06599998474121
 10
89.58399963378906
 20
95.42900085449219
 10
89.8550033569336
 20
95.60600090026855
 97
        0
 97
        0
 92
        1
 93
        1
 72
     4
 94
        3
 73
     0
 74
     1
 95
       26
 96
       22
 40
0.0
 40
0.0
 40
0.0
 40
0.0
 40
1.0
 40
1.0
 40
1.0
 40
2.0
 40
2.0
 40
2.0
 40
3.0
 40
3.0
 40
3.0
 40
4.0
 40
4.0
 40
4.0
 40
5.0
 40
5.0
 40
5.0
 40
6.0
 40
6.0
 40
6.0
 40
7.0
 40
7.0
 40
7.0
 40
7.0
 10
16.12299919128418
 20
84.17699813842773
 10
16.70899963378906
 20
84.64699935913086
 10
17.34299850463867
 20
85.03999710083008
 10
17.36999893188477
 20
85.05699920654297
 10
17.59999847412109
 20
85.1989974975586
 10
17.89999961853027
 20
85.12799835205078
 10
18.04199981689453
 20
84.89899826049805
 10
18.18400001525879
 20
84.66999816894531
 10
18.11299896240234
 20
84.36899948120117
 10
17.88399887084961
 20
84.22699737548828
 10
17.87799835205078
 20
84.22299575805664
 10
17.27199935913086
 20
83.84699630737305
 10
16.73399925231934
 20
83.41599655151367
 10
16.64399909973145
 20
83.34399795532227
 10
16.5359992980957
 20
83.30899810791016
 10
16.42899894714355
 20
83.30899810791016
 10
16.2859992980957
 20
83.30899810791016
 10
16.14399909973145
 20
83.37199783325195
 10
16.04799842834473
 20
83.49199676513672
 10
15.87899971008301
 20
83.70100021362305
 10
15.91300010681152
 20
84.00799942016602
 10
16.12299919128418
 20
84.17699813842773
 97
        0
 97
        0
 92
        1
 93
        1
 72
     4
 94
        3
 73
     0
 74
     1
 95
       26
 96
       22
 40
0.0
 40
0.0
 40
0.0
 40
0.0
 40
1.0
 40
1.0
 40
1.0
 40
2.0
 40
2.0
 40
2.0
 40
3.0
 40
3.0
 40
3.0
 40
4.0
 40
4.0
 40
4.0
 40
5.0
 40
5.0
 40
5.0
 40
6.0
 40
6.0
 40
6.0
 40
7.0
 40
7.0
 40
7.0
 40
7.0
 10
16.88199996948242
 20
55.26499938964844
 10
16.83099937438965
 20
55.25199890136719
 10
15.62399959564209
 20
54.94699859619141
 10
14.97299957275391
 20
54.83399963378906
 10
14.94499969482422
 20
54.82900238037109
 10
14.91699981689453
 20
54.82699584960938
 10
14.88899993896484
 20
54.82699584960938
 10
14.6560001373291
 20
54.82699584960938
 10
14.44999980926514
 20
54.99399566650391
 10
14.40900039672852
 20
55.23199462890625
 10
14.36300086975098
 20
55.49799346923828
 10
14.54100036621094
 20
55.74999237060547
 10
14.80600070953369
 20
55.79599761962891
 10
15.42000102996826
 20
55.90299987792969
 10
16.63000106811523
 20
56.20899963378906
 10
16.64200019836426
 20
56.21199798583984
 10
16.90299987792969
 20
56.27899932861328
 10
17.16900062561035
 20
56.1199951171875
 10
17.23500061035156
 20
55.85900115966797
 10
17.30200004577637
 20
55.59600067138672
 10
17.14399909973145
 20
55.33100128173828
 10
16.88199996948242
 20
55.26499938964844
 97
        0
 97
        0
 92
        1
 93
        1
 72
     4
 94
        3
 73
     0
 74
     1
 95
       26
 96
       22
 40
0.0
 40
0.0
 40
0.0
 40
0.0
 40
1.0
 40
1.0
 40
1.0
 40
2.0
 40
2.0
 40
2.0
 40
3.0
 40
3.0
 40
3.0
 40
4.0
 40
4.0
 40
4.0
 40
5.0
 40
5.0
 40
5.0
 40
6.0
 40
6.0
 40
6.0
 40
7.0
 40
7.0
 40
7.0
 40
7.0
 10
18.15399932861328
 20
55.70099639892578
 10
18.09799957275391
 20
55.67999267578125
 10
18.03999900817871
 20
55.66999816894531
 10
17.98399925231934
 20
55.66999816894531
 10
17.7859992980957
 20
55.66999816894531
 10
17.59999847412109
 20
55.79100036621094
 10
17.52699851989746
 20
55.98799896240234
 10
17.43299865722656
 20
56.24099731445312
 10
17.56199836730957
 20
56.52199554443359
 10
17.81399917602539
 20
56.61599731445312
 10
21.65299987792969
 20
58.04599761962891
 10
21.85799980163574
 20
60.65599822998047
 10
21.86499977111816
 20
60.76699829101562
 10
21.88199996948242
 20
61.03499984741211
 10
22.11999893188477
 20
61.24300003051758
 10
22.37899971008301
 20
61.22599792480469
 10
22.64699935913086
 20
61.21099853515625
 10
22.85300064086914
 20
60.98500061035156
 10
22.84000015258789
 20
60.71699523925781
 10
22.83300018310547
 20
60.58000183105469
 10
22.62700080871582
 20
57.36599731445312
 10
18.15399932861328
 20
55.70099639892578
 97
        0
 97
        0
 92
        1
 93
        1
 72
     4
 94
        3
 73
     0
 74
     1
 95
       29
 96
       25
 40
0.0
 40
0.0
 40
0.0
 40
0.0
 40
1.0
 40
1.0
 40
1.0
 40
2.0
 40
2.0
 40
2.0
 40
3.0
 40
3.0
 40
3.0
 40
4.0
 40
4.0
 40
4.0
 40
5.0
 40
5.0
 40
5.0
 40
6.0
 40
6.0
 40
6.0
 40
7.0
 40
7.0
 40
7.0
 40
8.0
 40
8.0
 40
8.0
 40
8.0
 10
24.26000022888184
 20
86.75500106811523
 10
24.23900032043457
 20
86.75400161743164
 10
22.11100006103516
 20
86.6760025024414
 10
19.38800048828125
 20
85.125
 10
19.3120002746582
 20
85.08200073242188
 10
19.22900009155273
 20
85.06100082397461
 10
19.14700126647949
 20
85.06100082397461
 10
18.97800064086914
 20
85.06100082397461
 10
18.81300163269043
 20
85.1500015258789
 10
18.72300148010254
 20
85.30800247192383
 10
18.59000205993652
 20
85.5420036315918
 10
18.67100143432617
 20
85.84000396728516
 10
18.90500068664551
 20
85.97400283813477
 10
21.85700035095215
 20
87.65600204467773
 10
24.14000129699707
 20
87.72900390625
 10
24.23600006103516
 20
87.73200225830078
 10
24.23999977111816
 20
87.73200225830078
 10
24.24399948120117
 20
87.73200225830078
 10
24.24799919128418
 20
87.73200225830078
 10
24.51199913024902
 20
87.73200225830078
 10
24.72900009155273
 20
87.52100372314453
 10
24.73600006103516
 20
87.25600051879883
 10
24.74200057983398
 20
86.98500061035156
 10
24.53000068664551
 20
86.76200103759766
 10
24.26000022888184
 20
86.75500106811523
 97
        0
 97
        0
 92
        1
 93
        1
 72
     4
 94
        3
 73
     0
 74
     1
 95
       26
 96
       22
 40
0.0
 40
0.0
 40
0.0
 40
0.0
 40
1.0
 40
1.0
 40
1.0
 40
2.0
 40
2.0
 40
2.0
 40
3.0
 40
3.0
 40
3.0
 40
4.0
 40
4.0
 40
4.0
 40
5.0
 40
5.0
 40
5.0
 40
6.0
 40
6.0
 40
6.0
 40
7.0
 40
7.0
 40
7.0
 40
7.0
 10
39.35800170898438
 20
64.15399932861328
 10
39.32500076293945
 20
64.14699935913086
 10
39.29199981689453
 20
64.14400100708008
 10
39.25900268554688
 20
64.14400100708008
 10
39.03200149536133
 20
64.14400100708008
 10
38.82900238037109
 20
64.3030014038086
 10
38.78200149536133
 20
64.53400039672852
 10
37.99500274658203
 20
68.35900115966797
 10
38.74600219726562
 20
72.9739990234375
 10
38.77900314331055
 20
73.16899871826172
 10
38.82300186157227
 20
73.43499755859375
 10
39.07400131225586
 20
73.61499786376953
 10
39.34000396728516
 20
73.56999969482422
 10
39.60600280761719
 20
73.5260009765625
 10
39.78600311279297
 20
73.27399826049805
 10
39.74200439453125
 20
73.00899887084961
 10
39.73400497436523
 20
72.96299743652344
 10
38.98900604248047
 20
68.375
 10
39.73900604248047
 20
64.73099899291992
 10
39.79199981689453
 20
64.46599960327148
 10
39.62200164794922
 20
64.20800018310547
 10
39.35800170898438
 20
64.15399932861328
 97
        0
 97
        0
 92
        1
 93
        1
 72
     4
 94
        3
 73
     0
 74
     1
 95
       17
 96
       13
 40
0.0
 40
0.0
 40
0.0
 40
0.0
 40
1.0
 40
1.0
 40
1.0
 40
2.0
 40
2.0
 40
2.0
 40
3.0
 40
3.0
 40
3.0
 40
4.0
 40
4.0
 40
4.0
 40
4.0
 10
83.23200225830078
 20
93.73200035095215
 10
82.38999938964844
 20
93.73200035095215
 10
81.70500183105469
 20
94.41699981689453
 10
81.70500183105469
 20
95.25900077819824
 10
81.70500183105469
 20
96.10100173950195
 10
82.38999938964844
 20
96.78600120544434
 10
83.23200225830078
 20
96.78600120544434
 10
84.07400512695312
 20
96.78600120544434
 10
84.75900268554688
 20
96.10100173950195
 10
84.75900268554688
 20
95.25900077819824
 10
84.75900268554688
 20
94.41799926757812
 10
84.0739974975586
 20
93.73200035095215
 10
83.23200225830078
 20
93.73200035095215
 97
        0
 97
        0
 92
        1
 93
        1
 72
     4
 94
        3
 73
     0
 74
     1
 95
       17
 96
       13
 40
0.0
 40
0.0
 40
0.0
 40
0.0
 40
1.0
 40
1.0
 40
1.0
 40
2.0
 40
2.0
 40
2.0
 40
3.0
 40
3.0
 40
3.0
 40
4.0
 40
4.0
 40
4.0
 40
4.0
 10
83.78299713134766
 20
95.26000022888184
 10
83.78299713134766
 20
94.95599937438965
 10
83.53599548339844
 20
94.70899963378906
 10
83.23199462890625
 20
94.70899963378906
 10
82.92799377441406
 20
94.70899963378906
 10
82.68099212646484
 20
94.95599937438965
 10
82.68099212646484
 20
95.26000022888184
 10
82.68099212646484
 20
95.56400108337402
 10
82.92799377441406
 20
95.81100082397461
 10
83.23199462890625
 20
95.81100082397461
 10
83.53599548339844
 20
95.81100082397461
 10
83.78299713134766
 20
95.56399917602539
 10
83.78299713134766
 20
95.26000022888184
 97
        0
 97
        0
 92
        1
 93
        1
 72
     4
 94
        3
 73
     0
 74
     1
 95
       17
 96
       13
 40
0.0
 40
0.0
 40
0.0
 40
0.0
 40
1.0
 40
1.0
 40
1.0
 40
2.0
 40
2.0
 40
2.0
 40
3.0
 40
3.0
 40
3.0
 40
4.0
 40
4.0
 40
4.0
 40
4.0
 10
92.91500091552734
 20
93.58399963378906
 10
93.46900177001953
 20
93.58399963378906
 10
94.16799926757812
 20
93.6520004272461
 10
94.79800415039062
 20
93.9060001373291
 10
94.42100524902344
 20
92.24499893188477
 10
93.37700653076172
 20
90.74499893188477
 10
92.00200653076172
 20
89.42300033569336
 10
92.54600524902344
 20
90.89200210571289
 10
92.67601013183594
 20
92.5989990234375
 10
92.7020034790039
 20
93.5880012512207
 10
92.77100372314453
 20
93.58600044250488
 10
92.84100341796875
 20
93.58399963378906
 10
92.91500091552734
 20
93.58399963378906
 97
        0
 97
        0
 75
     2
 76
     1
 98
        0
  0
ENDSEC
  0
SECTION
  2
OBJECTS
  0
DICTIONARY
  5
C
330
0
100
AcDbDictionary
281
     1
  3
ACAD_GROUP
350
D
  3
ACAD_LAYOUT
350
1A
  3
ACAD_MATERIAL
350
3B
  3
ACAD_MLEADERSTYLE
350
4C
  3
ACAD_MLINESTYLE
350
17
  3
ACAD_PLOTSETTINGS
350
19
  3
ACAD_PLOTSTYLENAME
350
E
  3
ACAD_TABLESTYLE
350
4B
  3
ACAD_VISUALSTYLE
350
2A
  0
SUN
  5
3F
330
29
100
AcDbSun
 90
        1
290
     0
 63
     7
421
 16777215
 40
1.0
291
     1
 91
  2455826
 92
 54000000
292
     0
 70
     2
 71
   256
280
     1
  0
DICTIONARY
  5
D
102
{ACAD_REACTORS
330
C
102
}
330
C
100
AcDbDictionary
281
     1
  0
DICTIONARY
  5
1A
102
{ACAD_REACTORS
330
C
102
}
330
C
100
AcDbDictionary
281
     1
  3
Layout1
350
1E
  3
Layout2
350
26
  3
Model
350
22
  0
DICTIONARY
  5
3B
102
{ACAD_REACTORS
330
C
102
}
330
C
100
AcDbDictionary
281
     1
  3
ByBlock
350
3D
  3
ByLayer
350
3C
  3
Global
350
3E
  0
DICTIONARY
  5
4C
102
{ACAD_REACTORS
330
C
102
}
330
C
100
AcDbDictionary
281
     1
  0
DICTIONARY
  5
17
102
{ACAD_REACTORS
330
C
102
}
330
C
100
AcDbDictionary
281
     1
  3
Standard
350
18
  0
DICTIONARY
  5
19
102
{ACAD_REACTORS
330
C
102
}
330
C
100
AcDbDictionary
281
     1
  0
ACDBDICTIONARYWDFLT
  5
E
102
{ACAD_REACTORS
330
C
102
}
330
C
100
AcDbDictionary
281
     1
  3
Normal
350
F
100
AcDbDictionaryWithDefault
340
F
  0
DICTIONARY
  5
4B
102
{ACAD_REACTORS
330
C
102
}
330
C
100
AcDbDictionary
281
     1
  0
DICTIONARY
  5
2A
102
{ACAD_REACTORS
330
C
102
}
330
C
100
AcDbDictionary
281
     1
  3
2dWireframe
350
2F
  3
3D Hidden
350
31
  3
3dWireframe
350
30
  3
Basic
350
32
  3
Brighten
350
36
  3
ColorChange
350
3A
  3
Conceptual
350
34
  3
Dim
350
35
  3
Facepattern
350
39
  3
Flat
350
2B
  3
FlatWithEdges
350
2C
  3
Gouraud
350
2D
  3
GouraudWithEdges
350
2E
  3
Linepattern
350
38
  3
Realistic
350
33
  3
Thicken
350
37
  0
LAYOUT
  5
1E
102
{ACAD_REACTORS
330
1A
102
}
330
1A
100
AcDbPlotSettings
  1

  2
none_device
  4

  6

 40
0.0
 41
0.0
 42
0.0
 43
0.0
 44
0.0
 45
0.0
 46
0.0
 47
0.0
 48
0.0
 49
0.0
140
0.0
141
0.0
142
1.0
143
1.0
 70
   688
 72
     0
 73
     0
 74
     5
  7

 75
    16
 76
     0
 77
     2
 78
   300
147
1.0
148
0.0
149
0.0
100
AcDbLayout
  1
Layout1
 70
     1
 71
     1
 10
0.0
 20
0.0
 11
12.0
 21
9.0
 12
0.0
 22
0.0
 32
0.0
 14
1.000000000000000E+20
 24
1.000000000000000E+20
 34
1.000000000000000E+20
 15
-1.000000000000000E+20
 25
-1.000000000000000E+20
 35
-1.000000000000000E+20
146
0.0
 13
0.0
 23
0.0
 33
0.0
 16
1.0
 26
0.0
 36
0.0
 17
0.0
 27
1.0
 37
0.0
 76
     0
330
1B
  0
LAYOUT
  5
26
102
{ACAD_REACTORS
330
1A
102
}
330
1A
100
AcDbPlotSettings
  1

  2
none_device
  4

  6

 40
0.0
 41
0.0
 42
0.0
 43
0.0
 44
0.0
 45
0.0
 46
0.0
 47
0.0
 48
0.0
 49
0.0
140
0.0
141
0.0
142
1.0
143
1.0
 70
   688
 72
     0
 73
     0
 74
     5
  7

 75
    16
 76
     0
 77
     2
 78
   300
147
1.0
148
0.0
149
0.0
100
AcDbLayout
  1
Layout2
 70
     1
 71
     2
 10
0.0
 20
0.0
 11
0.0
 21
0.0
 12
0.0
 22
0.0
 32
0.0
 14
0.0
 24
0.0
 34
0.0
 15
0.0
 25
0.0
 35
0.0
146
0.0
 13
0.0
 23
0.0
 33
0.0
 16
1.0
 26
0.0
 36
0.0
 17
0.0
 27
1.0
 37
0.0
 76
     0
330
23
  0
LAYOUT
  5
22
102
{ACAD_REACTORS
330
1A
102
}
330
1A
100
AcDbPlotSettings
  1

  2
none_device
  4

  6

 40
0.0
 41
0.0
 42
0.0
 43
0.0
 44
0.0
 45
0.0
 46
0.0
 47
0.0
 48
0.0
 49
0.0
140
0.0
141
0.0
142
1.0
143
1.0
 70
  1712
 72
     0
 73
     0
 74
     0
  7

 75
     0
 76
     0
 77
     2
 78
   300
147
1.0
148
0.0
149
0.0
100
AcDbLayout
  1
Model
 70
     1
 71
     0
 10
0.0
 20
0.0
 11
12.0
 21
9.0
 12
0.0
 22
0.0
 32
0.0
 14
1.000000000000000E+20
 24
1.000000000000000E+20
 34
1.000000000000000E+20
 15
-1.000000000000000E+20
 25
-1.000000000000000E+20
 35
-1.000000000000000E+20
146
0.0
 13
0.0
 23
0.0
 33
0.0
 16
1.0
 26
0.0
 36
0.0
 17
0.0
 27
1.0
 37
0.0
 76
     0
330
1F
331
29
  0
MATERIAL
  5
3D
102
{ACAD_REACTORS
330
3B
102
}
330
3B
100
AcDbMaterial
  1
ByBlock
 72
     1
 94
      127
  0
MATERIAL
  5
3C
102
{ACAD_REACTORS
330
3B
102
}
330
3B
100
AcDbMaterial
  1
ByLayer
 72
     1
 94
      127
  0
MATERIAL
  5
3E
102
{ACAD_REACTORS
330
3B
102
}
330
3B
100
AcDbMaterial
  1
Global
 72
     1
 94
      127
  0
MLINESTYLE
  5
18
102
{ACAD_REACTORS
330
17
102
}
330
17
100
AcDbMlineStyle
  2
Standard
 70
     0
  3

 62
   256
 51
90.0
 52
90.0
 71
     2
 49
0.5
 62
   256
  6
BYLAYER
 49
-0.5
 62
   256
  6
BYLAYER
  0
ACDBPLACEHOLDER
  5
F
102
{ACAD_REACTORS
330
E
102
}
330
E
  0
VISUALSTYLE
  5
2F
102
{ACAD_REACTORS
330
2A
102
}
330
2A
100
AcDbVisualStyle
  2
2dWireframe
 70
     4
177
     2
291
     0
 71
     0
176
     1
 72
     2
176
     1
 73
     0
176
     1
 90
        0
176
     1
 40
-0.6
176
     1
 41
-30.0
176
     1
 62
     5
 63
     7
421
 16777215
176
     1
 74
     1
176
     1
 91
        4
176
     1
 64
     7
176
     1
 65
   257
176
     1
 75
     1
176
     1
175
     1
176
     1
 42
1.0
176
     1
 92
        0
176
     1
 66
   257
176
     1
 43
1.0
176
     1
 76
     1
176
     1
 77
     6
176
     1
 78
     2
176
     1
 67
     7
176
     1
 79
     5
176
     1
170
     0
176
     1
171
     0
176
     1
290
     0
176
     1
 93
        1
176
     1
 44
0.0
176
     1
173
     0
176
     1
  0
VISUALSTYLE
  5
31
102
{ACAD_REACTORS
330
2A
102
}
330
2A
100
AcDbVisualStyle
  2
3D Hidden
 70
     6
177
     2
291
     0
 71
     1
176
     1
 72
     2
176
     1
 73
     2
176
     1
 90
        0
176
     1
 40
-0.6
176
     1
 41
-30.0
176
     1
 62
     5
 63
     7
421
 16777215
176
     1
 74
     2
176
     1
 91
        2
176
     1
 64
     7
176
     1
 65
   257
176
     1
 75
     2
176
     1
175
     1
176
     1
 42
40.0
176
     1
 92
        0
176
     1
 66
   257
176
     1
 43
1.0
176
     1
 76
     1
176
     1
 77
     6
176
     1
 78
     2
176
     1
 67
     7
176
     1
 79
     3
176
     1
170
     0
176
     1
171
     0
176
     1
290
     0
176
     1
 93
        1
176
     1
 44
0.0
176
     1
173
     0
176
     1
  0
VISUALSTYLE
  5
30
102
{ACAD_REACTORS
330
2A
102
}
330
2A
100
AcDbVisualStyle
  2
3dWireframe
 70
     5
177
     2
291
     0
 71
     0
176
     1
 72
     2
176
     1
 73
     0
176
     1
 90
        0
176
     1
 40
-0.6
176
     1
 41
-30.0
176
     1
 62
     5
 63
     7
421
 16777215
176
     1
 74
     1
176
     1
 91
        4
176
     1
 64
     7
176
     1
 65
   257
176
     1
 75
     1
176
     1
175
     1
176
     1
 42
1.0
176
     1
 92
        0
176
     1
 66
   257
176
     1
 43
1.0
176
     1
 76
     1
176
     1
 77
     6
176
     1
 78
     2
176
     1
 67
     7
176
     1
 79
     5
176
     1
170
     0
176
     1
171
     0
176
     1
290
     0
176
     1
 93
        1
176
     1
 44
0.0
176
     1
173
     0
176
     1
  0
VISUALSTYLE
  5
32
102
{ACAD_REACTORS
330
2A
102
}
330
2A
100
AcDbVisualStyle
  2
Basic
 70
     7
177
     2
291
     1
 71
     1
176
     1
 72
     0
176
     1
 73
     1
176
     1
 90
        0
176
     1
 40
-0.6
176
     1
 41
-30.0
176
     1
 62
     5
 63
     7
421
 16777215
176
     1
 74
     0
176
     1
 91
        4
176
     1
 64
     7
176
     1
 65
   257
176
     1
 75
     1
176
     1
175
     1
176
     1
 42
1.0
176
     1
 92
        8
176
     1
 66
     7
176
     1
 43
1.0
176
     1
 76
     1
176
     1
 77
     6
176
     1
 78
     2
176
     1
 67
     7
176
     1
 79
     5
176
     1
170
     0
176
     1
171
     0
176
     1
290
     0
176
     1
 93
        1
176
     1
 44
0.0
176
     1
173
     0
176
     1
  0
VISUALSTYLE
  5
36
102
{ACAD_REACTORS
330
2A
102
}
330
2A
100
AcDbVisualStyle
  2
Brighten
 70
    12
177
     2
291
     1
 71
     2
176
     1
 72
     2
176
     1
 73
     0
176
     1
 90
        0
176
     1
 40
-0.6
176
     1
 41
-30.0
176
     1
 62
     5
 63
     7
421
 16777215
176
     1
 74
     1
176
     1
 91
        4
176
     1
 64
     7
176
     1
 65
   257
176
     1
 75
     1
176
     1
175
     1
176
     1
 42
1.0
176
     1
 92
        8
176
     1
 66
     7
176
     1
 43
1.0
176
     1
 76
     1
176
     1
 77
     6
176
     1
 78
     2
176
     1
 67
     7
176
     1
 79
     5
176
     1
170
     0
176
     1
171
     0
176
     1
290
     0
176
     1
 93
        1
176
     1
 44
50.0
176
     1
173
     0
176
     1
  0
VISUALSTYLE
  5
3A
102
{ACAD_REACTORS
330
2A
102
}
330
2A
100
AcDbVisualStyle
  2
ColorChange
 70
    16
177
     2
291
     1
 71
     2
176
     1
 72
     2
176
     1
 73
     3
176
     1
 90
        0
176
     1
 40
-0.6
176
     1
 41
-30.0
176
     1
 62
     5
 63
     8
421
  8421504
176
     1
 74
     1
176
     1
 91
        4
176
     1
 64
     7
176
     1
 65
   257
176
     1
 75
     1
176
     1
175
     1
176
     1
 42
1.0
176
     1
 92
        8
176
     1
 66
     8
424
  8421504
176
     1
 43
1.0
176
     1
 76
     1
176
     1
 77
     6
176
     1
 78
     2
176
     1
 67
     7
176
     1
 79
     5
176
     1
170
     0
176
     1
171
     0
176
     1
290
     0
176
     1
 93
        1
176
     1
 44
0.0
176
     1
173
     0
176
     1
  0
VISUALSTYLE
  5
34
102
{ACAD_REACTORS
330
2A
102
}
330
2A
100
AcDbVisualStyle
  2
Conceptual
 70
     9
177
     2
291
     0
 71
     3
176
     1
 72
     2
176
     1
 73
     0
176
     1
 90
        0
176
     1
 40
-0.6
176
     1
 41
-30.0
176
     1
 62
     5
 63
     7
421
 16777215
176
     1
 74
     2
176
     1
 91
        2
176
     1
 64
     7
176
     1
 65
   257
176
     1
 75
     1
176
     1
175
     1
176
     1
 42
40.0
176
     1
 92
        8
176
     1
 66
     7
176
     1
 43
1.0
176
     1
 76
     1
176
     1
 77
     6
176
     1
 78
     2
176
     1
 67
     7
176
     1
 79
     3
176
     1
170
     0
176
     1
171
     0
176
     1
290
     0
176
     1
 93
        1
176
     1
 44
0.0
176
     1
173
     0
176
     1
  0
VISUALSTYLE
  5
35
102
{ACAD_REACTORS
330
2A
102
}
330
2A
100
AcDbVisualStyle
  2
Dim
 70
    11
177
     2
291
     1
 71
     2
176
     1
 72
     2
176
     1
 73
     0
176
     1
 90
        0
176
     1
 40
-0.6
176
     1
 41
-30.0
176
     1
 62
     5
 63
     7
421
 16777215
176
     1
 74
     1
176
     1
 91
        4
176
     1
 64
     7
176
     1
 65
   257
176
     1
 75
     1
176
     1
175
     1
176
     1
 42
1.0
176
     1
 92
        8
176
     1
 66
     7
176
     1
 43
1.0
176
     1
 76
     1
176
     1
 77
     6
176
     1
 78
     2
176
     1
 67
     7
176
     1
 79
     5
176
     1
170
     0
176
     1
171
     0
176
     1
290
     0
176
     1
 93
        1
176
     1
 44
-50.0
176
     1
173
     0
176
     1
  0
VISUALSTYLE
  5
39
102
{ACAD_REACTORS
330
2A
102
}
330
2A
100
AcDbVisualStyle
  2
Facepattern
 70
    15
177
     2
291
     1
 71
     2
176
     1
 72
     2
176
     1
 73
     0
176
     1
 90
        0
176
     1
 40
-0.6
176
     1
 41
-30.0
176
     1
 62
     5
 63
     7
421
 16777215
176
     1
 74
     1
176
     1
 91
        4
176
     1
 64
     7
176
     1
 65
   257
176
     1
 75
     1
176
     1
175
     1
176
     1
 42
1.0
176
     1
 92
        8
176
     1
 66
     7
176
     1
 43
1.0
176
     1
 76
     1
176
     1
 77
     6
176
     1
 78
     2
176
     1
 67
     7
176
     1
 79
     5
176
     1
170
     0
176
     1
171
     0
176
     1
290
     0
176
     1
 93
        1
176
     1
 44
0.0
176
     1
173
     0
176
     1
  0
VISUALSTYLE
  5
2B
102
{ACAD_REACTORS
330
2A
102
}
330
2A
100
AcDbVisualStyle
  2
Flat
 70
     0
177
     2
291
     1
 71
     2
176
     1
 72
     1
176
     1
 73
     1
176
     1
 90
        2
176
     1
 40
-0.6
176
     1
 41
30.0
176
     1
 62
     5
 63
     7
421
 16777215
176
     1
 74
     0
176
     1
 91
        4
176
     1
 64
     7
176
     1
 65
   257
176
     1
 75
     1
176
     1
175
     1
176
     1
 42
1.0
176
     1
 92
        8
176
     1
 66
     7
176
     1
 43
1.0
176
     1
 76
     1
176
     1
 77
     6
176
     1
 78
     2
176
     1
 67
     7
176
     1
 79
     5
176
     1
170
     0
176
     1
171
     0
176
     1
290
     0
176
     1
 93
       13
176
     1
 44
0.0
176
     1
173
     0
176
     1
  0
VISUALSTYLE
  5
2C
102
{ACAD_REACTORS
330
2A
102
}
330
2A
100
AcDbVisualStyle
  2
FlatWithEdges
 70
     1
177
     2
291
     1
 71
     2
176
     1
 72
     1
176
     1
 73
     1
176
     1
 90
        2
176
     1
 40
-0.6
176
     1
 41
30.0
176
     1
 62
     5
 63
     7
421
 16777215
176
     1
 74
     1
176
     1
 91
        4
176
     1
 64
     7
176
     1
 65
   257
176
     1
 75
     1
176
     1
175
     1
176
     1
 42
1.0
176
     1
 92
        0
176
     1
 66
   257
176
     1
 43
1.0
176
     1
 76
     1
176
     1
 77
     6
176
     1
 78
     2
176
     1
 67
     7
176
     1
 79
     5
176
     1
170
     0
176
     1
171
     0
176
     1
290
     0
176
     1
 93
       13
176
     1
 44
0.0
176
     1
173
     0
176
     1
  0
VISUALSTYLE
  5
2D
102
{ACAD_REACTORS
330
2A
102
}
330
2A
100
AcDbVisualStyle
  2
Gouraud
 70
     2
177
     2
291
     1
 71
     2
176
     1
 72
     2
176
     1
 73
     1
176
     1
 90
        2
176
     1
 40
-0.6
176
     1
 41
30.0
176
     1
 62
     5
 63
     7
421
 16777215
176
     1
 74
     0
176
     1
 91
        4
176
     1
 64
     7
176
     1
 65
   257
176
     1
 75
     1
176
     1
175
     1
176
     1
 42
1.0
176
     1
 92
        0
176
     1
 66
     7
176
     1
 43
1.0
176
     1
 76
     1
176
     1
 77
     6
176
     1
 78
     2
176
     1
 67
     7
176
     1
 79
     5
176
     1
170
     0
176
     1
171
     0
176
     1
290
     0
176
     1
 93
       13
176
     1
 44
0.0
176
     1
173
     0
176
     1
  0
VISUALSTYLE
  5
2E
102
{ACAD_REACTORS
330
2A
102
}
330
2A
100
AcDbVisualStyle
  2
GouraudWithEdges
 70
     3
177
     2
291
     1
 71
     2
176
     1
 72
     2
176
     1
 73
     1
176
     1
 90
        2
176
     1
 40
-0.6
176
     1
 41
30.0
176
     1
 62
     5
 63
     7
421
 16777215
176
     1
 74
     1
176
     1
 91
        4
176
     1
 64
     7
176
     1
 65
   257
176
     1
 75
     1
176
     1
175
     1
176
     1
 42
1.0
176
     1
 92
        0
176
     1
 66
   257
176
     1
 43
1.0
176
     1
 76
     1
176
     1
 77
     6
176
     1
 78
     2
176
     1
 67
     7
176
     1
 79
     5
176
     1
170
     0
176
     1
171
     0
176
     1
290
     0
176
     1
 93
       13
176
     1
 44
0.0
176
     1
173
     0
176
     1
  0
VISUALSTYLE
  5
38
102
{ACAD_REACTORS
330
2A
102
}
330
2A
100
AcDbVisualStyle
  2
Linepattern
 70
    14
177
     2
291
     1
 71
     2
176
     1
 72
     2
176
     1
 73
     0
176
     1
 90
        0
176
     1
 40
-0.6
176
     1
 41
-30.0
176
     1
 62
     5
 63
     7
421
 16777215
176
     1
 74
     1
176
     1
 91
        4
176
     1
 64
     7
176
     1
 65
   257
176
     1
 75
     7
176
     1
175
     7
176
     1
 42
1.0
176
     1
 92
        8
176
     1
 66
     7
176
     1
 43
1.0
176
     1
 76
     1
176
     1
 77
     6
176
     1
 78
     2
176
     1
 67
     7
176
     1
 79
     5
176
     1
170
     0
176
     1
171
     0
176
     1
290
     0
176
     1
 93
        1
176
     1
 44
0.0
176
     1
173
     0
176
     1
  0
VISUALSTYLE
  5
33
102
{ACAD_REACTORS
330
2A
102
}
330
2A
100
AcDbVisualStyle
  2
Realistic
 70
     8
177
     2
291
     0
 71
     2
176
     1
 72
     2
176
     1
 73
     0
176
     1
 90
        0
176
     1
 40
-0.6
176
     1
 41
-30.0
176
     1
 62
     5
 63
     7
421
 16777215
176
     1
 74
     1
176
     1
 91
        0
176
     1
 64
     7
176
     1
 65
   257
176
     1
 75
     1
176
     1
175
     1
176
     1
 42
1.0
176
     1
 92
        8
176
     1
 66
     8
424
  7895160
176
     1
 43
1.0
176
     1
 76
     1
176
     1
 77
     6
176
     1
 78
     2
176
     1
 67
     7
176
     1
 79
     5
176
     1
170
     0
176
     1
171
     0
176
     1
290
     0
176
     1
 93
       13
176
     1
 44
0.0
176
     1
173
     0
176
     1
  0
VISUALSTYLE
  5
37
102
{ACAD_REACTORS
330
2A
102
}
330
2A
100
AcDbVisualStyle
  2
Thicken
 70
    13
177
     2
291
     1
 71
     2
176
     1
 72
     2
176
     1
 73
     0
176
     1
 90
        0
176
     1
 40
-0.6
176
     1
 41
-30.0
176
     1
 62
     5
 63
     7
421
 16777215
176
     1
 74
     1
176
     1
 91
        4
176
     1
 64
     7
176
     1
 65
   257
176
     1
 75
     1
176
     1
175
     1
176
     1
 42
1.0
176
     1
 92
       12
176
     1
 66
     7
176
     1
 43
1.0
176
     1
 76
     1
176
     1
 77
     6
176
     1
 78
     2
176
     1
 67
     7
176
     1
 79
     5
176
     1
170
     0
176
     1
171
     0
176
     1
290
     0
176
     1
 93
        1
176
     1
 44
0.0
176
     1
173
     0
176
     1
  0
ENDSEC
  0
EOF
