<?xml version="1.0" encoding="utf-8"?>
<!-- Generator: Adobe Illustrator 19.2.1, SVG Export Plug-In . SVG Version: 6.00 Build 0)  -->
<svg version="1.1" id="Layer_1" xmlns="http://www.w3.org/2000/svg" xmlns:xlink="http://www.w3.org/1999/xlink" x="0px" y="0px"
	 viewBox="0 0 100 125" style="enable-background:new 0 0 100 125;" xml:space="preserve">
<path d="M89.9,29.4l1.8-1.2c0.3-0.2,0.6-0.1,0.8,0.2c0.2,0.3,0.1,0.6-0.2,0.8L92,29.4l0.4,0.6c0.6,0,1.5,0,2.1-0.3
	c0.2-0.1,0.3-0.2,0.4-0.2c0-0.7-0.2-1.5-0.5-2.3c-3.4-8.2-20-5-28.9,5.8c-0.1,0.2-1.5,1.9-1.5,1.9c-2.8,4-4.3,8.6-4.3,13.3
	c0,0.4-0.3,0.7-0.7,0.7s-0.7-0.3-0.7-0.7c0-4.5,1.2-8.8,3.6-12.7c-3.7,1-12.5,2.3-29-0.7C16.5,31.9,9.6,41.1,9.8,51.5
	c0.2,9.6,7,12.9,3.1,14.9c-5,2.6-12.4,5.9-4.1,5.9c16.6,0,16.5-7.1,16-8.6c0-0.1,0.1-0.2,0.2-0.2c1.4,0.5,7,2.4,11.6,3.4
	c-0.6-1.9-1-3.7-1.2-5.3l-0.1-0.4c-1-5.4,0.1-9.7,0.1-9.9c0.1-0.4,0.5-0.6,0.8-0.5s0.6,0.5,0.5,0.8c0,0.1-1,4.3-0.1,9.4l0.1,0.5
	c0.3,1.6,0.6,3.6,1.4,5.5l0.9,2.1c1.5,2.8,3.9,5.4,8.4,6.8c11.1,3.3,19,0.6,16.3-0.3c-2.6-1-5.4-1.1-7.4-1.5
	c-2.9-0.6-4.1-1.6-5.2-3.5c-0.1-0.2-1-1.6,1-1.6c2.3,0,6.3-0.5,12.8-2.7c4.2-1.4,7.7-3.7,10.6-6.3l0,0c0,0,0.7,1.9,0.1,3.7
	c-0.3,1-1.8,2.6-3.8,3.9c-5.2,3.3,1.1,2.7,4.3,1.2c7.3-3.4,4.8-8.9,4.3-13.9l0,0c5.1-6.4,7.6-13.3,8.5-16c-4.1,2.6-8.6,4-8.9,4.1
	c-0.1,0-0.1,0-0.2,0c-0.3,0-0.6-0.2-0.7-0.5c-0.1-0.4,0.1-0.7,0.5-0.9c0.1,0,5.9-1.8,10.2-5c0.1-0.1,0.1-0.2,0.2-0.3
	c1.2-1.3,1.4-4.3,1.4-5.6L90.9,30l-0.4,0.2c-0.1,0.1-0.2,0.1-0.3,0.1c-0.2,0-0.4-0.1-0.5-0.3C89.5,29.9,89.6,29.6,89.9,29.4z
	 M16.1,40.8c0.6-0.5,1.2-0.9,1.2-0.9c0.2-0.1,0.5-0.1,0.7,0.2s0.1,0.5-0.2,0.7c0,0-0.6,0.4-1.1,0.8c-0.1,0.1-0.2,0.1-0.3,0.1
	c-0.1,0-0.3-0.1-0.4-0.2C15.9,41.3,15.9,41,16.1,40.8z M16.9,69.7c-0.1,0-1.3,0.3-1.9,0.4h-0.1c-0.2,0-0.4-0.2-0.5-0.4
	c0-0.3,0.1-0.5,0.4-0.6c0.6-0.1,1.8-0.4,1.8-0.4c0.3-0.1,0.5,0.1,0.6,0.4S17.1,69.7,16.9,69.7z M18.2,69.3c-0.1,0-0.1,0-0.2,0
	c-0.2,0-0.4-0.1-0.5-0.3c-0.1-0.3,0-0.5,0.3-0.6c3.8-1.4,4-4,4.1-4.2c0-0.3,0.3-0.5,0.5-0.5c0.3,0,0.5,0.2,0.5,0.5
	C22.8,64.4,22.6,67.6,18.2,69.3z M24.3,38.2c0,0-2.1,0.1-4.9,1.6c-0.1,0-0.2,0.1-0.2,0.1c-0.2,0-0.3-0.1-0.4-0.2
	c-0.1-0.2-0.1-0.5,0.2-0.7c3-1.7,5.2-1.8,5.3-1.8l0,0c0.3,0,0.5,0.2,0.5,0.5C24.7,38,24.5,38.2,24.3,38.2z M39.4,60.8
	C39.3,60.9,39.3,60.9,39.4,60.8c-0.3,0-0.5-0.1-0.6-0.4c-0.8-3.8,0-8.4,0-8.6c0-0.3,0.3-0.4,0.6-0.4s0.4,0.3,0.4,0.6
	c0,0-0.8,4.6,0,8.3C39.8,60.5,39.6,60.8,39.4,60.8z M83.2,31.3c-0.8,0-1.5-0.7-1.5-1.5s0.7-1.5,1.5-1.5s1.5,0.7,1.5,1.5
	C84.8,30.6,84.1,31.3,83.2,31.3z"/>
</svg>
