  0
SECTION
  2
HEADER
  9
$ACADVER
  1
AC1024
  9
$ACADMAINTVER
 70
     6
  9
$DWGCODEPAGE
  3
UNDEFINED
  9
$INSBASE
 10
0.0
 20
0.0
 30
0.0
  9
$EXTMIN
 10
1.000000000000000E+20
 20
1.000000000000000E+20
 30
1.000000000000000E+20
  9
$EXTMAX
 10
-1.000000000000000E+20
 20
-1.000000000000000E+20
 30
-1.000000000000000E+20
  9
$LIMMIN
 10
0.0
 20
0.0
  9
$LIMMAX
 10
12.0
 20
9.0
  9
$ORTHOMODE
 70
     0
  9
$REGENMODE
 70
     1
  9
$FILLMODE
 70
     1
  9
$QTEXTMODE
 70
     0
  9
$MIRRTEXT
 70
     1
  9
$LTSCALE
 40
1.0
  9
$ATTMODE
 70
     1
  9
$TEXTSIZE
 40
0.2
  9
$TRACEWID
 40
0.05
  9
$TEXTSTYLE
  7
Standard
  9
$CLAYER
  8
0
  9
$CELTYPE
  6
ByLayer
  9
$CECOLOR
 62
   256
  9
$CELTSCALE
 40
1.0
  9
$DISPSILH
 70
     0
  9
$DIMSCALE
 40
1.0
  9
$DIMASZ
 40
0.18
  9
$DIMEXO
 40
0.0625
  9
$DIMDLI
 40
0.38
  9
$DIMRND
 40
0.0
  9
$DIMDLE
 40
0.0
  9
$DIMEXE
 40
0.18
  9
$DIMTP
 40
0.0
  9
$DIMTM
 40
0.0
  9
$DIMTXT
 40
0.18
  9
$DIMCEN
 40
0.09
  9
$DIMTSZ
 40
0.0
  9
$DIMTOL
 70
     0
  9
$DIMLIM
 70
     0
  9
$DIMTIH
 70
     1
  9
$DIMTOH
 70
     1
  9
$DIMSE1
 70
     0
  9
$DIMSE2
 70
     0
  9
$DIMTAD
 70
     0
  9
$DIMZIN
 70
     0
  9
$DIMBLK
  1

  9
$DIMASO
 70
     1
  9
$DIMSHO
 70
     1
  9
$DIMPOST
  1

  9
$DIMAPOST
  1

  9
$DIMALT
 70
     0
  9
$DIMALTD
 70
     2
  9
$DIMALTF
 40
25.4
  9
$DIMLFAC
 40
1.0
  9
$DIMTOFL
 70
     0
  9
$DIMTVP
 40
0.0
  9
$DIMTIX
 70
     0
  9
$DIMSOXD
 70
     0
  9
$DIMSAH
 70
     0
  9
$DIMBLK1
  1

  9
$DIMBLK2
  1

  9
$DIMSTYLE
  2
Standard
  9
$DIMCLRD
 70
     0
  9
$DIMCLRE
 70
     0
  9
$DIMCLRT
 70
     0
  9
$DIMTFAC
 40
1.0
  9
$DIMGAP
 40
0.09
  9
$DIMJUST
 70
     0
  9
$DIMSD1
 70
     0
  9
$DIMSD2
 70
     0
  9
$DIMTOLJ
 70
     1
  9
$DIMTZIN
 70
     0
  9
$DIMALTZ
 70
     0
  9
$DIMALTTZ
 70
     0
  9
$DIMUPT
 70
     0
  9
$DIMDEC
 70
     4
  9
$DIMTDEC
 70
     4
  9
$DIMALTU
 70
     2
  9
$DIMALTTD
 70
     2
  9
$DIMTXSTY
  7
Standard
  9
$DIMAUNIT
 70
     0
  9
$DIMADEC
 70
     0
  9
$DIMALTRND
 40
0.0
  9
$DIMAZIN
 70
     0
  9
$DIMDSEP
 70
    46
  9
$DIMATFIT
 70
     3
  9
$DIMFRAC
 70
     0
  9
$DIMLDRBLK
  1

  9
$DIMLUNIT
 70
     2
  9
$DIMLWD
 70
    -2
  9
$DIMLWE
 70
    -2
  9
$DIMTMOVE
 70
     0
  9
$DIMFXL
 40
1.0
  9
$DIMFXLON
 70
     0
  9
$DIMJOGANG
 40
0.7853981633974483
  9
$DIMTFILL
 70
     0
  9
$DIMTFILLCLR
 70
     0
  9
$DIMARCSYM
 70
     0
  9
$DIMLTYPE
  6

  9
$DIMLTEX1
  6

  9
$DIMLTEX2
  6

  9
$DIMTXTDIRECTION
 70
     0
  9
$LUNITS
 70
     2
  9
$LUPREC
 70
     4
  9
$SKETCHINC
 40
0.1
  9
$FILLETRAD
 40
0.5
  9
$AUNITS
 70
     0
  9
$AUPREC
 70
     0
  9
$MENU
  1
.
  9
$ELEVATION
 40
0.0
  9
$PELEVATION
 40
0.0
  9
$THICKNESS
 40
0.0
  9
$LIMCHECK
 70
     0
  9
$CHAMFERA
 40
0.5
  9
$CHAMFERB
 40
0.5
  9
$CHAMFERC
 40
1.0
  9
$CHAMFERD
 40
0.0
  9
$SKPOLY
 70
     0
  9
$TDCREATE
 40
2457526.653634248
  9
$TDUCREATE
 40
2457526.861967593
  9
$TDUPDATE
 40
2457526.653634248
  9
$TDUUPDATE
 40
2457526.861967593
  9
$TDINDWG
 40
0.0000000116
  9
$TDUSRTIMER
 40
0.0000000116
  9
$USRTIMER
 70
     1
  9
$ANGBASE
 50
0.0
  9
$ANGDIR
 70
     0
  9
$PDMODE
 70
     0
  9
$PDSIZE
 40
0.0
  9
$PLINEWID
 40
0.0
  9
$SPLFRAME
 70
     0
  9
$SPLINETYPE
 70
     6
  9
$SPLINESEGS
 70
     8
  9
$HANDSEED
  5
51
  9
$SURFTAB1
 70
     6
  9
$SURFTAB2
 70
     6
  9
$SURFTYPE
 70
     6
  9
$SURFU
 70
     6
  9
$SURFV
 70
     6
  9
$UCSBASE
  2

  9
$UCSNAME
  2

  9
$UCSORG
 10
0.0
 20
0.0
 30
0.0
  9
$UCSXDIR
 10
1.0
 20
0.0
 30
0.0
  9
$UCSYDIR
 10
0.0
 20
1.0
 30
0.0
  9
$UCSORTHOREF
  2

  9
$UCSORTHOVIEW
 70
     0
  9
$UCSORGTOP
 10
0.0
 20
0.0
 30
0.0
  9
$UCSORGBOTTOM
 10
0.0
 20
0.0
 30
0.0
  9
$UCSORGLEFT
 10
0.0
 20
0.0
 30
0.0
  9
$UCSORGRIGHT
 10
0.0
 20
0.0
 30
0.0
  9
$UCSORGFRONT
 10
0.0
 20
0.0
 30
0.0
  9
$UCSORGBACK
 10
0.0
 20
0.0
 30
0.0
  9
$PUCSBASE
  2

  9
$PUCSNAME
  2

  9
$PUCSORG
 10
0.0
 20
0.0
 30
0.0
  9
$PUCSXDIR
 10
1.0
 20
0.0
 30
0.0
  9
$PUCSYDIR
 10
0.0
 20
1.0
 30
0.0
  9
$PUCSORTHOREF
  2

  9
$PUCSORTHOVIEW
 70
     0
  9
$PUCSORGTOP
 10
0.0
 20
0.0
 30
0.0
  9
$PUCSORGBOTTOM
 10
0.0
 20
0.0
 30
0.0
  9
$PUCSORGLEFT
 10
0.0
 20
0.0
 30
0.0
  9
$PUCSORGRIGHT
 10
0.0
 20
0.0
 30
0.0
  9
$PUCSORGFRONT
 10
0.0
 20
0.0
 30
0.0
  9
$PUCSORGBACK
 10
0.0
 20
0.0
 30
0.0
  9
$USERI1
 70
     0
  9
$USERI2
 70
     0
  9
$USERI3
 70
     0
  9
$USERI4
 70
     0
  9
$USERI5
 70
     0
  9
$USERR1
 40
0.0
  9
$USERR2
 40
0.0
  9
$USERR3
 40
0.0
  9
$USERR4
 40
0.0
  9
$USERR5
 40
0.0
  9
$WORLDVIEW
 70
     1
  9
$SHADEDGE
 70
     3
  9
$SHADEDIF
 70
    70
  9
$TILEMODE
 70
     1
  9
$MAXACTVP
 70
    64
  9
$PINSBASE
 10
0.0
 20
0.0
 30
0.0
  9
$PLIMCHECK
 70
     0
  9
$PEXTMIN
 10
1.000000000000000E+20
 20
1.000000000000000E+20
 30
1.000000000000000E+20
  9
$PEXTMAX
 10
-1.000000000000000E+20
 20
-1.000000000000000E+20
 30
-1.000000000000000E+20
  9
$PLIMMIN
 10
0.0
 20
0.0
  9
$PLIMMAX
 10
12.0
 20
9.0
  9
$UNITMODE
 70
     0
  9
$VISRETAIN
 70
     1
  9
$PLINEGEN
 70
     0
  9
$PSLTSCALE
 70
     1
  9
$TREEDEPTH
 70
  3020
  9
$CMLSTYLE
  2
Standard
  9
$CMLJUST
 70
     0
  9
$CMLSCALE
 40
1.0
  9
$PROXYGRAPHICS
 70
     1
  9
$MEASUREMENT
 70
     0
  9
$CELWEIGHT
370
    -1
  9
$ENDCAPS
280
     0
  9
$JOINSTYLE
280
     0
  9
$LWDISPLAY
290
     1
  9
$INSUNITS
 70
     1
  9
$HYPERLINKBASE
  1

  9
$STYLESHEET
  1

  9
$XEDIT
290
     1
  9
$CEPSNTYPE
380
     0
  9
$PSTYLEMODE
290
     1
  9
$FINGERPRINTGUID
  2
{3D68DE4E-D4E7-B4FE-17AE-5ADBE719FC7D}
  9
$VERSIONGUID
  2
{FAEB1C32-E019-11D5-929B-00C0DF256EC4}
  9
$EXTNAMES
290
     1
  9
$PSVPSCALE
 40
0.0
  9
$OLESTARTUP
290
     0
  9
$SORTENTS
280
   127
  9
$INDEXCTL
280
     0
  9
$HIDETEXT
280
     1
  9
$XCLIPFRAME
280
     2
  9
$HALOGAP
280
     0
  9
$OBSCOLOR
 70
   257
  9
$OBSLTYPE
280
     0
  9
$INTERSECTIONDISPLAY
280
     0
  9
$INTERSECTIONCOLOR
 70
   257
  9
$DIMASSOC
280
     2
  9
$PROJECTNAME
  1

  9
$CAMERADISPLAY
290
     0
  9
$LENSLENGTH
 40
50.0
  9
$CAMERAHEIGHT
 40
0.0
  9
$STEPSPERSEC
 40
2.0
  9
$STEPSIZE
 40
6.0
  9
$3DDWFPREC
 40
2.0
  9
$PSOLWIDTH
 40
0.25
  9
$PSOLHEIGHT
 40
4.0
  9
$LOFTANG1
 40
1.570796326794897
  9
$LOFTANG2
 40
1.570796326794897
  9
$LOFTMAG1
 40
0.0
  9
$LOFTMAG2
 40
0.0
  9
$LOFTPARAM
 70
     7
  9
$LOFTNORMALS
280
     1
  9
$LATITUDE
 40
37.795
  9
$LONGITUDE
 40
-122.394
  9
$NORTHDIRECTION
 40
0.0
  9
$TIMEZONE
 70
 -8000
  9
$LIGHTGLYPHDISPLAY
280
     1
  9
$TILEMODELIGHTSYNCH
280
     1
  9
$CMATERIAL
347
3C
  9
$SOLIDHIST
280
     1
  9
$SHOWHIST
280
     1
  9
$DWFFRAME
280
     2
  9
$DGNFRAME
280
     2
  9
$REALWORLDSCALE
290
     1
  9
$INTERFERECOLOR
 62
   256
  9
$CSHADOW
280
     0
  9
$SHADOWPLANELOCATION
 40
0.0
  0
ENDSEC
  0
SECTION
  2
CLASSES
  0
CLASS
  1
ACDBDICTIONARYWDFLT
  2
AcDbDictionaryWithDefault
  3
ObjectDBX Classes
 90
        0
 91
        4
280
     0
281
     0
  0
CLASS
  1
VISUALSTYLE
  2
AcDbVisualStyle
  3
ObjectDBX Classes
 90
     4095
 91
        4
280
     0
281
     0
  0
CLASS
  1
MATERIAL
  2
AcDbMaterial
  3
ObjectDBX Classes
 90
     1153
 91
        4
280
     0
281
     0
  0
CLASS
  1
SUN
  2
AcDbSun
  3
SCENEOE
 90
     1024
 91
        4
280
     0
281
     0
  0
ENDSEC
  0
SECTION
  2
TABLES
  0
TABLE
  2
VPORT
  5
8
330
0
100
AcDbSymbolTable
 70
     1
  0
VPORT
  5
29
330
8
100
AcDbSymbolTableRecord
100
AcDbViewportTableRecord
  2
*Active
 70
     0
 10
0.0
 20
0.0
 11
1.0
 21
1.0
 12
0.0
 22
0.0
 13
0.0
 23
0.0
 14
0.5
 24
0.5
 15
0.5
 25
0.5
 16
0.0
 26
0.0
 36
1.0
 17
50.0
 27
62.5
 37
0.0
 40
125.0
 41
0.8
 42
50.0
 43
0.0
 44
0.0
 50
0.0
 51
0.0
 71
     0
 72
   100
 73
     1
 74
     3
 75
     0
 76
     0
 77
     0
 78
     0
281
     0
 65
     1
110
0.0
120
0.0
130
0.0
111
1.0
121
0.0
131
0.0
112
0.0
122
1.0
132
0.0
 79
     0
146
0.0
 60
     3
 61
     5
292
     1
282
     1
141
0.0
142
0.0
 63
   250
361
3F
  0
ENDTAB
  0
TABLE
  2
LTYPE
  5
5
330
0
100
AcDbSymbolTable
 70
     1
  0
LTYPE
  5
14
330
5
100
AcDbSymbolTableRecord
100
AcDbLinetypeTableRecord
  2
ByBlock
 70
     0
  3

 72
    65
 73
     0
 40
0.0
  0
LTYPE
  5
15
330
5
100
AcDbSymbolTableRecord
100
AcDbLinetypeTableRecord
  2
ByLayer
 70
     0
  3

 72
    65
 73
     0
 40
0.0
  0
LTYPE
  5
16
330
5
100
AcDbSymbolTableRecord
100
AcDbLinetypeTableRecord
  2
Continuous
 70
     0
  3
Solid line
 72
    65
 73
     0
 40
0.0
  0
ENDTAB
  0
TABLE
  2
LAYER
  5
2
330
0
100
AcDbSymbolTable
 70
     2
  0
LAYER
  5
10
330
2
100
AcDbSymbolTableRecord
100
AcDbLayerTableRecord
  2
0
 70
     0
 62
     7
  6
Continuous
370
    -3
390
F
347
3E
  0
LAYER
  5
40
330
2
100
AcDbSymbolTableRecord
100
AcDbLayerTableRecord
  2
Layer 1
 70
     0
 62
     7
  6
Continuous
370
    -3
390
F
347
3E
  0
ENDTAB
  0
TABLE
  2
STYLE
  5
3
330
0
100
AcDbSymbolTable
 70
     1
  0
STYLE
  5
11
330
3
100
AcDbSymbolTableRecord
100
AcDbTextStyleTableRecord
  2
Standard
 70
     0
 40
0.0
 41
1.0
 50
0.0
 71
     0
 42
0.2
  3
txt
  4

  0
ENDTAB
  0
TABLE
  2
VIEW
  5
6
330
0
100
AcDbSymbolTable
 70
     0
  0
ENDTAB
  0
TABLE
  2
UCS
  5
7
330
0
100
AcDbSymbolTable
 70
     0
  0
ENDTAB
  0
TABLE
  2
APPID
  5
9
330
0
100
AcDbSymbolTable
 70
     1
  0
APPID
  5
12
330
9
100
AcDbSymbolTableRecord
100
AcDbRegAppTableRecord
  2
ACAD
 70
     0
  0
ENDTAB
  0
TABLE
  2
DIMSTYLE
  5
A
330
0
100
AcDbSymbolTable
 70
     1
100
AcDbDimStyleTable
  0
DIMSTYLE
105
27
330
A
100
AcDbSymbolTableRecord
100
AcDbDimStyleTableRecord
  2
Standard
 70
     0
178
     0
340
11
  0
ENDTAB
  0
TABLE
  2
BLOCK_RECORD
  5
1
330
0
100
AcDbSymbolTable
 70
     1
  0
BLOCK_RECORD
  5
1F
330
1
100
AcDbSymbolTableRecord
100
AcDbBlockTableRecord
  2
*Model_Space
340
22
 70
     0
280
     1
281
     0
  0
BLOCK_RECORD
  5
1B
330
1
100
AcDbSymbolTableRecord
100
AcDbBlockTableRecord
  2
*Paper_Space
340
1E
 70
     0
280
     1
281
     0
  0
BLOCK_RECORD
  5
23
330
1
100
AcDbSymbolTableRecord
100
AcDbBlockTableRecord
  2
*Paper_Space0
340
26
 70
     0
280
     1
281
     0
  0
ENDTAB
  0
ENDSEC
  0
SECTION
  2
BLOCKS
  0
BLOCK
  5
20
330
1F
100
AcDbEntity
  8
0
100
AcDbBlockBegin
  2
*Model_Space
 70
     0
 10
0.0
 20
0.0
 30
0.0
  3
*Model_Space
  1

  0
ENDBLK
  5
21
330
1F
100
AcDbEntity
  8
0
100
AcDbBlockEnd
  0
BLOCK
  5
1C
330
1B
100
AcDbEntity
 67
     1
  8
0
100
AcDbBlockBegin
  2
*Paper_Space
 70
     0
 10
0.0
 20
0.0
 30
0.0
  3
*Paper_Space
  1

  0
ENDBLK
  5
1D
330
1B
100
AcDbEntity
 67
     1
  8
0
100
AcDbBlockEnd
  0
BLOCK
  5
24
330
23
100
AcDbEntity
  8
0
100
AcDbBlockBegin
  2
*Paper_Space0
 70
     0
 10
0.0
 20
0.0
 30
0.0
  3
*Paper_Space0
  1

  0
ENDBLK
  5
25
330
23
100
AcDbEntity
  8
0
100
AcDbBlockEnd
  0
ENDSEC
  0
SECTION
  2
ENTITIES
  0
SPLINE
  5
41
330
1F
100
AcDbEntity
  8
Layer 1
370
     0
100
AcDbSpline
210
0.0
220
0.0
230
1.0
 70
    11
 71
     3
 72
   101
 73
    97
 74
     0
 42
0.0000000001
 43
0.0000000001
 12
1.0
 22
0.0
 32
0.0
 13
1.0
 23
0.0
 33
0.0
 40
0.0
 40
0.0
 40
0.0
 40
0.0
 40
1.0
 40
1.0
 40
1.0
 40
2.0
 40
2.0
 40
2.0
 40
3.0
 40
3.0
 40
3.0
 40
4.0
 40
4.0
 40
4.0
 40
5.0
 40
5.0
 40
5.0
 40
6.0
 40
6.0
 40
6.0
 40
7.0
 40
7.0
 40
7.0
 40
8.0
 40
8.0
 40
8.0
 40
9.0
 40
9.0
 40
9.0
 40
10.0
 40
10.0
 40
10.0
 40
11.0
 40
11.0
 40
11.0
 40
12.0
 40
12.0
 40
12.0
 40
13.0
 40
13.0
 40
13.0
 40
14.0
 40
14.0
 40
14.0
 40
15.0
 40
15.0
 40
15.0
 40
16.0
 40
16.0
 40
16.0
 40
17.0
 40
17.0
 40
17.0
 40
18.0
 40
18.0
 40
18.0
 40
19.0
 40
19.0
 40
19.0
 40
20.0
 40
20.0
 40
20.0
 40
21.0
 40
21.0
 40
21.0
 40
22.0
 40
22.0
 40
22.0
 40
23.0
 40
23.0
 40
23.0
 40
24.0
 40
24.0
 40
24.0
 40
25.0
 40
25.0
 40
25.0
 40
26.0
 40
26.0
 40
26.0
 40
27.0
 40
27.0
 40
27.0
 40
28.0
 40
28.0
 40
28.0
 40
29.0
 40
29.0
 40
29.0
 40
30.0
 40
30.0
 40
30.0
 40
31.0
 40
31.0
 40
31.0
 40
32.0
 40
32.0
 40
32.0
 40
32.0
 10
82.96800231933594
 20
76.04000091552734
 30
0.0
 10
83.29800415039062
 20
76.84600067138672
 30
0.0
 10
83.46900177001953
 20
77.70899963378906
 30
0.0
 10
83.46900177001953
 20
78.59300231933594
 30
0.0
 10
83.46900177001953
 20
81.21000289916992
 30
0.0
 10
81.93800354003906
 20
83.55900192260742
 30
0.0
 10
79.65900421142578
 20
84.66900253295898
 30
0.0
 10
79.73400115966797
 20
85.06800079345703
 30
0.0
 10
79.77100372314453
 20
85.47300338745117
 30
0.0
 10
79.77100372314453
 20
85.8810043334961
 30
0.0
 10
79.77100372314453
 20
89.23200607299805
 30
0.0
 10
77.32100677490234
 20
92.02000427246094
 30
0.0
 10
74.12000274658203
 20
92.54900360107422
 30
0.0
 10
73.71200561523438
 20
95.75900268554688
 30
0.0
 10
71.04199981689453
 20
98.27400398254395
 30
0.0
 10
67.76300048828125
 20
98.43900299072266
 30
0.0
 10
66.802001953125
 20
101.0500030517578
 30
0.0
 10
64.3290023803711
 20
102.8330039978027
 30
0.0
 10
61.45000076293945
 20
102.8330039978027
 30
0.0
 10
60.75
 20
102.8330039978027
 30
0.0
 10
60.06500244140625
 20
102.7230033874512
 30
0.0
 10
59.40299987792969
 20
102.5050048828125
 30
0.0
 10
58.14099884033203
 20
104.1500053405762
 30
0.0
 10
56.16699981689453
 20
105.1570053100586
 30
0.0
 10
54.05500030517578
 20
105.1570053100586
 30
0.0
 10
52.57600021362305
 20
105.1570053100586
 30
0.0
 10
51.15999984741211
 20
104.668004989624
 30
0.0
 10
49.99900054931641
 20
103.781005859375
 30
0.0
 10
48.83700180053711
 20
104.668004989624
 30
0.0
 10
47.42200088500977
 20
105.1570053100586
 30
0.0
 10
45.94499969482422
 20
105.1570053100586
 30
0.0
 10
43.83300018310547
 20
105.1570053100586
 30
0.0
 10
41.85900115966797
 20
104.1500053405762
 30
0.0
 10
40.59600067138672
 20
102.5050048828125
 30
0.0
 10
39.93500137329102
 20
102.7230052947998
 30
0.0
 10
39.25099945068359
 20
102.8330039978027
 30
0.0
 10
38.552001953125
 20
102.8330039978027
 30
0.0
 10
35.67100143432617
 20
102.8330039978027
 30
0.0
 10
33.19800186157227
 20
101.05100440979
 30
0.0
 10
32.23700332641602
 20
98.43900299072266
 30
0.0
 10
28.95900344848633
 20
98.27200317382812
 30
0.0
 10
26.28900337219238
 20
95.75900268554688
 30
0.0
 10
25.88100433349609
 20
92.54900360107422
 30
0.0
 10
22.67900466918945
 20
92.02000427246094
 30
0.0
 10
20.22900390625
 20
89.23100280761719
 30
0.0
 10
20.22900390625
 20
85.8810043334961
 30
0.0
 10
20.22900390625
 20
85.47300338745117
 30
0.0
 10
20.26700401306152
 20
85.0680046081543
 30
0.0
 10
20.34100341796875
 20
84.66900253295898
 30
0.0
 10
18.06300354003906
 20
83.55800247192383
 30
0.0
 10
16.53100395202637
 20
81.21000289916992
 30
0.0
 10
16.53100395202637
 20
78.59300231933594
 30
0.0
 10
16.53100395202637
 20
77.71000289916992
 30
0.0
 10
16.70200347900391
 20
76.84500122070312
 30
0.0
 10
17.03200340270996
 20
76.04000091552734
 30
0.0
 10
15.72500324249268
 20
74.78100204467773
 30
0.0
 10
14.97400283813477
 20
73.04899978637695
 30
0.0
 10
14.97400283813477
 20
71.19800186157227
 30
0.0
 10
14.97400283813477
 20
67.24500274658203
 30
0.0
 10
18.83800315856934
 20
64.74100112915039
 30
0.0
 10
20.91400337219238
 20
63.39500045776367
 30
0.0
 10
20.91400337219238
 20
63.39500045776367
 30
0.0
 10
28.85500335693359
 20
58.25199890136719
 30
0.0
 10
28.85500335693359
 20
58.25199890136719
 30
0.0
 10
28.85500335693359
 20
58.25199890136719
 30
0.0
 10
28.85500335693359
 20
54.12799835205078
 30
0.0
 10
28.85500335693359
 20
54.12799835205078
 30
0.0
 10
28.85500335693359
 20
51.28699493408203
 30
0.0
 10
31.1660041809082
 20
48.97599792480469
 30
0.0
 10
34.00600433349609
 20
48.97599792480469
 30
0.0
 10
34.00600433349609
 20
48.97599792480469
 30
0.0
 10
43.08700561523438
 20
48.97599792480469
 30
0.0
 10
43.08700561523438
 20
48.97599792480469
 30
0.0
 10
44.45100402832031
 20
46.46699523925781
 30
0.0
 10
47.11100769042969
 20
44.84299468994141
 30
0.0
 10
50.00000762939453
 20
44.84299468994141
 30
0.0
 10
52.88900756835938
 20
44.84299468994141
 30
0.0
 10
55.54800796508789
 20
46.46699523925781
 30
0.0
 10
56.91300964355469
 20
48.97599792480469
 30
0.0
 10
56.91300964355469
 20
48.97599792480469
 30
0.0
 10
65.99301147460938
 20
48.97599792480469
 30
0.0
 10
65.99301147460938
 20
48.97599792480469
 30
0.0
 10
68.83401489257812
 20
48.97599792480469
 30
0.0
 10
71.14401245117188
 20
51.28799438476562
 30
0.0
 10
71.14401245117188
 20
54.12799835205078
 30
0.0
 10
71.14401245117188
 20
54.12799835205078
 30
0.0
 10
71.14401245117188
 20
58.25199890136719
 30
0.0
 10
71.14401245117188
 20
58.25199890136719
 30
0.0
 10
71.14401245117188
 20
58.25199890136719
 30
0.0
 10
79.08401489257812
 20
63.39500045776367
 30
0.0
 10
79.08401489257812
 20
63.39500045776367
 30
0.0
 10
81.1600112915039
 20
64.74100112915039
 30
0.0
 10
85.02401733398438
 20
67.24499893188477
 30
0.0
 10
85.02401733398438
 20
71.19800186157227
 30
0.0
 10
85.0260009765625
 20
73.04899978637695
 30
0.0
 10
84.2750015258789
 20
74.77999877929688
 30
0.0
 10
82.96800231933594
 20
76.04000091552734
 30
0.0
  0
SPLINE
  5
42
330
1F
100
AcDbEntity
  8
Layer 1
370
     0
100
AcDbSpline
210
0.0
220
0.0
230
1.0
 70
    11
 71
     3
 72
   227
 73
   223
 74
     0
 42
0.0000000001
 43
0.0000000001
 12
1.0
 22
0.0
 32
0.0
 13
1.0
 23
0.0
 33
0.0
 40
0.0
 40
0.0
 40
0.0
 40
0.0
 40
1.0
 40
1.0
 40
1.0
 40
2.0
 40
2.0
 40
2.0
 40
3.0
 40
3.0
 40
3.0
 40
4.0
 40
4.0
 40
4.0
 40
5.0
 40
5.0
 40
5.0
 40
6.0
 40
6.0
 40
6.0
 40
7.0
 40
7.0
 40
7.0
 40
8.0
 40
8.0
 40
8.0
 40
9.0
 40
9.0
 40
9.0
 40
10.0
 40
10.0
 40
10.0
 40
11.0
 40
11.0
 40
11.0
 40
12.0
 40
12.0
 40
12.0
 40
13.0
 40
13.0
 40
13.0
 40
14.0
 40
14.0
 40
14.0
 40
15.0
 40
15.0
 40
15.0
 40
16.0
 40
16.0
 40
16.0
 40
17.0
 40
17.0
 40
17.0
 40
18.0
 40
18.0
 40
18.0
 40
19.0
 40
19.0
 40
19.0
 40
20.0
 40
20.0
 40
20.0
 40
21.0
 40
21.0
 40
21.0
 40
22.0
 40
22.0
 40
22.0
 40
23.0
 40
23.0
 40
23.0
 40
24.0
 40
24.0
 40
24.0
 40
25.0
 40
25.0
 40
25.0
 40
26.0
 40
26.0
 40
26.0
 40
27.0
 40
27.0
 40
27.0
 40
28.0
 40
28.0
 40
28.0
 40
29.0
 40
29.0
 40
29.0
 40
30.0
 40
30.0
 40
30.0
 40
31.0
 40
31.0
 40
31.0
 40
32.0
 40
32.0
 40
32.0
 40
33.0
 40
33.0
 40
33.0
 40
34.0
 40
34.0
 40
34.0
 40
35.0
 40
35.0
 40
35.0
 40
36.0
 40
36.0
 40
36.0
 40
37.0
 40
37.0
 40
37.0
 40
38.0
 40
38.0
 40
38.0
 40
39.0
 40
39.0
 40
39.0
 40
40.0
 40
40.0
 40
40.0
 40
41.0
 40
41.0
 40
41.0
 40
42.0
 40
42.0
 40
42.0
 40
43.0
 40
43.0
 40
43.0
 40
44.0
 40
44.0
 40
44.0
 40
45.0
 40
45.0
 40
45.0
 40
46.0
 40
46.0
 40
46.0
 40
47.0
 40
47.0
 40
47.0
 40
48.0
 40
48.0
 40
48.0
 40
49.0
 40
49.0
 40
49.0
 40
50.0
 40
50.0
 40
50.0
 40
51.0
 40
51.0
 40
51.0
 40
52.0
 40
52.0
 40
52.0
 40
53.0
 40
53.0
 40
53.0
 40
54.0
 40
54.0
 40
54.0
 40
55.0
 40
55.0
 40
55.0
 40
56.0
 40
56.0
 40
56.0
 40
57.0
 40
57.0
 40
57.0
 40
58.0
 40
58.0
 40
58.0
 40
59.0
 40
59.0
 40
59.0
 40
60.0
 40
60.0
 40
60.0
 40
61.0
 40
61.0
 40
61.0
 40
62.0
 40
62.0
 40
62.0
 40
63.0
 40
63.0
 40
63.0
 40
64.0
 40
64.0
 40
64.0
 40
65.0
 40
65.0
 40
65.0
 40
66.0
 40
66.0
 40
66.0
 40
67.0
 40
67.0
 40
67.0
 40
68.0
 40
68.0
 40
68.0
 40
69.0
 40
69.0
 40
69.0
 40
70.0
 40
70.0
 40
70.0
 40
71.0
 40
71.0
 40
71.0
 40
72.0
 40
72.0
 40
72.0
 40
73.0
 40
73.0
 40
73.0
 40
74.0
 40
74.0
 40
74.0
 40
74.0
 10
77.45500183105469
 20
65.9119987487793
 30
0.0
 10
77.45500183105469
 20
65.9119987487793
 30
0.0
 10
68.83000183105469
 20
60.32599639892578
 30
0.0
 10
68.83000183105469
 20
60.32599639892578
 30
0.0
 10
68.40299987792969
 20
60.04999542236328
 30
0.0
 10
68.14500427246094
 20
59.57599639892578
 30
0.0
 10
68.14500427246094
 20
59.06699371337891
 30
0.0
 10
68.14500427246094
 20
59.06699371337891
 30
0.0
 10
68.14500427246094
 20
54.12799072265625
 30
0.0
 10
68.14500427246094
 20
54.12799072265625
 30
0.0
 10
68.14500427246094
 20
52.94099426269531
 30
0.0
 10
67.18000793457031
 20
51.97599029541016
 30
0.0
 10
65.99400329589844
 20
51.97599029541016
 30
0.0
 10
65.99400329589844
 20
51.97599029541016
 30
0.0
 10
58.27700424194336
 20
51.97599029541016
 30
0.0
 10
58.27700424194336
 20
51.97599029541016
 30
0.0
 10
59.40700531005859
 20
54.05399322509766
 30
0.0
 10
60.99000549316406
 20
55.64698791503906
 30
0.0
 10
63.64900588989258
 20
57.47998809814453
 30
0.0
 10
64.33100891113281
 20
57.95098876953125
 30
0.0
 10
64.50300598144531
 20
58.88398742675781
 30
0.0
 10
64.03300476074219
 20
59.56698608398438
 30
0.0
 10
63.56300354003906
 20
60.24898529052734
 30
0.0
 10
62.62800598144531
 20
60.41898345947266
 30
0.0
 10
61.94600677490234
 20
59.95098876953125
 30
0.0
 10
57.9680061340332
 20
57.20799255371094
 30
0.0
 10
55.96400833129883
 20
54.78398895263672
 30
0.0
 10
54.55400848388672
 20
51.01298522949219
 30
0.0
 10
54.55300903320312
 20
51.010986328125
 30
0.0
 10
54.55200958251953
 20
51.00898742675781
 30
0.0
 10
54.55101013183594
 20
51.00698852539062
 30
0.0
 10
53.82400894165039
 20
49.08499145507812
 30
0.0
 10
52.03701019287109
 20
47.84298706054688
 30
0.0
 10
50.0000114440918
 20
47.84298706054688
 30
0.0
 10
47.96201324462891
 20
47.84298706054688
 30
0.0
 10
46.17601013183594
 20
49.08498382568359
 30
0.0
 10
45.44901275634766
 20
51.00698852539062
 30
0.0
 10
45.44901275634766
 20
51.00798797607422
 30
0.0
 10
45.44801330566406
 20
51.00898742675781
 30
0.0
 10
45.44801330566406
 20
51.00998687744141
 30
0.0
 10
44.03901290893555
 20
54.78199005126953
 30
0.0
 10
42.03401184082031
 20
57.20598602294922
 30
0.0
 10
38.05501174926758
 20
59.94998931884766
 30
0.0
 10
37.37201309204102
 20
60.41899108886719
 30
0.0
 10
36.43901062011719
 20
60.24698638916016
 30
0.0
 10
35.96901321411133
 20
59.56598663330078
 30
0.0
 10
35.4990119934082
 20
58.88298797607422
 30
0.0
 10
35.67001342773438
 20
57.94998931884766
 30
0.0
 10
36.35201263427734
 20
57.47898864746094
 30
0.0
 10
39.01101303100586
 20
55.64598846435547
 30
0.0
 10
40.59401321411133
 20
54.05298614501953
 30
0.0
 10
41.72401428222656
 20
51.97499084472656
 30
0.0
 10
41.72401428222656
 20
51.97499084472656
 30
0.0
 10
34.00701522827148
 20
51.97499084472656
 30
0.0
 10
34.00701522827148
 20
51.97499084472656
 30
0.0
 10
32.82101440429688
 20
51.97499084472656
 30
0.0
 10
31.85601425170898
 20
52.94099426269531
 30
0.0
 10
31.85601425170898
 20
54.12699127197266
 30
0.0
 10
31.85601425170898
 20
54.12699127197266
 30
0.0
 10
31.85601425170898
 20
59.06599426269531
 30
0.0
 10
31.85601425170898
 20
59.06599426269531
 30
0.0
 10
31.85601425170898
 20
59.57499694824219
 30
0.0
 10
31.59801483154297
 20
60.04799652099609
 30
0.0
 10
31.1710147857666
 20
60.32499694824219
 30
0.0
 10
31.1710147857666
 20
60.32499694824219
 30
0.0
 10
22.5460147857666
 20
65.91099548339844
 30
0.0
 10
22.5460147857666
 20
65.91099548339844
 30
0.0
 10
20.1710147857666
 20
67.44999694824219
 30
0.0
 10
17.97401428222656
 20
69.15499496459961
 30
0.0
 10
17.97401428222656
 20
71.19599533081055
 30
0.0
 10
17.97401428222656
 20
72.4849967956543
 30
0.0
 10
18.63501358032227
 20
73.6719970703125
 30
0.0
 10
19.74201393127441
 20
74.3699951171875
 30
0.0
 10
20.08601379394531
 20
74.58699417114258
 30
0.0
 10
20.3280143737793
 20
74.93399429321289
 30
0.0
 10
20.41101455688477
 20
75.3329963684082
 30
0.0
 10
20.49401473999023
 20
75.73099517822266
 30
0.0
 10
20.41101455688477
 20
76.14599609375
 30
0.0
 10
20.18201446533203
 20
76.48299789428711
 30
0.0
 10
19.75601387023926
 20
77.10799789428711
 30
0.0
 10
19.53101348876953
 20
77.83699798583984
 30
0.0
 10
19.53101348876953
 20
78.59199905395508
 30
0.0
 10
19.53101348876953
 20
80.35599899291992
 30
0.0
 10
20.78301429748535
 20
81.89999771118164
 30
0.0
 10
22.50801277160645
 20
82.26399993896484
 30
0.0
 10
22.95201301574707
 20
82.35800170898438
 30
0.0
 10
23.33001327514648
 20
82.64799880981445
 30
0.0
 10
23.53601264953613
 20
83.0530014038086
 30
0.0
 10
23.74201202392578
 20
83.45800399780273
 30
0.0
 10
23.75301170349121
 20
83.93400192260742
 30
0.0
 10
23.56601333618164
 20
84.3479995727539
 30
0.0
 10
23.34301376342773
 20
84.84399795532227
 30
0.0
 10
23.23001289367676
 20
85.36000061035156
 30
0.0
 10
23.23001289367676
 20
85.88100051879883
 30
0.0
 10
23.23001289367676
 20
87.94900131225586
 30
0.0
 10
24.90701293945312
 20
89.63199996948242
 30
0.0
 10
27.00301361083984
 20
89.63199996948242
 30
0.0
 10
27.00801277160645
 20
89.63199996948242
 30
0.0
 10
27.01301383972168
 20
89.63199996948242
 30
0.0
 10
27.01801300048828
 20
89.63199996948242
 30
0.0
 10
27.10101318359375
 20
89.61999893188477
 30
0.0
 10
27.18501281738281
 20
89.60900115966797
 30
0.0
 10
27.26901245117188
 20
89.60300064086914
 30
0.0
 10
27.72101211547852
 20
89.5620002746582
 30
0.0
 10
28.1560115814209
 20
89.73300170898438
 30
0.0
 10
28.46701240539551
 20
90.05599975585938
 30
0.0
 10
28.77901268005371
 20
90.37799835205078
 30
0.0
 10
28.92901229858398
 20
90.822998046875
 30
0.0
 10
28.87901306152344
 20
91.26800155639648
 30
0.0
 10
28.87901306152344
 20
91.26800155639648
 30
0.0
 10
28.85301399230957
 20
91.47300338745117
 30
0.0
 10
28.85301399230957
 20
91.47300338745117
 30
0.0
 10
28.84301376342773
 20
91.54600524902344
 30
0.0
 10
28.82901382446289
 20
91.61800384521484
 30
0.0
 10
28.82901382446289
 20
91.6930046081543
 30
0.0
 10
28.82901382446289
 20
93.76400375366211
 30
0.0
 10
30.5150146484375
 20
95.44900512695312
 30
0.0
 10
32.58601379394531
 20
95.44900512695312
 30
0.0
 10
32.77801513671875
 20
95.44900512695312
 30
0.0
 10
32.96401214599609
 20
95.41500473022461
 30
0.0
 10
33.14801406860352
 20
95.38600540161133
 30
0.0
 10
33.54401397705078
 20
95.32600593566895
 30
0.0
 10
33.94301223754883
 20
95.42400550842285
 30
0.0
 10
34.2650146484375
 20
95.65900611877441
 30
0.0
 10
34.58601379394531
 20
95.89500617980957
 30
0.0
 10
34.8010139465332
 20
96.24800682067871
 30
0.0
 10
34.86101531982422
 20
96.64200592041016
 30
0.0
 10
35.14301681518555
 20
98.49100494384766
 30
0.0
 10
36.69701385498047
 20
99.83300590515137
 30
0.0
 10
38.55601501464844
 20
99.83300590515137
 30
0.0
 10
39.2020149230957
 20
99.83300590515137
 30
0.0
 10
39.83301544189453
 20
99.6550064086914
 30
0.0
 10
40.43101501464844
 20
99.30500602722168
 30
0.0
 10
40.79701614379883
 20
99.09100532531738
 30
0.0
 10
41.23401641845703
 20
99.04100608825684
 30
0.0
 10
41.63901519775391
 20
99.16700553894043
 30
0.0
 10
42.04301452636719
 20
99.29300498962402
 30
0.0
 10
42.37401580810547
 20
99.58500480651855
 30
0.0
 10
42.5520133972168
 20
99.9690055847168
 30
0.0
 10
43.16701507568359
 20
101.2990055084229
 30
0.0
 10
44.50101470947266
 20
102.1570053100586
 30
0.0
 10
45.95001220703125
 20
102.1570053100586
 30
0.0
 10
47.06201171875
 20
102.1570053100586
 30
0.0
 10
48.11601257324219
 20
101.6470050811768
 30
0.0
 10
48.84101104736328
 20
100.7580051422119
 30
0.0
 10
49.41001129150391
 20
100.0610046386719
 30
0.0
 10
50.59601211547852
 20
100.0600051879883
 30
0.0
 10
51.16701126098633
 20
100.7580051422119
 30
0.0
 10
51.89101028442383
 20
101.6470050811768
 30
0.0
 10
52.94501113891602
 20
102.1570053100586
 30
0.0
 10
54.06001281738281
 20
102.1570053100586
 30
0.0
 10
55.50901412963867
 20
102.1570053100586
 30
0.0
 10
56.84201431274414
 20
101.2980060577393
 30
0.0
 10
57.45701217651367
 20
99.9690055847168
 30
0.0
 10
57.63501358032227
 20
99.58500480651855
 30
0.0
 10
57.96601104736328
 20
99.29400634765625
 30
0.0
 10
58.37001037597656
 20
99.16700553894043
 30
0.0
 10
58.77301025390625
 20
99.04100608825684
 30
0.0
 10
59.21300888061523
 20
99.09100532531738
 30
0.0
 10
59.57701110839844
 20
99.30500602722168
 30
0.0
 10
60.17501068115234
 20
99.656005859375
 30
0.0
 10
60.80601119995117
 20
99.83300590515137
 30
0.0
 10
61.45401000976562
 20
99.83300590515137
 30
0.0
 10
63.31100845336914
 20
99.83300590515137
 30
0.0
 10
64.864013671875
 20
98.49100494384766
 30
0.0
 10
65.14601135253906
 20
96.64200592041016
 30
0.0
 10
65.20600891113281
 20
96.24800682067871
 30
0.0
 10
65.41901397705078
 20
95.89400672912598
 30
0.0
 10
65.74101257324219
 20
95.65900611877441
 30
0.0
 10
66.06201171875
 20
95.42300605773926
 30
0.0
 10
66.4630126953125
 20
95.32600593566895
 30
0.0
 10
66.85700988769531
 20
95.38600540161133
 30
0.0
 10
67.04300689697266
 20
95.41400527954102
 30
0.0
 10
67.22801208496094
 20
95.44900512695312
 30
0.0
 10
67.42101287841797
 20
95.44900512695312
 30
0.0
 10
69.49201202392578
 20
95.44900512695312
 30
0.0
 10
71.17700958251953
 20
93.76400566101074
 30
0.0
 10
71.17700958251953
 20
91.6930046081543
 30
0.0
 10
71.17700958251953
 20
91.61800384521484
 30
0.0
 10
71.1620101928711
 20
91.54600524902344
 30
0.0
 10
71.15300750732422
 20
91.47300338745117
 30
0.0
 10
71.15300750732422
 20
91.47300338745117
 30
0.0
 10
71.12700653076172
 20
91.26800155639648
 30
0.0
 10
71.12700653076172
 20
91.26800155639648
 30
0.0
 10
71.07600402832031
 20
90.82300186157227
 30
0.0
 10
71.2280044555664
 20
90.37800216674805
 30
0.0
 10
71.53900909423828
 20
90.05599975585938
 30
0.0
 10
71.85000610351562
 20
89.73500061035156
 30
0.0
 10
72.281005859375
 20
89.56399917602539
 30
0.0
 10
72.73600769042969
 20
89.60300064086914
 30
0.0
 10
72.82100677490234
 20
89.61000061035156
 30
0.0
 10
72.90400695800781
 20
89.62100219726562
 30
0.0
 10
73.01800537109375
 20
89.63999938964844
 30
0.0
 10
75.08900451660156
 20
89.63999938964844
 30
0.0
 10
76.77500915527344
 20
87.95399856567383
 30
0.0
 10
76.77500915527344
 20
85.88100051879883
 30
0.0
 10
76.77500915527344
 20
85.36100006103516
 30
0.0
 10
76.6620101928711
 20
84.84500122070312
 30
0.0
 10
76.4380111694336
 20
84.34700012207031
 30
0.0
 10
76.25101470947266
 20
83.93299865722656
 30
0.0
 10
76.26300811767578
 20
83.45700073242188
 30
0.0
 10
76.46900939941406
 20
83.0530014038086
 30
0.0
 10
76.67501068115234
 20
82.64900207519531
 30
0.0
 10
77.05200958251953
 20
82.35900115966797
 30
0.0
 10
77.49600982666016
 20
82.2650032043457
 30
0.0
 10
79.22100830078125
 20
81.90100479125977
 30
0.0
 10
80.47200775146484
 20
80.35700225830078
 30
0.0
 10
80.47200775146484
 20
78.59300231933594
 30
0.0
 10
80.47200775146484
 20
77.8380012512207
 30
0.0
 10
80.24700927734375
 20
77.10900115966797
 30
0.0
 10
79.82200622558594
 20
76.48400115966797
 30
0.0
 10
79.59300994873047
 20
76.14800262451172
 30
0.0
 10
79.510009765625
 20
75.73300170898438
 30
0.0
 10
79.59300994873047
 20
75.33399963378906
 30
0.0
 10
79.67601013183594
 20
74.93499755859375
 30
0.0
 10
79.91700744628906
 20
74.5880012512207
 30
0.0
 10
80.26200866699219
 20
74.37099838256836
 30
0.0
 10
81.36801147460938
 20
73.6729965209961
 30
0.0
 10
82.0300064086914
 20
72.48600006103516
 30
0.0
 10
82.0300064086914
 20
71.1969985961914
 30
0.0
 10
82.0260009765625
 20
69.15599822998047
 30
0.0
 10
79.8290023803711
 20
67.45100021362305
 30
0.0
 10
77.45500183105469
 20
65.9119987487793
 30
0.0
  0
SPLINE
  5
43
330
1F
100
AcDbEntity
  8
Layer 1
370
     0
100
AcDbSpline
210
0.0
220
0.0
230
1.0
 70
    11
 71
     3
 72
    23
 73
    19
 74
     0
 42
0.0000000001
 43
0.0000000001
 12
1.0
 22
0.0
 32
0.0
 13
1.0
 23
0.0
 33
0.0
 40
0.0
 40
0.0
 40
0.0
 40
0.0
 40
1.0
 40
1.0
 40
1.0
 40
2.0
 40
2.0
 40
2.0
 40
3.0
 40
3.0
 40
3.0
 40
4.0
 40
4.0
 40
4.0
 40
5.0
 40
5.0
 40
5.0
 40
6.0
 40
6.0
 40
6.0
 40
6.0
 10
50.0
 20
96.25699996948242
 30
0.0
 10
49.17100143432617
 20
96.25699996948242
 30
0.0
 10
48.5
 20
95.58600044250488
 30
0.0
 10
48.5
 20
94.75699996948242
 30
0.0
 10
48.5
 20
94.75699996948242
 30
0.0
 10
48.5
 20
80.58699798583984
 30
0.0
 10
48.5
 20
80.58699798583984
 30
0.0
 10
48.5
 20
79.75799942016602
 30
0.0
 10
49.17100143432617
 20
79.08699798583984
 30
0.0
 10
50.0
 20
79.08699798583984
 30
0.0
 10
50.82799911499023
 20
79.08699798583984
 30
0.0
 10
51.5
 20
79.75799942016602
 30
0.0
 10
51.5
 20
80.58699798583984
 30
0.0
 10
51.5
 20
80.58699798583984
 30
0.0
 10
51.5
 20
94.75699806213379
 30
0.0
 10
51.5
 20
94.75699806213379
 30
0.0
 10
51.5
 20
95.58499908447266
 30
0.0
 10
50.82799911499023
 20
96.25699996948242
 30
0.0
 10
50.0
 20
96.25699996948242
 30
0.0
  0
SPLINE
  5
44
330
1F
100
AcDbEntity
  8
Layer 1
370
     0
100
AcDbSpline
210
0.0
220
0.0
230
1.0
 70
    11
 71
     3
 72
    26
 73
    22
 74
     0
 42
0.0000000001
 43
0.0000000001
 12
1.0
 22
0.0
 32
0.0
 13
1.0
 23
0.0
 33
0.0
 40
0.0
 40
0.0
 40
0.0
 40
0.0
 40
1.0
 40
1.0
 40
1.0
 40
2.0
 40
2.0
 40
2.0
 40
3.0
 40
3.0
 40
3.0
 40
4.0
 40
4.0
 40
4.0
 40
5.0
 40
5.0
 40
5.0
 40
6.0
 40
6.0
 40
6.0
 40
7.0
 40
7.0
 40
7.0
 40
7.0
 10
74.66100311279297
 20
71.66699981689453
 30
0.0
 10
74.66100311279297
 20
71.66699981689453
 30
0.0
 10
73.88300323486328
 20
70.93299865722656
 30
0.0
 10
73.88300323486328
 20
70.93299865722656
 30
0.0
 10
73.2800064086914
 20
70.36499786376953
 30
0.0
 10
73.25300598144531
 20
69.41499710083008
 30
0.0
 10
73.82100677490234
 20
68.8129997253418
 30
0.0
 10
74.11600494384766
 20
68.5
 30
0.0
 10
74.51300811767578
 20
68.34199905395508
 30
0.0
 10
74.9120101928711
 20
68.34199905395508
 30
0.0
 10
75.28101348876953
 20
68.34199905395508
 30
0.0
 10
75.65100860595703
 20
68.47800064086914
 30
0.0
 10
75.94100952148438
 20
68.7509994506836
 30
0.0
 10
75.94100952148438
 20
68.7509994506836
 30
0.0
 10
76.71900939941406
 20
69.48500061035156
 30
0.0
 10
76.71900939941406
 20
69.48500061035156
 30
0.0
 10
77.32200622558594
 20
70.0530014038086
 30
0.0
 10
77.34900665283203
 20
71.00300216674805
 30
0.0
 10
76.781005859375
 20
71.60499954223633
 30
0.0
 10
76.21300506591797
 20
72.20699691772461
 30
0.0
 10
75.26499938964844
 20
72.23600006103516
 30
0.0
 10
74.66100311279297
 20
71.66699981689453
 30
0.0
  0
SPLINE
  5
45
330
1F
100
AcDbEntity
  8
Layer 1
370
     0
100
AcDbSpline
210
0.0
220
0.0
230
1.0
 70
    11
 71
     3
 72
    26
 73
    22
 74
     0
 42
0.0000000001
 43
0.0000000001
 12
1.0
 22
0.0
 32
0.0
 13
1.0
 23
0.0
 33
0.0
 40
0.0
 40
0.0
 40
0.0
 40
0.0
 40
1.0
 40
1.0
 40
1.0
 40
2.0
 40
2.0
 40
2.0
 40
3.0
 40
3.0
 40
3.0
 40
4.0
 40
4.0
 40
4.0
 40
5.0
 40
5.0
 40
5.0
 40
6.0
 40
6.0
 40
6.0
 40
7.0
 40
7.0
 40
7.0
 40
7.0
 10
74.48300170898438
 20
79.26699829101562
 30
0.0
 10
73.81800079345703
 20
79.7609977722168
 30
0.0
 10
72.8790054321289
 20
79.62299728393555
 30
0.0
 10
72.38300323486328
 20
78.95800018310547
 30
0.0
 10
72.38300323486328
 20
78.95800018310547
 30
0.0
 10
69.23100280761719
 20
74.71900177001953
 30
0.0
 10
69.23100280761719
 20
74.71900177001953
 30
0.0
 10
68.73699951171875
 20
74.05400085449219
 30
0.0
 10
68.8759994506836
 20
73.1150016784668
 30
0.0
 10
69.54000091552734
 20
72.62000274658203
 30
0.0
 10
69.80999755859375
 20
72.42100143432617
 30
0.0
 10
70.12300109863281
 20
72.32400131225586
 30
0.0
 10
70.43499755859375
 20
72.32400131225586
 30
0.0
 10
70.89299774169922
 20
72.32400131225586
 30
0.0
 10
71.34500122070312
 20
72.53300094604492
 30
0.0
 10
71.63999938964844
 20
72.9280014038086
 30
0.0
 10
71.63999938964844
 20
72.9280014038086
 30
0.0
 10
74.79199981689453
 20
77.16799926757812
 30
0.0
 10
74.79199981689453
 20
77.16799926757812
 30
0.0
 10
75.28600311279297
 20
77.83300018310547
 30
0.0
 10
75.14700317382812
 20
78.77299880981445
 30
0.0
 10
74.48300170898438
 20
79.26699829101562
 30
0.0
  0
SPLINE
  5
46
330
1F
100
AcDbEntity
  8
Layer 1
370
     0
100
AcDbSpline
210
0.0
220
0.0
230
1.0
 70
    11
 71
     3
 72
    26
 73
    22
 74
     0
 42
0.0000000001
 43
0.0000000001
 12
1.0
 22
0.0
 32
0.0
 13
1.0
 23
0.0
 33
0.0
 40
0.0
 40
0.0
 40
0.0
 40
0.0
 40
1.0
 40
1.0
 40
1.0
 40
2.0
 40
2.0
 40
2.0
 40
3.0
 40
3.0
 40
3.0
 40
4.0
 40
4.0
 40
4.0
 40
5.0
 40
5.0
 40
5.0
 40
6.0
 40
6.0
 40
6.0
 40
7.0
 40
7.0
 40
7.0
 40
7.0
 10
69.68800354003906
 20
85.7249984741211
 30
0.0
 10
68.94700622558594
 20
86.09399795532227
 30
0.0
 10
68.04600524902344
 20
85.79399871826172
 30
0.0
 10
67.67500305175781
 20
85.05399703979492
 30
0.0
 10
67.67500305175781
 20
85.05399703979492
 30
0.0
 10
63.97500228881836
 20
77.65099716186523
 30
0.0
 10
63.97500228881836
 20
77.65099716186523
 30
0.0
 10
63.60500335693359
 20
76.90999603271484
 30
0.0
 10
63.90500259399414
 20
76.00899887084961
 30
0.0
 10
64.64600372314453
 20
75.63899612426758
 30
0.0
 10
64.86200714111328
 20
75.53199768066406
 30
0.0
 10
65.09000396728516
 20
75.47999572753906
 30
0.0
 10
65.31600189208984
 20
75.47999572753906
 30
0.0
 10
65.86600494384766
 20
75.47999572753906
 30
0.0
 10
66.39600372314453
 20
75.78399658203125
 30
0.0
 10
66.65900421142578
 20
76.30999755859375
 30
0.0
 10
66.65900421142578
 20
76.30999755859375
 30
0.0
 10
70.35900115966797
 20
83.71299743652344
 30
0.0
 10
70.35900115966797
 20
83.71299743652344
 30
0.0
 10
70.72899627685547
 20
84.45299911499023
 30
0.0
 10
70.43000030517578
 20
85.35400009155273
 30
0.0
 10
69.68800354003906
 20
85.7249984741211
 30
0.0
  0
SPLINE
  5
47
330
1F
100
AcDbEntity
  8
Layer 1
370
     0
100
AcDbSpline
210
0.0
220
0.0
230
1.0
 70
    11
 71
     3
 72
    26
 73
    22
 74
     0
 42
0.0000000001
 43
0.0000000001
 12
1.0
 22
0.0
 32
0.0
 13
1.0
 23
0.0
 33
0.0
 40
0.0
 40
0.0
 40
0.0
 40
0.0
 40
1.0
 40
1.0
 40
1.0
 40
2.0
 40
2.0
 40
2.0
 40
3.0
 40
3.0
 40
3.0
 40
4.0
 40
4.0
 40
4.0
 40
5.0
 40
5.0
 40
5.0
 40
6.0
 40
6.0
 40
6.0
 40
7.0
 40
7.0
 40
7.0
 40
7.0
 10
64.7750015258789
 20
91.24399948120117
 30
0.0
 10
63.99100112915039
 20
91.50199890136719
 30
0.0
 10
63.1410026550293
 20
91.07500076293945
 30
0.0
 10
62.88100051879883
 20
90.28799819946289
 30
0.0
 10
62.88100051879883
 20
90.28799819946289
 30
0.0
 10
59.31700134277344
 20
79.45199584960938
 30
0.0
 10
59.31700134277344
 20
79.45199584960938
 30
0.0
 10
59.05800247192383
 20
78.66499710083008
 30
0.0
 10
59.48600006103516
 20
77.81699752807617
 30
0.0
 10
60.27300262451172
 20
77.5579948425293
 30
0.0
 10
60.42800140380859
 20
77.50699615478516
 30
0.0
 10
60.58600234985352
 20
77.48199462890625
 30
0.0
 10
60.74200439453125
 20
77.48199462890625
 30
0.0
 10
61.37300491333008
 20
77.48199462890625
 30
0.0
 10
61.95900344848633
 20
77.88199615478516
 30
0.0
 10
62.1670036315918
 20
78.51399612426758
 30
0.0
 10
62.1670036315918
 20
78.51399612426758
 30
0.0
 10
65.73100280761719
 20
89.3499984741211
 30
0.0
 10
65.73100280761719
 20
89.3499984741211
 30
0.0
 10
65.98999786376953
 20
90.13800048828125
 30
0.0
 10
65.56300354003906
 20
90.98500061035156
 30
0.0
 10
64.7750015258789
 20
91.24399948120117
 30
0.0
  0
SPLINE
  5
48
330
1F
100
AcDbEntity
  8
Layer 1
370
     0
100
AcDbSpline
210
0.0
220
0.0
230
1.0
 70
    11
 71
     3
 72
    26
 73
    22
 74
     0
 42
0.0000000001
 43
0.0000000001
 12
1.0
 22
0.0
 32
0.0
 13
1.0
 23
0.0
 33
0.0
 40
0.0
 40
0.0
 40
0.0
 40
0.0
 40
1.0
 40
1.0
 40
1.0
 40
2.0
 40
2.0
 40
2.0
 40
3.0
 40
3.0
 40
3.0
 40
4.0
 40
4.0
 40
4.0
 40
5.0
 40
5.0
 40
5.0
 40
6.0
 40
6.0
 40
6.0
 40
7.0
 40
7.0
 40
7.0
 40
7.0
 10
57.80300140380859
 20
94.3759994506836
 30
0.0
 10
56.9890022277832
 20
94.51099967956543
 30
0.0
 10
56.2140007019043
 20
93.95399856567383
 30
0.0
 10
56.08200073242188
 20
93.13599967956543
 30
0.0
 10
56.08200073242188
 20
93.13599967956543
 30
0.0
 10
54.01399993896484
 20
80.40399932861328
 30
0.0
 10
54.01399993896484
 20
80.40399932861328
 30
0.0
 10
53.88100051879883
 20
79.58599853515625
 30
0.0
 10
54.43600082397461
 20
78.81599807739258
 30
0.0
 10
55.25400161743164
 20
78.68299865722656
 30
0.0
 10
55.33500289916992
 20
78.66999816894531
 30
0.0
 10
55.41600036621094
 20
78.66299819946289
 30
0.0
 10
55.49600219726562
 20
78.66299819946289
 30
0.0
 10
56.21900177001953
 20
78.66299819946289
 30
0.0
 10
56.85500335693359
 20
79.18599700927734
 30
0.0
 10
56.97500228881836
 20
79.9219970703125
 30
0.0
 10
56.97500228881836
 20
79.9219970703125
 30
0.0
 10
59.04300308227539
 20
92.65399932861328
 30
0.0
 10
59.04300308227539
 20
92.65399932861328
 30
0.0
 10
59.17599868774414
 20
93.4729995727539
 30
0.0
 10
58.62099838256836
 20
94.24300003051758
 30
0.0
 10
57.80300140380859
 20
94.3759994506836
 30
0.0
  0
SPLINE
  5
49
330
1F
100
AcDbEntity
  8
Layer 1
370
     0
100
AcDbSpline
210
0.0
220
0.0
230
1.0
 70
    11
 71
     3
 72
    26
 73
    22
 74
     0
 42
0.0000000001
 43
0.0000000001
 12
1.0
 22
0.0
 32
0.0
 13
1.0
 23
0.0
 33
0.0
 40
0.0
 40
0.0
 40
0.0
 40
0.0
 40
1.0
 40
1.0
 40
1.0
 40
2.0
 40
2.0
 40
2.0
 40
3.0
 40
3.0
 40
3.0
 40
4.0
 40
4.0
 40
4.0
 40
5.0
 40
5.0
 40
5.0
 40
6.0
 40
6.0
 40
6.0
 40
7.0
 40
7.0
 40
7.0
 40
7.0
 10
25.3390007019043
 20
71.66699981689453
 30
0.0
 10
24.73700141906738
 20
72.23500061035156
 30
0.0
 10
23.78700065612793
 20
72.20700073242188
 30
0.0
 10
23.21900177001953
 20
71.60499954223633
 30
0.0
 10
22.65000152587891
 20
71.00199890136719
 30
0.0
 10
22.67800140380859
 20
70.0530014038086
 30
0.0
 10
23.28100204467773
 20
69.48500061035156
 30
0.0
 10
23.28100204467773
 20
69.48500061035156
 30
0.0
 10
24.06000137329102
 20
68.75
 30
0.0
 10
24.06000137329102
 20
68.75
 30
0.0
 10
24.35000228881836
 20
68.47700119018555
 30
0.0
 10
24.72000122070312
 20
68.34099960327148
 30
0.0
 10
25.0890007019043
 20
68.34099960327148
 30
0.0
 10
25.48800086975098
 20
68.34099960327148
 30
0.0
 10
25.88500022888184
 20
68.4990005493164
 30
0.0
 10
26.18000030517578
 20
68.8120002746582
 30
0.0
 10
26.74900054931641
 20
69.41500091552734
 30
0.0
 10
26.72100067138672
 20
70.36399841308594
 30
0.0
 10
26.11800003051758
 20
70.93199920654297
 30
0.0
 10
26.11800003051758
 20
70.93199920654297
 30
0.0
 10
25.3390007019043
 20
71.66699981689453
 30
0.0
 10
25.3390007019043
 20
71.66699981689453
 30
0.0
  0
SPLINE
  5
4A
330
1F
100
AcDbEntity
  8
Layer 1
370
     0
100
AcDbSpline
210
0.0
220
0.0
230
1.0
 70
    11
 71
     3
 72
    26
 73
    22
 74
     0
 42
0.0000000001
 43
0.0000000001
 12
1.0
 22
0.0
 32
0.0
 13
1.0
 23
0.0
 33
0.0
 40
0.0
 40
0.0
 40
0.0
 40
0.0
 40
1.0
 40
1.0
 40
1.0
 40
2.0
 40
2.0
 40
2.0
 40
3.0
 40
3.0
 40
3.0
 40
4.0
 40
4.0
 40
4.0
 40
5.0
 40
5.0
 40
5.0
 40
6.0
 40
6.0
 40
6.0
 40
7.0
 40
7.0
 40
7.0
 40
7.0
 10
27.61499977111816
 20
78.95800018310547
 30
0.0
 10
27.11999893188477
 20
79.6240005493164
 30
0.0
 10
26.17899894714355
 20
79.76100158691406
 30
0.0
 10
25.51599884033203
 20
79.26699829101562
 30
0.0
 10
24.85099792480469
 20
78.77199935913086
 30
0.0
 10
24.71299934387207
 20
77.83300018310547
 30
0.0
 10
25.20699882507324
 20
77.16799926757812
 30
0.0
 10
25.20699882507324
 20
77.16799926757812
 30
0.0
 10
28.35999870300293
 20
72.9280014038086
 30
0.0
 10
28.35999870300293
 20
72.9280014038086
 30
0.0
 10
28.65399932861328
 20
72.53200149536133
 30
0.0
 10
29.10699844360352
 20
72.32400131225586
 30
0.0
 10
29.56499862670898
 20
72.32400131225586
 30
0.0
 10
29.87699890136719
 20
72.32400131225586
 30
0.0
 10
30.18999862670898
 20
72.42100143432617
 30
0.0
 10
30.45899772644043
 20
72.62100219726562
 30
0.0
 10
31.12399864196777
 20
73.1150016784668
 30
0.0
 10
31.26199722290039
 20
74.05500030517578
 30
0.0
 10
30.76799774169922
 20
74.71900177001953
 30
0.0
 10
30.76799774169922
 20
74.71900177001953
 30
0.0
 10
27.61499977111816
 20
78.95800018310547
 30
0.0
 10
27.61499977111816
 20
78.95800018310547
 30
0.0
  0
SPLINE
  5
4B
330
1F
100
AcDbEntity
  8
Layer 1
370
     0
100
AcDbSpline
210
0.0
220
0.0
230
1.0
 70
    11
 71
     3
 72
    26
 73
    22
 74
     0
 42
0.0000000001
 43
0.0000000001
 12
1.0
 22
0.0
 32
0.0
 13
1.0
 23
0.0
 33
0.0
 40
0.0
 40
0.0
 40
0.0
 40
0.0
 40
1.0
 40
1.0
 40
1.0
 40
2.0
 40
2.0
 40
2.0
 40
3.0
 40
3.0
 40
3.0
 40
4.0
 40
4.0
 40
4.0
 40
5.0
 40
5.0
 40
5.0
 40
6.0
 40
6.0
 40
6.0
 40
7.0
 40
7.0
 40
7.0
 40
7.0
 10
32.32300186157227
 20
85.05400085449219
 30
0.0
 10
31.95200157165527
 20
85.79500198364258
 30
0.0
 10
31.05100250244141
 20
86.09500122070312
 30
0.0
 10
30.31000137329102
 20
85.72500228881836
 30
0.0
 10
29.56900215148926
 20
85.35400390625
 30
0.0
 10
29.26900100708008
 20
84.4540023803711
 30
0.0
 10
29.63900184631348
 20
83.71200180053711
 30
0.0
 10
29.63900184631348
 20
83.71200180053711
 30
0.0
 10
33.34000015258789
 20
76.30900192260742
 30
0.0
 10
33.34000015258789
 20
76.30900192260742
 30
0.0
 10
33.60300064086914
 20
75.78400039672852
 30
0.0
 10
34.13199996948242
 20
75.47900009155273
 30
0.0
 10
34.68299865722656
 20
75.47900009155273
 30
0.0
 10
34.90900039672852
 20
75.47900009155273
 30
0.0
 10
35.13800048828125
 20
75.52999877929688
 30
0.0
 10
35.35299682617188
 20
75.63800048828125
 30
0.0
 10
36.09399795532227
 20
76.00899887084961
 30
0.0
 10
36.39399719238281
 20
76.90900039672852
 30
0.0
 10
36.02399826049805
 20
77.6510009765625
 30
0.0
 10
36.02399826049805
 20
77.6510009765625
 30
0.0
 10
32.32300186157227
 20
85.05400085449219
 30
0.0
 10
32.32300186157227
 20
85.05400085449219
 30
0.0
  0
SPLINE
  5
4C
330
1F
100
AcDbEntity
  8
Layer 1
370
     0
100
AcDbSpline
210
0.0
220
0.0
230
1.0
 70
    11
 71
     3
 72
    26
 73
    22
 74
     0
 42
0.0000000001
 43
0.0000000001
 12
1.0
 22
0.0
 32
0.0
 13
1.0
 23
0.0
 33
0.0
 40
0.0
 40
0.0
 40
0.0
 40
0.0
 40
1.0
 40
1.0
 40
1.0
 40
2.0
 40
2.0
 40
2.0
 40
3.0
 40
3.0
 40
3.0
 40
4.0
 40
4.0
 40
4.0
 40
5.0
 40
5.0
 40
5.0
 40
6.0
 40
6.0
 40
6.0
 40
7.0
 40
7.0
 40
7.0
 40
7.0
 10
37.11800003051758
 20
90.28799819946289
 30
0.0
 10
36.85900115966797
 20
91.07599639892578
 30
0.0
 10
36.01100158691406
 20
91.50399780273438
 30
0.0
 10
35.2239990234375
 20
91.24399948120117
 30
0.0
 10
34.4370002746582
 20
90.98500061035156
 30
0.0
 10
34.00899887084961
 20
90.13700103759766
 30
0.0
 10
34.26799774169922
 20
89.3499984741211
 30
0.0
 10
34.26799774169922
 20
89.3499984741211
 30
0.0
 10
37.83499908447266
 20
78.50899887084961
 30
0.0
 10
37.83499908447266
 20
78.50899887084961
 30
0.0
 10
38.04299926757812
 20
77.87799835205078
 30
0.0
 10
38.62899780273438
 20
77.47699737548828
 30
0.0
 10
39.25899887084961
 20
77.47699737548828
 30
0.0
 10
39.41499710083008
 20
77.47699737548828
 30
0.0
 10
39.57199859619141
 20
77.50099563598633
 30
0.0
 10
39.72800064086914
 20
77.55299758911133
 30
0.0
 10
40.51499938964844
 20
77.81199645996094
 30
0.0
 10
40.94300079345703
 20
78.65999603271484
 30
0.0
 10
40.68400192260742
 20
79.4469985961914
 30
0.0
 10
40.68400192260742
 20
79.4469985961914
 30
0.0
 10
37.11800003051758
 20
90.28799819946289
 30
0.0
 10
37.11800003051758
 20
90.28799819946289
 30
0.0
  0
SPLINE
  5
4D
330
1F
100
AcDbEntity
  8
Layer 1
370
     0
100
AcDbSpline
210
0.0
220
0.0
230
1.0
 70
    11
 71
     3
 72
    26
 73
    22
 74
     0
 42
0.0000000001
 43
0.0000000001
 12
1.0
 22
0.0
 32
0.0
 13
1.0
 23
0.0
 33
0.0
 40
0.0
 40
0.0
 40
0.0
 40
0.0
 40
1.0
 40
1.0
 40
1.0
 40
2.0
 40
2.0
 40
2.0
 40
3.0
 40
3.0
 40
3.0
 40
4.0
 40
4.0
 40
4.0
 40
5.0
 40
5.0
 40
5.0
 40
6.0
 40
6.0
 40
6.0
 40
7.0
 40
7.0
 40
7.0
 40
7.0
 10
43.91699981689453
 20
93.13599967956543
 30
0.0
 10
43.78400039672852
 20
93.95400047302246
 30
0.0
 10
43.00899887084961
 20
94.50799942016602
 30
0.0
 10
42.19599914550781
 20
94.3759994506836
 30
0.0
 10
41.37899780273438
 20
94.24300003051758
 30
0.0
 10
40.822998046875
 20
93.4729995727539
 30
0.0
 10
40.95599746704102
 20
92.65499877929688
 30
0.0
 10
40.95599746704102
 20
92.65499877929688
 30
0.0
 10
43.02699661254883
 20
79.90799713134766
 30
0.0
 10
43.02699661254883
 20
79.90799713134766
 30
0.0
 10
43.14699554443359
 20
79.1719970703125
 30
0.0
 10
43.78299713134766
 20
78.64899826049805
 30
0.0
 10
44.50599670410156
 20
78.64899826049805
 30
0.0
 10
44.58599853515625
 20
78.64899826049805
 30
0.0
 10
44.66699600219727
 20
78.65499877929688
 30
0.0
 10
44.74899673461914
 20
78.66899871826172
 30
0.0
 10
45.56599807739258
 20
78.80199813842773
 30
0.0
 10
46.12199783325195
 20
79.5719985961914
 30
0.0
 10
45.98899841308594
 20
80.38999938964844
 30
0.0
 10
45.98899841308594
 20
80.38999938964844
 30
0.0
 10
43.91699981689453
 20
93.13599967956543
 30
0.0
 10
43.91699981689453
 20
93.13599967956543
 30
0.0
  0
HATCH
  5
4E
330
1F
100
AcDbEntity
  8
Layer 1
 62
     7
420
 16777215
100
AcDbHatch
 10
0.0
 20
0.0
 30
0.0
210
0.0
220
0.0
230
1.0
  2
SOLID
 70
     1
 71
     0
 91
       13
 92
        1
 93
        1
 72
     4
 94
        3
 73
     0
 74
     1
 95
      101
 96
       97
 40
0.0
 40
0.0
 40
0.0
 40
0.0
 40
1.0
 40
1.0
 40
1.0
 40
2.0
 40
2.0
 40
2.0
 40
3.0
 40
3.0
 40
3.0
 40
4.0
 40
4.0
 40
4.0
 40
5.0
 40
5.0
 40
5.0
 40
6.0
 40
6.0
 40
6.0
 40
7.0
 40
7.0
 40
7.0
 40
8.0
 40
8.0
 40
8.0
 40
9.0
 40
9.0
 40
9.0
 40
10.0
 40
10.0
 40
10.0
 40
11.0
 40
11.0
 40
11.0
 40
12.0
 40
12.0
 40
12.0
 40
13.0
 40
13.0
 40
13.0
 40
14.0
 40
14.0
 40
14.0
 40
15.0
 40
15.0
 40
15.0
 40
16.0
 40
16.0
 40
16.0
 40
17.0
 40
17.0
 40
17.0
 40
18.0
 40
18.0
 40
18.0
 40
19.0
 40
19.0
 40
19.0
 40
20.0
 40
20.0
 40
20.0
 40
21.0
 40
21.0
 40
21.0
 40
22.0
 40
22.0
 40
22.0
 40
23.0
 40
23.0
 40
23.0
 40
24.0
 40
24.0
 40
24.0
 40
25.0
 40
25.0
 40
25.0
 40
26.0
 40
26.0
 40
26.0
 40
27.0
 40
27.0
 40
27.0
 40
28.0
 40
28.0
 40
28.0
 40
29.0
 40
29.0
 40
29.0
 40
30.0
 40
30.0
 40
30.0
 40
31.0
 40
31.0
 40
31.0
 40
32.0
 40
32.0
 40
32.0
 40
32.0
 10
82.96800231933594
 20
76.04000091552734
 10
83.29800415039062
 20
76.84600067138672
 10
83.46900177001953
 20
77.70899963378906
 10
83.46900177001953
 20
78.59300231933594
 10
83.46900177001953
 20
81.21000289916992
 10
81.93800354003906
 20
83.55900192260742
 10
79.65900421142578
 20
84.66900253295898
 10
79.73400115966797
 20
85.06800079345703
 10
79.77100372314453
 20
85.47300338745117
 10
79.77100372314453
 20
85.8810043334961
 10
79.77100372314453
 20
89.23200607299805
 10
77.32100677490234
 20
92.02000427246094
 10
74.12000274658203
 20
92.54900360107422
 10
73.71200561523438
 20
95.75900268554688
 10
71.04199981689453
 20
98.27400398254395
 10
67.76300048828125
 20
98.43900299072266
 10
66.802001953125
 20
101.0500030517578
 10
64.3290023803711
 20
102.8330039978027
 10
61.45000076293945
 20
102.8330039978027
 10
60.75
 20
102.8330039978027
 10
60.06500244140625
 20
102.7230033874512
 10
59.40299987792969
 20
102.5050048828125
 10
58.14099884033203
 20
104.1500053405762
 10
56.16699981689453
 20
105.1570053100586
 10
54.05500030517578
 20
105.1570053100586
 10
52.57600021362305
 20
105.1570053100586
 10
51.15999984741211
 20
104.668004989624
 10
49.99900054931641
 20
103.781005859375
 10
48.83700180053711
 20
104.668004989624
 10
47.42200088500977
 20
105.1570053100586
 10
45.94499969482422
 20
105.1570053100586
 10
43.83300018310547
 20
105.1570053100586
 10
41.85900115966797
 20
104.1500053405762
 10
40.59600067138672
 20
102.5050048828125
 10
39.93500137329102
 20
102.7230052947998
 10
39.25099945068359
 20
102.8330039978027
 10
38.552001953125
 20
102.8330039978027
 10
35.67100143432617
 20
102.8330039978027
 10
33.19800186157227
 20
101.05100440979
 10
32.23700332641602
 20
98.43900299072266
 10
28.95900344848633
 20
98.27200317382812
 10
26.28900337219238
 20
95.75900268554688
 10
25.88100433349609
 20
92.54900360107422
 10
22.67900466918945
 20
92.02000427246094
 10
20.22900390625
 20
89.23100280761719
 10
20.22900390625
 20
85.8810043334961
 10
20.22900390625
 20
85.47300338745117
 10
20.26700401306152
 20
85.0680046081543
 10
20.34100341796875
 20
84.66900253295898
 10
18.06300354003906
 20
83.55800247192383
 10
16.53100395202637
 20
81.21000289916992
 10
16.53100395202637
 20
78.59300231933594
 10
16.53100395202637
 20
77.71000289916992
 10
16.70200347900391
 20
76.84500122070312
 10
17.03200340270996
 20
76.04000091552734
 10
15.72500324249268
 20
74.78100204467773
 10
14.97400283813477
 20
73.04899978637695
 10
14.97400283813477
 20
71.19800186157227
 10
14.97400283813477
 20
67.24500274658203
 10
18.83800315856934
 20
64.74100112915039
 10
20.91400337219238
 20
63.39500045776367
 10
20.91400337219238
 20
63.39500045776367
 10
28.85500335693359
 20
58.25199890136719
 10
28.85500335693359
 20
58.25199890136719
 10
28.85500335693359
 20
58.25199890136719
 10
28.85500335693359
 20
54.12799835205078
 10
28.85500335693359
 20
54.12799835205078
 10
28.85500335693359
 20
51.28699493408203
 10
31.1660041809082
 20
48.97599792480469
 10
34.00600433349609
 20
48.97599792480469
 10
34.00600433349609
 20
48.97599792480469
 10
43.08700561523438
 20
48.97599792480469
 10
43.08700561523438
 20
48.97599792480469
 10
44.45100402832031
 20
46.46699523925781
 10
47.11100769042969
 20
44.84299468994141
 10
50.00000762939453
 20
44.84299468994141
 10
52.88900756835938
 20
44.84299468994141
 10
55.54800796508789
 20
46.46699523925781
 10
56.91300964355469
 20
48.97599792480469
 10
56.91300964355469
 20
48.97599792480469
 10
65.99301147460938
 20
48.97599792480469
 10
65.99301147460938
 20
48.97599792480469
 10
68.83401489257812
 20
48.97599792480469
 10
71.14401245117188
 20
51.28799438476562
 10
71.14401245117188
 20
54.12799835205078
 10
71.14401245117188
 20
54.12799835205078
 10
71.14401245117188
 20
58.25199890136719
 10
71.14401245117188
 20
58.25199890136719
 10
71.14401245117188
 20
58.25199890136719
 10
79.08401489257812
 20
63.39500045776367
 10
79.08401489257812
 20
63.39500045776367
 10
81.1600112915039
 20
64.74100112915039
 10
85.02401733398438
 20
67.24499893188477
 10
85.02401733398438
 20
71.19800186157227
 10
85.0260009765625
 20
73.04899978637695
 10
84.2750015258789
 20
74.77999877929688
 10
82.96800231933594
 20
76.04000091552734
 97
        0
 97
        0
 92
        1
 93
        1
 72
     4
 94
        3
 73
     0
 74
     1
 95
      227
 96
      223
 40
0.0
 40
0.0
 40
0.0
 40
0.0
 40
1.0
 40
1.0
 40
1.0
 40
2.0
 40
2.0
 40
2.0
 40
3.0
 40
3.0
 40
3.0
 40
4.0
 40
4.0
 40
4.0
 40
5.0
 40
5.0
 40
5.0
 40
6.0
 40
6.0
 40
6.0
 40
7.0
 40
7.0
 40
7.0
 40
8.0
 40
8.0
 40
8.0
 40
9.0
 40
9.0
 40
9.0
 40
10.0
 40
10.0
 40
10.0
 40
11.0
 40
11.0
 40
11.0
 40
12.0
 40
12.0
 40
12.0
 40
13.0
 40
13.0
 40
13.0
 40
14.0
 40
14.0
 40
14.0
 40
15.0
 40
15.0
 40
15.0
 40
16.0
 40
16.0
 40
16.0
 40
17.0
 40
17.0
 40
17.0
 40
18.0
 40
18.0
 40
18.0
 40
19.0
 40
19.0
 40
19.0
 40
20.0
 40
20.0
 40
20.0
 40
21.0
 40
21.0
 40
21.0
 40
22.0
 40
22.0
 40
22.0
 40
23.0
 40
23.0
 40
23.0
 40
24.0
 40
24.0
 40
24.0
 40
25.0
 40
25.0
 40
25.0
 40
26.0
 40
26.0
 40
26.0
 40
27.0
 40
27.0
 40
27.0
 40
28.0
 40
28.0
 40
28.0
 40
29.0
 40
29.0
 40
29.0
 40
30.0
 40
30.0
 40
30.0
 40
31.0
 40
31.0
 40
31.0
 40
32.0
 40
32.0
 40
32.0
 40
33.0
 40
33.0
 40
33.0
 40
34.0
 40
34.0
 40
34.0
 40
35.0
 40
35.0
 40
35.0
 40
36.0
 40
36.0
 40
36.0
 40
37.0
 40
37.0
 40
37.0
 40
38.0
 40
38.0
 40
38.0
 40
39.0
 40
39.0
 40
39.0
 40
40.0
 40
40.0
 40
40.0
 40
41.0
 40
41.0
 40
41.0
 40
42.0
 40
42.0
 40
42.0
 40
43.0
 40
43.0
 40
43.0
 40
44.0
 40
44.0
 40
44.0
 40
45.0
 40
45.0
 40
45.0
 40
46.0
 40
46.0
 40
46.0
 40
47.0
 40
47.0
 40
47.0
 40
48.0
 40
48.0
 40
48.0
 40
49.0
 40
49.0
 40
49.0
 40
50.0
 40
50.0
 40
50.0
 40
51.0
 40
51.0
 40
51.0
 40
52.0
 40
52.0
 40
52.0
 40
53.0
 40
53.0
 40
53.0
 40
54.0
 40
54.0
 40
54.0
 40
55.0
 40
55.0
 40
55.0
 40
56.0
 40
56.0
 40
56.0
 40
57.0
 40
57.0
 40
57.0
 40
58.0
 40
58.0
 40
58.0
 40
59.0
 40
59.0
 40
59.0
 40
60.0
 40
60.0
 40
60.0
 40
61.0
 40
61.0
 40
61.0
 40
62.0
 40
62.0
 40
62.0
 40
63.0
 40
63.0
 40
63.0
 40
64.0
 40
64.0
 40
64.0
 40
65.0
 40
65.0
 40
65.0
 40
66.0
 40
66.0
 40
66.0
 40
67.0
 40
67.0
 40
67.0
 40
68.0
 40
68.0
 40
68.0
 40
69.0
 40
69.0
 40
69.0
 40
70.0
 40
70.0
 40
70.0
 40
71.0
 40
71.0
 40
71.0
 40
72.0
 40
72.0
 40
72.0
 40
73.0
 40
73.0
 40
73.0
 40
74.0
 40
74.0
 40
74.0
 40
74.0
 10
77.45500183105469
 20
65.9119987487793
 10
77.45500183105469
 20
65.9119987487793
 10
68.83000183105469
 20
60.32599639892578
 10
68.83000183105469
 20
60.32599639892578
 10
68.40299987792969
 20
60.04999542236328
 10
68.14500427246094
 20
59.57599639892578
 10
68.14500427246094
 20
59.06699371337891
 10
68.14500427246094
 20
59.06699371337891
 10
68.14500427246094
 20
54.12799072265625
 10
68.14500427246094
 20
54.12799072265625
 10
68.14500427246094
 20
52.94099426269531
 10
67.18000793457031
 20
51.97599029541016
 10
65.99400329589844
 20
51.97599029541016
 10
65.99400329589844
 20
51.97599029541016
 10
58.27700424194336
 20
51.97599029541016
 10
58.27700424194336
 20
51.97599029541016
 10
59.40700531005859
 20
54.05399322509766
 10
60.99000549316406
 20
55.64698791503906
 10
63.64900588989258
 20
57.47998809814453
 10
64.33100891113281
 20
57.95098876953125
 10
64.50300598144531
 20
58.88398742675781
 10
64.03300476074219
 20
59.56698608398438
 10
63.56300354003906
 20
60.24898529052734
 10
62.62800598144531
 20
60.41898345947266
 10
61.94600677490234
 20
59.95098876953125
 10
57.9680061340332
 20
57.20799255371094
 10
55.96400833129883
 20
54.78398895263672
 10
54.55400848388672
 20
51.01298522949219
 10
54.55300903320312
 20
51.010986328125
 10
54.55200958251953
 20
51.00898742675781
 10
54.55101013183594
 20
51.00698852539062
 10
53.82400894165039
 20
49.08499145507812
 10
52.03701019287109
 20
47.84298706054688
 10
50.0000114440918
 20
47.84298706054688
 10
47.96201324462891
 20
47.84298706054688
 10
46.17601013183594
 20
49.08498382568359
 10
45.44901275634766
 20
51.00698852539062
 10
45.44901275634766
 20
51.00798797607422
 10
45.44801330566406
 20
51.00898742675781
 10
45.44801330566406
 20
51.00998687744141
 10
44.03901290893555
 20
54.78199005126953
 10
42.03401184082031
 20
57.20598602294922
 10
38.05501174926758
 20
59.94998931884766
 10
37.37201309204102
 20
60.41899108886719
 10
36.43901062011719
 20
60.24698638916016
 10
35.96901321411133
 20
59.56598663330078
 10
35.4990119934082
 20
58.88298797607422
 10
35.67001342773438
 20
57.94998931884766
 10
36.35201263427734
 20
57.47898864746094
 10
39.01101303100586
 20
55.64598846435547
 10
40.59401321411133
 20
54.05298614501953
 10
41.72401428222656
 20
51.97499084472656
 10
41.72401428222656
 20
51.97499084472656
 10
34.00701522827148
 20
51.97499084472656
 10
34.00701522827148
 20
51.97499084472656
 10
32.82101440429688
 20
51.97499084472656
 10
31.85601425170898
 20
52.94099426269531
 10
31.85601425170898
 20
54.12699127197266
 10
31.85601425170898
 20
54.12699127197266
 10
31.85601425170898
 20
59.06599426269531
 10
31.85601425170898
 20
59.06599426269531
 10
31.85601425170898
 20
59.57499694824219
 10
31.59801483154297
 20
60.04799652099609
 10
31.1710147857666
 20
60.32499694824219
 10
31.1710147857666
 20
60.32499694824219
 10
22.5460147857666
 20
65.91099548339844
 10
22.5460147857666
 20
65.91099548339844
 10
20.1710147857666
 20
67.44999694824219
 10
17.97401428222656
 20
69.15499496459961
 10
17.97401428222656
 20
71.19599533081055
 10
17.97401428222656
 20
72.4849967956543
 10
18.63501358032227
 20
73.6719970703125
 10
19.74201393127441
 20
74.3699951171875
 10
20.08601379394531
 20
74.58699417114258
 10
20.3280143737793
 20
74.93399429321289
 10
20.41101455688477
 20
75.3329963684082
 10
20.49401473999023
 20
75.73099517822266
 10
20.41101455688477
 20
76.14599609375
 10
20.18201446533203
 20
76.48299789428711
 10
19.75601387023926
 20
77.10799789428711
 10
19.53101348876953
 20
77.83699798583984
 10
19.53101348876953
 20
78.59199905395508
 10
19.53101348876953
 20
80.35599899291992
 10
20.78301429748535
 20
81.89999771118164
 10
22.50801277160645
 20
82.26399993896484
 10
22.95201301574707
 20
82.35800170898438
 10
23.33001327514648
 20
82.64799880981445
 10
23.53601264953613
 20
83.0530014038086
 10
23.74201202392578
 20
83.45800399780273
 10
23.75301170349121
 20
83.93400192260742
 10
23.56601333618164
 20
84.3479995727539
 10
23.34301376342773
 20
84.84399795532227
 10
23.23001289367676
 20
85.36000061035156
 10
23.23001289367676
 20
85.88100051879883
 10
23.23001289367676
 20
87.94900131225586
 10
24.90701293945312
 20
89.63199996948242
 10
27.00301361083984
 20
89.63199996948242
 10
27.00801277160645
 20
89.63199996948242
 10
27.01301383972168
 20
89.63199996948242
 10
27.01801300048828
 20
89.63199996948242
 10
27.10101318359375
 20
89.61999893188477
 10
27.18501281738281
 20
89.60900115966797
 10
27.26901245117188
 20
89.60300064086914
 10
27.72101211547852
 20
89.5620002746582
 10
28.1560115814209
 20
89.73300170898438
 10
28.46701240539551
 20
90.05599975585938
 10
28.77901268005371
 20
90.37799835205078
 10
28.92901229858398
 20
90.822998046875
 10
28.87901306152344
 20
91.26800155639648
 10
28.87901306152344
 20
91.26800155639648
 10
28.85301399230957
 20
91.47300338745117
 10
28.85301399230957
 20
91.47300338745117
 10
28.84301376342773
 20
91.54600524902344
 10
28.82901382446289
 20
91.61800384521484
 10
28.82901382446289
 20
91.6930046081543
 10
28.82901382446289
 20
93.76400375366211
 10
30.5150146484375
 20
95.44900512695312
 10
32.58601379394531
 20
95.44900512695312
 10
32.77801513671875
 20
95.44900512695312
 10
32.96401214599609
 20
95.41500473022461
 10
33.14801406860352
 20
95.38600540161133
 10
33.54401397705078
 20
95.32600593566895
 10
33.94301223754883
 20
95.42400550842285
 10
34.2650146484375
 20
95.65900611877441
 10
34.58601379394531
 20
95.89500617980957
 10
34.8010139465332
 20
96.24800682067871
 10
34.86101531982422
 20
96.64200592041016
 10
35.14301681518555
 20
98.49100494384766
 10
36.69701385498047
 20
99.83300590515137
 10
38.55601501464844
 20
99.83300590515137
 10
39.2020149230957
 20
99.83300590515137
 10
39.83301544189453
 20
99.6550064086914
 10
40.43101501464844
 20
99.30500602722168
 10
40.79701614379883
 20
99.09100532531738
 10
41.23401641845703
 20
99.04100608825684
 10
41.63901519775391
 20
99.16700553894043
 10
42.04301452636719
 20
99.29300498962402
 10
42.37401580810547
 20
99.58500480651855
 10
42.5520133972168
 20
99.9690055847168
 10
43.16701507568359
 20
101.2990055084229
 10
44.50101470947266
 20
102.1570053100586
 10
45.95001220703125
 20
102.1570053100586
 10
47.06201171875
 20
102.1570053100586
 10
48.11601257324219
 20
101.6470050811768
 10
48.84101104736328
 20
100.7580051422119
 10
49.41001129150391
 20
100.0610046386719
 10
50.59601211547852
 20
100.0600051879883
 10
51.16701126098633
 20
100.7580051422119
 10
51.89101028442383
 20
101.6470050811768
 10
52.94501113891602
 20
102.1570053100586
 10
54.06001281738281
 20
102.1570053100586
 10
55.50901412963867
 20
102.1570053100586
 10
56.84201431274414
 20
101.2980060577393
 10
57.45701217651367
 20
99.9690055847168
 10
57.63501358032227
 20
99.58500480651855
 10
57.96601104736328
 20
99.29400634765625
 10
58.37001037597656
 20
99.16700553894043
 10
58.77301025390625
 20
99.04100608825684
 10
59.21300888061523
 20
99.09100532531738
 10
59.57701110839844
 20
99.30500602722168
 10
60.17501068115234
 20
99.656005859375
 10
60.80601119995117
 20
99.83300590515137
 10
61.45401000976562
 20
99.83300590515137
 10
63.31100845336914
 20
99.83300590515137
 10
64.864013671875
 20
98.49100494384766
 10
65.14601135253906
 20
96.64200592041016
 10
65.20600891113281
 20
96.24800682067871
 10
65.41901397705078
 20
95.89400672912598
 10
65.74101257324219
 20
95.65900611877441
 10
66.06201171875
 20
95.42300605773926
 10
66.4630126953125
 20
95.32600593566895
 10
66.85700988769531
 20
95.38600540161133
 10
67.04300689697266
 20
95.41400527954102
 10
67.22801208496094
 20
95.44900512695312
 10
67.42101287841797
 20
95.44900512695312
 10
69.49201202392578
 20
95.44900512695312
 10
71.17700958251953
 20
93.76400566101074
 10
71.17700958251953
 20
91.6930046081543
 10
71.17700958251953
 20
91.61800384521484
 10
71.1620101928711
 20
91.54600524902344
 10
71.15300750732422
 20
91.47300338745117
 10
71.15300750732422
 20
91.47300338745117
 10
71.12700653076172
 20
91.26800155639648
 10
71.12700653076172
 20
91.26800155639648
 10
71.07600402832031
 20
90.82300186157227
 10
71.2280044555664
 20
90.37800216674805
 10
71.53900909423828
 20
90.05599975585938
 10
71.85000610351562
 20
89.73500061035156
 10
72.281005859375
 20
89.56399917602539
 10
72.73600769042969
 20
89.60300064086914
 10
72.82100677490234
 20
89.61000061035156
 10
72.90400695800781
 20
89.62100219726562
 10
73.01800537109375
 20
89.63999938964844
 10
75.08900451660156
 20
89.63999938964844
 10
76.77500915527344
 20
87.95399856567383
 10
76.77500915527344
 20
85.88100051879883
 10
76.77500915527344
 20
85.36100006103516
 10
76.6620101928711
 20
84.84500122070312
 10
76.4380111694336
 20
84.34700012207031
 10
76.25101470947266
 20
83.93299865722656
 10
76.26300811767578
 20
83.45700073242188
 10
76.46900939941406
 20
83.0530014038086
 10
76.67501068115234
 20
82.64900207519531
 10
77.05200958251953
 20
82.35900115966797
 10
77.49600982666016
 20
82.2650032043457
 10
79.22100830078125
 20
81.90100479125977
 10
80.47200775146484
 20
80.35700225830078
 10
80.47200775146484
 20
78.59300231933594
 10
80.47200775146484
 20
77.8380012512207
 10
80.24700927734375
 20
77.10900115966797
 10
79.82200622558594
 20
76.48400115966797
 10
79.59300994873047
 20
76.14800262451172
 10
79.510009765625
 20
75.73300170898438
 10
79.59300994873047
 20
75.33399963378906
 10
79.67601013183594
 20
74.93499755859375
 10
79.91700744628906
 20
74.5880012512207
 10
80.26200866699219
 20
74.37099838256836
 10
81.36801147460938
 20
73.6729965209961
 10
82.0300064086914
 20
72.48600006103516
 10
82.0300064086914
 20
71.1969985961914
 10
82.0260009765625
 20
69.15599822998047
 10
79.8290023803711
 20
67.45100021362305
 10
77.45500183105469
 20
65.9119987487793
 97
        0
 97
        0
 92
        1
 93
        1
 72
     4
 94
        3
 73
     0
 74
     1
 95
       23
 96
       19
 40
0.0
 40
0.0
 40
0.0
 40
0.0
 40
1.0
 40
1.0
 40
1.0
 40
2.0
 40
2.0
 40
2.0
 40
3.0
 40
3.0
 40
3.0
 40
4.0
 40
4.0
 40
4.0
 40
5.0
 40
5.0
 40
5.0
 40
6.0
 40
6.0
 40
6.0
 40
6.0
 10
50.0
 20
96.25699996948242
 10
49.17100143432617
 20
96.25699996948242
 10
48.5
 20
95.58600044250488
 10
48.5
 20
94.75699996948242
 10
48.5
 20
94.75699996948242
 10
48.5
 20
80.58699798583984
 10
48.5
 20
80.58699798583984
 10
48.5
 20
79.75799942016602
 10
49.17100143432617
 20
79.08699798583984
 10
50.0
 20
79.08699798583984
 10
50.82799911499023
 20
79.08699798583984
 10
51.5
 20
79.75799942016602
 10
51.5
 20
80.58699798583984
 10
51.5
 20
80.58699798583984
 10
51.5
 20
94.75699806213379
 10
51.5
 20
94.75699806213379
 10
51.5
 20
95.58499908447266
 10
50.82799911499023
 20
96.25699996948242
 10
50.0
 20
96.25699996948242
 97
        0
 97
        0
 92
        1
 93
        1
 72
     4
 94
        3
 73
     0
 74
     1
 95
       26
 96
       22
 40
0.0
 40
0.0
 40
0.0
 40
0.0
 40
1.0
 40
1.0
 40
1.0
 40
2.0
 40
2.0
 40
2.0
 40
3.0
 40
3.0
 40
3.0
 40
4.0
 40
4.0
 40
4.0
 40
5.0
 40
5.0
 40
5.0
 40
6.0
 40
6.0
 40
6.0
 40
7.0
 40
7.0
 40
7.0
 40
7.0
 10
74.66100311279297
 20
71.66699981689453
 10
74.66100311279297
 20
71.66699981689453
 10
73.88300323486328
 20
70.93299865722656
 10
73.88300323486328
 20
70.93299865722656
 10
73.2800064086914
 20
70.36499786376953
 10
73.25300598144531
 20
69.41499710083008
 10
73.82100677490234
 20
68.8129997253418
 10
74.11600494384766
 20
68.5
 10
74.51300811767578
 20
68.34199905395508
 10
74.9120101928711
 20
68.34199905395508
 10
75.28101348876953
 20
68.34199905395508
 10
75.65100860595703
 20
68.47800064086914
 10
75.94100952148438
 20
68.7509994506836
 10
75.94100952148438
 20
68.7509994506836
 10
76.71900939941406
 20
69.48500061035156
 10
76.71900939941406
 20
69.48500061035156
 10
77.32200622558594
 20
70.0530014038086
 10
77.34900665283203
 20
71.00300216674805
 10
76.781005859375
 20
71.60499954223633
 10
76.21300506591797
 20
72.20699691772461
 10
75.26499938964844
 20
72.23600006103516
 10
74.66100311279297
 20
71.66699981689453
 97
        0
 97
        0
 92
        1
 93
        1
 72
     4
 94
        3
 73
     0
 74
     1
 95
       26
 96
       22
 40
0.0
 40
0.0
 40
0.0
 40
0.0
 40
1.0
 40
1.0
 40
1.0
 40
2.0
 40
2.0
 40
2.0
 40
3.0
 40
3.0
 40
3.0
 40
4.0
 40
4.0
 40
4.0
 40
5.0
 40
5.0
 40
5.0
 40
6.0
 40
6.0
 40
6.0
 40
7.0
 40
7.0
 40
7.0
 40
7.0
 10
74.48300170898438
 20
79.26699829101562
 10
73.81800079345703
 20
79.7609977722168
 10
72.8790054321289
 20
79.62299728393555
 10
72.38300323486328
 20
78.95800018310547
 10
72.38300323486328
 20
78.95800018310547
 10
69.23100280761719
 20
74.71900177001953
 10
69.23100280761719
 20
74.71900177001953
 10
68.73699951171875
 20
74.05400085449219
 10
68.8759994506836
 20
73.1150016784668
 10
69.54000091552734
 20
72.62000274658203
 10
69.80999755859375
 20
72.42100143432617
 10
70.12300109863281
 20
72.32400131225586
 10
70.43499755859375
 20
72.32400131225586
 10
70.89299774169922
 20
72.32400131225586
 10
71.34500122070312
 20
72.53300094604492
 10
71.63999938964844
 20
72.9280014038086
 10
71.63999938964844
 20
72.9280014038086
 10
74.79199981689453
 20
77.16799926757812
 10
74.79199981689453
 20
77.16799926757812
 10
75.28600311279297
 20
77.83300018310547
 10
75.14700317382812
 20
78.77299880981445
 10
74.48300170898438
 20
79.26699829101562
 97
        0
 97
        0
 92
        1
 93
        1
 72
     4
 94
        3
 73
     0
 74
     1
 95
       26
 96
       22
 40
0.0
 40
0.0
 40
0.0
 40
0.0
 40
1.0
 40
1.0
 40
1.0
 40
2.0
 40
2.0
 40
2.0
 40
3.0
 40
3.0
 40
3.0
 40
4.0
 40
4.0
 40
4.0
 40
5.0
 40
5.0
 40
5.0
 40
6.0
 40
6.0
 40
6.0
 40
7.0
 40
7.0
 40
7.0
 40
7.0
 10
69.68800354003906
 20
85.7249984741211
 10
68.94700622558594
 20
86.09399795532227
 10
68.04600524902344
 20
85.79399871826172
 10
67.67500305175781
 20
85.05399703979492
 10
67.67500305175781
 20
85.05399703979492
 10
63.97500228881836
 20
77.65099716186523
 10
63.97500228881836
 20
77.65099716186523
 10
63.60500335693359
 20
76.90999603271484
 10
63.90500259399414
 20
76.00899887084961
 10
64.64600372314453
 20
75.63899612426758
 10
64.86200714111328
 20
75.53199768066406
 10
65.09000396728516
 20
75.47999572753906
 10
65.31600189208984
 20
75.47999572753906
 10
65.86600494384766
 20
75.47999572753906
 10
66.39600372314453
 20
75.78399658203125
 10
66.65900421142578
 20
76.30999755859375
 10
66.65900421142578
 20
76.30999755859375
 10
70.35900115966797
 20
83.71299743652344
 10
70.35900115966797
 20
83.71299743652344
 10
70.72899627685547
 20
84.45299911499023
 10
70.43000030517578
 20
85.35400009155273
 10
69.68800354003906
 20
85.7249984741211
 97
        0
 97
        0
 92
        1
 93
        1
 72
     4
 94
        3
 73
     0
 74
     1
 95
       26
 96
       22
 40
0.0
 40
0.0
 40
0.0
 40
0.0
 40
1.0
 40
1.0
 40
1.0
 40
2.0
 40
2.0
 40
2.0
 40
3.0
 40
3.0
 40
3.0
 40
4.0
 40
4.0
 40
4.0
 40
5.0
 40
5.0
 40
5.0
 40
6.0
 40
6.0
 40
6.0
 40
7.0
 40
7.0
 40
7.0
 40
7.0
 10
64.7750015258789
 20
91.24399948120117
 10
63.99100112915039
 20
91.50199890136719
 10
63.1410026550293
 20
91.07500076293945
 10
62.88100051879883
 20
90.28799819946289
 10
62.88100051879883
 20
90.28799819946289
 10
59.31700134277344
 20
79.45199584960938
 10
59.31700134277344
 20
79.45199584960938
 10
59.05800247192383
 20
78.66499710083008
 10
59.48600006103516
 20
77.81699752807617
 10
60.27300262451172
 20
77.5579948425293
 10
60.42800140380859
 20
77.50699615478516
 10
60.58600234985352
 20
77.48199462890625
 10
60.74200439453125
 20
77.48199462890625
 10
61.37300491333008
 20
77.48199462890625
 10
61.95900344848633
 20
77.88199615478516
 10
62.1670036315918
 20
78.51399612426758
 10
62.1670036315918
 20
78.51399612426758
 10
65.73100280761719
 20
89.3499984741211
 10
65.73100280761719
 20
89.3499984741211
 10
65.98999786376953
 20
90.13800048828125
 10
65.56300354003906
 20
90.98500061035156
 10
64.7750015258789
 20
91.24399948120117
 97
        0
 97
        0
 92
        1
 93
        1
 72
     4
 94
        3
 73
     0
 74
     1
 95
       26
 96
       22
 40
0.0
 40
0.0
 40
0.0
 40
0.0
 40
1.0
 40
1.0
 40
1.0
 40
2.0
 40
2.0
 40
2.0
 40
3.0
 40
3.0
 40
3.0
 40
4.0
 40
4.0
 40
4.0
 40
5.0
 40
5.0
 40
5.0
 40
6.0
 40
6.0
 40
6.0
 40
7.0
 40
7.0
 40
7.0
 40
7.0
 10
57.80300140380859
 20
94.3759994506836
 10
56.9890022277832
 20
94.51099967956543
 10
56.2140007019043
 20
93.95399856567383
 10
56.08200073242188
 20
93.13599967956543
 10
56.08200073242188
 20
93.13599967956543
 10
54.01399993896484
 20
80.40399932861328
 10
54.01399993896484
 20
80.40399932861328
 10
53.88100051879883
 20
79.58599853515625
 10
54.43600082397461
 20
78.81599807739258
 10
55.25400161743164
 20
78.68299865722656
 10
55.33500289916992
 20
78.66999816894531
 10
55.41600036621094
 20
78.66299819946289
 10
55.49600219726562
 20
78.66299819946289
 10
56.21900177001953
 20
78.66299819946289
 10
56.85500335693359
 20
79.18599700927734
 10
56.97500228881836
 20
79.9219970703125
 10
56.97500228881836
 20
79.9219970703125
 10
59.04300308227539
 20
92.65399932861328
 10
59.04300308227539
 20
92.65399932861328
 10
59.17599868774414
 20
93.4729995727539
 10
58.62099838256836
 20
94.24300003051758
 10
57.80300140380859
 20
94.3759994506836
 97
        0
 97
        0
 92
        1
 93
        1
 72
     4
 94
        3
 73
     0
 74
     1
 95
       26
 96
       22
 40
0.0
 40
0.0
 40
0.0
 40
0.0
 40
1.0
 40
1.0
 40
1.0
 40
2.0
 40
2.0
 40
2.0
 40
3.0
 40
3.0
 40
3.0
 40
4.0
 40
4.0
 40
4.0
 40
5.0
 40
5.0
 40
5.0
 40
6.0
 40
6.0
 40
6.0
 40
7.0
 40
7.0
 40
7.0
 40
7.0
 10
25.3390007019043
 20
71.66699981689453
 10
24.73700141906738
 20
72.23500061035156
 10
23.78700065612793
 20
72.20700073242188
 10
23.21900177001953
 20
71.60499954223633
 10
22.65000152587891
 20
71.00199890136719
 10
22.67800140380859
 20
70.0530014038086
 10
23.28100204467773
 20
69.48500061035156
 10
23.28100204467773
 20
69.48500061035156
 10
24.06000137329102
 20
68.75
 10
24.06000137329102
 20
68.75
 10
24.35000228881836
 20
68.47700119018555
 10
24.72000122070312
 20
68.34099960327148
 10
25.0890007019043
 20
68.34099960327148
 10
25.48800086975098
 20
68.34099960327148
 10
25.88500022888184
 20
68.4990005493164
 10
26.18000030517578
 20
68.8120002746582
 10
26.74900054931641
 20
69.41500091552734
 10
26.72100067138672
 20
70.36399841308594
 10
26.11800003051758
 20
70.93199920654297
 10
26.11800003051758
 20
70.93199920654297
 10
25.3390007019043
 20
71.66699981689453
 10
25.3390007019043
 20
71.66699981689453
 97
        0
 97
        0
 92
        1
 93
        1
 72
     4
 94
        3
 73
     0
 74
     1
 95
       26
 96
       22
 40
0.0
 40
0.0
 40
0.0
 40
0.0
 40
1.0
 40
1.0
 40
1.0
 40
2.0
 40
2.0
 40
2.0
 40
3.0
 40
3.0
 40
3.0
 40
4.0
 40
4.0
 40
4.0
 40
5.0
 40
5.0
 40
5.0
 40
6.0
 40
6.0
 40
6.0
 40
7.0
 40
7.0
 40
7.0
 40
7.0
 10
27.61499977111816
 20
78.95800018310547
 10
27.11999893188477
 20
79.6240005493164
 10
26.17899894714355
 20
79.76100158691406
 10
25.51599884033203
 20
79.26699829101562
 10
24.85099792480469
 20
78.77199935913086
 10
24.71299934387207
 20
77.83300018310547
 10
25.20699882507324
 20
77.16799926757812
 10
25.20699882507324
 20
77.16799926757812
 10
28.35999870300293
 20
72.9280014038086
 10
28.35999870300293
 20
72.9280014038086
 10
28.65399932861328
 20
72.53200149536133
 10
29.10699844360352
 20
72.32400131225586
 10
29.56499862670898
 20
72.32400131225586
 10
29.87699890136719
 20
72.32400131225586
 10
30.18999862670898
 20
72.42100143432617
 10
30.45899772644043
 20
72.62100219726562
 10
31.12399864196777
 20
73.1150016784668
 10
31.26199722290039
 20
74.05500030517578
 10
30.76799774169922
 20
74.71900177001953
 10
30.76799774169922
 20
74.71900177001953
 10
27.61499977111816
 20
78.95800018310547
 10
27.61499977111816
 20
78.95800018310547
 97
        0
 97
        0
 92
        1
 93
        1
 72
     4
 94
        3
 73
     0
 74
     1
 95
       26
 96
       22
 40
0.0
 40
0.0
 40
0.0
 40
0.0
 40
1.0
 40
1.0
 40
1.0
 40
2.0
 40
2.0
 40
2.0
 40
3.0
 40
3.0
 40
3.0
 40
4.0
 40
4.0
 40
4.0
 40
5.0
 40
5.0
 40
5.0
 40
6.0
 40
6.0
 40
6.0
 40
7.0
 40
7.0
 40
7.0
 40
7.0
 10
32.32300186157227
 20
85.05400085449219
 10
31.95200157165527
 20
85.79500198364258
 10
31.05100250244141
 20
86.09500122070312
 10
30.31000137329102
 20
85.72500228881836
 10
29.56900215148926
 20
85.35400390625
 10
29.26900100708008
 20
84.4540023803711
 10
29.63900184631348
 20
83.71200180053711
 10
29.63900184631348
 20
83.71200180053711
 10
33.34000015258789
 20
76.30900192260742
 10
33.34000015258789
 20
76.30900192260742
 10
33.60300064086914
 20
75.78400039672852
 10
34.13199996948242
 20
75.47900009155273
 10
34.68299865722656
 20
75.47900009155273
 10
34.90900039672852
 20
75.47900009155273
 10
35.13800048828125
 20
75.52999877929688
 10
35.35299682617188
 20
75.63800048828125
 10
36.09399795532227
 20
76.00899887084961
 10
36.39399719238281
 20
76.90900039672852
 10
36.02399826049805
 20
77.6510009765625
 10
36.02399826049805
 20
77.6510009765625
 10
32.32300186157227
 20
85.05400085449219
 10
32.32300186157227
 20
85.05400085449219
 97
        0
 97
        0
 92
        1
 93
        1
 72
     4
 94
        3
 73
     0
 74
     1
 95
       26
 96
       22
 40
0.0
 40
0.0
 40
0.0
 40
0.0
 40
1.0
 40
1.0
 40
1.0
 40
2.0
 40
2.0
 40
2.0
 40
3.0
 40
3.0
 40
3.0
 40
4.0
 40
4.0
 40
4.0
 40
5.0
 40
5.0
 40
5.0
 40
6.0
 40
6.0
 40
6.0
 40
7.0
 40
7.0
 40
7.0
 40
7.0
 10
37.11800003051758
 20
90.28799819946289
 10
36.85900115966797
 20
91.07599639892578
 10
36.01100158691406
 20
91.50399780273438
 10
35.2239990234375
 20
91.24399948120117
 10
34.4370002746582
 20
90.98500061035156
 10
34.00899887084961
 20
90.13700103759766
 10
34.26799774169922
 20
89.3499984741211
 10
34.26799774169922
 20
89.3499984741211
 10
37.83499908447266
 20
78.50899887084961
 10
37.83499908447266
 20
78.50899887084961
 10
38.04299926757812
 20
77.87799835205078
 10
38.62899780273438
 20
77.47699737548828
 10
39.25899887084961
 20
77.47699737548828
 10
39.41499710083008
 20
77.47699737548828
 10
39.57199859619141
 20
77.50099563598633
 10
39.72800064086914
 20
77.55299758911133
 10
40.51499938964844
 20
77.81199645996094
 10
40.94300079345703
 20
78.65999603271484
 10
40.68400192260742
 20
79.4469985961914
 10
40.68400192260742
 20
79.4469985961914
 10
37.11800003051758
 20
90.28799819946289
 10
37.11800003051758
 20
90.28799819946289
 97
        0
 97
        0
 92
        1
 93
        1
 72
     4
 94
        3
 73
     0
 74
     1
 95
       26
 96
       22
 40
0.0
 40
0.0
 40
0.0
 40
0.0
 40
1.0
 40
1.0
 40
1.0
 40
2.0
 40
2.0
 40
2.0
 40
3.0
 40
3.0
 40
3.0
 40
4.0
 40
4.0
 40
4.0
 40
5.0
 40
5.0
 40
5.0
 40
6.0
 40
6.0
 40
6.0
 40
7.0
 40
7.0
 40
7.0
 40
7.0
 10
43.91699981689453
 20
93.13599967956543
 10
43.78400039672852
 20
93.95400047302246
 10
43.00899887084961
 20
94.50799942016602
 10
42.19599914550781
 20
94.3759994506836
 10
41.37899780273438
 20
94.24300003051758
 10
40.822998046875
 20
93.4729995727539
 10
40.95599746704102
 20
92.65499877929688
 10
40.95599746704102
 20
92.65499877929688
 10
43.02699661254883
 20
79.90799713134766
 10
43.02699661254883
 20
79.90799713134766
 10
43.14699554443359
 20
79.1719970703125
 10
43.78299713134766
 20
78.64899826049805
 10
44.50599670410156
 20
78.64899826049805
 10
44.58599853515625
 20
78.64899826049805
 10
44.66699600219727
 20
78.65499877929688
 10
44.74899673461914
 20
78.66899871826172
 10
45.56599807739258
 20
78.80199813842773
 10
46.12199783325195
 20
79.5719985961914
 10
45.98899841308594
 20
80.38999938964844
 10
45.98899841308594
 20
80.38999938964844
 10
43.91699981689453
 20
93.13599967956543
 10
43.91699981689453
 20
93.13599967956543
 97
        0
 97
        0
 75
     2
 76
     1
 98
        0
  0
ENDSEC
  0
SECTION
  2
OBJECTS
  0
DICTIONARY
  5
C
330
0
100
AcDbDictionary
281
     1
  3
ACAD_GROUP
350
D
  3
ACAD_LAYOUT
350
1A
  3
ACAD_MATERIAL
350
3B
  3
ACAD_MLEADERSTYLE
350
50
  3
ACAD_MLINESTYLE
350
17
  3
ACAD_PLOTSETTINGS
350
19
  3
ACAD_PLOTSTYLENAME
350
E
  3
ACAD_TABLESTYLE
350
4F
  3
ACAD_VISUALSTYLE
350
2A
  0
SUN
  5
3F
330
29
100
AcDbSun
 90
        1
290
     0
 63
     7
421
 16777215
 40
1.0
291
     1
 91
  2455826
 92
 54000000
292
     0
 70
     2
 71
   256
280
     1
  0
DICTIONARY
  5
D
102
{ACAD_REACTORS
330
C
102
}
330
C
100
AcDbDictionary
281
     1
  0
DICTIONARY
  5
1A
102
{ACAD_REACTORS
330
C
102
}
330
C
100
AcDbDictionary
281
     1
  3
Layout1
350
1E
  3
Layout2
350
26
  3
Model
350
22
  0
DICTIONARY
  5
3B
102
{ACAD_REACTORS
330
C
102
}
330
C
100
AcDbDictionary
281
     1
  3
ByBlock
350
3D
  3
ByLayer
350
3C
  3
Global
350
3E
  0
DICTIONARY
  5
50
102
{ACAD_REACTORS
330
C
102
}
330
C
100
AcDbDictionary
281
     1
  0
DICTIONARY
  5
17
102
{ACAD_REACTORS
330
C
102
}
330
C
100
AcDbDictionary
281
     1
  3
Standard
350
18
  0
DICTIONARY
  5
19
102
{ACAD_REACTORS
330
C
102
}
330
C
100
AcDbDictionary
281
     1
  0
ACDBDICTIONARYWDFLT
  5
E
102
{ACAD_REACTORS
330
C
102
}
330
C
100
AcDbDictionary
281
     1
  3
Normal
350
F
100
AcDbDictionaryWithDefault
340
F
  0
DICTIONARY
  5
4F
102
{ACAD_REACTORS
330
C
102
}
330
C
100
AcDbDictionary
281
     1
  0
DICTIONARY
  5
2A
102
{ACAD_REACTORS
330
C
102
}
330
C
100
AcDbDictionary
281
     1
  3
2dWireframe
350
2F
  3
3D Hidden
350
31
  3
3dWireframe
350
30
  3
Basic
350
32
  3
Brighten
350
36
  3
ColorChange
350
3A
  3
Conceptual
350
34
  3
Dim
350
35
  3
Facepattern
350
39
  3
Flat
350
2B
  3
FlatWithEdges
350
2C
  3
Gouraud
350
2D
  3
GouraudWithEdges
350
2E
  3
Linepattern
350
38
  3
Realistic
350
33
  3
Thicken
350
37
  0
LAYOUT
  5
1E
102
{ACAD_REACTORS
330
1A
102
}
330
1A
100
AcDbPlotSettings
  1

  2
none_device
  4

  6

 40
0.0
 41
0.0
 42
0.0
 43
0.0
 44
0.0
 45
0.0
 46
0.0
 47
0.0
 48
0.0
 49
0.0
140
0.0
141
0.0
142
1.0
143
1.0
 70
   688
 72
     0
 73
     0
 74
     5
  7

 75
    16
 76
     0
 77
     2
 78
   300
147
1.0
148
0.0
149
0.0
100
AcDbLayout
  1
Layout1
 70
     1
 71
     1
 10
0.0
 20
0.0
 11
12.0
 21
9.0
 12
0.0
 22
0.0
 32
0.0
 14
1.000000000000000E+20
 24
1.000000000000000E+20
 34
1.000000000000000E+20
 15
-1.000000000000000E+20
 25
-1.000000000000000E+20
 35
-1.000000000000000E+20
146
0.0
 13
0.0
 23
0.0
 33
0.0
 16
1.0
 26
0.0
 36
0.0
 17
0.0
 27
1.0
 37
0.0
 76
     0
330
1B
  0
LAYOUT
  5
26
102
{ACAD_REACTORS
330
1A
102
}
330
1A
100
AcDbPlotSettings
  1

  2
none_device
  4

  6

 40
0.0
 41
0.0
 42
0.0
 43
0.0
 44
0.0
 45
0.0
 46
0.0
 47
0.0
 48
0.0
 49
0.0
140
0.0
141
0.0
142
1.0
143
1.0
 70
   688
 72
     0
 73
     0
 74
     5
  7

 75
    16
 76
     0
 77
     2
 78
   300
147
1.0
148
0.0
149
0.0
100
AcDbLayout
  1
Layout2
 70
     1
 71
     2
 10
0.0
 20
0.0
 11
0.0
 21
0.0
 12
0.0
 22
0.0
 32
0.0
 14
0.0
 24
0.0
 34
0.0
 15
0.0
 25
0.0
 35
0.0
146
0.0
 13
0.0
 23
0.0
 33
0.0
 16
1.0
 26
0.0
 36
0.0
 17
0.0
 27
1.0
 37
0.0
 76
     0
330
23
  0
LAYOUT
  5
22
102
{ACAD_REACTORS
330
1A
102
}
330
1A
100
AcDbPlotSettings
  1

  2
none_device
  4

  6

 40
0.0
 41
0.0
 42
0.0
 43
0.0
 44
0.0
 45
0.0
 46
0.0
 47
0.0
 48
0.0
 49
0.0
140
0.0
141
0.0
142
1.0
143
1.0
 70
  1712
 72
     0
 73
     0
 74
     0
  7

 75
     0
 76
     0
 77
     2
 78
   300
147
1.0
148
0.0
149
0.0
100
AcDbLayout
  1
Model
 70
     1
 71
     0
 10
0.0
 20
0.0
 11
12.0
 21
9.0
 12
0.0
 22
0.0
 32
0.0
 14
1.000000000000000E+20
 24
1.000000000000000E+20
 34
1.000000000000000E+20
 15
-1.000000000000000E+20
 25
-1.000000000000000E+20
 35
-1.000000000000000E+20
146
0.0
 13
0.0
 23
0.0
 33
0.0
 16
1.0
 26
0.0
 36
0.0
 17
0.0
 27
1.0
 37
0.0
 76
     0
330
1F
331
29
  0
MATERIAL
  5
3D
102
{ACAD_REACTORS
330
3B
102
}
330
3B
100
AcDbMaterial
  1
ByBlock
 72
     1
 94
      127
  0
MATERIAL
  5
3C
102
{ACAD_REACTORS
330
3B
102
}
330
3B
100
AcDbMaterial
  1
ByLayer
 72
     1
 94
      127
  0
MATERIAL
  5
3E
102
{ACAD_REACTORS
330
3B
102
}
330
3B
100
AcDbMaterial
  1
Global
 72
     1
 94
      127
  0
MLINESTYLE
  5
18
102
{ACAD_REACTORS
330
17
102
}
330
17
100
AcDbMlineStyle
  2
Standard
 70
     0
  3

 62
   256
 51
90.0
 52
90.0
 71
     2
 49
0.5
 62
   256
  6
BYLAYER
 49
-0.5
 62
   256
  6
BYLAYER
  0
ACDBPLACEHOLDER
  5
F
102
{ACAD_REACTORS
330
E
102
}
330
E
  0
VISUALSTYLE
  5
2F
102
{ACAD_REACTORS
330
2A
102
}
330
2A
100
AcDbVisualStyle
  2
2dWireframe
 70
     4
177
     2
291
     0
 71
     0
176
     1
 72
     2
176
     1
 73
     0
176
     1
 90
        0
176
     1
 40
-0.6
176
     1
 41
-30.0
176
     1
 62
     5
 63
     7
421
 16777215
176
     1
 74
     1
176
     1
 91
        4
176
     1
 64
     7
176
     1
 65
   257
176
     1
 75
     1
176
     1
175
     1
176
     1
 42
1.0
176
     1
 92
        0
176
     1
 66
   257
176
     1
 43
1.0
176
     1
 76
     1
176
     1
 77
     6
176
     1
 78
     2
176
     1
 67
     7
176
     1
 79
     5
176
     1
170
     0
176
     1
171
     0
176
     1
290
     0
176
     1
 93
        1
176
     1
 44
0.0
176
     1
173
     0
176
     1
  0
VISUALSTYLE
  5
31
102
{ACAD_REACTORS
330
2A
102
}
330
2A
100
AcDbVisualStyle
  2
3D Hidden
 70
     6
177
     2
291
     0
 71
     1
176
     1
 72
     2
176
     1
 73
     2
176
     1
 90
        0
176
     1
 40
-0.6
176
     1
 41
-30.0
176
     1
 62
     5
 63
     7
421
 16777215
176
     1
 74
     2
176
     1
 91
        2
176
     1
 64
     7
176
     1
 65
   257
176
     1
 75
     2
176
     1
175
     1
176
     1
 42
40.0
176
     1
 92
        0
176
     1
 66
   257
176
     1
 43
1.0
176
     1
 76
     1
176
     1
 77
     6
176
     1
 78
     2
176
     1
 67
     7
176
     1
 79
     3
176
     1
170
     0
176
     1
171
     0
176
     1
290
     0
176
     1
 93
        1
176
     1
 44
0.0
176
     1
173
     0
176
     1
  0
VISUALSTYLE
  5
30
102
{ACAD_REACTORS
330
2A
102
}
330
2A
100
AcDbVisualStyle
  2
3dWireframe
 70
     5
177
     2
291
     0
 71
     0
176
     1
 72
     2
176
     1
 73
     0
176
     1
 90
        0
176
     1
 40
-0.6
176
     1
 41
-30.0
176
     1
 62
     5
 63
     7
421
 16777215
176
     1
 74
     1
176
     1
 91
        4
176
     1
 64
     7
176
     1
 65
   257
176
     1
 75
     1
176
     1
175
     1
176
     1
 42
1.0
176
     1
 92
        0
176
     1
 66
   257
176
     1
 43
1.0
176
     1
 76
     1
176
     1
 77
     6
176
     1
 78
     2
176
     1
 67
     7
176
     1
 79
     5
176
     1
170
     0
176
     1
171
     0
176
     1
290
     0
176
     1
 93
        1
176
     1
 44
0.0
176
     1
173
     0
176
     1
  0
VISUALSTYLE
  5
32
102
{ACAD_REACTORS
330
2A
102
}
330
2A
100
AcDbVisualStyle
  2
Basic
 70
     7
177
     2
291
     1
 71
     1
176
     1
 72
     0
176
     1
 73
     1
176
     1
 90
        0
176
     1
 40
-0.6
176
     1
 41
-30.0
176
     1
 62
     5
 63
     7
421
 16777215
176
     1
 74
     0
176
     1
 91
        4
176
     1
 64
     7
176
     1
 65
   257
176
     1
 75
     1
176
     1
175
     1
176
     1
 42
1.0
176
     1
 92
        8
176
     1
 66
     7
176
     1
 43
1.0
176
     1
 76
     1
176
     1
 77
     6
176
     1
 78
     2
176
     1
 67
     7
176
     1
 79
     5
176
     1
170
     0
176
     1
171
     0
176
     1
290
     0
176
     1
 93
        1
176
     1
 44
0.0
176
     1
173
     0
176
     1
  0
VISUALSTYLE
  5
36
102
{ACAD_REACTORS
330
2A
102
}
330
2A
100
AcDbVisualStyle
  2
Brighten
 70
    12
177
     2
291
     1
 71
     2
176
     1
 72
     2
176
     1
 73
     0
176
     1
 90
        0
176
     1
 40
-0.6
176
     1
 41
-30.0
176
     1
 62
     5
 63
     7
421
 16777215
176
     1
 74
     1
176
     1
 91
        4
176
     1
 64
     7
176
     1
 65
   257
176
     1
 75
     1
176
     1
175
     1
176
     1
 42
1.0
176
     1
 92
        8
176
     1
 66
     7
176
     1
 43
1.0
176
     1
 76
     1
176
     1
 77
     6
176
     1
 78
     2
176
     1
 67
     7
176
     1
 79
     5
176
     1
170
     0
176
     1
171
     0
176
     1
290
     0
176
     1
 93
        1
176
     1
 44
50.0
176
     1
173
     0
176
     1
  0
VISUALSTYLE
  5
3A
102
{ACAD_REACTORS
330
2A
102
}
330
2A
100
AcDbVisualStyle
  2
ColorChange
 70
    16
177
     2
291
     1
 71
     2
176
     1
 72
     2
176
     1
 73
     3
176
     1
 90
        0
176
     1
 40
-0.6
176
     1
 41
-30.0
176
     1
 62
     5
 63
     8
421
  8421504
176
     1
 74
     1
176
     1
 91
        4
176
     1
 64
     7
176
     1
 65
   257
176
     1
 75
     1
176
     1
175
     1
176
     1
 42
1.0
176
     1
 92
        8
176
     1
 66
     8
424
  8421504
176
     1
 43
1.0
176
     1
 76
     1
176
     1
 77
     6
176
     1
 78
     2
176
     1
 67
     7
176
     1
 79
     5
176
     1
170
     0
176
     1
171
     0
176
     1
290
     0
176
     1
 93
        1
176
     1
 44
0.0
176
     1
173
     0
176
     1
  0
VISUALSTYLE
  5
34
102
{ACAD_REACTORS
330
2A
102
}
330
2A
100
AcDbVisualStyle
  2
Conceptual
 70
     9
177
     2
291
     0
 71
     3
176
     1
 72
     2
176
     1
 73
     0
176
     1
 90
        0
176
     1
 40
-0.6
176
     1
 41
-30.0
176
     1
 62
     5
 63
     7
421
 16777215
176
     1
 74
     2
176
     1
 91
        2
176
     1
 64
     7
176
     1
 65
   257
176
     1
 75
     1
176
     1
175
     1
176
     1
 42
40.0
176
     1
 92
        8
176
     1
 66
     7
176
     1
 43
1.0
176
     1
 76
     1
176
     1
 77
     6
176
     1
 78
     2
176
     1
 67
     7
176
     1
 79
     3
176
     1
170
     0
176
     1
171
     0
176
     1
290
     0
176
     1
 93
        1
176
     1
 44
0.0
176
     1
173
     0
176
     1
  0
VISUALSTYLE
  5
35
102
{ACAD_REACTORS
330
2A
102
}
330
2A
100
AcDbVisualStyle
  2
Dim
 70
    11
177
     2
291
     1
 71
     2
176
     1
 72
     2
176
     1
 73
     0
176
     1
 90
        0
176
     1
 40
-0.6
176
     1
 41
-30.0
176
     1
 62
     5
 63
     7
421
 16777215
176
     1
 74
     1
176
     1
 91
        4
176
     1
 64
     7
176
     1
 65
   257
176
     1
 75
     1
176
     1
175
     1
176
     1
 42
1.0
176
     1
 92
        8
176
     1
 66
     7
176
     1
 43
1.0
176
     1
 76
     1
176
     1
 77
     6
176
     1
 78
     2
176
     1
 67
     7
176
     1
 79
     5
176
     1
170
     0
176
     1
171
     0
176
     1
290
     0
176
     1
 93
        1
176
     1
 44
-50.0
176
     1
173
     0
176
     1
  0
VISUALSTYLE
  5
39
102
{ACAD_REACTORS
330
2A
102
}
330
2A
100
AcDbVisualStyle
  2
Facepattern
 70
    15
177
     2
291
     1
 71
     2
176
     1
 72
     2
176
     1
 73
     0
176
     1
 90
        0
176
     1
 40
-0.6
176
     1
 41
-30.0
176
     1
 62
     5
 63
     7
421
 16777215
176
     1
 74
     1
176
     1
 91
        4
176
     1
 64
     7
176
     1
 65
   257
176
     1
 75
     1
176
     1
175
     1
176
     1
 42
1.0
176
     1
 92
        8
176
     1
 66
     7
176
     1
 43
1.0
176
     1
 76
     1
176
     1
 77
     6
176
     1
 78
     2
176
     1
 67
     7
176
     1
 79
     5
176
     1
170
     0
176
     1
171
     0
176
     1
290
     0
176
     1
 93
        1
176
     1
 44
0.0
176
     1
173
     0
176
     1
  0
VISUALSTYLE
  5
2B
102
{ACAD_REACTORS
330
2A
102
}
330
2A
100
AcDbVisualStyle
  2
Flat
 70
     0
177
     2
291
     1
 71
     2
176
     1
 72
     1
176
     1
 73
     1
176
     1
 90
        2
176
     1
 40
-0.6
176
     1
 41
30.0
176
     1
 62
     5
 63
     7
421
 16777215
176
     1
 74
     0
176
     1
 91
        4
176
     1
 64
     7
176
     1
 65
   257
176
     1
 75
     1
176
     1
175
     1
176
     1
 42
1.0
176
     1
 92
        8
176
     1
 66
     7
176
     1
 43
1.0
176
     1
 76
     1
176
     1
 77
     6
176
     1
 78
     2
176
     1
 67
     7
176
     1
 79
     5
176
     1
170
     0
176
     1
171
     0
176
     1
290
     0
176
     1
 93
       13
176
     1
 44
0.0
176
     1
173
     0
176
     1
  0
VISUALSTYLE
  5
2C
102
{ACAD_REACTORS
330
2A
102
}
330
2A
100
AcDbVisualStyle
  2
FlatWithEdges
 70
     1
177
     2
291
     1
 71
     2
176
     1
 72
     1
176
     1
 73
     1
176
     1
 90
        2
176
     1
 40
-0.6
176
     1
 41
30.0
176
     1
 62
     5
 63
     7
421
 16777215
176
     1
 74
     1
176
     1
 91
        4
176
     1
 64
     7
176
     1
 65
   257
176
     1
 75
     1
176
     1
175
     1
176
     1
 42
1.0
176
     1
 92
        0
176
     1
 66
   257
176
     1
 43
1.0
176
     1
 76
     1
176
     1
 77
     6
176
     1
 78
     2
176
     1
 67
     7
176
     1
 79
     5
176
     1
170
     0
176
     1
171
     0
176
     1
290
     0
176
     1
 93
       13
176
     1
 44
0.0
176
     1
173
     0
176
     1
  0
VISUALSTYLE
  5
2D
102
{ACAD_REACTORS
330
2A
102
}
330
2A
100
AcDbVisualStyle
  2
Gouraud
 70
     2
177
     2
291
     1
 71
     2
176
     1
 72
     2
176
     1
 73
     1
176
     1
 90
        2
176
     1
 40
-0.6
176
     1
 41
30.0
176
     1
 62
     5
 63
     7
421
 16777215
176
     1
 74
     0
176
     1
 91
        4
176
     1
 64
     7
176
     1
 65
   257
176
     1
 75
     1
176
     1
175
     1
176
     1
 42
1.0
176
     1
 92
        0
176
     1
 66
     7
176
     1
 43
1.0
176
     1
 76
     1
176
     1
 77
     6
176
     1
 78
     2
176
     1
 67
     7
176
     1
 79
     5
176
     1
170
     0
176
     1
171
     0
176
     1
290
     0
176
     1
 93
       13
176
     1
 44
0.0
176
     1
173
     0
176
     1
  0
VISUALSTYLE
  5
2E
102
{ACAD_REACTORS
330
2A
102
}
330
2A
100
AcDbVisualStyle
  2
GouraudWithEdges
 70
     3
177
     2
291
     1
 71
     2
176
     1
 72
     2
176
     1
 73
     1
176
     1
 90
        2
176
     1
 40
-0.6
176
     1
 41
30.0
176
     1
 62
     5
 63
     7
421
 16777215
176
     1
 74
     1
176
     1
 91
        4
176
     1
 64
     7
176
     1
 65
   257
176
     1
 75
     1
176
     1
175
     1
176
     1
 42
1.0
176
     1
 92
        0
176
     1
 66
   257
176
     1
 43
1.0
176
     1
 76
     1
176
     1
 77
     6
176
     1
 78
     2
176
     1
 67
     7
176
     1
 79
     5
176
     1
170
     0
176
     1
171
     0
176
     1
290
     0
176
     1
 93
       13
176
     1
 44
0.0
176
     1
173
     0
176
     1
  0
VISUALSTYLE
  5
38
102
{ACAD_REACTORS
330
2A
102
}
330
2A
100
AcDbVisualStyle
  2
Linepattern
 70
    14
177
     2
291
     1
 71
     2
176
     1
 72
     2
176
     1
 73
     0
176
     1
 90
        0
176
     1
 40
-0.6
176
     1
 41
-30.0
176
     1
 62
     5
 63
     7
421
 16777215
176
     1
 74
     1
176
     1
 91
        4
176
     1
 64
     7
176
     1
 65
   257
176
     1
 75
     7
176
     1
175
     7
176
     1
 42
1.0
176
     1
 92
        8
176
     1
 66
     7
176
     1
 43
1.0
176
     1
 76
     1
176
     1
 77
     6
176
     1
 78
     2
176
     1
 67
     7
176
     1
 79
     5
176
     1
170
     0
176
     1
171
     0
176
     1
290
     0
176
     1
 93
        1
176
     1
 44
0.0
176
     1
173
     0
176
     1
  0
VISUALSTYLE
  5
33
102
{ACAD_REACTORS
330
2A
102
}
330
2A
100
AcDbVisualStyle
  2
Realistic
 70
     8
177
     2
291
     0
 71
     2
176
     1
 72
     2
176
     1
 73
     0
176
     1
 90
        0
176
     1
 40
-0.6
176
     1
 41
-30.0
176
     1
 62
     5
 63
     7
421
 16777215
176
     1
 74
     1
176
     1
 91
        0
176
     1
 64
     7
176
     1
 65
   257
176
     1
 75
     1
176
     1
175
     1
176
     1
 42
1.0
176
     1
 92
        8
176
     1
 66
     8
424
  7895160
176
     1
 43
1.0
176
     1
 76
     1
176
     1
 77
     6
176
     1
 78
     2
176
     1
 67
     7
176
     1
 79
     5
176
     1
170
     0
176
     1
171
     0
176
     1
290
     0
176
     1
 93
       13
176
     1
 44
0.0
176
     1
173
     0
176
     1
  0
VISUALSTYLE
  5
37
102
{ACAD_REACTORS
330
2A
102
}
330
2A
100
AcDbVisualStyle
  2
Thicken
 70
    13
177
     2
291
     1
 71
     2
176
     1
 72
     2
176
     1
 73
     0
176
     1
 90
        0
176
     1
 40
-0.6
176
     1
 41
-30.0
176
     1
 62
     5
 63
     7
421
 16777215
176
     1
 74
     1
176
     1
 91
        4
176
     1
 64
     7
176
     1
 65
   257
176
     1
 75
     1
176
     1
175
     1
176
     1
 42
1.0
176
     1
 92
       12
176
     1
 66
     7
176
     1
 43
1.0
176
     1
 76
     1
176
     1
 77
     6
176
     1
 78
     2
176
     1
 67
     7
176
     1
 79
     5
176
     1
170
     0
176
     1
171
     0
176
     1
290
     0
176
     1
 93
        1
176
     1
 44
0.0
176
     1
173
     0
176
     1
  0
ENDSEC
  0
EOF
