<?xml version="1.0" encoding="utf-8"?>
<!-- Generator: Adobe Illustrator 19.2.1, SVG Export Plug-In . SVG Version: 6.00 Build 0)  -->
<svg version="1.1" id="Layer_1" xmlns="http://www.w3.org/2000/svg" xmlns:xlink="http://www.w3.org/1999/xlink" x="0px" y="0px"
	 viewBox="0 0 100 125" style="enable-background:new 0 0 100 125;" xml:space="preserve">
<path d="M85.1,47c2.1-1.8,2-5.2-0.4-6.8L65.9,27.4c-10-6.3-22.8-6.3-32.8,0L14.3,40.3C12,41.8,11.8,45.2,14,47l19.7,16.8
	c2,1.7,2,4.8,0,6.5l-3.9,3.3c-1.5,1.3-0.6,3.7,1.4,3.7h36.8c2,0,2.9-2.5,1.4-3.7l-3.9-3.3c-2-1.7-2-4.8,0-6.5L85.1,47z M19.5,45.4
	c-0.3-0.5-0.2-1.1,0.3-1.5l15.6-10.6c8.6-5.4,19.7-5.4,28.3,0l15.6,10.7c0.5,0.3,0.6,1,0.3,1.5c-0.2,0.3-0.5,0.5-0.9,0.5
	c-0.2,0-0.4-0.1-0.6-0.2L62.5,35c-7.9-5-18.1-5-26,0L21,45.7C20.5,46,19.8,45.9,19.5,45.4z M39.2,61.7c-0.2,0.3-0.5,0.4-0.8,0.4
	c-0.2,0-0.5-0.1-0.7-0.2L24.8,51.2c-0.5-0.4-0.5-1-0.1-1.5c0.4-0.5,1-0.5,1.5-0.1l12.9,10.6C39.5,60.6,39.6,61.3,39.2,61.7z
	 M45,63.6c-0.1,0-0.3,0.1-0.4,0.1c-0.4,0-0.8-0.3-1-0.7l-7.9-19.8c-0.2-0.5,0-1.2,0.6-1.4c0.5-0.2,1.2,0,1.4,0.6l7.9,19.8
	C45.8,62.8,45.6,63.4,45,63.6z M50.6,65.3c0,0.6-0.5,1.1-1.1,1.1c-0.6,0-1.1-0.5-1.1-1.1V37.5c0-0.6,0.5-1.1,1.1-1.1
	c0.6,0,1.1,0.5,1.1,1.1V65.3z M54.5,63.7c-0.1,0-0.3,0-0.4-0.1c-0.5-0.2-0.8-0.8-0.6-1.4l7.9-19.8c0.2-0.5,0.8-0.8,1.4-0.6
	c0.5,0.2,0.8,0.8,0.6,1.4L55.5,63C55.3,63.4,54.9,63.7,54.5,63.7z M61.4,61.9c-0.2,0.2-0.4,0.2-0.7,0.2c-0.3,0-0.6-0.1-0.8-0.4
	c-0.4-0.5-0.3-1.1,0.1-1.5l12.9-10.6c0.5-0.4,1.1-0.3,1.5,0.1s0.3,1.1-0.1,1.5L61.4,61.9z"/>
</svg>
