  0
SECTION
  2
HEADER
  9
$ACADVER
  1
AC1024
  9
$ACADMAINTVER
 70
     6
  9
$DWGCODEPAGE
  3
UNDEFINED
  9
$INSBASE
 10
0.0
 20
0.0
 30
0.0
  9
$EXTMIN
 10
1.000000000000000E+20
 20
1.000000000000000E+20
 30
1.000000000000000E+20
  9
$EXTMAX
 10
-1.000000000000000E+20
 20
-1.000000000000000E+20
 30
-1.000000000000000E+20
  9
$LIMMIN
 10
0.0
 20
0.0
  9
$LIMMAX
 10
12.0
 20
9.0
  9
$ORTHOMODE
 70
     0
  9
$REGENMODE
 70
     1
  9
$FILLMODE
 70
     1
  9
$QTEXTMODE
 70
     0
  9
$MIRRTEXT
 70
     1
  9
$LTSCALE
 40
1.0
  9
$ATTMODE
 70
     1
  9
$TEXTSIZE
 40
0.2
  9
$TRACEWID
 40
0.05
  9
$TEXTSTYLE
  7
Standard
  9
$CLAYER
  8
0
  9
$CELTYPE
  6
ByLayer
  9
$CECOLOR
 62
   256
  9
$CELTSCALE
 40
1.0
  9
$DISPSILH
 70
     0
  9
$DIMSCALE
 40
1.0
  9
$DIMASZ
 40
0.18
  9
$DIMEXO
 40
0.0625
  9
$DIMDLI
 40
0.38
  9
$DIMRND
 40
0.0
  9
$DIMDLE
 40
0.0
  9
$DIMEXE
 40
0.18
  9
$DIMTP
 40
0.0
  9
$DIMTM
 40
0.0
  9
$DIMTXT
 40
0.18
  9
$DIMCEN
 40
0.09
  9
$DIMTSZ
 40
0.0
  9
$DIMTOL
 70
     0
  9
$DIMLIM
 70
     0
  9
$DIMTIH
 70
     1
  9
$DIMTOH
 70
     1
  9
$DIMSE1
 70
     0
  9
$DIMSE2
 70
     0
  9
$DIMTAD
 70
     0
  9
$DIMZIN
 70
     0
  9
$DIMBLK
  1

  9
$DIMASO
 70
     1
  9
$DIMSHO
 70
     1
  9
$DIMPOST
  1

  9
$DIMAPOST
  1

  9
$DIMALT
 70
     0
  9
$DIMALTD
 70
     2
  9
$DIMALTF
 40
25.4
  9
$DIMLFAC
 40
1.0
  9
$DIMTOFL
 70
     0
  9
$DIMTVP
 40
0.0
  9
$DIMTIX
 70
     0
  9
$DIMSOXD
 70
     0
  9
$DIMSAH
 70
     0
  9
$DIMBLK1
  1

  9
$DIMBLK2
  1

  9
$DIMSTYLE
  2
Standard
  9
$DIMCLRD
 70
     0
  9
$DIMCLRE
 70
     0
  9
$DIMCLRT
 70
     0
  9
$DIMTFAC
 40
1.0
  9
$DIMGAP
 40
0.09
  9
$DIMJUST
 70
     0
  9
$DIMSD1
 70
     0
  9
$DIMSD2
 70
     0
  9
$DIMTOLJ
 70
     1
  9
$DIMTZIN
 70
     0
  9
$DIMALTZ
 70
     0
  9
$DIMALTTZ
 70
     0
  9
$DIMUPT
 70
     0
  9
$DIMDEC
 70
     4
  9
$DIMTDEC
 70
     4
  9
$DIMALTU
 70
     2
  9
$DIMALTTD
 70
     2
  9
$DIMTXSTY
  7
Standard
  9
$DIMAUNIT
 70
     0
  9
$DIMADEC
 70
     0
  9
$DIMALTRND
 40
0.0
  9
$DIMAZIN
 70
     0
  9
$DIMDSEP
 70
    46
  9
$DIMATFIT
 70
     3
  9
$DIMFRAC
 70
     0
  9
$DIMLDRBLK
  1

  9
$DIMLUNIT
 70
     2
  9
$DIMLWD
 70
    -2
  9
$DIMLWE
 70
    -2
  9
$DIMTMOVE
 70
     0
  9
$DIMFXL
 40
1.0
  9
$DIMFXLON
 70
     0
  9
$DIMJOGANG
 40
0.7853981633974483
  9
$DIMTFILL
 70
     0
  9
$DIMTFILLCLR
 70
     0
  9
$DIMARCSYM
 70
     0
  9
$DIMLTYPE
  6

  9
$DIMLTEX1
  6

  9
$DIMLTEX2
  6

  9
$DIMTXTDIRECTION
 70
     0
  9
$LUNITS
 70
     2
  9
$LUPREC
 70
     4
  9
$SKETCHINC
 40
0.1
  9
$FILLETRAD
 40
0.5
  9
$AUNITS
 70
     0
  9
$AUPREC
 70
     0
  9
$MENU
  1
.
  9
$ELEVATION
 40
0.0
  9
$PELEVATION
 40
0.0
  9
$THICKNESS
 40
0.0
  9
$LIMCHECK
 70
     0
  9
$CHAMFERA
 40
0.5
  9
$CHAMFERB
 40
0.5
  9
$CHAMFERC
 40
1.0
  9
$CHAMFERD
 40
0.0
  9
$SKPOLY
 70
     0
  9
$TDCREATE
 40
2457535.61366897
  9
$TDUCREATE
 40
2457535.822002315
  9
$TDUPDATE
 40
2457535.61366897
  9
$TDUUPDATE
 40
2457535.822002315
  9
$TDINDWG
 40
0.0000000116
  9
$TDUSRTIMER
 40
0.0000000116
  9
$USRTIMER
 70
     1
  9
$ANGBASE
 50
0.0
  9
$ANGDIR
 70
     0
  9
$PDMODE
 70
     0
  9
$PDSIZE
 40
0.0
  9
$PLINEWID
 40
0.0
  9
$SPLFRAME
 70
     0
  9
$SPLINETYPE
 70
     6
  9
$SPLINESEGS
 70
     8
  9
$HANDSEED
  5
50
  9
$SURFTAB1
 70
     6
  9
$SURFTAB2
 70
     6
  9
$SURFTYPE
 70
     6
  9
$SURFU
 70
     6
  9
$SURFV
 70
     6
  9
$UCSBASE
  2

  9
$UCSNAME
  2

  9
$UCSORG
 10
0.0
 20
0.0
 30
0.0
  9
$UCSXDIR
 10
1.0
 20
0.0
 30
0.0
  9
$UCSYDIR
 10
0.0
 20
1.0
 30
0.0
  9
$UCSORTHOREF
  2

  9
$UCSORTHOVIEW
 70
     0
  9
$UCSORGTOP
 10
0.0
 20
0.0
 30
0.0
  9
$UCSORGBOTTOM
 10
0.0
 20
0.0
 30
0.0
  9
$UCSORGLEFT
 10
0.0
 20
0.0
 30
0.0
  9
$UCSORGRIGHT
 10
0.0
 20
0.0
 30
0.0
  9
$UCSORGFRONT
 10
0.0
 20
0.0
 30
0.0
  9
$UCSORGBACK
 10
0.0
 20
0.0
 30
0.0
  9
$PUCSBASE
  2

  9
$PUCSNAME
  2

  9
$PUCSORG
 10
0.0
 20
0.0
 30
0.0
  9
$PUCSXDIR
 10
1.0
 20
0.0
 30
0.0
  9
$PUCSYDIR
 10
0.0
 20
1.0
 30
0.0
  9
$PUCSORTHOREF
  2

  9
$PUCSORTHOVIEW
 70
     0
  9
$PUCSORGTOP
 10
0.0
 20
0.0
 30
0.0
  9
$PUCSORGBOTTOM
 10
0.0
 20
0.0
 30
0.0
  9
$PUCSORGLEFT
 10
0.0
 20
0.0
 30
0.0
  9
$PUCSORGRIGHT
 10
0.0
 20
0.0
 30
0.0
  9
$PUCSORGFRONT
 10
0.0
 20
0.0
 30
0.0
  9
$PUCSORGBACK
 10
0.0
 20
0.0
 30
0.0
  9
$USERI1
 70
     0
  9
$USERI2
 70
     0
  9
$USERI3
 70
     0
  9
$USERI4
 70
     0
  9
$USERI5
 70
     0
  9
$USERR1
 40
0.0
  9
$USERR2
 40
0.0
  9
$USERR3
 40
0.0
  9
$USERR4
 40
0.0
  9
$USERR5
 40
0.0
  9
$WORLDVIEW
 70
     1
  9
$SHADEDGE
 70
     3
  9
$SHADEDIF
 70
    70
  9
$TILEMODE
 70
     1
  9
$MAXACTVP
 70
    64
  9
$PINSBASE
 10
0.0
 20
0.0
 30
0.0
  9
$PLIMCHECK
 70
     0
  9
$PEXTMIN
 10
1.000000000000000E+20
 20
1.000000000000000E+20
 30
1.000000000000000E+20
  9
$PEXTMAX
 10
-1.000000000000000E+20
 20
-1.000000000000000E+20
 30
-1.000000000000000E+20
  9
$PLIMMIN
 10
0.0
 20
0.0
  9
$PLIMMAX
 10
12.0
 20
9.0
  9
$UNITMODE
 70
     0
  9
$VISRETAIN
 70
     1
  9
$PLINEGEN
 70
     0
  9
$PSLTSCALE
 70
     1
  9
$TREEDEPTH
 70
  3020
  9
$CMLSTYLE
  2
Standard
  9
$CMLJUST
 70
     0
  9
$CMLSCALE
 40
1.0
  9
$PROXYGRAPHICS
 70
     1
  9
$MEASUREMENT
 70
     0
  9
$CELWEIGHT
370
    -1
  9
$ENDCAPS
280
     0
  9
$JOINSTYLE
280
     0
  9
$LWDISPLAY
290
     1
  9
$INSUNITS
 70
     1
  9
$HYPERLINKBASE
  1

  9
$STYLESHEET
  1

  9
$XEDIT
290
     1
  9
$CEPSNTYPE
380
     0
  9
$PSTYLEMODE
290
     1
  9
$FINGERPRINTGUID
  2
{57494AF1-C92E-EBA8-F385-EC0AD63E6C1C}
  9
$VERSIONGUID
  2
{FAEB1C32-E019-11D5-929B-00C0DF256EC4}
  9
$EXTNAMES
290
     1
  9
$PSVPSCALE
 40
0.0
  9
$OLESTARTUP
290
     0
  9
$SORTENTS
280
   127
  9
$INDEXCTL
280
     0
  9
$HIDETEXT
280
     1
  9
$XCLIPFRAME
280
     2
  9
$HALOGAP
280
     0
  9
$OBSCOLOR
 70
   257
  9
$OBSLTYPE
280
     0
  9
$INTERSECTIONDISPLAY
280
     0
  9
$INTERSECTIONCOLOR
 70
   257
  9
$DIMASSOC
280
     2
  9
$PROJECTNAME
  1

  9
$CAMERADISPLAY
290
     0
  9
$LENSLENGTH
 40
50.0
  9
$CAMERAHEIGHT
 40
0.0
  9
$STEPSPERSEC
 40
2.0
  9
$STEPSIZE
 40
6.0
  9
$3DDWFPREC
 40
2.0
  9
$PSOLWIDTH
 40
0.25
  9
$PSOLHEIGHT
 40
4.0
  9
$LOFTANG1
 40
1.570796326794897
  9
$LOFTANG2
 40
1.570796326794897
  9
$LOFTMAG1
 40
0.0
  9
$LOFTMAG2
 40
0.0
  9
$LOFTPARAM
 70
     7
  9
$LOFTNORMALS
280
     1
  9
$LATITUDE
 40
37.795
  9
$LONGITUDE
 40
-122.394
  9
$NORTHDIRECTION
 40
0.0
  9
$TIMEZONE
 70
 -8000
  9
$LIGHTGLYPHDISPLAY
280
     1
  9
$TILEMODELIGHTSYNCH
280
     1
  9
$CMATERIAL
347
3C
  9
$SOLIDHIST
280
     1
  9
$SHOWHIST
280
     1
  9
$DWFFRAME
280
     2
  9
$DGNFRAME
280
     2
  9
$REALWORLDSCALE
290
     1
  9
$INTERFERECOLOR
 62
   256
  9
$CSHADOW
280
     0
  9
$SHADOWPLANELOCATION
 40
0.0
  0
ENDSEC
  0
SECTION
  2
CLASSES
  0
CLASS
  1
ACDBDICTIONARYWDFLT
  2
AcDbDictionaryWithDefault
  3
ObjectDBX Classes
 90
        0
 91
        4
280
     0
281
     0
  0
CLASS
  1
VISUALSTYLE
  2
AcDbVisualStyle
  3
ObjectDBX Classes
 90
     4095
 91
        4
280
     0
281
     0
  0
CLASS
  1
MATERIAL
  2
AcDbMaterial
  3
ObjectDBX Classes
 90
     1153
 91
        4
280
     0
281
     0
  0
CLASS
  1
SUN
  2
AcDbSun
  3
SCENEOE
 90
     1024
 91
        4
280
     0
281
     0
  0
ENDSEC
  0
SECTION
  2
TABLES
  0
TABLE
  2
VPORT
  5
8
330
0
100
AcDbSymbolTable
 70
     1
  0
VPORT
  5
29
330
8
100
AcDbSymbolTableRecord
100
AcDbViewportTableRecord
  2
*Active
 70
     0
 10
0.0
 20
0.0
 11
1.0
 21
1.0
 12
0.0
 22
0.0
 13
0.0
 23
0.0
 14
0.5
 24
0.5
 15
0.5
 25
0.5
 16
0.0
 26
0.0
 36
1.0
 17
50.0
 27
62.5
 37
0.0
 40
125.0
 41
0.8
 42
50.0
 43
0.0
 44
0.0
 50
0.0
 51
0.0
 71
     0
 72
   100
 73
     1
 74
     3
 75
     0
 76
     0
 77
     0
 78
     0
281
     0
 65
     1
110
0.0
120
0.0
130
0.0
111
1.0
121
0.0
131
0.0
112
0.0
122
1.0
132
0.0
 79
     0
146
0.0
 60
     3
 61
     5
292
     1
282
     1
141
0.0
142
0.0
 63
   250
361
3F
  0
ENDTAB
  0
TABLE
  2
LTYPE
  5
5
330
0
100
AcDbSymbolTable
 70
     1
  0
LTYPE
  5
14
330
5
100
AcDbSymbolTableRecord
100
AcDbLinetypeTableRecord
  2
ByBlock
 70
     0
  3

 72
    65
 73
     0
 40
0.0
  0
LTYPE
  5
15
330
5
100
AcDbSymbolTableRecord
100
AcDbLinetypeTableRecord
  2
ByLayer
 70
     0
  3

 72
    65
 73
     0
 40
0.0
  0
LTYPE
  5
16
330
5
100
AcDbSymbolTableRecord
100
AcDbLinetypeTableRecord
  2
Continuous
 70
     0
  3
Solid line
 72
    65
 73
     0
 40
0.0
  0
ENDTAB
  0
TABLE
  2
LAYER
  5
2
330
0
100
AcDbSymbolTable
 70
     2
  0
LAYER
  5
10
330
2
100
AcDbSymbolTableRecord
100
AcDbLayerTableRecord
  2
0
 70
     0
 62
     7
  6
Continuous
370
    -3
390
F
347
3E
  0
LAYER
  5
40
330
2
100
AcDbSymbolTableRecord
100
AcDbLayerTableRecord
  2
Layer 1
 70
     0
 62
     7
  6
Continuous
370
    -3
390
F
347
3E
  0
ENDTAB
  0
TABLE
  2
STYLE
  5
3
330
0
100
AcDbSymbolTable
 70
     1
  0
STYLE
  5
11
330
3
100
AcDbSymbolTableRecord
100
AcDbTextStyleTableRecord
  2
Standard
 70
     0
 40
0.0
 41
1.0
 50
0.0
 71
     0
 42
0.2
  3
txt
  4

  0
ENDTAB
  0
TABLE
  2
VIEW
  5
6
330
0
100
AcDbSymbolTable
 70
     0
  0
ENDTAB
  0
TABLE
  2
UCS
  5
7
330
0
100
AcDbSymbolTable
 70
     0
  0
ENDTAB
  0
TABLE
  2
APPID
  5
9
330
0
100
AcDbSymbolTable
 70
     1
  0
APPID
  5
12
330
9
100
AcDbSymbolTableRecord
100
AcDbRegAppTableRecord
  2
ACAD
 70
     0
  0
ENDTAB
  0
TABLE
  2
DIMSTYLE
  5
A
330
0
100
AcDbSymbolTable
 70
     1
100
AcDbDimStyleTable
  0
DIMSTYLE
105
27
330
A
100
AcDbSymbolTableRecord
100
AcDbDimStyleTableRecord
  2
Standard
 70
     0
178
     0
340
11
  0
ENDTAB
  0
TABLE
  2
BLOCK_RECORD
  5
1
330
0
100
AcDbSymbolTable
 70
     1
  0
BLOCK_RECORD
  5
1F
330
1
100
AcDbSymbolTableRecord
100
AcDbBlockTableRecord
  2
*Model_Space
340
22
 70
     0
280
     1
281
     0
  0
BLOCK_RECORD
  5
1B
330
1
100
AcDbSymbolTableRecord
100
AcDbBlockTableRecord
  2
*Paper_Space
340
1E
 70
     0
280
     1
281
     0
  0
BLOCK_RECORD
  5
23
330
1
100
AcDbSymbolTableRecord
100
AcDbBlockTableRecord
  2
*Paper_Space0
340
26
 70
     0
280
     1
281
     0
  0
ENDTAB
  0
ENDSEC
  0
SECTION
  2
BLOCKS
  0
BLOCK
  5
20
330
1F
100
AcDbEntity
  8
0
100
AcDbBlockBegin
  2
*Model_Space
 70
     0
 10
0.0
 20
0.0
 30
0.0
  3
*Model_Space
  1

  0
ENDBLK
  5
21
330
1F
100
AcDbEntity
  8
0
100
AcDbBlockEnd
  0
BLOCK
  5
1C
330
1B
100
AcDbEntity
 67
     1
  8
0
100
AcDbBlockBegin
  2
*Paper_Space
 70
     0
 10
0.0
 20
0.0
 30
0.0
  3
*Paper_Space
  1

  0
ENDBLK
  5
1D
330
1B
100
AcDbEntity
 67
     1
  8
0
100
AcDbBlockEnd
  0
BLOCK
  5
24
330
23
100
AcDbEntity
  8
0
100
AcDbBlockBegin
  2
*Paper_Space0
 70
     0
 10
0.0
 20
0.0
 30
0.0
  3
*Paper_Space0
  1

  0
ENDBLK
  5
25
330
23
100
AcDbEntity
  8
0
100
AcDbBlockEnd
  0
ENDSEC
  0
SECTION
  2
ENTITIES
  0
SPLINE
  5
41
330
1F
100
AcDbEntity
  8
Layer 1
370
     0
100
AcDbSpline
210
0.0
220
0.0
230
1.0
 70
    11
 71
     3
 72
    71
 73
    67
 74
     0
 42
0.0000000001
 43
0.0000000001
 12
1.0
 22
0.0
 32
0.0
 13
1.0
 23
0.0
 33
0.0
 40
0.0
 40
0.0
 40
0.0
 40
0.0
 40
1.0
 40
1.0
 40
1.0
 40
2.0
 40
2.0
 40
2.0
 40
3.0
 40
3.0
 40
3.0
 40
4.0
 40
4.0
 40
4.0
 40
5.0
 40
5.0
 40
5.0
 40
6.0
 40
6.0
 40
6.0
 40
7.0
 40
7.0
 40
7.0
 40
8.0
 40
8.0
 40
8.0
 40
9.0
 40
9.0
 40
9.0
 40
10.0
 40
10.0
 40
10.0
 40
11.0
 40
11.0
 40
11.0
 40
12.0
 40
12.0
 40
12.0
 40
13.0
 40
13.0
 40
13.0
 40
14.0
 40
14.0
 40
14.0
 40
15.0
 40
15.0
 40
15.0
 40
16.0
 40
16.0
 40
16.0
 40
17.0
 40
17.0
 40
17.0
 40
18.0
 40
18.0
 40
18.0
 40
19.0
 40
19.0
 40
19.0
 40
20.0
 40
20.0
 40
20.0
 40
21.0
 40
21.0
 40
21.0
 40
22.0
 40
22.0
 40
22.0
 40
22.0
 10
87.05599975585938
 20
85.73400115966797
 30
0.0
 10
86.81900024414062
 20
85.86800003051758
 30
0.0
 10
86.55799865722656
 20
85.9729995727539
 30
0.0
 10
86.2760009765625
 20
86.04500198364258
 30
0.0
 10
86.2760009765625
 20
86.04500198364258
 30
0.0
 10
69.9260025024414
 20
90.21200180053711
 30
0.0
 10
69.9260025024414
 20
90.21200180053711
 30
0.0
 10
66.52200317382812
 20
91.08000183105469
 30
0.0
 10
63.57600402832031
 20
93.22100257873535
 30
0.0
 10
61.69700241088867
 20
96.19400215148926
 30
0.0
 10
61.69700241088867
 20
96.19400215148926
 30
0.0
 10
52.68400192260742
 20
110.4530019760132
 30
0.0
 10
52.68400192260742
 20
110.4530019760132
 30
0.0
 10
51.4370002746582
 20
112.4240016937256
 30
0.0
 10
48.56300354003906
 20
112.4240016937256
 30
0.0
 10
47.31600189208984
 20
110.4530019760132
 30
0.0
 10
47.31600189208984
 20
110.4530019760132
 30
0.0
 10
38.30400085449219
 20
96.19400215148926
 30
0.0
 10
38.30400085449219
 20
96.19400215148926
 30
0.0
 10
36.42399978637695
 20
93.22100257873535
 30
0.0
 10
33.47999954223633
 20
91.08000183105469
 30
0.0
 10
30.07300186157227
 20
90.21200180053711
 30
0.0
 10
30.07300186157227
 20
90.21200180053711
 30
0.0
 10
13.72800254821777
 20
86.04500198364258
 30
0.0
 10
13.72800254821777
 20
86.04500198364258
 30
0.0
 10
11.46700286865234
 20
85.46900177001953
 30
0.0
 10
10.57900238037109
 20
82.73600006103516
 30
0.0
 10
12.06700229644775
 20
80.94100189208984
 30
0.0
 10
12.06700229644775
 20
80.94100189208984
 30
0.0
 10
22.84500122070312
 20
67.9630012512207
 30
0.0
 10
22.84500122070312
 20
67.9630012512207
 30
0.0
 10
25.09100151062012
 20
65.25600051879883
 30
0.0
 10
26.21600151062012
 20
61.79700088500977
 30
0.0
 10
25.9890022277832
 20
58.28800201416016
 30
0.0
 10
25.9890022277832
 20
58.28800201416016
 30
0.0
 10
24.89800262451172
 20
41.45400238037109
 30
0.0
 10
24.89800262451172
 20
41.45400238037109
 30
0.0
 10
24.74900245666504
 20
39.12699890136719
 30
0.0
 10
27.07300186157227
 20
37.43700408935547
 30
0.0
 10
29.24100303649902
 20
38.29900360107422
 30
0.0
 10
29.24100303649902
 20
38.29900360107422
 30
0.0
 10
44.91200256347656
 20
44.53500366210938
 30
0.0
 10
44.91200256347656
 20
44.53500366210938
 30
0.0
 10
47.24600219726562
 20
45.46600341796875
 30
0.0
 10
49.76700210571289
 20
45.71800231933594
 30
0.0
 10
52.21100234985352
 20
45.32000732421875
 30
0.0
 10
53.18900299072266
 20
45.16000366210938
 30
0.0
 10
54.15400314331055
 20
44.906005859375
 30
0.0
 10
55.08700180053711
 20
44.53500366210938
 30
0.0
 10
55.08700180053711
 20
44.53500366210938
 30
0.0
 10
70.75900268554688
 20
38.29900360107422
 30
0.0
 10
70.75900268554688
 20
38.29900360107422
 30
0.0
 10
72.927001953125
 20
37.43800354003906
 30
0.0
 10
75.2550048828125
 20
39.12700653076172
 30
0.0
 10
75.1030044555664
 20
41.45400238037109
 30
0.0
 10
75.1030044555664
 20
41.45400238037109
 30
0.0
 10
74.01000213623047
 20
58.28800201416016
 30
0.0
 10
74.01000213623047
 20
58.28800201416016
 30
0.0
 10
73.78500366210938
 20
61.79700088500977
 30
0.0
 10
74.91100311279297
 20
65.25600051879883
 30
0.0
 10
77.1570053100586
 20
67.9630012512207
 30
0.0
 10
77.1570053100586
 20
67.9630012512207
 30
0.0
 10
87.93199920654297
 20
80.93999862670898
 30
0.0
 10
87.93199920654297
 20
80.93999862670898
 30
0.0
 10
89.23600006103516
 20
82.51200103759766
 30
0.0
 10
88.71900177001953
 20
84.79999923706055
 30
0.0
 10
87.05599975585938
 20
85.73400115966797
 30
0.0
  0
SPLINE
  5
42
330
1F
100
AcDbEntity
  8
Layer 1
370
     0
100
AcDbSpline
210
0.0
220
0.0
230
1.0
 70
    11
 71
     3
 72
    17
 73
    13
 74
     0
 42
0.0000000001
 43
0.0000000001
 12
1.0
 22
0.0
 32
0.0
 13
1.0
 23
0.0
 33
0.0
 40
0.0
 40
0.0
 40
0.0
 40
0.0
 40
1.0
 40
1.0
 40
1.0
 40
2.0
 40
2.0
 40
2.0
 40
3.0
 40
3.0
 40
3.0
 40
4.0
 40
4.0
 40
4.0
 40
4.0
 10
25.77300071716309
 20
79.58300018310547
 30
0.0
 10
25.39400100708008
 20
78.17000198364258
 30
0.0
 10
23.94400024414062
 20
77.33200073242188
 30
0.0
 10
22.53300094604492
 20
77.71200180053711
 30
0.0
 10
21.12100028991699
 20
78.09100341796875
 30
0.0
 10
20.28300094604492
 20
79.54100036621094
 30
0.0
 10
20.66100120544434
 20
80.95100021362305
 30
0.0
 10
21.04000091552734
 20
82.36299896240234
 30
0.0
 10
22.48900032043457
 20
83.20199966430664
 30
0.0
 10
23.90200042724609
 20
82.82300186157227
 30
0.0
 10
25.3129997253418
 20
82.44499969482422
 30
0.0
 10
26.15200042724609
 20
80.99399948120117
 30
0.0
 10
25.77300071716309
 20
79.58300018310547
 30
0.0
  0
SPLINE
  5
43
330
1F
100
AcDbEntity
  8
Layer 1
370
     0
100
AcDbSpline
210
0.0
220
0.0
230
1.0
 70
    11
 71
     3
 72
    17
 73
    13
 74
     0
 42
0.0000000001
 43
0.0000000001
 12
1.0
 22
0.0
 32
0.0
 13
1.0
 23
0.0
 33
0.0
 40
0.0
 40
0.0
 40
0.0
 40
0.0
 40
1.0
 40
1.0
 40
1.0
 40
2.0
 40
2.0
 40
2.0
 40
3.0
 40
3.0
 40
3.0
 40
4.0
 40
4.0
 40
4.0
 40
4.0
 10
49.99900054931641
 20
104.2019996643066
 30
0.0
 10
51.45999908447266
 20
104.2019996643066
 30
0.0
 10
52.64599990844727
 20
103.0179996490479
 30
0.0
 10
52.64599990844727
 20
101.5559997558594
 30
0.0
 10
52.64599990844727
 20
100.0970001220703
 30
0.0
 10
51.45899963378906
 20
98.90999984741211
 30
0.0
 10
49.99900054931641
 20
98.90999984741211
 30
0.0
 10
48.53900146484375
 20
98.90999984741211
 30
0.0
 10
47.35499954223633
 20
100.0970001220703
 30
0.0
 10
47.35499954223633
 20
101.5559997558594
 30
0.0
 10
47.35499954223633
 20
103.0179996490479
 30
0.0
 10
48.53799819946289
 20
104.2019996643066
 30
0.0
 10
49.99900054931641
 20
104.2019996643066
 30
0.0
  0
SPLINE
  5
44
330
1F
100
AcDbEntity
  8
Layer 1
370
     0
100
AcDbSpline
210
0.0
220
0.0
230
1.0
 70
    11
 71
     3
 72
    17
 73
    13
 74
     0
 42
0.0000000001
 43
0.0000000001
 12
1.0
 22
0.0
 32
0.0
 13
1.0
 23
0.0
 33
0.0
 40
0.0
 40
0.0
 40
0.0
 40
0.0
 40
1.0
 40
1.0
 40
1.0
 40
2.0
 40
2.0
 40
2.0
 40
3.0
 40
3.0
 40
3.0
 40
4.0
 40
4.0
 40
4.0
 40
4.0
 10
49.99900054931641
 20
94.32600021362305
 30
0.0
 10
52.43500137329102
 20
94.32600021362305
 30
0.0
 10
54.40900039672852
 20
92.35100173950195
 30
0.0
 10
54.40900039672852
 20
89.91699981689453
 30
0.0
 10
54.40900039672852
 20
87.48199844360352
 30
0.0
 10
52.43400192260742
 20
85.50699996948242
 30
0.0
 10
49.99900054931641
 20
85.50699996948242
 30
0.0
 10
47.56399917602539
 20
85.50699996948242
 30
0.0
 10
45.59199905395508
 20
87.48199844360352
 30
0.0
 10
45.59199905395508
 20
89.91699981689453
 30
0.0
 10
45.59199905395508
 20
92.35100173950195
 30
0.0
 10
47.5629997253418
 20
94.32600021362305
 30
0.0
 10
49.99900054931641
 20
94.32600021362305
 30
0.0
  0
SPLINE
  5
45
330
1F
100
AcDbEntity
  8
Layer 1
370
     0
100
AcDbSpline
210
0.0
220
0.0
230
1.0
 70
    11
 71
     3
 72
    17
 73
    13
 74
     0
 42
0.0000000001
 43
0.0000000001
 12
1.0
 22
0.0
 32
0.0
 13
1.0
 23
0.0
 33
0.0
 40
0.0
 40
0.0
 40
0.0
 40
0.0
 40
1.0
 40
1.0
 40
1.0
 40
2.0
 40
2.0
 40
2.0
 40
3.0
 40
3.0
 40
3.0
 40
4.0
 40
4.0
 40
4.0
 40
4.0
 10
30.20199966430664
 20
78.39500045776367
 30
0.0
 10
30.83300018310547
 20
80.7490005493164
 30
0.0
 10
33.25
 20
82.14300155639648
 30
0.0
 10
35.60400009155273
 20
81.51399993896484
 30
0.0
 10
37.95399856567383
 20
80.88299942016602
 30
0.0
 10
39.35100173950195
 20
78.46599960327148
 30
0.0
 10
38.72000122070312
 20
76.11399841308594
 30
0.0
 10
38.0890007019043
 20
73.76299667358398
 30
0.0
 10
35.67000198364258
 20
72.36699676513672
 30
0.0
 10
33.32099914550781
 20
72.99599838256836
 30
0.0
 10
30.96599960327148
 20
73.6259994506836
 30
0.0
 10
29.56999969482422
 20
76.04499816894531
 30
0.0
 10
30.20199966430664
 20
78.39500045776367
 30
0.0
  0
SPLINE
  5
46
330
1F
100
AcDbEntity
  8
Layer 1
370
     0
100
AcDbSpline
210
0.0
220
0.0
230
1.0
 70
    11
 71
     3
 72
    17
 73
    13
 74
     0
 42
0.0000000001
 43
0.0000000001
 12
1.0
 22
0.0
 32
0.0
 13
1.0
 23
0.0
 33
0.0
 40
0.0
 40
0.0
 40
0.0
 40
0.0
 40
1.0
 40
1.0
 40
1.0
 40
2.0
 40
2.0
 40
2.0
 40
3.0
 40
3.0
 40
3.0
 40
4.0
 40
4.0
 40
4.0
 40
4.0
 10
35.83700180053711
 20
48.27799987792969
 30
0.0
 10
35.10600280761719
 20
47.01300048828125
 30
0.0
 10
33.4890022277832
 20
46.58000183105469
 30
0.0
 10
32.22400283813477
 20
47.30699920654297
 30
0.0
 10
30.96000289916992
 20
48.03900146484375
 30
0.0
 10
30.52500343322754
 20
49.65699768066406
 30
0.0
 10
31.25600242614746
 20
50.92099761962891
 30
0.0
 10
31.98600196838379
 20
52.18799591064453
 30
0.0
 10
33.60300064086914
 20
52.61899566650391
 30
0.0
 10
34.86800384521484
 20
51.89199829101562
 30
0.0
 10
36.1349983215332
 20
51.16200256347656
 30
0.0
 10
36.56800079345703
 20
49.54299926757812
 30
0.0
 10
35.83700180053711
 20
48.27799987792969
 30
0.0
  0
SPLINE
  5
47
330
1F
100
AcDbEntity
  8
Layer 1
370
     0
100
AcDbSpline
210
0.0
220
0.0
230
1.0
 70
    11
 71
     3
 72
    17
 73
    13
 74
     0
 42
0.0000000001
 43
0.0000000001
 12
1.0
 22
0.0
 32
0.0
 13
1.0
 23
0.0
 33
0.0
 40
0.0
 40
0.0
 40
0.0
 40
0.0
 40
1.0
 40
1.0
 40
1.0
 40
2.0
 40
2.0
 40
2.0
 40
3.0
 40
3.0
 40
3.0
 40
4.0
 40
4.0
 40
4.0
 40
4.0
 10
43.18399810791016
 20
57.47599792480469
 30
0.0
 10
41.96799850463867
 20
55.36799621582031
 30
0.0
 10
39.27199935913086
 20
54.64499664306641
 30
0.0
 10
37.16299819946289
 20
55.86199951171875
 30
0.0
 10
35.05499649047852
 20
57.08200073242188
 30
0.0
 10
34.33099746704102
 20
59.77799987792969
 30
0.0
 10
35.5469970703125
 20
61.88600158691406
 30
0.0
 10
36.76499557495117
 20
63.99500274658203
 30
0.0
 10
39.46399688720703
 20
64.71900177001953
 30
0.0
 10
41.57099914550781
 20
63.5
 30
0.0
 10
43.68199920654297
 20
62.28300094604492
 30
0.0
 10
44.40299987792969
 20
59.58499908447266
 30
0.0
 10
43.18399810791016
 20
57.47599792480469
 30
0.0
  0
SPLINE
  5
48
330
1F
100
AcDbEntity
  8
Layer 1
370
     0
100
AcDbSpline
210
0.0
220
0.0
230
1.0
 70
    11
 71
     3
 72
    17
 73
    13
 74
     0
 42
0.0000000001
 43
0.0000000001
 12
1.0
 22
0.0
 32
0.0
 13
1.0
 23
0.0
 33
0.0
 40
0.0
 40
0.0
 40
0.0
 40
0.0
 40
1.0
 40
1.0
 40
1.0
 40
2.0
 40
2.0
 40
2.0
 40
3.0
 40
3.0
 40
3.0
 40
4.0
 40
4.0
 40
4.0
 40
4.0
 10
49.99900054931641
 20
66.61899948120117
 30
0.0
 10
46.5620002746582
 20
66.61899948120117
 30
0.0
 10
43.77799987792969
 20
69.40699768066406
 30
0.0
 10
43.77799987792969
 20
72.84500122070312
 30
0.0
 10
43.77799987792969
 20
76.28300476074219
 30
0.0
 10
46.5620002746582
 20
79.06900024414062
 30
0.0
 10
49.99900054931641
 20
79.06900024414062
 30
0.0
 10
53.4370002746582
 20
79.06900024414062
 30
0.0
 10
56.22299957275391
 20
76.28300094604492
 30
0.0
 10
56.22299957275391
 20
72.84500122070312
 30
0.0
 10
56.22299957275391
 20
69.40700149536133
 30
0.0
 10
53.4379997253418
 20
66.61899948120117
 30
0.0
 10
49.99900054931641
 20
66.61899948120117
 30
0.0
  0
SPLINE
  5
49
330
1F
100
AcDbEntity
  8
Layer 1
370
     0
100
AcDbSpline
210
0.0
220
0.0
230
1.0
 70
    11
 71
     3
 72
    17
 73
    13
 74
     0
 42
0.0000000001
 43
0.0000000001
 12
1.0
 22
0.0
 32
0.0
 13
1.0
 23
0.0
 33
0.0
 40
0.0
 40
0.0
 40
0.0
 40
0.0
 40
1.0
 40
1.0
 40
1.0
 40
2.0
 40
2.0
 40
2.0
 40
3.0
 40
3.0
 40
3.0
 40
4.0
 40
4.0
 40
4.0
 40
4.0
 10
62.83599853515625
 20
55.86100006103516
 30
0.0
 10
60.72999954223633
 20
54.64399719238281
 30
0.0
 10
58.03199768066406
 20
55.36699676513672
 30
0.0
 10
56.81499862670898
 20
57.47499847412109
 30
0.0
 10
55.59799957275391
 20
59.58399963378906
 30
0.0
 10
56.322998046875
 20
62.28299713134766
 30
0.0
 10
58.42899703979492
 20
63.49900054931641
 30
0.0
 10
60.53799819946289
 20
64.71800231933594
 30
0.0
 10
63.2339973449707
 20
63.99399948120117
 30
0.0
 10
64.45099639892578
 20
61.88500213623047
 30
0.0
 10
65.66899871826172
 20
59.77700042724609
 30
0.0
 10
64.94599914550781
 20
57.08100128173828
 30
0.0
 10
62.83599853515625
 20
55.86100006103516
 30
0.0
  0
SPLINE
  5
4A
330
1F
100
AcDbEntity
  8
Layer 1
370
     0
100
AcDbSpline
210
0.0
220
0.0
230
1.0
 70
    11
 71
     3
 72
    17
 73
    13
 74
     0
 42
0.0000000001
 43
0.0000000001
 12
1.0
 22
0.0
 32
0.0
 13
1.0
 23
0.0
 33
0.0
 40
0.0
 40
0.0
 40
0.0
 40
0.0
 40
1.0
 40
1.0
 40
1.0
 40
2.0
 40
2.0
 40
2.0
 40
3.0
 40
3.0
 40
3.0
 40
4.0
 40
4.0
 40
4.0
 40
4.0
 10
67.7760009765625
 20
47.30799865722656
 30
0.0
 10
66.50800323486328
 20
46.58000183105469
 30
0.0
 10
64.89199829101562
 20
47.01399993896484
 30
0.0
 10
64.16200256347656
 20
48.27899932861328
 30
0.0
 10
63.4320068359375
 20
49.54399871826172
 30
0.0
 10
63.8650016784668
 20
51.16300201416016
 30
0.0
 10
65.1300048828125
 20
51.89299774169922
 30
0.0
 10
66.39800262451172
 20
52.62099456787109
 30
0.0
 10
68.01400756835938
 20
52.18899536132812
 30
0.0
 10
68.74400329589844
 20
50.9219970703125
 30
0.0
 10
69.4749984741211
 20
49.65699768066406
 30
0.0
 10
69.04100036621094
 20
48.04000091552734
 30
0.0
 10
67.7760009765625
 20
47.30799865722656
 30
0.0
  0
SPLINE
  5
4B
330
1F
100
AcDbEntity
  8
Layer 1
370
     0
100
AcDbSpline
210
0.0
220
0.0
230
1.0
 70
    11
 71
     3
 72
    20
 73
    16
 74
     0
 42
0.0000000001
 43
0.0000000001
 12
1.0
 22
0.0
 32
0.0
 13
1.0
 23
0.0
 33
0.0
 40
0.0
 40
0.0
 40
0.0
 40
0.0
 40
1.0
 40
1.0
 40
1.0
 40
2.0
 40
2.0
 40
2.0
 40
3.0
 40
3.0
 40
3.0
 40
4.0
 40
4.0
 40
4.0
 40
5.0
 40
5.0
 40
5.0
 40
5.0
 10
66.68099975585938
 20
72.99499893188477
 30
0.0
 10
64.3290023803711
 20
72.36599731445312
 30
0.0
 10
61.90999984741211
 20
73.76300048828125
 30
0.0
 10
61.28199768066406
 20
76.11299896240234
 30
0.0
 10
60.65099716186523
 20
78.46599960327148
 30
0.0
 10
62.0469970703125
 20
80.88299942016602
 30
0.0
 10
64.39899444580078
 20
81.51300048828125
 30
0.0
 10
64.6919937133789
 20
81.59099960327148
 30
0.0
 10
64.98799133300781
 20
81.63899993896484
 30
0.0
 10
65.27999114990234
 20
81.65600204467773
 30
0.0
 10
67.32899475097656
 20
81.77900314331055
 30
0.0
 10
69.24799346923828
 20
80.4530029296875
 30
0.0
 10
69.79798889160156
 20
78.39400100708008
 30
0.0
 10
70.4280014038086
 20
76.04499816894531
 30
0.0
 10
69.03199768066406
 20
73.6259994506836
 30
0.0
 10
66.68099975585938
 20
72.99499893188477
 30
0.0
  0
SPLINE
  5
4C
330
1F
100
AcDbEntity
  8
Layer 1
370
     0
100
AcDbSpline
210
0.0
220
0.0
230
1.0
 70
    11
 71
     3
 72
    17
 73
    13
 74
     0
 42
0.0000000001
 43
0.0000000001
 12
1.0
 22
0.0
 32
0.0
 13
1.0
 23
0.0
 33
0.0
 40
0.0
 40
0.0
 40
0.0
 40
0.0
 40
1.0
 40
1.0
 40
1.0
 40
2.0
 40
2.0
 40
2.0
 40
3.0
 40
3.0
 40
3.0
 40
4.0
 40
4.0
 40
4.0
 40
4.0
 10
77.46700286865234
 20
77.71200180053711
 30
0.0
 10
76.05599975585938
 20
77.33200073242188
 30
0.0
 10
74.6050033569336
 20
78.17000198364258
 30
0.0
 10
74.22600555419922
 20
79.58300018310547
 30
0.0
 10
73.85100555419922
 20
80.99399948120117
 30
0.0
 10
74.68700408935547
 20
82.44499969482422
 30
0.0
 10
76.09900665283203
 20
82.82300186157227
 30
0.0
 10
77.5090103149414
 20
83.2020034790039
 30
0.0
 10
78.9590072631836
 20
82.36300277709961
 30
0.0
 10
79.33700561523438
 20
80.95100021362305
 30
0.0
 10
79.71600341796875
 20
79.54100036621094
 30
0.0
 10
78.87899780273438
 20
78.09099960327148
 30
0.0
 10
77.46700286865234
 20
77.71200180053711
 30
0.0
  0
HATCH
  5
4D
330
1F
100
AcDbEntity
  8
Layer 1
 62
     7
420
 16777215
100
AcDbHatch
 10
0.0
 20
0.0
 30
0.0
210
0.0
220
0.0
230
1.0
  2
SOLID
 70
     1
 71
     0
 91
       12
 92
        1
 93
        1
 72
     4
 94
        3
 73
     0
 74
     1
 95
       71
 96
       67
 40
0.0
 40
0.0
 40
0.0
 40
0.0
 40
1.0
 40
1.0
 40
1.0
 40
2.0
 40
2.0
 40
2.0
 40
3.0
 40
3.0
 40
3.0
 40
4.0
 40
4.0
 40
4.0
 40
5.0
 40
5.0
 40
5.0
 40
6.0
 40
6.0
 40
6.0
 40
7.0
 40
7.0
 40
7.0
 40
8.0
 40
8.0
 40
8.0
 40
9.0
 40
9.0
 40
9.0
 40
10.0
 40
10.0
 40
10.0
 40
11.0
 40
11.0
 40
11.0
 40
12.0
 40
12.0
 40
12.0
 40
13.0
 40
13.0
 40
13.0
 40
14.0
 40
14.0
 40
14.0
 40
15.0
 40
15.0
 40
15.0
 40
16.0
 40
16.0
 40
16.0
 40
17.0
 40
17.0
 40
17.0
 40
18.0
 40
18.0
 40
18.0
 40
19.0
 40
19.0
 40
19.0
 40
20.0
 40
20.0
 40
20.0
 40
21.0
 40
21.0
 40
21.0
 40
22.0
 40
22.0
 40
22.0
 40
22.0
 10
87.05599975585938
 20
85.73400115966797
 10
86.81900024414062
 20
85.86800003051758
 10
86.55799865722656
 20
85.9729995727539
 10
86.2760009765625
 20
86.04500198364258
 10
86.2760009765625
 20
86.04500198364258
 10
69.9260025024414
 20
90.21200180053711
 10
69.9260025024414
 20
90.21200180053711
 10
66.52200317382812
 20
91.08000183105469
 10
63.57600402832031
 20
93.22100257873535
 10
61.69700241088867
 20
96.19400215148926
 10
61.69700241088867
 20
96.19400215148926
 10
52.68400192260742
 20
110.4530019760132
 10
52.68400192260742
 20
110.4530019760132
 10
51.4370002746582
 20
112.4240016937256
 10
48.56300354003906
 20
112.4240016937256
 10
47.31600189208984
 20
110.4530019760132
 10
47.31600189208984
 20
110.4530019760132
 10
38.30400085449219
 20
96.19400215148926
 10
38.30400085449219
 20
96.19400215148926
 10
36.42399978637695
 20
93.22100257873535
 10
33.47999954223633
 20
91.08000183105469
 10
30.07300186157227
 20
90.21200180053711
 10
30.07300186157227
 20
90.21200180053711
 10
13.72800254821777
 20
86.04500198364258
 10
13.72800254821777
 20
86.04500198364258
 10
11.46700286865234
 20
85.46900177001953
 10
10.57900238037109
 20
82.73600006103516
 10
12.06700229644775
 20
80.94100189208984
 10
12.06700229644775
 20
80.94100189208984
 10
22.84500122070312
 20
67.9630012512207
 10
22.84500122070312
 20
67.9630012512207
 10
25.09100151062012
 20
65.25600051879883
 10
26.21600151062012
 20
61.79700088500977
 10
25.9890022277832
 20
58.28800201416016
 10
25.9890022277832
 20
58.28800201416016
 10
24.89800262451172
 20
41.45400238037109
 10
24.89800262451172
 20
41.45400238037109
 10
24.74900245666504
 20
39.12699890136719
 10
27.07300186157227
 20
37.43700408935547
 10
29.24100303649902
 20
38.29900360107422
 10
29.24100303649902
 20
38.29900360107422
 10
44.91200256347656
 20
44.53500366210938
 10
44.91200256347656
 20
44.53500366210938
 10
47.24600219726562
 20
45.46600341796875
 10
49.76700210571289
 20
45.71800231933594
 10
52.21100234985352
 20
45.32000732421875
 10
53.18900299072266
 20
45.16000366210938
 10
54.15400314331055
 20
44.906005859375
 10
55.08700180053711
 20
44.53500366210938
 10
55.08700180053711
 20
44.53500366210938
 10
70.75900268554688
 20
38.29900360107422
 10
70.75900268554688
 20
38.29900360107422
 10
72.927001953125
 20
37.43800354003906
 10
75.2550048828125
 20
39.12700653076172
 10
75.1030044555664
 20
41.45400238037109
 10
75.1030044555664
 20
41.45400238037109
 10
74.01000213623047
 20
58.28800201416016
 10
74.01000213623047
 20
58.28800201416016
 10
73.78500366210938
 20
61.79700088500977
 10
74.91100311279297
 20
65.25600051879883
 10
77.1570053100586
 20
67.9630012512207
 10
77.1570053100586
 20
67.9630012512207
 10
87.93199920654297
 20
80.93999862670898
 10
87.93199920654297
 20
80.93999862670898
 10
89.23600006103516
 20
82.51200103759766
 10
88.71900177001953
 20
84.79999923706055
 10
87.05599975585938
 20
85.73400115966797
 97
        0
 97
        0
 92
        1
 93
        1
 72
     4
 94
        3
 73
     0
 74
     1
 95
       17
 96
       13
 40
0.0
 40
0.0
 40
0.0
 40
0.0
 40
1.0
 40
1.0
 40
1.0
 40
2.0
 40
2.0
 40
2.0
 40
3.0
 40
3.0
 40
3.0
 40
4.0
 40
4.0
 40
4.0
 40
4.0
 10
25.77300071716309
 20
79.58300018310547
 10
25.39400100708008
 20
78.17000198364258
 10
23.94400024414062
 20
77.33200073242188
 10
22.53300094604492
 20
77.71200180053711
 10
21.12100028991699
 20
78.09100341796875
 10
20.28300094604492
 20
79.54100036621094
 10
20.66100120544434
 20
80.95100021362305
 10
21.04000091552734
 20
82.36299896240234
 10
22.48900032043457
 20
83.20199966430664
 10
23.90200042724609
 20
82.82300186157227
 10
25.3129997253418
 20
82.44499969482422
 10
26.15200042724609
 20
80.99399948120117
 10
25.77300071716309
 20
79.58300018310547
 97
        0
 97
        0
 92
        1
 93
        1
 72
     4
 94
        3
 73
     0
 74
     1
 95
       17
 96
       13
 40
0.0
 40
0.0
 40
0.0
 40
0.0
 40
1.0
 40
1.0
 40
1.0
 40
2.0
 40
2.0
 40
2.0
 40
3.0
 40
3.0
 40
3.0
 40
4.0
 40
4.0
 40
4.0
 40
4.0
 10
49.99900054931641
 20
104.2019996643066
 10
51.45999908447266
 20
104.2019996643066
 10
52.64599990844727
 20
103.0179996490479
 10
52.64599990844727
 20
101.5559997558594
 10
52.64599990844727
 20
100.0970001220703
 10
51.45899963378906
 20
98.90999984741211
 10
49.99900054931641
 20
98.90999984741211
 10
48.53900146484375
 20
98.90999984741211
 10
47.35499954223633
 20
100.0970001220703
 10
47.35499954223633
 20
101.5559997558594
 10
47.35499954223633
 20
103.0179996490479
 10
48.53799819946289
 20
104.2019996643066
 10
49.99900054931641
 20
104.2019996643066
 97
        0
 97
        0
 92
        1
 93
        1
 72
     4
 94
        3
 73
     0
 74
     1
 95
       17
 96
       13
 40
0.0
 40
0.0
 40
0.0
 40
0.0
 40
1.0
 40
1.0
 40
1.0
 40
2.0
 40
2.0
 40
2.0
 40
3.0
 40
3.0
 40
3.0
 40
4.0
 40
4.0
 40
4.0
 40
4.0
 10
49.99900054931641
 20
94.32600021362305
 10
52.43500137329102
 20
94.32600021362305
 10
54.40900039672852
 20
92.35100173950195
 10
54.40900039672852
 20
89.91699981689453
 10
54.40900039672852
 20
87.48199844360352
 10
52.43400192260742
 20
85.50699996948242
 10
49.99900054931641
 20
85.50699996948242
 10
47.56399917602539
 20
85.50699996948242
 10
45.59199905395508
 20
87.48199844360352
 10
45.59199905395508
 20
89.91699981689453
 10
45.59199905395508
 20
92.35100173950195
 10
47.5629997253418
 20
94.32600021362305
 10
49.99900054931641
 20
94.32600021362305
 97
        0
 97
        0
 92
        1
 93
        1
 72
     4
 94
        3
 73
     0
 74
     1
 95
       17
 96
       13
 40
0.0
 40
0.0
 40
0.0
 40
0.0
 40
1.0
 40
1.0
 40
1.0
 40
2.0
 40
2.0
 40
2.0
 40
3.0
 40
3.0
 40
3.0
 40
4.0
 40
4.0
 40
4.0
 40
4.0
 10
30.20199966430664
 20
78.39500045776367
 10
30.83300018310547
 20
80.7490005493164
 10
33.25
 20
82.14300155639648
 10
35.60400009155273
 20
81.51399993896484
 10
37.95399856567383
 20
80.88299942016602
 10
39.35100173950195
 20
78.46599960327148
 10
38.72000122070312
 20
76.11399841308594
 10
38.0890007019043
 20
73.76299667358398
 10
35.67000198364258
 20
72.36699676513672
 10
33.32099914550781
 20
72.99599838256836
 10
30.96599960327148
 20
73.6259994506836
 10
29.56999969482422
 20
76.04499816894531
 10
30.20199966430664
 20
78.39500045776367
 97
        0
 97
        0
 92
        1
 93
        1
 72
     4
 94
        3
 73
     0
 74
     1
 95
       17
 96
       13
 40
0.0
 40
0.0
 40
0.0
 40
0.0
 40
1.0
 40
1.0
 40
1.0
 40
2.0
 40
2.0
 40
2.0
 40
3.0
 40
3.0
 40
3.0
 40
4.0
 40
4.0
 40
4.0
 40
4.0
 10
35.83700180053711
 20
48.27799987792969
 10
35.10600280761719
 20
47.01300048828125
 10
33.4890022277832
 20
46.58000183105469
 10
32.22400283813477
 20
47.30699920654297
 10
30.96000289916992
 20
48.03900146484375
 10
30.52500343322754
 20
49.65699768066406
 10
31.25600242614746
 20
50.92099761962891
 10
31.98600196838379
 20
52.18799591064453
 10
33.60300064086914
 20
52.61899566650391
 10
34.86800384521484
 20
51.89199829101562
 10
36.1349983215332
 20
51.16200256347656
 10
36.56800079345703
 20
49.54299926757812
 10
35.83700180053711
 20
48.27799987792969
 97
        0
 97
        0
 92
        1
 93
        1
 72
     4
 94
        3
 73
     0
 74
     1
 95
       17
 96
       13
 40
0.0
 40
0.0
 40
0.0
 40
0.0
 40
1.0
 40
1.0
 40
1.0
 40
2.0
 40
2.0
 40
2.0
 40
3.0
 40
3.0
 40
3.0
 40
4.0
 40
4.0
 40
4.0
 40
4.0
 10
43.18399810791016
 20
57.47599792480469
 10
41.96799850463867
 20
55.36799621582031
 10
39.27199935913086
 20
54.64499664306641
 10
37.16299819946289
 20
55.86199951171875
 10
35.05499649047852
 20
57.08200073242188
 10
34.33099746704102
 20
59.77799987792969
 10
35.5469970703125
 20
61.88600158691406
 10
36.76499557495117
 20
63.99500274658203
 10
39.46399688720703
 20
64.71900177001953
 10
41.57099914550781
 20
63.5
 10
43.68199920654297
 20
62.28300094604492
 10
44.40299987792969
 20
59.58499908447266
 10
43.18399810791016
 20
57.47599792480469
 97
        0
 97
        0
 92
        1
 93
        1
 72
     4
 94
        3
 73
     0
 74
     1
 95
       17
 96
       13
 40
0.0
 40
0.0
 40
0.0
 40
0.0
 40
1.0
 40
1.0
 40
1.0
 40
2.0
 40
2.0
 40
2.0
 40
3.0
 40
3.0
 40
3.0
 40
4.0
 40
4.0
 40
4.0
 40
4.0
 10
49.99900054931641
 20
66.61899948120117
 10
46.5620002746582
 20
66.61899948120117
 10
43.77799987792969
 20
69.40699768066406
 10
43.77799987792969
 20
72.84500122070312
 10
43.77799987792969
 20
76.28300476074219
 10
46.5620002746582
 20
79.06900024414062
 10
49.99900054931641
 20
79.06900024414062
 10
53.4370002746582
 20
79.06900024414062
 10
56.22299957275391
 20
76.28300094604492
 10
56.22299957275391
 20
72.84500122070312
 10
56.22299957275391
 20
69.40700149536133
 10
53.4379997253418
 20
66.61899948120117
 10
49.99900054931641
 20
66.61899948120117
 97
        0
 97
        0
 92
        1
 93
        1
 72
     4
 94
        3
 73
     0
 74
     1
 95
       17
 96
       13
 40
0.0
 40
0.0
 40
0.0
 40
0.0
 40
1.0
 40
1.0
 40
1.0
 40
2.0
 40
2.0
 40
2.0
 40
3.0
 40
3.0
 40
3.0
 40
4.0
 40
4.0
 40
4.0
 40
4.0
 10
62.83599853515625
 20
55.86100006103516
 10
60.72999954223633
 20
54.64399719238281
 10
58.03199768066406
 20
55.36699676513672
 10
56.81499862670898
 20
57.47499847412109
 10
55.59799957275391
 20
59.58399963378906
 10
56.322998046875
 20
62.28299713134766
 10
58.42899703979492
 20
63.49900054931641
 10
60.53799819946289
 20
64.71800231933594
 10
63.2339973449707
 20
63.99399948120117
 10
64.45099639892578
 20
61.88500213623047
 10
65.66899871826172
 20
59.77700042724609
 10
64.94599914550781
 20
57.08100128173828
 10
62.83599853515625
 20
55.86100006103516
 97
        0
 97
        0
 92
        1
 93
        1
 72
     4
 94
        3
 73
     0
 74
     1
 95
       17
 96
       13
 40
0.0
 40
0.0
 40
0.0
 40
0.0
 40
1.0
 40
1.0
 40
1.0
 40
2.0
 40
2.0
 40
2.0
 40
3.0
 40
3.0
 40
3.0
 40
4.0
 40
4.0
 40
4.0
 40
4.0
 10
67.7760009765625
 20
47.30799865722656
 10
66.50800323486328
 20
46.58000183105469
 10
64.89199829101562
 20
47.01399993896484
 10
64.16200256347656
 20
48.27899932861328
 10
63.4320068359375
 20
49.54399871826172
 10
63.8650016784668
 20
51.16300201416016
 10
65.1300048828125
 20
51.89299774169922
 10
66.39800262451172
 20
52.62099456787109
 10
68.01400756835938
 20
52.18899536132812
 10
68.74400329589844
 20
50.9219970703125
 10
69.4749984741211
 20
49.65699768066406
 10
69.04100036621094
 20
48.04000091552734
 10
67.7760009765625
 20
47.30799865722656
 97
        0
 97
        0
 92
        1
 93
        1
 72
     4
 94
        3
 73
     0
 74
     1
 95
       20
 96
       16
 40
0.0
 40
0.0
 40
0.0
 40
0.0
 40
1.0
 40
1.0
 40
1.0
 40
2.0
 40
2.0
 40
2.0
 40
3.0
 40
3.0
 40
3.0
 40
4.0
 40
4.0
 40
4.0
 40
5.0
 40
5.0
 40
5.0
 40
5.0
 10
66.68099975585938
 20
72.99499893188477
 10
64.3290023803711
 20
72.36599731445312
 10
61.90999984741211
 20
73.76300048828125
 10
61.28199768066406
 20
76.11299896240234
 10
60.65099716186523
 20
78.46599960327148
 10
62.0469970703125
 20
80.88299942016602
 10
64.39899444580078
 20
81.51300048828125
 10
64.6919937133789
 20
81.59099960327148
 10
64.98799133300781
 20
81.63899993896484
 10
65.27999114990234
 20
81.65600204467773
 10
67.32899475097656
 20
81.77900314331055
 10
69.24799346923828
 20
80.4530029296875
 10
69.79798889160156
 20
78.39400100708008
 10
70.4280014038086
 20
76.04499816894531
 10
69.03199768066406
 20
73.6259994506836
 10
66.68099975585938
 20
72.99499893188477
 97
        0
 97
        0
 92
        1
 93
        1
 72
     4
 94
        3
 73
     0
 74
     1
 95
       17
 96
       13
 40
0.0
 40
0.0
 40
0.0
 40
0.0
 40
1.0
 40
1.0
 40
1.0
 40
2.0
 40
2.0
 40
2.0
 40
3.0
 40
3.0
 40
3.0
 40
4.0
 40
4.0
 40
4.0
 40
4.0
 10
77.46700286865234
 20
77.71200180053711
 10
76.05599975585938
 20
77.33200073242188
 10
74.6050033569336
 20
78.17000198364258
 10
74.22600555419922
 20
79.58300018310547
 10
73.85100555419922
 20
80.99399948120117
 10
74.68700408935547
 20
82.44499969482422
 10
76.09900665283203
 20
82.82300186157227
 10
77.5090103149414
 20
83.2020034790039
 10
78.9590072631836
 20
82.36300277709961
 10
79.33700561523438
 20
80.95100021362305
 10
79.71600341796875
 20
79.54100036621094
 10
78.87899780273438
 20
78.09099960327148
 10
77.46700286865234
 20
77.71200180053711
 97
        0
 97
        0
 75
     2
 76
     1
 98
        0
  0
ENDSEC
  0
SECTION
  2
OBJECTS
  0
DICTIONARY
  5
C
330
0
100
AcDbDictionary
281
     1
  3
ACAD_GROUP
350
D
  3
ACAD_LAYOUT
350
1A
  3
ACAD_MATERIAL
350
3B
  3
ACAD_MLEADERSTYLE
350
4F
  3
ACAD_MLINESTYLE
350
17
  3
ACAD_PLOTSETTINGS
350
19
  3
ACAD_PLOTSTYLENAME
350
E
  3
ACAD_TABLESTYLE
350
4E
  3
ACAD_VISUALSTYLE
350
2A
  0
SUN
  5
3F
330
29
100
AcDbSun
 90
        1
290
     0
 63
     7
421
 16777215
 40
1.0
291
     1
 91
  2455826
 92
 54000000
292
     0
 70
     2
 71
   256
280
     1
  0
DICTIONARY
  5
D
102
{ACAD_REACTORS
330
C
102
}
330
C
100
AcDbDictionary
281
     1
  0
DICTIONARY
  5
1A
102
{ACAD_REACTORS
330
C
102
}
330
C
100
AcDbDictionary
281
     1
  3
Layout1
350
1E
  3
Layout2
350
26
  3
Model
350
22
  0
DICTIONARY
  5
3B
102
{ACAD_REACTORS
330
C
102
}
330
C
100
AcDbDictionary
281
     1
  3
ByBlock
350
3D
  3
ByLayer
350
3C
  3
Global
350
3E
  0
DICTIONARY
  5
4F
102
{ACAD_REACTORS
330
C
102
}
330
C
100
AcDbDictionary
281
     1
  0
DICTIONARY
  5
17
102
{ACAD_REACTORS
330
C
102
}
330
C
100
AcDbDictionary
281
     1
  3
Standard
350
18
  0
DICTIONARY
  5
19
102
{ACAD_REACTORS
330
C
102
}
330
C
100
AcDbDictionary
281
     1
  0
ACDBDICTIONARYWDFLT
  5
E
102
{ACAD_REACTORS
330
C
102
}
330
C
100
AcDbDictionary
281
     1
  3
Normal
350
F
100
AcDbDictionaryWithDefault
340
F
  0
DICTIONARY
  5
4E
102
{ACAD_REACTORS
330
C
102
}
330
C
100
AcDbDictionary
281
     1
  0
DICTIONARY
  5
2A
102
{ACAD_REACTORS
330
C
102
}
330
C
100
AcDbDictionary
281
     1
  3
2dWireframe
350
2F
  3
3D Hidden
350
31
  3
3dWireframe
350
30
  3
Basic
350
32
  3
Brighten
350
36
  3
ColorChange
350
3A
  3
Conceptual
350
34
  3
Dim
350
35
  3
Facepattern
350
39
  3
Flat
350
2B
  3
FlatWithEdges
350
2C
  3
Gouraud
350
2D
  3
GouraudWithEdges
350
2E
  3
Linepattern
350
38
  3
Realistic
350
33
  3
Thicken
350
37
  0
LAYOUT
  5
1E
102
{ACAD_REACTORS
330
1A
102
}
330
1A
100
AcDbPlotSettings
  1

  2
none_device
  4

  6

 40
0.0
 41
0.0
 42
0.0
 43
0.0
 44
0.0
 45
0.0
 46
0.0
 47
0.0
 48
0.0
 49
0.0
140
0.0
141
0.0
142
1.0
143
1.0
 70
   688
 72
     0
 73
     0
 74
     5
  7

 75
    16
 76
     0
 77
     2
 78
   300
147
1.0
148
0.0
149
0.0
100
AcDbLayout
  1
Layout1
 70
     1
 71
     1
 10
0.0
 20
0.0
 11
12.0
 21
9.0
 12
0.0
 22
0.0
 32
0.0
 14
1.000000000000000E+20
 24
1.000000000000000E+20
 34
1.000000000000000E+20
 15
-1.000000000000000E+20
 25
-1.000000000000000E+20
 35
-1.000000000000000E+20
146
0.0
 13
0.0
 23
0.0
 33
0.0
 16
1.0
 26
0.0
 36
0.0
 17
0.0
 27
1.0
 37
0.0
 76
     0
330
1B
  0
LAYOUT
  5
26
102
{ACAD_REACTORS
330
1A
102
}
330
1A
100
AcDbPlotSettings
  1

  2
none_device
  4

  6

 40
0.0
 41
0.0
 42
0.0
 43
0.0
 44
0.0
 45
0.0
 46
0.0
 47
0.0
 48
0.0
 49
0.0
140
0.0
141
0.0
142
1.0
143
1.0
 70
   688
 72
     0
 73
     0
 74
     5
  7

 75
    16
 76
     0
 77
     2
 78
   300
147
1.0
148
0.0
149
0.0
100
AcDbLayout
  1
Layout2
 70
     1
 71
     2
 10
0.0
 20
0.0
 11
0.0
 21
0.0
 12
0.0
 22
0.0
 32
0.0
 14
0.0
 24
0.0
 34
0.0
 15
0.0
 25
0.0
 35
0.0
146
0.0
 13
0.0
 23
0.0
 33
0.0
 16
1.0
 26
0.0
 36
0.0
 17
0.0
 27
1.0
 37
0.0
 76
     0
330
23
  0
LAYOUT
  5
22
102
{ACAD_REACTORS
330
1A
102
}
330
1A
100
AcDbPlotSettings
  1

  2
none_device
  4

  6

 40
0.0
 41
0.0
 42
0.0
 43
0.0
 44
0.0
 45
0.0
 46
0.0
 47
0.0
 48
0.0
 49
0.0
140
0.0
141
0.0
142
1.0
143
1.0
 70
  1712
 72
     0
 73
     0
 74
     0
  7

 75
     0
 76
     0
 77
     2
 78
   300
147
1.0
148
0.0
149
0.0
100
AcDbLayout
  1
Model
 70
     1
 71
     0
 10
0.0
 20
0.0
 11
12.0
 21
9.0
 12
0.0
 22
0.0
 32
0.0
 14
1.000000000000000E+20
 24
1.000000000000000E+20
 34
1.000000000000000E+20
 15
-1.000000000000000E+20
 25
-1.000000000000000E+20
 35
-1.000000000000000E+20
146
0.0
 13
0.0
 23
0.0
 33
0.0
 16
1.0
 26
0.0
 36
0.0
 17
0.0
 27
1.0
 37
0.0
 76
     0
330
1F
331
29
  0
MATERIAL
  5
3D
102
{ACAD_REACTORS
330
3B
102
}
330
3B
100
AcDbMaterial
  1
ByBlock
 72
     1
 94
      127
  0
MATERIAL
  5
3C
102
{ACAD_REACTORS
330
3B
102
}
330
3B
100
AcDbMaterial
  1
ByLayer
 72
     1
 94
      127
  0
MATERIAL
  5
3E
102
{ACAD_REACTORS
330
3B
102
}
330
3B
100
AcDbMaterial
  1
Global
 72
     1
 94
      127
  0
MLINESTYLE
  5
18
102
{ACAD_REACTORS
330
17
102
}
330
17
100
AcDbMlineStyle
  2
Standard
 70
     0
  3

 62
   256
 51
90.0
 52
90.0
 71
     2
 49
0.5
 62
   256
  6
BYLAYER
 49
-0.5
 62
   256
  6
BYLAYER
  0
ACDBPLACEHOLDER
  5
F
102
{ACAD_REACTORS
330
E
102
}
330
E
  0
VISUALSTYLE
  5
2F
102
{ACAD_REACTORS
330
2A
102
}
330
2A
100
AcDbVisualStyle
  2
2dWireframe
 70
     4
177
     2
291
     0
 71
     0
176
     1
 72
     2
176
     1
 73
     0
176
     1
 90
        0
176
     1
 40
-0.6
176
     1
 41
-30.0
176
     1
 62
     5
 63
     7
421
 16777215
176
     1
 74
     1
176
     1
 91
        4
176
     1
 64
     7
176
     1
 65
   257
176
     1
 75
     1
176
     1
175
     1
176
     1
 42
1.0
176
     1
 92
        0
176
     1
 66
   257
176
     1
 43
1.0
176
     1
 76
     1
176
     1
 77
     6
176
     1
 78
     2
176
     1
 67
     7
176
     1
 79
     5
176
     1
170
     0
176
     1
171
     0
176
     1
290
     0
176
     1
 93
        1
176
     1
 44
0.0
176
     1
173
     0
176
     1
  0
VISUALSTYLE
  5
31
102
{ACAD_REACTORS
330
2A
102
}
330
2A
100
AcDbVisualStyle
  2
3D Hidden
 70
     6
177
     2
291
     0
 71
     1
176
     1
 72
     2
176
     1
 73
     2
176
     1
 90
        0
176
     1
 40
-0.6
176
     1
 41
-30.0
176
     1
 62
     5
 63
     7
421
 16777215
176
     1
 74
     2
176
     1
 91
        2
176
     1
 64
     7
176
     1
 65
   257
176
     1
 75
     2
176
     1
175
     1
176
     1
 42
40.0
176
     1
 92
        0
176
     1
 66
   257
176
     1
 43
1.0
176
     1
 76
     1
176
     1
 77
     6
176
     1
 78
     2
176
     1
 67
     7
176
     1
 79
     3
176
     1
170
     0
176
     1
171
     0
176
     1
290
     0
176
     1
 93
        1
176
     1
 44
0.0
176
     1
173
     0
176
     1
  0
VISUALSTYLE
  5
30
102
{ACAD_REACTORS
330
2A
102
}
330
2A
100
AcDbVisualStyle
  2
3dWireframe
 70
     5
177
     2
291
     0
 71
     0
176
     1
 72
     2
176
     1
 73
     0
176
     1
 90
        0
176
     1
 40
-0.6
176
     1
 41
-30.0
176
     1
 62
     5
 63
     7
421
 16777215
176
     1
 74
     1
176
     1
 91
        4
176
     1
 64
     7
176
     1
 65
   257
176
     1
 75
     1
176
     1
175
     1
176
     1
 42
1.0
176
     1
 92
        0
176
     1
 66
   257
176
     1
 43
1.0
176
     1
 76
     1
176
     1
 77
     6
176
     1
 78
     2
176
     1
 67
     7
176
     1
 79
     5
176
     1
170
     0
176
     1
171
     0
176
     1
290
     0
176
     1
 93
        1
176
     1
 44
0.0
176
     1
173
     0
176
     1
  0
VISUALSTYLE
  5
32
102
{ACAD_REACTORS
330
2A
102
}
330
2A
100
AcDbVisualStyle
  2
Basic
 70
     7
177
     2
291
     1
 71
     1
176
     1
 72
     0
176
     1
 73
     1
176
     1
 90
        0
176
     1
 40
-0.6
176
     1
 41
-30.0
176
     1
 62
     5
 63
     7
421
 16777215
176
     1
 74
     0
176
     1
 91
        4
176
     1
 64
     7
176
     1
 65
   257
176
     1
 75
     1
176
     1
175
     1
176
     1
 42
1.0
176
     1
 92
        8
176
     1
 66
     7
176
     1
 43
1.0
176
     1
 76
     1
176
     1
 77
     6
176
     1
 78
     2
176
     1
 67
     7
176
     1
 79
     5
176
     1
170
     0
176
     1
171
     0
176
     1
290
     0
176
     1
 93
        1
176
     1
 44
0.0
176
     1
173
     0
176
     1
  0
VISUALSTYLE
  5
36
102
{ACAD_REACTORS
330
2A
102
}
330
2A
100
AcDbVisualStyle
  2
Brighten
 70
    12
177
     2
291
     1
 71
     2
176
     1
 72
     2
176
     1
 73
     0
176
     1
 90
        0
176
     1
 40
-0.6
176
     1
 41
-30.0
176
     1
 62
     5
 63
     7
421
 16777215
176
     1
 74
     1
176
     1
 91
        4
176
     1
 64
     7
176
     1
 65
   257
176
     1
 75
     1
176
     1
175
     1
176
     1
 42
1.0
176
     1
 92
        8
176
     1
 66
     7
176
     1
 43
1.0
176
     1
 76
     1
176
     1
 77
     6
176
     1
 78
     2
176
     1
 67
     7
176
     1
 79
     5
176
     1
170
     0
176
     1
171
     0
176
     1
290
     0
176
     1
 93
        1
176
     1
 44
50.0
176
     1
173
     0
176
     1
  0
VISUALSTYLE
  5
3A
102
{ACAD_REACTORS
330
2A
102
}
330
2A
100
AcDbVisualStyle
  2
ColorChange
 70
    16
177
     2
291
     1
 71
     2
176
     1
 72
     2
176
     1
 73
     3
176
     1
 90
        0
176
     1
 40
-0.6
176
     1
 41
-30.0
176
     1
 62
     5
 63
     8
421
  8421504
176
     1
 74
     1
176
     1
 91
        4
176
     1
 64
     7
176
     1
 65
   257
176
     1
 75
     1
176
     1
175
     1
176
     1
 42
1.0
176
     1
 92
        8
176
     1
 66
     8
424
  8421504
176
     1
 43
1.0
176
     1
 76
     1
176
     1
 77
     6
176
     1
 78
     2
176
     1
 67
     7
176
     1
 79
     5
176
     1
170
     0
176
     1
171
     0
176
     1
290
     0
176
     1
 93
        1
176
     1
 44
0.0
176
     1
173
     0
176
     1
  0
VISUALSTYLE
  5
34
102
{ACAD_REACTORS
330
2A
102
}
330
2A
100
AcDbVisualStyle
  2
Conceptual
 70
     9
177
     2
291
     0
 71
     3
176
     1
 72
     2
176
     1
 73
     0
176
     1
 90
        0
176
     1
 40
-0.6
176
     1
 41
-30.0
176
     1
 62
     5
 63
     7
421
 16777215
176
     1
 74
     2
176
     1
 91
        2
176
     1
 64
     7
176
     1
 65
   257
176
     1
 75
     1
176
     1
175
     1
176
     1
 42
40.0
176
     1
 92
        8
176
     1
 66
     7
176
     1
 43
1.0
176
     1
 76
     1
176
     1
 77
     6
176
     1
 78
     2
176
     1
 67
     7
176
     1
 79
     3
176
     1
170
     0
176
     1
171
     0
176
     1
290
     0
176
     1
 93
        1
176
     1
 44
0.0
176
     1
173
     0
176
     1
  0
VISUALSTYLE
  5
35
102
{ACAD_REACTORS
330
2A
102
}
330
2A
100
AcDbVisualStyle
  2
Dim
 70
    11
177
     2
291
     1
 71
     2
176
     1
 72
     2
176
     1
 73
     0
176
     1
 90
        0
176
     1
 40
-0.6
176
     1
 41
-30.0
176
     1
 62
     5
 63
     7
421
 16777215
176
     1
 74
     1
176
     1
 91
        4
176
     1
 64
     7
176
     1
 65
   257
176
     1
 75
     1
176
     1
175
     1
176
     1
 42
1.0
176
     1
 92
        8
176
     1
 66
     7
176
     1
 43
1.0
176
     1
 76
     1
176
     1
 77
     6
176
     1
 78
     2
176
     1
 67
     7
176
     1
 79
     5
176
     1
170
     0
176
     1
171
     0
176
     1
290
     0
176
     1
 93
        1
176
     1
 44
-50.0
176
     1
173
     0
176
     1
  0
VISUALSTYLE
  5
39
102
{ACAD_REACTORS
330
2A
102
}
330
2A
100
AcDbVisualStyle
  2
Facepattern
 70
    15
177
     2
291
     1
 71
     2
176
     1
 72
     2
176
     1
 73
     0
176
     1
 90
        0
176
     1
 40
-0.6
176
     1
 41
-30.0
176
     1
 62
     5
 63
     7
421
 16777215
176
     1
 74
     1
176
     1
 91
        4
176
     1
 64
     7
176
     1
 65
   257
176
     1
 75
     1
176
     1
175
     1
176
     1
 42
1.0
176
     1
 92
        8
176
     1
 66
     7
176
     1
 43
1.0
176
     1
 76
     1
176
     1
 77
     6
176
     1
 78
     2
176
     1
 67
     7
176
     1
 79
     5
176
     1
170
     0
176
     1
171
     0
176
     1
290
     0
176
     1
 93
        1
176
     1
 44
0.0
176
     1
173
     0
176
     1
  0
VISUALSTYLE
  5
2B
102
{ACAD_REACTORS
330
2A
102
}
330
2A
100
AcDbVisualStyle
  2
Flat
 70
     0
177
     2
291
     1
 71
     2
176
     1
 72
     1
176
     1
 73
     1
176
     1
 90
        2
176
     1
 40
-0.6
176
     1
 41
30.0
176
     1
 62
     5
 63
     7
421
 16777215
176
     1
 74
     0
176
     1
 91
        4
176
     1
 64
     7
176
     1
 65
   257
176
     1
 75
     1
176
     1
175
     1
176
     1
 42
1.0
176
     1
 92
        8
176
     1
 66
     7
176
     1
 43
1.0
176
     1
 76
     1
176
     1
 77
     6
176
     1
 78
     2
176
     1
 67
     7
176
     1
 79
     5
176
     1
170
     0
176
     1
171
     0
176
     1
290
     0
176
     1
 93
       13
176
     1
 44
0.0
176
     1
173
     0
176
     1
  0
VISUALSTYLE
  5
2C
102
{ACAD_REACTORS
330
2A
102
}
330
2A
100
AcDbVisualStyle
  2
FlatWithEdges
 70
     1
177
     2
291
     1
 71
     2
176
     1
 72
     1
176
     1
 73
     1
176
     1
 90
        2
176
     1
 40
-0.6
176
     1
 41
30.0
176
     1
 62
     5
 63
     7
421
 16777215
176
     1
 74
     1
176
     1
 91
        4
176
     1
 64
     7
176
     1
 65
   257
176
     1
 75
     1
176
     1
175
     1
176
     1
 42
1.0
176
     1
 92
        0
176
     1
 66
   257
176
     1
 43
1.0
176
     1
 76
     1
176
     1
 77
     6
176
     1
 78
     2
176
     1
 67
     7
176
     1
 79
     5
176
     1
170
     0
176
     1
171
     0
176
     1
290
     0
176
     1
 93
       13
176
     1
 44
0.0
176
     1
173
     0
176
     1
  0
VISUALSTYLE
  5
2D
102
{ACAD_REACTORS
330
2A
102
}
330
2A
100
AcDbVisualStyle
  2
Gouraud
 70
     2
177
     2
291
     1
 71
     2
176
     1
 72
     2
176
     1
 73
     1
176
     1
 90
        2
176
     1
 40
-0.6
176
     1
 41
30.0
176
     1
 62
     5
 63
     7
421
 16777215
176
     1
 74
     0
176
     1
 91
        4
176
     1
 64
     7
176
     1
 65
   257
176
     1
 75
     1
176
     1
175
     1
176
     1
 42
1.0
176
     1
 92
        0
176
     1
 66
     7
176
     1
 43
1.0
176
     1
 76
     1
176
     1
 77
     6
176
     1
 78
     2
176
     1
 67
     7
176
     1
 79
     5
176
     1
170
     0
176
     1
171
     0
176
     1
290
     0
176
     1
 93
       13
176
     1
 44
0.0
176
     1
173
     0
176
     1
  0
VISUALSTYLE
  5
2E
102
{ACAD_REACTORS
330
2A
102
}
330
2A
100
AcDbVisualStyle
  2
GouraudWithEdges
 70
     3
177
     2
291
     1
 71
     2
176
     1
 72
     2
176
     1
 73
     1
176
     1
 90
        2
176
     1
 40
-0.6
176
     1
 41
30.0
176
     1
 62
     5
 63
     7
421
 16777215
176
     1
 74
     1
176
     1
 91
        4
176
     1
 64
     7
176
     1
 65
   257
176
     1
 75
     1
176
     1
175
     1
176
     1
 42
1.0
176
     1
 92
        0
176
     1
 66
   257
176
     1
 43
1.0
176
     1
 76
     1
176
     1
 77
     6
176
     1
 78
     2
176
     1
 67
     7
176
     1
 79
     5
176
     1
170
     0
176
     1
171
     0
176
     1
290
     0
176
     1
 93
       13
176
     1
 44
0.0
176
     1
173
     0
176
     1
  0
VISUALSTYLE
  5
38
102
{ACAD_REACTORS
330
2A
102
}
330
2A
100
AcDbVisualStyle
  2
Linepattern
 70
    14
177
     2
291
     1
 71
     2
176
     1
 72
     2
176
     1
 73
     0
176
     1
 90
        0
176
     1
 40
-0.6
176
     1
 41
-30.0
176
     1
 62
     5
 63
     7
421
 16777215
176
     1
 74
     1
176
     1
 91
        4
176
     1
 64
     7
176
     1
 65
   257
176
     1
 75
     7
176
     1
175
     7
176
     1
 42
1.0
176
     1
 92
        8
176
     1
 66
     7
176
     1
 43
1.0
176
     1
 76
     1
176
     1
 77
     6
176
     1
 78
     2
176
     1
 67
     7
176
     1
 79
     5
176
     1
170
     0
176
     1
171
     0
176
     1
290
     0
176
     1
 93
        1
176
     1
 44
0.0
176
     1
173
     0
176
     1
  0
VISUALSTYLE
  5
33
102
{ACAD_REACTORS
330
2A
102
}
330
2A
100
AcDbVisualStyle
  2
Realistic
 70
     8
177
     2
291
     0
 71
     2
176
     1
 72
     2
176
     1
 73
     0
176
     1
 90
        0
176
     1
 40
-0.6
176
     1
 41
-30.0
176
     1
 62
     5
 63
     7
421
 16777215
176
     1
 74
     1
176
     1
 91
        0
176
     1
 64
     7
176
     1
 65
   257
176
     1
 75
     1
176
     1
175
     1
176
     1
 42
1.0
176
     1
 92
        8
176
     1
 66
     8
424
  7895160
176
     1
 43
1.0
176
     1
 76
     1
176
     1
 77
     6
176
     1
 78
     2
176
     1
 67
     7
176
     1
 79
     5
176
     1
170
     0
176
     1
171
     0
176
     1
290
     0
176
     1
 93
       13
176
     1
 44
0.0
176
     1
173
     0
176
     1
  0
VISUALSTYLE
  5
37
102
{ACAD_REACTORS
330
2A
102
}
330
2A
100
AcDbVisualStyle
  2
Thicken
 70
    13
177
     2
291
     1
 71
     2
176
     1
 72
     2
176
     1
 73
     0
176
     1
 90
        0
176
     1
 40
-0.6
176
     1
 41
-30.0
176
     1
 62
     5
 63
     7
421
 16777215
176
     1
 74
     1
176
     1
 91
        4
176
     1
 64
     7
176
     1
 65
   257
176
     1
 75
     1
176
     1
175
     1
176
     1
 42
1.0
176
     1
 92
       12
176
     1
 66
     7
176
     1
 43
1.0
176
     1
 76
     1
176
     1
 77
     6
176
     1
 78
     2
176
     1
 67
     7
176
     1
 79
     5
176
     1
170
     0
176
     1
171
     0
176
     1
290
     0
176
     1
 93
        1
176
     1
 44
0.0
176
     1
173
     0
176
     1
  0
ENDSEC
  0
EOF
