<?xml version="1.0" encoding="utf-8"?>
<!-- Generator: Adobe Illustrator 19.2.1, SVG Export Plug-In . SVG Version: 6.00 Build 0)  -->
<svg version="1.1" id="Layer_1" xmlns="http://www.w3.org/2000/svg" xmlns:xlink="http://www.w3.org/1999/xlink" x="0px" y="0px"
	 viewBox="0 0 100 125" style="enable-background:new 0 0 100 125;" xml:space="preserve">
<path d="M87.1,39.3c-0.2-0.1-0.5-0.2-0.8-0.3l-16.3-4.2c-3.4-0.9-6.3-3-8.2-6l-9-14.3c-1.2-2-4.1-2-5.4,0l-9,14.3
	c-1.9,3-4.8,5.1-8.2,6L13.7,39c-2.3,0.6-3.1,3.3-1.7,5.1l10.8,13c2.2,2.7,3.4,6.2,3.1,9.7l-1.1,16.8c-0.1,2.3,2.2,4,4.3,3.2
	l15.7-6.2c2.3-0.9,4.9-1.2,7.3-0.8c1,0.2,1.9,0.4,2.9,0.8l15.7,6.2c2.2,0.9,4.5-0.8,4.3-3.2L74,66.7c-0.2-3.5,0.9-7,3.1-9.7l10.8-13
	C89.2,42.5,88.7,40.2,87.1,39.3z M25.8,45.4c-0.4,1.4-1.8,2.3-3.2,1.9c-1.4-0.4-2.2-1.8-1.9-3.2c0.4-1.4,1.8-2.3,3.2-1.9
	C25.3,42.6,26.2,44,25.8,45.4z M50,20.8c1.5,0,2.6,1.2,2.6,2.6c0,1.5-1.2,2.6-2.6,2.6s-2.6-1.2-2.6-2.6C47.4,22,48.5,20.8,50,20.8z
	 M50,30.7c2.4,0,4.4,2,4.4,4.4c0,2.4-2,4.4-4.4,4.4s-4.4-2-4.4-4.4C45.6,32.6,47.6,30.7,50,30.7z M30.2,46.6c0.6-2.4,3-3.7,5.4-3.1
	c2.3,0.6,3.7,3,3.1,5.4c-0.6,2.4-3,3.7-5.4,3.1C31,51.4,29.6,49,30.2,46.6z M35.8,76.7c-0.7,1.3-2.3,1.7-3.6,1
	c-1.3-0.7-1.7-2.3-1-3.6c0.7-1.3,2.3-1.7,3.6-1C36.1,73.8,36.6,75.5,35.8,76.7z M43.2,67.5c-1.2,2.1-3.9,2.8-6,1.6
	c-2.1-1.2-2.8-3.9-1.6-6c1.2-2.1,3.9-2.8,6-1.6C43.7,62.7,44.4,65.4,43.2,67.5z M50,58.4c-3.4,0-6.2-2.8-6.2-6.2s2.8-6.2,6.2-6.2
	c3.4,0,6.2,2.8,6.2,6.2S53.4,58.4,50,58.4z M62.8,69.1c-2.1,1.2-4.8,0.5-6-1.6c-1.2-2.1-0.5-4.8,1.6-6c2.1-1.2,4.8-0.5,6,1.6
	C65.7,65.2,64.9,67.9,62.8,69.1z M67.8,77.7c-1.3,0.7-2.9,0.3-3.6-1s-0.3-2.9,1-3.6c1.3-0.7,2.9-0.3,3.6,1
	C69.5,75.3,69,77,67.8,77.7z M66.7,52c-2.4,0.6-4.8-0.8-5.4-3.1c-0.6-2.4,0.8-4.8,3.1-5.4c0.3-0.1,0.6-0.1,0.9-0.1
	c2-0.1,4,1.2,4.5,3.3C70.4,49,69,51.4,66.7,52z M77.5,47.3c-1.4,0.4-2.9-0.5-3.2-1.9c-0.4-1.4,0.5-2.9,1.9-3.2
	c1.4-0.4,2.9,0.5,3.2,1.9C79.7,45.5,78.9,46.9,77.5,47.3z"/>
</svg>
