  0
SECTION
  2
HEADER
  9
$ACADVER
  1
AC1024
  9
$ACADMAINTVER
 70
     6
  9
$DWGCODEPAGE
  3
UNDEFINED
  9
$INSBASE
 10
0.0
 20
0.0
 30
0.0
  9
$EXTMIN
 10
1.000000000000000E+20
 20
1.000000000000000E+20
 30
1.000000000000000E+20
  9
$EXTMAX
 10
-1.000000000000000E+20
 20
-1.000000000000000E+20
 30
-1.000000000000000E+20
  9
$LIMMIN
 10
0.0
 20
0.0
  9
$LIMMAX
 10
12.0
 20
9.0
  9
$ORTHOMODE
 70
     0
  9
$REGENMODE
 70
     1
  9
$FILLMODE
 70
     1
  9
$QTEXTMODE
 70
     0
  9
$MIRRTEXT
 70
     1
  9
$LTSCALE
 40
1.0
  9
$ATTMODE
 70
     1
  9
$TEXTSIZE
 40
0.2
  9
$TRACEWID
 40
0.05
  9
$TEXTSTYLE
  7
Standard
  9
$CLAYER
  8
0
  9
$CELTYPE
  6
ByLayer
  9
$CECOLOR
 62
   256
  9
$CELTSCALE
 40
1.0
  9
$DISPSILH
 70
     0
  9
$DIMSCALE
 40
1.0
  9
$DIMASZ
 40
0.18
  9
$DIMEXO
 40
0.0625
  9
$DIMDLI
 40
0.38
  9
$DIMRND
 40
0.0
  9
$DIMDLE
 40
0.0
  9
$DIMEXE
 40
0.18
  9
$DIMTP
 40
0.0
  9
$DIMTM
 40
0.0
  9
$DIMTXT
 40
0.18
  9
$DIMCEN
 40
0.09
  9
$DIMTSZ
 40
0.0
  9
$DIMTOL
 70
     0
  9
$DIMLIM
 70
     0
  9
$DIMTIH
 70
     1
  9
$DIMTOH
 70
     1
  9
$DIMSE1
 70
     0
  9
$DIMSE2
 70
     0
  9
$DIMTAD
 70
     0
  9
$DIMZIN
 70
     0
  9
$DIMBLK
  1

  9
$DIMASO
 70
     1
  9
$DIMSHO
 70
     1
  9
$DIMPOST
  1

  9
$DIMAPOST
  1

  9
$DIMALT
 70
     0
  9
$DIMALTD
 70
     2
  9
$DIMALTF
 40
25.4
  9
$DIMLFAC
 40
1.0
  9
$DIMTOFL
 70
     0
  9
$DIMTVP
 40
0.0
  9
$DIMTIX
 70
     0
  9
$DIMSOXD
 70
     0
  9
$DIMSAH
 70
     0
  9
$DIMBLK1
  1

  9
$DIMBLK2
  1

  9
$DIMSTYLE
  2
Standard
  9
$DIMCLRD
 70
     0
  9
$DIMCLRE
 70
     0
  9
$DIMCLRT
 70
     0
  9
$DIMTFAC
 40
1.0
  9
$DIMGAP
 40
0.09
  9
$DIMJUST
 70
     0
  9
$DIMSD1
 70
     0
  9
$DIMSD2
 70
     0
  9
$DIMTOLJ
 70
     1
  9
$DIMTZIN
 70
     0
  9
$DIMALTZ
 70
     0
  9
$DIMALTTZ
 70
     0
  9
$DIMUPT
 70
     0
  9
$DIMDEC
 70
     4
  9
$DIMTDEC
 70
     4
  9
$DIMALTU
 70
     2
  9
$DIMALTTD
 70
     2
  9
$DIMTXSTY
  7
Standard
  9
$DIMAUNIT
 70
     0
  9
$DIMADEC
 70
     0
  9
$DIMALTRND
 40
0.0
  9
$DIMAZIN
 70
     0
  9
$DIMDSEP
 70
    46
  9
$DIMATFIT
 70
     3
  9
$DIMFRAC
 70
     0
  9
$DIMLDRBLK
  1

  9
$DIMLUNIT
 70
     2
  9
$DIMLWD
 70
    -2
  9
$DIMLWE
 70
    -2
  9
$DIMTMOVE
 70
     0
  9
$DIMFXL
 40
1.0
  9
$DIMFXLON
 70
     0
  9
$DIMJOGANG
 40
0.7853981633974483
  9
$DIMTFILL
 70
     0
  9
$DIMTFILLCLR
 70
     0
  9
$DIMARCSYM
 70
     0
  9
$DIMLTYPE
  6

  9
$DIMLTEX1
  6

  9
$DIMLTEX2
  6

  9
$DIMTXTDIRECTION
 70
     0
  9
$LUNITS
 70
     2
  9
$LUPREC
 70
     4
  9
$SKETCHINC
 40
0.1
  9
$FILLETRAD
 40
0.5
  9
$AUNITS
 70
     0
  9
$AUPREC
 70
     0
  9
$MENU
  1
.
  9
$ELEVATION
 40
0.0
  9
$PELEVATION
 40
0.0
  9
$THICKNESS
 40
0.0
  9
$LIMCHECK
 70
     0
  9
$CHAMFERA
 40
0.5
  9
$CHAMFERB
 40
0.5
  9
$CHAMFERC
 40
1.0
  9
$CHAMFERD
 40
0.0
  9
$SKPOLY
 70
     0
  9
$TDCREATE
 40
2457533.042430544
  9
$TDUCREATE
 40
2457533.250763889
  9
$TDUPDATE
 40
2457533.042430544
  9
$TDUUPDATE
 40
2457533.250763889
  9
$TDINDWG
 40
0.0000000116
  9
$TDUSRTIMER
 40
0.0000000116
  9
$USRTIMER
 70
     1
  9
$ANGBASE
 50
0.0
  9
$ANGDIR
 70
     0
  9
$PDMODE
 70
     0
  9
$PDSIZE
 40
0.0
  9
$PLINEWID
 40
0.0
  9
$SPLFRAME
 70
     0
  9
$SPLINETYPE
 70
     6
  9
$SPLINESEGS
 70
     8
  9
$HANDSEED
  5
51
  9
$SURFTAB1
 70
     6
  9
$SURFTAB2
 70
     6
  9
$SURFTYPE
 70
     6
  9
$SURFU
 70
     6
  9
$SURFV
 70
     6
  9
$UCSBASE
  2

  9
$UCSNAME
  2

  9
$UCSORG
 10
0.0
 20
0.0
 30
0.0
  9
$UCSXDIR
 10
1.0
 20
0.0
 30
0.0
  9
$UCSYDIR
 10
0.0
 20
1.0
 30
0.0
  9
$UCSORTHOREF
  2

  9
$UCSORTHOVIEW
 70
     0
  9
$UCSORGTOP
 10
0.0
 20
0.0
 30
0.0
  9
$UCSORGBOTTOM
 10
0.0
 20
0.0
 30
0.0
  9
$UCSORGLEFT
 10
0.0
 20
0.0
 30
0.0
  9
$UCSORGRIGHT
 10
0.0
 20
0.0
 30
0.0
  9
$UCSORGFRONT
 10
0.0
 20
0.0
 30
0.0
  9
$UCSORGBACK
 10
0.0
 20
0.0
 30
0.0
  9
$PUCSBASE
  2

  9
$PUCSNAME
  2

  9
$PUCSORG
 10
0.0
 20
0.0
 30
0.0
  9
$PUCSXDIR
 10
1.0
 20
0.0
 30
0.0
  9
$PUCSYDIR
 10
0.0
 20
1.0
 30
0.0
  9
$PUCSORTHOREF
  2

  9
$PUCSORTHOVIEW
 70
     0
  9
$PUCSORGTOP
 10
0.0
 20
0.0
 30
0.0
  9
$PUCSORGBOTTOM
 10
0.0
 20
0.0
 30
0.0
  9
$PUCSORGLEFT
 10
0.0
 20
0.0
 30
0.0
  9
$PUCSORGRIGHT
 10
0.0
 20
0.0
 30
0.0
  9
$PUCSORGFRONT
 10
0.0
 20
0.0
 30
0.0
  9
$PUCSORGBACK
 10
0.0
 20
0.0
 30
0.0
  9
$USERI1
 70
     0
  9
$USERI2
 70
     0
  9
$USERI3
 70
     0
  9
$USERI4
 70
     0
  9
$USERI5
 70
     0
  9
$USERR1
 40
0.0
  9
$USERR2
 40
0.0
  9
$USERR3
 40
0.0
  9
$USERR4
 40
0.0
  9
$USERR5
 40
0.0
  9
$WORLDVIEW
 70
     1
  9
$SHADEDGE
 70
     3
  9
$SHADEDIF
 70
    70
  9
$TILEMODE
 70
     1
  9
$MAXACTVP
 70
    64
  9
$PINSBASE
 10
0.0
 20
0.0
 30
0.0
  9
$PLIMCHECK
 70
     0
  9
$PEXTMIN
 10
1.000000000000000E+20
 20
1.000000000000000E+20
 30
1.000000000000000E+20
  9
$PEXTMAX
 10
-1.000000000000000E+20
 20
-1.000000000000000E+20
 30
-1.000000000000000E+20
  9
$PLIMMIN
 10
0.0
 20
0.0
  9
$PLIMMAX
 10
12.0
 20
9.0
  9
$UNITMODE
 70
     0
  9
$VISRETAIN
 70
     1
  9
$PLINEGEN
 70
     0
  9
$PSLTSCALE
 70
     1
  9
$TREEDEPTH
 70
  3020
  9
$CMLSTYLE
  2
Standard
  9
$CMLJUST
 70
     0
  9
$CMLSCALE
 40
1.0
  9
$PROXYGRAPHICS
 70
     1
  9
$MEASUREMENT
 70
     0
  9
$CELWEIGHT
370
    -1
  9
$ENDCAPS
280
     0
  9
$JOINSTYLE
280
     0
  9
$LWDISPLAY
290
     1
  9
$INSUNITS
 70
     1
  9
$HYPERLINKBASE
  1

  9
$STYLESHEET
  1

  9
$XEDIT
290
     1
  9
$CEPSNTYPE
380
     0
  9
$PSTYLEMODE
290
     1
  9
$FINGERPRINTGUID
  2
{1B51CF80-CDBA-083C-1A80-36C28B9DDB15}
  9
$VERSIONGUID
  2
{FAEB1C32-E019-11D5-929B-00C0DF256EC4}
  9
$EXTNAMES
290
     1
  9
$PSVPSCALE
 40
0.0
  9
$OLESTARTUP
290
     0
  9
$SORTENTS
280
   127
  9
$INDEXCTL
280
     0
  9
$HIDETEXT
280
     1
  9
$XCLIPFRAME
280
     2
  9
$HALOGAP
280
     0
  9
$OBSCOLOR
 70
   257
  9
$OBSLTYPE
280
     0
  9
$INTERSECTIONDISPLAY
280
     0
  9
$INTERSECTIONCOLOR
 70
   257
  9
$DIMASSOC
280
     2
  9
$PROJECTNAME
  1

  9
$CAMERADISPLAY
290
     0
  9
$LENSLENGTH
 40
50.0
  9
$CAMERAHEIGHT
 40
0.0
  9
$STEPSPERSEC
 40
2.0
  9
$STEPSIZE
 40
6.0
  9
$3DDWFPREC
 40
2.0
  9
$PSOLWIDTH
 40
0.25
  9
$PSOLHEIGHT
 40
4.0
  9
$LOFTANG1
 40
1.570796326794897
  9
$LOFTANG2
 40
1.570796326794897
  9
$LOFTMAG1
 40
0.0
  9
$LOFTMAG2
 40
0.0
  9
$LOFTPARAM
 70
     7
  9
$LOFTNORMALS
280
     1
  9
$LATITUDE
 40
37.795
  9
$LONGITUDE
 40
-122.394
  9
$NORTHDIRECTION
 40
0.0
  9
$TIMEZONE
 70
 -8000
  9
$LIGHTGLYPHDISPLAY
280
     1
  9
$TILEMODELIGHTSYNCH
280
     1
  9
$CMATERIAL
347
3C
  9
$SOLIDHIST
280
     1
  9
$SHOWHIST
280
     1
  9
$DWFFRAME
280
     2
  9
$DGNFRAME
280
     2
  9
$REALWORLDSCALE
290
     1
  9
$INTERFERECOLOR
 62
   256
  9
$CSHADOW
280
     0
  9
$SHADOWPLANELOCATION
 40
0.0
  0
ENDSEC
  0
SECTION
  2
CLASSES
  0
CLASS
  1
ACDBDICTIONARYWDFLT
  2
AcDbDictionaryWithDefault
  3
ObjectDBX Classes
 90
        0
 91
        4
280
     0
281
     0
  0
CLASS
  1
VISUALSTYLE
  2
AcDbVisualStyle
  3
ObjectDBX Classes
 90
     4095
 91
        4
280
     0
281
     0
  0
CLASS
  1
MATERIAL
  2
AcDbMaterial
  3
ObjectDBX Classes
 90
     1153
 91
        4
280
     0
281
     0
  0
CLASS
  1
SUN
  2
AcDbSun
  3
SCENEOE
 90
     1024
 91
        4
280
     0
281
     0
  0
ENDSEC
  0
SECTION
  2
TABLES
  0
TABLE
  2
VPORT
  5
8
330
0
100
AcDbSymbolTable
 70
     1
  0
VPORT
  5
29
330
8
100
AcDbSymbolTableRecord
100
AcDbViewportTableRecord
  2
*Active
 70
     0
 10
0.0
 20
0.0
 11
1.0
 21
1.0
 12
0.0
 22
0.0
 13
0.0
 23
0.0
 14
0.5
 24
0.5
 15
0.5
 25
0.5
 16
0.0
 26
0.0
 36
1.0
 17
50.0
 27
62.5
 37
0.0
 40
125.0
 41
0.8
 42
50.0
 43
0.0
 44
0.0
 50
0.0
 51
0.0
 71
     0
 72
   100
 73
     1
 74
     3
 75
     0
 76
     0
 77
     0
 78
     0
281
     0
 65
     1
110
0.0
120
0.0
130
0.0
111
1.0
121
0.0
131
0.0
112
0.0
122
1.0
132
0.0
 79
     0
146
0.0
 60
     3
 61
     5
292
     1
282
     1
141
0.0
142
0.0
 63
   250
361
3F
  0
ENDTAB
  0
TABLE
  2
LTYPE
  5
5
330
0
100
AcDbSymbolTable
 70
     1
  0
LTYPE
  5
14
330
5
100
AcDbSymbolTableRecord
100
AcDbLinetypeTableRecord
  2
ByBlock
 70
     0
  3

 72
    65
 73
     0
 40
0.0
  0
LTYPE
  5
15
330
5
100
AcDbSymbolTableRecord
100
AcDbLinetypeTableRecord
  2
ByLayer
 70
     0
  3

 72
    65
 73
     0
 40
0.0
  0
LTYPE
  5
16
330
5
100
AcDbSymbolTableRecord
100
AcDbLinetypeTableRecord
  2
Continuous
 70
     0
  3
Solid line
 72
    65
 73
     0
 40
0.0
  0
ENDTAB
  0
TABLE
  2
LAYER
  5
2
330
0
100
AcDbSymbolTable
 70
     2
  0
LAYER
  5
10
330
2
100
AcDbSymbolTableRecord
100
AcDbLayerTableRecord
  2
0
 70
     0
 62
     7
  6
Continuous
370
    -3
390
F
347
3E
  0
LAYER
  5
40
330
2
100
AcDbSymbolTableRecord
100
AcDbLayerTableRecord
  2
Layer 1
 70
     0
 62
     7
  6
Continuous
370
    -3
390
F
347
3E
  0
ENDTAB
  0
TABLE
  2
STYLE
  5
3
330
0
100
AcDbSymbolTable
 70
     1
  0
STYLE
  5
11
330
3
100
AcDbSymbolTableRecord
100
AcDbTextStyleTableRecord
  2
Standard
 70
     0
 40
0.0
 41
1.0
 50
0.0
 71
     0
 42
0.2
  3
txt
  4

  0
ENDTAB
  0
TABLE
  2
VIEW
  5
6
330
0
100
AcDbSymbolTable
 70
     0
  0
ENDTAB
  0
TABLE
  2
UCS
  5
7
330
0
100
AcDbSymbolTable
 70
     0
  0
ENDTAB
  0
TABLE
  2
APPID
  5
9
330
0
100
AcDbSymbolTable
 70
     1
  0
APPID
  5
12
330
9
100
AcDbSymbolTableRecord
100
AcDbRegAppTableRecord
  2
ACAD
 70
     0
  0
ENDTAB
  0
TABLE
  2
DIMSTYLE
  5
A
330
0
100
AcDbSymbolTable
 70
     1
100
AcDbDimStyleTable
  0
DIMSTYLE
105
27
330
A
100
AcDbSymbolTableRecord
100
AcDbDimStyleTableRecord
  2
Standard
 70
     0
178
     0
340
11
  0
ENDTAB
  0
TABLE
  2
BLOCK_RECORD
  5
1
330
0
100
AcDbSymbolTable
 70
     2
  0
BLOCK_RECORD
  5
1F
330
1
100
AcDbSymbolTableRecord
100
AcDbBlockTableRecord
  2
*Model_Space
340
22
 70
     0
280
     1
281
     0
  0
BLOCK_RECORD
  5
1B
330
1
100
AcDbSymbolTableRecord
100
AcDbBlockTableRecord
  2
*Paper_Space
340
1E
 70
     0
280
     1
281
     0
  0
BLOCK_RECORD
  5
23
330
1
100
AcDbSymbolTableRecord
100
AcDbBlockTableRecord
  2
*Paper_Space0
340
26
 70
     0
280
     1
281
     0
  0
BLOCK_RECORD
  5
41
330
1
100
AcDbSymbolTableRecord
100
AcDbBlockTableRecord
  2
block 2
340
0
102
{BLKREFS
331
42
102
}
 70
     0
280
     1
281
     0
  0
ENDTAB
  0
ENDSEC
  0
SECTION
  2
BLOCKS
  0
BLOCK
  5
20
330
1F
100
AcDbEntity
  8
0
100
AcDbBlockBegin
  2
*Model_Space
 70
     0
 10
0.0
 20
0.0
 30
0.0
  3
*Model_Space
  1

  0
ENDBLK
  5
21
330
1F
100
AcDbEntity
  8
0
100
AcDbBlockEnd
  0
BLOCK
  5
1C
330
1B
100
AcDbEntity
 67
     1
  8
0
100
AcDbBlockBegin
  2
*Paper_Space
 70
     0
 10
0.0
 20
0.0
 30
0.0
  3
*Paper_Space
  1

  0
ENDBLK
  5
1D
330
1B
100
AcDbEntity
 67
     1
  8
0
100
AcDbBlockEnd
  0
BLOCK
  5
24
330
23
100
AcDbEntity
  8
0
100
AcDbBlockBegin
  2
*Paper_Space0
 70
     0
 10
0.0
 20
0.0
 30
0.0
  3
*Paper_Space0
  1

  0
ENDBLK
  5
25
330
23
100
AcDbEntity
  8
0
100
AcDbBlockEnd
  0
BLOCK
  5
43
330
41
100
AcDbEntity
  8
0
100
AcDbBlockBegin
  2
block 2
 70
     0
 10
0.0
 20
0.0
 30
0.0
  3
block 2
  1

  0
SPLINE
  5
45
330
41
100
AcDbEntity
  8
Layer 1
370
     0
100
AcDbSpline
210
0.0
220
0.0
230
1.0
 70
    11
 71
     3
 72
   335
 73
   331
 74
     0
 42
0.0000000001
 43
0.0000000001
 12
1.0
 22
0.0
 32
0.0
 13
1.0
 23
0.0
 33
0.0
 40
0.0
 40
0.0
 40
0.0
 40
0.0
 40
1.0
 40
1.0
 40
1.0
 40
2.0
 40
2.0
 40
2.0
 40
3.0
 40
3.0
 40
3.0
 40
4.0
 40
4.0
 40
4.0
 40
5.0
 40
5.0
 40
5.0
 40
6.0
 40
6.0
 40
6.0
 40
7.0
 40
7.0
 40
7.0
 40
8.0
 40
8.0
 40
8.0
 40
9.0
 40
9.0
 40
9.0
 40
10.0
 40
10.0
 40
10.0
 40
11.0
 40
11.0
 40
11.0
 40
12.0
 40
12.0
 40
12.0
 40
13.0
 40
13.0
 40
13.0
 40
14.0
 40
14.0
 40
14.0
 40
15.0
 40
15.0
 40
15.0
 40
16.0
 40
16.0
 40
16.0
 40
17.0
 40
17.0
 40
17.0
 40
18.0
 40
18.0
 40
18.0
 40
19.0
 40
19.0
 40
19.0
 40
20.0
 40
20.0
 40
20.0
 40
21.0
 40
21.0
 40
21.0
 40
22.0
 40
22.0
 40
22.0
 40
23.0
 40
23.0
 40
23.0
 40
24.0
 40
24.0
 40
24.0
 40
25.0
 40
25.0
 40
25.0
 40
26.0
 40
26.0
 40
26.0
 40
27.0
 40
27.0
 40
27.0
 40
28.0
 40
28.0
 40
28.0
 40
29.0
 40
29.0
 40
29.0
 40
30.0
 40
30.0
 40
30.0
 40
31.0
 40
31.0
 40
31.0
 40
32.0
 40
32.0
 40
32.0
 40
33.0
 40
33.0
 40
33.0
 40
34.0
 40
34.0
 40
34.0
 40
35.0
 40
35.0
 40
35.0
 40
36.0
 40
36.0
 40
36.0
 40
37.0
 40
37.0
 40
37.0
 40
38.0
 40
38.0
 40
38.0
 40
39.0
 40
39.0
 40
39.0
 40
40.0
 40
40.0
 40
40.0
 40
41.0
 40
41.0
 40
41.0
 40
42.0
 40
42.0
 40
42.0
 40
43.0
 40
43.0
 40
43.0
 40
44.0
 40
44.0
 40
44.0
 40
45.0
 40
45.0
 40
45.0
 40
46.0
 40
46.0
 40
46.0
 40
47.0
 40
47.0
 40
47.0
 40
48.0
 40
48.0
 40
48.0
 40
49.0
 40
49.0
 40
49.0
 40
50.0
 40
50.0
 40
50.0
 40
51.0
 40
51.0
 40
51.0
 40
52.0
 40
52.0
 40
52.0
 40
53.0
 40
53.0
 40
53.0
 40
54.0
 40
54.0
 40
54.0
 40
55.0
 40
55.0
 40
55.0
 40
56.0
 40
56.0
 40
56.0
 40
57.0
 40
57.0
 40
57.0
 40
58.0
 40
58.0
 40
58.0
 40
59.0
 40
59.0
 40
59.0
 40
60.0
 40
60.0
 40
60.0
 40
61.0
 40
61.0
 40
61.0
 40
62.0
 40
62.0
 40
62.0
 40
63.0
 40
63.0
 40
63.0
 40
64.0
 40
64.0
 40
64.0
 40
65.0
 40
65.0
 40
65.0
 40
66.0
 40
66.0
 40
66.0
 40
67.0
 40
67.0
 40
67.0
 40
68.0
 40
68.0
 40
68.0
 40
69.0
 40
69.0
 40
69.0
 40
70.0
 40
70.0
 40
70.0
 40
71.0
 40
71.0
 40
71.0
 40
72.0
 40
72.0
 40
72.0
 40
73.0
 40
73.0
 40
73.0
 40
74.0
 40
74.0
 40
74.0
 40
75.0
 40
75.0
 40
75.0
 40
76.0
 40
76.0
 40
76.0
 40
77.0
 40
77.0
 40
77.0
 40
78.0
 40
78.0
 40
78.0
 40
79.0
 40
79.0
 40
79.0
 40
80.0
 40
80.0
 40
80.0
 40
81.0
 40
81.0
 40
81.0
 40
82.0
 40
82.0
 40
82.0
 40
83.0
 40
83.0
 40
83.0
 40
84.0
 40
84.0
 40
84.0
 40
85.0
 40
85.0
 40
85.0
 40
86.0
 40
86.0
 40
86.0
 40
87.0
 40
87.0
 40
87.0
 40
88.0
 40
88.0
 40
88.0
 40
89.0
 40
89.0
 40
89.0
 40
90.0
 40
90.0
 40
90.0
 40
91.0
 40
91.0
 40
91.0
 40
92.0
 40
92.0
 40
92.0
 40
93.0
 40
93.0
 40
93.0
 40
94.0
 40
94.0
 40
94.0
 40
95.0
 40
95.0
 40
95.0
 40
96.0
 40
96.0
 40
96.0
 40
97.0
 40
97.0
 40
97.0
 40
98.0
 40
98.0
 40
98.0
 40
99.0
 40
99.0
 40
99.0
 40
100.0
 40
100.0
 40
100.0
 40
101.0
 40
101.0
 40
101.0
 40
102.0
 40
102.0
 40
102.0
 40
103.0
 40
103.0
 40
103.0
 40
104.0
 40
104.0
 40
104.0
 40
105.0
 40
105.0
 40
105.0
 40
106.0
 40
106.0
 40
106.0
 40
107.0
 40
107.0
 40
107.0
 40
108.0
 40
108.0
 40
108.0
 40
109.0
 40
109.0
 40
109.0
 40
110.0
 40
110.0
 40
110.0
 40
110.0
 10
99.5
 20
75.79999923706055
 30
0.0
 10
99.5
 20
73.29999923706055
 30
0.0
 10
98.9000015258789
 20
71.0999984741211
 30
0.0
 10
97.69999694824219
 20
69.0999984741211
 30
0.0
 10
96.5
 20
67.0999984741211
 30
0.0
 10
94.89999389648438
 20
65.39999771118164
 30
0.0
 10
93.0
 20
63.89999771118164
 30
0.0
 10
91.0999984741211
 20
62.39999771118164
 30
0.0
 10
88.9000015258789
 20
61.19999694824219
 30
0.0
 10
86.5999984741211
 20
60.29999542236328
 30
0.0
 10
84.29999542236328
 20
59.29999542236328
 30
0.0
 10
82.0999984741211
 20
58.59999847412109
 30
0.0
 10
79.9000015258789
 20
58.09999847412109
 30
0.0
 10
78.9000015258789
 20
57.79999542236328
 30
0.0
 10
77.80000305175781
 20
57.69999694824219
 30
0.0
 10
76.70000457763672
 20
57.59999847412109
 30
0.0
 10
75.60000610351562
 20
57.5
 30
0.0
 10
74.50000762939453
 20
57.19999694824219
 30
0.0
 10
73.60000610351562
 20
56.5
 30
0.0
 10
72.90000915527344
 20
56.0
 30
0.0
 10
72.30000305175781
 20
55.40000152587891
 30
0.0
 10
71.80000305175781
 20
54.69999694824219
 30
0.0
 10
71.30000305175781
 20
54.0
 30
0.0
 10
70.80000305175781
 20
53.39999389648438
 30
0.0
 10
70.30000305175781
 20
52.69999694824219
 30
0.0
 10
69.80000305175781
 20
52.0
 30
0.0
 10
69.4000015258789
 20
51.29999542236328
 30
0.0
 10
68.9000015258789
 20
50.59999847412109
 30
0.0
 10
68.4000015258789
 20
49.90000152587891
 30
0.0
 10
67.9000015258789
 20
49.29999542236328
 30
0.0
 10
67.30000305175781
 20
48.69999694824219
 30
0.0
 10
66.5
 20
47.79999542236328
 30
0.0
 10
65.30000305175781
 20
47.0
 30
0.0
 10
63.80000305175781
 20
46.09999847412109
 30
0.0
 10
62.30000305175781
 20
45.29999542236328
 30
0.0
 10
60.70000457763672
 20
44.5
 30
0.0
 10
59.00000381469727
 20
43.90000152587891
 30
0.0
 10
57.30000305175781
 20
43.20000457763672
 30
0.0
 10
55.70000457763672
 20
42.70000457763672
 30
0.0
 10
54.00000381469727
 20
42.30000305175781
 30
0.0
 10
52.30000305175781
 20
41.90000152587891
 30
0.0
 10
50.90000534057617
 20
41.70000457763672
 30
0.0
 10
49.70000457763672
 20
41.70000457763672
 30
0.0
 10
49.10000610351562
 20
41.70000457763672
 30
0.0
 10
48.50000381469727
 20
41.80000305175781
 30
0.0
 10
48.10000610351562
 20
42.10000610351562
 30
0.0
 10
47.70000457763672
 20
42.40000915527344
 30
0.0
 10
47.30000686645508
 20
42.80000305175781
 30
0.0
 10
47.00000762939453
 20
43.20000457763672
 30
0.0
 10
46.70000839233398
 20
43.70000457763672
 30
0.0
 10
46.50000762939453
 20
44.20000457763672
 30
0.0
 10
46.40000915527344
 20
44.70000457763672
 30
0.0
 10
46.30001068115234
 20
45.20000457763672
 30
0.0
 10
46.20000839233398
 20
45.80000305175781
 30
0.0
 10
46.20000839233398
 20
46.30000305175781
 30
0.0
 10
46.20000839233398
 20
47.20000457763672
 30
0.0
 10
46.40000915527344
 20
48.10000610351562
 30
0.0
 10
46.90000915527344
 20
49.0
 30
0.0
 10
47.40000915527344
 20
49.90000152587891
 30
0.0
 10
47.90000915527344
 20
50.90000152587891
 30
0.0
 10
48.50000762939453
 20
51.69999694824219
 30
0.0
 10
49.10000610351562
 20
52.59999847412109
 30
0.0
 10
49.60000610351562
 20
53.39999389648438
 30
0.0
 10
50.10000610351562
 20
54.09999847412109
 30
0.0
 10
50.60000610351562
 20
54.79999542236328
 30
0.0
 10
50.80000686645508
 20
55.5
 30
0.0
 10
50.80000686645508
 20
56.0
 30
0.0
 10
50.80000686645508
 20
56.09999847412109
 30
0.0
 10
50.80000686645508
 20
56.09999847412109
 30
0.0
 10
50.80000686645508
 20
56.19999694824219
 30
0.0
 10
50.80000686645508
 20
56.29999542236328
 30
0.0
 10
50.80000686645508
 20
56.29999542236328
 30
0.0
 10
50.80000686645508
 20
56.39999389648438
 30
0.0
 10
50.50000762939453
 20
56.49999237060547
 30
0.0
 10
50.00000762939453
 20
56.59999084472656
 30
0.0
 10
49.20000839233398
 20
56.79999542236328
 30
0.0
 10
48.40000915527344
 20
56.99999237060547
 30
0.0
 10
47.90000915527344
 20
57.09999847412109
 30
0.0
 10
47.60000991821289
 20
57.19999694824219
 30
0.0
 10
47.5000114440918
 20
57.19999694824219
 30
0.0
 10
47.40000915527344
 20
57.19999694824219
 30
0.0
 10
47.20000839233398
 20
57.19999694824219
 30
0.0
 10
47.00000762939453
 20
57.19999694824219
 30
0.0
 10
46.80000686645508
 20
57.19999694824219
 30
0.0
 10
46.70000839233398
 20
57.19999694824219
 30
0.0
 10
46.30000686645508
 20
57.19999694824219
 30
0.0
 10
46.10000991821289
 20
57.19999694824219
 30
0.0
 10
46.00000762939453
 20
57.19999694824219
 30
0.0
 10
45.90000915527344
 20
57.19999694824219
 30
0.0
 10
45.90000915527344
 20
57.09999847412109
 30
0.0
 10
45.90000915527344
 20
57.0
 30
0.0
 10
45.90000915527344
 20
56.90000152587891
 30
0.0
 10
45.90000915527344
 20
56.69999694824219
 30
0.0
 10
45.80001068115234
 20
56.5
 30
0.0
 10
45.70001220703125
 20
56.30000305175781
 30
0.0
 10
45.5000114440918
 20
56.0
 30
0.0
 10
45.20001220703125
 20
55.59999847412109
 30
0.0
 10
45.0000114440918
 20
55.40000152587891
 30
0.0
 10
44.80001068115234
 20
55.19999694824219
 30
0.0
 10
44.4000129699707
 20
54.79999542236328
 30
0.0
 10
44.0000114440918
 20
54.39999389648438
 30
0.0
 10
43.60001373291016
 20
53.99999237060547
 30
0.0
 10
43.20001220703125
 20
53.59999847412109
 30
0.0
 10
42.80001068115234
 20
53.19999694824219
 30
0.0
 10
42.4000129699707
 20
52.79999542236328
 30
0.0
 10
42.0000114440918
 20
52.40000152587891
 30
0.0
 10
41.60000991821289
 20
52.0
 30
0.0
 10
41.4000129699707
 20
51.80000305175781
 30
0.0
 10
41.20001220703125
 20
51.59999847412109
 30
0.0
 10
40.80001068115234
 20
51.5
 30
0.0
 10
40.10001373291016
 20
51.29999542236328
 30
0.0
 10
39.0000114440918
 20
51.09999847412109
 30
0.0
 10
38.0000114440918
 20
50.90000152587891
 30
0.0
 10
36.9000129699707
 20
50.59999847412109
 30
0.0
 10
35.70001220703125
 20
50.40000152587891
 30
0.0
 10
34.60001373291016
 20
50.20000457763672
 30
0.0
 10
33.5000114440918
 20
49.90000152587891
 30
0.0
 10
32.4000129699707
 20
49.70000457763672
 30
0.0
 10
31.4000129699707
 20
49.50000762939453
 30
0.0
 10
30.60001373291016
 20
49.30000305175781
 30
0.0
 10
30.20001220703125
 20
49.30000305175781
 30
0.0
 10
30.20001220703125
 20
49.30000305175781
 30
0.0
 10
29.4000129699707
 20
49.30000305175781
 30
0.0
 10
29.4000129699707
 20
49.30000305175781
 30
0.0
 10
27.9000129699707
 20
49.30000305175781
 30
0.0
 10
26.80001258850098
 20
49.60000610351562
 30
0.0
 10
26.30001258850098
 20
50.30000305175781
 30
0.0
 10
25.70001220703125
 20
50.90000152587891
 30
0.0
 10
25.4000129699707
 20
52.0
 30
0.0
 10
25.4000129699707
 20
53.30000305175781
 30
0.0
 10
25.4000129699707
 20
54.30000305175781
 30
0.0
 10
25.60001373291016
 20
55.10000610351562
 30
0.0
 10
26.10001373291016
 20
55.90000152587891
 30
0.0
 10
26.50001335144043
 20
56.59999847412109
 30
0.0
 10
27.10001373291016
 20
57.30000305175781
 30
0.0
 10
27.80001449584961
 20
57.80000305175781
 30
0.0
 10
28.50001525878906
 20
58.30000305175781
 30
0.0
 10
29.20001411437988
 20
58.80000305175781
 30
0.0
 10
30.10001373291016
 20
59.20000457763672
 30
0.0
 10
31.00001335144043
 20
59.60000610351562
 30
0.0
 10
31.80001449584961
 20
59.90000152587891
 30
0.0
 10
32.60001373291016
 20
60.30000305175781
 30
0.0
 10
32.60001373291016
 20
60.30000305175781
 30
0.0
 10
32.60001373291016
 20
61.10000228881836
 30
0.0
 10
32.60001373291016
 20
61.10000228881836
 30
0.0
 10
32.60001373291016
 20
61.30000305175781
 30
0.0
 10
32.4000129699707
 20
61.40000152587891
 30
0.0
 10
31.9000129699707
 20
61.50000381469727
 30
0.0
 10
31.4000129699707
 20
61.60000228881836
 30
0.0
 10
30.9000129699707
 20
61.70000457763672
 30
0.0
 10
30.30001258850098
 20
61.80000305175781
 30
0.0
 10
29.70001220703125
 20
61.90000152587891
 30
0.0
 10
29.00001335144043
 20
61.90000152587891
 30
0.0
 10
28.4000129699707
 20
61.90000152587891
 30
0.0
 10
27.80001258850098
 20
61.90000152587891
 30
0.0
 10
27.30001258850098
 20
61.90000152587891
 30
0.0
 10
27.10001373291016
 20
61.90000152587891
 30
0.0
 10
25.10001373291016
 20
61.90000152587891
 30
0.0
 10
23.10001373291016
 20
61.5
 30
0.0
 10
21.30001449584961
 20
60.59999847412109
 30
0.0
 10
19.50001525878906
 20
59.69999694824219
 30
0.0
 10
17.70001411437988
 20
58.90000152587891
 30
0.0
 10
15.90001487731934
 20
57.90000152587891
 30
0.0
 10
14.10001468658447
 20
56.90000152587891
 30
0.0
 10
12.30001449584961
 20
56.0
 30
0.0
 10
10.40001487731934
 20
55.20000457763672
 30
0.0
 10
8.500015258789062
 20
54.40000152587891
 30
0.0
 10
6.500014781951904
 20
53.90000152587891
 30
0.0
 10
4.400014877319336
 20
53.90000152587891
 30
0.0
 10
3.70001482963562
 20
53.90000152587891
 30
0.0
 10
3.100014925003052
 20
54.0
 30
0.0
 10
2.600014925003052
 20
54.09999847412109
 30
0.0
 10
2.100014925003052
 20
54.19999694824219
 30
0.0
 10
1.70001494884491
 20
54.69999694824219
 30
0.0
 10
1.400014877319336
 20
55.59999847412109
 30
0.0
 10
1.400014877319336
 20
55.90000152587891
 30
0.0
 10
1.400014877319336
 20
56.40000152587891
 30
0.0
 10
1.400014877319336
 20
57.19999694824219
 30
0.0
 10
1.400014877319336
 20
57.99999237060547
 30
0.0
 10
1.400014877319336
 20
58.5
 30
0.0
 10
1.400014877319336
 20
58.79999542236328
 30
0.0
 10
1.400014877319336
 20
60.29999542236328
 30
0.0
 10
1.600014925003052
 20
61.59999465942383
 30
0.0
 10
2.000014781951904
 20
62.69999694824219
 30
0.0
 10
2.400014877319336
 20
63.79999542236328
 30
0.0
 10
3.000014781951904
 20
64.89999771118164
 30
0.0
 10
3.70001482963562
 20
65.79999542236328
 30
0.0
 10
4.400014877319336
 20
66.69999694824219
 30
0.0
 10
5.300014972686768
 20
67.69999694824219
 30
0.0
 10
6.200015068054199
 20
68.49999618530273
 30
0.0
 10
7.100015163421631
 20
69.39999771118164
 30
0.0
 10
8.2000150680542
 20
70.29999542236328
 30
0.0
 10
9.30001449584961
 20
71.29999542236328
 30
0.0
 10
9.30001449584961
 20
71.29999542236328
 30
0.0
 10
9.30001449584961
 20
72.09999465942383
 30
0.0
 10
9.30001449584961
 20
72.09999465942383
 30
0.0
 10
8.199999809265137
 20
73.0
 30
0.0
 10
7.099999904632568
 20
74.0
 30
0.0
 10
6.099999904632568
 20
75.20000076293945
 30
0.0
 10
5.099999904632568
 20
76.4000015258789
 30
0.0
 10
4.300000190734863
 20
77.60000228881836
 30
0.0
 10
3.5
 20
79.0
 30
0.0
 10
2.700000047683716
 20
80.29999923706055
 30
0.0
 10
2.099999904632568
 20
81.70000076293945
 30
0.0
 10
1.5
 20
83.0999984741211
 30
0.0
 10
1.0
 20
84.5
 30
0.0
 10
0.5
 20
85.89999771118164
 30
0.0
 10
0.1000000238418579
 20
87.0999984741211
 30
0.0
 10
0.1000000238418579
 20
87.19999694824219
 30
0.0
 10
0.1000000238418579
 20
87.29999923706055
 30
0.0
 10
0.1000000238418579
 20
87.5
 30
0.0
 10
0.1000000238418579
 20
87.70000076293945
 30
0.0
 10
0.1000000238418579
 20
87.79999923706055
 30
0.0
 10
0.1000000238418579
 20
87.9000015258789
 30
0.0
 10
0.1000000238418579
 20
88.80000305175781
 30
0.0
 10
0.4000000357627869
 20
89.30000305175781
 30
0.0
 10
1.100000023841858
 20
89.4000015258789
 30
0.0
 10
1.799999952316284
 20
89.5
 30
0.0
 10
2.400000095367432
 20
89.5
 30
0.0
 10
3.199999809265137
 20
89.5
 30
0.0
 10
5.5
 20
89.5
 30
0.0
 10
7.899999618530273
 20
89.0999984741211
 30
0.0
 10
10.19999980926514
 20
88.20000076293945
 30
0.0
 10
12.5
 20
87.4000015258789
 30
0.0
 10
14.69999980926514
 20
86.5
 30
0.0
 10
16.79999923706055
 20
85.5
 30
0.0
 10
18.89999961853027
 20
84.5
 30
0.0
 10
20.89999961853027
 20
83.5999984741211
 30
0.0
 10
22.69999885559082
 20
82.79999923706055
 30
0.0
 10
24.59999847412109
 20
82.0
 30
0.0
 10
26.29999923706055
 20
81.5
 30
0.0
 10
27.79999923706055
 20
81.5
 30
0.0
 10
28.5
 20
81.5
 30
0.0
 10
29.5
 20
81.79999923706055
 30
0.0
 10
30.79999923706055
 20
82.4000015258789
 30
0.0
 10
32.20000076293945
 20
83.0
 30
0.0
 10
33.5
 20
83.70000076293945
 30
0.0
 10
34.89999771118164
 20
84.5
 30
0.0
 10
36.29999923706055
 20
85.29999923706055
 30
0.0
 10
37.49999618530273
 20
86.0999984741211
 30
0.0
 10
38.49999618530273
 20
87.0
 30
0.0
 10
39.49999618530273
 20
87.9000015258789
 30
0.0
 10
39.99999618530273
 20
88.5
 30
0.0
 10
39.99999618530273
 20
89.0
 30
0.0
 10
39.99999618530273
 20
89.0
 30
0.0
 10
39.99999618530273
 20
89.4000015258789
 30
0.0
 10
39.99999618530273
 20
89.4000015258789
 30
0.0
 10
39.59999465942383
 20
90.4000015258789
 30
0.0
 10
39.19999694824219
 20
91.60000228881836
 30
0.0
 10
38.59999465942383
 20
92.80000305175781
 30
0.0
 10
37.99999618530273
 20
94.10000228881836
 30
0.0
 10
37.69999313354492
 20
95.30000305175781
 30
0.0
 10
37.69999313354492
 20
96.40000343322754
 30
0.0
 10
37.69999313354492
 20
97.20000267028809
 30
0.0
 10
37.89999389648438
 20
97.80000305175781
 30
0.0
 10
38.19999313354492
 20
98.40000343322754
 30
0.0
 10
38.49999237060547
 20
98.90000343322754
 30
0.0
 10
38.89999389648438
 20
99.40000343322754
 30
0.0
 10
39.29999160766602
 20
99.90000343322754
 30
0.0
 10
39.69999313354492
 20
100.4000034332275
 30
0.0
 10
40.09999084472656
 20
100.8000030517578
 30
0.0
 10
40.39999008178711
 20
101.3000030517578
 30
0.0
 10
40.69998931884766
 20
101.8000030517578
 30
0.0
 10
40.89999008178711
 20
102.3000030517578
 30
0.0
 10
40.89999008178711
 20
102.9000034332275
 30
0.0
 10
40.89999008178711
 20
103.7000026702881
 30
0.0
 10
40.69998931884766
 20
104.5000038146973
 30
0.0
 10
40.39999008178711
 20
105.2000026702881
 30
0.0
 10
40.09999084472656
 20
105.9000034332275
 30
0.0
 10
39.89999008178711
 20
106.6000022888184
 30
0.0
 10
39.89999008178711
 20
107.5000019073486
 30
0.0
 10
39.89999008178711
 20
108.3000011444092
 30
0.0
 10
40.19998931884766
 20
108.8000011444092
 30
0.0
 10
40.89999008178711
 20
109.2000017166138
 30
0.0
 10
41.59999084472656
 20
109.5000019073486
 30
0.0
 10
42.29999160766602
 20
109.8000020980835
 30
0.0
 10
43.19998931884766
 20
109.9000015258789
 30
0.0
 10
44.09999084472656
 20
110.0000019073486
 30
0.0
 10
44.89999008178711
 20
110.0000019073486
 30
0.0
 10
45.69998931884766
 20
110.0000019073486
 30
0.0
 10
46.4999885559082
 20
109.9000015258789
 30
0.0
 10
47.09999084472656
 20
109.9000015258789
 30
0.0
 10
47.4999885559082
 20
109.9000015258789
 30
0.0
 10
50.29998779296875
 20
109.9000015258789
 30
0.0
 10
52.79998779296875
 20
109.600001335144
 30
0.0
 10
55.19998931884766
 20
109.0000019073486
 30
0.0
 10
57.59999084472656
 20
108.4000015258789
 30
0.0
 10
59.89999008178711
 20
107.5000019073486
 30
0.0
 10
62.09999084472656
 20
106.3000011444092
 30
0.0
 10
64.29998779296875
 20
105.2000007629395
 30
0.0
 10
66.39999389648438
 20
103.8000011444092
 30
0.0
 10
68.39999389648438
 20
102.3000011444092
 30
0.0
 10
70.39999389648438
 20
100.8000011444092
 30
0.0
 10
72.39999389648438
 20
99.10000038146973
 30
0.0
 10
74.29999542236328
 20
97.30000114440918
 30
0.0
 10
74.39999389648438
 20
97.20000076293945
 30
0.0
 10
74.5999984741211
 20
97.00000190734863
 30
0.0
 10
74.89999389648438
 20
96.70000076293945
 30
0.0
 10
75.19999694824219
 20
96.4000015258789
 30
0.0
 10
75.49999237060547
 20
96.10000038146973
 30
0.0
 10
75.79999542236328
 20
95.70000076293945
 30
0.0
 10
76.0999984741211
 20
95.4000015258789
 30
0.0
 10
76.49999237060547
 20
95.0
 30
0.0
 10
76.79999542236328
 20
94.70000076293945
 30
0.0
 10
77.0999984741211
 20
94.4000015258789
 30
0.0
 10
77.29999542236328
 20
94.20000076293945
 30
0.0
 10
77.39999389648438
 20
94.20000076293945
 30
0.0
 10
77.59999084472656
 20
94.10000038146973
 30
0.0
 10
77.89999389648438
 20
94.0
 30
0.0
 10
78.49999237060547
 20
93.80000114440918
 30
0.0
 10
79.09999084472656
 20
93.70000076293945
 30
0.0
 10
79.79999542236328
 20
93.50000190734863
 30
0.0
 10
80.49999237060547
 20
93.4000015258789
 30
0.0
 10
81.19998931884766
 20
93.20000076293945
 30
0.0
 10
81.89999389648438
 20
93.10000228881836
 30
0.0
 10
82.49999237060547
 20
92.9000015258789
 30
0.0
 10
83.09999084472656
 20
92.70000076293945
 30
0.0
 10
83.49999237060547
 20
92.60000228881836
 30
0.0
 10
83.69998931884766
 20
92.60000228881836
 30
0.0
 10
85.69998931884766
 20
91.80000305175781
 30
0.0
 10
87.59999084472656
 20
90.9000015258789
 30
0.0
 10
89.49999237060547
 20
89.9000015258789
 30
0.0
 10
91.39999389648438
 20
88.9000015258789
 30
0.0
 10
93.09999084472656
 20
87.70000076293945
 30
0.0
 10
94.49999237060547
 20
86.4000015258789
 30
0.0
 10
95.99999237060547
 20
85.10000228881836
 30
0.0
 10
97.09999084472656
 20
83.5
 30
0.0
 10
97.99999237060547
 20
81.80000305175781
 30
0.0
 10
99.0999984741211
 20
80.0999984741211
 30
0.0
 10
99.5
 20
78.0999984741211
 30
0.0
 10
99.5
 20
75.79999923706055
 30
0.0
  0
HATCH
  5
46
330
41
100
AcDbEntity
  8
Layer 1
 62
     7
420
 16777215
100
AcDbHatch
 10
0.0
 20
0.0
 30
0.0
210
0.0
220
0.0
230
1.0
  2
SOLID
 70
     1
 71
     0
 91
        1
 92
        1
 93
        1
 72
     4
 94
        3
 73
     0
 74
     1
 95
      335
 96
      331
 40
0.0
 40
0.0
 40
0.0
 40
0.0
 40
1.0
 40
1.0
 40
1.0
 40
2.0
 40
2.0
 40
2.0
 40
3.0
 40
3.0
 40
3.0
 40
4.0
 40
4.0
 40
4.0
 40
5.0
 40
5.0
 40
5.0
 40
6.0
 40
6.0
 40
6.0
 40
7.0
 40
7.0
 40
7.0
 40
8.0
 40
8.0
 40
8.0
 40
9.0
 40
9.0
 40
9.0
 40
10.0
 40
10.0
 40
10.0
 40
11.0
 40
11.0
 40
11.0
 40
12.0
 40
12.0
 40
12.0
 40
13.0
 40
13.0
 40
13.0
 40
14.0
 40
14.0
 40
14.0
 40
15.0
 40
15.0
 40
15.0
 40
16.0
 40
16.0
 40
16.0
 40
17.0
 40
17.0
 40
17.0
 40
18.0
 40
18.0
 40
18.0
 40
19.0
 40
19.0
 40
19.0
 40
20.0
 40
20.0
 40
20.0
 40
21.0
 40
21.0
 40
21.0
 40
22.0
 40
22.0
 40
22.0
 40
23.0
 40
23.0
 40
23.0
 40
24.0
 40
24.0
 40
24.0
 40
25.0
 40
25.0
 40
25.0
 40
26.0
 40
26.0
 40
26.0
 40
27.0
 40
27.0
 40
27.0
 40
28.0
 40
28.0
 40
28.0
 40
29.0
 40
29.0
 40
29.0
 40
30.0
 40
30.0
 40
30.0
 40
31.0
 40
31.0
 40
31.0
 40
32.0
 40
32.0
 40
32.0
 40
33.0
 40
33.0
 40
33.0
 40
34.0
 40
34.0
 40
34.0
 40
35.0
 40
35.0
 40
35.0
 40
36.0
 40
36.0
 40
36.0
 40
37.0
 40
37.0
 40
37.0
 40
38.0
 40
38.0
 40
38.0
 40
39.0
 40
39.0
 40
39.0
 40
40.0
 40
40.0
 40
40.0
 40
41.0
 40
41.0
 40
41.0
 40
42.0
 40
42.0
 40
42.0
 40
43.0
 40
43.0
 40
43.0
 40
44.0
 40
44.0
 40
44.0
 40
45.0
 40
45.0
 40
45.0
 40
46.0
 40
46.0
 40
46.0
 40
47.0
 40
47.0
 40
47.0
 40
48.0
 40
48.0
 40
48.0
 40
49.0
 40
49.0
 40
49.0
 40
50.0
 40
50.0
 40
50.0
 40
51.0
 40
51.0
 40
51.0
 40
52.0
 40
52.0
 40
52.0
 40
53.0
 40
53.0
 40
53.0
 40
54.0
 40
54.0
 40
54.0
 40
55.0
 40
55.0
 40
55.0
 40
56.0
 40
56.0
 40
56.0
 40
57.0
 40
57.0
 40
57.0
 40
58.0
 40
58.0
 40
58.0
 40
59.0
 40
59.0
 40
59.0
 40
60.0
 40
60.0
 40
60.0
 40
61.0
 40
61.0
 40
61.0
 40
62.0
 40
62.0
 40
62.0
 40
63.0
 40
63.0
 40
63.0
 40
64.0
 40
64.0
 40
64.0
 40
65.0
 40
65.0
 40
65.0
 40
66.0
 40
66.0
 40
66.0
 40
67.0
 40
67.0
 40
67.0
 40
68.0
 40
68.0
 40
68.0
 40
69.0
 40
69.0
 40
69.0
 40
70.0
 40
70.0
 40
70.0
 40
71.0
 40
71.0
 40
71.0
 40
72.0
 40
72.0
 40
72.0
 40
73.0
 40
73.0
 40
73.0
 40
74.0
 40
74.0
 40
74.0
 40
75.0
 40
75.0
 40
75.0
 40
76.0
 40
76.0
 40
76.0
 40
77.0
 40
77.0
 40
77.0
 40
78.0
 40
78.0
 40
78.0
 40
79.0
 40
79.0
 40
79.0
 40
80.0
 40
80.0
 40
80.0
 40
81.0
 40
81.0
 40
81.0
 40
82.0
 40
82.0
 40
82.0
 40
83.0
 40
83.0
 40
83.0
 40
84.0
 40
84.0
 40
84.0
 40
85.0
 40
85.0
 40
85.0
 40
86.0
 40
86.0
 40
86.0
 40
87.0
 40
87.0
 40
87.0
 40
88.0
 40
88.0
 40
88.0
 40
89.0
 40
89.0
 40
89.0
 40
90.0
 40
90.0
 40
90.0
 40
91.0
 40
91.0
 40
91.0
 40
92.0
 40
92.0
 40
92.0
 40
93.0
 40
93.0
 40
93.0
 40
94.0
 40
94.0
 40
94.0
 40
95.0
 40
95.0
 40
95.0
 40
96.0
 40
96.0
 40
96.0
 40
97.0
 40
97.0
 40
97.0
 40
98.0
 40
98.0
 40
98.0
 40
99.0
 40
99.0
 40
99.0
 40
100.0
 40
100.0
 40
100.0
 40
101.0
 40
101.0
 40
101.0
 40
102.0
 40
102.0
 40
102.0
 40
103.0
 40
103.0
 40
103.0
 40
104.0
 40
104.0
 40
104.0
 40
105.0
 40
105.0
 40
105.0
 40
106.0
 40
106.0
 40
106.0
 40
107.0
 40
107.0
 40
107.0
 40
108.0
 40
108.0
 40
108.0
 40
109.0
 40
109.0
 40
109.0
 40
110.0
 40
110.0
 40
110.0
 40
110.0
 10
99.5
 20
75.79999923706055
 10
99.5
 20
73.29999923706055
 10
98.9000015258789
 20
71.0999984741211
 10
97.69999694824219
 20
69.0999984741211
 10
96.5
 20
67.0999984741211
 10
94.89999389648438
 20
65.39999771118164
 10
93.0
 20
63.89999771118164
 10
91.0999984741211
 20
62.39999771118164
 10
88.9000015258789
 20
61.19999694824219
 10
86.5999984741211
 20
60.29999542236328
 10
84.29999542236328
 20
59.29999542236328
 10
82.0999984741211
 20
58.59999847412109
 10
79.9000015258789
 20
58.09999847412109
 10
78.9000015258789
 20
57.79999542236328
 10
77.80000305175781
 20
57.69999694824219
 10
76.70000457763672
 20
57.59999847412109
 10
75.60000610351562
 20
57.5
 10
74.50000762939453
 20
57.19999694824219
 10
73.60000610351562
 20
56.5
 10
72.90000915527344
 20
56.0
 10
72.30000305175781
 20
55.40000152587891
 10
71.80000305175781
 20
54.69999694824219
 10
71.30000305175781
 20
54.0
 10
70.80000305175781
 20
53.39999389648438
 10
70.30000305175781
 20
52.69999694824219
 10
69.80000305175781
 20
52.0
 10
69.4000015258789
 20
51.29999542236328
 10
68.9000015258789
 20
50.59999847412109
 10
68.4000015258789
 20
49.90000152587891
 10
67.9000015258789
 20
49.29999542236328
 10
67.30000305175781
 20
48.69999694824219
 10
66.5
 20
47.79999542236328
 10
65.30000305175781
 20
47.0
 10
63.80000305175781
 20
46.09999847412109
 10
62.30000305175781
 20
45.29999542236328
 10
60.70000457763672
 20
44.5
 10
59.00000381469727
 20
43.90000152587891
 10
57.30000305175781
 20
43.20000457763672
 10
55.70000457763672
 20
42.70000457763672
 10
54.00000381469727
 20
42.30000305175781
 10
52.30000305175781
 20
41.90000152587891
 10
50.90000534057617
 20
41.70000457763672
 10
49.70000457763672
 20
41.70000457763672
 10
49.10000610351562
 20
41.70000457763672
 10
48.50000381469727
 20
41.80000305175781
 10
48.10000610351562
 20
42.10000610351562
 10
47.70000457763672
 20
42.40000915527344
 10
47.30000686645508
 20
42.80000305175781
 10
47.00000762939453
 20
43.20000457763672
 10
46.70000839233398
 20
43.70000457763672
 10
46.50000762939453
 20
44.20000457763672
 10
46.40000915527344
 20
44.70000457763672
 10
46.30001068115234
 20
45.20000457763672
 10
46.20000839233398
 20
45.80000305175781
 10
46.20000839233398
 20
46.30000305175781
 10
46.20000839233398
 20
47.20000457763672
 10
46.40000915527344
 20
48.10000610351562
 10
46.90000915527344
 20
49.0
 10
47.40000915527344
 20
49.90000152587891
 10
47.90000915527344
 20
50.90000152587891
 10
48.50000762939453
 20
51.69999694824219
 10
49.10000610351562
 20
52.59999847412109
 10
49.60000610351562
 20
53.39999389648438
 10
50.10000610351562
 20
54.09999847412109
 10
50.60000610351562
 20
54.79999542236328
 10
50.80000686645508
 20
55.5
 10
50.80000686645508
 20
56.0
 10
50.80000686645508
 20
56.09999847412109
 10
50.80000686645508
 20
56.09999847412109
 10
50.80000686645508
 20
56.19999694824219
 10
50.80000686645508
 20
56.29999542236328
 10
50.80000686645508
 20
56.29999542236328
 10
50.80000686645508
 20
56.39999389648438
 10
50.50000762939453
 20
56.49999237060547
 10
50.00000762939453
 20
56.59999084472656
 10
49.20000839233398
 20
56.79999542236328
 10
48.40000915527344
 20
56.99999237060547
 10
47.90000915527344
 20
57.09999847412109
 10
47.60000991821289
 20
57.19999694824219
 10
47.5000114440918
 20
57.19999694824219
 10
47.40000915527344
 20
57.19999694824219
 10
47.20000839233398
 20
57.19999694824219
 10
47.00000762939453
 20
57.19999694824219
 10
46.80000686645508
 20
57.19999694824219
 10
46.70000839233398
 20
57.19999694824219
 10
46.30000686645508
 20
57.19999694824219
 10
46.10000991821289
 20
57.19999694824219
 10
46.00000762939453
 20
57.19999694824219
 10
45.90000915527344
 20
57.19999694824219
 10
45.90000915527344
 20
57.09999847412109
 10
45.90000915527344
 20
57.0
 10
45.90000915527344
 20
56.90000152587891
 10
45.90000915527344
 20
56.69999694824219
 10
45.80001068115234
 20
56.5
 10
45.70001220703125
 20
56.30000305175781
 10
45.5000114440918
 20
56.0
 10
45.20001220703125
 20
55.59999847412109
 10
45.0000114440918
 20
55.40000152587891
 10
44.80001068115234
 20
55.19999694824219
 10
44.4000129699707
 20
54.79999542236328
 10
44.0000114440918
 20
54.39999389648438
 10
43.60001373291016
 20
53.99999237060547
 10
43.20001220703125
 20
53.59999847412109
 10
42.80001068115234
 20
53.19999694824219
 10
42.4000129699707
 20
52.79999542236328
 10
42.0000114440918
 20
52.40000152587891
 10
41.60000991821289
 20
52.0
 10
41.4000129699707
 20
51.80000305175781
 10
41.20001220703125
 20
51.59999847412109
 10
40.80001068115234
 20
51.5
 10
40.10001373291016
 20
51.29999542236328
 10
39.0000114440918
 20
51.09999847412109
 10
38.0000114440918
 20
50.90000152587891
 10
36.9000129699707
 20
50.59999847412109
 10
35.70001220703125
 20
50.40000152587891
 10
34.60001373291016
 20
50.20000457763672
 10
33.5000114440918
 20
49.90000152587891
 10
32.4000129699707
 20
49.70000457763672
 10
31.4000129699707
 20
49.50000762939453
 10
30.60001373291016
 20
49.30000305175781
 10
30.20001220703125
 20
49.30000305175781
 10
30.20001220703125
 20
49.30000305175781
 10
29.4000129699707
 20
49.30000305175781
 10
29.4000129699707
 20
49.30000305175781
 10
27.9000129699707
 20
49.30000305175781
 10
26.80001258850098
 20
49.60000610351562
 10
26.30001258850098
 20
50.30000305175781
 10
25.70001220703125
 20
50.90000152587891
 10
25.4000129699707
 20
52.0
 10
25.4000129699707
 20
53.30000305175781
 10
25.4000129699707
 20
54.30000305175781
 10
25.60001373291016
 20
55.10000610351562
 10
26.10001373291016
 20
55.90000152587891
 10
26.50001335144043
 20
56.59999847412109
 10
27.10001373291016
 20
57.30000305175781
 10
27.80001449584961
 20
57.80000305175781
 10
28.50001525878906
 20
58.30000305175781
 10
29.20001411437988
 20
58.80000305175781
 10
30.10001373291016
 20
59.20000457763672
 10
31.00001335144043
 20
59.60000610351562
 10
31.80001449584961
 20
59.90000152587891
 10
32.60001373291016
 20
60.30000305175781
 10
32.60001373291016
 20
60.30000305175781
 10
32.60001373291016
 20
61.10000228881836
 10
32.60001373291016
 20
61.10000228881836
 10
32.60001373291016
 20
61.30000305175781
 10
32.4000129699707
 20
61.40000152587891
 10
31.9000129699707
 20
61.50000381469727
 10
31.4000129699707
 20
61.60000228881836
 10
30.9000129699707
 20
61.70000457763672
 10
30.30001258850098
 20
61.80000305175781
 10
29.70001220703125
 20
61.90000152587891
 10
29.00001335144043
 20
61.90000152587891
 10
28.4000129699707
 20
61.90000152587891
 10
27.80001258850098
 20
61.90000152587891
 10
27.30001258850098
 20
61.90000152587891
 10
27.10001373291016
 20
61.90000152587891
 10
25.10001373291016
 20
61.90000152587891
 10
23.10001373291016
 20
61.5
 10
21.30001449584961
 20
60.59999847412109
 10
19.50001525878906
 20
59.69999694824219
 10
17.70001411437988
 20
58.90000152587891
 10
15.90001487731934
 20
57.90000152587891
 10
14.10001468658447
 20
56.90000152587891
 10
12.30001449584961
 20
56.0
 10
10.40001487731934
 20
55.20000457763672
 10
8.500015258789062
 20
54.40000152587891
 10
6.500014781951904
 20
53.90000152587891
 10
4.400014877319336
 20
53.90000152587891
 10
3.70001482963562
 20
53.90000152587891
 10
3.100014925003052
 20
54.0
 10
2.600014925003052
 20
54.09999847412109
 10
2.100014925003052
 20
54.19999694824219
 10
1.70001494884491
 20
54.69999694824219
 10
1.400014877319336
 20
55.59999847412109
 10
1.400014877319336
 20
55.90000152587891
 10
1.400014877319336
 20
56.40000152587891
 10
1.400014877319336
 20
57.19999694824219
 10
1.400014877319336
 20
57.99999237060547
 10
1.400014877319336
 20
58.5
 10
1.400014877319336
 20
58.79999542236328
 10
1.400014877319336
 20
60.29999542236328
 10
1.600014925003052
 20
61.59999465942383
 10
2.000014781951904
 20
62.69999694824219
 10
2.400014877319336
 20
63.79999542236328
 10
3.000014781951904
 20
64.89999771118164
 10
3.70001482963562
 20
65.79999542236328
 10
4.400014877319336
 20
66.69999694824219
 10
5.300014972686768
 20
67.69999694824219
 10
6.200015068054199
 20
68.49999618530273
 10
7.100015163421631
 20
69.39999771118164
 10
8.2000150680542
 20
70.29999542236328
 10
9.30001449584961
 20
71.29999542236328
 10
9.30001449584961
 20
71.29999542236328
 10
9.30001449584961
 20
72.09999465942383
 10
9.30001449584961
 20
72.09999465942383
 10
8.199999809265137
 20
73.0
 10
7.099999904632568
 20
74.0
 10
6.099999904632568
 20
75.20000076293945
 10
5.099999904632568
 20
76.4000015258789
 10
4.300000190734863
 20
77.60000228881836
 10
3.5
 20
79.0
 10
2.700000047683716
 20
80.29999923706055
 10
2.099999904632568
 20
81.70000076293945
 10
1.5
 20
83.0999984741211
 10
1.0
 20
84.5
 10
0.5
 20
85.89999771118164
 10
0.1000000238418579
 20
87.0999984741211
 10
0.1000000238418579
 20
87.19999694824219
 10
0.1000000238418579
 20
87.29999923706055
 10
0.1000000238418579
 20
87.5
 10
0.1000000238418579
 20
87.70000076293945
 10
0.1000000238418579
 20
87.79999923706055
 10
0.1000000238418579
 20
87.9000015258789
 10
0.1000000238418579
 20
88.80000305175781
 10
0.4000000357627869
 20
89.30000305175781
 10
1.100000023841858
 20
89.4000015258789
 10
1.799999952316284
 20
89.5
 10
2.400000095367432
 20
89.5
 10
3.199999809265137
 20
89.5
 10
5.5
 20
89.5
 10
7.899999618530273
 20
89.0999984741211
 10
10.19999980926514
 20
88.20000076293945
 10
12.5
 20
87.4000015258789
 10
14.69999980926514
 20
86.5
 10
16.79999923706055
 20
85.5
 10
18.89999961853027
 20
84.5
 10
20.89999961853027
 20
83.5999984741211
 10
22.69999885559082
 20
82.79999923706055
 10
24.59999847412109
 20
82.0
 10
26.29999923706055
 20
81.5
 10
27.79999923706055
 20
81.5
 10
28.5
 20
81.5
 10
29.5
 20
81.79999923706055
 10
30.79999923706055
 20
82.4000015258789
 10
32.20000076293945
 20
83.0
 10
33.5
 20
83.70000076293945
 10
34.89999771118164
 20
84.5
 10
36.29999923706055
 20
85.29999923706055
 10
37.49999618530273
 20
86.0999984741211
 10
38.49999618530273
 20
87.0
 10
39.49999618530273
 20
87.9000015258789
 10
39.99999618530273
 20
88.5
 10
39.99999618530273
 20
89.0
 10
39.99999618530273
 20
89.0
 10
39.99999618530273
 20
89.4000015258789
 10
39.99999618530273
 20
89.4000015258789
 10
39.59999465942383
 20
90.4000015258789
 10
39.19999694824219
 20
91.60000228881836
 10
38.59999465942383
 20
92.80000305175781
 10
37.99999618530273
 20
94.10000228881836
 10
37.69999313354492
 20
95.30000305175781
 10
37.69999313354492
 20
96.40000343322754
 10
37.69999313354492
 20
97.20000267028809
 10
37.89999389648438
 20
97.80000305175781
 10
38.19999313354492
 20
98.40000343322754
 10
38.49999237060547
 20
98.90000343322754
 10
38.89999389648438
 20
99.40000343322754
 10
39.29999160766602
 20
99.90000343322754
 10
39.69999313354492
 20
100.4000034332275
 10
40.09999084472656
 20
100.8000030517578
 10
40.39999008178711
 20
101.3000030517578
 10
40.69998931884766
 20
101.8000030517578
 10
40.89999008178711
 20
102.3000030517578
 10
40.89999008178711
 20
102.9000034332275
 10
40.89999008178711
 20
103.7000026702881
 10
40.69998931884766
 20
104.5000038146973
 10
40.39999008178711
 20
105.2000026702881
 10
40.09999084472656
 20
105.9000034332275
 10
39.89999008178711
 20
106.6000022888184
 10
39.89999008178711
 20
107.5000019073486
 10
39.89999008178711
 20
108.3000011444092
 10
40.19998931884766
 20
108.8000011444092
 10
40.89999008178711
 20
109.2000017166138
 10
41.59999084472656
 20
109.5000019073486
 10
42.29999160766602
 20
109.8000020980835
 10
43.19998931884766
 20
109.9000015258789
 10
44.09999084472656
 20
110.0000019073486
 10
44.89999008178711
 20
110.0000019073486
 10
45.69998931884766
 20
110.0000019073486
 10
46.4999885559082
 20
109.9000015258789
 10
47.09999084472656
 20
109.9000015258789
 10
47.4999885559082
 20
109.9000015258789
 10
50.29998779296875
 20
109.9000015258789
 10
52.79998779296875
 20
109.600001335144
 10
55.19998931884766
 20
109.0000019073486
 10
57.59999084472656
 20
108.4000015258789
 10
59.89999008178711
 20
107.5000019073486
 10
62.09999084472656
 20
106.3000011444092
 10
64.29998779296875
 20
105.2000007629395
 10
66.39999389648438
 20
103.8000011444092
 10
68.39999389648438
 20
102.3000011444092
 10
70.39999389648438
 20
100.8000011444092
 10
72.39999389648438
 20
99.10000038146973
 10
74.29999542236328
 20
97.30000114440918
 10
74.39999389648438
 20
97.20000076293945
 10
74.5999984741211
 20
97.00000190734863
 10
74.89999389648438
 20
96.70000076293945
 10
75.19999694824219
 20
96.4000015258789
 10
75.49999237060547
 20
96.10000038146973
 10
75.79999542236328
 20
95.70000076293945
 10
76.0999984741211
 20
95.4000015258789
 10
76.49999237060547
 20
95.0
 10
76.79999542236328
 20
94.70000076293945
 10
77.0999984741211
 20
94.4000015258789
 10
77.29999542236328
 20
94.20000076293945
 10
77.39999389648438
 20
94.20000076293945
 10
77.59999084472656
 20
94.10000038146973
 10
77.89999389648438
 20
94.0
 10
78.49999237060547
 20
93.80000114440918
 10
79.09999084472656
 20
93.70000076293945
 10
79.79999542236328
 20
93.50000190734863
 10
80.49999237060547
 20
93.4000015258789
 10
81.19998931884766
 20
93.20000076293945
 10
81.89999389648438
 20
93.10000228881836
 10
82.49999237060547
 20
92.9000015258789
 10
83.09999084472656
 20
92.70000076293945
 10
83.49999237060547
 20
92.60000228881836
 10
83.69998931884766
 20
92.60000228881836
 10
85.69998931884766
 20
91.80000305175781
 10
87.59999084472656
 20
90.9000015258789
 10
89.49999237060547
 20
89.9000015258789
 10
91.39999389648438
 20
88.9000015258789
 10
93.09999084472656
 20
87.70000076293945
 10
94.49999237060547
 20
86.4000015258789
 10
95.99999237060547
 20
85.10000228881836
 10
97.09999084472656
 20
83.5
 10
97.99999237060547
 20
81.80000305175781
 10
99.0999984741211
 20
80.0999984741211
 10
99.5
 20
78.0999984741211
 10
99.5
 20
75.79999923706055
 97
        0
 97
        0
 75
     2
 76
     1
 98
        0
  0
SPLINE
  5
47
330
41
100
AcDbEntity
  8
Layer 1
370
     0
100
AcDbSpline
210
0.0
220
0.0
230
1.0
 70
    11
 71
     3
 72
    53
 73
    49
 74
     0
 42
0.0000000001
 43
0.0000000001
 12
1.0
 22
0.0
 32
0.0
 13
1.0
 23
0.0
 33
0.0
 40
0.0
 40
0.0
 40
0.0
 40
0.0
 40
1.0
 40
1.0
 40
1.0
 40
2.0
 40
2.0
 40
2.0
 40
3.0
 40
3.0
 40
3.0
 40
4.0
 40
4.0
 40
4.0
 40
5.0
 40
5.0
 40
5.0
 40
6.0
 40
6.0
 40
6.0
 40
7.0
 40
7.0
 40
7.0
 40
8.0
 40
8.0
 40
8.0
 40
9.0
 40
9.0
 40
9.0
 40
10.0
 40
10.0
 40
10.0
 40
11.0
 40
11.0
 40
11.0
 40
12.0
 40
12.0
 40
12.0
 40
13.0
 40
13.0
 40
13.0
 40
14.0
 40
14.0
 40
14.0
 40
15.0
 40
15.0
 40
15.0
 40
16.0
 40
16.0
 40
16.0
 40
16.0
 10
38.40000152587891
 20
83.20000076293945
 30
0.0
 10
38.30000305175781
 20
83.20000076293945
 30
0.0
 10
38.30000305175781
 20
83.20000076293945
 30
0.0
 10
38.20000076293945
 20
83.20000076293945
 30
0.0
 10
38.10000228881836
 20
83.20000076293945
 30
0.0
 10
38.10000228881836
 20
83.20000076293945
 30
0.0
 10
38.0
 20
83.20000076293945
 30
0.0
 10
37.70000076293945
 20
83.20000076293945
 30
0.0
 10
37.29999923706055
 20
83.0
 30
0.0
 10
36.70000076293945
 20
82.70000076293945
 30
0.0
 10
36.10000228881836
 20
82.4000015258789
 30
0.0
 10
35.60000228881836
 20
82.0
 30
0.0
 10
35.0
 20
81.5
 30
0.0
 10
34.40000152587891
 20
81.0
 30
0.0
 10
33.90000152587891
 20
80.5
 30
0.0
 10
33.5
 20
80.0
 30
0.0
 10
33.09999847412109
 20
79.5
 30
0.0
 10
32.90000152587891
 20
79.0
 30
0.0
 10
32.90000152587891
 20
78.5999984741211
 30
0.0
 10
32.90000152587891
 20
78.5999984741211
 30
0.0
 10
32.90000152587891
 20
77.69999694824219
 30
0.0
 10
32.90000152587891
 20
77.69999694824219
 30
0.0
 10
32.90000152587891
 20
77.69999694824219
 30
0.0
 10
34.5
 20
65.19999694824219
 30
0.0
 10
34.5
 20
65.19999694824219
 30
0.0
 10
34.70000076293945
 20
64.69999694824219
 30
0.0
 10
35.0
 20
64.39999771118164
 30
0.0
 10
35.40000152587891
 20
64.0999984741211
 30
0.0
 10
35.90000152587891
 20
63.89999771118164
 30
0.0
 10
36.40000152587891
 20
63.69999694824219
 30
0.0
 10
37.0
 20
63.59999847412109
 30
0.0
 10
37.59999847412109
 20
63.5
 30
0.0
 10
38.20000076293945
 20
63.39999771118164
 30
0.0
 10
38.70000076293945
 20
63.39999771118164
 30
0.0
 10
39.29999923706055
 20
63.39999771118164
 30
0.0
 10
39.79999923706055
 20
63.39999771118164
 30
0.0
 10
40.20000076293945
 20
63.39999771118164
 30
0.0
 10
40.20000076293945
 20
64.89999771118164
 30
0.0
 10
40.10000228881836
 20
66.49999618530273
 30
0.0
 10
40.0
 20
68.29999923706055
 30
0.0
 10
39.90000152587891
 20
70.0
 30
0.0
 10
39.79999923706055
 20
71.79999923706055
 30
0.0
 10
39.59999847412109
 20
73.5
 30
0.0
 10
39.39999771118164
 20
75.20000076293945
 30
0.0
 10
39.19999694824219
 20
76.9000015258789
 30
0.0
 10
39.0
 20
78.5999984741211
 30
0.0
 10
38.79999923706055
 20
80.4000015258789
 30
0.0
 10
38.59999847412109
 20
81.9000015258789
 30
0.0
 10
38.40000152587891
 20
83.20000076293945
 30
0.0
  0
HATCH
  5
48
330
41
100
AcDbEntity
  8
Layer 1
 62
     7
420
 16777215
100
AcDbHatch
 10
0.0
 20
0.0
 30
0.0
210
0.0
220
0.0
230
1.0
  2
SOLID
 70
     1
 71
     0
 91
        1
 92
        1
 93
        1
 72
     4
 94
        3
 73
     0
 74
     1
 95
       53
 96
       49
 40
0.0
 40
0.0
 40
0.0
 40
0.0
 40
1.0
 40
1.0
 40
1.0
 40
2.0
 40
2.0
 40
2.0
 40
3.0
 40
3.0
 40
3.0
 40
4.0
 40
4.0
 40
4.0
 40
5.0
 40
5.0
 40
5.0
 40
6.0
 40
6.0
 40
6.0
 40
7.0
 40
7.0
 40
7.0
 40
8.0
 40
8.0
 40
8.0
 40
9.0
 40
9.0
 40
9.0
 40
10.0
 40
10.0
 40
10.0
 40
11.0
 40
11.0
 40
11.0
 40
12.0
 40
12.0
 40
12.0
 40
13.0
 40
13.0
 40
13.0
 40
14.0
 40
14.0
 40
14.0
 40
15.0
 40
15.0
 40
15.0
 40
16.0
 40
16.0
 40
16.0
 40
16.0
 10
38.40000152587891
 20
83.20000076293945
 10
38.30000305175781
 20
83.20000076293945
 10
38.30000305175781
 20
83.20000076293945
 10
38.20000076293945
 20
83.20000076293945
 10
38.10000228881836
 20
83.20000076293945
 10
38.10000228881836
 20
83.20000076293945
 10
38.0
 20
83.20000076293945
 10
37.70000076293945
 20
83.20000076293945
 10
37.29999923706055
 20
83.0
 10
36.70000076293945
 20
82.70000076293945
 10
36.10000228881836
 20
82.4000015258789
 10
35.60000228881836
 20
82.0
 10
35.0
 20
81.5
 10
34.40000152587891
 20
81.0
 10
33.90000152587891
 20
80.5
 10
33.5
 20
80.0
 10
33.09999847412109
 20
79.5
 10
32.90000152587891
 20
79.0
 10
32.90000152587891
 20
78.5999984741211
 10
32.90000152587891
 20
78.5999984741211
 10
32.90000152587891
 20
77.69999694824219
 10
32.90000152587891
 20
77.69999694824219
 10
32.90000152587891
 20
77.69999694824219
 10
34.5
 20
65.19999694824219
 10
34.5
 20
65.19999694824219
 10
34.70000076293945
 20
64.69999694824219
 10
35.0
 20
64.39999771118164
 10
35.40000152587891
 20
64.0999984741211
 10
35.90000152587891
 20
63.89999771118164
 10
36.40000152587891
 20
63.69999694824219
 10
37.0
 20
63.59999847412109
 10
37.59999847412109
 20
63.5
 10
38.20000076293945
 20
63.39999771118164
 10
38.70000076293945
 20
63.39999771118164
 10
39.29999923706055
 20
63.39999771118164
 10
39.79999923706055
 20
63.39999771118164
 10
40.20000076293945
 20
63.39999771118164
 10
40.20000076293945
 20
64.89999771118164
 10
40.10000228881836
 20
66.49999618530273
 10
40.0
 20
68.29999923706055
 10
39.90000152587891
 20
70.0
 10
39.79999923706055
 20
71.79999923706055
 10
39.59999847412109
 20
73.5
 10
39.39999771118164
 20
75.20000076293945
 10
39.19999694824219
 20
76.9000015258789
 10
39.0
 20
78.5999984741211
 10
38.79999923706055
 20
80.4000015258789
 10
38.59999847412109
 20
81.9000015258789
 10
38.40000152587891
 20
83.20000076293945
 97
        0
 97
        0
 75
     2
 76
     1
 98
        0
  0
SPLINE
  5
49
330
41
100
AcDbEntity
  8
Layer 1
370
     0
100
AcDbSpline
210
0.0
220
0.0
230
1.0
 70
    11
 71
     3
 72
    56
 73
    52
 74
     0
 42
0.0000000001
 43
0.0000000001
 12
1.0
 22
0.0
 32
0.0
 13
1.0
 23
0.0
 33
0.0
 40
0.0
 40
0.0
 40
0.0
 40
0.0
 40
1.0
 40
1.0
 40
1.0
 40
2.0
 40
2.0
 40
2.0
 40
3.0
 40
3.0
 40
3.0
 40
4.0
 40
4.0
 40
4.0
 40
5.0
 40
5.0
 40
5.0
 40
6.0
 40
6.0
 40
6.0
 40
7.0
 40
7.0
 40
7.0
 40
8.0
 40
8.0
 40
8.0
 40
9.0
 40
9.0
 40
9.0
 40
10.0
 40
10.0
 40
10.0
 40
11.0
 40
11.0
 40
11.0
 40
12.0
 40
12.0
 40
12.0
 40
13.0
 40
13.0
 40
13.0
 40
14.0
 40
14.0
 40
14.0
 40
15.0
 40
15.0
 40
15.0
 40
16.0
 40
16.0
 40
16.0
 40
17.0
 40
17.0
 40
17.0
 40
17.0
 10
49.40000152587891
 20
87.9000015258789
 30
0.0
 10
49.30000305175781
 20
87.9000015258789
 30
0.0
 10
49.20000076293945
 20
87.9000015258789
 30
0.0
 10
49.0
 20
87.9000015258789
 30
0.0
 10
48.79999923706055
 20
87.9000015258789
 30
0.0
 10
48.70000076293945
 20
87.9000015258789
 30
0.0
 10
48.59999847412109
 20
87.9000015258789
 30
0.0
 10
47.19999694824219
 20
87.9000015258789
 30
0.0
 10
46.09999847412109
 20
87.5
 30
0.0
 10
45.09999847412109
 20
86.60000228881836
 30
0.0
 10
44.09999847412109
 20
85.80000305175781
 30
0.0
 10
43.69999694824219
 20
84.60000228881836
 30
0.0
 10
43.89999771118164
 20
83.10000228881836
 30
0.0
 10
43.89999771118164
 20
83.10000228881836
 30
0.0
 10
47.0
 20
61.29999923706055
 30
0.0
 10
47.0
 20
61.29999923706055
 30
0.0
 10
47.0
 20
61.20000076293945
 30
0.0
 10
47.20000076293945
 20
61.09999847412109
 30
0.0
 10
47.59999847412109
 20
60.90000152587891
 30
0.0
 10
48.0
 20
60.70000457763672
 30
0.0
 10
48.29999923706055
 20
60.59999847412109
 30
0.0
 10
48.59999847412109
 20
60.5
 30
0.0
 10
48.89999771118164
 20
60.40000152587891
 30
0.0
 10
49.39999771118164
 20
60.40000152587891
 30
0.0
 10
50.29999923706055
 20
60.30000305175781
 30
0.0
 10
51.20000076293945
 20
60.20000457763672
 30
0.0
 10
51.70000076293945
 20
60.20000457763672
 30
0.0
 10
52.0
 20
60.20000457763672
 30
0.0
 10
52.0
 20
60.40000152587891
 30
0.0
 10
52.0
 20
60.80000305175781
 30
0.0
 10
52.0
 20
61.30000305175781
 30
0.0
 10
52.0
 20
61.80000305175781
 30
0.0
 10
51.90000152587891
 20
62.40000152587891
 30
0.0
 10
51.90000152587891
 20
63.00000381469727
 30
0.0
 10
51.90000152587891
 20
63.60000228881836
 30
0.0
 10
51.80000305175781
 20
64.20000457763672
 30
0.0
 10
51.80000305175781
 20
64.70000457763672
 30
0.0
 10
51.80000305175781
 20
65.20000457763672
 30
0.0
 10
51.80000305175781
 20
65.60000610351562
 30
0.0
 10
51.80000305175781
 20
65.80000305175781
 30
0.0
 10
51.70000457763672
 20
66.60000228881836
 30
0.0
 10
51.60000228881836
 20
68.10000228881836
 30
0.0
 10
51.40000152587891
 20
70.10000228881836
 30
0.0
 10
51.20000076293945
 20
72.20000076293945
 30
0.0
 10
50.90000152587891
 20
74.4000015258789
 30
0.0
 10
50.70000076293945
 20
76.70000076293945
 30
0.0
 10
50.5
 20
79.0
 30
0.0
 10
50.20000076293945
 20
81.20000076293945
 30
0.0
 10
50.0
 20
83.29999923706055
 30
0.0
 10
49.59999847412109
 20
85.5999984741211
 30
0.0
 10
49.5
 20
87.0999984741211
 30
0.0
 10
49.40000152587891
 20
87.9000015258789
 30
0.0
  0
HATCH
  5
4A
330
41
100
AcDbEntity
  8
Layer 1
 62
     7
420
 16777215
100
AcDbHatch
 10
0.0
 20
0.0
 30
0.0
210
0.0
220
0.0
230
1.0
  2
SOLID
 70
     1
 71
     0
 91
        1
 92
        1
 93
        1
 72
     4
 94
        3
 73
     0
 74
     1
 95
       56
 96
       52
 40
0.0
 40
0.0
 40
0.0
 40
0.0
 40
1.0
 40
1.0
 40
1.0
 40
2.0
 40
2.0
 40
2.0
 40
3.0
 40
3.0
 40
3.0
 40
4.0
 40
4.0
 40
4.0
 40
5.0
 40
5.0
 40
5.0
 40
6.0
 40
6.0
 40
6.0
 40
7.0
 40
7.0
 40
7.0
 40
8.0
 40
8.0
 40
8.0
 40
9.0
 40
9.0
 40
9.0
 40
10.0
 40
10.0
 40
10.0
 40
11.0
 40
11.0
 40
11.0
 40
12.0
 40
12.0
 40
12.0
 40
13.0
 40
13.0
 40
13.0
 40
14.0
 40
14.0
 40
14.0
 40
15.0
 40
15.0
 40
15.0
 40
16.0
 40
16.0
 40
16.0
 40
17.0
 40
17.0
 40
17.0
 40
17.0
 10
49.40000152587891
 20
87.9000015258789
 10
49.30000305175781
 20
87.9000015258789
 10
49.20000076293945
 20
87.9000015258789
 10
49.0
 20
87.9000015258789
 10
48.79999923706055
 20
87.9000015258789
 10
48.70000076293945
 20
87.9000015258789
 10
48.59999847412109
 20
87.9000015258789
 10
47.19999694824219
 20
87.9000015258789
 10
46.09999847412109
 20
87.5
 10
45.09999847412109
 20
86.60000228881836
 10
44.09999847412109
 20
85.80000305175781
 10
43.69999694824219
 20
84.60000228881836
 10
43.89999771118164
 20
83.10000228881836
 10
43.89999771118164
 20
83.10000228881836
 10
47.0
 20
61.29999923706055
 10
47.0
 20
61.29999923706055
 10
47.0
 20
61.20000076293945
 10
47.20000076293945
 20
61.09999847412109
 10
47.59999847412109
 20
60.90000152587891
 10
48.0
 20
60.70000457763672
 10
48.29999923706055
 20
60.59999847412109
 10
48.59999847412109
 20
60.5
 10
48.89999771118164
 20
60.40000152587891
 10
49.39999771118164
 20
60.40000152587891
 10
50.29999923706055
 20
60.30000305175781
 10
51.20000076293945
 20
60.20000457763672
 10
51.70000076293945
 20
60.20000457763672
 10
52.0
 20
60.20000457763672
 10
52.0
 20
60.40000152587891
 10
52.0
 20
60.80000305175781
 10
52.0
 20
61.30000305175781
 10
52.0
 20
61.80000305175781
 10
51.90000152587891
 20
62.40000152587891
 10
51.90000152587891
 20
63.00000381469727
 10
51.90000152587891
 20
63.60000228881836
 10
51.80000305175781
 20
64.20000457763672
 10
51.80000305175781
 20
64.70000457763672
 10
51.80000305175781
 20
65.20000457763672
 10
51.80000305175781
 20
65.60000610351562
 10
51.80000305175781
 20
65.80000305175781
 10
51.70000457763672
 20
66.60000228881836
 10
51.60000228881836
 20
68.10000228881836
 10
51.40000152587891
 20
70.10000228881836
 10
51.20000076293945
 20
72.20000076293945
 10
50.90000152587891
 20
74.4000015258789
 10
50.70000076293945
 20
76.70000076293945
 10
50.5
 20
79.0
 10
50.20000076293945
 20
81.20000076293945
 10
50.0
 20
83.29999923706055
 10
49.59999847412109
 20
85.5999984741211
 10
49.5
 20
87.0999984741211
 10
49.40000152587891
 20
87.9000015258789
 97
        0
 97
        0
 75
     2
 76
     1
 98
        0
  0
SPLINE
  5
4B
330
41
100
AcDbEntity
  8
Layer 1
370
     0
100
AcDbSpline
210
0.0
220
0.0
230
1.0
 70
    11
 71
     3
 72
    89
 73
    85
 74
     0
 42
0.0000000001
 43
0.0000000001
 12
1.0
 22
0.0
 32
0.0
 13
1.0
 23
0.0
 33
0.0
 40
0.0
 40
0.0
 40
0.0
 40
0.0
 40
1.0
 40
1.0
 40
1.0
 40
2.0
 40
2.0
 40
2.0
 40
3.0
 40
3.0
 40
3.0
 40
4.0
 40
4.0
 40
4.0
 40
5.0
 40
5.0
 40
5.0
 40
6.0
 40
6.0
 40
6.0
 40
7.0
 40
7.0
 40
7.0
 40
8.0
 40
8.0
 40
8.0
 40
9.0
 40
9.0
 40
9.0
 40
10.0
 40
10.0
 40
10.0
 40
11.0
 40
11.0
 40
11.0
 40
12.0
 40
12.0
 40
12.0
 40
13.0
 40
13.0
 40
13.0
 40
14.0
 40
14.0
 40
14.0
 40
15.0
 40
15.0
 40
15.0
 40
16.0
 40
16.0
 40
16.0
 40
17.0
 40
17.0
 40
17.0
 40
18.0
 40
18.0
 40
18.0
 40
19.0
 40
19.0
 40
19.0
 40
20.0
 40
20.0
 40
20.0
 40
21.0
 40
21.0
 40
21.0
 40
22.0
 40
22.0
 40
22.0
 40
23.0
 40
23.0
 40
23.0
 40
24.0
 40
24.0
 40
24.0
 40
25.0
 40
25.0
 40
25.0
 40
26.0
 40
26.0
 40
26.0
 40
27.0
 40
27.0
 40
27.0
 40
28.0
 40
28.0
 40
28.0
 40
28.0
 10
60.29999923706055
 20
90.29999923706055
 30
0.0
 10
60.09999847412109
 20
90.70000076293945
 30
0.0
 10
59.89999771118164
 20
91.0
 30
0.0
 10
59.70000076293945
 20
91.0
 30
0.0
 10
59.40000152587891
 20
91.0999984741211
 30
0.0
 10
59.10000228881836
 20
91.0999984741211
 30
0.0
 10
58.79999923706055
 20
91.0999984741211
 30
0.0
 10
58.29999923706055
 20
91.0999984741211
 30
0.0
 10
57.89999771118164
 20
91.0
 30
0.0
 10
57.59999847412109
 20
90.89999771118164
 30
0.0
 10
57.29999923706055
 20
90.79999923706055
 30
0.0
 10
56.89999771118164
 20
90.5999984741211
 30
0.0
 10
56.5
 20
90.19999694824219
 30
0.0
 10
56.5
 20
90.19999694824219
 30
0.0
 10
56.5
 20
88.19999694824219
 30
0.0
 10
56.5
 20
88.19999694824219
 30
0.0
 10
56.5
 20
88.19999694824219
 30
0.0
 10
56.5
 20
86.19999694824219
 30
0.0
 10
56.5
 20
86.19999694824219
 30
0.0
 10
56.59999847412109
 20
85.49999618530273
 30
0.0
 10
56.59999847412109
 20
84.49999618530273
 30
0.0
 10
56.79999923706055
 20
83.19999694824219
 30
0.0
 10
57.0
 20
81.89999771118164
 30
0.0
 10
57.09999847412109
 20
80.39999771118164
 30
0.0
 10
57.20000076293945
 20
78.69999694824219
 30
0.0
 10
57.29999923706055
 20
76.99999618530273
 30
0.0
 10
57.5
 20
75.19999694824219
 30
0.0
 10
57.70000076293945
 20
73.29999542236328
 30
0.0
 10
57.90000152587891
 20
71.39999389648438
 30
0.0
 10
58.10000228881836
 20
69.59999465942383
 30
0.0
 10
58.20000076293945
 20
67.89999389648438
 30
0.0
 10
58.40000152587891
 20
66.19999313354492
 30
0.0
 10
58.5
 20
64.69999313354492
 30
0.0
 10
58.60000228881836
 20
63.29999542236328
 30
0.0
 10
58.70000457763672
 20
61.89999771118164
 30
0.0
 10
58.80000305175781
 20
60.99999237060547
 30
0.0
 10
58.90000152587891
 20
60.29999542236328
 30
0.0
 10
58.90000152587891
 20
60.19999694824219
 30
0.0
 10
59.0
 20
59.99999237060547
 30
0.0
 10
59.20000076293945
 20
59.79999542236328
 30
0.0
 10
59.40000152587891
 20
59.59999847412109
 30
0.0
 10
59.60000228881836
 20
59.49999237060547
 30
0.0
 10
59.70000076293945
 20
59.49999237060547
 30
0.0
 10
59.90000152587891
 20
59.49999237060547
 30
0.0
 10
60.10000228881836
 20
59.49999237060547
 30
0.0
 10
60.5
 20
59.39999389648438
 30
0.0
 10
60.90000152587891
 20
59.29999542236328
 30
0.0
 10
61.29999923706055
 20
59.29999542236328
 30
0.0
 10
61.79999923706055
 20
59.29999542236328
 30
0.0
 10
62.20000076293945
 20
59.29999542236328
 30
0.0
 10
62.70000076293945
 20
59.19999694824219
 30
0.0
 10
63.09999847412109
 20
59.19999694824219
 30
0.0
 10
63.49999618530273
 20
59.19999694824219
 30
0.0
 10
63.79999923706055
 20
59.19999694824219
 30
0.0
 10
63.89999771118164
 20
59.19999694824219
 30
0.0
 10
63.89999771118164
 20
59.39999389648438
 30
0.0
 10
63.89999771118164
 20
59.59999847412109
 30
0.0
 10
63.89999771118164
 20
60.0
 30
0.0
 10
63.89999771118164
 20
60.40000152587891
 30
0.0
 10
63.79999923706055
 20
60.80000305175781
 30
0.0
 10
63.79999923706055
 20
61.29999923706055
 30
0.0
 10
63.79999923706055
 20
61.79999923706055
 30
0.0
 10
63.70000076293945
 20
62.20000076293945
 30
0.0
 10
63.70000076293945
 20
62.59999847412109
 30
0.0
 10
63.70000076293945
 20
63.0
 30
0.0
 10
63.70000076293945
 20
63.29999923706055
 30
0.0
 10
63.70000076293945
 20
63.39999771118164
 30
0.0
 10
63.60000228881836
 20
64.0999984741211
 30
0.0
 10
63.5
 20
65.0999984741211
 30
0.0
 10
63.40000152587891
 20
66.49999618530273
 30
0.0
 10
63.20000076293945
 20
67.89999771118164
 30
0.0
 10
63.10000228881836
 20
69.39999771118164
 30
0.0
 10
62.90000152587891
 20
71.19999694824219
 30
0.0
 10
62.70000076293945
 20
72.89999771118164
 30
0.0
 10
62.5
 20
74.79999542236328
 30
0.0
 10
62.20000076293945
 20
76.69999694824219
 30
0.0
 10
62.0
 20
78.5999984741211
 30
0.0
 10
61.70000076293945
 20
80.49999618530273
 30
0.0
 10
61.5
 20
82.19999694824219
 30
0.0
 10
61.29999923706055
 20
83.89999771118164
 30
0.0
 10
61.09999847412109
 20
85.49999618530273
 30
0.0
 10
61.0
 20
86.89999771118164
 30
0.0
 10
60.59999847412109
 20
88.5
 30
0.0
 10
60.40000152587891
 20
89.5999984741211
 30
0.0
 10
60.29999923706055
 20
90.29999923706055
 30
0.0
  0
HATCH
  5
4C
330
41
100
AcDbEntity
  8
Layer 1
 62
     7
420
 16777215
100
AcDbHatch
 10
0.0
 20
0.0
 30
0.0
210
0.0
220
0.0
230
1.0
  2
SOLID
 70
     1
 71
     0
 91
        1
 92
        1
 93
        1
 72
     4
 94
        3
 73
     0
 74
     1
 95
       89
 96
       85
 40
0.0
 40
0.0
 40
0.0
 40
0.0
 40
1.0
 40
1.0
 40
1.0
 40
2.0
 40
2.0
 40
2.0
 40
3.0
 40
3.0
 40
3.0
 40
4.0
 40
4.0
 40
4.0
 40
5.0
 40
5.0
 40
5.0
 40
6.0
 40
6.0
 40
6.0
 40
7.0
 40
7.0
 40
7.0
 40
8.0
 40
8.0
 40
8.0
 40
9.0
 40
9.0
 40
9.0
 40
10.0
 40
10.0
 40
10.0
 40
11.0
 40
11.0
 40
11.0
 40
12.0
 40
12.0
 40
12.0
 40
13.0
 40
13.0
 40
13.0
 40
14.0
 40
14.0
 40
14.0
 40
15.0
 40
15.0
 40
15.0
 40
16.0
 40
16.0
 40
16.0
 40
17.0
 40
17.0
 40
17.0
 40
18.0
 40
18.0
 40
18.0
 40
19.0
 40
19.0
 40
19.0
 40
20.0
 40
20.0
 40
20.0
 40
21.0
 40
21.0
 40
21.0
 40
22.0
 40
22.0
 40
22.0
 40
23.0
 40
23.0
 40
23.0
 40
24.0
 40
24.0
 40
24.0
 40
25.0
 40
25.0
 40
25.0
 40
26.0
 40
26.0
 40
26.0
 40
27.0
 40
27.0
 40
27.0
 40
28.0
 40
28.0
 40
28.0
 40
28.0
 10
60.29999923706055
 20
90.29999923706055
 10
60.09999847412109
 20
90.70000076293945
 10
59.89999771118164
 20
91.0
 10
59.70000076293945
 20
91.0
 10
59.40000152587891
 20
91.0999984741211
 10
59.10000228881836
 20
91.0999984741211
 10
58.79999923706055
 20
91.0999984741211
 10
58.29999923706055
 20
91.0999984741211
 10
57.89999771118164
 20
91.0
 10
57.59999847412109
 20
90.89999771118164
 10
57.29999923706055
 20
90.79999923706055
 10
56.89999771118164
 20
90.5999984741211
 10
56.5
 20
90.19999694824219
 10
56.5
 20
90.19999694824219
 10
56.5
 20
88.19999694824219
 10
56.5
 20
88.19999694824219
 10
56.5
 20
88.19999694824219
 10
56.5
 20
86.19999694824219
 10
56.5
 20
86.19999694824219
 10
56.59999847412109
 20
85.49999618530273
 10
56.59999847412109
 20
84.49999618530273
 10
56.79999923706055
 20
83.19999694824219
 10
57.0
 20
81.89999771118164
 10
57.09999847412109
 20
80.39999771118164
 10
57.20000076293945
 20
78.69999694824219
 10
57.29999923706055
 20
76.99999618530273
 10
57.5
 20
75.19999694824219
 10
57.70000076293945
 20
73.29999542236328
 10
57.90000152587891
 20
71.39999389648438
 10
58.10000228881836
 20
69.59999465942383
 10
58.20000076293945
 20
67.89999389648438
 10
58.40000152587891
 20
66.19999313354492
 10
58.5
 20
64.69999313354492
 10
58.60000228881836
 20
63.29999542236328
 10
58.70000457763672
 20
61.89999771118164
 10
58.80000305175781
 20
60.99999237060547
 10
58.90000152587891
 20
60.29999542236328
 10
58.90000152587891
 20
60.19999694824219
 10
59.0
 20
59.99999237060547
 10
59.20000076293945
 20
59.79999542236328
 10
59.40000152587891
 20
59.59999847412109
 10
59.60000228881836
 20
59.49999237060547
 10
59.70000076293945
 20
59.49999237060547
 10
59.90000152587891
 20
59.49999237060547
 10
60.10000228881836
 20
59.49999237060547
 10
60.5
 20
59.39999389648438
 10
60.90000152587891
 20
59.29999542236328
 10
61.29999923706055
 20
59.29999542236328
 10
61.79999923706055
 20
59.29999542236328
 10
62.20000076293945
 20
59.29999542236328
 10
62.70000076293945
 20
59.19999694824219
 10
63.09999847412109
 20
59.19999694824219
 10
63.49999618530273
 20
59.19999694824219
 10
63.79999923706055
 20
59.19999694824219
 10
63.89999771118164
 20
59.19999694824219
 10
63.89999771118164
 20
59.39999389648438
 10
63.89999771118164
 20
59.59999847412109
 10
63.89999771118164
 20
60.0
 10
63.89999771118164
 20
60.40000152587891
 10
63.79999923706055
 20
60.80000305175781
 10
63.79999923706055
 20
61.29999923706055
 10
63.79999923706055
 20
61.79999923706055
 10
63.70000076293945
 20
62.20000076293945
 10
63.70000076293945
 20
62.59999847412109
 10
63.70000076293945
 20
63.0
 10
63.70000076293945
 20
63.29999923706055
 10
63.70000076293945
 20
63.39999771118164
 10
63.60000228881836
 20
64.0999984741211
 10
63.5
 20
65.0999984741211
 10
63.40000152587891
 20
66.49999618530273
 10
63.20000076293945
 20
67.89999771118164
 10
63.10000228881836
 20
69.39999771118164
 10
62.90000152587891
 20
71.19999694824219
 10
62.70000076293945
 20
72.89999771118164
 10
62.5
 20
74.79999542236328
 10
62.20000076293945
 20
76.69999694824219
 10
62.0
 20
78.5999984741211
 10
61.70000076293945
 20
80.49999618530273
 10
61.5
 20
82.19999694824219
 10
61.29999923706055
 20
83.89999771118164
 10
61.09999847412109
 20
85.49999618530273
 10
61.0
 20
86.89999771118164
 10
60.59999847412109
 20
88.5
 10
60.40000152587891
 20
89.5999984741211
 10
60.29999923706055
 20
90.29999923706055
 97
        0
 97
        0
 75
     2
 76
     1
 98
        0
  0
SPLINE
  5
4D
330
41
100
AcDbEntity
  8
Layer 1
370
     0
100
AcDbSpline
210
0.0
220
0.0
230
1.0
 70
    11
 71
     3
 72
   122
 73
   118
 74
     0
 42
0.0000000001
 43
0.0000000001
 12
1.0
 22
0.0
 32
0.0
 13
1.0
 23
0.0
 33
0.0
 40
0.0
 40
0.0
 40
0.0
 40
0.0
 40
1.0
 40
1.0
 40
1.0
 40
2.0
 40
2.0
 40
2.0
 40
3.0
 40
3.0
 40
3.0
 40
4.0
 40
4.0
 40
4.0
 40
5.0
 40
5.0
 40
5.0
 40
6.0
 40
6.0
 40
6.0
 40
7.0
 40
7.0
 40
7.0
 40
8.0
 40
8.0
 40
8.0
 40
9.0
 40
9.0
 40
9.0
 40
10.0
 40
10.0
 40
10.0
 40
11.0
 40
11.0
 40
11.0
 40
12.0
 40
12.0
 40
12.0
 40
13.0
 40
13.0
 40
13.0
 40
14.0
 40
14.0
 40
14.0
 40
15.0
 40
15.0
 40
15.0
 40
16.0
 40
16.0
 40
16.0
 40
17.0
 40
17.0
 40
17.0
 40
18.0
 40
18.0
 40
18.0
 40
19.0
 40
19.0
 40
19.0
 40
20.0
 40
20.0
 40
20.0
 40
21.0
 40
21.0
 40
21.0
 40
22.0
 40
22.0
 40
22.0
 40
23.0
 40
23.0
 40
23.0
 40
24.0
 40
24.0
 40
24.0
 40
25.0
 40
25.0
 40
25.0
 40
26.0
 40
26.0
 40
26.0
 40
27.0
 40
27.0
 40
27.0
 40
28.0
 40
28.0
 40
28.0
 40
29.0
 40
29.0
 40
29.0
 40
30.0
 40
30.0
 40
30.0
 40
31.0
 40
31.0
 40
31.0
 40
32.0
 40
32.0
 40
32.0
 40
33.0
 40
33.0
 40
33.0
 40
34.0
 40
34.0
 40
34.0
 40
35.0
 40
35.0
 40
35.0
 40
36.0
 40
36.0
 40
36.0
 40
37.0
 40
37.0
 40
37.0
 40
38.0
 40
38.0
 40
38.0
 40
39.0
 40
39.0
 40
39.0
 40
39.0
 10
76.0
 20
60.5
 30
0.0
 10
76.0
 20
60.69999694824219
 30
0.0
 10
76.0
 20
60.90000152587891
 30
0.0
 10
76.0
 20
61.20000076293945
 30
0.0
 10
76.0
 20
61.5
 30
0.0
 10
76.0
 20
61.90000152587891
 30
0.0
 10
76.0
 20
62.29999923706055
 30
0.0
 10
76.0
 20
62.70000076293945
 30
0.0
 10
76.0
 20
63.0
 30
0.0
 10
76.0
 20
63.39999771118164
 30
0.0
 10
76.0
 20
63.69999694824219
 30
0.0
 10
76.0
 20
63.89999771118164
 30
0.0
 10
76.0
 20
64.0999984741211
 30
0.0
 10
76.0
 20
65.69999694824219
 30
0.0
 10
75.80000305175781
 20
67.29999923706055
 30
0.0
 10
75.5
 20
68.79999923706055
 30
0.0
 10
75.19999694824219
 20
70.29999923706055
 30
0.0
 10
75.0
 20
71.89999771118164
 30
0.0
 10
75.0
 20
73.5
 30
0.0
 10
75.0
 20
74.5
 30
0.0
 10
75.19999694824219
 20
75.0999984741211
 30
0.0
 10
75.69999694824219
 20
75.20000076293945
 30
0.0
 10
76.19999694824219
 20
75.4000015258789
 30
0.0
 10
76.89999389648438
 20
75.4000015258789
 30
0.0
 10
77.79999542236328
 20
75.4000015258789
 30
0.0
 10
78.79999542236328
 20
75.4000015258789
 30
0.0
 10
79.5999984741211
 20
75.20000076293945
 30
0.0
 10
80.29999542236328
 20
74.9000015258789
 30
0.0
 10
80.99999237060547
 20
74.60000228881836
 30
0.0
 10
81.89999389648438
 20
74.4000015258789
 30
0.0
 10
82.79999542236328
 20
74.4000015258789
 30
0.0
 10
84.19999694824219
 20
74.4000015258789
 30
0.0
 10
85.29999542236328
 20
74.80000305175781
 30
0.0
 10
86.19999694824219
 20
75.5
 30
0.0
 10
87.0999984741211
 20
76.29999923706055
 30
0.0
 10
87.5999984741211
 20
77.4000015258789
 30
0.0
 10
87.5999984741211
 20
78.79999923706055
 30
0.0
 10
87.5999984741211
 20
80.20000076293945
 30
0.0
 10
87.0999984741211
 20
81.29999923706055
 30
0.0
 10
86.19999694824219
 20
82.0
 30
0.0
 10
85.29999542236328
 20
82.70000076293945
 30
0.0
 10
84.0999984741211
 20
83.0999984741211
 30
0.0
 10
82.79999542236328
 20
83.0999984741211
 30
0.0
 10
82.0999984741211
 20
83.0999984741211
 30
0.0
 10
81.49999237060547
 20
83.0
 30
0.0
 10
80.99999237060547
 20
82.69999694824219
 30
0.0
 10
80.49999237060547
 20
82.39999771118164
 30
0.0
 10
79.89999389648438
 20
82.19999694824219
 30
0.0
 10
79.39999389648438
 20
81.79999542236328
 30
0.0
 10
78.89999389648438
 20
81.49999618530273
 30
0.0
 10
78.39999389648438
 20
81.19999694824219
 30
0.0
 10
77.89999389648438
 20
80.89999389648438
 30
0.0
 10
77.39999389648438
 20
80.59999084472656
 30
0.0
 10
76.79999542236328
 20
80.49999237060547
 30
0.0
 10
76.19999694824219
 20
80.49999237060547
 30
0.0
 10
75.89999389648438
 20
80.49999237060547
 30
0.0
 10
75.5
 20
80.49999237060547
 30
0.0
 10
75.0999984741211
 20
80.49999237060547
 30
0.0
 10
74.69999694824219
 20
80.49999237060547
 30
0.0
 10
74.4000015258789
 20
80.79999160766602
 30
0.0
 10
74.29999542236328
 20
81.29999160766602
 30
0.0
 10
74.29999542236328
 20
81.59999084472656
 30
0.0
 10
74.29999542236328
 20
82.19999313354492
 30
0.0
 10
74.19999694824219
 20
82.99999237060547
 30
0.0
 10
74.0999984741211
 20
83.79999160766602
 30
0.0
 10
74.0999984741211
 20
84.69999313354492
 30
0.0
 10
74.0
 20
85.59999084472656
 30
0.0
 10
73.9000015258789
 20
86.49999237060547
 30
0.0
 10
73.80000305175781
 20
87.39999008178711
 30
0.0
 10
73.69999694824219
 20
88.19998931884766
 30
0.0
 10
73.5999984741211
 20
88.9999885559082
 30
0.0
 10
73.5
 20
89.59999084472656
 30
0.0
 10
73.5
 20
89.89999008178711
 30
0.0
 10
73.4000015258789
 20
90.19998931884766
 30
0.0
 10
73.30000305175781
 20
90.4999885559082
 30
0.0
 10
73.0999984741211
 20
90.89999008178711
 30
0.0
 10
72.9000015258789
 20
91.29999160766602
 30
0.0
 10
72.79999542236328
 20
91.4999885559082
 30
0.0
 10
72.69999694824219
 20
91.4999885559082
 30
0.0
 10
72.69999694824219
 20
91.4999885559082
 30
0.0
 10
68.5
 20
91.4999885559082
 30
0.0
 10
68.5
 20
91.4999885559082
 30
0.0
 10
68.5
 20
91.19998931884766
 30
0.0
 10
68.5
 20
90.5999870300293
 30
0.0
 10
68.5
 20
89.79998779296875
 30
0.0
 10
68.5
 20
88.9999885559082
 30
0.0
 10
68.5999984741211
 20
88.0999870300293
 30
0.0
 10
68.5999984741211
 20
87.19998931884766
 30
0.0
 10
68.5999984741211
 20
86.29998779296875
 30
0.0
 10
68.69999694824219
 20
85.4999885559082
 30
0.0
 10
68.69999694824219
 20
84.59999084472656
 30
0.0
 10
68.79999542236328
 20
83.79999160766602
 30
0.0
 10
68.79999542236328
 20
83.19998931884766
 30
0.0
 10
68.79999542236328
 20
82.89999008178711
 30
0.0
 10
68.89999389648438
 20
81.9999885559082
 30
0.0
 10
68.99999237060547
 20
80.4999885559082
 30
0.0
 10
69.19999694824219
 20
78.19998931884766
 30
0.0
 10
69.39999389648438
 20
75.9999885559082
 30
0.0
 10
69.5999984741211
 20
73.59999084472656
 30
0.0
 10
69.89999389648438
 20
71.09999084472656
 30
0.0
 10
70.19999694824219
 20
68.59999084472656
 30
0.0
 10
70.39999389648438
 20
66.19998931884766
 30
0.0
 10
70.59999084472656
 20
63.99999237060547
 30
0.0
 10
70.79998779296875
 20
61.79999160766602
 30
0.0
 10
70.99999237060547
 20
60.19998931884766
 30
0.0
 10
71.09999084472656
 20
59.29999542236328
 30
0.0
 10
71.09999084472656
 20
59.29999542236328
 30
0.0
 10
71.89999389648438
 20
59.29999542236328
 30
0.0
 10
71.89999389648438
 20
59.29999542236328
 30
0.0
 10
71.89999389648438
 20
59.29999542236328
 30
0.0
 10
72.69999694824219
 20
59.29999542236328
 30
0.0
 10
72.69999694824219
 20
59.29999542236328
 30
0.0
 10
73.0
 20
59.39999389648438
 30
0.0
 10
73.5
 20
59.49999237060547
 30
0.0
 10
74.29999542236328
 20
59.69999694824219
 30
0.0
 10
75.19999694824219
 20
60.30000305175781
 30
0.0
 10
75.69999694824219
 20
60.40000152587891
 30
0.0
 10
76.0
 20
60.5
 30
0.0
  0
HATCH
  5
4E
330
41
100
AcDbEntity
  8
Layer 1
 62
     7
420
 16777215
100
AcDbHatch
 10
0.0
 20
0.0
 30
0.0
210
0.0
220
0.0
230
1.0
  2
SOLID
 70
     1
 71
     0
 91
        1
 92
        1
 93
        1
 72
     4
 94
        3
 73
     0
 74
     1
 95
      122
 96
      118
 40
0.0
 40
0.0
 40
0.0
 40
0.0
 40
1.0
 40
1.0
 40
1.0
 40
2.0
 40
2.0
 40
2.0
 40
3.0
 40
3.0
 40
3.0
 40
4.0
 40
4.0
 40
4.0
 40
5.0
 40
5.0
 40
5.0
 40
6.0
 40
6.0
 40
6.0
 40
7.0
 40
7.0
 40
7.0
 40
8.0
 40
8.0
 40
8.0
 40
9.0
 40
9.0
 40
9.0
 40
10.0
 40
10.0
 40
10.0
 40
11.0
 40
11.0
 40
11.0
 40
12.0
 40
12.0
 40
12.0
 40
13.0
 40
13.0
 40
13.0
 40
14.0
 40
14.0
 40
14.0
 40
15.0
 40
15.0
 40
15.0
 40
16.0
 40
16.0
 40
16.0
 40
17.0
 40
17.0
 40
17.0
 40
18.0
 40
18.0
 40
18.0
 40
19.0
 40
19.0
 40
19.0
 40
20.0
 40
20.0
 40
20.0
 40
21.0
 40
21.0
 40
21.0
 40
22.0
 40
22.0
 40
22.0
 40
23.0
 40
23.0
 40
23.0
 40
24.0
 40
24.0
 40
24.0
 40
25.0
 40
25.0
 40
25.0
 40
26.0
 40
26.0
 40
26.0
 40
27.0
 40
27.0
 40
27.0
 40
28.0
 40
28.0
 40
28.0
 40
29.0
 40
29.0
 40
29.0
 40
30.0
 40
30.0
 40
30.0
 40
31.0
 40
31.0
 40
31.0
 40
32.0
 40
32.0
 40
32.0
 40
33.0
 40
33.0
 40
33.0
 40
34.0
 40
34.0
 40
34.0
 40
35.0
 40
35.0
 40
35.0
 40
36.0
 40
36.0
 40
36.0
 40
37.0
 40
37.0
 40
37.0
 40
38.0
 40
38.0
 40
38.0
 40
39.0
 40
39.0
 40
39.0
 40
39.0
 10
76.0
 20
60.5
 10
76.0
 20
60.69999694824219
 10
76.0
 20
60.90000152587891
 10
76.0
 20
61.20000076293945
 10
76.0
 20
61.5
 10
76.0
 20
61.90000152587891
 10
76.0
 20
62.29999923706055
 10
76.0
 20
62.70000076293945
 10
76.0
 20
63.0
 10
76.0
 20
63.39999771118164
 10
76.0
 20
63.69999694824219
 10
76.0
 20
63.89999771118164
 10
76.0
 20
64.0999984741211
 10
76.0
 20
65.69999694824219
 10
75.80000305175781
 20
67.29999923706055
 10
75.5
 20
68.79999923706055
 10
75.19999694824219
 20
70.29999923706055
 10
75.0
 20
71.89999771118164
 10
75.0
 20
73.5
 10
75.0
 20
74.5
 10
75.19999694824219
 20
75.0999984741211
 10
75.69999694824219
 20
75.20000076293945
 10
76.19999694824219
 20
75.4000015258789
 10
76.89999389648438
 20
75.4000015258789
 10
77.79999542236328
 20
75.4000015258789
 10
78.79999542236328
 20
75.4000015258789
 10
79.5999984741211
 20
75.20000076293945
 10
80.29999542236328
 20
74.9000015258789
 10
80.99999237060547
 20
74.60000228881836
 10
81.89999389648438
 20
74.4000015258789
 10
82.79999542236328
 20
74.4000015258789
 10
84.19999694824219
 20
74.4000015258789
 10
85.29999542236328
 20
74.80000305175781
 10
86.19999694824219
 20
75.5
 10
87.0999984741211
 20
76.29999923706055
 10
87.5999984741211
 20
77.4000015258789
 10
87.5999984741211
 20
78.79999923706055
 10
87.5999984741211
 20
80.20000076293945
 10
87.0999984741211
 20
81.29999923706055
 10
86.19999694824219
 20
82.0
 10
85.29999542236328
 20
82.70000076293945
 10
84.0999984741211
 20
83.0999984741211
 10
82.79999542236328
 20
83.0999984741211
 10
82.0999984741211
 20
83.0999984741211
 10
81.49999237060547
 20
83.0
 10
80.99999237060547
 20
82.69999694824219
 10
80.49999237060547
 20
82.39999771118164
 10
79.89999389648438
 20
82.19999694824219
 10
79.39999389648438
 20
81.79999542236328
 10
78.89999389648438
 20
81.49999618530273
 10
78.39999389648438
 20
81.19999694824219
 10
77.89999389648438
 20
80.89999389648438
 10
77.39999389648438
 20
80.59999084472656
 10
76.79999542236328
 20
80.49999237060547
 10
76.19999694824219
 20
80.49999237060547
 10
75.89999389648438
 20
80.49999237060547
 10
75.5
 20
80.49999237060547
 10
75.0999984741211
 20
80.49999237060547
 10
74.69999694824219
 20
80.49999237060547
 10
74.4000015258789
 20
80.79999160766602
 10
74.29999542236328
 20
81.29999160766602
 10
74.29999542236328
 20
81.59999084472656
 10
74.29999542236328
 20
82.19999313354492
 10
74.19999694824219
 20
82.99999237060547
 10
74.0999984741211
 20
83.79999160766602
 10
74.0999984741211
 20
84.69999313354492
 10
74.0
 20
85.59999084472656
 10
73.9000015258789
 20
86.49999237060547
 10
73.80000305175781
 20
87.39999008178711
 10
73.69999694824219
 20
88.19998931884766
 10
73.5999984741211
 20
88.9999885559082
 10
73.5
 20
89.59999084472656
 10
73.5
 20
89.89999008178711
 10
73.4000015258789
 20
90.19998931884766
 10
73.30000305175781
 20
90.4999885559082
 10
73.0999984741211
 20
90.89999008178711
 10
72.9000015258789
 20
91.29999160766602
 10
72.79999542236328
 20
91.4999885559082
 10
72.69999694824219
 20
91.4999885559082
 10
72.69999694824219
 20
91.4999885559082
 10
68.5
 20
91.4999885559082
 10
68.5
 20
91.4999885559082
 10
68.5
 20
91.19998931884766
 10
68.5
 20
90.5999870300293
 10
68.5
 20
89.79998779296875
 10
68.5
 20
88.9999885559082
 10
68.5999984741211
 20
88.0999870300293
 10
68.5999984741211
 20
87.19998931884766
 10
68.5999984741211
 20
86.29998779296875
 10
68.69999694824219
 20
85.4999885559082
 10
68.69999694824219
 20
84.59999084472656
 10
68.79999542236328
 20
83.79999160766602
 10
68.79999542236328
 20
83.19998931884766
 10
68.79999542236328
 20
82.89999008178711
 10
68.89999389648438
 20
81.9999885559082
 10
68.99999237060547
 20
80.4999885559082
 10
69.19999694824219
 20
78.19998931884766
 10
69.39999389648438
 20
75.9999885559082
 10
69.5999984741211
 20
73.59999084472656
 10
69.89999389648438
 20
71.09999084472656
 10
70.19999694824219
 20
68.59999084472656
 10
70.39999389648438
 20
66.19998931884766
 10
70.59999084472656
 20
63.99999237060547
 10
70.79998779296875
 20
61.79999160766602
 10
70.99999237060547
 20
60.19998931884766
 10
71.09999084472656
 20
59.29999542236328
 10
71.09999084472656
 20
59.29999542236328
 10
71.89999389648438
 20
59.29999542236328
 10
71.89999389648438
 20
59.29999542236328
 10
71.89999389648438
 20
59.29999542236328
 10
72.69999694824219
 20
59.29999542236328
 10
72.69999694824219
 20
59.29999542236328
 10
73.0
 20
59.39999389648438
 10
73.5
 20
59.49999237060547
 10
74.29999542236328
 20
59.69999694824219
 10
75.19999694824219
 20
60.30000305175781
 10
75.69999694824219
 20
60.40000152587891
 10
76.0
 20
60.5
 97
        0
 97
        0
 75
     2
 76
     1
 98
        0
  0
ENDBLK
  5
44
330
41
100
AcDbEntity
  8
0
100
AcDbBlockEnd
  0
ENDSEC
  0
SECTION
  2
ENTITIES
  0
INSERT
  5
42
330
1F
100
AcDbEntity
  8
Layer 1
100
AcDbBlockReference
  2
block 2
 10
0.0
 20
0.0
 30
0.0
  0
ENDSEC
  0
SECTION
  2
OBJECTS
  0
DICTIONARY
  5
C
330
0
100
AcDbDictionary
281
     1
  3
ACAD_GROUP
350
D
  3
ACAD_LAYOUT
350
1A
  3
ACAD_MATERIAL
350
3B
  3
ACAD_MLEADERSTYLE
350
50
  3
ACAD_MLINESTYLE
350
17
  3
ACAD_PLOTSETTINGS
350
19
  3
ACAD_PLOTSTYLENAME
350
E
  3
ACAD_TABLESTYLE
350
4F
  3
ACAD_VISUALSTYLE
350
2A
  0
SUN
  5
3F
330
29
100
AcDbSun
 90
        1
290
     0
 63
     7
421
 16777215
 40
1.0
291
     1
 91
  2455826
 92
 54000000
292
     0
 70
     2
 71
   256
280
     1
  0
DICTIONARY
  5
D
102
{ACAD_REACTORS
330
C
102
}
330
C
100
AcDbDictionary
281
     1
  0
DICTIONARY
  5
1A
102
{ACAD_REACTORS
330
C
102
}
330
C
100
AcDbDictionary
281
     1
  3
Layout1
350
1E
  3
Layout2
350
26
  3
Model
350
22
  0
DICTIONARY
  5
3B
102
{ACAD_REACTORS
330
C
102
}
330
C
100
AcDbDictionary
281
     1
  3
ByBlock
350
3D
  3
ByLayer
350
3C
  3
Global
350
3E
  0
DICTIONARY
  5
50
102
{ACAD_REACTORS
330
C
102
}
330
C
100
AcDbDictionary
281
     1
  0
DICTIONARY
  5
17
102
{ACAD_REACTORS
330
C
102
}
330
C
100
AcDbDictionary
281
     1
  3
Standard
350
18
  0
DICTIONARY
  5
19
102
{ACAD_REACTORS
330
C
102
}
330
C
100
AcDbDictionary
281
     1
  0
ACDBDICTIONARYWDFLT
  5
E
102
{ACAD_REACTORS
330
C
102
}
330
C
100
AcDbDictionary
281
     1
  3
Normal
350
F
100
AcDbDictionaryWithDefault
340
F
  0
DICTIONARY
  5
4F
102
{ACAD_REACTORS
330
C
102
}
330
C
100
AcDbDictionary
281
     1
  0
DICTIONARY
  5
2A
102
{ACAD_REACTORS
330
C
102
}
330
C
100
AcDbDictionary
281
     1
  3
2dWireframe
350
2F
  3
3D Hidden
350
31
  3
3dWireframe
350
30
  3
Basic
350
32
  3
Brighten
350
36
  3
ColorChange
350
3A
  3
Conceptual
350
34
  3
Dim
350
35
  3
Facepattern
350
39
  3
Flat
350
2B
  3
FlatWithEdges
350
2C
  3
Gouraud
350
2D
  3
GouraudWithEdges
350
2E
  3
Linepattern
350
38
  3
Realistic
350
33
  3
Thicken
350
37
  0
LAYOUT
  5
1E
102
{ACAD_REACTORS
330
1A
102
}
330
1A
100
AcDbPlotSettings
  1

  2
none_device
  4

  6

 40
0.0
 41
0.0
 42
0.0
 43
0.0
 44
0.0
 45
0.0
 46
0.0
 47
0.0
 48
0.0
 49
0.0
140
0.0
141
0.0
142
1.0
143
1.0
 70
   688
 72
     0
 73
     0
 74
     5
  7

 75
    16
 76
     0
 77
     2
 78
   300
147
1.0
148
0.0
149
0.0
100
AcDbLayout
  1
Layout1
 70
     1
 71
     1
 10
0.0
 20
0.0
 11
12.0
 21
9.0
 12
0.0
 22
0.0
 32
0.0
 14
1.000000000000000E+20
 24
1.000000000000000E+20
 34
1.000000000000000E+20
 15
-1.000000000000000E+20
 25
-1.000000000000000E+20
 35
-1.000000000000000E+20
146
0.0
 13
0.0
 23
0.0
 33
0.0
 16
1.0
 26
0.0
 36
0.0
 17
0.0
 27
1.0
 37
0.0
 76
     0
330
1B
  0
LAYOUT
  5
26
102
{ACAD_REACTORS
330
1A
102
}
330
1A
100
AcDbPlotSettings
  1

  2
none_device
  4

  6

 40
0.0
 41
0.0
 42
0.0
 43
0.0
 44
0.0
 45
0.0
 46
0.0
 47
0.0
 48
0.0
 49
0.0
140
0.0
141
0.0
142
1.0
143
1.0
 70
   688
 72
     0
 73
     0
 74
     5
  7

 75
    16
 76
     0
 77
     2
 78
   300
147
1.0
148
0.0
149
0.0
100
AcDbLayout
  1
Layout2
 70
     1
 71
     2
 10
0.0
 20
0.0
 11
0.0
 21
0.0
 12
0.0
 22
0.0
 32
0.0
 14
0.0
 24
0.0
 34
0.0
 15
0.0
 25
0.0
 35
0.0
146
0.0
 13
0.0
 23
0.0
 33
0.0
 16
1.0
 26
0.0
 36
0.0
 17
0.0
 27
1.0
 37
0.0
 76
     0
330
23
  0
LAYOUT
  5
22
102
{ACAD_REACTORS
330
1A
102
}
330
1A
100
AcDbPlotSettings
  1

  2
none_device
  4

  6

 40
0.0
 41
0.0
 42
0.0
 43
0.0
 44
0.0
 45
0.0
 46
0.0
 47
0.0
 48
0.0
 49
0.0
140
0.0
141
0.0
142
1.0
143
1.0
 70
  1712
 72
     0
 73
     0
 74
     0
  7

 75
     0
 76
     0
 77
     2
 78
   300
147
1.0
148
0.0
149
0.0
100
AcDbLayout
  1
Model
 70
     1
 71
     0
 10
0.0
 20
0.0
 11
12.0
 21
9.0
 12
0.0
 22
0.0
 32
0.0
 14
1.000000000000000E+20
 24
1.000000000000000E+20
 34
1.000000000000000E+20
 15
-1.000000000000000E+20
 25
-1.000000000000000E+20
 35
-1.000000000000000E+20
146
0.0
 13
0.0
 23
0.0
 33
0.0
 16
1.0
 26
0.0
 36
0.0
 17
0.0
 27
1.0
 37
0.0
 76
     0
330
1F
331
29
  0
MATERIAL
  5
3D
102
{ACAD_REACTORS
330
3B
102
}
330
3B
100
AcDbMaterial
  1
ByBlock
 72
     1
 94
      127
  0
MATERIAL
  5
3C
102
{ACAD_REACTORS
330
3B
102
}
330
3B
100
AcDbMaterial
  1
ByLayer
 72
     1
 94
      127
  0
MATERIAL
  5
3E
102
{ACAD_REACTORS
330
3B
102
}
330
3B
100
AcDbMaterial
  1
Global
 72
     1
 94
      127
  0
MLINESTYLE
  5
18
102
{ACAD_REACTORS
330
17
102
}
330
17
100
AcDbMlineStyle
  2
Standard
 70
     0
  3

 62
   256
 51
90.0
 52
90.0
 71
     2
 49
0.5
 62
   256
  6
BYLAYER
 49
-0.5
 62
   256
  6
BYLAYER
  0
ACDBPLACEHOLDER
  5
F
102
{ACAD_REACTORS
330
E
102
}
330
E
  0
VISUALSTYLE
  5
2F
102
{ACAD_REACTORS
330
2A
102
}
330
2A
100
AcDbVisualStyle
  2
2dWireframe
 70
     4
177
     2
291
     0
 71
     0
176
     1
 72
     2
176
     1
 73
     0
176
     1
 90
        0
176
     1
 40
-0.6
176
     1
 41
-30.0
176
     1
 62
     5
 63
     7
421
 16777215
176
     1
 74
     1
176
     1
 91
        4
176
     1
 64
     7
176
     1
 65
   257
176
     1
 75
     1
176
     1
175
     1
176
     1
 42
1.0
176
     1
 92
        0
176
     1
 66
   257
176
     1
 43
1.0
176
     1
 76
     1
176
     1
 77
     6
176
     1
 78
     2
176
     1
 67
     7
176
     1
 79
     5
176
     1
170
     0
176
     1
171
     0
176
     1
290
     0
176
     1
 93
        1
176
     1
 44
0.0
176
     1
173
     0
176
     1
  0
VISUALSTYLE
  5
31
102
{ACAD_REACTORS
330
2A
102
}
330
2A
100
AcDbVisualStyle
  2
3D Hidden
 70
     6
177
     2
291
     0
 71
     1
176
     1
 72
     2
176
     1
 73
     2
176
     1
 90
        0
176
     1
 40
-0.6
176
     1
 41
-30.0
176
     1
 62
     5
 63
     7
421
 16777215
176
     1
 74
     2
176
     1
 91
        2
176
     1
 64
     7
176
     1
 65
   257
176
     1
 75
     2
176
     1
175
     1
176
     1
 42
40.0
176
     1
 92
        0
176
     1
 66
   257
176
     1
 43
1.0
176
     1
 76
     1
176
     1
 77
     6
176
     1
 78
     2
176
     1
 67
     7
176
     1
 79
     3
176
     1
170
     0
176
     1
171
     0
176
     1
290
     0
176
     1
 93
        1
176
     1
 44
0.0
176
     1
173
     0
176
     1
  0
VISUALSTYLE
  5
30
102
{ACAD_REACTORS
330
2A
102
}
330
2A
100
AcDbVisualStyle
  2
3dWireframe
 70
     5
177
     2
291
     0
 71
     0
176
     1
 72
     2
176
     1
 73
     0
176
     1
 90
        0
176
     1
 40
-0.6
176
     1
 41
-30.0
176
     1
 62
     5
 63
     7
421
 16777215
176
     1
 74
     1
176
     1
 91
        4
176
     1
 64
     7
176
     1
 65
   257
176
     1
 75
     1
176
     1
175
     1
176
     1
 42
1.0
176
     1
 92
        0
176
     1
 66
   257
176
     1
 43
1.0
176
     1
 76
     1
176
     1
 77
     6
176
     1
 78
     2
176
     1
 67
     7
176
     1
 79
     5
176
     1
170
     0
176
     1
171
     0
176
     1
290
     0
176
     1
 93
        1
176
     1
 44
0.0
176
     1
173
     0
176
     1
  0
VISUALSTYLE
  5
32
102
{ACAD_REACTORS
330
2A
102
}
330
2A
100
AcDbVisualStyle
  2
Basic
 70
     7
177
     2
291
     1
 71
     1
176
     1
 72
     0
176
     1
 73
     1
176
     1
 90
        0
176
     1
 40
-0.6
176
     1
 41
-30.0
176
     1
 62
     5
 63
     7
421
 16777215
176
     1
 74
     0
176
     1
 91
        4
176
     1
 64
     7
176
     1
 65
   257
176
     1
 75
     1
176
     1
175
     1
176
     1
 42
1.0
176
     1
 92
        8
176
     1
 66
     7
176
     1
 43
1.0
176
     1
 76
     1
176
     1
 77
     6
176
     1
 78
     2
176
     1
 67
     7
176
     1
 79
     5
176
     1
170
     0
176
     1
171
     0
176
     1
290
     0
176
     1
 93
        1
176
     1
 44
0.0
176
     1
173
     0
176
     1
  0
VISUALSTYLE
  5
36
102
{ACAD_REACTORS
330
2A
102
}
330
2A
100
AcDbVisualStyle
  2
Brighten
 70
    12
177
     2
291
     1
 71
     2
176
     1
 72
     2
176
     1
 73
     0
176
     1
 90
        0
176
     1
 40
-0.6
176
     1
 41
-30.0
176
     1
 62
     5
 63
     7
421
 16777215
176
     1
 74
     1
176
     1
 91
        4
176
     1
 64
     7
176
     1
 65
   257
176
     1
 75
     1
176
     1
175
     1
176
     1
 42
1.0
176
     1
 92
        8
176
     1
 66
     7
176
     1
 43
1.0
176
     1
 76
     1
176
     1
 77
     6
176
     1
 78
     2
176
     1
 67
     7
176
     1
 79
     5
176
     1
170
     0
176
     1
171
     0
176
     1
290
     0
176
     1
 93
        1
176
     1
 44
50.0
176
     1
173
     0
176
     1
  0
VISUALSTYLE
  5
3A
102
{ACAD_REACTORS
330
2A
102
}
330
2A
100
AcDbVisualStyle
  2
ColorChange
 70
    16
177
     2
291
     1
 71
     2
176
     1
 72
     2
176
     1
 73
     3
176
     1
 90
        0
176
     1
 40
-0.6
176
     1
 41
-30.0
176
     1
 62
     5
 63
     8
421
  8421504
176
     1
 74
     1
176
     1
 91
        4
176
     1
 64
     7
176
     1
 65
   257
176
     1
 75
     1
176
     1
175
     1
176
     1
 42
1.0
176
     1
 92
        8
176
     1
 66
     8
424
  8421504
176
     1
 43
1.0
176
     1
 76
     1
176
     1
 77
     6
176
     1
 78
     2
176
     1
 67
     7
176
     1
 79
     5
176
     1
170
     0
176
     1
171
     0
176
     1
290
     0
176
     1
 93
        1
176
     1
 44
0.0
176
     1
173
     0
176
     1
  0
VISUALSTYLE
  5
34
102
{ACAD_REACTORS
330
2A
102
}
330
2A
100
AcDbVisualStyle
  2
Conceptual
 70
     9
177
     2
291
     0
 71
     3
176
     1
 72
     2
176
     1
 73
     0
176
     1
 90
        0
176
     1
 40
-0.6
176
     1
 41
-30.0
176
     1
 62
     5
 63
     7
421
 16777215
176
     1
 74
     2
176
     1
 91
        2
176
     1
 64
     7
176
     1
 65
   257
176
     1
 75
     1
176
     1
175
     1
176
     1
 42
40.0
176
     1
 92
        8
176
     1
 66
     7
176
     1
 43
1.0
176
     1
 76
     1
176
     1
 77
     6
176
     1
 78
     2
176
     1
 67
     7
176
     1
 79
     3
176
     1
170
     0
176
     1
171
     0
176
     1
290
     0
176
     1
 93
        1
176
     1
 44
0.0
176
     1
173
     0
176
     1
  0
VISUALSTYLE
  5
35
102
{ACAD_REACTORS
330
2A
102
}
330
2A
100
AcDbVisualStyle
  2
Dim
 70
    11
177
     2
291
     1
 71
     2
176
     1
 72
     2
176
     1
 73
     0
176
     1
 90
        0
176
     1
 40
-0.6
176
     1
 41
-30.0
176
     1
 62
     5
 63
     7
421
 16777215
176
     1
 74
     1
176
     1
 91
        4
176
     1
 64
     7
176
     1
 65
   257
176
     1
 75
     1
176
     1
175
     1
176
     1
 42
1.0
176
     1
 92
        8
176
     1
 66
     7
176
     1
 43
1.0
176
     1
 76
     1
176
     1
 77
     6
176
     1
 78
     2
176
     1
 67
     7
176
     1
 79
     5
176
     1
170
     0
176
     1
171
     0
176
     1
290
     0
176
     1
 93
        1
176
     1
 44
-50.0
176
     1
173
     0
176
     1
  0
VISUALSTYLE
  5
39
102
{ACAD_REACTORS
330
2A
102
}
330
2A
100
AcDbVisualStyle
  2
Facepattern
 70
    15
177
     2
291
     1
 71
     2
176
     1
 72
     2
176
     1
 73
     0
176
     1
 90
        0
176
     1
 40
-0.6
176
     1
 41
-30.0
176
     1
 62
     5
 63
     7
421
 16777215
176
     1
 74
     1
176
     1
 91
        4
176
     1
 64
     7
176
     1
 65
   257
176
     1
 75
     1
176
     1
175
     1
176
     1
 42
1.0
176
     1
 92
        8
176
     1
 66
     7
176
     1
 43
1.0
176
     1
 76
     1
176
     1
 77
     6
176
     1
 78
     2
176
     1
 67
     7
176
     1
 79
     5
176
     1
170
     0
176
     1
171
     0
176
     1
290
     0
176
     1
 93
        1
176
     1
 44
0.0
176
     1
173
     0
176
     1
  0
VISUALSTYLE
  5
2B
102
{ACAD_REACTORS
330
2A
102
}
330
2A
100
AcDbVisualStyle
  2
Flat
 70
     0
177
     2
291
     1
 71
     2
176
     1
 72
     1
176
     1
 73
     1
176
     1
 90
        2
176
     1
 40
-0.6
176
     1
 41
30.0
176
     1
 62
     5
 63
     7
421
 16777215
176
     1
 74
     0
176
     1
 91
        4
176
     1
 64
     7
176
     1
 65
   257
176
     1
 75
     1
176
     1
175
     1
176
     1
 42
1.0
176
     1
 92
        8
176
     1
 66
     7
176
     1
 43
1.0
176
     1
 76
     1
176
     1
 77
     6
176
     1
 78
     2
176
     1
 67
     7
176
     1
 79
     5
176
     1
170
     0
176
     1
171
     0
176
     1
290
     0
176
     1
 93
       13
176
     1
 44
0.0
176
     1
173
     0
176
     1
  0
VISUALSTYLE
  5
2C
102
{ACAD_REACTORS
330
2A
102
}
330
2A
100
AcDbVisualStyle
  2
FlatWithEdges
 70
     1
177
     2
291
     1
 71
     2
176
     1
 72
     1
176
     1
 73
     1
176
     1
 90
        2
176
     1
 40
-0.6
176
     1
 41
30.0
176
     1
 62
     5
 63
     7
421
 16777215
176
     1
 74
     1
176
     1
 91
        4
176
     1
 64
     7
176
     1
 65
   257
176
     1
 75
     1
176
     1
175
     1
176
     1
 42
1.0
176
     1
 92
        0
176
     1
 66
   257
176
     1
 43
1.0
176
     1
 76
     1
176
     1
 77
     6
176
     1
 78
     2
176
     1
 67
     7
176
     1
 79
     5
176
     1
170
     0
176
     1
171
     0
176
     1
290
     0
176
     1
 93
       13
176
     1
 44
0.0
176
     1
173
     0
176
     1
  0
VISUALSTYLE
  5
2D
102
{ACAD_REACTORS
330
2A
102
}
330
2A
100
AcDbVisualStyle
  2
Gouraud
 70
     2
177
     2
291
     1
 71
     2
176
     1
 72
     2
176
     1
 73
     1
176
     1
 90
        2
176
     1
 40
-0.6
176
     1
 41
30.0
176
     1
 62
     5
 63
     7
421
 16777215
176
     1
 74
     0
176
     1
 91
        4
176
     1
 64
     7
176
     1
 65
   257
176
     1
 75
     1
176
     1
175
     1
176
     1
 42
1.0
176
     1
 92
        0
176
     1
 66
     7
176
     1
 43
1.0
176
     1
 76
     1
176
     1
 77
     6
176
     1
 78
     2
176
     1
 67
     7
176
     1
 79
     5
176
     1
170
     0
176
     1
171
     0
176
     1
290
     0
176
     1
 93
       13
176
     1
 44
0.0
176
     1
173
     0
176
     1
  0
VISUALSTYLE
  5
2E
102
{ACAD_REACTORS
330
2A
102
}
330
2A
100
AcDbVisualStyle
  2
GouraudWithEdges
 70
     3
177
     2
291
     1
 71
     2
176
     1
 72
     2
176
     1
 73
     1
176
     1
 90
        2
176
     1
 40
-0.6
176
     1
 41
30.0
176
     1
 62
     5
 63
     7
421
 16777215
176
     1
 74
     1
176
     1
 91
        4
176
     1
 64
     7
176
     1
 65
   257
176
     1
 75
     1
176
     1
175
     1
176
     1
 42
1.0
176
     1
 92
        0
176
     1
 66
   257
176
     1
 43
1.0
176
     1
 76
     1
176
     1
 77
     6
176
     1
 78
     2
176
     1
 67
     7
176
     1
 79
     5
176
     1
170
     0
176
     1
171
     0
176
     1
290
     0
176
     1
 93
       13
176
     1
 44
0.0
176
     1
173
     0
176
     1
  0
VISUALSTYLE
  5
38
102
{ACAD_REACTORS
330
2A
102
}
330
2A
100
AcDbVisualStyle
  2
Linepattern
 70
    14
177
     2
291
     1
 71
     2
176
     1
 72
     2
176
     1
 73
     0
176
     1
 90
        0
176
     1
 40
-0.6
176
     1
 41
-30.0
176
     1
 62
     5
 63
     7
421
 16777215
176
     1
 74
     1
176
     1
 91
        4
176
     1
 64
     7
176
     1
 65
   257
176
     1
 75
     7
176
     1
175
     7
176
     1
 42
1.0
176
     1
 92
        8
176
     1
 66
     7
176
     1
 43
1.0
176
     1
 76
     1
176
     1
 77
     6
176
     1
 78
     2
176
     1
 67
     7
176
     1
 79
     5
176
     1
170
     0
176
     1
171
     0
176
     1
290
     0
176
     1
 93
        1
176
     1
 44
0.0
176
     1
173
     0
176
     1
  0
VISUALSTYLE
  5
33
102
{ACAD_REACTORS
330
2A
102
}
330
2A
100
AcDbVisualStyle
  2
Realistic
 70
     8
177
     2
291
     0
 71
     2
176
     1
 72
     2
176
     1
 73
     0
176
     1
 90
        0
176
     1
 40
-0.6
176
     1
 41
-30.0
176
     1
 62
     5
 63
     7
421
 16777215
176
     1
 74
     1
176
     1
 91
        0
176
     1
 64
     7
176
     1
 65
   257
176
     1
 75
     1
176
     1
175
     1
176
     1
 42
1.0
176
     1
 92
        8
176
     1
 66
     8
424
  7895160
176
     1
 43
1.0
176
     1
 76
     1
176
     1
 77
     6
176
     1
 78
     2
176
     1
 67
     7
176
     1
 79
     5
176
     1
170
     0
176
     1
171
     0
176
     1
290
     0
176
     1
 93
       13
176
     1
 44
0.0
176
     1
173
     0
176
     1
  0
VISUALSTYLE
  5
37
102
{ACAD_REACTORS
330
2A
102
}
330
2A
100
AcDbVisualStyle
  2
Thicken
 70
    13
177
     2
291
     1
 71
     2
176
     1
 72
     2
176
     1
 73
     0
176
     1
 90
        0
176
     1
 40
-0.6
176
     1
 41
-30.0
176
     1
 62
     5
 63
     7
421
 16777215
176
     1
 74
     1
176
     1
 91
        4
176
     1
 64
     7
176
     1
 65
   257
176
     1
 75
     1
176
     1
175
     1
176
     1
 42
1.0
176
     1
 92
       12
176
     1
 66
     7
176
     1
 43
1.0
176
     1
 76
     1
176
     1
 77
     6
176
     1
 78
     2
176
     1
 67
     7
176
     1
 79
     5
176
     1
170
     0
176
     1
171
     0
176
     1
290
     0
176
     1
 93
        1
176
     1
 44
0.0
176
     1
173
     0
176
     1
  0
ENDSEC
  0
EOF
