<?xml version="1.0" encoding="utf-8"?>
<!-- Generator: Adobe Illustrator 19.2.1, SVG Export Plug-In . SVG Version: 6.00 Build 0)  -->
<svg version="1.1" id="Layer_1" xmlns="http://www.w3.org/2000/svg" xmlns:xlink="http://www.w3.org/1999/xlink" x="0px" y="0px"
	 viewBox="0 0 100 125" style="enable-background:new 0 0 100 125;" xml:space="preserve">
<g>
	<path d="M99.5,49.2c0,2.5-0.6,4.7-1.8,6.7c-1.2,2-2.8,3.7-4.7,5.2c-1.9,1.5-4.1,2.7-6.4,3.6c-2.3,1-4.5,1.7-6.7,2.2
		c-1,0.3-2.1,0.4-3.2,0.5c-1.1,0.1-2.2,0.4-3.1,1.1c-0.7,0.5-1.3,1.1-1.8,1.8c-0.5,0.7-1,1.3-1.5,2c-0.5,0.7-0.9,1.4-1.4,2.1
		c-0.5,0.7-1,1.3-1.6,1.9c-0.8,0.9-2,1.7-3.5,2.6c-1.5,0.8-3.1,1.6-4.8,2.2c-1.7,0.7-3.3,1.2-5,1.6c-1.7,0.4-3.1,0.6-4.3,0.6
		c-0.6,0-1.2-0.1-1.6-0.4c-0.4-0.3-0.8-0.7-1.1-1.1c-0.3-0.5-0.5-1-0.6-1.5c-0.1-0.5-0.2-1.1-0.2-1.6c0-0.9,0.2-1.8,0.7-2.7
		c0.5-0.9,1-1.9,1.6-2.7c0.6-0.9,1.1-1.7,1.6-2.4c0.5-0.7,0.7-1.4,0.7-1.9c0-0.1,0-0.1,0-0.2c0-0.1,0-0.1,0-0.2
		c-0.3-0.1-0.8-0.2-1.6-0.4c-0.8-0.2-1.3-0.3-1.6-0.4c-0.1,0-0.2,0-0.4,0c-0.2,0-0.4,0-0.5,0c-0.4,0-0.6,0-0.7,0
		c-0.1,0-0.1,0.1-0.1,0.2c0,0.1,0,0.3-0.1,0.5c-0.1,0.2-0.3,0.5-0.6,0.9c-0.2,0.2-0.4,0.4-0.8,0.8c-0.4,0.4-0.8,0.8-1.2,1.2
		c-0.4,0.4-0.8,0.8-1.2,1.2c-0.4,0.4-0.6,0.6-0.8,0.8c-0.4,0.1-1.1,0.3-2.2,0.5c-1,0.2-2.1,0.5-3.3,0.7c-1.1,0.2-2.2,0.5-3.3,0.7
		c-1,0.2-1.8,0.4-2.2,0.4h-0.8c-1.5,0-2.6-0.3-3.1-1c-0.6-0.6-0.9-1.7-0.9-3c0-1,0.2-1.8,0.7-2.6c0.4-0.7,1-1.4,1.7-1.9
		c0.7-0.5,1.4-1,2.3-1.4c0.9-0.4,1.7-0.7,2.5-1.1v-0.8c0-0.2-0.2-0.3-0.7-0.4c-0.5-0.1-1-0.2-1.6-0.3c-0.6-0.1-1.3-0.1-1.9-0.1
		c-0.6,0-1.1,0-1.3,0c-2,0-4,0.4-5.8,1.3s-3.6,1.7-5.4,2.7c-1.8,1-3.6,1.9-5.5,2.7c-1.9,0.8-3.9,1.3-6,1.3c-0.7,0-1.3-0.1-1.8-0.2
		c-0.5-0.1-0.9-0.6-1.2-1.5c0-0.3,0-0.8,0-1.6s0-1.3,0-1.6c0-1.5,0.2-2.8,0.6-3.9c0.4-1.1,1-2.2,1.7-3.1c0.7-0.9,1.6-1.9,2.5-2.7
		c0.9-0.9,2-1.8,3.1-2.8v-0.8C8.2,52,7.1,51,6.1,49.8s-1.8-2.4-2.6-3.8c-0.8-1.3-1.4-2.7-2-4.1c-0.5-1.4-1-2.8-1.4-4
		c0-0.1,0-0.2,0-0.4c0-0.2,0-0.3,0-0.4c0-0.9,0.3-1.4,1-1.5c0.7-0.1,1.3-0.1,2.1-0.1c2.3,0,4.7,0.4,7,1.3c2.3,0.8,4.5,1.7,6.6,2.7
		c2.1,1,4.1,1.9,5.9,2.7c1.9,0.8,3.6,1.3,5.1,1.3c0.7,0,1.7-0.3,3-0.9c1.4-0.6,2.7-1.3,4.1-2.1c1.4-0.8,2.6-1.6,3.6-2.5
		c1-0.9,1.5-1.5,1.5-2v-0.4c-0.4-1-0.8-2.2-1.4-3.4c-0.6-1.3-0.9-2.5-0.9-3.6c0-0.8,0.2-1.4,0.5-2c0.3-0.5,0.7-1,1.1-1.5
		c0.4-0.5,0.8-0.9,1.1-1.4c0.3-0.5,0.5-1,0.5-1.6c0-0.8-0.2-1.6-0.5-2.3c-0.3-0.7-0.5-1.4-0.5-2.3c0-0.8,0.3-1.3,1-1.7
		c0.7-0.3,1.4-0.6,2.3-0.7c0.9-0.1,1.7-0.1,2.5-0.1c0.8,0.1,1.4,0.1,1.8,0.1c2.8,0,5.3,0.3,7.7,0.9c2.4,0.6,4.7,1.5,6.9,2.7
		c2.2,1.1,4.3,2.5,6.3,4c2,1.5,4,3.2,5.9,5c0.1,0.1,0.3,0.3,0.6,0.6c0.3,0.3,0.6,0.6,0.9,1c0.3,0.3,0.7,0.7,1,1
		c0.3,0.3,0.5,0.5,0.6,0.5c0.2,0.1,0.5,0.2,1.1,0.4c0.6,0.1,1.3,0.3,2,0.4c0.7,0.2,1.4,0.3,2,0.5c0.6,0.2,1,0.3,1.2,0.3
		c2,0.8,3.9,1.7,5.8,2.7c1.9,1,3.6,2.2,5,3.5c1.5,1.3,2.6,2.9,3.5,4.6C99.1,44.9,99.5,46.9,99.5,49.2z"/>
	<path d="M38.4,41.8c-0.1,0-0.1,0-0.2,0c-0.1,0-0.1,0-0.2,0c-0.3,0-0.7,0.2-1.3,0.5c-0.6,0.3-1.1,0.7-1.7,1.2
		c-0.6,0.5-1.1,1-1.5,1.5c-0.4,0.5-0.6,1-0.6,1.4v0.9l1.6,12.5c0.2,0.5,0.5,0.8,0.9,1.1c0.5,0.2,1,0.4,1.6,0.5
		c0.6,0.1,1.2,0.2,1.7,0.2c0.6,0,1.1,0,1.5,0c0-1.5-0.1-3.1-0.2-4.9c-0.1-1.7-0.2-3.5-0.4-5.2c-0.2-1.7-0.4-3.4-0.6-5.1
		C38.8,44.6,38.6,43.1,38.4,41.8z"/>
	<path d="M49.4,37.1c-0.1,0-0.2,0-0.4,0c-0.2,0-0.3,0-0.4,0c-1.4,0-2.5,0.4-3.5,1.3c-1,0.8-1.4,2-1.2,3.5L47,63.7
		c0,0.1,0.2,0.2,0.6,0.4c0.4,0.2,0.7,0.3,1,0.4s0.8,0.1,1.7,0.2c0.9,0.1,1.4,0.1,1.7,0.1c0-0.2,0-0.6,0-1.1s-0.1-1.1-0.1-1.7
		c0-0.6-0.1-1.2-0.1-1.7s0-0.9,0-1.1c-0.1-0.8-0.2-2.3-0.4-4.3c-0.2-2.1-0.5-4.3-0.7-6.6c-0.2-2.3-0.5-4.5-0.7-6.6
		C49.6,39.4,49.5,37.9,49.4,37.1z"/>
	<path d="M60.3,34.7c-0.2-0.4-0.4-0.7-0.6-0.7c-0.3-0.1-0.6-0.1-0.9-0.1c-0.5,0-0.9,0.1-1.2,0.2c-0.3,0.1-0.7,0.3-1.1,0.7v2v2
		c0.1,0.7,0.1,1.7,0.3,3s0.3,2.8,0.4,4.5c0.1,1.7,0.3,3.5,0.5,5.4c0.2,1.9,0.4,3.7,0.5,5.4c0.2,1.7,0.3,3.2,0.4,4.6s0.2,2.3,0.3,3
		c0,0.1,0.1,0.3,0.3,0.5c0.2,0.2,0.4,0.3,0.5,0.3c0.2,0,0.4,0,0.8,0.1c0.4,0.1,0.8,0.1,1.3,0.1c0.4,0,0.9,0.1,1.3,0.1s0.7,0,0.8,0
		c0-0.2,0-0.4,0-0.8c0-0.4-0.1-0.8-0.1-1.3c0-0.5-0.1-0.9-0.1-1.3c0-0.4,0-0.7,0-0.8c-0.1-0.7-0.2-1.7-0.3-3.1
		c-0.2-1.4-0.3-2.9-0.5-4.7c-0.2-1.7-0.4-3.6-0.7-5.5c-0.2-1.9-0.5-3.8-0.7-5.5c-0.2-1.7-0.4-3.3-0.5-4.7
		C60.6,36.5,60.4,35.4,60.3,34.7z"/>
	<path d="M76,64.5c0-0.2,0-0.4,0-0.7s0-0.7,0-1.1c0-0.4,0-0.7,0-1.1c0-0.3,0-0.5,0-0.7c0-1.6-0.2-3.2-0.5-4.7
		c-0.3-1.5-0.5-3.1-0.5-4.7c0-1,0.2-1.6,0.7-1.7c0.5-0.2,1.2-0.2,2.1-0.2c1,0,1.8,0.2,2.5,0.5c0.7,0.3,1.6,0.5,2.5,0.5
		c1.4,0,2.5-0.4,3.4-1.1c0.9-0.8,1.4-1.9,1.4-3.3c0-1.4-0.5-2.5-1.4-3.2c-0.9-0.7-2.1-1.1-3.4-1.1c-0.7,0-1.3,0.1-1.8,0.4
		c-0.5,0.3-1.1,0.5-1.6,0.9c-0.5,0.3-1,0.6-1.5,0.9s-1.1,0.4-1.7,0.4c-0.3,0-0.7,0-1.1,0c-0.4,0-0.7-0.3-0.8-0.8
		c0-0.3,0-0.9-0.1-1.7c-0.1-0.8-0.1-1.7-0.2-2.6c-0.1-0.9-0.2-1.8-0.3-2.6c-0.1-0.8-0.2-1.4-0.2-1.7c-0.1-0.3-0.2-0.6-0.4-1
		c-0.2-0.4-0.3-0.6-0.4-0.6h-4.2c0,0.3,0,0.9,0,1.7c0,0.8,0.1,1.7,0.1,2.6c0,0.9,0.1,1.7,0.1,2.6c0.1,0.8,0.1,1.4,0.1,1.7
		c0.1,0.9,0.2,2.4,0.4,4.7c0.2,2.2,0.4,4.6,0.7,7.1c0.3,2.5,0.5,4.9,0.7,7.1c0.2,2.2,0.4,3.8,0.5,4.7h0.8h0.8
		c0.3-0.1,0.8-0.2,1.6-0.4C75.2,64.7,75.7,64.6,76,64.5z"/>
</g>
</svg>
