<?xml version="1.0" encoding="utf-8"?>
<!-- Generator: Adobe Illustrator 19.2.1, SVG Export Plug-In . SVG Version: 6.00 Build 0)  -->
<svg version="1.1" id="Layer_1" xmlns="http://www.w3.org/2000/svg" xmlns:xlink="http://www.w3.org/1999/xlink" x="0px" y="0px"
	 viewBox="0 0 100 125" style="enable-background:new 0 0 100 125;" xml:space="preserve">
<path d="M83,36.3c-4.1-5-10.1-8.2-16.3-10h0c0,0-27.4-10-32.5-2.5c-5.1,7.3,3.1,9.9,3.1,9.9h0c-3.2,2.3-6,5-8,7.9
	C24.4,35,18.9,29.9,14.1,30.8c-11.9,2.2-9,9.9-6.6,12.5c2.1,2.2,5.9,4.9,10.3,7.6c-4.4,2.7-8.3,5.4-10.3,7.6
	c-2.4,2.6-5.4,10.4,6.6,12.5c4.8,0.9,10.3-4.2,15.3-10.7c0.7,1.1,1.6,2.2,2.5,3.2l-0.2,0c0,0-6,2.3-2,6.3c1.9,1.9,6.8,1.6,11.3,0.8
	c1.2,0.7,2.5,1.3,3.7,1.9c-1.2,1.1-2.2,2.8,0.1,5.1c4,4,20.7-1.3,20.7-1.3c0.2,0,0.3-0.1,0.5-0.1c2.5-0.7,9.4-3.3,17.6-11l0,0
	c2.3-2.2,11.1-11,11.1-15.1L83,36.3z M70.9,60.1c-0.4,0.1-0.9,0.1-1.4,0.1c-5.1,0-9.3-4.2-9.3-9.3c0-5.1,4.2-9.3,9.3-9.3
	c0.5,0,0.9,0,1.4,0.1c-4.5,0.7-7.9,4.5-7.9,9.2C63,55.6,66.4,59.5,70.9,60.1z M78.7,50.5c-1.6,0-2.9-1.3-2.9-2.9
	c0-1.6,1.3-2.9,2.9-2.9c1.6,0,2.9,1.3,2.9,2.9C81.6,49.2,80.3,50.5,78.7,50.5z"/>
</svg>
