<?xml version="1.0" encoding="utf-8"?>
<!-- Generator: Adobe Illustrator 19.2.1, SVG Export Plug-In . SVG Version: 6.00 Build 0)  -->
<svg version="1.1" id="Layer_1" xmlns="http://www.w3.org/2000/svg" xmlns:xlink="http://www.w3.org/1999/xlink" x="0px" y="0px"
	 viewBox="0 0 100 125" style="enable-background:new 0 0 100 125;" xml:space="preserve">
<style type="text/css">
	.st0{stroke:#000000;stroke-miterlimit:10;}
</style>
<g>
	<g>
		<path class="st0" d="M50.7,26.1c0,0,27.5-1.3,23.5,28.7c0,0,0.2,10-8,17.5c0,0-9.9,14.2-15.5,13.7L50.7,26.1L50.7,26.1z"/>
		<path class="st0" d="M50.6,26.1c0,0-27.5-1.3-23.5,28.7c0,0-0.2,10,8,17.5c0,0,9.9,14.2,15.5,13.7L50.6,26.1L50.6,26.1z"/>
	</g>
	<path d="M63.4,72.5c0,0,11.6,8,6.8,17.2c0,0,0,3.5-4,0l-2.8,0.2v-2.4l-5-4.2l-0.9-3.1L63.4,72.5z"/>
	<path d="M36.1,72.5c0,0-11.6,8-6.8,17.2c0,0,0,3.5,4,0l2.8,0.2v-2.4l5-4.2l0.9-3.1L36.1,72.5z"/>
	<polygon points="54.3,80.6 50.5,91.3 47.2,80.5 	"/>
	<path d="M41.5,31.4l2.4-4.7c0,0,1.9-6.4,1.2-9.9c0,0-0.5-5.5,3.5-6.8c0,0,1.4-2.8,4.5,0c0,0,3.8,3.1,2.8,7.1c0,0,1.2,9,2.8,10.4v4
		H41.5z"/>
	<path d="M44.5,35.4l-6.6-7c0,0-6.4-7.1-15.8,0c0,0-15.6,16-13,22.2c0,0-3.1,7.3,0.7,7.8c0,0,3.5-0.2,5.9-3.8c0,0,3.1-7.8,6.4-8.3
		l4.1-0.7L44.5,35.4z"/>
	<path d="M55.5,35.7l6.6-7c0,0,6.4-7.1,15.8,0c0,0,15.6,16,13,22.2c0,0,3.1,7.3-0.7,7.8c0,0-3.5-0.2-5.9-3.8c0,0-3.1-7.8-6.4-8.3
		l-4.1-0.7L55.5,35.7z"/>
</g>
</svg>
