<?xml version="1.0" encoding="utf-8"?>
<!-- Generator: Adobe Illustrator 19.2.1, SVG Export Plug-In . SVG Version: 6.00 Build 0)  -->
<svg version="1.1" id="Layer_1" xmlns="http://www.w3.org/2000/svg" xmlns:xlink="http://www.w3.org/1999/xlink" x="0px" y="0px"
	 viewBox="0 0 100 125" style="enable-background:new 0 0 100 125;" xml:space="preserve">
<style type="text/css">
	.st0{fill:#FFFFFF;}
</style>
<path d="M94.7,55.6c0.2-1.3,0.3-2.7,0.3-4.3c0-13-8.7-22.3-20.4-22.3c-11.5,0-18,1.7-26,10.9c-4,4.6-10.6,14.6-16.9,16.8
	c-4.2,1.5-8.7,0.8-8.7-4.1c0-4.2,1.9-7.1,5.1-8.2c8.4-2.9,7.6-10.6,7.6-10.6S34,35,26,35.4c-4.1,0.2-6.1,6-6.1,6s-1.6-5.8-5.4-6.1
	C7.5,34.8,5,33.1,5,33.1s0,9,6.5,11.2c3.3,1.1,4,3.4,4.2,5.2c0.5,4-2.4,10.9,5.3,16.5c7.4,5.4,18.5,4.9,36.7,4.9
	c19.6,0,31.4-0.2,35.6-9.8H80.5c-5.4,0-10.5-2.1-14.5-5.6h14.5H94.7z M75.3,50.7c-1.9,0-3.5-1.6-3.5-3.5c0-1.9,1.6-3.5,3.5-3.5
	s3.5,1.6,3.5,3.5C78.8,49.1,77.3,50.7,75.3,50.7z"/>
<ellipse transform="matrix(0.7071 -0.7071 0.7071 0.7071 -4.5979 56.3382)" class="st0" cx="65.7" cy="33.7" rx="1.9" ry="1.9"/>
</svg>
