<?xml version="1.0" encoding="utf-8"?>
<!-- Generator: Adobe Illustrator 19.2.1, SVG Export Plug-In . SVG Version: 6.00 Build 0)  -->
<svg version="1.1" id="Layer_1" xmlns="http://www.w3.org/2000/svg" xmlns:xlink="http://www.w3.org/1999/xlink" x="0px" y="0px"
	 viewBox="0 0 100 125" style="enable-background:new 0 0 100 125;" xml:space="preserve">
<path d="M92.6,36.4l-27.7,1.7c-1.9,0.1-3.6-1.1-4.1-3l-7-26.9c-1-4-6.6-4-7.7,0l-7,26.9c-0.5,1.8-2.2,3.1-4.1,3L7.4,36.4
	c-4.1-0.2-5.8,5.1-2.4,7.3l23.4,14.9c1.6,1,2.2,3,1.6,4.8L19.8,89.3c-1.5,3.8,3,7.1,6.2,4.5l21.4-17.7c1.5-1.2,3.6-1.2,5,0L74,93.8
	c3.2,2.6,7.7-0.7,6.2-4.5L70,63.4c-0.7-1.8,0-3.8,1.6-4.8L95,43.7C98.4,41.5,96.7,36.2,92.6,36.4z M28.6,86.5L28,87.3
	c-0.3,0.4-0.8,0.6-1.2,0.6c-0.3,0-0.6-0.1-0.9-0.3c-0.7-0.5-0.9-1.4-0.4-2.1l0.6-0.8c0.5-0.7,1.4-0.9,2.1-0.4
	C28.9,84.9,29.1,85.8,28.6,86.5z M13.3,42.2c-0.2,0.6-0.8,1-1.4,1c-0.2,0-0.3,0-0.5-0.1l-1-0.3c-0.8-0.3-1.2-1.1-1-1.9
	c0.3-0.8,1.1-1.2,1.9-1l1,0.3C13.2,40.6,13.6,41.4,13.3,42.2z M21.9,44.9c-0.2,0.6-0.8,1-1.4,1c-0.2,0-0.3,0-0.5-0.1l-1-0.3
	c-0.8-0.3-1.2-1.1-1-1.9s1.1-1.2,1.9-1l1,0.3C21.7,43.3,22.2,44.1,21.9,44.9z M29.1,48.7c-0.2,0-0.3,0-0.5-0.1l-1-0.3
	c-0.8-0.3-1.2-1.1-1-1.9s1.1-1.2,1.9-1l1,0.3c0.8,0.3,1.2,1.1,1,1.9C30.3,48.3,29.7,48.7,29.1,48.7z M33.7,79.1l-0.6,0.8
	c-0.3,0.4-0.8,0.6-1.2,0.6c-0.3,0-0.6-0.1-0.8-0.3c-0.7-0.5-0.9-1.4-0.4-2.1l0.6-0.8c0.5-0.7,1.4-0.9,2.1-0.4
	C34,77.5,34.2,78.4,33.7,79.1z M38.8,71.7l-0.6,0.8c-0.3,0.4-0.8,0.6-1.2,0.6c-0.3,0-0.6-0.1-0.9-0.3c-0.7-0.5-0.9-1.4-0.4-2.1
	l0.6-0.8c0.5-0.7,1.4-0.9,2.1-0.4C39.1,70.1,39.3,71,38.8,71.7z M39.1,50.4c-0.2,0.6-0.8,1-1.4,1c-0.2,0-0.3,0-0.5-0.1l-1-0.3
	c-0.8-0.3-1.2-1.1-1-1.9s1.1-1.2,1.9-1l1,0.3C38.9,48.8,39.3,49.6,39.1,50.4z M43.9,64.3l-0.6,0.8c-0.3,0.4-0.8,0.7-1.2,0.7
	c-0.3,0-0.6-0.1-0.8-0.3c-0.7-0.5-0.9-1.4-0.4-2.1l0.6-0.8c0.5-0.7,1.4-0.9,2.1-0.4C44.2,62.6,44.4,63.6,43.9,64.3z M51.7,40.3
	c0,0.8-0.7,1.5-1.5,1.5s-1.5-0.7-1.5-1.5v-1c0-0.8,0.7-1.5,1.5-1.5s1.5,0.7,1.5,1.5V40.3z M51.7,31.3c0,0.8-0.7,1.5-1.5,1.5
	s-1.5-0.7-1.5-1.5v-1c0-0.8,0.7-1.5,1.5-1.5s1.5,0.7,1.5,1.5V31.3z M51.7,22.3c0,0.8-0.7,1.5-1.5,1.5s-1.5-0.7-1.5-1.5v-1
	c0-0.8,0.7-1.5,1.5-1.5s1.5,0.7,1.5,1.5V22.3z M51.7,13.3c0,0.8-0.7,1.5-1.5,1.5s-1.5-0.7-1.5-1.5v-1c0-0.8,0.7-1.5,1.5-1.5
	s1.5,0.7,1.5,1.5V13.3z M58.7,65.5c-0.3,0.2-0.6,0.3-0.8,0.3c-0.5,0-0.9-0.2-1.2-0.7L56,64.3c-0.5-0.7-0.3-1.6,0.4-2.1
	s1.6-0.3,2.1,0.4l0.6,0.8C59.6,64.1,59.4,65,58.7,65.5z M71.7,84.4c0.7-0.5,1.6-0.3,2.1,0.4l0.6,0.8c0.5,0.7,0.3,1.6-0.4,2.1
	c-0.3,0.2-0.6,0.3-0.9,0.3c-0.5,0-0.9-0.2-1.2-0.6l-0.6-0.8C70.9,85.8,71.1,84.9,71.7,84.4z M63.8,72.9c-0.3,0.2-0.6,0.3-0.9,0.3
	c-0.5,0-0.9-0.2-1.2-0.6l-0.6-0.8c-0.5-0.7-0.3-1.6,0.4-2.1s1.6-0.3,2.1,0.4l0.6,0.8C64.7,71.5,64.5,72.4,63.8,72.9z M64.4,51.1
	l-1,0.3c-0.2,0-0.3,0.1-0.5,0.1c-0.6,0-1.2-0.4-1.4-1c-0.3-0.8,0.2-1.6,1-1.9l1-0.3c0.8-0.3,1.6,0.2,1.9,1S65.1,50.8,64.4,51.1z
	 M68.9,80.3c-0.3,0.2-0.6,0.3-0.8,0.3c-0.5,0-0.9-0.2-1.2-0.6l-0.6-0.8c-0.5-0.7-0.3-1.6,0.4-2.1c0.7-0.5,1.6-0.3,2.1,0.4l0.6,0.8
	C69.8,78.9,69.6,79.8,68.9,80.3z M72.9,48.3l-1,0.3c-0.2,0-0.3,0.1-0.5,0.1c-0.6,0-1.2-0.4-1.4-1c-0.3-0.8,0.2-1.6,1-1.9l1-0.3
	c0.8-0.3,1.6,0.2,1.9,1S73.7,48.1,72.9,48.3z M81.5,45.6l-1,0.3c-0.2,0-0.3,0.1-0.5,0.1c-0.6,0-1.2-0.4-1.4-1
	c-0.3-0.8,0.2-1.6,1-1.9l1-0.3c0.8-0.3,1.6,0.2,1.9,1S82.3,45.4,81.5,45.6z M90.1,42.9l-1,0.3c-0.2,0-0.3,0.1-0.5,0.1
	c-0.6,0-1.2-0.4-1.4-1c-0.3-0.8,0.2-1.6,1-1.9l1-0.3c0.8-0.3,1.6,0.2,1.9,1C91.3,41.8,90.9,42.6,90.1,42.9z"/>
</svg>
