<?xml version="1.0" encoding="utf-8"?>
<!-- Generator: Adobe Illustrator 19.2.1, SVG Export Plug-In . SVG Version: 6.00 Build 0)  -->
<svg version="1.1" id="Layer_1" xmlns="http://www.w3.org/2000/svg" xmlns:xlink="http://www.w3.org/1999/xlink" x="0px" y="0px"
	 viewBox="0 0 100 125" style="enable-background:new 0 0 100 125;" xml:space="preserve">
<g>
	<g>
		<g>
			<path d="M50.4,6.2c-0.1,0-0.1,0-0.2-0.1c-0.1-0.1-0.1-0.1-0.1-0.2c0-0.1,0-0.2,0.1-0.2c0.1-0.1,0.3-0.1,0.4,0
				c0.1,0.1,0.1,0.1,0.1,0.2c0,0.1,0,0.2-0.1,0.2C50.5,6.2,50.4,6.2,50.4,6.2z"/>
		</g>
		<g>
			<path d="M50.1,48.8c0-0.2,0.1-0.3,0.3-0.3l0,0c0.2,0,0.3,0.1,0.3,0.3l0,0c0,0.2-0.1,0.3-0.3,0.3l0,0
				C50.2,49.1,50.1,48.9,50.1,48.8z M50.1,47.6c0-0.2,0.1-0.3,0.3-0.3l0,0c0.2,0,0.3,0.1,0.3,0.3l0,0c0,0.2-0.1,0.3-0.3,0.3l0,0
				C50.2,47.9,50.1,47.8,50.1,47.6z M50.1,46.5c0-0.2,0.1-0.3,0.3-0.3l0,0c0.2,0,0.3,0.1,0.3,0.3l0,0c0,0.2-0.1,0.3-0.3,0.3l0,0
				C50.2,46.7,50.1,46.6,50.1,46.5z M50.1,45.3c0-0.2,0.1-0.3,0.3-0.3l0,0c0.2,0,0.3,0.1,0.3,0.3l0,0c0,0.2-0.1,0.3-0.3,0.3l0,0
				C50.2,45.6,50.1,45.5,50.1,45.3z M50.1,44.1c0-0.2,0.1-0.3,0.3-0.3l0,0c0.2,0,0.3,0.1,0.3,0.3l0,0c0,0.2-0.1,0.3-0.3,0.3l0,0
				C50.2,44.4,50.1,44.3,50.1,44.1z M50.1,43c0-0.2,0.1-0.3,0.3-0.3l0,0c0.2,0,0.3,0.1,0.3,0.3l0,0c0,0.2-0.1,0.3-0.3,0.3l0,0
				C50.2,43.3,50.1,43.1,50.1,43z M50.1,41.8c0-0.2,0.1-0.3,0.3-0.3l0,0c0.2,0,0.3,0.1,0.3,0.3l0,0c0,0.2-0.1,0.3-0.3,0.3l0,0
				C50.2,42.1,50.1,42,50.1,41.8z M50.1,40.7c0-0.2,0.1-0.3,0.3-0.3l0,0c0.2,0,0.3,0.1,0.3,0.3l0,0c0,0.2-0.1,0.3-0.3,0.3l0,0
				C50.2,41,50.1,40.8,50.1,40.7z M50.1,39.5c0-0.2,0.1-0.3,0.3-0.3l0,0c0.2,0,0.3,0.1,0.3,0.3l0,0c0,0.2-0.1,0.3-0.3,0.3l0,0
				C50.2,39.8,50.1,39.7,50.1,39.5z M50.1,38.4c0-0.2,0.1-0.3,0.3-0.3l0,0c0.2,0,0.3,0.1,0.3,0.3l0,0c0,0.2-0.1,0.3-0.3,0.3l0,0
				C50.2,38.6,50.1,38.5,50.1,38.4z M50.1,37.2c0-0.2,0.1-0.3,0.3-0.3l0,0c0.2,0,0.3,0.1,0.3,0.3l0,0c0,0.2-0.1,0.3-0.3,0.3l0,0
				C50.2,37.5,50.1,37.4,50.1,37.2z M50.1,36c0-0.2,0.1-0.3,0.3-0.3l0,0c0.2,0,0.3,0.1,0.3,0.3l0,0c0,0.2-0.1,0.3-0.3,0.3l0,0
				C50.2,36.3,50.1,36.2,50.1,36z M50.1,34.9c0-0.2,0.1-0.3,0.3-0.3l0,0c0.2,0,0.3,0.1,0.3,0.3l0,0c0,0.2-0.1,0.3-0.3,0.3l0,0
				C50.2,35.2,50.1,35,50.1,34.9z M50.1,33.7c0-0.2,0.1-0.3,0.3-0.3l0,0c0.2,0,0.3,0.1,0.3,0.3l0,0c0,0.2-0.1,0.3-0.3,0.3l0,0
				C50.2,34,50.1,33.9,50.1,33.7z M50.1,32.6c0-0.2,0.1-0.3,0.3-0.3l0,0c0.2,0,0.3,0.1,0.3,0.3l0,0c0,0.2-0.1,0.3-0.3,0.3l0,0
				C50.2,32.9,50.1,32.7,50.1,32.6z M50.1,31.4c0-0.2,0.1-0.3,0.3-0.3l0,0c0.2,0,0.3,0.1,0.3,0.3l0,0c0,0.2-0.1,0.3-0.3,0.3l0,0
				C50.2,31.7,50.1,31.6,50.1,31.4z M50.1,30.2c0-0.2,0.1-0.3,0.3-0.3l0,0c0.2,0,0.3,0.1,0.3,0.3l0,0c0,0.2-0.1,0.3-0.3,0.3l0,0
				C50.2,30.5,50.1,30.4,50.1,30.2z M50.1,29.1c0-0.2,0.1-0.3,0.3-0.3l0,0c0.2,0,0.3,0.1,0.3,0.3l0,0c0,0.2-0.1,0.3-0.3,0.3l0,0
				C50.2,29.4,50.1,29.3,50.1,29.1z M50.1,27.9c0-0.2,0.1-0.3,0.3-0.3l0,0c0.2,0,0.3,0.1,0.3,0.3l0,0c0,0.2-0.1,0.3-0.3,0.3l0,0
				C50.2,28.2,50.1,28.1,50.1,27.9z M50.1,26.8c0-0.2,0.1-0.3,0.3-0.3l0,0c0.2,0,0.3,0.1,0.3,0.3l0,0c0,0.2-0.1,0.3-0.3,0.3l0,0
				C50.2,27.1,50.1,26.9,50.1,26.8z M50.1,25.6c0-0.2,0.1-0.3,0.3-0.3l0,0c0.2,0,0.3,0.1,0.3,0.3l0,0c0,0.2-0.1,0.3-0.3,0.3l0,0
				C50.2,25.9,50.1,25.8,50.1,25.6z M50.1,24.5c0-0.2,0.1-0.3,0.3-0.3l0,0c0.2,0,0.3,0.1,0.3,0.3l0,0c0,0.2-0.1,0.3-0.3,0.3l0,0
				C50.2,24.8,50.1,24.6,50.1,24.5z M50.1,23.3c0-0.2,0.1-0.3,0.3-0.3l0,0c0.2,0,0.3,0.1,0.3,0.3l0,0c0,0.2-0.1,0.3-0.3,0.3l0,0
				C50.2,23.6,50.1,23.5,50.1,23.3z M50.1,22.1c0-0.2,0.1-0.3,0.3-0.3l0,0c0.2,0,0.3,0.1,0.3,0.3l0,0c0,0.2-0.1,0.3-0.3,0.3l0,0
				C50.2,22.4,50.1,22.3,50.1,22.1z M50.1,21c0-0.2,0.1-0.3,0.3-0.3l0,0c0.2,0,0.3,0.1,0.3,0.3l0,0c0,0.2-0.1,0.3-0.3,0.3l0,0
				C50.2,21.3,50.1,21.1,50.1,21z M50.1,19.8c0-0.2,0.1-0.3,0.3-0.3l0,0c0.2,0,0.3,0.1,0.3,0.3l0,0c0,0.2-0.1,0.3-0.3,0.3l0,0
				C50.2,20.1,50.1,20,50.1,19.8z M50.1,18.7c0-0.2,0.1-0.3,0.3-0.3l0,0c0.2,0,0.3,0.1,0.3,0.3l0,0c0,0.2-0.1,0.3-0.3,0.3l0,0
				C50.2,19,50.1,18.8,50.1,18.7z M50.1,17.5c0-0.2,0.1-0.3,0.3-0.3l0,0c0.2,0,0.3,0.1,0.3,0.3l0,0c0,0.2-0.1,0.3-0.3,0.3l0,0
				C50.2,17.8,50.1,17.7,50.1,17.5z M50.1,16.4c0-0.2,0.1-0.3,0.3-0.3l0,0c0.2,0,0.3,0.1,0.3,0.3l0,0c0,0.2-0.1,0.3-0.3,0.3l0,0
				C50.2,16.6,50.1,16.5,50.1,16.4z M50.1,15.2c0-0.2,0.1-0.3,0.3-0.3l0,0c0.2,0,0.3,0.1,0.3,0.3l0,0c0,0.2-0.1,0.3-0.3,0.3l0,0
				C50.2,15.5,50.1,15.4,50.1,15.2z M50.1,14c0-0.2,0.1-0.3,0.3-0.3l0,0c0.2,0,0.3,0.1,0.3,0.3l0,0c0,0.2-0.1,0.3-0.3,0.3l0,0
				C50.2,14.3,50.1,14.2,50.1,14z M50.1,12.9c0-0.2,0.1-0.3,0.3-0.3l0,0c0.2,0,0.3,0.1,0.3,0.3l0,0c0,0.2-0.1,0.3-0.3,0.3l0,0
				C50.2,13.2,50.1,13,50.1,12.9z M50.1,11.7c0-0.2,0.1-0.3,0.3-0.3l0,0c0.2,0,0.3,0.1,0.3,0.3l0,0c0,0.2-0.1,0.3-0.3,0.3l0,0
				C50.2,12,50.1,11.9,50.1,11.7z M50.1,10.6c0-0.2,0.1-0.3,0.3-0.3l0,0c0.2,0,0.3,0.1,0.3,0.3l0,0c0,0.2-0.1,0.3-0.3,0.3l0,0
				C50.2,10.9,50.1,10.7,50.1,10.6z M50.1,9.4c0-0.2,0.1-0.3,0.3-0.3l0,0c0.2,0,0.3,0.1,0.3,0.3l0,0c0,0.2-0.1,0.3-0.3,0.3l0,0
				C50.2,9.7,50.1,9.6,50.1,9.4z M50.1,8.3c0-0.2,0.1-0.3,0.3-0.3l0,0c0.2,0,0.3,0.1,0.3,0.3l0,0c0,0.2-0.1,0.3-0.3,0.3l0,0
				C50.2,8.5,50.1,8.4,50.1,8.3z M50.1,7.1c0-0.2,0.1-0.3,0.3-0.3l0,0c0.2,0,0.3,0.1,0.3,0.3l0,0c0,0.2-0.1,0.3-0.3,0.3l0,0
				C50.2,7.4,50.1,7.3,50.1,7.1z"/>
		</g>
		<g>
			<path d="M50.4,50.2c-0.1,0-0.1,0-0.2-0.1c-0.1-0.1-0.1-0.1-0.1-0.2c0-0.1,0-0.2,0.1-0.2c0.1-0.1,0.3-0.1,0.4,0
				c0.1,0.1,0.1,0.1,0.1,0.2s0,0.1-0.1,0.2C50.5,50.2,50.4,50.2,50.4,50.2z"/>
		</g>
	</g>
	<g>
		<g>
			<path d="M12.1,72.1c-0.1,0-0.1,0-0.2-0.1c-0.1-0.1-0.1-0.1-0.1-0.2c0-0.1,0-0.2,0.1-0.2c0.1-0.1,0.3-0.1,0.4,0
				c0.1,0.1,0.1,0.1,0.1,0.2c0,0.1,0,0.1-0.1,0.2C12.3,72,12.2,72.1,12.1,72.1z"/>
		</g>
		<g>
			<path d="M12.9,71.4c-0.1-0.1,0-0.3,0.1-0.4l0,0c0.1-0.1,0.3,0,0.4,0.1l0,0c0.1,0.1,0,0.3-0.1,0.4l0,0c0,0-0.1,0-0.1,0l0,0
				C13.1,71.5,13,71.4,12.9,71.4z M13.9,70.8c-0.1-0.1,0-0.3,0.1-0.4l0,0c0.1-0.1,0.3,0,0.4,0.1l0,0c0.1,0.1,0,0.3-0.1,0.4l0,0
				c0,0-0.1,0-0.1,0l0,0C14.1,70.9,14,70.9,13.9,70.8z M14.9,70.2c-0.1-0.1,0-0.3,0.1-0.4l0,0c0.1-0.1,0.3,0,0.4,0.1l0,0
				c0.1,0.1,0,0.3-0.1,0.4l0,0c0,0-0.1,0-0.1,0l0,0C15.1,70.3,15,70.3,14.9,70.2z M15.9,69.6c-0.1-0.1,0-0.3,0.1-0.4l0,0
				c0.1-0.1,0.3,0,0.4,0.1l0,0c0.1,0.1,0,0.3-0.1,0.4l0,0c0,0-0.1,0-0.1,0l0,0C16.1,69.8,16,69.7,15.9,69.6z M16.9,69.1
				c-0.1-0.1,0-0.3,0.1-0.4l0,0c0.1-0.1,0.3,0,0.4,0.1l0,0c0.1,0.1,0,0.3-0.1,0.4l0,0c0,0-0.1,0-0.1,0l0,0
				C17.1,69.2,17,69.1,16.9,69.1z M17.9,68.5c-0.1-0.1,0-0.3,0.1-0.4l0,0c0.1-0.1,0.3,0,0.4,0.1l0,0c0.1,0.1,0,0.3-0.1,0.4l0,0
				c0,0-0.1,0-0.1,0l0,0C18.1,68.6,18,68.6,17.9,68.5z M18.9,67.9c-0.1-0.1,0-0.3,0.1-0.4l0,0c0.1-0.1,0.3,0,0.4,0.1l0,0
				c0.1,0.1,0,0.3-0.1,0.4l0,0c0,0-0.1,0-0.1,0l0,0C19.1,68,19,68,18.9,67.9z M19.9,67.3c-0.1-0.1,0-0.3,0.1-0.4l0,0
				c0.1-0.1,0.3,0,0.4,0.1l0,0c0.1,0.1,0,0.3-0.1,0.4l0,0c0,0-0.1,0-0.1,0l0,0C20.1,67.5,20,67.4,19.9,67.3z M20.9,66.8
				c-0.1-0.1,0-0.3,0.1-0.4l0,0c0.1-0.1,0.3,0,0.4,0.1l0,0c0.1,0.1,0,0.3-0.1,0.4l0,0c0,0-0.1,0-0.1,0l0,0
				C21.1,66.9,21,66.8,20.9,66.8z M22,66.2c-0.1-0.1,0-0.3,0.1-0.4l0,0c0.1-0.1,0.3,0,0.4,0.1l0,0c0.1,0.1,0,0.3-0.1,0.4l0,0
				c0,0-0.1,0-0.1,0l0,0C22.1,66.3,22,66.3,22,66.2z M23,65.6c-0.1-0.1,0-0.3,0.1-0.4l0,0c0.1-0.1,0.3,0,0.4,0.1l0,0
				c0.1,0.1,0,0.3-0.1,0.4l0,0c0,0-0.1,0-0.1,0l0,0C23.1,65.7,23,65.7,23,65.6z M24,65c-0.1-0.1,0-0.3,0.1-0.4l0,0
				c0.1-0.1,0.3,0,0.4,0.1l0,0c0.1,0.1,0,0.3-0.1,0.4l0,0c0,0-0.1,0-0.1,0l0,0C24.1,65.2,24,65.1,24,65z M25,64.5
				c-0.1-0.1,0-0.3,0.1-0.4l0,0c0.1-0.1,0.3,0,0.4,0.1l0,0c0.1,0.1,0,0.3-0.1,0.4l0,0c0,0-0.1,0-0.1,0l0,0
				C25.1,64.6,25,64.5,25,64.5z M26,63.9c-0.1-0.1,0-0.3,0.1-0.4l0,0c0.1-0.1,0.3,0,0.4,0.1l0,0c0.1,0.1,0,0.3-0.1,0.4l0,0
				c0,0-0.1,0-0.1,0l0,0C26.1,64,26,64,26,63.9z M27,63.3c-0.1-0.1,0-0.3,0.1-0.4l0,0c0.1-0.1,0.3,0,0.4,0.1l0,0
				c0.1,0.1,0,0.3-0.1,0.4l0,0c0,0-0.1,0-0.1,0l0,0C27.1,63.4,27,63.4,27,63.3z M28,62.7c-0.1-0.1,0-0.3,0.1-0.4l0,0
				c0.1-0.1,0.3,0,0.4,0.1l0,0c0.1,0.1,0,0.3-0.1,0.4l0,0c0,0-0.1,0-0.1,0l0,0C28.1,62.9,28,62.8,28,62.7z M29,62.2
				c-0.1-0.1,0-0.3,0.1-0.4l0,0c0.1-0.1,0.3,0,0.4,0.1l0,0c0.1,0.1,0,0.3-0.1,0.4l0,0c0,0-0.1,0-0.1,0l0,0
				C29.1,62.3,29,62.2,29,62.2z M30,61.6c-0.1-0.1,0-0.3,0.1-0.4l0,0c0.1-0.1,0.3,0,0.4,0.1l0,0c0.1,0.1,0,0.3-0.1,0.4l0,0
				c0,0-0.1,0-0.1,0l0,0C30.2,61.7,30.1,61.7,30,61.6z M31,61c-0.1-0.1,0-0.3,0.1-0.4l0,0c0.1-0.1,0.3,0,0.4,0.1l0,0
				c0.1,0.1,0,0.3-0.1,0.4l0,0c0,0-0.1,0-0.1,0l0,0C31.2,61.1,31.1,61.1,31,61z M32,60.4c-0.1-0.1,0-0.3,0.1-0.4l0,0
				c0.1-0.1,0.3,0,0.4,0.1l0,0c0.1,0.1,0,0.3-0.1,0.4l0,0c0,0-0.1,0-0.1,0l0,0C32.2,60.6,32.1,60.5,32,60.4z M33,59.8
				c-0.1-0.1,0-0.3,0.1-0.4l0,0c0.1-0.1,0.3,0,0.4,0.1l0,0c0.1,0.1,0,0.3-0.1,0.4l0,0c0,0-0.1,0-0.1,0l0,0
				C33.2,60,33.1,59.9,33,59.8z M34,59.3c-0.1-0.1,0-0.3,0.1-0.4l0,0c0.1-0.1,0.3,0,0.4,0.1l0,0c0.1,0.1,0,0.3-0.1,0.4l0,0
				c0,0-0.1,0-0.1,0l0,0C34.2,59.4,34.1,59.4,34,59.3z M35,58.7c-0.1-0.1,0-0.3,0.1-0.4l0,0c0.1-0.1,0.3,0,0.4,0.1l0,0
				c0.1,0.1,0,0.3-0.1,0.4l0,0c0,0-0.1,0-0.1,0l0,0C35.2,58.8,35.1,58.8,35,58.7z M36,58.1c-0.1-0.1,0-0.3,0.1-0.4l0,0
				c0.1-0.1,0.3,0,0.4,0.1l0,0c0.1,0.1,0,0.3-0.1,0.4l0,0c0,0-0.1,0-0.1,0l0,0C36.2,58.3,36.1,58.2,36,58.1z M37,57.5
				c-0.1-0.1,0-0.3,0.1-0.4l0,0c0.1-0.1,0.3,0,0.4,0.1l0,0c0.1,0.1,0,0.3-0.1,0.4l0,0c0,0-0.1,0-0.1,0l0,0
				C37.2,57.7,37.1,57.6,37,57.5z M38,57c-0.1-0.1,0-0.3,0.1-0.4l0,0c0.1-0.1,0.3,0,0.4,0.1l0,0c0.1,0.1,0,0.3-0.1,0.4l0,0
				c0,0-0.1,0-0.1,0l0,0C38.2,57.1,38.1,57.1,38,57z M39.1,56.4c-0.1-0.1,0-0.3,0.1-0.4l0,0c0.1-0.1,0.3,0,0.4,0.1l0,0
				c0.1,0.1,0,0.3-0.1,0.4l0,0c0,0-0.1,0-0.1,0l0,0C39.2,56.5,39.1,56.5,39.1,56.4z M40.1,55.8c-0.1-0.1,0-0.3,0.1-0.4l0,0
				c0.1-0.1,0.3,0,0.4,0.1l0,0c0.1,0.1,0,0.3-0.1,0.4l0,0c0,0-0.1,0-0.1,0l0,0C40.2,56,40.1,55.9,40.1,55.8z M41.1,55.2
				c-0.1-0.1,0-0.3,0.1-0.4l0,0c0.1-0.1,0.3,0,0.4,0.1l0,0c0.1,0.1,0,0.3-0.1,0.4l0,0c0,0-0.1,0-0.1,0l0,0
				C41.2,55.4,41.1,55.3,41.1,55.2z M42.1,54.7c-0.1-0.1,0-0.3,0.1-0.4l0,0c0.1-0.1,0.3,0,0.4,0.1l0,0c0.1,0.1,0,0.3-0.1,0.4l0,0
				c0,0-0.1,0-0.1,0l0,0C42.2,54.8,42.1,54.8,42.1,54.7z M43.1,54.1c-0.1-0.1,0-0.3,0.1-0.4l0,0c0.1-0.1,0.3,0,0.4,0.1l0,0
				c0.1,0.1,0,0.3-0.1,0.4l0,0c0,0-0.1,0-0.1,0l0,0C43.2,54.2,43.1,54.2,43.1,54.1z M44.1,53.5c-0.1-0.1,0-0.3,0.1-0.4l0,0
				c0.1-0.1,0.3,0,0.4,0.1l0,0c0.1,0.1,0,0.3-0.1,0.4l0,0c0,0-0.1,0-0.1,0l0,0C44.2,53.7,44.1,53.6,44.1,53.5z M45.1,53
				c-0.1-0.1,0-0.3,0.1-0.4l0,0c0.1-0.1,0.3,0,0.4,0.1l0,0c0.1,0.1,0,0.3-0.1,0.4l0,0c0,0-0.1,0-0.1,0l0,0
				C45.2,53.1,45.1,53,45.1,53z M46.1,52.4c-0.1-0.1,0-0.3,0.1-0.4l0,0c0.1-0.1,0.3,0,0.4,0.1l0,0c0.1,0.1,0,0.3-0.1,0.4l0,0
				c0,0-0.1,0-0.1,0l0,0C46.2,52.5,46.1,52.5,46.1,52.4z M47.1,51.8c-0.1-0.1,0-0.3,0.1-0.4l0,0c0.1-0.1,0.3,0,0.4,0.1l0,0
				c0.1,0.1,0,0.3-0.1,0.4l0,0c0,0-0.1,0-0.1,0l0,0C47.2,51.9,47.2,51.9,47.1,51.8z M48.1,51.2c-0.1-0.1,0-0.3,0.1-0.4l0,0
				c0.1-0.1,0.3,0,0.4,0.1l0,0c0.1,0.1,0,0.3-0.1,0.4l0,0c0,0-0.1,0-0.1,0l0,0C48.3,51.4,48.2,51.3,48.1,51.2z M49.1,50.7
				c-0.1-0.1,0-0.3,0.1-0.4l0,0c0.1-0.1,0.3,0,0.4,0.1l0,0c0.1,0.1,0,0.3-0.1,0.4l0,0c0,0-0.1,0-0.1,0l0,0
				C49.3,50.8,49.2,50.7,49.1,50.7z"/>
		</g>
		<g>
			<path d="M50.4,50.2c-0.1,0-0.1,0-0.2-0.1c-0.1-0.1-0.1-0.1-0.1-0.2c0-0.1,0-0.2,0.1-0.2c0.1-0.1,0.3-0.1,0.4,0
				c0.1,0.1,0.1,0.1,0.1,0.2s0,0.1-0.1,0.2C50.5,50.2,50.4,50.2,50.4,50.2z"/>
		</g>
	</g>
	<g>
		<g>
			<path d="M88.4,71.8c-0.1,0-0.1,0-0.2-0.1c-0.1-0.1-0.1-0.1-0.1-0.2c0-0.1,0-0.2,0.1-0.2c0.1-0.1,0.3-0.1,0.4,0
				c0.1,0.1,0.1,0.1,0.1,0.2c0,0.1,0,0.1-0.1,0.2C88.6,71.8,88.5,71.8,88.4,71.8z"/>
		</g>
		<g>
			<path d="M87.3,71.2c-0.1-0.1-0.2-0.3-0.1-0.4l0,0c0.1-0.1,0.3-0.2,0.4-0.1l0,0c0.1,0.1,0.2,0.3,0.1,0.4l0,0
				c-0.1,0.1-0.1,0.1-0.2,0.1l0,0C87.4,71.2,87.3,71.2,87.3,71.2z M86.3,70.6c-0.1-0.1-0.2-0.3-0.1-0.4l0,0c0.1-0.1,0.3-0.2,0.4-0.1
				l0,0c0.1,0.1,0.2,0.3,0.1,0.4l0,0c-0.1,0.1-0.2,0.1-0.2,0.1l0,0C86.4,70.6,86.3,70.6,86.3,70.6z M85.3,70
				c-0.1-0.1-0.2-0.3-0.1-0.4l0,0c0.1-0.1,0.3-0.2,0.4-0.1l0,0c0.1,0.1,0.2,0.3,0.1,0.4l0,0c-0.1,0.1-0.2,0.1-0.2,0.1l0,0
				C85.4,70.1,85.3,70,85.3,70z M84.3,69.4c-0.1-0.1-0.2-0.3-0.1-0.4l0,0c0.1-0.1,0.3-0.2,0.4-0.1l0,0c0.1,0.1,0.2,0.3,0.1,0.4l0,0
				c-0.1,0.1-0.2,0.1-0.2,0.1l0,0C84.4,69.5,84.3,69.5,84.3,69.4z M83.3,68.9c-0.1-0.1-0.2-0.3-0.1-0.4l0,0c0.1-0.1,0.3-0.2,0.4-0.1
				l0,0c0.1,0.1,0.2,0.3,0.1,0.4l0,0c-0.1,0.1-0.2,0.1-0.2,0.1l0,0C83.4,68.9,83.3,68.9,83.3,68.9z M82.3,68.3
				c-0.1-0.1-0.2-0.3-0.1-0.4l0,0c0.1-0.1,0.3-0.2,0.4-0.1l0,0c0.1,0.1,0.2,0.3,0.1,0.4l0,0c-0.1,0.1-0.1,0.1-0.2,0.1l0,0
				C82.4,68.3,82.3,68.3,82.3,68.3z M81.3,67.7c-0.1-0.1-0.2-0.3-0.1-0.4l0,0c0.1-0.1,0.3-0.2,0.4-0.1l0,0c0.1,0.1,0.2,0.3,0.1,0.4
				l0,0c-0.1,0.1-0.1,0.1-0.2,0.1l0,0C81.4,67.8,81.3,67.7,81.3,67.7z M80.3,67.1c-0.1-0.1-0.2-0.3-0.1-0.4l0,0
				c0.1-0.1,0.3-0.2,0.4-0.1l0,0c0.1,0.1,0.2,0.3,0.1,0.4l0,0c-0.1,0.1-0.2,0.1-0.2,0.1l0,0C80.4,67.2,80.3,67.2,80.3,67.1z
				 M79.3,66.6c-0.1-0.1-0.2-0.3-0.1-0.4l0,0c0.1-0.1,0.3-0.2,0.4-0.1l0,0c0.1,0.1,0.2,0.3,0.1,0.4l0,0c-0.1,0.1-0.2,0.1-0.2,0.1
				l0,0C79.4,66.6,79.3,66.6,79.3,66.6z M78.3,66c-0.1-0.1-0.2-0.3-0.1-0.4l0,0c0.1-0.1,0.3-0.2,0.4-0.1l0,0
				c0.1,0.1,0.2,0.3,0.1,0.4l0,0C78.6,66,78.5,66,78.4,66l0,0C78.4,66,78.3,66,78.3,66z M77.3,65.4c-0.1-0.1-0.2-0.3-0.1-0.4l0,0
				c0.1-0.1,0.3-0.2,0.4-0.1l0,0c0.1,0.1,0.2,0.3,0.1,0.4l0,0c-0.1,0.1-0.1,0.1-0.2,0.1l0,0C77.4,65.5,77.3,65.4,77.3,65.4z
				 M76.3,64.8c-0.1-0.1-0.2-0.3-0.1-0.4l0,0c0.1-0.1,0.3-0.2,0.4-0.1l0,0c0.1,0.1,0.2,0.3,0.1,0.4l0,0c-0.1,0.1-0.1,0.1-0.2,0.1
				l0,0C76.4,64.9,76.3,64.9,76.3,64.8z M75.3,64.3c-0.1-0.1-0.2-0.3-0.1-0.4l0,0c0.1-0.1,0.3-0.2,0.4-0.1l0,0
				c0.1,0.1,0.2,0.3,0.1,0.4l0,0c-0.1,0.1-0.2,0.1-0.2,0.1l0,0C75.4,64.3,75.3,64.3,75.3,64.3z M74.3,63.7c-0.1-0.1-0.2-0.3-0.1-0.4
				l0,0c0.1-0.1,0.3-0.2,0.4-0.1l0,0c0.1,0.1,0.2,0.3,0.1,0.4l0,0c-0.1,0.1-0.2,0.1-0.2,0.1l0,0C74.4,63.7,74.3,63.7,74.3,63.7z
				 M73.3,63.1c-0.1-0.1-0.2-0.3-0.1-0.4l0,0c0.1-0.1,0.3-0.2,0.4-0.1l0,0c0.1,0.1,0.2,0.3,0.1,0.4l0,0c-0.1,0.1-0.1,0.1-0.2,0.1
				l0,0C73.4,63.2,73.3,63.1,73.3,63.1z M72.3,62.5c-0.1-0.1-0.2-0.3-0.1-0.4l0,0c0.1-0.1,0.3-0.2,0.4-0.1l0,0
				c0.1,0.1,0.2,0.3,0.1,0.4l0,0c-0.1,0.1-0.2,0.1-0.2,0.1l0,0C72.4,62.6,72.3,62.6,72.3,62.5z M71.3,62c-0.1-0.1-0.2-0.3-0.1-0.4
				l0,0c0.1-0.1,0.3-0.2,0.4-0.1l0,0c0.1,0.1,0.2,0.3,0.1,0.4l0,0C71.6,62,71.5,62,71.4,62l0,0C71.4,62,71.3,62,71.3,62z M70.3,61.4
				c-0.1-0.1-0.2-0.3-0.1-0.4l0,0c0.1-0.1,0.3-0.2,0.4-0.1l0,0c0.1,0.1,0.2,0.3,0.1,0.4l0,0c-0.1,0.1-0.2,0.1-0.2,0.1l0,0
				C70.4,61.4,70.3,61.4,70.3,61.4z M69.3,60.8c-0.1-0.1-0.2-0.3-0.1-0.4l0,0c0.1-0.1,0.3-0.2,0.4-0.1l0,0c0.1,0.1,0.2,0.3,0.1,0.4
				l0,0c-0.1,0.1-0.2,0.1-0.2,0.1l0,0C69.4,60.9,69.3,60.8,69.3,60.8z M68.3,60.2c-0.1-0.1-0.2-0.3-0.1-0.4l0,0
				c0.1-0.1,0.3-0.2,0.4-0.1l0,0c0.1,0.1,0.2,0.3,0.1,0.4l0,0c-0.1,0.1-0.1,0.1-0.2,0.1l0,0C68.4,60.3,68.3,60.3,68.3,60.2z
				 M67.3,59.7c-0.1-0.1-0.2-0.3-0.1-0.4l0,0c0.1-0.1,0.3-0.2,0.4-0.1l0,0c0.1,0.1,0.2,0.3,0.1,0.4l0,0c-0.1,0.1-0.2,0.1-0.2,0.1
				l0,0C67.3,59.7,67.3,59.7,67.3,59.7z M66.3,59.1c-0.1-0.1-0.2-0.3-0.1-0.4l0,0c0.1-0.1,0.3-0.2,0.4-0.1l0,0
				c0.1,0.1,0.2,0.3,0.1,0.4l0,0c-0.1,0.1-0.1,0.1-0.2,0.1l0,0C66.3,59.1,66.3,59.1,66.3,59.1z M65.3,58.5c-0.1-0.1-0.2-0.3-0.1-0.4
				l0,0c0.1-0.1,0.3-0.2,0.4-0.1l0,0c0.1,0.1,0.2,0.3,0.1,0.4l0,0c-0.1,0.1-0.2,0.1-0.2,0.1l0,0C65.3,58.6,65.3,58.5,65.3,58.5z
				 M64.2,57.9c-0.1-0.1-0.2-0.3-0.1-0.4l0,0c0.1-0.1,0.3-0.2,0.4-0.1l0,0c0.1,0.1,0.2,0.3,0.1,0.4l0,0c-0.1,0.1-0.2,0.1-0.2,0.1
				l0,0C64.3,58,64.3,58,64.2,57.9z M63.2,57.4c-0.1-0.1-0.2-0.3-0.1-0.4l0,0c0.1-0.1,0.3-0.2,0.4-0.1l0,0c0.1,0.1,0.2,0.3,0.1,0.4
				l0,0c-0.1,0.1-0.1,0.1-0.2,0.1l0,0C63.3,57.4,63.3,57.4,63.2,57.4z M62.2,56.8c-0.1-0.1-0.2-0.3-0.1-0.4l0,0
				c0.1-0.1,0.3-0.2,0.4-0.1l0,0c0.1,0.1,0.2,0.3,0.1,0.4l0,0c-0.1,0.1-0.2,0.1-0.2,0.1l0,0C62.3,56.8,62.3,56.8,62.2,56.8z
				 M61.2,56.2c-0.1-0.1-0.2-0.3-0.1-0.4l0,0c0.1-0.1,0.3-0.2,0.4-0.1l0,0c0.1,0.1,0.2,0.3,0.1,0.4l0,0c-0.1,0.1-0.1,0.1-0.2,0.1
				l0,0C61.3,56.3,61.3,56.2,61.2,56.2z M60.2,55.6c-0.1-0.1-0.2-0.3-0.1-0.4l0,0c0.1-0.1,0.3-0.2,0.4-0.1l0,0
				c0.1,0.1,0.2,0.3,0.1,0.4l0,0c-0.1,0.1-0.1,0.1-0.2,0.1l0,0C60.3,55.7,60.3,55.7,60.2,55.6z M59.2,55.1c-0.1-0.1-0.2-0.3-0.1-0.4
				l0,0c0.1-0.1,0.3-0.2,0.4-0.1l0,0c0.1,0.1,0.2,0.3,0.1,0.4l0,0c-0.1,0.1-0.2,0.1-0.2,0.1l0,0C59.3,55.1,59.3,55.1,59.2,55.1z
				 M58.2,54.5c-0.1-0.1-0.2-0.3-0.1-0.4l0,0c0.1-0.1,0.3-0.2,0.4-0.1l0,0c0.1,0.1,0.2,0.3,0.1,0.4l0,0c-0.1,0.1-0.1,0.1-0.2,0.1
				l0,0C58.3,54.5,58.3,54.5,58.2,54.5z M57.2,53.9c-0.1-0.1-0.2-0.3-0.1-0.4l0,0c0.1-0.1,0.3-0.2,0.4-0.1l0,0
				c0.1,0.1,0.2,0.3,0.1,0.4l0,0c-0.1,0.1-0.2,0.1-0.2,0.1l0,0C57.3,54,57.3,53.9,57.2,53.9z M56.2,53.3c-0.1-0.1-0.2-0.3-0.1-0.4
				l0,0c0.1-0.1,0.3-0.2,0.4-0.1l0,0c0.1,0.1,0.2,0.3,0.1,0.4l0,0c-0.1,0.1-0.2,0.1-0.2,0.1l0,0C56.3,53.4,56.3,53.4,56.2,53.3z
				 M55.2,52.8c-0.1-0.1-0.2-0.3-0.1-0.4l0,0c0.1-0.1,0.3-0.2,0.4-0.1l0,0c0.1,0.1,0.2,0.3,0.1,0.4l0,0c-0.1,0.1-0.1,0.1-0.2,0.1
				l0,0C55.3,52.8,55.3,52.8,55.2,52.8z M54.2,52.2c-0.1-0.1-0.2-0.3-0.1-0.4l0,0c0.1-0.1,0.3-0.2,0.4-0.1l0,0
				c0.1,0.1,0.2,0.3,0.1,0.4l0,0c-0.1,0.1-0.2,0.1-0.2,0.1l0,0C54.3,52.2,54.3,52.2,54.2,52.2z M53.2,51.6c-0.1-0.1-0.2-0.3-0.1-0.4
				l0,0c0.1-0.1,0.3-0.2,0.4-0.1l0,0c0.1,0.1,0.2,0.3,0.1,0.4l0,0c-0.1,0.1-0.1,0.1-0.2,0.1l0,0C53.3,51.7,53.3,51.6,53.2,51.6z
				 M52.2,51c-0.1-0.1-0.2-0.3-0.1-0.4l0,0c0.1-0.1,0.3-0.2,0.4-0.1l0,0c0.1,0.1,0.2,0.3,0.1,0.4l0,0c-0.1,0.1-0.2,0.1-0.2,0.1l0,0
				C52.3,51.1,52.3,51.1,52.2,51z M51.2,50.5c-0.1-0.1-0.2-0.3-0.1-0.4l0,0c0.1-0.1,0.3-0.2,0.4-0.1l0,0c0.1,0.1,0.2,0.3,0.1,0.4
				l0,0c-0.1,0.1-0.2,0.1-0.2,0.1l0,0C51.3,50.5,51.3,50.5,51.2,50.5z"/>
		</g>
		<g>
			<path d="M50.4,49.9c-0.1,0-0.1,0-0.2-0.1c-0.1-0.1-0.1-0.1-0.1-0.2c0-0.1,0-0.2,0.1-0.2c0.1-0.1,0.3-0.1,0.4,0
				c0.1,0.1,0.1,0.1,0.1,0.2c0,0.1,0,0.1-0.1,0.2C50.5,49.9,50.4,49.9,50.4,49.9z"/>
		</g>
	</g>
	<g>
		<rect x="50.2" y="49.6" width="0.6" height="44"/>
	</g>
	<g>
		<rect x="47.6" y="38.4" transform="matrix(0.8665 -0.4992 0.4992 0.8665 -10.0526 39.847)" width="43.8" height="0.6"/>
	</g>
	<g>
		<rect x="31" y="16.8" transform="matrix(0.4978 -0.8673 0.8673 0.4978 -17.8408 46.6191)" width="0.6" height="43.9"/>
	</g>
	<g>
		<path d="M50.4,94l-0.1-0.1L11.9,71.7V27.3l0.1-0.1L50.4,5l38.5,22.2v44.5l-0.1,0.1L50.4,94z M12.4,71.4l37.9,21.9l37.9-21.9V27.6
			L50.4,5.7L12.4,27.6V71.4z"/>
	</g>
</g>
</svg>
