<?xml version="1.0" encoding="utf-8"?>
<!-- Generator: Adobe Illustrator 19.2.1, SVG Export Plug-In . SVG Version: 6.00 Build 0)  -->
<svg version="1.1" id="Layer_1" xmlns="http://www.w3.org/2000/svg" xmlns:xlink="http://www.w3.org/1999/xlink" x="0px" y="0px"
	 viewBox="0 0 100 125" style="enable-background:new 0 0 100 125;" xml:space="preserve">
<g>
	<g>
		<rect x="85.3" y="11.1" transform="matrix(0.8596 -0.511 0.511 0.8596 -2.7786 47.8103)" width="0.6" height="35.6"/>
	</g>
	<g>
		<path d="M24.3,64.4c-0.1-0.1,0-0.3,0.1-0.4l0,0c0.1-0.1,0.3,0,0.4,0.1l0,0c0.1,0.1,0,0.3-0.1,0.4l0,0c0,0-0.1,0-0.1,0l0,0
			C24.5,64.6,24.4,64.5,24.3,64.4z M23.5,64.1c-0.1-0.1-0.1-0.3,0-0.4l0,0c0.1-0.1,0.3-0.1,0.4,0l0,0c0.1,0.1,0.1,0.3,0,0.4l0,0
			c-0.1,0.1-0.1,0.1-0.2,0.1l0,0C23.6,64.2,23.5,64.1,23.5,64.1z M25.3,63.9c-0.1-0.1,0-0.3,0.1-0.4l0,0c0.1-0.1,0.3,0,0.4,0.1l0,0
			c0.1,0.1,0,0.3-0.1,0.4l0,0c0,0-0.1,0-0.1,0l0,0C25.5,64,25.4,63.9,25.3,63.9z M26.4,63.3c-0.1-0.1,0-0.3,0.1-0.4l0,0
			c0.1-0.1,0.3,0,0.4,0.1l0,0c0.1,0.1,0,0.3-0.1,0.4l0,0c0,0-0.1,0-0.1,0l0,0C26.5,63.4,26.4,63.4,26.4,63.3z M22.7,63.2
			c-0.1-0.1-0.1-0.3,0-0.4l0,0c0.1-0.1,0.3-0.1,0.4,0l0,0c0.1,0.1,0.1,0.3,0,0.4l0,0c-0.1,0-0.1,0.1-0.2,0.1l0,0
			C22.8,63.3,22.8,63.2,22.7,63.2z M27.4,62.7c-0.1-0.1,0-0.3,0.1-0.4l0,0c0.1-0.1,0.3,0,0.4,0.1l0,0c0.1,0.1,0,0.3-0.1,0.4l0,0
			c0,0-0.1,0-0.1,0l0,0C27.5,62.9,27.4,62.8,27.4,62.7z M21.9,62.3c-0.1-0.1-0.1-0.3,0-0.4l0,0c0.1-0.1,0.3-0.1,0.4,0l0,0
			c0.1,0.1,0.1,0.3,0,0.4l0,0c-0.1,0-0.1,0.1-0.2,0.1l0,0C22,62.4,22,62.4,21.9,62.3z M28.4,62.1c-0.1-0.1,0-0.3,0.1-0.4l0,0
			c0.1-0.1,0.3,0,0.4,0.1l0,0c0.1,0.1,0,0.3-0.1,0.4l0,0c0,0-0.1,0-0.1,0l0,0C28.6,62.3,28.5,62.2,28.4,62.1z M29.4,61.6
			c-0.1-0.1,0-0.3,0.1-0.4l0,0c0.1-0.1,0.3,0,0.4,0.1l0,0c0.1,0.1,0,0.3-0.1,0.4l0,0c0,0-0.1,0-0.1,0l0,0
			C29.6,61.7,29.5,61.7,29.4,61.6z M21.1,61.4c-0.1-0.1-0.1-0.3,0-0.4l0,0c0.1-0.1,0.3-0.1,0.4,0l0,0c0.1,0.1,0.1,0.3,0,0.4l0,0
			c-0.1,0.1-0.1,0.1-0.2,0.1l0,0C21.3,61.5,21.2,61.5,21.1,61.4z M30.5,61c-0.1-0.1,0-0.3,0.1-0.4l0,0c0.1-0.1,0.3,0,0.4,0.1l0,0
			c0.1,0.1,0,0.3-0.1,0.4l0,0c0,0-0.1,0-0.1,0l0,0C30.6,61.1,30.5,61.1,30.5,61z M20.3,60.6c-0.1-0.1-0.1-0.3,0-0.4l0,0
			c0.1-0.1,0.3-0.1,0.4,0l0,0c0.1,0.1,0.1,0.3,0,0.4l0,0c-0.1,0.1-0.1,0.1-0.2,0.1l0,0C20.5,60.7,20.4,60.6,20.3,60.6z M31.5,60.4
			c-0.1-0.1,0-0.3,0.1-0.4l0,0c0.1-0.1,0.3,0,0.4,0.1l0,0c0.1,0.1,0,0.3-0.1,0.4l0,0c0,0-0.1,0-0.1,0l0,0
			C31.6,60.6,31.5,60.5,31.5,60.4z M32.5,59.8c-0.1-0.1,0-0.3,0.1-0.4l0,0c0.1-0.1,0.3,0,0.4,0.1l0,0c0.1,0.1,0,0.3-0.1,0.4l0,0
			c0,0-0.1,0-0.1,0l0,0C32.7,60,32.6,59.9,32.5,59.8z M19.5,59.7c-0.1-0.1-0.1-0.3,0-0.4l0,0c0.1-0.1,0.3-0.1,0.4,0l0,0
			c0.1,0.1,0.1,0.3,0,0.4l0,0c-0.1,0-0.1,0.1-0.2,0.1l0,0C19.7,59.8,19.6,59.8,19.5,59.7z M33.5,59.3c-0.1-0.1,0-0.3,0.1-0.4l0,0
			c0.1-0.1,0.3,0,0.4,0.1l0,0c0.1,0.1,0,0.3-0.1,0.4l0,0c0,0-0.1,0-0.1,0l0,0C33.7,59.4,33.6,59.4,33.5,59.3z M18.8,58.8
			c-0.1-0.1-0.1-0.3,0-0.4l0,0c0.1-0.1,0.3-0.1,0.4,0l0,0c0.1,0.1,0.1,0.3,0,0.4l0,0c-0.1,0-0.1,0.1-0.2,0.1l0,0
			C18.9,58.9,18.8,58.9,18.8,58.8z M34.6,58.7c-0.1-0.1,0-0.3,0.1-0.4l0,0c0.1-0.1,0.3,0,0.4,0.1l0,0c0.1,0.1,0,0.3-0.1,0.4l0,0
			c0,0-0.1,0-0.1,0l0,0C34.7,58.8,34.6,58.8,34.6,58.7z M35.6,58.1c-0.1-0.1,0-0.3,0.1-0.4l0,0c0.1-0.1,0.3,0,0.4,0.1l0,0
			c0.1,0.1,0,0.3-0.1,0.4l0,0c0,0-0.1,0-0.1,0l0,0C35.7,58.3,35.6,58.2,35.6,58.1z M18,57.9c-0.1-0.1-0.1-0.3,0-0.4l0,0
			c0.1-0.1,0.3-0.1,0.4,0l0,0c0.1,0.1,0.1,0.3,0,0.4l0,0c-0.1,0-0.1,0.1-0.2,0.1l0,0C18.1,58,18,58,18,57.9z M36.6,57.5
			c-0.1-0.1,0-0.3,0.1-0.4l0,0c0.1-0.1,0.3,0,0.4,0.1l0,0c0.1,0.1,0,0.3-0.1,0.4l0,0c0,0-0.1,0-0.1,0l0,0
			C36.8,57.7,36.7,57.6,36.6,57.5z M17.2,57.1c-0.1-0.1-0.1-0.3,0-0.4l0,0c0.1-0.1,0.3-0.1,0.4,0l0,0c0.1,0.1,0.1,0.3,0,0.4l0,0
			c-0.1,0-0.1,0.1-0.2,0.1l0,0C17.3,57.2,17.2,57.1,17.2,57.1z M37.6,57c-0.1-0.1,0-0.3,0.1-0.4l0,0c0.1-0.1,0.3,0,0.4,0.1l0,0
			c0.1,0.1,0,0.3-0.1,0.4l0,0c0,0-0.1,0-0.1,0l0,0C37.8,57.1,37.7,57.1,37.6,57z M38.7,56.4c-0.1-0.1,0-0.3,0.1-0.4l0,0
			c0.1-0.1,0.3,0,0.4,0.1l0,0c0.1,0.1,0,0.3-0.1,0.4l0,0c0,0-0.1,0-0.1,0l0,0C38.8,56.5,38.7,56.5,38.7,56.4z M16.4,56.2
			c-0.1-0.1-0.1-0.3,0-0.4l0,0c0.1-0.1,0.3-0.1,0.4,0l0,0c0.1,0.1,0.1,0.3,0,0.4l0,0c-0.1,0-0.1,0.1-0.2,0.1l0,0
			C16.5,56.3,16.5,56.3,16.4,56.2z M39.7,55.8c-0.1-0.1,0-0.3,0.1-0.4l0,0c0.1-0.1,0.3,0,0.4,0.1l0,0c0.1,0.1,0,0.3-0.1,0.4l0,0
			c0,0-0.1,0-0.1,0l0,0C39.9,56,39.8,55.9,39.7,55.8z M15.6,55.3c-0.1-0.1-0.1-0.3,0-0.4l0,0c0.1-0.1,0.3-0.1,0.4,0l0,0
			c0.1,0.1,0.1,0.3,0,0.4l0,0c-0.1,0-0.1,0.1-0.2,0.1l0,0C15.7,55.4,15.7,55.4,15.6,55.3z M40.7,55.2c-0.1-0.1,0-0.3,0.1-0.4l0,0
			c0.1-0.1,0.3,0,0.4,0.1l0,0c0.1,0.1,0,0.3-0.1,0.4l0,0c0,0-0.1,0-0.1,0l0,0C40.9,55.4,40.8,55.3,40.7,55.2z M41.8,54.7
			c-0.1-0.1,0-0.3,0.1-0.4l0,0c0.1-0.1,0.3,0,0.4,0.1l0,0c0.1,0.1,0,0.3-0.1,0.4l0,0c0,0-0.1,0-0.1,0l0,0
			C41.9,54.8,41.8,54.8,41.8,54.7z M14.8,54.5c-0.1-0.1-0.1-0.3,0-0.4l0,0c0.1-0.1,0.3-0.1,0.4,0l0,0c0.1,0.1,0.1,0.3,0,0.4l0,0
			c-0.1,0-0.1,0.1-0.2,0.1l0,0C15,54.5,14.9,54.5,14.8,54.5z M42.8,54.1c-0.1-0.1,0-0.3,0.1-0.4l0,0c0.1-0.1,0.3,0,0.4,0.1l0,0
			c0.1,0.1,0,0.3-0.1,0.4l0,0c0,0-0.1,0-0.1,0l0,0C42.9,54.2,42.8,54.2,42.8,54.1z M14,53.6c-0.1-0.1-0.1-0.3,0-0.4l0,0
			c0.1-0.1,0.3-0.1,0.4,0l0,0c0.1,0.1,0.1,0.3,0,0.4l0,0c-0.1,0-0.1,0.1-0.2,0.1l0,0C14.2,53.7,14.1,53.6,14,53.6z M43.8,53.5
			c-0.1-0.1,0-0.3,0.1-0.4l0,0c0.1-0.1,0.3,0,0.4,0.1l0,0c0.1,0.1,0,0.3-0.1,0.4l0,0c0,0-0.1,0-0.1,0l0,0
			C44,53.7,43.9,53.6,43.8,53.5z M44.8,52.9c-0.1-0.1,0-0.3,0.1-0.4l0,0c0.1-0.1,0.3,0,0.4,0.1l0,0c0.1,0.1,0,0.3-0.1,0.4l0,0
			c0,0-0.1,0-0.1,0l0,0C45,53.1,44.9,53,44.8,52.9z M13.2,52.7c-0.1-0.1-0.1-0.3,0-0.4l0,0c0.1-0.1,0.3-0.1,0.4,0l0,0
			c0.1,0.1,0.1,0.3,0,0.4l0,0c-0.1,0.1-0.1,0.1-0.2,0.1l0,0C13.4,52.8,13.3,52.8,13.2,52.7z M45.9,52.4c-0.1-0.1,0-0.3,0.1-0.4l0,0
			c0.1-0.1,0.3,0,0.4,0.1l0,0c0.1,0.1,0,0.3-0.1,0.4l0,0c0,0-0.1,0-0.1,0l0,0C46,52.5,45.9,52.5,45.9,52.4z M46.9,51.8
			c-0.1-0.1,0-0.3,0.1-0.4l0,0c0.1-0.1,0.3,0,0.4,0.1l0,0c0.1,0.1,0,0.3-0.1,0.4l0,0c0,0-0.1,0-0.1,0l0,0
			C47,51.9,46.9,51.9,46.9,51.8z M12.5,51.8c-0.1-0.1-0.1-0.3,0-0.4l0,0c0.1-0.1,0.3-0.1,0.4,0l0,0c0.1,0.1,0.1,0.3,0,0.4l0,0
			c-0.1,0.1-0.1,0.1-0.2,0.1l0,0C12.6,51.9,12.5,51.9,12.5,51.8z M47.9,51.2c-0.1-0.1,0-0.3,0.1-0.4l0,0c0.1-0.1,0.3,0,0.4,0.1l0,0
			c0.1,0.1,0,0.3-0.1,0.4l0,0c0,0-0.1,0-0.1,0l0,0C48.1,51.4,48,51.3,47.9,51.2z M11.7,51c-0.1-0.1-0.1-0.3,0-0.4l0,0
			c0.1-0.1,0.3-0.1,0.4,0l0,0c0.1,0.1,0.1,0.3,0,0.4l0,0C12,51,12,51.1,11.9,51.1l0,0C11.8,51.1,11.7,51,11.7,51z M48.9,50.6
			c-0.1-0.1,0-0.3,0.1-0.4l0,0c0.1-0.1,0.3,0,0.4,0.1l0,0c0.1,0.1,0,0.3-0.1,0.4l0,0c0,0-0.1,0-0.1,0l0,0
			C49.1,50.8,49,50.7,48.9,50.6z M50,50.1c-0.1-0.1,0-0.3,0.1-0.4l0,0c0.1-0.1,0.3,0,0.4,0.1l0,0c0.1,0.1,0,0.3-0.1,0.4l0,0
			c0,0-0.1,0-0.1,0l0,0C50.1,50.2,50,50.2,50,50.1z M10.9,50.1c-0.1-0.1-0.1-0.3,0-0.4l0,0c0.1-0.1,0.3-0.1,0.4,0l0,0
			c0.1,0.1,0.1,0.3,0,0.4l0,0c-0.1,0.1-0.1,0.1-0.2,0.1l0,0C11,50.2,10.9,50.1,10.9,50.1z M10.1,49.2c-0.1-0.1-0.1-0.3,0-0.4l0,0
			c0.1-0.1,0.3-0.1,0.4,0l0,0c0.1,0.1,0.1,0.3,0,0.4l0,0c-0.1,0-0.1,0.1-0.2,0.1l0,0C10.2,49.3,10.2,49.3,10.1,49.2z M50.2,49
			c-0.2,0-0.3-0.1-0.3-0.3l0,0c0-0.2,0.1-0.3,0.3-0.3l0,0c0.2,0,0.3,0.1,0.3,0.3l0,0C50.5,48.9,50.4,49,50.2,49L50.2,49
			C50.2,49,50.2,49,50.2,49z M9.3,48.3c-0.1-0.1-0.1-0.3,0-0.4l0,0c0.1-0.1,0.3-0.1,0.4,0l0,0c0.1,0.1,0.1,0.3,0,0.4l0,0
			c-0.1,0-0.1,0.1-0.2,0.1l0,0C9.4,48.4,9.4,48.4,9.3,48.3z M50.3,47.9c-0.2,0-0.3-0.1-0.3-0.3l0,0c0-0.2,0.1-0.3,0.3-0.3l0,0
			c0.2,0,0.3,0.1,0.3,0.3l0,0C50.6,47.7,50.4,47.9,50.3,47.9L50.3,47.9C50.3,47.9,50.3,47.9,50.3,47.9z M8.5,47.5
			c-0.1-0.1-0.1-0.3,0-0.4l0,0c0.1-0.1,0.3-0.1,0.4,0l0,0c0.1,0.1,0.1,0.3,0,0.4l0,0c-0.1,0-0.1,0.1-0.2,0.1l0,0
			C8.7,47.6,8.6,47.5,8.5,47.5z M50.3,46.7c-0.2,0-0.3-0.1-0.3-0.3l0,0c0-0.2,0.1-0.3,0.3-0.3l0,0c0.2,0,0.3,0.1,0.3,0.3l0,0
			C50.6,46.6,50.5,46.7,50.3,46.7L50.3,46.7L50.3,46.7z M7.7,46.6c-0.1-0.1-0.1-0.3,0-0.4l0,0c0.1-0.1,0.3-0.1,0.4,0l0,0
			c0.1,0.1,0.1,0.3,0,0.4l0,0c-0.1,0-0.1,0.1-0.2,0.1l0,0C7.9,46.7,7.8,46.7,7.7,46.6z M6.9,45.7c-0.1-0.1-0.1-0.3,0-0.4l0,0
			c0.1-0.1,0.3-0.1,0.4,0l0,0c0.1,0.1,0.1,0.3,0,0.4l0,0c-0.1,0-0.1,0.1-0.2,0.1l0,0C7.1,45.8,7,45.8,6.9,45.7z M50.3,45.5
			c-0.2,0-0.3-0.1-0.3-0.3l0,0c0-0.2,0.1-0.3,0.3-0.3l0,0c0.2,0,0.3,0.1,0.3,0.3l0,0C50.6,45.4,50.5,45.5,50.3,45.5L50.3,45.5
			C50.3,45.5,50.3,45.5,50.3,45.5z M6.2,44.8c-0.1-0.1-0.1-0.3,0-0.4l0,0c0.1-0.1,0.3-0.1,0.4,0l0,0c0.1,0.1,0.1,0.3,0,0.4l0,0
			c-0.1,0-0.1,0.1-0.2,0.1l0,0C6.3,44.9,6.2,44.9,6.2,44.8z M50.3,44.3c-0.2,0-0.3-0.1-0.3-0.3l0,0c0-0.2,0.1-0.3,0.3-0.3l0,0
			c0.2,0,0.3,0.1,0.3,0.3l0,0C50.6,44.2,50.5,44.3,50.3,44.3L50.3,44.3C50.3,44.3,50.3,44.3,50.3,44.3z M50.4,43.2
			c-0.2,0-0.3-0.1-0.3-0.3l0,0c0-0.2,0.1-0.3,0.3-0.3l0,0c0.2,0,0.3,0.1,0.3,0.3l0,0C50.7,43,50.5,43.2,50.4,43.2L50.4,43.2
			C50.4,43.2,50.4,43.2,50.4,43.2z M50.4,42c-0.2,0-0.3-0.1-0.3-0.3l0,0c0-0.2,0.1-0.3,0.3-0.3l0,0c0.2,0,0.3,0.1,0.3,0.3l0,0
			C50.7,41.9,50.5,42,50.4,42L50.4,42C50.4,42,50.4,42,50.4,42z M50.4,40.8c-0.2,0-0.3-0.1-0.3-0.3l0,0c0-0.2,0.1-0.3,0.3-0.3l0,0
			c0.2,0,0.3,0.1,0.3,0.3l0,0C50.7,40.7,50.6,40.8,50.4,40.8L50.4,40.8C50.4,40.8,50.4,40.8,50.4,40.8z M50.4,39.6
			c-0.2,0-0.3-0.1-0.3-0.3l0,0c0-0.2,0.1-0.3,0.3-0.3l0,0c0.2,0,0.3,0.1,0.3,0.3l0,0C50.7,39.5,50.6,39.6,50.4,39.6L50.4,39.6
			C50.4,39.6,50.4,39.6,50.4,39.6z M50.5,38.5c-0.2,0-0.3-0.1-0.3-0.3l0,0c0-0.2,0.1-0.3,0.3-0.3l0,0c0.2,0,0.3,0.1,0.3,0.3l0,0
			C50.7,38.3,50.6,38.5,50.5,38.5L50.5,38.5C50.5,38.5,50.5,38.5,50.5,38.5z M50.5,37.3c-0.2,0-0.3-0.1-0.3-0.3l0,0
			c0-0.2,0.1-0.3,0.3-0.3l0,0c0.2,0,0.3,0.1,0.3,0.3l0,0C50.8,37.2,50.6,37.3,50.5,37.3L50.5,37.3C50.5,37.3,50.5,37.3,50.5,37.3z
			 M50.5,36.1c-0.2,0-0.3-0.1-0.3-0.3l0,0c0-0.2,0.1-0.3,0.3-0.3l0,0c0.2,0,0.3,0.1,0.3,0.3l0,0C50.8,36,50.7,36.1,50.5,36.1
			L50.5,36.1C50.5,36.1,50.5,36.1,50.5,36.1z M50.5,34.9c-0.2,0-0.3-0.1-0.3-0.3l0,0c0-0.2,0.1-0.3,0.3-0.3l0,0
			c0.2,0,0.3,0.1,0.3,0.3l0,0C50.8,34.8,50.7,34.9,50.5,34.9L50.5,34.9C50.5,34.9,50.5,34.9,50.5,34.9z M50.5,33.8
			c-0.2,0-0.3-0.1-0.3-0.3l0,0c0-0.2,0.1-0.3,0.3-0.3l0,0c0.2,0,0.3,0.1,0.3,0.3l0,0C50.8,33.6,50.7,33.8,50.5,33.8L50.5,33.8
			L50.5,33.8z M50.6,32.6c-0.2,0-0.3-0.1-0.3-0.3l0,0c0-0.2,0.1-0.3,0.3-0.3l0,0c0.2,0,0.3,0.1,0.3,0.3l0,0
			C50.9,32.5,50.7,32.6,50.6,32.6L50.6,32.6C50.6,32.6,50.6,32.6,50.6,32.6z M50.6,31.4c-0.2,0-0.3-0.1-0.3-0.3l0,0
			c0-0.2,0.1-0.3,0.3-0.3l0,0c0.2,0,0.3,0.1,0.3,0.3l0,0C50.9,31.3,50.8,31.4,50.6,31.4L50.6,31.4C50.6,31.4,50.6,31.4,50.6,31.4z
			 M50.6,30.2c-0.2,0-0.3-0.1-0.3-0.3l0,0c0-0.2,0.1-0.3,0.3-0.3l0,0c0.2,0,0.3,0.1,0.3,0.3l0,0C50.9,30.1,50.8,30.2,50.6,30.2
			L50.6,30.2C50.6,30.2,50.6,30.2,50.6,30.2z M50.6,29.1c-0.2,0-0.3-0.1-0.3-0.3l0,0c0-0.2,0.1-0.3,0.3-0.3l0,0
			c0.2,0,0.3,0.1,0.3,0.3l0,0C50.9,28.9,50.8,29.1,50.6,29.1L50.6,29.1C50.6,29.1,50.6,29.1,50.6,29.1z M50.7,27.9
			c-0.2,0-0.3-0.1-0.3-0.3l0,0c0-0.2,0.1-0.3,0.3-0.3l0,0c0.2,0,0.3,0.1,0.3,0.3l0,0C51,27.8,50.8,27.9,50.7,27.9L50.7,27.9
			C50.7,27.9,50.7,27.9,50.7,27.9z M50.7,26.7c-0.2,0-0.3-0.1-0.3-0.3l0,0c0-0.2,0.1-0.3,0.3-0.3l0,0c0.2,0,0.3,0.1,0.3,0.3l0,0
			C51,26.6,50.9,26.7,50.7,26.7L50.7,26.7C50.7,26.7,50.7,26.7,50.7,26.7z M50.7,25.5c-0.2,0-0.3-0.1-0.3-0.3l0,0
			c0-0.2,0.1-0.3,0.3-0.3l0,0c0.2,0,0.3,0.1,0.3,0.3l0,0C51,25.4,50.9,25.5,50.7,25.5L50.7,25.5C50.7,25.5,50.7,25.5,50.7,25.5z
			 M50.7,24.4c-0.2,0-0.3-0.1-0.3-0.3l0,0c0-0.2,0.1-0.3,0.3-0.3l0,0c0.2,0,0.3,0.1,0.3,0.3l0,0C51,24.2,50.9,24.4,50.7,24.4
			L50.7,24.4C50.7,24.4,50.7,24.4,50.7,24.4z M50.8,23.2c-0.2,0-0.3-0.1-0.3-0.3l0,0c0-0.2,0.1-0.3,0.3-0.3l0,0
			c0.2,0,0.3,0.1,0.3,0.3l0,0C51,23.1,50.9,23.2,50.8,23.2L50.8,23.2C50.8,23.2,50.8,23.2,50.8,23.2z M50.8,22
			c-0.2,0-0.3-0.1-0.3-0.3l0,0c0-0.2,0.1-0.3,0.3-0.3l0,0c0.2,0,0.3,0.1,0.3,0.3l0,0C51.1,21.9,50.9,22,50.8,22L50.8,22
			C50.8,22,50.8,22,50.8,22z M50.8,20.8c-0.2,0-0.3-0.1-0.3-0.3l0,0c0-0.2,0.1-0.3,0.3-0.3l0,0c0.2,0,0.3,0.1,0.3,0.3l0,0
			C51.1,20.7,51,20.8,50.8,20.8L50.8,20.8C50.8,20.8,50.8,20.8,50.8,20.8z M50.8,19.6c0-0.2,0.1-0.3,0.2-0.4l0,0
			c0.2,0,0.3,0.1,0.4,0.2l0,0c0,0.2-0.1,0.3-0.2,0.4l0,0c0,0,0,0-0.1,0l0,0C51,19.9,50.8,19.8,50.8,19.6z M52,19.4
			c0-0.2,0.1-0.3,0.2-0.4l0,0c0.2,0,0.3,0.1,0.4,0.2l0,0c0,0.2-0.1,0.3-0.2,0.4l0,0c0,0,0,0-0.1,0l0,0C52.1,19.6,52,19.5,52,19.4z
			 M53.1,19.1c0-0.2,0.1-0.3,0.2-0.4l0,0c0.2,0,0.3,0.1,0.4,0.2l0,0c0,0.2-0.1,0.3-0.2,0.4l0,0c0,0,0,0-0.1,0l0,0
			C53.2,19.3,53.1,19.3,53.1,19.1z M54.2,18.9c0-0.2,0.1-0.3,0.2-0.4l0,0c0.2,0,0.3,0.1,0.4,0.2l0,0c0,0.2-0.1,0.3-0.2,0.4l0,0
			c0,0,0,0-0.1,0l0,0C54.4,19.1,54.3,19,54.2,18.9z M55.4,18.6c0-0.2,0.1-0.3,0.2-0.4l0,0c0.2,0,0.3,0.1,0.3,0.2l0,0
			c0,0.2-0.1,0.3-0.2,0.4l0,0c0,0,0,0-0.1,0l0,0C55.5,18.8,55.4,18.7,55.4,18.6z M56.5,18.3c0-0.2,0.1-0.3,0.2-0.4l0,0
			c0.2,0,0.3,0.1,0.3,0.2l0,0c0,0.2-0.1,0.3-0.2,0.4l0,0c0,0,0,0-0.1,0l0,0C56.7,18.6,56.6,18.5,56.5,18.3z M57.7,18.1
			c0-0.2,0.1-0.3,0.2-0.4l0,0c0.2,0,0.3,0.1,0.3,0.2l0,0c0,0.2-0.1,0.3-0.2,0.4l0,0c0,0,0,0-0.1,0l0,0
			C57.8,18.3,57.7,18.2,57.7,18.1z M58.8,17.8c0-0.2,0.1-0.3,0.2-0.4l0,0c0.2,0,0.3,0.1,0.3,0.2l0,0c0,0.2-0.1,0.3-0.2,0.4l0,0
			c0,0,0,0-0.1,0l0,0C59,18,58.9,18,58.8,17.8z M60,17.6c0-0.2,0.1-0.3,0.2-0.4l0,0c0.2,0,0.3,0.1,0.4,0.2l0,0
			c0,0.2-0.1,0.3-0.2,0.4l0,0c0,0,0,0-0.1,0l0,0C60.1,17.8,60,17.7,60,17.6z M61.1,17.3c0-0.2,0.1-0.3,0.2-0.4l0,0
			c0.2,0,0.3,0.1,0.4,0.2l0,0c0,0.2-0.1,0.3-0.2,0.4l0,0c0,0,0,0-0.1,0l0,0C61.3,17.5,61.2,17.4,61.1,17.3z M62.3,17
			c0-0.2,0.1-0.3,0.2-0.4l0,0c0.2,0,0.3,0.1,0.4,0.2l0,0c0,0.2-0.1,0.3-0.2,0.4l0,0c0,0,0,0-0.1,0l0,0C62.4,17.3,62.3,17.2,62.3,17z
			 M63.4,16.8c0-0.2,0.1-0.3,0.2-0.4l0,0c0.2,0,0.3,0.1,0.4,0.2l0,0c0,0.2-0.1,0.3-0.2,0.4l0,0c0,0,0,0-0.1,0l0,0
			C63.6,17,63.4,16.9,63.4,16.8z M64.6,16.5c0-0.2,0.1-0.3,0.2-0.4l0,0c0.2,0,0.3,0.1,0.3,0.2l0,0c0,0.2-0.1,0.3-0.2,0.4l0,0
			c0,0,0,0-0.1,0l0,0C64.7,16.7,64.6,16.7,64.6,16.5z M65.7,16.3c0-0.2,0.1-0.3,0.2-0.4l0,0c0.2,0,0.3,0.1,0.3,0.2l0,0
			c0,0.2-0.1,0.3-0.2,0.4l0,0c0,0,0,0-0.1,0l0,0C65.9,16.5,65.7,16.4,65.7,16.3z M66.9,16c0-0.2,0.1-0.3,0.2-0.4l0,0
			c0.2,0,0.3,0.1,0.3,0.2l0,0c0,0.2-0.1,0.3-0.2,0.3l0,0c0,0,0,0-0.1,0l0,0C67,16.2,66.9,16.1,66.9,16z M68,15.7
			c0-0.2,0.1-0.3,0.2-0.4l0,0c0.2,0,0.3,0.1,0.4,0.2l0,0c0,0.2-0.1,0.3-0.2,0.4l0,0c0,0,0,0-0.1,0l0,0C68.2,16,68,15.9,68,15.7z
			 M69.2,15.5c0-0.2,0.1-0.3,0.2-0.4l0,0c0.2,0,0.3,0.1,0.4,0.2l0,0c0,0.2-0.1,0.3-0.2,0.4l0,0c0,0,0,0-0.1,0l0,0
			C69.3,15.7,69.2,15.6,69.2,15.5z M70.3,15.2c0-0.2,0.1-0.3,0.2-0.4l0,0c0.2,0,0.3,0.1,0.4,0.2l0,0c0,0.2-0.1,0.3-0.2,0.4l0,0
			c0,0,0,0-0.1,0l0,0C70.5,15.5,70.3,15.4,70.3,15.2z M71.4,15c0-0.2,0.1-0.3,0.2-0.4l0,0c0.2,0,0.3,0.1,0.4,0.2l0,0
			c0,0.2-0.1,0.3-0.2,0.4l0,0c0,0,0,0-0.1,0l0,0C71.6,15.2,71.5,15.1,71.4,15z M72.6,14.7c0-0.2,0.1-0.3,0.2-0.4l0,0
			c0.2,0,0.3,0.1,0.3,0.2l0,0c0,0.2-0.1,0.3-0.2,0.4l0,0c0,0,0,0-0.1,0l0,0C72.7,14.9,72.6,14.8,72.6,14.7z M73.7,14.4
			c0-0.2,0.1-0.3,0.2-0.4l0,0c0.2,0,0.3,0.1,0.3,0.2l0,0c0,0.2-0.1,0.3-0.2,0.4l0,0c0,0,0,0-0.1,0l0,0
			C73.9,14.7,73.8,14.6,73.7,14.4z M74.9,14.2c0-0.2,0.1-0.3,0.2-0.4l0,0c0.2,0,0.3,0.1,0.4,0.2l0,0c0,0.2-0.1,0.3-0.2,0.4l0,0
			c0,0,0,0-0.1,0l0,0C75,14.4,74.9,14.3,74.9,14.2z M76,13.9c0-0.2,0.1-0.3,0.2-0.4l0,0c0.2,0,0.3,0.1,0.4,0.2l0,0
			c0,0.2-0.1,0.3-0.2,0.4l0,0c0,0,0,0-0.1,0l0,0C76.2,14.2,76.1,14.1,76,13.9z"/>
	</g>
	<g>
		<path d="M50.3,19.8c-0.2,0-0.3-0.2-0.2-0.4l0,0c0-0.2,0.2-0.3,0.4-0.2l0,0c0.2,0,0.3,0.2,0.2,0.4l0,0
			C50.6,19.7,50.5,19.8,50.3,19.8L50.3,19.8C50.3,19.8,50.3,19.8,50.3,19.8z M49.1,19.5c-0.2,0-0.3-0.2-0.2-0.4l0,0
			c0-0.2,0.2-0.3,0.3-0.2l0,0c0.2,0,0.3,0.2,0.2,0.4l0,0C49.4,19.4,49.3,19.5,49.1,19.5L49.1,19.5C49.2,19.5,49.1,19.5,49.1,19.5z
			 M48,19.3c-0.2,0-0.3-0.2-0.2-0.4l0,0c0-0.2,0.2-0.3,0.3-0.2l0,0c0.2,0,0.3,0.2,0.2,0.4l0,0C48.3,19.2,48.2,19.3,48,19.3L48,19.3
			C48,19.3,48,19.3,48,19.3z M46.8,19c-0.2,0-0.3-0.2-0.2-0.4l0,0c0-0.2,0.2-0.3,0.4-0.2l0,0c0.2,0,0.3,0.2,0.2,0.4l0,0
			C47.1,18.9,47,19,46.8,19L46.8,19C46.9,19,46.8,19,46.8,19z M45.7,18.7c-0.2,0-0.3-0.2-0.2-0.4l0,0c0-0.2,0.2-0.3,0.3-0.2l0,0
			c0.2,0,0.3,0.2,0.2,0.4l0,0C46,18.7,45.9,18.8,45.7,18.7L45.7,18.7C45.7,18.8,45.7,18.8,45.7,18.7z M44.5,18.5
			c-0.2,0-0.3-0.2-0.2-0.4l0,0c0-0.2,0.2-0.3,0.4-0.2l0,0c0.2,0,0.3,0.2,0.2,0.4l0,0C44.8,18.4,44.7,18.5,44.5,18.5L44.5,18.5
			C44.6,18.5,44.5,18.5,44.5,18.5z M43.4,18.2c-0.2,0-0.3-0.2-0.2-0.4l0,0c0-0.2,0.2-0.3,0.4-0.2l0,0c0.2,0,0.3,0.2,0.2,0.4l0,0
			C43.7,18.1,43.6,18.2,43.4,18.2L43.4,18.2C43.4,18.2,43.4,18.2,43.4,18.2z M42.2,18c-0.2,0-0.3-0.2-0.2-0.4l0,0
			c0-0.2,0.2-0.3,0.3-0.2l0,0c0.2,0,0.3,0.2,0.2,0.4l0,0C42.5,17.9,42.4,18,42.2,18L42.2,18C42.3,18,42.2,18,42.2,18z M41.1,17.7
			c-0.2,0-0.3-0.2-0.2-0.4l0,0c0-0.2,0.2-0.3,0.4-0.2l0,0c0.2,0,0.3,0.2,0.2,0.4l0,0C41.4,17.6,41.3,17.7,41.1,17.7L41.1,17.7
			C41.1,17.7,41.1,17.7,41.1,17.7z M39.9,17.5c-0.2,0-0.3-0.2-0.2-0.4l0,0c0-0.2,0.2-0.3,0.4-0.2l0,0c0.2,0,0.3,0.2,0.2,0.4l0,0
			C40.3,17.4,40.1,17.5,39.9,17.5L39.9,17.5C40,17.5,40,17.5,39.9,17.5z M38.8,17.2c-0.2,0-0.3-0.2-0.2-0.4l0,0
			c0-0.2,0.2-0.3,0.3-0.2l0,0c0.2,0,0.3,0.2,0.2,0.4l0,0C39.1,17.1,39,17.2,38.8,17.2L38.8,17.2C38.8,17.2,38.8,17.2,38.8,17.2z
			 M37.6,16.9c-0.2,0-0.3-0.2-0.2-0.4l0,0c0-0.2,0.2-0.3,0.4-0.2l0,0c0.2,0,0.3,0.2,0.2,0.4l0,0C38,16.9,37.8,17,37.6,16.9
			L37.6,16.9C37.7,17,37.7,17,37.6,16.9z M36.5,16.7c-0.2,0-0.3-0.2-0.2-0.4l0,0c0-0.2,0.2-0.3,0.3-0.2l0,0c0.2,0,0.3,0.2,0.2,0.4
			l0,0C36.8,16.6,36.7,16.7,36.5,16.7L36.5,16.7C36.5,16.7,36.5,16.7,36.5,16.7z M35.3,16.4c-0.2,0-0.3-0.2-0.2-0.4l0,0
			c0-0.2,0.2-0.3,0.3-0.2l0,0c0.2,0,0.3,0.2,0.2,0.4l0,0C35.7,16.3,35.5,16.4,35.3,16.4L35.3,16.4C35.4,16.4,35.4,16.4,35.3,16.4z
			 M34.2,16.2c-0.2,0-0.3-0.2-0.2-0.4l0,0c0-0.2,0.2-0.3,0.4-0.2l0,0c0.2,0,0.3,0.2,0.2,0.4l0,0C34.5,16.1,34.4,16.2,34.2,16.2
			L34.2,16.2C34.2,16.2,34.2,16.2,34.2,16.2z M33,15.9c-0.2,0-0.3-0.2-0.2-0.4l0,0c0-0.2,0.2-0.3,0.3-0.2l0,0c0.2,0,0.3,0.2,0.2,0.4
			l0,0C33.4,15.8,33.2,15.9,33,15.9L33,15.9C33.1,15.9,33.1,15.9,33,15.9z M31.9,15.7c-0.2,0-0.3-0.2-0.2-0.4l0,0
			c0-0.2,0.2-0.3,0.4-0.2l0,0c0.2,0,0.3,0.2,0.2,0.4l0,0C32.2,15.6,32.1,15.7,31.9,15.7L31.9,15.7C31.9,15.7,31.9,15.7,31.9,15.7z
			 M30.7,15.4c-0.2,0-0.3-0.2-0.2-0.4l0,0c0-0.2,0.2-0.3,0.4-0.2l0,0c0.2,0,0.3,0.2,0.2,0.4l0,0C31.1,15.3,30.9,15.4,30.7,15.4
			L30.7,15.4C30.8,15.4,30.8,15.4,30.7,15.4z M29.6,15.1c-0.2,0-0.3-0.2-0.2-0.4l0,0c0-0.2,0.2-0.3,0.4-0.2l0,0
			c0.2,0,0.3,0.2,0.2,0.4l0,0C29.9,15.1,29.8,15.2,29.6,15.1L29.6,15.1C29.6,15.2,29.6,15.2,29.6,15.1z M28.5,14.9
			c-0.2,0-0.3-0.2-0.2-0.4l0,0c0-0.2,0.2-0.3,0.4-0.2l0,0c0.2,0,0.3,0.2,0.2,0.4l0,0C28.8,14.8,28.7,14.9,28.5,14.9L28.5,14.9
			C28.5,14.9,28.5,14.9,28.5,14.9z M27.3,14.6c-0.2,0-0.3-0.2-0.2-0.4l0,0c0-0.2,0.2-0.3,0.4-0.2l0,0c0.2,0,0.3,0.2,0.2,0.4l0,0
			C27.6,14.6,27.5,14.6,27.3,14.6L27.3,14.6C27.4,14.6,27.3,14.6,27.3,14.6z M26.2,14.4c-0.2,0-0.3-0.2-0.2-0.4l0,0
			c0-0.2,0.2-0.3,0.4-0.2l0,0c0.2,0,0.3,0.2,0.2,0.4l0,0C26.5,14.3,26.4,14.4,26.2,14.4L26.2,14.4C26.2,14.4,26.2,14.4,26.2,14.4z
			 M25,14.1c-0.2,0-0.3-0.2-0.2-0.4l0,0c0-0.2,0.2-0.3,0.4-0.2l0,0c0.2,0,0.3,0.2,0.2,0.4l0,0C25.3,14,25.2,14.1,25,14.1L25,14.1
			C25.1,14.1,25,14.1,25,14.1z"/>
	</g>
	<g>
		<rect x="72.4" y="6.9" transform="matrix(0.5199 -0.8542 0.8542 0.5199 25.2184 67.5573)" width="0.6" height="8.9"/>
	</g>
	<g>
		<path d="M32.1,91.3c0-0.2,0-0.3,0.2-0.4l0,0c0.2,0,0.3,0,0.4,0.2l0,0c0,0.2,0,0.3-0.2,0.4l0,0c0,0-0.1,0-0.1,0l0,0
			C32.3,91.5,32.2,91.4,32.1,91.3z M31.8,90.2c0-0.2,0-0.3,0.2-0.4l0,0c0.2,0,0.3,0,0.4,0.2l0,0c0,0.2,0,0.3-0.2,0.4l0,0
			c0,0-0.1,0-0.1,0l0,0C32,90.4,31.8,90.3,31.8,90.2z M31.5,89c0-0.2,0-0.3,0.2-0.4l0,0c0.2,0,0.3,0,0.4,0.2l0,0
			c0,0.2,0,0.3-0.2,0.4l0,0c0,0-0.1,0-0.1,0l0,0C31.6,89.2,31.5,89.2,31.5,89z M31.1,87.9c0-0.2,0-0.3,0.2-0.4l0,0
			c0.2,0,0.3,0,0.4,0.2l0,0c0,0.2,0,0.3-0.2,0.4l0,0c0,0-0.1,0-0.1,0l0,0C31.3,88.1,31.2,88,31.1,87.9z M30.8,86.8
			c0-0.2,0-0.3,0.2-0.4l0,0c0.2,0,0.3,0,0.4,0.2l0,0c0,0.2,0,0.3-0.2,0.4l0,0c0,0-0.1,0-0.1,0l0,0C30.9,87,30.8,86.9,30.8,86.8z
			 M30.4,85.7c0-0.2,0-0.3,0.2-0.4l0,0c0.2-0.1,0.3,0,0.4,0.2l0,0c0,0.2,0,0.3-0.2,0.4l0,0c0,0-0.1,0-0.1,0l0,0
			C30.6,85.9,30.5,85.8,30.4,85.7z M30.1,84.5c0-0.2,0-0.3,0.2-0.4l0,0c0.2,0,0.3,0,0.4,0.2l0,0c0,0.2,0,0.3-0.2,0.4l0,0
			c0,0-0.1,0-0.1,0l0,0C30.2,84.7,30.1,84.7,30.1,84.5z M29.7,83.4c0-0.2,0-0.3,0.2-0.4l0,0c0.2-0.1,0.3,0,0.4,0.2l0,0
			c0,0.2,0,0.3-0.2,0.4l0,0c0,0-0.1,0-0.1,0l0,0C29.9,83.6,29.8,83.5,29.7,83.4z M29.4,82.3c0-0.2,0-0.3,0.2-0.4l0,0
			c0.2,0,0.3,0,0.4,0.2l0,0c0,0.2,0,0.3-0.2,0.4l0,0c0,0-0.1,0-0.1,0l0,0C29.5,82.5,29.4,82.4,29.4,82.3z M29,81.2
			c0-0.2,0-0.3,0.2-0.4l0,0c0.2,0,0.3,0,0.4,0.2l0,0c0,0.2,0,0.3-0.2,0.4l0,0c0,0-0.1,0-0.1,0l0,0C29.2,81.4,29.1,81.3,29,81.2z
			 M28.7,80c0-0.2,0-0.3,0.2-0.4l0,0c0.2,0,0.3,0,0.4,0.2l0,0c0,0.2,0,0.3-0.2,0.4l0,0c0,0-0.1,0-0.1,0l0,0
			C28.9,80.2,28.7,80.2,28.7,80z M28.4,78.9c0-0.2,0-0.3,0.2-0.4l0,0c0.2,0,0.3,0,0.4,0.2l0,0c0,0.2,0,0.3-0.2,0.4l0,0
			c0,0-0.1,0-0.1,0l0,0C28.5,79.1,28.4,79,28.4,78.9z M28,77.8c0-0.2,0-0.3,0.2-0.4l0,0c0.2,0,0.3,0,0.4,0.2l0,0
			c0,0.2,0,0.3-0.2,0.4l0,0c0,0-0.1,0-0.1,0l0,0C28.2,78,28.1,77.9,28,77.8z M27.7,76.7c0-0.2,0-0.3,0.2-0.4l0,0
			c0.2,0,0.3,0,0.4,0.2l0,0c0,0.2,0,0.3-0.2,0.4l0,0c0,0-0.1,0-0.1,0l0,0C27.8,76.9,27.7,76.8,27.7,76.7z M27.3,75.5
			c0-0.2,0-0.3,0.2-0.4l0,0c0.2,0,0.3,0,0.4,0.2l0,0c0,0.2,0,0.3-0.2,0.4l0,0c0,0-0.1,0-0.1,0l0,0C27.5,75.7,27.4,75.7,27.3,75.5z
			 M27,74.4c0-0.2,0-0.3,0.2-0.4l0,0c0.2-0.1,0.3,0,0.4,0.2l0,0c0,0.2,0,0.3-0.2,0.4l0,0c0,0-0.1,0-0.1,0l0,0
			C27.1,74.6,27,74.5,27,74.4z M26.6,73.3c0-0.2,0-0.3,0.2-0.4l0,0c0.2,0,0.3,0,0.4,0.2l0,0c0,0.2,0,0.3-0.2,0.4l0,0
			c0,0-0.1,0-0.1,0l0,0C26.8,73.5,26.7,73.4,26.6,73.3z M26.3,72.2c0-0.2,0-0.3,0.2-0.4l0,0c0.2,0,0.3,0,0.4,0.2l0,0
			c0,0.2,0,0.3-0.2,0.4l0,0c0,0-0.1,0-0.1,0l0,0C26.4,72.4,26.3,72.3,26.3,72.2z M25.9,71c0-0.2,0-0.3,0.2-0.4l0,0
			c0.2,0,0.3,0,0.4,0.2l0,0c0,0.2,0,0.3-0.2,0.4l0,0c0,0-0.1,0-0.1,0l0,0C26.1,71.2,26,71.2,25.9,71z M25.6,69.9
			c0-0.2,0-0.3,0.2-0.4l0,0c0.2,0,0.3,0,0.4,0.2l0,0c0,0.2,0,0.3-0.2,0.4l0,0c0,0-0.1,0-0.1,0l0,0C25.8,70.1,25.6,70,25.6,69.9z
			 M25.3,68.8c0-0.2,0-0.3,0.2-0.4l0,0c0.2,0,0.3,0,0.4,0.2l0,0c0,0.2,0,0.3-0.2,0.4l0,0c0,0-0.1,0-0.1,0l0,0
			C25.4,69,25.3,68.9,25.3,68.8z M24.9,67.7c0-0.2,0-0.3,0.2-0.4l0,0c0.2,0,0.3,0,0.4,0.2l0,0c0,0.2,0,0.3-0.2,0.4l0,0
			c0,0-0.1,0-0.1,0l0,0C25.1,67.9,25,67.8,24.9,67.7z M24.6,66.5c0-0.2,0-0.3,0.2-0.4l0,0c0.2,0,0.3,0,0.4,0.2l0,0
			c0,0.2,0,0.3-0.2,0.4l0,0c0,0-0.1,0-0.1,0l0,0C24.7,66.8,24.6,66.7,24.6,66.5z M24.2,65.4c0-0.2,0-0.3,0.2-0.4l0,0
			c0.2,0,0.3,0,0.4,0.2l0,0c0,0.2,0,0.3-0.2,0.4l0,0c0,0-0.1,0-0.1,0l0,0C24.4,65.6,24.3,65.5,24.2,65.4z M76.5,64.9
			c-0.1-0.1-0.2-0.3-0.1-0.4l0,0c0.1-0.1,0.3-0.2,0.4-0.1l0,0c0.1,0.1,0.2,0.3,0.1,0.4l0,0c-0.1,0.1-0.2,0.1-0.3,0.1l0,0
			C76.6,64.9,76.5,64.9,76.5,64.9z M24.2,64.5c-0.1-0.1,0-0.3,0.1-0.4l0,0c0.1-0.1,0.3,0,0.4,0.1l0,0c0.1,0.1,0,0.3-0.1,0.4l0,0
			c0,0-0.1,0-0.1,0l0,0C24.4,64.6,24.3,64.6,24.2,64.5z M77.3,64.4c-0.1-0.1-0.1-0.3,0-0.4l0,0c0.1-0.1,0.3-0.1,0.4,0l0,0
			c0.1,0.1,0.1,0.3,0,0.4l0,0c-0.1,0.1-0.1,0.1-0.2,0.1l0,0C77.4,64.5,77.3,64.5,77.3,64.4z M75.4,64.3c-0.1-0.1-0.2-0.3-0.1-0.4
			l0,0c0.1-0.1,0.3-0.2,0.4-0.1l0,0c0.1,0.1,0.2,0.3,0.1,0.4l0,0c-0.1,0.1-0.2,0.1-0.3,0.1l0,0C75.5,64.3,75.5,64.3,75.4,64.3z
			 M25.2,63.9c-0.1-0.1,0-0.3,0.1-0.4l0,0c0.1-0.1,0.3,0,0.4,0.1l0,0c0.1,0.1,0,0.3-0.1,0.4l0,0c0,0-0.1,0-0.1,0l0,0
			C25.4,64.1,25.3,64,25.2,63.9z M74.4,63.7c-0.1-0.1-0.2-0.3-0.1-0.4l0,0c0.1-0.1,0.3-0.2,0.4-0.1l0,0c0.1,0.1,0.2,0.3,0.1,0.4l0,0
			c-0.1,0.1-0.2,0.1-0.3,0.1l0,0C74.5,63.7,74.5,63.7,74.4,63.7z M78.1,63.6c-0.1-0.1-0.1-0.3,0-0.4l0,0c0.1-0.1,0.3-0.1,0.4,0l0,0
			c0.1,0.1,0.1,0.3,0,0.4l0,0c-0.1,0.1-0.1,0.1-0.2,0.1l0,0C78.2,63.6,78.1,63.6,78.1,63.6z M26.3,63.3c-0.1-0.1,0-0.3,0.1-0.4l0,0
			c0.1-0.1,0.3,0,0.4,0.1l0,0c0.1,0.1,0,0.3-0.1,0.4l0,0c0,0-0.1,0-0.1,0l0,0C26.4,63.5,26.3,63.4,26.3,63.3z M73.4,63.1
			c-0.1-0.1-0.2-0.3-0.1-0.4l0,0c0.1-0.1,0.3-0.2,0.4-0.1l0,0c0.1,0.1,0.2,0.3,0.1,0.4l0,0c-0.1,0.1-0.2,0.1-0.3,0.1l0,0
			C73.5,63.2,73.4,63.1,73.4,63.1z M27.3,62.8c-0.1-0.1,0-0.3,0.1-0.4l0,0c0.1-0.1,0.3,0,0.4,0.1l0,0c0.1,0.1,0,0.3-0.1,0.4l0,0
			c0,0-0.1,0-0.1,0l0,0C27.5,62.9,27.4,62.8,27.3,62.8z M78.8,62.7c-0.1-0.1-0.1-0.3,0-0.4l0,0c0.1-0.1,0.3-0.1,0.4,0l0,0
			c0.1,0.1,0.1,0.3,0,0.4l0,0c-0.1,0.1-0.1,0.1-0.2,0.1l0,0C79,62.8,78.9,62.7,78.8,62.7z M72.4,62.5c-0.1-0.1-0.2-0.3-0.1-0.4l0,0
			c0.1-0.1,0.3-0.2,0.4-0.1l0,0c0.1,0.1,0.2,0.3,0.1,0.4l0,0c-0.1,0.1-0.2,0.1-0.3,0.1l0,0C72.5,62.6,72.4,62.6,72.4,62.5z
			 M28.3,62.2c-0.1-0.1,0-0.3,0.1-0.4l0,0c0.1-0.1,0.3,0,0.4,0.1l0,0c0.1,0.1,0,0.3-0.1,0.4l0,0c0,0-0.1,0-0.1,0l0,0
			C28.5,62.3,28.4,62.3,28.3,62.2z M71.4,61.9c-0.1-0.1-0.2-0.3-0.1-0.4l0,0c0.1-0.1,0.3-0.2,0.4-0.1l0,0c0.1,0.1,0.2,0.3,0.1,0.4
			l0,0c-0.1,0.1-0.2,0.1-0.3,0.1l0,0C71.5,62,71.4,62,71.4,61.9z M79.6,61.8c-0.1-0.1-0.1-0.3,0-0.4l0,0c0.1-0.1,0.3-0.1,0.4,0l0,0
			c0.1,0.1,0.1,0.3,0,0.4l0,0c-0.1,0.1-0.1,0.1-0.2,0.1l0,0C79.7,61.9,79.7,61.9,79.6,61.8z M29.3,61.6c-0.1-0.1,0-0.3,0.1-0.4l0,0
			c0.1-0.1,0.3,0,0.4,0.1l0,0c0.1,0.1,0,0.3-0.1,0.4l0,0c0,0-0.1,0-0.1,0l0,0C29.5,61.8,29.4,61.7,29.3,61.6z M70.3,61.3
			c-0.1-0.1-0.2-0.3-0.1-0.4l0,0c0.1-0.1,0.3-0.2,0.4-0.1l0,0c0.1,0.1,0.2,0.3,0.1,0.4l0,0c-0.1,0.1-0.2,0.1-0.3,0.1l0,0
			C70.4,61.4,70.4,61.4,70.3,61.3z M30.4,61c-0.1-0.1,0-0.3,0.1-0.4l0,0c0.1-0.1,0.3,0,0.4,0.1l0,0c0.1,0.1,0,0.3-0.1,0.4l0,0
			c0,0-0.1,0-0.1,0l0,0C30.5,61.2,30.4,61.1,30.4,61z M80.4,60.9c-0.1-0.1-0.1-0.3,0-0.4l0,0c0.1-0.1,0.3-0.1,0.4,0l0,0
			c0.1,0.1,0.1,0.3,0,0.4l0,0C80.8,61,80.7,61,80.6,61l0,0C80.5,61,80.5,61,80.4,60.9z M69.3,60.8c-0.1-0.1-0.2-0.3-0.1-0.4l0,0
			c0.1-0.1,0.3-0.2,0.4-0.1l0,0c0.1,0.1,0.2,0.3,0.1,0.4l0,0c-0.1,0.1-0.2,0.1-0.3,0.1l0,0C69.4,60.8,69.4,60.8,69.3,60.8z
			 M31.4,60.5c-0.1-0.1,0-0.3,0.1-0.4l0,0c0.1-0.1,0.3,0,0.4,0.1l0,0c0.1,0.1,0,0.3-0.1,0.4l0,0c0,0-0.1,0-0.1,0l0,0
			C31.6,60.6,31.5,60.6,31.4,60.5z M68.3,60.2c-0.1-0.1-0.2-0.3-0.1-0.4l0,0c0.1-0.1,0.3-0.2,0.4-0.1l0,0c0.1,0.1,0.2,0.3,0.1,0.4
			l0,0c-0.1,0.1-0.2,0.1-0.3,0.1l0,0C68.4,60.2,68.4,60.2,68.3,60.2z M81.2,60.1c-0.1-0.1-0.1-0.3,0-0.4l0,0c0.1-0.1,0.3-0.1,0.4,0
			l0,0c0.1,0.1,0.1,0.3,0,0.4l0,0c-0.1,0.1-0.1,0.1-0.2,0.1l0,0C81.3,60.1,81.2,60.1,81.2,60.1z M32.4,59.9c-0.1-0.1,0-0.3,0.1-0.4
			l0,0c0.1-0.1,0.3,0,0.4,0.1l0,0c0.1,0.1,0,0.3-0.1,0.4l0,0c0,0-0.1,0-0.1,0l0,0C32.6,60,32.5,60,32.4,59.9z M67.3,59.6
			c-0.1-0.1-0.2-0.3-0.1-0.4l0,0c0.1-0.1,0.3-0.2,0.4-0.1l0,0c0.1,0.1,0.2,0.3,0.1,0.4l0,0c-0.1,0.1-0.2,0.1-0.3,0.1l0,0
			C67.4,59.6,67.3,59.6,67.3,59.6z M33.5,59.3c-0.1-0.1,0-0.3,0.1-0.4l0,0c0.1-0.1,0.3,0,0.4,0.1l0,0c0.1,0.1,0,0.3-0.1,0.4l0,0
			c0,0-0.1,0-0.1,0l0,0C33.6,59.5,33.5,59.4,33.5,59.3z M82,59.2c-0.1-0.1-0.1-0.3,0-0.4l0,0c0.1-0.1,0.3-0.1,0.4,0l0,0
			c0.1,0.1,0.1,0.3,0,0.4l0,0c-0.1,0.1-0.1,0.1-0.2,0.1l0,0C82.1,59.3,82,59.2,82,59.2z M66.3,59c-0.1-0.1-0.2-0.3-0.1-0.4l0,0
			c0.1-0.1,0.3-0.2,0.4-0.1l0,0c0.1,0.1,0.2,0.3,0.1,0.4l0,0C66.6,59,66.5,59,66.4,59l0,0C66.4,59,66.3,59,66.3,59z M34.5,58.7
			c-0.1-0.1,0-0.3,0.1-0.4l0,0c0.1-0.1,0.3,0,0.4,0.1l0,0c0.1,0.1,0,0.3-0.1,0.4l0,0c0,0-0.1,0-0.1,0l0,0
			C34.6,58.9,34.5,58.8,34.5,58.7z M65.3,58.4c-0.1-0.1-0.2-0.3-0.1-0.4l0,0c0.1-0.1,0.3-0.2,0.4-0.1l0,0c0.1,0.1,0.2,0.3,0.1,0.4
			l0,0c-0.1,0.1-0.2,0.2-0.3,0.2l0,0C65.4,58.4,65.3,58.4,65.3,58.4z M82.8,58.3c-0.1-0.1-0.1-0.3,0-0.4l0,0c0.1-0.1,0.3-0.1,0.4,0
			l0,0c0.1,0.1,0.1,0.3,0,0.4l0,0c-0.1,0.1-0.1,0.1-0.2,0.1l0,0C82.9,58.4,82.8,58.4,82.8,58.3z M35.5,58.2c-0.1-0.1,0-0.3,0.1-0.4
			l0,0c0.1-0.1,0.3,0,0.4,0.1l0,0c0.1,0.1,0,0.3-0.1,0.4l0,0c0,0-0.1,0-0.1,0l0,0C35.7,58.3,35.6,58.3,35.5,58.2z M64.2,57.8
			c-0.1-0.1-0.2-0.3-0.1-0.4l0,0c0.1-0.1,0.3-0.2,0.4-0.1l0,0c0.1,0.1,0.2,0.3,0.1,0.4l0,0c-0.1,0.1-0.2,0.1-0.3,0.1l0,0
			C64.3,57.9,64.3,57.8,64.2,57.8z M36.5,57.6c-0.1-0.1,0-0.3,0.1-0.4l0,0c0.1-0.1,0.3,0,0.4,0.1l0,0c0.1,0.1,0,0.3-0.1,0.4l0,0
			c0,0-0.1,0-0.1,0l0,0C36.7,57.7,36.6,57.7,36.5,57.6z M83.5,57.4c-0.1-0.1-0.1-0.3,0-0.4l0,0c0.1-0.1,0.3-0.1,0.4,0l0,0
			c0.1,0.1,0.1,0.3,0,0.4l0,0c-0.1,0.1-0.1,0.1-0.2,0.1l0,0C83.7,57.5,83.6,57.5,83.5,57.4z M63.2,57.2c-0.1-0.1-0.2-0.3-0.1-0.4
			l0,0c0.1-0.1,0.3-0.2,0.4-0.1l0,0c0.1,0.1,0.2,0.3,0.1,0.4l0,0c-0.1,0.1-0.2,0.1-0.3,0.1l0,0C63.3,57.3,63.3,57.3,63.2,57.2z
			 M37.6,57c-0.1-0.1,0-0.3,0.1-0.4l0,0c0.1-0.1,0.3,0,0.4,0.1l0,0c0.1,0.1,0,0.3-0.1,0.4l0,0c0,0-0.1,0-0.1,0l0,0
			C37.7,57.2,37.6,57.1,37.6,57z M62.2,56.6c-0.1-0.1-0.2-0.3-0.1-0.4l0,0c0.1-0.1,0.3-0.2,0.4-0.1l0,0c0.1,0.1,0.2,0.3,0.1,0.4l0,0
			c-0.1,0.1-0.2,0.1-0.3,0.1l0,0C62.3,56.7,62.2,56.7,62.2,56.6z M84.3,56.5c-0.1-0.1-0.1-0.3,0-0.4l0,0c0.1-0.1,0.3-0.1,0.4,0l0,0
			c0.1,0.1,0.1,0.3,0,0.4l0,0c-0.1,0.1-0.1,0.1-0.2,0.1l0,0C84.4,56.6,84.4,56.6,84.3,56.5z M38.6,56.4c-0.1-0.1,0-0.3,0.1-0.4l0,0
			c0.1-0.1,0.3,0,0.4,0.1l0,0c0.1,0.1,0,0.3-0.1,0.4l0,0c0,0-0.1,0-0.1,0l0,0C38.7,56.6,38.6,56.5,38.6,56.4z M61.2,56.1
			C61,56,61,55.8,61.1,55.7l0,0c0.1-0.1,0.3-0.2,0.4-0.1l0,0c0.1,0.1,0.2,0.3,0.1,0.4l0,0c-0.1,0.1-0.2,0.1-0.3,0.1l0,0
			C61.3,56.1,61.2,56.1,61.2,56.1z M39.6,55.9c-0.1-0.1,0-0.3,0.1-0.4l0,0c0.1-0.1,0.3,0,0.4,0.1l0,0c0.1,0.1,0,0.3-0.1,0.4l0,0
			c0,0-0.1,0-0.1,0l0,0C39.8,56,39.7,56,39.6,55.9z M85.1,55.7c-0.1-0.1-0.1-0.3,0-0.4l0,0c0.1-0.1,0.3-0.1,0.4,0l0,0
			c0.1,0.1,0.1,0.3,0,0.4l0,0c-0.1,0.1-0.1,0.1-0.2,0.1l0,0C85.2,55.7,85.2,55.7,85.1,55.7z M60.2,55.5c-0.1-0.1-0.2-0.3-0.1-0.4
			l0,0c0.1-0.1,0.3-0.2,0.4-0.1l0,0c0.1,0.1,0.2,0.3,0.1,0.4l0,0c-0.1,0.1-0.2,0.1-0.3,0.1l0,0C60.3,55.5,60.2,55.5,60.2,55.5z
			 M40.6,55.3c-0.1-0.1,0-0.3,0.1-0.4l0,0c0.1-0.1,0.3,0,0.4,0.1l0,0c0.1,0.1,0,0.3-0.1,0.4l0,0c0,0-0.1,0-0.1,0l0,0
			C40.8,55.4,40.7,55.4,40.6,55.3z M59.1,54.9C59,54.8,59,54.6,59,54.5l0,0c0.1-0.1,0.3-0.2,0.4-0.1l0,0c0.1,0.1,0.2,0.3,0.1,0.4
			l0,0c-0.1,0.1-0.2,0.1-0.3,0.1l0,0C59.2,54.9,59.2,54.9,59.1,54.9z M85.9,54.8c-0.1-0.1-0.1-0.3,0-0.4l0,0c0.1-0.1,0.3-0.1,0.4,0
			l0,0c0.1,0.1,0.1,0.3,0,0.4l0,0c-0.1,0.1-0.1,0.1-0.2,0.1l0,0C86,54.9,85.9,54.8,85.9,54.8z M41.7,54.7c-0.1-0.1,0-0.3,0.1-0.4
			l0,0c0.1-0.1,0.3,0,0.4,0.1l0,0c0.1,0.1,0,0.3-0.1,0.4l0,0c0,0-0.1,0-0.1,0l0,0C41.8,54.9,41.7,54.8,41.7,54.7z M58.1,54.3
			C58,54.2,57.9,54,58,53.9l0,0c0.1-0.1,0.3-0.2,0.4-0.1l0,0c0.1,0.1,0.2,0.3,0.1,0.4l0,0c-0.1,0.1-0.2,0.1-0.3,0.1l0,0
			C58.2,54.3,58.2,54.3,58.1,54.3z M42.7,54.1c-0.1-0.1,0-0.3,0.1-0.4l0,0c0.1-0.1,0.3,0,0.4,0.1l0,0c0.1,0.1,0,0.3-0.1,0.4l0,0
			c0,0-0.1,0-0.1,0l0,0C42.8,54.3,42.7,54.2,42.7,54.1z M86.7,53.9c-0.1-0.1-0.1-0.3,0-0.4l0,0c0.1-0.1,0.3-0.1,0.4,0l0,0
			c0.1,0.1,0.1,0.3,0,0.4l0,0C87,54,86.9,54,86.9,54l0,0C86.8,54,86.7,54,86.7,53.9z M57.1,53.7c-0.1-0.1-0.2-0.3-0.1-0.4l0,0
			c0.1-0.1,0.3-0.2,0.4-0.1l0,0c0.1,0.1,0.2,0.3,0.1,0.4l0,0c-0.1,0.1-0.2,0.1-0.3,0.1l0,0C57.2,53.7,57.2,53.7,57.1,53.7z
			 M43.7,53.6c-0.1-0.1,0-0.3,0.1-0.4l0,0c0.1-0.1,0.3,0,0.4,0.1l0,0c0.1,0.1,0,0.3-0.1,0.4l0,0c0,0-0.1,0-0.1,0l0,0
			C43.9,53.7,43.8,53.7,43.7,53.6z M56.1,53.1C56,53,55.9,52.8,56,52.7l0,0c0.1-0.1,0.3-0.2,0.4-0.1l0,0c0.1,0.1,0.2,0.3,0.1,0.4
			l0,0c-0.1,0.1-0.2,0.1-0.3,0.1l0,0C56.2,53.1,56.1,53.1,56.1,53.1z M44.7,53c-0.1-0.1,0-0.3,0.1-0.4l0,0c0.1-0.1,0.3,0,0.4,0.1
			l0,0c0.1,0.1,0,0.3-0.1,0.4l0,0c0,0-0.1,0-0.1,0l0,0C44.9,53.1,44.8,53.1,44.7,53z M87.5,53c-0.1-0.1-0.1-0.3,0-0.4l0,0
			c0.1-0.1,0.3-0.1,0.4,0l0,0c0.1,0.1,0.1,0.3,0,0.4l0,0c-0.1,0.1-0.1,0.1-0.2,0.1l0,0C87.6,53.1,87.5,53.1,87.5,53z M45.8,52.4
			c-0.1-0.1,0-0.3,0.1-0.4l0,0c0.1-0.1,0.3,0,0.4,0.1l0,0c0.1,0.1,0,0.3-0.1,0.4l0,0c0,0-0.1,0-0.1,0l0,0
			C45.9,52.6,45.8,52.5,45.8,52.4z M55.1,52.5c-0.1-0.1-0.2-0.3-0.1-0.4l0,0c0.1-0.1,0.3-0.2,0.4-0.1l0,0c0.1,0.1,0.2,0.3,0.1,0.4
			l0,0c-0.1,0.1-0.2,0.1-0.3,0.1l0,0C55.2,52.6,55.1,52.5,55.1,52.5z M88.2,52.2c-0.1-0.1-0.1-0.3,0-0.4l0,0c0.1-0.1,0.3-0.1,0.4,0
			l0,0c0.1,0.1,0.1,0.3,0,0.4l0,0c-0.1,0.1-0.1,0.1-0.2,0.1l0,0C88.4,52.2,88.3,52.2,88.2,52.2z M46.8,51.8c-0.1-0.1,0-0.3,0.1-0.4
			l0,0c0.1-0.1,0.3,0,0.4,0.1l0,0c0.1,0.1,0,0.3-0.1,0.4l0,0c0,0-0.1,0-0.1,0l0,0C46.9,52,46.8,51.9,46.8,51.8z M54.1,51.9
			c-0.1-0.1-0.2-0.3-0.1-0.4l0,0c0.1-0.1,0.3-0.2,0.4-0.1l0,0c0.1,0.1,0.2,0.3,0.1,0.4l0,0c-0.1,0.1-0.2,0.1-0.3,0.1l0,0
			C54.2,52,54.1,52,54.1,51.9z M47.8,51.3c-0.1-0.1,0-0.3,0.1-0.4l0,0c0.1-0.1,0.3,0,0.4,0.1l0,0c0.1,0.1,0,0.3-0.1,0.4l0,0
			c0,0-0.1,0-0.1,0l0,0C48,51.4,47.9,51.4,47.8,51.3z M53,51.3c-0.1-0.1-0.2-0.3-0.1-0.4l0,0c0.1-0.1,0.3-0.2,0.4-0.1l0,0
			c0.1,0.1,0.2,0.3,0.1,0.4l0,0c-0.1,0.1-0.2,0.1-0.3,0.1l0,0C53.1,51.4,53.1,51.4,53,51.3z M89,51.3c-0.1-0.1-0.1-0.3,0-0.4l0,0
			c0.1-0.1,0.3-0.1,0.4,0l0,0c0.1,0.1,0.1,0.3,0,0.4l0,0c-0.1,0.1-0.1,0.1-0.2,0.1l0,0C89.1,51.4,89.1,51.3,89,51.3z M48.8,50.7
			c-0.1-0.1,0-0.3,0.1-0.4l0,0c0.1-0.1,0.3,0,0.4,0.1l0,0c0.1,0.1,0,0.3-0.1,0.4l0,0c0,0-0.1,0-0.1,0l0,0
			C49,50.8,48.9,50.8,48.8,50.7z M52,50.8c-0.1-0.1-0.2-0.3-0.1-0.4l0,0c0.1-0.1,0.3-0.2,0.4-0.1l0,0c0.1,0.1,0.2,0.3,0.1,0.4l0,0
			c-0.1,0.1-0.2,0.1-0.3,0.1l0,0C52.1,50.8,52.1,50.8,52,50.8z M89.8,50.4c-0.1-0.1-0.1-0.3,0-0.4l0,0c0.1-0.1,0.3-0.1,0.4,0l0,0
			c0.1,0.1,0.1,0.3,0,0.4l0,0c-0.1,0.1-0.1,0.1-0.2,0.1l0,0C89.9,50.5,89.9,50.5,89.8,50.4z M49.9,50.1c-0.1-0.1,0-0.3,0.1-0.4l0,0
			c0.1-0.1,0.3,0,0.4,0.1l0,0c0.1,0.1,0,0.3-0.1,0.4l0,0c0,0-0.1,0-0.1,0l0,0C50,50.3,49.9,50.2,49.9,50.1z M51,50.2
			c-0.1-0.1-0.2-0.3-0.1-0.4l0,0c0.1-0.1,0.3-0.2,0.4-0.1l0,0c0.1,0.1,0.2,0.3,0.1,0.4l0,0c-0.1,0.1-0.2,0.1-0.3,0.1l0,0
			C51.1,50.2,51,50.2,51,50.2z M90.6,49.5c-0.1-0.1-0.1-0.3,0-0.4l0,0c0.1-0.1,0.3-0.1,0.4,0l0,0c0.1,0.1,0.1,0.3,0,0.4l0,0
			c-0.1,0.1-0.1,0.1-0.2,0.1l0,0C90.7,49.6,90.6,49.6,90.6,49.5z M91.4,48.7c-0.1-0.1-0.1-0.3,0-0.4l0,0c0.1-0.1,0.3-0.1,0.4,0l0,0
			c0.1,0.1,0.1,0.3,0,0.4l0,0c-0.1,0.1-0.1,0.1-0.2,0.1l0,0C91.5,48.7,91.4,48.7,91.4,48.7z M92.2,47.8c-0.1-0.1-0.1-0.3,0-0.4l0,0
			c0.1-0.1,0.3-0.1,0.4,0l0,0c0.1,0.1,0.1,0.3,0,0.4l0,0c-0.1,0.1-0.1,0.1-0.2,0.1l0,0C92.3,47.9,92.2,47.8,92.2,47.8z M92.9,46.9
			c-0.1-0.1-0.1-0.3,0-0.4l0,0c0.1-0.1,0.3-0.1,0.4,0l0,0c0.1,0.1,0.1,0.3,0,0.4l0,0c-0.1,0.1-0.1,0.1-0.2,0.1l0,0
			C93.1,47,93,47,92.9,46.9z M93.7,46c-0.1-0.1-0.1-0.3,0-0.4l0,0c0.1-0.1,0.3-0.1,0.4,0l0,0c0.1,0.1,0.1,0.3,0,0.4l0,0
			c-0.1,0.1-0.1,0.1-0.2,0.1l0,0C93.9,46.1,93.8,46.1,93.7,46z M94.5,45.1c-0.1-0.1-0.1-0.3,0-0.4l0,0c0.1-0.1,0.3-0.1,0.4,0l0,0
			c0.1,0.1,0.1,0.3,0,0.4l0,0c-0.1,0.1-0.1,0.1-0.2,0.1l0,0C94.6,45.2,94.6,45.2,94.5,45.1z"/>
	</g>
	<g>
		<path d="M68.3,90.8c-0.2-0.1-0.2-0.2-0.2-0.4l0,0c0.1-0.2,0.2-0.2,0.4-0.2l0,0c0.2,0.1,0.2,0.2,0.2,0.4l0,0
			C68.6,90.7,68.5,90.8,68.3,90.8L68.3,90.8C68.3,90.8,68.3,90.8,68.3,90.8z M68.7,89.6c-0.2-0.1-0.2-0.2-0.2-0.4l0,0
			c0.1-0.2,0.2-0.2,0.4-0.2l0,0c0.2,0.1,0.2,0.2,0.2,0.4l0,0C69,89.6,68.9,89.7,68.7,89.6L68.7,89.6C68.7,89.7,68.7,89.7,68.7,89.6z
			 M69,88.5c-0.2-0.1-0.2-0.2-0.2-0.4l0,0c0.1-0.2,0.2-0.2,0.4-0.2l0,0c0.2,0.1,0.2,0.2,0.2,0.4l0,0C69.4,88.5,69.2,88.5,69,88.5
			L69,88.5C69.1,88.5,69.1,88.5,69,88.5z M69.4,87.4c-0.2-0.1-0.2-0.2-0.2-0.4l0,0c0.1-0.2,0.2-0.2,0.4-0.2l0,0
			c0.2,0.1,0.2,0.2,0.2,0.4l0,0C69.7,87.3,69.6,87.4,69.4,87.4L69.4,87.4C69.5,87.4,69.4,87.4,69.4,87.4z M69.8,86.3
			c-0.2-0.1-0.2-0.2-0.2-0.4l0,0c0.1-0.2,0.2-0.2,0.4-0.2l0,0c0.2,0.1,0.2,0.2,0.2,0.4l0,0C70.1,86.2,70,86.3,69.8,86.3L69.8,86.3
			C69.8,86.3,69.8,86.3,69.8,86.3z M70.1,85.2C70,85.1,69.9,85,70,84.8l0,0c0.1-0.2,0.2-0.2,0.4-0.2l0,0c0.2,0.1,0.2,0.2,0.2,0.4
			l0,0C70.5,85.1,70.4,85.2,70.1,85.2L70.1,85.2C70.2,85.2,70.2,85.2,70.1,85.2z M70.5,84.1c-0.2-0.1-0.2-0.2-0.2-0.4l0,0
			c0.1-0.2,0.2-0.2,0.4-0.2l0,0c0.2,0.1,0.2,0.2,0.2,0.4l0,0C70.8,84,70.7,84.1,70.5,84.1L70.5,84.1C70.6,84.1,70.5,84.1,70.5,84.1z
			 M70.9,82.9c-0.2-0.1-0.2-0.2-0.2-0.4l0,0c0.1-0.2,0.2-0.2,0.4-0.2l0,0c0.2,0.1,0.2,0.2,0.2,0.4l0,0C71.2,82.9,71.1,83,70.9,82.9
			L70.9,82.9C71,83,70.9,83,70.9,82.9z M71.3,81.8c-0.2-0.1-0.2-0.2-0.2-0.4l0,0c0.1-0.2,0.2-0.2,0.4-0.2l0,0
			c0.2,0.1,0.2,0.2,0.2,0.4l0,0C71.6,81.8,71.5,81.9,71.3,81.8L71.3,81.8C71.3,81.8,71.3,81.8,71.3,81.8z M71.6,80.7
			c-0.2-0.1-0.2-0.2-0.2-0.4l0,0c0.1-0.2,0.2-0.2,0.4-0.2l0,0c0.2,0.1,0.2,0.2,0.2,0.4l0,0C72,80.7,71.8,80.7,71.6,80.7L71.6,80.7
			C71.7,80.7,71.7,80.7,71.6,80.7z M72,79.6c-0.2-0.1-0.2-0.2-0.2-0.4l0,0c0.1-0.2,0.2-0.2,0.4-0.2l0,0c0.2,0.1,0.2,0.2,0.2,0.4l0,0
			C72.3,79.5,72.2,79.6,72,79.6L72,79.6C72.1,79.6,72,79.6,72,79.6z M72.4,78.5c-0.2-0.1-0.2-0.2-0.2-0.4l0,0
			c0.1-0.2,0.2-0.2,0.4-0.2l0,0c0.2,0.1,0.2,0.2,0.2,0.4l0,0C72.7,78.4,72.6,78.5,72.4,78.5L72.4,78.5
			C72.4,78.5,72.4,78.5,72.4,78.5z M72.7,77.4c-0.2-0.1-0.2-0.2-0.2-0.4l0,0c0.1-0.2,0.2-0.2,0.4-0.2l0,0c0.2,0.1,0.2,0.2,0.2,0.4
			l0,0C73.1,77.3,73,77.4,72.7,77.4L72.7,77.4C72.8,77.4,72.8,77.4,72.7,77.4z M73.1,76.3c-0.2-0.1-0.2-0.2-0.2-0.4l0,0
			c0.1-0.2,0.2-0.2,0.4-0.2l0,0c0.2,0.1,0.2,0.2,0.2,0.4l0,0C73.5,76.2,73.3,76.3,73.1,76.3L73.1,76.3
			C73.2,76.3,73.1,76.3,73.1,76.3z M73.5,75.1c-0.2-0.1-0.2-0.2-0.2-0.4l0,0c0.1-0.2,0.2-0.2,0.4-0.2l0,0c0.2,0.1,0.2,0.2,0.2,0.4
			l0,0C73.8,75.1,73.7,75.2,73.5,75.1L73.5,75.1C73.6,75.2,73.5,75.1,73.5,75.1z M73.9,74c-0.2-0.1-0.2-0.2-0.2-0.4l0,0
			c0.1-0.2,0.2-0.2,0.4-0.2l0,0c0.2,0.1,0.2,0.2,0.2,0.4l0,0C74.2,74,74.1,74,73.9,74L73.9,74C73.9,74,73.9,74,73.9,74z M74.2,72.9
			c-0.2-0.1-0.2-0.2-0.2-0.4l0,0c0.1-0.2,0.2-0.2,0.4-0.2l0,0c0.2,0.1,0.2,0.2,0.2,0.4l0,0C74.6,72.8,74.5,72.9,74.2,72.9L74.2,72.9
			C74.3,72.9,74.3,72.9,74.2,72.9z M74.6,71.8c-0.2-0.1-0.2-0.2-0.2-0.4l0,0c0.1-0.2,0.2-0.2,0.4-0.2l0,0c0.2,0.1,0.2,0.2,0.2,0.4
			l0,0C74.9,71.7,74.8,71.8,74.6,71.8L74.6,71.8C74.7,71.8,74.6,71.8,74.6,71.8z M75,70.7c-0.2-0.1-0.2-0.2-0.2-0.4l0,0
			c0.1-0.2,0.2-0.2,0.4-0.2l0,0c0.2,0.1,0.2,0.2,0.2,0.4l0,0C75.3,70.6,75.2,70.7,75,70.7L75,70.7C75,70.7,75,70.7,75,70.7z
			 M75.3,69.6c-0.2-0.1-0.2-0.2-0.2-0.4l0,0c0.1-0.2,0.2-0.2,0.4-0.2l0,0c0.2,0.1,0.2,0.2,0.2,0.4l0,0
			C75.7,69.5,75.6,69.6,75.3,69.6L75.3,69.6C75.4,69.6,75.4,69.6,75.3,69.6z M75.7,68.4c-0.2-0.1-0.2-0.2-0.2-0.4l0,0
			c0.1-0.2,0.2-0.2,0.4-0.2l0,0c0.2,0.1,0.2,0.2,0.2,0.4l0,0C76,68.4,75.9,68.5,75.7,68.4L75.7,68.4C75.8,68.5,75.8,68.5,75.7,68.4z
			 M76.1,67.3c-0.2-0.1-0.2-0.2-0.2-0.4l0,0c0.1-0.2,0.2-0.2,0.4-0.2l0,0c0.2,0.1,0.2,0.2,0.2,0.4l0,0
			C76.4,67.3,76.3,67.3,76.1,67.3L76.1,67.3C76.2,67.3,76.1,67.3,76.1,67.3z M76.5,66.2c-0.2-0.1-0.2-0.2-0.2-0.4l0,0
			c0.1-0.2,0.2-0.2,0.4-0.2l0,0c0.2,0.1,0.2,0.2,0.2,0.4l0,0C76.8,66.1,76.7,66.2,76.5,66.2L76.5,66.2
			C76.5,66.2,76.5,66.2,76.5,66.2z M76.8,65.1c-0.2-0.1-0.2-0.2-0.2-0.4l0,0c0.1-0.2,0.2-0.2,0.4-0.2l0,0c0.2,0.1,0.2,0.2,0.2,0.4
			l0,0C77.2,65,77,65.1,76.8,65.1L76.8,65.1C76.9,65.1,76.9,65.1,76.8,65.1z"/>
	</g>
	<g>
		<polygon points="50.2,91.7 32.4,91.7 32.3,91.6 23.5,86 50,78.3 50,49.7 23.9,34.2 31.6,8.7 69,8.7 69,9.3 32,9.3 24.6,33.9 
			50.6,49.4 50.6,78.7 50.4,78.8 24.9,86.2 32.6,91.1 50.2,91.1 		"/>
	</g>
	<g>
		<rect x="14.8" y="53.3" transform="matrix(0.8571 -0.5151 0.5151 0.8571 -34.3789 17.9345)" width="0.6" height="35.3"/>
	</g>
	<g>
		<rect x="5.7" y="44.3" width="0.6" height="11.5"/>
	</g>
	<g>
		<rect x="1" y="44.6" transform="matrix(0.6424 -0.7664 0.7664 0.6424 -29.0181 27.6712)" width="28.3" height="0.6"/>
	</g>
	<g>
		<rect x="23.6" y="11.1" transform="matrix(0.8543 -0.5197 0.5197 0.8543 -1.8133 16.2192)" width="8.9" height="0.6"/>
	</g>
	<g>
		<rect x="-2.7" y="28.7" transform="matrix(0.5113 -0.8594 0.8594 0.5113 -17.4902 27.1648)" width="35.6" height="0.6"/>
	</g>
	<g>
		<polygon points="68.4,91.7 49.4,91.7 49.4,91.1 68.2,91.1 75.8,86.2 50.2,78.7 50.2,49.4 50.3,49.3 76.2,33.9 68.6,9.1 69.2,9 
			76.8,34.2 50.7,49.7 50.7,78.3 77.2,86 		"/>
	</g>
	<g>
		<rect x="67.9" y="70.6" transform="matrix(0.5146 -0.8574 0.8574 0.5146 -19.2758 107.8286)" width="35.3" height="0.6"/>
	</g>
	<g>
		<rect x="94.4" y="44.3" width="0.6" height="11.5"/>
	</g>
	<g>
		<rect x="85.3" y="30.8" transform="matrix(0.7666 -0.6422 0.6422 0.7666 -8.8662 65.4624)" width="0.6" height="28.4"/>
	</g>
</g>
</svg>
