<?xml version="1.0" encoding="utf-8"?>
<!-- Generator: Adobe Illustrator 19.2.1, SVG Export Plug-In . SVG Version: 6.00 Build 0)  -->
<svg version="1.1" id="Layer_1" xmlns="http://www.w3.org/2000/svg" xmlns:xlink="http://www.w3.org/1999/xlink" x="0px" y="0px"
	 viewBox="0 0 100 125" style="enable-background:new 0 0 100 125;" xml:space="preserve">
<g>
	<g>
		<path d="M11.9,72.4c-0.1-0.1,0-0.3,0.1-0.4l0,0c0.1-0.1,0.3,0,0.4,0.1l0,0c0.1,0.1,0,0.3-0.1,0.4l0,0c0,0-0.1,0-0.1,0l0,0
			C12,72.6,11.9,72.5,11.9,72.4z M12.9,71.8c-0.1-0.1,0-0.3,0.1-0.4l0,0c0.1-0.1,0.3,0,0.4,0.1l0,0c0.1,0.1,0,0.3-0.1,0.4l0,0
			c0,0-0.1,0-0.1,0l0,0C13.1,72,13,71.9,12.9,71.8z M14,71.3c-0.1-0.1,0-0.3,0.1-0.4l0,0c0.1-0.1,0.3,0,0.4,0.1l0,0
			c0.1,0.1,0,0.3-0.1,0.4l0,0c0,0-0.1,0-0.1,0l0,0C14.1,71.4,14,71.4,14,71.3z M15,70.7c-0.1-0.1,0-0.3,0.1-0.4l0,0
			c0.1-0.1,0.3,0,0.4,0.1l0,0c0.1,0.1,0,0.3-0.1,0.4l0,0c0,0-0.1,0-0.1,0l0,0C15.2,70.8,15.1,70.8,15,70.7z M16.1,70.1
			c-0.1-0.1,0-0.3,0.1-0.4l0,0c0.1-0.1,0.3,0,0.4,0.1l0,0c0.1,0.1,0,0.3-0.1,0.4l0,0c0,0-0.1,0-0.1,0l0,0
			C16.3,70.3,16.2,70.2,16.1,70.1z M17.2,69.5c-0.1-0.1,0-0.3,0.1-0.4l0,0c0.1-0.1,0.3,0,0.4,0.1l0,0c0.1,0.1,0,0.3-0.1,0.4l0,0
			c0,0-0.1,0-0.1,0l0,0C17.3,69.7,17.2,69.6,17.2,69.5z M18.2,69c-0.1-0.1,0-0.3,0.1-0.4l0,0c0.1-0.1,0.3,0,0.4,0.1l0,0
			c0.1,0.1,0,0.3-0.1,0.4l0,0c0,0-0.1,0-0.1,0l0,0C18.4,69.1,18.3,69.1,18.2,69z M19.3,68.4c-0.1-0.1,0-0.3,0.1-0.4l0,0
			c0.1-0.1,0.3,0,0.4,0.1l0,0c0.1,0.1,0,0.3-0.1,0.4l0,0c0,0-0.1,0-0.1,0l0,0C19.4,68.5,19.3,68.5,19.3,68.4z M20.3,67.8
			c-0.1-0.1,0-0.3,0.1-0.4l0,0c0.1-0.1,0.3,0,0.4,0.1l0,0c0.1,0.1,0,0.3-0.1,0.4l0,0c0,0-0.1,0-0.1,0l0,0
			C20.5,68,20.4,67.9,20.3,67.8z M21.4,67.2c-0.1-0.1,0-0.3,0.1-0.4l0,0c0.1-0.1,0.3,0,0.4,0.1l0,0c0.1,0.1,0,0.3-0.1,0.4l0,0
			c0,0-0.1,0-0.1,0l0,0C21.6,67.4,21.4,67.3,21.4,67.2z M22.5,66.7c-0.1-0.1,0-0.3,0.1-0.4l0,0c0.1-0.1,0.3,0,0.4,0.1l0,0
			c0.1,0.1,0,0.3-0.1,0.4l0,0c0,0-0.1,0-0.1,0l0,0C22.6,66.8,22.5,66.8,22.5,66.7z M23.5,66.1c-0.1-0.1,0-0.3,0.1-0.4l0,0
			c0.1-0.1,0.3,0,0.4,0.1l0,0c0.1,0.1,0,0.3-0.1,0.4l0,0c0,0-0.1,0-0.1,0l0,0C23.7,66.2,23.6,66.2,23.5,66.1z M24.6,65.5
			c-0.1-0.1,0-0.3,0.1-0.4l0,0c0.1-0.1,0.3,0,0.4,0.1l0,0c0.1,0.1,0,0.3-0.1,0.4l0,0c0,0-0.1,0-0.1,0l0,0
			C24.7,65.7,24.6,65.6,24.6,65.5z M25.6,64.9c-0.1-0.1,0-0.3,0.1-0.4l0,0c0.1-0.1,0.3,0,0.4,0.1l0,0c0.1,0.1,0,0.3-0.1,0.4l0,0
			c0,0-0.1,0-0.1,0l0,0C25.8,65.1,25.7,65,25.6,64.9z M26.7,64.4c-0.1-0.1,0-0.3,0.1-0.4l0,0c0.1-0.1,0.3,0,0.4,0.1l0,0
			c0.1,0.1,0,0.3-0.1,0.4l0,0c0,0-0.1,0-0.1,0l0,0C26.8,64.5,26.7,64.5,26.7,64.4z M27.7,63.8c-0.1-0.1,0-0.3,0.1-0.4l0,0
			c0.1-0.1,0.3,0,0.4,0.1l0,0c0.1,0.1,0,0.3-0.1,0.4l0,0c0,0-0.1,0-0.1,0l0,0C27.9,63.9,27.8,63.9,27.7,63.8z M28.8,63.2
			c-0.1-0.1,0-0.3,0.1-0.4l0,0c0.1-0.1,0.3,0,0.4,0.1l0,0c0.1,0.1,0,0.3-0.1,0.4l0,0c0,0-0.1,0-0.1,0l0,0
			C29,63.4,28.9,63.3,28.8,63.2z M29.9,62.6c-0.1-0.1,0-0.3,0.1-0.4l0,0c0.1-0.1,0.3,0,0.4,0.1l0,0c0.1,0.1,0,0.3-0.1,0.4l0,0
			c0,0-0.1,0-0.1,0l0,0C30,62.8,29.9,62.7,29.9,62.6z M30.9,62.1c-0.1-0.1,0-0.3,0.1-0.4l0,0c0.1-0.1,0.3,0,0.4,0.1l0,0
			c0.1,0.1,0,0.3-0.1,0.4l0,0c0,0-0.1,0-0.1,0l0,0C31.1,62.2,31,62.2,30.9,62.1z M32,61.5c-0.1-0.1,0-0.3,0.1-0.4l0,0
			c0.1-0.1,0.3,0,0.4,0.1l0,0c0.1,0.1,0,0.3-0.1,0.4l0,0c0,0-0.1,0-0.1,0l0,0C32.1,61.7,32,61.6,32,61.5z"/>
	</g>
	<g>
		<path d="M50.2,29.2c0-0.2,0.1-0.3,0.3-0.3l0,0c0.2,0,0.3,0.1,0.3,0.3l0,0c0,0.2-0.1,0.3-0.3,0.3l0,0
			C50.3,29.6,50.2,29.4,50.2,29.2z M50.2,28c0-0.2,0.1-0.3,0.3-0.3l0,0c0.2,0,0.3,0.1,0.3,0.3l0,0c0,0.2-0.1,0.3-0.3,0.3l0,0
			C50.3,28.3,50.2,28.2,50.2,28z M50.2,26.8c0-0.2,0.1-0.3,0.3-0.3l0,0c0.2,0,0.3,0.1,0.3,0.3l0,0c0,0.2-0.1,0.3-0.3,0.3l0,0
			C50.3,27.1,50.2,27,50.2,26.8z M50.2,25.6c0-0.2,0.1-0.3,0.3-0.3l0,0c0.2,0,0.3,0.1,0.3,0.3l0,0c0,0.2-0.1,0.3-0.3,0.3l0,0
			C50.3,25.9,50.2,25.8,50.2,25.6z M50.2,24.4c0-0.2,0.1-0.3,0.3-0.3l0,0c0.2,0,0.3,0.1,0.3,0.3l0,0c0,0.2-0.1,0.3-0.3,0.3l0,0
			C50.3,24.7,50.2,24.6,50.2,24.4z M50.2,23.2c0-0.2,0.1-0.3,0.3-0.3l0,0c0.2,0,0.3,0.1,0.3,0.3l0,0c0,0.2-0.1,0.3-0.3,0.3l0,0
			C50.3,23.5,50.2,23.4,50.2,23.2z M50.2,22c0-0.2,0.1-0.3,0.3-0.3l0,0c0.2,0,0.3,0.1,0.3,0.3l0,0c0,0.2-0.1,0.3-0.3,0.3l0,0
			C50.3,22.3,50.2,22.2,50.2,22z M50.2,20.8c0-0.2,0.1-0.3,0.3-0.3l0,0c0.2,0,0.3,0.1,0.3,0.3l0,0c0,0.2-0.1,0.3-0.3,0.3l0,0
			C50.3,21.1,50.2,21,50.2,20.8z M50.2,19.6c0-0.2,0.1-0.3,0.3-0.3l0,0c0.2,0,0.3,0.1,0.3,0.3l0,0c0,0.2-0.1,0.3-0.3,0.3l0,0
			C50.3,19.9,50.2,19.8,50.2,19.6z M50.2,18.4c0-0.2,0.1-0.3,0.3-0.3l0,0c0.2,0,0.3,0.1,0.3,0.3l0,0c0,0.2-0.1,0.3-0.3,0.3l0,0
			C50.3,18.7,50.2,18.6,50.2,18.4z M50.2,17.2c0-0.2,0.1-0.3,0.3-0.3l0,0c0.2,0,0.3,0.1,0.3,0.3l0,0c0,0.2-0.1,0.3-0.3,0.3l0,0
			C50.3,17.5,50.2,17.4,50.2,17.2z M50.2,16c0-0.2,0.1-0.3,0.3-0.3l0,0c0.2,0,0.3,0.1,0.3,0.3l0,0c0,0.2-0.1,0.3-0.3,0.3l0,0
			C50.3,16.3,50.2,16.2,50.2,16z M50.2,14.8c0-0.2,0.1-0.3,0.3-0.3l0,0c0.2,0,0.3,0.1,0.3,0.3l0,0c0,0.2-0.1,0.3-0.3,0.3l0,0
			C50.3,15.1,50.2,15,50.2,14.8z M50.2,13.6c0-0.2,0.1-0.3,0.3-0.3l0,0c0.2,0,0.3,0.1,0.3,0.3l0,0c0,0.2-0.1,0.3-0.3,0.3l0,0
			C50.3,13.9,50.2,13.8,50.2,13.6z M50.2,12.4c0-0.2,0.1-0.3,0.3-0.3l0,0c0.2,0,0.3,0.1,0.3,0.3l0,0c0,0.2-0.1,0.3-0.3,0.3l0,0
			C50.3,12.7,50.2,12.5,50.2,12.4z M50.2,11.2c0-0.2,0.1-0.3,0.3-0.3l0,0c0.2,0,0.3,0.1,0.3,0.3l0,0c0,0.2-0.1,0.3-0.3,0.3l0,0
			C50.3,11.5,50.2,11.3,50.2,11.2z M50.2,10c0-0.2,0.1-0.3,0.3-0.3l0,0c0.2,0,0.3,0.1,0.3,0.3l0,0c0,0.2-0.1,0.3-0.3,0.3l0,0
			C50.3,10.3,50.2,10.1,50.2,10z M50.2,8.8c0-0.2,0.1-0.3,0.3-0.3l0,0c0.2,0,0.3,0.1,0.3,0.3l0,0c0,0.2-0.1,0.3-0.3,0.3l0,0
			C50.3,9.1,50.2,8.9,50.2,8.8z M50.2,7.6c0-0.2,0.1-0.3,0.3-0.3l0,0c0.2,0,0.3,0.1,0.3,0.3l0,0c0,0.2-0.1,0.3-0.3,0.3l0,0
			C50.3,7.9,50.2,7.7,50.2,7.6z M50.2,6.4c0-0.2,0.1-0.3,0.3-0.3l0,0c0.2,0,0.3,0.1,0.3,0.3l0,0c0,0.2-0.1,0.3-0.3,0.3l0,0
			C50.3,6.7,50.2,6.5,50.2,6.4z"/>
	</g>
	<g>
		<path d="M88.1,71.9c-0.1-0.1-0.2-0.3-0.1-0.4l0,0c0.1-0.1,0.3-0.2,0.4-0.1l0,0c0.1,0.1,0.2,0.3,0.1,0.4l0,0
			c-0.1,0.1-0.2,0.2-0.3,0.2l0,0C88.1,71.9,88.1,71.9,88.1,71.9z M87,71.3c-0.1-0.1-0.2-0.3-0.1-0.4l0,0c0.1-0.1,0.3-0.2,0.4-0.1
			l0,0c0.1,0.1,0.2,0.3,0.1,0.4l0,0c-0.1,0.1-0.2,0.2-0.3,0.2l0,0C87.1,71.3,87,71.3,87,71.3z M85.9,70.7c-0.1-0.1-0.2-0.3-0.1-0.4
			l0,0c0.1-0.1,0.3-0.2,0.4-0.1l0,0c0.1,0.1,0.2,0.3,0.1,0.4l0,0c-0.1,0.1-0.2,0.2-0.3,0.2l0,0C86,70.7,86,70.7,85.9,70.7z
			 M84.9,70.1c-0.1-0.1-0.2-0.3-0.1-0.4l0,0c0.1-0.1,0.3-0.2,0.4-0.1l0,0c0.1,0.1,0.2,0.3,0.1,0.4l0,0c-0.1,0.1-0.2,0.2-0.3,0.2l0,0
			C85,70.1,84.9,70.1,84.9,70.1z M83.8,69.5c-0.1-0.1-0.2-0.3-0.1-0.4l0,0c0.1-0.1,0.3-0.2,0.4-0.1l0,0c0.1,0.1,0.2,0.3,0.1,0.4l0,0
			c-0.1,0.1-0.2,0.2-0.3,0.2l0,0C83.9,69.6,83.9,69.6,83.8,69.5z M82.8,68.9c-0.1-0.1-0.2-0.3-0.1-0.4l0,0c0.1-0.1,0.3-0.2,0.4-0.1
			l0,0c0.1,0.1,0.2,0.3,0.1,0.4l0,0C83.1,68.9,83,69,82.9,69l0,0C82.9,69,82.8,69,82.8,68.9z M81.7,68.4c-0.1-0.1-0.2-0.3-0.1-0.4
			l0,0c0.1-0.1,0.3-0.2,0.4-0.1l0,0c0.1,0.1,0.2,0.3,0.1,0.4l0,0c-0.1,0.1-0.2,0.2-0.3,0.2l0,0C81.8,68.4,81.8,68.4,81.7,68.4z
			 M80.7,67.8c-0.1-0.1-0.2-0.3-0.1-0.4l0,0c0.1-0.1,0.3-0.2,0.4-0.1l0,0c0.1,0.1,0.2,0.3,0.1,0.4l0,0c-0.1,0.1-0.2,0.2-0.3,0.2l0,0
			C80.8,67.8,80.7,67.8,80.7,67.8z M79.6,67.2c-0.1-0.1-0.2-0.3-0.1-0.4l0,0c0.1-0.1,0.3-0.2,0.4-0.1l0,0c0.1,0.1,0.2,0.3,0.1,0.4
			l0,0c-0.1,0.1-0.2,0.2-0.3,0.2l0,0C79.7,67.2,79.7,67.2,79.6,67.2z M78.6,66.6c-0.1-0.1-0.2-0.3-0.1-0.4l0,0
			c0.1-0.1,0.3-0.2,0.4-0.1l0,0c0.1,0.1,0.2,0.3,0.1,0.4l0,0c-0.1,0.1-0.2,0.2-0.3,0.2l0,0C78.7,66.6,78.6,66.6,78.6,66.6z M77.5,66
			c-0.1-0.1-0.2-0.3-0.1-0.4l0,0c0.1-0.1,0.3-0.2,0.4-0.1l0,0c0.1,0.1,0.2,0.3,0.1,0.4l0,0c-0.1,0.1-0.2,0.2-0.3,0.2l0,0
			C77.6,66.1,77.6,66.1,77.5,66z M76.4,65.4c-0.1-0.1-0.2-0.3-0.1-0.4l0,0c0.1-0.1,0.3-0.2,0.4-0.1l0,0c0.1,0.1,0.2,0.3,0.1,0.4l0,0
			c-0.1,0.1-0.2,0.2-0.3,0.2l0,0C76.5,65.5,76.5,65.5,76.4,65.4z M75.4,64.9c-0.1-0.1-0.2-0.3-0.1-0.4l0,0c0.1-0.1,0.3-0.2,0.4-0.1
			l0,0c0.1,0.1,0.2,0.3,0.1,0.4l0,0c-0.1,0.1-0.2,0.2-0.3,0.2l0,0C75.5,64.9,75.4,64.9,75.4,64.9z M74.3,64.3
			c-0.1-0.1-0.2-0.3-0.1-0.4l0,0c0.1-0.1,0.3-0.2,0.4-0.1l0,0c0.1,0.1,0.2,0.3,0.1,0.4l0,0c-0.1,0.1-0.2,0.2-0.3,0.2l0,0
			C74.4,64.3,74.4,64.3,74.3,64.3z M73.3,63.7c-0.1-0.1-0.2-0.3-0.1-0.4l0,0c0.1-0.1,0.3-0.2,0.4-0.1l0,0c0.1,0.1,0.2,0.3,0.1,0.4
			l0,0c-0.1,0.1-0.2,0.2-0.3,0.2l0,0C73.4,63.7,73.3,63.7,73.3,63.7z M72.2,63.1c-0.1-0.1-0.2-0.3-0.1-0.4l0,0
			c0.1-0.1,0.3-0.2,0.4-0.1l0,0c0.1,0.1,0.2,0.3,0.1,0.4l0,0c-0.1,0.1-0.2,0.2-0.3,0.2l0,0C72.3,63.2,72.3,63.1,72.2,63.1z
			 M71.2,62.5c-0.1-0.1-0.2-0.3-0.1-0.4l0,0c0.1-0.1,0.3-0.2,0.4-0.1l0,0c0.1,0.1,0.2,0.3,0.1,0.4l0,0c-0.1,0.1-0.2,0.2-0.3,0.2l0,0
			C71.3,62.6,71.2,62.6,71.2,62.5z M70.1,61.9c-0.1-0.1-0.2-0.3-0.1-0.4l0,0c0.1-0.1,0.3-0.2,0.4-0.1l0,0c0.1,0.1,0.2,0.3,0.1,0.4
			l0,0c-0.1,0.1-0.2,0.2-0.3,0.2l0,0C70.2,62,70.2,62,70.1,61.9z M69.1,61.4c-0.1-0.1-0.2-0.3-0.1-0.4l0,0c0.1-0.1,0.3-0.2,0.4-0.1
			l0,0c0.1,0.1,0.2,0.3,0.1,0.4l0,0c-0.1,0.1-0.2,0.2-0.3,0.2l0,0C69.2,61.4,69.1,61.4,69.1,61.4z"/>
	</g>
	<g>
		<path d="M51,95.7l-0.2-0.1L12,73.2v-45l0.2-0.1L51,5.7l38.9,22.5v45l-0.2,0.1L51,95.7z M12.6,72.8L51,95l38.3-22.1V28.6L51,6.4
			L12.6,28.6V72.8z"/>
	</g>
	<g>
		<g>
			<path d="M50.6,29.3c-0.1,0-0.2,0-0.2-0.1c-0.1-0.1-0.1-0.1-0.1-0.2c0-0.1,0-0.2,0.1-0.2c0.1-0.1,0.3-0.1,0.4,0
				c0.1,0.1,0.1,0.1,0.1,0.2c0,0.1,0,0.2-0.1,0.2C50.8,29.3,50.7,29.3,50.6,29.3z"/>
		</g>
		<g>
			<path d="M68.3,60.2c-0.1-0.1,0-0.3,0.1-0.4l0,0c0.1-0.1,0.3,0,0.4,0.1l0,0c0.1,0.1,0,0.3-0.1,0.4l0,0c0,0-0.1,0-0.2,0l0,0
				C68.5,60.4,68.4,60.3,68.3,60.2z M67.7,59.2c-0.1-0.1,0-0.3,0.1-0.4l0,0c0.1-0.1,0.3,0,0.4,0.1l0,0c0.1,0.1,0,0.3-0.1,0.4l0,0
				c0,0-0.1,0-0.1,0l0,0C67.9,59.4,67.8,59.3,67.7,59.2z M67.1,58.2c-0.1-0.1,0-0.3,0.1-0.4l0,0c0.1-0.1,0.3,0,0.4,0.1l0,0
				c0.1,0.1,0,0.3-0.1,0.4l0,0c0,0-0.1,0-0.2,0l0,0C67.3,58.3,67.2,58.3,67.1,58.2z M66.5,57.1c-0.1-0.1,0-0.3,0.1-0.4l0,0
				c0.1-0.1,0.3,0,0.4,0.1l0,0c0.1,0.1,0,0.3-0.1,0.4l0,0c0,0-0.1,0-0.2,0l0,0C66.7,57.3,66.6,57.2,66.5,57.1z M65.9,56.1
				c-0.1-0.1,0-0.3,0.1-0.4l0,0c0.1-0.1,0.3,0,0.4,0.1l0,0c0.1,0.1,0,0.3-0.1,0.4l0,0c0,0-0.1,0-0.2,0l0,0
				C66.1,56.3,66,56.2,65.9,56.1z M65.3,55.1c-0.1-0.1,0-0.3,0.1-0.4l0,0c0.1-0.1,0.3,0,0.4,0.1l0,0c0.1,0.1,0,0.3-0.1,0.4l0,0
				c0,0-0.1,0-0.2,0l0,0C65.5,55.2,65.4,55.2,65.3,55.1z M64.7,54c-0.1-0.1,0-0.3,0.1-0.4l0,0c0.1-0.1,0.3,0,0.4,0.1l0,0
				c0.1,0.1,0,0.3-0.1,0.4l0,0c0,0-0.1,0-0.2,0l0,0C64.9,54.2,64.8,54.1,64.7,54z M64.1,53c-0.1-0.1,0-0.3,0.1-0.4l0,0
				c0.1-0.1,0.3,0,0.4,0.1l0,0c0.1,0.1,0,0.3-0.1,0.4l0,0c0,0-0.1,0-0.2,0l0,0C64.3,53.2,64.2,53.1,64.1,53z M63.5,52
				c-0.1-0.1,0-0.3,0.1-0.4l0,0c0.1-0.1,0.3,0,0.4,0.1l0,0c0.1,0.1,0,0.3-0.1,0.4l0,0c0,0-0.1,0-0.2,0l0,0
				C63.7,52.1,63.6,52.1,63.5,52z M62.9,50.9c-0.1-0.1,0-0.3,0.1-0.4l0,0c0.1-0.1,0.3,0,0.4,0.1l0,0c0.1,0.1,0,0.3-0.1,0.4l0,0
				c0,0-0.1,0-0.2,0l0,0C63.1,51.1,63,51,62.9,50.9z M62.3,49.9c-0.1-0.1,0-0.3,0.1-0.4l0,0c0.1-0.1,0.3,0,0.4,0.1l0,0
				c0.1,0.1,0,0.3-0.1,0.4l0,0c0,0-0.1,0-0.2,0l0,0C62.5,50,62.4,50,62.3,49.9z M61.7,48.9c-0.1-0.1,0-0.3,0.1-0.4l0,0
				c0.1-0.1,0.3,0,0.4,0.1l0,0c0.1,0.1,0,0.3-0.1,0.4l0,0c0,0-0.1,0-0.2,0l0,0C61.9,49,61.8,49,61.7,48.9z M61.1,47.8
				c-0.1-0.1,0-0.3,0.1-0.4l0,0c0.1-0.1,0.3,0,0.4,0.1l0,0c0.1,0.1,0,0.3-0.1,0.4l0,0c0,0-0.1,0-0.2,0l0,0
				C61.3,48,61.2,47.9,61.1,47.8z M60.5,46.8c-0.1-0.1,0-0.3,0.1-0.4l0,0c0.1-0.1,0.3,0,0.4,0.1l0,0c0.1,0.1,0,0.3-0.1,0.4l0,0
				c0,0-0.1,0-0.2,0l0,0C60.7,46.9,60.6,46.9,60.5,46.8z M59.9,45.7c-0.1-0.1,0-0.3,0.1-0.4l0,0c0.1-0.1,0.3,0,0.4,0.1l0,0
				c0.1,0.1,0,0.3-0.1,0.4l0,0c0,0-0.1,0-0.1,0l0,0C60.1,45.9,60,45.8,59.9,45.7z M59.3,44.7c-0.1-0.1,0-0.3,0.1-0.4l0,0
				c0.1-0.1,0.3,0,0.4,0.1l0,0c0.1,0.1,0,0.3-0.1,0.4l0,0c0,0-0.1,0-0.2,0l0,0C59.5,44.9,59.4,44.8,59.3,44.7z M58.8,43.7
				c-0.1-0.1,0-0.3,0.1-0.4l0,0c0.1-0.1,0.3,0,0.4,0.1l0,0c0.1,0.1,0,0.3-0.1,0.4l0,0c0,0-0.1,0-0.2,0l0,0
				C58.9,43.8,58.8,43.8,58.8,43.7z M58.2,42.6c-0.1-0.1,0-0.3,0.1-0.4l0,0c0.1-0.1,0.3,0,0.4,0.1l0,0c0.1,0.1,0,0.3-0.1,0.4l0,0
				c0,0-0.1,0-0.1,0l0,0C58.3,42.8,58.2,42.7,58.2,42.6z M57.6,41.6c-0.1-0.1,0-0.3,0.1-0.4l0,0c0.1-0.1,0.3,0,0.4,0.1l0,0
				c0.1,0.1,0,0.3-0.1,0.4l0,0c0,0-0.1,0-0.2,0l0,0C57.7,41.8,57.6,41.7,57.6,41.6z M57,40.6c-0.1-0.1,0-0.3,0.1-0.4l0,0
				c0.1-0.1,0.3,0,0.4,0.1l0,0c0.1,0.1,0,0.3-0.1,0.4l0,0c0,0-0.1,0-0.2,0l0,0C57.1,40.7,57,40.7,57,40.6z M56.4,39.5
				c-0.1-0.1,0-0.3,0.1-0.4l0,0c0.1-0.1,0.3,0,0.4,0.1l0,0c0.1,0.1,0,0.3-0.1,0.4l0,0c0,0-0.1,0-0.2,0l0,0
				C56.5,39.7,56.4,39.6,56.4,39.5z M55.8,38.5c-0.1-0.1,0-0.3,0.1-0.4l0,0c0.1-0.1,0.3,0,0.4,0.1l0,0c0.1,0.1,0,0.3-0.1,0.4l0,0
				c0,0-0.1,0-0.2,0l0,0C55.9,38.7,55.8,38.6,55.8,38.5z M55.2,37.5c-0.1-0.1,0-0.3,0.1-0.4l0,0c0.1-0.1,0.3,0,0.4,0.1l0,0
				c0.1,0.1,0,0.3-0.1,0.4l0,0c0,0-0.1,0-0.2,0l0,0C55.3,37.6,55.2,37.6,55.2,37.5z M54.6,36.4c-0.1-0.1,0-0.3,0.1-0.4l0,0
				c0.1-0.1,0.3,0,0.4,0.1l0,0c0.1,0.1,0,0.3-0.1,0.4l0,0c0,0-0.1,0-0.2,0l0,0C54.7,36.6,54.6,36.5,54.6,36.4z M54,35.4
				c-0.1-0.1,0-0.3,0.1-0.4l0,0c0.1-0.1,0.3,0,0.4,0.1l0,0c0.1,0.1,0,0.3-0.1,0.4l0,0c0,0-0.1,0-0.2,0l0,0
				C54.1,35.5,54,35.5,54,35.4z M53.4,34.4c-0.1-0.1,0-0.3,0.1-0.4l0,0c0.1-0.1,0.3,0,0.4,0.1l0,0c0.1,0.1,0,0.3-0.1,0.4l0,0
				c0,0-0.1,0-0.2,0l0,0C53.5,34.5,53.4,34.5,53.4,34.4z M52.8,33.3c-0.1-0.1,0-0.3,0.1-0.4l0,0c0.1-0.1,0.3,0,0.4,0.1l0,0
				c0.1,0.1,0,0.3-0.1,0.4l0,0c0,0-0.1,0-0.2,0l0,0C52.9,33.5,52.8,33.4,52.8,33.3z M52.2,32.3c-0.1-0.1,0-0.3,0.1-0.4l0,0
				c0.1-0.1,0.3,0,0.4,0.1l0,0c0.1,0.1,0,0.3-0.1,0.4l0,0c0,0-0.1,0-0.2,0l0,0C52.3,32.4,52.2,32.4,52.2,32.3z M51.6,31.3
				c-0.1-0.1,0-0.3,0.1-0.4l0,0c0.1-0.1,0.3,0,0.4,0.1l0,0c0.1,0.1,0,0.3-0.1,0.4l0,0c0,0-0.1,0-0.2,0l0,0
				C51.7,31.4,51.6,31.4,51.6,31.3z M51,30.2c-0.1-0.1,0-0.3,0.1-0.4l0,0c0.1-0.1,0.3,0,0.4,0.1l0,0c0.1,0.1,0,0.3-0.1,0.4l0,0
				c0,0-0.1,0-0.2,0l0,0C51.1,30.4,51,30.3,51,30.2z"/>
		</g>
		<g>
			<path d="M69.2,61.4c-0.1,0-0.2,0-0.2-0.1c-0.1-0.1-0.1-0.1-0.1-0.2c0-0.1,0-0.2,0.1-0.2c0.1-0.1,0.3-0.1,0.4,0
				c0.1,0.1,0.1,0.1,0.1,0.2c0,0.1,0,0.2-0.1,0.2C69.3,61.4,69.3,61.4,69.2,61.4z"/>
		</g>
		<g>
			<path d="M67.7,61.1c0-0.2,0.1-0.3,0.3-0.3l0,0c0.2,0,0.3,0.1,0.3,0.3l0,0c0,0.2-0.1,0.3-0.3,0.3l0,0
				C67.8,61.4,67.7,61.3,67.7,61.1z M66.5,61.1c0-0.2,0.1-0.3,0.3-0.3l0,0c0.2,0,0.3,0.1,0.3,0.3l0,0c0,0.2-0.1,0.3-0.3,0.3l0,0
				C66.6,61.4,66.5,61.3,66.5,61.1z M65.3,61.1c0-0.2,0.1-0.3,0.3-0.3l0,0c0.2,0,0.3,0.1,0.3,0.3l0,0c0,0.2-0.1,0.3-0.3,0.3l0,0
				C65.4,61.4,65.3,61.3,65.3,61.1z M64.1,61.1c0-0.2,0.1-0.3,0.3-0.3l0,0c0.2,0,0.3,0.1,0.3,0.3l0,0c0,0.2-0.1,0.3-0.3,0.3l0,0
				C64.2,61.4,64.1,61.3,64.1,61.1z M62.9,61.1c0-0.2,0.1-0.3,0.3-0.3l0,0c0.2,0,0.3,0.1,0.3,0.3l0,0c0,0.2-0.1,0.3-0.3,0.3l0,0
				C63,61.4,62.9,61.3,62.9,61.1z M61.7,61.1c0-0.2,0.1-0.3,0.3-0.3l0,0c0.2,0,0.3,0.1,0.3,0.3l0,0c0,0.2-0.1,0.3-0.3,0.3l0,0
				C61.8,61.4,61.7,61.3,61.7,61.1z M60.5,61.1c0-0.2,0.1-0.3,0.3-0.3l0,0c0.2,0,0.3,0.1,0.3,0.3l0,0c0,0.2-0.1,0.3-0.3,0.3l0,0
				C60.6,61.4,60.5,61.3,60.5,61.1z M59.3,61.1c0-0.2,0.1-0.3,0.3-0.3l0,0c0.2,0,0.3,0.1,0.3,0.3l0,0c0,0.2-0.1,0.3-0.3,0.3l0,0
				C59.4,61.4,59.3,61.3,59.3,61.1z M58.1,61.1c0-0.2,0.1-0.3,0.3-0.3l0,0c0.2,0,0.3,0.1,0.3,0.3l0,0c0,0.2-0.1,0.3-0.3,0.3l0,0
				C58.2,61.4,58.1,61.3,58.1,61.1z M56.9,61.1c0-0.2,0.1-0.3,0.3-0.3l0,0c0.2,0,0.3,0.1,0.3,0.3l0,0c0,0.2-0.1,0.3-0.3,0.3l0,0
				C57.1,61.4,56.9,61.3,56.9,61.1z M55.7,61.1c0-0.2,0.1-0.3,0.3-0.3l0,0c0.2,0,0.3,0.1,0.3,0.3l0,0c0,0.2-0.1,0.3-0.3,0.3l0,0
				C55.9,61.4,55.7,61.3,55.7,61.1z M54.5,61.1c0-0.2,0.1-0.3,0.3-0.3l0,0c0.2,0,0.3,0.1,0.3,0.3l0,0c0,0.2-0.1,0.3-0.3,0.3l0,0
				C54.7,61.4,54.5,61.3,54.5,61.1z M53.3,61.1c0-0.2,0.1-0.3,0.3-0.3l0,0c0.2,0,0.3,0.1,0.3,0.3l0,0c0,0.2-0.1,0.3-0.3,0.3l0,0
				C53.5,61.4,53.3,61.3,53.3,61.1z M52.1,61.1c0-0.2,0.1-0.3,0.3-0.3l0,0c0.2,0,0.3,0.1,0.3,0.3l0,0c0,0.2-0.1,0.3-0.3,0.3l0,0
				C52.3,61.4,52.1,61.3,52.1,61.1z M50.9,61.1c0-0.2,0.1-0.3,0.3-0.3l0,0c0.2,0,0.3,0.1,0.3,0.3l0,0c0,0.2-0.1,0.3-0.3,0.3l0,0
				C51.1,61.4,50.9,61.3,50.9,61.1z M49.7,61.1c0-0.2,0.1-0.3,0.3-0.3l0,0c0.2,0,0.3,0.1,0.3,0.3l0,0c0,0.2-0.1,0.3-0.3,0.3l0,0
				C49.9,61.4,49.7,61.3,49.7,61.1z M48.5,61.1c0-0.2,0.1-0.3,0.3-0.3l0,0c0.2,0,0.3,0.1,0.3,0.3l0,0c0,0.2-0.1,0.3-0.3,0.3l0,0
				C48.7,61.4,48.5,61.3,48.5,61.1z M47.3,61.1c0-0.2,0.1-0.3,0.3-0.3l0,0c0.2,0,0.3,0.1,0.3,0.3l0,0c0,0.2-0.1,0.3-0.3,0.3l0,0
				C47.5,61.4,47.3,61.3,47.3,61.1z M46.1,61.1c0-0.2,0.1-0.3,0.3-0.3l0,0c0.2,0,0.3,0.1,0.3,0.3l0,0c0,0.2-0.1,0.3-0.3,0.3l0,0
				C46.3,61.4,46.1,61.3,46.1,61.1z M44.9,61.1c0-0.2,0.1-0.3,0.3-0.3l0,0c0.2,0,0.3,0.1,0.3,0.3l0,0c0,0.2-0.1,0.3-0.3,0.3l0,0
				C45.1,61.4,44.9,61.3,44.9,61.1z M43.7,61.1c0-0.2,0.1-0.3,0.3-0.3l0,0c0.2,0,0.3,0.1,0.3,0.3l0,0c0,0.2-0.1,0.3-0.3,0.3l0,0
				C43.9,61.4,43.7,61.3,43.7,61.1z M42.5,61.1c0-0.2,0.1-0.3,0.3-0.3l0,0c0.2,0,0.3,0.1,0.3,0.3l0,0c0,0.2-0.1,0.3-0.3,0.3l0,0
				C42.7,61.4,42.5,61.3,42.5,61.1z M41.4,61.1c0-0.2,0.1-0.3,0.3-0.3l0,0c0.2,0,0.3,0.1,0.3,0.3l0,0c0,0.2-0.1,0.3-0.3,0.3l0,0
				C41.5,61.4,41.4,61.3,41.4,61.1z M40.2,61.1c0-0.2,0.1-0.3,0.3-0.3l0,0c0.2,0,0.3,0.1,0.3,0.3l0,0c0,0.2-0.1,0.3-0.3,0.3l0,0
				C40.3,61.4,40.2,61.3,40.2,61.1z M39,61.1c0-0.2,0.1-0.3,0.3-0.3l0,0c0.2,0,0.3,0.1,0.3,0.3l0,0c0,0.2-0.1,0.3-0.3,0.3l0,0
				C39.1,61.4,39,61.3,39,61.1z M37.8,61.1c0-0.2,0.1-0.3,0.3-0.3l0,0c0.2,0,0.3,0.1,0.3,0.3l0,0c0,0.2-0.1,0.3-0.3,0.3l0,0
				C37.9,61.4,37.8,61.3,37.8,61.1z M36.6,61.1c0-0.2,0.1-0.3,0.3-0.3l0,0c0.2,0,0.3,0.1,0.3,0.3l0,0c0,0.2-0.1,0.3-0.3,0.3l0,0
				C36.7,61.4,36.6,61.3,36.6,61.1z M35.4,61.1c0-0.2,0.1-0.3,0.3-0.3l0,0c0.2,0,0.3,0.1,0.3,0.3l0,0c0,0.2-0.1,0.3-0.3,0.3l0,0
				C35.5,61.4,35.4,61.3,35.4,61.1z M34.2,61.1c0-0.2,0.1-0.3,0.3-0.3l0,0c0.2,0,0.3,0.1,0.3,0.3l0,0c0,0.2-0.1,0.3-0.3,0.3l0,0
				C34.3,61.4,34.2,61.3,34.2,61.1z M33,61.1c0-0.2,0.1-0.3,0.3-0.3l0,0c0.2,0,0.3,0.1,0.3,0.3l0,0c0,0.2-0.1,0.3-0.3,0.3l0,0
				C33.1,61.4,33,61.3,33,61.1z"/>
		</g>
		<g>
			<path d="M32.1,61.4c-0.1,0-0.2,0-0.2-0.1c-0.1-0.1-0.1-0.1-0.1-0.2c0-0.1,0-0.2,0.1-0.2c0.1-0.1,0.3-0.1,0.4,0
				c0.1,0.1,0.1,0.1,0.1,0.2c0,0.1,0,0.2-0.1,0.2C32.2,61.4,32.2,61.4,32.1,61.4z"/>
		</g>
	</g>
	<g>
		<g>
			<path d="M32,61.4c-0.1,0-0.2,0-0.2-0.1c-0.1-0.1-0.1-0.1-0.1-0.2c0-0.1,0-0.2,0.1-0.2c0.1-0.1,0.3-0.1,0.4,0
				c0.1,0.1,0.1,0.1,0.1,0.2c0,0.1,0,0.2-0.1,0.2C32.2,61.4,32.1,61.4,32,61.4z"/>
		</g>
		<g>
			<path d="M32.5,60.4c-0.1-0.1-0.2-0.3-0.1-0.4l0,0c0.1-0.1,0.3-0.2,0.4-0.1l0,0c0.1,0.1,0.2,0.3,0.1,0.4l0,0
				c-0.1,0.1-0.2,0.1-0.3,0.1l0,0C32.5,60.4,32.5,60.4,32.5,60.4z M33,59.3c-0.1-0.1-0.2-0.3-0.1-0.4l0,0c0.1-0.1,0.3-0.2,0.4-0.1
				l0,0c0.1,0.1,0.2,0.3,0.1,0.4l0,0c-0.1,0.1-0.2,0.2-0.3,0.2l0,0C33.1,59.4,33.1,59.3,33,59.3z M33.7,58.3
				c-0.1-0.1-0.2-0.3-0.1-0.4l0,0c0.1-0.1,0.3-0.2,0.4-0.1l0,0c0.1,0.1,0.2,0.3,0.1,0.4l0,0c-0.1,0.1-0.2,0.2-0.3,0.2l0,0
				C33.8,58.3,33.7,58.3,33.7,58.3z M34.3,57.2c-0.1-0.1-0.2-0.3-0.1-0.4l0,0c0.1-0.1,0.3-0.2,0.4-0.1l0,0c0.1,0.1,0.2,0.3,0.1,0.4
				l0,0c-0.1,0.1-0.2,0.2-0.3,0.2l0,0C34.4,57.3,34.3,57.3,34.3,57.2z M34.9,56.2c-0.1-0.1-0.2-0.3-0.1-0.4l0,0
				c0.1-0.1,0.3-0.2,0.4-0.1l0,0c0.1,0.1,0.2,0.3,0.1,0.4l0,0c-0.1,0.1-0.2,0.1-0.3,0.1l0,0C35,56.3,34.9,56.2,34.9,56.2z
				 M35.5,55.2c-0.1-0.1-0.2-0.3-0.1-0.4l0,0c0.1-0.1,0.3-0.2,0.4-0.1l0,0c0.1,0.1,0.2,0.3,0.1,0.4l0,0c-0.1,0.1-0.2,0.2-0.3,0.2
				l0,0C35.6,55.2,35.5,55.2,35.5,55.2z M36.1,54.1c-0.1-0.1-0.2-0.3-0.1-0.4l0,0c0.1-0.1,0.3-0.2,0.4-0.1l0,0
				c0.1,0.1,0.2,0.3,0.1,0.4l0,0c-0.1,0.1-0.2,0.2-0.3,0.2l0,0C36.2,54.2,36.1,54.2,36.1,54.1z M36.7,53.1c-0.1-0.1-0.2-0.3-0.1-0.4
				l0,0c0.1-0.1,0.3-0.2,0.4-0.1l0,0c0.1,0.1,0.2,0.3,0.1,0.4l0,0c-0.1,0.1-0.2,0.2-0.3,0.2l0,0C36.8,53.1,36.7,53.1,36.7,53.1z
				 M37.3,52.1c-0.1-0.1-0.2-0.3-0.1-0.4l0,0c0.1-0.1,0.3-0.2,0.4-0.1l0,0c0.1,0.1,0.2,0.3,0.1,0.4l0,0c-0.1,0.1-0.2,0.1-0.3,0.1
				l0,0C37.4,52.1,37.3,52.1,37.3,52.1z M37.9,51c-0.1-0.1-0.2-0.3-0.1-0.4l0,0c0.1-0.1,0.3-0.2,0.4-0.1l0,0
				c0.1,0.1,0.2,0.3,0.1,0.4l0,0c-0.1,0.1-0.2,0.2-0.3,0.2l0,0C38,51.1,37.9,51.1,37.9,51z M38.5,50c-0.1-0.1-0.2-0.3-0.1-0.4l0,0
				c0.1-0.1,0.3-0.2,0.4-0.1l0,0c0.1,0.1,0.2,0.3,0.1,0.4l0,0C38.8,50,38.7,50,38.6,50l0,0C38.6,50,38.5,50,38.5,50z M39.1,49
				c-0.1-0.1-0.2-0.3-0.1-0.4l0,0c0.1-0.1,0.3-0.2,0.4-0.1l0,0c0.1,0.1,0.2,0.3,0.1,0.4l0,0C39.4,49,39.3,49,39.2,49l0,0
				C39.2,49,39.1,49,39.1,49z M39.7,47.9c-0.1-0.1-0.2-0.3-0.1-0.4l0,0c0.1-0.1,0.3-0.2,0.4-0.1l0,0c0.1,0.1,0.2,0.3,0.1,0.4l0,0
				C40,47.9,39.9,48,39.8,48l0,0C39.8,48,39.7,48,39.7,47.9z M40.3,46.9c-0.1-0.1-0.2-0.3-0.1-0.4l0,0c0.1-0.1,0.3-0.2,0.4-0.1l0,0
				c0.1,0.1,0.2,0.3,0.1,0.4l0,0c-0.1,0.1-0.2,0.2-0.3,0.2l0,0C40.4,46.9,40.3,46.9,40.3,46.9z M40.9,45.9c-0.1-0.1-0.2-0.3-0.1-0.4
				l0,0c0.1-0.1,0.3-0.2,0.4-0.1l0,0c0.1,0.1,0.2,0.3,0.1,0.4l0,0c-0.1,0.1-0.2,0.2-0.3,0.2l0,0C41,45.9,40.9,45.9,40.9,45.9z
				 M41.5,44.8c-0.1-0.1-0.2-0.3-0.1-0.4l0,0c0.1-0.1,0.3-0.2,0.4-0.1l0,0c0.1,0.1,0.2,0.3,0.1,0.4l0,0c-0.1,0.1-0.2,0.2-0.3,0.2
				l0,0C41.6,44.9,41.5,44.9,41.5,44.8z M42.1,43.8c-0.1-0.1-0.2-0.3-0.1-0.4l0,0c0.1-0.1,0.3-0.2,0.4-0.1l0,0
				c0.1,0.1,0.2,0.3,0.1,0.4l0,0c-0.1,0.1-0.2,0.1-0.3,0.1l0,0C42.2,43.8,42.1,43.8,42.1,43.8z M42.7,42.8c-0.1-0.1-0.2-0.3-0.1-0.4
				l0,0c0.1-0.1,0.3-0.2,0.4-0.1l0,0c0.1,0.1,0.2,0.3,0.1,0.4l0,0c-0.1,0.1-0.2,0.2-0.3,0.2l0,0C42.8,42.8,42.7,42.8,42.7,42.8z
				 M43.3,41.7c-0.1-0.1-0.2-0.3-0.1-0.4l0,0c0.1-0.1,0.3-0.2,0.4-0.1l0,0c0.1,0.1,0.2,0.3,0.1,0.4l0,0c-0.1,0.1-0.2,0.2-0.3,0.2
				l0,0C43.4,41.8,43.3,41.7,43.3,41.7z M43.9,40.7c-0.1-0.1-0.2-0.3-0.1-0.4l0,0c0.1-0.1,0.3-0.2,0.4-0.1l0,0
				c0.1,0.1,0.2,0.3,0.1,0.4l0,0c-0.1,0.1-0.2,0.2-0.3,0.2l0,0C44,40.7,43.9,40.7,43.9,40.7z M44.5,39.6c-0.1-0.1-0.2-0.3-0.1-0.4
				l0,0c0.1-0.1,0.3-0.2,0.4-0.1l0,0c0.1,0.1,0.2,0.3,0.1,0.4l0,0c-0.1,0.1-0.2,0.1-0.3,0.1l0,0C44.6,39.7,44.5,39.7,44.5,39.6z
				 M45.1,38.6c-0.1-0.1-0.2-0.3-0.1-0.4l0,0c0.1-0.1,0.3-0.2,0.4-0.1l0,0c0.1,0.1,0.2,0.3,0.1,0.4l0,0c-0.1,0.1-0.2,0.2-0.3,0.2
				l0,0C45.2,38.7,45.1,38.6,45.1,38.6z M45.7,37.6c-0.1-0.1-0.2-0.3-0.1-0.4l0,0c0.1-0.1,0.3-0.2,0.4-0.1l0,0
				c0.1,0.1,0.2,0.3,0.1,0.4l0,0c-0.1,0.1-0.2,0.2-0.3,0.2l0,0C45.8,37.6,45.7,37.6,45.7,37.6z M46.3,36.5c-0.1-0.1-0.2-0.3-0.1-0.4
				l0,0c0.1-0.1,0.3-0.2,0.4-0.1l0,0c0.1,0.1,0.2,0.3,0.1,0.4l0,0c-0.1,0.1-0.2,0.2-0.3,0.2l0,0C46.4,36.6,46.3,36.6,46.3,36.5z
				 M46.9,35.5c-0.1-0.1-0.2-0.3-0.1-0.4l0,0c0.1-0.1,0.3-0.2,0.4-0.1l0,0c0.1,0.1,0.2,0.3,0.1,0.4l0,0c-0.1,0.1-0.2,0.1-0.3,0.1
				l0,0C47,35.5,46.9,35.5,46.9,35.5z M47.5,34.5c-0.1-0.1-0.2-0.3-0.1-0.4l0,0c0.1-0.1,0.3-0.2,0.4-0.1l0,0
				c0.1,0.1,0.2,0.3,0.1,0.4l0,0c-0.1,0.1-0.2,0.2-0.3,0.2l0,0C47.6,34.5,47.5,34.5,47.5,34.5z M48.1,33.4c-0.1-0.1-0.2-0.3-0.1-0.4
				l0,0c0.1-0.1,0.3-0.2,0.4-0.1l0,0c0.1,0.1,0.2,0.3,0.1,0.4l0,0c-0.1,0.1-0.2,0.2-0.3,0.2l0,0C48.2,33.5,48.1,33.5,48.1,33.4z
				 M48.7,32.4c-0.1-0.1-0.2-0.3-0.1-0.4l0,0c0.1-0.1,0.3-0.2,0.4-0.1l0,0c0.1,0.1,0.2,0.3,0.1,0.4l0,0c-0.1,0.1-0.2,0.1-0.3,0.1
				l0,0C48.8,32.4,48.7,32.4,48.7,32.4z M49.3,31.4c-0.1-0.1-0.2-0.3-0.1-0.4l0,0c0.1-0.1,0.3-0.2,0.4-0.1l0,0
				c0.1,0.1,0.2,0.3,0.1,0.4l0,0c-0.1,0.1-0.2,0.2-0.3,0.2l0,0C49.4,31.4,49.3,31.4,49.3,31.4z M49.9,30.3c-0.1-0.1-0.2-0.3-0.1-0.4
				l0,0c0.1-0.1,0.3-0.2,0.4-0.1l0,0c0.1,0.1,0.2,0.3,0.1,0.4l0,0c-0.1,0.1-0.2,0.2-0.3,0.2l0,0C50,30.4,49.9,30.4,49.9,30.3z"/>
		</g>
		<g>
			<path d="M50.6,29.3c-0.1,0-0.2,0-0.2-0.1c-0.1-0.1-0.1-0.1-0.1-0.2c0-0.1,0-0.2,0.1-0.2c0.1-0.1,0.3-0.1,0.4,0
				c0.1,0.1,0.1,0.1,0.1,0.2c0,0.1,0,0.2-0.1,0.2C50.8,29.3,50.7,29.3,50.6,29.3z"/>
		</g>
	</g>
	<g>
		<polygon points="50,71.9 31.6,40.1 31.2,39.4 68.8,39.4 68.8,40 32.2,40 50.5,71.6 		"/>
	</g>
	<g>
		<rect x="41" y="55.4" transform="matrix(0.5018 -0.865 0.865 0.5018 -18.5039 79.2962)" width="37.1" height="0.6"/>
	</g>
	<g>
		<g>
			<path d="M50.2,95.3c-0.1,0-0.2,0-0.2-0.1c-0.1-0.1-0.1-0.1-0.1-0.2s0-0.2,0.1-0.2c0.1-0.1,0.3-0.1,0.4,0c0.1,0.1,0.1,0.1,0.1,0.2
				s0,0.2-0.1,0.2C50.4,95.3,50.3,95.3,50.2,95.3z"/>
		</g>
		<g>
			<path d="M49.4,94.1c-0.1-0.1,0-0.3,0.1-0.4l0,0c0.1-0.1,0.3,0,0.4,0.1l0,0c0.1,0.1,0,0.3-0.1,0.4l0,0c0,0-0.1,0-0.2,0l0,0
				C49.5,94.3,49.4,94.2,49.4,94.1z M48.8,93.1c-0.1-0.1,0-0.3,0.1-0.4l0,0c0.1-0.1,0.3,0,0.4,0.1l0,0c0.1,0.1,0,0.3-0.1,0.4l0,0
				c0,0-0.1,0-0.2,0l0,0C48.9,93.2,48.8,93.2,48.8,93.1z M48.2,92c-0.1-0.1,0-0.3,0.1-0.4l0,0c0.1-0.1,0.3,0,0.4,0.1l0,0
				c0.1,0.1,0,0.3-0.1,0.4l0,0c0,0-0.1,0-0.1,0l0,0C48.3,92.2,48.2,92.1,48.2,92z M47.6,91c-0.1-0.1,0-0.3,0.1-0.4l0,0
				c0.1-0.1,0.3,0,0.4,0.1l0,0c0.1,0.1,0,0.3-0.1,0.4l0,0c0,0-0.1,0-0.2,0l0,0C47.7,91.2,47.6,91.1,47.6,91z M47,90
				c-0.1-0.1,0-0.3,0.1-0.4l0,0c0.1-0.1,0.3,0,0.4,0.1l0,0c0.1,0.1,0,0.3-0.1,0.4l0,0c0,0-0.1,0-0.2,0l0,0C47.1,90.1,47,90.1,47,90z
				 M46.4,88.9c-0.1-0.1,0-0.3,0.1-0.4l0,0c0.1-0.1,0.3,0,0.4,0.1l0,0c0.1,0.1,0,0.3-0.1,0.4l0,0c0,0-0.1,0-0.2,0l0,0
				C46.5,89.1,46.4,89,46.4,88.9z M45.8,87.9c-0.1-0.1,0-0.3,0.1-0.4l0,0c0.1-0.1,0.3,0,0.4,0.1l0,0c0.1,0.1,0,0.3-0.1,0.4l0,0
				c0,0-0.1,0-0.2,0l0,0C45.9,88,45.8,88,45.8,87.9z M45.2,86.8c-0.1-0.1,0-0.3,0.1-0.4l0,0c0.1-0.1,0.3,0,0.4,0.1l0,0
				c0.1,0.1,0,0.3-0.1,0.4l0,0c0,0-0.1,0-0.2,0l0,0C45.3,87,45.2,86.9,45.2,86.8z M44.6,85.8c-0.1-0.1,0-0.3,0.1-0.4l0,0
				c0.1-0.1,0.3,0,0.4,0.1l0,0c0.1,0.1,0,0.3-0.1,0.4l0,0c0,0-0.1,0-0.2,0l0,0C44.7,86,44.6,85.9,44.6,85.8z M44,84.8
				c-0.1-0.1,0-0.3,0.1-0.4l0,0c0.1-0.1,0.3,0,0.4,0.1l0,0c0.1,0.1,0,0.3-0.1,0.4l0,0c0,0-0.1,0-0.2,0l0,0
				C44.1,84.9,44,84.9,44,84.8z M43.4,83.7c-0.1-0.1,0-0.3,0.1-0.4l0,0c0.1-0.1,0.3,0,0.4,0.1l0,0c0.1,0.1,0,0.3-0.1,0.4l0,0
				c0,0-0.1,0-0.2,0l0,0C43.5,83.9,43.4,83.8,43.4,83.7z M42.8,82.7c-0.1-0.1,0-0.3,0.1-0.4l0,0c0.1-0.1,0.3,0,0.4,0.1l0,0
				c0.1,0.1,0,0.3-0.1,0.4l0,0c0,0-0.1,0-0.2,0l0,0C42.9,82.8,42.8,82.8,42.8,82.7z M42.1,81.6c-0.1-0.1,0-0.3,0.1-0.4l0,0
				c0.1-0.1,0.3,0,0.4,0.1l0,0c0.1,0.1,0,0.3-0.1,0.4l0,0c0,0-0.1,0-0.2,0l0,0C42.3,81.8,42.2,81.7,42.1,81.6z M41.5,80.6
				c-0.1-0.1,0-0.3,0.1-0.4l0,0c0.1-0.1,0.3,0,0.4,0.1l0,0c0.1,0.1,0,0.3-0.1,0.4l0,0c0,0-0.1,0-0.2,0l0,0
				C41.7,80.8,41.6,80.7,41.5,80.6z M40.9,79.6c-0.1-0.1,0-0.3,0.1-0.4l0,0c0.1-0.1,0.3,0,0.4,0.1l0,0c0.1,0.1,0,0.3-0.1,0.4l0,0
				c0,0-0.1,0-0.2,0l0,0C41.1,79.7,41,79.7,40.9,79.6z M40.3,78.5c-0.1-0.1,0-0.3,0.1-0.4l0,0c0.1-0.1,0.3,0,0.4,0.1l0,0
				c0.1,0.1,0,0.3-0.1,0.4l0,0c0,0-0.1,0-0.2,0l0,0C40.5,78.7,40.4,78.6,40.3,78.5z M39.7,77.5c-0.1-0.1,0-0.3,0.1-0.4l0,0
				c0.1-0.1,0.3,0,0.4,0.1l0,0c0.1,0.1,0,0.3-0.1,0.4l0,0c0,0-0.1,0-0.2,0l0,0C39.9,77.6,39.8,77.6,39.7,77.5z M39.1,76.4
				c-0.1-0.1,0-0.3,0.1-0.4l0,0c0.1-0.1,0.3,0,0.4,0.1l0,0c0.1,0.1,0,0.3-0.1,0.4l0,0c0,0-0.1,0-0.2,0l0,0
				C39.3,76.6,39.2,76.5,39.1,76.4z M38.5,75.4c-0.1-0.1,0-0.3,0.1-0.4l0,0c0.1-0.1,0.3,0,0.4,0.1l0,0c0.1,0.1,0,0.3-0.1,0.4l0,0
				c0,0-0.1,0-0.2,0l0,0C38.7,75.6,38.6,75.5,38.5,75.4z M37.9,74.4c-0.1-0.1,0-0.3,0.1-0.4l0,0c0.1-0.1,0.3,0,0.4,0.1l0,0
				c0.1,0.1,0,0.3-0.1,0.4l0,0c0,0-0.1,0-0.2,0l0,0C38.1,74.5,38,74.5,37.9,74.4z M37.3,73.3c-0.1-0.1,0-0.3,0.1-0.4l0,0
				c0.1-0.1,0.3,0,0.4,0.1l0,0c0.1,0.1,0,0.3-0.1,0.4l0,0c0,0-0.1,0-0.2,0l0,0C37.5,73.5,37.4,73.4,37.3,73.3z M36.7,72.3
				c-0.1-0.1,0-0.3,0.1-0.4l0,0c0.1-0.1,0.3,0,0.4,0.1l0,0c0.1,0.1,0,0.3-0.1,0.4l0,0c0,0-0.1,0-0.2,0l0,0
				C36.9,72.4,36.8,72.4,36.7,72.3z M36.1,71.2c-0.1-0.1,0-0.3,0.1-0.4l0,0c0.1-0.1,0.3,0,0.4,0.1l0,0c0.1,0.1,0,0.3-0.1,0.4l0,0
				c0,0-0.1,0-0.2,0l0,0C36.3,71.4,36.2,71.3,36.1,71.2z M35.5,70.2c-0.1-0.1,0-0.3,0.1-0.4l0,0c0.1-0.1,0.3,0,0.4,0.1l0,0
				c0.1,0.1,0,0.3-0.1,0.4l0,0c0,0-0.1,0-0.2,0l0,0C35.7,70.4,35.6,70.3,35.5,70.2z M34.9,69.2c-0.1-0.1,0-0.3,0.1-0.4l0,0
				c0.1-0.1,0.3,0,0.4,0.1l0,0c0.1,0.1,0,0.3-0.1,0.4l0,0c0,0-0.1,0-0.2,0l0,0C35.1,69.3,35,69.3,34.9,69.2z M34.3,68.1
				c-0.1-0.1,0-0.3,0.1-0.4l0,0c0.1-0.1,0.3,0,0.4,0.1l0,0c0.1,0.1,0,0.3-0.1,0.4l0,0c0,0-0.1,0-0.2,0l0,0
				C34.5,68.3,34.4,68.2,34.3,68.1z M33.7,67.1c-0.1-0.1,0-0.3,0.1-0.4l0,0c0.1-0.1,0.3,0,0.4,0.1l0,0c0.1,0.1,0,0.3-0.1,0.4l0,0
				c0,0-0.1,0-0.2,0l0,0C33.9,67.2,33.8,67.2,33.7,67.1z M33.1,66c-0.1-0.1,0-0.3,0.1-0.4l0,0c0.1-0.1,0.3,0,0.4,0.1l0,0
				c0.1,0.1,0,0.3-0.1,0.4l0,0c0,0-0.1,0-0.2,0l0,0C33.3,66.2,33.2,66.1,33.1,66z M32.5,65c-0.1-0.1,0-0.3,0.1-0.4l0,0
				c0.1-0.1,0.3,0,0.4,0.1l0,0c0.1,0.1,0,0.3-0.1,0.4l0,0c0,0-0.1,0-0.2,0l0,0C32.7,65.2,32.6,65.1,32.5,65z M31.9,64
				c-0.1-0.1,0-0.3,0.1-0.4l0,0c0.1-0.1,0.3,0,0.4,0.1l0,0c0.1,0.1,0,0.3-0.1,0.4l0,0c0,0-0.1,0-0.2,0l0,0
				C32.1,64.1,32,64.1,31.9,64z M31.3,62.9c-0.1-0.1,0-0.3,0.1-0.4l0,0c0.1-0.1,0.3,0,0.4,0.1l0,0c0.1,0.1,0,0.3-0.1,0.4l0,0
				c0,0-0.1,0-0.2,0l0,0C31.5,63.1,31.4,63,31.3,62.9z M30.7,61.9c-0.1-0.1,0-0.3,0.1-0.4l0,0c0.1-0.1,0.3,0,0.4,0.1l0,0
				c0.1,0.1,0,0.3-0.1,0.4l0,0c0,0-0.1,0-0.2,0l0,0C30.9,62,30.8,62,30.7,61.9z M30.1,60.8c-0.1-0.1,0-0.3,0.1-0.4l0,0
				c0.1-0.1,0.3,0,0.4,0.1l0,0c0.1,0.1,0,0.3-0.1,0.4l0,0c0,0-0.1,0-0.2,0l0,0C30.3,61,30.2,60.9,30.1,60.8z M29.5,59.8
				c-0.1-0.1,0-0.3,0.1-0.4l0,0c0.1-0.1,0.3,0,0.4,0.1l0,0c0.1,0.1,0,0.3-0.1,0.4l0,0c0,0-0.1,0-0.2,0l0,0
				C29.7,60,29.6,59.9,29.5,59.8z M28.9,58.8c-0.1-0.1,0-0.3,0.1-0.4l0,0c0.1-0.1,0.3,0,0.4,0.1l0,0c0.1,0.1,0,0.3-0.1,0.4l0,0
				c0,0-0.1,0-0.2,0l0,0C29.1,58.9,29,58.9,28.9,58.8z M28.3,57.7c-0.1-0.1,0-0.3,0.1-0.4l0,0c0.1-0.1,0.3,0,0.4,0.1l0,0
				c0.1,0.1,0,0.3-0.1,0.4l0,0c0,0-0.1,0-0.2,0l0,0C28.5,57.9,28.4,57.8,28.3,57.7z M27.7,56.7c-0.1-0.1,0-0.3,0.1-0.4l0,0
				c0.1-0.1,0.3,0,0.4,0.1l0,0c0.1,0.1,0,0.3-0.1,0.4l0,0c0,0-0.1,0-0.2,0l0,0C27.9,56.8,27.8,56.8,27.7,56.7z M27.1,55.6
				c-0.1-0.1,0-0.3,0.1-0.4l0,0c0.1-0.1,0.3,0,0.4,0.1l0,0c0.1,0.1,0,0.3-0.1,0.4l0,0c0,0-0.1,0-0.2,0l0,0
				C27.3,55.8,27.2,55.7,27.1,55.6z M26.5,54.6c-0.1-0.1,0-0.3,0.1-0.4l0,0c0.1-0.1,0.3,0,0.4,0.1l0,0c0.1,0.1,0,0.3-0.1,0.4l0,0
				c0,0-0.1,0-0.2,0l0,0C26.7,54.8,26.6,54.7,26.5,54.6z M25.9,53.6c-0.1-0.1,0-0.3,0.1-0.4l0,0c0.1-0.1,0.3,0,0.4,0.1l0,0
				c0.1,0.1,0,0.3-0.1,0.4l0,0c0,0-0.1,0-0.2,0l0,0C26.1,53.7,26,53.7,25.9,53.6z M25.3,52.5c-0.1-0.1,0-0.3,0.1-0.4l0,0
				c0.1-0.1,0.3,0,0.4,0.1l0,0c0.1,0.1,0,0.3-0.1,0.4l0,0c0,0-0.1,0-0.2,0l0,0C25.5,52.7,25.4,52.6,25.3,52.5z M24.7,51.5
				c-0.1-0.1,0-0.3,0.1-0.4l0,0c0.1-0.1,0.3,0,0.4,0.1l0,0c0.1,0.1,0,0.3-0.1,0.4l0,0c0,0-0.1,0-0.2,0l0,0
				C24.9,51.6,24.8,51.6,24.7,51.5z M24.1,50.4c-0.1-0.1,0-0.3,0.1-0.4l0,0c0.1-0.1,0.3,0,0.4,0.1l0,0c0.1,0.1,0,0.3-0.1,0.4l0,0
				c0,0-0.1,0-0.2,0l0,0C24.3,50.6,24.2,50.5,24.1,50.4z M23.5,49.4c-0.1-0.1,0-0.3,0.1-0.4l0,0c0.1-0.1,0.3,0,0.4,0.1l0,0
				c0.1,0.1,0,0.3-0.1,0.4l0,0c0,0-0.1,0-0.2,0l0,0C23.7,49.5,23.6,49.5,23.5,49.4z M22.9,48.4c-0.1-0.1,0-0.3,0.1-0.4l0,0
				c0.1-0.1,0.3,0,0.4,0.1l0,0c0.1,0.1,0,0.3-0.1,0.4l0,0c0,0-0.1,0-0.2,0l0,0C23.1,48.5,23,48.5,22.9,48.4z M22.3,47.3
				c-0.1-0.1,0-0.3,0.1-0.4l0,0c0.1-0.1,0.3,0,0.4,0.1l0,0c0.1,0.1,0,0.3-0.1,0.4l0,0c0,0-0.1,0-0.2,0l0,0
				C22.5,47.5,22.4,47.4,22.3,47.3z M21.7,46.3c-0.1-0.1,0-0.3,0.1-0.4l0,0c0.1-0.1,0.3,0,0.4,0.1l0,0c0.1,0.1,0,0.3-0.1,0.4l0,0
				c0,0-0.1,0-0.2,0l0,0C21.9,46.4,21.8,46.4,21.7,46.3z M21.1,45.2c-0.1-0.1,0-0.3,0.1-0.4l0,0c0.1-0.1,0.3,0,0.4,0.1l0,0
				c0.1,0.1,0,0.3-0.1,0.4l0,0c0,0-0.1,0-0.2,0l0,0C21.3,45.4,21.2,45.3,21.1,45.2z M20.5,44.2c-0.1-0.1,0-0.3,0.1-0.4l0,0
				c0.1-0.1,0.3,0,0.4,0.1l0,0c0.1,0.1,0,0.3-0.1,0.4l0,0c0,0-0.1,0-0.2,0l0,0C20.7,44.3,20.6,44.3,20.5,44.2z M19.9,43.2
				c-0.1-0.1,0-0.3,0.1-0.4l0,0c0.1-0.1,0.3,0,0.4,0.1l0,0c0.1,0.1,0,0.3-0.1,0.4l0,0c0,0-0.1,0-0.2,0l0,0
				C20.1,43.3,20,43.3,19.9,43.2z M19.3,42.1c-0.1-0.1,0-0.3,0.1-0.4l0,0c0.1-0.1,0.3,0,0.4,0.1l0,0c0.1,0.1,0,0.3-0.1,0.4l0,0
				c0,0-0.1,0-0.2,0l0,0C19.5,42.3,19.4,42.2,19.3,42.1z M18.7,41.1c-0.1-0.1,0-0.3,0.1-0.4l0,0c0.1-0.1,0.3,0,0.4,0.1l0,0
				c0.1,0.1,0,0.3-0.1,0.4l0,0c0,0-0.1,0-0.2,0l0,0C18.9,41.2,18.8,41.2,18.7,41.1z M18.1,40c-0.1-0.1,0-0.3,0.1-0.4l0,0
				c0.1-0.1,0.3,0,0.4,0.1l0,0c0.1,0.1,0,0.3-0.1,0.4l0,0c0,0-0.1,0-0.2,0l0,0C18.3,40.2,18.2,40.1,18.1,40z M17.5,39
				c-0.1-0.1,0-0.3,0.1-0.4l0,0c0.1-0.1,0.3,0,0.4,0.1l0,0c0.1,0.1,0,0.3-0.1,0.4l0,0c0,0-0.1,0-0.2,0l0,0
				C17.7,39.1,17.6,39.1,17.5,39z M16.9,38c-0.1-0.1,0-0.3,0.1-0.4l0,0c0.1-0.1,0.3,0,0.4,0.1l0,0c0.1,0.1,0,0.3-0.1,0.4l0,0
				c0,0-0.1,0-0.2,0l0,0C17.1,38.1,17,38.1,16.9,38z M16.3,36.9c-0.1-0.1,0-0.3,0.1-0.4l0,0c0.1-0.1,0.3,0,0.4,0.1l0,0
				c0.1,0.1,0,0.3-0.1,0.4l0,0c0,0-0.1,0-0.2,0l0,0C16.5,37.1,16.4,37,16.3,36.9z M15.7,35.9c-0.1-0.1,0-0.3,0.1-0.4l0,0
				c0.1-0.1,0.3,0,0.4,0.1l0,0c0.1,0.1,0,0.3-0.1,0.4l0,0c0,0-0.1,0-0.2,0l0,0C15.9,36,15.8,36,15.7,35.9z M15.1,34.8
				c-0.1-0.1,0-0.3,0.1-0.4l0,0c0.1-0.1,0.3,0,0.4,0.1l0,0c0.1,0.1,0,0.3-0.1,0.4l0,0c0,0-0.1,0-0.2,0l0,0
				C15.3,35,15.1,34.9,15.1,34.8z M14.5,33.8c-0.1-0.1,0-0.3,0.1-0.4l0,0c0.1-0.1,0.3,0,0.4,0.1l0,0c0.1,0.1,0,0.3-0.1,0.4l0,0
				c0,0-0.1,0-0.2,0l0,0C14.6,33.9,14.5,33.9,14.5,33.8z M13.9,32.8c-0.1-0.1,0-0.3,0.1-0.4l0,0c0.1-0.1,0.3,0,0.4,0.1l0,0
				c0.1,0.1,0,0.3-0.1,0.4l0,0c0,0-0.1,0-0.2,0l0,0C14,32.9,13.9,32.9,13.9,32.8z M13.3,31.7c-0.1-0.1,0-0.3,0.1-0.4l0,0
				c0.1-0.1,0.3,0,0.4,0.1l0,0c0.1,0.1,0,0.3-0.1,0.4l0,0c0,0-0.1,0-0.2,0l0,0C13.4,31.9,13.3,31.8,13.3,31.7z M12.7,30.7
				c-0.1-0.1,0-0.3,0.1-0.4l0,0c0.1-0.1,0.3,0,0.4,0.1l0,0c0.1,0.1,0,0.3-0.1,0.4l0,0c0,0-0.1,0-0.2,0l0,0
				C12.8,30.8,12.7,30.8,12.7,30.7z M12.1,29.6c-0.1-0.1,0-0.3,0.1-0.4l0,0c0.1-0.1,0.3,0,0.4,0.1l0,0c0.1,0.1,0,0.3-0.1,0.4l0,0
				c0,0-0.1,0-0.2,0l0,0C12.2,29.8,12.1,29.7,12.1,29.6z"/>
		</g>
		<g>
			<path d="M11.7,28.8c-0.1,0-0.2,0-0.2-0.1c-0.1-0.1-0.1-0.1-0.1-0.2c0-0.1,0-0.2,0.1-0.2c0.1-0.1,0.3-0.1,0.4,0
				c0.1,0.1,0.1,0.1,0.1,0.2c0,0.1,0,0.2-0.1,0.2C11.9,28.7,11.8,28.8,11.7,28.8z"/>
		</g>
		<g>
			<path d="M87.2,28.4c0-0.2,0.1-0.3,0.3-0.3l0,0c0.2,0,0.3,0.1,0.3,0.3l0,0c0,0.2-0.1,0.3-0.3,0.3l0,0
				C87.3,28.8,87.2,28.6,87.2,28.4z M86,28.4c0-0.2,0.1-0.3,0.3-0.3l0,0c0.2,0,0.3,0.1,0.3,0.3l0,0c0,0.2-0.1,0.3-0.3,0.3l0,0
				C86.1,28.8,86,28.6,86,28.4z M84.8,28.4c0-0.2,0.1-0.3,0.3-0.3l0,0c0.2,0,0.3,0.1,0.3,0.3l0,0c0,0.2-0.1,0.3-0.3,0.3l0,0
				C84.9,28.8,84.8,28.6,84.8,28.4z M83.6,28.4c0-0.2,0.1-0.3,0.3-0.3l0,0c0.2,0,0.3,0.1,0.3,0.3l0,0c0,0.2-0.1,0.3-0.3,0.3l0,0
				C83.7,28.8,83.6,28.6,83.6,28.4z M82.4,28.4c0-0.2,0.1-0.3,0.3-0.3l0,0c0.2,0,0.3,0.1,0.3,0.3l0,0c0,0.2-0.1,0.3-0.3,0.3l0,0
				C82.5,28.8,82.4,28.6,82.4,28.4z M81.2,28.4c0-0.2,0.1-0.3,0.3-0.3l0,0c0.2,0,0.3,0.1,0.3,0.3l0,0c0,0.2-0.1,0.3-0.3,0.3l0,0
				C81.3,28.8,81.2,28.6,81.2,28.4z M80,28.4c0-0.2,0.1-0.3,0.3-0.3l0,0c0.2,0,0.3,0.1,0.3,0.3l0,0c0,0.2-0.1,0.3-0.3,0.3l0,0
				C80.1,28.8,80,28.6,80,28.4z M78.8,28.4c0-0.2,0.1-0.3,0.3-0.3l0,0c0.2,0,0.3,0.1,0.3,0.3l0,0c0,0.2-0.1,0.3-0.3,0.3l0,0
				C78.9,28.8,78.8,28.6,78.8,28.4z M77.6,28.4c0-0.2,0.1-0.3,0.3-0.3l0,0c0.2,0,0.3,0.1,0.3,0.3l0,0c0,0.2-0.1,0.3-0.3,0.3l0,0
				C77.7,28.8,77.6,28.6,77.6,28.4z M76.4,28.4c0-0.2,0.1-0.3,0.3-0.3l0,0c0.2,0,0.3,0.1,0.3,0.3l0,0c0,0.2-0.1,0.3-0.3,0.3l0,0
				C76.5,28.8,76.4,28.6,76.4,28.4z M75.2,28.4c0-0.2,0.1-0.3,0.3-0.3l0,0c0.2,0,0.3,0.1,0.3,0.3l0,0c0,0.2-0.1,0.3-0.3,0.3l0,0
				C75.3,28.8,75.2,28.6,75.2,28.4z M74,28.4c0-0.2,0.1-0.3,0.3-0.3l0,0c0.2,0,0.3,0.1,0.3,0.3l0,0c0,0.2-0.1,0.3-0.3,0.3l0,0
				C74.1,28.8,74,28.6,74,28.4z M72.8,28.4c0-0.2,0.1-0.3,0.3-0.3l0,0c0.2,0,0.3,0.1,0.3,0.3l0,0c0,0.2-0.1,0.3-0.3,0.3l0,0
				C72.9,28.8,72.8,28.6,72.8,28.4z M71.6,28.4c0-0.2,0.1-0.3,0.3-0.3l0,0c0.2,0,0.3,0.1,0.3,0.3l0,0c0,0.2-0.1,0.3-0.3,0.3l0,0
				C71.7,28.8,71.6,28.6,71.6,28.4z M70.4,28.4c0-0.2,0.1-0.3,0.3-0.3l0,0c0.2,0,0.3,0.1,0.3,0.3l0,0c0,0.2-0.1,0.3-0.3,0.3l0,0
				C70.5,28.8,70.4,28.6,70.4,28.4z M69.2,28.4c0-0.2,0.1-0.3,0.3-0.3l0,0c0.2,0,0.3,0.1,0.3,0.3l0,0c0,0.2-0.1,0.3-0.3,0.3l0,0
				C69.3,28.8,69.2,28.6,69.2,28.4z M68,28.4c0-0.2,0.1-0.3,0.3-0.3l0,0c0.2,0,0.3,0.1,0.3,0.3l0,0c0,0.2-0.1,0.3-0.3,0.3l0,0
				C68.1,28.8,68,28.6,68,28.4z M66.8,28.4c0-0.2,0.1-0.3,0.3-0.3l0,0c0.2,0,0.3,0.1,0.3,0.3l0,0c0,0.2-0.1,0.3-0.3,0.3l0,0
				C66.9,28.8,66.8,28.6,66.8,28.4z M65.6,28.4c0-0.2,0.1-0.3,0.3-0.3l0,0c0.2,0,0.3,0.1,0.3,0.3l0,0c0,0.2-0.1,0.3-0.3,0.3l0,0
				C65.7,28.8,65.6,28.6,65.6,28.4z M64.4,28.4c0-0.2,0.1-0.3,0.3-0.3l0,0c0.2,0,0.3,0.1,0.3,0.3l0,0c0,0.2-0.1,0.3-0.3,0.3l0,0
				C64.5,28.8,64.4,28.6,64.4,28.4z M63.2,28.4c0-0.2,0.1-0.3,0.3-0.3l0,0c0.2,0,0.3,0.1,0.3,0.3l0,0c0,0.2-0.1,0.3-0.3,0.3l0,0
				C63.3,28.8,63.2,28.6,63.2,28.4z M62,28.4c0-0.2,0.1-0.3,0.3-0.3l0,0c0.2,0,0.3,0.1,0.3,0.3l0,0c0,0.2-0.1,0.3-0.3,0.3l0,0
				C62.1,28.8,62,28.6,62,28.4z M60.8,28.4c0-0.2,0.1-0.3,0.3-0.3l0,0c0.2,0,0.3,0.1,0.3,0.3l0,0c0,0.2-0.1,0.3-0.3,0.3l0,0
				C60.9,28.8,60.8,28.6,60.8,28.4z M59.5,28.4c0-0.2,0.1-0.3,0.3-0.3l0,0c0.2,0,0.3,0.1,0.3,0.3l0,0c0,0.2-0.1,0.3-0.3,0.3l0,0
				C59.7,28.8,59.5,28.6,59.5,28.4z M58.3,28.4c0-0.2,0.1-0.3,0.3-0.3l0,0c0.2,0,0.3,0.1,0.3,0.3l0,0c0,0.2-0.1,0.3-0.3,0.3l0,0
				C58.5,28.8,58.3,28.6,58.3,28.4z M57.1,28.4c0-0.2,0.1-0.3,0.3-0.3l0,0c0.2,0,0.3,0.1,0.3,0.3l0,0c0,0.2-0.1,0.3-0.3,0.3l0,0
				C57.3,28.8,57.1,28.6,57.1,28.4z M55.9,28.4c0-0.2,0.1-0.3,0.3-0.3l0,0c0.2,0,0.3,0.1,0.3,0.3l0,0c0,0.2-0.1,0.3-0.3,0.3l0,0
				C56.1,28.8,55.9,28.6,55.9,28.4z M54.7,28.4c0-0.2,0.1-0.3,0.3-0.3l0,0c0.2,0,0.3,0.1,0.3,0.3l0,0c0,0.2-0.1,0.3-0.3,0.3l0,0
				C54.9,28.8,54.7,28.6,54.7,28.4z M53.5,28.4c0-0.2,0.1-0.3,0.3-0.3l0,0c0.2,0,0.3,0.1,0.3,0.3l0,0c0,0.2-0.1,0.3-0.3,0.3l0,0
				C53.7,28.8,53.5,28.6,53.5,28.4z M52.3,28.4c0-0.2,0.1-0.3,0.3-0.3l0,0c0.2,0,0.3,0.1,0.3,0.3l0,0c0,0.2-0.1,0.3-0.3,0.3l0,0
				C52.5,28.8,52.3,28.6,52.3,28.4z M51.1,28.4c0-0.2,0.1-0.3,0.3-0.3l0,0c0.2,0,0.3,0.1,0.3,0.3l0,0c0,0.2-0.1,0.3-0.3,0.3l0,0
				C51.3,28.8,51.1,28.6,51.1,28.4z M49.9,28.4c0-0.2,0.1-0.3,0.3-0.3l0,0c0.2,0,0.3,0.1,0.3,0.3l0,0c0,0.2-0.1,0.3-0.3,0.3l0,0
				C50.1,28.8,49.9,28.6,49.9,28.4z M48.7,28.4c0-0.2,0.1-0.3,0.3-0.3l0,0c0.2,0,0.3,0.1,0.3,0.3l0,0c0,0.2-0.1,0.3-0.3,0.3l0,0
				C48.9,28.8,48.7,28.6,48.7,28.4z M47.5,28.4c0-0.2,0.1-0.3,0.3-0.3l0,0c0.2,0,0.3,0.1,0.3,0.3l0,0c0,0.2-0.1,0.3-0.3,0.3l0,0
				C47.7,28.8,47.5,28.6,47.5,28.4z M46.3,28.4c0-0.2,0.1-0.3,0.3-0.3l0,0c0.2,0,0.3,0.1,0.3,0.3l0,0c0,0.2-0.1,0.3-0.3,0.3l0,0
				C46.5,28.8,46.3,28.6,46.3,28.4z M45.1,28.4c0-0.2,0.1-0.3,0.3-0.3l0,0c0.2,0,0.3,0.1,0.3,0.3l0,0c0,0.2-0.1,0.3-0.3,0.3l0,0
				C45.2,28.8,45.1,28.6,45.1,28.4z M43.9,28.4c0-0.2,0.1-0.3,0.3-0.3l0,0c0.2,0,0.3,0.1,0.3,0.3l0,0c0,0.2-0.1,0.3-0.3,0.3l0,0
				C44,28.8,43.9,28.6,43.9,28.4z M42.7,28.4c0-0.2,0.1-0.3,0.3-0.3l0,0c0.2,0,0.3,0.1,0.3,0.3l0,0c0,0.2-0.1,0.3-0.3,0.3l0,0
				C42.8,28.8,42.7,28.6,42.7,28.4z M41.5,28.4c0-0.2,0.1-0.3,0.3-0.3l0,0c0.2,0,0.3,0.1,0.3,0.3l0,0c0,0.2-0.1,0.3-0.3,0.3l0,0
				C41.6,28.8,41.5,28.6,41.5,28.4z M40.3,28.4c0-0.2,0.1-0.3,0.3-0.3l0,0c0.2,0,0.3,0.1,0.3,0.3l0,0c0,0.2-0.1,0.3-0.3,0.3l0,0
				C40.4,28.8,40.3,28.6,40.3,28.4z M39.1,28.4c0-0.2,0.1-0.3,0.3-0.3l0,0c0.2,0,0.3,0.1,0.3,0.3l0,0c0,0.2-0.1,0.3-0.3,0.3l0,0
				C39.2,28.8,39.1,28.6,39.1,28.4z M37.9,28.4c0-0.2,0.1-0.3,0.3-0.3l0,0c0.2,0,0.3,0.1,0.3,0.3l0,0c0,0.2-0.1,0.3-0.3,0.3l0,0
				C38,28.8,37.9,28.6,37.9,28.4z M36.7,28.4c0-0.2,0.1-0.3,0.3-0.3l0,0c0.2,0,0.3,0.1,0.3,0.3l0,0c0,0.2-0.1,0.3-0.3,0.3l0,0
				C36.8,28.8,36.7,28.6,36.7,28.4z M35.5,28.4c0-0.2,0.1-0.3,0.3-0.3l0,0c0.2,0,0.3,0.1,0.3,0.3l0,0c0,0.2-0.1,0.3-0.3,0.3l0,0
				C35.6,28.8,35.5,28.6,35.5,28.4z M34.3,28.4c0-0.2,0.1-0.3,0.3-0.3l0,0c0.2,0,0.3,0.1,0.3,0.3l0,0c0,0.2-0.1,0.3-0.3,0.3l0,0
				C34.4,28.8,34.3,28.6,34.3,28.4z M33.1,28.4c0-0.2,0.1-0.3,0.3-0.3l0,0c0.2,0,0.3,0.1,0.3,0.3l0,0c0,0.2-0.1,0.3-0.3,0.3l0,0
				C33.2,28.8,33.1,28.6,33.1,28.4z M31.9,28.4c0-0.2,0.1-0.3,0.3-0.3l0,0c0.2,0,0.3,0.1,0.3,0.3l0,0c0,0.2-0.1,0.3-0.3,0.3l0,0
				C32,28.8,31.9,28.6,31.9,28.4z M30.7,28.4c0-0.2,0.1-0.3,0.3-0.3l0,0c0.2,0,0.3,0.1,0.3,0.3l0,0c0,0.2-0.1,0.3-0.3,0.3l0,0
				C30.8,28.8,30.7,28.6,30.7,28.4z M29.5,28.4c0-0.2,0.1-0.3,0.3-0.3l0,0c0.2,0,0.3,0.1,0.3,0.3l0,0c0,0.2-0.1,0.3-0.3,0.3l0,0
				C29.6,28.8,29.5,28.6,29.5,28.4z M28.3,28.4c0-0.2,0.1-0.3,0.3-0.3l0,0c0.2,0,0.3,0.1,0.3,0.3l0,0c0,0.2-0.1,0.3-0.3,0.3l0,0
				C28.4,28.8,28.3,28.6,28.3,28.4z M27.1,28.4c0-0.2,0.1-0.3,0.3-0.3l0,0c0.2,0,0.3,0.1,0.3,0.3l0,0c0,0.2-0.1,0.3-0.3,0.3l0,0
				C27.2,28.8,27.1,28.6,27.1,28.4z M25.9,28.4c0-0.2,0.1-0.3,0.3-0.3l0,0c0.2,0,0.3,0.1,0.3,0.3l0,0c0,0.2-0.1,0.3-0.3,0.3l0,0
				C26,28.8,25.9,28.6,25.9,28.4z M24.7,28.4c0-0.2,0.1-0.3,0.3-0.3l0,0c0.2,0,0.3,0.1,0.3,0.3l0,0c0,0.2-0.1,0.3-0.3,0.3l0,0
				C24.8,28.8,24.7,28.6,24.7,28.4z M23.5,28.4c0-0.2,0.1-0.3,0.3-0.3l0,0c0.2,0,0.3,0.1,0.3,0.3l0,0c0,0.2-0.1,0.3-0.3,0.3l0,0
				C23.6,28.8,23.5,28.6,23.5,28.4z M22.3,28.4c0-0.2,0.1-0.3,0.3-0.3l0,0c0.2,0,0.3,0.1,0.3,0.3l0,0c0,0.2-0.1,0.3-0.3,0.3l0,0
				C22.4,28.8,22.3,28.6,22.3,28.4z M21.1,28.4c0-0.2,0.1-0.3,0.3-0.3l0,0c0.2,0,0.3,0.1,0.3,0.3l0,0c0,0.2-0.1,0.3-0.3,0.3l0,0
				C21.2,28.8,21.1,28.6,21.1,28.4z M19.9,28.4c0-0.2,0.1-0.3,0.3-0.3l0,0c0.2,0,0.3,0.1,0.3,0.3l0,0c0,0.2-0.1,0.3-0.3,0.3l0,0
				C20,28.8,19.9,28.6,19.9,28.4z M18.7,28.4c0-0.2,0.1-0.3,0.3-0.3l0,0c0.2,0,0.3,0.1,0.3,0.3l0,0c0,0.2-0.1,0.3-0.3,0.3l0,0
				C18.8,28.8,18.7,28.6,18.7,28.4z M17.5,28.4c0-0.2,0.1-0.3,0.3-0.3l0,0c0.2,0,0.3,0.1,0.3,0.3l0,0c0,0.2-0.1,0.3-0.3,0.3l0,0
				C17.6,28.8,17.5,28.6,17.5,28.4z M16.2,28.4c0-0.2,0.1-0.3,0.3-0.3l0,0c0.2,0,0.3,0.1,0.3,0.3l0,0c0,0.2-0.1,0.3-0.3,0.3l0,0
				C16.4,28.8,16.2,28.6,16.2,28.4z M15,28.4c0-0.2,0.1-0.3,0.3-0.3l0,0c0.2,0,0.3,0.1,0.3,0.3l0,0c0,0.2-0.1,0.3-0.3,0.3l0,0
				C15.2,28.8,15,28.6,15,28.4z M13.8,28.4c0-0.2,0.1-0.3,0.3-0.3l0,0c0.2,0,0.3,0.1,0.3,0.3l0,0c0,0.2-0.1,0.3-0.3,0.3l0,0
				C14,28.8,13.8,28.6,13.8,28.4z M12.6,28.4c0-0.2,0.1-0.3,0.3-0.3l0,0c0.2,0,0.3,0.1,0.3,0.3l0,0c0,0.2-0.1,0.3-0.3,0.3l0,0
				C12.8,28.8,12.6,28.6,12.6,28.4z"/>
		</g>
		<g>
			<path d="M88.7,28.8c-0.1,0-0.2,0-0.2-0.1c-0.1-0.1-0.1-0.1-0.1-0.2c0-0.1,0-0.2,0.1-0.2c0.1-0.1,0.3-0.1,0.4,0
				c0.1,0.1,0.1,0.1,0.1,0.2c0,0.1,0,0.2-0.1,0.2C88.9,28.7,88.8,28.8,88.7,28.8z"/>
		</g>
	</g>
	<g>
		<g>
			<path d="M88.9,28.8c-0.1,0-0.2,0-0.2-0.1c-0.1-0.1-0.1-0.1-0.1-0.2c0-0.1,0-0.2,0.1-0.2c0.1-0.1,0.3-0.1,0.4,0
				c0.1,0.1,0.1,0.1,0.1,0.2c0,0.1,0,0.2-0.1,0.2C89,28.7,88.9,28.8,88.9,28.8z"/>
		</g>
		<g>
			<path d="M50.7,94.2c-0.1-0.1-0.2-0.3-0.1-0.4l0,0c0.1-0.1,0.3-0.2,0.4-0.1l0,0c0.1,0.1,0.2,0.3,0.1,0.4l0,0
				c-0.1,0.1-0.2,0.2-0.3,0.2l0,0C50.8,94.3,50.7,94.3,50.7,94.2z M51.3,93.2c-0.1-0.1-0.2-0.3-0.1-0.4l0,0c0.1-0.1,0.3-0.2,0.4-0.1
				l0,0c0.1,0.1,0.2,0.3,0.1,0.4l0,0c-0.1,0.1-0.2,0.1-0.3,0.1l0,0C51.4,93.2,51.3,93.2,51.3,93.2z M51.9,92.2
				c-0.1-0.1-0.2-0.3-0.1-0.4l0,0c0.1-0.1,0.3-0.2,0.4-0.1l0,0c0.1,0.1,0.2,0.3,0.1,0.4l0,0c-0.1,0.1-0.2,0.2-0.3,0.2l0,0
				C52,92.2,51.9,92.2,51.9,92.2z M52.5,91.1c-0.1-0.1-0.2-0.3-0.1-0.4l0,0c0.1-0.1,0.3-0.2,0.4-0.1l0,0c0.1,0.1,0.2,0.3,0.1,0.4
				l0,0c-0.1,0.1-0.2,0.2-0.3,0.2l0,0C52.6,91.2,52.5,91.1,52.5,91.1z M53.1,90.1c-0.1-0.1-0.2-0.3-0.1-0.4l0,0
				c0.1-0.1,0.3-0.2,0.4-0.1l0,0c0.1,0.1,0.2,0.3,0.1,0.4l0,0c-0.1,0.1-0.2,0.1-0.3,0.1l0,0C53.2,90.1,53.1,90.1,53.1,90.1z
				 M53.7,89c-0.1-0.1-0.2-0.3-0.1-0.4l0,0c0.1-0.1,0.3-0.2,0.4-0.1l0,0c0.1,0.1,0.2,0.3,0.1,0.4l0,0c-0.1,0.1-0.2,0.2-0.3,0.2l0,0
				C53.8,89.1,53.7,89.1,53.7,89z M54.3,88c-0.1-0.1-0.2-0.3-0.1-0.4l0,0c0.1-0.1,0.3-0.2,0.4-0.1l0,0c0.1,0.1,0.2,0.3,0.1,0.4l0,0
				C54.7,88,54.6,88,54.5,88l0,0C54.4,88,54.3,88,54.3,88z M54.9,87c-0.1-0.1-0.2-0.3-0.1-0.4l0,0c0.1-0.1,0.3-0.2,0.4-0.1l0,0
				c0.1,0.1,0.2,0.3,0.1,0.4l0,0c-0.1,0.1-0.2,0.2-0.3,0.2l0,0C55,87,55,87,54.9,87z M55.5,85.9c-0.1-0.1-0.2-0.3-0.1-0.4l0,0
				c0.1-0.1,0.3-0.2,0.4-0.1l0,0c0.1,0.1,0.2,0.3,0.1,0.4l0,0c-0.1,0.1-0.2,0.2-0.3,0.2l0,0C55.6,86,55.6,85.9,55.5,85.9z
				 M56.1,84.9c-0.1-0.1-0.2-0.3-0.1-0.4l0,0c0.1-0.1,0.3-0.2,0.4-0.1l0,0c0.1,0.1,0.2,0.3,0.1,0.4l0,0c-0.1,0.1-0.2,0.2-0.3,0.2
				l0,0C56.2,84.9,56.2,84.9,56.1,84.9z M56.7,83.8c-0.1-0.1-0.2-0.3-0.1-0.4l0,0c0.1-0.1,0.3-0.2,0.4-0.1l0,0
				c0.1,0.1,0.2,0.3,0.1,0.4l0,0c-0.1,0.1-0.2,0.2-0.3,0.2l0,0C56.8,83.9,56.8,83.9,56.7,83.8z M57.3,82.8c-0.1-0.1-0.2-0.3-0.1-0.4
				l0,0c0.1-0.1,0.3-0.2,0.4-0.1l0,0c0.1,0.1,0.2,0.3,0.1,0.4l0,0c-0.1,0.1-0.2,0.1-0.3,0.1l0,0C57.4,82.8,57.4,82.8,57.3,82.8z
				 M57.9,81.8c-0.1-0.1-0.2-0.3-0.1-0.4l0,0c0.1-0.1,0.3-0.2,0.4-0.1l0,0c0.1,0.1,0.2,0.3,0.1,0.4l0,0c-0.1,0.1-0.2,0.2-0.3,0.2
				l0,0C58,81.8,58,81.8,57.9,81.8z M58.5,80.7c-0.1-0.1-0.2-0.3-0.1-0.4l0,0c0.1-0.1,0.3-0.2,0.4-0.1l0,0c0.1,0.1,0.2,0.3,0.1,0.4
				l0,0c-0.1,0.1-0.2,0.2-0.3,0.2l0,0C58.6,80.8,58.6,80.7,58.5,80.7z M59.1,79.7c-0.1-0.1-0.2-0.3-0.1-0.4l0,0
				c0.1-0.1,0.3-0.2,0.4-0.1l0,0c0.1,0.1,0.2,0.3,0.1,0.4l0,0c-0.1,0.1-0.2,0.1-0.3,0.1l0,0C59.2,79.7,59.2,79.7,59.1,79.7z
				 M59.7,78.6c-0.1-0.1-0.2-0.3-0.1-0.4l0,0c0.1-0.1,0.3-0.2,0.4-0.1l0,0c0.1,0.1,0.2,0.3,0.1,0.4l0,0c-0.1,0.1-0.2,0.2-0.3,0.2
				l0,0C59.8,78.7,59.8,78.7,59.7,78.6z M60.3,77.6c-0.1-0.1-0.2-0.3-0.1-0.4l0,0c0.1-0.1,0.3-0.2,0.4-0.1l0,0
				c0.1,0.1,0.2,0.3,0.1,0.4l0,0c-0.1,0.1-0.2,0.2-0.3,0.2l0,0C60.4,77.6,60.4,77.6,60.3,77.6z M60.9,76.6c-0.1-0.1-0.2-0.3-0.1-0.4
				l0,0c0.1-0.1,0.3-0.2,0.4-0.1l0,0c0.1,0.1,0.2,0.3,0.1,0.4l0,0c-0.1,0.1-0.2,0.2-0.3,0.2l0,0C61,76.6,61,76.6,60.9,76.6z
				 M61.5,75.5c-0.1-0.1-0.2-0.3-0.1-0.4l0,0c0.1-0.1,0.3-0.2,0.4-0.1l0,0c0.1,0.1,0.2,0.3,0.1,0.4l0,0c-0.1,0.1-0.2,0.1-0.3,0.1
				l0,0C61.6,75.6,61.6,75.5,61.5,75.5z M62.2,74.5C62,74.4,62,74.2,62,74.1l0,0c0.1-0.1,0.3-0.2,0.4-0.1l0,0
				c0.1,0.1,0.2,0.3,0.1,0.4l0,0c-0.1,0.1-0.2,0.2-0.3,0.2l0,0C62.2,74.5,62.2,74.5,62.2,74.5z M62.8,73.4c-0.1-0.1-0.2-0.3-0.1-0.4
				l0,0c0.1-0.1,0.3-0.2,0.4-0.1l0,0c0.1,0.1,0.2,0.3,0.1,0.4l0,0c-0.1,0.1-0.2,0.2-0.3,0.2l0,0C62.9,73.5,62.8,73.5,62.8,73.4z
				 M63.4,72.4c-0.1-0.1-0.2-0.3-0.1-0.4l0,0c0.1-0.1,0.3-0.2,0.4-0.1l0,0c0.1,0.1,0.2,0.3,0.1,0.4l0,0c-0.1,0.1-0.2,0.1-0.3,0.1
				l0,0C63.5,72.4,63.4,72.4,63.4,72.4z M64,71.4c-0.1-0.1-0.2-0.3-0.1-0.4l0,0c0.1-0.1,0.3-0.2,0.4-0.1l0,0
				c0.1,0.1,0.2,0.3,0.1,0.4l0,0c-0.1,0.1-0.2,0.2-0.3,0.2l0,0C64.1,71.4,64,71.4,64,71.4z M64.6,70.3c-0.1-0.1-0.2-0.3-0.1-0.4l0,0
				c0.1-0.1,0.3-0.2,0.4-0.1l0,0c0.1,0.1,0.2,0.3,0.1,0.4l0,0c-0.1,0.1-0.2,0.2-0.3,0.2l0,0C64.7,70.4,64.6,70.3,64.6,70.3z
				 M65.2,69.3C65,69.2,65,69,65.1,68.9l0,0c0.1-0.1,0.3-0.2,0.4-0.1l0,0c0.1,0.1,0.2,0.3,0.1,0.4l0,0c-0.1,0.1-0.2,0.2-0.3,0.2l0,0
				C65.3,69.3,65.2,69.3,65.2,69.3z M65.8,68.2c-0.1-0.1-0.2-0.3-0.1-0.4l0,0c0.1-0.1,0.3-0.2,0.4-0.1l0,0c0.1,0.1,0.2,0.3,0.1,0.4
				l0,0c-0.1,0.1-0.2,0.2-0.3,0.2l0,0C65.9,68.3,65.8,68.3,65.8,68.2z M66.4,67.2c-0.1-0.1-0.2-0.3-0.1-0.4l0,0
				c0.1-0.1,0.3-0.2,0.4-0.1l0,0c0.1,0.1,0.2,0.3,0.1,0.4l0,0c-0.1,0.1-0.2,0.2-0.3,0.2l0,0C66.5,67.2,66.4,67.2,66.4,67.2z
				 M67,66.2c-0.1-0.1-0.2-0.3-0.1-0.4l0,0c0.1-0.1,0.3-0.2,0.4-0.1l0,0c0.1,0.1,0.2,0.3,0.1,0.4l0,0c-0.1,0.1-0.2,0.2-0.3,0.2l0,0
				C67.1,66.2,67,66.2,67,66.2z M67.6,65.1c-0.1-0.1-0.2-0.3-0.1-0.4l0,0c0.1-0.1,0.3-0.2,0.4-0.1l0,0c0.1,0.1,0.2,0.3,0.1,0.4l0,0
				c-0.1,0.1-0.2,0.2-0.3,0.2l0,0C67.7,65.2,67.6,65.1,67.6,65.1z M68.2,64.1C68,64,68,63.8,68.1,63.7l0,0c0.1-0.1,0.3-0.2,0.4-0.1
				l0,0c0.1,0.1,0.2,0.3,0.1,0.4l0,0c-0.1,0.1-0.2,0.2-0.3,0.2l0,0C68.3,64.1,68.2,64.1,68.2,64.1z M68.8,63
				c-0.1-0.1-0.2-0.3-0.1-0.4l0,0c0.1-0.1,0.3-0.2,0.4-0.1l0,0c0.1,0.1,0.2,0.3,0.1,0.4l0,0c-0.1,0.1-0.2,0.2-0.3,0.2l0,0
				C68.9,63.1,68.8,63.1,68.8,63z M69.4,62c-0.1-0.1-0.2-0.3-0.1-0.4l0,0c0.1-0.1,0.3-0.2,0.4-0.1l0,0c0.1,0.1,0.2,0.3,0.1,0.4l0,0
				C69.8,62,69.7,62,69.5,62l0,0C69.5,62,69.4,62,69.4,62z M70,61c-0.1-0.1-0.2-0.3-0.1-0.4l0,0c0.1-0.1,0.3-0.2,0.4-0.1l0,0
				c0.1,0.1,0.2,0.3,0.1,0.4l0,0c-0.1,0.1-0.2,0.2-0.3,0.2l0,0C70.1,61,70,61,70,61z M70.6,59.9c-0.1-0.1-0.2-0.3-0.1-0.4l0,0
				c0.1-0.1,0.3-0.2,0.4-0.1l0,0c0.1,0.1,0.2,0.3,0.1,0.4l0,0C71,59.9,70.9,60,70.8,60l0,0C70.7,60,70.7,59.9,70.6,59.9z M71.2,58.9
				c-0.1-0.1-0.2-0.3-0.1-0.4l0,0c0.1-0.1,0.3-0.2,0.4-0.1l0,0c0.1,0.1,0.2,0.3,0.1,0.4l0,0c-0.1,0.1-0.2,0.1-0.3,0.1l0,0
				C71.3,58.9,71.3,58.9,71.2,58.9z M71.8,57.8c-0.1-0.1-0.2-0.3-0.1-0.4l0,0c0.1-0.1,0.3-0.2,0.4-0.1l0,0c0.1,0.1,0.2,0.3,0.1,0.4
				l0,0c-0.1,0.1-0.2,0.2-0.3,0.2l0,0C71.9,57.9,71.9,57.9,71.8,57.8z M72.4,56.8c-0.1-0.1-0.2-0.3-0.1-0.4l0,0
				c0.1-0.1,0.3-0.2,0.4-0.1l0,0c0.1,0.1,0.2,0.3,0.1,0.4l0,0c-0.1,0.1-0.2,0.2-0.3,0.2l0,0C72.5,56.8,72.5,56.8,72.4,56.8z
				 M73,55.8c-0.1-0.1-0.2-0.3-0.1-0.4l0,0c0.1-0.1,0.3-0.2,0.4-0.1l0,0c0.1,0.1,0.2,0.3,0.1,0.4l0,0c-0.1,0.1-0.2,0.2-0.3,0.2l0,0
				C73.1,55.8,73.1,55.8,73,55.8z M73.6,54.7c-0.1-0.1-0.2-0.3-0.1-0.4l0,0c0.1-0.1,0.3-0.2,0.4-0.1l0,0c0.1,0.1,0.2,0.3,0.1,0.4
				l0,0c-0.1,0.1-0.2,0.2-0.3,0.2l0,0C73.7,54.8,73.7,54.7,73.6,54.7z M74.2,53.7c-0.1-0.1-0.2-0.3-0.1-0.4l0,0
				c0.1-0.1,0.3-0.2,0.4-0.1l0,0c0.1,0.1,0.2,0.3,0.1,0.4l0,0c-0.1,0.1-0.2,0.2-0.3,0.2l0,0C74.3,53.7,74.3,53.7,74.2,53.7z
				 M74.8,52.6c-0.1-0.1-0.2-0.3-0.1-0.4l0,0c0.1-0.1,0.3-0.2,0.4-0.1l0,0c0.1,0.1,0.2,0.3,0.1,0.4l0,0c-0.1,0.1-0.2,0.2-0.3,0.2
				l0,0C74.9,52.7,74.9,52.7,74.8,52.6z M75.4,51.6c-0.1-0.1-0.2-0.3-0.1-0.4l0,0c0.1-0.1,0.3-0.2,0.4-0.1l0,0
				c0.1,0.1,0.2,0.3,0.1,0.4l0,0c-0.1,0.1-0.2,0.1-0.3,0.1l0,0C75.5,51.6,75.5,51.6,75.4,51.6z M76,50.6c-0.1-0.1-0.2-0.3-0.1-0.4
				l0,0c0.1-0.1,0.3-0.2,0.4-0.1l0,0c0.1,0.1,0.2,0.3,0.1,0.4l0,0c-0.1,0.1-0.2,0.2-0.3,0.2l0,0C76.1,50.6,76.1,50.6,76,50.6z
				 M76.6,49.5c-0.1-0.1-0.2-0.3-0.1-0.4l0,0c0.1-0.1,0.3-0.2,0.4-0.1l0,0c0.1,0.1,0.2,0.3,0.1,0.4l0,0c-0.1,0.1-0.2,0.2-0.3,0.2
				l0,0C76.7,49.6,76.7,49.5,76.6,49.5z M77.2,48.5c-0.1-0.1-0.2-0.3-0.1-0.4l0,0c0.1-0.1,0.3-0.2,0.4-0.1l0,0
				c0.1,0.1,0.2,0.3,0.1,0.4l0,0c-0.1,0.1-0.2,0.2-0.3,0.2l0,0C77.3,48.5,77.3,48.5,77.2,48.5z M77.8,47.4c-0.1-0.1-0.2-0.3-0.1-0.4
				l0,0c0.1-0.1,0.3-0.2,0.4-0.1l0,0c0.1,0.1,0.2,0.3,0.1,0.4l0,0c-0.1,0.1-0.2,0.2-0.3,0.2l0,0C77.9,47.5,77.9,47.5,77.8,47.4z
				 M78.5,46.4c-0.1-0.1-0.2-0.3-0.1-0.4l0,0c0.1-0.1,0.3-0.2,0.4-0.1l0,0c0.1,0.1,0.2,0.3,0.1,0.4l0,0c-0.1,0.1-0.2,0.2-0.3,0.2
				l0,0C78.6,46.4,78.5,46.4,78.5,46.4z M79.1,45.4c-0.1-0.1-0.2-0.3-0.1-0.4l0,0c0.1-0.1,0.3-0.2,0.4-0.1l0,0
				c0.1,0.1,0.2,0.3,0.1,0.4l0,0c-0.1,0.1-0.2,0.2-0.3,0.2l0,0C79.2,45.4,79.1,45.4,79.1,45.4z M79.7,44.3c-0.1-0.1-0.2-0.3-0.1-0.4
				l0,0c0.1-0.1,0.3-0.2,0.4-0.1l0,0c0.1,0.1,0.2,0.3,0.1,0.4l0,0c-0.1,0.1-0.2,0.1-0.3,0.1l0,0C79.8,44.4,79.7,44.3,79.7,44.3z
				 M80.3,43.3c-0.1-0.1-0.2-0.3-0.1-0.4l0,0c0.1-0.1,0.3-0.2,0.4-0.1l0,0c0.1,0.1,0.2,0.3,0.1,0.4l0,0c-0.1,0.1-0.2,0.2-0.3,0.2
				l0,0C80.4,43.3,80.3,43.3,80.3,43.3z M80.9,42.2c-0.1-0.1-0.2-0.3-0.1-0.4l0,0c0.1-0.1,0.3-0.2,0.4-0.1l0,0
				c0.1,0.1,0.2,0.3,0.1,0.4l0,0c-0.1,0.1-0.2,0.2-0.3,0.2l0,0C81,42.3,80.9,42.3,80.9,42.2z M81.5,41.2c-0.1-0.1-0.2-0.3-0.1-0.4
				l0,0c0.1-0.1,0.3-0.2,0.4-0.1l0,0c0.1,0.1,0.2,0.3,0.1,0.4l0,0c-0.1,0.1-0.2,0.2-0.3,0.2l0,0C81.6,41.2,81.5,41.2,81.5,41.2z
				 M82.1,40.2c-0.1-0.1-0.2-0.3-0.1-0.4l0,0c0.1-0.1,0.3-0.2,0.4-0.1l0,0c0.1,0.1,0.2,0.3,0.1,0.4l0,0c-0.1,0.1-0.2,0.2-0.3,0.2
				l0,0C82.2,40.2,82.1,40.2,82.1,40.2z M82.7,39.1c-0.1-0.1-0.2-0.3-0.1-0.4l0,0c0.1-0.1,0.3-0.2,0.4-0.1l0,0
				c0.1,0.1,0.2,0.3,0.1,0.4l0,0c-0.1,0.1-0.2,0.2-0.3,0.2l0,0C82.8,39.2,82.7,39.1,82.7,39.1z M83.3,38.1c-0.1-0.1-0.2-0.3-0.1-0.4
				l0,0c0.1-0.1,0.3-0.2,0.4-0.1l0,0c0.1,0.1,0.2,0.3,0.1,0.4l0,0c-0.1,0.1-0.2,0.2-0.3,0.2l0,0C83.4,38.1,83.3,38.1,83.3,38.1z
				 M83.9,37c-0.1-0.1-0.2-0.3-0.1-0.4l0,0c0.1-0.1,0.3-0.2,0.4-0.1l0,0c0.1,0.1,0.2,0.3,0.1,0.4l0,0c-0.1,0.1-0.2,0.1-0.3,0.1l0,0
				C84,37.1,83.9,37.1,83.9,37z M84.5,36c-0.1-0.1-0.2-0.3-0.1-0.4l0,0c0.1-0.1,0.3-0.2,0.4-0.1l0,0c0.1,0.1,0.2,0.3,0.1,0.4l0,0
				C84.8,36,84.7,36,84.6,36l0,0C84.6,36,84.5,36,84.5,36z M85.1,35c-0.1-0.1-0.2-0.3-0.1-0.4l0,0c0.1-0.1,0.3-0.2,0.4-0.1l0,0
				c0.1,0.1,0.2,0.3,0.1,0.4l0,0c-0.1,0.1-0.2,0.2-0.3,0.2l0,0C85.2,35,85.1,35,85.1,35z M85.7,33.9c-0.1-0.1-0.2-0.3-0.1-0.4l0,0
				c0.1-0.1,0.3-0.2,0.4-0.1l0,0c0.1,0.1,0.2,0.3,0.1,0.4l0,0c-0.1,0.1-0.2,0.1-0.3,0.1l0,0C85.8,34,85.7,33.9,85.7,33.9z
				 M86.3,32.9c-0.1-0.1-0.2-0.3-0.1-0.4l0,0c0.1-0.1,0.3-0.2,0.4-0.1l0,0c0.1,0.1,0.2,0.3,0.1,0.4l0,0c-0.1,0.1-0.2,0.2-0.3,0.2
				l0,0C86.4,32.9,86.3,32.9,86.3,32.9z M86.9,31.8c-0.1-0.1-0.2-0.3-0.1-0.4l0,0c0.1-0.1,0.3-0.2,0.4-0.1l0,0
				c0.1,0.1,0.2,0.3,0.1,0.4l0,0c-0.1,0.1-0.2,0.2-0.3,0.2l0,0C87,31.9,87,31.9,86.9,31.8z M87.5,30.8c-0.1-0.1-0.2-0.3-0.1-0.4l0,0
				c0.1-0.1,0.3-0.2,0.4-0.1l0,0c0.1,0.1,0.2,0.3,0.1,0.4l0,0c-0.1,0.1-0.2,0.2-0.3,0.2l0,0C87.6,30.8,87.6,30.8,87.5,30.8z
				 M88.1,29.8c-0.1-0.1-0.2-0.3-0.1-0.4l0,0c0.1-0.1,0.3-0.2,0.4-0.1l0,0c0.1,0.1,0.2,0.3,0.1,0.4l0,0c-0.1,0.1-0.2,0.2-0.3,0.2
				l0,0C88.2,29.8,88.2,29.8,88.1,29.8z"/>
		</g>
		<g>
			<path d="M50.2,95.3c-0.1,0-0.2,0-0.2-0.1c-0.1-0.1-0.1-0.1-0.1-0.2s0-0.2,0.1-0.2c0.1-0.1,0.3-0.1,0.4,0c0.1,0.1,0.1,0.1,0.1,0.2
				s0,0.2-0.1,0.2C50.4,95.3,50.3,95.3,50.2,95.3z"/>
		</g>
	</g>
	<g>
		<polygon points="89.7,73.2 12.2,73.2 12.2,72.6 88.6,72.6 88.6,72.6 50.4,6.5 50.9,6.2 89.1,72.3 		"/>
	</g>
	<g>
		<rect x="-7.1" y="39.3" transform="matrix(0.5018 -0.865 0.865 0.5018 -18.6676 46.8695)" width="77" height="0.6"/>
	</g>
	<g>
		<rect x="67.4" y="33.7" transform="matrix(0.8787 -0.4774 0.4774 0.8787 -6.6322 41.9452)" width="23.7" height="0.6"/>
	</g>
	<g>
		<rect x="50" y="71.8" width="0.6" height="23.3"/>
	</g>
	<g>
		<rect x="21.6" y="23.1" transform="matrix(0.4837 -0.8752 0.8752 0.4837 -18.8041 36.9883)" width="0.6" height="22.6"/>
	</g>
</g>
</svg>
