<?xml version="1.0" encoding="utf-8"?>
<!-- Generator: Adobe Illustrator 19.2.1, SVG Export Plug-In . SVG Version: 6.00 Build 0)  -->
<svg version="1.1" id="Layer_1" xmlns="http://www.w3.org/2000/svg" xmlns:xlink="http://www.w3.org/1999/xlink" x="0px" y="0px"
	 viewBox="0 0 100 125" style="enable-background:new 0 0 100 125;" xml:space="preserve">
<g>
	<g>
		<path d="M50.8,94l-0.1-0.1L12.2,71.7V27.2l0.1-0.1L50.8,4.9l38.6,22.3v44.5l-0.1,0.1L50.8,94z M12.8,71.4l38,21.9l38-21.9V27.5
			l-38-21.9l-38,21.9V71.4z"/>
	</g>
	<g>
		<g>
			<path d="M50.7,94c-0.1,0-0.2,0-0.2-0.1c-0.1-0.1-0.1-0.1-0.1-0.2s0-0.2,0.1-0.2c0.1-0.1,0.3-0.1,0.4,0c0.1,0.1,0.1,0.1,0.1,0.2
				s0,0.2-0.1,0.2C50.8,93.9,50.7,94,50.7,94z"/>
		</g>
		<g>
			<path d="M49.8,92.8c-0.1-0.1,0-0.3,0.1-0.4l0,0c0.1-0.1,0.3,0,0.4,0.1l0,0c0.1,0.1,0,0.3-0.1,0.4l0,0c0,0-0.1,0-0.1,0l0,0
				C50,92.9,49.9,92.9,49.8,92.8z M49.2,91.8c-0.1-0.1,0-0.3,0.1-0.4l0,0c0.1-0.1,0.3,0,0.4,0.1l0,0c0.1,0.1,0,0.3-0.1,0.4l0,0
				c0,0-0.1,0-0.1,0l0,0C49.4,91.9,49.3,91.9,49.2,91.8z M48.7,90.8c-0.1-0.1,0-0.3,0.1-0.4l0,0c0.1-0.1,0.3,0,0.4,0.1l0,0
				c0.1,0.1,0,0.3-0.1,0.4l0,0c0,0-0.1,0-0.1,0l0,0C48.8,90.9,48.7,90.9,48.7,90.8z M48.1,89.8c-0.1-0.1,0-0.3,0.1-0.4l0,0
				c0.1-0.1,0.3,0,0.4,0.1l0,0c0.1,0.1,0,0.3-0.1,0.4l0,0c0,0-0.1,0-0.1,0l0,0C48.2,89.9,48.1,89.8,48.1,89.8z M47.5,88.7
				c-0.1-0.1,0-0.3,0.1-0.4l0,0c0.1-0.1,0.3,0,0.4,0.1l0,0c0.1,0.1,0,0.3-0.1,0.4l0,0c0,0-0.1,0-0.1,0l0,0
				C47.6,88.9,47.5,88.8,47.5,88.7z M46.9,87.7c-0.1-0.1,0-0.3,0.1-0.4l0,0c0.1-0.1,0.3,0,0.4,0.1l0,0c0.1,0.1,0,0.3-0.1,0.4l0,0
				c0,0-0.1,0-0.1,0l0,0C47,87.9,46.9,87.8,46.9,87.7z M46.3,86.7c-0.1-0.1,0-0.3,0.1-0.4l0,0c0.1-0.1,0.3,0,0.4,0.1l0,0
				c0.1,0.1,0,0.3-0.1,0.4l0,0c0,0-0.1,0-0.1,0l0,0C46.5,86.9,46.4,86.8,46.3,86.7z M45.7,85.7c-0.1-0.1,0-0.3,0.1-0.4l0,0
				c0.1-0.1,0.3,0,0.4,0.1l0,0c0.1,0.1,0,0.3-0.1,0.4l0,0c0,0-0.1,0-0.1,0l0,0C45.9,85.8,45.8,85.8,45.7,85.7z M45.1,84.7
				c-0.1-0.1,0-0.3,0.1-0.4l0,0c0.1-0.1,0.3,0,0.4,0.1l0,0c0.1,0.1,0,0.3-0.1,0.4l0,0c0,0-0.1,0-0.1,0l0,0
				C45.3,84.8,45.2,84.8,45.1,84.7z M44.5,83.7c-0.1-0.1,0-0.3,0.1-0.4l0,0c0.1-0.1,0.3,0,0.4,0.1l0,0c0.1,0.1,0,0.3-0.1,0.4l0,0
				c0,0-0.1,0-0.1,0l0,0C44.7,83.8,44.6,83.8,44.5,83.7z M44,82.6c-0.1-0.1,0-0.3,0.1-0.4l0,0c0.1-0.1,0.3,0,0.4,0.1l0,0
				c0.1,0.1,0,0.3-0.1,0.4l0,0c0,0-0.1,0-0.1,0l0,0C44.1,82.8,44,82.7,44,82.6z M43.4,81.6c-0.1-0.1,0-0.3,0.1-0.4l0,0
				c0.1-0.1,0.3,0,0.4,0.1l0,0c0.1,0.1,0,0.3-0.1,0.4l0,0c0,0-0.1,0-0.1,0l0,0C43.5,81.8,43.4,81.7,43.4,81.6z M42.8,80.6
				c-0.1-0.1,0-0.3,0.1-0.4l0,0c0.1-0.1,0.3,0,0.4,0.1l0,0c0.1,0.1,0,0.3-0.1,0.4l0,0c0,0-0.1,0-0.1,0l0,0
				C42.9,80.8,42.8,80.7,42.8,80.6z M42.2,79.6c-0.1-0.1,0-0.3,0.1-0.4l0,0c0.1-0.1,0.3,0,0.4,0.1l0,0c0.1,0.1,0,0.3-0.1,0.4l0,0
				c0,0-0.1,0-0.1,0l0,0C42.4,79.7,42.3,79.7,42.2,79.6z M41.6,78.6c-0.1-0.1,0-0.3,0.1-0.4l0,0c0.1-0.1,0.3,0,0.4,0.1l0,0
				c0.1,0.1,0,0.3-0.1,0.4l0,0c0,0-0.1,0-0.1,0l0,0C41.8,78.7,41.7,78.7,41.6,78.6z M41,77.6c-0.1-0.1,0-0.3,0.1-0.4l0,0
				c0.1-0.1,0.3,0,0.4,0.1l0,0c0.1,0.1,0,0.3-0.1,0.4l0,0c0,0-0.1,0-0.1,0l0,0C41.2,77.7,41.1,77.7,41,77.6z M40.4,76.6
				c-0.1-0.1,0-0.3,0.1-0.4l0,0c0.1-0.1,0.3,0,0.4,0.1l0,0c0.1,0.1,0,0.3-0.1,0.4l0,0c0,0-0.1,0-0.1,0l0,0
				C40.6,76.7,40.5,76.7,40.4,76.6z M39.9,75.5c-0.1-0.1,0-0.3,0.1-0.4l0,0c0.1-0.1,0.3,0,0.4,0.1l0,0c0.1,0.1,0,0.3-0.1,0.4l0,0
				c0,0-0.1,0-0.1,0l0,0C40,75.7,39.9,75.6,39.9,75.5z M39.3,74.5c-0.1-0.1,0-0.3,0.1-0.4l0,0c0.1-0.1,0.3,0,0.4,0.1l0,0
				c0.1,0.1,0,0.3-0.1,0.4l0,0c0,0-0.1,0-0.1,0l0,0C39.4,74.7,39.3,74.6,39.3,74.5z M38.7,73.5c-0.1-0.1,0-0.3,0.1-0.4l0,0
				c0.1-0.1,0.3,0,0.4,0.1l0,0c0.1,0.1,0,0.3-0.1,0.4l0,0c0,0-0.1,0-0.1,0l0,0C38.8,73.7,38.7,73.6,38.7,73.5z M38.1,72.5
				c-0.1-0.1,0-0.3,0.1-0.4l0,0c0.1-0.1,0.3,0,0.4,0.1l0,0c0.1,0.1,0,0.3-0.1,0.4l0,0c0,0-0.1,0-0.1,0l0,0
				C38.3,72.6,38.2,72.6,38.1,72.5z M37.5,71.5c-0.1-0.1,0-0.3,0.1-0.4l0,0c0.1-0.1,0.3,0,0.4,0.1l0,0c0.1,0.1,0,0.3-0.1,0.4l0,0
				c0,0-0.1,0-0.1,0l0,0C37.7,71.6,37.6,71.6,37.5,71.5z M36.9,70.5c-0.1-0.1,0-0.3,0.1-0.4l0,0c0.1-0.1,0.3,0,0.4,0.1l0,0
				c0.1,0.1,0,0.3-0.1,0.4l0,0c0,0-0.1,0-0.1,0l0,0C37.1,70.6,37,70.6,36.9,70.5z M36.3,69.5c-0.1-0.1,0-0.3,0.1-0.4l0,0
				c0.1-0.1,0.3,0,0.4,0.1l0,0c0.1,0.1,0,0.3-0.1,0.4l0,0c0,0-0.1,0-0.1,0l0,0C36.5,69.6,36.4,69.6,36.3,69.5z M35.8,68.4
				c-0.1-0.1,0-0.3,0.1-0.4l0,0c0.1-0.1,0.3,0,0.4,0.1l0,0c0.1,0.1,0,0.3-0.1,0.4l0,0c0,0-0.1,0-0.1,0l0,0
				C35.9,68.6,35.8,68.5,35.8,68.4z M35.2,67.4c-0.1-0.1,0-0.3,0.1-0.4l0,0c0.1-0.1,0.3,0,0.4,0.1l0,0c0.1,0.1,0,0.3-0.1,0.4l0,0
				c0,0-0.1,0-0.1,0l0,0C35.3,67.6,35.2,67.5,35.2,67.4z M34.6,66.4c-0.1-0.1,0-0.3,0.1-0.4l0,0c0.1-0.1,0.3,0,0.4,0.1l0,0
				c0.1,0.1,0,0.3-0.1,0.4l0,0c0,0-0.1,0-0.1,0l0,0C34.7,66.6,34.6,66.5,34.6,66.4z M34,65.4c-0.1-0.1,0-0.3,0.1-0.4l0,0
				c0.1-0.1,0.3,0,0.4,0.1l0,0c0.1,0.1,0,0.3-0.1,0.4l0,0c0,0-0.1,0-0.1,0l0,0C34.1,65.5,34,65.5,34,65.4z M33.4,64.4
				c-0.1-0.1,0-0.3,0.1-0.4l0,0c0.1-0.1,0.3,0,0.4,0.1l0,0c0.1,0.1,0,0.3-0.1,0.4l0,0c0,0-0.1,0-0.1,0l0,0
				C33.6,64.5,33.5,64.5,33.4,64.4z M32.8,63.4c-0.1-0.1,0-0.3,0.1-0.4l0,0c0.1-0.1,0.3,0,0.4,0.1l0,0c0.1,0.1,0,0.3-0.1,0.4l0,0
				c0,0-0.1,0-0.1,0l0,0C33,63.5,32.9,63.5,32.8,63.4z M32.2,62.4c-0.1-0.1,0-0.3,0.1-0.4l0,0c0.1-0.1,0.3,0,0.4,0.1l0,0
				c0.1,0.1,0,0.3-0.1,0.4l0,0c0,0-0.1,0-0.1,0l0,0C32.4,62.5,32.3,62.4,32.2,62.4z M31.6,61.3c-0.1-0.1,0-0.3,0.1-0.4l0,0
				c0.1-0.1,0.3,0,0.4,0.1l0,0c0.1,0.1,0,0.3-0.1,0.4l0,0c0,0-0.1,0-0.1,0l0,0C31.8,61.5,31.7,61.4,31.6,61.3z M31.1,60.3
				c-0.1-0.1,0-0.3,0.1-0.4l0,0c0.1-0.1,0.3,0,0.4,0.1l0,0c0.1,0.1,0,0.3-0.1,0.4l0,0c0,0-0.1,0-0.1,0l0,0
				C31.2,60.5,31.1,60.4,31.1,60.3z M30.5,59.3c-0.1-0.1,0-0.3,0.1-0.4l0,0c0.1-0.1,0.3,0,0.4,0.1l0,0c0.1,0.1,0,0.3-0.1,0.4l0,0
				c0,0-0.1,0-0.1,0l0,0C30.6,59.5,30.5,59.4,30.5,59.3z M29.9,58.3c-0.1-0.1,0-0.3,0.1-0.4l0,0c0.1-0.1,0.3,0,0.4,0.1l0,0
				c0.1,0.1,0,0.3-0.1,0.4l0,0c0,0-0.1,0-0.1,0l0,0C30,58.4,29.9,58.4,29.9,58.3z M29.3,57.3c-0.1-0.1,0-0.3,0.1-0.4l0,0
				c0.1-0.1,0.3,0,0.4,0.1l0,0c0.1,0.1,0,0.3-0.1,0.4l0,0c0,0-0.1,0-0.1,0l0,0C29.5,57.4,29.4,57.4,29.3,57.3z M28.7,56.3
				c-0.1-0.1,0-0.3,0.1-0.4l0,0c0.1-0.1,0.3,0,0.4,0.1l0,0c0.1,0.1,0,0.3-0.1,0.4l0,0c0,0-0.1,0-0.1,0l0,0
				C28.9,56.4,28.8,56.4,28.7,56.3z M28.1,55.3c-0.1-0.1,0-0.3,0.1-0.4l0,0c0.1-0.1,0.3,0,0.4,0.1l0,0c0.1,0.1,0,0.3-0.1,0.4l0,0
				c0,0-0.1,0-0.1,0l0,0C28.3,55.4,28.2,55.3,28.1,55.3z M27.5,54.2c-0.1-0.1,0-0.3,0.1-0.4l0,0c0.1-0.1,0.3,0,0.4,0.1l0,0
				c0.1,0.1,0,0.3-0.1,0.4l0,0c0,0-0.1,0-0.1,0l0,0C27.7,54.4,27.6,54.3,27.5,54.2z M27,53.2c-0.1-0.1,0-0.3,0.1-0.4l0,0
				c0.1-0.1,0.3,0,0.4,0.1l0,0c0.1,0.1,0,0.3-0.1,0.4l0,0c0,0-0.1,0-0.1,0l0,0C27.1,53.4,27,53.3,27,53.2z M26.4,52.2
				c-0.1-0.1,0-0.3,0.1-0.4l0,0c0.1-0.1,0.3,0,0.4,0.1l0,0c0.1,0.1,0,0.3-0.1,0.4l0,0c0,0-0.1,0-0.1,0l0,0
				C26.5,52.4,26.4,52.3,26.4,52.2z M25.8,51.2c-0.1-0.1,0-0.3,0.1-0.4l0,0c0.1-0.1,0.3,0,0.4,0.1l0,0c0.1,0.1,0,0.3-0.1,0.4l0,0
				c0,0-0.1,0-0.1,0l0,0C25.9,51.3,25.8,51.3,25.8,51.2z M25.2,50.2c-0.1-0.1,0-0.3,0.1-0.4l0,0c0.1-0.1,0.3,0,0.4,0.1l0,0
				c0.1,0.1,0,0.3-0.1,0.4l0,0c0,0-0.1,0-0.1,0l0,0C25.3,50.3,25.3,50.3,25.2,50.2z M24.6,49.2c-0.1-0.1,0-0.3,0.1-0.4l0,0
				c0.1-0.1,0.3,0,0.4,0.1l0,0c0.1,0.1,0,0.3-0.1,0.4l0,0c0,0-0.1,0-0.1,0l0,0C24.8,49.3,24.7,49.3,24.6,49.2z M24,48.2
				c-0.1-0.1,0-0.3,0.1-0.4l0,0c0.1-0.1,0.3,0,0.4,0.1l0,0c0.1,0.1,0,0.3-0.1,0.4l0,0c0,0-0.1,0-0.1,0l0,0
				C24.2,48.3,24.1,48.2,24,48.2z M23.4,47.1c-0.1-0.1,0-0.3,0.1-0.4l0,0c0.1-0.1,0.3,0,0.4,0.1l0,0c0.1,0.1,0,0.3-0.1,0.4l0,0
				c0,0-0.1,0-0.1,0l0,0C23.6,47.3,23.5,47.2,23.4,47.1z M22.9,46.1c-0.1-0.1,0-0.3,0.1-0.4l0,0c0.1-0.1,0.3,0,0.4,0.1l0,0
				c0.1,0.1,0,0.3-0.1,0.4l0,0c0,0-0.1,0-0.1,0l0,0C23,46.3,22.9,46.2,22.9,46.1z M22.3,45.1c-0.1-0.1,0-0.3,0.1-0.4l0,0
				c0.1-0.1,0.3,0,0.4,0.1l0,0c0.1,0.1,0,0.3-0.1,0.4l0,0c0,0-0.1,0-0.1,0l0,0C22.4,45.2,22.3,45.2,22.3,45.1z M21.7,44.1
				c-0.1-0.1,0-0.3,0.1-0.4l0,0c0.1-0.1,0.3,0,0.4,0.1l0,0c0.1,0.1,0,0.3-0.1,0.4l0,0c0,0-0.1,0-0.1,0l0,0
				C21.8,44.2,21.7,44.2,21.7,44.1z M21.1,43.1c-0.1-0.1,0-0.3,0.1-0.4l0,0c0.1-0.1,0.3,0,0.4,0.1l0,0c0.1,0.1,0,0.3-0.1,0.4l0,0
				c0,0-0.1,0-0.1,0l0,0C21.2,43.2,21.1,43.2,21.1,43.1z M20.5,42.1c-0.1-0.1,0-0.3,0.1-0.4l0,0c0.1-0.1,0.3,0,0.4,0.1l0,0
				c0.1,0.1,0,0.3-0.1,0.4l0,0c0,0-0.1,0-0.1,0l0,0C20.7,42.2,20.6,42.2,20.5,42.1z M19.9,41c-0.1-0.1,0-0.3,0.1-0.4l0,0
				c0.1-0.1,0.3,0,0.4,0.1l0,0c0.1,0.1,0,0.3-0.1,0.4l0,0c0,0-0.1,0-0.1,0l0,0C20.1,41.2,20,41.1,19.9,41z M19.3,40
				c-0.1-0.1,0-0.3,0.1-0.4l0,0c0.1-0.1,0.3,0,0.4,0.1l0,0c0.1,0.1,0,0.3-0.1,0.4l0,0c0,0-0.1,0-0.1,0l0,0
				C19.5,40.2,19.4,40.1,19.3,40z M18.7,39c-0.1-0.1,0-0.3,0.1-0.4l0,0c0.1-0.1,0.3,0,0.4,0.1l0,0c0.1,0.1,0,0.3-0.1,0.4l0,0
				c0,0-0.1,0-0.1,0l0,0C18.9,39.2,18.8,39.1,18.7,39z M18.2,38c-0.1-0.1,0-0.3,0.1-0.4l0,0c0.1-0.1,0.3,0,0.4,0.1l0,0
				c0.1,0.1,0,0.3-0.1,0.4l0,0c0,0-0.1,0-0.1,0l0,0C18.3,38.1,18.2,38.1,18.2,38z M17.6,37c-0.1-0.1,0-0.3,0.1-0.4l0,0
				c0.1-0.1,0.3,0,0.4,0.1l0,0c0.1,0.1,0,0.3-0.1,0.4l0,0c0,0-0.1,0-0.1,0l0,0C17.7,37.1,17.6,37.1,17.6,37z M17,36
				c-0.1-0.1,0-0.3,0.1-0.4l0,0c0.1-0.1,0.3,0,0.4,0.1l0,0c0.1,0.1,0,0.3-0.1,0.4l0,0c0,0-0.1,0-0.1,0l0,0C17.1,36.1,17,36.1,17,36z
				 M16.4,35c-0.1-0.1,0-0.3,0.1-0.4l0,0c0.1-0.1,0.3,0,0.4,0.1l0,0c0.1,0.1,0,0.3-0.1,0.4l0,0c0,0-0.1,0-0.1,0l0,0
				C16.6,35.1,16.5,35.1,16.4,35z M15.8,33.9c-0.1-0.1,0-0.3,0.1-0.4l0,0c0.1-0.1,0.3,0,0.4,0.1l0,0c0.1,0.1,0,0.3-0.1,0.4l0,0
				c0,0-0.1,0-0.1,0l0,0C16,34.1,15.9,34,15.8,33.9z M15.2,32.9c-0.1-0.1,0-0.3,0.1-0.4l0,0c0.1-0.1,0.3,0,0.4,0.1l0,0
				c0.1,0.1,0,0.3-0.1,0.4l0,0c0,0-0.1,0-0.1,0l0,0C15.4,33.1,15.3,33,15.2,32.9z M14.6,31.9c-0.1-0.1,0-0.3,0.1-0.4l0,0
				c0.1-0.1,0.3,0,0.4,0.1l0,0c0.1,0.1,0,0.3-0.1,0.4l0,0c0,0-0.1,0-0.1,0l0,0C14.8,32.1,14.7,32,14.6,31.9z M14.1,30.9
				c-0.1-0.1,0-0.3,0.1-0.4l0,0c0.1-0.1,0.3,0,0.4,0.1l0,0c0.1,0.1,0,0.3-0.1,0.4l0,0c0,0-0.1,0-0.1,0l0,0
				C14.2,31,14.1,31,14.1,30.9z M13.5,29.9c-0.1-0.1,0-0.3,0.1-0.4l0,0c0.1-0.1,0.3,0,0.4,0.1l0,0c0.1,0.1,0,0.3-0.1,0.4l0,0
				c0,0-0.1,0-0.1,0l0,0C13.6,30,13.5,30,13.5,29.9z M12.9,28.9c-0.1-0.1,0-0.3,0.1-0.4l0,0c0.1-0.1,0.3,0,0.4,0.1l0,0
				c0.1,0.1,0,0.3-0.1,0.4l0,0c0,0-0.1,0-0.1,0l0,0C13,29,12.9,29,12.9,28.9z"/>
		</g>
		<g>
			<path d="M12.5,28c-0.1,0-0.2,0-0.2-0.1c-0.1-0.1-0.1-0.1-0.1-0.2c0-0.1,0-0.2,0.1-0.2c0.1-0.1,0.3-0.1,0.4,0
				c0.1,0.1,0.1,0.1,0.1,0.2c0,0.1,0,0.2-0.1,0.2C12.7,28,12.6,28,12.5,28z"/>
		</g>
		<g>
			<path d="M87.3,27.7c0-0.2,0.1-0.3,0.3-0.3l0,0c0.2,0,0.3,0.1,0.3,0.3l0,0c0,0.2-0.1,0.3-0.3,0.3l0,0C87.5,28,87.3,27.9,87.3,27.7
				z M86.2,27.7c0-0.2,0.1-0.3,0.3-0.3l0,0c0.2,0,0.3,0.1,0.3,0.3l0,0c0,0.2-0.1,0.3-0.3,0.3l0,0C86.3,28,86.2,27.9,86.2,27.7z
				 M85,27.7c0-0.2,0.1-0.3,0.3-0.3l0,0c0.2,0,0.3,0.1,0.3,0.3l0,0c0,0.2-0.1,0.3-0.3,0.3l0,0C85.2,28,85,27.9,85,27.7z M83.9,27.7
				c0-0.2,0.1-0.3,0.3-0.3l0,0c0.2,0,0.3,0.1,0.3,0.3l0,0c0,0.2-0.1,0.3-0.3,0.3l0,0C84,28,83.9,27.9,83.9,27.7z M82.7,27.7
				c0-0.2,0.1-0.3,0.3-0.3l0,0c0.2,0,0.3,0.1,0.3,0.3l0,0c0,0.2-0.1,0.3-0.3,0.3l0,0C82.9,28,82.7,27.9,82.7,27.7z M81.6,27.7
				c0-0.2,0.1-0.3,0.3-0.3l0,0c0.2,0,0.3,0.1,0.3,0.3l0,0c0,0.2-0.1,0.3-0.3,0.3l0,0C81.7,28,81.6,27.9,81.6,27.7z M80.4,27.7
				c0-0.2,0.1-0.3,0.3-0.3l0,0c0.2,0,0.3,0.1,0.3,0.3l0,0c0,0.2-0.1,0.3-0.3,0.3l0,0C80.5,28,80.4,27.9,80.4,27.7z M79.3,27.7
				c0-0.2,0.1-0.3,0.3-0.3l0,0c0.2,0,0.3,0.1,0.3,0.3l0,0c0,0.2-0.1,0.3-0.3,0.3l0,0C79.4,28,79.3,27.9,79.3,27.7z M78.1,27.7
				c0-0.2,0.1-0.3,0.3-0.3l0,0c0.2,0,0.3,0.1,0.3,0.3l0,0c0,0.2-0.1,0.3-0.3,0.3l0,0C78.2,28,78.1,27.9,78.1,27.7z M77,27.7
				c0-0.2,0.1-0.3,0.3-0.3l0,0c0.2,0,0.3,0.1,0.3,0.3l0,0c0,0.2-0.1,0.3-0.3,0.3l0,0C77.1,28,77,27.9,77,27.7z M75.8,27.7
				c0-0.2,0.1-0.3,0.3-0.3l0,0c0.2,0,0.3,0.1,0.3,0.3l0,0c0,0.2-0.1,0.3-0.3,0.3l0,0C75.9,28,75.8,27.9,75.8,27.7z M74.6,27.7
				c0-0.2,0.1-0.3,0.3-0.3l0,0c0.2,0,0.3,0.1,0.3,0.3l0,0c0,0.2-0.1,0.3-0.3,0.3l0,0C74.8,28,74.6,27.9,74.6,27.7z M73.5,27.7
				c0-0.2,0.1-0.3,0.3-0.3l0,0c0.2,0,0.3,0.1,0.3,0.3l0,0c0,0.2-0.1,0.3-0.3,0.3l0,0C73.6,28,73.5,27.9,73.5,27.7z M72.3,27.7
				c0-0.2,0.1-0.3,0.3-0.3l0,0c0.2,0,0.3,0.1,0.3,0.3l0,0c0,0.2-0.1,0.3-0.3,0.3l0,0C72.5,28,72.3,27.9,72.3,27.7z M71.2,27.7
				c0-0.2,0.1-0.3,0.3-0.3l0,0c0.2,0,0.3,0.1,0.3,0.3l0,0c0,0.2-0.1,0.3-0.3,0.3l0,0C71.3,28,71.2,27.9,71.2,27.7z M70,27.7
				c0-0.2,0.1-0.3,0.3-0.3l0,0c0.2,0,0.3,0.1,0.3,0.3l0,0c0,0.2-0.1,0.3-0.3,0.3l0,0C70.1,28,70,27.9,70,27.7z M68.9,27.7
				c0-0.2,0.1-0.3,0.3-0.3l0,0c0.2,0,0.3,0.1,0.3,0.3l0,0c0,0.2-0.1,0.3-0.3,0.3l0,0C69,28,68.9,27.9,68.9,27.7z M67.7,27.7
				c0-0.2,0.1-0.3,0.3-0.3l0,0c0.2,0,0.3,0.1,0.3,0.3l0,0c0,0.2-0.1,0.3-0.3,0.3l0,0C67.8,28,67.7,27.9,67.7,27.7z M66.6,27.7
				c0-0.2,0.1-0.3,0.3-0.3l0,0c0.2,0,0.3,0.1,0.3,0.3l0,0c0,0.2-0.1,0.3-0.3,0.3l0,0C66.7,28,66.6,27.9,66.6,27.7z M65.4,27.7
				c0-0.2,0.1-0.3,0.3-0.3l0,0c0.2,0,0.3,0.1,0.3,0.3l0,0c0,0.2-0.1,0.3-0.3,0.3l0,0C65.5,28,65.4,27.9,65.4,27.7z M64.2,27.7
				c0-0.2,0.1-0.3,0.3-0.3l0,0c0.2,0,0.3,0.1,0.3,0.3l0,0c0,0.2-0.1,0.3-0.3,0.3l0,0C64.4,28,64.2,27.9,64.2,27.7z M63.1,27.7
				c0-0.2,0.1-0.3,0.3-0.3l0,0c0.2,0,0.3,0.1,0.3,0.3l0,0c0,0.2-0.1,0.3-0.3,0.3l0,0C63.2,28,63.1,27.9,63.1,27.7z M61.9,27.7
				c0-0.2,0.1-0.3,0.3-0.3l0,0c0.2,0,0.3,0.1,0.3,0.3l0,0c0,0.2-0.1,0.3-0.3,0.3l0,0C62.1,28,61.9,27.9,61.9,27.7z M60.8,27.7
				c0-0.2,0.1-0.3,0.3-0.3l0,0c0.2,0,0.3,0.1,0.3,0.3l0,0c0,0.2-0.1,0.3-0.3,0.3l0,0C60.9,28,60.8,27.9,60.8,27.7z M59.6,27.7
				c0-0.2,0.1-0.3,0.3-0.3l0,0c0.2,0,0.3,0.1,0.3,0.3l0,0c0,0.2-0.1,0.3-0.3,0.3l0,0C59.8,28,59.6,27.9,59.6,27.7z M58.5,27.7
				c0-0.2,0.1-0.3,0.3-0.3l0,0c0.2,0,0.3,0.1,0.3,0.3l0,0c0,0.2-0.1,0.3-0.3,0.3l0,0C58.6,28,58.5,27.9,58.5,27.7z M57.3,27.7
				c0-0.2,0.1-0.3,0.3-0.3l0,0c0.2,0,0.3,0.1,0.3,0.3l0,0c0,0.2-0.1,0.3-0.3,0.3l0,0C57.4,28,57.3,27.9,57.3,27.7z M56.2,27.7
				c0-0.2,0.1-0.3,0.3-0.3l0,0c0.2,0,0.3,0.1,0.3,0.3l0,0c0,0.2-0.1,0.3-0.3,0.3l0,0C56.3,28,56.2,27.9,56.2,27.7z M55,27.7
				c0-0.2,0.1-0.3,0.3-0.3l0,0c0.2,0,0.3,0.1,0.3,0.3l0,0c0,0.2-0.1,0.3-0.3,0.3l0,0C55.1,28,55,27.9,55,27.7z M53.8,27.7
				c0-0.2,0.1-0.3,0.3-0.3l0,0c0.2,0,0.3,0.1,0.3,0.3l0,0c0,0.2-0.1,0.3-0.3,0.3l0,0C54,28,53.8,27.9,53.8,27.7z M52.7,27.7
				c0-0.2,0.1-0.3,0.3-0.3l0,0c0.2,0,0.3,0.1,0.3,0.3l0,0c0,0.2-0.1,0.3-0.3,0.3l0,0C52.8,28,52.7,27.9,52.7,27.7z M51.5,27.7
				c0-0.2,0.1-0.3,0.3-0.3l0,0c0.2,0,0.3,0.1,0.3,0.3l0,0c0,0.2-0.1,0.3-0.3,0.3l0,0C51.7,28,51.5,27.9,51.5,27.7z M50.4,27.7
				c0-0.2,0.1-0.3,0.3-0.3l0,0c0.2,0,0.3,0.1,0.3,0.3l0,0c0,0.2-0.1,0.3-0.3,0.3l0,0C50.5,28,50.4,27.9,50.4,27.7z M49.2,27.7
				c0-0.2,0.1-0.3,0.3-0.3l0,0c0.2,0,0.3,0.1,0.3,0.3l0,0c0,0.2-0.1,0.3-0.3,0.3l0,0C49.4,28,49.2,27.9,49.2,27.7z M48.1,27.7
				c0-0.2,0.1-0.3,0.3-0.3l0,0c0.2,0,0.3,0.1,0.3,0.3l0,0c0,0.2-0.1,0.3-0.3,0.3l0,0C48.2,28,48.1,27.9,48.1,27.7z M46.9,27.7
				c0-0.2,0.1-0.3,0.3-0.3l0,0c0.2,0,0.3,0.1,0.3,0.3l0,0c0,0.2-0.1,0.3-0.3,0.3l0,0C47,28,46.9,27.9,46.9,27.7z M45.8,27.7
				c0-0.2,0.1-0.3,0.3-0.3l0,0c0.2,0,0.3,0.1,0.3,0.3l0,0c0,0.2-0.1,0.3-0.3,0.3l0,0C45.9,28,45.8,27.9,45.8,27.7z M44.6,27.7
				c0-0.2,0.1-0.3,0.3-0.3l0,0c0.2,0,0.3,0.1,0.3,0.3l0,0c0,0.2-0.1,0.3-0.3,0.3l0,0C44.7,28,44.6,27.9,44.6,27.7z M43.4,27.7
				c0-0.2,0.1-0.3,0.3-0.3l0,0c0.2,0,0.3,0.1,0.3,0.3l0,0c0,0.2-0.1,0.3-0.3,0.3l0,0C43.6,28,43.4,27.9,43.4,27.7z M42.3,27.7
				c0-0.2,0.1-0.3,0.3-0.3l0,0c0.2,0,0.3,0.1,0.3,0.3l0,0c0,0.2-0.1,0.3-0.3,0.3l0,0C42.4,28,42.3,27.9,42.3,27.7z M41.1,27.7
				c0-0.2,0.1-0.3,0.3-0.3l0,0c0.2,0,0.3,0.1,0.3,0.3l0,0c0,0.2-0.1,0.3-0.3,0.3l0,0C41.3,28,41.1,27.9,41.1,27.7z M40,27.7
				c0-0.2,0.1-0.3,0.3-0.3l0,0c0.2,0,0.3,0.1,0.3,0.3l0,0c0,0.2-0.1,0.3-0.3,0.3l0,0C40.1,28,40,27.9,40,27.7z M38.8,27.7
				c0-0.2,0.1-0.3,0.3-0.3l0,0c0.2,0,0.3,0.1,0.3,0.3l0,0c0,0.2-0.1,0.3-0.3,0.3l0,0C39,28,38.8,27.9,38.8,27.7z M37.7,27.7
				c0-0.2,0.1-0.3,0.3-0.3l0,0c0.2,0,0.3,0.1,0.3,0.3l0,0c0,0.2-0.1,0.3-0.3,0.3l0,0C37.8,28,37.7,27.9,37.7,27.7z M36.5,27.7
				c0-0.2,0.1-0.3,0.3-0.3l0,0c0.2,0,0.3,0.1,0.3,0.3l0,0c0,0.2-0.1,0.3-0.3,0.3l0,0C36.6,28,36.5,27.9,36.5,27.7z M35.4,27.7
				c0-0.2,0.1-0.3,0.3-0.3l0,0c0.2,0,0.3,0.1,0.3,0.3l0,0c0,0.2-0.1,0.3-0.3,0.3l0,0C35.5,28,35.4,27.9,35.4,27.7z M34.2,27.7
				c0-0.2,0.1-0.3,0.3-0.3l0,0c0.2,0,0.3,0.1,0.3,0.3l0,0c0,0.2-0.1,0.3-0.3,0.3l0,0C34.3,28,34.2,27.9,34.2,27.7z M33,27.7
				c0-0.2,0.1-0.3,0.3-0.3l0,0c0.2,0,0.3,0.1,0.3,0.3l0,0c0,0.2-0.1,0.3-0.3,0.3l0,0C33.2,28,33,27.9,33,27.7z M31.9,27.7
				c0-0.2,0.1-0.3,0.3-0.3l0,0c0.2,0,0.3,0.1,0.3,0.3l0,0c0,0.2-0.1,0.3-0.3,0.3l0,0C32,28,31.9,27.9,31.9,27.7z M30.7,27.7
				c0-0.2,0.1-0.3,0.3-0.3l0,0c0.2,0,0.3,0.1,0.3,0.3l0,0c0,0.2-0.1,0.3-0.3,0.3l0,0C30.9,28,30.7,27.9,30.7,27.7z M29.6,27.7
				c0-0.2,0.1-0.3,0.3-0.3l0,0c0.2,0,0.3,0.1,0.3,0.3l0,0c0,0.2-0.1,0.3-0.3,0.3l0,0C29.7,28,29.6,27.9,29.6,27.7z M28.4,27.7
				c0-0.2,0.1-0.3,0.3-0.3l0,0c0.2,0,0.3,0.1,0.3,0.3l0,0c0,0.2-0.1,0.3-0.3,0.3l0,0C28.6,28,28.4,27.9,28.4,27.7z M27.3,27.7
				c0-0.2,0.1-0.3,0.3-0.3l0,0c0.2,0,0.3,0.1,0.3,0.3l0,0c0,0.2-0.1,0.3-0.3,0.3l0,0C27.4,28,27.3,27.9,27.3,27.7z M26.1,27.7
				c0-0.2,0.1-0.3,0.3-0.3l0,0c0.2,0,0.3,0.1,0.3,0.3l0,0c0,0.2-0.1,0.3-0.3,0.3l0,0C26.2,28,26.1,27.9,26.1,27.7z M25,27.7
				c0-0.2,0.1-0.3,0.3-0.3l0,0c0.2,0,0.3,0.1,0.3,0.3l0,0c0,0.2-0.1,0.3-0.3,0.3l0,0C25.1,28,25,27.9,25,27.7z M23.8,27.7
				c0-0.2,0.1-0.3,0.3-0.3l0,0c0.2,0,0.3,0.1,0.3,0.3l0,0c0,0.2-0.1,0.3-0.3,0.3l0,0C23.9,28,23.8,27.9,23.8,27.7z M22.6,27.7
				c0-0.2,0.1-0.3,0.3-0.3l0,0c0.2,0,0.3,0.1,0.3,0.3l0,0c0,0.2-0.1,0.3-0.3,0.3l0,0C22.8,28,22.6,27.9,22.6,27.7z M21.5,27.7
				c0-0.2,0.1-0.3,0.3-0.3l0,0c0.2,0,0.3,0.1,0.3,0.3l0,0c0,0.2-0.1,0.3-0.3,0.3l0,0C21.6,28,21.5,27.9,21.5,27.7z M20.3,27.7
				c0-0.2,0.1-0.3,0.3-0.3l0,0c0.2,0,0.3,0.1,0.3,0.3l0,0c0,0.2-0.1,0.3-0.3,0.3l0,0C20.5,28,20.3,27.9,20.3,27.7z M19.2,27.7
				c0-0.2,0.1-0.3,0.3-0.3l0,0c0.2,0,0.3,0.1,0.3,0.3l0,0c0,0.2-0.1,0.3-0.3,0.3l0,0C19.3,28,19.2,27.9,19.2,27.7z M18,27.7
				c0-0.2,0.1-0.3,0.3-0.3l0,0c0.2,0,0.3,0.1,0.3,0.3l0,0c0,0.2-0.1,0.3-0.3,0.3l0,0C18.2,28,18,27.9,18,27.7z M16.9,27.7
				c0-0.2,0.1-0.3,0.3-0.3l0,0c0.2,0,0.3,0.1,0.3,0.3l0,0c0,0.2-0.1,0.3-0.3,0.3l0,0C17,28,16.9,27.9,16.9,27.7z M15.7,27.7
				c0-0.2,0.1-0.3,0.3-0.3l0,0c0.2,0,0.3,0.1,0.3,0.3l0,0c0,0.2-0.1,0.3-0.3,0.3l0,0C15.8,28,15.7,27.9,15.7,27.7z M14.6,27.7
				c0-0.2,0.1-0.3,0.3-0.3l0,0c0.2,0,0.3,0.1,0.3,0.3l0,0c0,0.2-0.1,0.3-0.3,0.3l0,0C14.7,28,14.6,27.9,14.6,27.7z M13.4,27.7
				c0-0.2,0.1-0.3,0.3-0.3l0,0c0.2,0,0.3,0.1,0.3,0.3l0,0c0,0.2-0.1,0.3-0.3,0.3l0,0C13.5,28,13.4,27.9,13.4,27.7z"/>
		</g>
		<g>
			<path d="M88.8,28c-0.1,0-0.2,0-0.2-0.1c-0.1-0.1-0.1-0.1-0.1-0.2c0-0.1,0-0.2,0.1-0.2c0.1-0.1,0.3-0.1,0.4,0
				c0.1,0.1,0.1,0.1,0.1,0.2c0,0.1,0,0.2-0.1,0.2C88.9,28,88.9,28,88.8,28z"/>
		</g>
	</g>
	<g>
		<g>
			<path d="M89,28c-0.1,0-0.2,0-0.2-0.1c-0.1-0.1-0.1-0.1-0.1-0.2s0-0.2,0.1-0.2c0.1-0.1,0.3-0.1,0.4,0c0.1,0.1,0.1,0.1,0.1,0.2
				c0,0.1,0,0.2-0.1,0.2C89.1,28,89,28,89,28z"/>
		</g>
		<g>
			<path d="M51.1,92.9c-0.1-0.1-0.2-0.3-0.1-0.4l0,0c0.1-0.1,0.3-0.2,0.4-0.1l0,0c0.1,0.1,0.2,0.3,0.1,0.4l0,0
				c-0.1,0.1-0.2,0.1-0.3,0.1l0,0C51.2,93,51.1,92.9,51.1,92.9z M51.7,91.9c-0.1-0.1-0.2-0.3-0.1-0.4l0,0c0.1-0.1,0.3-0.2,0.4-0.1
				l0,0c0.1,0.1,0.2,0.3,0.1,0.4l0,0C52,91.9,51.9,92,51.8,92l0,0C51.8,92,51.7,91.9,51.7,91.9z M52.3,90.9
				c-0.1-0.1-0.2-0.3-0.1-0.4l0,0c0.1-0.1,0.3-0.2,0.4-0.1l0,0c0.1,0.1,0.2,0.3,0.1,0.4l0,0c-0.1,0.1-0.2,0.1-0.3,0.1l0,0
				C52.4,91,52.3,90.9,52.3,90.9z M52.8,89.9c-0.1-0.1-0.2-0.3-0.1-0.4l0,0c0.1-0.1,0.3-0.2,0.4-0.1l0,0c0.1,0.1,0.2,0.3,0.1,0.4
				l0,0C53.2,89.9,53.1,90,53,90l0,0C52.9,90,52.9,89.9,52.8,89.9z M53.4,88.9c-0.1-0.1-0.2-0.3-0.1-0.4l0,0
				c0.1-0.1,0.3-0.2,0.4-0.1l0,0c0.1,0.1,0.2,0.3,0.1,0.4l0,0c-0.1,0.1-0.2,0.1-0.2,0.1l0,0C53.5,89,53.5,88.9,53.4,88.9z M54,87.9
				c-0.1-0.1-0.2-0.3-0.1-0.4l0,0c0.1-0.1,0.3-0.2,0.4-0.1l0,0c0.1,0.1,0.2,0.3,0.1,0.4l0,0c-0.1,0.1-0.2,0.1-0.3,0.1l0,0
				C54.1,88,54,87.9,54,87.9z M54.6,86.9c-0.1-0.1-0.2-0.3-0.1-0.4l0,0c0.1-0.1,0.3-0.2,0.4-0.1l0,0c0.1,0.1,0.2,0.3,0.1,0.4l0,0
				c-0.1,0.1-0.2,0.1-0.2,0.1l0,0C54.7,87,54.6,86.9,54.6,86.9z M55.2,85.9c-0.1-0.1-0.2-0.3-0.1-0.4l0,0c0.1-0.1,0.3-0.2,0.4-0.1
				l0,0c0.1,0.1,0.2,0.3,0.1,0.4l0,0c-0.1,0.1-0.2,0.1-0.3,0.1l0,0C55.3,86,55.2,85.9,55.2,85.9z M55.7,84.9
				c-0.1-0.1-0.2-0.3-0.1-0.4l0,0c0.1-0.1,0.3-0.2,0.4-0.1l0,0c0.1,0.1,0.2,0.3,0.1,0.4l0,0C56.1,84.9,56,85,55.9,85l0,0
				C55.8,85,55.8,84.9,55.7,84.9z M56.3,83.9c-0.1-0.1-0.2-0.3-0.1-0.4l0,0c0.1-0.1,0.3-0.2,0.4-0.1l0,0c0.1,0.1,0.2,0.3,0.1,0.4
				l0,0c-0.1,0.1-0.2,0.1-0.2,0.1l0,0C56.4,84,56.4,84,56.3,83.9z M56.9,82.9c-0.1-0.1-0.2-0.3-0.1-0.4l0,0c0.1-0.1,0.3-0.2,0.4-0.1
				l0,0c0.1,0.1,0.2,0.3,0.1,0.4l0,0C57.2,82.9,57.1,83,57,83l0,0C57,83,56.9,82.9,56.9,82.9z M57.5,81.9c-0.1-0.1-0.2-0.3-0.1-0.4
				l0,0c0.1-0.1,0.3-0.2,0.4-0.1l0,0c0.1,0.1,0.2,0.3,0.1,0.4l0,0c-0.1,0.1-0.2,0.1-0.2,0.1l0,0C57.6,82,57.5,82,57.5,81.9z
				 M58.1,80.9c-0.1-0.1-0.2-0.3-0.1-0.4l0,0c0.1-0.1,0.3-0.2,0.4-0.1l0,0c0.1,0.1,0.2,0.3,0.1,0.4l0,0c-0.1,0.1-0.2,0.1-0.3,0.1
				l0,0C58.2,81,58.1,81,58.1,80.9z M58.6,79.9c-0.1-0.1-0.2-0.3-0.1-0.4l0,0c0.1-0.1,0.3-0.2,0.4-0.1l0,0c0.1,0.1,0.2,0.3,0.1,0.4
				l0,0C59,79.9,58.9,80,58.8,80l0,0C58.7,80,58.7,80,58.6,79.9z M59.2,78.9c-0.1-0.1-0.2-0.3-0.1-0.4l0,0c0.1-0.1,0.3-0.2,0.4-0.1
				l0,0c0.1,0.1,0.2,0.3,0.1,0.4l0,0c-0.1,0.1-0.2,0.1-0.3,0.1l0,0C59.3,79,59.3,79,59.2,78.9z M59.8,77.9c-0.1-0.1-0.2-0.3-0.1-0.4
				l0,0c0.1-0.1,0.3-0.2,0.4-0.1l0,0c0.1,0.1,0.2,0.3,0.1,0.4l0,0C60.1,77.9,60,78,59.9,78l0,0C59.9,78,59.8,78,59.8,77.9z
				 M60.4,76.9c-0.1-0.1-0.2-0.3-0.1-0.4l0,0c0.1-0.1,0.3-0.2,0.4-0.1l0,0c0.1,0.1,0.2,0.3,0.1,0.4l0,0c-0.1,0.1-0.2,0.1-0.3,0.1
				l0,0C60.5,77,60.4,77,60.4,76.9z M61,75.9c-0.1-0.1-0.2-0.3-0.1-0.4l0,0c0.1-0.1,0.3-0.2,0.4-0.1l0,0c0.1,0.1,0.2,0.3,0.1,0.4
				l0,0c-0.1,0.1-0.2,0.1-0.2,0.1l0,0C61.1,76,61,76,61,75.9z M61.5,74.9c-0.1-0.1-0.2-0.3-0.1-0.4l0,0c0.1-0.1,0.3-0.2,0.4-0.1l0,0
				c0.1,0.1,0.2,0.3,0.1,0.4l0,0c-0.1,0.1-0.2,0.1-0.3,0.1l0,0C61.6,75,61.6,75,61.5,74.9z M62.1,73.9c-0.1-0.1-0.2-0.3-0.1-0.4l0,0
				c0.1-0.1,0.3-0.2,0.4-0.1l0,0c0.1,0.1,0.2,0.3,0.1,0.4l0,0c-0.1,0.1-0.2,0.1-0.3,0.1l0,0C62.2,74,62.2,74,62.1,73.9z M62.7,72.9
				c-0.1-0.1-0.2-0.3-0.1-0.4l0,0c0.1-0.1,0.3-0.2,0.4-0.1l0,0c0.1,0.1,0.2,0.3,0.1,0.4l0,0C63,72.9,62.9,73,62.8,73l0,0
				C62.8,73,62.7,73,62.7,72.9z M63.3,71.9c-0.1-0.1-0.2-0.3-0.1-0.4l0,0c0.1-0.1,0.3-0.2,0.4-0.1l0,0c0.1,0.1,0.2,0.3,0.1,0.4l0,0
				c-0.1,0.1-0.2,0.1-0.3,0.1l0,0C63.4,72,63.3,72,63.3,71.9z M63.9,70.9c-0.1-0.1-0.2-0.3-0.1-0.4l0,0c0.1-0.1,0.3-0.2,0.4-0.1l0,0
				c0.1,0.1,0.2,0.3,0.1,0.4l0,0C64.2,70.9,64.1,71,64,71l0,0C64,71,63.9,71,63.9,70.9z M64.4,69.9c-0.1-0.1-0.2-0.3-0.1-0.4l0,0
				c0.1-0.1,0.3-0.2,0.4-0.1l0,0c0.1,0.1,0.2,0.3,0.1,0.4l0,0c-0.1,0.1-0.2,0.1-0.3,0.1l0,0C64.5,70,64.5,70,64.4,69.9z M65,68.9
				c-0.1-0.1-0.2-0.3-0.1-0.4l0,0c0.1-0.1,0.3-0.2,0.4-0.1l0,0c0.1,0.1,0.2,0.3,0.1,0.4l0,0c-0.1,0.1-0.2,0.1-0.2,0.1l0,0
				C65.1,69,65.1,69,65,68.9z M65.6,67.9c-0.1-0.1-0.2-0.3-0.1-0.4l0,0c0.1-0.1,0.3-0.2,0.4-0.1l0,0c0.1,0.1,0.2,0.3,0.1,0.4l0,0
				c-0.1,0.1-0.2,0.1-0.3,0.1l0,0C65.7,68,65.7,68,65.6,67.9z M66.2,66.9c-0.1-0.1-0.2-0.3-0.1-0.4l0,0c0.1-0.1,0.3-0.2,0.4-0.1l0,0
				c0.1,0.1,0.2,0.3,0.1,0.4l0,0c-0.1,0.1-0.2,0.1-0.2,0.1l0,0C66.3,67,66.2,67,66.2,66.9z M66.8,65.9c-0.1-0.1-0.2-0.3-0.1-0.4l0,0
				c0.1-0.1,0.3-0.2,0.4-0.1l0,0c0.1,0.1,0.2,0.3,0.1,0.4l0,0C67.1,65.9,67,66,66.9,66l0,0C66.9,66,66.8,66,66.8,65.9z M67.3,64.9
				c-0.1-0.1-0.2-0.3-0.1-0.4l0,0c0.1-0.1,0.3-0.2,0.4-0.1l0,0c0.1,0.1,0.2,0.3,0.1,0.4l0,0c-0.1,0.1-0.2,0.1-0.2,0.1l0,0
				C67.4,65,67.4,65,67.3,64.9z M67.9,63.9c-0.1-0.1-0.2-0.3-0.1-0.4l0,0c0.1-0.1,0.3-0.2,0.4-0.1l0,0c0.1,0.1,0.2,0.3,0.1,0.4l0,0
				c-0.1,0.1-0.2,0.1-0.2,0.1l0,0C68,64,68,64,67.9,63.9z M68.5,62.9c-0.1-0.1-0.2-0.3-0.1-0.4l0,0c0.1-0.1,0.3-0.2,0.4-0.1l0,0
				c0.1,0.1,0.2,0.3,0.1,0.4l0,0c-0.1,0.1-0.2,0.1-0.3,0.1l0,0C68.6,63,68.5,63,68.5,62.9z M69.1,61.9c-0.1-0.1-0.2-0.3-0.1-0.4l0,0
				c0.1-0.1,0.3-0.2,0.4-0.1l0,0c0.1,0.1,0.2,0.3,0.1,0.4l0,0c-0.1,0.1-0.2,0.1-0.2,0.1l0,0C69.2,62,69.1,62,69.1,61.9z M69.7,60.9
				c-0.1-0.1-0.2-0.3-0.1-0.4l0,0c0.1-0.1,0.3-0.2,0.4-0.1l0,0c0.1,0.1,0.2,0.3,0.1,0.4l0,0C70,60.9,69.9,61,69.8,61l0,0
				C69.8,61,69.7,61,69.7,60.9z M70.2,59.9c-0.1-0.1-0.2-0.3-0.1-0.4l0,0c0.1-0.1,0.3-0.2,0.4-0.1l0,0c0.1,0.1,0.2,0.3,0.1,0.4l0,0
				c-0.1,0.1-0.2,0.1-0.2,0.1l0,0C70.3,60,70.3,60,70.2,59.9z M70.8,58.9c-0.1-0.1-0.2-0.3-0.1-0.4l0,0c0.1-0.1,0.3-0.2,0.4-0.1l0,0
				c0.1,0.1,0.2,0.3,0.1,0.4l0,0C71.2,58.9,71.1,59,71,59l0,0C70.9,59,70.9,59,70.8,58.9z M71.4,57.9c-0.1-0.1-0.2-0.3-0.1-0.4l0,0
				c0.1-0.1,0.3-0.2,0.4-0.1l0,0c0.1,0.1,0.2,0.3,0.1,0.4l0,0c-0.1,0.1-0.2,0.1-0.2,0.1l0,0C71.5,58,71.4,58,71.4,57.9z M72,56.9
				c-0.1-0.1-0.2-0.3-0.1-0.4l0,0c0.1-0.1,0.3-0.2,0.4-0.1l0,0c0.1,0.1,0.2,0.3,0.1,0.4l0,0c-0.1,0.1-0.2,0.1-0.3,0.1l0,0
				C72.1,57,72,57,72,56.9z M72.6,55.9c-0.1-0.1-0.2-0.3-0.1-0.4l0,0c0.1-0.1,0.3-0.2,0.4-0.1l0,0c0.1,0.1,0.2,0.3,0.1,0.4l0,0
				c-0.1,0.1-0.2,0.1-0.3,0.1l0,0C72.7,56,72.6,56,72.6,55.9z M73.1,54.9C73,54.9,73,54.7,73,54.5l0,0c0.1-0.1,0.3-0.2,0.4-0.1l0,0
				c0.1,0.1,0.2,0.3,0.1,0.4l0,0c-0.1,0.1-0.2,0.1-0.3,0.1l0,0C73.2,55,73.2,55,73.1,54.9z M73.7,53.9c-0.1-0.1-0.2-0.3-0.1-0.4l0,0
				c0.1-0.1,0.3-0.2,0.4-0.1l0,0c0.1,0.1,0.2,0.3,0.1,0.4l0,0C74.1,53.9,74,54,73.9,54l0,0C73.8,54,73.8,54,73.7,53.9z M74.3,52.9
				c-0.1-0.1-0.2-0.3-0.1-0.4l0,0c0.1-0.1,0.3-0.2,0.4-0.1l0,0c0.1,0.1,0.2,0.3,0.1,0.4l0,0c-0.1,0.1-0.2,0.1-0.2,0.1l0,0
				C74.4,53,74.3,53,74.3,52.9z M74.9,51.9c-0.1-0.1-0.2-0.3-0.1-0.4l0,0c0.1-0.1,0.3-0.2,0.4-0.1l0,0c0.1,0.1,0.2,0.3,0.1,0.4l0,0
				C75.2,51.9,75.1,52,75,52l0,0C75,52,74.9,52,74.9,51.9z M75.5,50.9c-0.1-0.1-0.2-0.3-0.1-0.4l0,0c0.1-0.1,0.3-0.2,0.4-0.1l0,0
				c0.1,0.1,0.2,0.3,0.1,0.4l0,0c-0.1,0.1-0.2,0.1-0.2,0.1l0,0C75.6,51,75.5,51,75.5,50.9z M76,50c-0.1-0.1-0.2-0.3-0.1-0.4l0,0
				c0.1-0.1,0.3-0.2,0.4-0.1l0,0c0.1,0.1,0.2,0.3,0.1,0.4l0,0c-0.1,0.1-0.2,0.1-0.3,0.1l0,0C76.1,50,76.1,50,76,50z M76.6,49
				c-0.1-0.1-0.2-0.3-0.1-0.4l0,0c0.1-0.1,0.3-0.2,0.4-0.1l0,0c0.1,0.1,0.2,0.3,0.1,0.4l0,0C77,48.9,76.9,49,76.8,49l0,0
				C76.7,49,76.7,49,76.6,49z M77.2,48c-0.1-0.1-0.2-0.3-0.1-0.4l0,0c0.1-0.1,0.3-0.2,0.4-0.1l0,0c0.1,0.1,0.2,0.3,0.1,0.4l0,0
				c-0.1,0.1-0.2,0.1-0.3,0.1l0,0C77.3,48,77.3,48,77.2,48z M77.8,47c-0.1-0.1-0.2-0.3-0.1-0.4l0,0c0.1-0.1,0.3-0.2,0.4-0.1l0,0
				c0.1,0.1,0.2,0.3,0.1,0.4l0,0C78.1,46.9,78,47,77.9,47l0,0C77.9,47,77.8,47,77.8,47z M78.4,46c-0.1-0.1-0.2-0.3-0.1-0.4l0,0
				c0.1-0.1,0.3-0.2,0.4-0.1l0,0c0.1,0.1,0.2,0.3,0.1,0.4l0,0c-0.1,0.1-0.2,0.1-0.3,0.1l0,0C78.5,46,78.4,46,78.4,46z M78.9,45
				c-0.1-0.1-0.2-0.3-0.1-0.4l0,0c0.1-0.1,0.3-0.2,0.4-0.1l0,0c0.1,0.1,0.2,0.3,0.1,0.4l0,0c-0.1,0.1-0.2,0.1-0.2,0.1l0,0
				C79,45,79,45,78.9,45z M79.5,44c-0.1-0.1-0.2-0.3-0.1-0.4l0,0c0.1-0.1,0.3-0.2,0.4-0.1l0,0c0.1,0.1,0.2,0.3,0.1,0.4l0,0
				c-0.1,0.1-0.2,0.1-0.2,0.1l0,0C79.6,44,79.6,44,79.5,44z M80.1,43c-0.1-0.1-0.2-0.3-0.1-0.4l0,0c0.1-0.1,0.3-0.2,0.4-0.1l0,0
				c0.1,0.1,0.2,0.3,0.1,0.4l0,0c-0.1,0.1-0.2,0.1-0.3,0.1l0,0C80.2,43,80.2,43,80.1,43z M80.7,42c-0.1-0.1-0.2-0.3-0.1-0.4l0,0
				c0.1-0.1,0.3-0.2,0.4-0.1l0,0c0.1,0.1,0.2,0.3,0.1,0.4l0,0C81,41.9,80.9,42,80.8,42l0,0C80.8,42,80.7,42,80.7,42z M81.3,41
				c-0.1-0.1-0.2-0.3-0.1-0.4l0,0c0.1-0.1,0.3-0.2,0.4-0.1l0,0c0.1,0.1,0.2,0.3,0.1,0.4l0,0c-0.1,0.1-0.2,0.1-0.3,0.1l0,0
				C81.4,41,81.3,41,81.3,41z M81.8,40c-0.1-0.1-0.2-0.3-0.1-0.4l0,0c0.1-0.1,0.3-0.2,0.4-0.1l0,0c0.1,0.1,0.2,0.3,0.1,0.4l0,0
				C82.2,39.9,82.1,40,82,40l0,0C81.9,40,81.9,40,81.8,40z M82.4,39c-0.1-0.1-0.2-0.3-0.1-0.4l0,0c0.1-0.1,0.3-0.2,0.4-0.1l0,0
				c0.1,0.1,0.2,0.3,0.1,0.4l0,0c-0.1,0.1-0.2,0.1-0.3,0.1l0,0C82.5,39,82.5,39,82.4,39z M83,38c-0.1-0.1-0.2-0.3-0.1-0.4l0,0
				c0.1-0.1,0.3-0.2,0.4-0.1l0,0c0.1,0.1,0.2,0.3,0.1,0.4l0,0c-0.1,0.1-0.2,0.1-0.3,0.1l0,0C83.1,38,83.1,38,83,38z M83.6,37
				c-0.1-0.1-0.2-0.3-0.1-0.4l0,0c0.1-0.1,0.3-0.2,0.4-0.1l0,0c0.1,0.1,0.2,0.3,0.1,0.4l0,0c-0.1,0.1-0.1,0.1-0.2,0.1l0,0
				C83.7,37,83.6,37,83.6,37z M84.2,36c-0.1-0.1-0.2-0.3-0.1-0.4l0,0c0.1-0.1,0.3-0.2,0.4-0.1l0,0c0.1,0.1,0.2,0.3,0.1,0.4l0,0
				c-0.1,0.1-0.2,0.1-0.3,0.1l0,0C84.3,36,84.2,36,84.2,36z M84.7,35c-0.1-0.1-0.2-0.3-0.1-0.4l0,0c0.1-0.1,0.3-0.2,0.4-0.1l0,0
				c0.1,0.1,0.2,0.3,0.1,0.4l0,0C85.1,34.9,85,35,84.9,35l0,0C84.8,35,84.8,35,84.7,35z M85.3,34c-0.1-0.1-0.2-0.3-0.1-0.4l0,0
				c0.1-0.1,0.3-0.2,0.4-0.1l0,0c0.1,0.1,0.2,0.3,0.1,0.4l0,0c-0.1,0.1-0.2,0.1-0.3,0.1l0,0C85.4,34,85.4,34,85.3,34z M85.9,33
				c-0.1-0.1-0.2-0.3-0.1-0.4l0,0c0.1-0.1,0.3-0.2,0.4-0.1l0,0c0.1,0.1,0.2,0.3,0.1,0.4l0,0C86.2,33,86.2,33,86.1,33l0,0
				C86,33,86,33,85.9,33z M86.5,32c-0.1-0.1-0.2-0.3-0.1-0.4l0,0c0.1-0.1,0.3-0.2,0.4-0.1l0,0c0.1,0.1,0.2,0.3,0.1,0.4l0,0
				C86.8,32,86.7,32,86.6,32l0,0C86.6,32,86.5,32,86.5,32z M87.1,31c-0.1-0.1-0.2-0.3-0.1-0.4l0,0c0.1-0.1,0.3-0.2,0.4-0.1l0,0
				c0.1,0.1,0.2,0.3,0.1,0.4l0,0C87.4,31,87.3,31,87.2,31l0,0C87.2,31,87.1,31,87.1,31z M87.6,30c-0.1-0.1-0.2-0.3-0.1-0.4l0,0
				c0.1-0.1,0.3-0.2,0.4-0.1l0,0c0.1,0.1,0.2,0.3,0.1,0.4l0,0C88,30,87.9,30,87.8,30l0,0C87.7,30,87.7,30,87.6,30z M88.2,29
				c-0.1-0.1-0.2-0.3-0.1-0.4l0,0c0.1-0.1,0.3-0.2,0.4-0.1l0,0c0.1,0.1,0.2,0.3,0.1,0.4l0,0C88.6,29,88.5,29,88.4,29l0,0
				C88.3,29,88.3,29,88.2,29z"/>
		</g>
		<g>
			<path d="M50.7,94c-0.1,0-0.2,0-0.2-0.1c-0.1-0.1-0.1-0.1-0.1-0.2s0-0.2,0.1-0.2c0.1-0.1,0.3-0.1,0.4,0c0.1,0.1,0.1,0.1,0.1,0.2
				s0,0.2-0.1,0.2C50.8,93.9,50.7,94,50.7,94z"/>
		</g>
	</g>
	<g>
		<polygon points="89.5,71.8 12.7,71.8 12.7,71.2 88.4,71.2 88.4,71.1 50.6,5.7 51.1,5.4 88.9,70.8 		"/>
	</g>
	<g>
		<rect x="-6.4" y="38.2" transform="matrix(0.5018 -0.865 0.865 0.5018 -17.5294 46.5932)" width="76.3" height="0.6"/>
	</g>
</g>
</svg>
