<?xml version="1.0" encoding="utf-8"?>
<!-- Generator: Adobe Illustrator 19.2.1, SVG Export Plug-In . SVG Version: 6.00 Build 0)  -->
<svg version="1.1" id="Layer_1" xmlns="http://www.w3.org/2000/svg" xmlns:xlink="http://www.w3.org/1999/xlink" x="0px" y="0px"
	 viewBox="0 0 100.9 100.9" style="enable-background:new 0 0 100.9 100.9;" xml:space="preserve">
<style type="text/css">
	.st0{fill:none;}
</style>
<g>
	<path d="M54.5,0c1.5,0,3,0,4.5,0C61.6,0.6,64,1.5,66.3,3c4,2.5,7.3,5.7,10.2,9.4c4.4,5.6,7.6,11.8,9.5,18.7
		c0.1,0.5,0.2,1.1,0.8,1.2c1.7,0.4,2.8,1.5,3.8,2.9c0.2,0.3,0.4,0.6,0.9,0.7c3.4,0.4,5.7,2.4,7.1,5.4c2.9,6.1,2.9,12.3-0.1,18.4
		c-2.1,4.3-5.6,5.7-10.3,4.7c-0.5-0.1-0.7,0-0.9,0.5c-0.1,0.4-0.3,0.8-0.5,1.2c-1.8,4-4.4,7.1-8.7,8.4c-0.7,0.2-0.8,0.7-0.8,1.4
		c0,3.1,0,6.2,0,9.2c0,0.5,0,1.1-0.1,1.6c-0.2,1-0.9,1.5-1.9,1.5c-0.9,0-1.6-0.6-1.8-1.5c-0.1-0.7-0.1-1.4-0.1-2.1
		c0-0.5,0.1-1-0.2-1.6c-1.6,2.4-3.6,4.3-5.9,5.8c-2.2,1.4-4.5,2.5-7,3.2c-0.7,0.2-1,0.5-0.9,1.3c0,0.6,0,1.2,0,1.8
		c0,1.2-0.8,2.1-1.9,2.1c-1,0-1.8-0.8-1.9-2c-0.2-1.9-0.1-1.8-2-1.8c-1,0-1.4,0.4-1.3,1.4c0,1.4,0,2.8-0.1,4.2
		c-0.1,1.3-1.4,2.1-2.6,1.6c-0.9-0.4-1.2-1.1-1.2-2c0-1.4,0-2.8,0-4.1c0-0.4,0-1-0.6-1c-0.9,0-1.7-0.5-2.6,0
		c-0.1,0.1-0.1,0.4-0.1,0.6c0,0.5,0,0.9-0.1,1.4c-0.2,1-1,1.7-1.9,1.6c-1,0-1.8-0.8-1.9-1.8c0-0.5-0.1-1,0-1.5
		c0.2-1.2-0.3-1.6-1.4-2c-5-1.6-9.2-4.2-12.3-8.6c-0.1-0.1-0.2-0.2-0.3-0.1c-0.2,0.5-0.1,1-0.1,1.5c0,0.5,0,1.1-0.1,1.6
		c-0.1,1.2-0.8,1.8-1.9,1.8c-1.1,0-1.7-0.7-1.9-1.9c-0.1-0.5-0.1-0.9-0.1-1.4c0-3,0-6,0-9c0-0.8-0.2-1.3-1.1-1.5
		c-2-0.6-3.7-1.8-5.2-3.3c-1.6-1.7-2.8-3.7-3.6-5.9c-0.3-0.7-0.5-1-1.4-0.7c-2.4,0.7-4.6,0.3-6.6-1.1c-1.6-1.1-2.7-2.6-3.6-4.3
		c-0.9-1.8-1.4-3.8-1.8-5.8c0-2,0-3.9,0-5.9c0.1-0.5,0.2-1.1,0.3-1.6c0.5-2.2,1.3-4.3,2.7-6.2c1.5-1.9,3.3-3.3,5.7-3.6
		c0.6-0.1,1-0.3,1.3-0.8c0.8-1.2,1.8-2.3,3.3-2.7c0.8-0.2,1.1-0.6,1.3-1.4c1.7-6.2,4.5-12,8.4-17.2C27.8,7.4,33.4,1.9,41.7,0
		c1.5,0,3,0,4.5,0c1.2,0.3,2.5,0.6,3.7,1.1c0.3,0.1,0.6,0.1,0.9,0C52,0.6,53.2,0.3,54.5,0z M74,67.6c2.1,0,3.5-0.6,4.5-1.9
		c0.7-0.8,1.2-1.8,1.6-2.8c0.4-1.1,0.4-1.1-0.7-1.5c-1.9-0.6-1.9-0.6-2.8,1.1c-1.1,2-2.2,2.2-4,0.9c-1.4-1-2.4-2.3-3.4-3.7
		c-3.1-4.4-7.1-7.7-12.2-9.6c-3-1.1-6.1-1.8-9.4-1.2c-6.6,1.3-11.9,4.7-15.9,10.1c-1,1.4-2,2.8-3.3,3.9c-2.3,1.9-3.6,1.7-4.8-1
		c-0.4-0.9-0.8-1.2-1.8-0.8c-2.1,0.8-2.1,0.7-1.1,2.7c2.1,4.1,5.4,5,9.2,2.2c1.6-1.2,2.9-2.7,4-4.3c2.7-4,6.3-6.9,10.9-8.5
		c2.6-0.9,5.2-1.4,8-0.8c5.8,1.3,10.3,4.5,13.7,9.3c1.2,1.8,2.6,3.4,4.4,4.6C72.1,67,73.2,67.5,74,67.6z M95.1,50.3
		c0.1-2.1-0.3-4.2-1.2-6.1c-0.3-0.8-0.8-1-1.6-0.6c-1.3,0.6-2.3,1.5-3.1,2.7C88.1,48,87.6,50,87,51.9c-0.6,2.3,0.1,4.2,1.5,5.9
		c1.3,1.8,3.2,1.7,4.5,0c0.4-0.5,0.7-1,0.9-1.5C94.8,54.4,95.1,52.4,95.1,50.3z M5.6,50.4c0,1,0,2,0.2,3c0.3,1.7,0.8,3.4,2,4.7
		c1,1.1,2.2,1.4,3.3,0.8c1.4-0.7,3-3.8,2.8-5.4c-0.3-2-0.8-4-1.7-5.9c-0.8-1.6-1.9-3-3.5-3.8c-1.2-0.6-1.4-0.6-1.9,0.7
		C5.8,46.3,5.5,48.3,5.6,50.4z M38.3,39.8c-0.5,0-1,0.2-1.4,0.4c-3.2,1.7-5.7,4.2-7.4,7.4c-0.2,0.3-0.3,0.7-0.4,1
		c-0.3,1.1,0.2,1.7,1.3,1.4c0.3-0.1,0.6-0.1,0.8-0.3c3.4-1.8,6.1-4.4,7.8-7.8c0.1-0.3,0.2-0.6,0.3-0.9
		C39.5,40.2,39.2,39.7,38.3,39.8z M62.5,39.7c-0.8,0-1.1,0.3-1.1,1.1c0,0.5,0.2,1,0.4,1.4c1.7,3.1,4.1,5.6,7.2,7.3
		c0.7,0.4,1.6,1,2.4,0.3c0.7-0.7,0.2-1.7-0.2-2.4c-1.7-3-4-5.3-6.9-7C63.7,40,63.1,39.8,62.5,39.7z"/>
	<path class="st0" d="M0,53.3c0.4,2,0.8,4,1.8,5.8c0.9,1.7,2,3.2,3.6,4.3c2.1,1.4,4.3,1.8,6.6,1.1c0.8-0.2,1.1,0,1.4,0.7
		c0.8,2.2,2,4.2,3.6,5.9c1.5,1.5,3.1,2.7,5.2,3.3c0.8,0.2,1.1,0.7,1.1,1.5c0,3,0,6,0,9c0,0.5,0,0.9,0.1,1.4c0.1,1.2,0.8,1.9,1.9,1.9
		c1.1,0,1.8-0.7,1.9-1.8c0.1-0.5,0-1,0.1-1.6c0-0.5-0.1-1,0.1-1.5c0.2-0.1,0.3,0,0.3,0.1c3,4.3,7.3,7,12.3,8.6
		c1.1,0.4,1.6,0.8,1.4,2c-0.1,0.5,0,1,0,1.5c0.1,1,0.9,1.8,1.9,1.8c0.9,0,1.7-0.6,1.9-1.6c0.1-0.4,0-0.9,0.1-1.4
		c0-0.2,0-0.6,0.1-0.6c0.8-0.5,1.7,0,2.6,0c0.6,0,0.6,0.5,0.6,1c0,1.4,0,2.8,0,4.1c0,0.9,0.3,1.6,1.2,2c1.2,0.5,2.5-0.2,2.6-1.6
		c0.1-1.4,0.1-2.8,0.1-4.2c0-1,0.3-1.4,1.3-1.4c1.8,0,1.8-0.1,2,1.8c0.1,1.2,0.9,2,1.9,2c1.1,0,1.9-0.8,1.9-2.1c0-0.6,0-1.2,0-1.8
		c-0.1-0.7,0.3-1.1,0.9-1.3c2.5-0.7,4.8-1.8,7-3.2c2.3-1.5,4.3-3.4,5.9-5.8c0.3,0.6,0.2,1.1,0.2,1.6c0.1,0.7,0,1.4,0.1,2.1
		c0.2,0.9,0.9,1.5,1.8,1.5c1,0,1.7-0.6,1.9-1.5c0.1-0.5,0.1-1,0.1-1.6c0-3.1,0-6.2,0-9.2c0-0.6,0.1-1.1,0.8-1.4
		c4.3-1.4,6.9-4.5,8.7-8.4c0.2-0.4,0.3-0.8,0.5-1.2c0.2-0.4,0.4-0.6,0.9-0.5c4.7,1,8.1-0.5,10.3-4.7c3-6,3-12.3,0.1-18.4
		c-1.4-3-3.7-5-7.1-5.4c-0.5-0.1-0.7-0.4-0.9-0.7c-0.9-1.4-2.1-2.6-3.8-2.9c-0.7-0.1-0.7-0.7-0.8-1.2c-1.9-6.9-5.1-13.1-9.5-18.7
		C73.6,8.7,70.3,5.4,66.3,3C64,1.5,61.6,0.6,59,0c13.7,0,27.4,0,41.1,0c0.7,0,0.8,0.1,0.8,0.8c0,33.1,0,66.2,0,99.2
		c0,0.7-0.1,0.8-0.8,0.8c-33.1,0-66.2,0-99.2,0c-0.7,0-0.8-0.1-0.8-0.8C0,84.5,0,68.9,0,53.3z"/>
	<path class="st0" d="M41.7,0C33.4,1.9,27.8,7.4,23,13.9c-3.9,5.2-6.6,11-8.4,17.2c-0.2,0.7-0.5,1.2-1.3,1.4
		c-1.5,0.4-2.5,1.5-3.3,2.7c-0.3,0.5-0.7,0.8-1.3,0.8c-2.4,0.4-4.3,1.7-5.7,3.6c-1.4,1.8-2.2,3.9-2.7,6.2c-0.1,0.5-0.2,1.1-0.3,1.6
		C0,31.9,0,16.3,0,0.8C0,0.1,0.1,0,0.8,0C14.4,0,28.1,0,41.7,0z"/>
	<path class="st0" d="M54.5,0c-1.2,0.3-2.5,0.6-3.7,1.1c-0.3,0.1-0.6,0.1-0.9,0c-1.2-0.5-2.4-0.8-3.7-1.1C49,0,51.7,0,54.5,0z"/>
	<path class="st0" d="M74,67.6c-0.8,0-2-0.6-3.1-1.3c-1.8-1.2-3.1-2.9-4.4-4.6c-3.4-4.8-7.9-8-13.7-9.3c-2.8-0.6-5.4-0.1-8,0.8
		c-4.6,1.6-8.1,4.6-10.9,8.5c-1.1,1.6-2.4,3.1-4,4.3c-3.7,2.7-7.1,1.9-9.2-2.2c-1-2-1-1.9,1.1-2.7c1-0.4,1.4-0.1,1.8,0.8
		c1.2,2.7,2.5,3,4.8,1c1.3-1.1,2.3-2.5,3.3-3.9c4-5.4,9.3-8.8,15.9-10.1c3.3-0.6,6.4,0,9.4,1.2c5.1,1.9,9.1,5.1,12.2,9.6
		c1,1.4,2,2.7,3.4,3.7c1.8,1.4,3,1.1,4-0.9c0.9-1.7,0.9-1.7,2.8-1.1c1.1,0.4,1.1,0.4,0.7,1.5c-0.4,1-0.9,1.9-1.6,2.8
		C77.5,66.9,76.1,67.6,74,67.6z"/>
	<path class="st0" d="M95.1,50.3c0,2.1-0.3,4.1-1.1,6c-0.2,0.5-0.5,1-0.9,1.5c-1.4,1.7-3.2,1.8-4.5,0c-1.3-1.7-2.1-3.7-1.5-5.9
		c0.5-2,1-3.9,2.2-5.6c0.8-1.2,1.8-2.1,3.1-2.7c0.8-0.4,1.2-0.2,1.6,0.6C94.8,46.2,95.1,48.2,95.1,50.3z"/>
	<path class="st0" d="M5.6,50.4c-0.1-2.1,0.3-4.1,1.1-6c0.5-1.2,0.7-1.3,1.9-0.7c1.6,0.8,2.7,2.2,3.5,3.8c0.9,1.9,1.4,3.9,1.7,5.9
		c0.2,1.5-1.4,4.6-2.8,5.4c-1.1,0.6-2.3,0.3-3.3-0.8c-1.2-1.4-1.7-3-2-4.7C5.6,52.4,5.5,51.4,5.6,50.4z"/>
	<path class="st0" d="M38.3,39.7c0.8,0,1.2,0.4,1,1.2c-0.1,0.3-0.2,0.6-0.3,0.9c-1.8,3.5-4.4,6.1-7.8,7.8C31,49.9,30.7,50,30.4,50
		c-1.1,0.2-1.6-0.3-1.3-1.4c0.1-0.3,0.2-0.7,0.4-1c1.8-3.2,4.2-5.7,7.4-7.4C37.3,39.9,37.8,39.7,38.3,39.7z"/>
	<path class="st0" d="M62.5,39.7c0.6,0,1.2,0.3,1.8,0.6c2.9,1.7,5.3,4,6.9,7c0.4,0.8,1,1.7,0.2,2.4c-0.7,0.7-1.6,0.1-2.4-0.3
		c-3.1-1.7-5.5-4.1-7.2-7.3c-0.2-0.4-0.4-0.9-0.4-1.4C61.4,40,61.6,39.7,62.5,39.7z"/>
</g>
</svg>
