<?xml version="1.0" encoding="utf-8"?>
<!-- Generator: Adobe Illustrator 19.2.1, SVG Export Plug-In . SVG Version: 6.00 Build 0)  -->
<svg version="1.1" id="Layer_1" xmlns="http://www.w3.org/2000/svg" xmlns:xlink="http://www.w3.org/1999/xlink" x="0px" y="0px"
	 viewBox="0 0 100 125" style="enable-background:new 0 0 100 125;" xml:space="preserve">
<polygon points="65.9,32.1 34.1,32.1 31.8,30 68.2,30 "/>
<path d="M50,5.2c-10,0-18.2,8.1-18.2,18.2V30h36.4v-6.6C68.2,13.3,60,5.2,50,5.2z M50,18.1c-2.5,0-4.5-2-4.5-4.5s2-4.5,4.5-4.5
	s4.5,2,4.5,4.5S52.5,18.1,50,18.1z M60.2,24.7c-1.6,0-2.8-1.3-2.8-2.8c0-1.6,1.3-2.8,2.8-2.8c1.6,0,2.8,1.3,2.8,2.8
	C63.1,23.5,61.8,24.7,60.2,24.7z"/>
<g>
	<path d="M65.7,58.2c-1-5.7-5.5-10.3-11.2-11.2L54,53.3h-3.6l-0.6-6.4c-5.7,1-10.3,5.5-11.2,11.2l6.3,0.5v3.6l-6.3,0.5
		c1,5.7,5.5,10.3,11.2,11.2l0.5-6.3h3.6l0.5,6.3c5.7-1,10.3-5.5,11.2-11.2l-6.3-0.5v-3.6L65.7,58.2z"/>
	<path d="M47.7,31.1c-17.3,0-31.3,14-31.3,31.3s14,31.3,31.3,31.3S79,79.7,79,62.4S65,31.1,47.7,31.1z M47.7,80.5
		c-10,0-18.1-8.1-18.1-18.1s8.1-18.1,18.1-18.1s18.1,8.1,18.1,18.1S57.7,80.5,47.7,80.5z"/>
</g>
</svg>
