<?xml version="1.0" encoding="utf-8"?>
<!-- Generator: Adobe Illustrator 19.2.1, SVG Export Plug-In . SVG Version: 6.00 Build 0)  -->
<svg version="1.1" id="Layer_1" xmlns="http://www.w3.org/2000/svg" xmlns:xlink="http://www.w3.org/1999/xlink" x="0px" y="0px"
	 viewBox="0 0 100 125" style="enable-background:new 0 0 100 125;" xml:space="preserve">
<g>
	<g>
		<path d="M47.7,32l-1.5,0c-3.3,0.3-3.8,0.3-7.3,1.3l-6.8-3h36.4L58.4,34C58.3,34,53.4,32,47.7,32z"/>
	</g>
</g>
<path d="M50.3,5.6c-10,0-18.2,8.1-18.2,18.2v6.6h36.4v-6.6C68.5,13.7,60.3,5.6,50.3,5.6z M50.3,18.5c-2.5,0-4.5-2-4.5-4.5
	s2-4.5,4.5-4.5s4.5,2,4.5,4.5S52.8,18.5,50.3,18.5z M60.5,25.1c-1.6,0-2.8-1.3-2.8-2.8c0-1.6,1.3-2.8,2.8-2.8c1.6,0,2.8,1.3,2.8,2.8
	C63.4,23.9,62.1,25.1,60.5,25.1z"/>
<g>
	<g>
		<g>
			<path d="M47.7,32c-17.3,0-31.3,13.8-31.3,30.8s14,30.8,31.3,30.8S79,79.9,79,62.9S65,32,47.7,32z M47.7,80.7
				c-10,0-18.1-8-18.1-17.8S37.7,45,47.7,45c5,0,9.6,2,12.8,5.2c-1.7-1.3-3.8-2.2-6-2.6L54,53.9h-3.6l-0.6-6.3
				c-5.7,1-10.3,5.4-11.2,11l6.3,0.5v3.5l-6.3,0.5c1,5.6,5.5,10.1,11.2,11l0.5-6.2h3.6l0.5,6.2c5.7-1,10.3-5.4,11.2-11l-6.3-0.5
				v-3.5l6-0.4c0.3,1.3,0.5,2.7,0.5,4.1C65.8,72.7,57.7,80.7,47.7,80.7z"/>
		</g>
	</g>
</g>
</svg>
