<?xml version="1.0" encoding="utf-8"?>
<!-- Generator: Adobe Illustrator 19.2.1, SVG Export Plug-In . SVG Version: 6.00 Build 0)  -->
<svg version="1.1" id="Layer_1" xmlns="http://www.w3.org/2000/svg" xmlns:xlink="http://www.w3.org/1999/xlink" x="0px" y="0px"
	 viewBox="0 0 100 125" style="enable-background:new 0 0 100 125;" xml:space="preserve">
<path d="M83.1,43.3V31.7C83.1,17.6,71.6,6,57.4,6H44.6C30.4,6,18.9,17.6,18.9,31.7v11.6L6,76.7C6,83.1,26.1,96,51,96
	s45-12.9,45-19.3L83.1,43.3z M31.7,85.6c-1.3,0-2.4-1.1-2.4-2.4c0-1.3,1.1-2.4,2.4-2.4c1.3,0,2.4,1.1,2.4,2.4
	C34.1,84.5,33,85.6,31.7,85.6 M28.5,51c0-1.8,0.9-4.4,2-5.7c0,0,3.1-3.9,9.3-3.9c3.2,0,5.4,1.4,5.4,1.4c1.5,1,2.7,3.2,2.7,5v4.8
	c0,0.9-1.4,1.6-3.2,1.6H31.7C29.9,54.2,28.5,52.8,28.5,51 M41.4,83.1h-3.2v-6.4l3.2-3.2V83.1z M49.4,83.1h-4.8V70.3h4.8V83.1z
	 M46.2,67.1v-4.8c0-2.7,2.2-4.8,4.8-4.8c2.7,0,4.8,2.2,4.8,4.8v4.8H46.2z M57.4,83.1h-4.8V70.3h4.8V83.1z M63.9,83.1h-3.2v-9.6
	l3.2,3.2V83.1z M70.3,85.6c-1.3,0-2.4-1.1-2.4-2.4c0-1.3,1.1-2.4,2.4-2.4c1.3,0,2.4,1.1,2.4,2.4C72.7,84.5,71.6,85.6,70.3,85.6
	 M70.3,54.2H57.4c-1.8,0-3.2-0.7-3.2-1.6v-4.8c0-1.8,1.2-4,2.7-5c0,0,2.2-1.4,5.4-1.4c6.2,0,9.3,3.9,9.3,3.9c1.1,1.4,2,4,2,5.7
	C73.5,52.8,72.1,54.2,70.3,54.2 M90.2,78.2c-0.2,0.1-0.4,0.1-0.6,0.1c-0.6,0-1.3-0.4-1.5-1l-11.7-30c-3.1-7.7-6.9-10.7-13.6-10.7
	c-4.5,0-8.2,2.8-8.2,2.8c-2,1.5-5.1,1.5-7.1,0c0,0-3.8-2.8-8.2-2.8c-6.7,0-10.5,3-13.6,10.8l-11.7,30c-0.3,0.8-1.3,1.2-2.1,0.9
	c-0.8-0.3-1.2-1.3-0.9-2.1l11.7-30c3.6-9,8.6-12.8,16.6-12.8c5.5,0,10,3.3,10.2,3.4c0.8,0.6,2.4,0.6,3.2,0c0.2-0.1,4.6-3.4,10.2-3.4
	c8.1,0,13,3.8,16.6,12.8l11.7,30C91.4,77,91,77.9,90.2,78.2"/>
</svg>
