<?xml version="1.0" encoding="utf-8"?>
<!-- Generator: Adobe Illustrator 19.2.1, SVG Export Plug-In . SVG Version: 6.00 Build 0)  -->
<svg version="1.1" id="Layer_1" xmlns="http://www.w3.org/2000/svg" xmlns:xlink="http://www.w3.org/1999/xlink" x="0px" y="0px"
	 viewBox="0 0 100 125" style="enable-background:new 0 0 100 125;" xml:space="preserve">
<path d="M91.2,69.8c3.4-5,3.3-12,3.9-13.7c-13.4,3.5-29.2,2-45.7,2c-15.1,0-34.7,0.4-45-3c0.5,2.4,2.2,11.7,4.8,14.7h16.4v4h-15l1,3
	h16v3H13.3c8.2,11,21.8,19.9,37,20c12.3,0,14.3-1,18.9-4H37.6v-3h18v-4h-13v-4c0,0,33,0,36,0s5-5,5-5h-35v-3h25v-4h-27v-3H91.2z"/>
<path d="M57,52.1h11v-3H52v-5h28v-5H59v-4h19v-3H51v-5h12v-3H45v-5h24v-3H48v-4h11V2.3c-1-0.2-9.4-0.2-10.9-0.2
	C23.1,2.1,3.8,24,3.8,49c0,2.3,0.4,4.6,0.8,7.1c-0.1,0,29.7,9.3,44.9,9.3c16.6,0,30.5-5.3,45.3-8.7c0.1-0.5,0.3-0.6,0.3-0.6H57V52.1
	z M28.3,44.2c-5.6,0-10.1-4.5-10.1-10.1S22.7,24,28.3,24s10.1,4.5,10.1,10.1C38.5,39.7,33.9,44.2,28.3,44.2z"/>
</svg>
