<?xml version="1.0" encoding="utf-8"?>
<!-- Generator: Adobe Illustrator 19.2.1, SVG Export Plug-In . SVG Version: 6.00 Build 0)  -->
<svg version="1.1" id="Layer_1" xmlns="http://www.w3.org/2000/svg" xmlns:xlink="http://www.w3.org/1999/xlink" x="0px" y="0px"
	 viewBox="0 0 100 125" style="enable-background:new 0 0 100 125;" xml:space="preserve">
<g>
	<g>
		<g>
			<rect x="46.8" y="23.6" width="8.1" height="28.4"/>
			<path d="M87.6,33.7h-0.8L86,28.3h-5.9l-0.8,5.4h-0.8v6.4c-1.1-1.3-2.2-2.5-3.4-3.6L59.3,3l-3.7-0.7v4.2l-0.9,0.9v10.1l2.9,2.9
				v7.3V52H43.8V27.8v-7.3l2.9-2.9V7.5l-0.9-0.9V2.3L42.1,3L26.4,36.5c-5,4.5-8.8,10.5-10.7,17.2l4.6,2.9l-5.8,3.7
				c-0.1,1-0.1,2.1-0.1,3.2c0,0.4,0,0.7,0,1.1l5.9,3.8l-5,3.2c1.3,5.8,4,11.1,7.8,15.4l20.5-20.5c0.3,0.5,0.6,1,1,1.5L24.2,88.3
				c6.6,7.1,16,11.5,26.5,11.5s19.9-4.5,26.5-11.6L56.9,67.9c0.4-0.5,0.7-1,1-1.5l20.5,20.5c3.7-4.4,6.4-9.6,7.7-15.3L81,68.3
				l5.9-3.8c0-0.4,0-0.7,0-1.1c0-1.1,0-2.1-0.1-3.1L81,56.6l4.6-3c-0.7-2.6-1.7-5-2.9-7.3l4.9-3.6V33.7z M26.2,65.8
				c-1.8,0-3.3-1.5-3.3-3.3s1.5-3.3,3.3-3.3s3.2,1.5,3.2,3.3S28,65.8,26.2,65.8z M35.4,65.8c-1.8,0-3.3-1.5-3.3-3.3s1.5-3.3,3.3-3.3
				c1.8,0,3.2,1.5,3.2,3.3S37.1,65.8,35.4,65.8z M40.5,89.3c-1.6,0-2.9-1.3-2.9-2.9c0-1.6,1.3-2.9,2.9-2.9s2.9,1.3,2.9,2.9
				C43.4,88.1,42.1,89.3,40.5,89.3z M43.9,78.8c-1.6,0-2.9-1.3-2.9-2.9c0-1.6,1.3-2.9,2.9-2.9c1.6,0,2.9,1.3,2.9,2.9
				C46.8,77.5,45.5,78.8,43.9,78.8z M50.7,91.6c-1.6,0-2.9-1.3-2.9-2.9c0-1.6,1.3-2.9,2.9-2.9c1.6,0,2.9,1.3,2.9,2.9
				C53.6,90.3,52.3,91.6,50.7,91.6z M50.7,81.8c-1.6,0-2.9-1.3-2.9-2.9c0-1.6,1.3-2.9,2.9-2.9c1.6,0,2.9,1.3,2.9,2.9
				C53.6,80.5,52.3,81.8,50.7,81.8z M63.8,86.4c0,1.7-1.3,2.9-2.9,2.9c-1.6,0-2.9-1.3-2.9-2.9c0-1.6,1.3-2.9,2.9-2.9
				C62.5,83.5,63.8,84.8,63.8,86.4z M60.4,75.9c0,1.6-1.3,2.9-2.9,2.9s-2.9-1.3-2.9-2.9c0-1.6,1.3-2.9,2.9-2.9S60.4,74.3,60.4,75.9z
				 M66.7,65.8c-1.8,0-3.2-1.5-3.2-3.3s1.5-3.3,3.2-3.3c1.8,0,3.3,1.5,3.3,3.3C69.9,64.3,68.5,65.8,66.7,65.8z M75.8,65.8
				c-1.8,0-3.2-1.5-3.2-3.3s1.5-3.3,3.2-3.3c1.8,0,3.3,1.5,3.3,3.3C79.1,64.3,77.6,65.8,75.8,65.8z"/>
		</g>
	</g>
</g>
</svg>
