<?xml version="1.0" encoding="utf-8"?>
<!-- Generator: Adobe Illustrator 19.2.1, SVG Export Plug-In . SVG Version: 6.00 Build 0)  -->
<svg version="1.1" id="Layer_1" xmlns="http://www.w3.org/2000/svg" xmlns:xlink="http://www.w3.org/1999/xlink" x="0px" y="0px"
	 viewBox="0 0 100 125" style="enable-background:new 0 0 100 125;" xml:space="preserve">
<path d="M50,3.6C24.4,3.6,3.6,24.4,3.6,50S24.4,96.4,50,96.4S96.4,75.6,96.4,50S75.6,3.6,50,3.6z M52.3,8.4
	C66,9.2,77.9,16.5,84.9,27.3l-2,1.2c-1.5-2.3-3.1-4.3-5-6.2l-3.3,3.3c-4.3-4.3-9.7-7.5-15.8-9.1L60,12c-2.5-0.7-5.1-1.1-7.7-1.2V8.4
	z M47.7,8.4v2.3c-2.7,0.2-5.2,0.6-7.7,1.2l1.2,4.5c-6.1,1.6-11.5,4.8-15.8,9.1l-3.3-3.3c-1.8,1.9-3.5,3.9-5,6.2l-2-1.2
	C22.1,16.5,34,9.2,47.7,8.4z M12.9,68.9C10,63.2,8.4,56.8,8.4,50c0-6.7,1.6-13.1,4.4-18.7l2,1.2c-1.2,2.3-2.1,4.8-2.8,7.2l4.5,1.2
	c-0.8,2.9-1.2,6-1.2,9.1c0,3.2,0.4,6.2,1.2,9.1L12,60.3c0.7,2.5,1.6,5,2.9,7.4L12.9,68.9z M47.7,91.6c-13.6-0.7-25.5-8-32.5-18.7
	l2-1.2c1.4,2.2,3.1,4.2,4.9,6l3.3-3.3c4.3,4.3,9.7,7.5,15.8,9.1L40,88c2.5,0.7,5.1,1.1,7.7,1.2V91.6z M50,77.7
	c-1.8,0-3.5-0.2-5.1-0.5l2.6-13.6c-3.2-0.6-5.9-2.2-7.9-4.6l-10.5,9c-1.1-1.3-2.1-2.7-3-4.2s-1.6-3.1-2.2-4.7L37,54.5
	c-0.5-1.4-0.8-3-0.8-4.6s0.3-3.1,0.8-4.6l-13.1-4.6c0.6-1.6,1.3-3.2,2.2-4.7c0.9-1.5,1.9-2.9,3-4.2l10.5,9c2-2.3,4.8-4,7.9-4.6
	l-2.6-13.6c1.7-0.3,3.4-0.5,5.1-0.5s3.5,0.2,5.1,0.5l-2.6,13.6c3.2,0.6,5.9,2.2,7.9,4.6l10.5-9c1.1,1.3,2.1,2.7,3,4.2
	s1.6,3.1,2.2,4.7L63,45.3c0.5,1.4,0.8,3,0.8,4.6S63.5,53,63,54.5l13.1,4.6c-0.6,1.6-1.3,3.2-2.2,4.7c-0.9,1.5-1.9,2.9-3,4.2l-10.5-9
	c-2,2.3-4.8,4-7.9,4.6l2.6,13.6C53.5,77.5,51.8,77.7,50,77.7z M52.3,91.6v-2.3c2.7-0.2,5.2-0.6,7.7-1.2l-1.2-4.5
	c6.1-1.6,11.5-4.8,15.8-9.1l3.3,3.3c1.8-1.8,3.4-3.8,4.9-6l2,1.2C77.7,83.6,65.9,90.8,52.3,91.6z M85.1,67.7
	c1.2-2.4,2.2-4.9,2.9-7.4l-4.5-1.2c0.8-2.9,1.2-6,1.2-9.1c0-3.2-0.4-6.2-1.2-9.1l4.5-1.2c-0.7-2.4-1.6-4.9-2.8-7.2l2-1.2
	c2.8,5.6,4.4,12,4.4,18.7c0,6.8-1.6,13.2-4.5,18.9L85.1,67.7z"/>
</svg>
