<?xml version="1.0" encoding="utf-8"?>
<!-- Generator: Adobe Illustrator 19.2.1, SVG Export Plug-In . SVG Version: 6.00 Build 0)  -->
<svg version="1.1" id="Layer_1" xmlns="http://www.w3.org/2000/svg" xmlns:xlink="http://www.w3.org/1999/xlink" x="0px" y="0px"
	 viewBox="0 0 100 100" style="enable-background:new 0 0 100 100;" xml:space="preserve">
<path d="M85.6,72.5c-0.6-2.2-1.9-4-3.2-5.8c-0.3-0.5-0.7-1-0.7-1.6c0-1.8,0-3.6-0.1-5.3c-0.1-1.4,0.1-2.8,0-4.2
	c-0.1-1.6,0.2-2.9,1.5-3.8c0,0,0.1-0.1,0.1-0.1c0.2-0.2,0.3-0.4,0.2-0.7c-0.2-0.5-0.1-1-0.1-1.5c0,0,0-0.1,0.1-0.1c0,0,0,0-0.1,0
	c0-1.5-0.1-3-0.1-4.5c0,0,0,0,0,0c0-0.3,0-0.6,0-0.9c0.1-1-0.1-1.7-1-2.2c-0.3-0.2-0.7-0.5-0.7-1c-0.1-1.1-0.1-1.1-1.2-1.4
	c-0.2-0.1-0.5-0.1-0.7-0.2c0,0-0.1,0-0.1-0.1c0,0,0.1,0,0.1,0c0.1-0.3,0.1-0.6,0.1-0.9c0-1.1,0-1.1-1.1-1.1c-0.4,0-0.6-0.1-0.6-0.6
	c0-2.2-0.1-4.5-0.2-6.7c0-0.9-0.2-1.8-0.4-2.7c-0.7-2.7-2-5-3.6-7.2c-0.9-1.2-1.9-2.4-2.9-3.5C70,15.6,69,15,68.1,14.3
	c-4.2-2.9-8.5-5.2-13.7-5.3c-0.4,0-0.6-0.2-0.6-0.6c0-1,0-2,0-3c0-0.2,0.1-0.5-0.2-0.5c-0.5,0-1-0.3-1.4,0.2c-0.1,0.7-0.1,1.4-0.1,2
	c0,5.4,0,10.7,0,16.1c0,0.3,0.1,0.6-0.1,0.9c-0.2,0.2-0.5,0.1-0.8,0.1c-1,0-2.1,0.1-3.1-0.1c-0.2-0.3-0.1-0.6-0.1-0.9
	c0-6,0.1-12.1-0.1-18.1c-0.2-0.4-0.5-0.2-0.8-0.3c-0.6-0.1-0.8,0.1-0.8,0.7c0.1,0.8,0,1.6,0,2.4c0,1,0,1.1-1,1
	c-0.8,0-1.5,0.1-2.3,0.2c-3.5,0.6-6.7,2.2-9.7,4.1c-1.5,0.9-2.9,1.9-4.1,3.1c-2.1,2.2-4,4.6-5.3,7.4c-0.9,1.9-1.6,3.8-1.6,5.9
	c-0.1,2.2-0.2,4.5-0.2,6.7c0,0.5-0.2,0.6-0.6,0.6c-0.3,0-0.5,0-0.8-0.1c-0.2,0-0.4,0-0.3,0.2c0,0.6-0.1,1.2,0.1,1.8c0,0,0.1,0,0.1,0
	c0,0-0.1,0-0.1,0.1c-0.5,0.2-1,0.3-1.5,0.5c-0.3,0.1-0.4,0.2-0.4,0.5c0.2,0.9-0.3,1.4-1,1.9c-0.5,0.3-0.8,0.8-0.7,1.4
	c0.1,0.5,0,1,0,1.4c0,0,0,0,0,0c0,1.5-0.1,3-0.1,4.5c0,0,0,0,0,0c0,0,0,0.1,0,0.1c-0.2,1.3,0,2.5,1.2,3.3c0.4,0.3,0.5,0.7,0.5,1.2
	c0.1,3.3-0.2,6.6-0.1,10c0,1.2-0.3,2.2-1,3.1c-1.6,2.2-3,4.6-3.3,7.4c-0.2,1.7,0,3.4,0.8,4.9c0.8,1.5,2.3,2.4,3.4,3.5
	c0.8,0.8,1.8,1.4,2.8,2c0.2,0.1,0.3,0.3,0.4,0.5c2.6,4.8,6.5,7.9,11.7,9.3c2.4,0.6,4.8,0.8,7.2,0.1c3.4-1.1,5.5-3.5,6.5-6.9
	c0.1-0.4,0.3-0.5,0.7-0.6c1,0,2,0.2,3,0.1c0.8,0,1.5-0.2,2.3-0.2c0.4,0,0.6,0.1,0.7,0.6c0.7,2.5,2.1,4.6,4.3,5.9
	c2.4,1.4,4.9,1.7,7.6,1.2c5.3-0.9,9.4-3.5,12.4-7.9c0.9-1.3,1.7-2.6,3.2-3.4c0.8-0.5,1.4-1.3,2.2-1.9c1-0.8,1.9-1.7,2.4-2.9
	C86.4,76.9,86.2,74.7,85.6,72.5z M41.3,88.6c-0.6,0.9-1.3,1.7-2.1,2.4c-1.5,1.4-3.8,1.3-5.3-0.1c-0.2-0.2-0.4-0.3-0.6-0.5
	c-2.2-1.4-2.7-3.4-0.4-5.3c1.3-1.1,3-1.2,4.9-1.1c0.7,0.1,1.6,0.1,2.5,0.2c0.3,0,0.5,0.1,0.7,0.3C42,85.7,42.2,87.3,41.3,88.6z
	 M52.8,84c-0.4,0.8-0.8,0.7-1.4,0.7c-0.2,0-0.3,0.1-0.4,0.3c-0.1,0.5-0.3,0.5-0.7,0.3c-0.2-0.1-0.4-0.1-0.5,0
	c-0.4,0.1-0.8,0.2-0.8-0.4c0-0.3-0.4-0.2-0.6-0.2c-0.4,0-0.9,0.2-1.1-0.5c-0.1-0.5-0.6-0.8-0.6-1.5c0.1-0.8,0.8-1.4,1-2.2
	c0.1-0.1,0.2-0.1,0.3-0.1c0.6-0.1,1.3-0.1,1.9-0.2c0,0,0,0,0,0c0,0,0.1,0,0.1,0c1.9,0.1,1.9,0.1,2.7,1.8
	C53.3,82.7,53.1,83.3,52.8,84z M68.1,89.1c-0.9,1.2-2.2,2-3.5,2.6C64.2,92,63.7,92,63.2,92c-1,0-1.9-0.4-2.6-1.1
	c-0.6-0.7-1.3-1.4-1.8-2.1c-1-1.4-0.9-2.9,0.2-4.2c0.1-0.2,0.3-0.4,0.5-0.4c1.7-0.1,3.5-0.4,5.2-0.1c1.4,0.2,2.5,0.9,3.4,2.1
	C68.8,87.2,68.8,88.2,68.1,89.1z M73.8,50.7c-0.5,1.7-0.4,1.3-1.6,0.8c-1.8-0.8-3.5-2-5.3-2.9c-2.9-1.5-6-2.4-9.1-3.2
	c-2.4-0.6-4.4,0.9-4.9,3.6c-0.7,4-1.4,7.9-2,11.9c0,0.2-0.1,0.4,0.2,0.5c2.7,1,5.1,2.4,7.4,4c1.3,0.9,2.5,1.8,3.7,2.7
	c1.8,1.4,3.7,2.5,5.8,3.5c0.1,0.1,0.3,0,0.3,0.2c0,0.1-0.2,0.1-0.3,0.1c-0.1,0-0.3,0-0.4-0.1c-4.3-1.5-8.4-3.6-12.6-5.5
	c-3.2-1.4-6.5-1.4-9.7,0c-3.7,1.6-7.2,3.4-11,4.9c-0.5,0.2-1.1,0.4-1.7,0.6c-0.1,0.1-0.3,0.1-0.4,0.1c-0.1,0-0.2,0-0.2-0.1
	c0-0.2,0.2-0.1,0.3-0.2c2.1-1,4-2.2,5.8-3.5c1.2-0.9,2.4-1.8,3.7-2.7c2.3-1.6,4.7-3.1,7.4-4c0.4-0.1,0.2-0.4,0.2-0.6
	c-0.6-3.3-1.1-6.6-1.7-9.8c-0.2-0.9-0.2-1.9-0.5-2.8c-0.8-2.4-2.7-3.4-5.1-2.7c-4.5,1.2-8.8,2.8-12.7,5.3c-0.6,0.4-1.3,0.6-1.9,1
	c-0.3,0.2-0.6,0.1-0.7-0.3c-0.3-0.8-0.5-1.7-0.6-2.6c-0.2-2-0.4-3.9,0.1-5.9c0.1-0.3,0.2-0.6,0.3-0.9c0.3-0.8,0.6-1,1.5-1
	c7.8,0.2,15.5,0.6,23.3,0.6c7.1,0,14.3-0.4,21.4-0.6c0.7,0,1.1,0.2,1.4,0.8c0.3,0.7,0.5,1.4,0.5,2.2C74.4,46.4,74.4,48.6,73.8,50.7z
	"/>
</svg>
