<?xml version="1.0" encoding="utf-8"?>
<!-- Generator: Adobe Illustrator 19.2.1, SVG Export Plug-In . SVG Version: 6.00 Build 0)  -->
<svg version="1.1" id="Layer_1" xmlns="http://www.w3.org/2000/svg" xmlns:xlink="http://www.w3.org/1999/xlink" x="0px" y="0px"
	 viewBox="0 0 100 125" style="enable-background:new 0 0 100 125;" xml:space="preserve">
<path d="M74.1,12.1c-0.3-0.2-0.5,0.2-0.3,0.4c4.9,5.4,9.7,16.9,9.7,24.2c0,7-5.9,21.8-17,21.8C58,58.5,56,48.7,56,43.8
	c0-7.7,3.5-16.8,11.8-20l-5.4-5.9c-4.8,2.1-8.1,7.2-8.1,7.2c0-6.2,4.2-11.4,4.2-11.4L51,5.2L50,4l-1,1.1l-7.4,8.4
	c0,0,4.2,5.2,4.2,11.4c0,0-3.3-5.1-8.1-7.2l-5.4,5.9c8.2,3.2,11.8,12.3,11.8,20c0,4.9-2.1,14.7-10.5,14.7c-11.1,0-17-14.8-17-21.8
	c0-7.2,4.7-18.8,9.7-24.2c0.2-0.2-0.1-0.5-0.3-0.4C13,20.1,4.5,34.6,4.7,51.1C5,76.1,25.3,96,50.1,96c25.1,0,45.3-20.4,45.3-45.4
	C95.4,34.4,86.9,20.1,74.1,12.1z"/>
</svg>
