<?xml version="1.0" encoding="utf-8"?>
<!-- Generator: Adobe Illustrator 19.2.1, SVG Export Plug-In . SVG Version: 6.00 Build 0)  -->
<svg version="1.1" id="Layer_1" xmlns:sketch="http://www.bohemiancoding.com/sketch/ns"
	 xmlns="http://www.w3.org/2000/svg" xmlns:xlink="http://www.w3.org/1999/xlink" x="0px" y="0px" viewBox="0 0 62 56.2"
	 style="enable-background:new 0 0 62 56.2;" xml:space="preserve">
<title>17 - Yoda (Solid)</title>
<desc>Created with Sketch.</desc>
<g sketch:type="MSPage">
	<g transform="translate(0.000000, -1.000000)" sketch:type="MSLayerGroup">
		<path sketch:type="MSShapeGroup" d="M60.7,11c-0.6-0.6-2.3-1-2.4-1c-0.4-0.1-0.8-0.1-1.2-0.1c-1.5,0-2.6,0.7-3.7,1.4
			c-1.4,0.9-2.9,1.4-3.9,1.7c-0.6,0.1-1.3,0.5-2.2,1.3C45.5,9,42.7,5.8,39.9,3.9c-0.8,1.3-1.6,3.9-1.9,6.2c-0.1,0.5-0.5,0.9-1,0.9
			c0,0-0.1,0-0.1,0c-0.5-0.1-0.9-0.6-0.8-1.1c0.1-1,0.8-4.7,2.2-7c-1-0.5-2-0.9-2.9-1.2C34.6,3,34,5.9,34,9c0,0.5-0.5,1-1,1h0
			c-0.6,0-1-0.5-1-1c0-1.5,0.2-5.3,1.3-7.8C32.2,1,31.4,1,31.2,1H31c-0.4,0-1.5,0-3.1,0.4c1.3,2.4,1.8,6,2,7.5
			c0.1,0.5-0.3,1-0.9,1.1c0,0-0.1,0-0.1,0c-0.5,0-0.9-0.4-1-0.9c-0.4-3-1.2-5.7-2-7.1c-0.9,0.3-1.8,0.8-2.8,1.3
			c1.5,2.3,2.5,5.5,2.7,6.4c0.1,0.5-0.2,1.1-0.7,1.2c-0.1,0-0.2,0-0.3,0c-0.4,0-0.8-0.3-1-0.7c-0.6-2.2-1.5-4.4-2.4-5.8
			c-2.6,2-5.1,5.1-6.7,10.1c-1.3-0.9-1.9-1.2-2.3-1.3c-1-0.3-2.5-0.8-3.8-1.7l-0.2-0.1c-1.2-0.8-2.2-1.5-3.7-1.5c-0.3,0-0.7,0-1,0.1
			c-0.7,0.2-2,0.8-2.5,1.2l-0.5,0.5L1.3,13l0.6,0.1c0.6,0.1,3.8,0.5,4.7,4.9l0,0.1c0.1,0.3,2.1,6,6.8,7.9c0,1.7,0.6,3.4,1.6,4.8
			c1,6.1,5.6,11.1,11.8,12.7c1,0.9,2.2,1.6,3.5,1.7c0.2,0,0.5,0,0.7,0c0.2,0,0.5,0,0.7,0c1.3-0.2,2.6-0.8,3.5-1.7
			c6.2-1.6,10.8-6.5,11.8-12.7c1-1.4,1.6-3,1.6-4.7c0-0.1,0-0.2,0-0.2c4.5-2,6.5-7.8,6.6-8.1l0-0.1c0.8-4.3,4-4.8,4.7-4.9l0.7-0.1
			l0.4-1.3L60.7,11L60.7,11z M38.7,12.7c3.5,0,6.3,2.8,6.3,6.3s-2.8,6.3-6.3,6.3s-6.3-2.8-6.3-6.3S35.3,12.7,38.7,12.7L38.7,12.7z
			 M23.5,12.7c3.5,0,6.3,2.8,6.3,6.3s-2.8,6.3-6.3,6.3s-6.3-2.8-6.3-6.3S20,12.7,23.5,12.7L23.5,12.7z M17.8,33.4
			C17.8,33.4,17.9,33.4,17.8,33.4c0.4,0.2,0.6,0.4,0.9,0.5c2.6,1.4,4.6,3.3,5.7,5.4c0.1,0.3,0.3,0.5,0.4,0.8c0,0.1,0.1,0.2,0.1,0.3
			c0.1,0.1,0.1,0.3,0.2,0.4C21.7,39.3,19.1,36.7,17.8,33.4L17.8,33.4z M26.4,34c-0.6,0-1-0.4-1-1s0.4-1,1-1h9.4c0.6,0,1,0.4,1,1
			s-0.4,1-1,1H26.4L26.4,34z M37.1,40.8c0.1-0.1,0.1-0.3,0.2-0.4c0-0.1,0.1-0.2,0.1-0.2c0.1-0.3,0.2-0.5,0.4-0.8
			c1.2-2.2,3.2-4.1,5.7-5.4c0.3-0.1,0.5-0.3,0.8-0.5c0,0,0.1,0,0.1-0.1C43.1,36.7,40.5,39.3,37.1,40.8L37.1,40.8z"/>
		<path sketch:type="MSShapeGroup" d="M25.6,14.8c-2,0-3.7,1.4-4.1,3.3h8.3C29.3,16.1,27.6,14.8,25.6,14.8"/>
		<path sketch:type="MSShapeGroup" d="M25.7,23.3c2,0,3.7-1.4,4.2-3.3h-8.3C21.9,21.9,23.6,23.3,25.7,23.3"/>
		<path sketch:type="MSShapeGroup" d="M40.9,14.7c-2,0-3.7,1.4-4.1,3.3l8.3,0C44.6,16.1,42.9,14.7,40.9,14.7"/>
		<path sketch:type="MSShapeGroup" d="M40.9,23.3c2,0,3.7-1.4,4.2-3.3l-8.3,0C37.2,21.9,38.8,23.3,40.9,23.3"/>
	</g>
</g>
</svg>
