  0
SECTION
  2
HEADER
  9
$ACADVER
  1
AC1024
  9
$ACADMAINTVER
 70
     6
  9
$DWGCODEPAGE
  3
UNDEFINED
  9
$INSBASE
 10
0.0
 20
0.0
 30
0.0
  9
$EXTMIN
 10
1.000000000000000E+20
 20
1.000000000000000E+20
 30
1.000000000000000E+20
  9
$EXTMAX
 10
-1.000000000000000E+20
 20
-1.000000000000000E+20
 30
-1.000000000000000E+20
  9
$LIMMIN
 10
0.0
 20
0.0
  9
$LIMMAX
 10
12.0
 20
9.0
  9
$ORTHOMODE
 70
     0
  9
$REGENMODE
 70
     1
  9
$FILLMODE
 70
     1
  9
$QTEXTMODE
 70
     0
  9
$MIRRTEXT
 70
     1
  9
$LTSCALE
 40
1.0
  9
$ATTMODE
 70
     1
  9
$TEXTSIZE
 40
0.2
  9
$TRACEWID
 40
0.05
  9
$TEXTSTYLE
  7
Standard
  9
$CLAYER
  8
0
  9
$CELTYPE
  6
ByLayer
  9
$CECOLOR
 62
   256
  9
$CELTSCALE
 40
1.0
  9
$DISPSILH
 70
     0
  9
$DIMSCALE
 40
1.0
  9
$DIMASZ
 40
0.18
  9
$DIMEXO
 40
0.0625
  9
$DIMDLI
 40
0.38
  9
$DIMRND
 40
0.0
  9
$DIMDLE
 40
0.0
  9
$DIMEXE
 40
0.18
  9
$DIMTP
 40
0.0
  9
$DIMTM
 40
0.0
  9
$DIMTXT
 40
0.18
  9
$DIMCEN
 40
0.09
  9
$DIMTSZ
 40
0.0
  9
$DIMTOL
 70
     0
  9
$DIMLIM
 70
     0
  9
$DIMTIH
 70
     1
  9
$DIMTOH
 70
     1
  9
$DIMSE1
 70
     0
  9
$DIMSE2
 70
     0
  9
$DIMTAD
 70
     0
  9
$DIMZIN
 70
     0
  9
$DIMBLK
  1

  9
$DIMASO
 70
     1
  9
$DIMSHO
 70
     1
  9
$DIMPOST
  1

  9
$DIMAPOST
  1

  9
$DIMALT
 70
     0
  9
$DIMALTD
 70
     2
  9
$DIMALTF
 40
25.4
  9
$DIMLFAC
 40
1.0
  9
$DIMTOFL
 70
     0
  9
$DIMTVP
 40
0.0
  9
$DIMTIX
 70
     0
  9
$DIMSOXD
 70
     0
  9
$DIMSAH
 70
     0
  9
$DIMBLK1
  1

  9
$DIMBLK2
  1

  9
$DIMSTYLE
  2
Standard
  9
$DIMCLRD
 70
     0
  9
$DIMCLRE
 70
     0
  9
$DIMCLRT
 70
     0
  9
$DIMTFAC
 40
1.0
  9
$DIMGAP
 40
0.09
  9
$DIMJUST
 70
     0
  9
$DIMSD1
 70
     0
  9
$DIMSD2
 70
     0
  9
$DIMTOLJ
 70
     1
  9
$DIMTZIN
 70
     0
  9
$DIMALTZ
 70
     0
  9
$DIMALTTZ
 70
     0
  9
$DIMUPT
 70
     0
  9
$DIMDEC
 70
     4
  9
$DIMTDEC
 70
     4
  9
$DIMALTU
 70
     2
  9
$DIMALTTD
 70
     2
  9
$DIMTXSTY
  7
Standard
  9
$DIMAUNIT
 70
     0
  9
$DIMADEC
 70
     0
  9
$DIMALTRND
 40
0.0
  9
$DIMAZIN
 70
     0
  9
$DIMDSEP
 70
    46
  9
$DIMATFIT
 70
     3
  9
$DIMFRAC
 70
     0
  9
$DIMLDRBLK
  1

  9
$DIMLUNIT
 70
     2
  9
$DIMLWD
 70
    -2
  9
$DIMLWE
 70
    -2
  9
$DIMTMOVE
 70
     0
  9
$DIMFXL
 40
1.0
  9
$DIMFXLON
 70
     0
  9
$DIMJOGANG
 40
0.7853981633974483
  9
$DIMTFILL
 70
     0
  9
$DIMTFILLCLR
 70
     0
  9
$DIMARCSYM
 70
     0
  9
$DIMLTYPE
  6

  9
$DIMLTEX1
  6

  9
$DIMLTEX2
  6

  9
$DIMTXTDIRECTION
 70
     0
  9
$LUNITS
 70
     2
  9
$LUPREC
 70
     4
  9
$SKETCHINC
 40
0.1
  9
$FILLETRAD
 40
0.5
  9
$AUNITS
 70
     0
  9
$AUPREC
 70
     0
  9
$MENU
  1
.
  9
$ELEVATION
 40
0.0
  9
$PELEVATION
 40
0.0
  9
$THICKNESS
 40
0.0
  9
$LIMCHECK
 70
     0
  9
$CHAMFERA
 40
0.5
  9
$CHAMFERB
 40
0.5
  9
$CHAMFERC
 40
1.0
  9
$CHAMFERD
 40
0.0
  9
$SKPOLY
 70
     0
  9
$TDCREATE
 40
2457525.593124988
  9
$TDUCREATE
 40
2457525.801458333
  9
$TDUPDATE
 40
2457525.593124988
  9
$TDUUPDATE
 40
2457525.801458333
  9
$TDINDWG
 40
0.0000000116
  9
$TDUSRTIMER
 40
0.0000000116
  9
$USRTIMER
 70
     1
  9
$ANGBASE
 50
0.0
  9
$ANGDIR
 70
     0
  9
$PDMODE
 70
     0
  9
$PDSIZE
 40
0.0
  9
$PLINEWID
 40
0.0
  9
$SPLFRAME
 70
     0
  9
$SPLINETYPE
 70
     6
  9
$SPLINESEGS
 70
     8
  9
$HANDSEED
  5
72
  9
$SURFTAB1
 70
     6
  9
$SURFTAB2
 70
     6
  9
$SURFTYPE
 70
     6
  9
$SURFU
 70
     6
  9
$SURFV
 70
     6
  9
$UCSBASE
  2

  9
$UCSNAME
  2

  9
$UCSORG
 10
0.0
 20
0.0
 30
0.0
  9
$UCSXDIR
 10
1.0
 20
0.0
 30
0.0
  9
$UCSYDIR
 10
0.0
 20
1.0
 30
0.0
  9
$UCSORTHOREF
  2

  9
$UCSORTHOVIEW
 70
     0
  9
$UCSORGTOP
 10
0.0
 20
0.0
 30
0.0
  9
$UCSORGBOTTOM
 10
0.0
 20
0.0
 30
0.0
  9
$UCSORGLEFT
 10
0.0
 20
0.0
 30
0.0
  9
$UCSORGRIGHT
 10
0.0
 20
0.0
 30
0.0
  9
$UCSORGFRONT
 10
0.0
 20
0.0
 30
0.0
  9
$UCSORGBACK
 10
0.0
 20
0.0
 30
0.0
  9
$PUCSBASE
  2

  9
$PUCSNAME
  2

  9
$PUCSORG
 10
0.0
 20
0.0
 30
0.0
  9
$PUCSXDIR
 10
1.0
 20
0.0
 30
0.0
  9
$PUCSYDIR
 10
0.0
 20
1.0
 30
0.0
  9
$PUCSORTHOREF
  2

  9
$PUCSORTHOVIEW
 70
     0
  9
$PUCSORGTOP
 10
0.0
 20
0.0
 30
0.0
  9
$PUCSORGBOTTOM
 10
0.0
 20
0.0
 30
0.0
  9
$PUCSORGLEFT
 10
0.0
 20
0.0
 30
0.0
  9
$PUCSORGRIGHT
 10
0.0
 20
0.0
 30
0.0
  9
$PUCSORGFRONT
 10
0.0
 20
0.0
 30
0.0
  9
$PUCSORGBACK
 10
0.0
 20
0.0
 30
0.0
  9
$USERI1
 70
     0
  9
$USERI2
 70
     0
  9
$USERI3
 70
     0
  9
$USERI4
 70
     0
  9
$USERI5
 70
     0
  9
$USERR1
 40
0.0
  9
$USERR2
 40
0.0
  9
$USERR3
 40
0.0
  9
$USERR4
 40
0.0
  9
$USERR5
 40
0.0
  9
$WORLDVIEW
 70
     1
  9
$SHADEDGE
 70
     3
  9
$SHADEDIF
 70
    70
  9
$TILEMODE
 70
     1
  9
$MAXACTVP
 70
    64
  9
$PINSBASE
 10
0.0
 20
0.0
 30
0.0
  9
$PLIMCHECK
 70
     0
  9
$PEXTMIN
 10
1.000000000000000E+20
 20
1.000000000000000E+20
 30
1.000000000000000E+20
  9
$PEXTMAX
 10
-1.000000000000000E+20
 20
-1.000000000000000E+20
 30
-1.000000000000000E+20
  9
$PLIMMIN
 10
0.0
 20
0.0
  9
$PLIMMAX
 10
12.0
 20
9.0
  9
$UNITMODE
 70
     0
  9
$VISRETAIN
 70
     1
  9
$PLINEGEN
 70
     0
  9
$PSLTSCALE
 70
     1
  9
$TREEDEPTH
 70
  3020
  9
$CMLSTYLE
  2
Standard
  9
$CMLJUST
 70
     0
  9
$CMLSCALE
 40
1.0
  9
$PROXYGRAPHICS
 70
     1
  9
$MEASUREMENT
 70
     0
  9
$CELWEIGHT
370
    -1
  9
$ENDCAPS
280
     0
  9
$JOINSTYLE
280
     0
  9
$LWDISPLAY
290
     1
  9
$INSUNITS
 70
     1
  9
$HYPERLINKBASE
  1

  9
$STYLESHEET
  1

  9
$XEDIT
290
     1
  9
$CEPSNTYPE
380
     0
  9
$PSTYLEMODE
290
     1
  9
$FINGERPRINTGUID
  2
{CEC14C5E-A660-C270-D913-AAC6E735468D}
  9
$VERSIONGUID
  2
{FAEB1C32-E019-11D5-929B-00C0DF256EC4}
  9
$EXTNAMES
290
     1
  9
$PSVPSCALE
 40
0.0
  9
$OLESTARTUP
290
     0
  9
$SORTENTS
280
   127
  9
$INDEXCTL
280
     0
  9
$HIDETEXT
280
     1
  9
$XCLIPFRAME
280
     2
  9
$HALOGAP
280
     0
  9
$OBSCOLOR
 70
   257
  9
$OBSLTYPE
280
     0
  9
$INTERSECTIONDISPLAY
280
     0
  9
$INTERSECTIONCOLOR
 70
   257
  9
$DIMASSOC
280
     2
  9
$PROJECTNAME
  1

  9
$CAMERADISPLAY
290
     0
  9
$LENSLENGTH
 40
50.0
  9
$CAMERAHEIGHT
 40
0.0
  9
$STEPSPERSEC
 40
2.0
  9
$STEPSIZE
 40
6.0
  9
$3DDWFPREC
 40
2.0
  9
$PSOLWIDTH
 40
0.25
  9
$PSOLHEIGHT
 40
4.0
  9
$LOFTANG1
 40
1.570796326794897
  9
$LOFTANG2
 40
1.570796326794897
  9
$LOFTMAG1
 40
0.0
  9
$LOFTMAG2
 40
0.0
  9
$LOFTPARAM
 70
     7
  9
$LOFTNORMALS
280
     1
  9
$LATITUDE
 40
37.795
  9
$LONGITUDE
 40
-122.394
  9
$NORTHDIRECTION
 40
0.0
  9
$TIMEZONE
 70
 -8000
  9
$LIGHTGLYPHDISPLAY
280
     1
  9
$TILEMODELIGHTSYNCH
280
     1
  9
$CMATERIAL
347
3C
  9
$SOLIDHIST
280
     1
  9
$SHOWHIST
280
     1
  9
$DWFFRAME
280
     2
  9
$DGNFRAME
280
     2
  9
$REALWORLDSCALE
290
     1
  9
$INTERFERECOLOR
 62
   256
  9
$CSHADOW
280
     0
  9
$SHADOWPLANELOCATION
 40
0.0
  0
ENDSEC
  0
SECTION
  2
CLASSES
  0
CLASS
  1
ACDBDICTIONARYWDFLT
  2
AcDbDictionaryWithDefault
  3
ObjectDBX Classes
 90
        0
 91
        4
280
     0
281
     0
  0
CLASS
  1
VISUALSTYLE
  2
AcDbVisualStyle
  3
ObjectDBX Classes
 90
     4095
 91
        4
280
     0
281
     0
  0
CLASS
  1
MATERIAL
  2
AcDbMaterial
  3
ObjectDBX Classes
 90
     1153
 91
        4
280
     0
281
     0
  0
CLASS
  1
SUN
  2
AcDbSun
  3
SCENEOE
 90
     1024
 91
        4
280
     0
281
     0
  0
ENDSEC
  0
SECTION
  2
TABLES
  0
TABLE
  2
VPORT
  5
8
330
0
100
AcDbSymbolTable
 70
     1
  0
VPORT
  5
29
330
8
100
AcDbSymbolTableRecord
100
AcDbViewportTableRecord
  2
*Active
 70
     0
 10
0.0
 20
0.0
 11
1.0
 21
1.0
 12
0.0
 22
0.0
 13
0.0
 23
0.0
 14
0.5
 24
0.5
 15
0.5
 25
0.5
 16
0.0
 26
0.0
 36
1.0
 17
50.0
 27
62.5
 37
0.0
 40
125.0
 41
0.8
 42
50.0
 43
0.0
 44
0.0
 50
0.0
 51
0.0
 71
     0
 72
   100
 73
     1
 74
     3
 75
     0
 76
     0
 77
     0
 78
     0
281
     0
 65
     1
110
0.0
120
0.0
130
0.0
111
1.0
121
0.0
131
0.0
112
0.0
122
1.0
132
0.0
 79
     0
146
0.0
 60
     3
 61
     5
292
     1
282
     1
141
0.0
142
0.0
 63
   250
361
3F
  0
ENDTAB
  0
TABLE
  2
LTYPE
  5
5
330
0
100
AcDbSymbolTable
 70
     1
  0
LTYPE
  5
14
330
5
100
AcDbSymbolTableRecord
100
AcDbLinetypeTableRecord
  2
ByBlock
 70
     0
  3

 72
    65
 73
     0
 40
0.0
  0
LTYPE
  5
15
330
5
100
AcDbSymbolTableRecord
100
AcDbLinetypeTableRecord
  2
ByLayer
 70
     0
  3

 72
    65
 73
     0
 40
0.0
  0
LTYPE
  5
16
330
5
100
AcDbSymbolTableRecord
100
AcDbLinetypeTableRecord
  2
Continuous
 70
     0
  3
Solid line
 72
    65
 73
     0
 40
0.0
  0
ENDTAB
  0
TABLE
  2
LAYER
  5
2
330
0
100
AcDbSymbolTable
 70
     2
  0
LAYER
  5
10
330
2
100
AcDbSymbolTableRecord
100
AcDbLayerTableRecord
  2
0
 70
     0
 62
     7
  6
Continuous
370
    -3
390
F
347
3E
  0
LAYER
  5
40
330
2
100
AcDbSymbolTableRecord
100
AcDbLayerTableRecord
  2
Layer 1
 70
     0
 62
     7
  6
Continuous
370
    -3
390
F
347
3E
  0
ENDTAB
  0
TABLE
  2
STYLE
  5
3
330
0
100
AcDbSymbolTable
 70
     1
  0
STYLE
  5
11
330
3
100
AcDbSymbolTableRecord
100
AcDbTextStyleTableRecord
  2
Standard
 70
     0
 40
0.0
 41
1.0
 50
0.0
 71
     0
 42
0.2
  3
txt
  4

  0
ENDTAB
  0
TABLE
  2
VIEW
  5
6
330
0
100
AcDbSymbolTable
 70
     0
  0
ENDTAB
  0
TABLE
  2
UCS
  5
7
330
0
100
AcDbSymbolTable
 70
     0
  0
ENDTAB
  0
TABLE
  2
APPID
  5
9
330
0
100
AcDbSymbolTable
 70
     1
  0
APPID
  5
12
330
9
100
AcDbSymbolTableRecord
100
AcDbRegAppTableRecord
  2
ACAD
 70
     0
  0
ENDTAB
  0
TABLE
  2
DIMSTYLE
  5
A
330
0
100
AcDbSymbolTable
 70
     1
100
AcDbDimStyleTable
  0
DIMSTYLE
105
27
330
A
100
AcDbSymbolTableRecord
100
AcDbDimStyleTableRecord
  2
Standard
 70
     0
178
     0
340
11
  0
ENDTAB
  0
TABLE
  2
BLOCK_RECORD
  5
1
330
0
100
AcDbSymbolTable
 70
     1
  0
BLOCK_RECORD
  5
1F
330
1
100
AcDbSymbolTableRecord
100
AcDbBlockTableRecord
  2
*Model_Space
340
22
 70
     0
280
     1
281
     0
  0
BLOCK_RECORD
  5
1B
330
1
100
AcDbSymbolTableRecord
100
AcDbBlockTableRecord
  2
*Paper_Space
340
1E
 70
     0
280
     1
281
     0
  0
BLOCK_RECORD
  5
23
330
1
100
AcDbSymbolTableRecord
100
AcDbBlockTableRecord
  2
*Paper_Space0
340
26
 70
     0
280
     1
281
     0
  0
ENDTAB
  0
ENDSEC
  0
SECTION
  2
BLOCKS
  0
BLOCK
  5
20
330
1F
100
AcDbEntity
  8
0
100
AcDbBlockBegin
  2
*Model_Space
 70
     0
 10
0.0
 20
0.0
 30
0.0
  3
*Model_Space
  1

  0
ENDBLK
  5
21
330
1F
100
AcDbEntity
  8
0
100
AcDbBlockEnd
  0
BLOCK
  5
1C
330
1B
100
AcDbEntity
 67
     1
  8
0
100
AcDbBlockBegin
  2
*Paper_Space
 70
     0
 10
0.0
 20
0.0
 30
0.0
  3
*Paper_Space
  1

  0
ENDBLK
  5
1D
330
1B
100
AcDbEntity
 67
     1
  8
0
100
AcDbBlockEnd
  0
BLOCK
  5
24
330
23
100
AcDbEntity
  8
0
100
AcDbBlockBegin
  2
*Paper_Space0
 70
     0
 10
0.0
 20
0.0
 30
0.0
  3
*Paper_Space0
  1

  0
ENDBLK
  5
25
330
23
100
AcDbEntity
  8
0
100
AcDbBlockEnd
  0
ENDSEC
  0
SECTION
  2
ENTITIES
  0
SPLINE
  5
41
330
1F
100
AcDbEntity
  8
Layer 1
370
     0
100
AcDbSpline
210
0.0
220
0.0
230
1.0
 70
    11
 71
     3
 72
   209
 73
   205
 74
     0
 42
0.0000000001
 43
0.0000000001
 12
1.0
 22
0.0
 32
0.0
 13
1.0
 23
0.0
 33
0.0
 40
0.0
 40
0.0
 40
0.0
 40
0.0
 40
1.0
 40
1.0
 40
1.0
 40
2.0
 40
2.0
 40
2.0
 40
3.0
 40
3.0
 40
3.0
 40
4.0
 40
4.0
 40
4.0
 40
5.0
 40
5.0
 40
5.0
 40
6.0
 40
6.0
 40
6.0
 40
7.0
 40
7.0
 40
7.0
 40
8.0
 40
8.0
 40
8.0
 40
9.0
 40
9.0
 40
9.0
 40
10.0
 40
10.0
 40
10.0
 40
11.0
 40
11.0
 40
11.0
 40
12.0
 40
12.0
 40
12.0
 40
13.0
 40
13.0
 40
13.0
 40
14.0
 40
14.0
 40
14.0
 40
15.0
 40
15.0
 40
15.0
 40
16.0
 40
16.0
 40
16.0
 40
17.0
 40
17.0
 40
17.0
 40
18.0
 40
18.0
 40
18.0
 40
19.0
 40
19.0
 40
19.0
 40
20.0
 40
20.0
 40
20.0
 40
21.0
 40
21.0
 40
21.0
 40
22.0
 40
22.0
 40
22.0
 40
23.0
 40
23.0
 40
23.0
 40
24.0
 40
24.0
 40
24.0
 40
25.0
 40
25.0
 40
25.0
 40
26.0
 40
26.0
 40
26.0
 40
27.0
 40
27.0
 40
27.0
 40
28.0
 40
28.0
 40
28.0
 40
29.0
 40
29.0
 40
29.0
 40
30.0
 40
30.0
 40
30.0
 40
31.0
 40
31.0
 40
31.0
 40
32.0
 40
32.0
 40
32.0
 40
33.0
 40
33.0
 40
33.0
 40
34.0
 40
34.0
 40
34.0
 40
35.0
 40
35.0
 40
35.0
 40
36.0
 40
36.0
 40
36.0
 40
37.0
 40
37.0
 40
37.0
 40
38.0
 40
38.0
 40
38.0
 40
39.0
 40
39.0
 40
39.0
 40
40.0
 40
40.0
 40
40.0
 40
41.0
 40
41.0
 40
41.0
 40
42.0
 40
42.0
 40
42.0
 40
43.0
 40
43.0
 40
43.0
 40
44.0
 40
44.0
 40
44.0
 40
45.0
 40
45.0
 40
45.0
 40
46.0
 40
46.0
 40
46.0
 40
47.0
 40
47.0
 40
47.0
 40
48.0
 40
48.0
 40
48.0
 40
49.0
 40
49.0
 40
49.0
 40
50.0
 40
50.0
 40
50.0
 40
51.0
 40
51.0
 40
51.0
 40
52.0
 40
52.0
 40
52.0
 40
53.0
 40
53.0
 40
53.0
 40
54.0
 40
54.0
 40
54.0
 40
55.0
 40
55.0
 40
55.0
 40
56.0
 40
56.0
 40
56.0
 40
57.0
 40
57.0
 40
57.0
 40
58.0
 40
58.0
 40
58.0
 40
59.0
 40
59.0
 40
59.0
 40
60.0
 40
60.0
 40
60.0
 40
61.0
 40
61.0
 40
61.0
 40
62.0
 40
62.0
 40
62.0
 40
63.0
 40
63.0
 40
63.0
 40
64.0
 40
64.0
 40
64.0
 40
65.0
 40
65.0
 40
65.0
 40
66.0
 40
66.0
 40
66.0
 40
67.0
 40
67.0
 40
67.0
 40
68.0
 40
68.0
 40
68.0
 40
68.0
 10
91.74035949756399
 20
95.10699844360352
 30
0.0
 10
91.74035949756399
 20
95.10699844360352
 30
0.0
 10
80.69336242725149
 20
104.1569976806641
 30
0.0
 10
80.69336242725149
 20
104.1569976806641
 30
0.0
 10
80.67236633350149
 20
104.1739978790283
 30
0.0
 10
80.64737243701711
 20
104.1789970397949
 30
0.0
 10
80.62536926318899
 20
104.1929969787598
 30
0.0
 10
80.59335632373586
 20
104.213996887207
 30
0.0
 10
80.56238098193899
 20
104.2299976348877
 30
0.0
 10
80.52637023975149
 20
104.2449970245361
 30
0.0
 10
80.45938415576711
 20
104.2749977111816
 30
0.0
 10
80.39236755420461
 20
104.2919979095459
 30
0.0
 10
80.32138366748586
 20
104.2999973297119
 30
0.0
 10
80.29938049365774
 20
104.3029975891113
 30
0.0
 10
80.28039856006399
 20
104.3169975280762
 30
0.0
 10
80.25839538623586
 20
104.3169975280762
 30
0.0
 10
80.25839538623586
 20
104.3169975280762
 30
0.0
 10
39.12539978076711
 20
105.1159973144531
 30
0.0
 10
39.12539978076711
 20
105.1159973144531
 30
0.0
 10
38.83740539600149
 20
105.1049976348877
 30
0.0
 10
38.53639526416555
 20
104.9259967803955
 30
0.0
 10
38.43840332080617
 20
104.6309967041016
 30
0.0
 10
38.40539856006399
 20
104.5309963226318
 30
0.0
 10
38.36439819385305
 20
104.1819972991943
 30
0.0
 10
38.31540222217336
 20
103.637996673584
 30
0.0
 10
38.31540222217336
 20
103.637996673584
 30
0.0
 10
34.53639526416555
 20
103.5389957427979
 30
0.0
 10
34.53639526416555
 20
103.5389957427979
 30
0.0
 10
34.53639526416555
 20
103.5389957427979
 30
0.0
 10
32.94839782764211
 20
105.8639965057373
 30
0.0
 10
32.94839782764211
 20
105.8639965057373
 30
0.0
 10
32.83339233447805
 20
106.0329971313477
 30
0.0
 10
32.65039367725149
 20
106.1439971923828
 30
0.0
 10
32.44839782764211
 20
106.1679973602295
 30
0.0
 10
32.24640197803274
 20
106.1919975280762
 30
0.0
 10
32.04239196826711
 20
106.1279964447021
 30
0.0
 10
31.88939209033742
 20
105.9909973144531
 30
0.0
 10
31.88939209033742
 20
105.9909973144531
 30
0.0
 10
30.95439453174367
 20
105.1509971618652
 30
0.0
 10
30.95439453174367
 20
105.1509971618652
 30
0.0
 10
30.95439453174367
 20
105.1509971618652
 30
0.0
 10
29.21840210010305
 20
106.8299980163574
 30
0.0
 10
29.21840210010305
 20
106.8299980163574
 30
0.0
 10
29.07440490772024
 20
106.9699974060059
 30
0.0
 10
28.87840576221242
 20
107.0379981994629
 30
0.0
 10
28.68040771533742
 20
107.0279979705811
 30
0.0
 10
28.4814025883843
 20
107.0149974822998
 30
0.0
 10
28.29541320850149
 20
106.9189987182617
 30
0.0
 10
28.17140502979055
 20
106.7619972229004
 30
0.0
 10
28.17140502979055
 20
106.7619972229004
 30
0.0
 10
25.47040100147024
 20
103.3659973144531
 30
0.0
 10
25.47040100147024
 20
103.3659973144531
 30
0.0
 10
25.47040100147024
 20
103.3659973144531
 30
0.0
 10
18.81340332080617
 20
99.84199905395508
 30
0.0
 10
18.81340332080617
 20
99.84199905395508
 30
0.0
 10
18.50639648486867
 20
99.68000030517578
 30
0.0
 10
18.34640808154836
 20
99.37799835205078
 30
0.0
 10
18.45640869189992
 20
99.04999923706055
 30
0.0
 10
18.48741455127492
 20
98.88800048828125
 30
0.0
 10
18.56540222217336
 20
98.10900115966797
 30
0.0
 10
18.67140502979055
 20
96.96500015258789
 30
0.0
 10
18.67140502979055
 20
96.96500015258789
 30
0.0
 10
9.068408203618674
 20
91.30899810791016
 30
0.0
 10
9.068408203618674
 20
91.30899810791016
 30
0.0
 10
8.754412842290549
 20
91.12399673461914
 30
0.0
 10
8.631411743657736
 20
90.73099899291992
 30
0.0
 10
8.785403442876486
 20
90.39999771118164
 30
0.0
 10
8.785403442876486
 20
90.39999771118164
 30
0.0
 10
11.3144104008843
 20
84.94299697875977
 30
0.0
 10
11.3144104008843
 20
84.94299697875977
 30
0.0
 10
11.43040771533742
 20
84.69199752807617
 30
0.0
 10
11.68141479541555
 20
84.53199768066406
 30
0.0
 10
11.95741577197805
 20
84.53199768066406
 30
0.0
 10
11.96242065479055
 20
84.53199768066406
 30
0.0
 10
11.96841735889211
 20
84.53199768066406
 30
0.0
 10
11.97342224170461
 20
84.53199768066406
 30
0.0
 10
11.97342224170461
 20
84.53199768066406
 30
0.0
 10
19.71242065479055
 20
84.69999694824219
 30
0.0
 10
19.71242065479055
 20
84.69999694824219
 30
0.0
 10
19.73242492725149
 20
84.4589958190918
 30
0.0
 10
19.75241394092336
 20
84.21599578857422
 30
0.0
 10
19.77142639209524
 20
83.9839973449707
 30
0.0
 10
19.80043335010305
 20
83.61599731445312
 30
0.0
 10
20.10843200732961
 20
83.3329963684082
 30
0.0
 10
20.47742004443899
 20
83.3329963684082
 30
0.0
 10
20.47742004443899
 20
83.3329963684082
 30
0.0
 10
30.45941467334524
 20
83.3329963684082
 30
0.0
 10
30.45941467334524
 20
83.3329963684082
 30
0.0
 10
30.55140991260305
 20
83.3329963684082
 30
0.0
 10
30.64142150928274
 20
83.35099792480469
 30
0.0
 10
30.72641296436086
 20
83.38499450683594
 30
0.0
 10
30.72641296436086
 20
83.38499450683594
 30
0.0
 10
35.28341980029836
 20
85.23299407958984
 30
0.0
 10
35.28341980029836
 20
85.23299407958984
 30
0.0
 10
35.28341980029836
 20
85.23299407958984
 30
0.0
 10
46.09942932178274
 20
77.47599411010742
 30
0.0
 10
46.09942932178274
 20
77.47599411010742
 30
0.0
 10
46.09942932178274
 20
77.47599411010742
 30
0.0
 10
49.87543029834524
 20
66.02599334716797
 30
0.0
 10
49.87543029834524
 20
66.02599334716797
 30
0.0
 10
49.87543029834524
 20
66.02599334716797
 30
0.0
 10
45.89044494678274
 20
62.49799346923828
 30
0.0
 10
45.89044494678274
 20
62.49799346923828
 30
0.0
 10
45.66943664600149
 20
62.30299377441406
 30
0.0
 10
45.59344787647024
 20
61.99199676513672
 30
0.0
 10
45.69745178272024
 20
61.71699523925781
 30
0.0
 10
45.80145568897024
 20
61.44199371337891
 30
0.0
 10
46.06546325732961
 20
61.25899505615234
 30
0.0
 10
46.36044616748586
 20
61.25899505615234
 30
0.0
 10
46.36044616748586
 20
61.25899505615234
 30
0.0
 10
54.55343933154836
 20
61.25899505615234
 30
0.0
 10
54.55343933154836
 20
61.25899505615234
 30
0.0
 10
54.58945007373586
 20
61.25899505615234
 30
0.0
 10
54.62543029834524
 20
61.26199340820312
 30
0.0
 10
54.66144104053274
 20
61.26799774169922
 30
0.0
 10
54.68445129443899
 20
61.27199554443359
 30
0.0
 10
54.70242614795461
 20
61.28900146484375
 30
0.0
 10
54.72442932178274
 20
61.29399871826172
 30
0.0
 10
54.79043884326711
 20
61.31099700927734
 30
0.0
 10
54.85144348193899
 20
61.33399963378906
 30
0.0
 10
54.90942688037649
 20
61.36899566650391
 30
0.0
 10
54.94043273975149
 20
61.38799285888672
 30
0.0
 10
54.96942443897024
 20
61.40499877929688
 30
0.0
 10
54.99743957568899
 20
61.42799377441406
 30
0.0
 10
55.05343933154836
 20
61.47399139404297
 30
0.0
 10
55.09744567920461
 20
61.52899169921875
 30
0.0
 10
55.13745422412649
 20
61.58899688720703
 30
0.0
 10
55.15045471240774
 20
61.60899353027344
 30
0.0
 10
55.17044372607961
 20
61.61899566650391
 30
0.0
 10
55.18146057178274
 20
61.63999938964844
 30
0.0
 10
55.18146057178274
 20
61.63999938964844
 30
0.0
 10
58.64245910693899
 20
68.2750015258789
 30
0.0
 10
58.64245910693899
 20
68.2750015258789
 30
0.0
 10
58.69546814014211
 20
68.37699890136719
 30
0.0
 10
58.72345275928274
 20
68.48899841308594
 30
0.0
 10
58.72345275928274
 20
68.6030044555664
 30
0.0
 10
58.72345275928274
 20
68.6030044555664
 30
0.0
 10
58.72345275928274
 20
77.02800369262695
 30
0.0
 10
58.72345275928274
 20
77.02800369262695
 30
0.0
 10
63.08844299365774
 20
76.9690055847168
 30
0.0
 10
68.01745910693899
 20
76.91400527954102
 30
0.0
 10
72.39746398975149
 20
76.88700485229492
 30
0.0
 10
72.39746398975149
 20
76.88700485229492
 30
0.0
 10
74.93646545459524
 20
66.42800903320312
 30
0.0
 10
74.93646545459524
 20
66.42800903320312
 30
0.0
 10
74.93646545459524
 20
66.42800903320312
 30
0.0
 10
70.95746154834524
 20
62.47100830078125
 30
0.0
 10
70.95746154834524
 20
62.47100830078125
 30
0.0
 10
70.75445861865774
 20
62.26800537109375
 30
0.0
 10
70.69244689990774
 20
61.96300506591797
 30
0.0
 10
70.80246276904836
 20
61.69800567626953
 30
0.0
 10
70.91147155811086
 20
61.43300628662109
 30
0.0
 10
71.17047424365774
 20
61.26000213623047
 30
0.0
 10
71.45746154834524
 20
61.26000213623047
 30
0.0
 10
71.45746154834524
 20
61.26000213623047
 30
0.0
 10
79.57846374561086
 20
61.26000213623047
 30
0.0
 10
79.57846374561086
 20
61.26000213623047
 30
0.0
 10
79.60647888232961
 20
61.26000213623047
 30
0.0
 10
79.63547058154836
 20
61.26200103759766
 30
0.0
 10
79.66247863818899
 20
61.26499938964844
 30
0.0
 10
79.68747253467336
 20
61.26799774169922
 30
0.0
 10
79.70846862842336
 20
61.28600311279297
 30
0.0
 10
79.73248596240774
 20
61.29100036621094
 30
0.0
 10
79.80047912647024
 20
61.30699920654297
 30
0.0
 10
79.86447448779836
 20
61.3280029296875
 30
0.0
 10
79.92349548389211
 20
61.36199951171875
 30
0.0
 10
79.95450134326711
 20
61.38099670410156
 30
0.0
 10
79.98349304248586
 20
61.39900207519531
 30
0.0
 10
80.01150817920461
 20
61.4219970703125
 30
0.0
 10
80.06851501514211
 20
61.46699523925781
 30
0.0
 10
80.11450500537649
 20
61.51899719238281
 30
0.0
 10
80.15451355029836
 20
61.57899475097656
 30
0.0
 10
80.16852111865774
 20
61.59799194335938
 30
0.0
 10
80.18951721240774
 20
61.60799407958984
 30
0.0
 10
80.20050354053274
 20
61.62899780273438
 30
0.0
 10
80.20050354053274
 20
61.62899780273438
 30
0.0
 10
83.85251159717336
 20
68.31700134277344
 30
0.0
 10
83.85251159717336
 20
68.31700134277344
 30
0.0
 10
83.88852233936086
 20
68.38400268554688
 30
0.0
 10
83.91452331592336
 20
68.45800018310547
 30
0.0
 10
83.92752380420461
 20
68.53300476074219
 30
0.0
 10
84.89453430225149
 20
73.96400451660156
 30
0.0
 10
85.32052917529836
 20
76.35800552368164
 30
0.0
 10
85.39352722217336
 20
77.4540023803711
 30
0.0
 10
85.39651794482961
 20
77.46000289916992
 30
0.0
 10
85.40051574756399
 20
77.46600341796875
 30
0.0
 10
85.40353698779836
 20
77.47300338745117
 30
0.0
 10
85.67352600147024
 20
78.01300430297852
 30
0.0
 10
88.66253967334524
 20
87.46900177001953
 30
0.0
 10
89.57254333545461
 20
90.35400390625
 30
0.0
 10
89.63653869678274
 20
90.55800247192383
 30
0.0
 10
89.60553283740774
 20
90.78000259399414
 30
0.0
 10
89.48755188037649
 20
90.95800399780273
 30
0.0
 10
89.48755188037649
 20
90.95800399780273
 30
0.0
 10
88.53753967334524
 20
92.3910026550293
 30
0.0
 10
88.53753967334524
 20
92.3910026550293
 30
0.0
 10
88.53753967334524
 20
92.3910026550293
 30
0.0
 10
91.60855407764211
 20
93.9280014038086
 30
0.0
 10
91.60855407764211
 20
93.9280014038086
 30
0.0
 10
91.82355041553274
 20
94.03499984741211
 30
0.0
 10
91.96853942920461
 20
94.24400329589844
 30
0.0
 10
91.99554748584524
 20
94.48300170898438
 30
0.0
 10
92.02255554248586
 20
94.72200012207031
 30
0.0
 10
91.92535705615774
 20
94.95500183105469
 30
0.0
 10
91.74035949756399
 20
95.10699844360352
 30
0.0
  0
POLYLINE
  5
42
330
1F
100
AcDbEntity
  8
Layer 1
370
     0
100
AcDb2dPolyline
 66
     1
 10
0.0
 20
0.0
 30
0.0
  0
VERTEX
  5
43
330
42
100
AcDbEntity
  8
Layer 1
370
     0
100
AcDbVertex
100
AcDb2dVertex
 10
35.34634704639211
 20
96.39599990844727
 30
0.0
  0
VERTEX
  5
44
330
42
100
AcDbEntity
  8
Layer 1
370
     0
100
AcDbVertex
100
AcDb2dVertex
 10
38.08034057666555
 20
95.92100143432617
 30
0.0
  0
VERTEX
  5
45
330
42
100
AcDbEntity
  8
Layer 1
370
     0
100
AcDbVertex
100
AcDb2dVertex
 10
45.02133483936086
 20
79.99200057983398
 30
0.0
  0
VERTEX
  5
46
330
42
100
AcDbEntity
  8
Layer 1
370
     0
100
AcDbVertex
100
AcDb2dVertex
 10
36.0673400883843
 20
86.41200256347656
 30
0.0
  0
VERTEX
  5
47
330
42
100
AcDbEntity
  8
Layer 1
370
     0
100
AcDbVertex
100
AcDb2dVertex
 10
35.34634704639211
 20
96.39599990844727
 30
0.0
  0
SEQEND
  5
48
330
42
100
AcDbEntity
  8
Layer 1
370
     0
  0
SPLINE
  5
49
330
1F
100
AcDbEntity
  8
Layer 1
370
     0
100
AcDbSpline
210
0.0
220
0.0
230
1.0
 70
    11
 71
     3
 72
    23
 73
    19
 74
     0
 42
0.0000000001
 43
0.0000000001
 12
1.0
 22
0.0
 32
0.0
 13
1.0
 23
0.0
 33
0.0
 40
0.0
 40
0.0
 40
0.0
 40
0.0
 40
1.0
 40
1.0
 40
1.0
 40
2.0
 40
2.0
 40
2.0
 40
3.0
 40
3.0
 40
3.0
 40
4.0
 40
4.0
 40
4.0
 40
5.0
 40
5.0
 40
5.0
 40
6.0
 40
6.0
 40
6.0
 40
6.0
 10
38.20534057666555
 20
102.2180004119873
 30
0.0
 10
38.12333984424367
 20
101.0380020141602
 30
0.0
 10
38.0253479008843
 20
99.41699981689453
 30
0.0
 10
37.91434021045461
 20
97.38899993896484
 30
0.0
 10
37.91434021045461
 20
97.38899993896484
 30
0.0
 10
35.3953430180718
 20
97.82600021362305
 30
0.0
 10
35.3953430180718
 20
97.82600021362305
 30
0.0
 10
35.3953430180718
 20
97.82600021362305
 30
0.0
 10
36.18634338428274
 20
100.677001953125
 30
0.0
 10
36.18634338428274
 20
100.677001953125
 30
0.0
 10
36.24234314014211
 20
100.878002166748
 30
0.0
 10
36.20733947803274
 20
101.0940017700195
 30
0.0
 10
36.0883361821343
 20
101.2660026550293
 30
0.0
 10
36.0883361821343
 20
101.2660026550293
 30
0.0
 10
35.48633117725149
 20
102.1470031738281
 30
0.0
 10
35.48633117725149
 20
102.1470031738281
 30
0.0
 10
35.48633117725149
 20
102.1470031738281
 30
0.0
 10
38.20534057666555
 20
102.2180004119873
 30
0.0
 10
38.20534057666555
 20
102.2180004119873
 30
0.0
  0
POLYLINE
  5
4A
330
1F
100
AcDbEntity
  8
Layer 1
370
     0
100
AcDb2dPolyline
 66
     1
 10
0.0
 20
0.0
 30
0.0
  0
VERTEX
  5
4B
330
4A
100
AcDbEntity
  8
Layer 1
370
     0
100
AcDbVertex
100
AcDb2dVertex
 10
32.23434753467336
 20
104.3969993591309
 30
0.0
  0
VERTEX
  5
4C
330
4A
100
AcDbEntity
  8
Layer 1
370
     0
100
AcDbVertex
100
AcDb2dVertex
 10
34.73334045459524
 20
100.7379989624023
 30
0.0
  0
VERTEX
  5
4D
330
4A
100
AcDbEntity
  8
Layer 1
370
     0
100
AcDbVertex
100
AcDb2dVertex
 10
34.05334777881399
 20
98.28899765014648
 30
0.0
  0
VERTEX
  5
4E
330
4A
100
AcDbEntity
  8
Layer 1
370
     0
100
AcDbVertex
100
AcDb2dVertex
 10
29.09035034229055
 20
101.5709991455078
 30
0.0
  0
VERTEX
  5
4F
330
4A
100
AcDbEntity
  8
Layer 1
370
     0
100
AcDbVertex
100
AcDb2dVertex
 10
32.23434753467336
 20
104.3969993591309
 30
0.0
  0
SEQEND
  5
50
330
4A
100
AcDbEntity
  8
Layer 1
370
     0
  0
POLYLINE
  5
51
330
1F
100
AcDbEntity
  8
Layer 1
370
     0
100
AcDb2dPolyline
 66
     1
 10
0.0
 20
0.0
 30
0.0
  0
VERTEX
  5
52
330
51
100
AcDbEntity
  8
Layer 1
370
     0
100
AcDbVertex
100
AcDb2dVertex
 10
28.79535217334524
 20
105.2700004577637
 30
0.0
  0
VERTEX
  5
53
330
51
100
AcDbEntity
  8
Layer 1
370
     0
100
AcDbVertex
100
AcDb2dVertex
 10
29.89935607959524
 20
104.2030010223389
 30
0.0
  0
VERTEX
  5
54
330
51
100
AcDbEntity
  8
Layer 1
370
     0
100
AcDbVertex
100
AcDb2dVertex
 10
27.87135620166555
 20
102.3790016174316
 30
0.0
  0
VERTEX
  5
55
330
51
100
AcDbEntity
  8
Layer 1
370
     0
100
AcDbVertex
100
AcDb2dVertex
 10
26.97136230518117
 20
102.9750022888184
 30
0.0
  0
VERTEX
  5
56
330
51
100
AcDbEntity
  8
Layer 1
370
     0
100
AcDbVertex
100
AcDb2dVertex
 10
28.79535217334524
 20
105.2700004577637
 30
0.0
  0
SEQEND
  5
57
330
51
100
AcDbEntity
  8
Layer 1
370
     0
  0
SPLINE
  5
58
330
1F
100
AcDbEntity
  8
Layer 1
370
     0
100
AcDbSpline
210
0.0
220
0.0
230
1.0
 70
    11
 71
     3
 72
    17
 73
    13
 74
     0
 42
0.0000000001
 43
0.0000000001
 12
1.0
 22
0.0
 32
0.0
 13
1.0
 23
0.0
 33
0.0
 40
0.0
 40
0.0
 40
0.0
 40
0.0
 40
1.0
 40
1.0
 40
1.0
 40
2.0
 40
2.0
 40
2.0
 40
3.0
 40
3.0
 40
3.0
 40
4.0
 40
4.0
 40
4.0
 40
4.0
 10
12.4053527836968
 20
85.95899963378906
 30
0.0
 10
12.4053527836968
 20
85.95899963378906
 30
0.0
 10
10.34135742236867
 20
90.41299819946289
 30
0.0
 10
10.34135742236867
 20
90.41299819946289
 30
0.0
 10
10.34135742236867
 20
90.41299819946289
 30
0.0
 10
18.81235046436086
 20
95.40199661254883
 30
0.0
 10
18.81235046436086
 20
95.40199661254883
 30
0.0
 10
19.04135437061086
 20
92.8069953918457
 30
0.0
 10
19.33835144092336
 20
89.25299835205078
 30
0.0
 10
19.59735412647024
 20
86.11499786376953
 30
0.0
 10
19.59735412647024
 20
86.11499786376953
 30
0.0
 10
12.4053527836968
 20
85.95899963378906
 30
0.0
 10
12.4053527836968
 20
85.95899963378906
 30
0.0
  0
SPLINE
  5
59
330
1F
100
AcDbEntity
  8
Layer 1
370
     0
100
AcDbSpline
210
0.0
220
0.0
230
1.0
 70
    11
 71
     3
 72
    29
 73
    25
 74
     0
 42
0.0000000001
 43
0.0000000001
 12
1.0
 22
0.0
 32
0.0
 13
1.0
 23
0.0
 33
0.0
 40
0.0
 40
0.0
 40
0.0
 40
0.0
 40
1.0
 40
1.0
 40
1.0
 40
2.0
 40
2.0
 40
2.0
 40
3.0
 40
3.0
 40
3.0
 40
4.0
 40
4.0
 40
4.0
 40
5.0
 40
5.0
 40
5.0
 40
6.0
 40
6.0
 40
6.0
 40
7.0
 40
7.0
 40
7.0
 40
8.0
 40
8.0
 40
8.0
 40
8.0
 10
30.32034606982961
 20
84.75
 30
0.0
 10
30.32034606982961
 20
84.75
 30
0.0
 10
21.13034362842336
 20
84.75
 30
0.0
 10
21.13034362842336
 20
84.75
 30
0.0
 10
20.50134582568899
 20
92.47999954223633
 30
0.0
 10
20.09134216357961
 20
97.19400024414062
 30
0.0
 10
19.90634460498586
 20
98.81800079345703
 30
0.0
 10
19.90634460498586
 20
98.81800079345703
 30
0.0
 10
25.89334411670461
 20
101.9869995117188
 30
0.0
 10
25.89334411670461
 20
101.9869995117188
 30
0.0
 10
25.89334411670461
 20
101.9869995117188
 30
0.0
 10
27.62333984424367
 20
100.8429985046387
 30
0.0
 10
27.62333984424367
 20
100.8429985046387
 30
0.0
 10
27.62533874561086
 20
100.8419990539551
 30
0.0
 10
27.62733764697805
 20
100.8400001525879
 30
0.0
 10
27.63034362842336
 20
100.8379974365234
 30
0.0
 10
27.63034362842336
 20
100.8379974365234
 30
0.0
 10
33.90333862354055
 20
96.68899536132812
 30
0.0
 10
33.90333862354055
 20
96.68899536132812
 30
0.0
 10
33.90333862354055
 20
96.68899536132812
 30
0.0
 10
34.63933105518117
 20
86.50299453735352
 30
0.0
 10
34.63933105518117
 20
86.50299453735352
 30
0.0
 10
34.63933105518117
 20
86.50299453735352
 30
0.0
 10
30.32034606982961
 20
84.75
 30
0.0
 10
30.32034606982961
 20
84.75
 30
0.0
  0
POLYLINE
  5
5A
330
1F
100
AcDbEntity
  8
Layer 1
370
     0
100
AcDb2dPolyline
 66
     1
 10
0.0
 20
0.0
 30
0.0
  0
VERTEX
  5
5B
330
5A
100
AcDbEntity
  8
Layer 1
370
     0
100
AcDbVertex
100
AcDb2dVertex
 10
50.66534729053274
 20
64.83300018310547
 30
0.0
  0
VERTEX
  5
5C
330
5A
100
AcDbEntity
  8
Layer 1
370
     0
100
AcDbVertex
100
AcDb2dVertex
 10
52.83435363818899
 20
62.67600250244141
 30
0.0
  0
VERTEX
  5
5D
330
5A
100
AcDbEntity
  8
Layer 1
370
     0
100
AcDbVertex
100
AcDb2dVertex
 10
48.22934265186086
 20
62.67600250244141
 30
0.0
  0
VERTEX
  5
5E
330
5A
100
AcDbEntity
  8
Layer 1
370
     0
100
AcDbVertex
100
AcDb2dVertex
 10
50.66534729053274
 20
64.83300018310547
 30
0.0
  0
SEQEND
  5
5F
330
5A
100
AcDbEntity
  8
Layer 1
370
     0
  0
SPLINE
  5
60
330
1F
100
AcDbEntity
  8
Layer 1
370
     0
100
AcDbSpline
210
0.0
220
0.0
230
1.0
 70
    11
 71
     3
 72
    23
 73
    19
 74
     0
 42
0.0000000001
 43
0.0000000001
 12
1.0
 22
0.0
 32
0.0
 13
1.0
 23
0.0
 33
0.0
 40
0.0
 40
0.0
 40
0.0
 40
0.0
 40
1.0
 40
1.0
 40
1.0
 40
2.0
 40
2.0
 40
2.0
 40
3.0
 40
3.0
 40
3.0
 40
4.0
 40
4.0
 40
4.0
 40
5.0
 40
5.0
 40
5.0
 40
6.0
 40
6.0
 40
6.0
 40
6.0
 10
57.30435485889211
 20
68.7750015258789
 30
0.0
 10
57.30435485889211
 20
68.7750015258789
 30
0.0
 10
54.36935730029836
 20
63.14800262451172
 30
0.0
 10
54.36935730029836
 20
63.14800262451172
 30
0.0
 10
54.36935730029836
 20
63.14800262451172
 30
0.0
 10
51.31235046436086
 20
66.18700408935547
 30
0.0
 10
51.31235046436086
 20
66.18700408935547
 30
0.0
 10
51.31235046436086
 20
66.18700408935547
 30
0.0
 10
47.68335266162649
 20
77.1920051574707
 30
0.0
 10
47.68335266162649
 20
77.1920051574707
 30
0.0
 10
49.35135192920461
 20
77.16400527954102
 30
0.0
 10
52.96133728076711
 20
77.1050033569336
 30
0.0
 10
57.30334777881399
 20
77.04600524902344
 30
0.0
 10
57.30334777881399
 20
77.04600524902344
 30
0.0
 10
57.30334777881399
 20
68.7750015258789
 30
0.0
 10
57.30334777881399
 20
68.7750015258789
 30
0.0
 10
57.30334777881399
 20
68.7750015258789
 30
0.0
 10
57.30435485889211
 20
68.7750015258789
 30
0.0
 10
57.30435485889211
 20
68.7750015258789
 30
0.0
  0
POLYLINE
  5
61
330
1F
100
AcDbEntity
  8
Layer 1
370
     0
100
AcDb2dPolyline
 66
     1
 10
0.0
 20
0.0
 30
0.0
  0
VERTEX
  5
62
330
61
100
AcDbEntity
  8
Layer 1
370
     0
100
AcDbVertex
100
AcDb2dVertex
 10
75.69336242725149
 20
65.18000030517578
 30
0.0
  0
VERTEX
  5
63
330
61
100
AcDbEntity
  8
Layer 1
370
     0
100
AcDbVertex
100
AcDb2dVertex
 10
77.97336120654836
 20
62.67600250244141
 30
0.0
  0
VERTEX
  5
64
330
61
100
AcDbEntity
  8
Layer 1
370
     0
100
AcDbVertex
100
AcDb2dVertex
 10
73.17434997607961
 20
62.67600250244141
 30
0.0
  0
VERTEX
  5
65
330
61
100
AcDbEntity
  8
Layer 1
370
     0
100
AcDbVertex
100
AcDb2dVertex
 10
75.69336242725149
 20
65.18000030517578
 30
0.0
  0
SEQEND
  5
66
330
61
100
AcDbEntity
  8
Layer 1
370
     0
  0
SPLINE
  5
67
330
1F
100
AcDbEntity
  8
Layer 1
370
     0
100
AcDbSpline
210
0.0
220
0.0
230
1.0
 70
    11
 71
     3
 72
    26
 73
    22
 74
     0
 42
0.0000000001
 43
0.0000000001
 12
1.0
 22
0.0
 32
0.0
 13
1.0
 23
0.0
 33
0.0
 40
0.0
 40
0.0
 40
0.0
 40
0.0
 40
1.0
 40
1.0
 40
1.0
 40
2.0
 40
2.0
 40
2.0
 40
3.0
 40
3.0
 40
3.0
 40
4.0
 40
4.0
 40
4.0
 40
5.0
 40
5.0
 40
5.0
 40
6.0
 40
6.0
 40
6.0
 40
7.0
 40
7.0
 40
7.0
 40
7.0
 10
82.55234069873586
 20
68.89299774169922
 30
0.0
 10
82.55234069873586
 20
68.89299774169922
 30
0.0
 10
79.43234558154836
 20
63.17900085449219
 30
0.0
 10
79.43234558154836
 20
63.17900085449219
 30
0.0
 10
79.43234558154836
 20
63.17900085449219
 30
0.0
 10
76.36435241748586
 20
66.54800415039062
 30
0.0
 10
76.36435241748586
 20
66.54800415039062
 30
0.0
 10
76.36435241748586
 20
66.54800415039062
 30
0.0
 10
73.85635681201711
 20
76.87800598144531
 30
0.0
 10
73.85635681201711
 20
76.87800598144531
 30
0.0
 10
74.98034973193899
 20
76.87300491333008
 30
0.0
 10
76.05636901904836
 20
76.8700065612793
 30
0.0
 10
77.06436462451711
 20
76.8700065612793
 30
0.0
 10
77.06436462451711
 20
76.8700065612793
 30
0.0
 10
77.06436462451711
 20
76.8700065612793
 30
0.0
 10
77.06537170459524
 20
76.8700065612793
 30
0.0
 10
80.84836120654836
 20
76.8700065612793
 30
0.0
 10
82.84936828662649
 20
76.89100646972656
 30
0.0
 10
83.94736022998586
 20
76.96600723266602
 30
0.0
 10
83.67633361865774
 20
75.2770004272461
 30
0.0
 10
83.01135559131399
 20
71.4749984741211
 30
0.0
 10
82.55234069873586
 20
68.89299774169922
 30
0.0
  0
SPLINE
  5
68
330
1F
100
AcDbEntity
  8
Layer 1
370
     0
100
AcDbSpline
210
0.0
220
0.0
230
1.0
 70
    11
 71
     3
 72
    26
 73
    22
 74
     0
 42
0.0000000001
 43
0.0000000001
 12
1.0
 22
0.0
 32
0.0
 13
1.0
 23
0.0
 33
0.0
 40
0.0
 40
0.0
 40
0.0
 40
0.0
 40
1.0
 40
1.0
 40
1.0
 40
2.0
 40
2.0
 40
2.0
 40
3.0
 40
3.0
 40
3.0
 40
4.0
 40
4.0
 40
4.0
 40
5.0
 40
5.0
 40
5.0
 40
6.0
 40
6.0
 40
6.0
 40
7.0
 40
7.0
 40
7.0
 40
7.0
 10
84.24734802295461
 20
78.40499877929688
 30
0.0
 10
83.64935607959524
 20
78.35400009155273
 30
0.0
 10
81.93735046436086
 20
78.28799819946289
 30
0.0
 10
77.06433410693899
 20
78.28799819946289
 30
0.0
 10
67.01932067920461
 20
78.28799819946289
 30
0.0
 10
50.14734191943899
 20
78.56699752807617
 30
0.0
 10
47.16733093311086
 20
78.61899948120117
 30
0.0
 10
47.16733093311086
 20
78.61899948120117
 30
0.0
 10
39.29533691455617
 20
96.68399810791016
 30
0.0
 10
39.29533691455617
 20
96.68399810791016
 30
0.0
 10
39.41932983447805
 20
98.97999954223633
 30
0.0
 10
39.62033386279836
 20
102.3879985809326
 30
0.0
 10
39.73134155322805
 20
103.6869983673096
 30
0.0
 10
39.73134155322805
 20
103.6869983673096
 30
0.0
 10
79.86035461475149
 20
102.9069976806641
 30
0.0
 10
79.86035461475149
 20
102.9069976806641
 30
0.0
 10
79.86035461475149
 20
102.9069976806641
 30
0.0
 10
88.12036438037649
 20
90.45299530029297
 30
0.0
 10
88.12036438037649
 20
90.45299530029297
 30
0.0
 10
86.74234314014211
 20
86.09000015258789
 30
0.0
 10
84.76733703662649
 20
79.89599990844727
 30
0.0
 10
84.24734802295461
 20
78.40499877929688
 30
0.0
  0
POLYLINE
  5
69
330
1F
100
AcDbEntity
  8
Layer 1
370
     0
100
AcDb2dPolyline
 66
     1
 10
0.0
 20
0.0
 30
0.0
  0
VERTEX
  5
6A
330
69
100
AcDbEntity
  8
Layer 1
370
     0
100
AcDbVertex
100
AcDb2dVertex
 10
87.74835510303274
 20
93.57799911499023
 30
0.0
  0
VERTEX
  5
6B
330
69
100
AcDbEntity
  8
Layer 1
370
     0
100
AcDbVertex
100
AcDb2dVertex
 10
83.43835754443899
 20
100.076000213623
 30
0.0
  0
VERTEX
  5
6C
330
69
100
AcDbEntity
  8
Layer 1
370
     0
100
AcDbVertex
100
AcDb2dVertex
 10
89.99637146045461
 20
94.70299911499023
 30
0.0
  0
VERTEX
  5
6D
330
69
100
AcDbEntity
  8
Layer 1
370
     0
100
AcDbVertex
100
AcDb2dVertex
 10
87.74835510303274
 20
93.57799911499023
 30
0.0
  0
SEQEND
  5
6E
330
69
100
AcDbEntity
  8
Layer 1
370
     0
  0
HATCH
  5
6F
330
1F
100
AcDbEntity
  8
Layer 1
 62
     7
420
 16777215
100
AcDbHatch
 10
0.0
 20
0.0
 30
0.0
210
0.0
220
0.0
230
1.0
  2
SOLID
 70
     1
 71
     0
 91
       13
 92
        1
 93
        1
 72
     4
 94
        3
 73
     0
 74
     1
 95
      209
 96
      205
 40
0.0
 40
0.0
 40
0.0
 40
0.0
 40
1.0
 40
1.0
 40
1.0
 40
2.0
 40
2.0
 40
2.0
 40
3.0
 40
3.0
 40
3.0
 40
4.0
 40
4.0
 40
4.0
 40
5.0
 40
5.0
 40
5.0
 40
6.0
 40
6.0
 40
6.0
 40
7.0
 40
7.0
 40
7.0
 40
8.0
 40
8.0
 40
8.0
 40
9.0
 40
9.0
 40
9.0
 40
10.0
 40
10.0
 40
10.0
 40
11.0
 40
11.0
 40
11.0
 40
12.0
 40
12.0
 40
12.0
 40
13.0
 40
13.0
 40
13.0
 40
14.0
 40
14.0
 40
14.0
 40
15.0
 40
15.0
 40
15.0
 40
16.0
 40
16.0
 40
16.0
 40
17.0
 40
17.0
 40
17.0
 40
18.0
 40
18.0
 40
18.0
 40
19.0
 40
19.0
 40
19.0
 40
20.0
 40
20.0
 40
20.0
 40
21.0
 40
21.0
 40
21.0
 40
22.0
 40
22.0
 40
22.0
 40
23.0
 40
23.0
 40
23.0
 40
24.0
 40
24.0
 40
24.0
 40
25.0
 40
25.0
 40
25.0
 40
26.0
 40
26.0
 40
26.0
 40
27.0
 40
27.0
 40
27.0
 40
28.0
 40
28.0
 40
28.0
 40
29.0
 40
29.0
 40
29.0
 40
30.0
 40
30.0
 40
30.0
 40
31.0
 40
31.0
 40
31.0
 40
32.0
 40
32.0
 40
32.0
 40
33.0
 40
33.0
 40
33.0
 40
34.0
 40
34.0
 40
34.0
 40
35.0
 40
35.0
 40
35.0
 40
36.0
 40
36.0
 40
36.0
 40
37.0
 40
37.0
 40
37.0
 40
38.0
 40
38.0
 40
38.0
 40
39.0
 40
39.0
 40
39.0
 40
40.0
 40
40.0
 40
40.0
 40
41.0
 40
41.0
 40
41.0
 40
42.0
 40
42.0
 40
42.0
 40
43.0
 40
43.0
 40
43.0
 40
44.0
 40
44.0
 40
44.0
 40
45.0
 40
45.0
 40
45.0
 40
46.0
 40
46.0
 40
46.0
 40
47.0
 40
47.0
 40
47.0
 40
48.0
 40
48.0
 40
48.0
 40
49.0
 40
49.0
 40
49.0
 40
50.0
 40
50.0
 40
50.0
 40
51.0
 40
51.0
 40
51.0
 40
52.0
 40
52.0
 40
52.0
 40
53.0
 40
53.0
 40
53.0
 40
54.0
 40
54.0
 40
54.0
 40
55.0
 40
55.0
 40
55.0
 40
56.0
 40
56.0
 40
56.0
 40
57.0
 40
57.0
 40
57.0
 40
58.0
 40
58.0
 40
58.0
 40
59.0
 40
59.0
 40
59.0
 40
60.0
 40
60.0
 40
60.0
 40
61.0
 40
61.0
 40
61.0
 40
62.0
 40
62.0
 40
62.0
 40
63.0
 40
63.0
 40
63.0
 40
64.0
 40
64.0
 40
64.0
 40
65.0
 40
65.0
 40
65.0
 40
66.0
 40
66.0
 40
66.0
 40
67.0
 40
67.0
 40
67.0
 40
68.0
 40
68.0
 40
68.0
 40
68.0
 10
91.74035949756399
 20
95.10699844360352
 10
91.74035949756399
 20
95.10699844360352
 10
80.69336242725149
 20
104.1569976806641
 10
80.69336242725149
 20
104.1569976806641
 10
80.67236633350149
 20
104.1739978790283
 10
80.64737243701711
 20
104.1789970397949
 10
80.62536926318899
 20
104.1929969787598
 10
80.59335632373586
 20
104.213996887207
 10
80.56238098193899
 20
104.2299976348877
 10
80.52637023975149
 20
104.2449970245361
 10
80.45938415576711
 20
104.2749977111816
 10
80.39236755420461
 20
104.2919979095459
 10
80.32138366748586
 20
104.2999973297119
 10
80.29938049365774
 20
104.3029975891113
 10
80.28039856006399
 20
104.3169975280762
 10
80.25839538623586
 20
104.3169975280762
 10
80.25839538623586
 20
104.3169975280762
 10
39.12539978076711
 20
105.1159973144531
 10
39.12539978076711
 20
105.1159973144531
 10
38.83740539600149
 20
105.1049976348877
 10
38.53639526416555
 20
104.9259967803955
 10
38.43840332080617
 20
104.6309967041016
 10
38.40539856006399
 20
104.5309963226318
 10
38.36439819385305
 20
104.1819972991943
 10
38.31540222217336
 20
103.637996673584
 10
38.31540222217336
 20
103.637996673584
 10
34.53639526416555
 20
103.5389957427979
 10
34.53639526416555
 20
103.5389957427979
 10
34.53639526416555
 20
103.5389957427979
 10
32.94839782764211
 20
105.8639965057373
 10
32.94839782764211
 20
105.8639965057373
 10
32.83339233447805
 20
106.0329971313477
 10
32.65039367725149
 20
106.1439971923828
 10
32.44839782764211
 20
106.1679973602295
 10
32.24640197803274
 20
106.1919975280762
 10
32.04239196826711
 20
106.1279964447021
 10
31.88939209033742
 20
105.9909973144531
 10
31.88939209033742
 20
105.9909973144531
 10
30.95439453174367
 20
105.1509971618652
 10
30.95439453174367
 20
105.1509971618652
 10
30.95439453174367
 20
105.1509971618652
 10
29.21840210010305
 20
106.8299980163574
 10
29.21840210010305
 20
106.8299980163574
 10
29.07440490772024
 20
106.9699974060059
 10
28.87840576221242
 20
107.0379981994629
 10
28.68040771533742
 20
107.0279979705811
 10
28.4814025883843
 20
107.0149974822998
 10
28.29541320850149
 20
106.9189987182617
 10
28.17140502979055
 20
106.7619972229004
 10
28.17140502979055
 20
106.7619972229004
 10
25.47040100147024
 20
103.3659973144531
 10
25.47040100147024
 20
103.3659973144531
 10
25.47040100147024
 20
103.3659973144531
 10
18.81340332080617
 20
99.84199905395508
 10
18.81340332080617
 20
99.84199905395508
 10
18.50639648486867
 20
99.68000030517578
 10
18.34640808154836
 20
99.37799835205078
 10
18.45640869189992
 20
99.04999923706055
 10
18.48741455127492
 20
98.88800048828125
 10
18.56540222217336
 20
98.10900115966797
 10
18.67140502979055
 20
96.96500015258789
 10
18.67140502979055
 20
96.96500015258789
 10
9.068408203618674
 20
91.30899810791016
 10
9.068408203618674
 20
91.30899810791016
 10
8.754412842290549
 20
91.12399673461914
 10
8.631411743657736
 20
90.73099899291992
 10
8.785403442876486
 20
90.39999771118164
 10
8.785403442876486
 20
90.39999771118164
 10
11.3144104008843
 20
84.94299697875977
 10
11.3144104008843
 20
84.94299697875977
 10
11.43040771533742
 20
84.69199752807617
 10
11.68141479541555
 20
84.53199768066406
 10
11.95741577197805
 20
84.53199768066406
 10
11.96242065479055
 20
84.53199768066406
 10
11.96841735889211
 20
84.53199768066406
 10
11.97342224170461
 20
84.53199768066406
 10
11.97342224170461
 20
84.53199768066406
 10
19.71242065479055
 20
84.69999694824219
 10
19.71242065479055
 20
84.69999694824219
 10
19.73242492725149
 20
84.4589958190918
 10
19.75241394092336
 20
84.21599578857422
 10
19.77142639209524
 20
83.9839973449707
 10
19.80043335010305
 20
83.61599731445312
 10
20.10843200732961
 20
83.3329963684082
 10
20.47742004443899
 20
83.3329963684082
 10
20.47742004443899
 20
83.3329963684082
 10
30.45941467334524
 20
83.3329963684082
 10
30.45941467334524
 20
83.3329963684082
 10
30.55140991260305
 20
83.3329963684082
 10
30.64142150928274
 20
83.35099792480469
 10
30.72641296436086
 20
83.38499450683594
 10
30.72641296436086
 20
83.38499450683594
 10
35.28341980029836
 20
85.23299407958984
 10
35.28341980029836
 20
85.23299407958984
 10
35.28341980029836
 20
85.23299407958984
 10
46.09942932178274
 20
77.47599411010742
 10
46.09942932178274
 20
77.47599411010742
 10
46.09942932178274
 20
77.47599411010742
 10
49.87543029834524
 20
66.02599334716797
 10
49.87543029834524
 20
66.02599334716797
 10
49.87543029834524
 20
66.02599334716797
 10
45.89044494678274
 20
62.49799346923828
 10
45.89044494678274
 20
62.49799346923828
 10
45.66943664600149
 20
62.30299377441406
 10
45.59344787647024
 20
61.99199676513672
 10
45.69745178272024
 20
61.71699523925781
 10
45.80145568897024
 20
61.44199371337891
 10
46.06546325732961
 20
61.25899505615234
 10
46.36044616748586
 20
61.25899505615234
 10
46.36044616748586
 20
61.25899505615234
 10
54.55343933154836
 20
61.25899505615234
 10
54.55343933154836
 20
61.25899505615234
 10
54.58945007373586
 20
61.25899505615234
 10
54.62543029834524
 20
61.26199340820312
 10
54.66144104053274
 20
61.26799774169922
 10
54.68445129443899
 20
61.27199554443359
 10
54.70242614795461
 20
61.28900146484375
 10
54.72442932178274
 20
61.29399871826172
 10
54.79043884326711
 20
61.31099700927734
 10
54.85144348193899
 20
61.33399963378906
 10
54.90942688037649
 20
61.36899566650391
 10
54.94043273975149
 20
61.38799285888672
 10
54.96942443897024
 20
61.40499877929688
 10
54.99743957568899
 20
61.42799377441406
 10
55.05343933154836
 20
61.47399139404297
 10
55.09744567920461
 20
61.52899169921875
 10
55.13745422412649
 20
61.58899688720703
 10
55.15045471240774
 20
61.60899353027344
 10
55.17044372607961
 20
61.61899566650391
 10
55.18146057178274
 20
61.63999938964844
 10
55.18146057178274
 20
61.63999938964844
 10
58.64245910693899
 20
68.2750015258789
 10
58.64245910693899
 20
68.2750015258789
 10
58.69546814014211
 20
68.37699890136719
 10
58.72345275928274
 20
68.48899841308594
 10
58.72345275928274
 20
68.6030044555664
 10
58.72345275928274
 20
68.6030044555664
 10
58.72345275928274
 20
77.02800369262695
 10
58.72345275928274
 20
77.02800369262695
 10
63.08844299365774
 20
76.9690055847168
 10
68.01745910693899
 20
76.91400527954102
 10
72.39746398975149
 20
76.88700485229492
 10
72.39746398975149
 20
76.88700485229492
 10
74.93646545459524
 20
66.42800903320312
 10
74.93646545459524
 20
66.42800903320312
 10
74.93646545459524
 20
66.42800903320312
 10
70.95746154834524
 20
62.47100830078125
 10
70.95746154834524
 20
62.47100830078125
 10
70.75445861865774
 20
62.26800537109375
 10
70.69244689990774
 20
61.96300506591797
 10
70.80246276904836
 20
61.69800567626953
 10
70.91147155811086
 20
61.43300628662109
 10
71.17047424365774
 20
61.26000213623047
 10
71.45746154834524
 20
61.26000213623047
 10
71.45746154834524
 20
61.26000213623047
 10
79.57846374561086
 20
61.26000213623047
 10
79.57846374561086
 20
61.26000213623047
 10
79.60647888232961
 20
61.26000213623047
 10
79.63547058154836
 20
61.26200103759766
 10
79.66247863818899
 20
61.26499938964844
 10
79.68747253467336
 20
61.26799774169922
 10
79.70846862842336
 20
61.28600311279297
 10
79.73248596240774
 20
61.29100036621094
 10
79.80047912647024
 20
61.30699920654297
 10
79.86447448779836
 20
61.3280029296875
 10
79.92349548389211
 20
61.36199951171875
 10
79.95450134326711
 20
61.38099670410156
 10
79.98349304248586
 20
61.39900207519531
 10
80.01150817920461
 20
61.4219970703125
 10
80.06851501514211
 20
61.46699523925781
 10
80.11450500537649
 20
61.51899719238281
 10
80.15451355029836
 20
61.57899475097656
 10
80.16852111865774
 20
61.59799194335938
 10
80.18951721240774
 20
61.60799407958984
 10
80.20050354053274
 20
61.62899780273438
 10
80.20050354053274
 20
61.62899780273438
 10
83.85251159717336
 20
68.31700134277344
 10
83.85251159717336
 20
68.31700134277344
 10
83.88852233936086
 20
68.38400268554688
 10
83.91452331592336
 20
68.45800018310547
 10
83.92752380420461
 20
68.53300476074219
 10
84.89453430225149
 20
73.96400451660156
 10
85.32052917529836
 20
76.35800552368164
 10
85.39352722217336
 20
77.4540023803711
 10
85.39651794482961
 20
77.46000289916992
 10
85.40051574756399
 20
77.46600341796875
 10
85.40353698779836
 20
77.47300338745117
 10
85.67352600147024
 20
78.01300430297852
 10
88.66253967334524
 20
87.46900177001953
 10
89.57254333545461
 20
90.35400390625
 10
89.63653869678274
 20
90.55800247192383
 10
89.60553283740774
 20
90.78000259399414
 10
89.48755188037649
 20
90.95800399780273
 10
89.48755188037649
 20
90.95800399780273
 10
88.53753967334524
 20
92.3910026550293
 10
88.53753967334524
 20
92.3910026550293
 10
88.53753967334524
 20
92.3910026550293
 10
91.60855407764211
 20
93.9280014038086
 10
91.60855407764211
 20
93.9280014038086
 10
91.82355041553274
 20
94.03499984741211
 10
91.96853942920461
 20
94.24400329589844
 10
91.99554748584524
 20
94.48300170898438
 10
92.02255554248586
 20
94.72200012207031
 10
91.92535705615774
 20
94.95500183105469
 10
91.74035949756399
 20
95.10699844360352
 97
        0
 97
        0
 92
        1
 93
        4
 72
     1
 10
35.34634704639211
 20
96.39599990844727
 11
38.08034057666555
 21
95.92100143432617
 72
     1
 10
38.08034057666555
 20
95.92100143432617
 11
45.02133483936086
 21
79.99200057983398
 72
     1
 10
45.02133483936086
 20
79.99200057983398
 11
36.0673400883843
 21
86.41200256347656
 72
     1
 10
36.0673400883843
 20
86.41200256347656
 11
35.34634704639211
 21
96.39599990844727
 97
        0
 92
        1
 93
        1
 72
     4
 94
        3
 73
     0
 74
     1
 95
       23
 96
       19
 40
0.0
 40
0.0
 40
0.0
 40
0.0
 40
1.0
 40
1.0
 40
1.0
 40
2.0
 40
2.0
 40
2.0
 40
3.0
 40
3.0
 40
3.0
 40
4.0
 40
4.0
 40
4.0
 40
5.0
 40
5.0
 40
5.0
 40
6.0
 40
6.0
 40
6.0
 40
6.0
 10
38.20534057666555
 20
102.2180004119873
 10
38.12333984424367
 20
101.0380020141602
 10
38.0253479008843
 20
99.41699981689453
 10
37.91434021045461
 20
97.38899993896484
 10
37.91434021045461
 20
97.38899993896484
 10
35.3953430180718
 20
97.82600021362305
 10
35.3953430180718
 20
97.82600021362305
 10
35.3953430180718
 20
97.82600021362305
 10
36.18634338428274
 20
100.677001953125
 10
36.18634338428274
 20
100.677001953125
 10
36.24234314014211
 20
100.878002166748
 10
36.20733947803274
 20
101.0940017700195
 10
36.0883361821343
 20
101.2660026550293
 10
36.0883361821343
 20
101.2660026550293
 10
35.48633117725149
 20
102.1470031738281
 10
35.48633117725149
 20
102.1470031738281
 10
35.48633117725149
 20
102.1470031738281
 10
38.20534057666555
 20
102.2180004119873
 10
38.20534057666555
 20
102.2180004119873
 97
        0
 97
        0
 92
        1
 93
        4
 72
     1
 10
32.23434753467336
 20
104.3969993591309
 11
34.73334045459524
 21
100.7379989624023
 72
     1
 10
34.73334045459524
 20
100.7379989624023
 11
34.05334777881399
 21
98.28899765014648
 72
     1
 10
34.05334777881399
 20
98.28899765014648
 11
29.09035034229055
 21
101.5709991455078
 72
     1
 10
29.09035034229055
 20
101.5709991455078
 11
32.23434753467336
 21
104.3969993591309
 97
        0
 92
        1
 93
        4
 72
     1
 10
28.79535217334524
 20
105.2700004577637
 11
29.89935607959524
 21
104.2030010223389
 72
     1
 10
29.89935607959524
 20
104.2030010223389
 11
27.87135620166555
 21
102.3790016174316
 72
     1
 10
27.87135620166555
 20
102.3790016174316
 11
26.97136230518117
 21
102.9750022888184
 72
     1
 10
26.97136230518117
 20
102.9750022888184
 11
28.79535217334524
 21
105.2700004577637
 97
        0
 92
        1
 93
        1
 72
     4
 94
        3
 73
     0
 74
     1
 95
       17
 96
       13
 40
0.0
 40
0.0
 40
0.0
 40
0.0
 40
1.0
 40
1.0
 40
1.0
 40
2.0
 40
2.0
 40
2.0
 40
3.0
 40
3.0
 40
3.0
 40
4.0
 40
4.0
 40
4.0
 40
4.0
 10
12.4053527836968
 20
85.95899963378906
 10
12.4053527836968
 20
85.95899963378906
 10
10.34135742236867
 20
90.41299819946289
 10
10.34135742236867
 20
90.41299819946289
 10
10.34135742236867
 20
90.41299819946289
 10
18.81235046436086
 20
95.40199661254883
 10
18.81235046436086
 20
95.40199661254883
 10
19.04135437061086
 20
92.8069953918457
 10
19.33835144092336
 20
89.25299835205078
 10
19.59735412647024
 20
86.11499786376953
 10
19.59735412647024
 20
86.11499786376953
 10
12.4053527836968
 20
85.95899963378906
 10
12.4053527836968
 20
85.95899963378906
 97
        0
 97
        0
 92
        1
 93
        1
 72
     4
 94
        3
 73
     0
 74
     1
 95
       29
 96
       25
 40
0.0
 40
0.0
 40
0.0
 40
0.0
 40
1.0
 40
1.0
 40
1.0
 40
2.0
 40
2.0
 40
2.0
 40
3.0
 40
3.0
 40
3.0
 40
4.0
 40
4.0
 40
4.0
 40
5.0
 40
5.0
 40
5.0
 40
6.0
 40
6.0
 40
6.0
 40
7.0
 40
7.0
 40
7.0
 40
8.0
 40
8.0
 40
8.0
 40
8.0
 10
30.32034606982961
 20
84.75
 10
30.32034606982961
 20
84.75
 10
21.13034362842336
 20
84.75
 10
21.13034362842336
 20
84.75
 10
20.50134582568899
 20
92.47999954223633
 10
20.09134216357961
 20
97.19400024414062
 10
19.90634460498586
 20
98.81800079345703
 10
19.90634460498586
 20
98.81800079345703
 10
25.89334411670461
 20
101.9869995117188
 10
25.89334411670461
 20
101.9869995117188
 10
25.89334411670461
 20
101.9869995117188
 10
27.62333984424367
 20
100.8429985046387
 10
27.62333984424367
 20
100.8429985046387
 10
27.62533874561086
 20
100.8419990539551
 10
27.62733764697805
 20
100.8400001525879
 10
27.63034362842336
 20
100.8379974365234
 10
27.63034362842336
 20
100.8379974365234
 10
33.90333862354055
 20
96.68899536132812
 10
33.90333862354055
 20
96.68899536132812
 10
33.90333862354055
 20
96.68899536132812
 10
34.63933105518117
 20
86.50299453735352
 10
34.63933105518117
 20
86.50299453735352
 10
34.63933105518117
 20
86.50299453735352
 10
30.32034606982961
 20
84.75
 10
30.32034606982961
 20
84.75
 97
        0
 97
        0
 92
        1
 93
        3
 72
     1
 10
50.66534729053274
 20
64.83300018310547
 11
52.83435363818899
 21
62.67600250244141
 72
     1
 10
52.83435363818899
 20
62.67600250244141
 11
48.22934265186086
 21
62.67600250244141
 72
     1
 10
48.22934265186086
 20
62.67600250244141
 11
50.66534729053274
 21
64.83300018310547
 97
        0
 92
        1
 93
        1
 72
     4
 94
        3
 73
     0
 74
     1
 95
       23
 96
       19
 40
0.0
 40
0.0
 40
0.0
 40
0.0
 40
1.0
 40
1.0
 40
1.0
 40
2.0
 40
2.0
 40
2.0
 40
3.0
 40
3.0
 40
3.0
 40
4.0
 40
4.0
 40
4.0
 40
5.0
 40
5.0
 40
5.0
 40
6.0
 40
6.0
 40
6.0
 40
6.0
 10
57.30435485889211
 20
68.7750015258789
 10
57.30435485889211
 20
68.7750015258789
 10
54.36935730029836
 20
63.14800262451172
 10
54.36935730029836
 20
63.14800262451172
 10
54.36935730029836
 20
63.14800262451172
 10
51.31235046436086
 20
66.18700408935547
 10
51.31235046436086
 20
66.18700408935547
 10
51.31235046436086
 20
66.18700408935547
 10
47.68335266162649
 20
77.1920051574707
 10
47.68335266162649
 20
77.1920051574707
 10
49.35135192920461
 20
77.16400527954102
 10
52.96133728076711
 20
77.1050033569336
 10
57.30334777881399
 20
77.04600524902344
 10
57.30334777881399
 20
77.04600524902344
 10
57.30334777881399
 20
68.7750015258789
 10
57.30334777881399
 20
68.7750015258789
 10
57.30334777881399
 20
68.7750015258789
 10
57.30435485889211
 20
68.7750015258789
 10
57.30435485889211
 20
68.7750015258789
 97
        0
 97
        0
 92
        1
 93
        3
 72
     1
 10
75.69336242725149
 20
65.18000030517578
 11
77.97336120654836
 21
62.67600250244141
 72
     1
 10
77.97336120654836
 20
62.67600250244141
 11
73.17434997607961
 21
62.67600250244141
 72
     1
 10
73.17434997607961
 20
62.67600250244141
 11
75.69336242725149
 21
65.18000030517578
 97
        0
 92
        1
 93
        1
 72
     4
 94
        3
 73
     0
 74
     1
 95
       26
 96
       22
 40
0.0
 40
0.0
 40
0.0
 40
0.0
 40
1.0
 40
1.0
 40
1.0
 40
2.0
 40
2.0
 40
2.0
 40
3.0
 40
3.0
 40
3.0
 40
4.0
 40
4.0
 40
4.0
 40
5.0
 40
5.0
 40
5.0
 40
6.0
 40
6.0
 40
6.0
 40
7.0
 40
7.0
 40
7.0
 40
7.0
 10
82.55234069873586
 20
68.89299774169922
 10
82.55234069873586
 20
68.89299774169922
 10
79.43234558154836
 20
63.17900085449219
 10
79.43234558154836
 20
63.17900085449219
 10
79.43234558154836
 20
63.17900085449219
 10
76.36435241748586
 20
66.54800415039062
 10
76.36435241748586
 20
66.54800415039062
 10
76.36435241748586
 20
66.54800415039062
 10
73.85635681201711
 20
76.87800598144531
 10
73.85635681201711
 20
76.87800598144531
 10
74.98034973193899
 20
76.87300491333008
 10
76.05636901904836
 20
76.8700065612793
 10
77.06436462451711
 20
76.8700065612793
 10
77.06436462451711
 20
76.8700065612793
 10
77.06436462451711
 20
76.8700065612793
 10
77.06537170459524
 20
76.8700065612793
 10
80.84836120654836
 20
76.8700065612793
 10
82.84936828662649
 20
76.89100646972656
 10
83.94736022998586
 20
76.96600723266602
 10
83.67633361865774
 20
75.2770004272461
 10
83.01135559131399
 20
71.4749984741211
 10
82.55234069873586
 20
68.89299774169922
 97
        0
 97
        0
 92
        1
 93
        1
 72
     4
 94
        3
 73
     0
 74
     1
 95
       26
 96
       22
 40
0.0
 40
0.0
 40
0.0
 40
0.0
 40
1.0
 40
1.0
 40
1.0
 40
2.0
 40
2.0
 40
2.0
 40
3.0
 40
3.0
 40
3.0
 40
4.0
 40
4.0
 40
4.0
 40
5.0
 40
5.0
 40
5.0
 40
6.0
 40
6.0
 40
6.0
 40
7.0
 40
7.0
 40
7.0
 40
7.0
 10
84.24734802295461
 20
78.40499877929688
 10
83.64935607959524
 20
78.35400009155273
 10
81.93735046436086
 20
78.28799819946289
 10
77.06433410693899
 20
78.28799819946289
 10
67.01932067920461
 20
78.28799819946289
 10
50.14734191943899
 20
78.56699752807617
 10
47.16733093311086
 20
78.61899948120117
 10
47.16733093311086
 20
78.61899948120117
 10
39.29533691455617
 20
96.68399810791016
 10
39.29533691455617
 20
96.68399810791016
 10
39.41932983447805
 20
98.97999954223633
 10
39.62033386279836
 20
102.3879985809326
 10
39.73134155322805
 20
103.6869983673096
 10
39.73134155322805
 20
103.6869983673096
 10
79.86035461475149
 20
102.9069976806641
 10
79.86035461475149
 20
102.9069976806641
 10
79.86035461475149
 20
102.9069976806641
 10
88.12036438037649
 20
90.45299530029297
 10
88.12036438037649
 20
90.45299530029297
 10
86.74234314014211
 20
86.09000015258789
 10
84.76733703662649
 20
79.89599990844727
 10
84.24734802295461
 20
78.40499877929688
 97
        0
 97
        0
 92
        1
 93
        3
 72
     1
 10
87.74835510303274
 20
93.57799911499023
 11
83.43835754443899
 21
100.076000213623
 72
     1
 10
83.43835754443899
 20
100.076000213623
 11
89.99637146045461
 21
94.70299911499023
 72
     1
 10
89.99637146045461
 20
94.70299911499023
 11
87.74835510303274
 21
93.57799911499023
 97
        0
 75
     2
 76
     1
 98
        0
  0
ENDSEC
  0
SECTION
  2
OBJECTS
  0
DICTIONARY
  5
C
330
0
100
AcDbDictionary
281
     1
  3
ACAD_GROUP
350
D
  3
ACAD_LAYOUT
350
1A
  3
ACAD_MATERIAL
350
3B
  3
ACAD_MLEADERSTYLE
350
71
  3
ACAD_MLINESTYLE
350
17
  3
ACAD_PLOTSETTINGS
350
19
  3
ACAD_PLOTSTYLENAME
350
E
  3
ACAD_TABLESTYLE
350
70
  3
ACAD_VISUALSTYLE
350
2A
  0
SUN
  5
3F
330
29
100
AcDbSun
 90
        1
290
     0
 63
     7
421
 16777215
 40
1.0
291
     1
 91
  2455826
 92
 54000000
292
     0
 70
     2
 71
   256
280
     1
  0
DICTIONARY
  5
D
102
{ACAD_REACTORS
330
C
102
}
330
C
100
AcDbDictionary
281
     1
  0
DICTIONARY
  5
1A
102
{ACAD_REACTORS
330
C
102
}
330
C
100
AcDbDictionary
281
     1
  3
Layout1
350
1E
  3
Layout2
350
26
  3
Model
350
22
  0
DICTIONARY
  5
3B
102
{ACAD_REACTORS
330
C
102
}
330
C
100
AcDbDictionary
281
     1
  3
ByBlock
350
3D
  3
ByLayer
350
3C
  3
Global
350
3E
  0
DICTIONARY
  5
71
102
{ACAD_REACTORS
330
C
102
}
330
C
100
AcDbDictionary
281
     1
  0
DICTIONARY
  5
17
102
{ACAD_REACTORS
330
C
102
}
330
C
100
AcDbDictionary
281
     1
  3
Standard
350
18
  0
DICTIONARY
  5
19
102
{ACAD_REACTORS
330
C
102
}
330
C
100
AcDbDictionary
281
     1
  0
ACDBDICTIONARYWDFLT
  5
E
102
{ACAD_REACTORS
330
C
102
}
330
C
100
AcDbDictionary
281
     1
  3
Normal
350
F
100
AcDbDictionaryWithDefault
340
F
  0
DICTIONARY
  5
70
102
{ACAD_REACTORS
330
C
102
}
330
C
100
AcDbDictionary
281
     1
  0
DICTIONARY
  5
2A
102
{ACAD_REACTORS
330
C
102
}
330
C
100
AcDbDictionary
281
     1
  3
2dWireframe
350
2F
  3
3D Hidden
350
31
  3
3dWireframe
350
30
  3
Basic
350
32
  3
Brighten
350
36
  3
ColorChange
350
3A
  3
Conceptual
350
34
  3
Dim
350
35
  3
Facepattern
350
39
  3
Flat
350
2B
  3
FlatWithEdges
350
2C
  3
Gouraud
350
2D
  3
GouraudWithEdges
350
2E
  3
Linepattern
350
38
  3
Realistic
350
33
  3
Thicken
350
37
  0
LAYOUT
  5
1E
102
{ACAD_REACTORS
330
1A
102
}
330
1A
100
AcDbPlotSettings
  1

  2
none_device
  4

  6

 40
0.0
 41
0.0
 42
0.0
 43
0.0
 44
0.0
 45
0.0
 46
0.0
 47
0.0
 48
0.0
 49
0.0
140
0.0
141
0.0
142
1.0
143
1.0
 70
   688
 72
     0
 73
     0
 74
     5
  7

 75
    16
 76
     0
 77
     2
 78
   300
147
1.0
148
0.0
149
0.0
100
AcDbLayout
  1
Layout1
 70
     1
 71
     1
 10
0.0
 20
0.0
 11
12.0
 21
9.0
 12
0.0
 22
0.0
 32
0.0
 14
1.000000000000000E+20
 24
1.000000000000000E+20
 34
1.000000000000000E+20
 15
-1.000000000000000E+20
 25
-1.000000000000000E+20
 35
-1.000000000000000E+20
146
0.0
 13
0.0
 23
0.0
 33
0.0
 16
1.0
 26
0.0
 36
0.0
 17
0.0
 27
1.0
 37
0.0
 76
     0
330
1B
  0
LAYOUT
  5
26
102
{ACAD_REACTORS
330
1A
102
}
330
1A
100
AcDbPlotSettings
  1

  2
none_device
  4

  6

 40
0.0
 41
0.0
 42
0.0
 43
0.0
 44
0.0
 45
0.0
 46
0.0
 47
0.0
 48
0.0
 49
0.0
140
0.0
141
0.0
142
1.0
143
1.0
 70
   688
 72
     0
 73
     0
 74
     5
  7

 75
    16
 76
     0
 77
     2
 78
   300
147
1.0
148
0.0
149
0.0
100
AcDbLayout
  1
Layout2
 70
     1
 71
     2
 10
0.0
 20
0.0
 11
0.0
 21
0.0
 12
0.0
 22
0.0
 32
0.0
 14
0.0
 24
0.0
 34
0.0
 15
0.0
 25
0.0
 35
0.0
146
0.0
 13
0.0
 23
0.0
 33
0.0
 16
1.0
 26
0.0
 36
0.0
 17
0.0
 27
1.0
 37
0.0
 76
     0
330
23
  0
LAYOUT
  5
22
102
{ACAD_REACTORS
330
1A
102
}
330
1A
100
AcDbPlotSettings
  1

  2
none_device
  4

  6

 40
0.0
 41
0.0
 42
0.0
 43
0.0
 44
0.0
 45
0.0
 46
0.0
 47
0.0
 48
0.0
 49
0.0
140
0.0
141
0.0
142
1.0
143
1.0
 70
  1712
 72
     0
 73
     0
 74
     0
  7

 75
     0
 76
     0
 77
     2
 78
   300
147
1.0
148
0.0
149
0.0
100
AcDbLayout
  1
Model
 70
     1
 71
     0
 10
0.0
 20
0.0
 11
12.0
 21
9.0
 12
0.0
 22
0.0
 32
0.0
 14
1.000000000000000E+20
 24
1.000000000000000E+20
 34
1.000000000000000E+20
 15
-1.000000000000000E+20
 25
-1.000000000000000E+20
 35
-1.000000000000000E+20
146
0.0
 13
0.0
 23
0.0
 33
0.0
 16
1.0
 26
0.0
 36
0.0
 17
0.0
 27
1.0
 37
0.0
 76
     0
330
1F
331
29
  0
MATERIAL
  5
3D
102
{ACAD_REACTORS
330
3B
102
}
330
3B
100
AcDbMaterial
  1
ByBlock
 72
     1
 94
      127
  0
MATERIAL
  5
3C
102
{ACAD_REACTORS
330
3B
102
}
330
3B
100
AcDbMaterial
  1
ByLayer
 72
     1
 94
      127
  0
MATERIAL
  5
3E
102
{ACAD_REACTORS
330
3B
102
}
330
3B
100
AcDbMaterial
  1
Global
 72
     1
 94
      127
  0
MLINESTYLE
  5
18
102
{ACAD_REACTORS
330
17
102
}
330
17
100
AcDbMlineStyle
  2
Standard
 70
     0
  3

 62
   256
 51
90.0
 52
90.0
 71
     2
 49
0.5
 62
   256
  6
BYLAYER
 49
-0.5
 62
   256
  6
BYLAYER
  0
ACDBPLACEHOLDER
  5
F
102
{ACAD_REACTORS
330
E
102
}
330
E
  0
VISUALSTYLE
  5
2F
102
{ACAD_REACTORS
330
2A
102
}
330
2A
100
AcDbVisualStyle
  2
2dWireframe
 70
     4
177
     2
291
     0
 71
     0
176
     1
 72
     2
176
     1
 73
     0
176
     1
 90
        0
176
     1
 40
-0.6
176
     1
 41
-30.0
176
     1
 62
     5
 63
     7
421
 16777215
176
     1
 74
     1
176
     1
 91
        4
176
     1
 64
     7
176
     1
 65
   257
176
     1
 75
     1
176
     1
175
     1
176
     1
 42
1.0
176
     1
 92
        0
176
     1
 66
   257
176
     1
 43
1.0
176
     1
 76
     1
176
     1
 77
     6
176
     1
 78
     2
176
     1
 67
     7
176
     1
 79
     5
176
     1
170
     0
176
     1
171
     0
176
     1
290
     0
176
     1
 93
        1
176
     1
 44
0.0
176
     1
173
     0
176
     1
  0
VISUALSTYLE
  5
31
102
{ACAD_REACTORS
330
2A
102
}
330
2A
100
AcDbVisualStyle
  2
3D Hidden
 70
     6
177
     2
291
     0
 71
     1
176
     1
 72
     2
176
     1
 73
     2
176
     1
 90
        0
176
     1
 40
-0.6
176
     1
 41
-30.0
176
     1
 62
     5
 63
     7
421
 16777215
176
     1
 74
     2
176
     1
 91
        2
176
     1
 64
     7
176
     1
 65
   257
176
     1
 75
     2
176
     1
175
     1
176
     1
 42
40.0
176
     1
 92
        0
176
     1
 66
   257
176
     1
 43
1.0
176
     1
 76
     1
176
     1
 77
     6
176
     1
 78
     2
176
     1
 67
     7
176
     1
 79
     3
176
     1
170
     0
176
     1
171
     0
176
     1
290
     0
176
     1
 93
        1
176
     1
 44
0.0
176
     1
173
     0
176
     1
  0
VISUALSTYLE
  5
30
102
{ACAD_REACTORS
330
2A
102
}
330
2A
100
AcDbVisualStyle
  2
3dWireframe
 70
     5
177
     2
291
     0
 71
     0
176
     1
 72
     2
176
     1
 73
     0
176
     1
 90
        0
176
     1
 40
-0.6
176
     1
 41
-30.0
176
     1
 62
     5
 63
     7
421
 16777215
176
     1
 74
     1
176
     1
 91
        4
176
     1
 64
     7
176
     1
 65
   257
176
     1
 75
     1
176
     1
175
     1
176
     1
 42
1.0
176
     1
 92
        0
176
     1
 66
   257
176
     1
 43
1.0
176
     1
 76
     1
176
     1
 77
     6
176
     1
 78
     2
176
     1
 67
     7
176
     1
 79
     5
176
     1
170
     0
176
     1
171
     0
176
     1
290
     0
176
     1
 93
        1
176
     1
 44
0.0
176
     1
173
     0
176
     1
  0
VISUALSTYLE
  5
32
102
{ACAD_REACTORS
330
2A
102
}
330
2A
100
AcDbVisualStyle
  2
Basic
 70
     7
177
     2
291
     1
 71
     1
176
     1
 72
     0
176
     1
 73
     1
176
     1
 90
        0
176
     1
 40
-0.6
176
     1
 41
-30.0
176
     1
 62
     5
 63
     7
421
 16777215
176
     1
 74
     0
176
     1
 91
        4
176
     1
 64
     7
176
     1
 65
   257
176
     1
 75
     1
176
     1
175
     1
176
     1
 42
1.0
176
     1
 92
        8
176
     1
 66
     7
176
     1
 43
1.0
176
     1
 76
     1
176
     1
 77
     6
176
     1
 78
     2
176
     1
 67
     7
176
     1
 79
     5
176
     1
170
     0
176
     1
171
     0
176
     1
290
     0
176
     1
 93
        1
176
     1
 44
0.0
176
     1
173
     0
176
     1
  0
VISUALSTYLE
  5
36
102
{ACAD_REACTORS
330
2A
102
}
330
2A
100
AcDbVisualStyle
  2
Brighten
 70
    12
177
     2
291
     1
 71
     2
176
     1
 72
     2
176
     1
 73
     0
176
     1
 90
        0
176
     1
 40
-0.6
176
     1
 41
-30.0
176
     1
 62
     5
 63
     7
421
 16777215
176
     1
 74
     1
176
     1
 91
        4
176
     1
 64
     7
176
     1
 65
   257
176
     1
 75
     1
176
     1
175
     1
176
     1
 42
1.0
176
     1
 92
        8
176
     1
 66
     7
176
     1
 43
1.0
176
     1
 76
     1
176
     1
 77
     6
176
     1
 78
     2
176
     1
 67
     7
176
     1
 79
     5
176
     1
170
     0
176
     1
171
     0
176
     1
290
     0
176
     1
 93
        1
176
     1
 44
50.0
176
     1
173
     0
176
     1
  0
VISUALSTYLE
  5
3A
102
{ACAD_REACTORS
330
2A
102
}
330
2A
100
AcDbVisualStyle
  2
ColorChange
 70
    16
177
     2
291
     1
 71
     2
176
     1
 72
     2
176
     1
 73
     3
176
     1
 90
        0
176
     1
 40
-0.6
176
     1
 41
-30.0
176
     1
 62
     5
 63
     8
421
  8421504
176
     1
 74
     1
176
     1
 91
        4
176
     1
 64
     7
176
     1
 65
   257
176
     1
 75
     1
176
     1
175
     1
176
     1
 42
1.0
176
     1
 92
        8
176
     1
 66
     8
424
  8421504
176
     1
 43
1.0
176
     1
 76
     1
176
     1
 77
     6
176
     1
 78
     2
176
     1
 67
     7
176
     1
 79
     5
176
     1
170
     0
176
     1
171
     0
176
     1
290
     0
176
     1
 93
        1
176
     1
 44
0.0
176
     1
173
     0
176
     1
  0
VISUALSTYLE
  5
34
102
{ACAD_REACTORS
330
2A
102
}
330
2A
100
AcDbVisualStyle
  2
Conceptual
 70
     9
177
     2
291
     0
 71
     3
176
     1
 72
     2
176
     1
 73
     0
176
     1
 90
        0
176
     1
 40
-0.6
176
     1
 41
-30.0
176
     1
 62
     5
 63
     7
421
 16777215
176
     1
 74
     2
176
     1
 91
        2
176
     1
 64
     7
176
     1
 65
   257
176
     1
 75
     1
176
     1
175
     1
176
     1
 42
40.0
176
     1
 92
        8
176
     1
 66
     7
176
     1
 43
1.0
176
     1
 76
     1
176
     1
 77
     6
176
     1
 78
     2
176
     1
 67
     7
176
     1
 79
     3
176
     1
170
     0
176
     1
171
     0
176
     1
290
     0
176
     1
 93
        1
176
     1
 44
0.0
176
     1
173
     0
176
     1
  0
VISUALSTYLE
  5
35
102
{ACAD_REACTORS
330
2A
102
}
330
2A
100
AcDbVisualStyle
  2
Dim
 70
    11
177
     2
291
     1
 71
     2
176
     1
 72
     2
176
     1
 73
     0
176
     1
 90
        0
176
     1
 40
-0.6
176
     1
 41
-30.0
176
     1
 62
     5
 63
     7
421
 16777215
176
     1
 74
     1
176
     1
 91
        4
176
     1
 64
     7
176
     1
 65
   257
176
     1
 75
     1
176
     1
175
     1
176
     1
 42
1.0
176
     1
 92
        8
176
     1
 66
     7
176
     1
 43
1.0
176
     1
 76
     1
176
     1
 77
     6
176
     1
 78
     2
176
     1
 67
     7
176
     1
 79
     5
176
     1
170
     0
176
     1
171
     0
176
     1
290
     0
176
     1
 93
        1
176
     1
 44
-50.0
176
     1
173
     0
176
     1
  0
VISUALSTYLE
  5
39
102
{ACAD_REACTORS
330
2A
102
}
330
2A
100
AcDbVisualStyle
  2
Facepattern
 70
    15
177
     2
291
     1
 71
     2
176
     1
 72
     2
176
     1
 73
     0
176
     1
 90
        0
176
     1
 40
-0.6
176
     1
 41
-30.0
176
     1
 62
     5
 63
     7
421
 16777215
176
     1
 74
     1
176
     1
 91
        4
176
     1
 64
     7
176
     1
 65
   257
176
     1
 75
     1
176
     1
175
     1
176
     1
 42
1.0
176
     1
 92
        8
176
     1
 66
     7
176
     1
 43
1.0
176
     1
 76
     1
176
     1
 77
     6
176
     1
 78
     2
176
     1
 67
     7
176
     1
 79
     5
176
     1
170
     0
176
     1
171
     0
176
     1
290
     0
176
     1
 93
        1
176
     1
 44
0.0
176
     1
173
     0
176
     1
  0
VISUALSTYLE
  5
2B
102
{ACAD_REACTORS
330
2A
102
}
330
2A
100
AcDbVisualStyle
  2
Flat
 70
     0
177
     2
291
     1
 71
     2
176
     1
 72
     1
176
     1
 73
     1
176
     1
 90
        2
176
     1
 40
-0.6
176
     1
 41
30.0
176
     1
 62
     5
 63
     7
421
 16777215
176
     1
 74
     0
176
     1
 91
        4
176
     1
 64
     7
176
     1
 65
   257
176
     1
 75
     1
176
     1
175
     1
176
     1
 42
1.0
176
     1
 92
        8
176
     1
 66
     7
176
     1
 43
1.0
176
     1
 76
     1
176
     1
 77
     6
176
     1
 78
     2
176
     1
 67
     7
176
     1
 79
     5
176
     1
170
     0
176
     1
171
     0
176
     1
290
     0
176
     1
 93
       13
176
     1
 44
0.0
176
     1
173
     0
176
     1
  0
VISUALSTYLE
  5
2C
102
{ACAD_REACTORS
330
2A
102
}
330
2A
100
AcDbVisualStyle
  2
FlatWithEdges
 70
     1
177
     2
291
     1
 71
     2
176
     1
 72
     1
176
     1
 73
     1
176
     1
 90
        2
176
     1
 40
-0.6
176
     1
 41
30.0
176
     1
 62
     5
 63
     7
421
 16777215
176
     1
 74
     1
176
     1
 91
        4
176
     1
 64
     7
176
     1
 65
   257
176
     1
 75
     1
176
     1
175
     1
176
     1
 42
1.0
176
     1
 92
        0
176
     1
 66
   257
176
     1
 43
1.0
176
     1
 76
     1
176
     1
 77
     6
176
     1
 78
     2
176
     1
 67
     7
176
     1
 79
     5
176
     1
170
     0
176
     1
171
     0
176
     1
290
     0
176
     1
 93
       13
176
     1
 44
0.0
176
     1
173
     0
176
     1
  0
VISUALSTYLE
  5
2D
102
{ACAD_REACTORS
330
2A
102
}
330
2A
100
AcDbVisualStyle
  2
Gouraud
 70
     2
177
     2
291
     1
 71
     2
176
     1
 72
     2
176
     1
 73
     1
176
     1
 90
        2
176
     1
 40
-0.6
176
     1
 41
30.0
176
     1
 62
     5
 63
     7
421
 16777215
176
     1
 74
     0
176
     1
 91
        4
176
     1
 64
     7
176
     1
 65
   257
176
     1
 75
     1
176
     1
175
     1
176
     1
 42
1.0
176
     1
 92
        0
176
     1
 66
     7
176
     1
 43
1.0
176
     1
 76
     1
176
     1
 77
     6
176
     1
 78
     2
176
     1
 67
     7
176
     1
 79
     5
176
     1
170
     0
176
     1
171
     0
176
     1
290
     0
176
     1
 93
       13
176
     1
 44
0.0
176
     1
173
     0
176
     1
  0
VISUALSTYLE
  5
2E
102
{ACAD_REACTORS
330
2A
102
}
330
2A
100
AcDbVisualStyle
  2
GouraudWithEdges
 70
     3
177
     2
291
     1
 71
     2
176
     1
 72
     2
176
     1
 73
     1
176
     1
 90
        2
176
     1
 40
-0.6
176
     1
 41
30.0
176
     1
 62
     5
 63
     7
421
 16777215
176
     1
 74
     1
176
     1
 91
        4
176
     1
 64
     7
176
     1
 65
   257
176
     1
 75
     1
176
     1
175
     1
176
     1
 42
1.0
176
     1
 92
        0
176
     1
 66
   257
176
     1
 43
1.0
176
     1
 76
     1
176
     1
 77
     6
176
     1
 78
     2
176
     1
 67
     7
176
     1
 79
     5
176
     1
170
     0
176
     1
171
     0
176
     1
290
     0
176
     1
 93
       13
176
     1
 44
0.0
176
     1
173
     0
176
     1
  0
VISUALSTYLE
  5
38
102
{ACAD_REACTORS
330
2A
102
}
330
2A
100
AcDbVisualStyle
  2
Linepattern
 70
    14
177
     2
291
     1
 71
     2
176
     1
 72
     2
176
     1
 73
     0
176
     1
 90
        0
176
     1
 40
-0.6
176
     1
 41
-30.0
176
     1
 62
     5
 63
     7
421
 16777215
176
     1
 74
     1
176
     1
 91
        4
176
     1
 64
     7
176
     1
 65
   257
176
     1
 75
     7
176
     1
175
     7
176
     1
 42
1.0
176
     1
 92
        8
176
     1
 66
     7
176
     1
 43
1.0
176
     1
 76
     1
176
     1
 77
     6
176
     1
 78
     2
176
     1
 67
     7
176
     1
 79
     5
176
     1
170
     0
176
     1
171
     0
176
     1
290
     0
176
     1
 93
        1
176
     1
 44
0.0
176
     1
173
     0
176
     1
  0
VISUALSTYLE
  5
33
102
{ACAD_REACTORS
330
2A
102
}
330
2A
100
AcDbVisualStyle
  2
Realistic
 70
     8
177
     2
291
     0
 71
     2
176
     1
 72
     2
176
     1
 73
     0
176
     1
 90
        0
176
     1
 40
-0.6
176
     1
 41
-30.0
176
     1
 62
     5
 63
     7
421
 16777215
176
     1
 74
     1
176
     1
 91
        0
176
     1
 64
     7
176
     1
 65
   257
176
     1
 75
     1
176
     1
175
     1
176
     1
 42
1.0
176
     1
 92
        8
176
     1
 66
     8
424
  7895160
176
     1
 43
1.0
176
     1
 76
     1
176
     1
 77
     6
176
     1
 78
     2
176
     1
 67
     7
176
     1
 79
     5
176
     1
170
     0
176
     1
171
     0
176
     1
290
     0
176
     1
 93
       13
176
     1
 44
0.0
176
     1
173
     0
176
     1
  0
VISUALSTYLE
  5
37
102
{ACAD_REACTORS
330
2A
102
}
330
2A
100
AcDbVisualStyle
  2
Thicken
 70
    13
177
     2
291
     1
 71
     2
176
     1
 72
     2
176
     1
 73
     0
176
     1
 90
        0
176
     1
 40
-0.6
176
     1
 41
-30.0
176
     1
 62
     5
 63
     7
421
 16777215
176
     1
 74
     1
176
     1
 91
        4
176
     1
 64
     7
176
     1
 65
   257
176
     1
 75
     1
176
     1
175
     1
176
     1
 42
1.0
176
     1
 92
       12
176
     1
 66
     7
176
     1
 43
1.0
176
     1
 76
     1
176
     1
 77
     6
176
     1
 78
     2
176
     1
 67
     7
176
     1
 79
     5
176
     1
170
     0
176
     1
171
     0
176
     1
290
     0
176
     1
 93
        1
176
     1
 44
0.0
176
     1
173
     0
176
     1
  0
ENDSEC
  0
EOF
