<?xml version="1.0" encoding="utf-8"?>
<!-- Generator: Adobe Illustrator 19.2.1, SVG Export Plug-In . SVG Version: 6.00 Build 0)  -->
<svg version="1.1" id="Layer_1" xmlns="http://www.w3.org/2000/svg" xmlns:xlink="http://www.w3.org/1999/xlink" x="0px" y="0px"
	 viewBox="0 0 100 125" style="enable-background:new 0 0 100 125;" xml:space="preserve">
<path d="M91.7,29.9l-11-9c0,0,0,0-0.1,0c0,0-0.1,0-0.1-0.1c-0.1,0-0.1,0-0.2-0.1c0,0,0,0-0.1,0l-41.1-0.8c-0.3,0-0.6,0.2-0.7,0.5
	c0,0.1-0.1,0.4-0.1,1l-3.8,0.1l-1.6-2.3c-0.1-0.2-0.3-0.3-0.5-0.3s-0.4,0-0.6,0.2L31,19.8l-1.7-1.7C29.1,18,28.9,18,28.7,18
	c-0.2,0-0.4,0.1-0.5,0.3l-2.7,3.4l-6.7,3.5c-0.3,0.2-0.5,0.5-0.4,0.8c0,0.2,0.1,0.9,0.2,2.1l-9.6,5.7c-0.3,0.2-0.4,0.6-0.3,0.9
	l2.5,5.5c0.1,0.3,0.4,0.4,0.6,0.4c0,0,0,0,0,0l7.7-0.2c0,0.2,0,0.5,0.1,0.7c0,0.4,0.3,0.7,0.7,0.7h10c0.1,0,0.2,0,0.3-0.1l4.6-1.8
	l10.8,7.8L49.9,59l-4,3.5c-0.2,0.2-0.3,0.5-0.2,0.8s0.4,0.5,0.7,0.5h8.2c0,0,0.1,0,0.1,0c0,0,0,0,0.1,0c0.1,0,0.1,0,0.2-0.1
	c0,0,0.1,0,0.1-0.1c0.1,0,0.1-0.1,0.1-0.2c0,0,0,0,0-0.1l3.5-6.6c0.1-0.1,0.1-0.2,0.1-0.3V48c4.4,0.1,9.3,0.1,13.7,0.1l2.5,10.5
	l-4,4c-0.2,0.2-0.3,0.5-0.2,0.8c0.1,0.3,0.4,0.4,0.7,0.4h8.1c0,0,0.1,0,0.1,0c0,0,0,0,0.1,0c0.1,0,0.1,0,0.2-0.1c0,0,0.1,0,0.1-0.1
	c0.1,0,0.1-0.1,0.1-0.2c0,0,0,0,0-0.1l3.7-6.7c0-0.1,0.1-0.1,0.1-0.2c1-5.4,1.4-7.8,1.5-8.9c0,0,0,0,0,0c0.3-0.5,3.3-10,4.2-12.9
	c0.1-0.2,0-0.4-0.1-0.6l-1-1.4l3.1-1.5c0.2-0.1,0.4-0.3,0.4-0.6S91.9,30,91.7,29.9z M35.3,28.6l2.7,0.5L45,45l-9-6.4L35.3,28.6z
	 M38.2,22.8c-0.1,1.2-0.2,2.8-0.3,4.8l-2.5-0.4l0.8-2.9c0.1-0.2,0-0.4-0.1-0.6l-0.6-0.9L38.2,22.8z M32.2,20.6l2.5,3.7l-0.7,2.4
	l-5-3.3L32.2,20.6z M28.8,19.7l1.1,1.1l-2,1.8L27,22L28.8,19.7z M12.4,39l-2.1-4.5l8.5-5c0.2,2.6,0.5,6.1,0.8,9.3L12.4,39z
	 M30.3,40.2h-9.2c-0.6-7.7-1-12.4-1.2-14.1l6-3.2l1.7,1.1c0,0,0,0,0,0l6.3,4.1l0.7,10.2L30.3,40.2z M50.7,60.2l2.2,2.2h-4.6
	L50.7,60.2z M57.3,56.2l-2.9,5.6l-3.1-3l-3.6-11c1.7,0,5.3,0.1,9.6,0.1L57.3,56.2L57.3,56.2z M75.7,59.8l2.3,2.5h-4.8L75.7,59.8z
	 M82.6,56.1l-3.1,5.7l-3.1-3.4l-2.5-10.3c1.1,0,2.2,0,3.2,0c0,0,0,0,0,0c3.8,0,5.8,0,6.9-0.1C83.7,49.7,83,53.5,82.6,56.1z
	 M84.2,46.6c-0.6,0.1-2.3,0.1-7.2,0.1c-10,0-26.9-0.3-29.9-0.3l-7.9-18.1c0.1-2.3,0.3-5.7,0.4-7l40.1,0.8l8.3,12.5
	C86.7,38.9,84.8,45.1,84.2,46.6z M87.7,31.4l-4.3-6.5l6.6,5.4L87.7,31.4z"/>
</svg>
