  0
SECTION
  2
HEADER
  9
$ACADVER
  1
AC1024
  9
$ACADMAINTVER
 70
     6
  9
$DWGCODEPAGE
  3
UNDEFINED
  9
$INSBASE
 10
0.0
 20
0.0
 30
0.0
  9
$EXTMIN
 10
1.000000000000000E+20
 20
1.000000000000000E+20
 30
1.000000000000000E+20
  9
$EXTMAX
 10
-1.000000000000000E+20
 20
-1.000000000000000E+20
 30
-1.000000000000000E+20
  9
$LIMMIN
 10
0.0
 20
0.0
  9
$LIMMAX
 10
12.0
 20
9.0
  9
$ORTHOMODE
 70
     0
  9
$REGENMODE
 70
     1
  9
$FILLMODE
 70
     1
  9
$QTEXTMODE
 70
     0
  9
$MIRRTEXT
 70
     1
  9
$LTSCALE
 40
1.0
  9
$ATTMODE
 70
     1
  9
$TEXTSIZE
 40
0.2
  9
$TRACEWID
 40
0.05
  9
$TEXTSTYLE
  7
Standard
  9
$CLAYER
  8
0
  9
$CELTYPE
  6
ByLayer
  9
$CECOLOR
 62
   256
  9
$CELTSCALE
 40
1.0
  9
$DISPSILH
 70
     0
  9
$DIMSCALE
 40
1.0
  9
$DIMASZ
 40
0.18
  9
$DIMEXO
 40
0.0625
  9
$DIMDLI
 40
0.38
  9
$DIMRND
 40
0.0
  9
$DIMDLE
 40
0.0
  9
$DIMEXE
 40
0.18
  9
$DIMTP
 40
0.0
  9
$DIMTM
 40
0.0
  9
$DIMTXT
 40
0.18
  9
$DIMCEN
 40
0.09
  9
$DIMTSZ
 40
0.0
  9
$DIMTOL
 70
     0
  9
$DIMLIM
 70
     0
  9
$DIMTIH
 70
     1
  9
$DIMTOH
 70
     1
  9
$DIMSE1
 70
     0
  9
$DIMSE2
 70
     0
  9
$DIMTAD
 70
     0
  9
$DIMZIN
 70
     0
  9
$DIMBLK
  1

  9
$DIMASO
 70
     1
  9
$DIMSHO
 70
     1
  9
$DIMPOST
  1

  9
$DIMAPOST
  1

  9
$DIMALT
 70
     0
  9
$DIMALTD
 70
     2
  9
$DIMALTF
 40
25.4
  9
$DIMLFAC
 40
1.0
  9
$DIMTOFL
 70
     0
  9
$DIMTVP
 40
0.0
  9
$DIMTIX
 70
     0
  9
$DIMSOXD
 70
     0
  9
$DIMSAH
 70
     0
  9
$DIMBLK1
  1

  9
$DIMBLK2
  1

  9
$DIMSTYLE
  2
Standard
  9
$DIMCLRD
 70
     0
  9
$DIMCLRE
 70
     0
  9
$DIMCLRT
 70
     0
  9
$DIMTFAC
 40
1.0
  9
$DIMGAP
 40
0.09
  9
$DIMJUST
 70
     0
  9
$DIMSD1
 70
     0
  9
$DIMSD2
 70
     0
  9
$DIMTOLJ
 70
     1
  9
$DIMTZIN
 70
     0
  9
$DIMALTZ
 70
     0
  9
$DIMALTTZ
 70
     0
  9
$DIMUPT
 70
     0
  9
$DIMDEC
 70
     4
  9
$DIMTDEC
 70
     4
  9
$DIMALTU
 70
     2
  9
$DIMALTTD
 70
     2
  9
$DIMTXSTY
  7
Standard
  9
$DIMAUNIT
 70
     0
  9
$DIMADEC
 70
     0
  9
$DIMALTRND
 40
0.0
  9
$DIMAZIN
 70
     0
  9
$DIMDSEP
 70
    46
  9
$DIMATFIT
 70
     3
  9
$DIMFRAC
 70
     0
  9
$DIMLDRBLK
  1

  9
$DIMLUNIT
 70
     2
  9
$DIMLWD
 70
    -2
  9
$DIMLWE
 70
    -2
  9
$DIMTMOVE
 70
     0
  9
$DIMFXL
 40
1.0
  9
$DIMFXLON
 70
     0
  9
$DIMJOGANG
 40
0.7853981633974483
  9
$DIMTFILL
 70
     0
  9
$DIMTFILLCLR
 70
     0
  9
$DIMARCSYM
 70
     0
  9
$DIMLTYPE
  6

  9
$DIMLTEX1
  6

  9
$DIMLTEX2
  6

  9
$DIMTXTDIRECTION
 70
     0
  9
$LUNITS
 70
     2
  9
$LUPREC
 70
     4
  9
$SKETCHINC
 40
0.1
  9
$FILLETRAD
 40
0.5
  9
$AUNITS
 70
     0
  9
$AUPREC
 70
     0
  9
$MENU
  1
.
  9
$ELEVATION
 40
0.0
  9
$PELEVATION
 40
0.0
  9
$THICKNESS
 40
0.0
  9
$LIMCHECK
 70
     0
  9
$CHAMFERA
 40
0.5
  9
$CHAMFERB
 40
0.5
  9
$CHAMFERC
 40
1.0
  9
$CHAMFERD
 40
0.0
  9
$SKPOLY
 70
     0
  9
$TDCREATE
 40
2457525.594027766
  9
$TDUCREATE
 40
2457525.802361111
  9
$TDUPDATE
 40
2457525.594027766
  9
$TDUUPDATE
 40
2457525.802361111
  9
$TDINDWG
 40
0.0000000116
  9
$TDUSRTIMER
 40
0.0000000116
  9
$USRTIMER
 70
     1
  9
$ANGBASE
 50
0.0
  9
$ANGDIR
 70
     0
  9
$PDMODE
 70
     0
  9
$PDSIZE
 40
0.0
  9
$PLINEWID
 40
0.0
  9
$SPLFRAME
 70
     0
  9
$SPLINETYPE
 70
     6
  9
$SPLINESEGS
 70
     8
  9
$HANDSEED
  5
62
  9
$SURFTAB1
 70
     6
  9
$SURFTAB2
 70
     6
  9
$SURFTYPE
 70
     6
  9
$SURFU
 70
     6
  9
$SURFV
 70
     6
  9
$UCSBASE
  2

  9
$UCSNAME
  2

  9
$UCSORG
 10
0.0
 20
0.0
 30
0.0
  9
$UCSXDIR
 10
1.0
 20
0.0
 30
0.0
  9
$UCSYDIR
 10
0.0
 20
1.0
 30
0.0
  9
$UCSORTHOREF
  2

  9
$UCSORTHOVIEW
 70
     0
  9
$UCSORGTOP
 10
0.0
 20
0.0
 30
0.0
  9
$UCSORGBOTTOM
 10
0.0
 20
0.0
 30
0.0
  9
$UCSORGLEFT
 10
0.0
 20
0.0
 30
0.0
  9
$UCSORGRIGHT
 10
0.0
 20
0.0
 30
0.0
  9
$UCSORGFRONT
 10
0.0
 20
0.0
 30
0.0
  9
$UCSORGBACK
 10
0.0
 20
0.0
 30
0.0
  9
$PUCSBASE
  2

  9
$PUCSNAME
  2

  9
$PUCSORG
 10
0.0
 20
0.0
 30
0.0
  9
$PUCSXDIR
 10
1.0
 20
0.0
 30
0.0
  9
$PUCSYDIR
 10
0.0
 20
1.0
 30
0.0
  9
$PUCSORTHOREF
  2

  9
$PUCSORTHOVIEW
 70
     0
  9
$PUCSORGTOP
 10
0.0
 20
0.0
 30
0.0
  9
$PUCSORGBOTTOM
 10
0.0
 20
0.0
 30
0.0
  9
$PUCSORGLEFT
 10
0.0
 20
0.0
 30
0.0
  9
$PUCSORGRIGHT
 10
0.0
 20
0.0
 30
0.0
  9
$PUCSORGFRONT
 10
0.0
 20
0.0
 30
0.0
  9
$PUCSORGBACK
 10
0.0
 20
0.0
 30
0.0
  9
$USERI1
 70
     0
  9
$USERI2
 70
     0
  9
$USERI3
 70
     0
  9
$USERI4
 70
     0
  9
$USERI5
 70
     0
  9
$USERR1
 40
0.0
  9
$USERR2
 40
0.0
  9
$USERR3
 40
0.0
  9
$USERR4
 40
0.0
  9
$USERR5
 40
0.0
  9
$WORLDVIEW
 70
     1
  9
$SHADEDGE
 70
     3
  9
$SHADEDIF
 70
    70
  9
$TILEMODE
 70
     1
  9
$MAXACTVP
 70
    64
  9
$PINSBASE
 10
0.0
 20
0.0
 30
0.0
  9
$PLIMCHECK
 70
     0
  9
$PEXTMIN
 10
1.000000000000000E+20
 20
1.000000000000000E+20
 30
1.000000000000000E+20
  9
$PEXTMAX
 10
-1.000000000000000E+20
 20
-1.000000000000000E+20
 30
-1.000000000000000E+20
  9
$PLIMMIN
 10
0.0
 20
0.0
  9
$PLIMMAX
 10
12.0
 20
9.0
  9
$UNITMODE
 70
     0
  9
$VISRETAIN
 70
     1
  9
$PLINEGEN
 70
     0
  9
$PSLTSCALE
 70
     1
  9
$TREEDEPTH
 70
  3020
  9
$CMLSTYLE
  2
Standard
  9
$CMLJUST
 70
     0
  9
$CMLSCALE
 40
1.0
  9
$PROXYGRAPHICS
 70
     1
  9
$MEASUREMENT
 70
     0
  9
$CELWEIGHT
370
    -1
  9
$ENDCAPS
280
     0
  9
$JOINSTYLE
280
     0
  9
$LWDISPLAY
290
     1
  9
$INSUNITS
 70
     1
  9
$HYPERLINKBASE
  1

  9
$STYLESHEET
  1

  9
$XEDIT
290
     1
  9
$CEPSNTYPE
380
     0
  9
$PSTYLEMODE
290
     1
  9
$FINGERPRINTGUID
  2
{D26A3C92-4395-B13C-5D80-17530738BB03}
  9
$VERSIONGUID
  2
{FAEB1C32-E019-11D5-929B-00C0DF256EC4}
  9
$EXTNAMES
290
     1
  9
$PSVPSCALE
 40
0.0
  9
$OLESTARTUP
290
     0
  9
$SORTENTS
280
   127
  9
$INDEXCTL
280
     0
  9
$HIDETEXT
280
     1
  9
$XCLIPFRAME
280
     2
  9
$HALOGAP
280
     0
  9
$OBSCOLOR
 70
   257
  9
$OBSLTYPE
280
     0
  9
$INTERSECTIONDISPLAY
280
     0
  9
$INTERSECTIONCOLOR
 70
   257
  9
$DIMASSOC
280
     2
  9
$PROJECTNAME
  1

  9
$CAMERADISPLAY
290
     0
  9
$LENSLENGTH
 40
50.0
  9
$CAMERAHEIGHT
 40
0.0
  9
$STEPSPERSEC
 40
2.0
  9
$STEPSIZE
 40
6.0
  9
$3DDWFPREC
 40
2.0
  9
$PSOLWIDTH
 40
0.25
  9
$PSOLHEIGHT
 40
4.0
  9
$LOFTANG1
 40
1.570796326794897
  9
$LOFTANG2
 40
1.570796326794897
  9
$LOFTMAG1
 40
0.0
  9
$LOFTMAG2
 40
0.0
  9
$LOFTPARAM
 70
     7
  9
$LOFTNORMALS
280
     1
  9
$LATITUDE
 40
37.795
  9
$LONGITUDE
 40
-122.394
  9
$NORTHDIRECTION
 40
0.0
  9
$TIMEZONE
 70
 -8000
  9
$LIGHTGLYPHDISPLAY
280
     1
  9
$TILEMODELIGHTSYNCH
280
     1
  9
$CMATERIAL
347
3C
  9
$SOLIDHIST
280
     1
  9
$SHOWHIST
280
     1
  9
$DWFFRAME
280
     2
  9
$DGNFRAME
280
     2
  9
$REALWORLDSCALE
290
     1
  9
$INTERFERECOLOR
 62
   256
  9
$CSHADOW
280
     0
  9
$SHADOWPLANELOCATION
 40
0.0
  0
ENDSEC
  0
SECTION
  2
CLASSES
  0
CLASS
  1
ACDBDICTIONARYWDFLT
  2
AcDbDictionaryWithDefault
  3
ObjectDBX Classes
 90
        0
 91
        4
280
     0
281
     0
  0
CLASS
  1
VISUALSTYLE
  2
AcDbVisualStyle
  3
ObjectDBX Classes
 90
     4095
 91
        4
280
     0
281
     0
  0
CLASS
  1
MATERIAL
  2
AcDbMaterial
  3
ObjectDBX Classes
 90
     1153
 91
        4
280
     0
281
     0
  0
CLASS
  1
SUN
  2
AcDbSun
  3
SCENEOE
 90
     1024
 91
        4
280
     0
281
     0
  0
ENDSEC
  0
SECTION
  2
TABLES
  0
TABLE
  2
VPORT
  5
8
330
0
100
AcDbSymbolTable
 70
     1
  0
VPORT
  5
29
330
8
100
AcDbSymbolTableRecord
100
AcDbViewportTableRecord
  2
*Active
 70
     0
 10
0.0
 20
0.0
 11
1.0
 21
1.0
 12
0.0
 22
0.0
 13
0.0
 23
0.0
 14
0.5
 24
0.5
 15
0.5
 25
0.5
 16
0.0
 26
0.0
 36
1.0
 17
50.0
 27
62.5
 37
0.0
 40
125.0
 41
0.8
 42
50.0
 43
0.0
 44
0.0
 50
0.0
 51
0.0
 71
     0
 72
   100
 73
     1
 74
     3
 75
     0
 76
     0
 77
     0
 78
     0
281
     0
 65
     1
110
0.0
120
0.0
130
0.0
111
1.0
121
0.0
131
0.0
112
0.0
122
1.0
132
0.0
 79
     0
146
0.0
 60
     3
 61
     5
292
     1
282
     1
141
0.0
142
0.0
 63
   250
361
3F
  0
ENDTAB
  0
TABLE
  2
LTYPE
  5
5
330
0
100
AcDbSymbolTable
 70
     1
  0
LTYPE
  5
14
330
5
100
AcDbSymbolTableRecord
100
AcDbLinetypeTableRecord
  2
ByBlock
 70
     0
  3

 72
    65
 73
     0
 40
0.0
  0
LTYPE
  5
15
330
5
100
AcDbSymbolTableRecord
100
AcDbLinetypeTableRecord
  2
ByLayer
 70
     0
  3

 72
    65
 73
     0
 40
0.0
  0
LTYPE
  5
16
330
5
100
AcDbSymbolTableRecord
100
AcDbLinetypeTableRecord
  2
Continuous
 70
     0
  3
Solid line
 72
    65
 73
     0
 40
0.0
  0
ENDTAB
  0
TABLE
  2
LAYER
  5
2
330
0
100
AcDbSymbolTable
 70
     2
  0
LAYER
  5
10
330
2
100
AcDbSymbolTableRecord
100
AcDbLayerTableRecord
  2
0
 70
     0
 62
     7
  6
Continuous
370
    -3
390
F
347
3E
  0
LAYER
  5
40
330
2
100
AcDbSymbolTableRecord
100
AcDbLayerTableRecord
  2
Layer 1
 70
     0
 62
     7
  6
Continuous
370
    -3
390
F
347
3E
  0
ENDTAB
  0
TABLE
  2
STYLE
  5
3
330
0
100
AcDbSymbolTable
 70
     1
  0
STYLE
  5
11
330
3
100
AcDbSymbolTableRecord
100
AcDbTextStyleTableRecord
  2
Standard
 70
     0
 40
0.0
 41
1.0
 50
0.0
 71
     0
 42
0.2
  3
txt
  4

  0
ENDTAB
  0
TABLE
  2
VIEW
  5
6
330
0
100
AcDbSymbolTable
 70
     0
  0
ENDTAB
  0
TABLE
  2
UCS
  5
7
330
0
100
AcDbSymbolTable
 70
     0
  0
ENDTAB
  0
TABLE
  2
APPID
  5
9
330
0
100
AcDbSymbolTable
 70
     1
  0
APPID
  5
12
330
9
100
AcDbSymbolTableRecord
100
AcDbRegAppTableRecord
  2
ACAD
 70
     0
  0
ENDTAB
  0
TABLE
  2
DIMSTYLE
  5
A
330
0
100
AcDbSymbolTable
 70
     1
100
AcDbDimStyleTable
  0
DIMSTYLE
105
27
330
A
100
AcDbSymbolTableRecord
100
AcDbDimStyleTableRecord
  2
Standard
 70
     0
178
     0
340
11
  0
ENDTAB
  0
TABLE
  2
BLOCK_RECORD
  5
1
330
0
100
AcDbSymbolTable
 70
     1
  0
BLOCK_RECORD
  5
1F
330
1
100
AcDbSymbolTableRecord
100
AcDbBlockTableRecord
  2
*Model_Space
340
22
 70
     0
280
     1
281
     0
  0
BLOCK_RECORD
  5
1B
330
1
100
AcDbSymbolTableRecord
100
AcDbBlockTableRecord
  2
*Paper_Space
340
1E
 70
     0
280
     1
281
     0
  0
BLOCK_RECORD
  5
23
330
1
100
AcDbSymbolTableRecord
100
AcDbBlockTableRecord
  2
*Paper_Space0
340
26
 70
     0
280
     1
281
     0
  0
ENDTAB
  0
ENDSEC
  0
SECTION
  2
BLOCKS
  0
BLOCK
  5
20
330
1F
100
AcDbEntity
  8
0
100
AcDbBlockBegin
  2
*Model_Space
 70
     0
 10
0.0
 20
0.0
 30
0.0
  3
*Model_Space
  1

  0
ENDBLK
  5
21
330
1F
100
AcDbEntity
  8
0
100
AcDbBlockEnd
  0
BLOCK
  5
1C
330
1B
100
AcDbEntity
 67
     1
  8
0
100
AcDbBlockBegin
  2
*Paper_Space
 70
     0
 10
0.0
 20
0.0
 30
0.0
  3
*Paper_Space
  1

  0
ENDBLK
  5
1D
330
1B
100
AcDbEntity
 67
     1
  8
0
100
AcDbBlockEnd
  0
BLOCK
  5
24
330
23
100
AcDbEntity
  8
0
100
AcDbBlockBegin
  2
*Paper_Space0
 70
     0
 10
0.0
 20
0.0
 30
0.0
  3
*Paper_Space0
  1

  0
ENDBLK
  5
25
330
23
100
AcDbEntity
  8
0
100
AcDbBlockEnd
  0
ENDSEC
  0
SECTION
  2
ENTITIES
  0
SPLINE
  5
41
330
1F
100
AcDbEntity
  8
Layer 1
370
     0
100
AcDbSpline
210
0.0
220
0.0
230
1.0
 70
    11
 71
     3
 72
   239
 73
   235
 74
     0
 42
0.0000000001
 43
0.0000000001
 12
1.0
 22
0.0
 32
0.0
 13
1.0
 23
0.0
 33
0.0
 40
0.0
 40
0.0
 40
0.0
 40
0.0
 40
1.0
 40
1.0
 40
1.0
 40
2.0
 40
2.0
 40
2.0
 40
3.0
 40
3.0
 40
3.0
 40
4.0
 40
4.0
 40
4.0
 40
5.0
 40
5.0
 40
5.0
 40
6.0
 40
6.0
 40
6.0
 40
7.0
 40
7.0
 40
7.0
 40
8.0
 40
8.0
 40
8.0
 40
9.0
 40
9.0
 40
9.0
 40
10.0
 40
10.0
 40
10.0
 40
11.0
 40
11.0
 40
11.0
 40
12.0
 40
12.0
 40
12.0
 40
13.0
 40
13.0
 40
13.0
 40
14.0
 40
14.0
 40
14.0
 40
15.0
 40
15.0
 40
15.0
 40
16.0
 40
16.0
 40
16.0
 40
17.0
 40
17.0
 40
17.0
 40
18.0
 40
18.0
 40
18.0
 40
19.0
 40
19.0
 40
19.0
 40
20.0
 40
20.0
 40
20.0
 40
21.0
 40
21.0
 40
21.0
 40
22.0
 40
22.0
 40
22.0
 40
23.0
 40
23.0
 40
23.0
 40
24.0
 40
24.0
 40
24.0
 40
25.0
 40
25.0
 40
25.0
 40
26.0
 40
26.0
 40
26.0
 40
27.0
 40
27.0
 40
27.0
 40
28.0
 40
28.0
 40
28.0
 40
29.0
 40
29.0
 40
29.0
 40
30.0
 40
30.0
 40
30.0
 40
31.0
 40
31.0
 40
31.0
 40
32.0
 40
32.0
 40
32.0
 40
33.0
 40
33.0
 40
33.0
 40
34.0
 40
34.0
 40
34.0
 40
35.0
 40
35.0
 40
35.0
 40
36.0
 40
36.0
 40
36.0
 40
37.0
 40
37.0
 40
37.0
 40
38.0
 40
38.0
 40
38.0
 40
39.0
 40
39.0
 40
39.0
 40
40.0
 40
40.0
 40
40.0
 40
41.0
 40
41.0
 40
41.0
 40
42.0
 40
42.0
 40
42.0
 40
43.0
 40
43.0
 40
43.0
 40
44.0
 40
44.0
 40
44.0
 40
45.0
 40
45.0
 40
45.0
 40
46.0
 40
46.0
 40
46.0
 40
47.0
 40
47.0
 40
47.0
 40
48.0
 40
48.0
 40
48.0
 40
49.0
 40
49.0
 40
49.0
 40
50.0
 40
50.0
 40
50.0
 40
51.0
 40
51.0
 40
51.0
 40
52.0
 40
52.0
 40
52.0
 40
53.0
 40
53.0
 40
53.0
 40
54.0
 40
54.0
 40
54.0
 40
55.0
 40
55.0
 40
55.0
 40
56.0
 40
56.0
 40
56.0
 40
57.0
 40
57.0
 40
57.0
 40
58.0
 40
58.0
 40
58.0
 40
59.0
 40
59.0
 40
59.0
 40
60.0
 40
60.0
 40
60.0
 40
61.0
 40
61.0
 40
61.0
 40
62.0
 40
62.0
 40
62.0
 40
63.0
 40
63.0
 40
63.0
 40
64.0
 40
64.0
 40
64.0
 40
65.0
 40
65.0
 40
65.0
 40
66.0
 40
66.0
 40
66.0
 40
67.0
 40
67.0
 40
67.0
 40
68.0
 40
68.0
 40
68.0
 40
69.0
 40
69.0
 40
69.0
 40
70.0
 40
70.0
 40
70.0
 40
71.0
 40
71.0
 40
71.0
 40
72.0
 40
72.0
 40
72.0
 40
73.0
 40
73.0
 40
73.0
 40
74.0
 40
74.0
 40
74.0
 40
75.0
 40
75.0
 40
75.0
 40
76.0
 40
76.0
 40
76.0
 40
77.0
 40
77.0
 40
77.0
 40
78.0
 40
78.0
 40
78.0
 40
78.0
 10
73.89698515755299
 20
112.2655931917106
 30
0.0
 10
73.89698515755299
 20
112.2685839143669
 30
0.0
 10
73.89497099739674
 20
112.2705980745231
 30
0.0
 10
73.89497099739674
 20
112.2735887971794
 30
0.0
 10
73.88798247200612
 20
112.3805834260856
 30
0.0
 10
73.85297880989674
 20
112.4825731721794
 30
0.0
 10
73.79996977669362
 20
112.5755907503044
 30
0.0
 10
73.78596220833424
 20
112.6015917268669
 30
0.0
 10
73.76597319466237
 20
112.6205736604606
 30
0.0
 10
73.74796782356862
 20
112.6445604768669
 30
0.0
 10
73.70097075325612
 20
112.7065721956169
 30
0.0
 10
73.64695463997487
 20
112.7605883088981
 30
0.0
 10
73.58198271614674
 20
112.8055712190544
 30
0.0
 10
73.56498442513112
 20
112.8165575471794
 30
0.0
 10
73.55799589974049
 20
112.8356005159294
 30
0.0
 10
73.53999052864674
 20
112.8455492463981
 30
0.0
 10
73.53999052864674
 20
112.8455492463981
 30
0.0
 10
66.48298369270924
 20
116.8765551057731
 30
0.0
 10
66.48298369270924
 20
116.8765551057731
 30
0.0
 10
66.28498564583424
 20
116.9905687776481
 30
0.0
 10
66.04298125130299
 20
117.0005785432731
 30
0.0
 10
65.83399687630299
 20
116.9035326448356
 30
0.0
 10
65.83399687630299
 20
116.9035326448356
 30
0.0
 10
38.77299223763112
 20
104.3695970979606
 30
0.0
 10
38.77299223763112
 20
104.3695970979606
 30
0.0
 10
38.77299223763112
 20
104.3695970979606
 30
0.0
 10
11.71099577767018
 20
116.9035936799919
 30
0.0
 10
11.71099577767018
 20
116.9035936799919
 30
0.0
 10
11.50199614388112
 20
117.0005785432731
 30
0.0
 10
11.25999174934987
 20
116.9905687776481
 30
0.0
 10
11.06199370247487
 20
116.8766161409294
 30
0.0
 10
11.06199370247487
 20
116.8766161409294
 30
0.0
 10
4.00599394661549
 20
112.8456102815544
 30
0.0
 10
4.00599394661549
 20
112.8456102815544
 30
0.0
 10
3.98798857552174
 20
112.8356005159294
 30
0.0
 10
3.981000050131115
 20
112.8166185823356
 30
0.0
 10
3.963986500326428
 20
112.8056322542106
 30
0.0
 10
3.898984058920178
 20
112.7606493440544
 30
0.0
 10
3.845990284506115
 20
112.7076097932731
 30
0.0
 10
3.798993214193615
 20
112.6456591096794
 30
0.0
 10
3.780987843099865
 20
112.6216722932731
 30
0.0
 10
3.759991749349865
 20
112.6016527620231
 30
0.0
 10
3.744992359701428
 20
112.5746752229606
 30
0.0
 10
3.692990406576428
 20
112.4816576448356
 30
0.0
 10
3.657986744467053
 20
112.3816820588981
 30
0.0
 10
3.650998219076428
 20
112.2736498323356
 30
0.0
 10
3.650998219076428
 20
112.2706591096794
 30
0.0
 10
3.64899931770924
 20
112.2686449495231
 30
0.0
 10
3.64899931770924
 20
112.2656542268669
 30
0.0
 10
3.647992237631115
 20
112.2496630159294
 30
0.0
 10
3.658002003256115
 20
112.2376390901481
 30
0.0
 10
3.658002003256115
 20
112.2216478792106
 30
0.0
 10
3.65900908333424
 20
112.1486498323356
 30
0.0
 10
3.66199980599049
 20
112.0756517854606
 30
0.0
 10
3.686001881185803
 20
112.0026537385856
 30
0.0
 10
3.686001881185803
 20
112.0026537385856
 30
0.0
 10
9.734006031576428
 20
94.1466356721794
 30
0.0
 10
9.734006031576428
 20
94.1466356721794
 30
0.0
 10
9.807004078451428
 20
93.9286180940544
 30
0.0
 10
9.982998951498303
 20
93.75961174639815
 30
0.0
 10
10.20400725227955
 20
93.6946093049919
 30
0.0
 10
10.20400725227955
 20
93.6946093049919
 30
0.0
 10
15.53300200325612
 20
92.1206346956169
 30
0.0
 10
15.53300200325612
 20
92.1206346956169
 30
0.0
 10
15.53300200325612
 20
92.1206346956169
 30
0.0
 10
12.87400542122487
 20
88.7666307893669
 30
0.0
 10
12.87400542122487
 20
88.7666307893669
 30
0.0
 10
12.73100005013112
 20
88.5856005159294
 30
0.0
 10
12.68501005989674
 20
88.34762444171065
 30
0.0
 10
12.75001250130299
 20
88.1256395784294
 30
0.0
 10
12.75001250130299
 20
88.1256395784294
 30
0.0
 10
15.63001738411549
 20
78.3336473909294
 30
0.0
 10
15.63001738411549
 20
78.3336473909294
 30
0.0
 10
15.6490145764983
 20
78.2706591096794
 30
0.0
 10
15.67701445442799
 20
78.2086473909294
 30
0.0
 10
15.71201811653737
 20
78.1516405549919
 30
0.0
 10
15.71201811653737
 20
78.1516405549919
 30
0.0
 10
19.0240145764983
 20
72.96664299639815
 30
0.0
 10
19.0240145764983
 20
72.96664299639815
 30
0.0
 10
19.05401335579518
 20
72.92062248858565
 30
0.0
 10
19.09402190071705
 20
72.88363518389815
 30
0.0
 10
19.13300810677174
 20
72.84567131671065
 30
0.0
 10
19.14600859505299
 20
72.8326708284294
 30
0.0
 10
19.15501128059987
 20
72.8166796174919
 30
0.0
 10
19.1700106702483
 20
72.80465569171065
 30
0.0
 10
19.23200713020924
 20
72.75363030108565
 30
0.0
 10
19.3000155530608
 20
72.71163811358565
 30
0.0
 10
19.37600432259205
 20
72.68368401202315
 30
0.0
 10
19.37600432259205
 20
72.68368401202315
 30
0.0
 10
24.84901152474049
 20
70.66769280108565
 30
0.0
 10
24.84901152474049
 20
70.66769280108565
 30
0.0
 10
24.86501799446705
 20
70.66171135577315
 30
0.0
 10
24.88001738411549
 20
70.66366448077315
 30
0.0
 10
24.89600859505299
 20
70.6587206331169
 30
0.0
 10
24.91401396614674
 20
70.6537157503044
 30
0.0
 10
24.92800627571705
 20
70.6427294221794
 30
0.0
 10
24.9460116468108
 20
70.6387011018669
 30
0.0
 10
24.99601469856862
 20
70.6286913362419
 30
0.0
 10
25.04601775032643
 20
70.6227098909294
 30
0.0
 10
25.09400664192799
 20
70.6227098909294
 30
0.0
 10
25.21799956184987
 20
70.6227098909294
 30
0.0
 10
25.33601103645924
 20
70.66171135577315
 30
0.0
 10
25.44300566536549
 20
70.7217089143669
 30
0.0
 10
25.45400725227955
 20
70.72872795733565
 30
0.0
 10
25.46400175911549
 20
70.7317186799919
 30
0.0
 10
25.47500334602955
 20
70.73873772296065
 30
0.0
 10
25.57301054817799
 20
70.80074944171065
 30
0.0
 10
25.65000639778737
 20
70.88973869952315
 30
0.0
 10
25.70800505501393
 20
70.9957567659294
 30
0.0
 10
25.71300993782643
 20
71.0067430940544
 30
0.0
 10
25.72601042610768
 20
71.0107714143669
 30
0.0
 10
25.73000822884205
 20
71.0207811799919
 30
0.0
 10
25.73000822884205
 20
71.0207811799919
 30
0.0
 10
35.69300566536549
 20
91.3847948518669
 30
0.0
 10
35.69300566536549
 20
91.3847948518669
 30
0.0
 10
35.69300566536549
 20
91.3847948518669
 30
0.0
 10
34.42701445442799
 20
85.06478752764815
 30
0.0
 10
34.42701445442799
 20
85.06478752764815
 30
0.0
 10
34.38801298958424
 20
84.8697802034294
 30
0.0
 10
34.43400297981862
 20
84.6667772737419
 30
0.0
 10
34.55201445442799
 20
84.5057665315544
 30
0.0
 10
34.55201445442799
 20
84.5057665315544
 30
0.0
 10
38.20200835091237
 20
79.5517870393669
 30
0.0
 10
38.20200835091237
 20
79.5517870393669
 30
0.0
 10
38.21799956184987
 20
79.5307909456169
 30
0.0
 10
38.24299345833424
 20
79.5217577424919
 30
0.0
 10
38.26099882942799
 20
79.50179924639815
 30
0.0
 10
38.29200468880299
 20
79.4687792268669
 30
0.0
 10
38.31498442513112
 20
79.42977776202315
 30
0.0
 10
38.35300932747487
 20
79.4007860628044
 30
0.0
 10
38.37501250130299
 20
79.38375725421065
 30
0.0
 10
38.40202055794362
 20
79.37777580889815
 30
0.0
 10
38.42600737434987
 20
79.36276116046065
 30
0.0
 10
38.44901762825612
 20
79.3497606721794
 30
0.0
 10
38.47102080208424
 20
79.33773674639815
 30
0.0
 10
38.49500761849049
 20
79.32675041827315
 30
0.0
 10
38.58500395638112
 20
79.2887255159294
 30
0.0
 10
38.67802153450612
 20
79.2627245393669
 30
0.0
 10
38.77100859505299
 20
79.2627245393669
 30
0.0
 10
38.77100859505299
 20
79.2627245393669
 30
0.0
 10
38.77299223763112
 20
79.2627245393669
 30
0.0
 10
38.77299223763112
 20
79.2627245393669
 30
0.0
 10
38.77299223763112
 20
79.2627245393669
 30
0.0
 10
38.77399931770924
 20
79.2627245393669
 30
0.0
 10
38.77399931770924
 20
79.2627245393669
 30
0.0
 10
38.86799345833424
 20
79.2627245393669
 30
0.0
 10
38.96101103645924
 20
79.2887255159294
 30
0.0
 10
39.05000029427174
 20
79.32675041827315
 30
0.0
 10
39.07398711067799
 20
79.33773674639815
 30
0.0
 10
39.09599028450612
 20
79.3497606721794
 30
0.0
 10
39.11900053841237
 20
79.36276116046065
 30
0.0
 10
39.14298735481862
 20
79.37777580889815
 30
0.0
 10
39.16999541145924
 20
79.38375725421065
 30
0.0
 10
39.19199858528737
 20
79.4007860628044
 30
0.0
 10
39.22999297005299
 20
79.42880119952315
 30
0.0
 10
39.25300322395924
 20
79.4678026643669
 30
0.0
 10
39.28400908333424
 20
79.50179924639815
 30
0.0
 10
39.30201445442799
 20
79.52181877764815
 30
0.0
 10
39.32700835091237
 20
79.5298143831169
 30
0.0
 10
39.34299956184987
 20
79.5517870393669
 30
0.0
 10
39.34299956184987
 20
79.5517870393669
 30
0.0
 10
42.99299345833424
 20
84.5057665315544
 30
0.0
 10
42.99299345833424
 20
84.5057665315544
 30
0.0
 10
43.11100493294362
 20
84.66573967608565
 30
0.0
 10
43.15699492317799
 20
84.86874260577315
 30
0.0
 10
43.11799345833424
 20
85.06478752764815
 30
0.0
 10
43.11799345833424
 20
85.06478752764815
 30
0.0
 10
41.85200224739674
 20
91.38180412921065
 30
0.0
 10
41.85200224739674
 20
91.38180412921065
 30
0.0
 10
41.85200224739674
 20
91.38180412921065
 30
0.0
 10
51.81501494270924
 20
71.0207811799919
 30
0.0
 10
51.81501494270924
 20
71.0207811799919
 30
0.0
 10
51.82001982552174
 20
71.0097948518669
 30
0.0
 10
51.83302031380299
 20
71.0057665315544
 30
0.0
 10
51.83701811653737
 20
70.9957567659294
 30
0.0
 10
51.89600859505299
 20
70.8907762971794
 30
0.0
 10
51.97300444466237
 20
70.80074944171065
 30
0.0
 10
52.07001982552174
 20
70.73873772296065
 30
0.0
 10
52.08100615364674
 20
70.7317186799919
 30
0.0
 10
52.09101591927174
 20
70.72872795733565
 30
0.0
 10
52.10203276497487
 20
70.7217089143669
 30
0.0
 10
52.20802031380299
 20
70.66171135577315
 30
0.0
 10
52.32703886849049
 20
70.6227098909294
 30
0.0
 10
52.45103178841237
 20
70.6227098909294
 30
0.0
 10
52.50004301888112
 20
70.6227098909294
 30
0.0
 10
52.55003081184987
 20
70.6286913362419
 30
0.0
 10
52.59904204231862
 20
70.6387011018669
 30
0.0
 10
52.61805449349049
 20
70.6427294221794
 30
0.0
 10
52.63105498177174
 20
70.6537157503044
 30
0.0
 10
52.64902983528737
 20
70.6587206331169
 30
0.0
 10
52.66502104622487
 20
70.6637255159294
 30
0.0
 10
52.68003569466237
 20
70.66171135577315
 30
0.0
 10
52.69602690559987
 20
70.66769280108565
 30
0.0
 10
52.69602690559987
 20
70.66769280108565
 30
0.0
 10
58.16901884895924
 20
72.68368401202315
 30
0.0
 10
58.16901884895924
 20
72.68368401202315
 30
0.0
 10
58.24500761849049
 20
72.7116991487419
 30
0.0
 10
58.31400786263112
 20
72.75265373858565
 30
0.0
 10
58.37501250130299
 20
72.80465569171065
 30
0.0
 10
58.39002714974049
 20
72.8166796174919
 30
0.0
 10
58.39899931770924
 20
72.8326708284294
 30
0.0
 10
58.41300688606862
 20
72.84664787921065
 30
0.0
 10
58.45200835091237
 20
72.88363518389815
 30
0.0
 10
58.49201689583424
 20
72.92062248858565
 30
0.0
 10
58.52100859505299
 20
72.96664299639815
 30
0.0
 10
58.52100859505299
 20
72.96664299639815
 30
0.0
 10
61.83302031380299
 20
78.1516405549919
 30
0.0
 10
61.83302031380299
 20
78.1516405549919
 30
0.0
 10
61.86802397591237
 20
78.2086473909294
 30
0.0
 10
61.89600859505299
 20
78.26962151202315
 30
0.0
 10
61.91502104622487
 20
78.3336473909294
 30
0.0
 10
61.91502104622487
 20
78.3336473909294
 30
0.0
 10
64.79502592903737
 20
88.1256395784294
 30
0.0
 10
64.79502592903737
 20
88.1256395784294
 30
0.0
 10
64.86002837044362
 20
88.34762444171065
 30
0.0
 10
64.81403838020924
 20
88.58566155108565
 30
0.0
 10
64.67103300911549
 20
88.7666307893669
 30
0.0
 10
64.67103300911549
 20
88.7666307893669
 30
0.0
 10
62.01203642708424
 20
92.1206346956169
 30
0.0
 10
62.01203642708424
 20
92.1206346956169
 30
0.0
 10
62.01203642708424
 20
92.1206346956169
 30
0.0
 10
67.34104643684987
 20
93.6946093049919
 30
0.0
 10
67.34104643684987
 20
93.6946093049919
 30
0.0
 10
67.56205473763112
 20
93.75961174639815
 30
0.0
 10
67.73704253059987
 20
93.9286180940544
 30
0.0
 10
67.81104765755299
 20
94.1466356721794
 30
0.0
 10
67.81104765755299
 20
94.1466356721794
 30
0.0
 10
73.85905180794362
 20
112.0026537385856
 30
0.0
 10
73.85905180794362
 20
112.0026537385856
 30
0.0
 10
73.88303862434987
 20
112.0756517854606
 30
0.0
 10
73.88605986458424
 20
112.1486498323356
 30
0.0
 10
73.88706694466237
 20
112.2216478792106
 30
0.0
 10
73.88798247200612
 20
112.2366014924919
 30
0.0
 10
73.89799223763112
 20
112.2496019807731
 30
0.0
 10
73.89698515755299
 20
112.2655931917106
 30
0.0
  0
POLYLINE
  5
42
330
1F
100
AcDbEntity
  8
Layer 1
370
     0
100
AcDb2dPolyline
 66
     1
 10
0.0
 20
0.0
 30
0.0
  0
VERTEX
  5
43
330
42
100
AcDbEntity
  8
Layer 1
370
     0
100
AcDbVertex
100
AcDb2dVertex
 10
66.09800444466237
 20
115.4645678010856
 30
0.0
  0
VERTEX
  5
44
330
42
100
AcDbEntity
  8
Layer 1
370
     0
100
AcDbVertex
100
AcDb2dVertex
 10
71.87400542122487
 20
112.1645800081169
 30
0.0
  0
VERTEX
  5
45
330
42
100
AcDbEntity
  8
Layer 1
370
     0
100
AcDbVertex
100
AcDb2dVertex
 10
55.82200346809987
 20
100.7465502229606
 30
0.0
  0
VERTEX
  5
46
330
42
100
AcDbEntity
  8
Layer 1
370
     0
100
AcDbVertex
100
AcDb2dVertex
 10
41.00999174934987
 20
103.8455492463981
 30
0.0
  0
VERTEX
  5
47
330
42
100
AcDbEntity
  8
Layer 1
370
     0
100
AcDbVertex
100
AcDb2dVertex
 10
66.09800444466237
 20
115.4645678010856
 30
0.0
  0
SEQEND
  5
48
330
42
100
AcDbEntity
  8
Layer 1
370
     0
  0
POLYLINE
  5
49
330
1F
100
AcDbEntity
  8
Layer 1
370
     0
100
AcDb2dPolyline
 66
     1
 10
0.0
 20
0.0
 30
0.0
  0
VERTEX
  5
4A
330
49
100
AcDbEntity
  8
Layer 1
370
     0
100
AcDbVertex
100
AcDb2dVertex
 10
11.4469882093108
 20
115.4645678010856
 30
0.0
  0
VERTEX
  5
4B
330
49
100
AcDbEntity
  8
Layer 1
370
     0
100
AcDbVertex
100
AcDb2dVertex
 10
36.53498564583424
 20
103.8455492463981
 30
0.0
  0
VERTEX
  5
4C
330
49
100
AcDbEntity
  8
Layer 1
370
     0
100
AcDbVertex
100
AcDb2dVertex
 10
21.7229891858733
 20
100.7465502229606
 30
0.0
  0
VERTEX
  5
4D
330
49
100
AcDbEntity
  8
Layer 1
370
     0
100
AcDbVertex
100
AcDb2dVertex
 10
5.670987232748303
 20
112.1645800081169
 30
0.0
  0
VERTEX
  5
4E
330
49
100
AcDbEntity
  8
Layer 1
370
     0
100
AcDbVertex
100
AcDb2dVertex
 10
11.4469882093108
 20
115.4645678010856
 30
0.0
  0
SEQEND
  5
4F
330
49
100
AcDbEntity
  8
Layer 1
370
     0
  0
SPLINE
  5
50
330
1F
100
AcDbEntity
  8
Layer 1
370
     0
100
AcDbSpline
210
0.0
220
0.0
230
1.0
 70
    11
 71
     3
 72
    26
 73
    22
 74
     0
 42
0.0000000001
 43
0.0000000001
 12
1.0
 22
0.0
 32
0.0
 13
1.0
 23
0.0
 33
0.0
 40
0.0
 40
0.0
 40
0.0
 40
0.0
 40
1.0
 40
1.0
 40
1.0
 40
2.0
 40
2.0
 40
2.0
 40
3.0
 40
3.0
 40
3.0
 40
4.0
 40
4.0
 40
4.0
 40
5.0
 40
5.0
 40
5.0
 40
6.0
 40
6.0
 40
6.0
 40
7.0
 40
7.0
 40
7.0
 40
7.0
 10
5.72999297005299
 20
110.3835741487419
 30
0.0
 10
5.72999297005299
 20
110.3835741487419
 30
0.0
 10
21.15398894173268
 20
99.41256584796065
 30
0.0
 10
21.15398894173268
 20
99.41256584796065
 30
0.0
 10
21.2749911389983
 20
99.3265673128044
 30
0.0
 10
21.41898833138112
 20
99.2805468049919
 30
0.0
 10
21.56498442513112
 20
99.2805468049919
 30
0.0
 10
21.6139803968108
 20
99.2805468049919
 30
0.0
 10
21.66198454720143
 20
99.2855516878044
 30
0.0
 10
21.71098051888112
 20
99.2965380159294
 30
0.0
 10
21.71098051888112
 20
99.2965380159294
 30
0.0
 10
34.84199248177174
 20
102.0435472932731
 30
0.0
 10
34.84199248177174
 20
102.0435472932731
 30
0.0
 10
34.84199248177174
 20
102.0435472932731
 30
0.0
 10
16.67998991829518
 20
93.2585741487419
 30
0.0
 10
16.67998991829518
 20
93.2585741487419
 30
0.0
 10
16.67998991829518
 20
93.2585741487419
 30
0.0
 10
10.95899687630299
 20
94.94857659014815
 30
0.0
 10
10.95899687630299
 20
94.94857659014815
 30
0.0
 10
10.95899687630299
 20
94.94857659014815
 30
0.0
 10
5.72999297005299
 20
110.3835741487419
 30
0.0
 10
5.72999297005299
 20
110.3835741487419
 30
0.0
  0
SPLINE
  5
51
330
1F
100
AcDbEntity
  8
Layer 1
370
     0
100
AcDbSpline
210
0.0
220
0.0
230
1.0
 70
    11
 71
     3
 72
    35
 73
    31
 74
     0
 42
0.0000000001
 43
0.0000000001
 12
1.0
 22
0.0
 32
0.0
 13
1.0
 23
0.0
 33
0.0
 40
0.0
 40
0.0
 40
0.0
 40
0.0
 40
1.0
 40
1.0
 40
1.0
 40
2.0
 40
2.0
 40
2.0
 40
3.0
 40
3.0
 40
3.0
 40
4.0
 40
4.0
 40
4.0
 40
5.0
 40
5.0
 40
5.0
 40
6.0
 40
6.0
 40
6.0
 40
7.0
 40
7.0
 40
7.0
 40
8.0
 40
8.0
 40
8.0
 40
9.0
 40
9.0
 40
9.0
 40
10.0
 40
10.0
 40
10.0
 40
10.0
 10
14.21198759895924
 20
88.17355217608565
 30
0.0
 10
14.21198759895924
 20
88.17355217608565
 30
0.0
 10
17.19598112923268
 20
91.9355761018669
 30
0.0
 10
17.19598112923268
 20
91.9355761018669
 30
0.0
 10
17.19598112923268
 20
91.9355761018669
 30
0.0
 10
34.07096587044362
 20
100.0965868440544
 30
0.0
 10
34.07096587044362
 20
100.0965868440544
 30
0.0
 10
34.07096587044362
 20
100.0965868440544
 30
0.0
 10
24.00796233040455
 20
89.3876024690544
 30
0.0
 10
24.00796233040455
 20
89.3876024690544
 30
0.0
 10
24.00596342903737
 20
89.38558830889815
 30
0.0
 10
24.00596342903737
 20
89.3835741487419
 30
0.0
 10
24.00495634895924
 20
89.3816210237419
 30
0.0
 10
23.98295317513112
 20
89.35861076983565
 30
0.0
 10
23.97195158821705
 20
89.3255907503044
 30
0.0
 10
23.95295439583424
 20
89.29965080889815
 30
0.0
 10
23.91795073372487
 20
89.24862541827315
 30
0.0
 10
23.87995634895924
 20
89.19967522296065
 30
0.0
 10
23.85896025520924
 20
89.14364494952315
 30
0.0
 10
23.85896025520924
 20
89.1406542268669
 30
0.0
 10
23.85696135384205
 20
89.13961662921065
 30
0.0
 10
23.85595427376393
 20
89.13766350421065
 30
0.0
 10
23.72794829231862
 20
88.7756639924919
 30
0.0
 10
20.59695158821705
 20
78.8216845003044
 30
0.0
 10
19.39895354134205
 20
75.01168694171065
 30
0.0
 10
19.39895354134205
 20
75.01168694171065
 30
0.0
 10
16.95995818001393
 20
78.83065666827315
 30
0.0
 10
16.95995818001393
 20
78.83065666827315
 30
0.0
 10
16.95995818001393
 20
78.83065666827315
 30
0.0
 10
14.21198759895924
 20
88.17355217608565
 30
0.0
 10
14.21198759895924
 20
88.17355217608565
 30
0.0
  0
SPLINE
  5
52
330
1F
100
AcDbEntity
  8
Layer 1
370
     0
100
AcDbSpline
210
0.0
220
0.0
230
1.0
 70
    11
 71
     3
 72
    14
 73
    10
 74
     0
 42
0.0000000001
 43
0.0000000001
 12
1.0
 22
0.0
 32
0.0
 13
1.0
 23
0.0
 33
0.0
 40
0.0
 40
0.0
 40
0.0
 40
0.0
 40
1.0
 40
1.0
 40
1.0
 40
2.0
 40
2.0
 40
2.0
 40
3.0
 40
3.0
 40
3.0
 40
3.0
 10
23.95098601204518
 20
84.74655022296065
 30
0.0
 10
23.95098601204518
 20
84.74655022296065
 30
0.0
 10
24.35097990852955
 20
72.36154045733565
 30
0.0
 10
24.35097990852955
 20
72.36154045733565
 30
0.0
 10
24.35097990852955
 20
72.36154045733565
 30
0.0
 10
20.49897490364674
 20
73.7805468049919
 30
0.0
 10
20.49897490364674
 20
73.7805468049919
 30
0.0
 10
21.37499724251393
 20
76.5665575471794
 30
0.0
 10
22.8789950452483
 20
81.35055412921065
 30
0.0
 10
23.95098601204518
 20
84.74655022296065
 30
0.0
  0
SPLINE
  5
53
330
1F
100
AcDbEntity
  8
Layer 1
370
     0
100
AcDbSpline
210
0.0
220
0.0
230
1.0
 70
    11
 71
     3
 72
    23
 73
    19
 74
     0
 42
0.0000000001
 43
0.0000000001
 12
1.0
 22
0.0
 32
0.0
 13
1.0
 23
0.0
 33
0.0
 40
0.0
 40
0.0
 40
0.0
 40
0.0
 40
1.0
 40
1.0
 40
1.0
 40
2.0
 40
2.0
 40
2.0
 40
3.0
 40
3.0
 40
3.0
 40
4.0
 40
4.0
 40
4.0
 40
5.0
 40
5.0
 40
5.0
 40
6.0
 40
6.0
 40
6.0
 40
6.0
 10
36.57398711067799
 20
96.41256584796065
 30
0.0
 10
36.57398711067799
 20
96.41256584796065
 30
0.0
 10
25.70998869759205
 20
74.20553459796065
 30
0.0
 10
25.70998869759205
 20
74.20553459796065
 30
0.0
 10
25.70998869759205
 20
74.20553459796065
 30
0.0
 10
25.24299345833424
 20
88.63155998858565
 30
0.0
 10
25.24299345833424
 20
88.63155998858565
 30
0.0
 10
25.24299345833424
 20
88.63155998858565
 30
0.0
 10
37.63798247200612
 20
101.8205858674919
 30
0.0
 10
37.63798247200612
 20
101.8205858674919
 30
0.0
 10
37.63798247200612
 20
101.8205858674919
 30
0.0
 10
37.79899321419362
 20
101.8985887971794
 30
0.0
 10
37.79899321419362
 20
101.8985887971794
 30
0.0
 10
37.79899321419362
 20
101.8985887971794
 30
0.0
 10
36.74400053841237
 20
96.6335741487419
 30
0.0
 10
36.74400053841237
 20
96.6335741487419
 30
0.0
 10
36.67500029427174
 20
96.57357659014815
 30
0.0
 10
36.61698637825612
 20
96.49960198077315
 30
0.0
 10
36.57398711067799
 20
96.41256584796065
 30
0.0
  0
POLYLINE
  5
54
330
1F
100
AcDbEntity
  8
Layer 1
370
     0
100
AcDb2dPolyline
 66
     1
 10
0.0
 20
0.0
 30
0.0
  0
VERTEX
  5
55
330
54
100
AcDbEntity
  8
Layer 1
370
     0
100
AcDbVertex
100
AcDb2dVertex
 10
38.77299223763112
 20
81.16757073077315
 30
0.0
  0
VERTEX
  5
56
330
54
100
AcDbEntity
  8
Layer 1
370
     0
100
AcDbVertex
100
AcDb2dVertex
 10
35.87897978645924
 20
85.09554924639815
 30
0.0
  0
VERTEX
  5
57
330
54
100
AcDbEntity
  8
Layer 1
370
     0
100
AcDbVertex
100
AcDb2dVertex
 10
38.77299223763112
 20
99.54659905108565
 30
0.0
  0
VERTEX
  5
58
330
54
100
AcDbEntity
  8
Layer 1
370
     0
100
AcDbVertex
100
AcDb2dVertex
 10
41.66700468880299
 20
85.0956102815544
 30
0.0
  0
VERTEX
  5
59
330
54
100
AcDbEntity
  8
Layer 1
370
     0
100
AcDbVertex
100
AcDb2dVertex
 10
38.77299223763112
 20
81.16757073077315
 30
0.0
  0
SEQEND
  5
5A
330
54
100
AcDbEntity
  8
Layer 1
370
     0
  0
SPLINE
  5
5B
330
1F
100
AcDbEntity
  8
Layer 1
370
     0
100
AcDbSpline
210
0.0
220
0.0
230
1.0
 70
    11
 71
     3
 72
    23
 73
    19
 74
     0
 42
0.0000000001
 43
0.0000000001
 12
1.0
 22
0.0
 32
0.0
 13
1.0
 23
0.0
 33
0.0
 40
0.0
 40
0.0
 40
0.0
 40
0.0
 40
1.0
 40
1.0
 40
1.0
 40
2.0
 40
2.0
 40
2.0
 40
3.0
 40
3.0
 40
3.0
 40
4.0
 40
4.0
 40
4.0
 40
5.0
 40
5.0
 40
5.0
 40
6.0
 40
6.0
 40
6.0
 40
6.0
 10
39.74799834114674
 20
101.8995653596794
 30
0.0
 10
39.74799834114674
 20
101.8995653596794
 30
0.0
 10
39.90699492317799
 20
101.8225389924919
 30
0.0
 10
39.90699492317799
 20
101.8225389924919
 30
0.0
 10
39.90699492317799
 20
101.8225389924919
 30
0.0
 10
52.30299101692799
 20
88.63155998858565
 30
0.0
 10
52.30299101692799
 20
88.63155998858565
 30
0.0
 10
52.30299101692799
 20
88.63155998858565
 30
0.0
 10
51.83698759895924
 20
74.2065721956169
 30
0.0
 10
51.83698759895924
 20
74.2065721956169
 30
0.0
 10
51.83698759895924
 20
74.2065721956169
 30
0.0
 10
40.97199736458424
 20
96.41354241046065
 30
0.0
 10
40.97199736458424
 20
96.41354241046065
 30
0.0
 10
40.92899809700612
 20
96.4995409456169
 30
0.0
 10
40.87098418099049
 20
96.5735155549919
 30
0.0
 10
40.80299101692799
 20
96.63351311358565
 30
0.0
 10
40.80299101692799
 20
96.63351311358565
 30
0.0
 10
39.74799834114674
 20
101.8995653596794
 30
0.0
 10
39.74799834114674
 20
101.8995653596794
 30
0.0
  0
SPLINE
  5
5C
330
1F
100
AcDbEntity
  8
Layer 1
370
     0
100
AcDbSpline
210
0.0
220
0.0
230
1.0
 70
    11
 71
     3
 72
    14
 73
    10
 74
     0
 42
0.0000000001
 43
0.0000000001
 12
1.0
 22
0.0
 32
0.0
 13
1.0
 23
0.0
 33
0.0
 40
0.0
 40
0.0
 40
0.0
 40
0.0
 40
1.0
 40
1.0
 40
1.0
 40
2.0
 40
2.0
 40
2.0
 40
3.0
 40
3.0
 40
3.0
 40
3.0
 10
53.59400664192799
 20
84.74655022296065
 30
0.0
 10
54.66599760872487
 20
81.35055412921065
 30
0.0
 10
56.17100249153737
 20
76.56551994952315
 30
0.0
 10
57.04600249153737
 20
73.7805468049919
 30
0.0
 10
57.04600249153737
 20
73.7805468049919
 30
0.0
 10
53.19401274544362
 20
72.36154045733565
 30
0.0
 10
53.19401274544362
 20
72.36154045733565
 30
0.0
 10
53.19401274544362
 20
72.36154045733565
 30
0.0
 10
53.59400664192799
 20
84.74655022296065
 30
0.0
 10
53.59400664192799
 20
84.74655022296065
 30
0.0
  0
SPLINE
  5
5D
330
1F
100
AcDbEntity
  8
Layer 1
370
     0
100
AcDbSpline
210
0.0
220
0.0
230
1.0
 70
    11
 71
     3
 72
    35
 73
    31
 74
     0
 42
0.0000000001
 43
0.0000000001
 12
1.0
 22
0.0
 32
0.0
 13
1.0
 23
0.0
 33
0.0
 40
0.0
 40
0.0
 40
0.0
 40
0.0
 40
1.0
 40
1.0
 40
1.0
 40
2.0
 40
2.0
 40
2.0
 40
3.0
 40
3.0
 40
3.0
 40
4.0
 40
4.0
 40
4.0
 40
5.0
 40
5.0
 40
5.0
 40
6.0
 40
6.0
 40
6.0
 40
7.0
 40
7.0
 40
7.0
 40
8.0
 40
8.0
 40
8.0
 40
9.0
 40
9.0
 40
9.0
 40
10.0
 40
10.0
 40
10.0
 40
10.0
 10
60.58500395638112
 20
78.8305956331169
 30
0.0
 10
60.58500395638112
 20
78.8305956331169
 30
0.0
 10
58.14600859505299
 20
75.01058830889815
 30
0.0
 10
58.14600859505299
 20
75.01058830889815
 30
0.0
 10
56.94801054817799
 20
78.8215624299919
 30
0.0
 10
53.81602202278737
 20
88.77560295733565
 30
0.0
 10
53.68800078255299
 20
89.1376024690544
 30
0.0
 10
53.68699370247487
 20
89.13961662921065
 30
0.0
 10
53.68501005989674
 20
89.14059319171065
 30
0.0
 10
53.68501005989674
 20
89.1435839143669
 30
0.0
 10
53.66401396614674
 20
89.1996141878044
 30
0.0
 10
53.62699614388112
 20
89.2475878206169
 30
0.0
 10
53.59299956184987
 20
89.29659905108565
 30
0.0
 10
53.57301054817799
 20
89.32357659014815
 30
0.0
 10
53.56199370247487
 20
89.35861076983565
 30
0.0
 10
53.53901396614674
 20
89.3816210237419
 30
0.0
 10
53.53800688606862
 20
89.38363518389815
 30
0.0
 10
53.53800688606862
 20
89.3856493440544
 30
0.0
 10
53.53602324349049
 20
89.3876024690544
 30
0.0
 10
53.53602324349049
 20
89.3876024690544
 30
0.0
 10
43.47202788216237
 20
100.0976244417106
 30
0.0
 10
43.47202788216237
 20
100.0976244417106
 30
0.0
 10
43.47202788216237
 20
100.0976244417106
 30
0.0
 10
60.34904204231862
 20
91.93563713702315
 30
0.0
 10
60.34904204231862
 20
91.93563713702315
 30
0.0
 10
60.34904204231862
 20
91.93563713702315
 30
0.0
 10
63.33305083138112
 20
88.1736132112419
 30
0.0
 10
63.33305083138112
 20
88.1736132112419
 30
0.0
 10
63.33305083138112
 20
88.1736132112419
 30
0.0
 10
60.58500395638112
 20
78.8305956331169
 30
0.0
 10
60.58500395638112
 20
78.8305956331169
 30
0.0
  0
SPLINE
  5
5E
330
1F
100
AcDbEntity
  8
Layer 1
370
     0
100
AcDbSpline
210
0.0
220
0.0
230
1.0
 70
    11
 71
     3
 72
    26
 73
    22
 74
     0
 42
0.0000000001
 43
0.0000000001
 12
1.0
 22
0.0
 32
0.0
 13
1.0
 23
0.0
 33
0.0
 40
0.0
 40
0.0
 40
0.0
 40
0.0
 40
1.0
 40
1.0
 40
1.0
 40
2.0
 40
2.0
 40
2.0
 40
3.0
 40
3.0
 40
3.0
 40
4.0
 40
4.0
 40
4.0
 40
5.0
 40
5.0
 40
5.0
 40
6.0
 40
6.0
 40
6.0
 40
7.0
 40
7.0
 40
7.0
 40
7.0
 10
66.58698759895924
 20
94.94857659014815
 30
0.0
 10
66.58698759895924
 20
94.94857659014815
 30
0.0
 10
60.86597929817799
 20
93.2585741487419
 30
0.0
 10
60.86597929817799
 20
93.2585741487419
 30
0.0
 10
60.86597929817799
 20
93.2585741487419
 30
0.0
 10
42.70399199349049
 20
102.0435472932731
 30
0.0
 10
42.70399199349049
 20
102.0435472932731
 30
0.0
 10
42.70399199349049
 20
102.0435472932731
 30
0.0
 10
55.83500395638112
 20
99.2965380159294
 30
0.0
 10
55.83500395638112
 20
99.2965380159294
 30
0.0
 10
55.88401518684987
 20
99.2855516878044
 30
0.0
 10
55.93198881966237
 20
99.2805468049919
 30
0.0
 10
55.98100005013112
 20
99.2805468049919
 30
0.0
 10
56.12699614388112
 20
99.2805468049919
 30
0.0
 10
56.27100859505299
 20
99.3265673128044
 30
0.0
 10
56.39201079231862
 20
99.41256584796065
 30
0.0
 10
56.39201079231862
 20
99.41256584796065
 30
0.0
 10
71.81602202278737
 20
110.3835741487419
 30
0.0
 10
71.81602202278737
 20
110.3835741487419
 30
0.0
 10
71.81602202278737
 20
110.3835741487419
 30
0.0
 10
66.58698759895924
 20
94.94857659014815
 30
0.0
 10
66.58698759895924
 20
94.94857659014815
 30
0.0
  0
HATCH
  5
5F
330
1F
100
AcDbEntity
  8
Layer 1
 62
     7
420
 16777215
100
AcDbHatch
 10
0.0
 20
0.0
 30
0.0
210
0.0
220
0.0
230
1.0
  2
SOLID
 70
     1
 71
     0
 91
       12
 92
        1
 93
        1
 72
     4
 94
        3
 73
     0
 74
     1
 95
      239
 96
      235
 40
0.0
 40
0.0
 40
0.0
 40
0.0
 40
1.0
 40
1.0
 40
1.0
 40
2.0
 40
2.0
 40
2.0
 40
3.0
 40
3.0
 40
3.0
 40
4.0
 40
4.0
 40
4.0
 40
5.0
 40
5.0
 40
5.0
 40
6.0
 40
6.0
 40
6.0
 40
7.0
 40
7.0
 40
7.0
 40
8.0
 40
8.0
 40
8.0
 40
9.0
 40
9.0
 40
9.0
 40
10.0
 40
10.0
 40
10.0
 40
11.0
 40
11.0
 40
11.0
 40
12.0
 40
12.0
 40
12.0
 40
13.0
 40
13.0
 40
13.0
 40
14.0
 40
14.0
 40
14.0
 40
15.0
 40
15.0
 40
15.0
 40
16.0
 40
16.0
 40
16.0
 40
17.0
 40
17.0
 40
17.0
 40
18.0
 40
18.0
 40
18.0
 40
19.0
 40
19.0
 40
19.0
 40
20.0
 40
20.0
 40
20.0
 40
21.0
 40
21.0
 40
21.0
 40
22.0
 40
22.0
 40
22.0
 40
23.0
 40
23.0
 40
23.0
 40
24.0
 40
24.0
 40
24.0
 40
25.0
 40
25.0
 40
25.0
 40
26.0
 40
26.0
 40
26.0
 40
27.0
 40
27.0
 40
27.0
 40
28.0
 40
28.0
 40
28.0
 40
29.0
 40
29.0
 40
29.0
 40
30.0
 40
30.0
 40
30.0
 40
31.0
 40
31.0
 40
31.0
 40
32.0
 40
32.0
 40
32.0
 40
33.0
 40
33.0
 40
33.0
 40
34.0
 40
34.0
 40
34.0
 40
35.0
 40
35.0
 40
35.0
 40
36.0
 40
36.0
 40
36.0
 40
37.0
 40
37.0
 40
37.0
 40
38.0
 40
38.0
 40
38.0
 40
39.0
 40
39.0
 40
39.0
 40
40.0
 40
40.0
 40
40.0
 40
41.0
 40
41.0
 40
41.0
 40
42.0
 40
42.0
 40
42.0
 40
43.0
 40
43.0
 40
43.0
 40
44.0
 40
44.0
 40
44.0
 40
45.0
 40
45.0
 40
45.0
 40
46.0
 40
46.0
 40
46.0
 40
47.0
 40
47.0
 40
47.0
 40
48.0
 40
48.0
 40
48.0
 40
49.0
 40
49.0
 40
49.0
 40
50.0
 40
50.0
 40
50.0
 40
51.0
 40
51.0
 40
51.0
 40
52.0
 40
52.0
 40
52.0
 40
53.0
 40
53.0
 40
53.0
 40
54.0
 40
54.0
 40
54.0
 40
55.0
 40
55.0
 40
55.0
 40
56.0
 40
56.0
 40
56.0
 40
57.0
 40
57.0
 40
57.0
 40
58.0
 40
58.0
 40
58.0
 40
59.0
 40
59.0
 40
59.0
 40
60.0
 40
60.0
 40
60.0
 40
61.0
 40
61.0
 40
61.0
 40
62.0
 40
62.0
 40
62.0
 40
63.0
 40
63.0
 40
63.0
 40
64.0
 40
64.0
 40
64.0
 40
65.0
 40
65.0
 40
65.0
 40
66.0
 40
66.0
 40
66.0
 40
67.0
 40
67.0
 40
67.0
 40
68.0
 40
68.0
 40
68.0
 40
69.0
 40
69.0
 40
69.0
 40
70.0
 40
70.0
 40
70.0
 40
71.0
 40
71.0
 40
71.0
 40
72.0
 40
72.0
 40
72.0
 40
73.0
 40
73.0
 40
73.0
 40
74.0
 40
74.0
 40
74.0
 40
75.0
 40
75.0
 40
75.0
 40
76.0
 40
76.0
 40
76.0
 40
77.0
 40
77.0
 40
77.0
 40
78.0
 40
78.0
 40
78.0
 40
78.0
 10
73.89698515755299
 20
112.2655931917106
 10
73.89698515755299
 20
112.2685839143669
 10
73.89497099739674
 20
112.2705980745231
 10
73.89497099739674
 20
112.2735887971794
 10
73.88798247200612
 20
112.3805834260856
 10
73.85297880989674
 20
112.4825731721794
 10
73.79996977669362
 20
112.5755907503044
 10
73.78596220833424
 20
112.6015917268669
 10
73.76597319466237
 20
112.6205736604606
 10
73.74796782356862
 20
112.6445604768669
 10
73.70097075325612
 20
112.7065721956169
 10
73.64695463997487
 20
112.7605883088981
 10
73.58198271614674
 20
112.8055712190544
 10
73.56498442513112
 20
112.8165575471794
 10
73.55799589974049
 20
112.8356005159294
 10
73.53999052864674
 20
112.8455492463981
 10
73.53999052864674
 20
112.8455492463981
 10
66.48298369270924
 20
116.8765551057731
 10
66.48298369270924
 20
116.8765551057731
 10
66.28498564583424
 20
116.9905687776481
 10
66.04298125130299
 20
117.0005785432731
 10
65.83399687630299
 20
116.9035326448356
 10
65.83399687630299
 20
116.9035326448356
 10
38.77299223763112
 20
104.3695970979606
 10
38.77299223763112
 20
104.3695970979606
 10
38.77299223763112
 20
104.3695970979606
 10
11.71099577767018
 20
116.9035936799919
 10
11.71099577767018
 20
116.9035936799919
 10
11.50199614388112
 20
117.0005785432731
 10
11.25999174934987
 20
116.9905687776481
 10
11.06199370247487
 20
116.8766161409294
 10
11.06199370247487
 20
116.8766161409294
 10
4.00599394661549
 20
112.8456102815544
 10
4.00599394661549
 20
112.8456102815544
 10
3.98798857552174
 20
112.8356005159294
 10
3.981000050131115
 20
112.8166185823356
 10
3.963986500326428
 20
112.8056322542106
 10
3.898984058920178
 20
112.7606493440544
 10
3.845990284506115
 20
112.7076097932731
 10
3.798993214193615
 20
112.6456591096794
 10
3.780987843099865
 20
112.6216722932731
 10
3.759991749349865
 20
112.6016527620231
 10
3.744992359701428
 20
112.5746752229606
 10
3.692990406576428
 20
112.4816576448356
 10
3.657986744467053
 20
112.3816820588981
 10
3.650998219076428
 20
112.2736498323356
 10
3.650998219076428
 20
112.2706591096794
 10
3.64899931770924
 20
112.2686449495231
 10
3.64899931770924
 20
112.2656542268669
 10
3.647992237631115
 20
112.2496630159294
 10
3.658002003256115
 20
112.2376390901481
 10
3.658002003256115
 20
112.2216478792106
 10
3.65900908333424
 20
112.1486498323356
 10
3.66199980599049
 20
112.0756517854606
 10
3.686001881185803
 20
112.0026537385856
 10
3.686001881185803
 20
112.0026537385856
 10
9.734006031576428
 20
94.1466356721794
 10
9.734006031576428
 20
94.1466356721794
 10
9.807004078451428
 20
93.9286180940544
 10
9.982998951498303
 20
93.75961174639815
 10
10.20400725227955
 20
93.6946093049919
 10
10.20400725227955
 20
93.6946093049919
 10
15.53300200325612
 20
92.1206346956169
 10
15.53300200325612
 20
92.1206346956169
 10
15.53300200325612
 20
92.1206346956169
 10
12.87400542122487
 20
88.7666307893669
 10
12.87400542122487
 20
88.7666307893669
 10
12.73100005013112
 20
88.5856005159294
 10
12.68501005989674
 20
88.34762444171065
 10
12.75001250130299
 20
88.1256395784294
 10
12.75001250130299
 20
88.1256395784294
 10
15.63001738411549
 20
78.3336473909294
 10
15.63001738411549
 20
78.3336473909294
 10
15.6490145764983
 20
78.2706591096794
 10
15.67701445442799
 20
78.2086473909294
 10
15.71201811653737
 20
78.1516405549919
 10
15.71201811653737
 20
78.1516405549919
 10
19.0240145764983
 20
72.96664299639815
 10
19.0240145764983
 20
72.96664299639815
 10
19.05401335579518
 20
72.92062248858565
 10
19.09402190071705
 20
72.88363518389815
 10
19.13300810677174
 20
72.84567131671065
 10
19.14600859505299
 20
72.8326708284294
 10
19.15501128059987
 20
72.8166796174919
 10
19.1700106702483
 20
72.80465569171065
 10
19.23200713020924
 20
72.75363030108565
 10
19.3000155530608
 20
72.71163811358565
 10
19.37600432259205
 20
72.68368401202315
 10
19.37600432259205
 20
72.68368401202315
 10
24.84901152474049
 20
70.66769280108565
 10
24.84901152474049
 20
70.66769280108565
 10
24.86501799446705
 20
70.66171135577315
 10
24.88001738411549
 20
70.66366448077315
 10
24.89600859505299
 20
70.6587206331169
 10
24.91401396614674
 20
70.6537157503044
 10
24.92800627571705
 20
70.6427294221794
 10
24.9460116468108
 20
70.6387011018669
 10
24.99601469856862
 20
70.6286913362419
 10
25.04601775032643
 20
70.6227098909294
 10
25.09400664192799
 20
70.6227098909294
 10
25.21799956184987
 20
70.6227098909294
 10
25.33601103645924
 20
70.66171135577315
 10
25.44300566536549
 20
70.7217089143669
 10
25.45400725227955
 20
70.72872795733565
 10
25.46400175911549
 20
70.7317186799919
 10
25.47500334602955
 20
70.73873772296065
 10
25.57301054817799
 20
70.80074944171065
 10
25.65000639778737
 20
70.88973869952315
 10
25.70800505501393
 20
70.9957567659294
 10
25.71300993782643
 20
71.0067430940544
 10
25.72601042610768
 20
71.0107714143669
 10
25.73000822884205
 20
71.0207811799919
 10
25.73000822884205
 20
71.0207811799919
 10
35.69300566536549
 20
91.3847948518669
 10
35.69300566536549
 20
91.3847948518669
 10
35.69300566536549
 20
91.3847948518669
 10
34.42701445442799
 20
85.06478752764815
 10
34.42701445442799
 20
85.06478752764815
 10
34.38801298958424
 20
84.8697802034294
 10
34.43400297981862
 20
84.6667772737419
 10
34.55201445442799
 20
84.5057665315544
 10
34.55201445442799
 20
84.5057665315544
 10
38.20200835091237
 20
79.5517870393669
 10
38.20200835091237
 20
79.5517870393669
 10
38.21799956184987
 20
79.5307909456169
 10
38.24299345833424
 20
79.5217577424919
 10
38.26099882942799
 20
79.50179924639815
 10
38.29200468880299
 20
79.4687792268669
 10
38.31498442513112
 20
79.42977776202315
 10
38.35300932747487
 20
79.4007860628044
 10
38.37501250130299
 20
79.38375725421065
 10
38.40202055794362
 20
79.37777580889815
 10
38.42600737434987
 20
79.36276116046065
 10
38.44901762825612
 20
79.3497606721794
 10
38.47102080208424
 20
79.33773674639815
 10
38.49500761849049
 20
79.32675041827315
 10
38.58500395638112
 20
79.2887255159294
 10
38.67802153450612
 20
79.2627245393669
 10
38.77100859505299
 20
79.2627245393669
 10
38.77100859505299
 20
79.2627245393669
 10
38.77299223763112
 20
79.2627245393669
 10
38.77299223763112
 20
79.2627245393669
 10
38.77299223763112
 20
79.2627245393669
 10
38.77399931770924
 20
79.2627245393669
 10
38.77399931770924
 20
79.2627245393669
 10
38.86799345833424
 20
79.2627245393669
 10
38.96101103645924
 20
79.2887255159294
 10
39.05000029427174
 20
79.32675041827315
 10
39.07398711067799
 20
79.33773674639815
 10
39.09599028450612
 20
79.3497606721794
 10
39.11900053841237
 20
79.36276116046065
 10
39.14298735481862
 20
79.37777580889815
 10
39.16999541145924
 20
79.38375725421065
 10
39.19199858528737
 20
79.4007860628044
 10
39.22999297005299
 20
79.42880119952315
 10
39.25300322395924
 20
79.4678026643669
 10
39.28400908333424
 20
79.50179924639815
 10
39.30201445442799
 20
79.52181877764815
 10
39.32700835091237
 20
79.5298143831169
 10
39.34299956184987
 20
79.5517870393669
 10
39.34299956184987
 20
79.5517870393669
 10
42.99299345833424
 20
84.5057665315544
 10
42.99299345833424
 20
84.5057665315544
 10
43.11100493294362
 20
84.66573967608565
 10
43.15699492317799
 20
84.86874260577315
 10
43.11799345833424
 20
85.06478752764815
 10
43.11799345833424
 20
85.06478752764815
 10
41.85200224739674
 20
91.38180412921065
 10
41.85200224739674
 20
91.38180412921065
 10
41.85200224739674
 20
91.38180412921065
 10
51.81501494270924
 20
71.0207811799919
 10
51.81501494270924
 20
71.0207811799919
 10
51.82001982552174
 20
71.0097948518669
 10
51.83302031380299
 20
71.0057665315544
 10
51.83701811653737
 20
70.9957567659294
 10
51.89600859505299
 20
70.8907762971794
 10
51.97300444466237
 20
70.80074944171065
 10
52.07001982552174
 20
70.73873772296065
 10
52.08100615364674
 20
70.7317186799919
 10
52.09101591927174
 20
70.72872795733565
 10
52.10203276497487
 20
70.7217089143669
 10
52.20802031380299
 20
70.66171135577315
 10
52.32703886849049
 20
70.6227098909294
 10
52.45103178841237
 20
70.6227098909294
 10
52.50004301888112
 20
70.6227098909294
 10
52.55003081184987
 20
70.6286913362419
 10
52.59904204231862
 20
70.6387011018669
 10
52.61805449349049
 20
70.6427294221794
 10
52.63105498177174
 20
70.6537157503044
 10
52.64902983528737
 20
70.6587206331169
 10
52.66502104622487
 20
70.6637255159294
 10
52.68003569466237
 20
70.66171135577315
 10
52.69602690559987
 20
70.66769280108565
 10
52.69602690559987
 20
70.66769280108565
 10
58.16901884895924
 20
72.68368401202315
 10
58.16901884895924
 20
72.68368401202315
 10
58.24500761849049
 20
72.7116991487419
 10
58.31400786263112
 20
72.75265373858565
 10
58.37501250130299
 20
72.80465569171065
 10
58.39002714974049
 20
72.8166796174919
 10
58.39899931770924
 20
72.8326708284294
 10
58.41300688606862
 20
72.84664787921065
 10
58.45200835091237
 20
72.88363518389815
 10
58.49201689583424
 20
72.92062248858565
 10
58.52100859505299
 20
72.96664299639815
 10
58.52100859505299
 20
72.96664299639815
 10
61.83302031380299
 20
78.1516405549919
 10
61.83302031380299
 20
78.1516405549919
 10
61.86802397591237
 20
78.2086473909294
 10
61.89600859505299
 20
78.26962151202315
 10
61.91502104622487
 20
78.3336473909294
 10
61.91502104622487
 20
78.3336473909294
 10
64.79502592903737
 20
88.1256395784294
 10
64.79502592903737
 20
88.1256395784294
 10
64.86002837044362
 20
88.34762444171065
 10
64.81403838020924
 20
88.58566155108565
 10
64.67103300911549
 20
88.7666307893669
 10
64.67103300911549
 20
88.7666307893669
 10
62.01203642708424
 20
92.1206346956169
 10
62.01203642708424
 20
92.1206346956169
 10
62.01203642708424
 20
92.1206346956169
 10
67.34104643684987
 20
93.6946093049919
 10
67.34104643684987
 20
93.6946093049919
 10
67.56205473763112
 20
93.75961174639815
 10
67.73704253059987
 20
93.9286180940544
 10
67.81104765755299
 20
94.1466356721794
 10
67.81104765755299
 20
94.1466356721794
 10
73.85905180794362
 20
112.0026537385856
 10
73.85905180794362
 20
112.0026537385856
 10
73.88303862434987
 20
112.0756517854606
 10
73.88605986458424
 20
112.1486498323356
 10
73.88706694466237
 20
112.2216478792106
 10
73.88798247200612
 20
112.2366014924919
 10
73.89799223763112
 20
112.2496019807731
 10
73.89698515755299
 20
112.2655931917106
 97
        0
 97
        0
 92
        1
 93
        4
 72
     1
 10
66.09800444466237
 20
115.4645678010856
 11
71.87400542122487
 21
112.1645800081169
 72
     1
 10
71.87400542122487
 20
112.1645800081169
 11
55.82200346809987
 21
100.7465502229606
 72
     1
 10
55.82200346809987
 20
100.7465502229606
 11
41.00999174934987
 21
103.8455492463981
 72
     1
 10
41.00999174934987
 20
103.8455492463981
 11
66.09800444466237
 21
115.4645678010856
 97
        0
 92
        1
 93
        4
 72
     1
 10
11.4469882093108
 20
115.4645678010856
 11
36.53498564583424
 21
103.8455492463981
 72
     1
 10
36.53498564583424
 20
103.8455492463981
 11
21.7229891858733
 21
100.7465502229606
 72
     1
 10
21.7229891858733
 20
100.7465502229606
 11
5.670987232748303
 21
112.1645800081169
 72
     1
 10
5.670987232748303
 20
112.1645800081169
 11
11.4469882093108
 21
115.4645678010856
 97
        0
 92
        1
 93
        1
 72
     4
 94
        3
 73
     0
 74
     1
 95
       26
 96
       22
 40
0.0
 40
0.0
 40
0.0
 40
0.0
 40
1.0
 40
1.0
 40
1.0
 40
2.0
 40
2.0
 40
2.0
 40
3.0
 40
3.0
 40
3.0
 40
4.0
 40
4.0
 40
4.0
 40
5.0
 40
5.0
 40
5.0
 40
6.0
 40
6.0
 40
6.0
 40
7.0
 40
7.0
 40
7.0
 40
7.0
 10
5.72999297005299
 20
110.3835741487419
 10
5.72999297005299
 20
110.3835741487419
 10
21.15398894173268
 20
99.41256584796065
 10
21.15398894173268
 20
99.41256584796065
 10
21.2749911389983
 20
99.3265673128044
 10
21.41898833138112
 20
99.2805468049919
 10
21.56498442513112
 20
99.2805468049919
 10
21.6139803968108
 20
99.2805468049919
 10
21.66198454720143
 20
99.2855516878044
 10
21.71098051888112
 20
99.2965380159294
 10
21.71098051888112
 20
99.2965380159294
 10
34.84199248177174
 20
102.0435472932731
 10
34.84199248177174
 20
102.0435472932731
 10
34.84199248177174
 20
102.0435472932731
 10
16.67998991829518
 20
93.2585741487419
 10
16.67998991829518
 20
93.2585741487419
 10
16.67998991829518
 20
93.2585741487419
 10
10.95899687630299
 20
94.94857659014815
 10
10.95899687630299
 20
94.94857659014815
 10
10.95899687630299
 20
94.94857659014815
 10
5.72999297005299
 20
110.3835741487419
 10
5.72999297005299
 20
110.3835741487419
 97
        0
 97
        0
 92
        1
 93
        1
 72
     4
 94
        3
 73
     0
 74
     1
 95
       35
 96
       31
 40
0.0
 40
0.0
 40
0.0
 40
0.0
 40
1.0
 40
1.0
 40
1.0
 40
2.0
 40
2.0
 40
2.0
 40
3.0
 40
3.0
 40
3.0
 40
4.0
 40
4.0
 40
4.0
 40
5.0
 40
5.0
 40
5.0
 40
6.0
 40
6.0
 40
6.0
 40
7.0
 40
7.0
 40
7.0
 40
8.0
 40
8.0
 40
8.0
 40
9.0
 40
9.0
 40
9.0
 40
10.0
 40
10.0
 40
10.0
 40
10.0
 10
14.21198759895924
 20
88.17355217608565
 10
14.21198759895924
 20
88.17355217608565
 10
17.19598112923268
 20
91.9355761018669
 10
17.19598112923268
 20
91.9355761018669
 10
17.19598112923268
 20
91.9355761018669
 10
34.07096587044362
 20
100.0965868440544
 10
34.07096587044362
 20
100.0965868440544
 10
34.07096587044362
 20
100.0965868440544
 10
24.00796233040455
 20
89.3876024690544
 10
24.00796233040455
 20
89.3876024690544
 10
24.00596342903737
 20
89.38558830889815
 10
24.00596342903737
 20
89.3835741487419
 10
24.00495634895924
 20
89.3816210237419
 10
23.98295317513112
 20
89.35861076983565
 10
23.97195158821705
 20
89.3255907503044
 10
23.95295439583424
 20
89.29965080889815
 10
23.91795073372487
 20
89.24862541827315
 10
23.87995634895924
 20
89.19967522296065
 10
23.85896025520924
 20
89.14364494952315
 10
23.85896025520924
 20
89.1406542268669
 10
23.85696135384205
 20
89.13961662921065
 10
23.85595427376393
 20
89.13766350421065
 10
23.72794829231862
 20
88.7756639924919
 10
20.59695158821705
 20
78.8216845003044
 10
19.39895354134205
 20
75.01168694171065
 10
19.39895354134205
 20
75.01168694171065
 10
16.95995818001393
 20
78.83065666827315
 10
16.95995818001393
 20
78.83065666827315
 10
16.95995818001393
 20
78.83065666827315
 10
14.21198759895924
 20
88.17355217608565
 10
14.21198759895924
 20
88.17355217608565
 97
        0
 97
        0
 92
        1
 93
        1
 72
     4
 94
        3
 73
     0
 74
     1
 95
       14
 96
       10
 40
0.0
 40
0.0
 40
0.0
 40
0.0
 40
1.0
 40
1.0
 40
1.0
 40
2.0
 40
2.0
 40
2.0
 40
3.0
 40
3.0
 40
3.0
 40
3.0
 10
23.95098601204518
 20
84.74655022296065
 10
23.95098601204518
 20
84.74655022296065
 10
24.35097990852955
 20
72.36154045733565
 10
24.35097990852955
 20
72.36154045733565
 10
24.35097990852955
 20
72.36154045733565
 10
20.49897490364674
 20
73.7805468049919
 10
20.49897490364674
 20
73.7805468049919
 10
21.37499724251393
 20
76.5665575471794
 10
22.8789950452483
 20
81.35055412921065
 10
23.95098601204518
 20
84.74655022296065
 97
        0
 97
        0
 92
        1
 93
        1
 72
     4
 94
        3
 73
     0
 74
     1
 95
       23
 96
       19
 40
0.0
 40
0.0
 40
0.0
 40
0.0
 40
1.0
 40
1.0
 40
1.0
 40
2.0
 40
2.0
 40
2.0
 40
3.0
 40
3.0
 40
3.0
 40
4.0
 40
4.0
 40
4.0
 40
5.0
 40
5.0
 40
5.0
 40
6.0
 40
6.0
 40
6.0
 40
6.0
 10
36.57398711067799
 20
96.41256584796065
 10
36.57398711067799
 20
96.41256584796065
 10
25.70998869759205
 20
74.20553459796065
 10
25.70998869759205
 20
74.20553459796065
 10
25.70998869759205
 20
74.20553459796065
 10
25.24299345833424
 20
88.63155998858565
 10
25.24299345833424
 20
88.63155998858565
 10
25.24299345833424
 20
88.63155998858565
 10
37.63798247200612
 20
101.8205858674919
 10
37.63798247200612
 20
101.8205858674919
 10
37.63798247200612
 20
101.8205858674919
 10
37.79899321419362
 20
101.8985887971794
 10
37.79899321419362
 20
101.8985887971794
 10
37.79899321419362
 20
101.8985887971794
 10
36.74400053841237
 20
96.6335741487419
 10
36.74400053841237
 20
96.6335741487419
 10
36.67500029427174
 20
96.57357659014815
 10
36.61698637825612
 20
96.49960198077315
 10
36.57398711067799
 20
96.41256584796065
 97
        0
 97
        0
 92
        1
 93
        4
 72
     1
 10
38.77299223763112
 20
81.16757073077315
 11
35.87897978645924
 21
85.09554924639815
 72
     1
 10
35.87897978645924
 20
85.09554924639815
 11
38.77299223763112
 21
99.54659905108565
 72
     1
 10
38.77299223763112
 20
99.54659905108565
 11
41.66700468880299
 21
85.0956102815544
 72
     1
 10
41.66700468880299
 20
85.0956102815544
 11
38.77299223763112
 21
81.16757073077315
 97
        0
 92
        1
 93
        1
 72
     4
 94
        3
 73
     0
 74
     1
 95
       23
 96
       19
 40
0.0
 40
0.0
 40
0.0
 40
0.0
 40
1.0
 40
1.0
 40
1.0
 40
2.0
 40
2.0
 40
2.0
 40
3.0
 40
3.0
 40
3.0
 40
4.0
 40
4.0
 40
4.0
 40
5.0
 40
5.0
 40
5.0
 40
6.0
 40
6.0
 40
6.0
 40
6.0
 10
39.74799834114674
 20
101.8995653596794
 10
39.74799834114674
 20
101.8995653596794
 10
39.90699492317799
 20
101.8225389924919
 10
39.90699492317799
 20
101.8225389924919
 10
39.90699492317799
 20
101.8225389924919
 10
52.30299101692799
 20
88.63155998858565
 10
52.30299101692799
 20
88.63155998858565
 10
52.30299101692799
 20
88.63155998858565
 10
51.83698759895924
 20
74.2065721956169
 10
51.83698759895924
 20
74.2065721956169
 10
51.83698759895924
 20
74.2065721956169
 10
40.97199736458424
 20
96.41354241046065
 10
40.97199736458424
 20
96.41354241046065
 10
40.92899809700612
 20
96.4995409456169
 10
40.87098418099049
 20
96.5735155549919
 10
40.80299101692799
 20
96.63351311358565
 10
40.80299101692799
 20
96.63351311358565
 10
39.74799834114674
 20
101.8995653596794
 10
39.74799834114674
 20
101.8995653596794
 97
        0
 97
        0
 92
        1
 93
        1
 72
     4
 94
        3
 73
     0
 74
     1
 95
       14
 96
       10
 40
0.0
 40
0.0
 40
0.0
 40
0.0
 40
1.0
 40
1.0
 40
1.0
 40
2.0
 40
2.0
 40
2.0
 40
3.0
 40
3.0
 40
3.0
 40
3.0
 10
53.59400664192799
 20
84.74655022296065
 10
54.66599760872487
 20
81.35055412921065
 10
56.17100249153737
 20
76.56551994952315
 10
57.04600249153737
 20
73.7805468049919
 10
57.04600249153737
 20
73.7805468049919
 10
53.19401274544362
 20
72.36154045733565
 10
53.19401274544362
 20
72.36154045733565
 10
53.19401274544362
 20
72.36154045733565
 10
53.59400664192799
 20
84.74655022296065
 10
53.59400664192799
 20
84.74655022296065
 97
        0
 97
        0
 92
        1
 93
        1
 72
     4
 94
        3
 73
     0
 74
     1
 95
       35
 96
       31
 40
0.0
 40
0.0
 40
0.0
 40
0.0
 40
1.0
 40
1.0
 40
1.0
 40
2.0
 40
2.0
 40
2.0
 40
3.0
 40
3.0
 40
3.0
 40
4.0
 40
4.0
 40
4.0
 40
5.0
 40
5.0
 40
5.0
 40
6.0
 40
6.0
 40
6.0
 40
7.0
 40
7.0
 40
7.0
 40
8.0
 40
8.0
 40
8.0
 40
9.0
 40
9.0
 40
9.0
 40
10.0
 40
10.0
 40
10.0
 40
10.0
 10
60.58500395638112
 20
78.8305956331169
 10
60.58500395638112
 20
78.8305956331169
 10
58.14600859505299
 20
75.01058830889815
 10
58.14600859505299
 20
75.01058830889815
 10
56.94801054817799
 20
78.8215624299919
 10
53.81602202278737
 20
88.77560295733565
 10
53.68800078255299
 20
89.1376024690544
 10
53.68699370247487
 20
89.13961662921065
 10
53.68501005989674
 20
89.14059319171065
 10
53.68501005989674
 20
89.1435839143669
 10
53.66401396614674
 20
89.1996141878044
 10
53.62699614388112
 20
89.2475878206169
 10
53.59299956184987
 20
89.29659905108565
 10
53.57301054817799
 20
89.32357659014815
 10
53.56199370247487
 20
89.35861076983565
 10
53.53901396614674
 20
89.3816210237419
 10
53.53800688606862
 20
89.38363518389815
 10
53.53800688606862
 20
89.3856493440544
 10
53.53602324349049
 20
89.3876024690544
 10
53.53602324349049
 20
89.3876024690544
 10
43.47202788216237
 20
100.0976244417106
 10
43.47202788216237
 20
100.0976244417106
 10
43.47202788216237
 20
100.0976244417106
 10
60.34904204231862
 20
91.93563713702315
 10
60.34904204231862
 20
91.93563713702315
 10
60.34904204231862
 20
91.93563713702315
 10
63.33305083138112
 20
88.1736132112419
 10
63.33305083138112
 20
88.1736132112419
 10
63.33305083138112
 20
88.1736132112419
 10
60.58500395638112
 20
78.8305956331169
 10
60.58500395638112
 20
78.8305956331169
 97
        0
 97
        0
 92
        1
 93
        1
 72
     4
 94
        3
 73
     0
 74
     1
 95
       26
 96
       22
 40
0.0
 40
0.0
 40
0.0
 40
0.0
 40
1.0
 40
1.0
 40
1.0
 40
2.0
 40
2.0
 40
2.0
 40
3.0
 40
3.0
 40
3.0
 40
4.0
 40
4.0
 40
4.0
 40
5.0
 40
5.0
 40
5.0
 40
6.0
 40
6.0
 40
6.0
 40
7.0
 40
7.0
 40
7.0
 40
7.0
 10
66.58698759895924
 20
94.94857659014815
 10
66.58698759895924
 20
94.94857659014815
 10
60.86597929817799
 20
93.2585741487419
 10
60.86597929817799
 20
93.2585741487419
 10
60.86597929817799
 20
93.2585741487419
 10
42.70399199349049
 20
102.0435472932731
 10
42.70399199349049
 20
102.0435472932731
 10
42.70399199349049
 20
102.0435472932731
 10
55.83500395638112
 20
99.2965380159294
 10
55.83500395638112
 20
99.2965380159294
 10
55.88401518684987
 20
99.2855516878044
 10
55.93198881966237
 20
99.2805468049919
 10
55.98100005013112
 20
99.2805468049919
 10
56.12699614388112
 20
99.2805468049919
 10
56.27100859505299
 20
99.3265673128044
 10
56.39201079231862
 20
99.41256584796065
 10
56.39201079231862
 20
99.41256584796065
 10
71.81602202278737
 20
110.3835741487419
 10
71.81602202278737
 20
110.3835741487419
 10
71.81602202278737
 20
110.3835741487419
 10
66.58698759895924
 20
94.94857659014815
 10
66.58698759895924
 20
94.94857659014815
 97
        0
 97
        0
 75
     2
 76
     1
 98
        0
  0
ENDSEC
  0
SECTION
  2
OBJECTS
  0
DICTIONARY
  5
C
330
0
100
AcDbDictionary
281
     1
  3
ACAD_GROUP
350
D
  3
ACAD_LAYOUT
350
1A
  3
ACAD_MATERIAL
350
3B
  3
ACAD_MLEADERSTYLE
350
61
  3
ACAD_MLINESTYLE
350
17
  3
ACAD_PLOTSETTINGS
350
19
  3
ACAD_PLOTSTYLENAME
350
E
  3
ACAD_TABLESTYLE
350
60
  3
ACAD_VISUALSTYLE
350
2A
  0
SUN
  5
3F
330
29
100
AcDbSun
 90
        1
290
     0
 63
     7
421
 16777215
 40
1.0
291
     1
 91
  2455826
 92
 54000000
292
     0
 70
     2
 71
   256
280
     1
  0
DICTIONARY
  5
D
102
{ACAD_REACTORS
330
C
102
}
330
C
100
AcDbDictionary
281
     1
  0
DICTIONARY
  5
1A
102
{ACAD_REACTORS
330
C
102
}
330
C
100
AcDbDictionary
281
     1
  3
Layout1
350
1E
  3
Layout2
350
26
  3
Model
350
22
  0
DICTIONARY
  5
3B
102
{ACAD_REACTORS
330
C
102
}
330
C
100
AcDbDictionary
281
     1
  3
ByBlock
350
3D
  3
ByLayer
350
3C
  3
Global
350
3E
  0
DICTIONARY
  5
61
102
{ACAD_REACTORS
330
C
102
}
330
C
100
AcDbDictionary
281
     1
  0
DICTIONARY
  5
17
102
{ACAD_REACTORS
330
C
102
}
330
C
100
AcDbDictionary
281
     1
  3
Standard
350
18
  0
DICTIONARY
  5
19
102
{ACAD_REACTORS
330
C
102
}
330
C
100
AcDbDictionary
281
     1
  0
ACDBDICTIONARYWDFLT
  5
E
102
{ACAD_REACTORS
330
C
102
}
330
C
100
AcDbDictionary
281
     1
  3
Normal
350
F
100
AcDbDictionaryWithDefault
340
F
  0
DICTIONARY
  5
60
102
{ACAD_REACTORS
330
C
102
}
330
C
100
AcDbDictionary
281
     1
  0
DICTIONARY
  5
2A
102
{ACAD_REACTORS
330
C
102
}
330
C
100
AcDbDictionary
281
     1
  3
2dWireframe
350
2F
  3
3D Hidden
350
31
  3
3dWireframe
350
30
  3
Basic
350
32
  3
Brighten
350
36
  3
ColorChange
350
3A
  3
Conceptual
350
34
  3
Dim
350
35
  3
Facepattern
350
39
  3
Flat
350
2B
  3
FlatWithEdges
350
2C
  3
Gouraud
350
2D
  3
GouraudWithEdges
350
2E
  3
Linepattern
350
38
  3
Realistic
350
33
  3
Thicken
350
37
  0
LAYOUT
  5
1E
102
{ACAD_REACTORS
330
1A
102
}
330
1A
100
AcDbPlotSettings
  1

  2
none_device
  4

  6

 40
0.0
 41
0.0
 42
0.0
 43
0.0
 44
0.0
 45
0.0
 46
0.0
 47
0.0
 48
0.0
 49
0.0
140
0.0
141
0.0
142
1.0
143
1.0
 70
   688
 72
     0
 73
     0
 74
     5
  7

 75
    16
 76
     0
 77
     2
 78
   300
147
1.0
148
0.0
149
0.0
100
AcDbLayout
  1
Layout1
 70
     1
 71
     1
 10
0.0
 20
0.0
 11
12.0
 21
9.0
 12
0.0
 22
0.0
 32
0.0
 14
1.000000000000000E+20
 24
1.000000000000000E+20
 34
1.000000000000000E+20
 15
-1.000000000000000E+20
 25
-1.000000000000000E+20
 35
-1.000000000000000E+20
146
0.0
 13
0.0
 23
0.0
 33
0.0
 16
1.0
 26
0.0
 36
0.0
 17
0.0
 27
1.0
 37
0.0
 76
     0
330
1B
  0
LAYOUT
  5
26
102
{ACAD_REACTORS
330
1A
102
}
330
1A
100
AcDbPlotSettings
  1

  2
none_device
  4

  6

 40
0.0
 41
0.0
 42
0.0
 43
0.0
 44
0.0
 45
0.0
 46
0.0
 47
0.0
 48
0.0
 49
0.0
140
0.0
141
0.0
142
1.0
143
1.0
 70
   688
 72
     0
 73
     0
 74
     5
  7

 75
    16
 76
     0
 77
     2
 78
   300
147
1.0
148
0.0
149
0.0
100
AcDbLayout
  1
Layout2
 70
     1
 71
     2
 10
0.0
 20
0.0
 11
0.0
 21
0.0
 12
0.0
 22
0.0
 32
0.0
 14
0.0
 24
0.0
 34
0.0
 15
0.0
 25
0.0
 35
0.0
146
0.0
 13
0.0
 23
0.0
 33
0.0
 16
1.0
 26
0.0
 36
0.0
 17
0.0
 27
1.0
 37
0.0
 76
     0
330
23
  0
LAYOUT
  5
22
102
{ACAD_REACTORS
330
1A
102
}
330
1A
100
AcDbPlotSettings
  1

  2
none_device
  4

  6

 40
0.0
 41
0.0
 42
0.0
 43
0.0
 44
0.0
 45
0.0
 46
0.0
 47
0.0
 48
0.0
 49
0.0
140
0.0
141
0.0
142
1.0
143
1.0
 70
  1712
 72
     0
 73
     0
 74
     0
  7

 75
     0
 76
     0
 77
     2
 78
   300
147
1.0
148
0.0
149
0.0
100
AcDbLayout
  1
Model
 70
     1
 71
     0
 10
0.0
 20
0.0
 11
12.0
 21
9.0
 12
0.0
 22
0.0
 32
0.0
 14
1.000000000000000E+20
 24
1.000000000000000E+20
 34
1.000000000000000E+20
 15
-1.000000000000000E+20
 25
-1.000000000000000E+20
 35
-1.000000000000000E+20
146
0.0
 13
0.0
 23
0.0
 33
0.0
 16
1.0
 26
0.0
 36
0.0
 17
0.0
 27
1.0
 37
0.0
 76
     0
330
1F
331
29
  0
MATERIAL
  5
3D
102
{ACAD_REACTORS
330
3B
102
}
330
3B
100
AcDbMaterial
  1
ByBlock
 72
     1
 94
      127
  0
MATERIAL
  5
3C
102
{ACAD_REACTORS
330
3B
102
}
330
3B
100
AcDbMaterial
  1
ByLayer
 72
     1
 94
      127
  0
MATERIAL
  5
3E
102
{ACAD_REACTORS
330
3B
102
}
330
3B
100
AcDbMaterial
  1
Global
 72
     1
 94
      127
  0
MLINESTYLE
  5
18
102
{ACAD_REACTORS
330
17
102
}
330
17
100
AcDbMlineStyle
  2
Standard
 70
     0
  3

 62
   256
 51
90.0
 52
90.0
 71
     2
 49
0.5
 62
   256
  6
BYLAYER
 49
-0.5
 62
   256
  6
BYLAYER
  0
ACDBPLACEHOLDER
  5
F
102
{ACAD_REACTORS
330
E
102
}
330
E
  0
VISUALSTYLE
  5
2F
102
{ACAD_REACTORS
330
2A
102
}
330
2A
100
AcDbVisualStyle
  2
2dWireframe
 70
     4
177
     2
291
     0
 71
     0
176
     1
 72
     2
176
     1
 73
     0
176
     1
 90
        0
176
     1
 40
-0.6
176
     1
 41
-30.0
176
     1
 62
     5
 63
     7
421
 16777215
176
     1
 74
     1
176
     1
 91
        4
176
     1
 64
     7
176
     1
 65
   257
176
     1
 75
     1
176
     1
175
     1
176
     1
 42
1.0
176
     1
 92
        0
176
     1
 66
   257
176
     1
 43
1.0
176
     1
 76
     1
176
     1
 77
     6
176
     1
 78
     2
176
     1
 67
     7
176
     1
 79
     5
176
     1
170
     0
176
     1
171
     0
176
     1
290
     0
176
     1
 93
        1
176
     1
 44
0.0
176
     1
173
     0
176
     1
  0
VISUALSTYLE
  5
31
102
{ACAD_REACTORS
330
2A
102
}
330
2A
100
AcDbVisualStyle
  2
3D Hidden
 70
     6
177
     2
291
     0
 71
     1
176
     1
 72
     2
176
     1
 73
     2
176
     1
 90
        0
176
     1
 40
-0.6
176
     1
 41
-30.0
176
     1
 62
     5
 63
     7
421
 16777215
176
     1
 74
     2
176
     1
 91
        2
176
     1
 64
     7
176
     1
 65
   257
176
     1
 75
     2
176
     1
175
     1
176
     1
 42
40.0
176
     1
 92
        0
176
     1
 66
   257
176
     1
 43
1.0
176
     1
 76
     1
176
     1
 77
     6
176
     1
 78
     2
176
     1
 67
     7
176
     1
 79
     3
176
     1
170
     0
176
     1
171
     0
176
     1
290
     0
176
     1
 93
        1
176
     1
 44
0.0
176
     1
173
     0
176
     1
  0
VISUALSTYLE
  5
30
102
{ACAD_REACTORS
330
2A
102
}
330
2A
100
AcDbVisualStyle
  2
3dWireframe
 70
     5
177
     2
291
     0
 71
     0
176
     1
 72
     2
176
     1
 73
     0
176
     1
 90
        0
176
     1
 40
-0.6
176
     1
 41
-30.0
176
     1
 62
     5
 63
     7
421
 16777215
176
     1
 74
     1
176
     1
 91
        4
176
     1
 64
     7
176
     1
 65
   257
176
     1
 75
     1
176
     1
175
     1
176
     1
 42
1.0
176
     1
 92
        0
176
     1
 66
   257
176
     1
 43
1.0
176
     1
 76
     1
176
     1
 77
     6
176
     1
 78
     2
176
     1
 67
     7
176
     1
 79
     5
176
     1
170
     0
176
     1
171
     0
176
     1
290
     0
176
     1
 93
        1
176
     1
 44
0.0
176
     1
173
     0
176
     1
  0
VISUALSTYLE
  5
32
102
{ACAD_REACTORS
330
2A
102
}
330
2A
100
AcDbVisualStyle
  2
Basic
 70
     7
177
     2
291
     1
 71
     1
176
     1
 72
     0
176
     1
 73
     1
176
     1
 90
        0
176
     1
 40
-0.6
176
     1
 41
-30.0
176
     1
 62
     5
 63
     7
421
 16777215
176
     1
 74
     0
176
     1
 91
        4
176
     1
 64
     7
176
     1
 65
   257
176
     1
 75
     1
176
     1
175
     1
176
     1
 42
1.0
176
     1
 92
        8
176
     1
 66
     7
176
     1
 43
1.0
176
     1
 76
     1
176
     1
 77
     6
176
     1
 78
     2
176
     1
 67
     7
176
     1
 79
     5
176
     1
170
     0
176
     1
171
     0
176
     1
290
     0
176
     1
 93
        1
176
     1
 44
0.0
176
     1
173
     0
176
     1
  0
VISUALSTYLE
  5
36
102
{ACAD_REACTORS
330
2A
102
}
330
2A
100
AcDbVisualStyle
  2
Brighten
 70
    12
177
     2
291
     1
 71
     2
176
     1
 72
     2
176
     1
 73
     0
176
     1
 90
        0
176
     1
 40
-0.6
176
     1
 41
-30.0
176
     1
 62
     5
 63
     7
421
 16777215
176
     1
 74
     1
176
     1
 91
        4
176
     1
 64
     7
176
     1
 65
   257
176
     1
 75
     1
176
     1
175
     1
176
     1
 42
1.0
176
     1
 92
        8
176
     1
 66
     7
176
     1
 43
1.0
176
     1
 76
     1
176
     1
 77
     6
176
     1
 78
     2
176
     1
 67
     7
176
     1
 79
     5
176
     1
170
     0
176
     1
171
     0
176
     1
290
     0
176
     1
 93
        1
176
     1
 44
50.0
176
     1
173
     0
176
     1
  0
VISUALSTYLE
  5
3A
102
{ACAD_REACTORS
330
2A
102
}
330
2A
100
AcDbVisualStyle
  2
ColorChange
 70
    16
177
     2
291
     1
 71
     2
176
     1
 72
     2
176
     1
 73
     3
176
     1
 90
        0
176
     1
 40
-0.6
176
     1
 41
-30.0
176
     1
 62
     5
 63
     8
421
  8421504
176
     1
 74
     1
176
     1
 91
        4
176
     1
 64
     7
176
     1
 65
   257
176
     1
 75
     1
176
     1
175
     1
176
     1
 42
1.0
176
     1
 92
        8
176
     1
 66
     8
424
  8421504
176
     1
 43
1.0
176
     1
 76
     1
176
     1
 77
     6
176
     1
 78
     2
176
     1
 67
     7
176
     1
 79
     5
176
     1
170
     0
176
     1
171
     0
176
     1
290
     0
176
     1
 93
        1
176
     1
 44
0.0
176
     1
173
     0
176
     1
  0
VISUALSTYLE
  5
34
102
{ACAD_REACTORS
330
2A
102
}
330
2A
100
AcDbVisualStyle
  2
Conceptual
 70
     9
177
     2
291
     0
 71
     3
176
     1
 72
     2
176
     1
 73
     0
176
     1
 90
        0
176
     1
 40
-0.6
176
     1
 41
-30.0
176
     1
 62
     5
 63
     7
421
 16777215
176
     1
 74
     2
176
     1
 91
        2
176
     1
 64
     7
176
     1
 65
   257
176
     1
 75
     1
176
     1
175
     1
176
     1
 42
40.0
176
     1
 92
        8
176
     1
 66
     7
176
     1
 43
1.0
176
     1
 76
     1
176
     1
 77
     6
176
     1
 78
     2
176
     1
 67
     7
176
     1
 79
     3
176
     1
170
     0
176
     1
171
     0
176
     1
290
     0
176
     1
 93
        1
176
     1
 44
0.0
176
     1
173
     0
176
     1
  0
VISUALSTYLE
  5
35
102
{ACAD_REACTORS
330
2A
102
}
330
2A
100
AcDbVisualStyle
  2
Dim
 70
    11
177
     2
291
     1
 71
     2
176
     1
 72
     2
176
     1
 73
     0
176
     1
 90
        0
176
     1
 40
-0.6
176
     1
 41
-30.0
176
     1
 62
     5
 63
     7
421
 16777215
176
     1
 74
     1
176
     1
 91
        4
176
     1
 64
     7
176
     1
 65
   257
176
     1
 75
     1
176
     1
175
     1
176
     1
 42
1.0
176
     1
 92
        8
176
     1
 66
     7
176
     1
 43
1.0
176
     1
 76
     1
176
     1
 77
     6
176
     1
 78
     2
176
     1
 67
     7
176
     1
 79
     5
176
     1
170
     0
176
     1
171
     0
176
     1
290
     0
176
     1
 93
        1
176
     1
 44
-50.0
176
     1
173
     0
176
     1
  0
VISUALSTYLE
  5
39
102
{ACAD_REACTORS
330
2A
102
}
330
2A
100
AcDbVisualStyle
  2
Facepattern
 70
    15
177
     2
291
     1
 71
     2
176
     1
 72
     2
176
     1
 73
     0
176
     1
 90
        0
176
     1
 40
-0.6
176
     1
 41
-30.0
176
     1
 62
     5
 63
     7
421
 16777215
176
     1
 74
     1
176
     1
 91
        4
176
     1
 64
     7
176
     1
 65
   257
176
     1
 75
     1
176
     1
175
     1
176
     1
 42
1.0
176
     1
 92
        8
176
     1
 66
     7
176
     1
 43
1.0
176
     1
 76
     1
176
     1
 77
     6
176
     1
 78
     2
176
     1
 67
     7
176
     1
 79
     5
176
     1
170
     0
176
     1
171
     0
176
     1
290
     0
176
     1
 93
        1
176
     1
 44
0.0
176
     1
173
     0
176
     1
  0
VISUALSTYLE
  5
2B
102
{ACAD_REACTORS
330
2A
102
}
330
2A
100
AcDbVisualStyle
  2
Flat
 70
     0
177
     2
291
     1
 71
     2
176
     1
 72
     1
176
     1
 73
     1
176
     1
 90
        2
176
     1
 40
-0.6
176
     1
 41
30.0
176
     1
 62
     5
 63
     7
421
 16777215
176
     1
 74
     0
176
     1
 91
        4
176
     1
 64
     7
176
     1
 65
   257
176
     1
 75
     1
176
     1
175
     1
176
     1
 42
1.0
176
     1
 92
        8
176
     1
 66
     7
176
     1
 43
1.0
176
     1
 76
     1
176
     1
 77
     6
176
     1
 78
     2
176
     1
 67
     7
176
     1
 79
     5
176
     1
170
     0
176
     1
171
     0
176
     1
290
     0
176
     1
 93
       13
176
     1
 44
0.0
176
     1
173
     0
176
     1
  0
VISUALSTYLE
  5
2C
102
{ACAD_REACTORS
330
2A
102
}
330
2A
100
AcDbVisualStyle
  2
FlatWithEdges
 70
     1
177
     2
291
     1
 71
     2
176
     1
 72
     1
176
     1
 73
     1
176
     1
 90
        2
176
     1
 40
-0.6
176
     1
 41
30.0
176
     1
 62
     5
 63
     7
421
 16777215
176
     1
 74
     1
176
     1
 91
        4
176
     1
 64
     7
176
     1
 65
   257
176
     1
 75
     1
176
     1
175
     1
176
     1
 42
1.0
176
     1
 92
        0
176
     1
 66
   257
176
     1
 43
1.0
176
     1
 76
     1
176
     1
 77
     6
176
     1
 78
     2
176
     1
 67
     7
176
     1
 79
     5
176
     1
170
     0
176
     1
171
     0
176
     1
290
     0
176
     1
 93
       13
176
     1
 44
0.0
176
     1
173
     0
176
     1
  0
VISUALSTYLE
  5
2D
102
{ACAD_REACTORS
330
2A
102
}
330
2A
100
AcDbVisualStyle
  2
Gouraud
 70
     2
177
     2
291
     1
 71
     2
176
     1
 72
     2
176
     1
 73
     1
176
     1
 90
        2
176
     1
 40
-0.6
176
     1
 41
30.0
176
     1
 62
     5
 63
     7
421
 16777215
176
     1
 74
     0
176
     1
 91
        4
176
     1
 64
     7
176
     1
 65
   257
176
     1
 75
     1
176
     1
175
     1
176
     1
 42
1.0
176
     1
 92
        0
176
     1
 66
     7
176
     1
 43
1.0
176
     1
 76
     1
176
     1
 77
     6
176
     1
 78
     2
176
     1
 67
     7
176
     1
 79
     5
176
     1
170
     0
176
     1
171
     0
176
     1
290
     0
176
     1
 93
       13
176
     1
 44
0.0
176
     1
173
     0
176
     1
  0
VISUALSTYLE
  5
2E
102
{ACAD_REACTORS
330
2A
102
}
330
2A
100
AcDbVisualStyle
  2
GouraudWithEdges
 70
     3
177
     2
291
     1
 71
     2
176
     1
 72
     2
176
     1
 73
     1
176
     1
 90
        2
176
     1
 40
-0.6
176
     1
 41
30.0
176
     1
 62
     5
 63
     7
421
 16777215
176
     1
 74
     1
176
     1
 91
        4
176
     1
 64
     7
176
     1
 65
   257
176
     1
 75
     1
176
     1
175
     1
176
     1
 42
1.0
176
     1
 92
        0
176
     1
 66
   257
176
     1
 43
1.0
176
     1
 76
     1
176
     1
 77
     6
176
     1
 78
     2
176
     1
 67
     7
176
     1
 79
     5
176
     1
170
     0
176
     1
171
     0
176
     1
290
     0
176
     1
 93
       13
176
     1
 44
0.0
176
     1
173
     0
176
     1
  0
VISUALSTYLE
  5
38
102
{ACAD_REACTORS
330
2A
102
}
330
2A
100
AcDbVisualStyle
  2
Linepattern
 70
    14
177
     2
291
     1
 71
     2
176
     1
 72
     2
176
     1
 73
     0
176
     1
 90
        0
176
     1
 40
-0.6
176
     1
 41
-30.0
176
     1
 62
     5
 63
     7
421
 16777215
176
     1
 74
     1
176
     1
 91
        4
176
     1
 64
     7
176
     1
 65
   257
176
     1
 75
     7
176
     1
175
     7
176
     1
 42
1.0
176
     1
 92
        8
176
     1
 66
     7
176
     1
 43
1.0
176
     1
 76
     1
176
     1
 77
     6
176
     1
 78
     2
176
     1
 67
     7
176
     1
 79
     5
176
     1
170
     0
176
     1
171
     0
176
     1
290
     0
176
     1
 93
        1
176
     1
 44
0.0
176
     1
173
     0
176
     1
  0
VISUALSTYLE
  5
33
102
{ACAD_REACTORS
330
2A
102
}
330
2A
100
AcDbVisualStyle
  2
Realistic
 70
     8
177
     2
291
     0
 71
     2
176
     1
 72
     2
176
     1
 73
     0
176
     1
 90
        0
176
     1
 40
-0.6
176
     1
 41
-30.0
176
     1
 62
     5
 63
     7
421
 16777215
176
     1
 74
     1
176
     1
 91
        0
176
     1
 64
     7
176
     1
 65
   257
176
     1
 75
     1
176
     1
175
     1
176
     1
 42
1.0
176
     1
 92
        8
176
     1
 66
     8
424
  7895160
176
     1
 43
1.0
176
     1
 76
     1
176
     1
 77
     6
176
     1
 78
     2
176
     1
 67
     7
176
     1
 79
     5
176
     1
170
     0
176
     1
171
     0
176
     1
290
     0
176
     1
 93
       13
176
     1
 44
0.0
176
     1
173
     0
176
     1
  0
VISUALSTYLE
  5
37
102
{ACAD_REACTORS
330
2A
102
}
330
2A
100
AcDbVisualStyle
  2
Thicken
 70
    13
177
     2
291
     1
 71
     2
176
     1
 72
     2
176
     1
 73
     0
176
     1
 90
        0
176
     1
 40
-0.6
176
     1
 41
-30.0
176
     1
 62
     5
 63
     7
421
 16777215
176
     1
 74
     1
176
     1
 91
        4
176
     1
 64
     7
176
     1
 65
   257
176
     1
 75
     1
176
     1
175
     1
176
     1
 42
1.0
176
     1
 92
       12
176
     1
 66
     7
176
     1
 43
1.0
176
     1
 76
     1
176
     1
 77
     6
176
     1
 78
     2
176
     1
 67
     7
176
     1
 79
     5
176
     1
170
     0
176
     1
171
     0
176
     1
290
     0
176
     1
 93
        1
176
     1
 44
0.0
176
     1
173
     0
176
     1
  0
ENDSEC
  0
EOF
