<?xml version="1.0" encoding="utf-8"?>
<!-- Generator: Adobe Illustrator 19.2.1, SVG Export Plug-In . SVG Version: 6.00 Build 0)  -->
<svg version="1.1" id="Layer_1" xmlns="http://www.w3.org/2000/svg" xmlns:xlink="http://www.w3.org/1999/xlink" x="0px" y="0px"
	 viewBox="0 0 100 125" style="enable-background:new 0 0 100 125;" xml:space="preserve">
<path d="M76.2,77.8l-32.9-8V50c0-0.2-0.1-0.4-0.3-0.6l-13.1-9.6l5.6-6.4c0,0,0,0,0,0c0-0.1,0.1-0.1,0.1-0.2c0,0,0,0,0,0c0,0,0,0,0,0
	l1.7-5.9l6.6-7.5c0.2-0.2,0.2-0.5,0.1-0.8s-0.4-0.4-0.7-0.4l-4,0.5c0-0.1,0-0.1,0-0.2l-2-3.7c-0.2-0.3-0.5-0.4-0.8-0.4l-2.2,0.5
	l-1.7-7.5c0-0.2-0.2-0.4-0.4-0.5c-0.2-0.1-0.5-0.1-0.6,0l-7.2,4.4l-2-0.7c-0.2-0.1-0.4,0-0.6,0.1c-11.5,6.8-11.5,6.9-11.6,7
	c-0.2,0.2-0.2,0.5-0.2,0.7c-0.1,0.2,0,0.4,0.1,0.6l6.1,8.8L8,46.1C8,46.2,8,46.4,8,46.6c0,0.1,0,0.2,0,0.2v8.5c0,0.1,0,0.1,0,0.2
	l2.9,10.8L8,78.1c-0.1,0.2,0,0.4,0.1,0.6S8.5,79,8.7,79H17c0.3,0,0.5-0.2,0.6-0.4l3.7-8.4c2.8,8.8,3.2,8.9,3.6,8.9c0.1,0,0.3,0,2,0
	c0,0,0,0,0,0c4.5,0,15.5-0.1,15.6-0.1L76,79.2c0,0,0,0,0,0c0.4,0,0.7-0.3,0.7-0.6C76.7,78.2,76.5,77.8,76.2,77.8z M22.2,34.2
	l11.1-0.5L28.7,39L22.2,34.2z M36.6,25.9l-5.3-4.4l10.4-1.3L36.6,25.9z M37.9,19.2l-7.7,1l-0.3-2.4l6.5-1.4L37.9,19.2z M31.5,9.1
	l1.2,5.4l-6.5-2.1L31.5,9.1z M22.3,12.6l9.9,3.3l-3.3,0.7l-16,1.6C15.2,16.7,19.2,14.4,22.3,12.6z M28.4,18l0.4,3.1c0,0,0,0,0,0
	c0,0.1,0,0.2,0.1,0.2c0,0,0,0,0,0c0,0,0,0,0,0c0,0.1,0.1,0.1,0.1,0.2c0,0,0,0,0,0c0,0,0,0,0,0l6.8,5.5l-1.5,5.1l-13.2,0.6l-9.2-13.2
	L28.4,18z M20.1,33.8l-6.9,7.7l-2.8,2.7l6.7-14.6L20.1,33.8z M20.4,68.7l-3.9,8.9h-7l2.8-11c0-0.1,0-0.2,0-0.4l-3-10.9v-8.1l4-3.8
	c3.4,11.8,5.7,19.8,7.4,25.1C20.6,68.4,20.5,68.6,20.4,68.7z M26.9,77.7c-0.8,0-1.3,0-1.5,0c-1.2-2.6-7-22.2-10.9-35.6l6.4-7.2
	l20.9,15.4v27.2C39.3,77.6,30.8,77.7,26.9,77.7C26.9,77.7,26.9,77.7,26.9,77.7z M43.3,77.6v-6.3l26.7,6.5L43.3,77.6z"/>
</svg>
