  0
SECTION
  2
HEADER
  9
$ACADVER
  1
AC1024
  9
$ACADMAINTVER
 70
     6
  9
$DWGCODEPAGE
  3
UNDEFINED
  9
$INSBASE
 10
0.0
 20
0.0
 30
0.0
  9
$EXTMIN
 10
1.000000000000000E+20
 20
1.000000000000000E+20
 30
1.000000000000000E+20
  9
$EXTMAX
 10
-1.000000000000000E+20
 20
-1.000000000000000E+20
 30
-1.000000000000000E+20
  9
$LIMMIN
 10
0.0
 20
0.0
  9
$LIMMAX
 10
12.0
 20
9.0
  9
$ORTHOMODE
 70
     0
  9
$REGENMODE
 70
     1
  9
$FILLMODE
 70
     1
  9
$QTEXTMODE
 70
     0
  9
$MIRRTEXT
 70
     1
  9
$LTSCALE
 40
1.0
  9
$ATTMODE
 70
     1
  9
$TEXTSIZE
 40
0.2
  9
$TRACEWID
 40
0.05
  9
$TEXTSTYLE
  7
Standard
  9
$CLAYER
  8
0
  9
$CELTYPE
  6
ByLayer
  9
$CECOLOR
 62
   256
  9
$CELTSCALE
 40
1.0
  9
$DISPSILH
 70
     0
  9
$DIMSCALE
 40
1.0
  9
$DIMASZ
 40
0.18
  9
$DIMEXO
 40
0.0625
  9
$DIMDLI
 40
0.38
  9
$DIMRND
 40
0.0
  9
$DIMDLE
 40
0.0
  9
$DIMEXE
 40
0.18
  9
$DIMTP
 40
0.0
  9
$DIMTM
 40
0.0
  9
$DIMTXT
 40
0.18
  9
$DIMCEN
 40
0.09
  9
$DIMTSZ
 40
0.0
  9
$DIMTOL
 70
     0
  9
$DIMLIM
 70
     0
  9
$DIMTIH
 70
     1
  9
$DIMTOH
 70
     1
  9
$DIMSE1
 70
     0
  9
$DIMSE2
 70
     0
  9
$DIMTAD
 70
     0
  9
$DIMZIN
 70
     0
  9
$DIMBLK
  1

  9
$DIMASO
 70
     1
  9
$DIMSHO
 70
     1
  9
$DIMPOST
  1

  9
$DIMAPOST
  1

  9
$DIMALT
 70
     0
  9
$DIMALTD
 70
     2
  9
$DIMALTF
 40
25.4
  9
$DIMLFAC
 40
1.0
  9
$DIMTOFL
 70
     0
  9
$DIMTVP
 40
0.0
  9
$DIMTIX
 70
     0
  9
$DIMSOXD
 70
     0
  9
$DIMSAH
 70
     0
  9
$DIMBLK1
  1

  9
$DIMBLK2
  1

  9
$DIMSTYLE
  2
Standard
  9
$DIMCLRD
 70
     0
  9
$DIMCLRE
 70
     0
  9
$DIMCLRT
 70
     0
  9
$DIMTFAC
 40
1.0
  9
$DIMGAP
 40
0.09
  9
$DIMJUST
 70
     0
  9
$DIMSD1
 70
     0
  9
$DIMSD2
 70
     0
  9
$DIMTOLJ
 70
     1
  9
$DIMTZIN
 70
     0
  9
$DIMALTZ
 70
     0
  9
$DIMALTTZ
 70
     0
  9
$DIMUPT
 70
     0
  9
$DIMDEC
 70
     4
  9
$DIMTDEC
 70
     4
  9
$DIMALTU
 70
     2
  9
$DIMALTTD
 70
     2
  9
$DIMTXSTY
  7
Standard
  9
$DIMAUNIT
 70
     0
  9
$DIMADEC
 70
     0
  9
$DIMALTRND
 40
0.0
  9
$DIMAZIN
 70
     0
  9
$DIMDSEP
 70
    46
  9
$DIMATFIT
 70
     3
  9
$DIMFRAC
 70
     0
  9
$DIMLDRBLK
  1

  9
$DIMLUNIT
 70
     2
  9
$DIMLWD
 70
    -2
  9
$DIMLWE
 70
    -2
  9
$DIMTMOVE
 70
     0
  9
$DIMFXL
 40
1.0
  9
$DIMFXLON
 70
     0
  9
$DIMJOGANG
 40
0.7853981633974483
  9
$DIMTFILL
 70
     0
  9
$DIMTFILLCLR
 70
     0
  9
$DIMARCSYM
 70
     0
  9
$DIMLTYPE
  6

  9
$DIMLTEX1
  6

  9
$DIMLTEX2
  6

  9
$DIMTXTDIRECTION
 70
     0
  9
$LUNITS
 70
     2
  9
$LUPREC
 70
     4
  9
$SKETCHINC
 40
0.1
  9
$FILLETRAD
 40
0.5
  9
$AUNITS
 70
     0
  9
$AUPREC
 70
     0
  9
$MENU
  1
.
  9
$ELEVATION
 40
0.0
  9
$PELEVATION
 40
0.0
  9
$THICKNESS
 40
0.0
  9
$LIMCHECK
 70
     0
  9
$CHAMFERA
 40
0.5
  9
$CHAMFERB
 40
0.5
  9
$CHAMFERC
 40
1.0
  9
$CHAMFERD
 40
0.0
  9
$SKPOLY
 70
     0
  9
$TDCREATE
 40
2457525.596284711
  9
$TDUCREATE
 40
2457525.804618055
  9
$TDUPDATE
 40
2457525.596284711
  9
$TDUUPDATE
 40
2457525.804618055
  9
$TDINDWG
 40
0.0000000116
  9
$TDUSRTIMER
 40
0.0000000116
  9
$USRTIMER
 70
     1
  9
$ANGBASE
 50
0.0
  9
$ANGDIR
 70
     0
  9
$PDMODE
 70
     0
  9
$PDSIZE
 40
0.0
  9
$PLINEWID
 40
0.0
  9
$SPLFRAME
 70
     0
  9
$SPLINETYPE
 70
     6
  9
$SPLINESEGS
 70
     8
  9
$HANDSEED
  5
6F
  9
$SURFTAB1
 70
     6
  9
$SURFTAB2
 70
     6
  9
$SURFTYPE
 70
     6
  9
$SURFU
 70
     6
  9
$SURFV
 70
     6
  9
$UCSBASE
  2

  9
$UCSNAME
  2

  9
$UCSORG
 10
0.0
 20
0.0
 30
0.0
  9
$UCSXDIR
 10
1.0
 20
0.0
 30
0.0
  9
$UCSYDIR
 10
0.0
 20
1.0
 30
0.0
  9
$UCSORTHOREF
  2

  9
$UCSORTHOVIEW
 70
     0
  9
$UCSORGTOP
 10
0.0
 20
0.0
 30
0.0
  9
$UCSORGBOTTOM
 10
0.0
 20
0.0
 30
0.0
  9
$UCSORGLEFT
 10
0.0
 20
0.0
 30
0.0
  9
$UCSORGRIGHT
 10
0.0
 20
0.0
 30
0.0
  9
$UCSORGFRONT
 10
0.0
 20
0.0
 30
0.0
  9
$UCSORGBACK
 10
0.0
 20
0.0
 30
0.0
  9
$PUCSBASE
  2

  9
$PUCSNAME
  2

  9
$PUCSORG
 10
0.0
 20
0.0
 30
0.0
  9
$PUCSXDIR
 10
1.0
 20
0.0
 30
0.0
  9
$PUCSYDIR
 10
0.0
 20
1.0
 30
0.0
  9
$PUCSORTHOREF
  2

  9
$PUCSORTHOVIEW
 70
     0
  9
$PUCSORGTOP
 10
0.0
 20
0.0
 30
0.0
  9
$PUCSORGBOTTOM
 10
0.0
 20
0.0
 30
0.0
  9
$PUCSORGLEFT
 10
0.0
 20
0.0
 30
0.0
  9
$PUCSORGRIGHT
 10
0.0
 20
0.0
 30
0.0
  9
$PUCSORGFRONT
 10
0.0
 20
0.0
 30
0.0
  9
$PUCSORGBACK
 10
0.0
 20
0.0
 30
0.0
  9
$USERI1
 70
     0
  9
$USERI2
 70
     0
  9
$USERI3
 70
     0
  9
$USERI4
 70
     0
  9
$USERI5
 70
     0
  9
$USERR1
 40
0.0
  9
$USERR2
 40
0.0
  9
$USERR3
 40
0.0
  9
$USERR4
 40
0.0
  9
$USERR5
 40
0.0
  9
$WORLDVIEW
 70
     1
  9
$SHADEDGE
 70
     3
  9
$SHADEDIF
 70
    70
  9
$TILEMODE
 70
     1
  9
$MAXACTVP
 70
    64
  9
$PINSBASE
 10
0.0
 20
0.0
 30
0.0
  9
$PLIMCHECK
 70
     0
  9
$PEXTMIN
 10
1.000000000000000E+20
 20
1.000000000000000E+20
 30
1.000000000000000E+20
  9
$PEXTMAX
 10
-1.000000000000000E+20
 20
-1.000000000000000E+20
 30
-1.000000000000000E+20
  9
$PLIMMIN
 10
0.0
 20
0.0
  9
$PLIMMAX
 10
12.0
 20
9.0
  9
$UNITMODE
 70
     0
  9
$VISRETAIN
 70
     1
  9
$PLINEGEN
 70
     0
  9
$PSLTSCALE
 70
     1
  9
$TREEDEPTH
 70
  3020
  9
$CMLSTYLE
  2
Standard
  9
$CMLJUST
 70
     0
  9
$CMLSCALE
 40
1.0
  9
$PROXYGRAPHICS
 70
     1
  9
$MEASUREMENT
 70
     0
  9
$CELWEIGHT
370
    -1
  9
$ENDCAPS
280
     0
  9
$JOINSTYLE
280
     0
  9
$LWDISPLAY
290
     1
  9
$INSUNITS
 70
     1
  9
$HYPERLINKBASE
  1

  9
$STYLESHEET
  1

  9
$XEDIT
290
     1
  9
$CEPSNTYPE
380
     0
  9
$PSTYLEMODE
290
     1
  9
$FINGERPRINTGUID
  2
{EF692D19-AF49-4701-AB11-0F5113D1683E}
  9
$VERSIONGUID
  2
{FAEB1C32-E019-11D5-929B-00C0DF256EC4}
  9
$EXTNAMES
290
     1
  9
$PSVPSCALE
 40
0.0
  9
$OLESTARTUP
290
     0
  9
$SORTENTS
280
   127
  9
$INDEXCTL
280
     0
  9
$HIDETEXT
280
     1
  9
$XCLIPFRAME
280
     2
  9
$HALOGAP
280
     0
  9
$OBSCOLOR
 70
   257
  9
$OBSLTYPE
280
     0
  9
$INTERSECTIONDISPLAY
280
     0
  9
$INTERSECTIONCOLOR
 70
   257
  9
$DIMASSOC
280
     2
  9
$PROJECTNAME
  1

  9
$CAMERADISPLAY
290
     0
  9
$LENSLENGTH
 40
50.0
  9
$CAMERAHEIGHT
 40
0.0
  9
$STEPSPERSEC
 40
2.0
  9
$STEPSIZE
 40
6.0
  9
$3DDWFPREC
 40
2.0
  9
$PSOLWIDTH
 40
0.25
  9
$PSOLHEIGHT
 40
4.0
  9
$LOFTANG1
 40
1.570796326794897
  9
$LOFTANG2
 40
1.570796326794897
  9
$LOFTMAG1
 40
0.0
  9
$LOFTMAG2
 40
0.0
  9
$LOFTPARAM
 70
     7
  9
$LOFTNORMALS
280
     1
  9
$LATITUDE
 40
37.795
  9
$LONGITUDE
 40
-122.394
  9
$NORTHDIRECTION
 40
0.0
  9
$TIMEZONE
 70
 -8000
  9
$LIGHTGLYPHDISPLAY
280
     1
  9
$TILEMODELIGHTSYNCH
280
     1
  9
$CMATERIAL
347
3C
  9
$SOLIDHIST
280
     1
  9
$SHOWHIST
280
     1
  9
$DWFFRAME
280
     2
  9
$DGNFRAME
280
     2
  9
$REALWORLDSCALE
290
     1
  9
$INTERFERECOLOR
 62
   256
  9
$CSHADOW
280
     0
  9
$SHADOWPLANELOCATION
 40
0.0
  0
ENDSEC
  0
SECTION
  2
CLASSES
  0
CLASS
  1
ACDBDICTIONARYWDFLT
  2
AcDbDictionaryWithDefault
  3
ObjectDBX Classes
 90
        0
 91
        4
280
     0
281
     0
  0
CLASS
  1
VISUALSTYLE
  2
AcDbVisualStyle
  3
ObjectDBX Classes
 90
     4095
 91
        4
280
     0
281
     0
  0
CLASS
  1
MATERIAL
  2
AcDbMaterial
  3
ObjectDBX Classes
 90
     1153
 91
        4
280
     0
281
     0
  0
CLASS
  1
SUN
  2
AcDbSun
  3
SCENEOE
 90
     1024
 91
        4
280
     0
281
     0
  0
ENDSEC
  0
SECTION
  2
TABLES
  0
TABLE
  2
VPORT
  5
8
330
0
100
AcDbSymbolTable
 70
     1
  0
VPORT
  5
29
330
8
100
AcDbSymbolTableRecord
100
AcDbViewportTableRecord
  2
*Active
 70
     0
 10
0.0
 20
0.0
 11
1.0
 21
1.0
 12
0.0
 22
0.0
 13
0.0
 23
0.0
 14
0.5
 24
0.5
 15
0.5
 25
0.5
 16
0.0
 26
0.0
 36
1.0
 17
50.0
 27
62.5
 37
0.0
 40
125.0
 41
0.8
 42
50.0
 43
0.0
 44
0.0
 50
0.0
 51
0.0
 71
     0
 72
   100
 73
     1
 74
     3
 75
     0
 76
     0
 77
     0
 78
     0
281
     0
 65
     1
110
0.0
120
0.0
130
0.0
111
1.0
121
0.0
131
0.0
112
0.0
122
1.0
132
0.0
 79
     0
146
0.0
 60
     3
 61
     5
292
     1
282
     1
141
0.0
142
0.0
 63
   250
361
3F
  0
ENDTAB
  0
TABLE
  2
LTYPE
  5
5
330
0
100
AcDbSymbolTable
 70
     1
  0
LTYPE
  5
14
330
5
100
AcDbSymbolTableRecord
100
AcDbLinetypeTableRecord
  2
ByBlock
 70
     0
  3

 72
    65
 73
     0
 40
0.0
  0
LTYPE
  5
15
330
5
100
AcDbSymbolTableRecord
100
AcDbLinetypeTableRecord
  2
ByLayer
 70
     0
  3

 72
    65
 73
     0
 40
0.0
  0
LTYPE
  5
16
330
5
100
AcDbSymbolTableRecord
100
AcDbLinetypeTableRecord
  2
Continuous
 70
     0
  3
Solid line
 72
    65
 73
     0
 40
0.0
  0
ENDTAB
  0
TABLE
  2
LAYER
  5
2
330
0
100
AcDbSymbolTable
 70
     2
  0
LAYER
  5
10
330
2
100
AcDbSymbolTableRecord
100
AcDbLayerTableRecord
  2
0
 70
     0
 62
     7
  6
Continuous
370
    -3
390
F
347
3E
  0
LAYER
  5
40
330
2
100
AcDbSymbolTableRecord
100
AcDbLayerTableRecord
  2
Layer 1
 70
     0
 62
     7
  6
Continuous
370
    -3
390
F
347
3E
  0
ENDTAB
  0
TABLE
  2
STYLE
  5
3
330
0
100
AcDbSymbolTable
 70
     1
  0
STYLE
  5
11
330
3
100
AcDbSymbolTableRecord
100
AcDbTextStyleTableRecord
  2
Standard
 70
     0
 40
0.0
 41
1.0
 50
0.0
 71
     0
 42
0.2
  3
txt
  4

  0
ENDTAB
  0
TABLE
  2
VIEW
  5
6
330
0
100
AcDbSymbolTable
 70
     0
  0
ENDTAB
  0
TABLE
  2
UCS
  5
7
330
0
100
AcDbSymbolTable
 70
     0
  0
ENDTAB
  0
TABLE
  2
APPID
  5
9
330
0
100
AcDbSymbolTable
 70
     1
  0
APPID
  5
12
330
9
100
AcDbSymbolTableRecord
100
AcDbRegAppTableRecord
  2
ACAD
 70
     0
  0
ENDTAB
  0
TABLE
  2
DIMSTYLE
  5
A
330
0
100
AcDbSymbolTable
 70
     1
100
AcDbDimStyleTable
  0
DIMSTYLE
105
27
330
A
100
AcDbSymbolTableRecord
100
AcDbDimStyleTableRecord
  2
Standard
 70
     0
178
     0
340
11
  0
ENDTAB
  0
TABLE
  2
BLOCK_RECORD
  5
1
330
0
100
AcDbSymbolTable
 70
     1
  0
BLOCK_RECORD
  5
1F
330
1
100
AcDbSymbolTableRecord
100
AcDbBlockTableRecord
  2
*Model_Space
340
22
 70
     0
280
     1
281
     0
  0
BLOCK_RECORD
  5
1B
330
1
100
AcDbSymbolTableRecord
100
AcDbBlockTableRecord
  2
*Paper_Space
340
1E
 70
     0
280
     1
281
     0
  0
BLOCK_RECORD
  5
23
330
1
100
AcDbSymbolTableRecord
100
AcDbBlockTableRecord
  2
*Paper_Space0
340
26
 70
     0
280
     1
281
     0
  0
ENDTAB
  0
ENDSEC
  0
SECTION
  2
BLOCKS
  0
BLOCK
  5
20
330
1F
100
AcDbEntity
  8
0
100
AcDbBlockBegin
  2
*Model_Space
 70
     0
 10
0.0
 20
0.0
 30
0.0
  3
*Model_Space
  1

  0
ENDBLK
  5
21
330
1F
100
AcDbEntity
  8
0
100
AcDbBlockEnd
  0
BLOCK
  5
1C
330
1B
100
AcDbEntity
 67
     1
  8
0
100
AcDbBlockBegin
  2
*Paper_Space
 70
     0
 10
0.0
 20
0.0
 30
0.0
  3
*Paper_Space
  1

  0
ENDBLK
  5
1D
330
1B
100
AcDbEntity
 67
     1
  8
0
100
AcDbBlockEnd
  0
BLOCK
  5
24
330
23
100
AcDbEntity
  8
0
100
AcDbBlockBegin
  2
*Paper_Space0
 70
     0
 10
0.0
 20
0.0
 30
0.0
  3
*Paper_Space0
  1

  0
ENDBLK
  5
25
330
23
100
AcDbEntity
  8
0
100
AcDbBlockEnd
  0
ENDSEC
  0
SECTION
  2
ENTITIES
  0
SPLINE
  5
41
330
1F
100
AcDbEntity
  8
Layer 1
370
     0
100
AcDbSpline
210
0.0
220
0.0
230
1.0
 70
    11
 71
     3
 72
   149
 73
   145
 74
     0
 42
0.0000000001
 43
0.0000000001
 12
1.0
 22
0.0
 32
0.0
 13
1.0
 23
0.0
 33
0.0
 40
0.0
 40
0.0
 40
0.0
 40
0.0
 40
1.0
 40
1.0
 40
1.0
 40
2.0
 40
2.0
 40
2.0
 40
3.0
 40
3.0
 40
3.0
 40
4.0
 40
4.0
 40
4.0
 40
5.0
 40
5.0
 40
5.0
 40
6.0
 40
6.0
 40
6.0
 40
7.0
 40
7.0
 40
7.0
 40
8.0
 40
8.0
 40
8.0
 40
9.0
 40
9.0
 40
9.0
 40
10.0
 40
10.0
 40
10.0
 40
11.0
 40
11.0
 40
11.0
 40
12.0
 40
12.0
 40
12.0
 40
13.0
 40
13.0
 40
13.0
 40
14.0
 40
14.0
 40
14.0
 40
15.0
 40
15.0
 40
15.0
 40
16.0
 40
16.0
 40
16.0
 40
17.0
 40
17.0
 40
17.0
 40
18.0
 40
18.0
 40
18.0
 40
19.0
 40
19.0
 40
19.0
 40
20.0
 40
20.0
 40
20.0
 40
21.0
 40
21.0
 40
21.0
 40
22.0
 40
22.0
 40
22.0
 40
23.0
 40
23.0
 40
23.0
 40
24.0
 40
24.0
 40
24.0
 40
25.0
 40
25.0
 40
25.0
 40
26.0
 40
26.0
 40
26.0
 40
27.0
 40
27.0
 40
27.0
 40
28.0
 40
28.0
 40
28.0
 40
29.0
 40
29.0
 40
29.0
 40
30.0
 40
30.0
 40
30.0
 40
31.0
 40
31.0
 40
31.0
 40
32.0
 40
32.0
 40
32.0
 40
33.0
 40
33.0
 40
33.0
 40
34.0
 40
34.0
 40
34.0
 40
35.0
 40
35.0
 40
35.0
 40
36.0
 40
36.0
 40
36.0
 40
37.0
 40
37.0
 40
37.0
 40
38.0
 40
38.0
 40
38.0
 40
39.0
 40
39.0
 40
39.0
 40
40.0
 40
40.0
 40
40.0
 40
41.0
 40
41.0
 40
41.0
 40
42.0
 40
42.0
 40
42.0
 40
43.0
 40
43.0
 40
43.0
 40
44.0
 40
44.0
 40
44.0
 40
45.0
 40
45.0
 40
45.0
 40
46.0
 40
46.0
 40
46.0
 40
47.0
 40
47.0
 40
47.0
 40
48.0
 40
48.0
 40
48.0
 40
48.0
 10
76.16547003460437
 20
47.23644808054996
 30
0.0
 10
76.16547003460437
 20
47.23644808054996
 30
0.0
 10
43.25348272991596
 20
55.19146517039371
 30
0.0
 10
43.25348272991596
 20
55.19146517039371
 30
0.0
 10
43.25348272991596
 20
55.19146517039371
 30
0.0
 10
43.25348272991596
 20
74.96948030711246
 30
0.0
 10
43.25348272991596
 20
74.96948030711246
 30
0.0
 10
43.25348272991596
 20
75.19549349070621
 30
0.0
 10
43.14648810100971
 20
75.40746858836246
 30
0.0
 10
42.96448126507221
 20
75.54046419383121
 30
0.0
 10
42.96448126507221
 20
75.54046419383121
 30
0.0
 10
29.84747687054096
 20
85.18346956492496
 30
0.0
 10
29.84747687054096
 20
85.18346956492496
 30
0.0
 10
29.84747687054096
 20
85.18346956492496
 30
0.0
 10
35.43246832561908
 20
91.57946565867496
 30
0.0
 10
35.43246832561908
 20
91.57946565867496
 30
0.0
 10
35.44046393108783
 20
91.58843782664371
 30
0.0
 10
35.44147101116596
 20
91.59948518992496
 30
0.0
 10
35.44946661663471
 20
91.60748079539371
 30
0.0
 10
35.49145880413471
 20
91.66149690867496
 30
0.0
 10
35.52447882366596
 20
91.72045686961246
 30
0.0
 10
35.55047980022846
 20
91.78545931101871
 30
0.0
 10
35.55746832561908
 20
91.80346468211246
 30
0.0
 10
35.56848517132221
 20
91.81744173289371
 30
0.0
 10
35.57349005413471
 20
91.83447054148746
 30
0.0
 10
35.57449713421283
 20
91.83849886179996
 30
0.0
 10
35.57748785686908
 20
91.84148958445621
 30
0.0
 10
35.57849493694721
 20
91.84545686961246
 30
0.0
 10
35.57849493694721
 20
91.84545686961246
 30
0.0
 10
37.31949225140033
 20
97.76946810008121
 30
0.0
 10
37.31949225140033
 20
97.76946810008121
 30
0.0
 10
37.31949225140033
 20
97.76946810008121
 30
0.0
 10
43.96649542522846
 20
105.2934549164875
 30
0.0
 10
43.96649542522846
 20
105.2934549164875
 30
0.0
 10
44.16150274944721
 20
105.5144632172687
 30
0.0
 10
44.19949713421283
 20
105.8334329438312
 30
0.0
 10
44.06149664593158
 20
106.0944803071125
 30
0.0
 10
43.92349615765033
 20
106.3555276703937
 30
0.0
 10
43.63150397015033
 20
106.5034768891437
 30
0.0
 10
43.34448614788471
 20
106.4654519868
 30
0.0
 10
43.34448614788471
 20
106.4654519868
 30
0.0
 10
39.33948126507221
 20
105.94543245555
 30
0.0
 10
39.33948126507221
 20
105.94543245555
 30
0.0
 10
39.32547369671283
 20
105.997434408675
 30
0.0
 10
39.31848517132221
 20
106.0504129243
 30
0.0
 10
39.29248419475971
 20
106.0994241547687
 30
0.0
 10
39.29248419475971
 20
106.0994241547687
 30
0.0
 10
37.30847540569721
 20
109.7574441743
 30
0.0
 10
37.30847540569721
 20
109.7574441743
 30
0.0
 10
37.15747442913471
 20
110.0344217133625
 30
0.0
 10
36.83948126507221
 20
110.1774270844562
 30
0.0
 10
36.53348150921283
 20
110.11144808055
 30
0.0
 10
36.53348150921283
 20
110.11144808055
 30
0.0
 10
34.33847418499408
 20
109.6274392914875
 30
0.0
 10
34.33847418499408
 20
109.6274392914875
 30
0.0
 10
34.33847418499408
 20
109.6274392914875
 30
0.0
 10
32.66247931194721
 20
117.1264627289875
 30
0.0
 10
32.66247931194721
 20
117.1264627289875
 30
0.0
 10
32.61249151897846
 20
117.350461752425
 30
0.0
 10
32.45846930218158
 20
117.5344827485187
 30
0.0
 10
32.24847784710346
 20
117.6244485688312
 30
0.0
 10
32.03848639202533
 20
117.7154519868
 30
0.0
 10
31.79748907757221
 20
117.6964700532062
 30
0.0
 10
31.60248175335346
 20
117.5774514985187
 30
0.0
 10
31.60248175335346
 20
117.5774514985187
 30
0.0
 10
24.41449347210346
 20
113.2014749360187
 30
0.0
 10
24.41449347210346
 20
113.2014749360187
 30
0.0
 10
24.41449347210346
 20
113.2014749360187
 30
0.0
 10
22.38647833538471
 20
113.8674905610187
 30
0.0
 10
22.38647833538471
 20
113.8674905610187
 30
0.0
 10
22.19449225140033
 20
113.933469564925
 30
0.0
 10
21.98047247600971
 20
113.9085061860187
 30
0.0
 10
21.80447760296283
 20
113.8045022797687
 30
0.0
 10
10.33447638225971
 20
107.0054910493
 30
0.0
 10
10.25647345257221
 20
106.9265115571125
 30
0.0
 10
10.17248907757221
 20
106.8425271821125
 30
0.0
 10
9.975498110775334
 20
106.6465432953937
 30
0.0
 10
9.925479800228459
 20
106.3635232758625
 30
0.0
 10
10.00848761272846
 20
106.1165139985187
 30
0.0
 10
9.957492739681584
 20
105.9194925141437
 30
0.0
 10
9.973483950619084
 20
105.7095315766437
 30
0.0
 10
10.09250250530658
 20
105.5385110688312
 30
0.0
 10
10.09250250530658
 20
105.5385110688312
 30
0.0
 10
16.21350470257221
 20
96.77551058054996
 30
0.0
 10
16.21350470257221
 20
96.77551058054996
 30
0.0
 10
16.21350470257221
 20
96.77551058054996
 30
0.0
 10
8.042514712337834
 20
78.93652132273746
 30
0.0
 10
8.042514712337834
 20
78.93652132273746
 30
0.0
 10
7.959506899837834
 20
78.75549104929996
 30
0.0
 10
7.960513979915959
 20
78.55853060008121
 30
0.0
 10
8.027500063900334
 20
78.38653352976871
 30
0.0
 10
7.999484927181584
 20
78.30950716258121
 30
0.0
 10
7.977512270931584
 20
78.22955110789371
 30
0.0
 10
7.977512270931584
 20
78.14550569773746
 30
0.0
 10
7.977512270931584
 20
78.14550569773746
 30
0.0
 10
7.977512270931584
 20
69.60650423289371
 30
0.0
 10
7.977512270931584
 20
69.60650423289371
 30
0.0
 10
7.977512270931584
 20
69.54449251414371
 30
0.0
 10
7.986514956478459
 20
69.48150423289371
 30
0.0
 10
8.001499087337834
 20
69.42150667429996
 30
0.0
 10
8.001499087337834
 20
69.42150667429996
 30
0.0
 10
10.93048468304096
 20
58.58752229929996
 30
0.0
 10
10.93048468304096
 20
58.58752229929996
 30
0.0
 10
10.93048468304096
 20
58.58752229929996
 30
0.0
 10
7.998477847103459
 20
46.86150911570621
 30
0.0
 10
7.998477847103459
 20
46.86150911570621
 30
0.0
 10
7.945468813900334
 20
46.64953401804996
 30
0.0
 10
7.992465884212834
 20
46.42553499461246
 30
0.0
 10
8.127475649837834
 20
46.25353792429996
 30
0.0
 10
8.262485415462834
 20
46.08154085398746
 30
0.0
 10
8.468479067806584
 20
45.98156526804996
 30
0.0
 10
8.686466128353459
 20
45.98156526804996
 30
0.0
 10
8.686466128353459
 20
45.98156526804996
 30
0.0
 10
17.02646246624408
 20
45.98156526804996
 30
0.0
 10
17.02646246624408
 20
45.98156526804996
 30
0.0
 10
17.30746832561908
 20
45.98156526804996
 30
0.0
 10
17.56247320843158
 20
46.14855745554996
 30
0.0
 10
17.67544928265033
 20
46.40655306101871
 30
0.0
 10
17.67544928265033
 20
46.40655306101871
 30
0.0
 10
21.34744635296283
 20
54.80553987742496
 30
0.0
 10
21.34744635296283
 20
54.80553987742496
 30
0.0
 10
24.13644781780658
 20
45.96856477976871
 30
0.0
 10
24.56045904827533
 20
45.91155794383121
 30
0.0
 10
24.92645636272846
 20
45.86852815867496
 30
0.0
 10
25.01245489788471
 20
45.85851839304996
 30
0.0
 10
25.19244757366596
 20
45.83849886179996
 30
0.0
 10
26.93246832561908
 20
45.83849886179996
 30
0.0
 10
26.93347540569721
 20
45.83849886179996
 30
0.0
 10
26.93347540569721
 20
45.83849886179996
 30
0.0
 10
26.93347540569721
 20
45.83849886179996
 30
0.0
 10
31.45547857952533
 20
45.83849886179996
 30
0.0
 10
42.38846197796283
 20
45.97949007273746
 30
0.0
 10
42.54947272015033
 20
45.98150423289371
 30
0.0
 10
42.54947272015033
 20
45.98150423289371
 30
0.0
 10
75.99545660687
 20
45.83648470164371
 30
0.0
 10
75.99545660687
 20
45.83648470164371
 30
0.0
 10
75.99646368694812
 20
45.83648470164371
 30
0.0
 10
75.99747076702624
 20
45.83648470164371
 30
0.0
 10
75.99844732952624
 20
45.83648470164371
 30
0.0
 10
76.35644903851062
 20
45.83648470164371
 30
0.0
 10
76.65845099163562
 20
46.10449007273746
 30
0.0
 10
76.70145025921374
 20
46.46050813914371
 30
0.0
 10
76.74646368694812
 20
46.81945589304996
 30
0.0
 10
76.51544562054187
 20
47.15246370554996
 30
0.0
 10
76.16547003460437
 20
47.23644808054996
 30
0.0
  0
POLYLINE
  5
42
330
1F
100
AcDbEntity
  8
Layer 1
370
     0
100
AcDb2dPolyline
 66
     1
 10
0.0
 20
0.0
 30
0.0
  0
VERTEX
  5
43
330
42
100
AcDbEntity
  8
Layer 1
370
     0
100
AcDbVertex
100
AcDb2dVertex
 10
22.20645514202533
 20
90.80041292429996
 30
0.0
  0
VERTEX
  5
44
330
42
100
AcDbEntity
  8
Layer 1
370
     0
100
AcDbVertex
100
AcDb2dVertex
 10
33.27746954632221
 20
91.26843050242496
 30
0.0
  0
VERTEX
  5
45
330
42
100
AcDbEntity
  8
Layer 1
370
     0
100
AcDbVertex
100
AcDb2dVertex
 10
28.70148077679096
 20
86.02642610789371
 30
0.0
  0
VERTEX
  5
46
330
42
100
AcDbEntity
  8
Layer 1
370
     0
100
AcDbVertex
100
AcDb2dVertex
 10
22.20645514202533
 20
90.80041292429996
 30
0.0
  0
SEQEND
  5
47
330
42
100
AcDbEntity
  8
Layer 1
370
     0
  0
POLYLINE
  5
48
330
1F
100
AcDbEntity
  8
Layer 1
370
     0
100
AcDb2dPolyline
 66
     1
 10
0.0
 20
0.0
 30
0.0
  0
VERTEX
  5
49
330
48
100
AcDbEntity
  8
Layer 1
370
     0
100
AcDbVertex
100
AcDb2dVertex
 10
36.60345831585346
 20
99.10046175242496
 30
0.0
  0
VERTEX
  5
4A
330
48
100
AcDbEntity
  8
Layer 1
370
     0
100
AcDbVertex
100
AcDb2dVertex
 10
31.25845709515033
 20
103.4684427094562
 30
0.0
  0
VERTEX
  5
4B
330
48
100
AcDbEntity
  8
Layer 1
370
     0
100
AcDbVertex
100
AcDb2dVertex
 10
41.65445318890033
 20
104.8174417328937
 30
0.0
  0
VERTEX
  5
4C
330
48
100
AcDbEntity
  8
Layer 1
370
     0
100
AcDbVertex
100
AcDb2dVertex
 10
36.60345831585346
 20
99.10046175242496
 30
0.0
  0
SEQEND
  5
4D
330
48
100
AcDbEntity
  8
Layer 1
370
     0
  0
POLYLINE
  5
4E
330
1F
100
AcDbEntity
  8
Layer 1
370
     0
100
AcDb2dPolyline
 66
     1
 10
0.0
 20
0.0
 30
0.0
  0
VERTEX
  5
4F
330
4E
100
AcDbEntity
  8
Layer 1
370
     0
100
AcDbVertex
100
AcDb2dVertex
 10
37.86645880413471
 20
105.7544534516437
 30
0.0
  0
VERTEX
  5
50
330
4E
100
AcDbEntity
  8
Layer 1
370
     0
100
AcDbVertex
100
AcDb2dVertex
 10
30.14645758343158
 20
104.7534768891437
 30
0.0
  0
VERTEX
  5
51
330
4E
100
AcDbEntity
  8
Layer 1
370
     0
100
AcDbVertex
100
AcDb2dVertex
 10
29.82745733929096
 20
107.1804788422687
 30
0.0
  0
VERTEX
  5
52
330
4E
100
AcDbEntity
  8
Layer 1
370
     0
100
AcDbVertex
100
AcDb2dVertex
 10
36.31647101116596
 20
108.6144998383625
 30
0.0
  0
VERTEX
  5
53
330
4E
100
AcDbEntity
  8
Layer 1
370
     0
100
AcDbVertex
100
AcDb2dVertex
 10
37.86645880413471
 20
105.7544534516437
 30
0.0
  0
SEQEND
  5
54
330
4E
100
AcDbEntity
  8
Layer 1
370
     0
  0
POLYLINE
  5
55
330
1F
100
AcDbEntity
  8
Layer 1
370
     0
100
AcDb2dPolyline
 66
     1
 10
0.0
 20
0.0
 30
0.0
  0
VERTEX
  5
56
330
55
100
AcDbEntity
  8
Layer 1
370
     0
100
AcDbVertex
100
AcDb2dVertex
 10
31.49444952679096
 20
115.8544290375812
 30
0.0
  0
VERTEX
  5
57
330
55
100
AcDbEntity
  8
Layer 1
370
     0
100
AcDbVertex
100
AcDb2dVertex
 10
32.69446173382221
 20
110.4824197602375
 30
0.0
  0
VERTEX
  5
58
330
55
100
AcDbEntity
  8
Layer 1
370
     0
100
AcDbVertex
100
AcDb2dVertex
 10
26.18347540569721
 20
112.6213968110187
 30
0.0
  0
VERTEX
  5
59
330
55
100
AcDbEntity
  8
Layer 1
370
     0
100
AcDbVertex
100
AcDb2dVertex
 10
31.49444952679096
 20
115.8544290375812
 30
0.0
  0
SEQEND
  5
5A
330
55
100
AcDbEntity
  8
Layer 1
370
     0
  0
SPLINE
  5
5B
330
1F
100
AcDbEntity
  8
Layer 1
370
     0
100
AcDbSpline
210
0.0
220
0.0
230
1.0
 70
    11
 71
     3
 72
    17
 73
    13
 74
     0
 42
0.0000000001
 43
0.0000000001
 12
1.0
 22
0.0
 32
0.0
 13
1.0
 23
0.0
 33
0.0
 40
0.0
 40
0.0
 40
0.0
 40
0.0
 40
1.0
 40
1.0
 40
1.0
 40
2.0
 40
2.0
 40
2.0
 40
3.0
 40
3.0
 40
3.0
 40
4.0
 40
4.0
 40
4.0
 40
4.0
 10
22.25046148968158
 20
112.4224222016437
 30
0.0
 10
22.25046148968158
 20
112.4224222016437
 30
0.0
 10
32.19546881390033
 20
109.15539339305
 30
0.0
 10
32.19546881390033
 20
109.15539339305
 30
0.0
 10
32.19546881390033
 20
109.15539339305
 30
0.0
 10
28.92447272015033
 20
108.4323709321125
 30
0.0
 10
28.92447272015033
 20
108.4323709321125
 30
0.0
 10
28.92447272015033
 20
108.4323709321125
 30
0.0
 10
12.92547980022846
 20
106.875364096175
 30
0.0
 10
12.92547980022846
 20
106.875364096175
 30
0.0
 10
15.22546759319721
 20
108.2514627289875
 30
0.0
 10
19.21344366741596
 20
110.6204202485187
 30
0.0
 10
22.25046148968158
 20
112.4224222016437
 30
0.0
  0
SPLINE
  5
5C
330
1F
100
AcDbEntity
  8
Layer 1
370
     0
100
AcDbSpline
210
0.0
220
0.0
230
1.0
 70
    11
 71
     3
 72
    44
 73
    40
 74
     0
 42
0.0000000001
 43
0.0000000001
 12
1.0
 22
0.0
 32
0.0
 13
1.0
 23
0.0
 33
0.0
 40
0.0
 40
0.0
 40
0.0
 40
0.0
 40
1.0
 40
1.0
 40
1.0
 40
2.0
 40
2.0
 40
2.0
 40
3.0
 40
3.0
 40
3.0
 40
4.0
 40
4.0
 40
4.0
 40
5.0
 40
5.0
 40
5.0
 40
6.0
 40
6.0
 40
6.0
 40
7.0
 40
7.0
 40
7.0
 40
8.0
 40
8.0
 40
8.0
 40
9.0
 40
9.0
 40
9.0
 40
10.0
 40
10.0
 40
10.0
 40
11.0
 40
11.0
 40
11.0
 40
12.0
 40
12.0
 40
12.0
 40
13.0
 40
13.0
 40
13.0
 40
13.0
 10
28.42746344280658
 20
106.9614236664875
 30
0.0
 10
28.42746344280658
 20
106.9614236664875
 30
0.0
 10
28.83346930218158
 20
103.8694436860187
 30
0.0
 10
28.83346930218158
 20
103.8694436860187
 30
0.0
 10
28.83548346233783
 20
103.8564431977375
 30
0.0
 10
28.83746710491596
 20
103.8434427094562
 30
0.0
 10
28.83948126507221
 20
103.830442221175
 30
0.0
 10
28.85449591350971
 20
103.7504251313312
 30
0.0
 10
28.88248053265033
 20
103.6764505219562
 30
0.0
 10
28.92047491741596
 20
103.6094339203937
 30
0.0
 10
28.92047491741596
 20
103.6084573578937
 30
0.0
 10
28.92047491741596
 20
103.6084573578937
 30
0.0
 10
28.92047491741596
 20
103.6084573578937
 30
0.0
 10
28.92047491741596
 20
103.6074807953937
 30
0.0
 10
28.92148199749408
 20
103.6074807953937
 30
0.0
 10
28.92148199749408
 20
103.6074807953937
 30
0.0
 10
28.95447149944721
 20
103.5494973969562
 30
0.0
 10
28.99548712444721
 20
103.495481283675
 30
0.0
 10
29.04648199749408
 20
103.4475076508625
 30
0.0
 10
29.04748907757221
 20
103.4465310883625
 30
0.0
 10
29.04748907757221
 20
103.4465310883625
 30
0.0
 10
29.04748907757221
 20
103.4465310883625
 30
0.0
 10
29.06250372600971
 20
103.4325540375812
 30
0.0
 10
29.07648077679096
 20
103.4205301118
 30
0.0
 10
29.09149542522846
 20
103.4075296235187
 30
0.0
 10
29.09149542522846
 20
103.4075296235187
 30
0.0
 10
35.87048712444721
 20
97.86852815867496
 30
0.0
 10
35.87048712444721
 20
97.86852815867496
 30
0.0
 10
35.87048712444721
 20
97.86852815867496
 30
0.0
 10
34.36047735882221
 20
92.73150423289371
 30
0.0
 10
34.36047735882221
 20
92.73150423289371
 30
0.0
 10
34.36047735882221
 20
92.73150423289371
 30
0.0
 10
21.15848150921283
 20
92.17352083445621
 30
0.0
 10
21.15848150921283
 20
92.17352083445621
 30
0.0
 10
21.15848150921283
 20
92.17352083445621
 30
0.0
 10
11.94849005413471
 20
105.35754183055
 30
0.0
 10
11.94849005413471
 20
105.35754183055
 30
0.0
 10
11.94849005413471
 20
105.35754183055
 30
0.0
 10
28.42746344280658
 20
106.9614236664875
 30
0.0
 10
28.42746344280658
 20
106.9614236664875
 30
0.0
  0
POLYLINE
  5
5D
330
1F
100
AcDbEntity
  8
Layer 1
370
     0
100
AcDb2dPolyline
 66
     1
 10
0.0
 20
0.0
 30
0.0
  0
VERTEX
  5
5E
330
5D
100
AcDbEntity
  8
Layer 1
370
     0
100
AcDbVertex
100
AcDb2dVertex
 10
20.09247198772846
 20
91.22442415476871
 30
0.0
  0
VERTEX
  5
5F
330
5D
100
AcDbEntity
  8
Layer 1
370
     0
100
AcDbVertex
100
AcDb2dVertex
 10
13.23746100140033
 20
83.50042513133121
 30
0.0
  0
VERTEX
  5
60
330
5D
100
AcDbEntity
  8
Layer 1
370
     0
100
AcDbVertex
100
AcDb2dVertex
 10
10.47745123577533
 20
80.84942415476871
 30
0.0
  0
VERTEX
  5
61
330
5D
100
AcDbEntity
  8
Layer 1
370
     0
100
AcDbVertex
100
AcDb2dVertex
 10
17.15643683147846
 20
95.42944124461246
 30
0.0
  0
VERTEX
  5
62
330
5D
100
AcDbEntity
  8
Layer 1
370
     0
100
AcDbVertex
100
AcDb2dVertex
 10
20.09247198772846
 20
91.22442415476871
 30
0.0
  0
SEQEND
  5
63
330
5D
100
AcDbEntity
  8
Layer 1
370
     0
  0
SPLINE
  5
64
330
1F
100
AcDbEntity
  8
Layer 1
370
     0
100
AcDbSpline
210
0.0
220
0.0
230
1.0
 70
    11
 71
     3
 72
    32
 73
    28
 74
     0
 42
0.0000000001
 43
0.0000000001
 12
1.0
 22
0.0
 32
0.0
 13
1.0
 23
0.0
 33
0.0
 40
0.0
 40
0.0
 40
0.0
 40
0.0
 40
1.0
 40
1.0
 40
1.0
 40
2.0
 40
2.0
 40
2.0
 40
3.0
 40
3.0
 40
3.0
 40
4.0
 40
4.0
 40
4.0
 40
5.0
 40
5.0
 40
5.0
 40
6.0
 40
6.0
 40
6.0
 40
7.0
 40
7.0
 40
7.0
 40
8.0
 40
8.0
 40
8.0
 40
9.0
 40
9.0
 40
9.0
 40
9.0
 10
20.44946661663471
 20
56.29046419383121
 30
0.0
 10
20.44946661663471
 20
56.29046419383121
 30
0.0
 10
16.56247320843158
 20
47.40044954539371
 30
0.0
 10
16.56247320843158
 20
47.40044954539371
 30
0.0
 10
16.56247320843158
 20
47.40044954539371
 30
0.0
 10
9.593479067806584
 20
47.40044954539371
 30
0.0
 10
9.593479067806584
 20
47.40044954539371
 30
0.0
 10
9.593479067806584
 20
47.40044954539371
 30
0.0
 10
12.35046759319721
 20
58.42345979929996
 30
0.0
 10
12.35046759319721
 20
58.42345979929996
 30
0.0
 10
12.37945929241596
 20
58.54046419383121
 30
0.0
 10
12.37848272991596
 20
58.66345003367496
 30
0.0
 10
12.34747687054096
 20
58.77947786570621
 30
0.0
 10
12.34747687054096
 20
58.77947786570621
 30
0.0
 10
9.395481020931584
 20
69.70049837351871
 30
0.0
 10
9.395481020931584
 20
69.70049837351871
 30
0.0
 10
9.395481020931584
 20
69.70049837351871
 30
0.0
 10
9.395481020931584
 20
77.84448030711246
 30
0.0
 10
9.395481020931584
 20
77.84448030711246
 30
0.0
 10
9.395481020931584
 20
77.84448030711246
 30
0.0
 10
13.39346686077533
 20
81.68548372508121
 30
0.0
 10
13.39346686077533
 20
81.68548372508121
 30
0.0
 10
16.78747931194721
 20
69.84948518992496
 30
0.0
 10
19.13745489788471
 20
61.92046907664371
 30
0.0
 10
20.77945318890033
 20
56.62548616648746
 30
0.0
 10
20.64044562054096
 20
56.55541780711246
 30
0.0
 10
20.51846686077533
 20
56.44640901804996
 30
0.0
 10
20.44946661663471
 20
56.29046419383121
 30
0.0
  0
SPLINE
  5
65
330
1F
100
AcDbEntity
  8
Layer 1
370
     0
100
AcDbSpline
210
0.0
220
0.0
230
1.0
 70
    11
 71
     3
 72
    26
 73
    22
 74
     0
 42
0.0000000001
 43
0.0000000001
 12
1.0
 22
0.0
 32
0.0
 13
1.0
 23
0.0
 33
0.0
 40
0.0
 40
0.0
 40
0.0
 40
0.0
 40
1.0
 40
1.0
 40
1.0
 40
2.0
 40
2.0
 40
2.0
 40
3.0
 40
3.0
 40
3.0
 40
4.0
 40
4.0
 40
4.0
 40
5.0
 40
5.0
 40
5.0
 40
6.0
 40
6.0
 40
6.0
 40
7.0
 40
7.0
 40
7.0
 40
7.0
 10
26.93344488811908
 20
47.25744417429996
 30
0.0
 10
26.10443487835346
 20
47.25744417429996
 30
0.0
 10
25.64645758343158
 20
47.26244905711246
 30
0.0
 10
25.39245978069721
 20
47.26745393992496
 30
0.0
 10
24.17447272015033
 20
49.82147005320621
 30
0.0
 10
18.35644903850971
 20
69.51446321726871
 30
0.0
 10
14.53946295452533
 20
82.83245638133121
 30
0.0
 10
14.53946295452533
 20
82.83245638133121
 30
0.0
 10
20.90045538616596
 20
89.99944856883121
 30
0.0
 10
20.90045538616596
 20
89.99944856883121
 30
0.0
 10
20.90045538616596
 20
89.99944856883121
 30
0.0
 10
41.83545294475971
 20
74.61047151804996
 30
0.0
 10
41.83545294475971
 20
74.61047151804996
 30
0.0
 10
41.83545294475971
 20
74.61047151804996
 30
0.0
 10
41.83545294475971
 20
47.39147737742496
 30
0.0
 10
41.83545294475971
 20
47.39147737742496
 30
0.0
 10
39.33545294475971
 20
47.36144808054996
 30
0.0
 10
30.79245367718158
 20
47.25744417429996
 30
0.0
 10
26.93344488811908
 20
47.25744417429996
 30
0.0
 10
26.93445196819721
 20
47.25744417429996
 30
0.0
 10
26.93445196819721
 20
47.25744417429996
 30
0.0
 10
26.93344488811908
 20
47.25744417429996
 30
0.0
  0
POLYLINE
  5
66
330
1F
100
AcDbEntity
  8
Layer 1
370
     0
100
AcDb2dPolyline
 66
     1
 10
0.0
 20
0.0
 30
0.0
  0
VERTEX
  5
67
330
66
100
AcDbEntity
  8
Layer 1
370
     0
100
AcDbVertex
100
AcDb2dVertex
 10
43.25345221233783
 20
47.39843538523746
 30
0.0
  0
VERTEX
  5
68
330
66
100
AcDbEntity
  8
Layer 1
370
     0
100
AcDbVertex
100
AcDb2dVertex
 10
43.25345221233783
 20
53.73345735789371
 30
0.0
  0
VERTEX
  5
69
330
66
100
AcDbEntity
  8
Layer 1
370
     0
100
AcDbVertex
100
AcDb2dVertex
 10
69.94244757366687
 20
47.28246858836246
 30
0.0
  0
VERTEX
  5
6A
330
66
100
AcDbEntity
  8
Layer 1
370
     0
100
AcDbVertex
100
AcDb2dVertex
 10
43.25345221233783
 20
47.39843538523746
 30
0.0
  0
SEQEND
  5
6B
330
66
100
AcDbEntity
  8
Layer 1
370
     0
  0
HATCH
  5
6C
330
1F
100
AcDbEntity
  8
Layer 1
 62
     7
420
 16777215
100
AcDbHatch
 10
0.0
 20
0.0
 30
0.0
210
0.0
220
0.0
230
1.0
  2
SOLID
 70
     1
 71
     0
 91
       11
 92
        1
 93
        1
 72
     4
 94
        3
 73
     0
 74
     1
 95
      149
 96
      145
 40
0.0
 40
0.0
 40
0.0
 40
0.0
 40
1.0
 40
1.0
 40
1.0
 40
2.0
 40
2.0
 40
2.0
 40
3.0
 40
3.0
 40
3.0
 40
4.0
 40
4.0
 40
4.0
 40
5.0
 40
5.0
 40
5.0
 40
6.0
 40
6.0
 40
6.0
 40
7.0
 40
7.0
 40
7.0
 40
8.0
 40
8.0
 40
8.0
 40
9.0
 40
9.0
 40
9.0
 40
10.0
 40
10.0
 40
10.0
 40
11.0
 40
11.0
 40
11.0
 40
12.0
 40
12.0
 40
12.0
 40
13.0
 40
13.0
 40
13.0
 40
14.0
 40
14.0
 40
14.0
 40
15.0
 40
15.0
 40
15.0
 40
16.0
 40
16.0
 40
16.0
 40
17.0
 40
17.0
 40
17.0
 40
18.0
 40
18.0
 40
18.0
 40
19.0
 40
19.0
 40
19.0
 40
20.0
 40
20.0
 40
20.0
 40
21.0
 40
21.0
 40
21.0
 40
22.0
 40
22.0
 40
22.0
 40
23.0
 40
23.0
 40
23.0
 40
24.0
 40
24.0
 40
24.0
 40
25.0
 40
25.0
 40
25.0
 40
26.0
 40
26.0
 40
26.0
 40
27.0
 40
27.0
 40
27.0
 40
28.0
 40
28.0
 40
28.0
 40
29.0
 40
29.0
 40
29.0
 40
30.0
 40
30.0
 40
30.0
 40
31.0
 40
31.0
 40
31.0
 40
32.0
 40
32.0
 40
32.0
 40
33.0
 40
33.0
 40
33.0
 40
34.0
 40
34.0
 40
34.0
 40
35.0
 40
35.0
 40
35.0
 40
36.0
 40
36.0
 40
36.0
 40
37.0
 40
37.0
 40
37.0
 40
38.0
 40
38.0
 40
38.0
 40
39.0
 40
39.0
 40
39.0
 40
40.0
 40
40.0
 40
40.0
 40
41.0
 40
41.0
 40
41.0
 40
42.0
 40
42.0
 40
42.0
 40
43.0
 40
43.0
 40
43.0
 40
44.0
 40
44.0
 40
44.0
 40
45.0
 40
45.0
 40
45.0
 40
46.0
 40
46.0
 40
46.0
 40
47.0
 40
47.0
 40
47.0
 40
48.0
 40
48.0
 40
48.0
 40
48.0
 10
76.16547003460437
 20
47.23644808054996
 10
76.16547003460437
 20
47.23644808054996
 10
43.25348272991596
 20
55.19146517039371
 10
43.25348272991596
 20
55.19146517039371
 10
43.25348272991596
 20
55.19146517039371
 10
43.25348272991596
 20
74.96948030711246
 10
43.25348272991596
 20
74.96948030711246
 10
43.25348272991596
 20
75.19549349070621
 10
43.14648810100971
 20
75.40746858836246
 10
42.96448126507221
 20
75.54046419383121
 10
42.96448126507221
 20
75.54046419383121
 10
29.84747687054096
 20
85.18346956492496
 10
29.84747687054096
 20
85.18346956492496
 10
29.84747687054096
 20
85.18346956492496
 10
35.43246832561908
 20
91.57946565867496
 10
35.43246832561908
 20
91.57946565867496
 10
35.44046393108783
 20
91.58843782664371
 10
35.44147101116596
 20
91.59948518992496
 10
35.44946661663471
 20
91.60748079539371
 10
35.49145880413471
 20
91.66149690867496
 10
35.52447882366596
 20
91.72045686961246
 10
35.55047980022846
 20
91.78545931101871
 10
35.55746832561908
 20
91.80346468211246
 10
35.56848517132221
 20
91.81744173289371
 10
35.57349005413471
 20
91.83447054148746
 10
35.57449713421283
 20
91.83849886179996
 10
35.57748785686908
 20
91.84148958445621
 10
35.57849493694721
 20
91.84545686961246
 10
35.57849493694721
 20
91.84545686961246
 10
37.31949225140033
 20
97.76946810008121
 10
37.31949225140033
 20
97.76946810008121
 10
37.31949225140033
 20
97.76946810008121
 10
43.96649542522846
 20
105.2934549164875
 10
43.96649542522846
 20
105.2934549164875
 10
44.16150274944721
 20
105.5144632172687
 10
44.19949713421283
 20
105.8334329438312
 10
44.06149664593158
 20
106.0944803071125
 10
43.92349615765033
 20
106.3555276703937
 10
43.63150397015033
 20
106.5034768891437
 10
43.34448614788471
 20
106.4654519868
 10
43.34448614788471
 20
106.4654519868
 10
39.33948126507221
 20
105.94543245555
 10
39.33948126507221
 20
105.94543245555
 10
39.32547369671283
 20
105.997434408675
 10
39.31848517132221
 20
106.0504129243
 10
39.29248419475971
 20
106.0994241547687
 10
39.29248419475971
 20
106.0994241547687
 10
37.30847540569721
 20
109.7574441743
 10
37.30847540569721
 20
109.7574441743
 10
37.15747442913471
 20
110.0344217133625
 10
36.83948126507221
 20
110.1774270844562
 10
36.53348150921283
 20
110.11144808055
 10
36.53348150921283
 20
110.11144808055
 10
34.33847418499408
 20
109.6274392914875
 10
34.33847418499408
 20
109.6274392914875
 10
34.33847418499408
 20
109.6274392914875
 10
32.66247931194721
 20
117.1264627289875
 10
32.66247931194721
 20
117.1264627289875
 10
32.61249151897846
 20
117.350461752425
 10
32.45846930218158
 20
117.5344827485187
 10
32.24847784710346
 20
117.6244485688312
 10
32.03848639202533
 20
117.7154519868
 10
31.79748907757221
 20
117.6964700532062
 10
31.60248175335346
 20
117.5774514985187
 10
31.60248175335346
 20
117.5774514985187
 10
24.41449347210346
 20
113.2014749360187
 10
24.41449347210346
 20
113.2014749360187
 10
24.41449347210346
 20
113.2014749360187
 10
22.38647833538471
 20
113.8674905610187
 10
22.38647833538471
 20
113.8674905610187
 10
22.19449225140033
 20
113.933469564925
 10
21.98047247600971
 20
113.9085061860187
 10
21.80447760296283
 20
113.8045022797687
 10
10.33447638225971
 20
107.0054910493
 10
10.25647345257221
 20
106.9265115571125
 10
10.17248907757221
 20
106.8425271821125
 10
9.975498110775334
 20
106.6465432953937
 10
9.925479800228459
 20
106.3635232758625
 10
10.00848761272846
 20
106.1165139985187
 10
9.957492739681584
 20
105.9194925141437
 10
9.973483950619084
 20
105.7095315766437
 10
10.09250250530658
 20
105.5385110688312
 10
10.09250250530658
 20
105.5385110688312
 10
16.21350470257221
 20
96.77551058054996
 10
16.21350470257221
 20
96.77551058054996
 10
16.21350470257221
 20
96.77551058054996
 10
8.042514712337834
 20
78.93652132273746
 10
8.042514712337834
 20
78.93652132273746
 10
7.959506899837834
 20
78.75549104929996
 10
7.960513979915959
 20
78.55853060008121
 10
8.027500063900334
 20
78.38653352976871
 10
7.999484927181584
 20
78.30950716258121
 10
7.977512270931584
 20
78.22955110789371
 10
7.977512270931584
 20
78.14550569773746
 10
7.977512270931584
 20
78.14550569773746
 10
7.977512270931584
 20
69.60650423289371
 10
7.977512270931584
 20
69.60650423289371
 10
7.977512270931584
 20
69.54449251414371
 10
7.986514956478459
 20
69.48150423289371
 10
8.001499087337834
 20
69.42150667429996
 10
8.001499087337834
 20
69.42150667429996
 10
10.93048468304096
 20
58.58752229929996
 10
10.93048468304096
 20
58.58752229929996
 10
10.93048468304096
 20
58.58752229929996
 10
7.998477847103459
 20
46.86150911570621
 10
7.998477847103459
 20
46.86150911570621
 10
7.945468813900334
 20
46.64953401804996
 10
7.992465884212834
 20
46.42553499461246
 10
8.127475649837834
 20
46.25353792429996
 10
8.262485415462834
 20
46.08154085398746
 10
8.468479067806584
 20
45.98156526804996
 10
8.686466128353459
 20
45.98156526804996
 10
8.686466128353459
 20
45.98156526804996
 10
17.02646246624408
 20
45.98156526804996
 10
17.02646246624408
 20
45.98156526804996
 10
17.30746832561908
 20
45.98156526804996
 10
17.56247320843158
 20
46.14855745554996
 10
17.67544928265033
 20
46.40655306101871
 10
17.67544928265033
 20
46.40655306101871
 10
21.34744635296283
 20
54.80553987742496
 10
21.34744635296283
 20
54.80553987742496
 10
24.13644781780658
 20
45.96856477976871
 10
24.56045904827533
 20
45.91155794383121
 10
24.92645636272846
 20
45.86852815867496
 10
25.01245489788471
 20
45.85851839304996
 10
25.19244757366596
 20
45.83849886179996
 10
26.93246832561908
 20
45.83849886179996
 10
26.93347540569721
 20
45.83849886179996
 10
26.93347540569721
 20
45.83849886179996
 10
26.93347540569721
 20
45.83849886179996
 10
31.45547857952533
 20
45.83849886179996
 10
42.38846197796283
 20
45.97949007273746
 10
42.54947272015033
 20
45.98150423289371
 10
42.54947272015033
 20
45.98150423289371
 10
75.99545660687
 20
45.83648470164371
 10
75.99545660687
 20
45.83648470164371
 10
75.99646368694812
 20
45.83648470164371
 10
75.99747076702624
 20
45.83648470164371
 10
75.99844732952624
 20
45.83648470164371
 10
76.35644903851062
 20
45.83648470164371
 10
76.65845099163562
 20
46.10449007273746
 10
76.70145025921374
 20
46.46050813914371
 10
76.74646368694812
 20
46.81945589304996
 10
76.51544562054187
 20
47.15246370554996
 10
76.16547003460437
 20
47.23644808054996
 97
        0
 97
        0
 92
        1
 93
        3
 72
     1
 10
22.20645514202533
 20
90.80041292429996
 11
33.27746954632221
 21
91.26843050242496
 72
     1
 10
33.27746954632221
 20
91.26843050242496
 11
28.70148077679096
 21
86.02642610789371
 72
     1
 10
28.70148077679096
 20
86.02642610789371
 11
22.20645514202533
 21
90.80041292429996
 97
        0
 92
        1
 93
        3
 72
     1
 10
36.60345831585346
 20
99.10046175242496
 11
31.25845709515033
 21
103.4684427094562
 72
     1
 10
31.25845709515033
 20
103.4684427094562
 11
41.65445318890033
 21
104.8174417328937
 72
     1
 10
41.65445318890033
 20
104.8174417328937
 11
36.60345831585346
 21
99.10046175242496
 97
        0
 92
        1
 93
        4
 72
     1
 10
37.86645880413471
 20
105.7544534516437
 11
30.14645758343158
 21
104.7534768891437
 72
     1
 10
30.14645758343158
 20
104.7534768891437
 11
29.82745733929096
 21
107.1804788422687
 72
     1
 10
29.82745733929096
 20
107.1804788422687
 11
36.31647101116596
 21
108.6144998383625
 72
     1
 10
36.31647101116596
 20
108.6144998383625
 11
37.86645880413471
 21
105.7544534516437
 97
        0
 92
        1
 93
        3
 72
     1
 10
31.49444952679096
 20
115.8544290375812
 11
32.69446173382221
 21
110.4824197602375
 72
     1
 10
32.69446173382221
 20
110.4824197602375
 11
26.18347540569721
 21
112.6213968110187
 72
     1
 10
26.18347540569721
 20
112.6213968110187
 11
31.49444952679096
 21
115.8544290375812
 97
        0
 92
        1
 93
        1
 72
     4
 94
        3
 73
     0
 74
     1
 95
       17
 96
       13
 40
0.0
 40
0.0
 40
0.0
 40
0.0
 40
1.0
 40
1.0
 40
1.0
 40
2.0
 40
2.0
 40
2.0
 40
3.0
 40
3.0
 40
3.0
 40
4.0
 40
4.0
 40
4.0
 40
4.0
 10
22.25046148968158
 20
112.4224222016437
 10
22.25046148968158
 20
112.4224222016437
 10
32.19546881390033
 20
109.15539339305
 10
32.19546881390033
 20
109.15539339305
 10
32.19546881390033
 20
109.15539339305
 10
28.92447272015033
 20
108.4323709321125
 10
28.92447272015033
 20
108.4323709321125
 10
28.92447272015033
 20
108.4323709321125
 10
12.92547980022846
 20
106.875364096175
 10
12.92547980022846
 20
106.875364096175
 10
15.22546759319721
 20
108.2514627289875
 10
19.21344366741596
 20
110.6204202485187
 10
22.25046148968158
 20
112.4224222016437
 97
        0
 97
        0
 92
        1
 93
        1
 72
     4
 94
        3
 73
     0
 74
     1
 95
       44
 96
       40
 40
0.0
 40
0.0
 40
0.0
 40
0.0
 40
1.0
 40
1.0
 40
1.0
 40
2.0
 40
2.0
 40
2.0
 40
3.0
 40
3.0
 40
3.0
 40
4.0
 40
4.0
 40
4.0
 40
5.0
 40
5.0
 40
5.0
 40
6.0
 40
6.0
 40
6.0
 40
7.0
 40
7.0
 40
7.0
 40
8.0
 40
8.0
 40
8.0
 40
9.0
 40
9.0
 40
9.0
 40
10.0
 40
10.0
 40
10.0
 40
11.0
 40
11.0
 40
11.0
 40
12.0
 40
12.0
 40
12.0
 40
13.0
 40
13.0
 40
13.0
 40
13.0
 10
28.42746344280658
 20
106.9614236664875
 10
28.42746344280658
 20
106.9614236664875
 10
28.83346930218158
 20
103.8694436860187
 10
28.83346930218158
 20
103.8694436860187
 10
28.83548346233783
 20
103.8564431977375
 10
28.83746710491596
 20
103.8434427094562
 10
28.83948126507221
 20
103.830442221175
 10
28.85449591350971
 20
103.7504251313312
 10
28.88248053265033
 20
103.6764505219562
 10
28.92047491741596
 20
103.6094339203937
 10
28.92047491741596
 20
103.6084573578937
 10
28.92047491741596
 20
103.6084573578937
 10
28.92047491741596
 20
103.6084573578937
 10
28.92047491741596
 20
103.6074807953937
 10
28.92148199749408
 20
103.6074807953937
 10
28.92148199749408
 20
103.6074807953937
 10
28.95447149944721
 20
103.5494973969562
 10
28.99548712444721
 20
103.495481283675
 10
29.04648199749408
 20
103.4475076508625
 10
29.04748907757221
 20
103.4465310883625
 10
29.04748907757221
 20
103.4465310883625
 10
29.04748907757221
 20
103.4465310883625
 10
29.06250372600971
 20
103.4325540375812
 10
29.07648077679096
 20
103.4205301118
 10
29.09149542522846
 20
103.4075296235187
 10
29.09149542522846
 20
103.4075296235187
 10
35.87048712444721
 20
97.86852815867496
 10
35.87048712444721
 20
97.86852815867496
 10
35.87048712444721
 20
97.86852815867496
 10
34.36047735882221
 20
92.73150423289371
 10
34.36047735882221
 20
92.73150423289371
 10
34.36047735882221
 20
92.73150423289371
 10
21.15848150921283
 20
92.17352083445621
 10
21.15848150921283
 20
92.17352083445621
 10
21.15848150921283
 20
92.17352083445621
 10
11.94849005413471
 20
105.35754183055
 10
11.94849005413471
 20
105.35754183055
 10
11.94849005413471
 20
105.35754183055
 10
28.42746344280658
 20
106.9614236664875
 10
28.42746344280658
 20
106.9614236664875
 97
        0
 97
        0
 92
        1
 93
        4
 72
     1
 10
20.09247198772846
 20
91.22442415476871
 11
13.23746100140033
 21
83.50042513133121
 72
     1
 10
13.23746100140033
 20
83.50042513133121
 11
10.47745123577533
 21
80.84942415476871
 72
     1
 10
10.47745123577533
 20
80.84942415476871
 11
17.15643683147846
 21
95.42944124461246
 72
     1
 10
17.15643683147846
 20
95.42944124461246
 11
20.09247198772846
 21
91.22442415476871
 97
        0
 92
        1
 93
        1
 72
     4
 94
        3
 73
     0
 74
     1
 95
       32
 96
       28
 40
0.0
 40
0.0
 40
0.0
 40
0.0
 40
1.0
 40
1.0
 40
1.0
 40
2.0
 40
2.0
 40
2.0
 40
3.0
 40
3.0
 40
3.0
 40
4.0
 40
4.0
 40
4.0
 40
5.0
 40
5.0
 40
5.0
 40
6.0
 40
6.0
 40
6.0
 40
7.0
 40
7.0
 40
7.0
 40
8.0
 40
8.0
 40
8.0
 40
9.0
 40
9.0
 40
9.0
 40
9.0
 10
20.44946661663471
 20
56.29046419383121
 10
20.44946661663471
 20
56.29046419383121
 10
16.56247320843158
 20
47.40044954539371
 10
16.56247320843158
 20
47.40044954539371
 10
16.56247320843158
 20
47.40044954539371
 10
9.593479067806584
 20
47.40044954539371
 10
9.593479067806584
 20
47.40044954539371
 10
9.593479067806584
 20
47.40044954539371
 10
12.35046759319721
 20
58.42345979929996
 10
12.35046759319721
 20
58.42345979929996
 10
12.37945929241596
 20
58.54046419383121
 10
12.37848272991596
 20
58.66345003367496
 10
12.34747687054096
 20
58.77947786570621
 10
12.34747687054096
 20
58.77947786570621
 10
9.395481020931584
 20
69.70049837351871
 10
9.395481020931584
 20
69.70049837351871
 10
9.395481020931584
 20
69.70049837351871
 10
9.395481020931584
 20
77.84448030711246
 10
9.395481020931584
 20
77.84448030711246
 10
9.395481020931584
 20
77.84448030711246
 10
13.39346686077533
 20
81.68548372508121
 10
13.39346686077533
 20
81.68548372508121
 10
16.78747931194721
 20
69.84948518992496
 10
19.13745489788471
 20
61.92046907664371
 10
20.77945318890033
 20
56.62548616648746
 10
20.64044562054096
 20
56.55541780711246
 10
20.51846686077533
 20
56.44640901804996
 10
20.44946661663471
 20
56.29046419383121
 97
        0
 97
        0
 92
        1
 93
        1
 72
     4
 94
        3
 73
     0
 74
     1
 95
       26
 96
       22
 40
0.0
 40
0.0
 40
0.0
 40
0.0
 40
1.0
 40
1.0
 40
1.0
 40
2.0
 40
2.0
 40
2.0
 40
3.0
 40
3.0
 40
3.0
 40
4.0
 40
4.0
 40
4.0
 40
5.0
 40
5.0
 40
5.0
 40
6.0
 40
6.0
 40
6.0
 40
7.0
 40
7.0
 40
7.0
 40
7.0
 10
26.93344488811908
 20
47.25744417429996
 10
26.10443487835346
 20
47.25744417429996
 10
25.64645758343158
 20
47.26244905711246
 10
25.39245978069721
 20
47.26745393992496
 10
24.17447272015033
 20
49.82147005320621
 10
18.35644903850971
 20
69.51446321726871
 10
14.53946295452533
 20
82.83245638133121
 10
14.53946295452533
 20
82.83245638133121
 10
20.90045538616596
 20
89.99944856883121
 10
20.90045538616596
 20
89.99944856883121
 10
20.90045538616596
 20
89.99944856883121
 10
41.83545294475971
 20
74.61047151804996
 10
41.83545294475971
 20
74.61047151804996
 10
41.83545294475971
 20
74.61047151804996
 10
41.83545294475971
 20
47.39147737742496
 10
41.83545294475971
 20
47.39147737742496
 10
39.33545294475971
 20
47.36144808054996
 10
30.79245367718158
 20
47.25744417429996
 10
26.93344488811908
 20
47.25744417429996
 10
26.93445196819721
 20
47.25744417429996
 10
26.93445196819721
 20
47.25744417429996
 10
26.93344488811908
 20
47.25744417429996
 97
        0
 97
        0
 92
        1
 93
        3
 72
     1
 10
43.25345221233783
 20
47.39843538523746
 11
43.25345221233783
 21
53.73345735789371
 72
     1
 10
43.25345221233783
 20
53.73345735789371
 11
69.94244757366687
 21
47.28246858836246
 72
     1
 10
69.94244757366687
 20
47.28246858836246
 11
43.25345221233783
 21
47.39843538523746
 97
        0
 75
     2
 76
     1
 98
        0
  0
ENDSEC
  0
SECTION
  2
OBJECTS
  0
DICTIONARY
  5
C
330
0
100
AcDbDictionary
281
     1
  3
ACAD_GROUP
350
D
  3
ACAD_LAYOUT
350
1A
  3
ACAD_MATERIAL
350
3B
  3
ACAD_MLEADERSTYLE
350
6E
  3
ACAD_MLINESTYLE
350
17
  3
ACAD_PLOTSETTINGS
350
19
  3
ACAD_PLOTSTYLENAME
350
E
  3
ACAD_TABLESTYLE
350
6D
  3
ACAD_VISUALSTYLE
350
2A
  0
SUN
  5
3F
330
29
100
AcDbSun
 90
        1
290
     0
 63
     7
421
 16777215
 40
1.0
291
     1
 91
  2455826
 92
 54000000
292
     0
 70
     2
 71
   256
280
     1
  0
DICTIONARY
  5
D
102
{ACAD_REACTORS
330
C
102
}
330
C
100
AcDbDictionary
281
     1
  0
DICTIONARY
  5
1A
102
{ACAD_REACTORS
330
C
102
}
330
C
100
AcDbDictionary
281
     1
  3
Layout1
350
1E
  3
Layout2
350
26
  3
Model
350
22
  0
DICTIONARY
  5
3B
102
{ACAD_REACTORS
330
C
102
}
330
C
100
AcDbDictionary
281
     1
  3
ByBlock
350
3D
  3
ByLayer
350
3C
  3
Global
350
3E
  0
DICTIONARY
  5
6E
102
{ACAD_REACTORS
330
C
102
}
330
C
100
AcDbDictionary
281
     1
  0
DICTIONARY
  5
17
102
{ACAD_REACTORS
330
C
102
}
330
C
100
AcDbDictionary
281
     1
  3
Standard
350
18
  0
DICTIONARY
  5
19
102
{ACAD_REACTORS
330
C
102
}
330
C
100
AcDbDictionary
281
     1
  0
ACDBDICTIONARYWDFLT
  5
E
102
{ACAD_REACTORS
330
C
102
}
330
C
100
AcDbDictionary
281
     1
  3
Normal
350
F
100
AcDbDictionaryWithDefault
340
F
  0
DICTIONARY
  5
6D
102
{ACAD_REACTORS
330
C
102
}
330
C
100
AcDbDictionary
281
     1
  0
DICTIONARY
  5
2A
102
{ACAD_REACTORS
330
C
102
}
330
C
100
AcDbDictionary
281
     1
  3
2dWireframe
350
2F
  3
3D Hidden
350
31
  3
3dWireframe
350
30
  3
Basic
350
32
  3
Brighten
350
36
  3
ColorChange
350
3A
  3
Conceptual
350
34
  3
Dim
350
35
  3
Facepattern
350
39
  3
Flat
350
2B
  3
FlatWithEdges
350
2C
  3
Gouraud
350
2D
  3
GouraudWithEdges
350
2E
  3
Linepattern
350
38
  3
Realistic
350
33
  3
Thicken
350
37
  0
LAYOUT
  5
1E
102
{ACAD_REACTORS
330
1A
102
}
330
1A
100
AcDbPlotSettings
  1

  2
none_device
  4

  6

 40
0.0
 41
0.0
 42
0.0
 43
0.0
 44
0.0
 45
0.0
 46
0.0
 47
0.0
 48
0.0
 49
0.0
140
0.0
141
0.0
142
1.0
143
1.0
 70
   688
 72
     0
 73
     0
 74
     5
  7

 75
    16
 76
     0
 77
     2
 78
   300
147
1.0
148
0.0
149
0.0
100
AcDbLayout
  1
Layout1
 70
     1
 71
     1
 10
0.0
 20
0.0
 11
12.0
 21
9.0
 12
0.0
 22
0.0
 32
0.0
 14
1.000000000000000E+20
 24
1.000000000000000E+20
 34
1.000000000000000E+20
 15
-1.000000000000000E+20
 25
-1.000000000000000E+20
 35
-1.000000000000000E+20
146
0.0
 13
0.0
 23
0.0
 33
0.0
 16
1.0
 26
0.0
 36
0.0
 17
0.0
 27
1.0
 37
0.0
 76
     0
330
1B
  0
LAYOUT
  5
26
102
{ACAD_REACTORS
330
1A
102
}
330
1A
100
AcDbPlotSettings
  1

  2
none_device
  4

  6

 40
0.0
 41
0.0
 42
0.0
 43
0.0
 44
0.0
 45
0.0
 46
0.0
 47
0.0
 48
0.0
 49
0.0
140
0.0
141
0.0
142
1.0
143
1.0
 70
   688
 72
     0
 73
     0
 74
     5
  7

 75
    16
 76
     0
 77
     2
 78
   300
147
1.0
148
0.0
149
0.0
100
AcDbLayout
  1
Layout2
 70
     1
 71
     2
 10
0.0
 20
0.0
 11
0.0
 21
0.0
 12
0.0
 22
0.0
 32
0.0
 14
0.0
 24
0.0
 34
0.0
 15
0.0
 25
0.0
 35
0.0
146
0.0
 13
0.0
 23
0.0
 33
0.0
 16
1.0
 26
0.0
 36
0.0
 17
0.0
 27
1.0
 37
0.0
 76
     0
330
23
  0
LAYOUT
  5
22
102
{ACAD_REACTORS
330
1A
102
}
330
1A
100
AcDbPlotSettings
  1

  2
none_device
  4

  6

 40
0.0
 41
0.0
 42
0.0
 43
0.0
 44
0.0
 45
0.0
 46
0.0
 47
0.0
 48
0.0
 49
0.0
140
0.0
141
0.0
142
1.0
143
1.0
 70
  1712
 72
     0
 73
     0
 74
     0
  7

 75
     0
 76
     0
 77
     2
 78
   300
147
1.0
148
0.0
149
0.0
100
AcDbLayout
  1
Model
 70
     1
 71
     0
 10
0.0
 20
0.0
 11
12.0
 21
9.0
 12
0.0
 22
0.0
 32
0.0
 14
1.000000000000000E+20
 24
1.000000000000000E+20
 34
1.000000000000000E+20
 15
-1.000000000000000E+20
 25
-1.000000000000000E+20
 35
-1.000000000000000E+20
146
0.0
 13
0.0
 23
0.0
 33
0.0
 16
1.0
 26
0.0
 36
0.0
 17
0.0
 27
1.0
 37
0.0
 76
     0
330
1F
331
29
  0
MATERIAL
  5
3D
102
{ACAD_REACTORS
330
3B
102
}
330
3B
100
AcDbMaterial
  1
ByBlock
 72
     1
 94
      127
  0
MATERIAL
  5
3C
102
{ACAD_REACTORS
330
3B
102
}
330
3B
100
AcDbMaterial
  1
ByLayer
 72
     1
 94
      127
  0
MATERIAL
  5
3E
102
{ACAD_REACTORS
330
3B
102
}
330
3B
100
AcDbMaterial
  1
Global
 72
     1
 94
      127
  0
MLINESTYLE
  5
18
102
{ACAD_REACTORS
330
17
102
}
330
17
100
AcDbMlineStyle
  2
Standard
 70
     0
  3

 62
   256
 51
90.0
 52
90.0
 71
     2
 49
0.5
 62
   256
  6
BYLAYER
 49
-0.5
 62
   256
  6
BYLAYER
  0
ACDBPLACEHOLDER
  5
F
102
{ACAD_REACTORS
330
E
102
}
330
E
  0
VISUALSTYLE
  5
2F
102
{ACAD_REACTORS
330
2A
102
}
330
2A
100
AcDbVisualStyle
  2
2dWireframe
 70
     4
177
     2
291
     0
 71
     0
176
     1
 72
     2
176
     1
 73
     0
176
     1
 90
        0
176
     1
 40
-0.6
176
     1
 41
-30.0
176
     1
 62
     5
 63
     7
421
 16777215
176
     1
 74
     1
176
     1
 91
        4
176
     1
 64
     7
176
     1
 65
   257
176
     1
 75
     1
176
     1
175
     1
176
     1
 42
1.0
176
     1
 92
        0
176
     1
 66
   257
176
     1
 43
1.0
176
     1
 76
     1
176
     1
 77
     6
176
     1
 78
     2
176
     1
 67
     7
176
     1
 79
     5
176
     1
170
     0
176
     1
171
     0
176
     1
290
     0
176
     1
 93
        1
176
     1
 44
0.0
176
     1
173
     0
176
     1
  0
VISUALSTYLE
  5
31
102
{ACAD_REACTORS
330
2A
102
}
330
2A
100
AcDbVisualStyle
  2
3D Hidden
 70
     6
177
     2
291
     0
 71
     1
176
     1
 72
     2
176
     1
 73
     2
176
     1
 90
        0
176
     1
 40
-0.6
176
     1
 41
-30.0
176
     1
 62
     5
 63
     7
421
 16777215
176
     1
 74
     2
176
     1
 91
        2
176
     1
 64
     7
176
     1
 65
   257
176
     1
 75
     2
176
     1
175
     1
176
     1
 42
40.0
176
     1
 92
        0
176
     1
 66
   257
176
     1
 43
1.0
176
     1
 76
     1
176
     1
 77
     6
176
     1
 78
     2
176
     1
 67
     7
176
     1
 79
     3
176
     1
170
     0
176
     1
171
     0
176
     1
290
     0
176
     1
 93
        1
176
     1
 44
0.0
176
     1
173
     0
176
     1
  0
VISUALSTYLE
  5
30
102
{ACAD_REACTORS
330
2A
102
}
330
2A
100
AcDbVisualStyle
  2
3dWireframe
 70
     5
177
     2
291
     0
 71
     0
176
     1
 72
     2
176
     1
 73
     0
176
     1
 90
        0
176
     1
 40
-0.6
176
     1
 41
-30.0
176
     1
 62
     5
 63
     7
421
 16777215
176
     1
 74
     1
176
     1
 91
        4
176
     1
 64
     7
176
     1
 65
   257
176
     1
 75
     1
176
     1
175
     1
176
     1
 42
1.0
176
     1
 92
        0
176
     1
 66
   257
176
     1
 43
1.0
176
     1
 76
     1
176
     1
 77
     6
176
     1
 78
     2
176
     1
 67
     7
176
     1
 79
     5
176
     1
170
     0
176
     1
171
     0
176
     1
290
     0
176
     1
 93
        1
176
     1
 44
0.0
176
     1
173
     0
176
     1
  0
VISUALSTYLE
  5
32
102
{ACAD_REACTORS
330
2A
102
}
330
2A
100
AcDbVisualStyle
  2
Basic
 70
     7
177
     2
291
     1
 71
     1
176
     1
 72
     0
176
     1
 73
     1
176
     1
 90
        0
176
     1
 40
-0.6
176
     1
 41
-30.0
176
     1
 62
     5
 63
     7
421
 16777215
176
     1
 74
     0
176
     1
 91
        4
176
     1
 64
     7
176
     1
 65
   257
176
     1
 75
     1
176
     1
175
     1
176
     1
 42
1.0
176
     1
 92
        8
176
     1
 66
     7
176
     1
 43
1.0
176
     1
 76
     1
176
     1
 77
     6
176
     1
 78
     2
176
     1
 67
     7
176
     1
 79
     5
176
     1
170
     0
176
     1
171
     0
176
     1
290
     0
176
     1
 93
        1
176
     1
 44
0.0
176
     1
173
     0
176
     1
  0
VISUALSTYLE
  5
36
102
{ACAD_REACTORS
330
2A
102
}
330
2A
100
AcDbVisualStyle
  2
Brighten
 70
    12
177
     2
291
     1
 71
     2
176
     1
 72
     2
176
     1
 73
     0
176
     1
 90
        0
176
     1
 40
-0.6
176
     1
 41
-30.0
176
     1
 62
     5
 63
     7
421
 16777215
176
     1
 74
     1
176
     1
 91
        4
176
     1
 64
     7
176
     1
 65
   257
176
     1
 75
     1
176
     1
175
     1
176
     1
 42
1.0
176
     1
 92
        8
176
     1
 66
     7
176
     1
 43
1.0
176
     1
 76
     1
176
     1
 77
     6
176
     1
 78
     2
176
     1
 67
     7
176
     1
 79
     5
176
     1
170
     0
176
     1
171
     0
176
     1
290
     0
176
     1
 93
        1
176
     1
 44
50.0
176
     1
173
     0
176
     1
  0
VISUALSTYLE
  5
3A
102
{ACAD_REACTORS
330
2A
102
}
330
2A
100
AcDbVisualStyle
  2
ColorChange
 70
    16
177
     2
291
     1
 71
     2
176
     1
 72
     2
176
     1
 73
     3
176
     1
 90
        0
176
     1
 40
-0.6
176
     1
 41
-30.0
176
     1
 62
     5
 63
     8
421
  8421504
176
     1
 74
     1
176
     1
 91
        4
176
     1
 64
     7
176
     1
 65
   257
176
     1
 75
     1
176
     1
175
     1
176
     1
 42
1.0
176
     1
 92
        8
176
     1
 66
     8
424
  8421504
176
     1
 43
1.0
176
     1
 76
     1
176
     1
 77
     6
176
     1
 78
     2
176
     1
 67
     7
176
     1
 79
     5
176
     1
170
     0
176
     1
171
     0
176
     1
290
     0
176
     1
 93
        1
176
     1
 44
0.0
176
     1
173
     0
176
     1
  0
VISUALSTYLE
  5
34
102
{ACAD_REACTORS
330
2A
102
}
330
2A
100
AcDbVisualStyle
  2
Conceptual
 70
     9
177
     2
291
     0
 71
     3
176
     1
 72
     2
176
     1
 73
     0
176
     1
 90
        0
176
     1
 40
-0.6
176
     1
 41
-30.0
176
     1
 62
     5
 63
     7
421
 16777215
176
     1
 74
     2
176
     1
 91
        2
176
     1
 64
     7
176
     1
 65
   257
176
     1
 75
     1
176
     1
175
     1
176
     1
 42
40.0
176
     1
 92
        8
176
     1
 66
     7
176
     1
 43
1.0
176
     1
 76
     1
176
     1
 77
     6
176
     1
 78
     2
176
     1
 67
     7
176
     1
 79
     3
176
     1
170
     0
176
     1
171
     0
176
     1
290
     0
176
     1
 93
        1
176
     1
 44
0.0
176
     1
173
     0
176
     1
  0
VISUALSTYLE
  5
35
102
{ACAD_REACTORS
330
2A
102
}
330
2A
100
AcDbVisualStyle
  2
Dim
 70
    11
177
     2
291
     1
 71
     2
176
     1
 72
     2
176
     1
 73
     0
176
     1
 90
        0
176
     1
 40
-0.6
176
     1
 41
-30.0
176
     1
 62
     5
 63
     7
421
 16777215
176
     1
 74
     1
176
     1
 91
        4
176
     1
 64
     7
176
     1
 65
   257
176
     1
 75
     1
176
     1
175
     1
176
     1
 42
1.0
176
     1
 92
        8
176
     1
 66
     7
176
     1
 43
1.0
176
     1
 76
     1
176
     1
 77
     6
176
     1
 78
     2
176
     1
 67
     7
176
     1
 79
     5
176
     1
170
     0
176
     1
171
     0
176
     1
290
     0
176
     1
 93
        1
176
     1
 44
-50.0
176
     1
173
     0
176
     1
  0
VISUALSTYLE
  5
39
102
{ACAD_REACTORS
330
2A
102
}
330
2A
100
AcDbVisualStyle
  2
Facepattern
 70
    15
177
     2
291
     1
 71
     2
176
     1
 72
     2
176
     1
 73
     0
176
     1
 90
        0
176
     1
 40
-0.6
176
     1
 41
-30.0
176
     1
 62
     5
 63
     7
421
 16777215
176
     1
 74
     1
176
     1
 91
        4
176
     1
 64
     7
176
     1
 65
   257
176
     1
 75
     1
176
     1
175
     1
176
     1
 42
1.0
176
     1
 92
        8
176
     1
 66
     7
176
     1
 43
1.0
176
     1
 76
     1
176
     1
 77
     6
176
     1
 78
     2
176
     1
 67
     7
176
     1
 79
     5
176
     1
170
     0
176
     1
171
     0
176
     1
290
     0
176
     1
 93
        1
176
     1
 44
0.0
176
     1
173
     0
176
     1
  0
VISUALSTYLE
  5
2B
102
{ACAD_REACTORS
330
2A
102
}
330
2A
100
AcDbVisualStyle
  2
Flat
 70
     0
177
     2
291
     1
 71
     2
176
     1
 72
     1
176
     1
 73
     1
176
     1
 90
        2
176
     1
 40
-0.6
176
     1
 41
30.0
176
     1
 62
     5
 63
     7
421
 16777215
176
     1
 74
     0
176
     1
 91
        4
176
     1
 64
     7
176
     1
 65
   257
176
     1
 75
     1
176
     1
175
     1
176
     1
 42
1.0
176
     1
 92
        8
176
     1
 66
     7
176
     1
 43
1.0
176
     1
 76
     1
176
     1
 77
     6
176
     1
 78
     2
176
     1
 67
     7
176
     1
 79
     5
176
     1
170
     0
176
     1
171
     0
176
     1
290
     0
176
     1
 93
       13
176
     1
 44
0.0
176
     1
173
     0
176
     1
  0
VISUALSTYLE
  5
2C
102
{ACAD_REACTORS
330
2A
102
}
330
2A
100
AcDbVisualStyle
  2
FlatWithEdges
 70
     1
177
     2
291
     1
 71
     2
176
     1
 72
     1
176
     1
 73
     1
176
     1
 90
        2
176
     1
 40
-0.6
176
     1
 41
30.0
176
     1
 62
     5
 63
     7
421
 16777215
176
     1
 74
     1
176
     1
 91
        4
176
     1
 64
     7
176
     1
 65
   257
176
     1
 75
     1
176
     1
175
     1
176
     1
 42
1.0
176
     1
 92
        0
176
     1
 66
   257
176
     1
 43
1.0
176
     1
 76
     1
176
     1
 77
     6
176
     1
 78
     2
176
     1
 67
     7
176
     1
 79
     5
176
     1
170
     0
176
     1
171
     0
176
     1
290
     0
176
     1
 93
       13
176
     1
 44
0.0
176
     1
173
     0
176
     1
  0
VISUALSTYLE
  5
2D
102
{ACAD_REACTORS
330
2A
102
}
330
2A
100
AcDbVisualStyle
  2
Gouraud
 70
     2
177
     2
291
     1
 71
     2
176
     1
 72
     2
176
     1
 73
     1
176
     1
 90
        2
176
     1
 40
-0.6
176
     1
 41
30.0
176
     1
 62
     5
 63
     7
421
 16777215
176
     1
 74
     0
176
     1
 91
        4
176
     1
 64
     7
176
     1
 65
   257
176
     1
 75
     1
176
     1
175
     1
176
     1
 42
1.0
176
     1
 92
        0
176
     1
 66
     7
176
     1
 43
1.0
176
     1
 76
     1
176
     1
 77
     6
176
     1
 78
     2
176
     1
 67
     7
176
     1
 79
     5
176
     1
170
     0
176
     1
171
     0
176
     1
290
     0
176
     1
 93
       13
176
     1
 44
0.0
176
     1
173
     0
176
     1
  0
VISUALSTYLE
  5
2E
102
{ACAD_REACTORS
330
2A
102
}
330
2A
100
AcDbVisualStyle
  2
GouraudWithEdges
 70
     3
177
     2
291
     1
 71
     2
176
     1
 72
     2
176
     1
 73
     1
176
     1
 90
        2
176
     1
 40
-0.6
176
     1
 41
30.0
176
     1
 62
     5
 63
     7
421
 16777215
176
     1
 74
     1
176
     1
 91
        4
176
     1
 64
     7
176
     1
 65
   257
176
     1
 75
     1
176
     1
175
     1
176
     1
 42
1.0
176
     1
 92
        0
176
     1
 66
   257
176
     1
 43
1.0
176
     1
 76
     1
176
     1
 77
     6
176
     1
 78
     2
176
     1
 67
     7
176
     1
 79
     5
176
     1
170
     0
176
     1
171
     0
176
     1
290
     0
176
     1
 93
       13
176
     1
 44
0.0
176
     1
173
     0
176
     1
  0
VISUALSTYLE
  5
38
102
{ACAD_REACTORS
330
2A
102
}
330
2A
100
AcDbVisualStyle
  2
Linepattern
 70
    14
177
     2
291
     1
 71
     2
176
     1
 72
     2
176
     1
 73
     0
176
     1
 90
        0
176
     1
 40
-0.6
176
     1
 41
-30.0
176
     1
 62
     5
 63
     7
421
 16777215
176
     1
 74
     1
176
     1
 91
        4
176
     1
 64
     7
176
     1
 65
   257
176
     1
 75
     7
176
     1
175
     7
176
     1
 42
1.0
176
     1
 92
        8
176
     1
 66
     7
176
     1
 43
1.0
176
     1
 76
     1
176
     1
 77
     6
176
     1
 78
     2
176
     1
 67
     7
176
     1
 79
     5
176
     1
170
     0
176
     1
171
     0
176
     1
290
     0
176
     1
 93
        1
176
     1
 44
0.0
176
     1
173
     0
176
     1
  0
VISUALSTYLE
  5
33
102
{ACAD_REACTORS
330
2A
102
}
330
2A
100
AcDbVisualStyle
  2
Realistic
 70
     8
177
     2
291
     0
 71
     2
176
     1
 72
     2
176
     1
 73
     0
176
     1
 90
        0
176
     1
 40
-0.6
176
     1
 41
-30.0
176
     1
 62
     5
 63
     7
421
 16777215
176
     1
 74
     1
176
     1
 91
        0
176
     1
 64
     7
176
     1
 65
   257
176
     1
 75
     1
176
     1
175
     1
176
     1
 42
1.0
176
     1
 92
        8
176
     1
 66
     8
424
  7895160
176
     1
 43
1.0
176
     1
 76
     1
176
     1
 77
     6
176
     1
 78
     2
176
     1
 67
     7
176
     1
 79
     5
176
     1
170
     0
176
     1
171
     0
176
     1
290
     0
176
     1
 93
       13
176
     1
 44
0.0
176
     1
173
     0
176
     1
  0
VISUALSTYLE
  5
37
102
{ACAD_REACTORS
330
2A
102
}
330
2A
100
AcDbVisualStyle
  2
Thicken
 70
    13
177
     2
291
     1
 71
     2
176
     1
 72
     2
176
     1
 73
     0
176
     1
 90
        0
176
     1
 40
-0.6
176
     1
 41
-30.0
176
     1
 62
     5
 63
     7
421
 16777215
176
     1
 74
     1
176
     1
 91
        4
176
     1
 64
     7
176
     1
 65
   257
176
     1
 75
     1
176
     1
175
     1
176
     1
 42
1.0
176
     1
 92
       12
176
     1
 66
     7
176
     1
 43
1.0
176
     1
 76
     1
176
     1
 77
     6
176
     1
 78
     2
176
     1
 67
     7
176
     1
 79
     5
176
     1
170
     0
176
     1
171
     0
176
     1
290
     0
176
     1
 93
        1
176
     1
 44
0.0
176
     1
173
     0
176
     1
  0
ENDSEC
  0
EOF
