  0
SECTION
  2
HEADER
  9
$ACADVER
  1
AC1024
  9
$ACADMAINTVER
 70
     6
  9
$DWGCODEPAGE
  3
UNDEFINED
  9
$INSBASE
 10
0.0
 20
0.0
 30
0.0
  9
$EXTMIN
 10
1.000000000000000E+20
 20
1.000000000000000E+20
 30
1.000000000000000E+20
  9
$EXTMAX
 10
-1.000000000000000E+20
 20
-1.000000000000000E+20
 30
-1.000000000000000E+20
  9
$LIMMIN
 10
0.0
 20
0.0
  9
$LIMMAX
 10
12.0
 20
9.0
  9
$ORTHOMODE
 70
     0
  9
$REGENMODE
 70
     1
  9
$FILLMODE
 70
     1
  9
$QTEXTMODE
 70
     0
  9
$MIRRTEXT
 70
     1
  9
$LTSCALE
 40
1.0
  9
$ATTMODE
 70
     1
  9
$TEXTSIZE
 40
0.2
  9
$TRACEWID
 40
0.05
  9
$TEXTSTYLE
  7
Standard
  9
$CLAYER
  8
0
  9
$CELTYPE
  6
ByLayer
  9
$CECOLOR
 62
   256
  9
$CELTSCALE
 40
1.0
  9
$DISPSILH
 70
     0
  9
$DIMSCALE
 40
1.0
  9
$DIMASZ
 40
0.18
  9
$DIMEXO
 40
0.0625
  9
$DIMDLI
 40
0.38
  9
$DIMRND
 40
0.0
  9
$DIMDLE
 40
0.0
  9
$DIMEXE
 40
0.18
  9
$DIMTP
 40
0.0
  9
$DIMTM
 40
0.0
  9
$DIMTXT
 40
0.18
  9
$DIMCEN
 40
0.09
  9
$DIMTSZ
 40
0.0
  9
$DIMTOL
 70
     0
  9
$DIMLIM
 70
     0
  9
$DIMTIH
 70
     1
  9
$DIMTOH
 70
     1
  9
$DIMSE1
 70
     0
  9
$DIMSE2
 70
     0
  9
$DIMTAD
 70
     0
  9
$DIMZIN
 70
     0
  9
$DIMBLK
  1

  9
$DIMASO
 70
     1
  9
$DIMSHO
 70
     1
  9
$DIMPOST
  1

  9
$DIMAPOST
  1

  9
$DIMALT
 70
     0
  9
$DIMALTD
 70
     2
  9
$DIMALTF
 40
25.4
  9
$DIMLFAC
 40
1.0
  9
$DIMTOFL
 70
     0
  9
$DIMTVP
 40
0.0
  9
$DIMTIX
 70
     0
  9
$DIMSOXD
 70
     0
  9
$DIMSAH
 70
     0
  9
$DIMBLK1
  1

  9
$DIMBLK2
  1

  9
$DIMSTYLE
  2
Standard
  9
$DIMCLRD
 70
     0
  9
$DIMCLRE
 70
     0
  9
$DIMCLRT
 70
     0
  9
$DIMTFAC
 40
1.0
  9
$DIMGAP
 40
0.09
  9
$DIMJUST
 70
     0
  9
$DIMSD1
 70
     0
  9
$DIMSD2
 70
     0
  9
$DIMTOLJ
 70
     1
  9
$DIMTZIN
 70
     0
  9
$DIMALTZ
 70
     0
  9
$DIMALTTZ
 70
     0
  9
$DIMUPT
 70
     0
  9
$DIMDEC
 70
     4
  9
$DIMTDEC
 70
     4
  9
$DIMALTU
 70
     2
  9
$DIMALTTD
 70
     2
  9
$DIMTXSTY
  7
Standard
  9
$DIMAUNIT
 70
     0
  9
$DIMADEC
 70
     0
  9
$DIMALTRND
 40
0.0
  9
$DIMAZIN
 70
     0
  9
$DIMDSEP
 70
    46
  9
$DIMATFIT
 70
     3
  9
$DIMFRAC
 70
     0
  9
$DIMLDRBLK
  1

  9
$DIMLUNIT
 70
     2
  9
$DIMLWD
 70
    -2
  9
$DIMLWE
 70
    -2
  9
$DIMTMOVE
 70
     0
  9
$DIMFXL
 40
1.0
  9
$DIMFXLON
 70
     0
  9
$DIMJOGANG
 40
0.7853981633974483
  9
$DIMTFILL
 70
     0
  9
$DIMTFILLCLR
 70
     0
  9
$DIMARCSYM
 70
     0
  9
$DIMLTYPE
  6

  9
$DIMLTEX1
  6

  9
$DIMLTEX2
  6

  9
$DIMTXTDIRECTION
 70
     0
  9
$LUNITS
 70
     2
  9
$LUPREC
 70
     4
  9
$SKETCHINC
 40
0.1
  9
$FILLETRAD
 40
0.5
  9
$AUNITS
 70
     0
  9
$AUPREC
 70
     0
  9
$MENU
  1
.
  9
$ELEVATION
 40
0.0
  9
$PELEVATION
 40
0.0
  9
$THICKNESS
 40
0.0
  9
$LIMCHECK
 70
     0
  9
$CHAMFERA
 40
0.5
  9
$CHAMFERB
 40
0.5
  9
$CHAMFERC
 40
1.0
  9
$CHAMFERD
 40
0.0
  9
$SKPOLY
 70
     0
  9
$TDCREATE
 40
2457525.5967361
  9
$TDUCREATE
 40
2457525.805069444
  9
$TDUPDATE
 40
2457525.5967361
  9
$TDUUPDATE
 40
2457525.805069444
  9
$TDINDWG
 40
0.0000000116
  9
$TDUSRTIMER
 40
0.0000000116
  9
$USRTIMER
 70
     1
  9
$ANGBASE
 50
0.0
  9
$ANGDIR
 70
     0
  9
$PDMODE
 70
     0
  9
$PDSIZE
 40
0.0
  9
$PLINEWID
 40
0.0
  9
$SPLFRAME
 70
     0
  9
$SPLINETYPE
 70
     6
  9
$SPLINESEGS
 70
     8
  9
$HANDSEED
  5
71
  9
$SURFTAB1
 70
     6
  9
$SURFTAB2
 70
     6
  9
$SURFTYPE
 70
     6
  9
$SURFU
 70
     6
  9
$SURFV
 70
     6
  9
$UCSBASE
  2

  9
$UCSNAME
  2

  9
$UCSORG
 10
0.0
 20
0.0
 30
0.0
  9
$UCSXDIR
 10
1.0
 20
0.0
 30
0.0
  9
$UCSYDIR
 10
0.0
 20
1.0
 30
0.0
  9
$UCSORTHOREF
  2

  9
$UCSORTHOVIEW
 70
     0
  9
$UCSORGTOP
 10
0.0
 20
0.0
 30
0.0
  9
$UCSORGBOTTOM
 10
0.0
 20
0.0
 30
0.0
  9
$UCSORGLEFT
 10
0.0
 20
0.0
 30
0.0
  9
$UCSORGRIGHT
 10
0.0
 20
0.0
 30
0.0
  9
$UCSORGFRONT
 10
0.0
 20
0.0
 30
0.0
  9
$UCSORGBACK
 10
0.0
 20
0.0
 30
0.0
  9
$PUCSBASE
  2

  9
$PUCSNAME
  2

  9
$PUCSORG
 10
0.0
 20
0.0
 30
0.0
  9
$PUCSXDIR
 10
1.0
 20
0.0
 30
0.0
  9
$PUCSYDIR
 10
0.0
 20
1.0
 30
0.0
  9
$PUCSORTHOREF
  2

  9
$PUCSORTHOVIEW
 70
     0
  9
$PUCSORGTOP
 10
0.0
 20
0.0
 30
0.0
  9
$PUCSORGBOTTOM
 10
0.0
 20
0.0
 30
0.0
  9
$PUCSORGLEFT
 10
0.0
 20
0.0
 30
0.0
  9
$PUCSORGRIGHT
 10
0.0
 20
0.0
 30
0.0
  9
$PUCSORGFRONT
 10
0.0
 20
0.0
 30
0.0
  9
$PUCSORGBACK
 10
0.0
 20
0.0
 30
0.0
  9
$USERI1
 70
     0
  9
$USERI2
 70
     0
  9
$USERI3
 70
     0
  9
$USERI4
 70
     0
  9
$USERI5
 70
     0
  9
$USERR1
 40
0.0
  9
$USERR2
 40
0.0
  9
$USERR3
 40
0.0
  9
$USERR4
 40
0.0
  9
$USERR5
 40
0.0
  9
$WORLDVIEW
 70
     1
  9
$SHADEDGE
 70
     3
  9
$SHADEDIF
 70
    70
  9
$TILEMODE
 70
     1
  9
$MAXACTVP
 70
    64
  9
$PINSBASE
 10
0.0
 20
0.0
 30
0.0
  9
$PLIMCHECK
 70
     0
  9
$PEXTMIN
 10
1.000000000000000E+20
 20
1.000000000000000E+20
 30
1.000000000000000E+20
  9
$PEXTMAX
 10
-1.000000000000000E+20
 20
-1.000000000000000E+20
 30
-1.000000000000000E+20
  9
$PLIMMIN
 10
0.0
 20
0.0
  9
$PLIMMAX
 10
12.0
 20
9.0
  9
$UNITMODE
 70
     0
  9
$VISRETAIN
 70
     1
  9
$PLINEGEN
 70
     0
  9
$PSLTSCALE
 70
     1
  9
$TREEDEPTH
 70
  3020
  9
$CMLSTYLE
  2
Standard
  9
$CMLJUST
 70
     0
  9
$CMLSCALE
 40
1.0
  9
$PROXYGRAPHICS
 70
     1
  9
$MEASUREMENT
 70
     0
  9
$CELWEIGHT
370
    -1
  9
$ENDCAPS
280
     0
  9
$JOINSTYLE
280
     0
  9
$LWDISPLAY
290
     1
  9
$INSUNITS
 70
     1
  9
$HYPERLINKBASE
  1

  9
$STYLESHEET
  1

  9
$XEDIT
290
     1
  9
$CEPSNTYPE
380
     0
  9
$PSTYLEMODE
290
     1
  9
$FINGERPRINTGUID
  2
{746CC841-3A26-9503-0F03-ECE118C7371B}
  9
$VERSIONGUID
  2
{FAEB1C32-E019-11D5-929B-00C0DF256EC4}
  9
$EXTNAMES
290
     1
  9
$PSVPSCALE
 40
0.0
  9
$OLESTARTUP
290
     0
  9
$SORTENTS
280
   127
  9
$INDEXCTL
280
     0
  9
$HIDETEXT
280
     1
  9
$XCLIPFRAME
280
     2
  9
$HALOGAP
280
     0
  9
$OBSCOLOR
 70
   257
  9
$OBSLTYPE
280
     0
  9
$INTERSECTIONDISPLAY
280
     0
  9
$INTERSECTIONCOLOR
 70
   257
  9
$DIMASSOC
280
     2
  9
$PROJECTNAME
  1

  9
$CAMERADISPLAY
290
     0
  9
$LENSLENGTH
 40
50.0
  9
$CAMERAHEIGHT
 40
0.0
  9
$STEPSPERSEC
 40
2.0
  9
$STEPSIZE
 40
6.0
  9
$3DDWFPREC
 40
2.0
  9
$PSOLWIDTH
 40
0.25
  9
$PSOLHEIGHT
 40
4.0
  9
$LOFTANG1
 40
1.570796326794897
  9
$LOFTANG2
 40
1.570796326794897
  9
$LOFTMAG1
 40
0.0
  9
$LOFTMAG2
 40
0.0
  9
$LOFTPARAM
 70
     7
  9
$LOFTNORMALS
280
     1
  9
$LATITUDE
 40
37.795
  9
$LONGITUDE
 40
-122.394
  9
$NORTHDIRECTION
 40
0.0
  9
$TIMEZONE
 70
 -8000
  9
$LIGHTGLYPHDISPLAY
280
     1
  9
$TILEMODELIGHTSYNCH
280
     1
  9
$CMATERIAL
347
3C
  9
$SOLIDHIST
280
     1
  9
$SHOWHIST
280
     1
  9
$DWFFRAME
280
     2
  9
$DGNFRAME
280
     2
  9
$REALWORLDSCALE
290
     1
  9
$INTERFERECOLOR
 62
   256
  9
$CSHADOW
280
     0
  9
$SHADOWPLANELOCATION
 40
0.0
  0
ENDSEC
  0
SECTION
  2
CLASSES
  0
CLASS
  1
ACDBDICTIONARYWDFLT
  2
AcDbDictionaryWithDefault
  3
ObjectDBX Classes
 90
        0
 91
        4
280
     0
281
     0
  0
CLASS
  1
VISUALSTYLE
  2
AcDbVisualStyle
  3
ObjectDBX Classes
 90
     4095
 91
        4
280
     0
281
     0
  0
CLASS
  1
MATERIAL
  2
AcDbMaterial
  3
ObjectDBX Classes
 90
     1153
 91
        4
280
     0
281
     0
  0
CLASS
  1
SUN
  2
AcDbSun
  3
SCENEOE
 90
     1024
 91
        4
280
     0
281
     0
  0
ENDSEC
  0
SECTION
  2
TABLES
  0
TABLE
  2
VPORT
  5
8
330
0
100
AcDbSymbolTable
 70
     1
  0
VPORT
  5
29
330
8
100
AcDbSymbolTableRecord
100
AcDbViewportTableRecord
  2
*Active
 70
     0
 10
0.0
 20
0.0
 11
1.0
 21
1.0
 12
0.0
 22
0.0
 13
0.0
 23
0.0
 14
0.5
 24
0.5
 15
0.5
 25
0.5
 16
0.0
 26
0.0
 36
1.0
 17
50.0
 27
62.5
 37
0.0
 40
125.0
 41
0.8
 42
50.0
 43
0.0
 44
0.0
 50
0.0
 51
0.0
 71
     0
 72
   100
 73
     1
 74
     3
 75
     0
 76
     0
 77
     0
 78
     0
281
     0
 65
     1
110
0.0
120
0.0
130
0.0
111
1.0
121
0.0
131
0.0
112
0.0
122
1.0
132
0.0
 79
     0
146
0.0
 60
     3
 61
     5
292
     1
282
     1
141
0.0
142
0.0
 63
   250
361
3F
  0
ENDTAB
  0
TABLE
  2
LTYPE
  5
5
330
0
100
AcDbSymbolTable
 70
     1
  0
LTYPE
  5
14
330
5
100
AcDbSymbolTableRecord
100
AcDbLinetypeTableRecord
  2
ByBlock
 70
     0
  3

 72
    65
 73
     0
 40
0.0
  0
LTYPE
  5
15
330
5
100
AcDbSymbolTableRecord
100
AcDbLinetypeTableRecord
  2
ByLayer
 70
     0
  3

 72
    65
 73
     0
 40
0.0
  0
LTYPE
  5
16
330
5
100
AcDbSymbolTableRecord
100
AcDbLinetypeTableRecord
  2
Continuous
 70
     0
  3
Solid line
 72
    65
 73
     0
 40
0.0
  0
ENDTAB
  0
TABLE
  2
LAYER
  5
2
330
0
100
AcDbSymbolTable
 70
     2
  0
LAYER
  5
10
330
2
100
AcDbSymbolTableRecord
100
AcDbLayerTableRecord
  2
0
 70
     0
 62
     7
  6
Continuous
370
    -3
390
F
347
3E
  0
LAYER
  5
40
330
2
100
AcDbSymbolTableRecord
100
AcDbLayerTableRecord
  2
Layer 1
 70
     0
 62
     7
  6
Continuous
370
    -3
390
F
347
3E
  0
ENDTAB
  0
TABLE
  2
STYLE
  5
3
330
0
100
AcDbSymbolTable
 70
     1
  0
STYLE
  5
11
330
3
100
AcDbSymbolTableRecord
100
AcDbTextStyleTableRecord
  2
Standard
 70
     0
 40
0.0
 41
1.0
 50
0.0
 71
     0
 42
0.2
  3
txt
  4

  0
ENDTAB
  0
TABLE
  2
VIEW
  5
6
330
0
100
AcDbSymbolTable
 70
     0
  0
ENDTAB
  0
TABLE
  2
UCS
  5
7
330
0
100
AcDbSymbolTable
 70
     0
  0
ENDTAB
  0
TABLE
  2
APPID
  5
9
330
0
100
AcDbSymbolTable
 70
     1
  0
APPID
  5
12
330
9
100
AcDbSymbolTableRecord
100
AcDbRegAppTableRecord
  2
ACAD
 70
     0
  0
ENDTAB
  0
TABLE
  2
DIMSTYLE
  5
A
330
0
100
AcDbSymbolTable
 70
     1
100
AcDbDimStyleTable
  0
DIMSTYLE
105
27
330
A
100
AcDbSymbolTableRecord
100
AcDbDimStyleTableRecord
  2
Standard
 70
     0
178
     0
340
11
  0
ENDTAB
  0
TABLE
  2
BLOCK_RECORD
  5
1
330
0
100
AcDbSymbolTable
 70
     1
  0
BLOCK_RECORD
  5
1F
330
1
100
AcDbSymbolTableRecord
100
AcDbBlockTableRecord
  2
*Model_Space
340
22
 70
     0
280
     1
281
     0
  0
BLOCK_RECORD
  5
1B
330
1
100
AcDbSymbolTableRecord
100
AcDbBlockTableRecord
  2
*Paper_Space
340
1E
 70
     0
280
     1
281
     0
  0
BLOCK_RECORD
  5
23
330
1
100
AcDbSymbolTableRecord
100
AcDbBlockTableRecord
  2
*Paper_Space0
340
26
 70
     0
280
     1
281
     0
  0
ENDTAB
  0
ENDSEC
  0
SECTION
  2
BLOCKS
  0
BLOCK
  5
20
330
1F
100
AcDbEntity
  8
0
100
AcDbBlockBegin
  2
*Model_Space
 70
     0
 10
0.0
 20
0.0
 30
0.0
  3
*Model_Space
  1

  0
ENDBLK
  5
21
330
1F
100
AcDbEntity
  8
0
100
AcDbBlockEnd
  0
BLOCK
  5
1C
330
1B
100
AcDbEntity
 67
     1
  8
0
100
AcDbBlockBegin
  2
*Paper_Space
 70
     0
 10
0.0
 20
0.0
 30
0.0
  3
*Paper_Space
  1

  0
ENDBLK
  5
1D
330
1B
100
AcDbEntity
 67
     1
  8
0
100
AcDbBlockEnd
  0
BLOCK
  5
24
330
23
100
AcDbEntity
  8
0
100
AcDbBlockBegin
  2
*Paper_Space0
 70
     0
 10
0.0
 20
0.0
 30
0.0
  3
*Paper_Space0
  1

  0
ENDBLK
  5
25
330
23
100
AcDbEntity
  8
0
100
AcDbBlockEnd
  0
ENDSEC
  0
SECTION
  2
ENTITIES
  0
SPLINE
  5
41
330
1F
100
AcDbEntity
  8
Layer 1
370
     0
100
AcDbSpline
210
0.0
220
0.0
230
1.0
 70
    11
 71
     3
 72
   302
 73
   298
 74
     0
 42
0.0000000001
 43
0.0000000001
 12
1.0
 22
0.0
 32
0.0
 13
1.0
 23
0.0
 33
0.0
 40
0.0
 40
0.0
 40
0.0
 40
0.0
 40
1.0
 40
1.0
 40
1.0
 40
2.0
 40
2.0
 40
2.0
 40
3.0
 40
3.0
 40
3.0
 40
4.0
 40
4.0
 40
4.0
 40
5.0
 40
5.0
 40
5.0
 40
6.0
 40
6.0
 40
6.0
 40
7.0
 40
7.0
 40
7.0
 40
8.0
 40
8.0
 40
8.0
 40
9.0
 40
9.0
 40
9.0
 40
10.0
 40
10.0
 40
10.0
 40
11.0
 40
11.0
 40
11.0
 40
12.0
 40
12.0
 40
12.0
 40
13.0
 40
13.0
 40
13.0
 40
14.0
 40
14.0
 40
14.0
 40
15.0
 40
15.0
 40
15.0
 40
16.0
 40
16.0
 40
16.0
 40
17.0
 40
17.0
 40
17.0
 40
18.0
 40
18.0
 40
18.0
 40
19.0
 40
19.0
 40
19.0
 40
20.0
 40
20.0
 40
20.0
 40
21.0
 40
21.0
 40
21.0
 40
22.0
 40
22.0
 40
22.0
 40
23.0
 40
23.0
 40
23.0
 40
24.0
 40
24.0
 40
24.0
 40
25.0
 40
25.0
 40
25.0
 40
26.0
 40
26.0
 40
26.0
 40
27.0
 40
27.0
 40
27.0
 40
28.0
 40
28.0
 40
28.0
 40
29.0
 40
29.0
 40
29.0
 40
30.0
 40
30.0
 40
30.0
 40
31.0
 40
31.0
 40
31.0
 40
32.0
 40
32.0
 40
32.0
 40
33.0
 40
33.0
 40
33.0
 40
34.0
 40
34.0
 40
34.0
 40
35.0
 40
35.0
 40
35.0
 40
36.0
 40
36.0
 40
36.0
 40
37.0
 40
37.0
 40
37.0
 40
38.0
 40
38.0
 40
38.0
 40
39.0
 40
39.0
 40
39.0
 40
40.0
 40
40.0
 40
40.0
 40
41.0
 40
41.0
 40
41.0
 40
42.0
 40
42.0
 40
42.0
 40
43.0
 40
43.0
 40
43.0
 40
44.0
 40
44.0
 40
44.0
 40
45.0
 40
45.0
 40
45.0
 40
46.0
 40
46.0
 40
46.0
 40
47.0
 40
47.0
 40
47.0
 40
48.0
 40
48.0
 40
48.0
 40
49.0
 40
49.0
 40
49.0
 40
50.0
 40
50.0
 40
50.0
 40
51.0
 40
51.0
 40
51.0
 40
52.0
 40
52.0
 40
52.0
 40
53.0
 40
53.0
 40
53.0
 40
54.0
 40
54.0
 40
54.0
 40
55.0
 40
55.0
 40
55.0
 40
56.0
 40
56.0
 40
56.0
 40
57.0
 40
57.0
 40
57.0
 40
58.0
 40
58.0
 40
58.0
 40
59.0
 40
59.0
 40
59.0
 40
60.0
 40
60.0
 40
60.0
 40
61.0
 40
61.0
 40
61.0
 40
62.0
 40
62.0
 40
62.0
 40
63.0
 40
63.0
 40
63.0
 40
64.0
 40
64.0
 40
64.0
 40
65.0
 40
65.0
 40
65.0
 40
66.0
 40
66.0
 40
66.0
 40
67.0
 40
67.0
 40
67.0
 40
68.0
 40
68.0
 40
68.0
 40
69.0
 40
69.0
 40
69.0
 40
70.0
 40
70.0
 40
70.0
 40
71.0
 40
71.0
 40
71.0
 40
72.0
 40
72.0
 40
72.0
 40
73.0
 40
73.0
 40
73.0
 40
74.0
 40
74.0
 40
74.0
 40
75.0
 40
75.0
 40
75.0
 40
76.0
 40
76.0
 40
76.0
 40
77.0
 40
77.0
 40
77.0
 40
78.0
 40
78.0
 40
78.0
 40
79.0
 40
79.0
 40
79.0
 40
80.0
 40
80.0
 40
80.0
 40
81.0
 40
81.0
 40
81.0
 40
82.0
 40
82.0
 40
82.0
 40
83.0
 40
83.0
 40
83.0
 40
84.0
 40
84.0
 40
84.0
 40
85.0
 40
85.0
 40
85.0
 40
86.0
 40
86.0
 40
86.0
 40
87.0
 40
87.0
 40
87.0
 40
88.0
 40
88.0
 40
88.0
 40
89.0
 40
89.0
 40
89.0
 40
90.0
 40
90.0
 40
90.0
 40
91.0
 40
91.0
 40
91.0
 40
92.0
 40
92.0
 40
92.0
 40
93.0
 40
93.0
 40
93.0
 40
94.0
 40
94.0
 40
94.0
 40
95.0
 40
95.0
 40
95.0
 40
96.0
 40
96.0
 40
96.0
 40
97.0
 40
97.0
 40
97.0
 40
98.0
 40
98.0
 40
98.0
 40
99.0
 40
99.0
 40
99.0
 40
99.0
 10
74.9639892578125
 20
105.8769989013672
 30
0.0
 10
74.9639892578125
 20
105.8769989013672
 30
0.0
 10
68.87100219726562
 20
107.8419952392578
 30
0.0
 10
68.87100219726562
 20
107.8419952392578
 30
0.0
 10
68.87100219726562
 20
107.8419952392578
 30
0.0
 10
66.57000732421875
 20
110.1989898681641
 30
0.0
 10
66.57000732421875
 20
110.1989898681641
 30
0.0
 10
66.4840087890625
 20
110.2869873046875
 30
0.0
 10
66.37802124023438
 20
110.3509826660156
 30
0.0
 10
66.25900268554688
 20
110.3849945068359
 30
0.0
 10
66.25900268554688
 20
110.3849945068359
 30
0.0
 10
62.37301635742188
 20
111.5029907226562
 30
0.0
 10
62.37301635742188
 20
111.5029907226562
 30
0.0
 10
62.37301635742188
 20
111.5029907226562
 30
0.0
 10
58.19500732421875
 20
118.2289886474609
 30
0.0
 10
58.19500732421875
 20
118.2289886474609
 30
0.0
 10
58.18801879882812
 20
118.239990234375
 30
0.0
 10
58.177001953125
 20
118.2479858398438
 30
0.0
 10
58.17001342773438
 20
118.2579956054688
 30
0.0
 10
58.15499877929688
 20
118.2799987792969
 30
0.0
 10
58.13702392578125
 20
118.2989959716797
 30
0.0
 10
58.1190185546875
 20
118.3190002441406
 30
0.0
 10
58.0770263671875
 20
118.3659973144531
 30
0.0
 10
58.031005859375
 20
118.406005859375
 30
0.0
 10
57.98001098632812
 20
118.4400024414062
 30
0.0
 10
57.96600341796875
 20
118.4490051269531
 30
0.0
 10
57.95901489257812
 20
118.4629974365234
 30
0.0
 10
57.94400024414062
 20
118.4710083007812
 30
0.0
 10
57.93600463867188
 20
118.4760131835938
 30
0.0
 10
57.927001953125
 20
118.4750061035156
 30
0.0
 10
57.92001342773438
 20
118.47900390625
 30
0.0
 10
57.84500122070312
 20
118.5180053710938
 30
0.0
 10
57.76602172851562
 20
118.5460052490234
 30
0.0
 10
57.6820068359375
 20
118.5559997558594
 30
0.0
 10
57.66799926757812
 20
118.5579986572266
 30
0.0
 10
57.656005859375
 20
118.5549926757812
 30
0.0
 10
57.64199829101562
 20
118.5559997558594
 30
0.0
 10
57.58999633789062
 20
118.5599975585938
 30
0.0
 10
57.53799438476562
 20
118.5630035400391
 30
0.0
 10
57.48599243164062
 20
118.5549926757812
 30
0.0
 10
57.468994140625
 20
118.5519866943359
 30
0.0
 10
57.45498657226562
 20
118.5439910888672
 30
0.0
 10
57.43899536132812
 20
118.5399932861328
 30
0.0
 10
57.41299438476562
 20
118.5339965820312
 30
0.0
 10
57.38800048828125
 20
118.5249938964844
 30
0.0
 10
57.36300659179688
 20
118.5169982910156
 30
0.0
 10
57.3070068359375
 20
118.4969940185547
 30
0.0
 10
57.25601196289062
 20
118.4720001220703
 30
0.0
 10
57.20700073242188
 20
118.4389953613281
 30
0.0
 10
57.18600463867188
 20
118.4249877929688
 30
0.0
 10
57.166015625
 20
118.4149932861328
 30
0.0
 10
57.14599609375
 20
118.3979949951172
 30
0.0
 10
57.0830078125
 20
118.3459930419922
 30
0.0
 10
57.02700805664062
 20
118.2849884033203
 30
0.0
 10
56.9849853515625
 20
118.2129974365234
 30
0.0
 10
56.98297119140625
 20
118.2099914550781
 30
0.0
 10
56.97998046875
 20
118.2079925537109
 30
0.0
 10
56.97799682617188
 20
118.2050018310547
 30
0.0
 10
52.26498413085938
 20
109.9120025634766
 30
0.0
 10
46.72900390625
 20
100.1540069580078
 30
0.0
 10
45.53900146484375
 20
97.98800659179688
 30
0.0
 10
45.53900146484375
 20
97.98800659179688
 30
0.0
 10
30.34799194335938
 20
97.29901123046875
 30
0.0
 10
30.34799194335938
 20
97.29901123046875
 30
0.0
 10
30.34799194335938
 20
97.29901123046875
 30
0.0
 10
14.6719970703125
 20
98.44500732421875
 30
0.0
 10
14.6719970703125
 20
98.44500732421875
 30
0.0
 10
14.67098999023438
 20
98.44500732421875
 30
0.0
 10
14.67098999023438
 20
98.44500732421875
 30
0.0
 10
14.67098999023438
 20
98.44500732421875
 30
0.0
 10
14.67098999023438
 20
98.44500732421875
 30
0.0
 10
14.64999389648438
 20
98.44700622558594
 30
0.0
 10
14.64999389648438
 20
98.44700622558594
 30
0.0
 10
14.62698364257812
 20
98.44801330566406
 30
0.0
 10
14.60598754882812
 20
98.43800354003906
 30
0.0
 10
14.583984375
 20
98.43701171875
 30
0.0
 10
14.51296997070312
 20
98.43600463867188
 30
0.0
 10
14.4429931640625
 20
98.43002319335938
 30
0.0
 10
14.3759765625
 20
98.40802001953125
 30
0.0
 10
14.37496948242188
 20
98.40802001953125
 30
0.0
 10
14.37396240234375
 20
98.40701293945312
 30
0.0
 10
14.37197875976562
 20
98.406005859375
 30
0.0
 10
14.35897827148438
 20
98.40200805664062
 30
0.0
 10
14.34896850585938
 20
98.39300537109375
 30
0.0
 10
14.33697509765625
 20
98.38800048828125
 30
0.0
 10
14.18096923828125
 20
98.45199584960938
 30
0.0
 10
14.00396728515625
 20
98.468994140625
 30
0.0
 10
13.833984375
 20
98.40899658203125
 30
0.0
 10
13.833984375
 20
98.40899658203125
 30
0.0
 10
6.93597412109375
 20
96.00900268554688
 30
0.0
 10
6.93597412109375
 20
96.00900268554688
 30
0.0
 10
6.637969970703125
 20
95.906005859375
 30
0.0
 10
6.444976806640625
 20
95.61898803710938
 30
0.0
 10
6.4599609375
 20
95.30499267578125
 30
0.0
 10
6.4599609375
 20
95.30499267578125
 30
0.0
 10
6.60797119140625
 20
92.30099487304688
 30
0.0
 10
6.60797119140625
 20
92.30099487304688
 30
0.0
 10
6.61895751953125
 20
92.07901000976562
 30
0.0
 10
6.733978271484375
 20
91.87399291992188
 30
0.0
 10
6.918975830078125
 20
91.75
 30
0.0
 10
6.918975830078125
 20
91.75
 30
0.0
 10
9.798980712890625
 20
89.79598999023438
 30
0.0
 10
9.798980712890625
 20
89.79598999023438
 30
0.0
 10
9.798980712890625
 20
89.79598999023438
 30
0.0
 10
11.23797607421875
 20
80.74697875976562
 30
0.0
 10
11.23797607421875
 20
80.74697875976562
 30
0.0
 10
11.24496459960938
 20
80.698974609375
 30
0.0
 10
11.25796508789062
 20
80.6519775390625
 30
0.0
 10
11.27398681640625
 20
80.60498046875
 30
0.0
 10
11.27398681640625
 20
80.60397338867188
 30
0.0
 10
11.27499389648438
 20
80.60296630859375
 30
0.0
 10
11.27499389648438
 20
80.60296630859375
 30
0.0
 10
11.27398681640625
 20
80.60195922851562
 30
0.0
 10
11.2760009765625
 20
80.6009521484375
 30
0.0
 10
11.2760009765625
 20
80.6009521484375
 30
0.0
 10
11.2760009765625
 20
80.59994506835938
 30
0.0
 10
11.2760009765625
 20
80.59994506835938
 30
0.0
 10
11.2760009765625
 20
80.59994506835938
 30
0.0
 10
11.27700805664062
 20
80.59893798828125
 30
0.0
 10
11.27700805664062
 20
80.59893798828125
 30
0.0
 10
11.27700805664062
 20
80.59793090820312
 30
0.0
 10
11.27801513671875
 20
80.596923828125
 30
0.0
 10
11.27801513671875
 20
80.59591674804688
 30
0.0
 10
11.27801513671875
 20
80.59591674804688
 30
0.0
 10
11.27801513671875
 20
80.59591674804688
 30
0.0
 10
11.27801513671875
 20
80.59490966796875
 30
0.0
 10
11.27801513671875
 20
80.59490966796875
 30
0.0
 10
11.27801513671875
 20
80.59490966796875
 30
0.0
 10
11.27902221679688
 20
80.59390258789062
 30
0.0
 10
11.27902221679688
 20
80.59390258789062
 30
0.0
 10
11.27902221679688
 20
80.59390258789062
 30
0.0
 10
11.27902221679688
 20
80.5928955078125
 30
0.0
 10
11.27902221679688
 20
80.5928955078125
 30
0.0
 10
11.27902221679688
 20
80.59188842773438
 30
0.0
 10
11.280029296875
 20
80.59188842773438
 30
0.0
 10
11.280029296875
 20
80.59088134765625
 30
0.0
 10
11.280029296875
 20
80.59088134765625
 30
0.0
 10
11.280029296875
 20
80.58987426757812
 30
0.0
 10
11.280029296875
 20
80.58987426757812
 30
0.0
 10
11.280029296875
 20
80.58987426757812
 30
0.0
 10
11.28103637695312
 20
80.5888671875
 30
0.0
 10
11.28103637695312
 20
80.5888671875
 30
0.0
 10
11.28103637695312
 20
80.5888671875
 30
0.0
 10
11.28103637695312
 20
80.58786010742188
 30
0.0
 10
11.28103637695312
 20
80.58786010742188
 30
0.0
 10
11.28103637695312
 20
80.58685302734375
 30
0.0
 10
11.28204345703125
 20
80.58685302734375
 30
0.0
 10
11.28204345703125
 20
80.58584594726562
 30
0.0
 10
11.28204345703125
 20
80.58584594726562
 30
0.0
 10
16.71804809570312
 20
67.08184814453125
 30
0.0
 10
16.71804809570312
 20
67.08184814453125
 30
0.0
 10
16.71905517578125
 20
67.078857421875
 30
0.0
 10
16.7220458984375
 20
67.07583618164062
 30
0.0
 10
16.72305297851562
 20
67.07284545898438
 30
0.0
 10
16.72506713867188
 20
67.06985473632812
 30
0.0
 10
16.72506713867188
 20
67.06585693359375
 30
0.0
 10
16.72604370117188
 20
67.06283569335938
 30
0.0
 10
16.74404907226562
 20
67.0218505859375
 30
0.0
 10
16.77005004882812
 20
66.98883056640625
 30
0.0
 10
16.79403686523438
 20
66.95285034179688
 30
0.0
 10
16.80804443359375
 20
66.932861328125
 30
0.0
 10
16.8160400390625
 20
66.90985107421875
 30
0.0
 10
16.83203125
 20
66.891845703125
 30
0.0
 10
16.8680419921875
 20
66.84783935546875
 30
0.0
 10
16.91201782226562
 20
66.81185913085938
 30
0.0
 10
16.95703125
 20
66.77883911132812
 30
0.0
 10
16.967041015625
 20
66.7718505859375
 30
0.0
 10
16.97503662109375
 20
66.7618408203125
 30
0.0
 10
16.98403930664062
 20
66.75582885742188
 30
0.0
 10
17.0970458984375
 20
66.68081665039062
 30
0.0
 10
17.23202514648438
 20
66.6378173828125
 30
0.0
 10
17.37503051757812
 20
66.6378173828125
 30
0.0
 10
17.37503051757812
 20
66.6378173828125
 30
0.0
 10
24.70004272460938
 20
66.6378173828125
 30
0.0
 10
24.70004272460938
 20
66.6378173828125
 30
0.0
 10
25.00704956054688
 20
66.6378173828125
 30
0.0
 10
25.27804565429688
 20
66.83480834960938
 30
0.0
 10
25.37405395507812
 20
67.12582397460938
 30
0.0
 10
25.46905517578125
 20
67.41781616210938
 30
0.0
 10
25.36605834960938
 20
67.73681640625
 30
0.0
 10
25.11904907226562
 20
67.91781616210938
 30
0.0
 10
25.11904907226562
 20
67.91781616210938
 30
0.0
 10
21.46905517578125
 20
70.59182739257812
 30
0.0
 10
21.46905517578125
 20
70.59182739257812
 30
0.0
 10
21.46905517578125
 20
70.59182739257812
 30
0.0
 10
28.78506469726562
 20
77.048828125
 30
0.0
 10
28.78506469726562
 20
77.048828125
 30
0.0
 10
28.78506469726562
 20
77.048828125
 30
0.0
 10
49.258056640625
 20
76.30783081054688
 30
0.0
 10
49.258056640625
 20
76.30783081054688
 30
0.0
 10
49.53805541992188
 20
75.00582885742188
 30
0.0
 10
50.67807006835938
 20
70.86282348632812
 30
0.0
 10
50.81805419921875
 20
70.35183715820312
 30
0.0
 10
50.84304809570312
 20
70.25982666015625
 30
0.0
 10
50.8880615234375
 20
70.1728515625
 30
0.0
 10
50.94805908203125
 20
70.09783935546875
 30
0.0
 10
50.94805908203125
 20
70.09783935546875
 30
0.0
 10
53.49606323242188
 20
66.90484619140625
 30
0.0
 10
53.49606323242188
 20
66.90484619140625
 30
0.0
 10
53.50405883789062
 20
66.89483642578125
 30
0.0
 10
53.51605224609375
 20
66.891845703125
 30
0.0
 10
53.5230712890625
 20
66.88385009765625
 30
0.0
 10
53.55108642578125
 20
66.85183715820312
 30
0.0
 10
53.58407592773438
 20
66.82583618164062
 30
0.0
 10
53.61807250976562
 20
66.79983520507812
 30
0.0
 10
53.6380615234375
 20
66.7828369140625
 30
0.0
 10
53.65008544921875
 20
66.7618408203125
 30
0.0
 10
53.67205810546875
 20
66.74783325195312
 30
0.0
 10
53.68905639648438
 20
66.73684692382812
 30
0.0
 10
53.70706176757812
 20
66.73281860351562
 30
0.0
 10
53.72506713867188
 20
66.72482299804688
 30
0.0
 10
53.73806762695312
 20
66.71783447265625
 30
0.0
 10
53.7470703125
 20
66.70883178710938
 30
0.0
 10
53.76107788085938
 20
66.70382690429688
 30
0.0
 10
53.77609252929688
 20
66.69781494140625
 30
0.0
 10
53.79107666015625
 20
66.69381713867188
 30
0.0
 10
53.80609130859375
 20
66.68783569335938
 30
0.0
 10
53.88607788085938
 20
66.65884399414062
 30
0.0
 10
53.96710205078125
 20
66.63882446289062
 30
0.0
 10
54.04910278320312
 20
66.63882446289062
 30
0.0
 10
54.04910278320312
 20
66.63882446289062
 30
0.0
 10
54.04910278320312
 20
66.63882446289062
 30
0.0
 10
54.04910278320312
 20
66.63882446289062
 30
0.0
 10
54.05010986328125
 20
66.63882446289062
 30
0.0
 10
54.05010986328125
 20
66.63882446289062
 30
0.0
 10
54.05010986328125
 20
66.63882446289062
 30
0.0
 10
54.05010986328125
 20
66.63882446289062
 30
0.0
 10
59.79110717773438
 20
66.63882446289062
 30
0.0
 10
59.79110717773438
 20
66.63882446289062
 30
0.0
 10
60.08810424804688
 20
66.63882446289062
 30
0.0
 10
60.35311889648438
 20
66.82382202148438
 30
0.0
 10
60.45611572265625
 20
67.10183715820312
 30
0.0
 10
60.55911254882812
 20
67.37985229492188
 30
0.0
 10
60.47711181640625
 20
67.69284057617188
 30
0.0
 10
60.25311279296875
 20
67.88583374023438
 30
0.0
 10
60.25311279296875
 20
67.88583374023438
 30
0.0
 10
56.98910522460938
 20
70.68582153320312
 30
0.0
 10
56.98910522460938
 20
70.68582153320312
 30
0.0
 10
56.98910522460938
 20
70.68582153320312
 30
0.0
 10
58.58309936523438
 20
73.2158203125
 30
0.0
 10
58.58309936523438
 20
73.2158203125
 30
0.0
 10
58.62811279296875
 20
73.28683471679688
 30
0.0
 10
58.65908813476562
 20
73.36480712890625
 30
0.0
 10
58.67709350585938
 20
73.44583129882812
 30
0.0
 10
58.67709350585938
 20
73.44583129882812
 30
0.0
 10
59.51708984375
 20
77.39682006835938
 30
0.0
 10
59.51708984375
 20
77.39682006835938
 30
0.0
 10
59.51708984375
 20
77.39682006835938
 30
0.0
 10
64.06509399414062
 20
82.16781616210938
 30
0.0
 10
64.06509399414062
 20
82.16781616210938
 30
0.0
 10
64.06509399414062
 20
82.16781616210938
 30
0.0
 10
64.06509399414062
 20
82.16781616210938
 30
0.0
 10
64.06509399414062
 20
82.16781616210938
 30
0.0
 10
64.06509399414062
 20
82.16781616210938
 30
0.0
 10
66.78009033203125
 20
84.88980102539062
 30
0.0
 10
66.78009033203125
 20
84.88980102539062
 30
0.0
 10
66.89810180664062
 20
85.0078125
 30
0.0
 10
66.97109985351562
 20
85.16580200195312
 30
0.0
 10
66.98410034179688
 20
85.33279418945312
 30
0.0
 10
66.98410034179688
 20
85.33279418945312
 30
0.0
 10
67.62310791015625
 20
93.34078979492188
 30
0.0
 10
67.62310791015625
 20
93.34078979492188
 30
0.0
 10
67.63409423828125
 20
93.47677612304688
 30
0.0
 10
67.60610961914062
 20
93.61178588867188
 30
0.0
 10
67.5421142578125
 20
93.73080444335938
 30
0.0
 10
67.5421142578125
 20
93.73080444335938
 30
0.0
 10
66.13311767578125
 20
96.37481689453125
 30
0.0
 10
66.13311767578125
 20
96.37481689453125
 30
0.0
 10
66.13311767578125
 20
96.37481689453125
 30
0.0
 10
69.93511962890625
 20
96.59182739257812
 30
0.0
 10
69.93511962890625
 20
96.59182739257812
 30
0.0
 10
69.95211791992188
 20
96.59283447265625
 30
0.0
 10
69.96511840820312
 20
96.600830078125
 30
0.0
 10
69.98211669921875
 20
96.60281372070312
 30
0.0
 10
70.037109375
 20
96.60980224609375
 30
0.0
 10
70.089111328125
 20
96.62081909179688
 30
0.0
 10
70.14010620117188
 20
96.63882446289062
 30
0.0
 10
70.16510009765625
 20
96.64883422851562
 30
0.0
 10
70.18911743164062
 20
96.66082763671875
 30
0.0
 10
70.21310424804688
 20
96.673828125
 30
0.0
 10
70.25811767578125
 20
96.69583129882812
 30
0.0
 10
70.298095703125
 20
96.72283935546875
 30
0.0
 10
70.33709716796875
 20
96.75381469726562
 30
0.0
 10
70.34909057617188
 20
96.76382446289062
 30
0.0
 10
70.36410522460938
 20
96.76882934570312
 30
0.0
 10
70.3760986328125
 20
96.77880859375
 30
0.0
 10
70.3760986328125
 20
96.77880859375
 30
0.0
 10
75.2301025390625
 20
101.2808074951172
 30
0.0
 10
75.2301025390625
 20
101.2808074951172
 30
0.0
 10
75.3760986328125
 20
101.4148101806641
 30
0.0
 10
75.45809936523438
 20
101.6028137207031
 30
0.0
 10
75.45809936523438
 20
101.8008117675781
 30
0.0
 10
75.45809936523438
 20
101.8008117675781
 30
0.0
 10
75.45809936523438
 20
105.2028045654297
 30
0.0
 10
75.45809936523438
 20
105.2028045654297
 30
0.0
 10
75.45498657226562
 20
105.5099945068359
 30
0.0
 10
75.25698852539062
 20
105.7830047607422
 30
0.0
 10
74.9639892578125
 20
105.8769989013672
 30
0.0
  0
POLYLINE
  5
42
330
1F
100
AcDbEntity
  8
Layer 1
370
     0
100
AcDb2dPolyline
 66
     1
 10
0.0
 20
0.0
 30
0.0
  0
VERTEX
  5
43
330
42
100
AcDbEntity
  8
Layer 1
370
     0
100
AcDbVertex
100
AcDb2dVertex
 10
57.89199829101562
 20
97.32501220703125
 30
0.0
  0
VERTEX
  5
44
330
42
100
AcDbEntity
  8
Layer 1
370
     0
100
AcDbVertex
100
AcDb2dVertex
 10
55.45999145507812
 20
102.5690155029297
 30
0.0
  0
VERTEX
  5
45
330
42
100
AcDbEntity
  8
Layer 1
370
     0
100
AcDbVertex
100
AcDb2dVertex
 10
66.78298950195312
 20
97.83200073242188
 30
0.0
  0
VERTEX
  5
46
330
42
100
AcDbEntity
  8
Layer 1
370
     0
100
AcDbVertex
100
AcDb2dVertex
 10
57.89199829101562
 20
97.32501220703125
 30
0.0
  0
SEQEND
  5
47
330
42
100
AcDbEntity
  8
Layer 1
370
     0
  0
POLYLINE
  5
48
330
1F
100
AcDbEntity
  8
Layer 1
370
     0
100
AcDb2dPolyline
 66
     1
 10
0.0
 20
0.0
 30
0.0
  0
VERTEX
  5
49
330
48
100
AcDbEntity
  8
Layer 1
370
     0
100
AcDbVertex
100
AcDb2dVertex
 10
60.99899291992188
 20
111.0319976806641
 30
0.0
  0
VERTEX
  5
4A
330
48
100
AcDbEntity
  8
Layer 1
370
     0
100
AcDbVertex
100
AcDb2dVertex
 10
55.30499267578125
 20
105.9859924316406
 30
0.0
  0
VERTEX
  5
4B
330
48
100
AcDbEntity
  8
Layer 1
370
     0
100
AcDbVertex
100
AcDb2dVertex
 10
57.87100219726562
 20
116.0669860839844
 30
0.0
  0
VERTEX
  5
4C
330
48
100
AcDbEntity
  8
Layer 1
370
     0
100
AcDbVertex
100
AcDb2dVertex
 10
60.99899291992188
 20
111.0319976806641
 30
0.0
  0
SEQEND
  5
4D
330
48
100
AcDbEntity
  8
Layer 1
370
     0
  0
SPLINE
  5
4E
330
1F
100
AcDbEntity
  8
Layer 1
370
     0
100
AcDbSpline
210
0.0
220
0.0
230
1.0
 70
    11
 71
     3
 72
    23
 73
    19
 74
     0
 42
0.0000000001
 43
0.0000000001
 12
1.0
 22
0.0
 32
0.0
 13
1.0
 23
0.0
 33
0.0
 40
0.0
 40
0.0
 40
0.0
 40
0.0
 40
1.0
 40
1.0
 40
1.0
 40
2.0
 40
2.0
 40
2.0
 40
3.0
 40
3.0
 40
3.0
 40
4.0
 40
4.0
 40
4.0
 40
5.0
 40
5.0
 40
5.0
 40
6.0
 40
6.0
 40
6.0
 40
6.0
 10
58.51901245117188
 20
78.406982421875
 30
0.0
 10
58.41302490234375
 20
78.343994140625
 30
0.0
 10
58.32901000976562
 20
78.25299072265625
 30
0.0
 10
58.26699829101562
 20
78.1419677734375
 30
0.0
 10
58.26699829101562
 20
78.1419677734375
 30
0.0
 10
57.94198608398438
 20
77.80096435546875
 30
0.0
 10
57.94198608398438
 20
77.80096435546875
 30
0.0
 10
57.94198608398438
 20
77.80096435546875
 30
0.0
 10
46.93099975585938
 20
92.594970703125
 30
0.0
 10
46.93099975585938
 20
92.594970703125
 30
0.0
 10
46.84100341796875
 20
93.7099609375
 30
0.0
 10
46.75900268554688
 20
94.87496948242188
 30
0.0
 10
46.70700073242188
 20
95.75897216796875
 30
0.0
 10
46.70700073242188
 20
95.75897216796875
 30
0.0
 10
62.51400756835938
 20
82.59796142578125
 30
0.0
 10
62.51400756835938
 20
82.59796142578125
 30
0.0
 10
62.51400756835938
 20
82.59796142578125
 30
0.0
 10
58.51901245117188
 20
78.406982421875
 30
0.0
 10
58.51901245117188
 20
78.406982421875
 30
0.0
  0
POLYLINE
  5
4F
330
1F
100
AcDbEntity
  8
Layer 1
370
     0
100
AcDb2dPolyline
 66
     1
 10
0.0
 20
0.0
 30
0.0
  0
VERTEX
  5
50
330
4F
100
AcDbEntity
  8
Layer 1
370
     0
100
AcDbVertex
100
AcDb2dVertex
 10
7.902008056640625
 20
94.843994140625
 30
0.0
  0
VERTEX
  5
51
330
4F
100
AcDbEntity
  8
Layer 1
370
     0
100
AcDbVertex
100
AcDb2dVertex
 10
13.2130126953125
 20
96.6929931640625
 30
0.0
  0
VERTEX
  5
52
330
4F
100
AcDbEntity
  8
Layer 1
370
     0
100
AcDbVertex
100
AcDb2dVertex
 10
10.20501708984375
 20
91.23098754882812
 30
0.0
  0
VERTEX
  5
53
330
4F
100
AcDbEntity
  8
Layer 1
370
     0
100
AcDbVertex
100
AcDb2dVertex
 10
8.00701904296875
 20
92.72299194335938
 30
0.0
  0
VERTEX
  5
54
330
4F
100
AcDbEntity
  8
Layer 1
370
     0
100
AcDbVertex
100
AcDb2dVertex
 10
7.902008056640625
 20
94.843994140625
 30
0.0
  0
SEQEND
  5
55
330
4F
100
AcDbEntity
  8
Layer 1
370
     0
  0
POLYLINE
  5
56
330
1F
100
AcDbEntity
  8
Layer 1
370
     0
100
AcDb2dPolyline
 66
     1
 10
0.0
 20
0.0
 30
0.0
  0
VERTEX
  5
57
330
56
100
AcDbEntity
  8
Layer 1
370
     0
100
AcDbVertex
100
AcDb2dVertex
 10
11.18899536132812
 20
90.07998657226562
 30
0.0
  0
VERTEX
  5
58
330
56
100
AcDbEntity
  8
Layer 1
370
     0
100
AcDbVertex
100
AcDb2dVertex
 10
15.0
 20
97.0
 30
0.0
  0
VERTEX
  5
59
330
56
100
AcDbEntity
  8
Layer 1
370
     0
100
AcDbVertex
100
AcDb2dVertex
 10
28.27899169921875
 20
96.02899169921875
 30
0.0
  0
VERTEX
  5
5A
330
56
100
AcDbEntity
  8
Layer 1
370
     0
100
AcDbVertex
100
AcDb2dVertex
 10
12.43798828125
 20
82.22598266601562
 30
0.0
  0
VERTEX
  5
5B
330
56
100
AcDbEntity
  8
Layer 1
370
     0
100
AcDbVertex
100
AcDb2dVertex
 10
11.18899536132812
 20
90.07998657226562
 30
0.0
  0
SEQEND
  5
5C
330
56
100
AcDbEntity
  8
Layer 1
370
     0
  0
SPLINE
  5
5D
330
1F
100
AcDbEntity
  8
Layer 1
370
     0
100
AcDbSpline
210
0.0
220
0.0
230
1.0
 70
    11
 71
     3
 72
    26
 73
    22
 74
     0
 42
0.0000000001
 43
0.0000000001
 12
1.0
 22
0.0
 32
0.0
 13
1.0
 23
0.0
 33
0.0
 40
0.0
 40
0.0
 40
0.0
 40
0.0
 40
1.0
 40
1.0
 40
1.0
 40
2.0
 40
2.0
 40
2.0
 40
3.0
 40
3.0
 40
3.0
 40
4.0
 40
4.0
 40
4.0
 40
5.0
 40
5.0
 40
5.0
 40
6.0
 40
6.0
 40
6.0
 40
7.0
 40
7.0
 40
7.0
 40
7.0
 10
29.49099731445312
 20
95.20498657226562
 30
0.0
 10
29.49099731445312
 20
95.20498657226562
 30
0.0
 10
27.8489990234375
 20
78.11398315429688
 30
0.0
 10
27.8489990234375
 20
78.11398315429688
 30
0.0
 10
27.8489990234375
 20
78.11398315429688
 30
0.0
 10
19.8699951171875
 20
71.07199096679688
 30
0.0
 10
19.8699951171875
 20
71.07199096679688
 30
0.0
 10
19.86099243164062
 20
71.06399536132812
 30
0.0
 10
19.85800170898438
 20
71.05398559570312
 30
0.0
 10
19.85000610351562
 20
71.0469970703125
 30
0.0
 10
19.83999633789062
 20
71.0369873046875
 30
0.0
 10
19.8280029296875
 20
71.03298950195312
 30
0.0
 10
19.81900024414062
 20
71.02398681640625
 30
0.0
 10
19.81900024414062
 20
71.02398681640625
 30
0.0
 10
17.614013671875
 20
68.64898681640625
 30
0.0
 10
17.614013671875
 20
68.64898681640625
 30
0.0
 10
17.614013671875
 20
68.64898681640625
 30
0.0
 10
12.78402709960938
 20
80.64898681640625
 30
0.0
 10
12.78402709960938
 20
80.64898681640625
 30
0.0
 10
12.78402709960938
 20
80.64898681640625
 30
0.0
 10
29.49099731445312
 20
95.20498657226562
 30
0.0
 10
29.49099731445312
 20
95.20498657226562
 30
0.0
  0
POLYLINE
  5
5E
330
1F
100
AcDbEntity
  8
Layer 1
370
     0
100
AcDb2dPolyline
 66
     1
 10
0.0
 20
0.0
 30
0.0
  0
VERTEX
  5
5F
330
5E
100
AcDbEntity
  8
Layer 1
370
     0
100
AcDbVertex
100
AcDb2dVertex
 10
19.0
 20
68.05599975585938
 30
0.0
  0
VERTEX
  5
60
330
5E
100
AcDbEntity
  8
Layer 1
370
     0
100
AcDbVertex
100
AcDb2dVertex
 10
20.42999267578125
 20
69.59600830078125
 30
0.0
  0
VERTEX
  5
61
330
5E
100
AcDbEntity
  8
Layer 1
370
     0
100
AcDbVertex
100
AcDb2dVertex
 10
22.53399658203125
 20
68.05599975585938
 30
0.0
  0
VERTEX
  5
62
330
5E
100
AcDbEntity
  8
Layer 1
370
     0
100
AcDbVertex
100
AcDb2dVertex
 10
19.0
 20
68.05599975585938
 30
0.0
  0
SEQEND
  5
63
330
5E
100
AcDbEntity
  8
Layer 1
370
     0
  0
SPLINE
  5
64
330
1F
100
AcDbEntity
  8
Layer 1
370
     0
100
AcDbSpline
210
0.0
220
0.0
230
1.0
 70
    11
 71
     3
 72
    23
 73
    19
 74
     0
 42
0.0000000001
 43
0.0000000001
 12
1.0
 22
0.0
 32
0.0
 13
1.0
 23
0.0
 33
0.0
 40
0.0
 40
0.0
 40
0.0
 40
0.0
 40
1.0
 40
1.0
 40
1.0
 40
2.0
 40
2.0
 40
2.0
 40
3.0
 40
3.0
 40
3.0
 40
4.0
 40
4.0
 40
4.0
 40
5.0
 40
5.0
 40
5.0
 40
6.0
 40
6.0
 40
6.0
 40
6.0
 10
30.98199462890625
 20
95.91000366210938
 30
0.0
 10
30.98199462890625
 20
95.91000366210938
 30
0.0
 10
45.25299072265625
 20
96.55599975585938
 30
0.0
 10
45.25299072265625
 20
96.55599975585938
 30
0.0
 10
45.27398681640625
 20
95.84298706054688
 30
0.0
 10
45.3489990234375
 20
94.58099365234375
 30
0.0
 10
45.53598022460938
 20
92.27801513671875
 30
0.0
 10
45.54696655273438
 20
92.14501953125
 30
0.0
 10
45.594970703125
 20
92.01901245117188
 30
0.0
 10
45.67398071289062
 20
91.91302490234375
 30
0.0
 10
45.67398071289062
 20
91.91302490234375
 30
0.0
 10
56.42599487304688
 20
77.46701049804688
 30
0.0
 10
56.42599487304688
 20
77.46701049804688
 30
0.0
 10
56.42599487304688
 20
77.46701049804688
 30
0.0
 10
29.30599975585938
 20
78.447998046875
 30
0.0
 10
29.30599975585938
 20
78.447998046875
 30
0.0
 10
29.30599975585938
 20
78.447998046875
 30
0.0
 10
30.98199462890625
 20
95.91000366210938
 30
0.0
 10
30.98199462890625
 20
95.91000366210938
 30
0.0
  0
POLYLINE
  5
65
330
1F
100
AcDbEntity
  8
Layer 1
370
     0
100
AcDb2dPolyline
 66
     1
 10
0.0
 20
0.0
 30
0.0
  0
VERTEX
  5
66
330
65
100
AcDbEntity
  8
Layer 1
370
     0
100
AcDbVertex
100
AcDb2dVertex
 10
57.87600708007812
 20
68.05599975585938
 30
0.0
  0
VERTEX
  5
67
330
65
100
AcDbEntity
  8
Layer 1
370
     0
100
AcDbVertex
100
AcDb2dVertex
 10
55.3330078125
 20
68.05599975585938
 30
0.0
  0
VERTEX
  5
68
330
65
100
AcDbEntity
  8
Layer 1
370
     0
100
AcDbVertex
100
AcDb2dVertex
 10
56.22500610351562
 20
69.47198486328125
 30
0.0
  0
VERTEX
  5
69
330
65
100
AcDbEntity
  8
Layer 1
370
     0
100
AcDbVertex
100
AcDb2dVertex
 10
57.87600708007812
 20
68.05599975585938
 30
0.0
  0
SEQEND
  5
6A
330
65
100
AcDbEntity
  8
Layer 1
370
     0
  0
SPLINE
  5
6B
330
1F
100
AcDbEntity
  8
Layer 1
370
     0
100
AcDbSpline
210
0.0
220
0.0
230
1.0
 70
    11
 71
     3
 72
    20
 73
    16
 74
     0
 42
0.0000000001
 43
0.0000000001
 12
1.0
 22
0.0
 32
0.0
 13
1.0
 23
0.0
 33
0.0
 40
0.0
 40
0.0
 40
0.0
 40
0.0
 40
1.0
 40
1.0
 40
1.0
 40
2.0
 40
2.0
 40
2.0
 40
3.0
 40
3.0
 40
3.0
 40
4.0
 40
4.0
 40
4.0
 40
5.0
 40
5.0
 40
5.0
 40
5.0
 10
53.98001098632812
 20
68.56900024414062
 30
0.0
 10
53.98001098632812
 20
68.56900024414062
 30
0.0
 10
52.14501953125
 20
70.86898803710938
 30
0.0
 10
52.14501953125
 20
70.86898803710938
 30
0.0
 10
51.6610107421875
 20
72.62698364257812
 30
0.0
 10
50.99301147460938
 20
75.11398315429688
 30
0.0
 10
50.72003173828125
 20
76.25497436523438
 30
0.0
 10
50.72003173828125
 20
76.25497436523438
 30
0.0
 10
57.76904296875
 20
75.99996948242188
 30
0.0
 10
57.76904296875
 20
75.99996948242188
 30
0.0
 10
57.76904296875
 20
75.99996948242188
 30
0.0
 10
57.31503295898438
 20
73.86398315429688
 30
0.0
 10
57.31503295898438
 20
73.86398315429688
 30
0.0
 10
57.31503295898438
 20
73.86398315429688
 30
0.0
 10
53.98001098632812
 20
68.56900024414062
 30
0.0
 10
53.98001098632812
 20
68.56900024414062
 30
0.0
  0
SPLINE
  5
6C
330
1F
100
AcDbEntity
  8
Layer 1
370
     0
100
AcDbSpline
210
0.0
220
0.0
230
1.0
 70
    11
 71
     3
 72
    50
 73
    46
 74
     0
 42
0.0000000001
 43
0.0000000001
 12
1.0
 22
0.0
 32
0.0
 13
1.0
 23
0.0
 33
0.0
 40
0.0
 40
0.0
 40
0.0
 40
0.0
 40
1.0
 40
1.0
 40
1.0
 40
2.0
 40
2.0
 40
2.0
 40
3.0
 40
3.0
 40
3.0
 40
4.0
 40
4.0
 40
4.0
 40
5.0
 40
5.0
 40
5.0
 40
6.0
 40
6.0
 40
6.0
 40
7.0
 40
7.0
 40
7.0
 40
8.0
 40
8.0
 40
8.0
 40
9.0
 40
9.0
 40
9.0
 40
10.0
 40
10.0
 40
10.0
 40
11.0
 40
11.0
 40
11.0
 40
12.0
 40
12.0
 40
12.0
 40
13.0
 40
13.0
 40
13.0
 40
14.0
 40
14.0
 40
14.0
 40
15.0
 40
15.0
 40
15.0
 40
15.0
 10
64.5889892578125
 20
96.25601196289062
 30
0.0
 10
64.5889892578125
 20
96.25601196289062
 30
0.0
 10
66.1929931640625
 20
93.24700927734375
 30
0.0
 10
66.1929931640625
 20
93.24700927734375
 30
0.0
 10
66.1929931640625
 20
93.24700927734375
 30
0.0
 10
65.59100341796875
 20
85.70602416992188
 30
0.0
 10
65.59100341796875
 20
85.70602416992188
 30
0.0
 10
65.59100341796875
 20
85.70602416992188
 30
0.0
 10
63.50698852539062
 20
83.61602783203125
 30
0.0
 10
63.50698852539062
 20
83.61602783203125
 30
0.0
 10
63.50698852539062
 20
83.61602783203125
 30
0.0
 10
46.86599731445312
 20
97.47003173828125
 30
0.0
 10
46.86599731445312
 20
97.47003173828125
 30
0.0
 10
47.97198486328125
 20
99.4620361328125
 30
0.0
 10
52.33499145507812
 20
107.1560363769531
 30
0.0
 10
55.60699462890625
 20
112.9200286865234
 30
0.0
 10
55.60699462890625
 20
112.9200286865234
 30
0.0
 10
53.36199951171875
 20
104.1010284423828
 30
0.0
 10
53.36199951171875
 20
104.1010284423828
 30
0.0
 10
53.33999633789062
 20
104.0120239257812
 30
0.0
 10
53.3389892578125
 20
103.9200286865234
 30
0.0
 10
53.35101318359375
 20
103.8300323486328
 30
0.0
 10
53.35202026367188
 20
103.8230285644531
 30
0.0
 10
53.3480224609375
 20
103.8160247802734
 30
0.0
 10
53.3489990234375
 20
103.8090362548828
 30
0.0
 10
53.35198974609375
 20
103.7930297851562
 30
0.0
 10
53.364990234375
 20
103.7820434570312
 30
0.0
 10
53.36801147460938
 20
103.7660369873047
 30
0.0
 10
53.3800048828125
 20
103.7190399169922
 30
0.0
 10
53.38601684570312
 20
103.6710357666016
 30
0.0
 10
53.406005859375
 20
103.6270294189453
 30
0.0
 10
53.406005859375
 20
103.6270294189453
 30
0.0
 10
56.80801391601562
 20
96.28903198242188
 30
0.0
 10
56.80801391601562
 20
96.28903198242188
 30
0.0
 10
56.92401123046875
 20
96.03701782226562
 30
0.0
 10
57.176025390625
 20
95.87802124023438
 30
0.0
 10
57.45101928710938
 20
95.87802124023438
 30
0.0
 10
57.46502685546875
 20
95.87802124023438
 30
0.0
 10
57.47702026367188
 20
95.8790283203125
 30
0.0
 10
57.49102783203125
 20
95.88003540039062
 30
0.0
 10
57.49102783203125
 20
95.88003540039062
 30
0.0
 10
64.58001708984375
 20
96.28402709960938
 30
0.0
 10
64.58001708984375
 20
96.28402709960938
 30
0.0
 10
64.58499145507812
 20
96.27700805664062
 30
0.0
 10
64.58401489257812
 20
96.2659912109375
 30
0.0
 10
64.5889892578125
 20
96.25601196289062
 30
0.0
  0
SPLINE
  5
6D
330
1F
100
AcDbEntity
  8
Layer 1
370
     0
100
AcDbSpline
210
0.0
220
0.0
230
1.0
 70
    11
 71
     3
 72
    32
 73
    28
 74
     0
 42
0.0000000001
 43
0.0000000001
 12
1.0
 22
0.0
 32
0.0
 13
1.0
 23
0.0
 33
0.0
 40
0.0
 40
0.0
 40
0.0
 40
0.0
 40
1.0
 40
1.0
 40
1.0
 40
2.0
 40
2.0
 40
2.0
 40
3.0
 40
3.0
 40
3.0
 40
4.0
 40
4.0
 40
4.0
 40
5.0
 40
5.0
 40
5.0
 40
6.0
 40
6.0
 40
6.0
 40
7.0
 40
7.0
 40
7.0
 40
8.0
 40
8.0
 40
8.0
 40
9.0
 40
9.0
 40
9.0
 40
9.0
 10
74.0369873046875
 20
102.1100006103516
 30
0.0
 10
74.0369873046875
 20
102.1100006103516
 30
0.0
 10
69.74398803710938
 20
98.12899780273438
 30
0.0
 10
69.74398803710938
 20
98.12899780273438
 30
0.0
 10
69.74398803710938
 20
98.12899780273438
 30
0.0
 10
55.36297607421875
 20
104.14599609375
 30
0.0
 10
55.36297607421875
 20
104.14599609375
 30
0.0
 10
55.36297607421875
 20
104.14599609375
 30
0.0
 10
62.09396362304688
 20
110.1109924316406
 30
0.0
 10
62.09396362304688
 20
110.1109924316406
 30
0.0
 10
62.09396362304688
 20
110.1109924316406
 30
0.0
 10
65.68695068359375
 20
109.0769958496094
 30
0.0
 10
65.68695068359375
 20
109.0769958496094
 30
0.0
 10
65.68695068359375
 20
109.0769958496094
 30
0.0
 10
67.97894287109375
 20
106.7279968261719
 30
0.0
 10
67.97894287109375
 20
106.7279968261719
 30
0.0
 10
68.05892944335938
 20
106.64599609375
 30
0.0
 10
68.158935546875
 20
106.5839996337891
 30
0.0
 10
68.2679443359375
 20
106.5480041503906
 30
0.0
 10
68.2679443359375
 20
106.5480041503906
 30
0.0
 10
74.03695678710938
 20
104.6880035400391
 30
0.0
 10
74.03695678710938
 20
104.6880035400391
 30
0.0
 10
74.03695678710938
 20
104.6880035400391
 30
0.0
 10
74.03695678710938
 20
102.1100006103516
 30
0.0
 10
74.03695678710938
 20
102.1100006103516
 30
0.0
 10
74.03695678710938
 20
102.1100006103516
 30
0.0
 10
74.0369873046875
 20
102.1100006103516
 30
0.0
 10
74.0369873046875
 20
102.1100006103516
 30
0.0
  0
HATCH
  5
6E
330
1F
100
AcDbEntity
  8
Layer 1
 62
     7
420
 16777215
100
AcDbHatch
 10
0.0
 20
0.0
 30
0.0
210
0.0
220
0.0
230
1.0
  2
SOLID
 70
     1
 71
     0
 91
       13
 92
        1
 93
        1
 72
     4
 94
        3
 73
     0
 74
     1
 95
      302
 96
      298
 40
0.0
 40
0.0
 40
0.0
 40
0.0
 40
1.0
 40
1.0
 40
1.0
 40
2.0
 40
2.0
 40
2.0
 40
3.0
 40
3.0
 40
3.0
 40
4.0
 40
4.0
 40
4.0
 40
5.0
 40
5.0
 40
5.0
 40
6.0
 40
6.0
 40
6.0
 40
7.0
 40
7.0
 40
7.0
 40
8.0
 40
8.0
 40
8.0
 40
9.0
 40
9.0
 40
9.0
 40
10.0
 40
10.0
 40
10.0
 40
11.0
 40
11.0
 40
11.0
 40
12.0
 40
12.0
 40
12.0
 40
13.0
 40
13.0
 40
13.0
 40
14.0
 40
14.0
 40
14.0
 40
15.0
 40
15.0
 40
15.0
 40
16.0
 40
16.0
 40
16.0
 40
17.0
 40
17.0
 40
17.0
 40
18.0
 40
18.0
 40
18.0
 40
19.0
 40
19.0
 40
19.0
 40
20.0
 40
20.0
 40
20.0
 40
21.0
 40
21.0
 40
21.0
 40
22.0
 40
22.0
 40
22.0
 40
23.0
 40
23.0
 40
23.0
 40
24.0
 40
24.0
 40
24.0
 40
25.0
 40
25.0
 40
25.0
 40
26.0
 40
26.0
 40
26.0
 40
27.0
 40
27.0
 40
27.0
 40
28.0
 40
28.0
 40
28.0
 40
29.0
 40
29.0
 40
29.0
 40
30.0
 40
30.0
 40
30.0
 40
31.0
 40
31.0
 40
31.0
 40
32.0
 40
32.0
 40
32.0
 40
33.0
 40
33.0
 40
33.0
 40
34.0
 40
34.0
 40
34.0
 40
35.0
 40
35.0
 40
35.0
 40
36.0
 40
36.0
 40
36.0
 40
37.0
 40
37.0
 40
37.0
 40
38.0
 40
38.0
 40
38.0
 40
39.0
 40
39.0
 40
39.0
 40
40.0
 40
40.0
 40
40.0
 40
41.0
 40
41.0
 40
41.0
 40
42.0
 40
42.0
 40
42.0
 40
43.0
 40
43.0
 40
43.0
 40
44.0
 40
44.0
 40
44.0
 40
45.0
 40
45.0
 40
45.0
 40
46.0
 40
46.0
 40
46.0
 40
47.0
 40
47.0
 40
47.0
 40
48.0
 40
48.0
 40
48.0
 40
49.0
 40
49.0
 40
49.0
 40
50.0
 40
50.0
 40
50.0
 40
51.0
 40
51.0
 40
51.0
 40
52.0
 40
52.0
 40
52.0
 40
53.0
 40
53.0
 40
53.0
 40
54.0
 40
54.0
 40
54.0
 40
55.0
 40
55.0
 40
55.0
 40
56.0
 40
56.0
 40
56.0
 40
57.0
 40
57.0
 40
57.0
 40
58.0
 40
58.0
 40
58.0
 40
59.0
 40
59.0
 40
59.0
 40
60.0
 40
60.0
 40
60.0
 40
61.0
 40
61.0
 40
61.0
 40
62.0
 40
62.0
 40
62.0
 40
63.0
 40
63.0
 40
63.0
 40
64.0
 40
64.0
 40
64.0
 40
65.0
 40
65.0
 40
65.0
 40
66.0
 40
66.0
 40
66.0
 40
67.0
 40
67.0
 40
67.0
 40
68.0
 40
68.0
 40
68.0
 40
69.0
 40
69.0
 40
69.0
 40
70.0
 40
70.0
 40
70.0
 40
71.0
 40
71.0
 40
71.0
 40
72.0
 40
72.0
 40
72.0
 40
73.0
 40
73.0
 40
73.0
 40
74.0
 40
74.0
 40
74.0
 40
75.0
 40
75.0
 40
75.0
 40
76.0
 40
76.0
 40
76.0
 40
77.0
 40
77.0
 40
77.0
 40
78.0
 40
78.0
 40
78.0
 40
79.0
 40
79.0
 40
79.0
 40
80.0
 40
80.0
 40
80.0
 40
81.0
 40
81.0
 40
81.0
 40
82.0
 40
82.0
 40
82.0
 40
83.0
 40
83.0
 40
83.0
 40
84.0
 40
84.0
 40
84.0
 40
85.0
 40
85.0
 40
85.0
 40
86.0
 40
86.0
 40
86.0
 40
87.0
 40
87.0
 40
87.0
 40
88.0
 40
88.0
 40
88.0
 40
89.0
 40
89.0
 40
89.0
 40
90.0
 40
90.0
 40
90.0
 40
91.0
 40
91.0
 40
91.0
 40
92.0
 40
92.0
 40
92.0
 40
93.0
 40
93.0
 40
93.0
 40
94.0
 40
94.0
 40
94.0
 40
95.0
 40
95.0
 40
95.0
 40
96.0
 40
96.0
 40
96.0
 40
97.0
 40
97.0
 40
97.0
 40
98.0
 40
98.0
 40
98.0
 40
99.0
 40
99.0
 40
99.0
 40
99.0
 10
74.9639892578125
 20
105.8769989013672
 10
74.9639892578125
 20
105.8769989013672
 10
68.87100219726562
 20
107.8419952392578
 10
68.87100219726562
 20
107.8419952392578
 10
68.87100219726562
 20
107.8419952392578
 10
66.57000732421875
 20
110.1989898681641
 10
66.57000732421875
 20
110.1989898681641
 10
66.4840087890625
 20
110.2869873046875
 10
66.37802124023438
 20
110.3509826660156
 10
66.25900268554688
 20
110.3849945068359
 10
66.25900268554688
 20
110.3849945068359
 10
62.37301635742188
 20
111.5029907226562
 10
62.37301635742188
 20
111.5029907226562
 10
62.37301635742188
 20
111.5029907226562
 10
58.19500732421875
 20
118.2289886474609
 10
58.19500732421875
 20
118.2289886474609
 10
58.18801879882812
 20
118.239990234375
 10
58.177001953125
 20
118.2479858398438
 10
58.17001342773438
 20
118.2579956054688
 10
58.15499877929688
 20
118.2799987792969
 10
58.13702392578125
 20
118.2989959716797
 10
58.1190185546875
 20
118.3190002441406
 10
58.0770263671875
 20
118.3659973144531
 10
58.031005859375
 20
118.406005859375
 10
57.98001098632812
 20
118.4400024414062
 10
57.96600341796875
 20
118.4490051269531
 10
57.95901489257812
 20
118.4629974365234
 10
57.94400024414062
 20
118.4710083007812
 10
57.93600463867188
 20
118.4760131835938
 10
57.927001953125
 20
118.4750061035156
 10
57.92001342773438
 20
118.47900390625
 10
57.84500122070312
 20
118.5180053710938
 10
57.76602172851562
 20
118.5460052490234
 10
57.6820068359375
 20
118.5559997558594
 10
57.66799926757812
 20
118.5579986572266
 10
57.656005859375
 20
118.5549926757812
 10
57.64199829101562
 20
118.5559997558594
 10
57.58999633789062
 20
118.5599975585938
 10
57.53799438476562
 20
118.5630035400391
 10
57.48599243164062
 20
118.5549926757812
 10
57.468994140625
 20
118.5519866943359
 10
57.45498657226562
 20
118.5439910888672
 10
57.43899536132812
 20
118.5399932861328
 10
57.41299438476562
 20
118.5339965820312
 10
57.38800048828125
 20
118.5249938964844
 10
57.36300659179688
 20
118.5169982910156
 10
57.3070068359375
 20
118.4969940185547
 10
57.25601196289062
 20
118.4720001220703
 10
57.20700073242188
 20
118.4389953613281
 10
57.18600463867188
 20
118.4249877929688
 10
57.166015625
 20
118.4149932861328
 10
57.14599609375
 20
118.3979949951172
 10
57.0830078125
 20
118.3459930419922
 10
57.02700805664062
 20
118.2849884033203
 10
56.9849853515625
 20
118.2129974365234
 10
56.98297119140625
 20
118.2099914550781
 10
56.97998046875
 20
118.2079925537109
 10
56.97799682617188
 20
118.2050018310547
 10
52.26498413085938
 20
109.9120025634766
 10
46.72900390625
 20
100.1540069580078
 10
45.53900146484375
 20
97.98800659179688
 10
45.53900146484375
 20
97.98800659179688
 10
30.34799194335938
 20
97.29901123046875
 10
30.34799194335938
 20
97.29901123046875
 10
30.34799194335938
 20
97.29901123046875
 10
14.6719970703125
 20
98.44500732421875
 10
14.6719970703125
 20
98.44500732421875
 10
14.67098999023438
 20
98.44500732421875
 10
14.67098999023438
 20
98.44500732421875
 10
14.67098999023438
 20
98.44500732421875
 10
14.67098999023438
 20
98.44500732421875
 10
14.64999389648438
 20
98.44700622558594
 10
14.64999389648438
 20
98.44700622558594
 10
14.62698364257812
 20
98.44801330566406
 10
14.60598754882812
 20
98.43800354003906
 10
14.583984375
 20
98.43701171875
 10
14.51296997070312
 20
98.43600463867188
 10
14.4429931640625
 20
98.43002319335938
 10
14.3759765625
 20
98.40802001953125
 10
14.37496948242188
 20
98.40802001953125
 10
14.37396240234375
 20
98.40701293945312
 10
14.37197875976562
 20
98.406005859375
 10
14.35897827148438
 20
98.40200805664062
 10
14.34896850585938
 20
98.39300537109375
 10
14.33697509765625
 20
98.38800048828125
 10
14.18096923828125
 20
98.45199584960938
 10
14.00396728515625
 20
98.468994140625
 10
13.833984375
 20
98.40899658203125
 10
13.833984375
 20
98.40899658203125
 10
6.93597412109375
 20
96.00900268554688
 10
6.93597412109375
 20
96.00900268554688
 10
6.637969970703125
 20
95.906005859375
 10
6.444976806640625
 20
95.61898803710938
 10
6.4599609375
 20
95.30499267578125
 10
6.4599609375
 20
95.30499267578125
 10
6.60797119140625
 20
92.30099487304688
 10
6.60797119140625
 20
92.30099487304688
 10
6.61895751953125
 20
92.07901000976562
 10
6.733978271484375
 20
91.87399291992188
 10
6.918975830078125
 20
91.75
 10
6.918975830078125
 20
91.75
 10
9.798980712890625
 20
89.79598999023438
 10
9.798980712890625
 20
89.79598999023438
 10
9.798980712890625
 20
89.79598999023438
 10
11.23797607421875
 20
80.74697875976562
 10
11.23797607421875
 20
80.74697875976562
 10
11.24496459960938
 20
80.698974609375
 10
11.25796508789062
 20
80.6519775390625
 10
11.27398681640625
 20
80.60498046875
 10
11.27398681640625
 20
80.60397338867188
 10
11.27499389648438
 20
80.60296630859375
 10
11.27499389648438
 20
80.60296630859375
 10
11.27398681640625
 20
80.60195922851562
 10
11.2760009765625
 20
80.6009521484375
 10
11.2760009765625
 20
80.6009521484375
 10
11.2760009765625
 20
80.59994506835938
 10
11.2760009765625
 20
80.59994506835938
 10
11.2760009765625
 20
80.59994506835938
 10
11.27700805664062
 20
80.59893798828125
 10
11.27700805664062
 20
80.59893798828125
 10
11.27700805664062
 20
80.59793090820312
 10
11.27801513671875
 20
80.596923828125
 10
11.27801513671875
 20
80.59591674804688
 10
11.27801513671875
 20
80.59591674804688
 10
11.27801513671875
 20
80.59591674804688
 10
11.27801513671875
 20
80.59490966796875
 10
11.27801513671875
 20
80.59490966796875
 10
11.27801513671875
 20
80.59490966796875
 10
11.27902221679688
 20
80.59390258789062
 10
11.27902221679688
 20
80.59390258789062
 10
11.27902221679688
 20
80.59390258789062
 10
11.27902221679688
 20
80.5928955078125
 10
11.27902221679688
 20
80.5928955078125
 10
11.27902221679688
 20
80.59188842773438
 10
11.280029296875
 20
80.59188842773438
 10
11.280029296875
 20
80.59088134765625
 10
11.280029296875
 20
80.59088134765625
 10
11.280029296875
 20
80.58987426757812
 10
11.280029296875
 20
80.58987426757812
 10
11.280029296875
 20
80.58987426757812
 10
11.28103637695312
 20
80.5888671875
 10
11.28103637695312
 20
80.5888671875
 10
11.28103637695312
 20
80.5888671875
 10
11.28103637695312
 20
80.58786010742188
 10
11.28103637695312
 20
80.58786010742188
 10
11.28103637695312
 20
80.58685302734375
 10
11.28204345703125
 20
80.58685302734375
 10
11.28204345703125
 20
80.58584594726562
 10
11.28204345703125
 20
80.58584594726562
 10
16.71804809570312
 20
67.08184814453125
 10
16.71804809570312
 20
67.08184814453125
 10
16.71905517578125
 20
67.078857421875
 10
16.7220458984375
 20
67.07583618164062
 10
16.72305297851562
 20
67.07284545898438
 10
16.72506713867188
 20
67.06985473632812
 10
16.72506713867188
 20
67.06585693359375
 10
16.72604370117188
 20
67.06283569335938
 10
16.74404907226562
 20
67.0218505859375
 10
16.77005004882812
 20
66.98883056640625
 10
16.79403686523438
 20
66.95285034179688
 10
16.80804443359375
 20
66.932861328125
 10
16.8160400390625
 20
66.90985107421875
 10
16.83203125
 20
66.891845703125
 10
16.8680419921875
 20
66.84783935546875
 10
16.91201782226562
 20
66.81185913085938
 10
16.95703125
 20
66.77883911132812
 10
16.967041015625
 20
66.7718505859375
 10
16.97503662109375
 20
66.7618408203125
 10
16.98403930664062
 20
66.75582885742188
 10
17.0970458984375
 20
66.68081665039062
 10
17.23202514648438
 20
66.6378173828125
 10
17.37503051757812
 20
66.6378173828125
 10
17.37503051757812
 20
66.6378173828125
 10
24.70004272460938
 20
66.6378173828125
 10
24.70004272460938
 20
66.6378173828125
 10
25.00704956054688
 20
66.6378173828125
 10
25.27804565429688
 20
66.83480834960938
 10
25.37405395507812
 20
67.12582397460938
 10
25.46905517578125
 20
67.41781616210938
 10
25.36605834960938
 20
67.73681640625
 10
25.11904907226562
 20
67.91781616210938
 10
25.11904907226562
 20
67.91781616210938
 10
21.46905517578125
 20
70.59182739257812
 10
21.46905517578125
 20
70.59182739257812
 10
21.46905517578125
 20
70.59182739257812
 10
28.78506469726562
 20
77.048828125
 10
28.78506469726562
 20
77.048828125
 10
28.78506469726562
 20
77.048828125
 10
49.258056640625
 20
76.30783081054688
 10
49.258056640625
 20
76.30783081054688
 10
49.53805541992188
 20
75.00582885742188
 10
50.67807006835938
 20
70.86282348632812
 10
50.81805419921875
 20
70.35183715820312
 10
50.84304809570312
 20
70.25982666015625
 10
50.8880615234375
 20
70.1728515625
 10
50.94805908203125
 20
70.09783935546875
 10
50.94805908203125
 20
70.09783935546875
 10
53.49606323242188
 20
66.90484619140625
 10
53.49606323242188
 20
66.90484619140625
 10
53.50405883789062
 20
66.89483642578125
 10
53.51605224609375
 20
66.891845703125
 10
53.5230712890625
 20
66.88385009765625
 10
53.55108642578125
 20
66.85183715820312
 10
53.58407592773438
 20
66.82583618164062
 10
53.61807250976562
 20
66.79983520507812
 10
53.6380615234375
 20
66.7828369140625
 10
53.65008544921875
 20
66.7618408203125
 10
53.67205810546875
 20
66.74783325195312
 10
53.68905639648438
 20
66.73684692382812
 10
53.70706176757812
 20
66.73281860351562
 10
53.72506713867188
 20
66.72482299804688
 10
53.73806762695312
 20
66.71783447265625
 10
53.7470703125
 20
66.70883178710938
 10
53.76107788085938
 20
66.70382690429688
 10
53.77609252929688
 20
66.69781494140625
 10
53.79107666015625
 20
66.69381713867188
 10
53.80609130859375
 20
66.68783569335938
 10
53.88607788085938
 20
66.65884399414062
 10
53.96710205078125
 20
66.63882446289062
 10
54.04910278320312
 20
66.63882446289062
 10
54.04910278320312
 20
66.63882446289062
 10
54.04910278320312
 20
66.63882446289062
 10
54.04910278320312
 20
66.63882446289062
 10
54.05010986328125
 20
66.63882446289062
 10
54.05010986328125
 20
66.63882446289062
 10
54.05010986328125
 20
66.63882446289062
 10
54.05010986328125
 20
66.63882446289062
 10
59.79110717773438
 20
66.63882446289062
 10
59.79110717773438
 20
66.63882446289062
 10
60.08810424804688
 20
66.63882446289062
 10
60.35311889648438
 20
66.82382202148438
 10
60.45611572265625
 20
67.10183715820312
 10
60.55911254882812
 20
67.37985229492188
 10
60.47711181640625
 20
67.69284057617188
 10
60.25311279296875
 20
67.88583374023438
 10
60.25311279296875
 20
67.88583374023438
 10
56.98910522460938
 20
70.68582153320312
 10
56.98910522460938
 20
70.68582153320312
 10
56.98910522460938
 20
70.68582153320312
 10
58.58309936523438
 20
73.2158203125
 10
58.58309936523438
 20
73.2158203125
 10
58.62811279296875
 20
73.28683471679688
 10
58.65908813476562
 20
73.36480712890625
 10
58.67709350585938
 20
73.44583129882812
 10
58.67709350585938
 20
73.44583129882812
 10
59.51708984375
 20
77.39682006835938
 10
59.51708984375
 20
77.39682006835938
 10
59.51708984375
 20
77.39682006835938
 10
64.06509399414062
 20
82.16781616210938
 10
64.06509399414062
 20
82.16781616210938
 10
64.06509399414062
 20
82.16781616210938
 10
64.06509399414062
 20
82.16781616210938
 10
64.06509399414062
 20
82.16781616210938
 10
64.06509399414062
 20
82.16781616210938
 10
66.78009033203125
 20
84.88980102539062
 10
66.78009033203125
 20
84.88980102539062
 10
66.89810180664062
 20
85.0078125
 10
66.97109985351562
 20
85.16580200195312
 10
66.98410034179688
 20
85.33279418945312
 10
66.98410034179688
 20
85.33279418945312
 10
67.62310791015625
 20
93.34078979492188
 10
67.62310791015625
 20
93.34078979492188
 10
67.63409423828125
 20
93.47677612304688
 10
67.60610961914062
 20
93.61178588867188
 10
67.5421142578125
 20
93.73080444335938
 10
67.5421142578125
 20
93.73080444335938
 10
66.13311767578125
 20
96.37481689453125
 10
66.13311767578125
 20
96.37481689453125
 10
66.13311767578125
 20
96.37481689453125
 10
69.93511962890625
 20
96.59182739257812
 10
69.93511962890625
 20
96.59182739257812
 10
69.95211791992188
 20
96.59283447265625
 10
69.96511840820312
 20
96.600830078125
 10
69.98211669921875
 20
96.60281372070312
 10
70.037109375
 20
96.60980224609375
 10
70.089111328125
 20
96.62081909179688
 10
70.14010620117188
 20
96.63882446289062
 10
70.16510009765625
 20
96.64883422851562
 10
70.18911743164062
 20
96.66082763671875
 10
70.21310424804688
 20
96.673828125
 10
70.25811767578125
 20
96.69583129882812
 10
70.298095703125
 20
96.72283935546875
 10
70.33709716796875
 20
96.75381469726562
 10
70.34909057617188
 20
96.76382446289062
 10
70.36410522460938
 20
96.76882934570312
 10
70.3760986328125
 20
96.77880859375
 10
70.3760986328125
 20
96.77880859375
 10
75.2301025390625
 20
101.2808074951172
 10
75.2301025390625
 20
101.2808074951172
 10
75.3760986328125
 20
101.4148101806641
 10
75.45809936523438
 20
101.6028137207031
 10
75.45809936523438
 20
101.8008117675781
 10
75.45809936523438
 20
101.8008117675781
 10
75.45809936523438
 20
105.2028045654297
 10
75.45809936523438
 20
105.2028045654297
 10
75.45498657226562
 20
105.5099945068359
 10
75.25698852539062
 20
105.7830047607422
 10
74.9639892578125
 20
105.8769989013672
 97
        0
 97
        0
 92
        1
 93
        3
 72
     1
 10
57.89199829101562
 20
97.32501220703125
 11
55.45999145507812
 21
102.5690155029297
 72
     1
 10
55.45999145507812
 20
102.5690155029297
 11
66.78298950195312
 21
97.83200073242188
 72
     1
 10
66.78298950195312
 20
97.83200073242188
 11
57.89199829101562
 21
97.32501220703125
 97
        0
 92
        1
 93
        3
 72
     1
 10
60.99899291992188
 20
111.0319976806641
 11
55.30499267578125
 21
105.9859924316406
 72
     1
 10
55.30499267578125
 20
105.9859924316406
 11
57.87100219726562
 21
116.0669860839844
 72
     1
 10
57.87100219726562
 20
116.0669860839844
 11
60.99899291992188
 21
111.0319976806641
 97
        0
 92
        1
 93
        1
 72
     4
 94
        3
 73
     0
 74
     1
 95
       23
 96
       19
 40
0.0
 40
0.0
 40
0.0
 40
0.0
 40
1.0
 40
1.0
 40
1.0
 40
2.0
 40
2.0
 40
2.0
 40
3.0
 40
3.0
 40
3.0
 40
4.0
 40
4.0
 40
4.0
 40
5.0
 40
5.0
 40
5.0
 40
6.0
 40
6.0
 40
6.0
 40
6.0
 10
58.51901245117188
 20
78.406982421875
 10
58.41302490234375
 20
78.343994140625
 10
58.32901000976562
 20
78.25299072265625
 10
58.26699829101562
 20
78.1419677734375
 10
58.26699829101562
 20
78.1419677734375
 10
57.94198608398438
 20
77.80096435546875
 10
57.94198608398438
 20
77.80096435546875
 10
57.94198608398438
 20
77.80096435546875
 10
46.93099975585938
 20
92.594970703125
 10
46.93099975585938
 20
92.594970703125
 10
46.84100341796875
 20
93.7099609375
 10
46.75900268554688
 20
94.87496948242188
 10
46.70700073242188
 20
95.75897216796875
 10
46.70700073242188
 20
95.75897216796875
 10
62.51400756835938
 20
82.59796142578125
 10
62.51400756835938
 20
82.59796142578125
 10
62.51400756835938
 20
82.59796142578125
 10
58.51901245117188
 20
78.406982421875
 10
58.51901245117188
 20
78.406982421875
 97
        0
 97
        0
 92
        1
 93
        4
 72
     1
 10
7.902008056640625
 20
94.843994140625
 11
13.2130126953125
 21
96.6929931640625
 72
     1
 10
13.2130126953125
 20
96.6929931640625
 11
10.20501708984375
 21
91.23098754882812
 72
     1
 10
10.20501708984375
 20
91.23098754882812
 11
8.00701904296875
 21
92.72299194335938
 72
     1
 10
8.00701904296875
 20
92.72299194335938
 11
7.902008056640625
 21
94.843994140625
 97
        0
 92
        1
 93
        4
 72
     1
 10
11.18899536132812
 20
90.07998657226562
 11
15.0
 21
97.0
 72
     1
 10
15.0
 20
97.0
 11
28.27899169921875
 21
96.02899169921875
 72
     1
 10
28.27899169921875
 20
96.02899169921875
 11
12.43798828125
 21
82.22598266601562
 72
     1
 10
12.43798828125
 20
82.22598266601562
 11
11.18899536132812
 21
90.07998657226562
 97
        0
 92
        1
 93
        1
 72
     4
 94
        3
 73
     0
 74
     1
 95
       26
 96
       22
 40
0.0
 40
0.0
 40
0.0
 40
0.0
 40
1.0
 40
1.0
 40
1.0
 40
2.0
 40
2.0
 40
2.0
 40
3.0
 40
3.0
 40
3.0
 40
4.0
 40
4.0
 40
4.0
 40
5.0
 40
5.0
 40
5.0
 40
6.0
 40
6.0
 40
6.0
 40
7.0
 40
7.0
 40
7.0
 40
7.0
 10
29.49099731445312
 20
95.20498657226562
 10
29.49099731445312
 20
95.20498657226562
 10
27.8489990234375
 20
78.11398315429688
 10
27.8489990234375
 20
78.11398315429688
 10
27.8489990234375
 20
78.11398315429688
 10
19.8699951171875
 20
71.07199096679688
 10
19.8699951171875
 20
71.07199096679688
 10
19.86099243164062
 20
71.06399536132812
 10
19.85800170898438
 20
71.05398559570312
 10
19.85000610351562
 20
71.0469970703125
 10
19.83999633789062
 20
71.0369873046875
 10
19.8280029296875
 20
71.03298950195312
 10
19.81900024414062
 20
71.02398681640625
 10
19.81900024414062
 20
71.02398681640625
 10
17.614013671875
 20
68.64898681640625
 10
17.614013671875
 20
68.64898681640625
 10
17.614013671875
 20
68.64898681640625
 10
12.78402709960938
 20
80.64898681640625
 10
12.78402709960938
 20
80.64898681640625
 10
12.78402709960938
 20
80.64898681640625
 10
29.49099731445312
 20
95.20498657226562
 10
29.49099731445312
 20
95.20498657226562
 97
        0
 97
        0
 92
        1
 93
        3
 72
     1
 10
19.0
 20
68.05599975585938
 11
20.42999267578125
 21
69.59600830078125
 72
     1
 10
20.42999267578125
 20
69.59600830078125
 11
22.53399658203125
 21
68.05599975585938
 72
     1
 10
22.53399658203125
 20
68.05599975585938
 11
19.0
 21
68.05599975585938
 97
        0
 92
        1
 93
        1
 72
     4
 94
        3
 73
     0
 74
     1
 95
       23
 96
       19
 40
0.0
 40
0.0
 40
0.0
 40
0.0
 40
1.0
 40
1.0
 40
1.0
 40
2.0
 40
2.0
 40
2.0
 40
3.0
 40
3.0
 40
3.0
 40
4.0
 40
4.0
 40
4.0
 40
5.0
 40
5.0
 40
5.0
 40
6.0
 40
6.0
 40
6.0
 40
6.0
 10
30.98199462890625
 20
95.91000366210938
 10
30.98199462890625
 20
95.91000366210938
 10
45.25299072265625
 20
96.55599975585938
 10
45.25299072265625
 20
96.55599975585938
 10
45.27398681640625
 20
95.84298706054688
 10
45.3489990234375
 20
94.58099365234375
 10
45.53598022460938
 20
92.27801513671875
 10
45.54696655273438
 20
92.14501953125
 10
45.594970703125
 20
92.01901245117188
 10
45.67398071289062
 20
91.91302490234375
 10
45.67398071289062
 20
91.91302490234375
 10
56.42599487304688
 20
77.46701049804688
 10
56.42599487304688
 20
77.46701049804688
 10
56.42599487304688
 20
77.46701049804688
 10
29.30599975585938
 20
78.447998046875
 10
29.30599975585938
 20
78.447998046875
 10
29.30599975585938
 20
78.447998046875
 10
30.98199462890625
 20
95.91000366210938
 10
30.98199462890625
 20
95.91000366210938
 97
        0
 97
        0
 92
        1
 93
        3
 72
     1
 10
57.87600708007812
 20
68.05599975585938
 11
55.3330078125
 21
68.05599975585938
 72
     1
 10
55.3330078125
 20
68.05599975585938
 11
56.22500610351562
 21
69.47198486328125
 72
     1
 10
56.22500610351562
 20
69.47198486328125
 11
57.87600708007812
 21
68.05599975585938
 97
        0
 92
        1
 93
        1
 72
     4
 94
        3
 73
     0
 74
     1
 95
       20
 96
       16
 40
0.0
 40
0.0
 40
0.0
 40
0.0
 40
1.0
 40
1.0
 40
1.0
 40
2.0
 40
2.0
 40
2.0
 40
3.0
 40
3.0
 40
3.0
 40
4.0
 40
4.0
 40
4.0
 40
5.0
 40
5.0
 40
5.0
 40
5.0
 10
53.98001098632812
 20
68.56900024414062
 10
53.98001098632812
 20
68.56900024414062
 10
52.14501953125
 20
70.86898803710938
 10
52.14501953125
 20
70.86898803710938
 10
51.6610107421875
 20
72.62698364257812
 10
50.99301147460938
 20
75.11398315429688
 10
50.72003173828125
 20
76.25497436523438
 10
50.72003173828125
 20
76.25497436523438
 10
57.76904296875
 20
75.99996948242188
 10
57.76904296875
 20
75.99996948242188
 10
57.76904296875
 20
75.99996948242188
 10
57.31503295898438
 20
73.86398315429688
 10
57.31503295898438
 20
73.86398315429688
 10
57.31503295898438
 20
73.86398315429688
 10
53.98001098632812
 20
68.56900024414062
 10
53.98001098632812
 20
68.56900024414062
 97
        0
 97
        0
 92
        1
 93
        1
 72
     4
 94
        3
 73
     0
 74
     1
 95
       50
 96
       46
 40
0.0
 40
0.0
 40
0.0
 40
0.0
 40
1.0
 40
1.0
 40
1.0
 40
2.0
 40
2.0
 40
2.0
 40
3.0
 40
3.0
 40
3.0
 40
4.0
 40
4.0
 40
4.0
 40
5.0
 40
5.0
 40
5.0
 40
6.0
 40
6.0
 40
6.0
 40
7.0
 40
7.0
 40
7.0
 40
8.0
 40
8.0
 40
8.0
 40
9.0
 40
9.0
 40
9.0
 40
10.0
 40
10.0
 40
10.0
 40
11.0
 40
11.0
 40
11.0
 40
12.0
 40
12.0
 40
12.0
 40
13.0
 40
13.0
 40
13.0
 40
14.0
 40
14.0
 40
14.0
 40
15.0
 40
15.0
 40
15.0
 40
15.0
 10
64.5889892578125
 20
96.25601196289062
 10
64.5889892578125
 20
96.25601196289062
 10
66.1929931640625
 20
93.24700927734375
 10
66.1929931640625
 20
93.24700927734375
 10
66.1929931640625
 20
93.24700927734375
 10
65.59100341796875
 20
85.70602416992188
 10
65.59100341796875
 20
85.70602416992188
 10
65.59100341796875
 20
85.70602416992188
 10
63.50698852539062
 20
83.61602783203125
 10
63.50698852539062
 20
83.61602783203125
 10
63.50698852539062
 20
83.61602783203125
 10
46.86599731445312
 20
97.47003173828125
 10
46.86599731445312
 20
97.47003173828125
 10
47.97198486328125
 20
99.4620361328125
 10
52.33499145507812
 20
107.1560363769531
 10
55.60699462890625
 20
112.9200286865234
 10
55.60699462890625
 20
112.9200286865234
 10
53.36199951171875
 20
104.1010284423828
 10
53.36199951171875
 20
104.1010284423828
 10
53.33999633789062
 20
104.0120239257812
 10
53.3389892578125
 20
103.9200286865234
 10
53.35101318359375
 20
103.8300323486328
 10
53.35202026367188
 20
103.8230285644531
 10
53.3480224609375
 20
103.8160247802734
 10
53.3489990234375
 20
103.8090362548828
 10
53.35198974609375
 20
103.7930297851562
 10
53.364990234375
 20
103.7820434570312
 10
53.36801147460938
 20
103.7660369873047
 10
53.3800048828125
 20
103.7190399169922
 10
53.38601684570312
 20
103.6710357666016
 10
53.406005859375
 20
103.6270294189453
 10
53.406005859375
 20
103.6270294189453
 10
56.80801391601562
 20
96.28903198242188
 10
56.80801391601562
 20
96.28903198242188
 10
56.92401123046875
 20
96.03701782226562
 10
57.176025390625
 20
95.87802124023438
 10
57.45101928710938
 20
95.87802124023438
 10
57.46502685546875
 20
95.87802124023438
 10
57.47702026367188
 20
95.8790283203125
 10
57.49102783203125
 20
95.88003540039062
 10
57.49102783203125
 20
95.88003540039062
 10
64.58001708984375
 20
96.28402709960938
 10
64.58001708984375
 20
96.28402709960938
 10
64.58499145507812
 20
96.27700805664062
 10
64.58401489257812
 20
96.2659912109375
 10
64.5889892578125
 20
96.25601196289062
 97
        0
 97
        0
 92
        1
 93
        1
 72
     4
 94
        3
 73
     0
 74
     1
 95
       32
 96
       28
 40
0.0
 40
0.0
 40
0.0
 40
0.0
 40
1.0
 40
1.0
 40
1.0
 40
2.0
 40
2.0
 40
2.0
 40
3.0
 40
3.0
 40
3.0
 40
4.0
 40
4.0
 40
4.0
 40
5.0
 40
5.0
 40
5.0
 40
6.0
 40
6.0
 40
6.0
 40
7.0
 40
7.0
 40
7.0
 40
8.0
 40
8.0
 40
8.0
 40
9.0
 40
9.0
 40
9.0
 40
9.0
 10
74.0369873046875
 20
102.1100006103516
 10
74.0369873046875
 20
102.1100006103516
 10
69.74398803710938
 20
98.12899780273438
 10
69.74398803710938
 20
98.12899780273438
 10
69.74398803710938
 20
98.12899780273438
 10
55.36297607421875
 20
104.14599609375
 10
55.36297607421875
 20
104.14599609375
 10
55.36297607421875
 20
104.14599609375
 10
62.09396362304688
 20
110.1109924316406
 10
62.09396362304688
 20
110.1109924316406
 10
62.09396362304688
 20
110.1109924316406
 10
65.68695068359375
 20
109.0769958496094
 10
65.68695068359375
 20
109.0769958496094
 10
65.68695068359375
 20
109.0769958496094
 10
67.97894287109375
 20
106.7279968261719
 10
67.97894287109375
 20
106.7279968261719
 10
68.05892944335938
 20
106.64599609375
 10
68.158935546875
 20
106.5839996337891
 10
68.2679443359375
 20
106.5480041503906
 10
68.2679443359375
 20
106.5480041503906
 10
74.03695678710938
 20
104.6880035400391
 10
74.03695678710938
 20
104.6880035400391
 10
74.03695678710938
 20
104.6880035400391
 10
74.03695678710938
 20
102.1100006103516
 10
74.03695678710938
 20
102.1100006103516
 10
74.03695678710938
 20
102.1100006103516
 10
74.0369873046875
 20
102.1100006103516
 10
74.0369873046875
 20
102.1100006103516
 97
        0
 97
        0
 75
     2
 76
     1
 98
        0
  0
ENDSEC
  0
SECTION
  2
OBJECTS
  0
DICTIONARY
  5
C
330
0
100
AcDbDictionary
281
     1
  3
ACAD_GROUP
350
D
  3
ACAD_LAYOUT
350
1A
  3
ACAD_MATERIAL
350
3B
  3
ACAD_MLEADERSTYLE
350
70
  3
ACAD_MLINESTYLE
350
17
  3
ACAD_PLOTSETTINGS
350
19
  3
ACAD_PLOTSTYLENAME
350
E
  3
ACAD_TABLESTYLE
350
6F
  3
ACAD_VISUALSTYLE
350
2A
  0
SUN
  5
3F
330
29
100
AcDbSun
 90
        1
290
     0
 63
     7
421
 16777215
 40
1.0
291
     1
 91
  2455826
 92
 54000000
292
     0
 70
     2
 71
   256
280
     1
  0
DICTIONARY
  5
D
102
{ACAD_REACTORS
330
C
102
}
330
C
100
AcDbDictionary
281
     1
  0
DICTIONARY
  5
1A
102
{ACAD_REACTORS
330
C
102
}
330
C
100
AcDbDictionary
281
     1
  3
Layout1
350
1E
  3
Layout2
350
26
  3
Model
350
22
  0
DICTIONARY
  5
3B
102
{ACAD_REACTORS
330
C
102
}
330
C
100
AcDbDictionary
281
     1
  3
ByBlock
350
3D
  3
ByLayer
350
3C
  3
Global
350
3E
  0
DICTIONARY
  5
70
102
{ACAD_REACTORS
330
C
102
}
330
C
100
AcDbDictionary
281
     1
  0
DICTIONARY
  5
17
102
{ACAD_REACTORS
330
C
102
}
330
C
100
AcDbDictionary
281
     1
  3
Standard
350
18
  0
DICTIONARY
  5
19
102
{ACAD_REACTORS
330
C
102
}
330
C
100
AcDbDictionary
281
     1
  0
ACDBDICTIONARYWDFLT
  5
E
102
{ACAD_REACTORS
330
C
102
}
330
C
100
AcDbDictionary
281
     1
  3
Normal
350
F
100
AcDbDictionaryWithDefault
340
F
  0
DICTIONARY
  5
6F
102
{ACAD_REACTORS
330
C
102
}
330
C
100
AcDbDictionary
281
     1
  0
DICTIONARY
  5
2A
102
{ACAD_REACTORS
330
C
102
}
330
C
100
AcDbDictionary
281
     1
  3
2dWireframe
350
2F
  3
3D Hidden
350
31
  3
3dWireframe
350
30
  3
Basic
350
32
  3
Brighten
350
36
  3
ColorChange
350
3A
  3
Conceptual
350
34
  3
Dim
350
35
  3
Facepattern
350
39
  3
Flat
350
2B
  3
FlatWithEdges
350
2C
  3
Gouraud
350
2D
  3
GouraudWithEdges
350
2E
  3
Linepattern
350
38
  3
Realistic
350
33
  3
Thicken
350
37
  0
LAYOUT
  5
1E
102
{ACAD_REACTORS
330
1A
102
}
330
1A
100
AcDbPlotSettings
  1

  2
none_device
  4

  6

 40
0.0
 41
0.0
 42
0.0
 43
0.0
 44
0.0
 45
0.0
 46
0.0
 47
0.0
 48
0.0
 49
0.0
140
0.0
141
0.0
142
1.0
143
1.0
 70
   688
 72
     0
 73
     0
 74
     5
  7

 75
    16
 76
     0
 77
     2
 78
   300
147
1.0
148
0.0
149
0.0
100
AcDbLayout
  1
Layout1
 70
     1
 71
     1
 10
0.0
 20
0.0
 11
12.0
 21
9.0
 12
0.0
 22
0.0
 32
0.0
 14
1.000000000000000E+20
 24
1.000000000000000E+20
 34
1.000000000000000E+20
 15
-1.000000000000000E+20
 25
-1.000000000000000E+20
 35
-1.000000000000000E+20
146
0.0
 13
0.0
 23
0.0
 33
0.0
 16
1.0
 26
0.0
 36
0.0
 17
0.0
 27
1.0
 37
0.0
 76
     0
330
1B
  0
LAYOUT
  5
26
102
{ACAD_REACTORS
330
1A
102
}
330
1A
100
AcDbPlotSettings
  1

  2
none_device
  4

  6

 40
0.0
 41
0.0
 42
0.0
 43
0.0
 44
0.0
 45
0.0
 46
0.0
 47
0.0
 48
0.0
 49
0.0
140
0.0
141
0.0
142
1.0
143
1.0
 70
   688
 72
     0
 73
     0
 74
     5
  7

 75
    16
 76
     0
 77
     2
 78
   300
147
1.0
148
0.0
149
0.0
100
AcDbLayout
  1
Layout2
 70
     1
 71
     2
 10
0.0
 20
0.0
 11
0.0
 21
0.0
 12
0.0
 22
0.0
 32
0.0
 14
0.0
 24
0.0
 34
0.0
 15
0.0
 25
0.0
 35
0.0
146
0.0
 13
0.0
 23
0.0
 33
0.0
 16
1.0
 26
0.0
 36
0.0
 17
0.0
 27
1.0
 37
0.0
 76
     0
330
23
  0
LAYOUT
  5
22
102
{ACAD_REACTORS
330
1A
102
}
330
1A
100
AcDbPlotSettings
  1

  2
none_device
  4

  6

 40
0.0
 41
0.0
 42
0.0
 43
0.0
 44
0.0
 45
0.0
 46
0.0
 47
0.0
 48
0.0
 49
0.0
140
0.0
141
0.0
142
1.0
143
1.0
 70
  1712
 72
     0
 73
     0
 74
     0
  7

 75
     0
 76
     0
 77
     2
 78
   300
147
1.0
148
0.0
149
0.0
100
AcDbLayout
  1
Model
 70
     1
 71
     0
 10
0.0
 20
0.0
 11
12.0
 21
9.0
 12
0.0
 22
0.0
 32
0.0
 14
1.000000000000000E+20
 24
1.000000000000000E+20
 34
1.000000000000000E+20
 15
-1.000000000000000E+20
 25
-1.000000000000000E+20
 35
-1.000000000000000E+20
146
0.0
 13
0.0
 23
0.0
 33
0.0
 16
1.0
 26
0.0
 36
0.0
 17
0.0
 27
1.0
 37
0.0
 76
     0
330
1F
331
29
  0
MATERIAL
  5
3D
102
{ACAD_REACTORS
330
3B
102
}
330
3B
100
AcDbMaterial
  1
ByBlock
 72
     1
 94
      127
  0
MATERIAL
  5
3C
102
{ACAD_REACTORS
330
3B
102
}
330
3B
100
AcDbMaterial
  1
ByLayer
 72
     1
 94
      127
  0
MATERIAL
  5
3E
102
{ACAD_REACTORS
330
3B
102
}
330
3B
100
AcDbMaterial
  1
Global
 72
     1
 94
      127
  0
MLINESTYLE
  5
18
102
{ACAD_REACTORS
330
17
102
}
330
17
100
AcDbMlineStyle
  2
Standard
 70
     0
  3

 62
   256
 51
90.0
 52
90.0
 71
     2
 49
0.5
 62
   256
  6
BYLAYER
 49
-0.5
 62
   256
  6
BYLAYER
  0
ACDBPLACEHOLDER
  5
F
102
{ACAD_REACTORS
330
E
102
}
330
E
  0
VISUALSTYLE
  5
2F
102
{ACAD_REACTORS
330
2A
102
}
330
2A
100
AcDbVisualStyle
  2
2dWireframe
 70
     4
177
     2
291
     0
 71
     0
176
     1
 72
     2
176
     1
 73
     0
176
     1
 90
        0
176
     1
 40
-0.6
176
     1
 41
-30.0
176
     1
 62
     5
 63
     7
421
 16777215
176
     1
 74
     1
176
     1
 91
        4
176
     1
 64
     7
176
     1
 65
   257
176
     1
 75
     1
176
     1
175
     1
176
     1
 42
1.0
176
     1
 92
        0
176
     1
 66
   257
176
     1
 43
1.0
176
     1
 76
     1
176
     1
 77
     6
176
     1
 78
     2
176
     1
 67
     7
176
     1
 79
     5
176
     1
170
     0
176
     1
171
     0
176
     1
290
     0
176
     1
 93
        1
176
     1
 44
0.0
176
     1
173
     0
176
     1
  0
VISUALSTYLE
  5
31
102
{ACAD_REACTORS
330
2A
102
}
330
2A
100
AcDbVisualStyle
  2
3D Hidden
 70
     6
177
     2
291
     0
 71
     1
176
     1
 72
     2
176
     1
 73
     2
176
     1
 90
        0
176
     1
 40
-0.6
176
     1
 41
-30.0
176
     1
 62
     5
 63
     7
421
 16777215
176
     1
 74
     2
176
     1
 91
        2
176
     1
 64
     7
176
     1
 65
   257
176
     1
 75
     2
176
     1
175
     1
176
     1
 42
40.0
176
     1
 92
        0
176
     1
 66
   257
176
     1
 43
1.0
176
     1
 76
     1
176
     1
 77
     6
176
     1
 78
     2
176
     1
 67
     7
176
     1
 79
     3
176
     1
170
     0
176
     1
171
     0
176
     1
290
     0
176
     1
 93
        1
176
     1
 44
0.0
176
     1
173
     0
176
     1
  0
VISUALSTYLE
  5
30
102
{ACAD_REACTORS
330
2A
102
}
330
2A
100
AcDbVisualStyle
  2
3dWireframe
 70
     5
177
     2
291
     0
 71
     0
176
     1
 72
     2
176
     1
 73
     0
176
     1
 90
        0
176
     1
 40
-0.6
176
     1
 41
-30.0
176
     1
 62
     5
 63
     7
421
 16777215
176
     1
 74
     1
176
     1
 91
        4
176
     1
 64
     7
176
     1
 65
   257
176
     1
 75
     1
176
     1
175
     1
176
     1
 42
1.0
176
     1
 92
        0
176
     1
 66
   257
176
     1
 43
1.0
176
     1
 76
     1
176
     1
 77
     6
176
     1
 78
     2
176
     1
 67
     7
176
     1
 79
     5
176
     1
170
     0
176
     1
171
     0
176
     1
290
     0
176
     1
 93
        1
176
     1
 44
0.0
176
     1
173
     0
176
     1
  0
VISUALSTYLE
  5
32
102
{ACAD_REACTORS
330
2A
102
}
330
2A
100
AcDbVisualStyle
  2
Basic
 70
     7
177
     2
291
     1
 71
     1
176
     1
 72
     0
176
     1
 73
     1
176
     1
 90
        0
176
     1
 40
-0.6
176
     1
 41
-30.0
176
     1
 62
     5
 63
     7
421
 16777215
176
     1
 74
     0
176
     1
 91
        4
176
     1
 64
     7
176
     1
 65
   257
176
     1
 75
     1
176
     1
175
     1
176
     1
 42
1.0
176
     1
 92
        8
176
     1
 66
     7
176
     1
 43
1.0
176
     1
 76
     1
176
     1
 77
     6
176
     1
 78
     2
176
     1
 67
     7
176
     1
 79
     5
176
     1
170
     0
176
     1
171
     0
176
     1
290
     0
176
     1
 93
        1
176
     1
 44
0.0
176
     1
173
     0
176
     1
  0
VISUALSTYLE
  5
36
102
{ACAD_REACTORS
330
2A
102
}
330
2A
100
AcDbVisualStyle
  2
Brighten
 70
    12
177
     2
291
     1
 71
     2
176
     1
 72
     2
176
     1
 73
     0
176
     1
 90
        0
176
     1
 40
-0.6
176
     1
 41
-30.0
176
     1
 62
     5
 63
     7
421
 16777215
176
     1
 74
     1
176
     1
 91
        4
176
     1
 64
     7
176
     1
 65
   257
176
     1
 75
     1
176
     1
175
     1
176
     1
 42
1.0
176
     1
 92
        8
176
     1
 66
     7
176
     1
 43
1.0
176
     1
 76
     1
176
     1
 77
     6
176
     1
 78
     2
176
     1
 67
     7
176
     1
 79
     5
176
     1
170
     0
176
     1
171
     0
176
     1
290
     0
176
     1
 93
        1
176
     1
 44
50.0
176
     1
173
     0
176
     1
  0
VISUALSTYLE
  5
3A
102
{ACAD_REACTORS
330
2A
102
}
330
2A
100
AcDbVisualStyle
  2
ColorChange
 70
    16
177
     2
291
     1
 71
     2
176
     1
 72
     2
176
     1
 73
     3
176
     1
 90
        0
176
     1
 40
-0.6
176
     1
 41
-30.0
176
     1
 62
     5
 63
     8
421
  8421504
176
     1
 74
     1
176
     1
 91
        4
176
     1
 64
     7
176
     1
 65
   257
176
     1
 75
     1
176
     1
175
     1
176
     1
 42
1.0
176
     1
 92
        8
176
     1
 66
     8
424
  8421504
176
     1
 43
1.0
176
     1
 76
     1
176
     1
 77
     6
176
     1
 78
     2
176
     1
 67
     7
176
     1
 79
     5
176
     1
170
     0
176
     1
171
     0
176
     1
290
     0
176
     1
 93
        1
176
     1
 44
0.0
176
     1
173
     0
176
     1
  0
VISUALSTYLE
  5
34
102
{ACAD_REACTORS
330
2A
102
}
330
2A
100
AcDbVisualStyle
  2
Conceptual
 70
     9
177
     2
291
     0
 71
     3
176
     1
 72
     2
176
     1
 73
     0
176
     1
 90
        0
176
     1
 40
-0.6
176
     1
 41
-30.0
176
     1
 62
     5
 63
     7
421
 16777215
176
     1
 74
     2
176
     1
 91
        2
176
     1
 64
     7
176
     1
 65
   257
176
     1
 75
     1
176
     1
175
     1
176
     1
 42
40.0
176
     1
 92
        8
176
     1
 66
     7
176
     1
 43
1.0
176
     1
 76
     1
176
     1
 77
     6
176
     1
 78
     2
176
     1
 67
     7
176
     1
 79
     3
176
     1
170
     0
176
     1
171
     0
176
     1
290
     0
176
     1
 93
        1
176
     1
 44
0.0
176
     1
173
     0
176
     1
  0
VISUALSTYLE
  5
35
102
{ACAD_REACTORS
330
2A
102
}
330
2A
100
AcDbVisualStyle
  2
Dim
 70
    11
177
     2
291
     1
 71
     2
176
     1
 72
     2
176
     1
 73
     0
176
     1
 90
        0
176
     1
 40
-0.6
176
     1
 41
-30.0
176
     1
 62
     5
 63
     7
421
 16777215
176
     1
 74
     1
176
     1
 91
        4
176
     1
 64
     7
176
     1
 65
   257
176
     1
 75
     1
176
     1
175
     1
176
     1
 42
1.0
176
     1
 92
        8
176
     1
 66
     7
176
     1
 43
1.0
176
     1
 76
     1
176
     1
 77
     6
176
     1
 78
     2
176
     1
 67
     7
176
     1
 79
     5
176
     1
170
     0
176
     1
171
     0
176
     1
290
     0
176
     1
 93
        1
176
     1
 44
-50.0
176
     1
173
     0
176
     1
  0
VISUALSTYLE
  5
39
102
{ACAD_REACTORS
330
2A
102
}
330
2A
100
AcDbVisualStyle
  2
Facepattern
 70
    15
177
     2
291
     1
 71
     2
176
     1
 72
     2
176
     1
 73
     0
176
     1
 90
        0
176
     1
 40
-0.6
176
     1
 41
-30.0
176
     1
 62
     5
 63
     7
421
 16777215
176
     1
 74
     1
176
     1
 91
        4
176
     1
 64
     7
176
     1
 65
   257
176
     1
 75
     1
176
     1
175
     1
176
     1
 42
1.0
176
     1
 92
        8
176
     1
 66
     7
176
     1
 43
1.0
176
     1
 76
     1
176
     1
 77
     6
176
     1
 78
     2
176
     1
 67
     7
176
     1
 79
     5
176
     1
170
     0
176
     1
171
     0
176
     1
290
     0
176
     1
 93
        1
176
     1
 44
0.0
176
     1
173
     0
176
     1
  0
VISUALSTYLE
  5
2B
102
{ACAD_REACTORS
330
2A
102
}
330
2A
100
AcDbVisualStyle
  2
Flat
 70
     0
177
     2
291
     1
 71
     2
176
     1
 72
     1
176
     1
 73
     1
176
     1
 90
        2
176
     1
 40
-0.6
176
     1
 41
30.0
176
     1
 62
     5
 63
     7
421
 16777215
176
     1
 74
     0
176
     1
 91
        4
176
     1
 64
     7
176
     1
 65
   257
176
     1
 75
     1
176
     1
175
     1
176
     1
 42
1.0
176
     1
 92
        8
176
     1
 66
     7
176
     1
 43
1.0
176
     1
 76
     1
176
     1
 77
     6
176
     1
 78
     2
176
     1
 67
     7
176
     1
 79
     5
176
     1
170
     0
176
     1
171
     0
176
     1
290
     0
176
     1
 93
       13
176
     1
 44
0.0
176
     1
173
     0
176
     1
  0
VISUALSTYLE
  5
2C
102
{ACAD_REACTORS
330
2A
102
}
330
2A
100
AcDbVisualStyle
  2
FlatWithEdges
 70
     1
177
     2
291
     1
 71
     2
176
     1
 72
     1
176
     1
 73
     1
176
     1
 90
        2
176
     1
 40
-0.6
176
     1
 41
30.0
176
     1
 62
     5
 63
     7
421
 16777215
176
     1
 74
     1
176
     1
 91
        4
176
     1
 64
     7
176
     1
 65
   257
176
     1
 75
     1
176
     1
175
     1
176
     1
 42
1.0
176
     1
 92
        0
176
     1
 66
   257
176
     1
 43
1.0
176
     1
 76
     1
176
     1
 77
     6
176
     1
 78
     2
176
     1
 67
     7
176
     1
 79
     5
176
     1
170
     0
176
     1
171
     0
176
     1
290
     0
176
     1
 93
       13
176
     1
 44
0.0
176
     1
173
     0
176
     1
  0
VISUALSTYLE
  5
2D
102
{ACAD_REACTORS
330
2A
102
}
330
2A
100
AcDbVisualStyle
  2
Gouraud
 70
     2
177
     2
291
     1
 71
     2
176
     1
 72
     2
176
     1
 73
     1
176
     1
 90
        2
176
     1
 40
-0.6
176
     1
 41
30.0
176
     1
 62
     5
 63
     7
421
 16777215
176
     1
 74
     0
176
     1
 91
        4
176
     1
 64
     7
176
     1
 65
   257
176
     1
 75
     1
176
     1
175
     1
176
     1
 42
1.0
176
     1
 92
        0
176
     1
 66
     7
176
     1
 43
1.0
176
     1
 76
     1
176
     1
 77
     6
176
     1
 78
     2
176
     1
 67
     7
176
     1
 79
     5
176
     1
170
     0
176
     1
171
     0
176
     1
290
     0
176
     1
 93
       13
176
     1
 44
0.0
176
     1
173
     0
176
     1
  0
VISUALSTYLE
  5
2E
102
{ACAD_REACTORS
330
2A
102
}
330
2A
100
AcDbVisualStyle
  2
GouraudWithEdges
 70
     3
177
     2
291
     1
 71
     2
176
     1
 72
     2
176
     1
 73
     1
176
     1
 90
        2
176
     1
 40
-0.6
176
     1
 41
30.0
176
     1
 62
     5
 63
     7
421
 16777215
176
     1
 74
     1
176
     1
 91
        4
176
     1
 64
     7
176
     1
 65
   257
176
     1
 75
     1
176
     1
175
     1
176
     1
 42
1.0
176
     1
 92
        0
176
     1
 66
   257
176
     1
 43
1.0
176
     1
 76
     1
176
     1
 77
     6
176
     1
 78
     2
176
     1
 67
     7
176
     1
 79
     5
176
     1
170
     0
176
     1
171
     0
176
     1
290
     0
176
     1
 93
       13
176
     1
 44
0.0
176
     1
173
     0
176
     1
  0
VISUALSTYLE
  5
38
102
{ACAD_REACTORS
330
2A
102
}
330
2A
100
AcDbVisualStyle
  2
Linepattern
 70
    14
177
     2
291
     1
 71
     2
176
     1
 72
     2
176
     1
 73
     0
176
     1
 90
        0
176
     1
 40
-0.6
176
     1
 41
-30.0
176
     1
 62
     5
 63
     7
421
 16777215
176
     1
 74
     1
176
     1
 91
        4
176
     1
 64
     7
176
     1
 65
   257
176
     1
 75
     7
176
     1
175
     7
176
     1
 42
1.0
176
     1
 92
        8
176
     1
 66
     7
176
     1
 43
1.0
176
     1
 76
     1
176
     1
 77
     6
176
     1
 78
     2
176
     1
 67
     7
176
     1
 79
     5
176
     1
170
     0
176
     1
171
     0
176
     1
290
     0
176
     1
 93
        1
176
     1
 44
0.0
176
     1
173
     0
176
     1
  0
VISUALSTYLE
  5
33
102
{ACAD_REACTORS
330
2A
102
}
330
2A
100
AcDbVisualStyle
  2
Realistic
 70
     8
177
     2
291
     0
 71
     2
176
     1
 72
     2
176
     1
 73
     0
176
     1
 90
        0
176
     1
 40
-0.6
176
     1
 41
-30.0
176
     1
 62
     5
 63
     7
421
 16777215
176
     1
 74
     1
176
     1
 91
        0
176
     1
 64
     7
176
     1
 65
   257
176
     1
 75
     1
176
     1
175
     1
176
     1
 42
1.0
176
     1
 92
        8
176
     1
 66
     8
424
  7895160
176
     1
 43
1.0
176
     1
 76
     1
176
     1
 77
     6
176
     1
 78
     2
176
     1
 67
     7
176
     1
 79
     5
176
     1
170
     0
176
     1
171
     0
176
     1
290
     0
176
     1
 93
       13
176
     1
 44
0.0
176
     1
173
     0
176
     1
  0
VISUALSTYLE
  5
37
102
{ACAD_REACTORS
330
2A
102
}
330
2A
100
AcDbVisualStyle
  2
Thicken
 70
    13
177
     2
291
     1
 71
     2
176
     1
 72
     2
176
     1
 73
     0
176
     1
 90
        0
176
     1
 40
-0.6
176
     1
 41
-30.0
176
     1
 62
     5
 63
     7
421
 16777215
176
     1
 74
     1
176
     1
 91
        4
176
     1
 64
     7
176
     1
 65
   257
176
     1
 75
     1
176
     1
175
     1
176
     1
 42
1.0
176
     1
 92
       12
176
     1
 66
     7
176
     1
 43
1.0
176
     1
 76
     1
176
     1
 77
     6
176
     1
 78
     2
176
     1
 67
     7
176
     1
 79
     5
176
     1
170
     0
176
     1
171
     0
176
     1
290
     0
176
     1
 93
        1
176
     1
 44
0.0
176
     1
173
     0
176
     1
  0
ENDSEC
  0
EOF
