<?xml version="1.0" encoding="utf-8"?>
<!-- Generator: Adobe Illustrator 19.2.1, SVG Export Plug-In . SVG Version: 6.00 Build 0)  -->
<svg version="1.1" id="Layer_1" xmlns="http://www.w3.org/2000/svg" xmlns:xlink="http://www.w3.org/1999/xlink" x="0px" y="0px"
	 viewBox="0 0 100 125" style="enable-background:new 0 0 100 125;" xml:space="preserve">
<path d="M75,19.1l-6.1-2l-2.3-2.4c-0.1-0.1-0.2-0.2-0.3-0.2l-3.9-1.1l-4.2-6.7c0,0,0,0,0,0c0,0,0,0-0.1-0.1c0,0-0.1-0.1-0.1-0.1
	c0,0,0,0,0,0c0,0,0,0,0,0c-0.1,0-0.2-0.1-0.2-0.1c0,0,0,0,0,0c-0.1,0-0.1,0-0.2,0c0,0,0,0,0,0c0,0-0.1,0-0.1,0c-0.1,0-0.1,0-0.2,0.1
	c0,0,0,0-0.1,0C57.1,6.7,57,6.7,57,6.8c0,0,0,0,0,0C52.3,15.1,46.7,24.8,45.5,27l-15.2,0.7l-15.7-1.1c0,0,0,0,0,0l0,0c0,0,0,0-0.1,0
	c-0.1,0-0.1,0-0.2,0c0,0,0,0,0,0c0,0,0,0,0,0c-0.2-0.1-0.3-0.1-0.5,0L6.9,29c-0.3,0.1-0.5,0.4-0.5,0.7l0.1,3c0,0.2,0.1,0.4,0.3,0.6
	l2.9,2l1.4,9c0,0,0,0.1,0,0.1c0,0,0,0,0,0c0,0,0,0,0,0c0,0,0,0,0,0c0,0,0,0,0,0c0,0,0,0,0,0v0l0,0v0c0,0,0,0,0,0v0l0,0v0
	c0,0,0,0,0,0l5.4,13.5c0,0,0,0,0,0c0,0,0,0,0,0c0,0,0,0.1,0.1,0.1c0,0,0,0,0,0.1c0,0,0.1,0.1,0.1,0.1c0,0,0,0,0,0
	c0.1,0.1,0.2,0.1,0.4,0.1h7.3c0.3,0,0.6-0.2,0.7-0.5c0.1-0.3,0-0.6-0.3-0.8l-3.6-2.7l7.3-6.5l20.5,0.7c0.3,1.3,1.4,5.4,1.6,6
	c0,0.1,0.1,0.2,0.1,0.3l2.5,3.2c0,0,0,0,0,0c0,0,0.1,0.1,0.1,0.1c0,0,0,0,0.1,0.1c0,0,0,0,0.1,0c0,0,0,0,0,0c0,0,0,0,0,0
	c0.1,0,0.2,0,0.2,0l0,0c0,0,0,0,0,0h5.7c0.3,0,0.6-0.2,0.7-0.5s0-0.6-0.2-0.8L57,54.3l1.6-2.5c0-0.1,0.1-0.1,0.1-0.2l0.8-4l4.5-4.8
	l0,0l2.7-2.7c0.1-0.1,0.2-0.3,0.2-0.4l0.6-8c0-0.1,0-0.3-0.1-0.4l-1.4-2.6l3.8-0.2c0,0,0,0,0,0c0.1,0,0.1,0,0.2,0c0,0,0,0,0.1,0
	c0,0,0.1,0,0.1-0.1c0,0,0,0,0,0l4.9-4.5c0.1-0.1,0.2-0.3,0.2-0.5v-3.4C75.5,19.5,75.3,19.2,75,19.1z M57.9,27.7l-2.4-5.2l11.3,4.7
	L57.9,27.7z M61,14l-5.7,5l2.6-10.1L61,14z M58.5,46.6c-0.1,0.1-0.2,0.2-0.3,0.3l-0.3,0.3l-11-14.8c-0.1-1.1-0.2-2.3-0.2-3.2
	l15.8,13.2L58.5,46.6z M7.9,30.2l5.3-1.8l-3,5.5L8,32.3L7.9,30.2z M11.2,34.9L15,28l13.3,1L12.4,42.8L11.2,34.9z M29.5,29.8
	l-1.6,17.1l-8,7c0,0,0,0,0,0c0,0,0,0,0,0l-2.2,2.4l-4.8-12L29.5,29.8z M19,56.9l1.4-1.5l2.1,1.5H19z M31,29.1l14.3-0.6
	c0,0.7,0.1,2,0.3,4.3c0,0.1,0.1,0.3,0.1,0.4l10.8,14.4l-27.1-1L31,29.1z M57.9,56.9h-2.5l0.9-1.4L57.9,56.9z M54,56.4l-1.8-2.3
	c-0.5-1.8-1.2-4.2-1.4-5.4l7,0.3l-0.5,2.1L54,56.4z M64.6,28.7l1.6,3l-0.6,7.5l-2.1,2.1L46.9,27.5c1.1-2,5.5-9.7,8.7-15.4l-2.2,8.8
	c0,0.1,0,0.2,0,0.3c0,0,0,0,0,0c0,0,0,0,0,0c0,0,0,0.1,0,0.1l3.4,7.3c0.1,0.3,0.4,0.4,0.6,0.4c0,0,0,0,0,0L64.6,28.7
	C64.6,28.7,64.6,28.7,64.6,28.7z M74,22.9l-4.3,4l-14.4-6l6.7-6l3.6,1l2.3,2.3c0.1,0.1,0.2,0.1,0.3,0.2l5.8,1.9L74,22.9L74,22.9z"/>
</svg>
