<?xml version="1.0" encoding="utf-8"?>
<!-- Generator: Adobe Illustrator 19.2.1, SVG Export Plug-In . SVG Version: 6.00 Build 0)  -->
<svg version="1.1" id="Layer_1" xmlns="http://www.w3.org/2000/svg" xmlns:xlink="http://www.w3.org/1999/xlink" x="0px" y="0px"
	 viewBox="0 0 100 125" style="enable-background:new 0 0 100 125;" xml:space="preserve">
<path d="M89,68.2l-7.6-13.4c0,0,0,0,0,0c-0.1-0.1-0.2-0.2-0.4-0.3c0,0,0,0-0.1,0l-34-8.3c-0.5-0.1-0.8-0.5-0.9-1l-2.5-15.2
	c-0.1-0.8,0.5-1.4,1.2-1.4h3.8c0.2,0,0.4-0.1,0.6-0.3c0.1-0.2,0.2-0.4,0.1-0.6c-1.5-6.3-3.7-15.9-3.8-16.4c0-0.4-0.3-0.7-0.7-0.7
	c-0.4,0-0.5,0-0.8,0.7h0c0,0,0,0,0,0c-0.2,0.6-0.3,1.7-0.7,3.6c0,0,0,0,0,0c-0.2,1.1-1.7,1.4-2.3,0.4c-1-1.6-1.5-2.5-1.9-3.1
	c0,0,0-0.1,0-0.1l0,0c-0.5-0.6-0.7-0.6-0.9-0.4c-0.3,0.1-0.5,0.5-0.4,0.8c0.1,0.5,0,6.3,0,10.7c0,0.6-0.5,1.2-1.1,1.2l-11.9,0.9
	c-1.1,0.1-1.9,1-1.8,2.1l0.3,4.3c0.1,1,0.8,1.7,1.7,1.8l2.9,0.3c0.8,0.1,1.3,0.9,1,1.7l-8.2,19.7c-0.1,0.1-0.1,0.2-0.1,0.2
	c0,0,0,0,0,0c0,0,0,0,0,0c0,0.2,0.1,0.3,0.2,0.4c0,0,0,0.1,0.1,0.1c0,0,0,0,0,0c0.5,0.5,6.5,7.7,10.8,12.9c0.3,0.3,0.3,0.7,0.2,1.1
	l-1.9,7.1c-0.1,0.4-0.1,0.8,0.1,1.2l8.8,22.3c0.1,0.3,0.4,0.4,0.7,0.4c0,0,0.1,0,0.1,0c0.3-0.1,0.6-0.4,0.6-0.7c0,0,0-8.9,0-19.5
	c0-0.6,0.4-1.1,1-1.2l26-4.2c0.6-0.1,1.2,0.3,1.4,0.9l1.7,6.3c0.1,0.3,0.3,0.5,0.4,0.8l15.9,18.1c0.1,0.2,0.3,0.2,0.5,0.2
	c0.1,0,0.2,0,0.4-0.1c0.3-0.2,0.4-0.5,0.3-0.9l-8.5-22.8c-0.2-0.5,0-1,0.4-1.4l9.1-7.7C89.1,68.8,89.2,68.5,89,68.2z M46.2,20.8
	c0.3,1.4,0.7,3,1.1,4.7c0.2,0.8-0.4,1.5-1.2,1.5h-1.7c-0.7,0-1.2-0.6-1.2-1.2v-1c0-0.1,0-0.1,0-0.2c0.1-0.4,0.2-1.4,0.5-2.8
	c0-0.3,0.1-0.6,0.2-0.9C44,19.5,45.9,19.5,46.2,20.8z M41.6,18.8c0.2,0.4,0.5,0.8,0.7,1.1c0.1,0.3,0.2,0.5,0.1,0.8
	c0,0.3-0.1,0.5-0.1,0.8c-0.1,0.5-0.2,1-0.2,1.5c-0.1,0.6-0.6,1-1.1,1l-0.3,0c-0.7,0.1-1.3-0.5-1.3-1.3c0-1.3,0-2.4,0-3.4
	C39.3,18.2,40.9,17.8,41.6,18.8z M25.6,26.6l14.8-1.1c0.7-0.1,1.3,0.5,1.3,1.2V27c0,0.3-0.1,0.6-0.4,0.9l-4.8,4.9
	c-0.3,0.3-0.6,0.4-1,0.4l-9.8-1c-0.6-0.1-1.1-0.6-1.1-1.2l-0.2-3C24.4,27.3,24.9,26.7,25.6,26.6z M36.4,34.6
	C36.4,34.6,36.4,34.6,36.4,34.6c0.3,0,0.4-0.1,0.6-0.2l3.3-3.4c0.7-0.7,1.9-0.3,2.1,0.7l2,12.1c0.1,0.9-0.7,1.6-1.5,1.4l-3-0.7
	c-0.1-0.1-0.2-0.1-0.4-0.1c0,0,0,0-0.1,0c0,0,0,0-0.1,0c-0.1,0-0.1,0-0.2,0.1c0,0,0,0,0,0c-6.1,3.4-10.2,5.7-12.9,7.2
	c-1,0.6-2.2-0.5-1.8-1.5l6.3-15.2c0.2-0.5,0.7-0.8,1.3-0.8L36.4,34.6z M23.7,54.8c2.6-1.6,7.6-4.4,12.1-6.9c1-0.5,2.1,0.3,1.8,1.4
	l-4.3,16.1c-0.3,1-1.5,1.2-2.2,0.5c-3.6-4.4-6.2-7.5-7.7-9.2C22.9,56,23,55.2,23.7,54.8z M36.5,90.7l-5-12.6c-0.1-0.2-0.1-0.5,0-0.8
	l4.9-18.4c0.4-1.4,2.4-1.1,2.4,0.3c0,9.3,0,21.4,0,31C38.9,91.6,37,92,36.5,90.7z M40.3,72.7c0-6.9,0-13.9,0-19c0-1.1,0-2,0-2.8
	c1.7,6.1,4.5,15.9,7.1,25c0.2,0.7-0.3,1.4-1,1.6l-4.6,0.7c-0.8,0.1-1.4-0.5-1.4-1.2C40.3,75.6,40.3,74.1,40.3,72.7z M48.8,76
	c-2.8-9.6-6.3-22.2-7.9-27.9c-0.2-0.9,0.6-1.7,1.5-1.5l34.5,8.4c1,0.2,1.3,1.5,0.5,2.1l-10.9,9.4c0,0,0,0-0.1,0.1
	c0,0-0.1,0.1-0.1,0.1c0,0,0,0.1,0,0.1c0,0.1,0,0.1,0,0.2c0,0,0,0,0,0c0,0,0,0.1,0,0.1c0,0,0,0.1,0,0.1l1.5,5.5
	c0.2,0.7-0.3,1.4-1,1.5l-16.5,2.6C49.6,76.9,49,76.6,48.8,76z M71.7,82.2L69.3,73c-0.3-1.2,1.1-2.1,2-1.2l6.1,5.5
	c0.1,0.1,0.3,0.3,0.3,0.5l5.1,13.7c0.5,1.3-1.2,2.3-2.1,1.2L72,82.7C71.8,82.5,71.7,82.4,71.7,82.2z M77.5,75.4l-8.4-7.5
	c-0.6-0.5-0.5-1.4,0-1.9l10.3-8.9c0.6-0.5,1.5-0.3,1.9,0.3l5.7,10c0.3,0.5,0.2,1.2-0.3,1.6l-7.6,6.4C78.6,75.8,77.9,75.8,77.5,75.4z
	"/>
</svg>
