  0
SECTION
  2
HEADER
  9
$ACADVER
  1
AC1024
  9
$ACADMAINTVER
 70
     6
  9
$DWGCODEPAGE
  3
UNDEFINED
  9
$INSBASE
 10
0.0
 20
0.0
 30
0.0
  9
$EXTMIN
 10
1.000000000000000E+20
 20
1.000000000000000E+20
 30
1.000000000000000E+20
  9
$EXTMAX
 10
-1.000000000000000E+20
 20
-1.000000000000000E+20
 30
-1.000000000000000E+20
  9
$LIMMIN
 10
0.0
 20
0.0
  9
$LIMMAX
 10
12.0
 20
9.0
  9
$ORTHOMODE
 70
     0
  9
$REGENMODE
 70
     1
  9
$FILLMODE
 70
     1
  9
$QTEXTMODE
 70
     0
  9
$MIRRTEXT
 70
     1
  9
$LTSCALE
 40
1.0
  9
$ATTMODE
 70
     1
  9
$TEXTSIZE
 40
0.2
  9
$TRACEWID
 40
0.05
  9
$TEXTSTYLE
  7
Standard
  9
$CLAYER
  8
0
  9
$CELTYPE
  6
ByLayer
  9
$CECOLOR
 62
   256
  9
$CELTSCALE
 40
1.0
  9
$DISPSILH
 70
     0
  9
$DIMSCALE
 40
1.0
  9
$DIMASZ
 40
0.18
  9
$DIMEXO
 40
0.0625
  9
$DIMDLI
 40
0.38
  9
$DIMRND
 40
0.0
  9
$DIMDLE
 40
0.0
  9
$DIMEXE
 40
0.18
  9
$DIMTP
 40
0.0
  9
$DIMTM
 40
0.0
  9
$DIMTXT
 40
0.18
  9
$DIMCEN
 40
0.09
  9
$DIMTSZ
 40
0.0
  9
$DIMTOL
 70
     0
  9
$DIMLIM
 70
     0
  9
$DIMTIH
 70
     1
  9
$DIMTOH
 70
     1
  9
$DIMSE1
 70
     0
  9
$DIMSE2
 70
     0
  9
$DIMTAD
 70
     0
  9
$DIMZIN
 70
     0
  9
$DIMBLK
  1

  9
$DIMASO
 70
     1
  9
$DIMSHO
 70
     1
  9
$DIMPOST
  1

  9
$DIMAPOST
  1

  9
$DIMALT
 70
     0
  9
$DIMALTD
 70
     2
  9
$DIMALTF
 40
25.4
  9
$DIMLFAC
 40
1.0
  9
$DIMTOFL
 70
     0
  9
$DIMTVP
 40
0.0
  9
$DIMTIX
 70
     0
  9
$DIMSOXD
 70
     0
  9
$DIMSAH
 70
     0
  9
$DIMBLK1
  1

  9
$DIMBLK2
  1

  9
$DIMSTYLE
  2
Standard
  9
$DIMCLRD
 70
     0
  9
$DIMCLRE
 70
     0
  9
$DIMCLRT
 70
     0
  9
$DIMTFAC
 40
1.0
  9
$DIMGAP
 40
0.09
  9
$DIMJUST
 70
     0
  9
$DIMSD1
 70
     0
  9
$DIMSD2
 70
     0
  9
$DIMTOLJ
 70
     1
  9
$DIMTZIN
 70
     0
  9
$DIMALTZ
 70
     0
  9
$DIMALTTZ
 70
     0
  9
$DIMUPT
 70
     0
  9
$DIMDEC
 70
     4
  9
$DIMTDEC
 70
     4
  9
$DIMALTU
 70
     2
  9
$DIMALTTD
 70
     2
  9
$DIMTXSTY
  7
Standard
  9
$DIMAUNIT
 70
     0
  9
$DIMADEC
 70
     0
  9
$DIMALTRND
 40
0.0
  9
$DIMAZIN
 70
     0
  9
$DIMDSEP
 70
    46
  9
$DIMATFIT
 70
     3
  9
$DIMFRAC
 70
     0
  9
$DIMLDRBLK
  1

  9
$DIMLUNIT
 70
     2
  9
$DIMLWD
 70
    -2
  9
$DIMLWE
 70
    -2
  9
$DIMTMOVE
 70
     0
  9
$DIMFXL
 40
1.0
  9
$DIMFXLON
 70
     0
  9
$DIMJOGANG
 40
0.7853981633974483
  9
$DIMTFILL
 70
     0
  9
$DIMTFILLCLR
 70
     0
  9
$DIMARCSYM
 70
     0
  9
$DIMLTYPE
  6

  9
$DIMLTEX1
  6

  9
$DIMLTEX2
  6

  9
$DIMTXTDIRECTION
 70
     0
  9
$LUNITS
 70
     2
  9
$LUPREC
 70
     4
  9
$SKETCHINC
 40
0.1
  9
$FILLETRAD
 40
0.5
  9
$AUNITS
 70
     0
  9
$AUPREC
 70
     0
  9
$MENU
  1
.
  9
$ELEVATION
 40
0.0
  9
$PELEVATION
 40
0.0
  9
$THICKNESS
 40
0.0
  9
$LIMCHECK
 70
     0
  9
$CHAMFERA
 40
0.5
  9
$CHAMFERB
 40
0.5
  9
$CHAMFERC
 40
1.0
  9
$CHAMFERD
 40
0.0
  9
$SKPOLY
 70
     0
  9
$TDCREATE
 40
2457525.597071748
  9
$TDUCREATE
 40
2457525.805405092
  9
$TDUPDATE
 40
2457525.597071748
  9
$TDUUPDATE
 40
2457525.805405092
  9
$TDINDWG
 40
0.0000000116
  9
$TDUSRTIMER
 40
0.0000000116
  9
$USRTIMER
 70
     1
  9
$ANGBASE
 50
0.0
  9
$ANGDIR
 70
     0
  9
$PDMODE
 70
     0
  9
$PDSIZE
 40
0.0
  9
$PLINEWID
 40
0.0
  9
$SPLFRAME
 70
     0
  9
$SPLINETYPE
 70
     6
  9
$SPLINESEGS
 70
     8
  9
$HANDSEED
  5
4F
  9
$SURFTAB1
 70
     6
  9
$SURFTAB2
 70
     6
  9
$SURFTYPE
 70
     6
  9
$SURFU
 70
     6
  9
$SURFV
 70
     6
  9
$UCSBASE
  2

  9
$UCSNAME
  2

  9
$UCSORG
 10
0.0
 20
0.0
 30
0.0
  9
$UCSXDIR
 10
1.0
 20
0.0
 30
0.0
  9
$UCSYDIR
 10
0.0
 20
1.0
 30
0.0
  9
$UCSORTHOREF
  2

  9
$UCSORTHOVIEW
 70
     0
  9
$UCSORGTOP
 10
0.0
 20
0.0
 30
0.0
  9
$UCSORGBOTTOM
 10
0.0
 20
0.0
 30
0.0
  9
$UCSORGLEFT
 10
0.0
 20
0.0
 30
0.0
  9
$UCSORGRIGHT
 10
0.0
 20
0.0
 30
0.0
  9
$UCSORGFRONT
 10
0.0
 20
0.0
 30
0.0
  9
$UCSORGBACK
 10
0.0
 20
0.0
 30
0.0
  9
$PUCSBASE
  2

  9
$PUCSNAME
  2

  9
$PUCSORG
 10
0.0
 20
0.0
 30
0.0
  9
$PUCSXDIR
 10
1.0
 20
0.0
 30
0.0
  9
$PUCSYDIR
 10
0.0
 20
1.0
 30
0.0
  9
$PUCSORTHOREF
  2

  9
$PUCSORTHOVIEW
 70
     0
  9
$PUCSORGTOP
 10
0.0
 20
0.0
 30
0.0
  9
$PUCSORGBOTTOM
 10
0.0
 20
0.0
 30
0.0
  9
$PUCSORGLEFT
 10
0.0
 20
0.0
 30
0.0
  9
$PUCSORGRIGHT
 10
0.0
 20
0.0
 30
0.0
  9
$PUCSORGFRONT
 10
0.0
 20
0.0
 30
0.0
  9
$PUCSORGBACK
 10
0.0
 20
0.0
 30
0.0
  9
$USERI1
 70
     0
  9
$USERI2
 70
     0
  9
$USERI3
 70
     0
  9
$USERI4
 70
     0
  9
$USERI5
 70
     0
  9
$USERR1
 40
0.0
  9
$USERR2
 40
0.0
  9
$USERR3
 40
0.0
  9
$USERR4
 40
0.0
  9
$USERR5
 40
0.0
  9
$WORLDVIEW
 70
     1
  9
$SHADEDGE
 70
     3
  9
$SHADEDIF
 70
    70
  9
$TILEMODE
 70
     1
  9
$MAXACTVP
 70
    64
  9
$PINSBASE
 10
0.0
 20
0.0
 30
0.0
  9
$PLIMCHECK
 70
     0
  9
$PEXTMIN
 10
1.000000000000000E+20
 20
1.000000000000000E+20
 30
1.000000000000000E+20
  9
$PEXTMAX
 10
-1.000000000000000E+20
 20
-1.000000000000000E+20
 30
-1.000000000000000E+20
  9
$PLIMMIN
 10
0.0
 20
0.0
  9
$PLIMMAX
 10
12.0
 20
9.0
  9
$UNITMODE
 70
     0
  9
$VISRETAIN
 70
     1
  9
$PLINEGEN
 70
     0
  9
$PSLTSCALE
 70
     1
  9
$TREEDEPTH
 70
  3020
  9
$CMLSTYLE
  2
Standard
  9
$CMLJUST
 70
     0
  9
$CMLSCALE
 40
1.0
  9
$PROXYGRAPHICS
 70
     1
  9
$MEASUREMENT
 70
     0
  9
$CELWEIGHT
370
    -1
  9
$ENDCAPS
280
     0
  9
$JOINSTYLE
280
     0
  9
$LWDISPLAY
290
     1
  9
$INSUNITS
 70
     1
  9
$HYPERLINKBASE
  1

  9
$STYLESHEET
  1

  9
$XEDIT
290
     1
  9
$CEPSNTYPE
380
     0
  9
$PSTYLEMODE
290
     1
  9
$FINGERPRINTGUID
  2
{AE0BE7E1-AA3D-5A2E-D7D2-DA7A958E3C3F}
  9
$VERSIONGUID
  2
{FAEB1C32-E019-11D5-929B-00C0DF256EC4}
  9
$EXTNAMES
290
     1
  9
$PSVPSCALE
 40
0.0
  9
$OLESTARTUP
290
     0
  9
$SORTENTS
280
   127
  9
$INDEXCTL
280
     0
  9
$HIDETEXT
280
     1
  9
$XCLIPFRAME
280
     2
  9
$HALOGAP
280
     0
  9
$OBSCOLOR
 70
   257
  9
$OBSLTYPE
280
     0
  9
$INTERSECTIONDISPLAY
280
     0
  9
$INTERSECTIONCOLOR
 70
   257
  9
$DIMASSOC
280
     2
  9
$PROJECTNAME
  1

  9
$CAMERADISPLAY
290
     0
  9
$LENSLENGTH
 40
50.0
  9
$CAMERAHEIGHT
 40
0.0
  9
$STEPSPERSEC
 40
2.0
  9
$STEPSIZE
 40
6.0
  9
$3DDWFPREC
 40
2.0
  9
$PSOLWIDTH
 40
0.25
  9
$PSOLHEIGHT
 40
4.0
  9
$LOFTANG1
 40
1.570796326794897
  9
$LOFTANG2
 40
1.570796326794897
  9
$LOFTMAG1
 40
0.0
  9
$LOFTMAG2
 40
0.0
  9
$LOFTPARAM
 70
     7
  9
$LOFTNORMALS
280
     1
  9
$LATITUDE
 40
37.795
  9
$LONGITUDE
 40
-122.394
  9
$NORTHDIRECTION
 40
0.0
  9
$TIMEZONE
 70
 -8000
  9
$LIGHTGLYPHDISPLAY
280
     1
  9
$TILEMODELIGHTSYNCH
280
     1
  9
$CMATERIAL
347
3C
  9
$SOLIDHIST
280
     1
  9
$SHOWHIST
280
     1
  9
$DWFFRAME
280
     2
  9
$DGNFRAME
280
     2
  9
$REALWORLDSCALE
290
     1
  9
$INTERFERECOLOR
 62
   256
  9
$CSHADOW
280
     0
  9
$SHADOWPLANELOCATION
 40
0.0
  0
ENDSEC
  0
SECTION
  2
CLASSES
  0
CLASS
  1
ACDBDICTIONARYWDFLT
  2
AcDbDictionaryWithDefault
  3
ObjectDBX Classes
 90
        0
 91
        4
280
     0
281
     0
  0
CLASS
  1
VISUALSTYLE
  2
AcDbVisualStyle
  3
ObjectDBX Classes
 90
     4095
 91
        4
280
     0
281
     0
  0
CLASS
  1
MATERIAL
  2
AcDbMaterial
  3
ObjectDBX Classes
 90
     1153
 91
        4
280
     0
281
     0
  0
CLASS
  1
SUN
  2
AcDbSun
  3
SCENEOE
 90
     1024
 91
        4
280
     0
281
     0
  0
ENDSEC
  0
SECTION
  2
TABLES
  0
TABLE
  2
VPORT
  5
8
330
0
100
AcDbSymbolTable
 70
     1
  0
VPORT
  5
29
330
8
100
AcDbSymbolTableRecord
100
AcDbViewportTableRecord
  2
*Active
 70
     0
 10
0.0
 20
0.0
 11
1.0
 21
1.0
 12
0.0
 22
0.0
 13
0.0
 23
0.0
 14
0.5
 24
0.5
 15
0.5
 25
0.5
 16
0.0
 26
0.0
 36
1.0
 17
50.0
 27
62.5
 37
0.0
 40
125.0
 41
0.8
 42
50.0
 43
0.0
 44
0.0
 50
0.0
 51
0.0
 71
     0
 72
   100
 73
     1
 74
     3
 75
     0
 76
     0
 77
     0
 78
     0
281
     0
 65
     1
110
0.0
120
0.0
130
0.0
111
1.0
121
0.0
131
0.0
112
0.0
122
1.0
132
0.0
 79
     0
146
0.0
 60
     3
 61
     5
292
     1
282
     1
141
0.0
142
0.0
 63
   250
361
3F
  0
ENDTAB
  0
TABLE
  2
LTYPE
  5
5
330
0
100
AcDbSymbolTable
 70
     1
  0
LTYPE
  5
14
330
5
100
AcDbSymbolTableRecord
100
AcDbLinetypeTableRecord
  2
ByBlock
 70
     0
  3

 72
    65
 73
     0
 40
0.0
  0
LTYPE
  5
15
330
5
100
AcDbSymbolTableRecord
100
AcDbLinetypeTableRecord
  2
ByLayer
 70
     0
  3

 72
    65
 73
     0
 40
0.0
  0
LTYPE
  5
16
330
5
100
AcDbSymbolTableRecord
100
AcDbLinetypeTableRecord
  2
Continuous
 70
     0
  3
Solid line
 72
    65
 73
     0
 40
0.0
  0
ENDTAB
  0
TABLE
  2
LAYER
  5
2
330
0
100
AcDbSymbolTable
 70
     2
  0
LAYER
  5
10
330
2
100
AcDbSymbolTableRecord
100
AcDbLayerTableRecord
  2
0
 70
     0
 62
     7
  6
Continuous
370
    -3
390
F
347
3E
  0
LAYER
  5
40
330
2
100
AcDbSymbolTableRecord
100
AcDbLayerTableRecord
  2
Layer 1
 70
     0
 62
     7
  6
Continuous
370
    -3
390
F
347
3E
  0
ENDTAB
  0
TABLE
  2
STYLE
  5
3
330
0
100
AcDbSymbolTable
 70
     1
  0
STYLE
  5
11
330
3
100
AcDbSymbolTableRecord
100
AcDbTextStyleTableRecord
  2
Standard
 70
     0
 40
0.0
 41
1.0
 50
0.0
 71
     0
 42
0.2
  3
txt
  4

  0
ENDTAB
  0
TABLE
  2
VIEW
  5
6
330
0
100
AcDbSymbolTable
 70
     0
  0
ENDTAB
  0
TABLE
  2
UCS
  5
7
330
0
100
AcDbSymbolTable
 70
     0
  0
ENDTAB
  0
TABLE
  2
APPID
  5
9
330
0
100
AcDbSymbolTable
 70
     1
  0
APPID
  5
12
330
9
100
AcDbSymbolTableRecord
100
AcDbRegAppTableRecord
  2
ACAD
 70
     0
  0
ENDTAB
  0
TABLE
  2
DIMSTYLE
  5
A
330
0
100
AcDbSymbolTable
 70
     1
100
AcDbDimStyleTable
  0
DIMSTYLE
105
27
330
A
100
AcDbSymbolTableRecord
100
AcDbDimStyleTableRecord
  2
Standard
 70
     0
178
     0
340
11
  0
ENDTAB
  0
TABLE
  2
BLOCK_RECORD
  5
1
330
0
100
AcDbSymbolTable
 70
     1
  0
BLOCK_RECORD
  5
1F
330
1
100
AcDbSymbolTableRecord
100
AcDbBlockTableRecord
  2
*Model_Space
340
22
 70
     0
280
     1
281
     0
  0
BLOCK_RECORD
  5
1B
330
1
100
AcDbSymbolTableRecord
100
AcDbBlockTableRecord
  2
*Paper_Space
340
1E
 70
     0
280
     1
281
     0
  0
BLOCK_RECORD
  5
23
330
1
100
AcDbSymbolTableRecord
100
AcDbBlockTableRecord
  2
*Paper_Space0
340
26
 70
     0
280
     1
281
     0
  0
ENDTAB
  0
ENDSEC
  0
SECTION
  2
BLOCKS
  0
BLOCK
  5
20
330
1F
100
AcDbEntity
  8
0
100
AcDbBlockBegin
  2
*Model_Space
 70
     0
 10
0.0
 20
0.0
 30
0.0
  3
*Model_Space
  1

  0
ENDBLK
  5
21
330
1F
100
AcDbEntity
  8
0
100
AcDbBlockEnd
  0
BLOCK
  5
1C
330
1B
100
AcDbEntity
 67
     1
  8
0
100
AcDbBlockBegin
  2
*Paper_Space
 70
     0
 10
0.0
 20
0.0
 30
0.0
  3
*Paper_Space
  1

  0
ENDBLK
  5
1D
330
1B
100
AcDbEntity
 67
     1
  8
0
100
AcDbBlockEnd
  0
BLOCK
  5
24
330
23
100
AcDbEntity
  8
0
100
AcDbBlockBegin
  2
*Paper_Space0
 70
     0
 10
0.0
 20
0.0
 30
0.0
  3
*Paper_Space0
  1

  0
ENDBLK
  5
25
330
23
100
AcDbEntity
  8
0
100
AcDbBlockEnd
  0
ENDSEC
  0
SECTION
  2
ENTITIES
  0
SPLINE
  5
41
330
1F
100
AcDbEntity
  8
Layer 1
370
     0
100
AcDbSpline
210
0.0
220
0.0
230
1.0
 70
    11
 71
     3
 72
   188
 73
   184
 74
     0
 42
0.0000000001
 43
0.0000000001
 12
1.0
 22
0.0
 32
0.0
 13
1.0
 23
0.0
 33
0.0
 40
0.0
 40
0.0
 40
0.0
 40
0.0
 40
1.0
 40
1.0
 40
1.0
 40
2.0
 40
2.0
 40
2.0
 40
3.0
 40
3.0
 40
3.0
 40
4.0
 40
4.0
 40
4.0
 40
5.0
 40
5.0
 40
5.0
 40
6.0
 40
6.0
 40
6.0
 40
7.0
 40
7.0
 40
7.0
 40
8.0
 40
8.0
 40
8.0
 40
9.0
 40
9.0
 40
9.0
 40
10.0
 40
10.0
 40
10.0
 40
11.0
 40
11.0
 40
11.0
 40
12.0
 40
12.0
 40
12.0
 40
13.0
 40
13.0
 40
13.0
 40
14.0
 40
14.0
 40
14.0
 40
15.0
 40
15.0
 40
15.0
 40
16.0
 40
16.0
 40
16.0
 40
17.0
 40
17.0
 40
17.0
 40
18.0
 40
18.0
 40
18.0
 40
19.0
 40
19.0
 40
19.0
 40
20.0
 40
20.0
 40
20.0
 40
21.0
 40
21.0
 40
21.0
 40
22.0
 40
22.0
 40
22.0
 40
23.0
 40
23.0
 40
23.0
 40
24.0
 40
24.0
 40
24.0
 40
25.0
 40
25.0
 40
25.0
 40
26.0
 40
26.0
 40
26.0
 40
27.0
 40
27.0
 40
27.0
 40
28.0
 40
28.0
 40
28.0
 40
29.0
 40
29.0
 40
29.0
 40
30.0
 40
30.0
 40
30.0
 40
31.0
 40
31.0
 40
31.0
 40
32.0
 40
32.0
 40
32.0
 40
33.0
 40
33.0
 40
33.0
 40
34.0
 40
34.0
 40
34.0
 40
35.0
 40
35.0
 40
35.0
 40
36.0
 40
36.0
 40
36.0
 40
37.0
 40
37.0
 40
37.0
 40
38.0
 40
38.0
 40
38.0
 40
39.0
 40
39.0
 40
39.0
 40
40.0
 40
40.0
 40
40.0
 40
41.0
 40
41.0
 40
41.0
 40
42.0
 40
42.0
 40
42.0
 40
43.0
 40
43.0
 40
43.0
 40
44.0
 40
44.0
 40
44.0
 40
45.0
 40
45.0
 40
45.0
 40
46.0
 40
46.0
 40
46.0
 40
47.0
 40
47.0
 40
47.0
 40
48.0
 40
48.0
 40
48.0
 40
49.0
 40
49.0
 40
49.0
 40
50.0
 40
50.0
 40
50.0
 40
51.0
 40
51.0
 40
51.0
 40
52.0
 40
52.0
 40
52.0
 40
53.0
 40
53.0
 40
53.0
 40
54.0
 40
54.0
 40
54.0
 40
55.0
 40
55.0
 40
55.0
 40
56.0
 40
56.0
 40
56.0
 40
57.0
 40
57.0
 40
57.0
 40
58.0
 40
58.0
 40
58.0
 40
59.0
 40
59.0
 40
59.0
 40
60.0
 40
60.0
 40
60.0
 40
61.0
 40
61.0
 40
61.0
 40
61.0
 10
89.01360453830966
 20
56.82403564453125
 30
0.0
 10
89.01360453830966
 20
56.82403564453125
 30
0.0
 10
81.37460459934482
 20
70.238037109375
 30
0.0
 10
81.37460459934482
 20
70.238037109375
 30
0.0
 10
81.36760081516513
 20
70.25103759765625
 30
0.0
 10
81.36060466037998
 20
70.26202392578125
 30
0.0
 10
81.35360087620029
 20
70.2750244140625
 30
0.0
 10
81.26660289036045
 20
70.4110107421875
 30
0.0
 10
81.13960398899326
 20
70.50701904296875
 30
0.0
 10
80.9975980685831
 20
70.55902099609375
 30
0.0
 10
80.97459544407138
 20
70.5679931640625
 30
0.0
 10
80.94960154758701
 20
70.57501220703125
 30
0.0
 10
80.9255994723917
 20
70.58001708984375
 30
0.0
 10
80.9255994723917
 20
70.58001708984375
 30
0.0
 10
46.93627947286041
 20
78.86238602761841
 30
0.0
 10
46.93627947286041
 20
78.86238602761841
 30
0.0
 10
46.45448091287471
 20
78.97978859488194
 30
0.0
 10
46.08952738392418
 20
79.37382954424356
 30
0.0
 10
46.00934354737001
 20
79.86320033164338
 30
0.0
 10
46.00934354737001
 20
79.86320033164338
 30
0.0
 10
43.51581976270518
 20
95.08145067158239
 30
0.0
 10
43.51581976270518
 20
95.08145067158239
 30
0.0
 10
43.39256715058673
 20
95.83367494062622
 30
0.0
 10
43.97306516711251
 20
96.51702880859375
 30
0.0
 10
44.73532008335224
 20
96.51702880859375
 30
0.0
 10
44.73532008335224
 20
96.51702880859375
 30
0.0
 10
48.58259715305576
 20
96.51702880859375
 30
0.0
 10
48.58259715305576
 20
96.51702880859375
 30
0.0
 10
48.79859675632724
 20
96.51702880859375
 30
0.0
 10
49.00359858738193
 20
96.61700439453125
 30
0.0
 10
49.13759745823154
 20
96.7860107421875
 30
0.0
 10
49.27159632908115
 20
96.95599365234375
 30
0.0
 10
49.3215955661417
 20
97.17803955078125
 30
0.0
 10
49.27259577976474
 20
97.38800048828125
 30
0.0
 10
47.79759730564365
 20
103.6940307617188
 30
0.0
 10
45.57559718357334
 20
113.2949829101562
 30
0.0
 10
45.4985975192667
 20
113.8350219726562
 30
0.0
 10
45.4985975192667
 20
114.2030029296875
 30
0.0
 10
45.21559657322177
 20
114.51904296875
 30
0.0
 10
44.84859599338779
 20
114.550048828125
 30
0.0
 10
44.47359599338779
 20
114.58203125
 30
0.0
 10
44.30459727512607
 20
114.5960693359375
 30
0.0
 10
44.09859599338779
 20
113.8350219726562
 30
0.0
 10
44.09859599338779
 20
113.8350219726562
 30
0.0
 10
44.08259715305576
 20
113.8350219726562
 30
0.0
 10
44.08259715305576
 20
113.8350219726562
 30
0.0
 10
44.08259715305576
 20
113.8250122070312
 30
0.0
 10
44.08359660373935
 20
113.8099975585938
 30
0.0
 10
44.0865987704874
 20
113.7880249023438
 30
0.0
 10
43.9255994723917
 20
113.177001953125
 30
0.0
 10
43.73859919773349
 20
112.093017578125
 30
0.0
 10
43.4085973666788
 20
110.18701171875
 30
0.0
 10
43.40678736912014
 20
110.176521606445
 30
0.0
 10
43.40497537151623
 20
110.1660195983886
 30
0.0
 10
43.40316139786773
 20
110.155505829468
 30
0.0
 10
43.20761097403374
 20
109.0220979815858
 30
0.0
 10
41.7028707319314
 20
108.7517643117599
 30
0.0
 10
41.11795933062513
 20
109.742083437357
 30
0.0
 10
40.16229203567946
 20
111.3601329364392
 30
0.0
 10
39.5871602119114
 20
112.2907725569157
 30
0.0
 10
39.20459880100498
 20
112.8079833984375
 30
0.0
 10
39.19759883152255
 20
112.8469848632812
 30
0.0
 10
39.19159831272373
 20
112.8670043945312
 30
0.0
 10
39.1855977939249
 20
112.8819580078125
 30
0.0
 10
39.1855977939249
 20
112.8819580078125
 30
0.0
 10
39.15559901462802
 20
112.8719482421875
 30
0.0
 10
39.15559901462802
 20
112.8719482421875
 30
0.0
 10
38.66359843479404
 20
113.5179443359375
 30
0.0
 10
38.50359858738193
 20
113.4459228515625
 30
0.0
 10
38.21959819065341
 20
113.3169555664062
 30
0.0
 10
37.88759745823154
 20
113.16796875
 30
0.0
 10
37.70359935032138
 20
112.865966796875
 30
0.0
 10
37.81859721409091
 20
112.5209350585938
 30
0.0
 10
37.89018187942202
 20
111.9868246001906
 30
0.0
 10
37.85900922564815
 20
106.1976159690767
 30
0.0
 10
37.8162927381909
 20
101.8469847843071
 30
0.0
 10
37.80999878772946
 20
101.2059522748204
 30
0.0
 10
37.31490590533667
 20
100.6790852874274
 30
0.0
 10
36.67574727358806
 20
100.6297037575505
 30
0.0
 10
36.67574727358806
 20
100.6297037575505
 30
0.0
 10
24.81840144072794
 20
99.7136027328188
 30
0.0
 10
24.81840144072794
 20
99.7136027328188
 30
0.0
 10
23.76077886686562
 20
99.63189059105025
 30
0.0
 10
22.96376619441344
 20
98.71766033638869
 30
0.0
 10
23.0270317352697
 20
97.65877419794106
 30
0.0
 10
23.0270317352697
 20
97.65877419794106
 30
0.0
 10
23.28399084347348
 20
93.35800581532294
 30
0.0
 10
23.28399084347348
 20
93.35800581532294
 30
0.0
 10
23.34081434872496
 20
92.40694112458914
 30
0.0
 10
24.07826817437763
 20
91.63707323109156
 30
0.0
 10
25.02601086891627
 20
91.53941698878953
 30
0.0
 10
25.02601086891627
 20
91.53941698878953
 30
0.0
 10
27.95810816202084
 20
91.23729110023487
 30
0.0
 10
27.95810816202084
 20
91.23729110023487
 30
0.0
 10
28.78164018565894
 20
91.1524336349039
 30
0.0
 10
29.29043564063068
 20
90.29762201630274
 30
0.0
 10
28.97236594682909
 20
89.53326774421112
 30
0.0
 10
28.97236594682909
 20
89.53326774421112
 30
0.0
 10
20.77160300480136
 20
69.82598876953125
 30
0.0
 10
20.77160300480136
 20
69.82598876953125
 30
0.0
 10
20.71760310398349
 20
69.73297119140625
 30
0.0
 10
20.71260298954257
 20
69.66400146484375
 30
0.0
 10
20.70960273014316
 20
69.593017578125
 30
0.0
 10
20.70960273014316
 20
69.5770263671875
 30
0.0
 10
20.71560229526767
 20
69.5660400390625
 30
0.0
 10
20.71560229526767
 20
69.54998779296875
 30
0.0
 10
20.71560229526767
 20
69.5419921875
 30
0.0
 10
20.71860255466709
 20
69.53399658203125
 30
0.0
 10
20.71860255466709
 20
69.5269775390625
 30
0.0
 10
20.7216028140665
 20
69.365966796875
 30
0.0
 10
20.77460231052646
 20
69.23199462890625
 30
0.0
 10
20.87360228763828
 20
69.1209716796875
 30
0.0
 10
20.89660205112705
 20
69.0909423828125
 30
0.0
 10
20.91760195957431
 20
69.06097412109375
 30
0.0
 10
20.945601837504
 20
69.03497314453125
 30
0.0
 10
20.95560206638584
 20
69.0269775390625
 30
0.0
 10
20.95660151706943
 20
69.01495361328125
 30
0.0
 10
20.96760119663486
 20
69.00897216796875
 30
0.0
 10
21.46204673809461
 20
68.54552435867845
 30
0.0
 10
27.45509170806508
 20
61.30520740317479
 30
0.0
 10
31.73772436317449
 20
56.09625913880154
 30
0.0
 10
31.99135395968551
 20
55.7877705167466
 30
0.0
 10
32.07495499408378
 20
55.38204463675356
 30
0.0
 10
31.97110646906731
 20
54.99641698471532
 30
0.0
 10
31.97110646906731
 20
54.99641698471532
 30
0.0
 10
30.05191538873714
 20
47.86975678417912
 30
0.0
 10
30.05191538873714
 20
47.86975678417912
 30
0.0
 10
29.9433115989541
 20
47.46647109042715
 30
0.0
 10
29.96747296736976
 20
47.03893134199825
 30
0.0
 10
30.12082158664361
 20
46.65044925115399
 30
0.0
 10
30.12082158664361
 20
46.65044925115399
 30
0.0
 10
38.94260157810459
 20
24.302001953125
 30
0.0
 10
38.94260157810459
 20
24.302001953125
 30
0.0
 10
39.05060328708896
 20
24.02801513671875
 30
0.0
 10
39.3156026767374
 20
23.85302734375
 30
0.0
 10
39.6016019748331
 20
23.85302734375
 30
0.0
 10
39.64560069309482
 20
23.85302734375
 30
0.0
 10
39.6896032260538
 20
23.8570556640625
 30
0.0
 10
39.73460139499912
 20
23.86602783203125
 30
0.0
 10
40.06860102878818
 20
23.92901611328125
 30
0.0
 10
40.31060160862216
 20
24.22100830078125
 30
0.0
 10
40.31060160862216
 20
24.56103515625
 30
0.0
 10
40.31060160862216
 20
24.56103515625
 30
0.0
 10
40.31716257462904
 20
33.45025380699371
 30
0.0
 10
40.31122880857765
 20
44.10636693781998
 30
0.0
 10
40.31089055758002
 20
44.71381267547076
 30
0.0
 10
40.75203913061614
 20
45.23464127806801
 30
0.0
 10
41.35186668168899
 20
45.33054408083808
 30
0.0
 10
41.35186668168899
 20
45.33054408083808
 30
0.0
 10
67.3142309536488
 20
49.48150963042644
 30
0.0
 10
67.3142309536488
 20
49.48150963042644
 30
0.0
 10
67.94116376605234
 20
49.58174612965013
 30
0.0
 10
68.54204579509133
 20
49.19060110760802
 30
0.0
 10
68.70413990591078
 20
48.57674639655488
 30
0.0
 10
68.70413990591078
 20
48.57674639655488
 30
0.0
 10
70.36327497565071
 20
42.29355773730822
 30
0.0
 10
70.36327497565071
 20
42.29355773730822
 30
0.0
 10
70.50490551613984
 20
42.02772570486741
 30
0.0
 10
70.64087546477458
 20
41.77251826392967
 30
0.0
 10
70.78250600526371
 20
41.50668623148886
 30
0.0
 10
70.78250600526371
 20
41.50668623148886
 30
0.0
 10
86.69259776340732
 20
23.39910888671875
 30
0.0
 10
86.69259776340732
 20
23.39910888671875
 30
0.0
 10
86.83159770237216
 20
23.2410888671875
 30
0.0
 10
87.02659739719638
 20
23.1580810546875
 30
0.0
 10
87.22459544407138
 20
23.1580810546875
 30
0.0
 10
87.34959544407138
 20
23.1580810546875
 30
0.0
 10
87.47459544407138
 20
23.19110107421875
 30
0.0
 10
87.58759440647373
 20
23.25909423828125
 30
0.0
 10
87.88159312473545
 20
23.43511962890625
 30
0.0
 10
88.00759257541904
 20
23.7940673828125
 30
0.0
 10
87.88859690891513
 20
24.11407470703125
 30
0.0
 10
87.88859690891513
 20
24.11407470703125
 30
0.0
 10
79.41264541356577
 20
46.88878071730142
 30
0.0
 10
79.41264541356577
 20
46.88878071730142
 30
0.0
 10
79.2308335448597
 20
47.37730544060105
 30
0.0
 10
79.37511268495655
 20
47.92738182953326
 30
0.0
 10
79.77329318793818
 20
48.2637807711526
 30
0.0
 10
79.77329318793818
 20
48.2637807711526
 30
0.0
 10
88.85460032688388
 20
55.93603515625
 30
0.0
 10
88.85460032688388
 20
55.93603515625
 30
0.0
 10
89.11560191379795
 20
56.15203857421875
 30
0.0
 10
89.18260325657138
 20
56.52703857421875
 30
0.0
 10
89.01360453830966
 20
56.82403564453125
 30
0.0
  0
SPLINE
  5
42
330
1F
100
AcDbEntity
  8
Layer 1
370
     0
100
AcDbSpline
210
0.0
220
0.0
230
1.0
 70
    11
 71
     3
 72
    32
 73
    28
 74
     0
 42
0.0000000001
 43
0.0000000001
 12
1.0
 22
0.0
 32
0.0
 13
1.0
 23
0.0
 33
0.0
 40
0.0
 40
0.0
 40
0.0
 40
0.0
 40
1.0
 40
1.0
 40
1.0
 40
2.0
 40
2.0
 40
2.0
 40
3.0
 40
3.0
 40
3.0
 40
4.0
 40
4.0
 40
4.0
 40
5.0
 40
5.0
 40
5.0
 40
6.0
 40
6.0
 40
6.0
 40
7.0
 40
7.0
 40
7.0
 40
8.0
 40
8.0
 40
8.0
 40
9.0
 40
9.0
 40
9.0
 40
9.0
 10
46.22963445150071
 20
104.2028369044656
 30
0.0
 10
46.55994424692744
 20
102.7767309043638
 30
0.0
 10
46.92806561686302
 20
101.193733447366
 30
0.0
 10
47.33378122228078
 20
99.45467743627705
 30
0.0
 10
47.51459598217571
 20
98.67963454689834
 30
0.0
 10
46.92695268191801
 20
97.93499755859375
 30
0.0
 10
46.13109750805052
 20
97.93499755859375
 30
0.0
 10
46.13109750805052
 20
97.93499755859375
 30
0.0
 10
44.38936585830834
 20
97.93499755859375
 30
0.0
 10
44.38936585830834
 20
97.93499755859375
 30
0.0
 10
43.70687338975495
 20
97.93499755859375
 30
0.0
 10
43.1536039279581
 20
98.4882670203906
 30
0.0
 10
43.1536039279581
 20
99.17075948894399
 30
0.0
 10
43.1536039279581
 20
99.17075948894399
 30
0.0
 10
43.1536039279581
 20
100.1940438130005
 30
0.0
 10
43.1536039279581
 20
100.1940438130005
 30
0.0
 10
43.1536039279581
 20
100.2652317325092
 30
0.0
 10
43.15849806059123
 20
100.3286823532244
 30
0.0
 10
43.17070144906756
 20
100.3988164903731
 30
0.0
 10
43.24047359603355
 20
100.7998042433865
 30
0.0
 10
43.41866371915603
 20
101.8406360892141
 30
0.0
 10
43.64760340915927
 20
103.18603515625
 30
0.0
 10
43.69745780894027
 20
103.4791046890186
 30
0.0
 10
43.7509173539429
 20
103.7932979183788
 30
0.0
 10
43.80709474420837
 20
104.1232811955679
 30
0.0
 10
44.03364841452367
 20
105.4540465130012
 30
0.0
 10
45.92503595796097
 20
105.5179348678694
 30
0.0
 10
46.22963445150071
 20
104.2028369044656
 30
0.0
  0
SPLINE
  5
43
330
1F
100
AcDbEntity
  8
Layer 1
370
     0
100
AcDbSpline
210
0.0
220
0.0
230
1.0
 70
    11
 71
     3
 72
    32
 73
    28
 74
     0
 42
0.0000000001
 43
0.0000000001
 12
1.0
 22
0.0
 32
0.0
 13
1.0
 23
0.0
 33
0.0
 40
0.0
 40
0.0
 40
0.0
 40
0.0
 40
1.0
 40
1.0
 40
1.0
 40
2.0
 40
2.0
 40
2.0
 40
3.0
 40
3.0
 40
3.0
 40
4.0
 40
4.0
 40
4.0
 40
5.0
 40
5.0
 40
5.0
 40
6.0
 40
6.0
 40
6.0
 40
7.0
 40
7.0
 40
7.0
 40
8.0
 40
8.0
 40
8.0
 40
9.0
 40
9.0
 40
9.0
 40
9.0
 10
41.56810260107704
 20
106.1651764019116
 30
0.0
 10
41.79851481629976
 20
105.770964264063
 30
0.0
 10
42.02312381615138
 20
105.3860562699147
 30
0.0
 10
42.23591516670513
 20
105.0207904094714
 30
0.0
 10
42.38174852432439
 20
104.7704609354887
 30
0.0
 10
42.43047697896873
 20
104.4811287214252
 30
0.0
 10
42.38185693161358
 20
104.1955270674844
 30
0.0
 10
42.33656125788184
 20
103.9294532967269
 30
0.0
 10
42.29254057287017
 20
103.6704943972845
 30
0.0
 10
42.25060023533115
 20
103.4240112304688
 30
0.0
 10
42.158414054079
 20
102.8835339485158
 30
0.0
 10
42.07482980939039
 20
102.3927332207149
 30
0.0
 10
42.00335613311199
 20
101.9730935619764
 30
0.0
 10
41.90822777064477
 20
101.4145713809339
 30
0.0
 10
41.44667746226514
 20
100.999352455814
 30
0.0
 10
40.88180505220589
 20
100.9555849745584
 30
0.0
 10
40.88180505220589
 20
100.9555849745584
 30
0.0
 10
40.56789674556239
 20
100.9312627104819
 30
0.0
 10
40.56789674556239
 20
100.9312627104819
 30
0.0
 10
39.8451202066808
 20
100.8752604911233
 30
0.0
 10
39.22957235094418
 20
101.4565573863001
 30
0.0
 10
39.23686188385818
 20
102.1814636122626
 30
0.0
 10
39.24963452723114
 20
103.4516367238575
 30
0.0
 10
39.25909542765567
 20
104.5704991235953
 30
0.0
 10
39.26581572851501
 20
105.5557238826641
 30
0.0
 10
39.27438209592674
 20
106.8115898691885
 30
0.0
 10
40.93435961921841
 20
107.2494469362828
 30
0.0
 10
41.56810260107704
 20
106.1651764019116
 30
0.0
  0
SPLINE
  5
44
330
1F
100
AcDbEntity
  8
Layer 1
370
     0
100
AcDbSpline
210
0.0
220
0.0
230
1.0
 70
    11
 71
     3
 72
    35
 73
    31
 74
     0
 42
0.0000000001
 43
0.0000000001
 12
1.0
 22
0.0
 32
0.0
 13
1.0
 23
0.0
 33
0.0
 40
0.0
 40
0.0
 40
0.0
 40
0.0
 40
1.0
 40
1.0
 40
1.0
 40
2.0
 40
2.0
 40
2.0
 40
3.0
 40
3.0
 40
3.0
 40
4.0
 40
4.0
 40
4.0
 40
5.0
 40
5.0
 40
5.0
 40
6.0
 40
6.0
 40
6.0
 40
7.0
 40
7.0
 40
7.0
 40
8.0
 40
8.0
 40
8.0
 40
9.0
 40
9.0
 40
9.0
 40
10.0
 40
10.0
 40
10.0
 40
10.0
 10
25.62111857700074
 20
98.35272515059296
 30
0.0
 10
25.62111857700074
 20
98.35272515059296
 30
0.0
 10
40.40548148873495
 20
99.49700996937008
 30
0.0
 10
40.40548148873495
 20
99.49700996937008
 30
0.0
 10
41.12340981499892
 20
99.55257641410753
 30
0.0
 10
41.73660411106357
 20
98.98500839737244
 30
0.0
 10
41.73660411106357
 20
98.26493290728013
 30
0.0
 10
41.73660411106357
 20
98.26493290728013
 30
0.0
 10
41.73660411106357
 20
98.01925926321564
 30
0.0
 10
41.73660411106357
 20
98.01925926321564
 30
0.0
 10
41.73660411106357
 20
97.69603269344043
 30
0.0
 10
41.60996327513476
 20
97.38567157250418
 30
0.0
 10
41.38383287476427
 20
97.15471604120648
 30
0.0
 10
41.38383287476427
 20
97.15471604120648
 30
0.0
 10
36.57548938685159
 20
92.2437729610474
 30
0.0
 10
36.57548938685159
 20
92.2437729610474
 30
0.0
 10
36.3120788746055
 20
91.974741841369
 30
0.0
 10
35.94038732376885
 20
91.84047486157488
 30
0.0
 10
35.56585564846137
 20
91.87906068161556
 30
0.0
 10
35.56585564846137
 20
91.87906068161556
 30
0.0
 10
25.76900132449737
 20
92.88837359913668
 30
0.0
 10
25.76900132449737
 20
92.88837359913668
 30
0.0
 10
25.1667467577372
 20
92.95042038413249
 30
0.0
 10
24.69813351592529
 20
93.43966474135686
 30
0.0
 10
24.66207594016487
 20
94.04403235956761
 30
0.0
 10
24.66207594016487
 20
94.04403235956761
 30
0.0
 10
24.48291084030643
 20
97.04705134749202
 30
0.0
 10
24.48291084030643
 20
97.04705134749202
 30
0.0
 10
24.44277093903111
 20
97.71984356986832
 30
0.0
 10
24.94913975079635
 20
98.30071511986353
 30
0.0
 10
25.62111857700074
 20
98.35272515059296
 30
0.0
  0
SPLINE
  5
45
330
1F
100
AcDbEntity
  8
Layer 1
370
     0
100
AcDbSpline
210
0.0
220
0.0
230
1.0
 70
    11
 71
     3
 72
    56
 73
    52
 74
     0
 42
0.0000000001
 43
0.0000000001
 12
1.0
 22
0.0
 32
0.0
 13
1.0
 23
0.0
 33
0.0
 40
0.0
 40
0.0
 40
0.0
 40
0.0
 40
1.0
 40
1.0
 40
1.0
 40
2.0
 40
2.0
 40
2.0
 40
3.0
 40
3.0
 40
3.0
 40
4.0
 40
4.0
 40
4.0
 40
5.0
 40
5.0
 40
5.0
 40
6.0
 40
6.0
 40
6.0
 40
7.0
 40
7.0
 40
7.0
 40
8.0
 40
8.0
 40
8.0
 40
9.0
 40
9.0
 40
9.0
 40
10.0
 40
10.0
 40
10.0
 40
11.0
 40
11.0
 40
11.0
 40
12.0
 40
12.0
 40
12.0
 40
13.0
 40
13.0
 40
13.0
 40
14.0
 40
14.0
 40
14.0
 40
15.0
 40
15.0
 40
15.0
 40
16.0
 40
16.0
 40
16.0
 40
17.0
 40
17.0
 40
17.0
 40
17.0
 10
36.35360087620029
 20
90.373046875
 30
0.0
 10
36.37760104404697
 20
90.37103271484375
 30
0.0
 10
36.40260066257724
 20
90.3690185546875
 30
0.0
 10
36.42660083042392
 20
90.3690185546875
 30
0.0
 10
36.61560000644931
 20
90.3690185546875
 30
0.0
 10
36.7996000217081
 20
90.44500732421875
 30
0.0
 10
36.93259944187412
 20
90.58203125
 30
0.0
 10
36.93259944187412
 20
90.58203125
 30
0.0
 10
40.26487592556168
 20
93.98571981958412
 30
0.0
 10
40.26487592556168
 20
93.98571981958412
 30
0.0
 10
40.97331138369736
 20
94.70933734740629
 30
0.0
 10
42.2036200515231
 20
94.32041555033175
 30
0.0
 10
42.36739904553724
 20
93.32107598540188
 30
0.0
 10
42.36739904553724
 20
93.32107598540188
 30
0.0
 10
44.34358050983701
 20
81.26289760522286
 30
0.0
 10
44.34358050983701
 20
81.26289760522286
 30
0.0
 10
44.48678209832997
 20
80.38911636116336
 30
0.0
 10
43.69155596841847
 20
79.65268821565587
 30
0.0
 10
42.8313247072856
 20
79.86245602726558
 30
0.0
 10
42.8313247072856
 20
79.86245602726558
 30
0.0
 10
39.80659999119052
 20
80.60003662109375
 30
0.0
 10
39.80659999119052
 20
80.60003662109375
 30
0.0
 10
39.70760096775302
 20
80.6710205078125
 30
0.0
 10
39.5855993198038
 20
80.676025390625
 30
0.0
 10
39.43159999119052
 20
80.676025390625
 30
0.0
 10
39.40659846531162
 20
80.676025390625
 30
0.0
 10
39.38260020481357
 20
80.666015625
 30
0.0
 10
39.35759867893466
 20
80.66302490234375
 30
0.0
 10
39.33859767185459
 20
80.6610107421875
 30
0.0
 10
39.32059993015537
 20
80.65704345703125
 30
0.0
 10
39.30159892307529
 20
80.65301513671875
 30
0.0
 10
39.23859919773349
 20
80.6409912109375
 30
0.0
 10
39.17859782444248
 20
80.62200927734375
 30
0.0
 10
39.12159861789951
 20
80.593017578125
 30
0.0
 10
39.10959758030185
 20
80.5880126953125
 30
0.0
 10
39.0965970920206
 20
80.5880126953125
 30
0.0
 10
39.08459986912021
 20
80.58099365234375
 30
0.0
 10
32.96528463745472
 20
77.20486925025943
 30
0.0
 10
28.88720255391945
 20
74.91501373832125
 30
0.0
 10
26.16766491044018
 20
73.34318484238611
 30
0.0
 10
25.14498892573738
 20
72.75210213838727
 30
0.0
 10
23.95784345942411
 20
73.79909931832299
 30
0.0
 10
24.41163968580349
 20
74.88965601908603
 30
0.0
 10
24.41163968580349
 20
74.88965601908603
 30
0.0
 10
30.72660579600961
 20
90.06569364617644
 30
0.0
 10
30.72660579600961
 20
90.06569364617644
 30
0.0
 10
30.93614763667301
 20
90.56926164683682
 30
0.0
 10
31.4510449294412
 20
90.87590222157633
 30
0.0
 10
31.9936233450444
 20
90.82024993322193
 30
0.0
 10
31.9936233450444
 20
90.82024993322193
 30
0.0
 10
36.35360087620029
 20
90.373046875
 30
0.0
 10
36.35360087620029
 20
90.373046875
 30
0.0
  0
SPLINE
  5
46
330
1F
100
AcDbEntity
  8
Layer 1
370
     0
100
AcDbSpline
210
0.0
220
0.0
230
1.0
 70
    11
 71
     3
 72
    23
 73
    19
 74
     0
 42
0.0000000001
 43
0.0000000001
 12
1.0
 22
0.0
 32
0.0
 13
1.0
 23
0.0
 33
0.0
 40
0.0
 40
0.0
 40
0.0
 40
0.0
 40
1.0
 40
1.0
 40
1.0
 40
2.0
 40
2.0
 40
2.0
 40
3.0
 40
3.0
 40
3.0
 40
4.0
 40
4.0
 40
4.0
 40
5.0
 40
5.0
 40
5.0
 40
6.0
 40
6.0
 40
6.0
 40
6.0
 10
23.6864512517468
 20
70.23395429981974
 30
0.0
 10
26.27591352971103
 20
71.79004601401994
 30
0.0
 10
31.27530484201452
 20
74.61696334386488
 30
0.0
 10
35.75748440416555
 20
77.11533851347849
 30
0.0
 10
36.71162291241399
 20
77.64717708092667
 30
0.0
 10
37.83516978012904
 20
76.76861776389069
 30
0.0
 10
37.5511198158365
 20
75.71384377268078
 30
0.0
 10
37.5511198158365
 20
75.71384377268078
 30
0.0
 10
33.21325675863409
 20
59.60588494376316
 30
0.0
 10
33.21325675863409
 20
59.60588494376316
 30
0.0
 10
32.95208714151704
 20
58.63607345262062
 30
0.0
 10
31.69869863120857
 20
58.37358800682887
 30
0.0
 10
31.0602420404839
 20
59.14890541216664
 30
0.0
 10
27.45488404641128
 20
63.52711506006472
 30
0.0
 10
24.88997908006513
 20
66.61177447609225
 30
0.0
 10
23.38711715024147
 20
68.37723323314458
 30
0.0
 10
22.89183380205122
 20
68.95905802152538
 30
0.0
 10
23.0315234390664
 20
69.84038697451706
 30
0.0
 10
23.6864512517468
 20
70.23395429981974
 30
0.0
  0
SPLINE
  5
47
330
1F
100
AcDbEntity
  8
Layer 1
370
     0
100
AcDbSpline
210
0.0
220
0.0
230
1.0
 70
    11
 71
     3
 72
    23
 73
    19
 74
     0
 42
0.0000000001
 43
0.0000000001
 12
1.0
 22
0.0
 32
0.0
 13
1.0
 23
0.0
 33
0.0
 40
0.0
 40
0.0
 40
0.0
 40
0.0
 40
1.0
 40
1.0
 40
1.0
 40
2.0
 40
2.0
 40
2.0
 40
3.0
 40
3.0
 40
3.0
 40
4.0
 40
4.0
 40
4.0
 40
5.0
 40
5.0
 40
5.0
 40
6.0
 40
6.0
 40
6.0
 40
6.0
 10
36.51151694384589
 20
34.31835187013166
 30
0.0
 10
36.51151694384589
 20
34.31835187013166
 30
0.0
 10
31.52471681523002
 20
46.95078465124607
 30
0.0
 10
31.52471681523002
 20
46.95078465124607
 30
0.0
 10
31.42723746960201
 20
47.1977168020112
 30
0.0
 10
31.41187047856147
 20
47.46947644238389
 30
0.0
 10
31.48089126468494
 20
47.72582355274244
 30
0.0
 10
31.48089126468494
 20
47.72582355274244
 30
0.0
 10
36.4305782575575
 20
66.1092414919267
 30
0.0
 10
36.4305782575575
 20
66.1092414919267
 30
0.0
 10
36.80543702656632
 20
67.50148819940296
 30
0.0
 10
38.85519950167873
 20
67.23898117495992
 30
0.0
 10
38.85963765955967
 20
65.79715930873044
 30
0.0
 10
38.88815861402054
 20
56.53157279983679
 30
0.0
 10
38.89653118486331
 20
44.38636212781785
 30
0.0
 10
38.89673167511864
 20
34.76858914705372
 30
0.0
 10
38.89676010502262
 20
33.40477043200372
 30
0.0
 10
37.01229277350285
 20
33.0497995232563
 30
0.0
 10
36.51151694384589
 20
34.31835187013166
 30
0.0
  0
SPLINE
  5
48
330
1F
100
AcDbEntity
  8
Layer 1
370
     0
100
AcDbSpline
210
0.0
220
0.0
230
1.0
 70
    11
 71
     3
 72
    26
 73
    22
 74
     0
 42
0.0000000001
 43
0.0000000001
 12
1.0
 22
0.0
 32
0.0
 13
1.0
 23
0.0
 33
0.0
 40
0.0
 40
0.0
 40
0.0
 40
0.0
 40
1.0
 40
1.0
 40
1.0
 40
2.0
 40
2.0
 40
2.0
 40
3.0
 40
3.0
 40
3.0
 40
4.0
 40
4.0
 40
4.0
 40
5.0
 40
5.0
 40
5.0
 40
6.0
 40
6.0
 40
6.0
 40
7.0
 40
7.0
 40
7.0
 40
7.0
 10
40.30460108982334
 20
52.2640380859375
 30
0.0
 10
40.29660166965732
 20
59.1910400390625
 30
0.0
 10
40.28260173069248
 20
66.1180419921875
 30
0.0
 10
40.25660075412998
 20
71.31402587890625
 30
0.0
 10
40.25159968601474
 20
72.375
 30
0.0
 10
40.24660243259677
 20
73.30902099609375
 30
0.0
 10
40.24160136448154
 20
74.14300537109375
 30
0.0
 10
41.91722118756752
 20
68.06958752150513
 30
0.0
 10
44.71935294528066
 20
58.21327370700601
 30
0.0
 10
47.3231596231908
 20
49.11488621958779
 30
0.0
 10
47.52711289076433
 20
48.40221969428421
 30
0.0
 10
47.06098354104415
 20
47.67595674906806
 30
0.0
 10
46.32899881344838
 20
47.55895730373231
 30
0.0
 10
46.32899881344838
 20
47.55895730373231
 30
0.0
 10
41.73986959285412
 20
46.82543711793551
 30
0.0
 10
41.73986959285412
 20
46.82543711793551
 30
0.0
 10
40.98962385188042
 20
46.70551885700661
 30
0.0
 10
40.30986997781656
 20
47.27958898540965
 30
0.0
 10
40.30906205690553
 20
48.03935763994559
 30
0.0
 10
40.30757504924713
 20
49.4377393289742
 30
0.0
 10
40.30608701553319
 20
50.85088870745494
 30
0.0
 10
40.30460108982334
 20
52.2640380859375
 30
0.0
  0
SPLINE
  5
49
330
1F
100
AcDbEntity
  8
Layer 1
370
     0
100
AcDbSpline
210
0.0
220
0.0
230
1.0
 70
    11
 71
     3
 72
    53
 73
    49
 74
     0
 42
0.0000000001
 43
0.0000000001
 12
1.0
 22
0.0
 32
0.0
 13
1.0
 23
0.0
 33
0.0
 40
0.0
 40
0.0
 40
0.0
 40
0.0
 40
1.0
 40
1.0
 40
1.0
 40
2.0
 40
2.0
 40
2.0
 40
3.0
 40
3.0
 40
3.0
 40
4.0
 40
4.0
 40
4.0
 40
5.0
 40
5.0
 40
5.0
 40
6.0
 40
6.0
 40
6.0
 40
7.0
 40
7.0
 40
7.0
 40
8.0
 40
8.0
 40
8.0
 40
9.0
 40
9.0
 40
9.0
 40
10.0
 40
10.0
 40
10.0
 40
11.0
 40
11.0
 40
11.0
 40
12.0
 40
12.0
 40
12.0
 40
13.0
 40
13.0
 40
13.0
 40
14.0
 40
14.0
 40
14.0
 40
15.0
 40
15.0
 40
15.0
 40
16.0
 40
16.0
 40
16.0
 40
16.0
 10
48.81530093283891
 20
49.04994260152489
 30
0.0
 10
46.06517382279981
 20
58.66380323169506
 30
0.0
 10
42.49011947972667
 20
71.25640255462986
 30
0.0
 10
40.92577565774354
 20
76.98294186310522
 30
0.0
 10
40.67777809648669
 20
77.8907779557785
 30
0.0
 10
41.49702696493023
 20
78.72869263738085
 30
0.0
 10
42.41137373682704
 20
78.50589420320466
 30
0.0
 10
42.41137373682704
 20
78.50589420320466
 30
0.0
 10
76.9067535866252
 20
70.10042173578404
 30
0.0
 10
76.9067535866252
 20
70.10042173578404
 30
0.0
 10
77.88480336725479
 20
69.86210082038451
 30
0.0
 10
78.18279422439082
 20
68.61697197770627
 30
0.0
 10
77.41860636453748
 20
67.96168948369268
 30
0.0
 10
77.41860636453748
 20
67.96168948369268
 30
0.0
 10
66.47659816013584
 20
58.57904052734375
 30
0.0
 10
66.47659816013584
 20
58.57904052734375
 30
0.0
 10
66.45559825168857
 20
58.56005859375
 30
0.0
 10
66.44559993015537
 20
58.5340576171875
 30
0.0
 10
66.42659892307529
 20
58.5140380859375
 30
0.0
 10
66.38359965549716
 20
58.467041015625
 30
0.0
 10
66.34259928928623
 20
58.4210205078125
 30
0.0
 10
66.31359996067295
 20
58.36602783203125
 30
0.0
 10
66.29559840427646
 20
58.33203125
 30
0.0
 10
66.28859843479404
 20
58.2950439453125
 30
0.0
 10
66.27660121189365
 20
58.259033203125
 30
0.0
 10
66.25760020481357
 20
58.20404052734375
 30
0.0
 10
66.24360026584873
 20
58.15106201171875
 30
0.0
 10
66.23860301243076
 20
58.093017578125
 30
0.0
 10
66.23760356174716
 20
58.0770263671875
 30
0.0
 10
66.22860469089755
 20
58.06500244140625
 30
0.0
 10
66.22860469089755
 20
58.04901123046875
 30
0.0
 10
66.22860469089755
 20
58.02001953125
 30
0.0
 10
66.2426046298624
 20
57.9940185546875
 30
0.0
 10
66.24660624729404
 20
57.96502685546875
 30
0.0
 10
66.25060786472568
 20
57.9300537109375
 30
0.0
 10
66.24360789524326
 20
57.89703369140625
 30
0.0
 10
66.25260676609287
 20
57.86102294921875
 30
0.0
 10
66.25260676609287
 20
57.86102294921875
 30
0.0
 10
67.70701027162795
 20
52.35316733925538
 30
0.0
 10
67.70701027162795
 20
52.35316733925538
 30
0.0
 10
67.89365793398065
 20
51.64632885168066
 30
0.0
 10
67.4292360401596
 20
50.93285237210148
 30
0.0
 10
66.7073421008663
 20
50.81740914887996
 30
0.0
 10
66.7073421008663
 20
50.81740914887996
 30
0.0
 10
50.19647311574045
 20
48.17703799451738
 30
0.0
 10
50.19647311574045
 20
48.17703799451738
 30
0.0
 10
49.57908074578063
 20
48.07830636470135
 30
0.0
 10
48.98725806277889
 20
48.44881697515848
 30
0.0
 10
48.81530093283891
 20
49.04994260152489
 30
0.0
  0
SPLINE
  5
4A
330
1F
100
AcDbEntity
  8
Layer 1
370
     0
100
AcDbSpline
210
0.0
220
0.0
230
1.0
 70
    11
 71
     3
 72
    29
 73
    25
 74
     0
 42
0.0000000001
 43
0.0000000001
 12
1.0
 22
0.0
 32
0.0
 13
1.0
 23
0.0
 33
0.0
 40
0.0
 40
0.0
 40
0.0
 40
0.0
 40
1.0
 40
1.0
 40
1.0
 40
2.0
 40
2.0
 40
2.0
 40
3.0
 40
3.0
 40
3.0
 40
4.0
 40
4.0
 40
4.0
 40
5.0
 40
5.0
 40
5.0
 40
6.0
 40
6.0
 40
6.0
 40
7.0
 40
7.0
 40
7.0
 40
8.0
 40
8.0
 40
8.0
 40
8.0
 10
71.69129569567122
 20
42.81353063043389
 30
0.0
 10
71.69129569567122
 20
42.81353063043389
 30
0.0
 10
69.2757261654242
 20
51.96401485411297
 30
0.0
 10
69.2757261654242
 20
51.96401485411297
 30
0.0
 10
68.96292963045926
 20
53.14892786223936
 30
0.0
 10
70.37991941148357
 20
54.01746088234358
 30
0.0
 10
71.29384601449237
 20
53.20100593966345
 30
0.0
 10
71.29384601449237
 20
53.20100593966345
 30
0.0
 10
77.43947111311172
 20
47.71082109208692
 30
0.0
 10
77.43947111311172
 20
47.71082109208692
 30
0.0
 10
77.58929841974168
 20
47.5769730952743
 30
0.0
 10
77.70423252806904
 20
47.4086134858353
 30
0.0
 10
77.77431671560407
 20
47.22032722844779
 30
0.0
 10
77.77431671560407
 20
47.22032722844779
 30
0.0
 10
82.88051370764697
 20
33.50215833834773
 30
0.0
 10
82.88051370764697
 20
33.50215833834773
 30
0.0
 10
83.3590415532799
 20
32.21655854357778
 30
0.0
 10
81.69938733924027
 20
31.22490827060392
 30
0.0
 10
80.79400471104054
 20
32.25546056326675
 30
0.0
 10
80.79400471104054
 20
32.25546056326675
 30
0.0
 10
71.95775215062349
 20
42.31333007726062
 30
0.0
 10
71.95775215062349
 20
42.31333007726062
 30
0.0
 10
71.83138275415877
 20
42.4571701148252
 30
0.0
 10
71.74016526506057
 20
42.62840649381906
 30
0.0
 10
71.69129569567122
 20
42.81353063043389
 30
0.0
  0
SPLINE
  5
4B
330
1F
100
AcDbEntity
  8
Layer 1
370
     0
100
AcDbSpline
210
0.0
220
0.0
230
1.0
 70
    11
 71
     3
 72
    29
 73
    25
 74
     0
 42
0.0000000001
 43
0.0000000001
 12
1.0
 22
0.0
 32
0.0
 13
1.0
 23
0.0
 33
0.0
 40
0.0
 40
0.0
 40
0.0
 40
0.0
 40
1.0
 40
1.0
 40
1.0
 40
2.0
 40
2.0
 40
2.0
 40
3.0
 40
3.0
 40
3.0
 40
4.0
 40
4.0
 40
4.0
 40
5.0
 40
5.0
 40
5.0
 40
6.0
 40
6.0
 40
6.0
 40
7.0
 40
7.0
 40
7.0
 40
8.0
 40
8.0
 40
8.0
 40
8.0
 10
77.48391852455461
 20
49.57222134527728
 30
0.0
 10
77.48391852455461
 20
49.57222134527728
 30
0.0
 10
69.06664238524718
 20
57.09049478703309
 30
0.0
 10
69.06664238524718
 20
57.09049478703309
 30
0.0
 10
68.5091175299076
 20
57.58847349696953
 30
0.0
 10
68.5179446507027
 20
58.46357472578165
 30
0.0
 10
69.08540123627245
 20
58.95020578044932
 30
0.0
 10
69.08540123627245
 20
58.95020578044932
 30
0.0
 10
79.42944844393969
 20
67.82090131943824
 30
0.0
 10
79.42944844393969
 20
67.82090131943824
 30
0.0
 10
80.01907343649145
 20
68.32654322981398
 30
0.0
 10
80.92347732773487
 20
68.16927448632487
 30
0.0
 10
81.307797375468
 20
67.49427117205141
 30
0.0
 10
81.307797375468
 20
67.49427117205141
 30
0.0
 10
86.98241735355987
 20
57.52761105357604
 30
0.0
 10
86.98241735355987
 20
57.52761105357604
 30
0.0
 10
87.27697501607508
 20
57.01026255818579
 30
0.0
 10
87.16080148428591
 20
56.35643348164376
 30
0.0
 10
86.70605319740753
 20
55.97222302133741
 30
0.0
 10
86.70605319740753
 20
55.97222302133741
 30
0.0
 10
79.10466215095221
 20
49.54991415906625
 30
0.0
 10
79.10466215095221
 20
49.54991415906625
 30
0.0
 10
78.63430763699034
 20
49.15251821601487
 30
0.0
 10
77.9431577826308
 20
49.16203089170813
 30
0.0
 10
77.48391852455461
 20
49.57222134527728
 30
0.0
  0
HATCH
  5
4C
330
1F
100
AcDbEntity
  8
Layer 1
 62
     7
420
 16777215
100
AcDbHatch
 10
0.0
 20
0.0
 30
0.0
210
0.0
220
0.0
230
1.0
  2
SOLID
 70
     1
 71
     0
 91
       11
 92
        1
 93
        1
 72
     4
 94
        3
 73
     0
 74
     1
 95
      188
 96
      184
 40
0.0
 40
0.0
 40
0.0
 40
0.0
 40
1.0
 40
1.0
 40
1.0
 40
2.0
 40
2.0
 40
2.0
 40
3.0
 40
3.0
 40
3.0
 40
4.0
 40
4.0
 40
4.0
 40
5.0
 40
5.0
 40
5.0
 40
6.0
 40
6.0
 40
6.0
 40
7.0
 40
7.0
 40
7.0
 40
8.0
 40
8.0
 40
8.0
 40
9.0
 40
9.0
 40
9.0
 40
10.0
 40
10.0
 40
10.0
 40
11.0
 40
11.0
 40
11.0
 40
12.0
 40
12.0
 40
12.0
 40
13.0
 40
13.0
 40
13.0
 40
14.0
 40
14.0
 40
14.0
 40
15.0
 40
15.0
 40
15.0
 40
16.0
 40
16.0
 40
16.0
 40
17.0
 40
17.0
 40
17.0
 40
18.0
 40
18.0
 40
18.0
 40
19.0
 40
19.0
 40
19.0
 40
20.0
 40
20.0
 40
20.0
 40
21.0
 40
21.0
 40
21.0
 40
22.0
 40
22.0
 40
22.0
 40
23.0
 40
23.0
 40
23.0
 40
24.0
 40
24.0
 40
24.0
 40
25.0
 40
25.0
 40
25.0
 40
26.0
 40
26.0
 40
26.0
 40
27.0
 40
27.0
 40
27.0
 40
28.0
 40
28.0
 40
28.0
 40
29.0
 40
29.0
 40
29.0
 40
30.0
 40
30.0
 40
30.0
 40
31.0
 40
31.0
 40
31.0
 40
32.0
 40
32.0
 40
32.0
 40
33.0
 40
33.0
 40
33.0
 40
34.0
 40
34.0
 40
34.0
 40
35.0
 40
35.0
 40
35.0
 40
36.0
 40
36.0
 40
36.0
 40
37.0
 40
37.0
 40
37.0
 40
38.0
 40
38.0
 40
38.0
 40
39.0
 40
39.0
 40
39.0
 40
40.0
 40
40.0
 40
40.0
 40
41.0
 40
41.0
 40
41.0
 40
42.0
 40
42.0
 40
42.0
 40
43.0
 40
43.0
 40
43.0
 40
44.0
 40
44.0
 40
44.0
 40
45.0
 40
45.0
 40
45.0
 40
46.0
 40
46.0
 40
46.0
 40
47.0
 40
47.0
 40
47.0
 40
48.0
 40
48.0
 40
48.0
 40
49.0
 40
49.0
 40
49.0
 40
50.0
 40
50.0
 40
50.0
 40
51.0
 40
51.0
 40
51.0
 40
52.0
 40
52.0
 40
52.0
 40
53.0
 40
53.0
 40
53.0
 40
54.0
 40
54.0
 40
54.0
 40
55.0
 40
55.0
 40
55.0
 40
56.0
 40
56.0
 40
56.0
 40
57.0
 40
57.0
 40
57.0
 40
58.0
 40
58.0
 40
58.0
 40
59.0
 40
59.0
 40
59.0
 40
60.0
 40
60.0
 40
60.0
 40
61.0
 40
61.0
 40
61.0
 40
61.0
 10
89.01360453830966
 20
56.82403564453125
 10
89.01360453830966
 20
56.82403564453125
 10
81.37460459934482
 20
70.238037109375
 10
81.37460459934482
 20
70.238037109375
 10
81.36760081516513
 20
70.25103759765625
 10
81.36060466037998
 20
70.26202392578125
 10
81.35360087620029
 20
70.2750244140625
 10
81.26660289036045
 20
70.4110107421875
 10
81.13960398899326
 20
70.50701904296875
 10
80.9975980685831
 20
70.55902099609375
 10
80.97459544407138
 20
70.5679931640625
 10
80.94960154758701
 20
70.57501220703125
 10
80.9255994723917
 20
70.58001708984375
 10
80.9255994723917
 20
70.58001708984375
 10
46.93627947286041
 20
78.86238602761841
 10
46.93627947286041
 20
78.86238602761841
 10
46.45448091287471
 20
78.97978859488194
 10
46.08952738392418
 20
79.37382954424356
 10
46.00934354737001
 20
79.86320033164338
 10
46.00934354737001
 20
79.86320033164338
 10
43.51581976270518
 20
95.08145067158239
 10
43.51581976270518
 20
95.08145067158239
 10
43.39256715058673
 20
95.83367494062622
 10
43.97306516711251
 20
96.51702880859375
 10
44.73532008335224
 20
96.51702880859375
 10
44.73532008335224
 20
96.51702880859375
 10
48.58259715305576
 20
96.51702880859375
 10
48.58259715305576
 20
96.51702880859375
 10
48.79859675632724
 20
96.51702880859375
 10
49.00359858738193
 20
96.61700439453125
 10
49.13759745823154
 20
96.7860107421875
 10
49.27159632908115
 20
96.95599365234375
 10
49.3215955661417
 20
97.17803955078125
 10
49.27259577976474
 20
97.38800048828125
 10
47.79759730564365
 20
103.6940307617188
 10
45.57559718357334
 20
113.2949829101562
 10
45.4985975192667
 20
113.8350219726562
 10
45.4985975192667
 20
114.2030029296875
 10
45.21559657322177
 20
114.51904296875
 10
44.84859599338779
 20
114.550048828125
 10
44.47359599338779
 20
114.58203125
 10
44.30459727512607
 20
114.5960693359375
 10
44.09859599338779
 20
113.8350219726562
 10
44.09859599338779
 20
113.8350219726562
 10
44.08259715305576
 20
113.8350219726562
 10
44.08259715305576
 20
113.8350219726562
 10
44.08259715305576
 20
113.8250122070312
 10
44.08359660373935
 20
113.8099975585938
 10
44.0865987704874
 20
113.7880249023438
 10
43.9255994723917
 20
113.177001953125
 10
43.73859919773349
 20
112.093017578125
 10
43.4085973666788
 20
110.18701171875
 10
43.40678736912014
 20
110.176521606445
 10
43.40497537151623
 20
110.1660195983886
 10
43.40316139786773
 20
110.155505829468
 10
43.20761097403374
 20
109.0220979815858
 10
41.7028707319314
 20
108.7517643117599
 10
41.11795933062513
 20
109.742083437357
 10
40.16229203567946
 20
111.3601329364392
 10
39.5871602119114
 20
112.2907725569157
 10
39.20459880100498
 20
112.8079833984375
 10
39.19759883152255
 20
112.8469848632812
 10
39.19159831272373
 20
112.8670043945312
 10
39.1855977939249
 20
112.8819580078125
 10
39.1855977939249
 20
112.8819580078125
 10
39.15559901462802
 20
112.8719482421875
 10
39.15559901462802
 20
112.8719482421875
 10
38.66359843479404
 20
113.5179443359375
 10
38.50359858738193
 20
113.4459228515625
 10
38.21959819065341
 20
113.3169555664062
 10
37.88759745823154
 20
113.16796875
 10
37.70359935032138
 20
112.865966796875
 10
37.81859721409091
 20
112.5209350585938
 10
37.89018187942202
 20
111.9868246001906
 10
37.85900922564815
 20
106.1976159690767
 10
37.8162927381909
 20
101.8469847843071
 10
37.80999878772946
 20
101.2059522748204
 10
37.31490590533667
 20
100.6790852874274
 10
36.67574727358806
 20
100.6297037575505
 10
36.67574727358806
 20
100.6297037575505
 10
24.81840144072794
 20
99.7136027328188
 10
24.81840144072794
 20
99.7136027328188
 10
23.76077886686562
 20
99.63189059105025
 10
22.96376619441344
 20
98.71766033638869
 10
23.0270317352697
 20
97.65877419794106
 10
23.0270317352697
 20
97.65877419794106
 10
23.28399084347348
 20
93.35800581532294
 10
23.28399084347348
 20
93.35800581532294
 10
23.34081434872496
 20
92.40694112458914
 10
24.07826817437763
 20
91.63707323109156
 10
25.02601086891627
 20
91.53941698878953
 10
25.02601086891627
 20
91.53941698878953
 10
27.95810816202084
 20
91.23729110023487
 10
27.95810816202084
 20
91.23729110023487
 10
28.78164018565894
 20
91.1524336349039
 10
29.29043564063068
 20
90.29762201630274
 10
28.97236594682909
 20
89.53326774421112
 10
28.97236594682909
 20
89.53326774421112
 10
20.77160300480136
 20
69.82598876953125
 10
20.77160300480136
 20
69.82598876953125
 10
20.71760310398349
 20
69.73297119140625
 10
20.71260298954257
 20
69.66400146484375
 10
20.70960273014316
 20
69.593017578125
 10
20.70960273014316
 20
69.5770263671875
 10
20.71560229526767
 20
69.5660400390625
 10
20.71560229526767
 20
69.54998779296875
 10
20.71560229526767
 20
69.5419921875
 10
20.71860255466709
 20
69.53399658203125
 10
20.71860255466709
 20
69.5269775390625
 10
20.7216028140665
 20
69.365966796875
 10
20.77460231052646
 20
69.23199462890625
 10
20.87360228763828
 20
69.1209716796875
 10
20.89660205112705
 20
69.0909423828125
 10
20.91760195957431
 20
69.06097412109375
 10
20.945601837504
 20
69.03497314453125
 10
20.95560206638584
 20
69.0269775390625
 10
20.95660151706943
 20
69.01495361328125
 10
20.96760119663486
 20
69.00897216796875
 10
21.46204673809461
 20
68.54552435867845
 10
27.45509170806508
 20
61.30520740317479
 10
31.73772436317449
 20
56.09625913880154
 10
31.99135395968551
 20
55.7877705167466
 10
32.07495499408378
 20
55.38204463675356
 10
31.97110646906731
 20
54.99641698471532
 10
31.97110646906731
 20
54.99641698471532
 10
30.05191538873714
 20
47.86975678417912
 10
30.05191538873714
 20
47.86975678417912
 10
29.9433115989541
 20
47.46647109042715
 10
29.96747296736976
 20
47.03893134199825
 10
30.12082158664361
 20
46.65044925115399
 10
30.12082158664361
 20
46.65044925115399
 10
38.94260157810459
 20
24.302001953125
 10
38.94260157810459
 20
24.302001953125
 10
39.05060328708896
 20
24.02801513671875
 10
39.3156026767374
 20
23.85302734375
 10
39.6016019748331
 20
23.85302734375
 10
39.64560069309482
 20
23.85302734375
 10
39.6896032260538
 20
23.8570556640625
 10
39.73460139499912
 20
23.86602783203125
 10
40.06860102878818
 20
23.92901611328125
 10
40.31060160862216
 20
24.22100830078125
 10
40.31060160862216
 20
24.56103515625
 10
40.31060160862216
 20
24.56103515625
 10
40.31716257462904
 20
33.45025380699371
 10
40.31122880857765
 20
44.10636693781998
 10
40.31089055758002
 20
44.71381267547076
 10
40.75203913061614
 20
45.23464127806801
 10
41.35186668168899
 20
45.33054408083808
 10
41.35186668168899
 20
45.33054408083808
 10
67.3142309536488
 20
49.48150963042644
 10
67.3142309536488
 20
49.48150963042644
 10
67.94116376605234
 20
49.58174612965013
 10
68.54204579509133
 20
49.19060110760802
 10
68.70413990591078
 20
48.57674639655488
 10
68.70413990591078
 20
48.57674639655488
 10
70.36327497565071
 20
42.29355773730822
 10
70.36327497565071
 20
42.29355773730822
 10
70.50490551613984
 20
42.02772570486741
 10
70.64087546477458
 20
41.77251826392967
 10
70.78250600526371
 20
41.50668623148886
 10
70.78250600526371
 20
41.50668623148886
 10
86.69259776340732
 20
23.39910888671875
 10
86.69259776340732
 20
23.39910888671875
 10
86.83159770237216
 20
23.2410888671875
 10
87.02659739719638
 20
23.1580810546875
 10
87.22459544407138
 20
23.1580810546875
 10
87.34959544407138
 20
23.1580810546875
 10
87.47459544407138
 20
23.19110107421875
 10
87.58759440647373
 20
23.25909423828125
 10
87.88159312473545
 20
23.43511962890625
 10
88.00759257541904
 20
23.7940673828125
 10
87.88859690891513
 20
24.11407470703125
 10
87.88859690891513
 20
24.11407470703125
 10
79.41264541356577
 20
46.88878071730142
 10
79.41264541356577
 20
46.88878071730142
 10
79.2308335448597
 20
47.37730544060105
 10
79.37511268495655
 20
47.92738182953326
 10
79.77329318793818
 20
48.2637807711526
 10
79.77329318793818
 20
48.2637807711526
 10
88.85460032688388
 20
55.93603515625
 10
88.85460032688388
 20
55.93603515625
 10
89.11560191379795
 20
56.15203857421875
 10
89.18260325657138
 20
56.52703857421875
 10
89.01360453830966
 20
56.82403564453125
 97
        0
 97
        0
 92
        1
 93
        1
 72
     4
 94
        3
 73
     0
 74
     1
 95
       32
 96
       28
 40
0.0
 40
0.0
 40
0.0
 40
0.0
 40
1.0
 40
1.0
 40
1.0
 40
2.0
 40
2.0
 40
2.0
 40
3.0
 40
3.0
 40
3.0
 40
4.0
 40
4.0
 40
4.0
 40
5.0
 40
5.0
 40
5.0
 40
6.0
 40
6.0
 40
6.0
 40
7.0
 40
7.0
 40
7.0
 40
8.0
 40
8.0
 40
8.0
 40
9.0
 40
9.0
 40
9.0
 40
9.0
 10
46.22963445150071
 20
104.2028369044656
 10
46.55994424692744
 20
102.7767309043638
 10
46.92806561686302
 20
101.193733447366
 10
47.33378122228078
 20
99.45467743627705
 10
47.51459598217571
 20
98.67963454689834
 10
46.92695268191801
 20
97.93499755859375
 10
46.13109750805052
 20
97.93499755859375
 10
46.13109750805052
 20
97.93499755859375
 10
44.38936585830834
 20
97.93499755859375
 10
44.38936585830834
 20
97.93499755859375
 10
43.70687338975495
 20
97.93499755859375
 10
43.1536039279581
 20
98.4882670203906
 10
43.1536039279581
 20
99.17075948894399
 10
43.1536039279581
 20
99.17075948894399
 10
43.1536039279581
 20
100.1940438130005
 10
43.1536039279581
 20
100.1940438130005
 10
43.1536039279581
 20
100.2652317325092
 10
43.15849806059123
 20
100.3286823532244
 10
43.17070144906756
 20
100.3988164903731
 10
43.24047359603355
 20
100.7998042433865
 10
43.41866371915603
 20
101.8406360892141
 10
43.64760340915927
 20
103.18603515625
 10
43.69745780894027
 20
103.4791046890186
 10
43.7509173539429
 20
103.7932979183788
 10
43.80709474420837
 20
104.1232811955679
 10
44.03364841452367
 20
105.4540465130012
 10
45.92503595796097
 20
105.5179348678694
 10
46.22963445150071
 20
104.2028369044656
 97
        0
 97
        0
 92
        1
 93
        1
 72
     4
 94
        3
 73
     0
 74
     1
 95
       32
 96
       28
 40
0.0
 40
0.0
 40
0.0
 40
0.0
 40
1.0
 40
1.0
 40
1.0
 40
2.0
 40
2.0
 40
2.0
 40
3.0
 40
3.0
 40
3.0
 40
4.0
 40
4.0
 40
4.0
 40
5.0
 40
5.0
 40
5.0
 40
6.0
 40
6.0
 40
6.0
 40
7.0
 40
7.0
 40
7.0
 40
8.0
 40
8.0
 40
8.0
 40
9.0
 40
9.0
 40
9.0
 40
9.0
 10
41.56810260107704
 20
106.1651764019116
 10
41.79851481629976
 20
105.770964264063
 10
42.02312381615138
 20
105.3860562699147
 10
42.23591516670513
 20
105.0207904094714
 10
42.38174852432439
 20
104.7704609354887
 10
42.43047697896873
 20
104.4811287214252
 10
42.38185693161358
 20
104.1955270674844
 10
42.33656125788184
 20
103.9294532967269
 10
42.29254057287017
 20
103.6704943972845
 10
42.25060023533115
 20
103.4240112304688
 10
42.158414054079
 20
102.8835339485158
 10
42.07482980939039
 20
102.3927332207149
 10
42.00335613311199
 20
101.9730935619764
 10
41.90822777064477
 20
101.4145713809339
 10
41.44667746226514
 20
100.999352455814
 10
40.88180505220589
 20
100.9555849745584
 10
40.88180505220589
 20
100.9555849745584
 10
40.56789674556239
 20
100.9312627104819
 10
40.56789674556239
 20
100.9312627104819
 10
39.8451202066808
 20
100.8752604911233
 10
39.22957235094418
 20
101.4565573863001
 10
39.23686188385818
 20
102.1814636122626
 10
39.24963452723114
 20
103.4516367238575
 10
39.25909542765567
 20
104.5704991235953
 10
39.26581572851501
 20
105.5557238826641
 10
39.27438209592674
 20
106.8115898691885
 10
40.93435961921841
 20
107.2494469362828
 10
41.56810260107704
 20
106.1651764019116
 97
        0
 97
        0
 92
        1
 93
        1
 72
     4
 94
        3
 73
     0
 74
     1
 95
       35
 96
       31
 40
0.0
 40
0.0
 40
0.0
 40
0.0
 40
1.0
 40
1.0
 40
1.0
 40
2.0
 40
2.0
 40
2.0
 40
3.0
 40
3.0
 40
3.0
 40
4.0
 40
4.0
 40
4.0
 40
5.0
 40
5.0
 40
5.0
 40
6.0
 40
6.0
 40
6.0
 40
7.0
 40
7.0
 40
7.0
 40
8.0
 40
8.0
 40
8.0
 40
9.0
 40
9.0
 40
9.0
 40
10.0
 40
10.0
 40
10.0
 40
10.0
 10
25.62111857700074
 20
98.35272515059296
 10
25.62111857700074
 20
98.35272515059296
 10
40.40548148873495
 20
99.49700996937008
 10
40.40548148873495
 20
99.49700996937008
 10
41.12340981499892
 20
99.55257641410753
 10
41.73660411106357
 20
98.98500839737244
 10
41.73660411106357
 20
98.26493290728013
 10
41.73660411106357
 20
98.26493290728013
 10
41.73660411106357
 20
98.01925926321564
 10
41.73660411106357
 20
98.01925926321564
 10
41.73660411106357
 20
97.69603269344043
 10
41.60996327513476
 20
97.38567157250418
 10
41.38383287476427
 20
97.15471604120648
 10
41.38383287476427
 20
97.15471604120648
 10
36.57548938685159
 20
92.2437729610474
 10
36.57548938685159
 20
92.2437729610474
 10
36.3120788746055
 20
91.974741841369
 10
35.94038732376885
 20
91.84047486157488
 10
35.56585564846137
 20
91.87906068161556
 10
35.56585564846137
 20
91.87906068161556
 10
25.76900132449737
 20
92.88837359913668
 10
25.76900132449737
 20
92.88837359913668
 10
25.1667467577372
 20
92.95042038413249
 10
24.69813351592529
 20
93.43966474135686
 10
24.66207594016487
 20
94.04403235956761
 10
24.66207594016487
 20
94.04403235956761
 10
24.48291084030643
 20
97.04705134749202
 10
24.48291084030643
 20
97.04705134749202
 10
24.44277093903111
 20
97.71984356986832
 10
24.94913975079635
 20
98.30071511986353
 10
25.62111857700074
 20
98.35272515059296
 97
        0
 97
        0
 92
        1
 93
        1
 72
     4
 94
        3
 73
     0
 74
     1
 95
       56
 96
       52
 40
0.0
 40
0.0
 40
0.0
 40
0.0
 40
1.0
 40
1.0
 40
1.0
 40
2.0
 40
2.0
 40
2.0
 40
3.0
 40
3.0
 40
3.0
 40
4.0
 40
4.0
 40
4.0
 40
5.0
 40
5.0
 40
5.0
 40
6.0
 40
6.0
 40
6.0
 40
7.0
 40
7.0
 40
7.0
 40
8.0
 40
8.0
 40
8.0
 40
9.0
 40
9.0
 40
9.0
 40
10.0
 40
10.0
 40
10.0
 40
11.0
 40
11.0
 40
11.0
 40
12.0
 40
12.0
 40
12.0
 40
13.0
 40
13.0
 40
13.0
 40
14.0
 40
14.0
 40
14.0
 40
15.0
 40
15.0
 40
15.0
 40
16.0
 40
16.0
 40
16.0
 40
17.0
 40
17.0
 40
17.0
 40
17.0
 10
36.35360087620029
 20
90.373046875
 10
36.37760104404697
 20
90.37103271484375
 10
36.40260066257724
 20
90.3690185546875
 10
36.42660083042392
 20
90.3690185546875
 10
36.61560000644931
 20
90.3690185546875
 10
36.7996000217081
 20
90.44500732421875
 10
36.93259944187412
 20
90.58203125
 10
36.93259944187412
 20
90.58203125
 10
40.26487592556168
 20
93.98571981958412
 10
40.26487592556168
 20
93.98571981958412
 10
40.97331138369736
 20
94.70933734740629
 10
42.2036200515231
 20
94.32041555033175
 10
42.36739904553724
 20
93.32107598540188
 10
42.36739904553724
 20
93.32107598540188
 10
44.34358050983701
 20
81.26289760522286
 10
44.34358050983701
 20
81.26289760522286
 10
44.48678209832997
 20
80.38911636116336
 10
43.69155596841847
 20
79.65268821565587
 10
42.8313247072856
 20
79.86245602726558
 10
42.8313247072856
 20
79.86245602726558
 10
39.80659999119052
 20
80.60003662109375
 10
39.80659999119052
 20
80.60003662109375
 10
39.70760096775302
 20
80.6710205078125
 10
39.5855993198038
 20
80.676025390625
 10
39.43159999119052
 20
80.676025390625
 10
39.40659846531162
 20
80.676025390625
 10
39.38260020481357
 20
80.666015625
 10
39.35759867893466
 20
80.66302490234375
 10
39.33859767185459
 20
80.6610107421875
 10
39.32059993015537
 20
80.65704345703125
 10
39.30159892307529
 20
80.65301513671875
 10
39.23859919773349
 20
80.6409912109375
 10
39.17859782444248
 20
80.62200927734375
 10
39.12159861789951
 20
80.593017578125
 10
39.10959758030185
 20
80.5880126953125
 10
39.0965970920206
 20
80.5880126953125
 10
39.08459986912021
 20
80.58099365234375
 10
32.96528463745472
 20
77.20486925025943
 10
28.88720255391945
 20
74.91501373832125
 10
26.16766491044018
 20
73.34318484238611
 10
25.14498892573738
 20
72.75210213838727
 10
23.95784345942411
 20
73.79909931832299
 10
24.41163968580349
 20
74.88965601908603
 10
24.41163968580349
 20
74.88965601908603
 10
30.72660579600961
 20
90.06569364617644
 10
30.72660579600961
 20
90.06569364617644
 10
30.93614763667301
 20
90.56926164683682
 10
31.4510449294412
 20
90.87590222157633
 10
31.9936233450444
 20
90.82024993322193
 10
31.9936233450444
 20
90.82024993322193
 10
36.35360087620029
 20
90.373046875
 10
36.35360087620029
 20
90.373046875
 97
        0
 97
        0
 92
        1
 93
        1
 72
     4
 94
        3
 73
     0
 74
     1
 95
       23
 96
       19
 40
0.0
 40
0.0
 40
0.0
 40
0.0
 40
1.0
 40
1.0
 40
1.0
 40
2.0
 40
2.0
 40
2.0
 40
3.0
 40
3.0
 40
3.0
 40
4.0
 40
4.0
 40
4.0
 40
5.0
 40
5.0
 40
5.0
 40
6.0
 40
6.0
 40
6.0
 40
6.0
 10
23.6864512517468
 20
70.23395429981974
 10
26.27591352971103
 20
71.79004601401994
 10
31.27530484201452
 20
74.61696334386488
 10
35.75748440416555
 20
77.11533851347849
 10
36.71162291241399
 20
77.64717708092667
 10
37.83516978012904
 20
76.76861776389069
 10
37.5511198158365
 20
75.71384377268078
 10
37.5511198158365
 20
75.71384377268078
 10
33.21325675863409
 20
59.60588494376316
 10
33.21325675863409
 20
59.60588494376316
 10
32.95208714151704
 20
58.63607345262062
 10
31.69869863120857
 20
58.37358800682887
 10
31.0602420404839
 20
59.14890541216664
 10
27.45488404641128
 20
63.52711506006472
 10
24.88997908006513
 20
66.61177447609225
 10
23.38711715024147
 20
68.37723323314458
 10
22.89183380205122
 20
68.95905802152538
 10
23.0315234390664
 20
69.84038697451706
 10
23.6864512517468
 20
70.23395429981974
 97
        0
 97
        0
 92
        1
 93
        1
 72
     4
 94
        3
 73
     0
 74
     1
 95
       23
 96
       19
 40
0.0
 40
0.0
 40
0.0
 40
0.0
 40
1.0
 40
1.0
 40
1.0
 40
2.0
 40
2.0
 40
2.0
 40
3.0
 40
3.0
 40
3.0
 40
4.0
 40
4.0
 40
4.0
 40
5.0
 40
5.0
 40
5.0
 40
6.0
 40
6.0
 40
6.0
 40
6.0
 10
36.51151694384589
 20
34.31835187013166
 10
36.51151694384589
 20
34.31835187013166
 10
31.52471681523002
 20
46.95078465124607
 10
31.52471681523002
 20
46.95078465124607
 10
31.42723746960201
 20
47.1977168020112
 10
31.41187047856147
 20
47.46947644238389
 10
31.48089126468494
 20
47.72582355274244
 10
31.48089126468494
 20
47.72582355274244
 10
36.4305782575575
 20
66.1092414919267
 10
36.4305782575575
 20
66.1092414919267
 10
36.80543702656632
 20
67.50148819940296
 10
38.85519950167873
 20
67.23898117495992
 10
38.85963765955967
 20
65.79715930873044
 10
38.88815861402054
 20
56.53157279983679
 10
38.89653118486331
 20
44.38636212781785
 10
38.89673167511864
 20
34.76858914705372
 10
38.89676010502262
 20
33.40477043200372
 10
37.01229277350285
 20
33.0497995232563
 10
36.51151694384589
 20
34.31835187013166
 97
        0
 97
        0
 92
        1
 93
        1
 72
     4
 94
        3
 73
     0
 74
     1
 95
       26
 96
       22
 40
0.0
 40
0.0
 40
0.0
 40
0.0
 40
1.0
 40
1.0
 40
1.0
 40
2.0
 40
2.0
 40
2.0
 40
3.0
 40
3.0
 40
3.0
 40
4.0
 40
4.0
 40
4.0
 40
5.0
 40
5.0
 40
5.0
 40
6.0
 40
6.0
 40
6.0
 40
7.0
 40
7.0
 40
7.0
 40
7.0
 10
40.30460108982334
 20
52.2640380859375
 10
40.29660166965732
 20
59.1910400390625
 10
40.28260173069248
 20
66.1180419921875
 10
40.25660075412998
 20
71.31402587890625
 10
40.25159968601474
 20
72.375
 10
40.24660243259677
 20
73.30902099609375
 10
40.24160136448154
 20
74.14300537109375
 10
41.91722118756752
 20
68.06958752150513
 10
44.71935294528066
 20
58.21327370700601
 10
47.3231596231908
 20
49.11488621958779
 10
47.52711289076433
 20
48.40221969428421
 10
47.06098354104415
 20
47.67595674906806
 10
46.32899881344838
 20
47.55895730373231
 10
46.32899881344838
 20
47.55895730373231
 10
41.73986959285412
 20
46.82543711793551
 10
41.73986959285412
 20
46.82543711793551
 10
40.98962385188042
 20
46.70551885700661
 10
40.30986997781656
 20
47.27958898540965
 10
40.30906205690553
 20
48.03935763994559
 10
40.30757504924713
 20
49.4377393289742
 10
40.30608701553319
 20
50.85088870745494
 10
40.30460108982334
 20
52.2640380859375
 97
        0
 97
        0
 92
        1
 93
        1
 72
     4
 94
        3
 73
     0
 74
     1
 95
       53
 96
       49
 40
0.0
 40
0.0
 40
0.0
 40
0.0
 40
1.0
 40
1.0
 40
1.0
 40
2.0
 40
2.0
 40
2.0
 40
3.0
 40
3.0
 40
3.0
 40
4.0
 40
4.0
 40
4.0
 40
5.0
 40
5.0
 40
5.0
 40
6.0
 40
6.0
 40
6.0
 40
7.0
 40
7.0
 40
7.0
 40
8.0
 40
8.0
 40
8.0
 40
9.0
 40
9.0
 40
9.0
 40
10.0
 40
10.0
 40
10.0
 40
11.0
 40
11.0
 40
11.0
 40
12.0
 40
12.0
 40
12.0
 40
13.0
 40
13.0
 40
13.0
 40
14.0
 40
14.0
 40
14.0
 40
15.0
 40
15.0
 40
15.0
 40
16.0
 40
16.0
 40
16.0
 40
16.0
 10
48.81530093283891
 20
49.04994260152489
 10
46.06517382279981
 20
58.66380323169506
 10
42.49011947972667
 20
71.25640255462986
 10
40.92577565774354
 20
76.98294186310522
 10
40.67777809648669
 20
77.8907779557785
 10
41.49702696493023
 20
78.72869263738085
 10
42.41137373682704
 20
78.50589420320466
 10
42.41137373682704
 20
78.50589420320466
 10
76.9067535866252
 20
70.10042173578404
 10
76.9067535866252
 20
70.10042173578404
 10
77.88480336725479
 20
69.86210082038451
 10
78.18279422439082
 20
68.61697197770627
 10
77.41860636453748
 20
67.96168948369268
 10
77.41860636453748
 20
67.96168948369268
 10
66.47659816013584
 20
58.57904052734375
 10
66.47659816013584
 20
58.57904052734375
 10
66.45559825168857
 20
58.56005859375
 10
66.44559993015537
 20
58.5340576171875
 10
66.42659892307529
 20
58.5140380859375
 10
66.38359965549716
 20
58.467041015625
 10
66.34259928928623
 20
58.4210205078125
 10
66.31359996067295
 20
58.36602783203125
 10
66.29559840427646
 20
58.33203125
 10
66.28859843479404
 20
58.2950439453125
 10
66.27660121189365
 20
58.259033203125
 10
66.25760020481357
 20
58.20404052734375
 10
66.24360026584873
 20
58.15106201171875
 10
66.23860301243076
 20
58.093017578125
 10
66.23760356174716
 20
58.0770263671875
 10
66.22860469089755
 20
58.06500244140625
 10
66.22860469089755
 20
58.04901123046875
 10
66.22860469089755
 20
58.02001953125
 10
66.2426046298624
 20
57.9940185546875
 10
66.24660624729404
 20
57.96502685546875
 10
66.25060786472568
 20
57.9300537109375
 10
66.24360789524326
 20
57.89703369140625
 10
66.25260676609287
 20
57.86102294921875
 10
66.25260676609287
 20
57.86102294921875
 10
67.70701027162795
 20
52.35316733925538
 10
67.70701027162795
 20
52.35316733925538
 10
67.89365793398065
 20
51.64632885168066
 10
67.4292360401596
 20
50.93285237210148
 10
66.7073421008663
 20
50.81740914887996
 10
66.7073421008663
 20
50.81740914887996
 10
50.19647311574045
 20
48.17703799451738
 10
50.19647311574045
 20
48.17703799451738
 10
49.57908074578063
 20
48.07830636470135
 10
48.98725806277889
 20
48.44881697515848
 10
48.81530093283891
 20
49.04994260152489
 97
        0
 97
        0
 92
        1
 93
        1
 72
     4
 94
        3
 73
     0
 74
     1
 95
       29
 96
       25
 40
0.0
 40
0.0
 40
0.0
 40
0.0
 40
1.0
 40
1.0
 40
1.0
 40
2.0
 40
2.0
 40
2.0
 40
3.0
 40
3.0
 40
3.0
 40
4.0
 40
4.0
 40
4.0
 40
5.0
 40
5.0
 40
5.0
 40
6.0
 40
6.0
 40
6.0
 40
7.0
 40
7.0
 40
7.0
 40
8.0
 40
8.0
 40
8.0
 40
8.0
 10
71.69129569567122
 20
42.81353063043389
 10
71.69129569567122
 20
42.81353063043389
 10
69.2757261654242
 20
51.96401485411297
 10
69.2757261654242
 20
51.96401485411297
 10
68.96292963045926
 20
53.14892786223936
 10
70.37991941148357
 20
54.01746088234358
 10
71.29384601449237
 20
53.20100593966345
 10
71.29384601449237
 20
53.20100593966345
 10
77.43947111311172
 20
47.71082109208692
 10
77.43947111311172
 20
47.71082109208692
 10
77.58929841974168
 20
47.5769730952743
 10
77.70423252806904
 20
47.4086134858353
 10
77.77431671560407
 20
47.22032722844779
 10
77.77431671560407
 20
47.22032722844779
 10
82.88051370764697
 20
33.50215833834773
 10
82.88051370764697
 20
33.50215833834773
 10
83.3590415532799
 20
32.21655854357778
 10
81.69938733924027
 20
31.22490827060392
 10
80.79400471104054
 20
32.25546056326675
 10
80.79400471104054
 20
32.25546056326675
 10
71.95775215062349
 20
42.31333007726062
 10
71.95775215062349
 20
42.31333007726062
 10
71.83138275415877
 20
42.4571701148252
 10
71.74016526506057
 20
42.62840649381906
 10
71.69129569567122
 20
42.81353063043389
 97
        0
 97
        0
 92
        1
 93
        1
 72
     4
 94
        3
 73
     0
 74
     1
 95
       29
 96
       25
 40
0.0
 40
0.0
 40
0.0
 40
0.0
 40
1.0
 40
1.0
 40
1.0
 40
2.0
 40
2.0
 40
2.0
 40
3.0
 40
3.0
 40
3.0
 40
4.0
 40
4.0
 40
4.0
 40
5.0
 40
5.0
 40
5.0
 40
6.0
 40
6.0
 40
6.0
 40
7.0
 40
7.0
 40
7.0
 40
8.0
 40
8.0
 40
8.0
 40
8.0
 10
77.48391852455461
 20
49.57222134527728
 10
77.48391852455461
 20
49.57222134527728
 10
69.06664238524718
 20
57.09049478703309
 10
69.06664238524718
 20
57.09049478703309
 10
68.5091175299076
 20
57.58847349696953
 10
68.5179446507027
 20
58.46357472578165
 10
69.08540123627245
 20
58.95020578044932
 10
69.08540123627245
 20
58.95020578044932
 10
79.42944844393969
 20
67.82090131943824
 10
79.42944844393969
 20
67.82090131943824
 10
80.01907343649145
 20
68.32654322981398
 10
80.92347732773487
 20
68.16927448632487
 10
81.307797375468
 20
67.49427117205141
 10
81.307797375468
 20
67.49427117205141
 10
86.98241735355987
 20
57.52761105357604
 10
86.98241735355987
 20
57.52761105357604
 10
87.27697501607508
 20
57.01026255818579
 10
87.16080148428591
 20
56.35643348164376
 10
86.70605319740753
 20
55.97222302133741
 10
86.70605319740753
 20
55.97222302133741
 10
79.10466215095221
 20
49.54991415906625
 10
79.10466215095221
 20
49.54991415906625
 10
78.63430763699034
 20
49.15251821601487
 10
77.9431577826308
 20
49.16203089170813
 10
77.48391852455461
 20
49.57222134527728
 97
        0
 97
        0
 75
     2
 76
     1
 98
        0
  0
ENDSEC
  0
SECTION
  2
OBJECTS
  0
DICTIONARY
  5
C
330
0
100
AcDbDictionary
281
     1
  3
ACAD_GROUP
350
D
  3
ACAD_LAYOUT
350
1A
  3
ACAD_MATERIAL
350
3B
  3
ACAD_MLEADERSTYLE
350
4E
  3
ACAD_MLINESTYLE
350
17
  3
ACAD_PLOTSETTINGS
350
19
  3
ACAD_PLOTSTYLENAME
350
E
  3
ACAD_TABLESTYLE
350
4D
  3
ACAD_VISUALSTYLE
350
2A
  0
SUN
  5
3F
330
29
100
AcDbSun
 90
        1
290
     0
 63
     7
421
 16777215
 40
1.0
291
     1
 91
  2455826
 92
 54000000
292
     0
 70
     2
 71
   256
280
     1
  0
DICTIONARY
  5
D
102
{ACAD_REACTORS
330
C
102
}
330
C
100
AcDbDictionary
281
     1
  0
DICTIONARY
  5
1A
102
{ACAD_REACTORS
330
C
102
}
330
C
100
AcDbDictionary
281
     1
  3
Layout1
350
1E
  3
Layout2
350
26
  3
Model
350
22
  0
DICTIONARY
  5
3B
102
{ACAD_REACTORS
330
C
102
}
330
C
100
AcDbDictionary
281
     1
  3
ByBlock
350
3D
  3
ByLayer
350
3C
  3
Global
350
3E
  0
DICTIONARY
  5
4E
102
{ACAD_REACTORS
330
C
102
}
330
C
100
AcDbDictionary
281
     1
  0
DICTIONARY
  5
17
102
{ACAD_REACTORS
330
C
102
}
330
C
100
AcDbDictionary
281
     1
  3
Standard
350
18
  0
DICTIONARY
  5
19
102
{ACAD_REACTORS
330
C
102
}
330
C
100
AcDbDictionary
281
     1
  0
ACDBDICTIONARYWDFLT
  5
E
102
{ACAD_REACTORS
330
C
102
}
330
C
100
AcDbDictionary
281
     1
  3
Normal
350
F
100
AcDbDictionaryWithDefault
340
F
  0
DICTIONARY
  5
4D
102
{ACAD_REACTORS
330
C
102
}
330
C
100
AcDbDictionary
281
     1
  0
DICTIONARY
  5
2A
102
{ACAD_REACTORS
330
C
102
}
330
C
100
AcDbDictionary
281
     1
  3
2dWireframe
350
2F
  3
3D Hidden
350
31
  3
3dWireframe
350
30
  3
Basic
350
32
  3
Brighten
350
36
  3
ColorChange
350
3A
  3
Conceptual
350
34
  3
Dim
350
35
  3
Facepattern
350
39
  3
Flat
350
2B
  3
FlatWithEdges
350
2C
  3
Gouraud
350
2D
  3
GouraudWithEdges
350
2E
  3
Linepattern
350
38
  3
Realistic
350
33
  3
Thicken
350
37
  0
LAYOUT
  5
1E
102
{ACAD_REACTORS
330
1A
102
}
330
1A
100
AcDbPlotSettings
  1

  2
none_device
  4

  6

 40
0.0
 41
0.0
 42
0.0
 43
0.0
 44
0.0
 45
0.0
 46
0.0
 47
0.0
 48
0.0
 49
0.0
140
0.0
141
0.0
142
1.0
143
1.0
 70
   688
 72
     0
 73
     0
 74
     5
  7

 75
    16
 76
     0
 77
     2
 78
   300
147
1.0
148
0.0
149
0.0
100
AcDbLayout
  1
Layout1
 70
     1
 71
     1
 10
0.0
 20
0.0
 11
12.0
 21
9.0
 12
0.0
 22
0.0
 32
0.0
 14
1.000000000000000E+20
 24
1.000000000000000E+20
 34
1.000000000000000E+20
 15
-1.000000000000000E+20
 25
-1.000000000000000E+20
 35
-1.000000000000000E+20
146
0.0
 13
0.0
 23
0.0
 33
0.0
 16
1.0
 26
0.0
 36
0.0
 17
0.0
 27
1.0
 37
0.0
 76
     0
330
1B
  0
LAYOUT
  5
26
102
{ACAD_REACTORS
330
1A
102
}
330
1A
100
AcDbPlotSettings
  1

  2
none_device
  4

  6

 40
0.0
 41
0.0
 42
0.0
 43
0.0
 44
0.0
 45
0.0
 46
0.0
 47
0.0
 48
0.0
 49
0.0
140
0.0
141
0.0
142
1.0
143
1.0
 70
   688
 72
     0
 73
     0
 74
     5
  7

 75
    16
 76
     0
 77
     2
 78
   300
147
1.0
148
0.0
149
0.0
100
AcDbLayout
  1
Layout2
 70
     1
 71
     2
 10
0.0
 20
0.0
 11
0.0
 21
0.0
 12
0.0
 22
0.0
 32
0.0
 14
0.0
 24
0.0
 34
0.0
 15
0.0
 25
0.0
 35
0.0
146
0.0
 13
0.0
 23
0.0
 33
0.0
 16
1.0
 26
0.0
 36
0.0
 17
0.0
 27
1.0
 37
0.0
 76
     0
330
23
  0
LAYOUT
  5
22
102
{ACAD_REACTORS
330
1A
102
}
330
1A
100
AcDbPlotSettings
  1

  2
none_device
  4

  6

 40
0.0
 41
0.0
 42
0.0
 43
0.0
 44
0.0
 45
0.0
 46
0.0
 47
0.0
 48
0.0
 49
0.0
140
0.0
141
0.0
142
1.0
143
1.0
 70
  1712
 72
     0
 73
     0
 74
     0
  7

 75
     0
 76
     0
 77
     2
 78
   300
147
1.0
148
0.0
149
0.0
100
AcDbLayout
  1
Model
 70
     1
 71
     0
 10
0.0
 20
0.0
 11
12.0
 21
9.0
 12
0.0
 22
0.0
 32
0.0
 14
1.000000000000000E+20
 24
1.000000000000000E+20
 34
1.000000000000000E+20
 15
-1.000000000000000E+20
 25
-1.000000000000000E+20
 35
-1.000000000000000E+20
146
0.0
 13
0.0
 23
0.0
 33
0.0
 16
1.0
 26
0.0
 36
0.0
 17
0.0
 27
1.0
 37
0.0
 76
     0
330
1F
331
29
  0
MATERIAL
  5
3D
102
{ACAD_REACTORS
330
3B
102
}
330
3B
100
AcDbMaterial
  1
ByBlock
 72
     1
 94
      127
  0
MATERIAL
  5
3C
102
{ACAD_REACTORS
330
3B
102
}
330
3B
100
AcDbMaterial
  1
ByLayer
 72
     1
 94
      127
  0
MATERIAL
  5
3E
102
{ACAD_REACTORS
330
3B
102
}
330
3B
100
AcDbMaterial
  1
Global
 72
     1
 94
      127
  0
MLINESTYLE
  5
18
102
{ACAD_REACTORS
330
17
102
}
330
17
100
AcDbMlineStyle
  2
Standard
 70
     0
  3

 62
   256
 51
90.0
 52
90.0
 71
     2
 49
0.5
 62
   256
  6
BYLAYER
 49
-0.5
 62
   256
  6
BYLAYER
  0
ACDBPLACEHOLDER
  5
F
102
{ACAD_REACTORS
330
E
102
}
330
E
  0
VISUALSTYLE
  5
2F
102
{ACAD_REACTORS
330
2A
102
}
330
2A
100
AcDbVisualStyle
  2
2dWireframe
 70
     4
177
     2
291
     0
 71
     0
176
     1
 72
     2
176
     1
 73
     0
176
     1
 90
        0
176
     1
 40
-0.6
176
     1
 41
-30.0
176
     1
 62
     5
 63
     7
421
 16777215
176
     1
 74
     1
176
     1
 91
        4
176
     1
 64
     7
176
     1
 65
   257
176
     1
 75
     1
176
     1
175
     1
176
     1
 42
1.0
176
     1
 92
        0
176
     1
 66
   257
176
     1
 43
1.0
176
     1
 76
     1
176
     1
 77
     6
176
     1
 78
     2
176
     1
 67
     7
176
     1
 79
     5
176
     1
170
     0
176
     1
171
     0
176
     1
290
     0
176
     1
 93
        1
176
     1
 44
0.0
176
     1
173
     0
176
     1
  0
VISUALSTYLE
  5
31
102
{ACAD_REACTORS
330
2A
102
}
330
2A
100
AcDbVisualStyle
  2
3D Hidden
 70
     6
177
     2
291
     0
 71
     1
176
     1
 72
     2
176
     1
 73
     2
176
     1
 90
        0
176
     1
 40
-0.6
176
     1
 41
-30.0
176
     1
 62
     5
 63
     7
421
 16777215
176
     1
 74
     2
176
     1
 91
        2
176
     1
 64
     7
176
     1
 65
   257
176
     1
 75
     2
176
     1
175
     1
176
     1
 42
40.0
176
     1
 92
        0
176
     1
 66
   257
176
     1
 43
1.0
176
     1
 76
     1
176
     1
 77
     6
176
     1
 78
     2
176
     1
 67
     7
176
     1
 79
     3
176
     1
170
     0
176
     1
171
     0
176
     1
290
     0
176
     1
 93
        1
176
     1
 44
0.0
176
     1
173
     0
176
     1
  0
VISUALSTYLE
  5
30
102
{ACAD_REACTORS
330
2A
102
}
330
2A
100
AcDbVisualStyle
  2
3dWireframe
 70
     5
177
     2
291
     0
 71
     0
176
     1
 72
     2
176
     1
 73
     0
176
     1
 90
        0
176
     1
 40
-0.6
176
     1
 41
-30.0
176
     1
 62
     5
 63
     7
421
 16777215
176
     1
 74
     1
176
     1
 91
        4
176
     1
 64
     7
176
     1
 65
   257
176
     1
 75
     1
176
     1
175
     1
176
     1
 42
1.0
176
     1
 92
        0
176
     1
 66
   257
176
     1
 43
1.0
176
     1
 76
     1
176
     1
 77
     6
176
     1
 78
     2
176
     1
 67
     7
176
     1
 79
     5
176
     1
170
     0
176
     1
171
     0
176
     1
290
     0
176
     1
 93
        1
176
     1
 44
0.0
176
     1
173
     0
176
     1
  0
VISUALSTYLE
  5
32
102
{ACAD_REACTORS
330
2A
102
}
330
2A
100
AcDbVisualStyle
  2
Basic
 70
     7
177
     2
291
     1
 71
     1
176
     1
 72
     0
176
     1
 73
     1
176
     1
 90
        0
176
     1
 40
-0.6
176
     1
 41
-30.0
176
     1
 62
     5
 63
     7
421
 16777215
176
     1
 74
     0
176
     1
 91
        4
176
     1
 64
     7
176
     1
 65
   257
176
     1
 75
     1
176
     1
175
     1
176
     1
 42
1.0
176
     1
 92
        8
176
     1
 66
     7
176
     1
 43
1.0
176
     1
 76
     1
176
     1
 77
     6
176
     1
 78
     2
176
     1
 67
     7
176
     1
 79
     5
176
     1
170
     0
176
     1
171
     0
176
     1
290
     0
176
     1
 93
        1
176
     1
 44
0.0
176
     1
173
     0
176
     1
  0
VISUALSTYLE
  5
36
102
{ACAD_REACTORS
330
2A
102
}
330
2A
100
AcDbVisualStyle
  2
Brighten
 70
    12
177
     2
291
     1
 71
     2
176
     1
 72
     2
176
     1
 73
     0
176
     1
 90
        0
176
     1
 40
-0.6
176
     1
 41
-30.0
176
     1
 62
     5
 63
     7
421
 16777215
176
     1
 74
     1
176
     1
 91
        4
176
     1
 64
     7
176
     1
 65
   257
176
     1
 75
     1
176
     1
175
     1
176
     1
 42
1.0
176
     1
 92
        8
176
     1
 66
     7
176
     1
 43
1.0
176
     1
 76
     1
176
     1
 77
     6
176
     1
 78
     2
176
     1
 67
     7
176
     1
 79
     5
176
     1
170
     0
176
     1
171
     0
176
     1
290
     0
176
     1
 93
        1
176
     1
 44
50.0
176
     1
173
     0
176
     1
  0
VISUALSTYLE
  5
3A
102
{ACAD_REACTORS
330
2A
102
}
330
2A
100
AcDbVisualStyle
  2
ColorChange
 70
    16
177
     2
291
     1
 71
     2
176
     1
 72
     2
176
     1
 73
     3
176
     1
 90
        0
176
     1
 40
-0.6
176
     1
 41
-30.0
176
     1
 62
     5
 63
     8
421
  8421504
176
     1
 74
     1
176
     1
 91
        4
176
     1
 64
     7
176
     1
 65
   257
176
     1
 75
     1
176
     1
175
     1
176
     1
 42
1.0
176
     1
 92
        8
176
     1
 66
     8
424
  8421504
176
     1
 43
1.0
176
     1
 76
     1
176
     1
 77
     6
176
     1
 78
     2
176
     1
 67
     7
176
     1
 79
     5
176
     1
170
     0
176
     1
171
     0
176
     1
290
     0
176
     1
 93
        1
176
     1
 44
0.0
176
     1
173
     0
176
     1
  0
VISUALSTYLE
  5
34
102
{ACAD_REACTORS
330
2A
102
}
330
2A
100
AcDbVisualStyle
  2
Conceptual
 70
     9
177
     2
291
     0
 71
     3
176
     1
 72
     2
176
     1
 73
     0
176
     1
 90
        0
176
     1
 40
-0.6
176
     1
 41
-30.0
176
     1
 62
     5
 63
     7
421
 16777215
176
     1
 74
     2
176
     1
 91
        2
176
     1
 64
     7
176
     1
 65
   257
176
     1
 75
     1
176
     1
175
     1
176
     1
 42
40.0
176
     1
 92
        8
176
     1
 66
     7
176
     1
 43
1.0
176
     1
 76
     1
176
     1
 77
     6
176
     1
 78
     2
176
     1
 67
     7
176
     1
 79
     3
176
     1
170
     0
176
     1
171
     0
176
     1
290
     0
176
     1
 93
        1
176
     1
 44
0.0
176
     1
173
     0
176
     1
  0
VISUALSTYLE
  5
35
102
{ACAD_REACTORS
330
2A
102
}
330
2A
100
AcDbVisualStyle
  2
Dim
 70
    11
177
     2
291
     1
 71
     2
176
     1
 72
     2
176
     1
 73
     0
176
     1
 90
        0
176
     1
 40
-0.6
176
     1
 41
-30.0
176
     1
 62
     5
 63
     7
421
 16777215
176
     1
 74
     1
176
     1
 91
        4
176
     1
 64
     7
176
     1
 65
   257
176
     1
 75
     1
176
     1
175
     1
176
     1
 42
1.0
176
     1
 92
        8
176
     1
 66
     7
176
     1
 43
1.0
176
     1
 76
     1
176
     1
 77
     6
176
     1
 78
     2
176
     1
 67
     7
176
     1
 79
     5
176
     1
170
     0
176
     1
171
     0
176
     1
290
     0
176
     1
 93
        1
176
     1
 44
-50.0
176
     1
173
     0
176
     1
  0
VISUALSTYLE
  5
39
102
{ACAD_REACTORS
330
2A
102
}
330
2A
100
AcDbVisualStyle
  2
Facepattern
 70
    15
177
     2
291
     1
 71
     2
176
     1
 72
     2
176
     1
 73
     0
176
     1
 90
        0
176
     1
 40
-0.6
176
     1
 41
-30.0
176
     1
 62
     5
 63
     7
421
 16777215
176
     1
 74
     1
176
     1
 91
        4
176
     1
 64
     7
176
     1
 65
   257
176
     1
 75
     1
176
     1
175
     1
176
     1
 42
1.0
176
     1
 92
        8
176
     1
 66
     7
176
     1
 43
1.0
176
     1
 76
     1
176
     1
 77
     6
176
     1
 78
     2
176
     1
 67
     7
176
     1
 79
     5
176
     1
170
     0
176
     1
171
     0
176
     1
290
     0
176
     1
 93
        1
176
     1
 44
0.0
176
     1
173
     0
176
     1
  0
VISUALSTYLE
  5
2B
102
{ACAD_REACTORS
330
2A
102
}
330
2A
100
AcDbVisualStyle
  2
Flat
 70
     0
177
     2
291
     1
 71
     2
176
     1
 72
     1
176
     1
 73
     1
176
     1
 90
        2
176
     1
 40
-0.6
176
     1
 41
30.0
176
     1
 62
     5
 63
     7
421
 16777215
176
     1
 74
     0
176
     1
 91
        4
176
     1
 64
     7
176
     1
 65
   257
176
     1
 75
     1
176
     1
175
     1
176
     1
 42
1.0
176
     1
 92
        8
176
     1
 66
     7
176
     1
 43
1.0
176
     1
 76
     1
176
     1
 77
     6
176
     1
 78
     2
176
     1
 67
     7
176
     1
 79
     5
176
     1
170
     0
176
     1
171
     0
176
     1
290
     0
176
     1
 93
       13
176
     1
 44
0.0
176
     1
173
     0
176
     1
  0
VISUALSTYLE
  5
2C
102
{ACAD_REACTORS
330
2A
102
}
330
2A
100
AcDbVisualStyle
  2
FlatWithEdges
 70
     1
177
     2
291
     1
 71
     2
176
     1
 72
     1
176
     1
 73
     1
176
     1
 90
        2
176
     1
 40
-0.6
176
     1
 41
30.0
176
     1
 62
     5
 63
     7
421
 16777215
176
     1
 74
     1
176
     1
 91
        4
176
     1
 64
     7
176
     1
 65
   257
176
     1
 75
     1
176
     1
175
     1
176
     1
 42
1.0
176
     1
 92
        0
176
     1
 66
   257
176
     1
 43
1.0
176
     1
 76
     1
176
     1
 77
     6
176
     1
 78
     2
176
     1
 67
     7
176
     1
 79
     5
176
     1
170
     0
176
     1
171
     0
176
     1
290
     0
176
     1
 93
       13
176
     1
 44
0.0
176
     1
173
     0
176
     1
  0
VISUALSTYLE
  5
2D
102
{ACAD_REACTORS
330
2A
102
}
330
2A
100
AcDbVisualStyle
  2
Gouraud
 70
     2
177
     2
291
     1
 71
     2
176
     1
 72
     2
176
     1
 73
     1
176
     1
 90
        2
176
     1
 40
-0.6
176
     1
 41
30.0
176
     1
 62
     5
 63
     7
421
 16777215
176
     1
 74
     0
176
     1
 91
        4
176
     1
 64
     7
176
     1
 65
   257
176
     1
 75
     1
176
     1
175
     1
176
     1
 42
1.0
176
     1
 92
        0
176
     1
 66
     7
176
     1
 43
1.0
176
     1
 76
     1
176
     1
 77
     6
176
     1
 78
     2
176
     1
 67
     7
176
     1
 79
     5
176
     1
170
     0
176
     1
171
     0
176
     1
290
     0
176
     1
 93
       13
176
     1
 44
0.0
176
     1
173
     0
176
     1
  0
VISUALSTYLE
  5
2E
102
{ACAD_REACTORS
330
2A
102
}
330
2A
100
AcDbVisualStyle
  2
GouraudWithEdges
 70
     3
177
     2
291
     1
 71
     2
176
     1
 72
     2
176
     1
 73
     1
176
     1
 90
        2
176
     1
 40
-0.6
176
     1
 41
30.0
176
     1
 62
     5
 63
     7
421
 16777215
176
     1
 74
     1
176
     1
 91
        4
176
     1
 64
     7
176
     1
 65
   257
176
     1
 75
     1
176
     1
175
     1
176
     1
 42
1.0
176
     1
 92
        0
176
     1
 66
   257
176
     1
 43
1.0
176
     1
 76
     1
176
     1
 77
     6
176
     1
 78
     2
176
     1
 67
     7
176
     1
 79
     5
176
     1
170
     0
176
     1
171
     0
176
     1
290
     0
176
     1
 93
       13
176
     1
 44
0.0
176
     1
173
     0
176
     1
  0
VISUALSTYLE
  5
38
102
{ACAD_REACTORS
330
2A
102
}
330
2A
100
AcDbVisualStyle
  2
Linepattern
 70
    14
177
     2
291
     1
 71
     2
176
     1
 72
     2
176
     1
 73
     0
176
     1
 90
        0
176
     1
 40
-0.6
176
     1
 41
-30.0
176
     1
 62
     5
 63
     7
421
 16777215
176
     1
 74
     1
176
     1
 91
        4
176
     1
 64
     7
176
     1
 65
   257
176
     1
 75
     7
176
     1
175
     7
176
     1
 42
1.0
176
     1
 92
        8
176
     1
 66
     7
176
     1
 43
1.0
176
     1
 76
     1
176
     1
 77
     6
176
     1
 78
     2
176
     1
 67
     7
176
     1
 79
     5
176
     1
170
     0
176
     1
171
     0
176
     1
290
     0
176
     1
 93
        1
176
     1
 44
0.0
176
     1
173
     0
176
     1
  0
VISUALSTYLE
  5
33
102
{ACAD_REACTORS
330
2A
102
}
330
2A
100
AcDbVisualStyle
  2
Realistic
 70
     8
177
     2
291
     0
 71
     2
176
     1
 72
     2
176
     1
 73
     0
176
     1
 90
        0
176
     1
 40
-0.6
176
     1
 41
-30.0
176
     1
 62
     5
 63
     7
421
 16777215
176
     1
 74
     1
176
     1
 91
        0
176
     1
 64
     7
176
     1
 65
   257
176
     1
 75
     1
176
     1
175
     1
176
     1
 42
1.0
176
     1
 92
        8
176
     1
 66
     8
424
  7895160
176
     1
 43
1.0
176
     1
 76
     1
176
     1
 77
     6
176
     1
 78
     2
176
     1
 67
     7
176
     1
 79
     5
176
     1
170
     0
176
     1
171
     0
176
     1
290
     0
176
     1
 93
       13
176
     1
 44
0.0
176
     1
173
     0
176
     1
  0
VISUALSTYLE
  5
37
102
{ACAD_REACTORS
330
2A
102
}
330
2A
100
AcDbVisualStyle
  2
Thicken
 70
    13
177
     2
291
     1
 71
     2
176
     1
 72
     2
176
     1
 73
     0
176
     1
 90
        0
176
     1
 40
-0.6
176
     1
 41
-30.0
176
     1
 62
     5
 63
     7
421
 16777215
176
     1
 74
     1
176
     1
 91
        4
176
     1
 64
     7
176
     1
 65
   257
176
     1
 75
     1
176
     1
175
     1
176
     1
 42
1.0
176
     1
 92
       12
176
     1
 66
     7
176
     1
 43
1.0
176
     1
 76
     1
176
     1
 77
     6
176
     1
 78
     2
176
     1
 67
     7
176
     1
 79
     5
176
     1
170
     0
176
     1
171
     0
176
     1
290
     0
176
     1
 93
        1
176
     1
 44
0.0
176
     1
173
     0
176
     1
  0
ENDSEC
  0
EOF
