<svg xmlns="http://www.w3.org/2000/svg" xmlns:xlink="http://www.w3.org/1999/xlink" version="1.1" x="0px" y="0px" viewBox="325.5 318.5 100 125" enable-background="new 325.5 318.5 100 100" xml:space="preserve"><path fill="#000000" d="M408.363,352.268l-6.056-0.645l-0.66-3.095c-0.039-0.182-0.146-0.34-0.301-0.442l-10.163-6.775  c-0.03-0.021-0.065-0.024-0.098-0.04c-0.022-0.011-0.039-0.03-0.062-0.039c-0.016-0.006-0.032-0.001-0.048-0.005  c-0.063-0.018-0.126-0.021-0.19-0.021c-0.037,0-0.071-0.005-0.107,0.001c-0.087,0.014-0.169,0.045-0.246,0.09  c-0.009,0.005-0.021,0.005-0.029,0.011l-9.102,5.941c-0.006,0.004-0.007,0.011-0.013,0.014c-0.092,0.063-0.166,0.148-0.22,0.249  c-0.014,0.026-0.018,0.053-0.028,0.079c-0.019,0.049-0.045,0.094-0.053,0.148l-2.213,14.95c-0.027,0.007-0.055,0.004-0.081,0.014  l-22.1,8.375c-0.012,0.004-0.019,0.015-0.029,0.02c-0.062,0.027-0.117,0.069-0.171,0.114c-0.024,0.021-0.053,0.035-0.073,0.059  c-0.006,0.006-0.013,0.008-0.018,0.014l-2.035,2.413l-2.025-1.813l-3.184-10.21c-0.104-0.335-0.444-0.546-0.783-0.489  c-0.347,0.053-0.603,0.35-0.603,0.7v13.854c0,0.086,0.016,0.171,0.046,0.251l1.505,3.981l-1.538,7.969  c-0.005,0.027,0.006,0.054,0.004,0.081c-0.004,0.047-0.017,0.093-0.011,0.142l0.879,7.026c0.003,0.021,0.019,0.037,0.023,0.058  c0.019,0.085,0.05,0.162,0.096,0.233c0.017,0.025,0.03,0.05,0.05,0.073c0.072,0.086,0.158,0.158,0.263,0.202  c0.001,0,0.002,0.002,0.003,0.002c0.087,0.035,0.178,0.053,0.269,0.053h10.557c0.242,0,0.468-0.124,0.598-0.328  c0.13-0.205,0.146-0.461,0.044-0.681c-1.028-2.2-2.124-4.623-2.541-5.65l2.182-1.727l6.41-0.747l8.111,5.812l2.451,2.94  c0.131,0.157,0.323,0.25,0.528,0.254l5.615,0.126c0.005,0.001,0.011,0.001,0.016,0.001c0.353,0,0.652-0.26,0.702-0.61l1.881-13.323  l5.914-5.916c0.066-0.065,0.119-0.145,0.155-0.232c0.029-0.071,0.04-0.147,0.045-0.224c0.001-0.017,0.01-0.03,0.01-0.047  c0-0.395,0.218-6.447,0.309-8.923l2.876-6.344l8.183,0.361c0.011,0,0.021,0.001,0.031,0.001c0,0,0,0,0.001,0l0,0  c0.003,0,0.005-0.002,0.008-0.002c0.107-0.001,0.211-0.029,0.306-0.076c0.005-0.003,0.011-0.001,0.016-0.004l4.768-2.51  c0.224-0.117,0.367-0.345,0.378-0.597l0.184-4.36C409.012,352.629,408.734,352.308,408.363,352.268z M390.408,342.996l4.642,13.922  l-3.846,8.482l-7.646-3.878l-1.128-13.318L390.408,342.996z M376.246,389.443l5.251-35.468l0.683,8.06  c0.021,0.245,0.167,0.461,0.386,0.572l8.254,4.187c-0.06,1.62-0.255,7.012-0.292,8.362L376.246,389.443z M378.539,364.277  l-3.918,26.466l-7.408-5.308l-9.269-13.354L378.539,364.277z M349.261,387.258l1.358-7.035l6.171-7.318l8.653,12.469  L349.261,387.258z M349.091,366.536l1.856,5.955c0.038,0.122,0.108,0.231,0.204,0.317l2.202,1.973l-3.159,3.746l-1.104-2.92V366.536  z M358.706,394.391h-7.408l5.468-4.329C357.094,390.853,357.675,392.168,358.706,394.391z M356.944,388.113  c-0.255,0.039-0.464,0.203-0.553,0.438l-6.584,5.212l-0.634-5.068l8.249-0.96L356.944,388.113z M382.618,394.377l-4.664-0.104  l-2.061-2.472l8.254-8.257L382.618,394.377z M395.753,358.799l0.702-1.549c0.073-0.163,0.083-0.348,0.026-0.518l-4.366-13.097  l8.206,5.47l2.131,9.989L395.753,358.799z M407.414,356.896l-3.579,1.885l-1.216-5.698l4.933,0.525L407.414,356.896z"/><text x="325.5" y="433.5" fill="#000000" font-size="5px" font-weight="bold" font-family="'Helvetica Neue', Helvetica, Arial-Unicode, Arial, Sans-serif">Created by Agne Alesiute</text><text x="325.5" y="438.5" fill="#000000" font-size="5px" font-weight="bold" font-family="'Helvetica Neue', Helvetica, Arial-Unicode, Arial, Sans-serif">from the Noun Project</text></svg>