  0
SECTION
  2
HEADER
  9
$ACADVER
  1
AC1024
  9
$ACADMAINTVER
 70
     6
  9
$DWGCODEPAGE
  3
UNDEFINED
  9
$INSBASE
 10
0.0
 20
0.0
 30
0.0
  9
$EXTMIN
 10
1.000000000000000E+20
 20
1.000000000000000E+20
 30
1.000000000000000E+20
  9
$EXTMAX
 10
-1.000000000000000E+20
 20
-1.000000000000000E+20
 30
-1.000000000000000E+20
  9
$LIMMIN
 10
0.0
 20
0.0
  9
$LIMMAX
 10
12.0
 20
9.0
  9
$ORTHOMODE
 70
     0
  9
$REGENMODE
 70
     1
  9
$FILLMODE
 70
     1
  9
$QTEXTMODE
 70
     0
  9
$MIRRTEXT
 70
     1
  9
$LTSCALE
 40
1.0
  9
$ATTMODE
 70
     1
  9
$TEXTSIZE
 40
0.2
  9
$TRACEWID
 40
0.05
  9
$TEXTSTYLE
  7
Standard
  9
$CLAYER
  8
0
  9
$CELTYPE
  6
ByLayer
  9
$CECOLOR
 62
   256
  9
$CELTSCALE
 40
1.0
  9
$DISPSILH
 70
     0
  9
$DIMSCALE
 40
1.0
  9
$DIMASZ
 40
0.18
  9
$DIMEXO
 40
0.0625
  9
$DIMDLI
 40
0.38
  9
$DIMRND
 40
0.0
  9
$DIMDLE
 40
0.0
  9
$DIMEXE
 40
0.18
  9
$DIMTP
 40
0.0
  9
$DIMTM
 40
0.0
  9
$DIMTXT
 40
0.18
  9
$DIMCEN
 40
0.09
  9
$DIMTSZ
 40
0.0
  9
$DIMTOL
 70
     0
  9
$DIMLIM
 70
     0
  9
$DIMTIH
 70
     1
  9
$DIMTOH
 70
     1
  9
$DIMSE1
 70
     0
  9
$DIMSE2
 70
     0
  9
$DIMTAD
 70
     0
  9
$DIMZIN
 70
     0
  9
$DIMBLK
  1

  9
$DIMASO
 70
     1
  9
$DIMSHO
 70
     1
  9
$DIMPOST
  1

  9
$DIMAPOST
  1

  9
$DIMALT
 70
     0
  9
$DIMALTD
 70
     2
  9
$DIMALTF
 40
25.4
  9
$DIMLFAC
 40
1.0
  9
$DIMTOFL
 70
     0
  9
$DIMTVP
 40
0.0
  9
$DIMTIX
 70
     0
  9
$DIMSOXD
 70
     0
  9
$DIMSAH
 70
     0
  9
$DIMBLK1
  1

  9
$DIMBLK2
  1

  9
$DIMSTYLE
  2
Standard
  9
$DIMCLRD
 70
     0
  9
$DIMCLRE
 70
     0
  9
$DIMCLRT
 70
     0
  9
$DIMTFAC
 40
1.0
  9
$DIMGAP
 40
0.09
  9
$DIMJUST
 70
     0
  9
$DIMSD1
 70
     0
  9
$DIMSD2
 70
     0
  9
$DIMTOLJ
 70
     1
  9
$DIMTZIN
 70
     0
  9
$DIMALTZ
 70
     0
  9
$DIMALTTZ
 70
     0
  9
$DIMUPT
 70
     0
  9
$DIMDEC
 70
     4
  9
$DIMTDEC
 70
     4
  9
$DIMALTU
 70
     2
  9
$DIMALTTD
 70
     2
  9
$DIMTXSTY
  7
Standard
  9
$DIMAUNIT
 70
     0
  9
$DIMADEC
 70
     0
  9
$DIMALTRND
 40
0.0
  9
$DIMAZIN
 70
     0
  9
$DIMDSEP
 70
    46
  9
$DIMATFIT
 70
     3
  9
$DIMFRAC
 70
     0
  9
$DIMLDRBLK
  1

  9
$DIMLUNIT
 70
     2
  9
$DIMLWD
 70
    -2
  9
$DIMLWE
 70
    -2
  9
$DIMTMOVE
 70
     0
  9
$DIMFXL
 40
1.0
  9
$DIMFXLON
 70
     0
  9
$DIMJOGANG
 40
0.7853981633974483
  9
$DIMTFILL
 70
     0
  9
$DIMTFILLCLR
 70
     0
  9
$DIMARCSYM
 70
     0
  9
$DIMLTYPE
  6

  9
$DIMLTEX1
  6

  9
$DIMLTEX2
  6

  9
$DIMTXTDIRECTION
 70
     0
  9
$LUNITS
 70
     2
  9
$LUPREC
 70
     4
  9
$SKETCHINC
 40
0.1
  9
$FILLETRAD
 40
0.5
  9
$AUNITS
 70
     0
  9
$AUPREC
 70
     0
  9
$MENU
  1
.
  9
$ELEVATION
 40
0.0
  9
$PELEVATION
 40
0.0
  9
$THICKNESS
 40
0.0
  9
$LIMCHECK
 70
     0
  9
$CHAMFERA
 40
0.5
  9
$CHAMFERB
 40
0.5
  9
$CHAMFERC
 40
1.0
  9
$CHAMFERD
 40
0.0
  9
$SKPOLY
 70
     0
  9
$TDCREATE
 40
2457525.502037026
  9
$TDUCREATE
 40
2457525.71037037
  9
$TDUPDATE
 40
2457525.502037026
  9
$TDUUPDATE
 40
2457525.71037037
  9
$TDINDWG
 40
0.0000000116
  9
$TDUSRTIMER
 40
0.0000000116
  9
$USRTIMER
 70
     1
  9
$ANGBASE
 50
0.0
  9
$ANGDIR
 70
     0
  9
$PDMODE
 70
     0
  9
$PDSIZE
 40
0.0
  9
$PLINEWID
 40
0.0
  9
$SPLFRAME
 70
     0
  9
$SPLINETYPE
 70
     6
  9
$SPLINESEGS
 70
     8
  9
$HANDSEED
  5
70
  9
$SURFTAB1
 70
     6
  9
$SURFTAB2
 70
     6
  9
$SURFTYPE
 70
     6
  9
$SURFU
 70
     6
  9
$SURFV
 70
     6
  9
$UCSBASE
  2

  9
$UCSNAME
  2

  9
$UCSORG
 10
0.0
 20
0.0
 30
0.0
  9
$UCSXDIR
 10
1.0
 20
0.0
 30
0.0
  9
$UCSYDIR
 10
0.0
 20
1.0
 30
0.0
  9
$UCSORTHOREF
  2

  9
$UCSORTHOVIEW
 70
     0
  9
$UCSORGTOP
 10
0.0
 20
0.0
 30
0.0
  9
$UCSORGBOTTOM
 10
0.0
 20
0.0
 30
0.0
  9
$UCSORGLEFT
 10
0.0
 20
0.0
 30
0.0
  9
$UCSORGRIGHT
 10
0.0
 20
0.0
 30
0.0
  9
$UCSORGFRONT
 10
0.0
 20
0.0
 30
0.0
  9
$UCSORGBACK
 10
0.0
 20
0.0
 30
0.0
  9
$PUCSBASE
  2

  9
$PUCSNAME
  2

  9
$PUCSORG
 10
0.0
 20
0.0
 30
0.0
  9
$PUCSXDIR
 10
1.0
 20
0.0
 30
0.0
  9
$PUCSYDIR
 10
0.0
 20
1.0
 30
0.0
  9
$PUCSORTHOREF
  2

  9
$PUCSORTHOVIEW
 70
     0
  9
$PUCSORGTOP
 10
0.0
 20
0.0
 30
0.0
  9
$PUCSORGBOTTOM
 10
0.0
 20
0.0
 30
0.0
  9
$PUCSORGLEFT
 10
0.0
 20
0.0
 30
0.0
  9
$PUCSORGRIGHT
 10
0.0
 20
0.0
 30
0.0
  9
$PUCSORGFRONT
 10
0.0
 20
0.0
 30
0.0
  9
$PUCSORGBACK
 10
0.0
 20
0.0
 30
0.0
  9
$USERI1
 70
     0
  9
$USERI2
 70
     0
  9
$USERI3
 70
     0
  9
$USERI4
 70
     0
  9
$USERI5
 70
     0
  9
$USERR1
 40
0.0
  9
$USERR2
 40
0.0
  9
$USERR3
 40
0.0
  9
$USERR4
 40
0.0
  9
$USERR5
 40
0.0
  9
$WORLDVIEW
 70
     1
  9
$SHADEDGE
 70
     3
  9
$SHADEDIF
 70
    70
  9
$TILEMODE
 70
     1
  9
$MAXACTVP
 70
    64
  9
$PINSBASE
 10
0.0
 20
0.0
 30
0.0
  9
$PLIMCHECK
 70
     0
  9
$PEXTMIN
 10
1.000000000000000E+20
 20
1.000000000000000E+20
 30
1.000000000000000E+20
  9
$PEXTMAX
 10
-1.000000000000000E+20
 20
-1.000000000000000E+20
 30
-1.000000000000000E+20
  9
$PLIMMIN
 10
0.0
 20
0.0
  9
$PLIMMAX
 10
12.0
 20
9.0
  9
$UNITMODE
 70
     0
  9
$VISRETAIN
 70
     1
  9
$PLINEGEN
 70
     0
  9
$PSLTSCALE
 70
     1
  9
$TREEDEPTH
 70
  3020
  9
$CMLSTYLE
  2
Standard
  9
$CMLJUST
 70
     0
  9
$CMLSCALE
 40
1.0
  9
$PROXYGRAPHICS
 70
     1
  9
$MEASUREMENT
 70
     0
  9
$CELWEIGHT
370
    -1
  9
$ENDCAPS
280
     0
  9
$JOINSTYLE
280
     0
  9
$LWDISPLAY
290
     1
  9
$INSUNITS
 70
     1
  9
$HYPERLINKBASE
  1

  9
$STYLESHEET
  1

  9
$XEDIT
290
     1
  9
$CEPSNTYPE
380
     0
  9
$PSTYLEMODE
290
     1
  9
$FINGERPRINTGUID
  2
{5B4E9D12-C6EA-C454-6D54-EBAF71DAD9FC}
  9
$VERSIONGUID
  2
{FAEB1C32-E019-11D5-929B-00C0DF256EC4}
  9
$EXTNAMES
290
     1
  9
$PSVPSCALE
 40
0.0
  9
$OLESTARTUP
290
     0
  9
$SORTENTS
280
   127
  9
$INDEXCTL
280
     0
  9
$HIDETEXT
280
     1
  9
$XCLIPFRAME
280
     2
  9
$HALOGAP
280
     0
  9
$OBSCOLOR
 70
   257
  9
$OBSLTYPE
280
     0
  9
$INTERSECTIONDISPLAY
280
     0
  9
$INTERSECTIONCOLOR
 70
   257
  9
$DIMASSOC
280
     2
  9
$PROJECTNAME
  1

  9
$CAMERADISPLAY
290
     0
  9
$LENSLENGTH
 40
50.0
  9
$CAMERAHEIGHT
 40
0.0
  9
$STEPSPERSEC
 40
2.0
  9
$STEPSIZE
 40
6.0
  9
$3DDWFPREC
 40
2.0
  9
$PSOLWIDTH
 40
0.25
  9
$PSOLHEIGHT
 40
4.0
  9
$LOFTANG1
 40
1.570796326794897
  9
$LOFTANG2
 40
1.570796326794897
  9
$LOFTMAG1
 40
0.0
  9
$LOFTMAG2
 40
0.0
  9
$LOFTPARAM
 70
     7
  9
$LOFTNORMALS
280
     1
  9
$LATITUDE
 40
37.795
  9
$LONGITUDE
 40
-122.394
  9
$NORTHDIRECTION
 40
0.0
  9
$TIMEZONE
 70
 -8000
  9
$LIGHTGLYPHDISPLAY
280
     1
  9
$TILEMODELIGHTSYNCH
280
     1
  9
$CMATERIAL
347
3C
  9
$SOLIDHIST
280
     1
  9
$SHOWHIST
280
     1
  9
$DWFFRAME
280
     2
  9
$DGNFRAME
280
     2
  9
$REALWORLDSCALE
290
     1
  9
$INTERFERECOLOR
 62
   256
  9
$CSHADOW
280
     0
  9
$SHADOWPLANELOCATION
 40
0.0
  0
ENDSEC
  0
SECTION
  2
CLASSES
  0
CLASS
  1
ACDBDICTIONARYWDFLT
  2
AcDbDictionaryWithDefault
  3
ObjectDBX Classes
 90
        0
 91
        4
280
     0
281
     0
  0
CLASS
  1
VISUALSTYLE
  2
AcDbVisualStyle
  3
ObjectDBX Classes
 90
     4095
 91
        4
280
     0
281
     0
  0
CLASS
  1
MATERIAL
  2
AcDbMaterial
  3
ObjectDBX Classes
 90
     1153
 91
        4
280
     0
281
     0
  0
CLASS
  1
SUN
  2
AcDbSun
  3
SCENEOE
 90
     1024
 91
        4
280
     0
281
     0
  0
ENDSEC
  0
SECTION
  2
TABLES
  0
TABLE
  2
VPORT
  5
8
330
0
100
AcDbSymbolTable
 70
     1
  0
VPORT
  5
29
330
8
100
AcDbSymbolTableRecord
100
AcDbViewportTableRecord
  2
*Active
 70
     0
 10
0.0
 20
0.0
 11
1.0
 21
1.0
 12
0.0
 22
0.0
 13
0.0
 23
0.0
 14
0.5
 24
0.5
 15
0.5
 25
0.5
 16
0.0
 26
0.0
 36
1.0
 17
50.0
 27
62.5
 37
0.0
 40
125.0
 41
0.8
 42
50.0
 43
0.0
 44
0.0
 50
0.0
 51
0.0
 71
     0
 72
   100
 73
     1
 74
     3
 75
     0
 76
     0
 77
     0
 78
     0
281
     0
 65
     1
110
0.0
120
0.0
130
0.0
111
1.0
121
0.0
131
0.0
112
0.0
122
1.0
132
0.0
 79
     0
146
0.0
 60
     3
 61
     5
292
     1
282
     1
141
0.0
142
0.0
 63
   250
361
3F
  0
ENDTAB
  0
TABLE
  2
LTYPE
  5
5
330
0
100
AcDbSymbolTable
 70
     1
  0
LTYPE
  5
14
330
5
100
AcDbSymbolTableRecord
100
AcDbLinetypeTableRecord
  2
ByBlock
 70
     0
  3

 72
    65
 73
     0
 40
0.0
  0
LTYPE
  5
15
330
5
100
AcDbSymbolTableRecord
100
AcDbLinetypeTableRecord
  2
ByLayer
 70
     0
  3

 72
    65
 73
     0
 40
0.0
  0
LTYPE
  5
16
330
5
100
AcDbSymbolTableRecord
100
AcDbLinetypeTableRecord
  2
Continuous
 70
     0
  3
Solid line
 72
    65
 73
     0
 40
0.0
  0
ENDTAB
  0
TABLE
  2
LAYER
  5
2
330
0
100
AcDbSymbolTable
 70
     2
  0
LAYER
  5
10
330
2
100
AcDbSymbolTableRecord
100
AcDbLayerTableRecord
  2
0
 70
     0
 62
     7
  6
Continuous
370
    -3
390
F
347
3E
  0
LAYER
  5
40
330
2
100
AcDbSymbolTableRecord
100
AcDbLayerTableRecord
  2
Layer 1
 70
     0
 62
     7
  6
Continuous
370
    -3
390
F
347
3E
  0
ENDTAB
  0
TABLE
  2
STYLE
  5
3
330
0
100
AcDbSymbolTable
 70
     1
  0
STYLE
  5
11
330
3
100
AcDbSymbolTableRecord
100
AcDbTextStyleTableRecord
  2
Standard
 70
     0
 40
0.0
 41
1.0
 50
0.0
 71
     0
 42
0.2
  3
txt
  4

  0
ENDTAB
  0
TABLE
  2
VIEW
  5
6
330
0
100
AcDbSymbolTable
 70
     0
  0
ENDTAB
  0
TABLE
  2
UCS
  5
7
330
0
100
AcDbSymbolTable
 70
     0
  0
ENDTAB
  0
TABLE
  2
APPID
  5
9
330
0
100
AcDbSymbolTable
 70
     1
  0
APPID
  5
12
330
9
100
AcDbSymbolTableRecord
100
AcDbRegAppTableRecord
  2
ACAD
 70
     0
  0
ENDTAB
  0
TABLE
  2
DIMSTYLE
  5
A
330
0
100
AcDbSymbolTable
 70
     1
100
AcDbDimStyleTable
  0
DIMSTYLE
105
27
330
A
100
AcDbSymbolTableRecord
100
AcDbDimStyleTableRecord
  2
Standard
 70
     0
178
     0
340
11
  0
ENDTAB
  0
TABLE
  2
BLOCK_RECORD
  5
1
330
0
100
AcDbSymbolTable
 70
     1
  0
BLOCK_RECORD
  5
1F
330
1
100
AcDbSymbolTableRecord
100
AcDbBlockTableRecord
  2
*Model_Space
340
22
 70
     0
280
     1
281
     0
  0
BLOCK_RECORD
  5
1B
330
1
100
AcDbSymbolTableRecord
100
AcDbBlockTableRecord
  2
*Paper_Space
340
1E
 70
     0
280
     1
281
     0
  0
BLOCK_RECORD
  5
23
330
1
100
AcDbSymbolTableRecord
100
AcDbBlockTableRecord
  2
*Paper_Space0
340
26
 70
     0
280
     1
281
     0
  0
ENDTAB
  0
ENDSEC
  0
SECTION
  2
BLOCKS
  0
BLOCK
  5
20
330
1F
100
AcDbEntity
  8
0
100
AcDbBlockBegin
  2
*Model_Space
 70
     0
 10
0.0
 20
0.0
 30
0.0
  3
*Model_Space
  1

  0
ENDBLK
  5
21
330
1F
100
AcDbEntity
  8
0
100
AcDbBlockEnd
  0
BLOCK
  5
1C
330
1B
100
AcDbEntity
 67
     1
  8
0
100
AcDbBlockBegin
  2
*Paper_Space
 70
     0
 10
0.0
 20
0.0
 30
0.0
  3
*Paper_Space
  1

  0
ENDBLK
  5
1D
330
1B
100
AcDbEntity
 67
     1
  8
0
100
AcDbBlockEnd
  0
BLOCK
  5
24
330
23
100
AcDbEntity
  8
0
100
AcDbBlockBegin
  2
*Paper_Space0
 70
     0
 10
0.0
 20
0.0
 30
0.0
  3
*Paper_Space0
  1

  0
ENDBLK
  5
25
330
23
100
AcDbEntity
  8
0
100
AcDbBlockEnd
  0
ENDSEC
  0
SECTION
  2
ENTITIES
  0
SPLINE
  5
41
330
1F
100
AcDbEntity
  8
Layer 1
370
     0
100
AcDbSpline
210
0.0
220
0.0
230
1.0
 70
    11
 71
     3
 72
   218
 73
   214
 74
     0
 42
0.0000000001
 43
0.0000000001
 12
1.0
 22
0.0
 32
0.0
 13
1.0
 23
0.0
 33
0.0
 40
0.0
 40
0.0
 40
0.0
 40
0.0
 40
1.0
 40
1.0
 40
1.0
 40
2.0
 40
2.0
 40
2.0
 40
3.0
 40
3.0
 40
3.0
 40
4.0
 40
4.0
 40
4.0
 40
5.0
 40
5.0
 40
5.0
 40
6.0
 40
6.0
 40
6.0
 40
7.0
 40
7.0
 40
7.0
 40
8.0
 40
8.0
 40
8.0
 40
9.0
 40
9.0
 40
9.0
 40
10.0
 40
10.0
 40
10.0
 40
11.0
 40
11.0
 40
11.0
 40
12.0
 40
12.0
 40
12.0
 40
13.0
 40
13.0
 40
13.0
 40
14.0
 40
14.0
 40
14.0
 40
15.0
 40
15.0
 40
15.0
 40
16.0
 40
16.0
 40
16.0
 40
17.0
 40
17.0
 40
17.0
 40
18.0
 40
18.0
 40
18.0
 40
19.0
 40
19.0
 40
19.0
 40
20.0
 40
20.0
 40
20.0
 40
21.0
 40
21.0
 40
21.0
 40
22.0
 40
22.0
 40
22.0
 40
23.0
 40
23.0
 40
23.0
 40
24.0
 40
24.0
 40
24.0
 40
25.0
 40
25.0
 40
25.0
 40
26.0
 40
26.0
 40
26.0
 40
27.0
 40
27.0
 40
27.0
 40
28.0
 40
28.0
 40
28.0
 40
29.0
 40
29.0
 40
29.0
 40
30.0
 40
30.0
 40
30.0
 40
31.0
 40
31.0
 40
31.0
 40
32.0
 40
32.0
 40
32.0
 40
33.0
 40
33.0
 40
33.0
 40
34.0
 40
34.0
 40
34.0
 40
35.0
 40
35.0
 40
35.0
 40
36.0
 40
36.0
 40
36.0
 40
37.0
 40
37.0
 40
37.0
 40
38.0
 40
38.0
 40
38.0
 40
39.0
 40
39.0
 40
39.0
 40
40.0
 40
40.0
 40
40.0
 40
41.0
 40
41.0
 40
41.0
 40
42.0
 40
42.0
 40
42.0
 40
43.0
 40
43.0
 40
43.0
 40
44.0
 40
44.0
 40
44.0
 40
45.0
 40
45.0
 40
45.0
 40
46.0
 40
46.0
 40
46.0
 40
47.0
 40
47.0
 40
47.0
 40
48.0
 40
48.0
 40
48.0
 40
49.0
 40
49.0
 40
49.0
 40
50.0
 40
50.0
 40
50.0
 40
51.0
 40
51.0
 40
51.0
 40
52.0
 40
52.0
 40
52.0
 40
53.0
 40
53.0
 40
53.0
 40
54.0
 40
54.0
 40
54.0
 40
55.0
 40
55.0
 40
55.0
 40
56.0
 40
56.0
 40
56.0
 40
57.0
 40
57.0
 40
57.0
 40
58.0
 40
58.0
 40
58.0
 40
59.0
 40
59.0
 40
59.0
 40
60.0
 40
60.0
 40
60.0
 40
61.0
 40
61.0
 40
61.0
 40
62.0
 40
62.0
 40
62.0
 40
63.0
 40
63.0
 40
63.0
 40
64.0
 40
64.0
 40
64.0
 40
65.0
 40
65.0
 40
65.0
 40
66.0
 40
66.0
 40
66.0
 40
67.0
 40
67.0
 40
67.0
 40
68.0
 40
68.0
 40
68.0
 40
69.0
 40
69.0
 40
69.0
 40
70.0
 40
70.0
 40
70.0
 40
71.0
 40
71.0
 40
71.0
 40
71.0
 10
408.3630065917969
 20
-227.2680053710938
 30
0.0
 10
408.3630065917969
 20
-227.2680053710938
 30
0.0
 10
402.3070068359375
 20
-226.6230163574219
 30
0.0
 10
402.3070068359375
 20
-226.6230163574219
 30
0.0
 10
402.3070068359375
 20
-226.6230163574219
 30
0.0
 10
401.6470031738281
 20
-223.5280151367188
 30
0.0
 10
401.6470031738281
 20
-223.5280151367188
 30
0.0
 10
401.6080017089844
 20
-223.3460083007812
 30
0.0
 10
401.5010070800781
 20
-223.1880187988281
 30
0.0
 10
401.3460083007812
 20
-223.0860290527344
 30
0.0
 10
401.3460083007812
 20
-223.0860290527344
 30
0.0
 10
391.1830139160156
 20
-216.31103515625
 30
0.0
 10
391.1830139160156
 20
-216.31103515625
 30
0.0
 10
391.1530151367188
 20
-216.2900390625
 30
0.0
 10
391.1180114746094
 20
-216.2870483398438
 30
0.0
 10
391.0850219726562
 20
-216.2710266113281
 30
0.0
 10
391.0630187988281
 20
-216.2600402832031
 30
0.0
 10
391.0460205078125
 20
-216.2410278320312
 30
0.0
 10
391.0230102539062
 20
-216.2320251464844
 30
0.0
 10
391.0070190429688
 20
-216.2260131835938
 30
0.0
 10
390.9909973144531
 20
-216.2310180664062
 30
0.0
 10
390.9750061035156
 20
-216.2270202636719
 30
0.0
 10
390.9120178222656
 20
-216.2090148925781
 30
0.0
 10
390.8489990234375
 20
-216.2060241699219
 30
0.0
 10
390.7850036621094
 20
-216.2060241699219
 30
0.0
 10
390.7480163574219
 20
-216.2060241699219
 30
0.0
 10
390.7139892578125
 20
-216.2010192871094
 30
0.0
 10
390.6780090332031
 20
-216.20703125
 30
0.0
 10
390.5910034179688
 20
-216.2210388183594
 30
0.0
 10
390.5090026855469
 20
-216.2520446777344
 30
0.0
 10
390.4320068359375
 20
-216.2970275878906
 30
0.0
 10
390.4230041503906
 20
-216.3020324707031
 30
0.0
 10
390.4110107421875
 20
-216.3020324707031
 30
0.0
 10
390.4030151367188
 20
-216.3080139160156
 30
0.0
 10
390.4030151367188
 20
-216.3080139160156
 30
0.0
 10
381.301025390625
 20
-222.2490234375
 30
0.0
 10
381.301025390625
 20
-222.2490234375
 30
0.0
 10
381.2950134277344
 20
-222.2530212402344
 30
0.0
 10
381.2940368652344
 20
-222.260009765625
 30
0.0
 10
381.2880249023438
 20
-222.2630310058594
 30
0.0
 10
381.1960144042969
 20
-222.3260192871094
 30
0.0
 10
381.1220397949219
 20
-222.4110412597656
 30
0.0
 10
381.0680236816406
 20
-222.5120239257812
 30
0.0
 10
381.0540161132812
 20
-222.5380249023438
 30
0.0
 10
381.0500183105469
 20
-222.5650329589844
 30
0.0
 10
381.0400085449219
 20
-222.5910339355469
 30
0.0
 10
381.02099609375
 20
-222.6400451660156
 30
0.0
 10
380.9949951171875
 20
-222.6850280761719
 30
0.0
 10
380.9869995117188
 20
-222.7390441894531
 30
0.0
 10
380.9869995117188
 20
-222.7390441894531
 30
0.0
 10
378.7739868164062
 20
-237.6890563964844
 30
0.0
 10
378.7739868164062
 20
-237.6890563964844
 30
0.0
 10
378.7469787597656
 20
-237.696044921875
 30
0.0
 10
378.718994140625
 20
-237.6930541992188
 30
0.0
 10
378.6929931640625
 20
-237.7030639648438
 30
0.0
 10
378.6929931640625
 20
-237.7030639648438
 30
0.0
 10
356.5929870605469
 20
-246.0780639648438
 30
0.0
 10
356.5929870605469
 20
-246.0780639648438
 30
0.0
 10
356.5809936523438
 20
-246.0820617675781
 30
0.0
 10
356.573974609375
 20
-246.0930786132812
 30
0.0
 10
356.5639953613281
 20
-246.0980529785156
 30
0.0
 10
356.5019836425781
 20
-246.1250610351562
 30
0.0
 10
356.4469909667969
 20
-246.1670532226562
 30
0.0
 10
356.3930053710938
 20
-246.2120666503906
 30
0.0
 10
356.3690185546875
 20
-246.2330627441406
 30
0.0
 10
356.3399963378906
 20
-246.2470703125
 30
0.0
 10
356.3200073242188
 20
-246.2710571289062
 30
0.0
 10
356.3139953613281
 20
-246.2770690917969
 30
0.0
 10
356.3070068359375
 20
-246.279052734375
 30
0.0
 10
356.302001953125
 20
-246.2850646972656
 30
0.0
 10
356.302001953125
 20
-246.2850646972656
 30
0.0
 10
354.2669982910156
 20
-248.6980590820312
 30
0.0
 10
354.2669982910156
 20
-248.6980590820312
 30
0.0
 10
354.2669982910156
 20
-248.6980590820312
 30
0.0
 10
352.2420043945312
 20
-246.8850708007812
 30
0.0
 10
352.2420043945312
 20
-246.8850708007812
 30
0.0
 10
352.2420043945312
 20
-246.8850708007812
 30
0.0
 10
349.0580139160156
 20
-236.6750793457031
 30
0.0
 10
349.0580139160156
 20
-236.6750793457031
 30
0.0
 10
348.9540100097656
 20
-236.340087890625
 30
0.0
 10
348.614013671875
 20
-236.1290893554688
 30
0.0
 10
348.2750244140625
 20
-236.1860656738281
 30
0.0
 10
347.9280395507812
 20
-236.2390747070312
 30
0.0
 10
347.6720275878906
 20
-236.5360717773438
 30
0.0
 10
347.6720275878906
 20
-236.8860778808594
 30
0.0
 10
347.6720275878906
 20
-236.8860778808594
 30
0.0
 10
347.6720275878906
 20
-250.7400817871094
 30
0.0
 10
347.6720275878906
 20
-250.7400817871094
 30
0.0
 10
347.6720275878906
 20
-250.8260803222656
 30
0.0
 10
347.6880187988281
 20
-250.9110717773438
 30
0.0
 10
347.718017578125
 20
-250.9910888671875
 30
0.0
 10
347.718017578125
 20
-250.9910888671875
 30
0.0
 10
349.2230224609375
 20
-254.9720764160156
 30
0.0
 10
349.2230224609375
 20
-254.9720764160156
 30
0.0
 10
349.2230224609375
 20
-254.9720764160156
 30
0.0
 10
347.6850280761719
 20
-262.9410705566406
 30
0.0
 10
347.6850280761719
 20
-262.9410705566406
 30
0.0
 10
347.6800231933594
 20
-262.9680786132812
 30
0.0
 10
347.6910400390625
 20
-262.9950561523438
 30
0.0
 10
347.6890258789062
 20
-263.0220642089844
 30
0.0
 10
347.6850280761719
 20
-263.0690612792969
 30
0.0
 10
347.6720275878906
 20
-263.1150512695312
 30
0.0
 10
347.6780395507812
 20
-263.1640625
 30
0.0
 10
347.6780395507812
 20
-263.1640625
 30
0.0
 10
348.5570373535156
 20
-270.1900634765625
 30
0.0
 10
348.5570373535156
 20
-270.1900634765625
 30
0.0
 10
348.5600280761719
 20
-270.2110595703125
 30
0.0
 10
348.5760498046875
 20
-270.22705078125
 30
0.0
 10
348.5800476074219
 20
-270.2480773925781
 30
0.0
 10
348.5990600585938
 20
-270.3330688476562
 30
0.0
 10
348.6300354003906
 20
-270.4100646972656
 30
0.0
 10
348.6760559082031
 20
-270.4810791015625
 30
0.0
 10
348.6930541992188
 20
-270.5060729980469
 30
0.0
 10
348.7060546875
 20
-270.5310668945312
 30
0.0
 10
348.7260437011719
 20
-270.5540771484375
 30
0.0
 10
348.7980346679688
 20
-270.6400756835938
 30
0.0
 10
348.884033203125
 20
-270.7120666503906
 30
0.0
 10
348.9890441894531
 20
-270.7560729980469
 30
0.0
 10
348.9900512695312
 20
-270.7560729980469
 30
0.0
 10
348.9910583496094
 20
-270.7580871582031
 30
0.0
 10
348.9920349121094
 20
-270.7580871582031
 30
0.0
 10
349.0790405273438
 20
-270.7930908203125
 30
0.0
 10
349.1700439453125
 20
-270.8110961914062
 30
0.0
 10
349.2610473632812
 20
-270.8110961914062
 30
0.0
 10
349.2610473632812
 20
-270.8110961914062
 30
0.0
 10
359.8180541992188
 20
-270.8110961914062
 30
0.0
 10
359.8180541992188
 20
-270.8110961914062
 30
0.0
 10
360.06005859375
 20
-270.8110961914062
 30
0.0
 10
360.2860412597656
 20
-270.6871032714844
 30
0.0
 10
360.4160461425781
 20
-270.4830932617188
 30
0.0
 10
360.5460510253906
 20
-270.2781066894531
 30
0.0
 10
360.5620422363281
 20
-270.0220947265625
 30
0.0
 10
360.4600524902344
 20
-269.8020935058594
 30
0.0
 10
359.4320373535156
 20
-267.6020812988281
 30
0.0
 10
358.3360595703125
 20
-265.1791076660156
 30
0.0
 10
357.9190673828125
 20
-264.152099609375
 30
0.0
 10
357.9190673828125
 20
-264.152099609375
 30
0.0
 10
360.10107421875
 20
-262.4251098632812
 30
0.0
 10
360.10107421875
 20
-262.4251098632812
 30
0.0
 10
360.10107421875
 20
-262.4251098632812
 30
0.0
 10
366.5110778808594
 20
-261.6781005859375
 30
0.0
 10
366.5110778808594
 20
-261.6781005859375
 30
0.0
 10
366.5110778808594
 20
-261.6781005859375
 30
0.0
 10
374.6220703125
 20
-267.4901123046875
 30
0.0
 10
374.6220703125
 20
-267.4901123046875
 30
0.0
 10
374.6220703125
 20
-267.4901123046875
 30
0.0
 10
377.0730590820312
 20
-270.4301147460938
 30
0.0
 10
377.0730590820312
 20
-270.4301147460938
 30
0.0
 10
377.2040710449219
 20
-270.5871276855469
 30
0.0
 10
377.3960571289062
 20
-270.6801147460938
 30
0.0
 10
377.60107421875
 20
-270.6841125488281
 30
0.0
 10
377.60107421875
 20
-270.6841125488281
 30
0.0
 10
383.216064453125
 20
-270.8101196289062
 30
0.0
 10
383.216064453125
 20
-270.8101196289062
 30
0.0
 10
383.2210693359375
 20
-270.8111267089844
 30
0.0
 10
383.22705078125
 20
-270.8111267089844
 30
0.0
 10
383.2320556640625
 20
-270.8111267089844
 30
0.0
 10
383.5850524902344
 20
-270.8111267089844
 30
0.0
 10
383.8840637207031
 20
-270.5511169433594
 30
0.0
 10
383.9340515136719
 20
-270.2011413574219
 30
0.0
 10
383.9340515136719
 20
-270.2011413574219
 30
0.0
 10
385.8150634765625
 20
-256.8781433105469
 30
0.0
 10
385.8150634765625
 20
-256.8781433105469
 30
0.0
 10
385.8150634765625
 20
-256.8781433105469
 30
0.0
 10
391.7290649414062
 20
-250.962158203125
 30
0.0
 10
391.7290649414062
 20
-250.962158203125
 30
0.0
 10
391.7950744628906
 20
-250.8971557617188
 30
0.0
 10
391.8480529785156
 20
-250.8171691894531
 30
0.0
 10
391.8840637207031
 20
-250.7301635742188
 30
0.0
 10
391.9130554199219
 20
-250.6591491699219
 30
0.0
 10
391.924072265625
 20
-250.5831604003906
 30
0.0
 10
391.9290771484375
 20
-250.5061645507812
 30
0.0
 10
391.9300842285156
 20
-250.4891662597656
 30
0.0
 10
391.9390869140625
 20
-250.4761657714844
 30
0.0
 10
391.9390869140625
 20
-250.4591674804688
 30
0.0
 10
391.9390869140625
 20
-250.0641784667969
 30
0.0
 10
392.1570739746094
 20
-244.0121765136719
 30
0.0
 10
392.2480773925781
 20
-241.5361633300781
 30
0.0
 10
392.2480773925781
 20
-241.5361633300781
 30
0.0
 10
395.1240844726562
 20
-235.1921691894531
 30
0.0
 10
395.1240844726562
 20
-235.1921691894531
 30
0.0
 10
395.1240844726562
 20
-235.1921691894531
 30
0.0
 10
403.3070983886719
 20
-235.5531616210938
 30
0.0
 10
403.3070983886719
 20
-235.5531616210938
 30
0.0
 10
403.3180847167969
 20
-235.5531616210938
 30
0.0
 10
403.3280944824219
 20
-235.5541687011719
 30
0.0
 10
403.3381042480469
 20
-235.5541687011719
 30
0.0
 10
403.3381042480469
 20
-235.5541687011719
 30
0.0
 10
403.3381042480469
 20
-235.5541687011719
 30
0.0
 10
403.339111328125
 20
-235.5541687011719
 30
0.0
 10
403.339111328125
 20
-235.5541687011719
 30
0.0
 10
403.339111328125
 20
-235.5541687011719
 30
0.0
 10
403.339111328125
 20
-235.5541687011719
 30
0.0
 10
403.3421020507812
 20
-235.5541687011719
 30
0.0
 10
403.3441162109375
 20
-235.5521545410156
 30
0.0
 10
403.3471069335938
 20
-235.5521545410156
 30
0.0
 10
403.4541015625
 20
-235.5511474609375
 30
0.0
 10
403.55810546875
 20
-235.5231628417969
 30
0.0
 10
403.6531066894531
 20
-235.4761657714844
 30
0.0
 10
403.6581115722656
 20
-235.4731750488281
 30
0.0
 10
403.6640930175781
 20
-235.4751586914062
 30
0.0
 10
403.6690979003906
 20
-235.47216796875
 30
0.0
 10
403.6690979003906
 20
-235.47216796875
 30
0.0
 10
408.4371032714844
 20
-232.962158203125
 30
0.0
 10
408.4371032714844
 20
-232.962158203125
 30
0.0
 10
408.6611022949219
 20
-232.8451538085938
 30
0.0
 10
408.8041076660156
 20
-232.6171569824219
 30
0.0
 10
408.8150939941406
 20
-232.3651733398438
 30
0.0
 10
408.8150939941406
 20
-232.3651733398438
 30
0.0
 10
408.9990844726562
 20
-228.0051879882812
 30
0.0
 10
408.9990844726562
 20
-228.0051879882812
 30
0.0
 10
409.0119934082031
 20
-227.6289978027344
 30
0.0
 10
408.7340087890625
 20
-227.3080139160156
 30
0.0
 10
408.3630065917969
 20
-227.2680053710938
 30
0.0
  0
POLYLINE
  5
42
330
1F
100
AcDbEntity
  8
Layer 1
370
     0
100
AcDb2dPolyline
 66
     1
 10
0.0
 20
0.0
 30
0.0
  0
VERTEX
  5
43
330
42
100
AcDbEntity
  8
Layer 1
370
     0
100
AcDbVertex
100
AcDb2dVertex
 10
390.4079895019531
 20
-217.9960021972656
 30
0.0
  0
VERTEX
  5
44
330
42
100
AcDbEntity
  8
Layer 1
370
     0
100
AcDbVertex
100
AcDb2dVertex
 10
395.0499877929688
 20
-231.9179992675781
 30
0.0
  0
VERTEX
  5
45
330
42
100
AcDbEntity
  8
Layer 1
370
     0
100
AcDbVertex
100
AcDb2dVertex
 10
391.2039794921875
 20
-240.3999938964844
 30
0.0
  0
VERTEX
  5
46
330
42
100
AcDbEntity
  8
Layer 1
370
     0
100
AcDbVertex
100
AcDb2dVertex
 10
383.5579833984375
 20
-236.5220031738281
 30
0.0
  0
VERTEX
  5
47
330
42
100
AcDbEntity
  8
Layer 1
370
     0
100
AcDbVertex
100
AcDb2dVertex
 10
382.4299926757812
 20
-223.2040100097656
 30
0.0
  0
VERTEX
  5
48
330
42
100
AcDbEntity
  8
Layer 1
370
     0
100
AcDbVertex
100
AcDb2dVertex
 10
390.4079895019531
 20
-217.9960021972656
 30
0.0
  0
SEQEND
  5
49
330
42
100
AcDbEntity
  8
Layer 1
370
     0
  0
SPLINE
  5
4A
330
1F
100
AcDbEntity
  8
Layer 1
370
     0
100
AcDbSpline
210
0.0
220
0.0
230
1.0
 70
    11
 71
     3
 72
    23
 73
    19
 74
     0
 42
0.0000000001
 43
0.0000000001
 12
1.0
 22
0.0
 32
0.0
 13
1.0
 23
0.0
 33
0.0
 40
0.0
 40
0.0
 40
0.0
 40
0.0
 40
1.0
 40
1.0
 40
1.0
 40
2.0
 40
2.0
 40
2.0
 40
3.0
 40
3.0
 40
3.0
 40
4.0
 40
4.0
 40
4.0
 40
5.0
 40
5.0
 40
5.0
 40
6.0
 40
6.0
 40
6.0
 40
6.0
 10
376.2460021972656
 20
-264.4429931640625
 30
0.0
 10
376.2460021972656
 20
-264.4429931640625
 30
0.0
 10
381.4970092773438
 20
-228.9750061035156
 30
0.0
 10
381.4970092773438
 20
-228.9750061035156
 30
0.0
 10
381.4970092773438
 20
-228.9750061035156
 30
0.0
 10
382.1800231933594
 20
-237.0350036621094
 30
0.0
 10
382.1800231933594
 20
-237.0350036621094
 30
0.0
 10
382.2010192871094
 20
-237.2799987792969
 30
0.0
 10
382.3470153808594
 20
-237.4960021972656
 30
0.0
 10
382.5660095214844
 20
-237.6069946289062
 30
0.0
 10
382.5660095214844
 20
-237.6069946289062
 30
0.0
 10
390.8200073242188
 20
-241.7940063476562
 30
0.0
 10
390.8200073242188
 20
-241.7940063476562
 30
0.0
 10
390.760009765625
 20
-243.4140014648438
 30
0.0
 10
390.5650024414062
 20
-248.8059997558594
 30
0.0
 10
390.5280151367188
 20
-250.156005859375
 30
0.0
 10
390.5280151367188
 20
-250.156005859375
 30
0.0
 10
376.2460021972656
 20
-264.4429931640625
 30
0.0
 10
376.2460021972656
 20
-264.4429931640625
 30
0.0
  0
POLYLINE
  5
4B
330
1F
100
AcDbEntity
  8
Layer 1
370
     0
100
AcDb2dPolyline
 66
     1
 10
0.0
 20
0.0
 30
0.0
  0
VERTEX
  5
4C
330
4B
100
AcDbEntity
  8
Layer 1
370
     0
100
AcDbVertex
100
AcDb2dVertex
 10
378.5390014648438
 20
-239.2770080566406
 30
0.0
  0
VERTEX
  5
4D
330
4B
100
AcDbEntity
  8
Layer 1
370
     0
100
AcDbVertex
100
AcDb2dVertex
 10
374.6210021972656
 20
-265.7430114746094
 30
0.0
  0
VERTEX
  5
4E
330
4B
100
AcDbEntity
  8
Layer 1
370
     0
100
AcDbVertex
100
AcDb2dVertex
 10
367.2130126953125
 20
-260.4349975585938
 30
0.0
  0
VERTEX
  5
4F
330
4B
100
AcDbEntity
  8
Layer 1
370
     0
100
AcDbVertex
100
AcDb2dVertex
 10
357.9440002441406
 20
-247.0809936523438
 30
0.0
  0
VERTEX
  5
50
330
4B
100
AcDbEntity
  8
Layer 1
370
     0
100
AcDbVertex
100
AcDb2dVertex
 10
378.5390014648438
 20
-239.2770080566406
 30
0.0
  0
SEQEND
  5
51
330
4B
100
AcDbEntity
  8
Layer 1
370
     0
  0
POLYLINE
  5
52
330
1F
100
AcDbEntity
  8
Layer 1
370
     0
100
AcDb2dPolyline
 66
     1
 10
0.0
 20
0.0
 30
0.0
  0
VERTEX
  5
53
330
52
100
AcDbEntity
  8
Layer 1
370
     0
100
AcDbVertex
100
AcDb2dVertex
 10
349.260986328125
 20
-262.2579956054688
 30
0.0
  0
VERTEX
  5
54
330
52
100
AcDbEntity
  8
Layer 1
370
     0
100
AcDbVertex
100
AcDb2dVertex
 10
350.6189880371094
 20
-255.2229919433594
 30
0.0
  0
VERTEX
  5
55
330
52
100
AcDbEntity
  8
Layer 1
370
     0
100
AcDbVertex
100
AcDb2dVertex
 10
356.7899780273438
 20
-247.9049987792969
 30
0.0
  0
VERTEX
  5
56
330
52
100
AcDbEntity
  8
Layer 1
370
     0
100
AcDbVertex
100
AcDb2dVertex
 10
365.4429931640625
 20
-260.3739929199219
 30
0.0
  0
VERTEX
  5
57
330
52
100
AcDbEntity
  8
Layer 1
370
     0
100
AcDbVertex
100
AcDb2dVertex
 10
349.260986328125
 20
-262.2579956054688
 30
0.0
  0
SEQEND
  5
58
330
52
100
AcDbEntity
  8
Layer 1
370
     0
  0
SPLINE
  5
59
330
1F
100
AcDbEntity
  8
Layer 1
370
     0
100
AcDbSpline
210
0.0
220
0.0
230
1.0
 70
    11
 71
     3
 72
    26
 73
    22
 74
     0
 42
0.0000000001
 43
0.0000000001
 12
1.0
 22
0.0
 32
0.0
 13
1.0
 23
0.0
 33
0.0
 40
0.0
 40
0.0
 40
0.0
 40
0.0
 40
1.0
 40
1.0
 40
1.0
 40
2.0
 40
2.0
 40
2.0
 40
3.0
 40
3.0
 40
3.0
 40
4.0
 40
4.0
 40
4.0
 40
5.0
 40
5.0
 40
5.0
 40
6.0
 40
6.0
 40
6.0
 40
7.0
 40
7.0
 40
7.0
 40
7.0
 10
349.0910034179688
 20
-241.5360107421875
 30
0.0
 10
349.0910034179688
 20
-241.5360107421875
 30
0.0
 10
350.9469909667969
 20
-247.4909973144531
 30
0.0
 10
350.9469909667969
 20
-247.4909973144531
 30
0.0
 10
350.9849853515625
 20
-247.6130065917969
 30
0.0
 10
351.0549926757812
 20
-247.7219848632812
 30
0.0
 10
351.1510009765625
 20
-247.8079833984375
 30
0.0
 10
351.1510009765625
 20
-247.8079833984375
 30
0.0
 10
353.3529968261719
 20
-249.7809753417969
 30
0.0
 10
353.3529968261719
 20
-249.7809753417969
 30
0.0
 10
353.3529968261719
 20
-249.7809753417969
 30
0.0
 10
350.1940002441406
 20
-253.5269775390625
 30
0.0
 10
350.1940002441406
 20
-253.5269775390625
 30
0.0
 10
350.1940002441406
 20
-253.5269775390625
 30
0.0
 10
349.0899963378906
 20
-250.6069641113281
 30
0.0
 10
349.0899963378906
 20
-250.6069641113281
 30
0.0
 10
349.0899963378906
 20
-250.6069641113281
 30
0.0
 10
349.0899963378906
 20
-241.5360107421875
 30
0.0
 10
349.0899963378906
 20
-241.5360107421875
 30
0.0
 10
349.0899963378906
 20
-241.5360107421875
 30
0.0
 10
349.0910034179688
 20
-241.5360107421875
 30
0.0
 10
349.0910034179688
 20
-241.5360107421875
 30
0.0
  0
SPLINE
  5
5A
330
1F
100
AcDbEntity
  8
Layer 1
370
     0
100
AcDbSpline
210
0.0
220
0.0
230
1.0
 70
    11
 71
     3
 72
    14
 73
    10
 74
     0
 42
0.0000000001
 43
0.0000000001
 12
1.0
 22
0.0
 32
0.0
 13
1.0
 23
0.0
 33
0.0
 40
0.0
 40
0.0
 40
0.0
 40
0.0
 40
1.0
 40
1.0
 40
1.0
 40
2.0
 40
2.0
 40
2.0
 40
3.0
 40
3.0
 40
3.0
 40
3.0
 10
358.7059936523438
 20
-269.3909912109375
 30
0.0
 10
358.7059936523438
 20
-269.3909912109375
 30
0.0
 10
351.2980041503906
 20
-269.3909912109375
 30
0.0
 10
351.2980041503906
 20
-269.3909912109375
 30
0.0
 10
351.2980041503906
 20
-269.3909912109375
 30
0.0
 10
356.7659912109375
 20
-265.0619812011719
 30
0.0
 10
356.7659912109375
 20
-265.0619812011719
 30
0.0
 10
357.093994140625
 20
-265.8529968261719
 30
0.0
 10
357.6749877929688
 20
-267.1679992675781
 30
0.0
 10
358.7059936523438
 20
-269.3909912109375
 30
0.0
  0
SPLINE
  5
5B
330
1F
100
AcDbEntity
  8
Layer 1
370
     0
100
AcDbSpline
210
0.0
220
0.0
230
1.0
 70
    11
 71
     3
 72
    20
 73
    16
 74
     0
 42
0.0000000001
 43
0.0000000001
 12
1.0
 22
0.0
 32
0.0
 13
1.0
 23
0.0
 33
0.0
 40
0.0
 40
0.0
 40
0.0
 40
0.0
 40
1.0
 40
1.0
 40
1.0
 40
2.0
 40
2.0
 40
2.0
 40
3.0
 40
3.0
 40
3.0
 40
4.0
 40
4.0
 40
4.0
 40
5.0
 40
5.0
 40
5.0
 40
5.0
 10
356.9440002441406
 20
-263.1130065917969
 30
0.0
 10
356.6889953613281
 20
-263.1520080566406
 30
0.0
 10
356.4800109863281
 20
-263.3160095214844
 30
0.0
 10
356.3909912109375
 20
-263.5509948730469
 30
0.0
 10
356.3909912109375
 20
-263.5509948730469
 30
0.0
 10
349.8069763183594
 20
-268.7630004882812
 30
0.0
 10
349.8069763183594
 20
-268.7630004882812
 30
0.0
 10
349.8069763183594
 20
-268.7630004882812
 30
0.0
 10
349.1729736328125
 20
-263.6950073242188
 30
0.0
 10
349.1729736328125
 20
-263.6950073242188
 30
0.0
 10
349.1729736328125
 20
-263.6950073242188
 30
0.0
 10
357.4219665527344
 20
-262.7350158691406
 30
0.0
 10
357.4219665527344
 20
-262.7350158691406
 30
0.0
 10
357.4219665527344
 20
-262.7350158691406
 30
0.0
 10
356.9440002441406
 20
-263.1130065917969
 30
0.0
 10
356.9440002441406
 20
-263.1130065917969
 30
0.0
  0
POLYLINE
  5
5C
330
1F
100
AcDbEntity
  8
Layer 1
370
     0
100
AcDb2dPolyline
 66
     1
 10
0.0
 20
0.0
 30
0.0
  0
VERTEX
  5
5D
330
5C
100
AcDbEntity
  8
Layer 1
370
     0
100
AcDbVertex
100
AcDb2dVertex
 10
382.6180114746094
 20
-269.3770141601562
 30
0.0
  0
VERTEX
  5
5E
330
5C
100
AcDbEntity
  8
Layer 1
370
     0
100
AcDbVertex
100
AcDb2dVertex
 10
377.9540100097656
 20
-269.2730102539062
 30
0.0
  0
VERTEX
  5
5F
330
5C
100
AcDbEntity
  8
Layer 1
370
     0
100
AcDbVertex
100
AcDb2dVertex
 10
375.8930053710938
 20
-266.801025390625
 30
0.0
  0
VERTEX
  5
60
330
5C
100
AcDbEntity
  8
Layer 1
370
     0
100
AcDbVertex
100
AcDb2dVertex
 10
384.1470031738281
 20
-258.5440368652344
 30
0.0
  0
VERTEX
  5
61
330
5C
100
AcDbEntity
  8
Layer 1
370
     0
100
AcDbVertex
100
AcDb2dVertex
 10
382.6180114746094
 20
-269.3770141601562
 30
0.0
  0
SEQEND
  5
62
330
5C
100
AcDbEntity
  8
Layer 1
370
     0
  0
SPLINE
  5
63
330
1F
100
AcDbEntity
  8
Layer 1
370
     0
100
AcDbSpline
210
0.0
220
0.0
230
1.0
 70
    11
 71
     3
 72
    23
 73
    19
 74
     0
 42
0.0000000001
 43
0.0000000001
 12
1.0
 22
0.0
 32
0.0
 13
1.0
 23
0.0
 33
0.0
 40
0.0
 40
0.0
 40
0.0
 40
0.0
 40
1.0
 40
1.0
 40
1.0
 40
2.0
 40
2.0
 40
2.0
 40
3.0
 40
3.0
 40
3.0
 40
4.0
 40
4.0
 40
4.0
 40
5.0
 40
5.0
 40
5.0
 40
6.0
 40
6.0
 40
6.0
 40
6.0
 10
395.7529907226562
 20
-233.7990112304688
 30
0.0
 10
395.7529907226562
 20
-233.7990112304688
 30
0.0
 10
396.4549865722656
 20
-232.25
 30
0.0
 10
396.4549865722656
 20
-232.25
 30
0.0
 10
396.5279846191406
 20
-232.0870056152344
 30
0.0
 10
396.5379943847656
 20
-231.9020080566406
 30
0.0
 10
396.4809875488281
 20
-231.7319946289062
 30
0.0
 10
396.4809875488281
 20
-231.7319946289062
 30
0.0
 10
392.114990234375
 20
-218.635009765625
 30
0.0
 10
392.114990234375
 20
-218.635009765625
 30
0.0
 10
392.114990234375
 20
-218.635009765625
 30
0.0
 10
400.3209838867188
 20
-224.1050109863281
 30
0.0
 10
400.3209838867188
 20
-224.1050109863281
 30
0.0
 10
400.3209838867188
 20
-224.1050109863281
 30
0.0
 10
402.4519958496094
 20
-234.0940246582031
 30
0.0
 10
402.4519958496094
 20
-234.0940246582031
 30
0.0
 10
402.4519958496094
 20
-234.0940246582031
 30
0.0
 10
395.7529907226562
 20
-233.7990112304688
 30
0.0
 10
395.7529907226562
 20
-233.7990112304688
 30
0.0
  0
POLYLINE
  5
64
330
1F
100
AcDbEntity
  8
Layer 1
370
     0
100
AcDb2dPolyline
 66
     1
 10
0.0
 20
0.0
 30
0.0
  0
VERTEX
  5
65
330
64
100
AcDbEntity
  8
Layer 1
370
     0
100
AcDbVertex
100
AcDb2dVertex
 10
407.4140014648438
 20
-231.89599609375
 30
0.0
  0
VERTEX
  5
66
330
64
100
AcDbEntity
  8
Layer 1
370
     0
100
AcDbVertex
100
AcDb2dVertex
 10
403.8349914550781
 20
-233.781005859375
 30
0.0
  0
VERTEX
  5
67
330
64
100
AcDbEntity
  8
Layer 1
370
     0
100
AcDbVertex
100
AcDb2dVertex
 10
402.6189880371094
 20
-228.0830078125
 30
0.0
  0
VERTEX
  5
68
330
64
100
AcDbEntity
  8
Layer 1
370
     0
100
AcDbVertex
100
AcDb2dVertex
 10
407.552001953125
 20
-228.6080017089844
 30
0.0
  0
VERTEX
  5
69
330
64
100
AcDbEntity
  8
Layer 1
370
     0
100
AcDbVertex
100
AcDb2dVertex
 10
407.4140014648438
 20
-231.89599609375
 30
0.0
  0
SEQEND
  5
6A
330
64
100
AcDbEntity
  8
Layer 1
370
     0
  0
HATCH
  5
6B
330
1F
100
AcDbEntity
  8
Layer 1
 62
     7
420
 16777215
100
AcDbHatch
 10
0.0
 20
0.0
 30
0.0
210
0.0
220
0.0
230
1.0
  2
SOLID
 70
     1
 71
     0
 91
       11
 92
        1
 93
        1
 72
     4
 94
        3
 73
     0
 74
     1
 95
      218
 96
      214
 40
0.0
 40
0.0
 40
0.0
 40
0.0
 40
1.0
 40
1.0
 40
1.0
 40
2.0
 40
2.0
 40
2.0
 40
3.0
 40
3.0
 40
3.0
 40
4.0
 40
4.0
 40
4.0
 40
5.0
 40
5.0
 40
5.0
 40
6.0
 40
6.0
 40
6.0
 40
7.0
 40
7.0
 40
7.0
 40
8.0
 40
8.0
 40
8.0
 40
9.0
 40
9.0
 40
9.0
 40
10.0
 40
10.0
 40
10.0
 40
11.0
 40
11.0
 40
11.0
 40
12.0
 40
12.0
 40
12.0
 40
13.0
 40
13.0
 40
13.0
 40
14.0
 40
14.0
 40
14.0
 40
15.0
 40
15.0
 40
15.0
 40
16.0
 40
16.0
 40
16.0
 40
17.0
 40
17.0
 40
17.0
 40
18.0
 40
18.0
 40
18.0
 40
19.0
 40
19.0
 40
19.0
 40
20.0
 40
20.0
 40
20.0
 40
21.0
 40
21.0
 40
21.0
 40
22.0
 40
22.0
 40
22.0
 40
23.0
 40
23.0
 40
23.0
 40
24.0
 40
24.0
 40
24.0
 40
25.0
 40
25.0
 40
25.0
 40
26.0
 40
26.0
 40
26.0
 40
27.0
 40
27.0
 40
27.0
 40
28.0
 40
28.0
 40
28.0
 40
29.0
 40
29.0
 40
29.0
 40
30.0
 40
30.0
 40
30.0
 40
31.0
 40
31.0
 40
31.0
 40
32.0
 40
32.0
 40
32.0
 40
33.0
 40
33.0
 40
33.0
 40
34.0
 40
34.0
 40
34.0
 40
35.0
 40
35.0
 40
35.0
 40
36.0
 40
36.0
 40
36.0
 40
37.0
 40
37.0
 40
37.0
 40
38.0
 40
38.0
 40
38.0
 40
39.0
 40
39.0
 40
39.0
 40
40.0
 40
40.0
 40
40.0
 40
41.0
 40
41.0
 40
41.0
 40
42.0
 40
42.0
 40
42.0
 40
43.0
 40
43.0
 40
43.0
 40
44.0
 40
44.0
 40
44.0
 40
45.0
 40
45.0
 40
45.0
 40
46.0
 40
46.0
 40
46.0
 40
47.0
 40
47.0
 40
47.0
 40
48.0
 40
48.0
 40
48.0
 40
49.0
 40
49.0
 40
49.0
 40
50.0
 40
50.0
 40
50.0
 40
51.0
 40
51.0
 40
51.0
 40
52.0
 40
52.0
 40
52.0
 40
53.0
 40
53.0
 40
53.0
 40
54.0
 40
54.0
 40
54.0
 40
55.0
 40
55.0
 40
55.0
 40
56.0
 40
56.0
 40
56.0
 40
57.0
 40
57.0
 40
57.0
 40
58.0
 40
58.0
 40
58.0
 40
59.0
 40
59.0
 40
59.0
 40
60.0
 40
60.0
 40
60.0
 40
61.0
 40
61.0
 40
61.0
 40
62.0
 40
62.0
 40
62.0
 40
63.0
 40
63.0
 40
63.0
 40
64.0
 40
64.0
 40
64.0
 40
65.0
 40
65.0
 40
65.0
 40
66.0
 40
66.0
 40
66.0
 40
67.0
 40
67.0
 40
67.0
 40
68.0
 40
68.0
 40
68.0
 40
69.0
 40
69.0
 40
69.0
 40
70.0
 40
70.0
 40
70.0
 40
71.0
 40
71.0
 40
71.0
 40
71.0
 10
408.3630065917969
 20
-227.2680053710938
 10
408.3630065917969
 20
-227.2680053710938
 10
402.3070068359375
 20
-226.6230163574219
 10
402.3070068359375
 20
-226.6230163574219
 10
402.3070068359375
 20
-226.6230163574219
 10
401.6470031738281
 20
-223.5280151367188
 10
401.6470031738281
 20
-223.5280151367188
 10
401.6080017089844
 20
-223.3460083007812
 10
401.5010070800781
 20
-223.1880187988281
 10
401.3460083007812
 20
-223.0860290527344
 10
401.3460083007812
 20
-223.0860290527344
 10
391.1830139160156
 20
-216.31103515625
 10
391.1830139160156
 20
-216.31103515625
 10
391.1530151367188
 20
-216.2900390625
 10
391.1180114746094
 20
-216.2870483398438
 10
391.0850219726562
 20
-216.2710266113281
 10
391.0630187988281
 20
-216.2600402832031
 10
391.0460205078125
 20
-216.2410278320312
 10
391.0230102539062
 20
-216.2320251464844
 10
391.0070190429688
 20
-216.2260131835938
 10
390.9909973144531
 20
-216.2310180664062
 10
390.9750061035156
 20
-216.2270202636719
 10
390.9120178222656
 20
-216.2090148925781
 10
390.8489990234375
 20
-216.2060241699219
 10
390.7850036621094
 20
-216.2060241699219
 10
390.7480163574219
 20
-216.2060241699219
 10
390.7139892578125
 20
-216.2010192871094
 10
390.6780090332031
 20
-216.20703125
 10
390.5910034179688
 20
-216.2210388183594
 10
390.5090026855469
 20
-216.2520446777344
 10
390.4320068359375
 20
-216.2970275878906
 10
390.4230041503906
 20
-216.3020324707031
 10
390.4110107421875
 20
-216.3020324707031
 10
390.4030151367188
 20
-216.3080139160156
 10
390.4030151367188
 20
-216.3080139160156
 10
381.301025390625
 20
-222.2490234375
 10
381.301025390625
 20
-222.2490234375
 10
381.2950134277344
 20
-222.2530212402344
 10
381.2940368652344
 20
-222.260009765625
 10
381.2880249023438
 20
-222.2630310058594
 10
381.1960144042969
 20
-222.3260192871094
 10
381.1220397949219
 20
-222.4110412597656
 10
381.0680236816406
 20
-222.5120239257812
 10
381.0540161132812
 20
-222.5380249023438
 10
381.0500183105469
 20
-222.5650329589844
 10
381.0400085449219
 20
-222.5910339355469
 10
381.02099609375
 20
-222.6400451660156
 10
380.9949951171875
 20
-222.6850280761719
 10
380.9869995117188
 20
-222.7390441894531
 10
380.9869995117188
 20
-222.7390441894531
 10
378.7739868164062
 20
-237.6890563964844
 10
378.7739868164062
 20
-237.6890563964844
 10
378.7469787597656
 20
-237.696044921875
 10
378.718994140625
 20
-237.6930541992188
 10
378.6929931640625
 20
-237.7030639648438
 10
378.6929931640625
 20
-237.7030639648438
 10
356.5929870605469
 20
-246.0780639648438
 10
356.5929870605469
 20
-246.0780639648438
 10
356.5809936523438
 20
-246.0820617675781
 10
356.573974609375
 20
-246.0930786132812
 10
356.5639953613281
 20
-246.0980529785156
 10
356.5019836425781
 20
-246.1250610351562
 10
356.4469909667969
 20
-246.1670532226562
 10
356.3930053710938
 20
-246.2120666503906
 10
356.3690185546875
 20
-246.2330627441406
 10
356.3399963378906
 20
-246.2470703125
 10
356.3200073242188
 20
-246.2710571289062
 10
356.3139953613281
 20
-246.2770690917969
 10
356.3070068359375
 20
-246.279052734375
 10
356.302001953125
 20
-246.2850646972656
 10
356.302001953125
 20
-246.2850646972656
 10
354.2669982910156
 20
-248.6980590820312
 10
354.2669982910156
 20
-248.6980590820312
 10
354.2669982910156
 20
-248.6980590820312
 10
352.2420043945312
 20
-246.8850708007812
 10
352.2420043945312
 20
-246.8850708007812
 10
352.2420043945312
 20
-246.8850708007812
 10
349.0580139160156
 20
-236.6750793457031
 10
349.0580139160156
 20
-236.6750793457031
 10
348.9540100097656
 20
-236.340087890625
 10
348.614013671875
 20
-236.1290893554688
 10
348.2750244140625
 20
-236.1860656738281
 10
347.9280395507812
 20
-236.2390747070312
 10
347.6720275878906
 20
-236.5360717773438
 10
347.6720275878906
 20
-236.8860778808594
 10
347.6720275878906
 20
-236.8860778808594
 10
347.6720275878906
 20
-250.7400817871094
 10
347.6720275878906
 20
-250.7400817871094
 10
347.6720275878906
 20
-250.8260803222656
 10
347.6880187988281
 20
-250.9110717773438
 10
347.718017578125
 20
-250.9910888671875
 10
347.718017578125
 20
-250.9910888671875
 10
349.2230224609375
 20
-254.9720764160156
 10
349.2230224609375
 20
-254.9720764160156
 10
349.2230224609375
 20
-254.9720764160156
 10
347.6850280761719
 20
-262.9410705566406
 10
347.6850280761719
 20
-262.9410705566406
 10
347.6800231933594
 20
-262.9680786132812
 10
347.6910400390625
 20
-262.9950561523438
 10
347.6890258789062
 20
-263.0220642089844
 10
347.6850280761719
 20
-263.0690612792969
 10
347.6720275878906
 20
-263.1150512695312
 10
347.6780395507812
 20
-263.1640625
 10
347.6780395507812
 20
-263.1640625
 10
348.5570373535156
 20
-270.1900634765625
 10
348.5570373535156
 20
-270.1900634765625
 10
348.5600280761719
 20
-270.2110595703125
 10
348.5760498046875
 20
-270.22705078125
 10
348.5800476074219
 20
-270.2480773925781
 10
348.5990600585938
 20
-270.3330688476562
 10
348.6300354003906
 20
-270.4100646972656
 10
348.6760559082031
 20
-270.4810791015625
 10
348.6930541992188
 20
-270.5060729980469
 10
348.7060546875
 20
-270.5310668945312
 10
348.7260437011719
 20
-270.5540771484375
 10
348.7980346679688
 20
-270.6400756835938
 10
348.884033203125
 20
-270.7120666503906
 10
348.9890441894531
 20
-270.7560729980469
 10
348.9900512695312
 20
-270.7560729980469
 10
348.9910583496094
 20
-270.7580871582031
 10
348.9920349121094
 20
-270.7580871582031
 10
349.0790405273438
 20
-270.7930908203125
 10
349.1700439453125
 20
-270.8110961914062
 10
349.2610473632812
 20
-270.8110961914062
 10
349.2610473632812
 20
-270.8110961914062
 10
359.8180541992188
 20
-270.8110961914062
 10
359.8180541992188
 20
-270.8110961914062
 10
360.06005859375
 20
-270.8110961914062
 10
360.2860412597656
 20
-270.6871032714844
 10
360.4160461425781
 20
-270.4830932617188
 10
360.5460510253906
 20
-270.2781066894531
 10
360.5620422363281
 20
-270.0220947265625
 10
360.4600524902344
 20
-269.8020935058594
 10
359.4320373535156
 20
-267.6020812988281
 10
358.3360595703125
 20
-265.1791076660156
 10
357.9190673828125
 20
-264.152099609375
 10
357.9190673828125
 20
-264.152099609375
 10
360.10107421875
 20
-262.4251098632812
 10
360.10107421875
 20
-262.4251098632812
 10
360.10107421875
 20
-262.4251098632812
 10
366.5110778808594
 20
-261.6781005859375
 10
366.5110778808594
 20
-261.6781005859375
 10
366.5110778808594
 20
-261.6781005859375
 10
374.6220703125
 20
-267.4901123046875
 10
374.6220703125
 20
-267.4901123046875
 10
374.6220703125
 20
-267.4901123046875
 10
377.0730590820312
 20
-270.4301147460938
 10
377.0730590820312
 20
-270.4301147460938
 10
377.2040710449219
 20
-270.5871276855469
 10
377.3960571289062
 20
-270.6801147460938
 10
377.60107421875
 20
-270.6841125488281
 10
377.60107421875
 20
-270.6841125488281
 10
383.216064453125
 20
-270.8101196289062
 10
383.216064453125
 20
-270.8101196289062
 10
383.2210693359375
 20
-270.8111267089844
 10
383.22705078125
 20
-270.8111267089844
 10
383.2320556640625
 20
-270.8111267089844
 10
383.5850524902344
 20
-270.8111267089844
 10
383.8840637207031
 20
-270.5511169433594
 10
383.9340515136719
 20
-270.2011413574219
 10
383.9340515136719
 20
-270.2011413574219
 10
385.8150634765625
 20
-256.8781433105469
 10
385.8150634765625
 20
-256.8781433105469
 10
385.8150634765625
 20
-256.8781433105469
 10
391.7290649414062
 20
-250.962158203125
 10
391.7290649414062
 20
-250.962158203125
 10
391.7950744628906
 20
-250.8971557617188
 10
391.8480529785156
 20
-250.8171691894531
 10
391.8840637207031
 20
-250.7301635742188
 10
391.9130554199219
 20
-250.6591491699219
 10
391.924072265625
 20
-250.5831604003906
 10
391.9290771484375
 20
-250.5061645507812
 10
391.9300842285156
 20
-250.4891662597656
 10
391.9390869140625
 20
-250.4761657714844
 10
391.9390869140625
 20
-250.4591674804688
 10
391.9390869140625
 20
-250.0641784667969
 10
392.1570739746094
 20
-244.0121765136719
 10
392.2480773925781
 20
-241.5361633300781
 10
392.2480773925781
 20
-241.5361633300781
 10
395.1240844726562
 20
-235.1921691894531
 10
395.1240844726562
 20
-235.1921691894531
 10
395.1240844726562
 20
-235.1921691894531
 10
403.3070983886719
 20
-235.5531616210938
 10
403.3070983886719
 20
-235.5531616210938
 10
403.3180847167969
 20
-235.5531616210938
 10
403.3280944824219
 20
-235.5541687011719
 10
403.3381042480469
 20
-235.5541687011719
 10
403.3381042480469
 20
-235.5541687011719
 10
403.3381042480469
 20
-235.5541687011719
 10
403.339111328125
 20
-235.5541687011719
 10
403.339111328125
 20
-235.5541687011719
 10
403.339111328125
 20
-235.5541687011719
 10
403.339111328125
 20
-235.5541687011719
 10
403.3421020507812
 20
-235.5541687011719
 10
403.3441162109375
 20
-235.5521545410156
 10
403.3471069335938
 20
-235.5521545410156
 10
403.4541015625
 20
-235.5511474609375
 10
403.55810546875
 20
-235.5231628417969
 10
403.6531066894531
 20
-235.4761657714844
 10
403.6581115722656
 20
-235.4731750488281
 10
403.6640930175781
 20
-235.4751586914062
 10
403.6690979003906
 20
-235.47216796875
 10
403.6690979003906
 20
-235.47216796875
 10
408.4371032714844
 20
-232.962158203125
 10
408.4371032714844
 20
-232.962158203125
 10
408.6611022949219
 20
-232.8451538085938
 10
408.8041076660156
 20
-232.6171569824219
 10
408.8150939941406
 20
-232.3651733398438
 10
408.8150939941406
 20
-232.3651733398438
 10
408.9990844726562
 20
-228.0051879882812
 10
408.9990844726562
 20
-228.0051879882812
 10
409.0119934082031
 20
-227.6289978027344
 10
408.7340087890625
 20
-227.3080139160156
 10
408.3630065917969
 20
-227.2680053710938
 97
        0
 97
        0
 92
        1
 93
        5
 72
     1
 10
390.4079895019531
 20
-217.9960021972656
 11
395.0499877929688
 21
-231.9179992675781
 72
     1
 10
395.0499877929688
 20
-231.9179992675781
 11
391.2039794921875
 21
-240.3999938964844
 72
     1
 10
391.2039794921875
 20
-240.3999938964844
 11
383.5579833984375
 21
-236.5220031738281
 72
     1
 10
383.5579833984375
 20
-236.5220031738281
 11
382.4299926757812
 21
-223.2040100097656
 72
     1
 10
382.4299926757812
 20
-223.2040100097656
 11
390.4079895019531
 21
-217.9960021972656
 97
        0
 92
        1
 93
        1
 72
     4
 94
        3
 73
     0
 74
     1
 95
       23
 96
       19
 40
0.0
 40
0.0
 40
0.0
 40
0.0
 40
1.0
 40
1.0
 40
1.0
 40
2.0
 40
2.0
 40
2.0
 40
3.0
 40
3.0
 40
3.0
 40
4.0
 40
4.0
 40
4.0
 40
5.0
 40
5.0
 40
5.0
 40
6.0
 40
6.0
 40
6.0
 40
6.0
 10
376.2460021972656
 20
-264.4429931640625
 10
376.2460021972656
 20
-264.4429931640625
 10
381.4970092773438
 20
-228.9750061035156
 10
381.4970092773438
 20
-228.9750061035156
 10
381.4970092773438
 20
-228.9750061035156
 10
382.1800231933594
 20
-237.0350036621094
 10
382.1800231933594
 20
-237.0350036621094
 10
382.2010192871094
 20
-237.2799987792969
 10
382.3470153808594
 20
-237.4960021972656
 10
382.5660095214844
 20
-237.6069946289062
 10
382.5660095214844
 20
-237.6069946289062
 10
390.8200073242188
 20
-241.7940063476562
 10
390.8200073242188
 20
-241.7940063476562
 10
390.760009765625
 20
-243.4140014648438
 10
390.5650024414062
 20
-248.8059997558594
 10
390.5280151367188
 20
-250.156005859375
 10
390.5280151367188
 20
-250.156005859375
 10
376.2460021972656
 20
-264.4429931640625
 10
376.2460021972656
 20
-264.4429931640625
 97
        0
 97
        0
 92
        1
 93
        4
 72
     1
 10
378.5390014648438
 20
-239.2770080566406
 11
374.6210021972656
 21
-265.7430114746094
 72
     1
 10
374.6210021972656
 20
-265.7430114746094
 11
367.2130126953125
 21
-260.4349975585938
 72
     1
 10
367.2130126953125
 20
-260.4349975585938
 11
357.9440002441406
 21
-247.0809936523438
 72
     1
 10
357.9440002441406
 20
-247.0809936523438
 11
378.5390014648438
 21
-239.2770080566406
 97
        0
 92
        1
 93
        4
 72
     1
 10
349.260986328125
 20
-262.2579956054688
 11
350.6189880371094
 21
-255.2229919433594
 72
     1
 10
350.6189880371094
 20
-255.2229919433594
 11
356.7899780273438
 21
-247.9049987792969
 72
     1
 10
356.7899780273438
 20
-247.9049987792969
 11
365.4429931640625
 21
-260.3739929199219
 72
     1
 10
365.4429931640625
 20
-260.3739929199219
 11
349.260986328125
 21
-262.2579956054688
 97
        0
 92
        1
 93
        1
 72
     4
 94
        3
 73
     0
 74
     1
 95
       26
 96
       22
 40
0.0
 40
0.0
 40
0.0
 40
0.0
 40
1.0
 40
1.0
 40
1.0
 40
2.0
 40
2.0
 40
2.0
 40
3.0
 40
3.0
 40
3.0
 40
4.0
 40
4.0
 40
4.0
 40
5.0
 40
5.0
 40
5.0
 40
6.0
 40
6.0
 40
6.0
 40
7.0
 40
7.0
 40
7.0
 40
7.0
 10
349.0910034179688
 20
-241.5360107421875
 10
349.0910034179688
 20
-241.5360107421875
 10
350.9469909667969
 20
-247.4909973144531
 10
350.9469909667969
 20
-247.4909973144531
 10
350.9849853515625
 20
-247.6130065917969
 10
351.0549926757812
 20
-247.7219848632812
 10
351.1510009765625
 20
-247.8079833984375
 10
351.1510009765625
 20
-247.8079833984375
 10
353.3529968261719
 20
-249.7809753417969
 10
353.3529968261719
 20
-249.7809753417969
 10
353.3529968261719
 20
-249.7809753417969
 10
350.1940002441406
 20
-253.5269775390625
 10
350.1940002441406
 20
-253.5269775390625
 10
350.1940002441406
 20
-253.5269775390625
 10
349.0899963378906
 20
-250.6069641113281
 10
349.0899963378906
 20
-250.6069641113281
 10
349.0899963378906
 20
-250.6069641113281
 10
349.0899963378906
 20
-241.5360107421875
 10
349.0899963378906
 20
-241.5360107421875
 10
349.0899963378906
 20
-241.5360107421875
 10
349.0910034179688
 20
-241.5360107421875
 10
349.0910034179688
 20
-241.5360107421875
 97
        0
 97
        0
 92
        1
 93
        1
 72
     4
 94
        3
 73
     0
 74
     1
 95
       14
 96
       10
 40
0.0
 40
0.0
 40
0.0
 40
0.0
 40
1.0
 40
1.0
 40
1.0
 40
2.0
 40
2.0
 40
2.0
 40
3.0
 40
3.0
 40
3.0
 40
3.0
 10
358.7059936523438
 20
-269.3909912109375
 10
358.7059936523438
 20
-269.3909912109375
 10
351.2980041503906
 20
-269.3909912109375
 10
351.2980041503906
 20
-269.3909912109375
 10
351.2980041503906
 20
-269.3909912109375
 10
356.7659912109375
 20
-265.0619812011719
 10
356.7659912109375
 20
-265.0619812011719
 10
357.093994140625
 20
-265.8529968261719
 10
357.6749877929688
 20
-267.1679992675781
 10
358.7059936523438
 20
-269.3909912109375
 97
        0
 97
        0
 92
        1
 93
        1
 72
     4
 94
        3
 73
     0
 74
     1
 95
       20
 96
       16
 40
0.0
 40
0.0
 40
0.0
 40
0.0
 40
1.0
 40
1.0
 40
1.0
 40
2.0
 40
2.0
 40
2.0
 40
3.0
 40
3.0
 40
3.0
 40
4.0
 40
4.0
 40
4.0
 40
5.0
 40
5.0
 40
5.0
 40
5.0
 10
356.9440002441406
 20
-263.1130065917969
 10
356.6889953613281
 20
-263.1520080566406
 10
356.4800109863281
 20
-263.3160095214844
 10
356.3909912109375
 20
-263.5509948730469
 10
356.3909912109375
 20
-263.5509948730469
 10
349.8069763183594
 20
-268.7630004882812
 10
349.8069763183594
 20
-268.7630004882812
 10
349.8069763183594
 20
-268.7630004882812
 10
349.1729736328125
 20
-263.6950073242188
 10
349.1729736328125
 20
-263.6950073242188
 10
349.1729736328125
 20
-263.6950073242188
 10
357.4219665527344
 20
-262.7350158691406
 10
357.4219665527344
 20
-262.7350158691406
 10
357.4219665527344
 20
-262.7350158691406
 10
356.9440002441406
 20
-263.1130065917969
 10
356.9440002441406
 20
-263.1130065917969
 97
        0
 97
        0
 92
        1
 93
        4
 72
     1
 10
382.6180114746094
 20
-269.3770141601562
 11
377.9540100097656
 21
-269.2730102539062
 72
     1
 10
377.9540100097656
 20
-269.2730102539062
 11
375.8930053710938
 21
-266.801025390625
 72
     1
 10
375.8930053710938
 20
-266.801025390625
 11
384.1470031738281
 21
-258.5440368652344
 72
     1
 10
384.1470031738281
 20
-258.5440368652344
 11
382.6180114746094
 21
-269.3770141601562
 97
        0
 92
        1
 93
        1
 72
     4
 94
        3
 73
     0
 74
     1
 95
       23
 96
       19
 40
0.0
 40
0.0
 40
0.0
 40
0.0
 40
1.0
 40
1.0
 40
1.0
 40
2.0
 40
2.0
 40
2.0
 40
3.0
 40
3.0
 40
3.0
 40
4.0
 40
4.0
 40
4.0
 40
5.0
 40
5.0
 40
5.0
 40
6.0
 40
6.0
 40
6.0
 40
6.0
 10
395.7529907226562
 20
-233.7990112304688
 10
395.7529907226562
 20
-233.7990112304688
 10
396.4549865722656
 20
-232.25
 10
396.4549865722656
 20
-232.25
 10
396.5279846191406
 20
-232.0870056152344
 10
396.5379943847656
 20
-231.9020080566406
 10
396.4809875488281
 20
-231.7319946289062
 10
396.4809875488281
 20
-231.7319946289062
 10
392.114990234375
 20
-218.635009765625
 10
392.114990234375
 20
-218.635009765625
 10
392.114990234375
 20
-218.635009765625
 10
400.3209838867188
 20
-224.1050109863281
 10
400.3209838867188
 20
-224.1050109863281
 10
400.3209838867188
 20
-224.1050109863281
 10
402.4519958496094
 20
-234.0940246582031
 10
402.4519958496094
 20
-234.0940246582031
 10
402.4519958496094
 20
-234.0940246582031
 10
395.7529907226562
 20
-233.7990112304688
 10
395.7529907226562
 20
-233.7990112304688
 97
        0
 97
        0
 92
        1
 93
        4
 72
     1
 10
407.4140014648438
 20
-231.89599609375
 11
403.8349914550781
 21
-233.781005859375
 72
     1
 10
403.8349914550781
 20
-233.781005859375
 11
402.6189880371094
 21
-228.0830078125
 72
     1
 10
402.6189880371094
 20
-228.0830078125
 11
407.552001953125
 21
-228.6080017089844
 72
     1
 10
407.552001953125
 20
-228.6080017089844
 11
407.4140014648438
 21
-231.89599609375
 97
        0
 75
     2
 76
     1
 98
        0
  0
MTEXT
  5
6C
330
1F
100
AcDbEntity
  8
Layer 1
 62
     7
420
 16777215
100
AcDbMText
 10
325.5
 20
-308.5
 30
0.0
 40
3.54
 41
0.0
 46
0.0
 71
     7
 72
     1
  1
\fHelvetica Neue|b1|i0|c0|p34;\W1;Created by Agne Alesiute
 73
     1
 44
1.0
  0
MTEXT
  5
6D
330
1F
100
AcDbEntity
  8
Layer 1
 62
     7
420
 16777215
100
AcDbMText
 10
325.5
 20
-313.5
 30
0.0
 40
3.54
 41
0.0
 46
0.0
 71
     7
 72
     1
  1
\fHelvetica Neue|b1|i0|c0|p34;\W1;from the Noun Project
 73
     1
 44
1.0
  0
ENDSEC
  0
SECTION
  2
OBJECTS
  0
DICTIONARY
  5
C
330
0
100
AcDbDictionary
281
     1
  3
ACAD_GROUP
350
D
  3
ACAD_LAYOUT
350
1A
  3
ACAD_MATERIAL
350
3B
  3
ACAD_MLEADERSTYLE
350
6F
  3
ACAD_MLINESTYLE
350
17
  3
ACAD_PLOTSETTINGS
350
19
  3
ACAD_PLOTSTYLENAME
350
E
  3
ACAD_TABLESTYLE
350
6E
  3
ACAD_VISUALSTYLE
350
2A
  0
SUN
  5
3F
330
29
100
AcDbSun
 90
        1
290
     0
 63
     7
421
 16777215
 40
1.0
291
     1
 91
  2455826
 92
 54000000
292
     0
 70
     2
 71
   256
280
     1
  0
DICTIONARY
  5
D
102
{ACAD_REACTORS
330
C
102
}
330
C
100
AcDbDictionary
281
     1
  0
DICTIONARY
  5
1A
102
{ACAD_REACTORS
330
C
102
}
330
C
100
AcDbDictionary
281
     1
  3
Layout1
350
1E
  3
Layout2
350
26
  3
Model
350
22
  0
DICTIONARY
  5
3B
102
{ACAD_REACTORS
330
C
102
}
330
C
100
AcDbDictionary
281
     1
  3
ByBlock
350
3D
  3
ByLayer
350
3C
  3
Global
350
3E
  0
DICTIONARY
  5
6F
102
{ACAD_REACTORS
330
C
102
}
330
C
100
AcDbDictionary
281
     1
  0
DICTIONARY
  5
17
102
{ACAD_REACTORS
330
C
102
}
330
C
100
AcDbDictionary
281
     1
  3
Standard
350
18
  0
DICTIONARY
  5
19
102
{ACAD_REACTORS
330
C
102
}
330
C
100
AcDbDictionary
281
     1
  0
ACDBDICTIONARYWDFLT
  5
E
102
{ACAD_REACTORS
330
C
102
}
330
C
100
AcDbDictionary
281
     1
  3
Normal
350
F
100
AcDbDictionaryWithDefault
340
F
  0
DICTIONARY
  5
6E
102
{ACAD_REACTORS
330
C
102
}
330
C
100
AcDbDictionary
281
     1
  0
DICTIONARY
  5
2A
102
{ACAD_REACTORS
330
C
102
}
330
C
100
AcDbDictionary
281
     1
  3
2dWireframe
350
2F
  3
3D Hidden
350
31
  3
3dWireframe
350
30
  3
Basic
350
32
  3
Brighten
350
36
  3
ColorChange
350
3A
  3
Conceptual
350
34
  3
Dim
350
35
  3
Facepattern
350
39
  3
Flat
350
2B
  3
FlatWithEdges
350
2C
  3
Gouraud
350
2D
  3
GouraudWithEdges
350
2E
  3
Linepattern
350
38
  3
Realistic
350
33
  3
Thicken
350
37
  0
LAYOUT
  5
1E
102
{ACAD_REACTORS
330
1A
102
}
330
1A
100
AcDbPlotSettings
  1

  2
none_device
  4

  6

 40
0.0
 41
0.0
 42
0.0
 43
0.0
 44
0.0
 45
0.0
 46
0.0
 47
0.0
 48
0.0
 49
0.0
140
0.0
141
0.0
142
1.0
143
1.0
 70
   688
 72
     0
 73
     0
 74
     5
  7

 75
    16
 76
     0
 77
     2
 78
   300
147
1.0
148
0.0
149
0.0
100
AcDbLayout
  1
Layout1
 70
     1
 71
     1
 10
0.0
 20
0.0
 11
12.0
 21
9.0
 12
0.0
 22
0.0
 32
0.0
 14
1.000000000000000E+20
 24
1.000000000000000E+20
 34
1.000000000000000E+20
 15
-1.000000000000000E+20
 25
-1.000000000000000E+20
 35
-1.000000000000000E+20
146
0.0
 13
0.0
 23
0.0
 33
0.0
 16
1.0
 26
0.0
 36
0.0
 17
0.0
 27
1.0
 37
0.0
 76
     0
330
1B
  0
LAYOUT
  5
26
102
{ACAD_REACTORS
330
1A
102
}
330
1A
100
AcDbPlotSettings
  1

  2
none_device
  4

  6

 40
0.0
 41
0.0
 42
0.0
 43
0.0
 44
0.0
 45
0.0
 46
0.0
 47
0.0
 48
0.0
 49
0.0
140
0.0
141
0.0
142
1.0
143
1.0
 70
   688
 72
     0
 73
     0
 74
     5
  7

 75
    16
 76
     0
 77
     2
 78
   300
147
1.0
148
0.0
149
0.0
100
AcDbLayout
  1
Layout2
 70
     1
 71
     2
 10
0.0
 20
0.0
 11
0.0
 21
0.0
 12
0.0
 22
0.0
 32
0.0
 14
0.0
 24
0.0
 34
0.0
 15
0.0
 25
0.0
 35
0.0
146
0.0
 13
0.0
 23
0.0
 33
0.0
 16
1.0
 26
0.0
 36
0.0
 17
0.0
 27
1.0
 37
0.0
 76
     0
330
23
  0
LAYOUT
  5
22
102
{ACAD_REACTORS
330
1A
102
}
330
1A
100
AcDbPlotSettings
  1

  2
none_device
  4

  6

 40
0.0
 41
0.0
 42
0.0
 43
0.0
 44
0.0
 45
0.0
 46
0.0
 47
0.0
 48
0.0
 49
0.0
140
0.0
141
0.0
142
1.0
143
1.0
 70
  1712
 72
     0
 73
     0
 74
     0
  7

 75
     0
 76
     0
 77
     2
 78
   300
147
1.0
148
0.0
149
0.0
100
AcDbLayout
  1
Model
 70
     1
 71
     0
 10
0.0
 20
0.0
 11
12.0
 21
9.0
 12
0.0
 22
0.0
 32
0.0
 14
1.000000000000000E+20
 24
1.000000000000000E+20
 34
1.000000000000000E+20
 15
-1.000000000000000E+20
 25
-1.000000000000000E+20
 35
-1.000000000000000E+20
146
0.0
 13
0.0
 23
0.0
 33
0.0
 16
1.0
 26
0.0
 36
0.0
 17
0.0
 27
1.0
 37
0.0
 76
     0
330
1F
331
29
  0
MATERIAL
  5
3D
102
{ACAD_REACTORS
330
3B
102
}
330
3B
100
AcDbMaterial
  1
ByBlock
 72
     1
 94
      127
  0
MATERIAL
  5
3C
102
{ACAD_REACTORS
330
3B
102
}
330
3B
100
AcDbMaterial
  1
ByLayer
 72
     1
 94
      127
  0
MATERIAL
  5
3E
102
{ACAD_REACTORS
330
3B
102
}
330
3B
100
AcDbMaterial
  1
Global
 72
     1
 94
      127
  0
MLINESTYLE
  5
18
102
{ACAD_REACTORS
330
17
102
}
330
17
100
AcDbMlineStyle
  2
Standard
 70
     0
  3

 62
   256
 51
90.0
 52
90.0
 71
     2
 49
0.5
 62
   256
  6
BYLAYER
 49
-0.5
 62
   256
  6
BYLAYER
  0
ACDBPLACEHOLDER
  5
F
102
{ACAD_REACTORS
330
E
102
}
330
E
  0
VISUALSTYLE
  5
2F
102
{ACAD_REACTORS
330
2A
102
}
330
2A
100
AcDbVisualStyle
  2
2dWireframe
 70
     4
177
     2
291
     0
 71
     0
176
     1
 72
     2
176
     1
 73
     0
176
     1
 90
        0
176
     1
 40
-0.6
176
     1
 41
-30.0
176
     1
 62
     5
 63
     7
421
 16777215
176
     1
 74
     1
176
     1
 91
        4
176
     1
 64
     7
176
     1
 65
   257
176
     1
 75
     1
176
     1
175
     1
176
     1
 42
1.0
176
     1
 92
        0
176
     1
 66
   257
176
     1
 43
1.0
176
     1
 76
     1
176
     1
 77
     6
176
     1
 78
     2
176
     1
 67
     7
176
     1
 79
     5
176
     1
170
     0
176
     1
171
     0
176
     1
290
     0
176
     1
 93
        1
176
     1
 44
0.0
176
     1
173
     0
176
     1
  0
VISUALSTYLE
  5
31
102
{ACAD_REACTORS
330
2A
102
}
330
2A
100
AcDbVisualStyle
  2
3D Hidden
 70
     6
177
     2
291
     0
 71
     1
176
     1
 72
     2
176
     1
 73
     2
176
     1
 90
        0
176
     1
 40
-0.6
176
     1
 41
-30.0
176
     1
 62
     5
 63
     7
421
 16777215
176
     1
 74
     2
176
     1
 91
        2
176
     1
 64
     7
176
     1
 65
   257
176
     1
 75
     2
176
     1
175
     1
176
     1
 42
40.0
176
     1
 92
        0
176
     1
 66
   257
176
     1
 43
1.0
176
     1
 76
     1
176
     1
 77
     6
176
     1
 78
     2
176
     1
 67
     7
176
     1
 79
     3
176
     1
170
     0
176
     1
171
     0
176
     1
290
     0
176
     1
 93
        1
176
     1
 44
0.0
176
     1
173
     0
176
     1
  0
VISUALSTYLE
  5
30
102
{ACAD_REACTORS
330
2A
102
}
330
2A
100
AcDbVisualStyle
  2
3dWireframe
 70
     5
177
     2
291
     0
 71
     0
176
     1
 72
     2
176
     1
 73
     0
176
     1
 90
        0
176
     1
 40
-0.6
176
     1
 41
-30.0
176
     1
 62
     5
 63
     7
421
 16777215
176
     1
 74
     1
176
     1
 91
        4
176
     1
 64
     7
176
     1
 65
   257
176
     1
 75
     1
176
     1
175
     1
176
     1
 42
1.0
176
     1
 92
        0
176
     1
 66
   257
176
     1
 43
1.0
176
     1
 76
     1
176
     1
 77
     6
176
     1
 78
     2
176
     1
 67
     7
176
     1
 79
     5
176
     1
170
     0
176
     1
171
     0
176
     1
290
     0
176
     1
 93
        1
176
     1
 44
0.0
176
     1
173
     0
176
     1
  0
VISUALSTYLE
  5
32
102
{ACAD_REACTORS
330
2A
102
}
330
2A
100
AcDbVisualStyle
  2
Basic
 70
     7
177
     2
291
     1
 71
     1
176
     1
 72
     0
176
     1
 73
     1
176
     1
 90
        0
176
     1
 40
-0.6
176
     1
 41
-30.0
176
     1
 62
     5
 63
     7
421
 16777215
176
     1
 74
     0
176
     1
 91
        4
176
     1
 64
     7
176
     1
 65
   257
176
     1
 75
     1
176
     1
175
     1
176
     1
 42
1.0
176
     1
 92
        8
176
     1
 66
     7
176
     1
 43
1.0
176
     1
 76
     1
176
     1
 77
     6
176
     1
 78
     2
176
     1
 67
     7
176
     1
 79
     5
176
     1
170
     0
176
     1
171
     0
176
     1
290
     0
176
     1
 93
        1
176
     1
 44
0.0
176
     1
173
     0
176
     1
  0
VISUALSTYLE
  5
36
102
{ACAD_REACTORS
330
2A
102
}
330
2A
100
AcDbVisualStyle
  2
Brighten
 70
    12
177
     2
291
     1
 71
     2
176
     1
 72
     2
176
     1
 73
     0
176
     1
 90
        0
176
     1
 40
-0.6
176
     1
 41
-30.0
176
     1
 62
     5
 63
     7
421
 16777215
176
     1
 74
     1
176
     1
 91
        4
176
     1
 64
     7
176
     1
 65
   257
176
     1
 75
     1
176
     1
175
     1
176
     1
 42
1.0
176
     1
 92
        8
176
     1
 66
     7
176
     1
 43
1.0
176
     1
 76
     1
176
     1
 77
     6
176
     1
 78
     2
176
     1
 67
     7
176
     1
 79
     5
176
     1
170
     0
176
     1
171
     0
176
     1
290
     0
176
     1
 93
        1
176
     1
 44
50.0
176
     1
173
     0
176
     1
  0
VISUALSTYLE
  5
3A
102
{ACAD_REACTORS
330
2A
102
}
330
2A
100
AcDbVisualStyle
  2
ColorChange
 70
    16
177
     2
291
     1
 71
     2
176
     1
 72
     2
176
     1
 73
     3
176
     1
 90
        0
176
     1
 40
-0.6
176
     1
 41
-30.0
176
     1
 62
     5
 63
     8
421
  8421504
176
     1
 74
     1
176
     1
 91
        4
176
     1
 64
     7
176
     1
 65
   257
176
     1
 75
     1
176
     1
175
     1
176
     1
 42
1.0
176
     1
 92
        8
176
     1
 66
     8
424
  8421504
176
     1
 43
1.0
176
     1
 76
     1
176
     1
 77
     6
176
     1
 78
     2
176
     1
 67
     7
176
     1
 79
     5
176
     1
170
     0
176
     1
171
     0
176
     1
290
     0
176
     1
 93
        1
176
     1
 44
0.0
176
     1
173
     0
176
     1
  0
VISUALSTYLE
  5
34
102
{ACAD_REACTORS
330
2A
102
}
330
2A
100
AcDbVisualStyle
  2
Conceptual
 70
     9
177
     2
291
     0
 71
     3
176
     1
 72
     2
176
     1
 73
     0
176
     1
 90
        0
176
     1
 40
-0.6
176
     1
 41
-30.0
176
     1
 62
     5
 63
     7
421
 16777215
176
     1
 74
     2
176
     1
 91
        2
176
     1
 64
     7
176
     1
 65
   257
176
     1
 75
     1
176
     1
175
     1
176
     1
 42
40.0
176
     1
 92
        8
176
     1
 66
     7
176
     1
 43
1.0
176
     1
 76
     1
176
     1
 77
     6
176
     1
 78
     2
176
     1
 67
     7
176
     1
 79
     3
176
     1
170
     0
176
     1
171
     0
176
     1
290
     0
176
     1
 93
        1
176
     1
 44
0.0
176
     1
173
     0
176
     1
  0
VISUALSTYLE
  5
35
102
{ACAD_REACTORS
330
2A
102
}
330
2A
100
AcDbVisualStyle
  2
Dim
 70
    11
177
     2
291
     1
 71
     2
176
     1
 72
     2
176
     1
 73
     0
176
     1
 90
        0
176
     1
 40
-0.6
176
     1
 41
-30.0
176
     1
 62
     5
 63
     7
421
 16777215
176
     1
 74
     1
176
     1
 91
        4
176
     1
 64
     7
176
     1
 65
   257
176
     1
 75
     1
176
     1
175
     1
176
     1
 42
1.0
176
     1
 92
        8
176
     1
 66
     7
176
     1
 43
1.0
176
     1
 76
     1
176
     1
 77
     6
176
     1
 78
     2
176
     1
 67
     7
176
     1
 79
     5
176
     1
170
     0
176
     1
171
     0
176
     1
290
     0
176
     1
 93
        1
176
     1
 44
-50.0
176
     1
173
     0
176
     1
  0
VISUALSTYLE
  5
39
102
{ACAD_REACTORS
330
2A
102
}
330
2A
100
AcDbVisualStyle
  2
Facepattern
 70
    15
177
     2
291
     1
 71
     2
176
     1
 72
     2
176
     1
 73
     0
176
     1
 90
        0
176
     1
 40
-0.6
176
     1
 41
-30.0
176
     1
 62
     5
 63
     7
421
 16777215
176
     1
 74
     1
176
     1
 91
        4
176
     1
 64
     7
176
     1
 65
   257
176
     1
 75
     1
176
     1
175
     1
176
     1
 42
1.0
176
     1
 92
        8
176
     1
 66
     7
176
     1
 43
1.0
176
     1
 76
     1
176
     1
 77
     6
176
     1
 78
     2
176
     1
 67
     7
176
     1
 79
     5
176
     1
170
     0
176
     1
171
     0
176
     1
290
     0
176
     1
 93
        1
176
     1
 44
0.0
176
     1
173
     0
176
     1
  0
VISUALSTYLE
  5
2B
102
{ACAD_REACTORS
330
2A
102
}
330
2A
100
AcDbVisualStyle
  2
Flat
 70
     0
177
     2
291
     1
 71
     2
176
     1
 72
     1
176
     1
 73
     1
176
     1
 90
        2
176
     1
 40
-0.6
176
     1
 41
30.0
176
     1
 62
     5
 63
     7
421
 16777215
176
     1
 74
     0
176
     1
 91
        4
176
     1
 64
     7
176
     1
 65
   257
176
     1
 75
     1
176
     1
175
     1
176
     1
 42
1.0
176
     1
 92
        8
176
     1
 66
     7
176
     1
 43
1.0
176
     1
 76
     1
176
     1
 77
     6
176
     1
 78
     2
176
     1
 67
     7
176
     1
 79
     5
176
     1
170
     0
176
     1
171
     0
176
     1
290
     0
176
     1
 93
       13
176
     1
 44
0.0
176
     1
173
     0
176
     1
  0
VISUALSTYLE
  5
2C
102
{ACAD_REACTORS
330
2A
102
}
330
2A
100
AcDbVisualStyle
  2
FlatWithEdges
 70
     1
177
     2
291
     1
 71
     2
176
     1
 72
     1
176
     1
 73
     1
176
     1
 90
        2
176
     1
 40
-0.6
176
     1
 41
30.0
176
     1
 62
     5
 63
     7
421
 16777215
176
     1
 74
     1
176
     1
 91
        4
176
     1
 64
     7
176
     1
 65
   257
176
     1
 75
     1
176
     1
175
     1
176
     1
 42
1.0
176
     1
 92
        0
176
     1
 66
   257
176
     1
 43
1.0
176
     1
 76
     1
176
     1
 77
     6
176
     1
 78
     2
176
     1
 67
     7
176
     1
 79
     5
176
     1
170
     0
176
     1
171
     0
176
     1
290
     0
176
     1
 93
       13
176
     1
 44
0.0
176
     1
173
     0
176
     1
  0
VISUALSTYLE
  5
2D
102
{ACAD_REACTORS
330
2A
102
}
330
2A
100
AcDbVisualStyle
  2
Gouraud
 70
     2
177
     2
291
     1
 71
     2
176
     1
 72
     2
176
     1
 73
     1
176
     1
 90
        2
176
     1
 40
-0.6
176
     1
 41
30.0
176
     1
 62
     5
 63
     7
421
 16777215
176
     1
 74
     0
176
     1
 91
        4
176
     1
 64
     7
176
     1
 65
   257
176
     1
 75
     1
176
     1
175
     1
176
     1
 42
1.0
176
     1
 92
        0
176
     1
 66
     7
176
     1
 43
1.0
176
     1
 76
     1
176
     1
 77
     6
176
     1
 78
     2
176
     1
 67
     7
176
     1
 79
     5
176
     1
170
     0
176
     1
171
     0
176
     1
290
     0
176
     1
 93
       13
176
     1
 44
0.0
176
     1
173
     0
176
     1
  0
VISUALSTYLE
  5
2E
102
{ACAD_REACTORS
330
2A
102
}
330
2A
100
AcDbVisualStyle
  2
GouraudWithEdges
 70
     3
177
     2
291
     1
 71
     2
176
     1
 72
     2
176
     1
 73
     1
176
     1
 90
        2
176
     1
 40
-0.6
176
     1
 41
30.0
176
     1
 62
     5
 63
     7
421
 16777215
176
     1
 74
     1
176
     1
 91
        4
176
     1
 64
     7
176
     1
 65
   257
176
     1
 75
     1
176
     1
175
     1
176
     1
 42
1.0
176
     1
 92
        0
176
     1
 66
   257
176
     1
 43
1.0
176
     1
 76
     1
176
     1
 77
     6
176
     1
 78
     2
176
     1
 67
     7
176
     1
 79
     5
176
     1
170
     0
176
     1
171
     0
176
     1
290
     0
176
     1
 93
       13
176
     1
 44
0.0
176
     1
173
     0
176
     1
  0
VISUALSTYLE
  5
38
102
{ACAD_REACTORS
330
2A
102
}
330
2A
100
AcDbVisualStyle
  2
Linepattern
 70
    14
177
     2
291
     1
 71
     2
176
     1
 72
     2
176
     1
 73
     0
176
     1
 90
        0
176
     1
 40
-0.6
176
     1
 41
-30.0
176
     1
 62
     5
 63
     7
421
 16777215
176
     1
 74
     1
176
     1
 91
        4
176
     1
 64
     7
176
     1
 65
   257
176
     1
 75
     7
176
     1
175
     7
176
     1
 42
1.0
176
     1
 92
        8
176
     1
 66
     7
176
     1
 43
1.0
176
     1
 76
     1
176
     1
 77
     6
176
     1
 78
     2
176
     1
 67
     7
176
     1
 79
     5
176
     1
170
     0
176
     1
171
     0
176
     1
290
     0
176
     1
 93
        1
176
     1
 44
0.0
176
     1
173
     0
176
     1
  0
VISUALSTYLE
  5
33
102
{ACAD_REACTORS
330
2A
102
}
330
2A
100
AcDbVisualStyle
  2
Realistic
 70
     8
177
     2
291
     0
 71
     2
176
     1
 72
     2
176
     1
 73
     0
176
     1
 90
        0
176
     1
 40
-0.6
176
     1
 41
-30.0
176
     1
 62
     5
 63
     7
421
 16777215
176
     1
 74
     1
176
     1
 91
        0
176
     1
 64
     7
176
     1
 65
   257
176
     1
 75
     1
176
     1
175
     1
176
     1
 42
1.0
176
     1
 92
        8
176
     1
 66
     8
424
  7895160
176
     1
 43
1.0
176
     1
 76
     1
176
     1
 77
     6
176
     1
 78
     2
176
     1
 67
     7
176
     1
 79
     5
176
     1
170
     0
176
     1
171
     0
176
     1
290
     0
176
     1
 93
       13
176
     1
 44
0.0
176
     1
173
     0
176
     1
  0
VISUALSTYLE
  5
37
102
{ACAD_REACTORS
330
2A
102
}
330
2A
100
AcDbVisualStyle
  2
Thicken
 70
    13
177
     2
291
     1
 71
     2
176
     1
 72
     2
176
     1
 73
     0
176
     1
 90
        0
176
     1
 40
-0.6
176
     1
 41
-30.0
176
     1
 62
     5
 63
     7
421
 16777215
176
     1
 74
     1
176
     1
 91
        4
176
     1
 64
     7
176
     1
 65
   257
176
     1
 75
     1
176
     1
175
     1
176
     1
 42
1.0
176
     1
 92
       12
176
     1
 66
     7
176
     1
 43
1.0
176
     1
 76
     1
176
     1
 77
     6
176
     1
 78
     2
176
     1
 67
     7
176
     1
 79
     5
176
     1
170
     0
176
     1
171
     0
176
     1
290
     0
176
     1
 93
        1
176
     1
 44
0.0
176
     1
173
     0
176
     1
  0
ENDSEC
  0
EOF
