  0
SECTION
  2
HEADER
  9
$ACADVER
  1
AC1024
  9
$ACADMAINTVER
 70
     6
  9
$DWGCODEPAGE
  3
UNDEFINED
  9
$INSBASE
 10
0.0
 20
0.0
 30
0.0
  9
$EXTMIN
 10
1.000000000000000E+20
 20
1.000000000000000E+20
 30
1.000000000000000E+20
  9
$EXTMAX
 10
-1.000000000000000E+20
 20
-1.000000000000000E+20
 30
-1.000000000000000E+20
  9
$LIMMIN
 10
0.0
 20
0.0
  9
$LIMMAX
 10
12.0
 20
9.0
  9
$ORTHOMODE
 70
     0
  9
$REGENMODE
 70
     1
  9
$FILLMODE
 70
     1
  9
$QTEXTMODE
 70
     0
  9
$MIRRTEXT
 70
     1
  9
$LTSCALE
 40
1.0
  9
$ATTMODE
 70
     1
  9
$TEXTSIZE
 40
0.2
  9
$TRACEWID
 40
0.05
  9
$TEXTSTYLE
  7
Standard
  9
$CLAYER
  8
0
  9
$CELTYPE
  6
ByLayer
  9
$CECOLOR
 62
   256
  9
$CELTSCALE
 40
1.0
  9
$DISPSILH
 70
     0
  9
$DIMSCALE
 40
1.0
  9
$DIMASZ
 40
0.18
  9
$DIMEXO
 40
0.0625
  9
$DIMDLI
 40
0.38
  9
$DIMRND
 40
0.0
  9
$DIMDLE
 40
0.0
  9
$DIMEXE
 40
0.18
  9
$DIMTP
 40
0.0
  9
$DIMTM
 40
0.0
  9
$DIMTXT
 40
0.18
  9
$DIMCEN
 40
0.09
  9
$DIMTSZ
 40
0.0
  9
$DIMTOL
 70
     0
  9
$DIMLIM
 70
     0
  9
$DIMTIH
 70
     1
  9
$DIMTOH
 70
     1
  9
$DIMSE1
 70
     0
  9
$DIMSE2
 70
     0
  9
$DIMTAD
 70
     0
  9
$DIMZIN
 70
     0
  9
$DIMBLK
  1

  9
$DIMASO
 70
     1
  9
$DIMSHO
 70
     1
  9
$DIMPOST
  1

  9
$DIMAPOST
  1

  9
$DIMALT
 70
     0
  9
$DIMALTD
 70
     2
  9
$DIMALTF
 40
25.4
  9
$DIMLFAC
 40
1.0
  9
$DIMTOFL
 70
     0
  9
$DIMTVP
 40
0.0
  9
$DIMTIX
 70
     0
  9
$DIMSOXD
 70
     0
  9
$DIMSAH
 70
     0
  9
$DIMBLK1
  1

  9
$DIMBLK2
  1

  9
$DIMSTYLE
  2
Standard
  9
$DIMCLRD
 70
     0
  9
$DIMCLRE
 70
     0
  9
$DIMCLRT
 70
     0
  9
$DIMTFAC
 40
1.0
  9
$DIMGAP
 40
0.09
  9
$DIMJUST
 70
     0
  9
$DIMSD1
 70
     0
  9
$DIMSD2
 70
     0
  9
$DIMTOLJ
 70
     1
  9
$DIMTZIN
 70
     0
  9
$DIMALTZ
 70
     0
  9
$DIMALTTZ
 70
     0
  9
$DIMUPT
 70
     0
  9
$DIMDEC
 70
     4
  9
$DIMTDEC
 70
     4
  9
$DIMALTU
 70
     2
  9
$DIMALTTD
 70
     2
  9
$DIMTXSTY
  7
Standard
  9
$DIMAUNIT
 70
     0
  9
$DIMADEC
 70
     0
  9
$DIMALTRND
 40
0.0
  9
$DIMAZIN
 70
     0
  9
$DIMDSEP
 70
    46
  9
$DIMATFIT
 70
     3
  9
$DIMFRAC
 70
     0
  9
$DIMLDRBLK
  1

  9
$DIMLUNIT
 70
     2
  9
$DIMLWD
 70
    -2
  9
$DIMLWE
 70
    -2
  9
$DIMTMOVE
 70
     0
  9
$DIMFXL
 40
1.0
  9
$DIMFXLON
 70
     0
  9
$DIMJOGANG
 40
0.7853981633974483
  9
$DIMTFILL
 70
     0
  9
$DIMTFILLCLR
 70
     0
  9
$DIMARCSYM
 70
     0
  9
$DIMLTYPE
  6

  9
$DIMLTEX1
  6

  9
$DIMLTEX2
  6

  9
$DIMTXTDIRECTION
 70
     0
  9
$LUNITS
 70
     2
  9
$LUPREC
 70
     4
  9
$SKETCHINC
 40
0.1
  9
$FILLETRAD
 40
0.5
  9
$AUNITS
 70
     0
  9
$AUPREC
 70
     0
  9
$MENU
  1
.
  9
$ELEVATION
 40
0.0
  9
$PELEVATION
 40
0.0
  9
$THICKNESS
 40
0.0
  9
$LIMCHECK
 70
     0
  9
$CHAMFERA
 40
0.5
  9
$CHAMFERB
 40
0.5
  9
$CHAMFERC
 40
1.0
  9
$CHAMFERD
 40
0.0
  9
$SKPOLY
 70
     0
  9
$TDCREATE
 40
2457525.597685185
  9
$TDUCREATE
 40
2457525.806018519
  9
$TDUPDATE
 40
2457525.597685185
  9
$TDUUPDATE
 40
2457525.806018519
  9
$TDINDWG
 40
0.0000000116
  9
$TDUSRTIMER
 40
0.0000000116
  9
$USRTIMER
 70
     1
  9
$ANGBASE
 50
0.0
  9
$ANGDIR
 70
     0
  9
$PDMODE
 70
     0
  9
$PDSIZE
 40
0.0
  9
$PLINEWID
 40
0.0
  9
$SPLFRAME
 70
     0
  9
$SPLINETYPE
 70
     6
  9
$SPLINESEGS
 70
     8
  9
$HANDSEED
  5
65
  9
$SURFTAB1
 70
     6
  9
$SURFTAB2
 70
     6
  9
$SURFTYPE
 70
     6
  9
$SURFU
 70
     6
  9
$SURFV
 70
     6
  9
$UCSBASE
  2

  9
$UCSNAME
  2

  9
$UCSORG
 10
0.0
 20
0.0
 30
0.0
  9
$UCSXDIR
 10
1.0
 20
0.0
 30
0.0
  9
$UCSYDIR
 10
0.0
 20
1.0
 30
0.0
  9
$UCSORTHOREF
  2

  9
$UCSORTHOVIEW
 70
     0
  9
$UCSORGTOP
 10
0.0
 20
0.0
 30
0.0
  9
$UCSORGBOTTOM
 10
0.0
 20
0.0
 30
0.0
  9
$UCSORGLEFT
 10
0.0
 20
0.0
 30
0.0
  9
$UCSORGRIGHT
 10
0.0
 20
0.0
 30
0.0
  9
$UCSORGFRONT
 10
0.0
 20
0.0
 30
0.0
  9
$UCSORGBACK
 10
0.0
 20
0.0
 30
0.0
  9
$PUCSBASE
  2

  9
$PUCSNAME
  2

  9
$PUCSORG
 10
0.0
 20
0.0
 30
0.0
  9
$PUCSXDIR
 10
1.0
 20
0.0
 30
0.0
  9
$PUCSYDIR
 10
0.0
 20
1.0
 30
0.0
  9
$PUCSORTHOREF
  2

  9
$PUCSORTHOVIEW
 70
     0
  9
$PUCSORGTOP
 10
0.0
 20
0.0
 30
0.0
  9
$PUCSORGBOTTOM
 10
0.0
 20
0.0
 30
0.0
  9
$PUCSORGLEFT
 10
0.0
 20
0.0
 30
0.0
  9
$PUCSORGRIGHT
 10
0.0
 20
0.0
 30
0.0
  9
$PUCSORGFRONT
 10
0.0
 20
0.0
 30
0.0
  9
$PUCSORGBACK
 10
0.0
 20
0.0
 30
0.0
  9
$USERI1
 70
     0
  9
$USERI2
 70
     0
  9
$USERI3
 70
     0
  9
$USERI4
 70
     0
  9
$USERI5
 70
     0
  9
$USERR1
 40
0.0
  9
$USERR2
 40
0.0
  9
$USERR3
 40
0.0
  9
$USERR4
 40
0.0
  9
$USERR5
 40
0.0
  9
$WORLDVIEW
 70
     1
  9
$SHADEDGE
 70
     3
  9
$SHADEDIF
 70
    70
  9
$TILEMODE
 70
     1
  9
$MAXACTVP
 70
    64
  9
$PINSBASE
 10
0.0
 20
0.0
 30
0.0
  9
$PLIMCHECK
 70
     0
  9
$PEXTMIN
 10
1.000000000000000E+20
 20
1.000000000000000E+20
 30
1.000000000000000E+20
  9
$PEXTMAX
 10
-1.000000000000000E+20
 20
-1.000000000000000E+20
 30
-1.000000000000000E+20
  9
$PLIMMIN
 10
0.0
 20
0.0
  9
$PLIMMAX
 10
12.0
 20
9.0
  9
$UNITMODE
 70
     0
  9
$VISRETAIN
 70
     1
  9
$PLINEGEN
 70
     0
  9
$PSLTSCALE
 70
     1
  9
$TREEDEPTH
 70
  3020
  9
$CMLSTYLE
  2
Standard
  9
$CMLJUST
 70
     0
  9
$CMLSCALE
 40
1.0
  9
$PROXYGRAPHICS
 70
     1
  9
$MEASUREMENT
 70
     0
  9
$CELWEIGHT
370
    -1
  9
$ENDCAPS
280
     0
  9
$JOINSTYLE
280
     0
  9
$LWDISPLAY
290
     1
  9
$INSUNITS
 70
     1
  9
$HYPERLINKBASE
  1

  9
$STYLESHEET
  1

  9
$XEDIT
290
     1
  9
$CEPSNTYPE
380
     0
  9
$PSTYLEMODE
290
     1
  9
$FINGERPRINTGUID
  2
{883D332F-2A9B-41DD-0F15-6FA102DE7B40}
  9
$VERSIONGUID
  2
{FAEB1C32-E019-11D5-929B-00C0DF256EC4}
  9
$EXTNAMES
290
     1
  9
$PSVPSCALE
 40
0.0
  9
$OLESTARTUP
290
     0
  9
$SORTENTS
280
   127
  9
$INDEXCTL
280
     0
  9
$HIDETEXT
280
     1
  9
$XCLIPFRAME
280
     2
  9
$HALOGAP
280
     0
  9
$OBSCOLOR
 70
   257
  9
$OBSLTYPE
280
     0
  9
$INTERSECTIONDISPLAY
280
     0
  9
$INTERSECTIONCOLOR
 70
   257
  9
$DIMASSOC
280
     2
  9
$PROJECTNAME
  1

  9
$CAMERADISPLAY
290
     0
  9
$LENSLENGTH
 40
50.0
  9
$CAMERAHEIGHT
 40
0.0
  9
$STEPSPERSEC
 40
2.0
  9
$STEPSIZE
 40
6.0
  9
$3DDWFPREC
 40
2.0
  9
$PSOLWIDTH
 40
0.25
  9
$PSOLHEIGHT
 40
4.0
  9
$LOFTANG1
 40
1.570796326794897
  9
$LOFTANG2
 40
1.570796326794897
  9
$LOFTMAG1
 40
0.0
  9
$LOFTMAG2
 40
0.0
  9
$LOFTPARAM
 70
     7
  9
$LOFTNORMALS
280
     1
  9
$LATITUDE
 40
37.795
  9
$LONGITUDE
 40
-122.394
  9
$NORTHDIRECTION
 40
0.0
  9
$TIMEZONE
 70
 -8000
  9
$LIGHTGLYPHDISPLAY
280
     1
  9
$TILEMODELIGHTSYNCH
280
     1
  9
$CMATERIAL
347
3C
  9
$SOLIDHIST
280
     1
  9
$SHOWHIST
280
     1
  9
$DWFFRAME
280
     2
  9
$DGNFRAME
280
     2
  9
$REALWORLDSCALE
290
     1
  9
$INTERFERECOLOR
 62
   256
  9
$CSHADOW
280
     0
  9
$SHADOWPLANELOCATION
 40
0.0
  0
ENDSEC
  0
SECTION
  2
CLASSES
  0
CLASS
  1
ACDBDICTIONARYWDFLT
  2
AcDbDictionaryWithDefault
  3
ObjectDBX Classes
 90
        0
 91
        4
280
     0
281
     0
  0
CLASS
  1
VISUALSTYLE
  2
AcDbVisualStyle
  3
ObjectDBX Classes
 90
     4095
 91
        4
280
     0
281
     0
  0
CLASS
  1
MATERIAL
  2
AcDbMaterial
  3
ObjectDBX Classes
 90
     1153
 91
        4
280
     0
281
     0
  0
CLASS
  1
SUN
  2
AcDbSun
  3
SCENEOE
 90
     1024
 91
        4
280
     0
281
     0
  0
ENDSEC
  0
SECTION
  2
TABLES
  0
TABLE
  2
VPORT
  5
8
330
0
100
AcDbSymbolTable
 70
     1
  0
VPORT
  5
29
330
8
100
AcDbSymbolTableRecord
100
AcDbViewportTableRecord
  2
*Active
 70
     0
 10
0.0
 20
0.0
 11
1.0
 21
1.0
 12
0.0
 22
0.0
 13
0.0
 23
0.0
 14
0.5
 24
0.5
 15
0.5
 25
0.5
 16
0.0
 26
0.0
 36
1.0
 17
50.0
 27
62.5
 37
0.0
 40
125.0
 41
0.8
 42
50.0
 43
0.0
 44
0.0
 50
0.0
 51
0.0
 71
     0
 72
   100
 73
     1
 74
     3
 75
     0
 76
     0
 77
     0
 78
     0
281
     0
 65
     1
110
0.0
120
0.0
130
0.0
111
1.0
121
0.0
131
0.0
112
0.0
122
1.0
132
0.0
 79
     0
146
0.0
 60
     3
 61
     5
292
     1
282
     1
141
0.0
142
0.0
 63
   250
361
3F
  0
ENDTAB
  0
TABLE
  2
LTYPE
  5
5
330
0
100
AcDbSymbolTable
 70
     1
  0
LTYPE
  5
14
330
5
100
AcDbSymbolTableRecord
100
AcDbLinetypeTableRecord
  2
ByBlock
 70
     0
  3

 72
    65
 73
     0
 40
0.0
  0
LTYPE
  5
15
330
5
100
AcDbSymbolTableRecord
100
AcDbLinetypeTableRecord
  2
ByLayer
 70
     0
  3

 72
    65
 73
     0
 40
0.0
  0
LTYPE
  5
16
330
5
100
AcDbSymbolTableRecord
100
AcDbLinetypeTableRecord
  2
Continuous
 70
     0
  3
Solid line
 72
    65
 73
     0
 40
0.0
  0
ENDTAB
  0
TABLE
  2
LAYER
  5
2
330
0
100
AcDbSymbolTable
 70
     2
  0
LAYER
  5
10
330
2
100
AcDbSymbolTableRecord
100
AcDbLayerTableRecord
  2
0
 70
     0
 62
     7
  6
Continuous
370
    -3
390
F
347
3E
  0
LAYER
  5
40
330
2
100
AcDbSymbolTableRecord
100
AcDbLayerTableRecord
  2
Layer 1
 70
     0
 62
     7
  6
Continuous
370
    -3
390
F
347
3E
  0
ENDTAB
  0
TABLE
  2
STYLE
  5
3
330
0
100
AcDbSymbolTable
 70
     1
  0
STYLE
  5
11
330
3
100
AcDbSymbolTableRecord
100
AcDbTextStyleTableRecord
  2
Standard
 70
     0
 40
0.0
 41
1.0
 50
0.0
 71
     0
 42
0.2
  3
txt
  4

  0
ENDTAB
  0
TABLE
  2
VIEW
  5
6
330
0
100
AcDbSymbolTable
 70
     0
  0
ENDTAB
  0
TABLE
  2
UCS
  5
7
330
0
100
AcDbSymbolTable
 70
     0
  0
ENDTAB
  0
TABLE
  2
APPID
  5
9
330
0
100
AcDbSymbolTable
 70
     1
  0
APPID
  5
12
330
9
100
AcDbSymbolTableRecord
100
AcDbRegAppTableRecord
  2
ACAD
 70
     0
  0
ENDTAB
  0
TABLE
  2
DIMSTYLE
  5
A
330
0
100
AcDbSymbolTable
 70
     1
100
AcDbDimStyleTable
  0
DIMSTYLE
105
27
330
A
100
AcDbSymbolTableRecord
100
AcDbDimStyleTableRecord
  2
Standard
 70
     0
178
     0
340
11
  0
ENDTAB
  0
TABLE
  2
BLOCK_RECORD
  5
1
330
0
100
AcDbSymbolTable
 70
     1
  0
BLOCK_RECORD
  5
1F
330
1
100
AcDbSymbolTableRecord
100
AcDbBlockTableRecord
  2
*Model_Space
340
22
 70
     0
280
     1
281
     0
  0
BLOCK_RECORD
  5
1B
330
1
100
AcDbSymbolTableRecord
100
AcDbBlockTableRecord
  2
*Paper_Space
340
1E
 70
     0
280
     1
281
     0
  0
BLOCK_RECORD
  5
23
330
1
100
AcDbSymbolTableRecord
100
AcDbBlockTableRecord
  2
*Paper_Space0
340
26
 70
     0
280
     1
281
     0
  0
ENDTAB
  0
ENDSEC
  0
SECTION
  2
BLOCKS
  0
BLOCK
  5
20
330
1F
100
AcDbEntity
  8
0
100
AcDbBlockBegin
  2
*Model_Space
 70
     0
 10
0.0
 20
0.0
 30
0.0
  3
*Model_Space
  1

  0
ENDBLK
  5
21
330
1F
100
AcDbEntity
  8
0
100
AcDbBlockEnd
  0
BLOCK
  5
1C
330
1B
100
AcDbEntity
 67
     1
  8
0
100
AcDbBlockBegin
  2
*Paper_Space
 70
     0
 10
0.0
 20
0.0
 30
0.0
  3
*Paper_Space
  1

  0
ENDBLK
  5
1D
330
1B
100
AcDbEntity
 67
     1
  8
0
100
AcDbBlockEnd
  0
BLOCK
  5
24
330
23
100
AcDbEntity
  8
0
100
AcDbBlockBegin
  2
*Paper_Space0
 70
     0
 10
0.0
 20
0.0
 30
0.0
  3
*Paper_Space0
  1

  0
ENDBLK
  5
25
330
23
100
AcDbEntity
  8
0
100
AcDbBlockEnd
  0
ENDSEC
  0
SECTION
  2
ENTITIES
  0
SPLINE
  5
41
330
1F
100
AcDbEntity
  8
Layer 1
370
     0
100
AcDbSpline
210
0.0
220
0.0
230
1.0
 70
    11
 71
     3
 72
   113
 73
   109
 74
     0
 42
0.0000000001
 43
0.0000000001
 12
1.0
 22
0.0
 32
0.0
 13
1.0
 23
0.0
 33
0.0
 40
0.0
 40
0.0
 40
0.0
 40
0.0
 40
1.0
 40
1.0
 40
1.0
 40
2.0
 40
2.0
 40
2.0
 40
3.0
 40
3.0
 40
3.0
 40
4.0
 40
4.0
 40
4.0
 40
5.0
 40
5.0
 40
5.0
 40
6.0
 40
6.0
 40
6.0
 40
7.0
 40
7.0
 40
7.0
 40
8.0
 40
8.0
 40
8.0
 40
9.0
 40
9.0
 40
9.0
 40
10.0
 40
10.0
 40
10.0
 40
11.0
 40
11.0
 40
11.0
 40
12.0
 40
12.0
 40
12.0
 40
13.0
 40
13.0
 40
13.0
 40
14.0
 40
14.0
 40
14.0
 40
15.0
 40
15.0
 40
15.0
 40
16.0
 40
16.0
 40
16.0
 40
17.0
 40
17.0
 40
17.0
 40
18.0
 40
18.0
 40
18.0
 40
19.0
 40
19.0
 40
19.0
 40
20.0
 40
20.0
 40
20.0
 40
21.0
 40
21.0
 40
21.0
 40
22.0
 40
22.0
 40
22.0
 40
23.0
 40
23.0
 40
23.0
 40
24.0
 40
24.0
 40
24.0
 40
25.0
 40
25.0
 40
25.0
 40
26.0
 40
26.0
 40
26.0
 40
27.0
 40
27.0
 40
27.0
 40
28.0
 40
28.0
 40
28.0
 40
29.0
 40
29.0
 40
29.0
 40
30.0
 40
30.0
 40
30.0
 40
31.0
 40
31.0
 40
31.0
 40
32.0
 40
32.0
 40
32.0
 40
33.0
 40
33.0
 40
33.0
 40
34.0
 40
34.0
 40
34.0
 40
35.0
 40
35.0
 40
35.0
 40
36.0
 40
36.0
 40
36.0
 40
36.0
 10
89.18179276916999
 20
90.802001953125
 30
0.0
 10
89.18179276916999
 20
90.802001953125
 30
0.0
 10
82.64578202698249
 20
92.8330078125
 30
0.0
 10
82.64578202698249
 20
92.8330078125
 30
0.0
 10
82.64578202698249
 20
92.8330078125
 30
0.0
 10
78.35778764221686
 20
99.364013671875
 30
0.0
 10
78.35778764221686
 20
99.364013671875
 30
0.0
 10
78.25878861877936
 20
99.51400756835938
 30
0.0
 10
78.10778764221686
 20
99.62100219726562
 30
0.0
 10
77.93377641174811
 20
99.66400146484375
 30
0.0
 10
77.93377641174811
 20
99.66400146484375
 30
0.0
 10
62.39977982971686
 20
103.47900390625
 30
0.0
 10
62.39977982971686
 20
103.47900390625
 30
0.0
 10
62.38577226135749
 20
103.5060119628906
 30
0.0
 10
62.38278153870124
 20
103.5370178222656
 30
0.0
 10
62.36578324768561
 20
103.56201171875
 30
0.0
 10
62.36578324768561
 20
103.56201171875
 30
0.0
 10
54.95077470276374
 20
114.635009765625
 30
0.0
 10
54.95077470276374
 20
114.635009765625
 30
0.0
 10
54.77877763245124
 20
114.8910217285156
 30
0.0
 10
54.46276811096686
 20
115.0039978027344
 30
0.0
 10
54.16378739807624
 20
114.9210205078125
 30
0.0
 10
53.86779740784186
 20
114.8340148925781
 30
0.0
 10
53.66079667541999
 20
114.5660095214844
 30
0.0
 10
53.65377763245124
 20
114.2570190429688
 30
0.0
 10
53.65377763245124
 20
114.2570190429688
 30
0.0
 10
53.40078690979499
 20
103.6010131835938
 30
0.0
 10
53.40078690979499
 20
103.6010131835938
 30
0.0
 10
49.32577470276374
 20
102.3900146484375
 30
0.0
 10
42.42877152893561
 20
100.3410034179688
 30
0.0
 10
35.52778581116218
 20
98.28802490234375
 30
0.0
 10
30.13478044006843
 20
96.68402099609375
 30
0.0
 10
24.7427821490528
 20
95.0770263671875
 30
0.0
 10
20.69879106018561
 20
93.8690185546875
 30
0.0
 10
20.4087977740528
 20
93.78201293945312
 30
0.0
 10
20.14279130432624
 20
93.70303344726562
 30
0.0
 10
19.86779740784186
 20
93.62002563476562
 30
0.0
 10
19.86779740784186
 20
93.62002563476562
 30
0.0
 10
11.49580338928718
 20
100.9750366210938
 30
0.0
 10
11.49580338928718
 20
100.9750366210938
 30
0.0
 10
11.2577967974903
 20
101.18603515625
 30
0.0
 10
10.90780595276374
 20
101.2080383300781
 30
0.0
 10
10.6428065631153
 20
101.0370483398438
 30
0.0
 10
10.37580827209968
 20
100.8650512695312
 30
0.0
 10
10.25680497620124
 20
100.5370483398438
 30
0.0
 10
10.34980729553718
 20
100.2340393066406
 30
0.0
 10
10.34980729553718
 20
100.2340393066406
 30
0.0
 10
13.06780961487311
 20
91.38702392578125
 30
0.0
 10
13.06780961487311
 20
91.38702392578125
 30
0.0
 10
13.06780961487311
 20
91.385009765625
 30
0.0
 10
13.06581071350593
 20
91.385009765625
 30
0.0
 10
13.06581071350593
 20
91.38302612304688
 30
0.0
 10
13.06581071350593
 20
91.38302612304688
 30
0.0
 10
10.35580399963874
 20
83.30303955078125
 30
0.0
 10
10.35580399963874
 20
83.30303955078125
 30
0.0
 10
10.25480607483405
 20
83.0030517578125
 30
0.0
 10
10.36579850647468
 20
82.67303466796875
 30
0.0
 10
10.62680009338874
 20
82.4930419921875
 30
0.0
 10
10.74780229065436
 20
82.4100341796875
 30
0.0
 10
10.88879350159186
 20
82.3680419921875
 30
0.0
 10
11.02780106995124
 20
82.3680419921875
 30
0.0
 10
11.18780473206061
 20
82.3680419921875
 30
0.0
 10
11.34780839416999
 20
82.42303466796875
 30
0.0
 10
11.47880509827155
 20
82.530029296875
 30
0.0
 10
11.47880509827155
 20
82.530029296875
 30
0.0
 10
20.15479997131843
 20
89.68402099609375
 30
0.0
 10
20.15479997131843
 20
89.68402099609375
 30
0.0
 10
20.15479997131843
 20
89.68402099609375
 30
0.0
 10
50.60281327698249
 20
85.94003295898438
 30
0.0
 10
50.60281327698249
 20
85.94003295898438
 30
0.0
 10
50.60281327698249
 20
85.94003295898438
 30
0.0
 10
49.15982011291999
 20
81.50204467773438
 30
0.0
 10
49.15982011291999
 20
81.50204467773438
 30
0.0
 10
49.07281449768561
 20
81.23403930664062
 30
0.0
 10
49.15182450745124
 20
80.94003295898438
 30
0.0
 10
49.36282304260749
 20
80.7530517578125
 30
0.0
 10
49.49581864807624
 20
80.63604736328125
 30
0.0
 10
49.66381791565436
 20
80.57406616210938
 30
0.0
 10
49.83383134338874
 20
80.57406616210938
 30
0.0
 10
49.93484452698249
 20
80.57406616210938
 30
0.0
 10
50.03582719299811
 20
80.59506225585938
 30
0.0
 10
50.13082841370124
 20
80.63906860351562
 30
0.0
 10
50.13082841370124
 20
80.63906860351562
 30
0.0
 10
59.65783647034186
 20
85.04006958007812
 30
0.0
 10
59.65783647034186
 20
85.04006958007812
 30
0.0
 10
59.66183427307624
 20
85.04208374023438
 30
0.0
 10
59.66482499573249
 20
85.04306030273438
 30
0.0
 10
59.66784623596686
 20
85.04507446289062
 30
0.0
 10
59.66784623596686
 20
85.04507446289062
 30
0.0
 10
82.22586015198249
 20
86.06707763671875
 30
0.0
 10
82.22586015198249
 20
86.06707763671875
 30
0.0
 10
82.22686723206061
 20
86.06707763671875
 30
0.0
 10
82.22787431213874
 20
86.06808471679688
 30
0.0
 10
82.22985795471686
 20
86.06808471679688
 30
0.0
 10
82.23684648010749
 20
86.06808471679688
 30
0.0
 10
82.24487260315436
 20
86.06808471679688
 30
0.0
 10
82.25085404846686
 20
86.069091796875
 30
0.0
 10
82.25085404846686
 20
86.069091796875
 30
0.0
 10
88.60086015198249
 20
86.5841064453125
 30
0.0
 10
88.60086015198249
 20
86.5841064453125
 30
0.0
 10
88.92785600159186
 20
86.610107421875
 30
0.0
 10
89.19485429260749
 20
86.85809326171875
 30
0.0
 10
89.24386552307624
 20
87.18411254882812
 30
0.0
 10
89.24386552307624
 20
87.18411254882812
 30
0.0
 10
89.67385819885749
 20
90.01611328125
 30
0.0
 10
89.67385819885749
 20
90.01611328125
 30
0.0
 10
89.72479203674811
 20
90.364990234375
 30
0.0
 10
89.51678422424811
 20
90.697998046875
 30
0.0
 10
89.18179276916999
 20
90.802001953125
 30
0.0
  0
POLYLINE
  5
42
330
1F
100
AcDbEntity
  8
Layer 1
370
     0
100
AcDb2dPolyline
 66
     1
 10
0.0
 20
0.0
 30
0.0
  0
VERTEX
  5
43
330
42
100
AcDbEntity
  8
Layer 1
370
     0
100
AcDbVertex
100
AcDb2dVertex
 10
12.48678544495124
 20
85.20098876953125
 30
0.0
  0
VERTEX
  5
44
330
42
100
AcDbEntity
  8
Layer 1
370
     0
100
AcDbVertex
100
AcDb2dVertex
 10
14.23577836487311
 20
90.41497802734375
 30
0.0
  0
VERTEX
  5
45
330
42
100
AcDbEntity
  8
Layer 1
370
     0
100
AcDbVertex
100
AcDb2dVertex
 10
18.21478227112311
 20
89.92596435546875
 30
0.0
  0
VERTEX
  5
46
330
42
100
AcDbEntity
  8
Layer 1
370
     0
100
AcDbVertex
100
AcDb2dVertex
 10
12.48678544495124
 20
85.20098876953125
 30
0.0
  0
SEQEND
  5
47
330
42
100
AcDbEntity
  8
Layer 1
370
     0
  0
SPLINE
  5
48
330
1F
100
AcDbEntity
  8
Layer 1
370
     0
100
AcDbSpline
210
0.0
220
0.0
230
1.0
 70
    11
 71
     3
 72
    17
 73
    13
 74
     0
 42
0.0000000001
 43
0.0000000001
 12
1.0
 22
0.0
 32
0.0
 13
1.0
 23
0.0
 33
0.0
 40
0.0
 40
0.0
 40
0.0
 40
0.0
 40
1.0
 40
1.0
 40
1.0
 40
2.0
 40
2.0
 40
2.0
 40
3.0
 40
3.0
 40
3.0
 40
4.0
 40
4.0
 40
4.0
 40
4.0
 10
15.81178239319343
 20
92.40499877929688
 30
0.0
 10
15.18377641174811
 20
92.21600341796875
 30
0.0
 10
14.71978715393561
 20
92.07598876953125
 30
0.0
 10
14.37478593323249
 20
91.96099853515625
 30
0.0
 10
14.37478593323249
 20
91.96099853515625
 30
0.0
 10
12.43878129456061
 20
98.25900268554688
 30
0.0
 10
12.43878129456061
 20
98.25900268554688
 30
0.0
 10
12.43878129456061
 20
98.25900268554688
 30
0.0
 10
18.26478532288093
 20
93.14199829101562
 30
0.0
 10
18.26478532288093
 20
93.14199829101562
 30
0.0
 10
17.31277421448249
 20
92.85598754882812
 30
0.0
 10
16.47477677795905
 20
92.60501098632812
 30
0.0
 10
15.81178239319343
 20
92.40499877929688
 30
0.0
  0
SPLINE
  5
49
330
1F
100
AcDbEntity
  8
Layer 1
370
     0
100
AcDbSpline
210
0.0
220
0.0
230
1.0
 70
    11
 71
     3
 72
    32
 73
    28
 74
     0
 42
0.0000000001
 43
0.0000000001
 12
1.0
 22
0.0
 32
0.0
 13
1.0
 23
0.0
 33
0.0
 40
0.0
 40
0.0
 40
0.0
 40
0.0
 40
1.0
 40
1.0
 40
1.0
 40
2.0
 40
2.0
 40
2.0
 40
3.0
 40
3.0
 40
3.0
 40
4.0
 40
4.0
 40
4.0
 40
5.0
 40
5.0
 40
5.0
 40
6.0
 40
6.0
 40
6.0
 40
7.0
 40
7.0
 40
7.0
 40
8.0
 40
8.0
 40
8.0
 40
9.0
 40
9.0
 40
9.0
 40
9.0
 10
55.01678422424811
 20
111.9880065917969
 30
0.0
 10
55.01678422424811
 20
111.9880065917969
 30
0.0
 10
60.38278153870124
 20
103.9739990234375
 30
0.0
 10
60.38278153870124
 20
103.9739990234375
 30
0.0
 10
60.38278153870124
 20
103.9739990234375
 30
0.0
 10
57.55477860901374
 20
104.6690063476562
 30
0.0
 10
57.55477860901374
 20
104.6690063476562
 30
0.0
 10
57.47076371643561
 20
104.7010192871094
 30
0.0
 10
57.38278153870124
 20
104.7170104980469
 30
0.0
 10
57.28878739807624
 20
104.7160034179688
 30
0.0
 10
57.17279008362311
 20
104.7269897460938
 30
0.0
 10
57.05779984924811
 20
104.7160034179688
 30
0.0
 10
56.95379594299811
 20
104.6740112304688
 30
0.0
 10
56.95379594299811
 20
104.6740112304688
 30
0.0
 10
56.95379594299811
 20
104.6730041503906
 30
0.0
 10
56.95379594299811
 20
104.6730041503906
 30
0.0
 10
56.95379594299811
 20
104.6730041503906
 30
0.0
 10
56.95278886291999
 20
104.6730041503906
 30
0.0
 10
56.95278886291999
 20
104.6730041503906
 30
0.0
 10
56.92678788635749
 20
104.6620178222656
 30
0.0
 10
56.90179398987311
 20
104.6480102539062
 30
0.0
 10
56.87680009338874
 20
104.6340026855469
 30
0.0
 10
56.54379228088874
 20
104.5339965820312
 30
0.0
 10
55.83679154846686
 20
104.3240051269531
 30
0.0
 10
54.82681230041999
 20
104.0249938964844
 30
0.0
 10
54.82681230041999
 20
104.0249938964844
 30
0.0
 10
55.01678422424811
 20
111.9880065917969
 30
0.0
 10
55.01678422424811
 20
111.9880065917969
 30
0.0
  0
SPLINE
  5
4A
330
1F
100
AcDbEntity
  8
Layer 1
370
     0
100
AcDbSpline
210
0.0
220
0.0
230
1.0
 70
    11
 71
     3
 72
    14
 73
    10
 74
     0
 42
0.0000000001
 43
0.0000000001
 12
1.0
 22
0.0
 32
0.0
 13
1.0
 23
0.0
 33
0.0
 40
0.0
 40
0.0
 40
0.0
 40
0.0
 40
1.0
 40
1.0
 40
1.0
 40
2.0
 40
2.0
 40
2.0
 40
3.0
 40
3.0
 40
3.0
 40
3.0
 10
56.12979081604499
 20
102.9339904785156
 30
0.0
 10
56.12979081604499
 20
102.9339904785156
 30
0.0
 10
53.56478837463874
 20
95.0469970703125
 30
0.0
 10
53.56478837463874
 20
95.0469970703125
 30
0.0
 10
51.43279984924811
 20
94.87399291992188
 30
0.0
 10
31.34278825256843
 20
93.24700927734375
 30
0.0
 10
20.69978288147468
 20
92.38998413085938
 30
0.0
 10
29.51678422424811
 20
95.0260009765625
 30
0.0
 10
45.62377885315436
 20
99.81399536132812
 30
0.0
 10
56.12979081604499
 20
102.9339904785156
 30
0.0
  0
SPLINE
  5
4B
330
1F
100
AcDbEntity
  8
Layer 1
370
     0
100
AcDbSpline
210
0.0
220
0.0
230
1.0
 70
    11
 71
     3
 72
    14
 73
    10
 74
     0
 42
0.0000000001
 43
0.0000000001
 12
1.0
 22
0.0
 32
0.0
 13
1.0
 23
0.0
 33
0.0
 40
0.0
 40
0.0
 40
0.0
 40
0.0
 40
1.0
 40
1.0
 40
1.0
 40
2.0
 40
2.0
 40
2.0
 40
3.0
 40
3.0
 40
3.0
 40
3.0
 10
21.08578446838874
 20
91.0
 30
0.0
 10
28.75277665588874
 20
91.61599731445312
 30
0.0
 10
41.55377152893561
 20
92.65200805664062
 30
0.0
 10
53.08978227112311
 20
93.58700561523438
 30
0.0
 10
53.08978227112311
 20
93.58700561523438
 30
0.0
 10
51.04977372620124
 20
87.31500244140625
 30
0.0
 10
51.04977372620124
 20
87.31500244140625
 30
0.0
 10
51.04977372620124
 20
87.31500244140625
 30
0.0
 10
21.08578446838874
 20
91.0
 30
0.0
 10
21.08578446838874
 20
91.0
 30
0.0
  0
POLYLINE
  5
4C
330
1F
100
AcDbEntity
  8
Layer 1
370
     0
100
AcDb2dPolyline
 66
     1
 10
0.0
 20
0.0
 30
0.0
  0
VERTEX
  5
4D
330
4C
100
AcDbEntity
  8
Layer 1
370
     0
100
AcDbVertex
100
AcDb2dVertex
 10
51.00878861877936
 20
82.6099853515625
 30
0.0
  0
VERTEX
  5
4E
330
4C
100
AcDbEntity
  8
Layer 1
370
     0
100
AcDbVertex
100
AcDb2dVertex
 10
56.89880326721686
 20
100.7169799804688
 30
0.0
  0
VERTEX
  5
4F
330
4C
100
AcDbEntity
  8
Layer 1
370
     0
100
AcDbVertex
100
AcDb2dVertex
 10
58.59680131409186
 20
86.11398315429688
 30
0.0
  0
VERTEX
  5
50
330
4C
100
AcDbEntity
  8
Layer 1
370
     0
100
AcDbVertex
100
AcDb2dVertex
 10
51.00878861877936
 20
82.6099853515625
 30
0.0
  0
SEQEND
  5
51
330
4C
100
AcDbEntity
  8
Layer 1
370
     0
  0
POLYLINE
  5
52
330
1F
100
AcDbEntity
  8
Layer 1
370
     0
100
AcDb2dPolyline
 66
     1
 10
0.0
 20
0.0
 30
0.0
  0
VERTEX
  5
53
330
52
100
AcDbEntity
  8
Layer 1
370
     0
100
AcDbVertex
100
AcDb2dVertex
 10
81.48376420471686
 20
87.45599365234375
 30
0.0
  0
VERTEX
  5
54
330
52
100
AcDbEntity
  8
Layer 1
370
     0
100
AcDbVertex
100
AcDb2dVertex
 10
59.98175004456061
 20
86.47998046875
 30
0.0
  0
VERTEX
  5
55
330
52
100
AcDbEntity
  8
Layer 1
370
     0
100
AcDbVertex
100
AcDb2dVertex
 10
58.04974320862311
 20
103.0879821777344
 30
0.0
  0
VERTEX
  5
56
330
52
100
AcDbEntity
  8
Layer 1
370
     0
100
AcDbVertex
100
AcDb2dVertex
 10
77.32473710510749
 20
98.35299682617188
 30
0.0
  0
VERTEX
  5
57
330
52
100
AcDbEntity
  8
Layer 1
370
     0
100
AcDbVertex
100
AcDb2dVertex
 10
81.48272660706061
 20
92.01898193359375
 30
0.0
  0
VERTEX
  5
58
330
52
100
AcDbEntity
  8
Layer 1
370
     0
100
AcDbVertex
100
AcDb2dVertex
 10
81.48272660706061
 20
87.45599365234375
 30
0.0
  0
VERTEX
  5
59
330
52
100
AcDbEntity
  8
Layer 1
370
     0
100
AcDbVertex
100
AcDb2dVertex
 10
81.48376420471686
 20
87.45599365234375
 30
0.0
  0
SEQEND
  5
5A
330
52
100
AcDbEntity
  8
Layer 1
370
     0
  0
POLYLINE
  5
5B
330
1F
100
AcDbEntity
  8
Layer 1
370
     0
100
AcDb2dPolyline
 66
     1
 10
0.0
 20
0.0
 30
0.0
  0
VERTEX
  5
5C
330
5B
100
AcDbEntity
  8
Layer 1
370
     0
100
AcDbVertex
100
AcDb2dVertex
 10
87.92578080627936
 20
87.95401000976562
 30
0.0
  0
VERTEX
  5
5D
330
5B
100
AcDbEntity
  8
Layer 1
370
     0
100
AcDbVertex
100
AcDb2dVertex
 10
82.90179398987311
 20
87.5469970703125
 30
0.0
  0
VERTEX
  5
5E
330
5B
100
AcDbEntity
  8
Layer 1
370
     0
100
AcDbVertex
100
AcDb2dVertex
 10
82.90179398987311
 20
91.26998901367188
 30
0.0
  0
VERTEX
  5
5F
330
5B
100
AcDbEntity
  8
Layer 1
370
     0
100
AcDbVertex
100
AcDb2dVertex
 10
88.17980912659186
 20
89.62899780273438
 30
0.0
  0
VERTEX
  5
60
330
5B
100
AcDbEntity
  8
Layer 1
370
     0
100
AcDbVertex
100
AcDb2dVertex
 10
87.92578080627936
 20
87.95401000976562
 30
0.0
  0
SEQEND
  5
61
330
5B
100
AcDbEntity
  8
Layer 1
370
     0
  0
HATCH
  5
62
330
1F
100
AcDbEntity
  8
Layer 1
 62
     7
420
 16777215
100
AcDbHatch
 10
0.0
 20
0.0
 30
0.0
210
0.0
220
0.0
230
1.0
  2
SOLID
 70
     1
 71
     0
 91
        9
 92
        1
 93
        1
 72
     4
 94
        3
 73
     0
 74
     1
 95
      113
 96
      109
 40
0.0
 40
0.0
 40
0.0
 40
0.0
 40
1.0
 40
1.0
 40
1.0
 40
2.0
 40
2.0
 40
2.0
 40
3.0
 40
3.0
 40
3.0
 40
4.0
 40
4.0
 40
4.0
 40
5.0
 40
5.0
 40
5.0
 40
6.0
 40
6.0
 40
6.0
 40
7.0
 40
7.0
 40
7.0
 40
8.0
 40
8.0
 40
8.0
 40
9.0
 40
9.0
 40
9.0
 40
10.0
 40
10.0
 40
10.0
 40
11.0
 40
11.0
 40
11.0
 40
12.0
 40
12.0
 40
12.0
 40
13.0
 40
13.0
 40
13.0
 40
14.0
 40
14.0
 40
14.0
 40
15.0
 40
15.0
 40
15.0
 40
16.0
 40
16.0
 40
16.0
 40
17.0
 40
17.0
 40
17.0
 40
18.0
 40
18.0
 40
18.0
 40
19.0
 40
19.0
 40
19.0
 40
20.0
 40
20.0
 40
20.0
 40
21.0
 40
21.0
 40
21.0
 40
22.0
 40
22.0
 40
22.0
 40
23.0
 40
23.0
 40
23.0
 40
24.0
 40
24.0
 40
24.0
 40
25.0
 40
25.0
 40
25.0
 40
26.0
 40
26.0
 40
26.0
 40
27.0
 40
27.0
 40
27.0
 40
28.0
 40
28.0
 40
28.0
 40
29.0
 40
29.0
 40
29.0
 40
30.0
 40
30.0
 40
30.0
 40
31.0
 40
31.0
 40
31.0
 40
32.0
 40
32.0
 40
32.0
 40
33.0
 40
33.0
 40
33.0
 40
34.0
 40
34.0
 40
34.0
 40
35.0
 40
35.0
 40
35.0
 40
36.0
 40
36.0
 40
36.0
 40
36.0
 10
89.18179276916999
 20
90.802001953125
 10
89.18179276916999
 20
90.802001953125
 10
82.64578202698249
 20
92.8330078125
 10
82.64578202698249
 20
92.8330078125
 10
82.64578202698249
 20
92.8330078125
 10
78.35778764221686
 20
99.364013671875
 10
78.35778764221686
 20
99.364013671875
 10
78.25878861877936
 20
99.51400756835938
 10
78.10778764221686
 20
99.62100219726562
 10
77.93377641174811
 20
99.66400146484375
 10
77.93377641174811
 20
99.66400146484375
 10
62.39977982971686
 20
103.47900390625
 10
62.39977982971686
 20
103.47900390625
 10
62.38577226135749
 20
103.5060119628906
 10
62.38278153870124
 20
103.5370178222656
 10
62.36578324768561
 20
103.56201171875
 10
62.36578324768561
 20
103.56201171875
 10
54.95077470276374
 20
114.635009765625
 10
54.95077470276374
 20
114.635009765625
 10
54.77877763245124
 20
114.8910217285156
 10
54.46276811096686
 20
115.0039978027344
 10
54.16378739807624
 20
114.9210205078125
 10
53.86779740784186
 20
114.8340148925781
 10
53.66079667541999
 20
114.5660095214844
 10
53.65377763245124
 20
114.2570190429688
 10
53.65377763245124
 20
114.2570190429688
 10
53.40078690979499
 20
103.6010131835938
 10
53.40078690979499
 20
103.6010131835938
 10
49.32577470276374
 20
102.3900146484375
 10
42.42877152893561
 20
100.3410034179688
 10
35.52778581116218
 20
98.28802490234375
 10
30.13478044006843
 20
96.68402099609375
 10
24.7427821490528
 20
95.0770263671875
 10
20.69879106018561
 20
93.8690185546875
 10
20.4087977740528
 20
93.78201293945312
 10
20.14279130432624
 20
93.70303344726562
 10
19.86779740784186
 20
93.62002563476562
 10
19.86779740784186
 20
93.62002563476562
 10
11.49580338928718
 20
100.9750366210938
 10
11.49580338928718
 20
100.9750366210938
 10
11.2577967974903
 20
101.18603515625
 10
10.90780595276374
 20
101.2080383300781
 10
10.6428065631153
 20
101.0370483398438
 10
10.37580827209968
 20
100.8650512695312
 10
10.25680497620124
 20
100.5370483398438
 10
10.34980729553718
 20
100.2340393066406
 10
10.34980729553718
 20
100.2340393066406
 10
13.06780961487311
 20
91.38702392578125
 10
13.06780961487311
 20
91.38702392578125
 10
13.06780961487311
 20
91.385009765625
 10
13.06581071350593
 20
91.385009765625
 10
13.06581071350593
 20
91.38302612304688
 10
13.06581071350593
 20
91.38302612304688
 10
10.35580399963874
 20
83.30303955078125
 10
10.35580399963874
 20
83.30303955078125
 10
10.25480607483405
 20
83.0030517578125
 10
10.36579850647468
 20
82.67303466796875
 10
10.62680009338874
 20
82.4930419921875
 10
10.74780229065436
 20
82.4100341796875
 10
10.88879350159186
 20
82.3680419921875
 10
11.02780106995124
 20
82.3680419921875
 10
11.18780473206061
 20
82.3680419921875
 10
11.34780839416999
 20
82.42303466796875
 10
11.47880509827155
 20
82.530029296875
 10
11.47880509827155
 20
82.530029296875
 10
20.15479997131843
 20
89.68402099609375
 10
20.15479997131843
 20
89.68402099609375
 10
20.15479997131843
 20
89.68402099609375
 10
50.60281327698249
 20
85.94003295898438
 10
50.60281327698249
 20
85.94003295898438
 10
50.60281327698249
 20
85.94003295898438
 10
49.15982011291999
 20
81.50204467773438
 10
49.15982011291999
 20
81.50204467773438
 10
49.07281449768561
 20
81.23403930664062
 10
49.15182450745124
 20
80.94003295898438
 10
49.36282304260749
 20
80.7530517578125
 10
49.49581864807624
 20
80.63604736328125
 10
49.66381791565436
 20
80.57406616210938
 10
49.83383134338874
 20
80.57406616210938
 10
49.93484452698249
 20
80.57406616210938
 10
50.03582719299811
 20
80.59506225585938
 10
50.13082841370124
 20
80.63906860351562
 10
50.13082841370124
 20
80.63906860351562
 10
59.65783647034186
 20
85.04006958007812
 10
59.65783647034186
 20
85.04006958007812
 10
59.66183427307624
 20
85.04208374023438
 10
59.66482499573249
 20
85.04306030273438
 10
59.66784623596686
 20
85.04507446289062
 10
59.66784623596686
 20
85.04507446289062
 10
82.22586015198249
 20
86.06707763671875
 10
82.22586015198249
 20
86.06707763671875
 10
82.22686723206061
 20
86.06707763671875
 10
82.22787431213874
 20
86.06808471679688
 10
82.22985795471686
 20
86.06808471679688
 10
82.23684648010749
 20
86.06808471679688
 10
82.24487260315436
 20
86.06808471679688
 10
82.25085404846686
 20
86.069091796875
 10
82.25085404846686
 20
86.069091796875
 10
88.60086015198249
 20
86.5841064453125
 10
88.60086015198249
 20
86.5841064453125
 10
88.92785600159186
 20
86.610107421875
 10
89.19485429260749
 20
86.85809326171875
 10
89.24386552307624
 20
87.18411254882812
 10
89.24386552307624
 20
87.18411254882812
 10
89.67385819885749
 20
90.01611328125
 10
89.67385819885749
 20
90.01611328125
 10
89.72479203674811
 20
90.364990234375
 10
89.51678422424811
 20
90.697998046875
 10
89.18179276916999
 20
90.802001953125
 97
        0
 97
        0
 92
        1
 93
        3
 72
     1
 10
12.48678544495124
 20
85.20098876953125
 11
14.23577836487311
 21
90.41497802734375
 72
     1
 10
14.23577836487311
 20
90.41497802734375
 11
18.21478227112311
 21
89.92596435546875
 72
     1
 10
18.21478227112311
 20
89.92596435546875
 11
12.48678544495124
 21
85.20098876953125
 97
        0
 92
        1
 93
        1
 72
     4
 94
        3
 73
     0
 74
     1
 95
       17
 96
       13
 40
0.0
 40
0.0
 40
0.0
 40
0.0
 40
1.0
 40
1.0
 40
1.0
 40
2.0
 40
2.0
 40
2.0
 40
3.0
 40
3.0
 40
3.0
 40
4.0
 40
4.0
 40
4.0
 40
4.0
 10
15.81178239319343
 20
92.40499877929688
 10
15.18377641174811
 20
92.21600341796875
 10
14.71978715393561
 20
92.07598876953125
 10
14.37478593323249
 20
91.96099853515625
 10
14.37478593323249
 20
91.96099853515625
 10
12.43878129456061
 20
98.25900268554688
 10
12.43878129456061
 20
98.25900268554688
 10
12.43878129456061
 20
98.25900268554688
 10
18.26478532288093
 20
93.14199829101562
 10
18.26478532288093
 20
93.14199829101562
 10
17.31277421448249
 20
92.85598754882812
 10
16.47477677795905
 20
92.60501098632812
 10
15.81178239319343
 20
92.40499877929688
 97
        0
 97
        0
 92
        1
 93
        1
 72
     4
 94
        3
 73
     0
 74
     1
 95
       32
 96
       28
 40
0.0
 40
0.0
 40
0.0
 40
0.0
 40
1.0
 40
1.0
 40
1.0
 40
2.0
 40
2.0
 40
2.0
 40
3.0
 40
3.0
 40
3.0
 40
4.0
 40
4.0
 40
4.0
 40
5.0
 40
5.0
 40
5.0
 40
6.0
 40
6.0
 40
6.0
 40
7.0
 40
7.0
 40
7.0
 40
8.0
 40
8.0
 40
8.0
 40
9.0
 40
9.0
 40
9.0
 40
9.0
 10
55.01678422424811
 20
111.9880065917969
 10
55.01678422424811
 20
111.9880065917969
 10
60.38278153870124
 20
103.9739990234375
 10
60.38278153870124
 20
103.9739990234375
 10
60.38278153870124
 20
103.9739990234375
 10
57.55477860901374
 20
104.6690063476562
 10
57.55477860901374
 20
104.6690063476562
 10
57.47076371643561
 20
104.7010192871094
 10
57.38278153870124
 20
104.7170104980469
 10
57.28878739807624
 20
104.7160034179688
 10
57.17279008362311
 20
104.7269897460938
 10
57.05779984924811
 20
104.7160034179688
 10
56.95379594299811
 20
104.6740112304688
 10
56.95379594299811
 20
104.6740112304688
 10
56.95379594299811
 20
104.6730041503906
 10
56.95379594299811
 20
104.6730041503906
 10
56.95379594299811
 20
104.6730041503906
 10
56.95278886291999
 20
104.6730041503906
 10
56.95278886291999
 20
104.6730041503906
 10
56.92678788635749
 20
104.6620178222656
 10
56.90179398987311
 20
104.6480102539062
 10
56.87680009338874
 20
104.6340026855469
 10
56.54379228088874
 20
104.5339965820312
 10
55.83679154846686
 20
104.3240051269531
 10
54.82681230041999
 20
104.0249938964844
 10
54.82681230041999
 20
104.0249938964844
 10
55.01678422424811
 20
111.9880065917969
 10
55.01678422424811
 20
111.9880065917969
 97
        0
 97
        0
 92
        1
 93
        1
 72
     4
 94
        3
 73
     0
 74
     1
 95
       14
 96
       10
 40
0.0
 40
0.0
 40
0.0
 40
0.0
 40
1.0
 40
1.0
 40
1.0
 40
2.0
 40
2.0
 40
2.0
 40
3.0
 40
3.0
 40
3.0
 40
3.0
 10
56.12979081604499
 20
102.9339904785156
 10
56.12979081604499
 20
102.9339904785156
 10
53.56478837463874
 20
95.0469970703125
 10
53.56478837463874
 20
95.0469970703125
 10
51.43279984924811
 20
94.87399291992188
 10
31.34278825256843
 20
93.24700927734375
 10
20.69978288147468
 20
92.38998413085938
 10
29.51678422424811
 20
95.0260009765625
 10
45.62377885315436
 20
99.81399536132812
 10
56.12979081604499
 20
102.9339904785156
 97
        0
 97
        0
 92
        1
 93
        1
 72
     4
 94
        3
 73
     0
 74
     1
 95
       14
 96
       10
 40
0.0
 40
0.0
 40
0.0
 40
0.0
 40
1.0
 40
1.0
 40
1.0
 40
2.0
 40
2.0
 40
2.0
 40
3.0
 40
3.0
 40
3.0
 40
3.0
 10
21.08578446838874
 20
91.0
 10
28.75277665588874
 20
91.61599731445312
 10
41.55377152893561
 20
92.65200805664062
 10
53.08978227112311
 20
93.58700561523438
 10
53.08978227112311
 20
93.58700561523438
 10
51.04977372620124
 20
87.31500244140625
 10
51.04977372620124
 20
87.31500244140625
 10
51.04977372620124
 20
87.31500244140625
 10
21.08578446838874
 20
91.0
 10
21.08578446838874
 20
91.0
 97
        0
 97
        0
 92
        1
 93
        3
 72
     1
 10
51.00878861877936
 20
82.6099853515625
 11
56.89880326721686
 21
100.7169799804688
 72
     1
 10
56.89880326721686
 20
100.7169799804688
 11
58.59680131409186
 21
86.11398315429688
 72
     1
 10
58.59680131409186
 20
86.11398315429688
 11
51.00878861877936
 21
82.6099853515625
 97
        0
 92
        1
 93
        6
 72
     1
 10
81.48376420471686
 20
87.45599365234375
 11
59.98175004456061
 21
86.47998046875
 72
     1
 10
59.98175004456061
 20
86.47998046875
 11
58.04974320862311
 21
103.0879821777344
 72
     1
 10
58.04974320862311
 20
103.0879821777344
 11
77.32473710510749
 21
98.35299682617188
 72
     1
 10
77.32473710510749
 20
98.35299682617188
 11
81.48272660706061
 21
92.01898193359375
 72
     1
 10
81.48272660706061
 20
92.01898193359375
 11
81.48272660706061
 21
87.45599365234375
 72
     1
 10
81.48272660706061
 20
87.45599365234375
 11
81.48376420471686
 21
87.45599365234375
 97
        0
 92
        1
 93
        4
 72
     1
 10
87.92578080627936
 20
87.95401000976562
 11
82.90179398987311
 21
87.5469970703125
 72
     1
 10
82.90179398987311
 20
87.5469970703125
 11
82.90179398987311
 21
91.26998901367188
 72
     1
 10
82.90179398987311
 20
91.26998901367188
 11
88.17980912659186
 21
89.62899780273438
 72
     1
 10
88.17980912659186
 20
89.62899780273438
 11
87.92578080627936
 21
87.95401000976562
 97
        0
 75
     2
 76
     1
 98
        0
  0
ENDSEC
  0
SECTION
  2
OBJECTS
  0
DICTIONARY
  5
C
330
0
100
AcDbDictionary
281
     1
  3
ACAD_GROUP
350
D
  3
ACAD_LAYOUT
350
1A
  3
ACAD_MATERIAL
350
3B
  3
ACAD_MLEADERSTYLE
350
64
  3
ACAD_MLINESTYLE
350
17
  3
ACAD_PLOTSETTINGS
350
19
  3
ACAD_PLOTSTYLENAME
350
E
  3
ACAD_TABLESTYLE
350
63
  3
ACAD_VISUALSTYLE
350
2A
  0
SUN
  5
3F
330
29
100
AcDbSun
 90
        1
290
     0
 63
     7
421
 16777215
 40
1.0
291
     1
 91
  2455826
 92
 54000000
292
     0
 70
     2
 71
   256
280
     1
  0
DICTIONARY
  5
D
102
{ACAD_REACTORS
330
C
102
}
330
C
100
AcDbDictionary
281
     1
  0
DICTIONARY
  5
1A
102
{ACAD_REACTORS
330
C
102
}
330
C
100
AcDbDictionary
281
     1
  3
Layout1
350
1E
  3
Layout2
350
26
  3
Model
350
22
  0
DICTIONARY
  5
3B
102
{ACAD_REACTORS
330
C
102
}
330
C
100
AcDbDictionary
281
     1
  3
ByBlock
350
3D
  3
ByLayer
350
3C
  3
Global
350
3E
  0
DICTIONARY
  5
64
102
{ACAD_REACTORS
330
C
102
}
330
C
100
AcDbDictionary
281
     1
  0
DICTIONARY
  5
17
102
{ACAD_REACTORS
330
C
102
}
330
C
100
AcDbDictionary
281
     1
  3
Standard
350
18
  0
DICTIONARY
  5
19
102
{ACAD_REACTORS
330
C
102
}
330
C
100
AcDbDictionary
281
     1
  0
ACDBDICTIONARYWDFLT
  5
E
102
{ACAD_REACTORS
330
C
102
}
330
C
100
AcDbDictionary
281
     1
  3
Normal
350
F
100
AcDbDictionaryWithDefault
340
F
  0
DICTIONARY
  5
63
102
{ACAD_REACTORS
330
C
102
}
330
C
100
AcDbDictionary
281
     1
  0
DICTIONARY
  5
2A
102
{ACAD_REACTORS
330
C
102
}
330
C
100
AcDbDictionary
281
     1
  3
2dWireframe
350
2F
  3
3D Hidden
350
31
  3
3dWireframe
350
30
  3
Basic
350
32
  3
Brighten
350
36
  3
ColorChange
350
3A
  3
Conceptual
350
34
  3
Dim
350
35
  3
Facepattern
350
39
  3
Flat
350
2B
  3
FlatWithEdges
350
2C
  3
Gouraud
350
2D
  3
GouraudWithEdges
350
2E
  3
Linepattern
350
38
  3
Realistic
350
33
  3
Thicken
350
37
  0
LAYOUT
  5
1E
102
{ACAD_REACTORS
330
1A
102
}
330
1A
100
AcDbPlotSettings
  1

  2
none_device
  4

  6

 40
0.0
 41
0.0
 42
0.0
 43
0.0
 44
0.0
 45
0.0
 46
0.0
 47
0.0
 48
0.0
 49
0.0
140
0.0
141
0.0
142
1.0
143
1.0
 70
   688
 72
     0
 73
     0
 74
     5
  7

 75
    16
 76
     0
 77
     2
 78
   300
147
1.0
148
0.0
149
0.0
100
AcDbLayout
  1
Layout1
 70
     1
 71
     1
 10
0.0
 20
0.0
 11
12.0
 21
9.0
 12
0.0
 22
0.0
 32
0.0
 14
1.000000000000000E+20
 24
1.000000000000000E+20
 34
1.000000000000000E+20
 15
-1.000000000000000E+20
 25
-1.000000000000000E+20
 35
-1.000000000000000E+20
146
0.0
 13
0.0
 23
0.0
 33
0.0
 16
1.0
 26
0.0
 36
0.0
 17
0.0
 27
1.0
 37
0.0
 76
     0
330
1B
  0
LAYOUT
  5
26
102
{ACAD_REACTORS
330
1A
102
}
330
1A
100
AcDbPlotSettings
  1

  2
none_device
  4

  6

 40
0.0
 41
0.0
 42
0.0
 43
0.0
 44
0.0
 45
0.0
 46
0.0
 47
0.0
 48
0.0
 49
0.0
140
0.0
141
0.0
142
1.0
143
1.0
 70
   688
 72
     0
 73
     0
 74
     5
  7

 75
    16
 76
     0
 77
     2
 78
   300
147
1.0
148
0.0
149
0.0
100
AcDbLayout
  1
Layout2
 70
     1
 71
     2
 10
0.0
 20
0.0
 11
0.0
 21
0.0
 12
0.0
 22
0.0
 32
0.0
 14
0.0
 24
0.0
 34
0.0
 15
0.0
 25
0.0
 35
0.0
146
0.0
 13
0.0
 23
0.0
 33
0.0
 16
1.0
 26
0.0
 36
0.0
 17
0.0
 27
1.0
 37
0.0
 76
     0
330
23
  0
LAYOUT
  5
22
102
{ACAD_REACTORS
330
1A
102
}
330
1A
100
AcDbPlotSettings
  1

  2
none_device
  4

  6

 40
0.0
 41
0.0
 42
0.0
 43
0.0
 44
0.0
 45
0.0
 46
0.0
 47
0.0
 48
0.0
 49
0.0
140
0.0
141
0.0
142
1.0
143
1.0
 70
  1712
 72
     0
 73
     0
 74
     0
  7

 75
     0
 76
     0
 77
     2
 78
   300
147
1.0
148
0.0
149
0.0
100
AcDbLayout
  1
Model
 70
     1
 71
     0
 10
0.0
 20
0.0
 11
12.0
 21
9.0
 12
0.0
 22
0.0
 32
0.0
 14
1.000000000000000E+20
 24
1.000000000000000E+20
 34
1.000000000000000E+20
 15
-1.000000000000000E+20
 25
-1.000000000000000E+20
 35
-1.000000000000000E+20
146
0.0
 13
0.0
 23
0.0
 33
0.0
 16
1.0
 26
0.0
 36
0.0
 17
0.0
 27
1.0
 37
0.0
 76
     0
330
1F
331
29
  0
MATERIAL
  5
3D
102
{ACAD_REACTORS
330
3B
102
}
330
3B
100
AcDbMaterial
  1
ByBlock
 72
     1
 94
      127
  0
MATERIAL
  5
3C
102
{ACAD_REACTORS
330
3B
102
}
330
3B
100
AcDbMaterial
  1
ByLayer
 72
     1
 94
      127
  0
MATERIAL
  5
3E
102
{ACAD_REACTORS
330
3B
102
}
330
3B
100
AcDbMaterial
  1
Global
 72
     1
 94
      127
  0
MLINESTYLE
  5
18
102
{ACAD_REACTORS
330
17
102
}
330
17
100
AcDbMlineStyle
  2
Standard
 70
     0
  3

 62
   256
 51
90.0
 52
90.0
 71
     2
 49
0.5
 62
   256
  6
BYLAYER
 49
-0.5
 62
   256
  6
BYLAYER
  0
ACDBPLACEHOLDER
  5
F
102
{ACAD_REACTORS
330
E
102
}
330
E
  0
VISUALSTYLE
  5
2F
102
{ACAD_REACTORS
330
2A
102
}
330
2A
100
AcDbVisualStyle
  2
2dWireframe
 70
     4
177
     2
291
     0
 71
     0
176
     1
 72
     2
176
     1
 73
     0
176
     1
 90
        0
176
     1
 40
-0.6
176
     1
 41
-30.0
176
     1
 62
     5
 63
     7
421
 16777215
176
     1
 74
     1
176
     1
 91
        4
176
     1
 64
     7
176
     1
 65
   257
176
     1
 75
     1
176
     1
175
     1
176
     1
 42
1.0
176
     1
 92
        0
176
     1
 66
   257
176
     1
 43
1.0
176
     1
 76
     1
176
     1
 77
     6
176
     1
 78
     2
176
     1
 67
     7
176
     1
 79
     5
176
     1
170
     0
176
     1
171
     0
176
     1
290
     0
176
     1
 93
        1
176
     1
 44
0.0
176
     1
173
     0
176
     1
  0
VISUALSTYLE
  5
31
102
{ACAD_REACTORS
330
2A
102
}
330
2A
100
AcDbVisualStyle
  2
3D Hidden
 70
     6
177
     2
291
     0
 71
     1
176
     1
 72
     2
176
     1
 73
     2
176
     1
 90
        0
176
     1
 40
-0.6
176
     1
 41
-30.0
176
     1
 62
     5
 63
     7
421
 16777215
176
     1
 74
     2
176
     1
 91
        2
176
     1
 64
     7
176
     1
 65
   257
176
     1
 75
     2
176
     1
175
     1
176
     1
 42
40.0
176
     1
 92
        0
176
     1
 66
   257
176
     1
 43
1.0
176
     1
 76
     1
176
     1
 77
     6
176
     1
 78
     2
176
     1
 67
     7
176
     1
 79
     3
176
     1
170
     0
176
     1
171
     0
176
     1
290
     0
176
     1
 93
        1
176
     1
 44
0.0
176
     1
173
     0
176
     1
  0
VISUALSTYLE
  5
30
102
{ACAD_REACTORS
330
2A
102
}
330
2A
100
AcDbVisualStyle
  2
3dWireframe
 70
     5
177
     2
291
     0
 71
     0
176
     1
 72
     2
176
     1
 73
     0
176
     1
 90
        0
176
     1
 40
-0.6
176
     1
 41
-30.0
176
     1
 62
     5
 63
     7
421
 16777215
176
     1
 74
     1
176
     1
 91
        4
176
     1
 64
     7
176
     1
 65
   257
176
     1
 75
     1
176
     1
175
     1
176
     1
 42
1.0
176
     1
 92
        0
176
     1
 66
   257
176
     1
 43
1.0
176
     1
 76
     1
176
     1
 77
     6
176
     1
 78
     2
176
     1
 67
     7
176
     1
 79
     5
176
     1
170
     0
176
     1
171
     0
176
     1
290
     0
176
     1
 93
        1
176
     1
 44
0.0
176
     1
173
     0
176
     1
  0
VISUALSTYLE
  5
32
102
{ACAD_REACTORS
330
2A
102
}
330
2A
100
AcDbVisualStyle
  2
Basic
 70
     7
177
     2
291
     1
 71
     1
176
     1
 72
     0
176
     1
 73
     1
176
     1
 90
        0
176
     1
 40
-0.6
176
     1
 41
-30.0
176
     1
 62
     5
 63
     7
421
 16777215
176
     1
 74
     0
176
     1
 91
        4
176
     1
 64
     7
176
     1
 65
   257
176
     1
 75
     1
176
     1
175
     1
176
     1
 42
1.0
176
     1
 92
        8
176
     1
 66
     7
176
     1
 43
1.0
176
     1
 76
     1
176
     1
 77
     6
176
     1
 78
     2
176
     1
 67
     7
176
     1
 79
     5
176
     1
170
     0
176
     1
171
     0
176
     1
290
     0
176
     1
 93
        1
176
     1
 44
0.0
176
     1
173
     0
176
     1
  0
VISUALSTYLE
  5
36
102
{ACAD_REACTORS
330
2A
102
}
330
2A
100
AcDbVisualStyle
  2
Brighten
 70
    12
177
     2
291
     1
 71
     2
176
     1
 72
     2
176
     1
 73
     0
176
     1
 90
        0
176
     1
 40
-0.6
176
     1
 41
-30.0
176
     1
 62
     5
 63
     7
421
 16777215
176
     1
 74
     1
176
     1
 91
        4
176
     1
 64
     7
176
     1
 65
   257
176
     1
 75
     1
176
     1
175
     1
176
     1
 42
1.0
176
     1
 92
        8
176
     1
 66
     7
176
     1
 43
1.0
176
     1
 76
     1
176
     1
 77
     6
176
     1
 78
     2
176
     1
 67
     7
176
     1
 79
     5
176
     1
170
     0
176
     1
171
     0
176
     1
290
     0
176
     1
 93
        1
176
     1
 44
50.0
176
     1
173
     0
176
     1
  0
VISUALSTYLE
  5
3A
102
{ACAD_REACTORS
330
2A
102
}
330
2A
100
AcDbVisualStyle
  2
ColorChange
 70
    16
177
     2
291
     1
 71
     2
176
     1
 72
     2
176
     1
 73
     3
176
     1
 90
        0
176
     1
 40
-0.6
176
     1
 41
-30.0
176
     1
 62
     5
 63
     8
421
  8421504
176
     1
 74
     1
176
     1
 91
        4
176
     1
 64
     7
176
     1
 65
   257
176
     1
 75
     1
176
     1
175
     1
176
     1
 42
1.0
176
     1
 92
        8
176
     1
 66
     8
424
  8421504
176
     1
 43
1.0
176
     1
 76
     1
176
     1
 77
     6
176
     1
 78
     2
176
     1
 67
     7
176
     1
 79
     5
176
     1
170
     0
176
     1
171
     0
176
     1
290
     0
176
     1
 93
        1
176
     1
 44
0.0
176
     1
173
     0
176
     1
  0
VISUALSTYLE
  5
34
102
{ACAD_REACTORS
330
2A
102
}
330
2A
100
AcDbVisualStyle
  2
Conceptual
 70
     9
177
     2
291
     0
 71
     3
176
     1
 72
     2
176
     1
 73
     0
176
     1
 90
        0
176
     1
 40
-0.6
176
     1
 41
-30.0
176
     1
 62
     5
 63
     7
421
 16777215
176
     1
 74
     2
176
     1
 91
        2
176
     1
 64
     7
176
     1
 65
   257
176
     1
 75
     1
176
     1
175
     1
176
     1
 42
40.0
176
     1
 92
        8
176
     1
 66
     7
176
     1
 43
1.0
176
     1
 76
     1
176
     1
 77
     6
176
     1
 78
     2
176
     1
 67
     7
176
     1
 79
     3
176
     1
170
     0
176
     1
171
     0
176
     1
290
     0
176
     1
 93
        1
176
     1
 44
0.0
176
     1
173
     0
176
     1
  0
VISUALSTYLE
  5
35
102
{ACAD_REACTORS
330
2A
102
}
330
2A
100
AcDbVisualStyle
  2
Dim
 70
    11
177
     2
291
     1
 71
     2
176
     1
 72
     2
176
     1
 73
     0
176
     1
 90
        0
176
     1
 40
-0.6
176
     1
 41
-30.0
176
     1
 62
     5
 63
     7
421
 16777215
176
     1
 74
     1
176
     1
 91
        4
176
     1
 64
     7
176
     1
 65
   257
176
     1
 75
     1
176
     1
175
     1
176
     1
 42
1.0
176
     1
 92
        8
176
     1
 66
     7
176
     1
 43
1.0
176
     1
 76
     1
176
     1
 77
     6
176
     1
 78
     2
176
     1
 67
     7
176
     1
 79
     5
176
     1
170
     0
176
     1
171
     0
176
     1
290
     0
176
     1
 93
        1
176
     1
 44
-50.0
176
     1
173
     0
176
     1
  0
VISUALSTYLE
  5
39
102
{ACAD_REACTORS
330
2A
102
}
330
2A
100
AcDbVisualStyle
  2
Facepattern
 70
    15
177
     2
291
     1
 71
     2
176
     1
 72
     2
176
     1
 73
     0
176
     1
 90
        0
176
     1
 40
-0.6
176
     1
 41
-30.0
176
     1
 62
     5
 63
     7
421
 16777215
176
     1
 74
     1
176
     1
 91
        4
176
     1
 64
     7
176
     1
 65
   257
176
     1
 75
     1
176
     1
175
     1
176
     1
 42
1.0
176
     1
 92
        8
176
     1
 66
     7
176
     1
 43
1.0
176
     1
 76
     1
176
     1
 77
     6
176
     1
 78
     2
176
     1
 67
     7
176
     1
 79
     5
176
     1
170
     0
176
     1
171
     0
176
     1
290
     0
176
     1
 93
        1
176
     1
 44
0.0
176
     1
173
     0
176
     1
  0
VISUALSTYLE
  5
2B
102
{ACAD_REACTORS
330
2A
102
}
330
2A
100
AcDbVisualStyle
  2
Flat
 70
     0
177
     2
291
     1
 71
     2
176
     1
 72
     1
176
     1
 73
     1
176
     1
 90
        2
176
     1
 40
-0.6
176
     1
 41
30.0
176
     1
 62
     5
 63
     7
421
 16777215
176
     1
 74
     0
176
     1
 91
        4
176
     1
 64
     7
176
     1
 65
   257
176
     1
 75
     1
176
     1
175
     1
176
     1
 42
1.0
176
     1
 92
        8
176
     1
 66
     7
176
     1
 43
1.0
176
     1
 76
     1
176
     1
 77
     6
176
     1
 78
     2
176
     1
 67
     7
176
     1
 79
     5
176
     1
170
     0
176
     1
171
     0
176
     1
290
     0
176
     1
 93
       13
176
     1
 44
0.0
176
     1
173
     0
176
     1
  0
VISUALSTYLE
  5
2C
102
{ACAD_REACTORS
330
2A
102
}
330
2A
100
AcDbVisualStyle
  2
FlatWithEdges
 70
     1
177
     2
291
     1
 71
     2
176
     1
 72
     1
176
     1
 73
     1
176
     1
 90
        2
176
     1
 40
-0.6
176
     1
 41
30.0
176
     1
 62
     5
 63
     7
421
 16777215
176
     1
 74
     1
176
     1
 91
        4
176
     1
 64
     7
176
     1
 65
   257
176
     1
 75
     1
176
     1
175
     1
176
     1
 42
1.0
176
     1
 92
        0
176
     1
 66
   257
176
     1
 43
1.0
176
     1
 76
     1
176
     1
 77
     6
176
     1
 78
     2
176
     1
 67
     7
176
     1
 79
     5
176
     1
170
     0
176
     1
171
     0
176
     1
290
     0
176
     1
 93
       13
176
     1
 44
0.0
176
     1
173
     0
176
     1
  0
VISUALSTYLE
  5
2D
102
{ACAD_REACTORS
330
2A
102
}
330
2A
100
AcDbVisualStyle
  2
Gouraud
 70
     2
177
     2
291
     1
 71
     2
176
     1
 72
     2
176
     1
 73
     1
176
     1
 90
        2
176
     1
 40
-0.6
176
     1
 41
30.0
176
     1
 62
     5
 63
     7
421
 16777215
176
     1
 74
     0
176
     1
 91
        4
176
     1
 64
     7
176
     1
 65
   257
176
     1
 75
     1
176
     1
175
     1
176
     1
 42
1.0
176
     1
 92
        0
176
     1
 66
     7
176
     1
 43
1.0
176
     1
 76
     1
176
     1
 77
     6
176
     1
 78
     2
176
     1
 67
     7
176
     1
 79
     5
176
     1
170
     0
176
     1
171
     0
176
     1
290
     0
176
     1
 93
       13
176
     1
 44
0.0
176
     1
173
     0
176
     1
  0
VISUALSTYLE
  5
2E
102
{ACAD_REACTORS
330
2A
102
}
330
2A
100
AcDbVisualStyle
  2
GouraudWithEdges
 70
     3
177
     2
291
     1
 71
     2
176
     1
 72
     2
176
     1
 73
     1
176
     1
 90
        2
176
     1
 40
-0.6
176
     1
 41
30.0
176
     1
 62
     5
 63
     7
421
 16777215
176
     1
 74
     1
176
     1
 91
        4
176
     1
 64
     7
176
     1
 65
   257
176
     1
 75
     1
176
     1
175
     1
176
     1
 42
1.0
176
     1
 92
        0
176
     1
 66
   257
176
     1
 43
1.0
176
     1
 76
     1
176
     1
 77
     6
176
     1
 78
     2
176
     1
 67
     7
176
     1
 79
     5
176
     1
170
     0
176
     1
171
     0
176
     1
290
     0
176
     1
 93
       13
176
     1
 44
0.0
176
     1
173
     0
176
     1
  0
VISUALSTYLE
  5
38
102
{ACAD_REACTORS
330
2A
102
}
330
2A
100
AcDbVisualStyle
  2
Linepattern
 70
    14
177
     2
291
     1
 71
     2
176
     1
 72
     2
176
     1
 73
     0
176
     1
 90
        0
176
     1
 40
-0.6
176
     1
 41
-30.0
176
     1
 62
     5
 63
     7
421
 16777215
176
     1
 74
     1
176
     1
 91
        4
176
     1
 64
     7
176
     1
 65
   257
176
     1
 75
     7
176
     1
175
     7
176
     1
 42
1.0
176
     1
 92
        8
176
     1
 66
     7
176
     1
 43
1.0
176
     1
 76
     1
176
     1
 77
     6
176
     1
 78
     2
176
     1
 67
     7
176
     1
 79
     5
176
     1
170
     0
176
     1
171
     0
176
     1
290
     0
176
     1
 93
        1
176
     1
 44
0.0
176
     1
173
     0
176
     1
  0
VISUALSTYLE
  5
33
102
{ACAD_REACTORS
330
2A
102
}
330
2A
100
AcDbVisualStyle
  2
Realistic
 70
     8
177
     2
291
     0
 71
     2
176
     1
 72
     2
176
     1
 73
     0
176
     1
 90
        0
176
     1
 40
-0.6
176
     1
 41
-30.0
176
     1
 62
     5
 63
     7
421
 16777215
176
     1
 74
     1
176
     1
 91
        0
176
     1
 64
     7
176
     1
 65
   257
176
     1
 75
     1
176
     1
175
     1
176
     1
 42
1.0
176
     1
 92
        8
176
     1
 66
     8
424
  7895160
176
     1
 43
1.0
176
     1
 76
     1
176
     1
 77
     6
176
     1
 78
     2
176
     1
 67
     7
176
     1
 79
     5
176
     1
170
     0
176
     1
171
     0
176
     1
290
     0
176
     1
 93
       13
176
     1
 44
0.0
176
     1
173
     0
176
     1
  0
VISUALSTYLE
  5
37
102
{ACAD_REACTORS
330
2A
102
}
330
2A
100
AcDbVisualStyle
  2
Thicken
 70
    13
177
     2
291
     1
 71
     2
176
     1
 72
     2
176
     1
 73
     0
176
     1
 90
        0
176
     1
 40
-0.6
176
     1
 41
-30.0
176
     1
 62
     5
 63
     7
421
 16777215
176
     1
 74
     1
176
     1
 91
        4
176
     1
 64
     7
176
     1
 65
   257
176
     1
 75
     1
176
     1
175
     1
176
     1
 42
1.0
176
     1
 92
       12
176
     1
 66
     7
176
     1
 43
1.0
176
     1
 76
     1
176
     1
 77
     6
176
     1
 78
     2
176
     1
 67
     7
176
     1
 79
     5
176
     1
170
     0
176
     1
171
     0
176
     1
290
     0
176
     1
 93
        1
176
     1
 44
0.0
176
     1
173
     0
176
     1
  0
ENDSEC
  0
EOF
