<?xml version="1.0" encoding="utf-8"?>
<!-- Generator: Adobe Illustrator 19.2.1, SVG Export Plug-In . SVG Version: 6.00 Build 0)  -->
<svg version="1.1" id="Layer_1" xmlns="http://www.w3.org/2000/svg" xmlns:xlink="http://www.w3.org/1999/xlink" x="0px" y="0px"
	 viewBox="0 0 100 125" style="enable-background:new 0 0 100 125;" xml:space="preserve">
<path d="M89.2,34.2l-6.5-2l-4.3-6.5c-0.1-0.1-0.2-0.3-0.4-0.3l-15.5-3.8c0,0,0-0.1,0-0.1L55,10.4c-0.2-0.3-0.5-0.4-0.8-0.3
	c-0.3,0.1-0.5,0.4-0.5,0.7l-0.3,10.7c-4.1,1.2-11,3.3-17.9,5.3c-5.4,1.6-10.8,3.2-14.8,4.4c-0.3,0.1-0.6,0.2-0.8,0.2L11.5,24
	c-0.2-0.2-0.6-0.2-0.9-0.1c-0.3,0.2-0.4,0.5-0.3,0.8l2.7,8.8c0,0,0,0,0,0l-2.7,8.1c-0.1,0.3,0,0.6,0.3,0.8c0.1,0.1,0.3,0.1,0.4,0.1
	c0.2,0,0.3-0.1,0.5-0.2l8.7-7.2l30.4,3.7l-1.4,4.4c-0.1,0.3,0,0.6,0.2,0.7c0.1,0.1,0.3,0.2,0.5,0.2c0.1,0,0.2,0,0.3-0.1l9.5-4.4
	c0,0,0,0,0,0l22.6-1c0,0,0,0,0,0c0,0,0,0,0,0l6.4-0.5c0.3,0,0.6-0.3,0.6-0.6l0.4-2.8C89.7,34.6,89.5,34.3,89.2,34.2z M12.5,39.8
	l1.7-5.2l4,0.5L12.5,39.8z M15.8,32.6c-0.6,0.2-1.1,0.3-1.4,0.4l-1.9-6.3l5.8,5.1C17.3,32.1,16.5,32.4,15.8,32.6z M55,13l5.4,8
	l-2.8-0.7c-0.1,0-0.2,0-0.3,0c-0.1,0-0.2,0-0.3,0v0h0c0,0-0.1,0-0.1,0c-0.3,0.1-1,0.3-2,0.6L55,13z M56.1,22.1L53.6,30
	c-2.1,0.2-22.2,1.8-32.9,2.7C29.5,30,45.6,25.2,56.1,22.1z M21.1,34c7.7-0.6,20.5-1.7,32-2.6l-2,6.3L21.1,34z M51,42.4l5.9-18.1
	l1.7,14.6L51,42.4z M81.5,37.5l-21.5,1L58,21.9l19.3,4.7l4.2,6.3L81.5,37.5L81.5,37.5z M87.9,37l-5,0.4v-3.7l5.3,1.6L87.9,37z"/>
</svg>
