  0
SECTION
  2
HEADER
  9
$ACADVER
  1
AC1024
  9
$ACADMAINTVER
 70
     6
  9
$DWGCODEPAGE
  3
UNDEFINED
  9
$INSBASE
 10
0.0
 20
0.0
 30
0.0
  9
$EXTMIN
 10
1.000000000000000E+20
 20
1.000000000000000E+20
 30
1.000000000000000E+20
  9
$EXTMAX
 10
-1.000000000000000E+20
 20
-1.000000000000000E+20
 30
-1.000000000000000E+20
  9
$LIMMIN
 10
0.0
 20
0.0
  9
$LIMMAX
 10
12.0
 20
9.0
  9
$ORTHOMODE
 70
     0
  9
$REGENMODE
 70
     1
  9
$FILLMODE
 70
     1
  9
$QTEXTMODE
 70
     0
  9
$MIRRTEXT
 70
     1
  9
$LTSCALE
 40
1.0
  9
$ATTMODE
 70
     1
  9
$TEXTSIZE
 40
0.2
  9
$TRACEWID
 40
0.05
  9
$TEXTSTYLE
  7
Standard
  9
$CLAYER
  8
0
  9
$CELTYPE
  6
ByLayer
  9
$CECOLOR
 62
   256
  9
$CELTSCALE
 40
1.0
  9
$DISPSILH
 70
     0
  9
$DIMSCALE
 40
1.0
  9
$DIMASZ
 40
0.18
  9
$DIMEXO
 40
0.0625
  9
$DIMDLI
 40
0.38
  9
$DIMRND
 40
0.0
  9
$DIMDLE
 40
0.0
  9
$DIMEXE
 40
0.18
  9
$DIMTP
 40
0.0
  9
$DIMTM
 40
0.0
  9
$DIMTXT
 40
0.18
  9
$DIMCEN
 40
0.09
  9
$DIMTSZ
 40
0.0
  9
$DIMTOL
 70
     0
  9
$DIMLIM
 70
     0
  9
$DIMTIH
 70
     1
  9
$DIMTOH
 70
     1
  9
$DIMSE1
 70
     0
  9
$DIMSE2
 70
     0
  9
$DIMTAD
 70
     0
  9
$DIMZIN
 70
     0
  9
$DIMBLK
  1

  9
$DIMASO
 70
     1
  9
$DIMSHO
 70
     1
  9
$DIMPOST
  1

  9
$DIMAPOST
  1

  9
$DIMALT
 70
     0
  9
$DIMALTD
 70
     2
  9
$DIMALTF
 40
25.4
  9
$DIMLFAC
 40
1.0
  9
$DIMTOFL
 70
     0
  9
$DIMTVP
 40
0.0
  9
$DIMTIX
 70
     0
  9
$DIMSOXD
 70
     0
  9
$DIMSAH
 70
     0
  9
$DIMBLK1
  1

  9
$DIMBLK2
  1

  9
$DIMSTYLE
  2
Standard
  9
$DIMCLRD
 70
     0
  9
$DIMCLRE
 70
     0
  9
$DIMCLRT
 70
     0
  9
$DIMTFAC
 40
1.0
  9
$DIMGAP
 40
0.09
  9
$DIMJUST
 70
     0
  9
$DIMSD1
 70
     0
  9
$DIMSD2
 70
     0
  9
$DIMTOLJ
 70
     1
  9
$DIMTZIN
 70
     0
  9
$DIMALTZ
 70
     0
  9
$DIMALTTZ
 70
     0
  9
$DIMUPT
 70
     0
  9
$DIMDEC
 70
     4
  9
$DIMTDEC
 70
     4
  9
$DIMALTU
 70
     2
  9
$DIMALTTD
 70
     2
  9
$DIMTXSTY
  7
Standard
  9
$DIMAUNIT
 70
     0
  9
$DIMADEC
 70
     0
  9
$DIMALTRND
 40
0.0
  9
$DIMAZIN
 70
     0
  9
$DIMDSEP
 70
    46
  9
$DIMATFIT
 70
     3
  9
$DIMFRAC
 70
     0
  9
$DIMLDRBLK
  1

  9
$DIMLUNIT
 70
     2
  9
$DIMLWD
 70
    -2
  9
$DIMLWE
 70
    -2
  9
$DIMTMOVE
 70
     0
  9
$DIMFXL
 40
1.0
  9
$DIMFXLON
 70
     0
  9
$DIMJOGANG
 40
0.7853981633974483
  9
$DIMTFILL
 70
     0
  9
$DIMTFILLCLR
 70
     0
  9
$DIMARCSYM
 70
     0
  9
$DIMLTYPE
  6

  9
$DIMLTEX1
  6

  9
$DIMLTEX2
  6

  9
$DIMTXTDIRECTION
 70
     0
  9
$LUNITS
 70
     2
  9
$LUPREC
 70
     4
  9
$SKETCHINC
 40
0.1
  9
$FILLETRAD
 40
0.5
  9
$AUNITS
 70
     0
  9
$AUPREC
 70
     0
  9
$MENU
  1
.
  9
$ELEVATION
 40
0.0
  9
$PELEVATION
 40
0.0
  9
$THICKNESS
 40
0.0
  9
$LIMCHECK
 70
     0
  9
$CHAMFERA
 40
0.5
  9
$CHAMFERB
 40
0.5
  9
$CHAMFERC
 40
1.0
  9
$CHAMFERD
 40
0.0
  9
$SKPOLY
 70
     0
  9
$TDCREATE
 40
2457525.598125
  9
$TDUCREATE
 40
2457525.806458334
  9
$TDUPDATE
 40
2457525.598125
  9
$TDUUPDATE
 40
2457525.806458334
  9
$TDINDWG
 40
0.0000000116
  9
$TDUSRTIMER
 40
0.0000000116
  9
$USRTIMER
 70
     1
  9
$ANGBASE
 50
0.0
  9
$ANGDIR
 70
     0
  9
$PDMODE
 70
     0
  9
$PDSIZE
 40
0.0
  9
$PLINEWID
 40
0.0
  9
$SPLFRAME
 70
     0
  9
$SPLINETYPE
 70
     6
  9
$SPLINESEGS
 70
     8
  9
$HANDSEED
  5
5D
  9
$SURFTAB1
 70
     6
  9
$SURFTAB2
 70
     6
  9
$SURFTYPE
 70
     6
  9
$SURFU
 70
     6
  9
$SURFV
 70
     6
  9
$UCSBASE
  2

  9
$UCSNAME
  2

  9
$UCSORG
 10
0.0
 20
0.0
 30
0.0
  9
$UCSXDIR
 10
1.0
 20
0.0
 30
0.0
  9
$UCSYDIR
 10
0.0
 20
1.0
 30
0.0
  9
$UCSORTHOREF
  2

  9
$UCSORTHOVIEW
 70
     0
  9
$UCSORGTOP
 10
0.0
 20
0.0
 30
0.0
  9
$UCSORGBOTTOM
 10
0.0
 20
0.0
 30
0.0
  9
$UCSORGLEFT
 10
0.0
 20
0.0
 30
0.0
  9
$UCSORGRIGHT
 10
0.0
 20
0.0
 30
0.0
  9
$UCSORGFRONT
 10
0.0
 20
0.0
 30
0.0
  9
$UCSORGBACK
 10
0.0
 20
0.0
 30
0.0
  9
$PUCSBASE
  2

  9
$PUCSNAME
  2

  9
$PUCSORG
 10
0.0
 20
0.0
 30
0.0
  9
$PUCSXDIR
 10
1.0
 20
0.0
 30
0.0
  9
$PUCSYDIR
 10
0.0
 20
1.0
 30
0.0
  9
$PUCSORTHOREF
  2

  9
$PUCSORTHOVIEW
 70
     0
  9
$PUCSORGTOP
 10
0.0
 20
0.0
 30
0.0
  9
$PUCSORGBOTTOM
 10
0.0
 20
0.0
 30
0.0
  9
$PUCSORGLEFT
 10
0.0
 20
0.0
 30
0.0
  9
$PUCSORGRIGHT
 10
0.0
 20
0.0
 30
0.0
  9
$PUCSORGFRONT
 10
0.0
 20
0.0
 30
0.0
  9
$PUCSORGBACK
 10
0.0
 20
0.0
 30
0.0
  9
$USERI1
 70
     0
  9
$USERI2
 70
     0
  9
$USERI3
 70
     0
  9
$USERI4
 70
     0
  9
$USERI5
 70
     0
  9
$USERR1
 40
0.0
  9
$USERR2
 40
0.0
  9
$USERR3
 40
0.0
  9
$USERR4
 40
0.0
  9
$USERR5
 40
0.0
  9
$WORLDVIEW
 70
     1
  9
$SHADEDGE
 70
     3
  9
$SHADEDIF
 70
    70
  9
$TILEMODE
 70
     1
  9
$MAXACTVP
 70
    64
  9
$PINSBASE
 10
0.0
 20
0.0
 30
0.0
  9
$PLIMCHECK
 70
     0
  9
$PEXTMIN
 10
1.000000000000000E+20
 20
1.000000000000000E+20
 30
1.000000000000000E+20
  9
$PEXTMAX
 10
-1.000000000000000E+20
 20
-1.000000000000000E+20
 30
-1.000000000000000E+20
  9
$PLIMMIN
 10
0.0
 20
0.0
  9
$PLIMMAX
 10
12.0
 20
9.0
  9
$UNITMODE
 70
     0
  9
$VISRETAIN
 70
     1
  9
$PLINEGEN
 70
     0
  9
$PSLTSCALE
 70
     1
  9
$TREEDEPTH
 70
  3020
  9
$CMLSTYLE
  2
Standard
  9
$CMLJUST
 70
     0
  9
$CMLSCALE
 40
1.0
  9
$PROXYGRAPHICS
 70
     1
  9
$MEASUREMENT
 70
     0
  9
$CELWEIGHT
370
    -1
  9
$ENDCAPS
280
     0
  9
$JOINSTYLE
280
     0
  9
$LWDISPLAY
290
     1
  9
$INSUNITS
 70
     1
  9
$HYPERLINKBASE
  1

  9
$STYLESHEET
  1

  9
$XEDIT
290
     1
  9
$CEPSNTYPE
380
     0
  9
$PSTYLEMODE
290
     1
  9
$FINGERPRINTGUID
  2
{70450BDB-F2A3-D989-FE0B-9AEB0F784962}
  9
$VERSIONGUID
  2
{FAEB1C32-E019-11D5-929B-00C0DF256EC4}
  9
$EXTNAMES
290
     1
  9
$PSVPSCALE
 40
0.0
  9
$OLESTARTUP
290
     0
  9
$SORTENTS
280
   127
  9
$INDEXCTL
280
     0
  9
$HIDETEXT
280
     1
  9
$XCLIPFRAME
280
     2
  9
$HALOGAP
280
     0
  9
$OBSCOLOR
 70
   257
  9
$OBSLTYPE
280
     0
  9
$INTERSECTIONDISPLAY
280
     0
  9
$INTERSECTIONCOLOR
 70
   257
  9
$DIMASSOC
280
     2
  9
$PROJECTNAME
  1

  9
$CAMERADISPLAY
290
     0
  9
$LENSLENGTH
 40
50.0
  9
$CAMERAHEIGHT
 40
0.0
  9
$STEPSPERSEC
 40
2.0
  9
$STEPSIZE
 40
6.0
  9
$3DDWFPREC
 40
2.0
  9
$PSOLWIDTH
 40
0.25
  9
$PSOLHEIGHT
 40
4.0
  9
$LOFTANG1
 40
1.570796326794897
  9
$LOFTANG2
 40
1.570796326794897
  9
$LOFTMAG1
 40
0.0
  9
$LOFTMAG2
 40
0.0
  9
$LOFTPARAM
 70
     7
  9
$LOFTNORMALS
280
     1
  9
$LATITUDE
 40
37.795
  9
$LONGITUDE
 40
-122.394
  9
$NORTHDIRECTION
 40
0.0
  9
$TIMEZONE
 70
 -8000
  9
$LIGHTGLYPHDISPLAY
280
     1
  9
$TILEMODELIGHTSYNCH
280
     1
  9
$CMATERIAL
347
3C
  9
$SOLIDHIST
280
     1
  9
$SHOWHIST
280
     1
  9
$DWFFRAME
280
     2
  9
$DGNFRAME
280
     2
  9
$REALWORLDSCALE
290
     1
  9
$INTERFERECOLOR
 62
   256
  9
$CSHADOW
280
     0
  9
$SHADOWPLANELOCATION
 40
0.0
  0
ENDSEC
  0
SECTION
  2
CLASSES
  0
CLASS
  1
ACDBDICTIONARYWDFLT
  2
AcDbDictionaryWithDefault
  3
ObjectDBX Classes
 90
        0
 91
        4
280
     0
281
     0
  0
CLASS
  1
VISUALSTYLE
  2
AcDbVisualStyle
  3
ObjectDBX Classes
 90
     4095
 91
        4
280
     0
281
     0
  0
CLASS
  1
MATERIAL
  2
AcDbMaterial
  3
ObjectDBX Classes
 90
     1153
 91
        4
280
     0
281
     0
  0
CLASS
  1
SUN
  2
AcDbSun
  3
SCENEOE
 90
     1024
 91
        4
280
     0
281
     0
  0
ENDSEC
  0
SECTION
  2
TABLES
  0
TABLE
  2
VPORT
  5
8
330
0
100
AcDbSymbolTable
 70
     1
  0
VPORT
  5
29
330
8
100
AcDbSymbolTableRecord
100
AcDbViewportTableRecord
  2
*Active
 70
     0
 10
0.0
 20
0.0
 11
1.0
 21
1.0
 12
0.0
 22
0.0
 13
0.0
 23
0.0
 14
0.5
 24
0.5
 15
0.5
 25
0.5
 16
0.0
 26
0.0
 36
1.0
 17
50.0
 27
62.5
 37
0.0
 40
125.0
 41
0.8
 42
50.0
 43
0.0
 44
0.0
 50
0.0
 51
0.0
 71
     0
 72
   100
 73
     1
 74
     3
 75
     0
 76
     0
 77
     0
 78
     0
281
     0
 65
     1
110
0.0
120
0.0
130
0.0
111
1.0
121
0.0
131
0.0
112
0.0
122
1.0
132
0.0
 79
     0
146
0.0
 60
     3
 61
     5
292
     1
282
     1
141
0.0
142
0.0
 63
   250
361
3F
  0
ENDTAB
  0
TABLE
  2
LTYPE
  5
5
330
0
100
AcDbSymbolTable
 70
     1
  0
LTYPE
  5
14
330
5
100
AcDbSymbolTableRecord
100
AcDbLinetypeTableRecord
  2
ByBlock
 70
     0
  3

 72
    65
 73
     0
 40
0.0
  0
LTYPE
  5
15
330
5
100
AcDbSymbolTableRecord
100
AcDbLinetypeTableRecord
  2
ByLayer
 70
     0
  3

 72
    65
 73
     0
 40
0.0
  0
LTYPE
  5
16
330
5
100
AcDbSymbolTableRecord
100
AcDbLinetypeTableRecord
  2
Continuous
 70
     0
  3
Solid line
 72
    65
 73
     0
 40
0.0
  0
ENDTAB
  0
TABLE
  2
LAYER
  5
2
330
0
100
AcDbSymbolTable
 70
     2
  0
LAYER
  5
10
330
2
100
AcDbSymbolTableRecord
100
AcDbLayerTableRecord
  2
0
 70
     0
 62
     7
  6
Continuous
370
    -3
390
F
347
3E
  0
LAYER
  5
40
330
2
100
AcDbSymbolTableRecord
100
AcDbLayerTableRecord
  2
Layer 1
 70
     0
 62
     7
  6
Continuous
370
    -3
390
F
347
3E
  0
ENDTAB
  0
TABLE
  2
STYLE
  5
3
330
0
100
AcDbSymbolTable
 70
     1
  0
STYLE
  5
11
330
3
100
AcDbSymbolTableRecord
100
AcDbTextStyleTableRecord
  2
Standard
 70
     0
 40
0.0
 41
1.0
 50
0.0
 71
     0
 42
0.2
  3
txt
  4

  0
ENDTAB
  0
TABLE
  2
VIEW
  5
6
330
0
100
AcDbSymbolTable
 70
     0
  0
ENDTAB
  0
TABLE
  2
UCS
  5
7
330
0
100
AcDbSymbolTable
 70
     0
  0
ENDTAB
  0
TABLE
  2
APPID
  5
9
330
0
100
AcDbSymbolTable
 70
     1
  0
APPID
  5
12
330
9
100
AcDbSymbolTableRecord
100
AcDbRegAppTableRecord
  2
ACAD
 70
     0
  0
ENDTAB
  0
TABLE
  2
DIMSTYLE
  5
A
330
0
100
AcDbSymbolTable
 70
     1
100
AcDbDimStyleTable
  0
DIMSTYLE
105
27
330
A
100
AcDbSymbolTableRecord
100
AcDbDimStyleTableRecord
  2
Standard
 70
     0
178
     0
340
11
  0
ENDTAB
  0
TABLE
  2
BLOCK_RECORD
  5
1
330
0
100
AcDbSymbolTable
 70
     1
  0
BLOCK_RECORD
  5
1F
330
1
100
AcDbSymbolTableRecord
100
AcDbBlockTableRecord
  2
*Model_Space
340
22
 70
     0
280
     1
281
     0
  0
BLOCK_RECORD
  5
1B
330
1
100
AcDbSymbolTableRecord
100
AcDbBlockTableRecord
  2
*Paper_Space
340
1E
 70
     0
280
     1
281
     0
  0
BLOCK_RECORD
  5
23
330
1
100
AcDbSymbolTableRecord
100
AcDbBlockTableRecord
  2
*Paper_Space0
340
26
 70
     0
280
     1
281
     0
  0
ENDTAB
  0
ENDSEC
  0
SECTION
  2
BLOCKS
  0
BLOCK
  5
20
330
1F
100
AcDbEntity
  8
0
100
AcDbBlockBegin
  2
*Model_Space
 70
     0
 10
0.0
 20
0.0
 30
0.0
  3
*Model_Space
  1

  0
ENDBLK
  5
21
330
1F
100
AcDbEntity
  8
0
100
AcDbBlockEnd
  0
BLOCK
  5
1C
330
1B
100
AcDbEntity
 67
     1
  8
0
100
AcDbBlockBegin
  2
*Paper_Space
 70
     0
 10
0.0
 20
0.0
 30
0.0
  3
*Paper_Space
  1

  0
ENDBLK
  5
1D
330
1B
100
AcDbEntity
 67
     1
  8
0
100
AcDbBlockEnd
  0
BLOCK
  5
24
330
23
100
AcDbEntity
  8
0
100
AcDbBlockBegin
  2
*Paper_Space0
 70
     0
 10
0.0
 20
0.0
 30
0.0
  3
*Paper_Space0
  1

  0
ENDBLK
  5
25
330
23
100
AcDbEntity
  8
0
100
AcDbBlockEnd
  0
ENDSEC
  0
SECTION
  2
ENTITIES
  0
SPLINE
  5
41
330
1F
100
AcDbEntity
  8
Layer 1
370
     0
100
AcDbSpline
210
0.0
220
0.0
230
1.0
 70
    11
 71
     3
 72
   203
 73
   199
 74
     0
 42
0.0000000001
 43
0.0000000001
 12
1.0
 22
0.0
 32
0.0
 13
1.0
 23
0.0
 33
0.0
 40
0.0
 40
0.0
 40
0.0
 40
0.0
 40
1.0
 40
1.0
 40
1.0
 40
2.0
 40
2.0
 40
2.0
 40
3.0
 40
3.0
 40
3.0
 40
4.0
 40
4.0
 40
4.0
 40
5.0
 40
5.0
 40
5.0
 40
6.0
 40
6.0
 40
6.0
 40
7.0
 40
7.0
 40
7.0
 40
8.0
 40
8.0
 40
8.0
 40
9.0
 40
9.0
 40
9.0
 40
10.0
 40
10.0
 40
10.0
 40
11.0
 40
11.0
 40
11.0
 40
12.0
 40
12.0
 40
12.0
 40
13.0
 40
13.0
 40
13.0
 40
14.0
 40
14.0
 40
14.0
 40
15.0
 40
15.0
 40
15.0
 40
16.0
 40
16.0
 40
16.0
 40
17.0
 40
17.0
 40
17.0
 40
18.0
 40
18.0
 40
18.0
 40
19.0
 40
19.0
 40
19.0
 40
20.0
 40
20.0
 40
20.0
 40
21.0
 40
21.0
 40
21.0
 40
22.0
 40
22.0
 40
22.0
 40
23.0
 40
23.0
 40
23.0
 40
24.0
 40
24.0
 40
24.0
 40
25.0
 40
25.0
 40
25.0
 40
26.0
 40
26.0
 40
26.0
 40
27.0
 40
27.0
 40
27.0
 40
28.0
 40
28.0
 40
28.0
 40
29.0
 40
29.0
 40
29.0
 40
30.0
 40
30.0
 40
30.0
 40
31.0
 40
31.0
 40
31.0
 40
32.0
 40
32.0
 40
32.0
 40
33.0
 40
33.0
 40
33.0
 40
34.0
 40
34.0
 40
34.0
 40
35.0
 40
35.0
 40
35.0
 40
36.0
 40
36.0
 40
36.0
 40
37.0
 40
37.0
 40
37.0
 40
38.0
 40
38.0
 40
38.0
 40
39.0
 40
39.0
 40
39.0
 40
40.0
 40
40.0
 40
40.0
 40
41.0
 40
41.0
 40
41.0
 40
42.0
 40
42.0
 40
42.0
 40
43.0
 40
43.0
 40
43.0
 40
44.0
 40
44.0
 40
44.0
 40
45.0
 40
45.0
 40
45.0
 40
46.0
 40
46.0
 40
46.0
 40
47.0
 40
47.0
 40
47.0
 40
48.0
 40
48.0
 40
48.0
 40
49.0
 40
49.0
 40
49.0
 40
50.0
 40
50.0
 40
50.0
 40
51.0
 40
51.0
 40
51.0
 40
52.0
 40
52.0
 40
52.0
 40
53.0
 40
53.0
 40
53.0
 40
54.0
 40
54.0
 40
54.0
 40
55.0
 40
55.0
 40
55.0
 40
56.0
 40
56.0
 40
56.0
 40
57.0
 40
57.0
 40
57.0
 40
58.0
 40
58.0
 40
58.0
 40
59.0
 40
59.0
 40
59.0
 40
60.0
 40
60.0
 40
60.0
 40
61.0
 40
61.0
 40
61.0
 40
62.0
 40
62.0
 40
62.0
 40
63.0
 40
63.0
 40
63.0
 40
64.0
 40
64.0
 40
64.0
 40
65.0
 40
65.0
 40
65.0
 40
66.0
 40
66.0
 40
66.0
 40
66.0
 10
72.40492842605272
 20
99.50794982910156
 30
0.0
 10
72.40492842605272
 20
99.50794982910156
 30
0.0
 10
66.9869291584746
 20
102.9629516601562
 30
0.0
 10
66.9869291584746
 20
102.9629516601562
 30
0.0
 10
66.87393019607225
 20
103.0349578857422
 30
0.0
 10
66.74092696120897
 20
103.0739440917969
 30
0.0
 10
66.60593245437303
 20
103.0739440917969
 30
0.0
 10
66.60593245437303
 20
103.0739440917969
 30
0.0
 10
59.01592848708788
 20
103.0739440917969
 30
0.0
 10
59.01592848708788
 20
103.0739440917969
 30
0.0
 10
59.01592848708788
 20
103.0739440917969
 30
0.0
 10
71.27493117263475
 20
110.6359405517578
 30
0.0
 10
71.27493117263475
 20
110.6359405517578
 30
0.0
 10
71.52093336990038
 20
110.7879333496094
 30
0.0
 10
71.65093062331835
 20
111.0739440917969
 30
0.0
 10
71.60092757156053
 20
111.3609466552734
 30
0.0
 10
71.55192397048631
 20
111.6459503173828
 30
0.0
 10
71.33292982986131
 20
111.8729400634766
 30
0.0
 10
71.05092451980272
 20
111.9329528808594
 30
0.0
 10
71.05092451980272
 20
111.9329528808594
 30
0.0
 10
64.04492781570116
 20
113.428955078125
 30
0.0
 10
64.04492781570116
 20
113.428955078125
 30
0.0
 10
63.89993117263475
 20
113.4569549560547
 30
0.0
 10
63.75392744949022
 20
113.4459533691406
 30
0.0
 10
63.61792586257616
 20
113.3869476318359
 30
0.0
 10
63.61792586257616
 20
113.3869476318359
 30
0.0
 10
41.76392577102342
 20
104.0559539794922
 30
0.0
 10
41.76392577102342
 20
104.0559539794922
 30
0.0
 10
41.76392577102342
 20
104.0559539794922
 30
0.0
 10
43.11492751052538
 20
105.0669555664062
 30
0.0
 10
43.11492751052538
 20
105.0669555664062
 30
0.0
 10
43.38592741897264
 20
105.2699584960938
 30
0.0
 10
43.47492812087694
 20
105.636962890625
 30
0.0
 10
43.32892821242967
 20
105.9419555664062
 30
0.0
 10
43.32892821242967
 20
105.9419555664062
 30
0.0
 10
42.01992628982225
 20
108.6529541015625
 30
0.0
 10
42.01992628982225
 20
108.6529541015625
 30
0.0
 10
41.90092680862108
 20
108.89794921875
 30
0.0
 10
41.65392516067186
 20
109.053955078125
 30
0.0
 10
41.38092635085741
 20
109.053955078125
 30
0.0
 10
41.38092635085741
 20
109.053955078125
 30
0.0
 10
38.32192824294725
 20
109.053955078125
 30
0.0
 10
38.32192824294725
 20
109.053955078125
 30
0.0
 10
38.32192824294725
 20
109.053955078125
 30
0.0
 10
35.26192686965624
 20
109.053955078125
 30
0.0
 10
35.26192686965624
 20
109.053955078125
 30
0.0
 10
34.98992751052538
 20
109.053955078125
 30
0.0
 10
34.74192641189256
 20
108.89794921875
 30
0.0
 10
34.62392638137499
 20
108.6529541015625
 30
0.0
 10
34.62392638137499
 20
108.6529541015625
 30
0.0
 10
33.31492445876756
 20
105.9419555664062
 30
0.0
 10
33.31492445876756
 20
105.9419555664062
 30
0.0
 10
33.1679250996367
 20
105.636962890625
 30
0.0
 10
33.256925801541
 20
105.2699584960938
 30
0.0
 10
33.52792570998827
 20
105.0669555664062
 30
0.0
 10
33.52792570998827
 20
105.0669555664062
 30
0.0
 10
34.87792418410936
 20
104.0559539794922
 30
0.0
 10
34.87792418410936
 20
104.0559539794922
 30
0.0
 10
34.87792418410936
 20
104.0559539794922
 30
0.0
 10
13.02492354324022
 20
113.3869476318359
 30
0.0
 10
13.02492354324022
 20
113.3869476318359
 30
0.0
 10
12.89092276504198
 20
113.4449462890625
 30
0.0
 10
12.7419225971953
 20
113.4579467773438
 30
0.0
 10
12.59892294814745
 20
113.428955078125
 30
0.0
 10
12.59892294814745
 20
113.428955078125
 30
0.0
 10
5.591922978665025
 20
111.9329528808594
 30
0.0
 10
5.591922978665025
 20
111.9329528808594
 30
0.0
 10
5.308923939968736
 20
111.8719482421875
 30
0.0
 10
5.090923527981431
 20
111.6459503173828
 30
0.0
 10
5.041923741604478
 20
111.3609466552734
 30
0.0
 10
4.992923955227525
 20
111.074951171875
 30
0.0
 10
5.121923665310533
 20
110.7889404296875
 30
0.0
 10
5.367923955227525
 20
110.6359405517578
 30
0.0
 10
5.367923955227525
 20
110.6359405517578
 30
0.0
 10
17.62792418410936
 20
103.0739440917969
 30
0.0
 10
17.62792418410936
 20
103.0739440917969
 30
0.0
 10
17.62792418410936
 20
103.0739440917969
 30
0.0
 10
10.03792403152147
 20
103.0739440917969
 30
0.0
 10
10.03792403152147
 20
103.0739440917969
 30
0.0
 10
9.902923802639634
 20
103.0739440917969
 30
0.0
 10
9.770923833157212
 20
103.0349426269531
 30
0.0
 10
9.656923512722642
 20
102.9629516601562
 30
0.0
 10
9.656923512722642
 20
102.9629516601562
 30
0.0
 10
4.238923291470201
 20
99.50794982910156
 30
0.0
 10
4.238923291470201
 20
99.50794982910156
 30
0.0
 10
3.996923665310533
 20
99.35394287109375
 30
0.0
 10
3.871923665310533
 20
99.06895446777344
 30
0.0
 10
3.92192290237108
 20
98.78594970703125
 30
0.0
 10
3.971922139431626
 20
98.50294494628906
 30
0.0
 10
4.187922696377427
 20
98.27894592285156
 30
0.0
 10
4.467922429348619
 20
98.21795654296875
 30
0.0
 10
4.467922429348619
 20
98.21795654296875
 30
0.0
 10
28.75692198684374
 20
92.8919677734375
 30
0.0
 10
28.75692198684374
 20
92.8919677734375
 30
0.0
 10
28.80692122390428
 20
92.8809814453125
 30
0.0
 10
28.85892317702928
 20
92.87496948242188
 30
0.0
 10
28.90892241408983
 20
92.87496948242188
 30
0.0
 10
29.0909216206328
 20
92.87496948242188
 30
0.0
 10
29.2679235737578
 20
92.94497680664062
 30
0.0
 10
29.40192244460741
 20
93.07498168945312
 30
0.0
 10
29.40192244460741
 20
93.07498168945312
 30
0.0
 10
32.27292082717577
 20
95.85697937011719
 30
0.0
 10
32.27292082717577
 20
95.85697937011719
 30
0.0
 10
32.67891905715624
 20
94.44198608398438
 30
0.0
 10
33.55592177322069
 20
91.82199096679688
 30
0.0
 10
35.26091978957811
 20
86.80899047851562
 30
0.0
 10
35.26091978957811
 20
86.80899047851562
 30
0.0
 10
37.61491988113085
 20
54.0
 30
0.0
 10
37.61491988113085
 20
54.0
 30
0.0
 10
37.61691878249803
 20
53.96701049804688
 30
0.0
 10
37.63292143752733
 20
53.93798828125
 30
0.0
 10
37.63992140700975
 20
53.906005859375
 30
0.0
 10
37.64892027785936
 20
53.864013671875
 30
0.0
 10
37.65691969802538
 20
53.822998046875
 30
0.0
 10
37.67292235305467
 20
53.78399658203125
 30
0.0
 10
37.69192336013475
 20
53.73800659179688
 30
0.0
 10
37.71692107131639
 20
53.69900512695312
 30
0.0
 10
37.74492094924608
 20
53.65899658203125
 30
0.0
 10
37.76692030837694
 20
53.62600708007812
 30
0.0
 10
37.7879202168242
 20
53.59298706054688
 30
0.0
 10
37.81592009475389
 20
53.56298828125
 30
0.0
 10
37.850919942166
 20
53.52798461914062
 30
0.0
 10
37.88992140700975
 20
53.5009765625
 30
0.0
 10
37.93192122390428
 20
53.47299194335938
 30
0.0
 10
37.96392271926561
 20
53.45098876953125
 30
0.0
 10
37.99392149856249
 20
53.427001953125
 30
0.0
 10
38.02992079665819
 20
53.41098022460938
 30
0.0
 10
38.07792113235155
 20
53.38897705078125
 30
0.0
 10
38.12991927077928
 20
53.37997436523438
 30
0.0
 10
38.18292067458788
 20
53.36798095703125
 30
0.0
 10
38.21291945388475
 20
53.36196899414062
 30
0.0
 10
38.23991988113085
 20
53.34597778320312
 30
0.0
 10
38.27192137649217
 20
53.343994140625
 30
0.0
 10
38.2889196675078
 20
53.34298706054688
 30
0.0
 10
38.3049223225371
 20
53.34197998046875
 30
0.0
 10
38.32092116286913
 20
53.34197998046875
 30
0.0
 10
38.32092116286913
 20
53.34197998046875
 30
0.0
 10
38.32092116286913
 20
53.34197998046875
 30
0.0
 10
38.32092116286913
 20
53.34197998046875
 30
0.0
 10
38.32092116286913
 20
53.34197998046875
 30
0.0
 10
38.32092116286913
 20
53.34197998046875
 30
0.0
 10
38.32192061355272
 20
53.34197998046875
 30
0.0
 10
38.32292006423631
 20
53.34197998046875
 30
0.0
 10
38.32192061355272
 20
53.34197998046875
 30
0.0
 10
38.32292006423631
 20
53.34197998046875
 30
0.0
 10
38.32292006423631
 20
53.34197998046875
 30
0.0
 10
38.32292006423631
 20
53.34197998046875
 30
0.0
 10
38.32292006423631
 20
53.34197998046875
 30
0.0
 10
38.33891890456835
 20
53.34197998046875
 30
0.0
 10
38.35592101028124
 20
53.34298706054688
 30
0.0
 10
38.37191985061327
 20
53.343994140625
 30
0.0
 10
38.4039213459746
 20
53.34600830078125
 30
0.0
 10
38.43091795852342
 20
53.36300659179688
 30
0.0
 10
38.46092055251756
 20
53.36798095703125
 30
0.0
 10
38.51392195632616
 20
53.37997436523438
 30
0.0
 10
38.5649206440703
 20
53.38897705078125
 30
0.0
 10
38.61392043044725
 20
53.41098022460938
 30
0.0
 10
38.64991972854295
 20
53.427978515625
 30
0.0
 10
38.6799223225371
 20
53.45098876953125
 30
0.0
 10
38.71192000320116
 20
53.47299194335938
 30
0.0
 10
38.75391982009569
 20
53.5
 30
0.0
 10
38.79292128493944
 20
53.52798461914062
 30
0.0
 10
38.82692168166795
 20
53.56298828125
 30
0.0
 10
38.85492155959764
 20
53.59197998046875
 30
0.0
 10
38.87592146804491
 20
53.625
 30
0.0
 10
38.89792082717577
 20
53.65899658203125
 30
0.0
 10
38.92492125442186
 20
53.69900512695312
 30
0.0
 10
38.95092223098436
 20
53.73800659179688
 30
0.0
 10
38.96891997268358
 20
53.78399658203125
 30
0.0
 10
38.9859182636992
 20
53.822998046875
 30
0.0
 10
38.99291823318163
 20
53.86398315429688
 30
0.0
 10
39.0019209187285
 20
53.906005859375
 30
0.0
 10
39.00892088821092
 20
53.93801879882812
 30
0.0
 10
39.02491972854295
 20
53.96600341796875
 30
0.0
 10
39.02692244460741
 20
54.0
 30
0.0
 10
39.02692244460741
 20
54.0
 30
0.0
 10
41.38092253616014
 20
86.80899047851562
 30
0.0
 10
41.38092253616014
 20
86.80899047851562
 30
0.0
 10
43.08592436721483
 20
91.81997680664062
 30
0.0
 10
43.96392271926561
 20
94.44099426269531
 30
0.0
 10
44.36992094924608
 20
95.85598754882812
 30
0.0
 10
44.36992094924608
 20
95.85598754882812
 30
0.0
 10
47.23991988113085
 20
93.07498168945312
 30
0.0
 10
47.23991988113085
 20
93.07498168945312
 30
0.0
 10
47.37391875198045
 20
92.94497680664062
 30
0.0
 10
47.55092070510545
 20
92.87496948242188
 30
0.0
 10
47.73291991164842
 20
92.87496948242188
 30
0.0
 10
47.78391859939256
 20
92.87496948242188
 30
0.0
 10
47.83492110183397
 20
92.8809814453125
 30
0.0
 10
47.88392088821092
 20
92.8919677734375
 30
0.0
 10
47.88392088821092
 20
92.8919677734375
 30
0.0
 10
72.17291853835741
 20
98.21797180175781
 30
0.0
 10
72.17291853835741
 20
98.21797180175781
 30
0.0
 10
72.45291731765428
 20
98.27996826171875
 30
0.0
 10
72.66892073562303
 20
98.50396728515625
 30
0.0
 10
72.71891615798631
 20
98.78596496582031
 30
0.0
 10
72.77192519118944
 20
99.06895446777344
 30
0.0
 10
72.64692519118944
 20
99.35395812988281
 30
0.0
 10
72.40492842605272
 20
99.50794982910156
 30
0.0
  0
SPLINE
  5
42
330
1F
100
AcDbEntity
  8
Layer 1
370
     0
100
AcDbSpline
210
0.0
220
0.0
230
1.0
 70
    11
 71
     3
 72
    20
 73
    16
 74
     0
 42
0.0000000001
 43
0.0000000001
 12
1.0
 22
0.0
 32
0.0
 13
1.0
 23
0.0
 33
0.0
 40
0.0
 40
0.0
 40
0.0
 40
0.0
 40
1.0
 40
1.0
 40
1.0
 40
2.0
 40
2.0
 40
2.0
 40
3.0
 40
3.0
 40
3.0
 40
4.0
 40
4.0
 40
4.0
 40
5.0
 40
5.0
 40
5.0
 40
5.0
 10
56.31492445876756
 20
103.074951171875
 30
0.0
 10
56.31492445876756
 20
103.074951171875
 30
0.0
 10
50.00092528274217
 20
103.074951171875
 30
0.0
 10
50.00092528274217
 20
103.074951171875
 30
0.0
 10
52.12992690017381
 20
104.3999481201172
 30
0.0
 10
56.13992140700975
 20
106.9629516601562
 30
0.0
 10
63.81592390945116
 20
111.9319458007812
 30
0.0
 10
63.81592390945116
 20
111.9319458007812
 30
0.0
 10
63.96792433669725
 20
111.9959411621094
 30
0.0
 10
63.96792433669725
 20
111.9959411621094
 30
0.0
 10
63.96792433669725
 20
111.9959411621094
 30
0.0
 10
69.027921895291
 20
110.9159393310547
 30
0.0
 10
69.027921895291
 20
110.9159393310547
 30
0.0
 10
69.027921895291
 20
110.9159393310547
 30
0.0
 10
56.31492445876756
 20
103.074951171875
 30
0.0
 10
56.31492445876756
 20
103.074951171875
 30
0.0
  0
SPLINE
  5
43
330
1F
100
AcDbEntity
  8
Layer 1
370
     0
100
AcDbSpline
210
0.0
220
0.0
230
1.0
 70
    11
 71
     3
 72
    14
 73
    10
 74
     0
 42
0.0000000001
 43
0.0000000001
 12
1.0
 22
0.0
 32
0.0
 13
1.0
 23
0.0
 33
0.0
 40
0.0
 40
0.0
 40
0.0
 40
0.0
 40
1.0
 40
1.0
 40
1.0
 40
2.0
 40
2.0
 40
2.0
 40
3.0
 40
3.0
 40
3.0
 40
3.0
 10
43.07292769363085
 20
103.074951171875
 30
0.0
 10
43.07292769363085
 20
103.074951171875
 30
0.0
 10
56.07792494704881
 20
108.6279449462891
 30
0.0
 10
56.07792494704881
 20
108.6279449462891
 30
0.0
 10
51.84992430617967
 20
105.9129486083984
 30
0.0
 10
47.99992583205858
 20
103.4629516601562
 30
0.0
 10
47.2929250996367
 20
103.074951171875
 30
0.0
 10
47.2929250996367
 20
103.074951171875
 30
0.0
 10
43.07292769363085
 20
103.074951171875
 30
0.0
 10
43.07292769363085
 20
103.074951171875
 30
0.0
  0
SPLINE
  5
44
330
1F
100
AcDbEntity
  8
Layer 1
370
     0
100
AcDbSpline
210
0.0
220
0.0
230
1.0
 70
    11
 71
     3
 72
    14
 73
    10
 74
     0
 42
0.0000000001
 43
0.0000000001
 12
1.0
 22
0.0
 32
0.0
 13
1.0
 23
0.0
 33
0.0
 40
0.0
 40
0.0
 40
0.0
 40
0.0
 40
1.0
 40
1.0
 40
1.0
 40
2.0
 40
2.0
 40
2.0
 40
3.0
 40
3.0
 40
3.0
 40
3.0
 10
29.35192702224413
 20
103.074951171875
 30
0.0
 10
28.64392683913866
 20
103.4629516601562
 30
0.0
 10
24.79392836501756
 20
105.9129486083984
 30
0.0
 10
20.56692717483202
 20
108.6279449462891
 30
0.0
 10
20.56692717483202
 20
108.6279449462891
 30
0.0
 10
33.57192824294725
 20
103.074951171875
 30
0.0
 10
33.57192824294725
 20
103.074951171875
 30
0.0
 10
33.57192824294725
 20
103.074951171875
 30
0.0
 10
29.35192702224413
 20
103.074951171875
 30
0.0
 10
29.35192702224413
 20
103.074951171875
 30
0.0
  0
POLYLINE
  5
45
330
1F
100
AcDbEntity
  8
Layer 1
370
     0
100
AcDb2dPolyline
 66
     1
 10
0.0
 20
0.0
 30
0.0
  0
VERTEX
  5
46
330
45
100
AcDbEntity
  8
Layer 1
370
     0
100
AcDbVertex
100
AcDb2dVertex
 10
35.70692656448045
 20
107.6369476318359
 30
0.0
  0
VERTEX
  5
47
330
45
100
AcDbEntity
  8
Layer 1
370
     0
100
AcDbVertex
100
AcDb2dVertex
 10
38.32192824294725
 20
107.6369476318359
 30
0.0
  0
VERTEX
  5
48
330
45
100
AcDbEntity
  8
Layer 1
370
     0
100
AcDbVertex
100
AcDb2dVertex
 10
40.93792937209764
 20
107.6369476318359
 30
0.0
  0
VERTEX
  5
49
330
45
100
AcDbEntity
  8
Layer 1
370
     0
100
AcDbVertex
100
AcDb2dVertex
 10
41.7989294331328
 20
105.8529510498047
 30
0.0
  0
VERTEX
  5
4A
330
45
100
AcDbEntity
  8
Layer 1
370
     0
100
AcDbVertex
100
AcDb2dVertex
 10
38.32192824294725
 20
103.2509613037109
 30
0.0
  0
VERTEX
  5
4B
330
45
100
AcDbEntity
  8
Layer 1
370
     0
100
AcDbVertex
100
AcDb2dVertex
 10
34.8449270527617
 20
105.8539581298828
 30
0.0
  0
VERTEX
  5
4C
330
45
100
AcDbEntity
  8
Layer 1
370
     0
100
AcDbVertex
100
AcDb2dVertex
 10
35.70692656448045
 20
107.6369476318359
 30
0.0
  0
SEQEND
  5
4D
330
45
100
AcDbEntity
  8
Layer 1
370
     0
  0
SPLINE
  5
4E
330
1F
100
AcDbEntity
  8
Layer 1
370
     0
100
AcDbSpline
210
0.0
220
0.0
230
1.0
 70
    11
 71
     3
 72
    20
 73
    16
 74
     0
 42
0.0000000001
 43
0.0000000001
 12
1.0
 22
0.0
 32
0.0
 13
1.0
 23
0.0
 33
0.0
 40
0.0
 40
0.0
 40
0.0
 40
0.0
 40
1.0
 40
1.0
 40
1.0
 40
2.0
 40
2.0
 40
2.0
 40
3.0
 40
3.0
 40
3.0
 40
4.0
 40
4.0
 40
4.0
 40
5.0
 40
5.0
 40
5.0
 40
5.0
 10
7.615928868557603
 20
110.9169616699219
 30
0.0
 10
7.615928868557603
 20
110.9169616699219
 30
0.0
 10
12.67592833449999
 20
111.9969635009766
 30
0.0
 10
12.67592833449999
 20
111.9969635009766
 30
0.0
 10
12.67592833449999
 20
111.9969635009766
 30
0.0
 10
12.82792876174608
 20
111.9329681396484
 30
0.0
 10
12.82792876174608
 20
111.9329681396484
 30
0.0
 10
20.50492690017381
 20
106.9629669189453
 30
0.0
 10
24.51392958572069
 20
104.4009704589844
 30
0.0
 10
26.64292738845506
 20
103.0759735107422
 30
0.0
 10
26.64292738845506
 20
103.0759735107422
 30
0.0
 10
20.32892821242967
 20
103.0759735107422
 30
0.0
 10
20.32892821242967
 20
103.0759735107422
 30
0.0
 10
20.32892821242967
 20
103.0759735107422
 30
0.0
 10
7.615928868557603
 20
110.9169616699219
 30
0.0
 10
7.615928868557603
 20
110.9169616699219
 30
0.0
  0
SPLINE
  5
4F
330
1F
100
AcDbEntity
  8
Layer 1
370
     0
100
AcDbSpline
210
0.0
220
0.0
230
1.0
 70
    11
 71
     3
 72
    26
 73
    22
 74
     0
 42
0.0000000001
 43
0.0000000001
 12
1.0
 22
0.0
 32
0.0
 13
1.0
 23
0.0
 33
0.0
 40
0.0
 40
0.0
 40
0.0
 40
0.0
 40
1.0
 40
1.0
 40
1.0
 40
2.0
 40
2.0
 40
2.0
 40
3.0
 40
3.0
 40
3.0
 40
4.0
 40
4.0
 40
4.0
 40
5.0
 40
5.0
 40
5.0
 40
6.0
 40
6.0
 40
6.0
 40
7.0
 40
7.0
 40
7.0
 40
7.0
 10
28.68892882278124
 20
94.35795593261719
 30
0.0
 10
28.68892882278124
 20
94.35795593261719
 30
0.0
 10
6.446928242947251
 20
99.2359619140625
 30
0.0
 10
6.446928242947251
 20
99.2359619140625
 30
0.0
 10
6.446928242947251
 20
99.2359619140625
 30
0.0
 10
10.24392912795702
 20
101.6569671630859
 30
0.0
 10
10.24392912795702
 20
101.6569671630859
 30
0.0
 10
10.24392912795702
 20
101.6569671630859
 30
0.0
 10
36.22192976882616
 20
101.6569671630859
 30
0.0
 10
36.22192976882616
 20
101.6569671630859
 30
0.0
 10
36.22192976882616
 20
101.6569671630859
 30
0.0
 10
32.16792891433397
 20
97.72897338867188
 30
0.0
 10
32.16792891433397
 20
97.72897338867188
 30
0.0
 10
32.16593001296678
 20
97.72697448730469
 30
0.0
 10
32.16292784621874
 20
97.72596740722656
 30
0.0
 10
32.16092894485155
 20
97.72396850585938
 30
0.0
 10
32.14192793777147
 20
97.70497131347656
 30
0.0
 10
32.12492964675585
 20
97.68797302246094
 30
0.0
 10
32.10792754104295
 20
97.66996765136719
 30
0.0
 10
32.10792754104295
 20
97.66996765136719
 30
0.0
 10
28.68892882278124
 20
94.35795593261719
 30
0.0
 10
28.68892882278124
 20
94.35795593261719
 30
0.0
  0
SPLINE
  5
50
330
1F
100
AcDbEntity
  8
Layer 1
370
     0
100
AcDbSpline
210
0.0
220
0.0
230
1.0
 70
    11
 71
     3
 72
    17
 73
    13
 74
     0
 42
0.0000000001
 43
0.0000000001
 12
1.0
 22
0.0
 32
0.0
 13
1.0
 23
0.0
 33
0.0
 40
0.0
 40
0.0
 40
0.0
 40
0.0
 40
1.0
 40
1.0
 40
1.0
 40
2.0
 40
2.0
 40
2.0
 40
3.0
 40
3.0
 40
3.0
 40
4.0
 40
4.0
 40
4.0
 40
4.0
 10
37.61392805984178
 20
101.032958984375
 30
0.0
 10
37.61392805984178
 20
101.032958984375
 30
0.0
 10
37.61392805984178
 20
88.4029541015625
 30
0.0
 10
37.61392805984178
 20
88.4029541015625
 30
0.0
 10
37.61392805984178
 20
88.4029541015625
 30
0.0
 10
36.38992903640428
 20
87.89596557617188
 30
0.0
 10
36.38992903640428
 20
87.89596557617188
 30
0.0
 10
35.28592894485155
 20
91.15496826171875
 30
0.0
 10
33.76792738845506
 20
95.72196960449219
 30
0.0
 10
33.42692778518358
 20
96.97496032714844
 30
0.0
 10
33.42692778518358
 20
96.97496032714844
 30
0.0
 10
37.61392805984178
 20
101.032958984375
 30
0.0
 10
37.61392805984178
 20
101.032958984375
 30
0.0
  0
POLYLINE
  5
51
330
1F
100
AcDbEntity
  8
Layer 1
370
     0
100
AcDb2dPolyline
 66
     1
 10
0.0
 20
0.0
 30
0.0
  0
VERTEX
  5
52
330
51
100
AcDbEntity
  8
Layer 1
370
     0
100
AcDbVertex
100
AcDb2dVertex
 10
36.70492766311327
 20
86.491943359375
 30
0.0
  0
VERTEX
  5
53
330
51
100
AcDbEntity
  8
Layer 1
370
     0
100
AcDbVertex
100
AcDb2dVertex
 10
38.32192824294725
 20
87.16094970703125
 30
0.0
  0
VERTEX
  5
54
330
51
100
AcDbEntity
  8
Layer 1
370
     0
100
AcDbVertex
100
AcDb2dVertex
 10
39.93892882278124
 20
86.491943359375
 30
0.0
  0
VERTEX
  5
55
330
51
100
AcDbEntity
  8
Layer 1
370
     0
100
AcDbVertex
100
AcDb2dVertex
 10
38.32192824294725
 20
63.95794677734375
 30
0.0
  0
VERTEX
  5
56
330
51
100
AcDbEntity
  8
Layer 1
370
     0
100
AcDbVertex
100
AcDb2dVertex
 10
36.70492766311327
 20
86.491943359375
 30
0.0
  0
SEQEND
  5
57
330
51
100
AcDbEntity
  8
Layer 1
370
     0
  0
SPLINE
  5
58
330
1F
100
AcDbEntity
  8
Layer 1
370
     0
100
AcDbSpline
210
0.0
220
0.0
230
1.0
 70
    11
 71
     3
 72
    17
 73
    13
 74
     0
 42
0.0000000001
 43
0.0000000001
 12
1.0
 22
0.0
 32
0.0
 13
1.0
 23
0.0
 33
0.0
 40
0.0
 40
0.0
 40
0.0
 40
0.0
 40
1.0
 40
1.0
 40
1.0
 40
2.0
 40
2.0
 40
2.0
 40
3.0
 40
3.0
 40
3.0
 40
4.0
 40
4.0
 40
4.0
 40
4.0
 10
40.25492690017381
 20
87.89596557617188
 30
0.0
 10
40.25492690017381
 20
87.89596557617188
 30
0.0
 10
39.03092787673631
 20
88.4019775390625
 30
0.0
 10
39.03092787673631
 20
88.4019775390625
 30
0.0
 10
39.03092787673631
 20
88.4019775390625
 30
0.0
 10
39.03092787673631
 20
101.0329742431641
 30
0.0
 10
39.03092787673631
 20
101.0329742431641
 30
0.0
 10
39.03092787673631
 20
101.0329742431641
 30
0.0
 10
43.21892760207811
 20
96.9749755859375
 30
0.0
 10
43.21892760207811
 20
96.9749755859375
 30
0.0
 10
42.87692854812303
 20
95.72296142578125
 30
0.0
 10
41.35792754104295
 20
91.15496826171875
 30
0.0
 10
40.25492690017381
 20
87.89596557617188
 30
0.0
  0
SPLINE
  5
59
330
1F
100
AcDbEntity
  8
Layer 1
370
     0
100
AcDbSpline
210
0.0
220
0.0
230
1.0
 70
    11
 71
     3
 72
    26
 73
    22
 74
     0
 42
0.0000000001
 43
0.0000000001
 12
1.0
 22
0.0
 32
0.0
 13
1.0
 23
0.0
 33
0.0
 40
0.0
 40
0.0
 40
0.0
 40
0.0
 40
1.0
 40
1.0
 40
1.0
 40
2.0
 40
2.0
 40
2.0
 40
3.0
 40
3.0
 40
3.0
 40
4.0
 40
4.0
 40
4.0
 40
5.0
 40
5.0
 40
5.0
 40
6.0
 40
6.0
 40
6.0
 40
7.0
 40
7.0
 40
7.0
 40
7.0
 10
47.95492766311327
 20
94.35795593261719
 30
0.0
 10
47.95492766311327
 20
94.35795593261719
 30
0.0
 10
44.5329267781035
 20
97.6739501953125
 30
0.0
 10
44.5329267781035
 20
97.6739501953125
 30
0.0
 10
44.51692793777147
 20
97.69094848632812
 30
0.0
 10
44.49992583205858
 20
97.70695495605469
 30
0.0
 10
44.48192809035936
 20
97.72494506835938
 30
0.0
 10
44.47992918899217
 20
97.72694396972656
 30
0.0
 10
44.47792647292772
 20
97.72694396972656
 30
0.0
 10
44.47692702224413
 20
97.72795104980469
 30
0.0
 10
44.47692702224413
 20
97.72795104980469
 30
0.0
 10
40.42292616775194
 20
101.6569519042969
 30
0.0
 10
40.42292616775194
 20
101.6569519042969
 30
0.0
 10
40.42292616775194
 20
101.6569519042969
 30
0.0
 10
66.39892409255663
 20
101.6569519042969
 30
0.0
 10
66.39892409255663
 20
101.6569519042969
 30
0.0
 10
66.39892409255663
 20
101.6569519042969
 30
0.0
 10
70.19692061355272
 20
99.23594665527344
 30
0.0
 10
70.19692061355272
 20
99.23594665527344
 30
0.0
 10
70.19692061355272
 20
99.23594665527344
 30
0.0
 10
47.95492766311327
 20
94.35795593261719
 30
0.0
 10
47.95492766311327
 20
94.35795593261719
 30
0.0
  0
HATCH
  5
5A
330
1F
100
AcDbEntity
  8
Layer 1
 62
     7
420
 16777215
100
AcDbHatch
 10
0.0
 20
0.0
 30
0.0
210
0.0
220
0.0
230
1.0
  2
SOLID
 70
     1
 71
     0
 91
       11
 92
        1
 93
        1
 72
     4
 94
        3
 73
     0
 74
     1
 95
      203
 96
      199
 40
0.0
 40
0.0
 40
0.0
 40
0.0
 40
1.0
 40
1.0
 40
1.0
 40
2.0
 40
2.0
 40
2.0
 40
3.0
 40
3.0
 40
3.0
 40
4.0
 40
4.0
 40
4.0
 40
5.0
 40
5.0
 40
5.0
 40
6.0
 40
6.0
 40
6.0
 40
7.0
 40
7.0
 40
7.0
 40
8.0
 40
8.0
 40
8.0
 40
9.0
 40
9.0
 40
9.0
 40
10.0
 40
10.0
 40
10.0
 40
11.0
 40
11.0
 40
11.0
 40
12.0
 40
12.0
 40
12.0
 40
13.0
 40
13.0
 40
13.0
 40
14.0
 40
14.0
 40
14.0
 40
15.0
 40
15.0
 40
15.0
 40
16.0
 40
16.0
 40
16.0
 40
17.0
 40
17.0
 40
17.0
 40
18.0
 40
18.0
 40
18.0
 40
19.0
 40
19.0
 40
19.0
 40
20.0
 40
20.0
 40
20.0
 40
21.0
 40
21.0
 40
21.0
 40
22.0
 40
22.0
 40
22.0
 40
23.0
 40
23.0
 40
23.0
 40
24.0
 40
24.0
 40
24.0
 40
25.0
 40
25.0
 40
25.0
 40
26.0
 40
26.0
 40
26.0
 40
27.0
 40
27.0
 40
27.0
 40
28.0
 40
28.0
 40
28.0
 40
29.0
 40
29.0
 40
29.0
 40
30.0
 40
30.0
 40
30.0
 40
31.0
 40
31.0
 40
31.0
 40
32.0
 40
32.0
 40
32.0
 40
33.0
 40
33.0
 40
33.0
 40
34.0
 40
34.0
 40
34.0
 40
35.0
 40
35.0
 40
35.0
 40
36.0
 40
36.0
 40
36.0
 40
37.0
 40
37.0
 40
37.0
 40
38.0
 40
38.0
 40
38.0
 40
39.0
 40
39.0
 40
39.0
 40
40.0
 40
40.0
 40
40.0
 40
41.0
 40
41.0
 40
41.0
 40
42.0
 40
42.0
 40
42.0
 40
43.0
 40
43.0
 40
43.0
 40
44.0
 40
44.0
 40
44.0
 40
45.0
 40
45.0
 40
45.0
 40
46.0
 40
46.0
 40
46.0
 40
47.0
 40
47.0
 40
47.0
 40
48.0
 40
48.0
 40
48.0
 40
49.0
 40
49.0
 40
49.0
 40
50.0
 40
50.0
 40
50.0
 40
51.0
 40
51.0
 40
51.0
 40
52.0
 40
52.0
 40
52.0
 40
53.0
 40
53.0
 40
53.0
 40
54.0
 40
54.0
 40
54.0
 40
55.0
 40
55.0
 40
55.0
 40
56.0
 40
56.0
 40
56.0
 40
57.0
 40
57.0
 40
57.0
 40
58.0
 40
58.0
 40
58.0
 40
59.0
 40
59.0
 40
59.0
 40
60.0
 40
60.0
 40
60.0
 40
61.0
 40
61.0
 40
61.0
 40
62.0
 40
62.0
 40
62.0
 40
63.0
 40
63.0
 40
63.0
 40
64.0
 40
64.0
 40
64.0
 40
65.0
 40
65.0
 40
65.0
 40
66.0
 40
66.0
 40
66.0
 40
66.0
 10
72.40492842605272
 20
99.50794982910156
 10
72.40492842605272
 20
99.50794982910156
 10
66.9869291584746
 20
102.9629516601562
 10
66.9869291584746
 20
102.9629516601562
 10
66.87393019607225
 20
103.0349578857422
 10
66.74092696120897
 20
103.0739440917969
 10
66.60593245437303
 20
103.0739440917969
 10
66.60593245437303
 20
103.0739440917969
 10
59.01592848708788
 20
103.0739440917969
 10
59.01592848708788
 20
103.0739440917969
 10
59.01592848708788
 20
103.0739440917969
 10
71.27493117263475
 20
110.6359405517578
 10
71.27493117263475
 20
110.6359405517578
 10
71.52093336990038
 20
110.7879333496094
 10
71.65093062331835
 20
111.0739440917969
 10
71.60092757156053
 20
111.3609466552734
 10
71.55192397048631
 20
111.6459503173828
 10
71.33292982986131
 20
111.8729400634766
 10
71.05092451980272
 20
111.9329528808594
 10
71.05092451980272
 20
111.9329528808594
 10
64.04492781570116
 20
113.428955078125
 10
64.04492781570116
 20
113.428955078125
 10
63.89993117263475
 20
113.4569549560547
 10
63.75392744949022
 20
113.4459533691406
 10
63.61792586257616
 20
113.3869476318359
 10
63.61792586257616
 20
113.3869476318359
 10
41.76392577102342
 20
104.0559539794922
 10
41.76392577102342
 20
104.0559539794922
 10
41.76392577102342
 20
104.0559539794922
 10
43.11492751052538
 20
105.0669555664062
 10
43.11492751052538
 20
105.0669555664062
 10
43.38592741897264
 20
105.2699584960938
 10
43.47492812087694
 20
105.636962890625
 10
43.32892821242967
 20
105.9419555664062
 10
43.32892821242967
 20
105.9419555664062
 10
42.01992628982225
 20
108.6529541015625
 10
42.01992628982225
 20
108.6529541015625
 10
41.90092680862108
 20
108.89794921875
 10
41.65392516067186
 20
109.053955078125
 10
41.38092635085741
 20
109.053955078125
 10
41.38092635085741
 20
109.053955078125
 10
38.32192824294725
 20
109.053955078125
 10
38.32192824294725
 20
109.053955078125
 10
38.32192824294725
 20
109.053955078125
 10
35.26192686965624
 20
109.053955078125
 10
35.26192686965624
 20
109.053955078125
 10
34.98992751052538
 20
109.053955078125
 10
34.74192641189256
 20
108.89794921875
 10
34.62392638137499
 20
108.6529541015625
 10
34.62392638137499
 20
108.6529541015625
 10
33.31492445876756
 20
105.9419555664062
 10
33.31492445876756
 20
105.9419555664062
 10
33.1679250996367
 20
105.636962890625
 10
33.256925801541
 20
105.2699584960938
 10
33.52792570998827
 20
105.0669555664062
 10
33.52792570998827
 20
105.0669555664062
 10
34.87792418410936
 20
104.0559539794922
 10
34.87792418410936
 20
104.0559539794922
 10
34.87792418410936
 20
104.0559539794922
 10
13.02492354324022
 20
113.3869476318359
 10
13.02492354324022
 20
113.3869476318359
 10
12.89092276504198
 20
113.4449462890625
 10
12.7419225971953
 20
113.4579467773438
 10
12.59892294814745
 20
113.428955078125
 10
12.59892294814745
 20
113.428955078125
 10
5.591922978665025
 20
111.9329528808594
 10
5.591922978665025
 20
111.9329528808594
 10
5.308923939968736
 20
111.8719482421875
 10
5.090923527981431
 20
111.6459503173828
 10
5.041923741604478
 20
111.3609466552734
 10
4.992923955227525
 20
111.074951171875
 10
5.121923665310533
 20
110.7889404296875
 10
5.367923955227525
 20
110.6359405517578
 10
5.367923955227525
 20
110.6359405517578
 10
17.62792418410936
 20
103.0739440917969
 10
17.62792418410936
 20
103.0739440917969
 10
17.62792418410936
 20
103.0739440917969
 10
10.03792403152147
 20
103.0739440917969
 10
10.03792403152147
 20
103.0739440917969
 10
9.902923802639634
 20
103.0739440917969
 10
9.770923833157212
 20
103.0349426269531
 10
9.656923512722642
 20
102.9629516601562
 10
9.656923512722642
 20
102.9629516601562
 10
4.238923291470201
 20
99.50794982910156
 10
4.238923291470201
 20
99.50794982910156
 10
3.996923665310533
 20
99.35394287109375
 10
3.871923665310533
 20
99.06895446777344
 10
3.92192290237108
 20
98.78594970703125
 10
3.971922139431626
 20
98.50294494628906
 10
4.187922696377427
 20
98.27894592285156
 10
4.467922429348619
 20
98.21795654296875
 10
4.467922429348619
 20
98.21795654296875
 10
28.75692198684374
 20
92.8919677734375
 10
28.75692198684374
 20
92.8919677734375
 10
28.80692122390428
 20
92.8809814453125
 10
28.85892317702928
 20
92.87496948242188
 10
28.90892241408983
 20
92.87496948242188
 10
29.0909216206328
 20
92.87496948242188
 10
29.2679235737578
 20
92.94497680664062
 10
29.40192244460741
 20
93.07498168945312
 10
29.40192244460741
 20
93.07498168945312
 10
32.27292082717577
 20
95.85697937011719
 10
32.27292082717577
 20
95.85697937011719
 10
32.67891905715624
 20
94.44198608398438
 10
33.55592177322069
 20
91.82199096679688
 10
35.26091978957811
 20
86.80899047851562
 10
35.26091978957811
 20
86.80899047851562
 10
37.61491988113085
 20
54.0
 10
37.61491988113085
 20
54.0
 10
37.61691878249803
 20
53.96701049804688
 10
37.63292143752733
 20
53.93798828125
 10
37.63992140700975
 20
53.906005859375
 10
37.64892027785936
 20
53.864013671875
 10
37.65691969802538
 20
53.822998046875
 10
37.67292235305467
 20
53.78399658203125
 10
37.69192336013475
 20
53.73800659179688
 10
37.71692107131639
 20
53.69900512695312
 10
37.74492094924608
 20
53.65899658203125
 10
37.76692030837694
 20
53.62600708007812
 10
37.7879202168242
 20
53.59298706054688
 10
37.81592009475389
 20
53.56298828125
 10
37.850919942166
 20
53.52798461914062
 10
37.88992140700975
 20
53.5009765625
 10
37.93192122390428
 20
53.47299194335938
 10
37.96392271926561
 20
53.45098876953125
 10
37.99392149856249
 20
53.427001953125
 10
38.02992079665819
 20
53.41098022460938
 10
38.07792113235155
 20
53.38897705078125
 10
38.12991927077928
 20
53.37997436523438
 10
38.18292067458788
 20
53.36798095703125
 10
38.21291945388475
 20
53.36196899414062
 10
38.23991988113085
 20
53.34597778320312
 10
38.27192137649217
 20
53.343994140625
 10
38.2889196675078
 20
53.34298706054688
 10
38.3049223225371
 20
53.34197998046875
 10
38.32092116286913
 20
53.34197998046875
 10
38.32092116286913
 20
53.34197998046875
 10
38.32092116286913
 20
53.34197998046875
 10
38.32092116286913
 20
53.34197998046875
 10
38.32092116286913
 20
53.34197998046875
 10
38.32092116286913
 20
53.34197998046875
 10
38.32192061355272
 20
53.34197998046875
 10
38.32292006423631
 20
53.34197998046875
 10
38.32192061355272
 20
53.34197998046875
 10
38.32292006423631
 20
53.34197998046875
 10
38.32292006423631
 20
53.34197998046875
 10
38.32292006423631
 20
53.34197998046875
 10
38.32292006423631
 20
53.34197998046875
 10
38.33891890456835
 20
53.34197998046875
 10
38.35592101028124
 20
53.34298706054688
 10
38.37191985061327
 20
53.343994140625
 10
38.4039213459746
 20
53.34600830078125
 10
38.43091795852342
 20
53.36300659179688
 10
38.46092055251756
 20
53.36798095703125
 10
38.51392195632616
 20
53.37997436523438
 10
38.5649206440703
 20
53.38897705078125
 10
38.61392043044725
 20
53.41098022460938
 10
38.64991972854295
 20
53.427978515625
 10
38.6799223225371
 20
53.45098876953125
 10
38.71192000320116
 20
53.47299194335938
 10
38.75391982009569
 20
53.5
 10
38.79292128493944
 20
53.52798461914062
 10
38.82692168166795
 20
53.56298828125
 10
38.85492155959764
 20
53.59197998046875
 10
38.87592146804491
 20
53.625
 10
38.89792082717577
 20
53.65899658203125
 10
38.92492125442186
 20
53.69900512695312
 10
38.95092223098436
 20
53.73800659179688
 10
38.96891997268358
 20
53.78399658203125
 10
38.9859182636992
 20
53.822998046875
 10
38.99291823318163
 20
53.86398315429688
 10
39.0019209187285
 20
53.906005859375
 10
39.00892088821092
 20
53.93801879882812
 10
39.02491972854295
 20
53.96600341796875
 10
39.02692244460741
 20
54.0
 10
39.02692244460741
 20
54.0
 10
41.38092253616014
 20
86.80899047851562
 10
41.38092253616014
 20
86.80899047851562
 10
43.08592436721483
 20
91.81997680664062
 10
43.96392271926561
 20
94.44099426269531
 10
44.36992094924608
 20
95.85598754882812
 10
44.36992094924608
 20
95.85598754882812
 10
47.23991988113085
 20
93.07498168945312
 10
47.23991988113085
 20
93.07498168945312
 10
47.37391875198045
 20
92.94497680664062
 10
47.55092070510545
 20
92.87496948242188
 10
47.73291991164842
 20
92.87496948242188
 10
47.78391859939256
 20
92.87496948242188
 10
47.83492110183397
 20
92.8809814453125
 10
47.88392088821092
 20
92.8919677734375
 10
47.88392088821092
 20
92.8919677734375
 10
72.17291853835741
 20
98.21797180175781
 10
72.17291853835741
 20
98.21797180175781
 10
72.45291731765428
 20
98.27996826171875
 10
72.66892073562303
 20
98.50396728515625
 10
72.71891615798631
 20
98.78596496582031
 10
72.77192519118944
 20
99.06895446777344
 10
72.64692519118944
 20
99.35395812988281
 10
72.40492842605272
 20
99.50794982910156
 97
        0
 97
        0
 92
        1
 93
        1
 72
     4
 94
        3
 73
     0
 74
     1
 95
       20
 96
       16
 40
0.0
 40
0.0
 40
0.0
 40
0.0
 40
1.0
 40
1.0
 40
1.0
 40
2.0
 40
2.0
 40
2.0
 40
3.0
 40
3.0
 40
3.0
 40
4.0
 40
4.0
 40
4.0
 40
5.0
 40
5.0
 40
5.0
 40
5.0
 10
56.31492445876756
 20
103.074951171875
 10
56.31492445876756
 20
103.074951171875
 10
50.00092528274217
 20
103.074951171875
 10
50.00092528274217
 20
103.074951171875
 10
52.12992690017381
 20
104.3999481201172
 10
56.13992140700975
 20
106.9629516601562
 10
63.81592390945116
 20
111.9319458007812
 10
63.81592390945116
 20
111.9319458007812
 10
63.96792433669725
 20
111.9959411621094
 10
63.96792433669725
 20
111.9959411621094
 10
63.96792433669725
 20
111.9959411621094
 10
69.027921895291
 20
110.9159393310547
 10
69.027921895291
 20
110.9159393310547
 10
69.027921895291
 20
110.9159393310547
 10
56.31492445876756
 20
103.074951171875
 10
56.31492445876756
 20
103.074951171875
 97
        0
 97
        0
 92
        1
 93
        1
 72
     4
 94
        3
 73
     0
 74
     1
 95
       14
 96
       10
 40
0.0
 40
0.0
 40
0.0
 40
0.0
 40
1.0
 40
1.0
 40
1.0
 40
2.0
 40
2.0
 40
2.0
 40
3.0
 40
3.0
 40
3.0
 40
3.0
 10
43.07292769363085
 20
103.074951171875
 10
43.07292769363085
 20
103.074951171875
 10
56.07792494704881
 20
108.6279449462891
 10
56.07792494704881
 20
108.6279449462891
 10
51.84992430617967
 20
105.9129486083984
 10
47.99992583205858
 20
103.4629516601562
 10
47.2929250996367
 20
103.074951171875
 10
47.2929250996367
 20
103.074951171875
 10
43.07292769363085
 20
103.074951171875
 10
43.07292769363085
 20
103.074951171875
 97
        0
 97
        0
 92
        1
 93
        1
 72
     4
 94
        3
 73
     0
 74
     1
 95
       14
 96
       10
 40
0.0
 40
0.0
 40
0.0
 40
0.0
 40
1.0
 40
1.0
 40
1.0
 40
2.0
 40
2.0
 40
2.0
 40
3.0
 40
3.0
 40
3.0
 40
3.0
 10
29.35192702224413
 20
103.074951171875
 10
28.64392683913866
 20
103.4629516601562
 10
24.79392836501756
 20
105.9129486083984
 10
20.56692717483202
 20
108.6279449462891
 10
20.56692717483202
 20
108.6279449462891
 10
33.57192824294725
 20
103.074951171875
 10
33.57192824294725
 20
103.074951171875
 10
33.57192824294725
 20
103.074951171875
 10
29.35192702224413
 20
103.074951171875
 10
29.35192702224413
 20
103.074951171875
 97
        0
 97
        0
 92
        1
 93
        6
 72
     1
 10
35.70692656448045
 20
107.6369476318359
 11
38.32192824294725
 21
107.6369476318359
 72
     1
 10
38.32192824294725
 20
107.6369476318359
 11
40.93792937209764
 21
107.6369476318359
 72
     1
 10
40.93792937209764
 20
107.6369476318359
 11
41.7989294331328
 21
105.8529510498047
 72
     1
 10
41.7989294331328
 20
105.8529510498047
 11
38.32192824294725
 21
103.2509613037109
 72
     1
 10
38.32192824294725
 20
103.2509613037109
 11
34.8449270527617
 21
105.8539581298828
 72
     1
 10
34.8449270527617
 20
105.8539581298828
 11
35.70692656448045
 21
107.6369476318359
 97
        0
 92
        1
 93
        1
 72
     4
 94
        3
 73
     0
 74
     1
 95
       20
 96
       16
 40
0.0
 40
0.0
 40
0.0
 40
0.0
 40
1.0
 40
1.0
 40
1.0
 40
2.0
 40
2.0
 40
2.0
 40
3.0
 40
3.0
 40
3.0
 40
4.0
 40
4.0
 40
4.0
 40
5.0
 40
5.0
 40
5.0
 40
5.0
 10
7.615928868557603
 20
110.9169616699219
 10
7.615928868557603
 20
110.9169616699219
 10
12.67592833449999
 20
111.9969635009766
 10
12.67592833449999
 20
111.9969635009766
 10
12.67592833449999
 20
111.9969635009766
 10
12.82792876174608
 20
111.9329681396484
 10
12.82792876174608
 20
111.9329681396484
 10
20.50492690017381
 20
106.9629669189453
 10
24.51392958572069
 20
104.4009704589844
 10
26.64292738845506
 20
103.0759735107422
 10
26.64292738845506
 20
103.0759735107422
 10
20.32892821242967
 20
103.0759735107422
 10
20.32892821242967
 20
103.0759735107422
 10
20.32892821242967
 20
103.0759735107422
 10
7.615928868557603
 20
110.9169616699219
 10
7.615928868557603
 20
110.9169616699219
 97
        0
 97
        0
 92
        1
 93
        1
 72
     4
 94
        3
 73
     0
 74
     1
 95
       26
 96
       22
 40
0.0
 40
0.0
 40
0.0
 40
0.0
 40
1.0
 40
1.0
 40
1.0
 40
2.0
 40
2.0
 40
2.0
 40
3.0
 40
3.0
 40
3.0
 40
4.0
 40
4.0
 40
4.0
 40
5.0
 40
5.0
 40
5.0
 40
6.0
 40
6.0
 40
6.0
 40
7.0
 40
7.0
 40
7.0
 40
7.0
 10
28.68892882278124
 20
94.35795593261719
 10
28.68892882278124
 20
94.35795593261719
 10
6.446928242947251
 20
99.2359619140625
 10
6.446928242947251
 20
99.2359619140625
 10
6.446928242947251
 20
99.2359619140625
 10
10.24392912795702
 20
101.6569671630859
 10
10.24392912795702
 20
101.6569671630859
 10
10.24392912795702
 20
101.6569671630859
 10
36.22192976882616
 20
101.6569671630859
 10
36.22192976882616
 20
101.6569671630859
 10
36.22192976882616
 20
101.6569671630859
 10
32.16792891433397
 20
97.72897338867188
 10
32.16792891433397
 20
97.72897338867188
 10
32.16593001296678
 20
97.72697448730469
 10
32.16292784621874
 20
97.72596740722656
 10
32.16092894485155
 20
97.72396850585938
 10
32.14192793777147
 20
97.70497131347656
 10
32.12492964675585
 20
97.68797302246094
 10
32.10792754104295
 20
97.66996765136719
 10
32.10792754104295
 20
97.66996765136719
 10
28.68892882278124
 20
94.35795593261719
 10
28.68892882278124
 20
94.35795593261719
 97
        0
 97
        0
 92
        1
 93
        1
 72
     4
 94
        3
 73
     0
 74
     1
 95
       17
 96
       13
 40
0.0
 40
0.0
 40
0.0
 40
0.0
 40
1.0
 40
1.0
 40
1.0
 40
2.0
 40
2.0
 40
2.0
 40
3.0
 40
3.0
 40
3.0
 40
4.0
 40
4.0
 40
4.0
 40
4.0
 10
37.61392805984178
 20
101.032958984375
 10
37.61392805984178
 20
101.032958984375
 10
37.61392805984178
 20
88.4029541015625
 10
37.61392805984178
 20
88.4029541015625
 10
37.61392805984178
 20
88.4029541015625
 10
36.38992903640428
 20
87.89596557617188
 10
36.38992903640428
 20
87.89596557617188
 10
35.28592894485155
 20
91.15496826171875
 10
33.76792738845506
 20
95.72196960449219
 10
33.42692778518358
 20
96.97496032714844
 10
33.42692778518358
 20
96.97496032714844
 10
37.61392805984178
 20
101.032958984375
 10
37.61392805984178
 20
101.032958984375
 97
        0
 97
        0
 92
        1
 93
        4
 72
     1
 10
36.70492766311327
 20
86.491943359375
 11
38.32192824294725
 21
87.16094970703125
 72
     1
 10
38.32192824294725
 20
87.16094970703125
 11
39.93892882278124
 21
86.491943359375
 72
     1
 10
39.93892882278124
 20
86.491943359375
 11
38.32192824294725
 21
63.95794677734375
 72
     1
 10
38.32192824294725
 20
63.95794677734375
 11
36.70492766311327
 21
86.491943359375
 97
        0
 92
        1
 93
        1
 72
     4
 94
        3
 73
     0
 74
     1
 95
       17
 96
       13
 40
0.0
 40
0.0
 40
0.0
 40
0.0
 40
1.0
 40
1.0
 40
1.0
 40
2.0
 40
2.0
 40
2.0
 40
3.0
 40
3.0
 40
3.0
 40
4.0
 40
4.0
 40
4.0
 40
4.0
 10
40.25492690017381
 20
87.89596557617188
 10
40.25492690017381
 20
87.89596557617188
 10
39.03092787673631
 20
88.4019775390625
 10
39.03092787673631
 20
88.4019775390625
 10
39.03092787673631
 20
88.4019775390625
 10
39.03092787673631
 20
101.0329742431641
 10
39.03092787673631
 20
101.0329742431641
 10
39.03092787673631
 20
101.0329742431641
 10
43.21892760207811
 20
96.9749755859375
 10
43.21892760207811
 20
96.9749755859375
 10
42.87692854812303
 20
95.72296142578125
 10
41.35792754104295
 20
91.15496826171875
 10
40.25492690017381
 20
87.89596557617188
 97
        0
 97
        0
 92
        1
 93
        1
 72
     4
 94
        3
 73
     0
 74
     1
 95
       26
 96
       22
 40
0.0
 40
0.0
 40
0.0
 40
0.0
 40
1.0
 40
1.0
 40
1.0
 40
2.0
 40
2.0
 40
2.0
 40
3.0
 40
3.0
 40
3.0
 40
4.0
 40
4.0
 40
4.0
 40
5.0
 40
5.0
 40
5.0
 40
6.0
 40
6.0
 40
6.0
 40
7.0
 40
7.0
 40
7.0
 40
7.0
 10
47.95492766311327
 20
94.35795593261719
 10
47.95492766311327
 20
94.35795593261719
 10
44.5329267781035
 20
97.6739501953125
 10
44.5329267781035
 20
97.6739501953125
 10
44.51692793777147
 20
97.69094848632812
 10
44.49992583205858
 20
97.70695495605469
 10
44.48192809035936
 20
97.72494506835938
 10
44.47992918899217
 20
97.72694396972656
 10
44.47792647292772
 20
97.72694396972656
 10
44.47692702224413
 20
97.72795104980469
 10
44.47692702224413
 20
97.72795104980469
 10
40.42292616775194
 20
101.6569519042969
 10
40.42292616775194
 20
101.6569519042969
 10
40.42292616775194
 20
101.6569519042969
 10
66.39892409255663
 20
101.6569519042969
 10
66.39892409255663
 20
101.6569519042969
 10
66.39892409255663
 20
101.6569519042969
 10
70.19692061355272
 20
99.23594665527344
 10
70.19692061355272
 20
99.23594665527344
 10
70.19692061355272
 20
99.23594665527344
 10
47.95492766311327
 20
94.35795593261719
 10
47.95492766311327
 20
94.35795593261719
 97
        0
 97
        0
 75
     2
 76
     1
 98
        0
  0
ENDSEC
  0
SECTION
  2
OBJECTS
  0
DICTIONARY
  5
C
330
0
100
AcDbDictionary
281
     1
  3
ACAD_GROUP
350
D
  3
ACAD_LAYOUT
350
1A
  3
ACAD_MATERIAL
350
3B
  3
ACAD_MLEADERSTYLE
350
5C
  3
ACAD_MLINESTYLE
350
17
  3
ACAD_PLOTSETTINGS
350
19
  3
ACAD_PLOTSTYLENAME
350
E
  3
ACAD_TABLESTYLE
350
5B
  3
ACAD_VISUALSTYLE
350
2A
  0
SUN
  5
3F
330
29
100
AcDbSun
 90
        1
290
     0
 63
     7
421
 16777215
 40
1.0
291
     1
 91
  2455826
 92
 54000000
292
     0
 70
     2
 71
   256
280
     1
  0
DICTIONARY
  5
D
102
{ACAD_REACTORS
330
C
102
}
330
C
100
AcDbDictionary
281
     1
  0
DICTIONARY
  5
1A
102
{ACAD_REACTORS
330
C
102
}
330
C
100
AcDbDictionary
281
     1
  3
Layout1
350
1E
  3
Layout2
350
26
  3
Model
350
22
  0
DICTIONARY
  5
3B
102
{ACAD_REACTORS
330
C
102
}
330
C
100
AcDbDictionary
281
     1
  3
ByBlock
350
3D
  3
ByLayer
350
3C
  3
Global
350
3E
  0
DICTIONARY
  5
5C
102
{ACAD_REACTORS
330
C
102
}
330
C
100
AcDbDictionary
281
     1
  0
DICTIONARY
  5
17
102
{ACAD_REACTORS
330
C
102
}
330
C
100
AcDbDictionary
281
     1
  3
Standard
350
18
  0
DICTIONARY
  5
19
102
{ACAD_REACTORS
330
C
102
}
330
C
100
AcDbDictionary
281
     1
  0
ACDBDICTIONARYWDFLT
  5
E
102
{ACAD_REACTORS
330
C
102
}
330
C
100
AcDbDictionary
281
     1
  3
Normal
350
F
100
AcDbDictionaryWithDefault
340
F
  0
DICTIONARY
  5
5B
102
{ACAD_REACTORS
330
C
102
}
330
C
100
AcDbDictionary
281
     1
  0
DICTIONARY
  5
2A
102
{ACAD_REACTORS
330
C
102
}
330
C
100
AcDbDictionary
281
     1
  3
2dWireframe
350
2F
  3
3D Hidden
350
31
  3
3dWireframe
350
30
  3
Basic
350
32
  3
Brighten
350
36
  3
ColorChange
350
3A
  3
Conceptual
350
34
  3
Dim
350
35
  3
Facepattern
350
39
  3
Flat
350
2B
  3
FlatWithEdges
350
2C
  3
Gouraud
350
2D
  3
GouraudWithEdges
350
2E
  3
Linepattern
350
38
  3
Realistic
350
33
  3
Thicken
350
37
  0
LAYOUT
  5
1E
102
{ACAD_REACTORS
330
1A
102
}
330
1A
100
AcDbPlotSettings
  1

  2
none_device
  4

  6

 40
0.0
 41
0.0
 42
0.0
 43
0.0
 44
0.0
 45
0.0
 46
0.0
 47
0.0
 48
0.0
 49
0.0
140
0.0
141
0.0
142
1.0
143
1.0
 70
   688
 72
     0
 73
     0
 74
     5
  7

 75
    16
 76
     0
 77
     2
 78
   300
147
1.0
148
0.0
149
0.0
100
AcDbLayout
  1
Layout1
 70
     1
 71
     1
 10
0.0
 20
0.0
 11
12.0
 21
9.0
 12
0.0
 22
0.0
 32
0.0
 14
1.000000000000000E+20
 24
1.000000000000000E+20
 34
1.000000000000000E+20
 15
-1.000000000000000E+20
 25
-1.000000000000000E+20
 35
-1.000000000000000E+20
146
0.0
 13
0.0
 23
0.0
 33
0.0
 16
1.0
 26
0.0
 36
0.0
 17
0.0
 27
1.0
 37
0.0
 76
     0
330
1B
  0
LAYOUT
  5
26
102
{ACAD_REACTORS
330
1A
102
}
330
1A
100
AcDbPlotSettings
  1

  2
none_device
  4

  6

 40
0.0
 41
0.0
 42
0.0
 43
0.0
 44
0.0
 45
0.0
 46
0.0
 47
0.0
 48
0.0
 49
0.0
140
0.0
141
0.0
142
1.0
143
1.0
 70
   688
 72
     0
 73
     0
 74
     5
  7

 75
    16
 76
     0
 77
     2
 78
   300
147
1.0
148
0.0
149
0.0
100
AcDbLayout
  1
Layout2
 70
     1
 71
     2
 10
0.0
 20
0.0
 11
0.0
 21
0.0
 12
0.0
 22
0.0
 32
0.0
 14
0.0
 24
0.0
 34
0.0
 15
0.0
 25
0.0
 35
0.0
146
0.0
 13
0.0
 23
0.0
 33
0.0
 16
1.0
 26
0.0
 36
0.0
 17
0.0
 27
1.0
 37
0.0
 76
     0
330
23
  0
LAYOUT
  5
22
102
{ACAD_REACTORS
330
1A
102
}
330
1A
100
AcDbPlotSettings
  1

  2
none_device
  4

  6

 40
0.0
 41
0.0
 42
0.0
 43
0.0
 44
0.0
 45
0.0
 46
0.0
 47
0.0
 48
0.0
 49
0.0
140
0.0
141
0.0
142
1.0
143
1.0
 70
  1712
 72
     0
 73
     0
 74
     0
  7

 75
     0
 76
     0
 77
     2
 78
   300
147
1.0
148
0.0
149
0.0
100
AcDbLayout
  1
Model
 70
     1
 71
     0
 10
0.0
 20
0.0
 11
12.0
 21
9.0
 12
0.0
 22
0.0
 32
0.0
 14
1.000000000000000E+20
 24
1.000000000000000E+20
 34
1.000000000000000E+20
 15
-1.000000000000000E+20
 25
-1.000000000000000E+20
 35
-1.000000000000000E+20
146
0.0
 13
0.0
 23
0.0
 33
0.0
 16
1.0
 26
0.0
 36
0.0
 17
0.0
 27
1.0
 37
0.0
 76
     0
330
1F
331
29
  0
MATERIAL
  5
3D
102
{ACAD_REACTORS
330
3B
102
}
330
3B
100
AcDbMaterial
  1
ByBlock
 72
     1
 94
      127
  0
MATERIAL
  5
3C
102
{ACAD_REACTORS
330
3B
102
}
330
3B
100
AcDbMaterial
  1
ByLayer
 72
     1
 94
      127
  0
MATERIAL
  5
3E
102
{ACAD_REACTORS
330
3B
102
}
330
3B
100
AcDbMaterial
  1
Global
 72
     1
 94
      127
  0
MLINESTYLE
  5
18
102
{ACAD_REACTORS
330
17
102
}
330
17
100
AcDbMlineStyle
  2
Standard
 70
     0
  3

 62
   256
 51
90.0
 52
90.0
 71
     2
 49
0.5
 62
   256
  6
BYLAYER
 49
-0.5
 62
   256
  6
BYLAYER
  0
ACDBPLACEHOLDER
  5
F
102
{ACAD_REACTORS
330
E
102
}
330
E
  0
VISUALSTYLE
  5
2F
102
{ACAD_REACTORS
330
2A
102
}
330
2A
100
AcDbVisualStyle
  2
2dWireframe
 70
     4
177
     2
291
     0
 71
     0
176
     1
 72
     2
176
     1
 73
     0
176
     1
 90
        0
176
     1
 40
-0.6
176
     1
 41
-30.0
176
     1
 62
     5
 63
     7
421
 16777215
176
     1
 74
     1
176
     1
 91
        4
176
     1
 64
     7
176
     1
 65
   257
176
     1
 75
     1
176
     1
175
     1
176
     1
 42
1.0
176
     1
 92
        0
176
     1
 66
   257
176
     1
 43
1.0
176
     1
 76
     1
176
     1
 77
     6
176
     1
 78
     2
176
     1
 67
     7
176
     1
 79
     5
176
     1
170
     0
176
     1
171
     0
176
     1
290
     0
176
     1
 93
        1
176
     1
 44
0.0
176
     1
173
     0
176
     1
  0
VISUALSTYLE
  5
31
102
{ACAD_REACTORS
330
2A
102
}
330
2A
100
AcDbVisualStyle
  2
3D Hidden
 70
     6
177
     2
291
     0
 71
     1
176
     1
 72
     2
176
     1
 73
     2
176
     1
 90
        0
176
     1
 40
-0.6
176
     1
 41
-30.0
176
     1
 62
     5
 63
     7
421
 16777215
176
     1
 74
     2
176
     1
 91
        2
176
     1
 64
     7
176
     1
 65
   257
176
     1
 75
     2
176
     1
175
     1
176
     1
 42
40.0
176
     1
 92
        0
176
     1
 66
   257
176
     1
 43
1.0
176
     1
 76
     1
176
     1
 77
     6
176
     1
 78
     2
176
     1
 67
     7
176
     1
 79
     3
176
     1
170
     0
176
     1
171
     0
176
     1
290
     0
176
     1
 93
        1
176
     1
 44
0.0
176
     1
173
     0
176
     1
  0
VISUALSTYLE
  5
30
102
{ACAD_REACTORS
330
2A
102
}
330
2A
100
AcDbVisualStyle
  2
3dWireframe
 70
     5
177
     2
291
     0
 71
     0
176
     1
 72
     2
176
     1
 73
     0
176
     1
 90
        0
176
     1
 40
-0.6
176
     1
 41
-30.0
176
     1
 62
     5
 63
     7
421
 16777215
176
     1
 74
     1
176
     1
 91
        4
176
     1
 64
     7
176
     1
 65
   257
176
     1
 75
     1
176
     1
175
     1
176
     1
 42
1.0
176
     1
 92
        0
176
     1
 66
   257
176
     1
 43
1.0
176
     1
 76
     1
176
     1
 77
     6
176
     1
 78
     2
176
     1
 67
     7
176
     1
 79
     5
176
     1
170
     0
176
     1
171
     0
176
     1
290
     0
176
     1
 93
        1
176
     1
 44
0.0
176
     1
173
     0
176
     1
  0
VISUALSTYLE
  5
32
102
{ACAD_REACTORS
330
2A
102
}
330
2A
100
AcDbVisualStyle
  2
Basic
 70
     7
177
     2
291
     1
 71
     1
176
     1
 72
     0
176
     1
 73
     1
176
     1
 90
        0
176
     1
 40
-0.6
176
     1
 41
-30.0
176
     1
 62
     5
 63
     7
421
 16777215
176
     1
 74
     0
176
     1
 91
        4
176
     1
 64
     7
176
     1
 65
   257
176
     1
 75
     1
176
     1
175
     1
176
     1
 42
1.0
176
     1
 92
        8
176
     1
 66
     7
176
     1
 43
1.0
176
     1
 76
     1
176
     1
 77
     6
176
     1
 78
     2
176
     1
 67
     7
176
     1
 79
     5
176
     1
170
     0
176
     1
171
     0
176
     1
290
     0
176
     1
 93
        1
176
     1
 44
0.0
176
     1
173
     0
176
     1
  0
VISUALSTYLE
  5
36
102
{ACAD_REACTORS
330
2A
102
}
330
2A
100
AcDbVisualStyle
  2
Brighten
 70
    12
177
     2
291
     1
 71
     2
176
     1
 72
     2
176
     1
 73
     0
176
     1
 90
        0
176
     1
 40
-0.6
176
     1
 41
-30.0
176
     1
 62
     5
 63
     7
421
 16777215
176
     1
 74
     1
176
     1
 91
        4
176
     1
 64
     7
176
     1
 65
   257
176
     1
 75
     1
176
     1
175
     1
176
     1
 42
1.0
176
     1
 92
        8
176
     1
 66
     7
176
     1
 43
1.0
176
     1
 76
     1
176
     1
 77
     6
176
     1
 78
     2
176
     1
 67
     7
176
     1
 79
     5
176
     1
170
     0
176
     1
171
     0
176
     1
290
     0
176
     1
 93
        1
176
     1
 44
50.0
176
     1
173
     0
176
     1
  0
VISUALSTYLE
  5
3A
102
{ACAD_REACTORS
330
2A
102
}
330
2A
100
AcDbVisualStyle
  2
ColorChange
 70
    16
177
     2
291
     1
 71
     2
176
     1
 72
     2
176
     1
 73
     3
176
     1
 90
        0
176
     1
 40
-0.6
176
     1
 41
-30.0
176
     1
 62
     5
 63
     8
421
  8421504
176
     1
 74
     1
176
     1
 91
        4
176
     1
 64
     7
176
     1
 65
   257
176
     1
 75
     1
176
     1
175
     1
176
     1
 42
1.0
176
     1
 92
        8
176
     1
 66
     8
424
  8421504
176
     1
 43
1.0
176
     1
 76
     1
176
     1
 77
     6
176
     1
 78
     2
176
     1
 67
     7
176
     1
 79
     5
176
     1
170
     0
176
     1
171
     0
176
     1
290
     0
176
     1
 93
        1
176
     1
 44
0.0
176
     1
173
     0
176
     1
  0
VISUALSTYLE
  5
34
102
{ACAD_REACTORS
330
2A
102
}
330
2A
100
AcDbVisualStyle
  2
Conceptual
 70
     9
177
     2
291
     0
 71
     3
176
     1
 72
     2
176
     1
 73
     0
176
     1
 90
        0
176
     1
 40
-0.6
176
     1
 41
-30.0
176
     1
 62
     5
 63
     7
421
 16777215
176
     1
 74
     2
176
     1
 91
        2
176
     1
 64
     7
176
     1
 65
   257
176
     1
 75
     1
176
     1
175
     1
176
     1
 42
40.0
176
     1
 92
        8
176
     1
 66
     7
176
     1
 43
1.0
176
     1
 76
     1
176
     1
 77
     6
176
     1
 78
     2
176
     1
 67
     7
176
     1
 79
     3
176
     1
170
     0
176
     1
171
     0
176
     1
290
     0
176
     1
 93
        1
176
     1
 44
0.0
176
     1
173
     0
176
     1
  0
VISUALSTYLE
  5
35
102
{ACAD_REACTORS
330
2A
102
}
330
2A
100
AcDbVisualStyle
  2
Dim
 70
    11
177
     2
291
     1
 71
     2
176
     1
 72
     2
176
     1
 73
     0
176
     1
 90
        0
176
     1
 40
-0.6
176
     1
 41
-30.0
176
     1
 62
     5
 63
     7
421
 16777215
176
     1
 74
     1
176
     1
 91
        4
176
     1
 64
     7
176
     1
 65
   257
176
     1
 75
     1
176
     1
175
     1
176
     1
 42
1.0
176
     1
 92
        8
176
     1
 66
     7
176
     1
 43
1.0
176
     1
 76
     1
176
     1
 77
     6
176
     1
 78
     2
176
     1
 67
     7
176
     1
 79
     5
176
     1
170
     0
176
     1
171
     0
176
     1
290
     0
176
     1
 93
        1
176
     1
 44
-50.0
176
     1
173
     0
176
     1
  0
VISUALSTYLE
  5
39
102
{ACAD_REACTORS
330
2A
102
}
330
2A
100
AcDbVisualStyle
  2
Facepattern
 70
    15
177
     2
291
     1
 71
     2
176
     1
 72
     2
176
     1
 73
     0
176
     1
 90
        0
176
     1
 40
-0.6
176
     1
 41
-30.0
176
     1
 62
     5
 63
     7
421
 16777215
176
     1
 74
     1
176
     1
 91
        4
176
     1
 64
     7
176
     1
 65
   257
176
     1
 75
     1
176
     1
175
     1
176
     1
 42
1.0
176
     1
 92
        8
176
     1
 66
     7
176
     1
 43
1.0
176
     1
 76
     1
176
     1
 77
     6
176
     1
 78
     2
176
     1
 67
     7
176
     1
 79
     5
176
     1
170
     0
176
     1
171
     0
176
     1
290
     0
176
     1
 93
        1
176
     1
 44
0.0
176
     1
173
     0
176
     1
  0
VISUALSTYLE
  5
2B
102
{ACAD_REACTORS
330
2A
102
}
330
2A
100
AcDbVisualStyle
  2
Flat
 70
     0
177
     2
291
     1
 71
     2
176
     1
 72
     1
176
     1
 73
     1
176
     1
 90
        2
176
     1
 40
-0.6
176
     1
 41
30.0
176
     1
 62
     5
 63
     7
421
 16777215
176
     1
 74
     0
176
     1
 91
        4
176
     1
 64
     7
176
     1
 65
   257
176
     1
 75
     1
176
     1
175
     1
176
     1
 42
1.0
176
     1
 92
        8
176
     1
 66
     7
176
     1
 43
1.0
176
     1
 76
     1
176
     1
 77
     6
176
     1
 78
     2
176
     1
 67
     7
176
     1
 79
     5
176
     1
170
     0
176
     1
171
     0
176
     1
290
     0
176
     1
 93
       13
176
     1
 44
0.0
176
     1
173
     0
176
     1
  0
VISUALSTYLE
  5
2C
102
{ACAD_REACTORS
330
2A
102
}
330
2A
100
AcDbVisualStyle
  2
FlatWithEdges
 70
     1
177
     2
291
     1
 71
     2
176
     1
 72
     1
176
     1
 73
     1
176
     1
 90
        2
176
     1
 40
-0.6
176
     1
 41
30.0
176
     1
 62
     5
 63
     7
421
 16777215
176
     1
 74
     1
176
     1
 91
        4
176
     1
 64
     7
176
     1
 65
   257
176
     1
 75
     1
176
     1
175
     1
176
     1
 42
1.0
176
     1
 92
        0
176
     1
 66
   257
176
     1
 43
1.0
176
     1
 76
     1
176
     1
 77
     6
176
     1
 78
     2
176
     1
 67
     7
176
     1
 79
     5
176
     1
170
     0
176
     1
171
     0
176
     1
290
     0
176
     1
 93
       13
176
     1
 44
0.0
176
     1
173
     0
176
     1
  0
VISUALSTYLE
  5
2D
102
{ACAD_REACTORS
330
2A
102
}
330
2A
100
AcDbVisualStyle
  2
Gouraud
 70
     2
177
     2
291
     1
 71
     2
176
     1
 72
     2
176
     1
 73
     1
176
     1
 90
        2
176
     1
 40
-0.6
176
     1
 41
30.0
176
     1
 62
     5
 63
     7
421
 16777215
176
     1
 74
     0
176
     1
 91
        4
176
     1
 64
     7
176
     1
 65
   257
176
     1
 75
     1
176
     1
175
     1
176
     1
 42
1.0
176
     1
 92
        0
176
     1
 66
     7
176
     1
 43
1.0
176
     1
 76
     1
176
     1
 77
     6
176
     1
 78
     2
176
     1
 67
     7
176
     1
 79
     5
176
     1
170
     0
176
     1
171
     0
176
     1
290
     0
176
     1
 93
       13
176
     1
 44
0.0
176
     1
173
     0
176
     1
  0
VISUALSTYLE
  5
2E
102
{ACAD_REACTORS
330
2A
102
}
330
2A
100
AcDbVisualStyle
  2
GouraudWithEdges
 70
     3
177
     2
291
     1
 71
     2
176
     1
 72
     2
176
     1
 73
     1
176
     1
 90
        2
176
     1
 40
-0.6
176
     1
 41
30.0
176
     1
 62
     5
 63
     7
421
 16777215
176
     1
 74
     1
176
     1
 91
        4
176
     1
 64
     7
176
     1
 65
   257
176
     1
 75
     1
176
     1
175
     1
176
     1
 42
1.0
176
     1
 92
        0
176
     1
 66
   257
176
     1
 43
1.0
176
     1
 76
     1
176
     1
 77
     6
176
     1
 78
     2
176
     1
 67
     7
176
     1
 79
     5
176
     1
170
     0
176
     1
171
     0
176
     1
290
     0
176
     1
 93
       13
176
     1
 44
0.0
176
     1
173
     0
176
     1
  0
VISUALSTYLE
  5
38
102
{ACAD_REACTORS
330
2A
102
}
330
2A
100
AcDbVisualStyle
  2
Linepattern
 70
    14
177
     2
291
     1
 71
     2
176
     1
 72
     2
176
     1
 73
     0
176
     1
 90
        0
176
     1
 40
-0.6
176
     1
 41
-30.0
176
     1
 62
     5
 63
     7
421
 16777215
176
     1
 74
     1
176
     1
 91
        4
176
     1
 64
     7
176
     1
 65
   257
176
     1
 75
     7
176
     1
175
     7
176
     1
 42
1.0
176
     1
 92
        8
176
     1
 66
     7
176
     1
 43
1.0
176
     1
 76
     1
176
     1
 77
     6
176
     1
 78
     2
176
     1
 67
     7
176
     1
 79
     5
176
     1
170
     0
176
     1
171
     0
176
     1
290
     0
176
     1
 93
        1
176
     1
 44
0.0
176
     1
173
     0
176
     1
  0
VISUALSTYLE
  5
33
102
{ACAD_REACTORS
330
2A
102
}
330
2A
100
AcDbVisualStyle
  2
Realistic
 70
     8
177
     2
291
     0
 71
     2
176
     1
 72
     2
176
     1
 73
     0
176
     1
 90
        0
176
     1
 40
-0.6
176
     1
 41
-30.0
176
     1
 62
     5
 63
     7
421
 16777215
176
     1
 74
     1
176
     1
 91
        0
176
     1
 64
     7
176
     1
 65
   257
176
     1
 75
     1
176
     1
175
     1
176
     1
 42
1.0
176
     1
 92
        8
176
     1
 66
     8
424
  7895160
176
     1
 43
1.0
176
     1
 76
     1
176
     1
 77
     6
176
     1
 78
     2
176
     1
 67
     7
176
     1
 79
     5
176
     1
170
     0
176
     1
171
     0
176
     1
290
     0
176
     1
 93
       13
176
     1
 44
0.0
176
     1
173
     0
176
     1
  0
VISUALSTYLE
  5
37
102
{ACAD_REACTORS
330
2A
102
}
330
2A
100
AcDbVisualStyle
  2
Thicken
 70
    13
177
     2
291
     1
 71
     2
176
     1
 72
     2
176
     1
 73
     0
176
     1
 90
        0
176
     1
 40
-0.6
176
     1
 41
-30.0
176
     1
 62
     5
 63
     7
421
 16777215
176
     1
 74
     1
176
     1
 91
        4
176
     1
 64
     7
176
     1
 65
   257
176
     1
 75
     1
176
     1
175
     1
176
     1
 42
1.0
176
     1
 92
       12
176
     1
 66
     7
176
     1
 43
1.0
176
     1
 76
     1
176
     1
 77
     6
176
     1
 78
     2
176
     1
 67
     7
176
     1
 79
     5
176
     1
170
     0
176
     1
171
     0
176
     1
290
     0
176
     1
 93
        1
176
     1
 44
0.0
176
     1
173
     0
176
     1
  0
ENDSEC
  0
EOF
