<?xml version="1.0" encoding="utf-8"?>
<!-- Generator: Adobe Illustrator 19.2.1, SVG Export Plug-In . SVG Version: 6.00 Build 0)  -->
<svg version="1.1" id="Layer_1" xmlns="http://www.w3.org/2000/svg" xmlns:xlink="http://www.w3.org/1999/xlink" x="0px" y="0px"
	 viewBox="0 0 100 125" style="enable-background:new 0 0 100 125;" xml:space="preserve">
<path d="M72.4,25.5L67,22c-0.1-0.1-0.2-0.1-0.4-0.1H59l12.3-7.6c0.2-0.2,0.4-0.4,0.3-0.7c0-0.3-0.3-0.5-0.6-0.6l-7-1.5
	c-0.1,0-0.3,0-0.4,0l-21.9,9.3l1.4-1c0.3-0.2,0.4-0.6,0.2-0.9L42,16.3c-0.1-0.2-0.4-0.4-0.6-0.4h-3.1h-3.1c-0.3,0-0.5,0.2-0.6,0.4
	l-1.3,2.7c-0.1,0.3-0.1,0.7,0.2,0.9l1.3,1L13,11.6c-0.1-0.1-0.3-0.1-0.4,0l-7,1.5c-0.3,0.1-0.5,0.3-0.5,0.6c0,0.3,0.1,0.6,0.3,0.7
	l12.3,7.6H10c-0.1,0-0.3,0-0.4,0.1l-5.4,3.5c-0.2,0.2-0.4,0.4-0.3,0.7s0.3,0.5,0.5,0.6l24.3,5.3c0,0,0.1,0,0.2,0
	c0.2,0,0.4-0.1,0.5-0.2l2.9-2.8c0.4,1.4,1.3,4,3,9L37.6,71c0,0,0,0.1,0,0.1c0,0,0,0.1,0,0.1c0,0,0,0.1,0.1,0.1c0,0,0,0.1,0.1,0.1
	c0,0,0.1,0.1,0.1,0.1c0,0,0.1,0,0.1,0.1c0,0,0.1,0,0.2,0c0,0,0.1,0,0.1,0c0,0,0,0,0,0l0,0c0,0,0,0,0,0s0,0,0,0l0,0c0,0,0,0,0,0
	c0,0,0.1,0,0.1,0c0.1,0,0.1,0,0.2,0c0,0,0.1,0,0.1-0.1c0,0,0.1-0.1,0.1-0.1c0,0,0-0.1,0.1-0.1c0,0,0.1-0.1,0.1-0.1c0,0,0-0.1,0-0.1
	c0,0,0-0.1,0-0.1l2.4-32.8c1.7-5,2.6-7.6,3-9l2.9,2.8c0.1,0.1,0.3,0.2,0.5,0.2c0.1,0,0.1,0,0.2,0l24.3-5.3c0.3-0.1,0.5-0.3,0.5-0.6
	C72.8,25.9,72.6,25.6,72.4,25.5z M56.3,21.9H50c2.1-1.3,6.1-3.9,13.8-8.9L64,13l5.1,1.1L56.3,21.9z M43.1,21.9l13-5.6
	c-4.2,2.7-8.1,5.2-8.8,5.6H43.1z M29.4,21.9c-0.7-0.4-4.6-2.8-8.8-5.6l13,5.6H29.4z M35.7,17.4h2.6h2.6l0.9,1.8l-3.5,2.6l-3.5-2.6
	L35.7,17.4z M7.6,14.1l5.1-1.1l0.2,0.1c7.7,5,11.7,7.5,13.8,8.9h-6.3L7.6,14.1z M28.7,30.6L6.4,25.8l3.8-2.4h26l-4.1,3.9
	c0,0,0,0,0,0c0,0,0,0-0.1,0.1L28.7,30.6z M37.6,24v12.6l-1.2,0.5c-1.1-3.3-2.6-7.8-3-9.1L37.6,24z M36.7,38.5l1.6-0.7l1.6,0.7
	L38.3,61L36.7,38.5z M40.3,37.1L39,36.6V24l4.2,4.1C42.9,29.3,41.4,33.8,40.3,37.1z M48,30.6l-3.4-3.3c0,0,0,0-0.1-0.1c0,0,0,0,0,0
	l-4.1-3.9h26l3.8,2.4L48,30.6z"/>
</svg>
