<?xml version="1.0" encoding="utf-8"?>
<!-- Generator: Adobe Illustrator 19.2.1, SVG Export Plug-In . SVG Version: 6.00 Build 0)  -->
<svg version="1.1" id="Layer_1" xmlns="http://www.w3.org/2000/svg" xmlns:xlink="http://www.w3.org/1999/xlink" x="0px" y="0px"
	 viewBox="0 0 100 125" style="enable-background:new 0 0 100 125;" xml:space="preserve">
<path d="M87.2,35.3l-7-8.7c0,0,0,0-0.1,0c0,0,0,0,0,0l-11.3-9.7c0,0-0.1,0-0.1,0c0,0-0.1-0.1-0.1-0.1c0,0-0.1,0-0.1,0
	c0,0-0.1,0-0.1,0L53.6,16l-0.3-1.2c0-0.2-0.1-0.3-0.3-0.4L40.9,5.9c-0.2-0.2-0.5-0.2-0.7-0.1l-16.4,8.4c-0.2,0.1-0.3,0.3-0.4,0.5
	L21.8,25l-9.6-3.8l0,0l0,0c-0.1,0-0.2,0-0.3,0l0,0H5.7c-0.4,0-0.7,0.3-0.7,0.7v5.9c0,0.4,0.3,0.7,0.7,0.7h2.7l10.7,14.2c0,0,0,0,0,0
	c0,0,0,0,0,0c0.1,0.1,0.1,0.1,0.2,0.1c0,0,0,0,0,0c0.1,0,0.2,0.1,0.3,0.1l15.7,0.2l1.6,4.9l2.7,10.6L36,75c0,0.2,0,0.4,0.1,0.6
	c0.1,0.2,0.3,0.3,0.6,0.3h10c0.2,0,0.4-0.1,0.5-0.2l10.7-10.4L67,75.6c0.1,0.1,0.1,0.1,0.2,0.1c0,0,0,0,0,0c0.1,0,0.2,0.1,0.3,0.1
	h12c0.2,0,0.4-0.1,0.5-0.2c0.1-0.1,0.2-0.3,0.2-0.5l-0.9-30.8l0.4-6.9l7-1c0.3,0,0.5-0.2,0.6-0.4S87.4,35.5,87.2,35.3z M6.4,22.5
	h4.4L8.5,27H6.4L6.4,22.5L6.4,22.5z M12.3,22.7l9.3,3.7l-2.3,14.1L9.7,27.8L12.3,22.7z M24.7,15.4l15.7-8.1L52,15.4l2.3,8.8
	L35.7,41.8l-15.1-0.2L24.7,15.4z M55.4,25.1L65.5,25l5.2,6.9l-4.2,16.6l-28.2-1.2l-1.5-4.6L55.4,25.1z M46.4,74.5h-8.8l3.6-15.6
	c0-0.1,0-0.2,0-0.3l-2.5-9.9l28.3,1.2c0,0,0,0,0,0c0.3,0,0.6-0.2,0.7-0.5l4.4-17.5c0.1-0.2,0-0.4-0.1-0.6l-5.6-7.5
	c-0.1-0.2-0.4-0.3-0.6-0.3l-10.2,0.2L54,17.4L68.1,18l10.8,9.3l-1,16.7L46.4,74.5z M77.9,45.9l0.6,19.1l-10.9,9.1l-8.7-9.9
	L77.9,45.9z M69.5,74.5l9.1-7.6l0.2,7.6H69.5z M79.8,36l0.4-7.1l5.1,6.3L79.8,36z"/>
</svg>
