  0
SECTION
  2
HEADER
  9
$ACADVER
  1
AC1024
  9
$ACADMAINTVER
 70
     6
  9
$DWGCODEPAGE
  3
UNDEFINED
  9
$INSBASE
 10
0.0
 20
0.0
 30
0.0
  9
$EXTMIN
 10
1.000000000000000E+20
 20
1.000000000000000E+20
 30
1.000000000000000E+20
  9
$EXTMAX
 10
-1.000000000000000E+20
 20
-1.000000000000000E+20
 30
-1.000000000000000E+20
  9
$LIMMIN
 10
0.0
 20
0.0
  9
$LIMMAX
 10
12.0
 20
9.0
  9
$ORTHOMODE
 70
     0
  9
$REGENMODE
 70
     1
  9
$FILLMODE
 70
     1
  9
$QTEXTMODE
 70
     0
  9
$MIRRTEXT
 70
     1
  9
$LTSCALE
 40
1.0
  9
$ATTMODE
 70
     1
  9
$TEXTSIZE
 40
0.2
  9
$TRACEWID
 40
0.05
  9
$TEXTSTYLE
  7
Standard
  9
$CLAYER
  8
0
  9
$CELTYPE
  6
ByLayer
  9
$CECOLOR
 62
   256
  9
$CELTSCALE
 40
1.0
  9
$DISPSILH
 70
     0
  9
$DIMSCALE
 40
1.0
  9
$DIMASZ
 40
0.18
  9
$DIMEXO
 40
0.0625
  9
$DIMDLI
 40
0.38
  9
$DIMRND
 40
0.0
  9
$DIMDLE
 40
0.0
  9
$DIMEXE
 40
0.18
  9
$DIMTP
 40
0.0
  9
$DIMTM
 40
0.0
  9
$DIMTXT
 40
0.18
  9
$DIMCEN
 40
0.09
  9
$DIMTSZ
 40
0.0
  9
$DIMTOL
 70
     0
  9
$DIMLIM
 70
     0
  9
$DIMTIH
 70
     1
  9
$DIMTOH
 70
     1
  9
$DIMSE1
 70
     0
  9
$DIMSE2
 70
     0
  9
$DIMTAD
 70
     0
  9
$DIMZIN
 70
     0
  9
$DIMBLK
  1

  9
$DIMASO
 70
     1
  9
$DIMSHO
 70
     1
  9
$DIMPOST
  1

  9
$DIMAPOST
  1

  9
$DIMALT
 70
     0
  9
$DIMALTD
 70
     2
  9
$DIMALTF
 40
25.4
  9
$DIMLFAC
 40
1.0
  9
$DIMTOFL
 70
     0
  9
$DIMTVP
 40
0.0
  9
$DIMTIX
 70
     0
  9
$DIMSOXD
 70
     0
  9
$DIMSAH
 70
     0
  9
$DIMBLK1
  1

  9
$DIMBLK2
  1

  9
$DIMSTYLE
  2
Standard
  9
$DIMCLRD
 70
     0
  9
$DIMCLRE
 70
     0
  9
$DIMCLRT
 70
     0
  9
$DIMTFAC
 40
1.0
  9
$DIMGAP
 40
0.09
  9
$DIMJUST
 70
     0
  9
$DIMSD1
 70
     0
  9
$DIMSD2
 70
     0
  9
$DIMTOLJ
 70
     1
  9
$DIMTZIN
 70
     0
  9
$DIMALTZ
 70
     0
  9
$DIMALTTZ
 70
     0
  9
$DIMUPT
 70
     0
  9
$DIMDEC
 70
     4
  9
$DIMTDEC
 70
     4
  9
$DIMALTU
 70
     2
  9
$DIMALTTD
 70
     2
  9
$DIMTXSTY
  7
Standard
  9
$DIMAUNIT
 70
     0
  9
$DIMADEC
 70
     0
  9
$DIMALTRND
 40
0.0
  9
$DIMAZIN
 70
     0
  9
$DIMDSEP
 70
    46
  9
$DIMATFIT
 70
     3
  9
$DIMFRAC
 70
     0
  9
$DIMLDRBLK
  1

  9
$DIMLUNIT
 70
     2
  9
$DIMLWD
 70
    -2
  9
$DIMLWE
 70
    -2
  9
$DIMTMOVE
 70
     0
  9
$DIMFXL
 40
1.0
  9
$DIMFXLON
 70
     0
  9
$DIMJOGANG
 40
0.7853981633974483
  9
$DIMTFILL
 70
     0
  9
$DIMTFILLCLR
 70
     0
  9
$DIMARCSYM
 70
     0
  9
$DIMLTYPE
  6

  9
$DIMLTEX1
  6

  9
$DIMLTEX2
  6

  9
$DIMTXTDIRECTION
 70
     0
  9
$LUNITS
 70
     2
  9
$LUPREC
 70
     4
  9
$SKETCHINC
 40
0.1
  9
$FILLETRAD
 40
0.5
  9
$AUNITS
 70
     0
  9
$AUPREC
 70
     0
  9
$MENU
  1
.
  9
$ELEVATION
 40
0.0
  9
$PELEVATION
 40
0.0
  9
$THICKNESS
 40
0.0
  9
$LIMCHECK
 70
     0
  9
$CHAMFERA
 40
0.5
  9
$CHAMFERB
 40
0.5
  9
$CHAMFERC
 40
1.0
  9
$CHAMFERD
 40
0.0
  9
$SKPOLY
 70
     0
  9
$TDCREATE
 40
2457525.598912025
  9
$TDUCREATE
 40
2457525.80724537
  9
$TDUPDATE
 40
2457525.598912025
  9
$TDUUPDATE
 40
2457525.80724537
  9
$TDINDWG
 40
0.0000000116
  9
$TDUSRTIMER
 40
0.0000000116
  9
$USRTIMER
 70
     1
  9
$ANGBASE
 50
0.0
  9
$ANGDIR
 70
     0
  9
$PDMODE
 70
     0
  9
$PDSIZE
 40
0.0
  9
$PLINEWID
 40
0.0
  9
$SPLFRAME
 70
     0
  9
$SPLINETYPE
 70
     6
  9
$SPLINESEGS
 70
     8
  9
$HANDSEED
  5
7A
  9
$SURFTAB1
 70
     6
  9
$SURFTAB2
 70
     6
  9
$SURFTYPE
 70
     6
  9
$SURFU
 70
     6
  9
$SURFV
 70
     6
  9
$UCSBASE
  2

  9
$UCSNAME
  2

  9
$UCSORG
 10
0.0
 20
0.0
 30
0.0
  9
$UCSXDIR
 10
1.0
 20
0.0
 30
0.0
  9
$UCSYDIR
 10
0.0
 20
1.0
 30
0.0
  9
$UCSORTHOREF
  2

  9
$UCSORTHOVIEW
 70
     0
  9
$UCSORGTOP
 10
0.0
 20
0.0
 30
0.0
  9
$UCSORGBOTTOM
 10
0.0
 20
0.0
 30
0.0
  9
$UCSORGLEFT
 10
0.0
 20
0.0
 30
0.0
  9
$UCSORGRIGHT
 10
0.0
 20
0.0
 30
0.0
  9
$UCSORGFRONT
 10
0.0
 20
0.0
 30
0.0
  9
$UCSORGBACK
 10
0.0
 20
0.0
 30
0.0
  9
$PUCSBASE
  2

  9
$PUCSNAME
  2

  9
$PUCSORG
 10
0.0
 20
0.0
 30
0.0
  9
$PUCSXDIR
 10
1.0
 20
0.0
 30
0.0
  9
$PUCSYDIR
 10
0.0
 20
1.0
 30
0.0
  9
$PUCSORTHOREF
  2

  9
$PUCSORTHOVIEW
 70
     0
  9
$PUCSORGTOP
 10
0.0
 20
0.0
 30
0.0
  9
$PUCSORGBOTTOM
 10
0.0
 20
0.0
 30
0.0
  9
$PUCSORGLEFT
 10
0.0
 20
0.0
 30
0.0
  9
$PUCSORGRIGHT
 10
0.0
 20
0.0
 30
0.0
  9
$PUCSORGFRONT
 10
0.0
 20
0.0
 30
0.0
  9
$PUCSORGBACK
 10
0.0
 20
0.0
 30
0.0
  9
$USERI1
 70
     0
  9
$USERI2
 70
     0
  9
$USERI3
 70
     0
  9
$USERI4
 70
     0
  9
$USERI5
 70
     0
  9
$USERR1
 40
0.0
  9
$USERR2
 40
0.0
  9
$USERR3
 40
0.0
  9
$USERR4
 40
0.0
  9
$USERR5
 40
0.0
  9
$WORLDVIEW
 70
     1
  9
$SHADEDGE
 70
     3
  9
$SHADEDIF
 70
    70
  9
$TILEMODE
 70
     1
  9
$MAXACTVP
 70
    64
  9
$PINSBASE
 10
0.0
 20
0.0
 30
0.0
  9
$PLIMCHECK
 70
     0
  9
$PEXTMIN
 10
1.000000000000000E+20
 20
1.000000000000000E+20
 30
1.000000000000000E+20
  9
$PEXTMAX
 10
-1.000000000000000E+20
 20
-1.000000000000000E+20
 30
-1.000000000000000E+20
  9
$PLIMMIN
 10
0.0
 20
0.0
  9
$PLIMMAX
 10
12.0
 20
9.0
  9
$UNITMODE
 70
     0
  9
$VISRETAIN
 70
     1
  9
$PLINEGEN
 70
     0
  9
$PSLTSCALE
 70
     1
  9
$TREEDEPTH
 70
  3020
  9
$CMLSTYLE
  2
Standard
  9
$CMLJUST
 70
     0
  9
$CMLSCALE
 40
1.0
  9
$PROXYGRAPHICS
 70
     1
  9
$MEASUREMENT
 70
     0
  9
$CELWEIGHT
370
    -1
  9
$ENDCAPS
280
     0
  9
$JOINSTYLE
280
     0
  9
$LWDISPLAY
290
     1
  9
$INSUNITS
 70
     1
  9
$HYPERLINKBASE
  1

  9
$STYLESHEET
  1

  9
$XEDIT
290
     1
  9
$CEPSNTYPE
380
     0
  9
$PSTYLEMODE
290
     1
  9
$FINGERPRINTGUID
  2
{97D3AFC3-0876-BC56-7338-8D0155F93981}
  9
$VERSIONGUID
  2
{FAEB1C32-E019-11D5-929B-00C0DF256EC4}
  9
$EXTNAMES
290
     1
  9
$PSVPSCALE
 40
0.0
  9
$OLESTARTUP
290
     0
  9
$SORTENTS
280
   127
  9
$INDEXCTL
280
     0
  9
$HIDETEXT
280
     1
  9
$XCLIPFRAME
280
     2
  9
$HALOGAP
280
     0
  9
$OBSCOLOR
 70
   257
  9
$OBSLTYPE
280
     0
  9
$INTERSECTIONDISPLAY
280
     0
  9
$INTERSECTIONCOLOR
 70
   257
  9
$DIMASSOC
280
     2
  9
$PROJECTNAME
  1

  9
$CAMERADISPLAY
290
     0
  9
$LENSLENGTH
 40
50.0
  9
$CAMERAHEIGHT
 40
0.0
  9
$STEPSPERSEC
 40
2.0
  9
$STEPSIZE
 40
6.0
  9
$3DDWFPREC
 40
2.0
  9
$PSOLWIDTH
 40
0.25
  9
$PSOLHEIGHT
 40
4.0
  9
$LOFTANG1
 40
1.570796326794897
  9
$LOFTANG2
 40
1.570796326794897
  9
$LOFTMAG1
 40
0.0
  9
$LOFTMAG2
 40
0.0
  9
$LOFTPARAM
 70
     7
  9
$LOFTNORMALS
280
     1
  9
$LATITUDE
 40
37.795
  9
$LONGITUDE
 40
-122.394
  9
$NORTHDIRECTION
 40
0.0
  9
$TIMEZONE
 70
 -8000
  9
$LIGHTGLYPHDISPLAY
280
     1
  9
$TILEMODELIGHTSYNCH
280
     1
  9
$CMATERIAL
347
3C
  9
$SOLIDHIST
280
     1
  9
$SHOWHIST
280
     1
  9
$DWFFRAME
280
     2
  9
$DGNFRAME
280
     2
  9
$REALWORLDSCALE
290
     1
  9
$INTERFERECOLOR
 62
   256
  9
$CSHADOW
280
     0
  9
$SHADOWPLANELOCATION
 40
0.0
  0
ENDSEC
  0
SECTION
  2
CLASSES
  0
CLASS
  1
ACDBDICTIONARYWDFLT
  2
AcDbDictionaryWithDefault
  3
ObjectDBX Classes
 90
        0
 91
        4
280
     0
281
     0
  0
CLASS
  1
VISUALSTYLE
  2
AcDbVisualStyle
  3
ObjectDBX Classes
 90
     4095
 91
        4
280
     0
281
     0
  0
CLASS
  1
MATERIAL
  2
AcDbMaterial
  3
ObjectDBX Classes
 90
     1153
 91
        4
280
     0
281
     0
  0
CLASS
  1
SUN
  2
AcDbSun
  3
SCENEOE
 90
     1024
 91
        4
280
     0
281
     0
  0
ENDSEC
  0
SECTION
  2
TABLES
  0
TABLE
  2
VPORT
  5
8
330
0
100
AcDbSymbolTable
 70
     1
  0
VPORT
  5
29
330
8
100
AcDbSymbolTableRecord
100
AcDbViewportTableRecord
  2
*Active
 70
     0
 10
0.0
 20
0.0
 11
1.0
 21
1.0
 12
0.0
 22
0.0
 13
0.0
 23
0.0
 14
0.5
 24
0.5
 15
0.5
 25
0.5
 16
0.0
 26
0.0
 36
1.0
 17
50.0
 27
62.5
 37
0.0
 40
125.0
 41
0.8
 42
50.0
 43
0.0
 44
0.0
 50
0.0
 51
0.0
 71
     0
 72
   100
 73
     1
 74
     3
 75
     0
 76
     0
 77
     0
 78
     0
281
     0
 65
     1
110
0.0
120
0.0
130
0.0
111
1.0
121
0.0
131
0.0
112
0.0
122
1.0
132
0.0
 79
     0
146
0.0
 60
     3
 61
     5
292
     1
282
     1
141
0.0
142
0.0
 63
   250
361
3F
  0
ENDTAB
  0
TABLE
  2
LTYPE
  5
5
330
0
100
AcDbSymbolTable
 70
     1
  0
LTYPE
  5
14
330
5
100
AcDbSymbolTableRecord
100
AcDbLinetypeTableRecord
  2
ByBlock
 70
     0
  3

 72
    65
 73
     0
 40
0.0
  0
LTYPE
  5
15
330
5
100
AcDbSymbolTableRecord
100
AcDbLinetypeTableRecord
  2
ByLayer
 70
     0
  3

 72
    65
 73
     0
 40
0.0
  0
LTYPE
  5
16
330
5
100
AcDbSymbolTableRecord
100
AcDbLinetypeTableRecord
  2
Continuous
 70
     0
  3
Solid line
 72
    65
 73
     0
 40
0.0
  0
ENDTAB
  0
TABLE
  2
LAYER
  5
2
330
0
100
AcDbSymbolTable
 70
     2
  0
LAYER
  5
10
330
2
100
AcDbSymbolTableRecord
100
AcDbLayerTableRecord
  2
0
 70
     0
 62
     7
  6
Continuous
370
    -3
390
F
347
3E
  0
LAYER
  5
40
330
2
100
AcDbSymbolTableRecord
100
AcDbLayerTableRecord
  2
Layer 1
 70
     0
 62
     7
  6
Continuous
370
    -3
390
F
347
3E
  0
ENDTAB
  0
TABLE
  2
STYLE
  5
3
330
0
100
AcDbSymbolTable
 70
     1
  0
STYLE
  5
11
330
3
100
AcDbSymbolTableRecord
100
AcDbTextStyleTableRecord
  2
Standard
 70
     0
 40
0.0
 41
1.0
 50
0.0
 71
     0
 42
0.2
  3
txt
  4

  0
ENDTAB
  0
TABLE
  2
VIEW
  5
6
330
0
100
AcDbSymbolTable
 70
     0
  0
ENDTAB
  0
TABLE
  2
UCS
  5
7
330
0
100
AcDbSymbolTable
 70
     0
  0
ENDTAB
  0
TABLE
  2
APPID
  5
9
330
0
100
AcDbSymbolTable
 70
     1
  0
APPID
  5
12
330
9
100
AcDbSymbolTableRecord
100
AcDbRegAppTableRecord
  2
ACAD
 70
     0
  0
ENDTAB
  0
TABLE
  2
DIMSTYLE
  5
A
330
0
100
AcDbSymbolTable
 70
     1
100
AcDbDimStyleTable
  0
DIMSTYLE
105
27
330
A
100
AcDbSymbolTableRecord
100
AcDbDimStyleTableRecord
  2
Standard
 70
     0
178
     0
340
11
  0
ENDTAB
  0
TABLE
  2
BLOCK_RECORD
  5
1
330
0
100
AcDbSymbolTable
 70
     1
  0
BLOCK_RECORD
  5
1F
330
1
100
AcDbSymbolTableRecord
100
AcDbBlockTableRecord
  2
*Model_Space
340
22
 70
     0
280
     1
281
     0
  0
BLOCK_RECORD
  5
1B
330
1
100
AcDbSymbolTableRecord
100
AcDbBlockTableRecord
  2
*Paper_Space
340
1E
 70
     0
280
     1
281
     0
  0
BLOCK_RECORD
  5
23
330
1
100
AcDbSymbolTableRecord
100
AcDbBlockTableRecord
  2
*Paper_Space0
340
26
 70
     0
280
     1
281
     0
  0
ENDTAB
  0
ENDSEC
  0
SECTION
  2
BLOCKS
  0
BLOCK
  5
20
330
1F
100
AcDbEntity
  8
0
100
AcDbBlockBegin
  2
*Model_Space
 70
     0
 10
0.0
 20
0.0
 30
0.0
  3
*Model_Space
  1

  0
ENDBLK
  5
21
330
1F
100
AcDbEntity
  8
0
100
AcDbBlockEnd
  0
BLOCK
  5
1C
330
1B
100
AcDbEntity
 67
     1
  8
0
100
AcDbBlockBegin
  2
*Paper_Space
 70
     0
 10
0.0
 20
0.0
 30
0.0
  3
*Paper_Space
  1

  0
ENDBLK
  5
1D
330
1B
100
AcDbEntity
 67
     1
  8
0
100
AcDbBlockEnd
  0
BLOCK
  5
24
330
23
100
AcDbEntity
  8
0
100
AcDbBlockBegin
  2
*Paper_Space0
 70
     0
 10
0.0
 20
0.0
 30
0.0
  3
*Paper_Space0
  1

  0
ENDBLK
  5
25
330
23
100
AcDbEntity
  8
0
100
AcDbBlockEnd
  0
ENDSEC
  0
SECTION
  2
ENTITIES
  0
SPLINE
  5
41
330
1F
100
AcDbEntity
  8
Layer 1
370
     0
100
AcDbSpline
210
0.0
220
0.0
230
1.0
 70
    11
 71
     3
 72
   164
 73
   160
 74
     0
 42
0.0000000001
 43
0.0000000001
 12
1.0
 22
0.0
 32
0.0
 13
1.0
 23
0.0
 33
0.0
 40
0.0
 40
0.0
 40
0.0
 40
0.0
 40
1.0
 40
1.0
 40
1.0
 40
2.0
 40
2.0
 40
2.0
 40
3.0
 40
3.0
 40
3.0
 40
4.0
 40
4.0
 40
4.0
 40
5.0
 40
5.0
 40
5.0
 40
6.0
 40
6.0
 40
6.0
 40
7.0
 40
7.0
 40
7.0
 40
8.0
 40
8.0
 40
8.0
 40
9.0
 40
9.0
 40
9.0
 40
10.0
 40
10.0
 40
10.0
 40
11.0
 40
11.0
 40
11.0
 40
12.0
 40
12.0
 40
12.0
 40
13.0
 40
13.0
 40
13.0
 40
14.0
 40
14.0
 40
14.0
 40
15.0
 40
15.0
 40
15.0
 40
16.0
 40
16.0
 40
16.0
 40
17.0
 40
17.0
 40
17.0
 40
18.0
 40
18.0
 40
18.0
 40
19.0
 40
19.0
 40
19.0
 40
20.0
 40
20.0
 40
20.0
 40
21.0
 40
21.0
 40
21.0
 40
22.0
 40
22.0
 40
22.0
 40
23.0
 40
23.0
 40
23.0
 40
24.0
 40
24.0
 40
24.0
 40
25.0
 40
25.0
 40
25.0
 40
26.0
 40
26.0
 40
26.0
 40
27.0
 40
27.0
 40
27.0
 40
28.0
 40
28.0
 40
28.0
 40
29.0
 40
29.0
 40
29.0
 40
30.0
 40
30.0
 40
30.0
 40
31.0
 40
31.0
 40
31.0
 40
32.0
 40
32.0
 40
32.0
 40
33.0
 40
33.0
 40
33.0
 40
34.0
 40
34.0
 40
34.0
 40
35.0
 40
35.0
 40
35.0
 40
36.0
 40
36.0
 40
36.0
 40
37.0
 40
37.0
 40
37.0
 40
38.0
 40
38.0
 40
38.0
 40
39.0
 40
39.0
 40
39.0
 40
40.0
 40
40.0
 40
40.0
 40
41.0
 40
41.0
 40
41.0
 40
42.0
 40
42.0
 40
42.0
 40
43.0
 40
43.0
 40
43.0
 40
44.0
 40
44.0
 40
44.0
 40
45.0
 40
45.0
 40
45.0
 40
46.0
 40
46.0
 40
46.0
 40
47.0
 40
47.0
 40
47.0
 40
48.0
 40
48.0
 40
48.0
 40
49.0
 40
49.0
 40
49.0
 40
50.0
 40
50.0
 40
50.0
 40
51.0
 40
51.0
 40
51.0
 40
52.0
 40
52.0
 40
52.0
 40
53.0
 40
53.0
 40
53.0
 40
53.0
 10
87.21067301432231
 20
89.69565651879384
 30
0.0
 10
87.21067301432231
 20
89.69565651879384
 30
0.0
 10
80.22165934244731
 20
98.44465706811025
 30
0.0
 10
80.22165934244731
 20
98.44465706811025
 30
0.0
 10
80.20466105143169
 20
98.46565697655751
 30
0.0
 10
80.18165079752544
 20
98.47465584740712
 30
0.0
 10
80.16364542643169
 20
98.4936568544872
 30
0.0
 10
80.14963785807231
 20
98.50665734276845
 30
0.0
 10
80.14463297525981
 20
98.52565834984853
 30
0.0
 10
80.13065592447856
 20
98.53865502343251
 30
0.0
 10
80.13065592447856
 20
98.53865502343251
 30
0.0
 10
68.86066691080669
 20
108.2756545351513
 30
0.0
 10
68.86066691080669
 20
108.2756545351513
 30
0.0
 10
68.83765665690044
 20
108.2956549929149
 30
0.0
 10
68.80866495768169
 20
108.3026549623974
 30
0.0
 10
68.78367106119731
 20
108.3186538027294
 30
0.0
 10
68.74167887369731
 20
108.3466536806591
 30
0.0
 10
68.70066324869731
 20
108.3736541079052
 30
0.0
 10
68.65366617838481
 20
108.391653756953
 30
0.0
 10
68.60865275065044
 20
108.4086539553173
 30
0.0
 10
68.56366984049419
 20
108.4166533754833
 30
0.0
 10
68.51767985025981
 20
108.4246547029979
 30
0.0
 10
68.48566691080669
 20
108.4306552217968
 30
0.0
 10
68.45768229166606
 20
108.4456546114452
 30
0.0
 10
68.42469278971294
 20
108.4466540621288
 30
0.0
 10
68.42469278971294
 20
108.4466540621288
 30
0.0
 10
53.62769571940044
 20
109.0136534975536
 30
0.0
 10
53.62769571940044
 20
109.0136534975536
 30
0.0
 10
53.62769571940044
 20
109.0136534975536
 30
0.0
 10
53.32770792643169
 20
110.1736533449657
 30
0.0
 10
53.32770792643169
 20
110.1736533449657
 30
0.0
 10
53.28571573893169
 20
110.3366534517772
 30
0.0
 10
53.18671671549419
 20
110.4786536501415
 30
0.0
 10
53.04969278971294
 20
110.5756537722118
 30
0.0
 10
53.04969278971294
 20
110.5756537722118
 30
0.0
 10
40.89869181315044
 20
119.1356541918285
 30
0.0
 10
40.89869181315044
 20
119.1356541918285
 30
0.0
 10
40.68168131510356
 20
119.2866542147167
 30
0.0
 10
40.39969889322856
 20
119.3066546724804
 30
0.0
 10
40.16669718424419
 20
119.1856543825634
 30
0.0
 10
40.16669718424419
 20
119.1856543825634
 30
0.0
 10
23.77671305338481
 20
110.7376544283397
 30
0.0
 10
23.77671305338481
 20
110.7376544283397
 30
0.0
 10
23.57770792643169
 20
110.6346537874706
 30
0.0
 10
23.43772379557231
 20
110.4426543520458
 30
0.0
 10
23.40272013346294
 20
110.2196547792919
 30
0.0
 10
23.40272013346294
 20
110.2196547792919
 30
0.0
 10
21.76270548502544
 20
100.0116545961864
 30
0.0
 10
21.76270548502544
 20
100.0116545961864
 30
0.0
 10
21.76270548502544
 20
100.0116545961864
 30
0.0
 10
12.21070353190044
 20
103.8326537416942
 30
0.0
 10
12.21070353190044
 20
103.8326537416942
 30
0.0
 10
12.21070353190044
 20
103.8326537416942
 30
0.0
 10
12.21070353190044
 20
103.8326537416942
 30
0.0
 10
12.21070353190044
 20
103.8326537416942
 30
0.0
 10
12.21070353190044
 20
103.8326537416942
 30
0.0
 10
12.19669596354106
 20
103.8376529024608
 30
0.0
 10
12.19669596354106
 20
103.8376529024608
 30
0.0
 10
12.11069742838481
 20
103.8716532991893
 30
0.0
 10
12.02170817057231
 20
103.8876521395214
 30
0.0
 10
11.93369547525981
 20
103.8876521395214
 30
0.0
 10
11.93369547525981
 20
103.8876521395214
 30
0.0
 10
11.93369547525981
 20
103.8876521395214
 30
0.0
 10
11.93369547525981
 20
103.8876521395214
 30
0.0
 10
11.93369547525981
 20
103.8876521395214
 30
0.0
 10
5.674692789712935
 20
103.8876521395214
 30
0.0
 10
5.674692789712935
 20
103.8876521395214
 30
0.0
 10
5.28269449869731
 20
103.8876521395214
 30
0.0
 10
4.96567789713481
 20
103.5706527040966
 30
0.0
 10
4.96567789713481
 20
103.1796519564159
 30
0.0
 10
4.96567789713481
 20
103.1796519564159
 30
0.0
 10
4.96567789713481
 20
97.26565239892079
 30
0.0
 10
4.96567789713481
 20
97.26565239892079
 30
0.0
 10
4.96567789713481
 20
96.87365410790517
 30
0.0
 10
5.282663981119185
 20
96.55765221581532
 30
0.0
 10
5.674692789712935
 20
96.55765221581532
 30
0.0
 10
5.674692789712935
 20
96.55765221581532
 30
0.0
 10
8.41269938150981
 20
96.55765221581532
 30
0.0
 10
8.41269938150981
 20
96.55765221581532
 30
0.0
 10
8.41269938150981
 20
96.55765221581532
 30
0.0
 10
19.13871256510356
 20
82.31065438256337
 30
0.0
 10
19.13871256510356
 20
82.31065438256337
 30
0.0
 10
19.14271036783794
 20
82.30465386376454
 30
0.0
 10
19.14969889322856
 20
82.30365441308095
 30
0.0
 10
19.15372721354106
 20
82.29765389428212
 30
0.0
 10
19.15873209635356
 20
82.29265282616689
 30
0.0
 10
19.15873209635356
 20
82.28465340600087
 30
0.0
 10
19.16373697916606
 20
82.27965233788564
 30
0.0
 10
19.21573893229106
 20
82.21765206322743
 30
0.0
 10
19.28174845377544
 20
82.1756522463329
 30
0.0
 10
19.34974161783794
 20
82.13565133080556
 30
0.0
 10
19.36774698893169
 20
82.1246497438915
 30
0.0
 10
19.38074747721294
 20
82.10665200219228
 30
0.0
 10
19.39972941080669
 20
82.09765313134267
 30
0.0
 10
19.49173990885356
 20
82.05265496239736
 30
0.0
 10
19.59171549479106
 20
82.02865288720204
 30
0.0
 10
19.69672648111919
 20
82.02665398583486
 30
0.0
 10
19.69672648111919
 20
82.02665398583486
 30
0.0
 10
35.42872111002544
 20
81.81265328393056
 30
0.0
 10
35.42872111002544
 20
81.81265328393056
 30
0.0
 10
35.42872111002544
 20
81.81265328393056
 30
0.0
 10
37.06272379557231
 20
76.86565468773915
 30
0.0
 10
37.06272379557231
 20
76.86565468773915
 30
0.0
 10
37.06272379557231
 20
76.86565468773915
 30
0.0
 10
39.76673380533794
 20
66.26165078148915
 30
0.0
 10
39.76673380533794
 20
66.26165078148915
 30
0.0
 10
39.76673380533794
 20
66.26165078148915
 30
0.0
 10
35.99772135416606
 20
49.99065468773915
 30
0.0
 10
35.99772135416606
 20
49.99065468773915
 30
0.0
 10
35.94871012369731
 20
49.7796561525829
 30
0.0
 10
35.99872843424419
 20
49.55865548119618
 30
0.0
 10
36.13370768229106
 20
49.38865731225087
 30
0.0
 10
36.26871744791606
 20
49.21965859398915
 30
0.0
 10
36.47269694010356
 20
49.12065957055165
 30
0.0
 10
36.68870035807231
 20
49.12065957055165
 30
0.0
 10
36.68870035807231
 20
49.12065957055165
 30
0.0
 10
46.69968668619731
 20
49.12065957055165
 30
0.0
 10
46.69968668619731
 20
49.12065957055165
 30
0.0
 10
46.88367716471294
 20
49.12065957055165
 30
0.0
 10
47.05967203775981
 20
49.19265816674306
 30
0.0
 10
47.19269816080669
 20
49.31965706811025
 30
0.0
 10
47.19269816080669
 20
49.31965706811025
 30
0.0
 10
57.92569986979106
 20
59.70266030297353
 30
0.0
 10
57.92569986979106
 20
59.70266030297353
 30
0.0
 10
57.92569986979106
 20
59.70266030297353
 30
0.0
 10
66.98771158854106
 20
49.3626639650829
 30
0.0
 10
66.98771158854106
 20
49.3626639650829
 30
0.0
 10
67.04371134440044
 20
49.29966042504384
 30
0.0
 10
67.11472574869731
 20
49.25466225609853
 30
0.0
 10
67.18671671549419
 20
49.21466134057118
 30
0.0
 10
67.20173136393169
 20
49.2066581057079
 30
0.0
 10
67.21171061197856
 20
49.19265816674306
 30
0.0
 10
67.22672526041606
 20
49.1856620119579
 30
0.0
 10
67.31873575846294
 20
49.14366219506337
 30
0.0
 10
67.41773478190044
 20
49.12165902123525
 30
0.0
 10
67.52073160807231
 20
49.12165902123525
 30
0.0
 10
67.52073160807231
 20
49.12165902123525
 30
0.0
 10
79.51471964518169
 20
49.12165902123525
 30
0.0
 10
79.51471964518169
 20
49.12165902123525
 30
0.0
 10
79.70572916666606
 20
49.12165902123525
 30
0.0
 10
79.88971964518169
 20
49.19966195092275
 30
0.0
 10
80.02372233072856
 20
49.337662439204
 30
0.0
 10
80.15671793619731
 20
49.47466347680165
 30
0.0
 10
80.22870890299419
 20
49.6596610353954
 30
0.0
 10
80.22272745768169
 20
49.85166237816884
 30
0.0
 10
80.22272745768169
 20
49.85166237816884
 30
0.0
 10
79.31074015299419
 20
80.67966149315907
 30
0.0
 10
79.31074015299419
 20
80.67966149315907
 30
0.0
 10
79.31074015299419
 20
80.67966149315907
 30
0.0
 10
79.73273722330669
 20
87.53866265282704
 30
0.0
 10
79.73273722330669
 20
87.53866265282704
 30
0.0
 10
79.73273722330669
 20
87.53866265282704
 30
0.0
 10
86.75672403971294
 20
88.55166314110829
 30
0.0
 10
86.75672403971294
 20
88.55166314110829
 30
0.0
 10
87.00773111979106
 20
88.587662439204
 30
0.0
 10
87.22071329752544
 20
88.75566170678212
 30
0.0
 10
87.31473795572856
 20
88.99166176781728
 30
0.0
 10
87.40876261393169
 20
89.22766182885243
 30
0.0
 10
87.36866251627544
 20
89.49665902123525
 30
0.0
 10
87.21067301432231
 20
89.69565651879384
 30
0.0
  0
POLYLINE
  5
42
330
1F
100
AcDbEntity
  8
Layer 1
370
     0
100
AcDb2dPolyline
 66
     1
 10
0.0
 20
0.0
 30
0.0
  0
VERTEX
  5
43
330
42
100
AcDbEntity
  8
Layer 1
370
     0
100
AcDbVertex
100
AcDb2dVertex
 10
6.38566080729106
 20
102.4716574953563
 30
0.0
  0
VERTEX
  5
44
330
42
100
AcDbEntity
  8
Layer 1
370
     0
100
AcDbVertex
100
AcDb2dVertex
 10
10.78867594400981
 20
102.4716574953563
 30
0.0
  0
VERTEX
  5
45
330
42
100
AcDbEntity
  8
Layer 1
370
     0
100
AcDbVertex
100
AcDb2dVertex
 10
8.54069010416606
 20
97.97465584740712
 30
0.0
  0
VERTEX
  5
46
330
42
100
AcDbEntity
  8
Layer 1
370
     0
100
AcDbVertex
100
AcDb2dVertex
 10
6.385691324869185
 20
97.97465584740712
 30
0.0
  0
VERTEX
  5
47
330
42
100
AcDbEntity
  8
Layer 1
370
     0
100
AcDbVertex
100
AcDb2dVertex
 10
6.385691324869185
 20
102.4716574953563
 30
0.0
  0
VERTEX
  5
48
330
42
100
AcDbEntity
  8
Layer 1
370
     0
100
AcDbVertex
100
AcDb2dVertex
 10
6.38566080729106
 20
102.4716574953563
 30
0.0
  0
SEQEND
  5
49
330
42
100
AcDbEntity
  8
Layer 1
370
     0
  0
POLYLINE
  5
4A
330
1F
100
AcDbEntity
  8
Layer 1
370
     0
100
AcDb2dPolyline
 66
     1
 10
0.0
 20
0.0
 30
0.0
  0
VERTEX
  5
4B
330
4A
100
AcDbEntity
  8
Layer 1
370
     0
100
AcDbVertex
100
AcDb2dVertex
 10
12.27765909830669
 20
102.2796580599315
 30
0.0
  0
VERTEX
  5
4C
330
4A
100
AcDbEntity
  8
Layer 1
370
     0
100
AcDbVertex
100
AcDb2dVertex
 10
21.53367106119731
 20
98.57765648827626
 30
0.0
  0
VERTEX
  5
4D
330
4A
100
AcDbEntity
  8
Layer 1
370
     0
100
AcDbVertex
100
AcDb2dVertex
 10
19.27067057291606
 20
84.4926574038036
 30
0.0
  0
VERTEX
  5
4E
330
4A
100
AcDbEntity
  8
Layer 1
370
     0
100
AcDbVertex
100
AcDb2dVertex
 10
9.724680582681685
 20
97.17365715966298
 30
0.0
  0
VERTEX
  5
4F
330
4A
100
AcDbEntity
  8
Layer 1
370
     0
100
AcDbVertex
100
AcDb2dVertex
 10
12.27765909830669
 20
102.2796580599315
 30
0.0
  0
SEQEND
  5
50
330
4A
100
AcDbEntity
  8
Layer 1
370
     0
  0
POLYLINE
  5
51
330
1F
100
AcDbEntity
  8
Layer 1
370
     0
100
AcDb2dPolyline
 66
     1
 10
0.0
 20
0.0
 30
0.0
  0
VERTEX
  5
52
330
51
100
AcDbEntity
  8
Layer 1
370
     0
100
AcDbVertex
100
AcDb2dVertex
 10
24.74466959635356
 20
109.6416575716503
 30
0.0
  0
VERTEX
  5
53
330
51
100
AcDbEntity
  8
Layer 1
370
     0
100
AcDbVertex
100
AcDb2dVertex
 10
40.43366495768169
 20
117.7286574648388
 30
0.0
  0
VERTEX
  5
54
330
51
100
AcDbEntity
  8
Layer 1
370
     0
100
AcDbVertex
100
AcDb2dVertex
 10
52.02067057291606
 20
109.5666587160595
 30
0.0
  0
VERTEX
  5
55
330
51
100
AcDbEntity
  8
Layer 1
370
     0
100
AcDbVertex
100
AcDb2dVertex
 10
54.28266398111919
 20
100.8106581972606
 30
0.0
  0
VERTEX
  5
56
330
51
100
AcDbEntity
  8
Layer 1
370
     0
100
AcDbVertex
100
AcDb2dVertex
 10
35.66666666666606
 20
83.22865746483876
 30
0.0
  0
VERTEX
  5
57
330
51
100
AcDbEntity
  8
Layer 1
370
     0
100
AcDbVertex
100
AcDb2dVertex
 10
20.53666178385356
 20
83.43365929589345
 30
0.0
  0
VERTEX
  5
58
330
51
100
AcDbEntity
  8
Layer 1
370
     0
100
AcDbVertex
100
AcDb2dVertex
 10
24.74466959635356
 20
109.6416575716503
 30
0.0
  0
SEQEND
  5
59
330
51
100
AcDbEntity
  8
Layer 1
370
     0
  0
POLYLINE
  5
5A
330
1F
100
AcDbEntity
  8
Layer 1
370
     0
100
AcDb2dPolyline
 66
     1
 10
0.0
 20
0.0
 30
0.0
  0
VERTEX
  5
5B
330
5A
100
AcDbEntity
  8
Layer 1
370
     0
100
AcDbVertex
100
AcDb2dVertex
 10
55.35965983072856
 20
99.87865899071767
 30
0.0
  0
VERTEX
  5
5C
330
5A
100
AcDbEntity
  8
Layer 1
370
     0
100
AcDbVertex
100
AcDb2dVertex
 10
65.48365275065044
 20
100.0326583193309
 30
0.0
  0
VERTEX
  5
5D
330
5A
100
AcDbEntity
  8
Layer 1
370
     0
100
AcDbVertex
100
AcDb2dVertex
 10
70.64164225260356
 20
93.14165947899892
 30
0.0
  0
VERTEX
  5
5E
330
5A
100
AcDbEntity
  8
Layer 1
370
     0
100
AcDbVertex
100
AcDb2dVertex
 10
66.43064371744731
 20
76.54065773949696
 30
0.0
  0
VERTEX
  5
5F
330
5A
100
AcDbEntity
  8
Layer 1
370
     0
100
AcDbVertex
100
AcDb2dVertex
 10
38.26163736979106
 20
77.75565789208486
 30
0.0
  0
VERTEX
  5
60
330
5A
100
AcDbEntity
  8
Layer 1
370
     0
100
AcDbVertex
100
AcDb2dVertex
 10
36.75763956705669
 20
82.30965874657704
 30
0.0
  0
VERTEX
  5
61
330
5A
100
AcDbEntity
  8
Layer 1
370
     0
100
AcDbVertex
100
AcDb2dVertex
 10
55.35965983072856
 20
99.87865899071767
 30
0.0
  0
SEQEND
  5
62
330
5A
100
AcDbEntity
  8
Layer 1
370
     0
  0
SPLINE
  5
63
330
1F
100
AcDbEntity
  8
Layer 1
370
     0
100
AcDbSpline
210
0.0
220
0.0
230
1.0
 70
    11
 71
     3
 72
    56
 73
    52
 74
     0
 42
0.0000000001
 43
0.0000000001
 12
1.0
 22
0.0
 32
0.0
 13
1.0
 23
0.0
 33
0.0
 40
0.0
 40
0.0
 40
0.0
 40
0.0
 40
1.0
 40
1.0
 40
1.0
 40
2.0
 40
2.0
 40
2.0
 40
3.0
 40
3.0
 40
3.0
 40
4.0
 40
4.0
 40
4.0
 40
5.0
 40
5.0
 40
5.0
 40
6.0
 40
6.0
 40
6.0
 40
7.0
 40
7.0
 40
7.0
 40
8.0
 40
8.0
 40
8.0
 40
9.0
 40
9.0
 40
9.0
 40
10.0
 40
10.0
 40
10.0
 40
11.0
 40
11.0
 40
11.0
 40
12.0
 40
12.0
 40
12.0
 40
13.0
 40
13.0
 40
13.0
 40
14.0
 40
14.0
 40
14.0
 40
15.0
 40
15.0
 40
15.0
 40
16.0
 40
16.0
 40
16.0
 40
17.0
 40
17.0
 40
17.0
 40
17.0
 10
46.41266886393169
 20
50.54065773949696
 30
0.0
 10
46.41266886393169
 20
50.54065773949696
 30
0.0
 10
37.58066813150981
 20
50.54065773949696
 30
0.0
 10
37.58066813150981
 20
50.54065773949696
 30
0.0
 10
37.58066813150981
 20
50.54065773949696
 30
0.0
 10
41.18665568033794
 20
66.11065743432118
 30
0.0
 10
41.18665568033794
 20
66.11065743432118
 30
0.0
 10
41.21164957682231
 20
66.22065804467275
 30
0.0
 10
41.21064249674419
 20
66.33665535912587
 30
0.0
 10
41.18265787760356
 20
66.44565651879384
 30
0.0
 10
41.18265787760356
 20
66.44565651879384
 30
0.0
 10
38.66364542643169
 20
76.32065651879384
 30
0.0
 10
38.66364542643169
 20
76.32065651879384
 30
0.0
 10
38.66364542643169
 20
76.32065651879384
 30
0.0
 10
66.94465128580669
 20
75.10065529809071
 30
0.0
 10
66.94465128580669
 20
75.10065529809071
 30
0.0
 10
66.95466105143169
 20
75.10065529809071
 30
0.0
 10
66.96564737955669
 20
75.09965584740712
 30
0.0
 10
66.97465006510356
 20
75.09965584740712
 30
0.0
 10
67.29764811197856
 20
75.09965584740712
 30
0.0
 10
67.58063761393169
 20
75.31965706811025
 30
0.0
 10
67.66166178385356
 20
75.63465569481923
 30
0.0
 10
67.66166178385356
 20
75.63465569481923
 30
0.0
 10
72.09867350260356
 20
93.12165520653798
 30
0.0
 10
72.09867350260356
 20
93.12165520653798
 30
0.0
 10
72.15168253580669
 20
93.32965538964345
 30
0.0
 10
72.10767618815044
 20
93.54965661034657
 30
0.0
 10
71.97968546549419
 20
93.72065422997548
 30
0.0
 10
71.97968546549419
 20
93.72065422997548
 30
0.0
 10
66.40168253580669
 20
101.1716544435985
 30
0.0
 10
66.40168253580669
 20
101.1716544435985
 30
0.0
 10
66.26569620768169
 20
101.3536536501415
 30
0.0
 10
66.04169718424419
 20
101.4606559084423
 30
0.0
 10
65.82367960611919
 20
101.455654840327
 30
0.0
 10
65.82367960611919
 20
101.455654840327
 30
0.0
 10
55.62067667643169
 20
101.2996566103466
 30
0.0
 10
55.62067667643169
 20
101.2996566103466
 30
0.0
 10
55.62067667643169
 20
101.2996566103466
 30
0.0
 10
53.99866739908794
 20
107.5816561983593
 30
0.0
 10
53.99866739908794
 20
107.5816561983593
 30
0.0
 10
53.99866739908794
 20
107.5816561983593
 30
0.0
 10
68.12266031900981
 20
107.0396563814647
 30
0.0
 10
68.12266031900981
 20
107.0396563814647
 30
0.0
 10
68.12266031900981
 20
107.0396563814647
 30
0.0
 10
78.93866984049419
 20
97.69465706811025
 30
0.0
 10
78.93866984049419
 20
97.69465706811025
 30
0.0
 10
78.93866984049419
 20
97.69465706811025
 30
0.0
 10
77.91266886393169
 20
81.01065896020009
 30
0.0
 10
77.91266886393169
 20
81.01065896020009
 30
0.0
 10
77.91266886393169
 20
81.01065896020009
 30
0.0
 10
46.41266886393169
 20
50.54065773949696
 30
0.0
 10
46.41266886393169
 20
50.54065773949696
 30
0.0
  0
POLYLINE
  5
64
330
1F
100
AcDbEntity
  8
Layer 1
370
     0
100
AcDb2dPolyline
 66
     1
 10
0.0
 20
0.0
 30
0.0
  0
VERTEX
  5
65
330
64
100
AcDbEntity
  8
Layer 1
370
     0
100
AcDbVertex
100
AcDb2dVertex
 10
77.94266764322856
 20
79.06665871605946
 30
0.0
  0
VERTEX
  5
66
330
64
100
AcDbEntity
  8
Layer 1
370
     0
100
AcDbVertex
100
AcDb2dVertex
 10
78.50867716471294
 20
59.92665932641103
 30
0.0
  0
VERTEX
  5
67
330
64
100
AcDbEntity
  8
Layer 1
370
     0
100
AcDbVertex
100
AcDb2dVertex
 10
67.59867350260356
 20
50.81865761742665
 30
0.0
  0
VERTEX
  5
68
330
64
100
AcDbEntity
  8
Layer 1
370
     0
100
AcDbVertex
100
AcDb2dVertex
 10
58.94565836588481
 20
60.69065926537587
 30
0.0
  0
VERTEX
  5
69
330
64
100
AcDbEntity
  8
Layer 1
370
     0
100
AcDbVertex
100
AcDb2dVertex
 10
77.94266764322856
 20
79.06665871605946
 30
0.0
  0
SEQEND
  5
6A
330
64
100
AcDbEntity
  8
Layer 1
370
     0
  0
POLYLINE
  5
6B
330
1F
100
AcDbEntity
  8
Layer 1
370
     0
100
AcDb2dPolyline
 66
     1
 10
0.0
 20
0.0
 30
0.0
  0
VERTEX
  5
6C
330
6B
100
AcDbEntity
  8
Layer 1
370
     0
100
AcDbVertex
100
AcDb2dVertex
 10
69.47767130533794
 20
50.54065773949696
 30
0.0
  0
VERTEX
  5
6D
330
6B
100
AcDbEntity
  8
Layer 1
370
     0
100
AcDbVertex
100
AcDb2dVertex
 10
78.56266276041606
 20
58.12565682396962
 30
0.0
  0
VERTEX
  5
6E
330
6B
100
AcDbEntity
  8
Layer 1
370
     0
100
AcDbVertex
100
AcDb2dVertex
 10
78.78766886393169
 20
50.54065773949696
 30
0.0
  0
VERTEX
  5
6F
330
6B
100
AcDbEntity
  8
Layer 1
370
     0
100
AcDbVertex
100
AcDb2dVertex
 10
69.47767130533794
 20
50.54065773949696
 30
0.0
  0
SEQEND
  5
70
330
6B
100
AcDbEntity
  8
Layer 1
370
     0
  0
POLYLINE
  5
71
330
1F
100
AcDbEntity
  8
Layer 1
370
     0
100
AcDb2dPolyline
 66
     1
 10
0.0
 20
0.0
 30
0.0
  0
VERTEX
  5
72
330
71
100
AcDbEntity
  8
Layer 1
370
     0
100
AcDbVertex
100
AcDb2dVertex
 10
79.82267252604106
 20
88.98465798363759
 30
0.0
  0
VERTEX
  5
73
330
71
100
AcDbEntity
  8
Layer 1
370
     0
100
AcDbVertex
100
AcDb2dVertex
 10
80.26066080729106
 20
96.12365792260243
 30
0.0
  0
VERTEX
  5
74
330
71
100
AcDbEntity
  8
Layer 1
370
     0
100
AcDbVertex
100
AcDb2dVertex
 10
85.32966105143169
 20
89.77865670189931
 30
0.0
  0
VERTEX
  5
75
330
71
100
AcDbEntity
  8
Layer 1
370
     0
100
AcDbVertex
100
AcDb2dVertex
 10
79.82267252604106
 20
88.98465798363759
 30
0.0
  0
SEQEND
  5
76
330
71
100
AcDbEntity
  8
Layer 1
370
     0
  0
HATCH
  5
77
330
1F
100
AcDbEntity
  8
Layer 1
 62
     7
420
 16777215
100
AcDbHatch
 10
0.0
 20
0.0
 30
0.0
210
0.0
220
0.0
230
1.0
  2
SOLID
 70
     1
 71
     0
 91
        9
 92
        1
 93
        1
 72
     4
 94
        3
 73
     0
 74
     1
 95
      164
 96
      160
 40
0.0
 40
0.0
 40
0.0
 40
0.0
 40
1.0
 40
1.0
 40
1.0
 40
2.0
 40
2.0
 40
2.0
 40
3.0
 40
3.0
 40
3.0
 40
4.0
 40
4.0
 40
4.0
 40
5.0
 40
5.0
 40
5.0
 40
6.0
 40
6.0
 40
6.0
 40
7.0
 40
7.0
 40
7.0
 40
8.0
 40
8.0
 40
8.0
 40
9.0
 40
9.0
 40
9.0
 40
10.0
 40
10.0
 40
10.0
 40
11.0
 40
11.0
 40
11.0
 40
12.0
 40
12.0
 40
12.0
 40
13.0
 40
13.0
 40
13.0
 40
14.0
 40
14.0
 40
14.0
 40
15.0
 40
15.0
 40
15.0
 40
16.0
 40
16.0
 40
16.0
 40
17.0
 40
17.0
 40
17.0
 40
18.0
 40
18.0
 40
18.0
 40
19.0
 40
19.0
 40
19.0
 40
20.0
 40
20.0
 40
20.0
 40
21.0
 40
21.0
 40
21.0
 40
22.0
 40
22.0
 40
22.0
 40
23.0
 40
23.0
 40
23.0
 40
24.0
 40
24.0
 40
24.0
 40
25.0
 40
25.0
 40
25.0
 40
26.0
 40
26.0
 40
26.0
 40
27.0
 40
27.0
 40
27.0
 40
28.0
 40
28.0
 40
28.0
 40
29.0
 40
29.0
 40
29.0
 40
30.0
 40
30.0
 40
30.0
 40
31.0
 40
31.0
 40
31.0
 40
32.0
 40
32.0
 40
32.0
 40
33.0
 40
33.0
 40
33.0
 40
34.0
 40
34.0
 40
34.0
 40
35.0
 40
35.0
 40
35.0
 40
36.0
 40
36.0
 40
36.0
 40
37.0
 40
37.0
 40
37.0
 40
38.0
 40
38.0
 40
38.0
 40
39.0
 40
39.0
 40
39.0
 40
40.0
 40
40.0
 40
40.0
 40
41.0
 40
41.0
 40
41.0
 40
42.0
 40
42.0
 40
42.0
 40
43.0
 40
43.0
 40
43.0
 40
44.0
 40
44.0
 40
44.0
 40
45.0
 40
45.0
 40
45.0
 40
46.0
 40
46.0
 40
46.0
 40
47.0
 40
47.0
 40
47.0
 40
48.0
 40
48.0
 40
48.0
 40
49.0
 40
49.0
 40
49.0
 40
50.0
 40
50.0
 40
50.0
 40
51.0
 40
51.0
 40
51.0
 40
52.0
 40
52.0
 40
52.0
 40
53.0
 40
53.0
 40
53.0
 40
53.0
 10
87.21067301432231
 20
89.69565651879384
 10
87.21067301432231
 20
89.69565651879384
 10
80.22165934244731
 20
98.44465706811025
 10
80.22165934244731
 20
98.44465706811025
 10
80.20466105143169
 20
98.46565697655751
 10
80.18165079752544
 20
98.47465584740712
 10
80.16364542643169
 20
98.4936568544872
 10
80.14963785807231
 20
98.50665734276845
 10
80.14463297525981
 20
98.52565834984853
 10
80.13065592447856
 20
98.53865502343251
 10
80.13065592447856
 20
98.53865502343251
 10
68.86066691080669
 20
108.2756545351513
 10
68.86066691080669
 20
108.2756545351513
 10
68.83765665690044
 20
108.2956549929149
 10
68.80866495768169
 20
108.3026549623974
 10
68.78367106119731
 20
108.3186538027294
 10
68.74167887369731
 20
108.3466536806591
 10
68.70066324869731
 20
108.3736541079052
 10
68.65366617838481
 20
108.391653756953
 10
68.60865275065044
 20
108.4086539553173
 10
68.56366984049419
 20
108.4166533754833
 10
68.51767985025981
 20
108.4246547029979
 10
68.48566691080669
 20
108.4306552217968
 10
68.45768229166606
 20
108.4456546114452
 10
68.42469278971294
 20
108.4466540621288
 10
68.42469278971294
 20
108.4466540621288
 10
53.62769571940044
 20
109.0136534975536
 10
53.62769571940044
 20
109.0136534975536
 10
53.62769571940044
 20
109.0136534975536
 10
53.32770792643169
 20
110.1736533449657
 10
53.32770792643169
 20
110.1736533449657
 10
53.28571573893169
 20
110.3366534517772
 10
53.18671671549419
 20
110.4786536501415
 10
53.04969278971294
 20
110.5756537722118
 10
53.04969278971294
 20
110.5756537722118
 10
40.89869181315044
 20
119.1356541918285
 10
40.89869181315044
 20
119.1356541918285
 10
40.68168131510356
 20
119.2866542147167
 10
40.39969889322856
 20
119.3066546724804
 10
40.16669718424419
 20
119.1856543825634
 10
40.16669718424419
 20
119.1856543825634
 10
23.77671305338481
 20
110.7376544283397
 10
23.77671305338481
 20
110.7376544283397
 10
23.57770792643169
 20
110.6346537874706
 10
23.43772379557231
 20
110.4426543520458
 10
23.40272013346294
 20
110.2196547792919
 10
23.40272013346294
 20
110.2196547792919
 10
21.76270548502544
 20
100.0116545961864
 10
21.76270548502544
 20
100.0116545961864
 10
21.76270548502544
 20
100.0116545961864
 10
12.21070353190044
 20
103.8326537416942
 10
12.21070353190044
 20
103.8326537416942
 10
12.21070353190044
 20
103.8326537416942
 10
12.21070353190044
 20
103.8326537416942
 10
12.21070353190044
 20
103.8326537416942
 10
12.21070353190044
 20
103.8326537416942
 10
12.19669596354106
 20
103.8376529024608
 10
12.19669596354106
 20
103.8376529024608
 10
12.11069742838481
 20
103.8716532991893
 10
12.02170817057231
 20
103.8876521395214
 10
11.93369547525981
 20
103.8876521395214
 10
11.93369547525981
 20
103.8876521395214
 10
11.93369547525981
 20
103.8876521395214
 10
11.93369547525981
 20
103.8876521395214
 10
11.93369547525981
 20
103.8876521395214
 10
5.674692789712935
 20
103.8876521395214
 10
5.674692789712935
 20
103.8876521395214
 10
5.28269449869731
 20
103.8876521395214
 10
4.96567789713481
 20
103.5706527040966
 10
4.96567789713481
 20
103.1796519564159
 10
4.96567789713481
 20
103.1796519564159
 10
4.96567789713481
 20
97.26565239892079
 10
4.96567789713481
 20
97.26565239892079
 10
4.96567789713481
 20
96.87365410790517
 10
5.282663981119185
 20
96.55765221581532
 10
5.674692789712935
 20
96.55765221581532
 10
5.674692789712935
 20
96.55765221581532
 10
8.41269938150981
 20
96.55765221581532
 10
8.41269938150981
 20
96.55765221581532
 10
8.41269938150981
 20
96.55765221581532
 10
19.13871256510356
 20
82.31065438256337
 10
19.13871256510356
 20
82.31065438256337
 10
19.14271036783794
 20
82.30465386376454
 10
19.14969889322856
 20
82.30365441308095
 10
19.15372721354106
 20
82.29765389428212
 10
19.15873209635356
 20
82.29265282616689
 10
19.15873209635356
 20
82.28465340600087
 10
19.16373697916606
 20
82.27965233788564
 10
19.21573893229106
 20
82.21765206322743
 10
19.28174845377544
 20
82.1756522463329
 10
19.34974161783794
 20
82.13565133080556
 10
19.36774698893169
 20
82.1246497438915
 10
19.38074747721294
 20
82.10665200219228
 10
19.39972941080669
 20
82.09765313134267
 10
19.49173990885356
 20
82.05265496239736
 10
19.59171549479106
 20
82.02865288720204
 10
19.69672648111919
 20
82.02665398583486
 10
19.69672648111919
 20
82.02665398583486
 10
35.42872111002544
 20
81.81265328393056
 10
35.42872111002544
 20
81.81265328393056
 10
35.42872111002544
 20
81.81265328393056
 10
37.06272379557231
 20
76.86565468773915
 10
37.06272379557231
 20
76.86565468773915
 10
37.06272379557231
 20
76.86565468773915
 10
39.76673380533794
 20
66.26165078148915
 10
39.76673380533794
 20
66.26165078148915
 10
39.76673380533794
 20
66.26165078148915
 10
35.99772135416606
 20
49.99065468773915
 10
35.99772135416606
 20
49.99065468773915
 10
35.94871012369731
 20
49.7796561525829
 10
35.99872843424419
 20
49.55865548119618
 10
36.13370768229106
 20
49.38865731225087
 10
36.26871744791606
 20
49.21965859398915
 10
36.47269694010356
 20
49.12065957055165
 10
36.68870035807231
 20
49.12065957055165
 10
36.68870035807231
 20
49.12065957055165
 10
46.69968668619731
 20
49.12065957055165
 10
46.69968668619731
 20
49.12065957055165
 10
46.88367716471294
 20
49.12065957055165
 10
47.05967203775981
 20
49.19265816674306
 10
47.19269816080669
 20
49.31965706811025
 10
47.19269816080669
 20
49.31965706811025
 10
57.92569986979106
 20
59.70266030297353
 10
57.92569986979106
 20
59.70266030297353
 10
57.92569986979106
 20
59.70266030297353
 10
66.98771158854106
 20
49.3626639650829
 10
66.98771158854106
 20
49.3626639650829
 10
67.04371134440044
 20
49.29966042504384
 10
67.11472574869731
 20
49.25466225609853
 10
67.18671671549419
 20
49.21466134057118
 10
67.20173136393169
 20
49.2066581057079
 10
67.21171061197856
 20
49.19265816674306
 10
67.22672526041606
 20
49.1856620119579
 10
67.31873575846294
 20
49.14366219506337
 10
67.41773478190044
 20
49.12165902123525
 10
67.52073160807231
 20
49.12165902123525
 10
67.52073160807231
 20
49.12165902123525
 10
79.51471964518169
 20
49.12165902123525
 10
79.51471964518169
 20
49.12165902123525
 10
79.70572916666606
 20
49.12165902123525
 10
79.88971964518169
 20
49.19966195092275
 10
80.02372233072856
 20
49.337662439204
 10
80.15671793619731
 20
49.47466347680165
 10
80.22870890299419
 20
49.6596610353954
 10
80.22272745768169
 20
49.85166237816884
 10
80.22272745768169
 20
49.85166237816884
 10
79.31074015299419
 20
80.67966149315907
 10
79.31074015299419
 20
80.67966149315907
 10
79.31074015299419
 20
80.67966149315907
 10
79.73273722330669
 20
87.53866265282704
 10
79.73273722330669
 20
87.53866265282704
 10
79.73273722330669
 20
87.53866265282704
 10
86.75672403971294
 20
88.55166314110829
 10
86.75672403971294
 20
88.55166314110829
 10
87.00773111979106
 20
88.587662439204
 10
87.22071329752544
 20
88.75566170678212
 10
87.31473795572856
 20
88.99166176781728
 10
87.40876261393169
 20
89.22766182885243
 10
87.36866251627544
 20
89.49665902123525
 10
87.21067301432231
 20
89.69565651879384
 97
        0
 97
        0
 92
        1
 93
        5
 72
     1
 10
6.38566080729106
 20
102.4716574953563
 11
10.78867594400981
 21
102.4716574953563
 72
     1
 10
10.78867594400981
 20
102.4716574953563
 11
8.54069010416606
 21
97.97465584740712
 72
     1
 10
8.54069010416606
 20
97.97465584740712
 11
6.385691324869185
 21
97.97465584740712
 72
     1
 10
6.385691324869185
 20
97.97465584740712
 11
6.385691324869185
 21
102.4716574953563
 72
     1
 10
6.385691324869185
 20
102.4716574953563
 11
6.38566080729106
 21
102.4716574953563
 97
        0
 92
        1
 93
        4
 72
     1
 10
12.27765909830669
 20
102.2796580599315
 11
21.53367106119731
 21
98.57765648827626
 72
     1
 10
21.53367106119731
 20
98.57765648827626
 11
19.27067057291606
 21
84.4926574038036
 72
     1
 10
19.27067057291606
 20
84.4926574038036
 11
9.724680582681685
 21
97.17365715966298
 72
     1
 10
9.724680582681685
 20
97.17365715966298
 11
12.27765909830669
 21
102.2796580599315
 97
        0
 92
        1
 93
        6
 72
     1
 10
24.74466959635356
 20
109.6416575716503
 11
40.43366495768169
 21
117.7286574648388
 72
     1
 10
40.43366495768169
 20
117.7286574648388
 11
52.02067057291606
 21
109.5666587160595
 72
     1
 10
52.02067057291606
 20
109.5666587160595
 11
54.28266398111919
 21
100.8106581972606
 72
     1
 10
54.28266398111919
 20
100.8106581972606
 11
35.66666666666606
 21
83.22865746483876
 72
     1
 10
35.66666666666606
 20
83.22865746483876
 11
20.53666178385356
 21
83.43365929589345
 72
     1
 10
20.53666178385356
 20
83.43365929589345
 11
24.74466959635356
 21
109.6416575716503
 97
        0
 92
        1
 93
        6
 72
     1
 10
55.35965983072856
 20
99.87865899071767
 11
65.48365275065044
 21
100.0326583193309
 72
     1
 10
65.48365275065044
 20
100.0326583193309
 11
70.64164225260356
 21
93.14165947899892
 72
     1
 10
70.64164225260356
 20
93.14165947899892
 11
66.43064371744731
 21
76.54065773949696
 72
     1
 10
66.43064371744731
 20
76.54065773949696
 11
38.26163736979106
 21
77.75565789208486
 72
     1
 10
38.26163736979106
 20
77.75565789208486
 11
36.75763956705669
 21
82.30965874657704
 72
     1
 10
36.75763956705669
 20
82.30965874657704
 11
55.35965983072856
 21
99.87865899071767
 97
        0
 92
        1
 93
        1
 72
     4
 94
        3
 73
     0
 74
     1
 95
       56
 96
       52
 40
0.0
 40
0.0
 40
0.0
 40
0.0
 40
1.0
 40
1.0
 40
1.0
 40
2.0
 40
2.0
 40
2.0
 40
3.0
 40
3.0
 40
3.0
 40
4.0
 40
4.0
 40
4.0
 40
5.0
 40
5.0
 40
5.0
 40
6.0
 40
6.0
 40
6.0
 40
7.0
 40
7.0
 40
7.0
 40
8.0
 40
8.0
 40
8.0
 40
9.0
 40
9.0
 40
9.0
 40
10.0
 40
10.0
 40
10.0
 40
11.0
 40
11.0
 40
11.0
 40
12.0
 40
12.0
 40
12.0
 40
13.0
 40
13.0
 40
13.0
 40
14.0
 40
14.0
 40
14.0
 40
15.0
 40
15.0
 40
15.0
 40
16.0
 40
16.0
 40
16.0
 40
17.0
 40
17.0
 40
17.0
 40
17.0
 10
46.41266886393169
 20
50.54065773949696
 10
46.41266886393169
 20
50.54065773949696
 10
37.58066813150981
 20
50.54065773949696
 10
37.58066813150981
 20
50.54065773949696
 10
37.58066813150981
 20
50.54065773949696
 10
41.18665568033794
 20
66.11065743432118
 10
41.18665568033794
 20
66.11065743432118
 10
41.21164957682231
 20
66.22065804467275
 10
41.21064249674419
 20
66.33665535912587
 10
41.18265787760356
 20
66.44565651879384
 10
41.18265787760356
 20
66.44565651879384
 10
38.66364542643169
 20
76.32065651879384
 10
38.66364542643169
 20
76.32065651879384
 10
38.66364542643169
 20
76.32065651879384
 10
66.94465128580669
 20
75.10065529809071
 10
66.94465128580669
 20
75.10065529809071
 10
66.95466105143169
 20
75.10065529809071
 10
66.96564737955669
 20
75.09965584740712
 10
66.97465006510356
 20
75.09965584740712
 10
67.29764811197856
 20
75.09965584740712
 10
67.58063761393169
 20
75.31965706811025
 10
67.66166178385356
 20
75.63465569481923
 10
67.66166178385356
 20
75.63465569481923
 10
72.09867350260356
 20
93.12165520653798
 10
72.09867350260356
 20
93.12165520653798
 10
72.15168253580669
 20
93.32965538964345
 10
72.10767618815044
 20
93.54965661034657
 10
71.97968546549419
 20
93.72065422997548
 10
71.97968546549419
 20
93.72065422997548
 10
66.40168253580669
 20
101.1716544435985
 10
66.40168253580669
 20
101.1716544435985
 10
66.26569620768169
 20
101.3536536501415
 10
66.04169718424419
 20
101.4606559084423
 10
65.82367960611919
 20
101.455654840327
 10
65.82367960611919
 20
101.455654840327
 10
55.62067667643169
 20
101.2996566103466
 10
55.62067667643169
 20
101.2996566103466
 10
55.62067667643169
 20
101.2996566103466
 10
53.99866739908794
 20
107.5816561983593
 10
53.99866739908794
 20
107.5816561983593
 10
53.99866739908794
 20
107.5816561983593
 10
68.12266031900981
 20
107.0396563814647
 10
68.12266031900981
 20
107.0396563814647
 10
68.12266031900981
 20
107.0396563814647
 10
78.93866984049419
 20
97.69465706811025
 10
78.93866984049419
 20
97.69465706811025
 10
78.93866984049419
 20
97.69465706811025
 10
77.91266886393169
 20
81.01065896020009
 10
77.91266886393169
 20
81.01065896020009
 10
77.91266886393169
 20
81.01065896020009
 10
46.41266886393169
 20
50.54065773949696
 10
46.41266886393169
 20
50.54065773949696
 97
        0
 97
        0
 92
        1
 93
        4
 72
     1
 10
77.94266764322856
 20
79.06665871605946
 11
78.50867716471294
 21
59.92665932641103
 72
     1
 10
78.50867716471294
 20
59.92665932641103
 11
67.59867350260356
 21
50.81865761742665
 72
     1
 10
67.59867350260356
 20
50.81865761742665
 11
58.94565836588481
 21
60.69065926537587
 72
     1
 10
58.94565836588481
 20
60.69065926537587
 11
77.94266764322856
 21
79.06665871605946
 97
        0
 92
        1
 93
        3
 72
     1
 10
69.47767130533794
 20
50.54065773949696
 11
78.56266276041606
 21
58.12565682396962
 72
     1
 10
78.56266276041606
 20
58.12565682396962
 11
78.78766886393169
 21
50.54065773949696
 72
     1
 10
78.78766886393169
 20
50.54065773949696
 11
69.47767130533794
 21
50.54065773949696
 97
        0
 92
        1
 93
        3
 72
     1
 10
79.82267252604106
 20
88.98465798363759
 11
80.26066080729106
 21
96.12365792260243
 72
     1
 10
80.26066080729106
 20
96.12365792260243
 11
85.32966105143169
 21
89.77865670189931
 72
     1
 10
85.32966105143169
 20
89.77865670189931
 11
79.82267252604106
 21
88.98465798363759
 97
        0
 75
     2
 76
     1
 98
        0
  0
ENDSEC
  0
SECTION
  2
OBJECTS
  0
DICTIONARY
  5
C
330
0
100
AcDbDictionary
281
     1
  3
ACAD_GROUP
350
D
  3
ACAD_LAYOUT
350
1A
  3
ACAD_MATERIAL
350
3B
  3
ACAD_MLEADERSTYLE
350
79
  3
ACAD_MLINESTYLE
350
17
  3
ACAD_PLOTSETTINGS
350
19
  3
ACAD_PLOTSTYLENAME
350
E
  3
ACAD_TABLESTYLE
350
78
  3
ACAD_VISUALSTYLE
350
2A
  0
SUN
  5
3F
330
29
100
AcDbSun
 90
        1
290
     0
 63
     7
421
 16777215
 40
1.0
291
     1
 91
  2455826
 92
 54000000
292
     0
 70
     2
 71
   256
280
     1
  0
DICTIONARY
  5
D
102
{ACAD_REACTORS
330
C
102
}
330
C
100
AcDbDictionary
281
     1
  0
DICTIONARY
  5
1A
102
{ACAD_REACTORS
330
C
102
}
330
C
100
AcDbDictionary
281
     1
  3
Layout1
350
1E
  3
Layout2
350
26
  3
Model
350
22
  0
DICTIONARY
  5
3B
102
{ACAD_REACTORS
330
C
102
}
330
C
100
AcDbDictionary
281
     1
  3
ByBlock
350
3D
  3
ByLayer
350
3C
  3
Global
350
3E
  0
DICTIONARY
  5
79
102
{ACAD_REACTORS
330
C
102
}
330
C
100
AcDbDictionary
281
     1
  0
DICTIONARY
  5
17
102
{ACAD_REACTORS
330
C
102
}
330
C
100
AcDbDictionary
281
     1
  3
Standard
350
18
  0
DICTIONARY
  5
19
102
{ACAD_REACTORS
330
C
102
}
330
C
100
AcDbDictionary
281
     1
  0
ACDBDICTIONARYWDFLT
  5
E
102
{ACAD_REACTORS
330
C
102
}
330
C
100
AcDbDictionary
281
     1
  3
Normal
350
F
100
AcDbDictionaryWithDefault
340
F
  0
DICTIONARY
  5
78
102
{ACAD_REACTORS
330
C
102
}
330
C
100
AcDbDictionary
281
     1
  0
DICTIONARY
  5
2A
102
{ACAD_REACTORS
330
C
102
}
330
C
100
AcDbDictionary
281
     1
  3
2dWireframe
350
2F
  3
3D Hidden
350
31
  3
3dWireframe
350
30
  3
Basic
350
32
  3
Brighten
350
36
  3
ColorChange
350
3A
  3
Conceptual
350
34
  3
Dim
350
35
  3
Facepattern
350
39
  3
Flat
350
2B
  3
FlatWithEdges
350
2C
  3
Gouraud
350
2D
  3
GouraudWithEdges
350
2E
  3
Linepattern
350
38
  3
Realistic
350
33
  3
Thicken
350
37
  0
LAYOUT
  5
1E
102
{ACAD_REACTORS
330
1A
102
}
330
1A
100
AcDbPlotSettings
  1

  2
none_device
  4

  6

 40
0.0
 41
0.0
 42
0.0
 43
0.0
 44
0.0
 45
0.0
 46
0.0
 47
0.0
 48
0.0
 49
0.0
140
0.0
141
0.0
142
1.0
143
1.0
 70
   688
 72
     0
 73
     0
 74
     5
  7

 75
    16
 76
     0
 77
     2
 78
   300
147
1.0
148
0.0
149
0.0
100
AcDbLayout
  1
Layout1
 70
     1
 71
     1
 10
0.0
 20
0.0
 11
12.0
 21
9.0
 12
0.0
 22
0.0
 32
0.0
 14
1.000000000000000E+20
 24
1.000000000000000E+20
 34
1.000000000000000E+20
 15
-1.000000000000000E+20
 25
-1.000000000000000E+20
 35
-1.000000000000000E+20
146
0.0
 13
0.0
 23
0.0
 33
0.0
 16
1.0
 26
0.0
 36
0.0
 17
0.0
 27
1.0
 37
0.0
 76
     0
330
1B
  0
LAYOUT
  5
26
102
{ACAD_REACTORS
330
1A
102
}
330
1A
100
AcDbPlotSettings
  1

  2
none_device
  4

  6

 40
0.0
 41
0.0
 42
0.0
 43
0.0
 44
0.0
 45
0.0
 46
0.0
 47
0.0
 48
0.0
 49
0.0
140
0.0
141
0.0
142
1.0
143
1.0
 70
   688
 72
     0
 73
     0
 74
     5
  7

 75
    16
 76
     0
 77
     2
 78
   300
147
1.0
148
0.0
149
0.0
100
AcDbLayout
  1
Layout2
 70
     1
 71
     2
 10
0.0
 20
0.0
 11
0.0
 21
0.0
 12
0.0
 22
0.0
 32
0.0
 14
0.0
 24
0.0
 34
0.0
 15
0.0
 25
0.0
 35
0.0
146
0.0
 13
0.0
 23
0.0
 33
0.0
 16
1.0
 26
0.0
 36
0.0
 17
0.0
 27
1.0
 37
0.0
 76
     0
330
23
  0
LAYOUT
  5
22
102
{ACAD_REACTORS
330
1A
102
}
330
1A
100
AcDbPlotSettings
  1

  2
none_device
  4

  6

 40
0.0
 41
0.0
 42
0.0
 43
0.0
 44
0.0
 45
0.0
 46
0.0
 47
0.0
 48
0.0
 49
0.0
140
0.0
141
0.0
142
1.0
143
1.0
 70
  1712
 72
     0
 73
     0
 74
     0
  7

 75
     0
 76
     0
 77
     2
 78
   300
147
1.0
148
0.0
149
0.0
100
AcDbLayout
  1
Model
 70
     1
 71
     0
 10
0.0
 20
0.0
 11
12.0
 21
9.0
 12
0.0
 22
0.0
 32
0.0
 14
1.000000000000000E+20
 24
1.000000000000000E+20
 34
1.000000000000000E+20
 15
-1.000000000000000E+20
 25
-1.000000000000000E+20
 35
-1.000000000000000E+20
146
0.0
 13
0.0
 23
0.0
 33
0.0
 16
1.0
 26
0.0
 36
0.0
 17
0.0
 27
1.0
 37
0.0
 76
     0
330
1F
331
29
  0
MATERIAL
  5
3D
102
{ACAD_REACTORS
330
3B
102
}
330
3B
100
AcDbMaterial
  1
ByBlock
 72
     1
 94
      127
  0
MATERIAL
  5
3C
102
{ACAD_REACTORS
330
3B
102
}
330
3B
100
AcDbMaterial
  1
ByLayer
 72
     1
 94
      127
  0
MATERIAL
  5
3E
102
{ACAD_REACTORS
330
3B
102
}
330
3B
100
AcDbMaterial
  1
Global
 72
     1
 94
      127
  0
MLINESTYLE
  5
18
102
{ACAD_REACTORS
330
17
102
}
330
17
100
AcDbMlineStyle
  2
Standard
 70
     0
  3

 62
   256
 51
90.0
 52
90.0
 71
     2
 49
0.5
 62
   256
  6
BYLAYER
 49
-0.5
 62
   256
  6
BYLAYER
  0
ACDBPLACEHOLDER
  5
F
102
{ACAD_REACTORS
330
E
102
}
330
E
  0
VISUALSTYLE
  5
2F
102
{ACAD_REACTORS
330
2A
102
}
330
2A
100
AcDbVisualStyle
  2
2dWireframe
 70
     4
177
     2
291
     0
 71
     0
176
     1
 72
     2
176
     1
 73
     0
176
     1
 90
        0
176
     1
 40
-0.6
176
     1
 41
-30.0
176
     1
 62
     5
 63
     7
421
 16777215
176
     1
 74
     1
176
     1
 91
        4
176
     1
 64
     7
176
     1
 65
   257
176
     1
 75
     1
176
     1
175
     1
176
     1
 42
1.0
176
     1
 92
        0
176
     1
 66
   257
176
     1
 43
1.0
176
     1
 76
     1
176
     1
 77
     6
176
     1
 78
     2
176
     1
 67
     7
176
     1
 79
     5
176
     1
170
     0
176
     1
171
     0
176
     1
290
     0
176
     1
 93
        1
176
     1
 44
0.0
176
     1
173
     0
176
     1
  0
VISUALSTYLE
  5
31
102
{ACAD_REACTORS
330
2A
102
}
330
2A
100
AcDbVisualStyle
  2
3D Hidden
 70
     6
177
     2
291
     0
 71
     1
176
     1
 72
     2
176
     1
 73
     2
176
     1
 90
        0
176
     1
 40
-0.6
176
     1
 41
-30.0
176
     1
 62
     5
 63
     7
421
 16777215
176
     1
 74
     2
176
     1
 91
        2
176
     1
 64
     7
176
     1
 65
   257
176
     1
 75
     2
176
     1
175
     1
176
     1
 42
40.0
176
     1
 92
        0
176
     1
 66
   257
176
     1
 43
1.0
176
     1
 76
     1
176
     1
 77
     6
176
     1
 78
     2
176
     1
 67
     7
176
     1
 79
     3
176
     1
170
     0
176
     1
171
     0
176
     1
290
     0
176
     1
 93
        1
176
     1
 44
0.0
176
     1
173
     0
176
     1
  0
VISUALSTYLE
  5
30
102
{ACAD_REACTORS
330
2A
102
}
330
2A
100
AcDbVisualStyle
  2
3dWireframe
 70
     5
177
     2
291
     0
 71
     0
176
     1
 72
     2
176
     1
 73
     0
176
     1
 90
        0
176
     1
 40
-0.6
176
     1
 41
-30.0
176
     1
 62
     5
 63
     7
421
 16777215
176
     1
 74
     1
176
     1
 91
        4
176
     1
 64
     7
176
     1
 65
   257
176
     1
 75
     1
176
     1
175
     1
176
     1
 42
1.0
176
     1
 92
        0
176
     1
 66
   257
176
     1
 43
1.0
176
     1
 76
     1
176
     1
 77
     6
176
     1
 78
     2
176
     1
 67
     7
176
     1
 79
     5
176
     1
170
     0
176
     1
171
     0
176
     1
290
     0
176
     1
 93
        1
176
     1
 44
0.0
176
     1
173
     0
176
     1
  0
VISUALSTYLE
  5
32
102
{ACAD_REACTORS
330
2A
102
}
330
2A
100
AcDbVisualStyle
  2
Basic
 70
     7
177
     2
291
     1
 71
     1
176
     1
 72
     0
176
     1
 73
     1
176
     1
 90
        0
176
     1
 40
-0.6
176
     1
 41
-30.0
176
     1
 62
     5
 63
     7
421
 16777215
176
     1
 74
     0
176
     1
 91
        4
176
     1
 64
     7
176
     1
 65
   257
176
     1
 75
     1
176
     1
175
     1
176
     1
 42
1.0
176
     1
 92
        8
176
     1
 66
     7
176
     1
 43
1.0
176
     1
 76
     1
176
     1
 77
     6
176
     1
 78
     2
176
     1
 67
     7
176
     1
 79
     5
176
     1
170
     0
176
     1
171
     0
176
     1
290
     0
176
     1
 93
        1
176
     1
 44
0.0
176
     1
173
     0
176
     1
  0
VISUALSTYLE
  5
36
102
{ACAD_REACTORS
330
2A
102
}
330
2A
100
AcDbVisualStyle
  2
Brighten
 70
    12
177
     2
291
     1
 71
     2
176
     1
 72
     2
176
     1
 73
     0
176
     1
 90
        0
176
     1
 40
-0.6
176
     1
 41
-30.0
176
     1
 62
     5
 63
     7
421
 16777215
176
     1
 74
     1
176
     1
 91
        4
176
     1
 64
     7
176
     1
 65
   257
176
     1
 75
     1
176
     1
175
     1
176
     1
 42
1.0
176
     1
 92
        8
176
     1
 66
     7
176
     1
 43
1.0
176
     1
 76
     1
176
     1
 77
     6
176
     1
 78
     2
176
     1
 67
     7
176
     1
 79
     5
176
     1
170
     0
176
     1
171
     0
176
     1
290
     0
176
     1
 93
        1
176
     1
 44
50.0
176
     1
173
     0
176
     1
  0
VISUALSTYLE
  5
3A
102
{ACAD_REACTORS
330
2A
102
}
330
2A
100
AcDbVisualStyle
  2
ColorChange
 70
    16
177
     2
291
     1
 71
     2
176
     1
 72
     2
176
     1
 73
     3
176
     1
 90
        0
176
     1
 40
-0.6
176
     1
 41
-30.0
176
     1
 62
     5
 63
     8
421
  8421504
176
     1
 74
     1
176
     1
 91
        4
176
     1
 64
     7
176
     1
 65
   257
176
     1
 75
     1
176
     1
175
     1
176
     1
 42
1.0
176
     1
 92
        8
176
     1
 66
     8
424
  8421504
176
     1
 43
1.0
176
     1
 76
     1
176
     1
 77
     6
176
     1
 78
     2
176
     1
 67
     7
176
     1
 79
     5
176
     1
170
     0
176
     1
171
     0
176
     1
290
     0
176
     1
 93
        1
176
     1
 44
0.0
176
     1
173
     0
176
     1
  0
VISUALSTYLE
  5
34
102
{ACAD_REACTORS
330
2A
102
}
330
2A
100
AcDbVisualStyle
  2
Conceptual
 70
     9
177
     2
291
     0
 71
     3
176
     1
 72
     2
176
     1
 73
     0
176
     1
 90
        0
176
     1
 40
-0.6
176
     1
 41
-30.0
176
     1
 62
     5
 63
     7
421
 16777215
176
     1
 74
     2
176
     1
 91
        2
176
     1
 64
     7
176
     1
 65
   257
176
     1
 75
     1
176
     1
175
     1
176
     1
 42
40.0
176
     1
 92
        8
176
     1
 66
     7
176
     1
 43
1.0
176
     1
 76
     1
176
     1
 77
     6
176
     1
 78
     2
176
     1
 67
     7
176
     1
 79
     3
176
     1
170
     0
176
     1
171
     0
176
     1
290
     0
176
     1
 93
        1
176
     1
 44
0.0
176
     1
173
     0
176
     1
  0
VISUALSTYLE
  5
35
102
{ACAD_REACTORS
330
2A
102
}
330
2A
100
AcDbVisualStyle
  2
Dim
 70
    11
177
     2
291
     1
 71
     2
176
     1
 72
     2
176
     1
 73
     0
176
     1
 90
        0
176
     1
 40
-0.6
176
     1
 41
-30.0
176
     1
 62
     5
 63
     7
421
 16777215
176
     1
 74
     1
176
     1
 91
        4
176
     1
 64
     7
176
     1
 65
   257
176
     1
 75
     1
176
     1
175
     1
176
     1
 42
1.0
176
     1
 92
        8
176
     1
 66
     7
176
     1
 43
1.0
176
     1
 76
     1
176
     1
 77
     6
176
     1
 78
     2
176
     1
 67
     7
176
     1
 79
     5
176
     1
170
     0
176
     1
171
     0
176
     1
290
     0
176
     1
 93
        1
176
     1
 44
-50.0
176
     1
173
     0
176
     1
  0
VISUALSTYLE
  5
39
102
{ACAD_REACTORS
330
2A
102
}
330
2A
100
AcDbVisualStyle
  2
Facepattern
 70
    15
177
     2
291
     1
 71
     2
176
     1
 72
     2
176
     1
 73
     0
176
     1
 90
        0
176
     1
 40
-0.6
176
     1
 41
-30.0
176
     1
 62
     5
 63
     7
421
 16777215
176
     1
 74
     1
176
     1
 91
        4
176
     1
 64
     7
176
     1
 65
   257
176
     1
 75
     1
176
     1
175
     1
176
     1
 42
1.0
176
     1
 92
        8
176
     1
 66
     7
176
     1
 43
1.0
176
     1
 76
     1
176
     1
 77
     6
176
     1
 78
     2
176
     1
 67
     7
176
     1
 79
     5
176
     1
170
     0
176
     1
171
     0
176
     1
290
     0
176
     1
 93
        1
176
     1
 44
0.0
176
     1
173
     0
176
     1
  0
VISUALSTYLE
  5
2B
102
{ACAD_REACTORS
330
2A
102
}
330
2A
100
AcDbVisualStyle
  2
Flat
 70
     0
177
     2
291
     1
 71
     2
176
     1
 72
     1
176
     1
 73
     1
176
     1
 90
        2
176
     1
 40
-0.6
176
     1
 41
30.0
176
     1
 62
     5
 63
     7
421
 16777215
176
     1
 74
     0
176
     1
 91
        4
176
     1
 64
     7
176
     1
 65
   257
176
     1
 75
     1
176
     1
175
     1
176
     1
 42
1.0
176
     1
 92
        8
176
     1
 66
     7
176
     1
 43
1.0
176
     1
 76
     1
176
     1
 77
     6
176
     1
 78
     2
176
     1
 67
     7
176
     1
 79
     5
176
     1
170
     0
176
     1
171
     0
176
     1
290
     0
176
     1
 93
       13
176
     1
 44
0.0
176
     1
173
     0
176
     1
  0
VISUALSTYLE
  5
2C
102
{ACAD_REACTORS
330
2A
102
}
330
2A
100
AcDbVisualStyle
  2
FlatWithEdges
 70
     1
177
     2
291
     1
 71
     2
176
     1
 72
     1
176
     1
 73
     1
176
     1
 90
        2
176
     1
 40
-0.6
176
     1
 41
30.0
176
     1
 62
     5
 63
     7
421
 16777215
176
     1
 74
     1
176
     1
 91
        4
176
     1
 64
     7
176
     1
 65
   257
176
     1
 75
     1
176
     1
175
     1
176
     1
 42
1.0
176
     1
 92
        0
176
     1
 66
   257
176
     1
 43
1.0
176
     1
 76
     1
176
     1
 77
     6
176
     1
 78
     2
176
     1
 67
     7
176
     1
 79
     5
176
     1
170
     0
176
     1
171
     0
176
     1
290
     0
176
     1
 93
       13
176
     1
 44
0.0
176
     1
173
     0
176
     1
  0
VISUALSTYLE
  5
2D
102
{ACAD_REACTORS
330
2A
102
}
330
2A
100
AcDbVisualStyle
  2
Gouraud
 70
     2
177
     2
291
     1
 71
     2
176
     1
 72
     2
176
     1
 73
     1
176
     1
 90
        2
176
     1
 40
-0.6
176
     1
 41
30.0
176
     1
 62
     5
 63
     7
421
 16777215
176
     1
 74
     0
176
     1
 91
        4
176
     1
 64
     7
176
     1
 65
   257
176
     1
 75
     1
176
     1
175
     1
176
     1
 42
1.0
176
     1
 92
        0
176
     1
 66
     7
176
     1
 43
1.0
176
     1
 76
     1
176
     1
 77
     6
176
     1
 78
     2
176
     1
 67
     7
176
     1
 79
     5
176
     1
170
     0
176
     1
171
     0
176
     1
290
     0
176
     1
 93
       13
176
     1
 44
0.0
176
     1
173
     0
176
     1
  0
VISUALSTYLE
  5
2E
102
{ACAD_REACTORS
330
2A
102
}
330
2A
100
AcDbVisualStyle
  2
GouraudWithEdges
 70
     3
177
     2
291
     1
 71
     2
176
     1
 72
     2
176
     1
 73
     1
176
     1
 90
        2
176
     1
 40
-0.6
176
     1
 41
30.0
176
     1
 62
     5
 63
     7
421
 16777215
176
     1
 74
     1
176
     1
 91
        4
176
     1
 64
     7
176
     1
 65
   257
176
     1
 75
     1
176
     1
175
     1
176
     1
 42
1.0
176
     1
 92
        0
176
     1
 66
   257
176
     1
 43
1.0
176
     1
 76
     1
176
     1
 77
     6
176
     1
 78
     2
176
     1
 67
     7
176
     1
 79
     5
176
     1
170
     0
176
     1
171
     0
176
     1
290
     0
176
     1
 93
       13
176
     1
 44
0.0
176
     1
173
     0
176
     1
  0
VISUALSTYLE
  5
38
102
{ACAD_REACTORS
330
2A
102
}
330
2A
100
AcDbVisualStyle
  2
Linepattern
 70
    14
177
     2
291
     1
 71
     2
176
     1
 72
     2
176
     1
 73
     0
176
     1
 90
        0
176
     1
 40
-0.6
176
     1
 41
-30.0
176
     1
 62
     5
 63
     7
421
 16777215
176
     1
 74
     1
176
     1
 91
        4
176
     1
 64
     7
176
     1
 65
   257
176
     1
 75
     7
176
     1
175
     7
176
     1
 42
1.0
176
     1
 92
        8
176
     1
 66
     7
176
     1
 43
1.0
176
     1
 76
     1
176
     1
 77
     6
176
     1
 78
     2
176
     1
 67
     7
176
     1
 79
     5
176
     1
170
     0
176
     1
171
     0
176
     1
290
     0
176
     1
 93
        1
176
     1
 44
0.0
176
     1
173
     0
176
     1
  0
VISUALSTYLE
  5
33
102
{ACAD_REACTORS
330
2A
102
}
330
2A
100
AcDbVisualStyle
  2
Realistic
 70
     8
177
     2
291
     0
 71
     2
176
     1
 72
     2
176
     1
 73
     0
176
     1
 90
        0
176
     1
 40
-0.6
176
     1
 41
-30.0
176
     1
 62
     5
 63
     7
421
 16777215
176
     1
 74
     1
176
     1
 91
        0
176
     1
 64
     7
176
     1
 65
   257
176
     1
 75
     1
176
     1
175
     1
176
     1
 42
1.0
176
     1
 92
        8
176
     1
 66
     8
424
  7895160
176
     1
 43
1.0
176
     1
 76
     1
176
     1
 77
     6
176
     1
 78
     2
176
     1
 67
     7
176
     1
 79
     5
176
     1
170
     0
176
     1
171
     0
176
     1
290
     0
176
     1
 93
       13
176
     1
 44
0.0
176
     1
173
     0
176
     1
  0
VISUALSTYLE
  5
37
102
{ACAD_REACTORS
330
2A
102
}
330
2A
100
AcDbVisualStyle
  2
Thicken
 70
    13
177
     2
291
     1
 71
     2
176
     1
 72
     2
176
     1
 73
     0
176
     1
 90
        0
176
     1
 40
-0.6
176
     1
 41
-30.0
176
     1
 62
     5
 63
     7
421
 16777215
176
     1
 74
     1
176
     1
 91
        4
176
     1
 64
     7
176
     1
 65
   257
176
     1
 75
     1
176
     1
175
     1
176
     1
 42
1.0
176
     1
 92
       12
176
     1
 66
     7
176
     1
 43
1.0
176
     1
 76
     1
176
     1
 77
     6
176
     1
 78
     2
176
     1
 67
     7
176
     1
 79
     5
176
     1
170
     0
176
     1
171
     0
176
     1
290
     0
176
     1
 93
        1
176
     1
 44
0.0
176
     1
173
     0
176
     1
  0
ENDSEC
  0
EOF
