<?xml version="1.0" encoding="utf-8"?>
<!-- Generator: Adobe Illustrator 19.2.1, SVG Export Plug-In . SVG Version: 6.00 Build 0)  -->
<svg version="1.1" id="Layer_1" xmlns="http://www.w3.org/2000/svg" xmlns:xlink="http://www.w3.org/1999/xlink" x="0px" y="0px"
	 viewBox="0 0 100 125" style="enable-background:new 0 0 100 125;" xml:space="preserve">
<path d="M56.4,65.7l-6.8-11.6c-0.1-0.1-0.2-0.2-0.3-0.3l-15.2-7l-8.6-31.9l0.8,0c0,0,0,0,0,0c0.2,0,0.5-0.1,0.6-0.3
	c0.1-0.2,0.1-0.5,0-0.7l-0.8-1.2l2-0.4c0.3-0.1,0.5-0.3,0.5-0.6c0.1-0.3-0.1-0.6-0.3-0.7l-5.9-4c0,0,0,0,0,0c0,0-0.1,0-0.1,0
	c-0.1,0-0.2-0.1-0.2-0.1c0,0,0,0,0,0h-4.8c-0.2,0-0.3,0.1-0.4,0.1l-4.3,3.4c-0.2,0.1-0.3,0.3-0.3,0.5l-0.1,2.6
	c0,0.4,0.3,0.7,0.7,0.7l5.2,0.3l6.7,37.8L19.8,64c0,0.1,0,0.1-0.1,0.2c0,0,0,0,0,0c0,0.1,0,0.1,0,0.2l5.4,28.3
	c0.1,0.3,0.4,0.6,0.7,0.6h3.1c0.2,0,0.4-0.1,0.5-0.2s0.2-0.3,0.2-0.5l-0.1-0.8l0.7,2.7c0.1,0.3,0.4,0.5,0.7,0.5h2.6
	c0.4,0,0.7-0.3,0.7-0.7V71.6H45v20.9c0,0.4,0.3,0.7,0.7,0.7h1.9c0.3,0,0.5-0.2,0.6-0.4l0.5-1.1v2.5c0,0.4,0.3,0.7,0.7,0.7h2.1
	c0.3,0,0.6-0.2,0.7-0.5l4.3-17.3c0-0.1,0-0.1,0-0.2v-6.1v-4.9C56.5,65.9,56.5,65.8,56.4,65.7z M55.1,66.3v4H33.9l-9-9.1l1.4-8.3
	l7.3-4.7L48.5,55L55.1,66.3z M23.5,61l-1.2,1L24,58L23.5,61z M25.5,11.4L24.6,10l1.8,1.2L25.5,11.4z M13.9,11.3l3.9-3h4.2l2.6,4.3
	c0,0,0,0,0,0l0.6,0.9l-11.3-0.6L13.9,11.3z M24.1,14.8L32.8,47l-6.6,4.2l-6.5-36.6L24.1,14.8z M28.2,91.9h-1.8l-5.2-27.3l1.8-1.5
	l-0.4,2.2c0,0.1,0,0.2,0,0.3l4.8,18.1L28.2,91.9z M31.5,93.6l-7.5-28.1l0.5-2.6l8.3,8.4v22.3H31.5z M47.1,91.9h-0.7V71.6h2.3v17
	L47.1,91.9z M51,93.6h-0.8V71.6h4.9v5.3L51,93.6z"/>
</svg>
