<?xml version="1.0" encoding="utf-8"?>
<!-- Generator: Adobe Illustrator 19.2.1, SVG Export Plug-In . SVG Version: 6.00 Build 0)  -->
<svg version="1.1" id="Layer_1" xmlns="http://www.w3.org/2000/svg" xmlns:xlink="http://www.w3.org/1999/xlink" x="0px" y="0px"
	 viewBox="0 0 100 125" style="enable-background:new 0 0 100 125;" xml:space="preserve">
<path d="M73.1,34.9c-0.1-0.3-0.4-0.6-0.8-0.5l-21.8,3.3l-4.4-11.6c-0.1-0.2-0.2-0.3-0.4-0.4l-6.1-2.4l2.8-12.2
	c0.1-0.3,0-0.5-0.2-0.7c-0.2-0.2-0.5-0.2-0.7-0.1l-1.9,0.9l-0.6-3.3c0-0.2-0.2-0.4-0.4-0.5c-0.2-0.1-0.4-0.1-0.6,0l-11.4,4.7
	c-0.2,0.1-0.3,0.2-0.4,0.4L24.1,17l-11.9-4.6c-0.3-0.1-0.6,0-0.8,0.2c-0.2,0.2-0.3,0.5-0.2,0.8l12.4,33.4c0.1,0.3,0.4,0.5,0.7,0.5
	c0,0,0.1,0,0.1,0c0,0,0,0,0,0c0,0,0,0,0,0l20.1,0.1c0,0,0,0,0,0c0.1,0,0.2,0,0.3,0l7.4-2.9c0,0,0,0,0,0c0,0,0,0,0,0l20.5-8.5
	C73,35.6,73.2,35.2,73.1,34.9z M27.2,21.3l8.2,4.3l-10.7,0.8L27.2,21.3z M37.7,25.2l-9.9-5.1l1.2-2.5l11.8-5.4L37.7,25.2z
	 M27.4,13.3L37.7,9l0.5,2.8l-10.1,4.6c-0.2,0.1-0.3,0.2-0.3,0.3l-0.7,1.4l-1.7-0.6L27.4,13.3z M23,26.8c0,0.1,0,0.2-0.1,0.3L23.4,42
	L13.2,14.2l13.4,5.2L23,26.8z M44.5,45.8L25,45.7l-0.6-17.9c0.1,0.1,0.3,0.1,0.4,0.1l13.5-1c0.3,0,0.6-0.2,0.6-0.5l0.4-1.5l5.6,2.2
	l6.2,16.3L44.5,45.8z M52.4,42.7L51,39l15.8-2.4L52.4,42.7z"/>
</svg>
