<?xml version="1.0" encoding="utf-8"?>
<!-- Generator: Adobe Illustrator 19.2.1, SVG Export Plug-In . SVG Version: 6.00 Build 0)  -->
<svg version="1.1" id="Layer_1" xmlns="http://www.w3.org/2000/svg" xmlns:xlink="http://www.w3.org/1999/xlink" x="0px" y="0px"
	 viewBox="0 0 100 125" style="enable-background:new 0 0 100 125;" xml:space="preserve">
<path d="M66,44.4l-16.3-12c0,0-0.1,0-0.1-0.1l0,0c-0.1-0.1-0.2-0.1-0.3-0.1c-1.2-0.4-4.7-0.6-14.9-1c-0.1,0-0.3,0-0.4,0.1l-7.7,4.7
	l-3.8-2l-1-21.4c0,0,0,0,0-0.1c0-0.1,0-0.1-0.1-0.2c0,0,0-0.1,0-0.1c0,0,0,0,0,0l-2.7-3.7c-0.1-0.1-0.3-0.2-0.4-0.3L12.3,7
	c0,0,0,0,0,0l0,0c0,0,0,0,0,0c-0.1,0-0.2,0-0.2,0c0,0-0.1,0-0.1,0c-0.1,0-0.1,0.1-0.2,0.1c0,0,0,0-0.1,0c0,0,0,0,0,0
	c0,0,0,0-0.1,0.1l-4.4,6.2c0,0,0,0.1,0,0.1c0,0.1-0.1,0.1-0.1,0.2c0,0,0,0.1,0,0.1c0,0,0,0.1,0,0.1l0.6,4.9c0,0.3,0.3,0.6,0.7,0.6
	l1.6,0.1c0,0,0,0,0,0c0.3,0,0.5-0.1,0.6-0.4l1.5-2.6l1.4-0.9l2.3-0.6l-3.6,23.8c0,0.1,0,0.3,0.1,0.4l3.3,6.6c0,0,0,0,0,0
	c0,0.1,0.1,0.1,0.2,0.2c0,0,0.1,0,0.1,0.1c0,0,0,0,0.1,0l3.5,1.2c0.1,0,0.2,0,0.2,0c0,0,0.1,0,0.1,0l5.4-0.7l3.5,6.4
	c0.1,0.1,0.2,0.3,0.4,0.3l4.8,2c0,0.2,0,0.3,0.1,0.5l3.9,5.8v19.3l-5.6,2c-0.3,0.1-0.5,0.4-0.5,0.8c0.1,0.3,0.4,0.6,0.7,0.6
	c0,0,0,0,0,0l8.2,0c0.1,0,0.1,0.1,0.2,0.1c0.4,0,1-0.5,3.3-2.7c0.1-0.1,0.2-0.3,0.2-0.4l2.8-24l2.8,0.1c0,0,0,0,0,0
	c0.2,0,0.4-0.1,0.5-0.3c4.8-5.8,6.5-8,7-8.9l8.2-2.9c0.2-0.1,0.4-0.3,0.5-0.6C66.3,44.8,66.2,44.5,66,44.4z M17.7,9.4l2,2.7
	l-3.3,1.4l-2.6,0.7L13,8.6L17.7,9.4z M11.7,9.6l0.7,5.1l-0.9,0.6l-2.7-1.6L11.7,9.6z M9.5,18.2l-0.6,0l-0.4-2.9l1.9,1.1L9.5,18.2z
	 M17.2,14.7l2.9-1.2l1,20.7l-5,9.9l-2.5-5.2L17.2,14.7z M22.2,35.3l2.7,1.5l-3.4,2.1c0,0-0.1,0.1-0.1,0.1c0,0-0.1,0.1-0.1,0.1
	c0,0-0.1,0.1-0.1,0.2c0,0,0,0,0,0.1l-2,6.8l-2.1-0.7L22.2,35.3z M20.6,46.1l1.4-4.8l2.4,4.3L20.6,46.1z M39.2,61.3L36,56.5l1.4,0.6
	c0.1,0,0.2,0,0.2,0.1l2,0.1l1.9,4.4c-0.3,6-0.7,14.2-1,18.7l-1.2,0.4v-19C39.3,61.6,39.3,61.4,39.2,61.3z M40.4,81.9
	c0,0.6-0.1,1-0.1,1.3l-3.6,0L40.4,81.9z M43.1,81.1c-0.4,0.4-0.9,0.9-1.3,1.2c0-0.4,0.1-0.9,0.1-1.4c0,0,0,0,0,0
	c0.2-2.9,0.5-8.5,1-19.4c0-0.1,0-0.2-0.1-0.3l-1.7-3.9l4.7,0.2L43.1,81.1z M49.8,56.2l-12-0.4l-8-3.3l-7-12.8l11.7-7.1
	c4.9,0.2,12.5,0.6,14.1,0.8c0.4,0.8,1.6,3.1,5.2,9.9c1,1.9,2.1,4,2.5,4.6C55.7,48.9,52.6,52.8,49.8,56.2z M57.5,47
	c-0.3-0.6-1-1.9-2.4-4.4c-1.2-2.3-2.9-5.3-4-7.4l13,9.6L57.5,47z"/>
</svg>
