  0
SECTION
  2
HEADER
  9
$ACADVER
  1
AC1024
  9
$ACADMAINTVER
 70
     6
  9
$DWGCODEPAGE
  3
UNDEFINED
  9
$INSBASE
 10
0.0
 20
0.0
 30
0.0
  9
$EXTMIN
 10
1.000000000000000E+20
 20
1.000000000000000E+20
 30
1.000000000000000E+20
  9
$EXTMAX
 10
-1.000000000000000E+20
 20
-1.000000000000000E+20
 30
-1.000000000000000E+20
  9
$LIMMIN
 10
0.0
 20
0.0
  9
$LIMMAX
 10
12.0
 20
9.0
  9
$ORTHOMODE
 70
     0
  9
$REGENMODE
 70
     1
  9
$FILLMODE
 70
     1
  9
$QTEXTMODE
 70
     0
  9
$MIRRTEXT
 70
     1
  9
$LTSCALE
 40
1.0
  9
$ATTMODE
 70
     1
  9
$TEXTSIZE
 40
0.2
  9
$TRACEWID
 40
0.05
  9
$TEXTSTYLE
  7
Standard
  9
$CLAYER
  8
0
  9
$CELTYPE
  6
ByLayer
  9
$CECOLOR
 62
   256
  9
$CELTSCALE
 40
1.0
  9
$DISPSILH
 70
     0
  9
$DIMSCALE
 40
1.0
  9
$DIMASZ
 40
0.18
  9
$DIMEXO
 40
0.0625
  9
$DIMDLI
 40
0.38
  9
$DIMRND
 40
0.0
  9
$DIMDLE
 40
0.0
  9
$DIMEXE
 40
0.18
  9
$DIMTP
 40
0.0
  9
$DIMTM
 40
0.0
  9
$DIMTXT
 40
0.18
  9
$DIMCEN
 40
0.09
  9
$DIMTSZ
 40
0.0
  9
$DIMTOL
 70
     0
  9
$DIMLIM
 70
     0
  9
$DIMTIH
 70
     1
  9
$DIMTOH
 70
     1
  9
$DIMSE1
 70
     0
  9
$DIMSE2
 70
     0
  9
$DIMTAD
 70
     0
  9
$DIMZIN
 70
     0
  9
$DIMBLK
  1

  9
$DIMASO
 70
     1
  9
$DIMSHO
 70
     1
  9
$DIMPOST
  1

  9
$DIMAPOST
  1

  9
$DIMALT
 70
     0
  9
$DIMALTD
 70
     2
  9
$DIMALTF
 40
25.4
  9
$DIMLFAC
 40
1.0
  9
$DIMTOFL
 70
     0
  9
$DIMTVP
 40
0.0
  9
$DIMTIX
 70
     0
  9
$DIMSOXD
 70
     0
  9
$DIMSAH
 70
     0
  9
$DIMBLK1
  1

  9
$DIMBLK2
  1

  9
$DIMSTYLE
  2
Standard
  9
$DIMCLRD
 70
     0
  9
$DIMCLRE
 70
     0
  9
$DIMCLRT
 70
     0
  9
$DIMTFAC
 40
1.0
  9
$DIMGAP
 40
0.09
  9
$DIMJUST
 70
     0
  9
$DIMSD1
 70
     0
  9
$DIMSD2
 70
     0
  9
$DIMTOLJ
 70
     1
  9
$DIMTZIN
 70
     0
  9
$DIMALTZ
 70
     0
  9
$DIMALTTZ
 70
     0
  9
$DIMUPT
 70
     0
  9
$DIMDEC
 70
     4
  9
$DIMTDEC
 70
     4
  9
$DIMALTU
 70
     2
  9
$DIMALTTD
 70
     2
  9
$DIMTXSTY
  7
Standard
  9
$DIMAUNIT
 70
     0
  9
$DIMADEC
 70
     0
  9
$DIMALTRND
 40
0.0
  9
$DIMAZIN
 70
     0
  9
$DIMDSEP
 70
    46
  9
$DIMATFIT
 70
     3
  9
$DIMFRAC
 70
     0
  9
$DIMLDRBLK
  1

  9
$DIMLUNIT
 70
     2
  9
$DIMLWD
 70
    -2
  9
$DIMLWE
 70
    -2
  9
$DIMTMOVE
 70
     0
  9
$DIMFXL
 40
1.0
  9
$DIMFXLON
 70
     0
  9
$DIMJOGANG
 40
0.7853981633974483
  9
$DIMTFILL
 70
     0
  9
$DIMTFILLCLR
 70
     0
  9
$DIMARCSYM
 70
     0
  9
$DIMLTYPE
  6

  9
$DIMLTEX1
  6

  9
$DIMLTEX2
  6

  9
$DIMTXTDIRECTION
 70
     0
  9
$LUNITS
 70
     2
  9
$LUPREC
 70
     4
  9
$SKETCHINC
 40
0.1
  9
$FILLETRAD
 40
0.5
  9
$AUNITS
 70
     0
  9
$AUPREC
 70
     0
  9
$MENU
  1
.
  9
$ELEVATION
 40
0.0
  9
$PELEVATION
 40
0.0
  9
$THICKNESS
 40
0.0
  9
$LIMCHECK
 70
     0
  9
$CHAMFERA
 40
0.5
  9
$CHAMFERB
 40
0.5
  9
$CHAMFERC
 40
1.0
  9
$CHAMFERD
 40
0.0
  9
$SKPOLY
 70
     0
  9
$TDCREATE
 40
2457525.601076377
  9
$TDUCREATE
 40
2457525.809409722
  9
$TDUPDATE
 40
2457525.601076377
  9
$TDUUPDATE
 40
2457525.809409722
  9
$TDINDWG
 40
0.0000000116
  9
$TDUSRTIMER
 40
0.0000000116
  9
$USRTIMER
 70
     1
  9
$ANGBASE
 50
0.0
  9
$ANGDIR
 70
     0
  9
$PDMODE
 70
     0
  9
$PDSIZE
 40
0.0
  9
$PLINEWID
 40
0.0
  9
$SPLFRAME
 70
     0
  9
$SPLINETYPE
 70
     6
  9
$SPLINESEGS
 70
     8
  9
$HANDSEED
  5
6F
  9
$SURFTAB1
 70
     6
  9
$SURFTAB2
 70
     6
  9
$SURFTYPE
 70
     6
  9
$SURFU
 70
     6
  9
$SURFV
 70
     6
  9
$UCSBASE
  2

  9
$UCSNAME
  2

  9
$UCSORG
 10
0.0
 20
0.0
 30
0.0
  9
$UCSXDIR
 10
1.0
 20
0.0
 30
0.0
  9
$UCSYDIR
 10
0.0
 20
1.0
 30
0.0
  9
$UCSORTHOREF
  2

  9
$UCSORTHOVIEW
 70
     0
  9
$UCSORGTOP
 10
0.0
 20
0.0
 30
0.0
  9
$UCSORGBOTTOM
 10
0.0
 20
0.0
 30
0.0
  9
$UCSORGLEFT
 10
0.0
 20
0.0
 30
0.0
  9
$UCSORGRIGHT
 10
0.0
 20
0.0
 30
0.0
  9
$UCSORGFRONT
 10
0.0
 20
0.0
 30
0.0
  9
$UCSORGBACK
 10
0.0
 20
0.0
 30
0.0
  9
$PUCSBASE
  2

  9
$PUCSNAME
  2

  9
$PUCSORG
 10
0.0
 20
0.0
 30
0.0
  9
$PUCSXDIR
 10
1.0
 20
0.0
 30
0.0
  9
$PUCSYDIR
 10
0.0
 20
1.0
 30
0.0
  9
$PUCSORTHOREF
  2

  9
$PUCSORTHOVIEW
 70
     0
  9
$PUCSORGTOP
 10
0.0
 20
0.0
 30
0.0
  9
$PUCSORGBOTTOM
 10
0.0
 20
0.0
 30
0.0
  9
$PUCSORGLEFT
 10
0.0
 20
0.0
 30
0.0
  9
$PUCSORGRIGHT
 10
0.0
 20
0.0
 30
0.0
  9
$PUCSORGFRONT
 10
0.0
 20
0.0
 30
0.0
  9
$PUCSORGBACK
 10
0.0
 20
0.0
 30
0.0
  9
$USERI1
 70
     0
  9
$USERI2
 70
     0
  9
$USERI3
 70
     0
  9
$USERI4
 70
     0
  9
$USERI5
 70
     0
  9
$USERR1
 40
0.0
  9
$USERR2
 40
0.0
  9
$USERR3
 40
0.0
  9
$USERR4
 40
0.0
  9
$USERR5
 40
0.0
  9
$WORLDVIEW
 70
     1
  9
$SHADEDGE
 70
     3
  9
$SHADEDIF
 70
    70
  9
$TILEMODE
 70
     1
  9
$MAXACTVP
 70
    64
  9
$PINSBASE
 10
0.0
 20
0.0
 30
0.0
  9
$PLIMCHECK
 70
     0
  9
$PEXTMIN
 10
1.000000000000000E+20
 20
1.000000000000000E+20
 30
1.000000000000000E+20
  9
$PEXTMAX
 10
-1.000000000000000E+20
 20
-1.000000000000000E+20
 30
-1.000000000000000E+20
  9
$PLIMMIN
 10
0.0
 20
0.0
  9
$PLIMMAX
 10
12.0
 20
9.0
  9
$UNITMODE
 70
     0
  9
$VISRETAIN
 70
     1
  9
$PLINEGEN
 70
     0
  9
$PSLTSCALE
 70
     1
  9
$TREEDEPTH
 70
  3020
  9
$CMLSTYLE
  2
Standard
  9
$CMLJUST
 70
     0
  9
$CMLSCALE
 40
1.0
  9
$PROXYGRAPHICS
 70
     1
  9
$MEASUREMENT
 70
     0
  9
$CELWEIGHT
370
    -1
  9
$ENDCAPS
280
     0
  9
$JOINSTYLE
280
     0
  9
$LWDISPLAY
290
     1
  9
$INSUNITS
 70
     1
  9
$HYPERLINKBASE
  1

  9
$STYLESHEET
  1

  9
$XEDIT
290
     1
  9
$CEPSNTYPE
380
     0
  9
$PSTYLEMODE
290
     1
  9
$FINGERPRINTGUID
  2
{DA1E9100-BC87-F1C0-F430-99D6ED9E81D8}
  9
$VERSIONGUID
  2
{FAEB1C32-E019-11D5-929B-00C0DF256EC4}
  9
$EXTNAMES
290
     1
  9
$PSVPSCALE
 40
0.0
  9
$OLESTARTUP
290
     0
  9
$SORTENTS
280
   127
  9
$INDEXCTL
280
     0
  9
$HIDETEXT
280
     1
  9
$XCLIPFRAME
280
     2
  9
$HALOGAP
280
     0
  9
$OBSCOLOR
 70
   257
  9
$OBSLTYPE
280
     0
  9
$INTERSECTIONDISPLAY
280
     0
  9
$INTERSECTIONCOLOR
 70
   257
  9
$DIMASSOC
280
     2
  9
$PROJECTNAME
  1

  9
$CAMERADISPLAY
290
     0
  9
$LENSLENGTH
 40
50.0
  9
$CAMERAHEIGHT
 40
0.0
  9
$STEPSPERSEC
 40
2.0
  9
$STEPSIZE
 40
6.0
  9
$3DDWFPREC
 40
2.0
  9
$PSOLWIDTH
 40
0.25
  9
$PSOLHEIGHT
 40
4.0
  9
$LOFTANG1
 40
1.570796326794897
  9
$LOFTANG2
 40
1.570796326794897
  9
$LOFTMAG1
 40
0.0
  9
$LOFTMAG2
 40
0.0
  9
$LOFTPARAM
 70
     7
  9
$LOFTNORMALS
280
     1
  9
$LATITUDE
 40
37.795
  9
$LONGITUDE
 40
-122.394
  9
$NORTHDIRECTION
 40
0.0
  9
$TIMEZONE
 70
 -8000
  9
$LIGHTGLYPHDISPLAY
280
     1
  9
$TILEMODELIGHTSYNCH
280
     1
  9
$CMATERIAL
347
3C
  9
$SOLIDHIST
280
     1
  9
$SHOWHIST
280
     1
  9
$DWFFRAME
280
     2
  9
$DGNFRAME
280
     2
  9
$REALWORLDSCALE
290
     1
  9
$INTERFERECOLOR
 62
   256
  9
$CSHADOW
280
     0
  9
$SHADOWPLANELOCATION
 40
0.0
  0
ENDSEC
  0
SECTION
  2
CLASSES
  0
CLASS
  1
ACDBDICTIONARYWDFLT
  2
AcDbDictionaryWithDefault
  3
ObjectDBX Classes
 90
        0
 91
        4
280
     0
281
     0
  0
CLASS
  1
VISUALSTYLE
  2
AcDbVisualStyle
  3
ObjectDBX Classes
 90
     4095
 91
        4
280
     0
281
     0
  0
CLASS
  1
MATERIAL
  2
AcDbMaterial
  3
ObjectDBX Classes
 90
     1153
 91
        4
280
     0
281
     0
  0
CLASS
  1
SUN
  2
AcDbSun
  3
SCENEOE
 90
     1024
 91
        4
280
     0
281
     0
  0
ENDSEC
  0
SECTION
  2
TABLES
  0
TABLE
  2
VPORT
  5
8
330
0
100
AcDbSymbolTable
 70
     1
  0
VPORT
  5
29
330
8
100
AcDbSymbolTableRecord
100
AcDbViewportTableRecord
  2
*Active
 70
     0
 10
0.0
 20
0.0
 11
1.0
 21
1.0
 12
0.0
 22
0.0
 13
0.0
 23
0.0
 14
0.5
 24
0.5
 15
0.5
 25
0.5
 16
0.0
 26
0.0
 36
1.0
 17
50.0
 27
62.5
 37
0.0
 40
125.0
 41
0.8
 42
50.0
 43
0.0
 44
0.0
 50
0.0
 51
0.0
 71
     0
 72
   100
 73
     1
 74
     3
 75
     0
 76
     0
 77
     0
 78
     0
281
     0
 65
     1
110
0.0
120
0.0
130
0.0
111
1.0
121
0.0
131
0.0
112
0.0
122
1.0
132
0.0
 79
     0
146
0.0
 60
     3
 61
     5
292
     1
282
     1
141
0.0
142
0.0
 63
   250
361
3F
  0
ENDTAB
  0
TABLE
  2
LTYPE
  5
5
330
0
100
AcDbSymbolTable
 70
     1
  0
LTYPE
  5
14
330
5
100
AcDbSymbolTableRecord
100
AcDbLinetypeTableRecord
  2
ByBlock
 70
     0
  3

 72
    65
 73
     0
 40
0.0
  0
LTYPE
  5
15
330
5
100
AcDbSymbolTableRecord
100
AcDbLinetypeTableRecord
  2
ByLayer
 70
     0
  3

 72
    65
 73
     0
 40
0.0
  0
LTYPE
  5
16
330
5
100
AcDbSymbolTableRecord
100
AcDbLinetypeTableRecord
  2
Continuous
 70
     0
  3
Solid line
 72
    65
 73
     0
 40
0.0
  0
ENDTAB
  0
TABLE
  2
LAYER
  5
2
330
0
100
AcDbSymbolTable
 70
     2
  0
LAYER
  5
10
330
2
100
AcDbSymbolTableRecord
100
AcDbLayerTableRecord
  2
0
 70
     0
 62
     7
  6
Continuous
370
    -3
390
F
347
3E
  0
LAYER
  5
40
330
2
100
AcDbSymbolTableRecord
100
AcDbLayerTableRecord
  2
Layer 1
 70
     0
 62
     7
  6
Continuous
370
    -3
390
F
347
3E
  0
ENDTAB
  0
TABLE
  2
STYLE
  5
3
330
0
100
AcDbSymbolTable
 70
     1
  0
STYLE
  5
11
330
3
100
AcDbSymbolTableRecord
100
AcDbTextStyleTableRecord
  2
Standard
 70
     0
 40
0.0
 41
1.0
 50
0.0
 71
     0
 42
0.2
  3
txt
  4

  0
ENDTAB
  0
TABLE
  2
VIEW
  5
6
330
0
100
AcDbSymbolTable
 70
     0
  0
ENDTAB
  0
TABLE
  2
UCS
  5
7
330
0
100
AcDbSymbolTable
 70
     0
  0
ENDTAB
  0
TABLE
  2
APPID
  5
9
330
0
100
AcDbSymbolTable
 70
     1
  0
APPID
  5
12
330
9
100
AcDbSymbolTableRecord
100
AcDbRegAppTableRecord
  2
ACAD
 70
     0
  0
ENDTAB
  0
TABLE
  2
DIMSTYLE
  5
A
330
0
100
AcDbSymbolTable
 70
     1
100
AcDbDimStyleTable
  0
DIMSTYLE
105
27
330
A
100
AcDbSymbolTableRecord
100
AcDbDimStyleTableRecord
  2
Standard
 70
     0
178
     0
340
11
  0
ENDTAB
  0
TABLE
  2
BLOCK_RECORD
  5
1
330
0
100
AcDbSymbolTable
 70
     1
  0
BLOCK_RECORD
  5
1F
330
1
100
AcDbSymbolTableRecord
100
AcDbBlockTableRecord
  2
*Model_Space
340
22
 70
     0
280
     1
281
     0
  0
BLOCK_RECORD
  5
1B
330
1
100
AcDbSymbolTableRecord
100
AcDbBlockTableRecord
  2
*Paper_Space
340
1E
 70
     0
280
     1
281
     0
  0
BLOCK_RECORD
  5
23
330
1
100
AcDbSymbolTableRecord
100
AcDbBlockTableRecord
  2
*Paper_Space0
340
26
 70
     0
280
     1
281
     0
  0
ENDTAB
  0
ENDSEC
  0
SECTION
  2
BLOCKS
  0
BLOCK
  5
20
330
1F
100
AcDbEntity
  8
0
100
AcDbBlockBegin
  2
*Model_Space
 70
     0
 10
0.0
 20
0.0
 30
0.0
  3
*Model_Space
  1

  0
ENDBLK
  5
21
330
1F
100
AcDbEntity
  8
0
100
AcDbBlockEnd
  0
BLOCK
  5
1C
330
1B
100
AcDbEntity
 67
     1
  8
0
100
AcDbBlockBegin
  2
*Paper_Space
 70
     0
 10
0.0
 20
0.0
 30
0.0
  3
*Paper_Space
  1

  0
ENDBLK
  5
1D
330
1B
100
AcDbEntity
 67
     1
  8
0
100
AcDbBlockEnd
  0
BLOCK
  5
24
330
23
100
AcDbEntity
  8
0
100
AcDbBlockBegin
  2
*Paper_Space0
 70
     0
 10
0.0
 20
0.0
 30
0.0
  3
*Paper_Space0
  1

  0
ENDBLK
  5
25
330
23
100
AcDbEntity
  8
0
100
AcDbBlockEnd
  0
ENDSEC
  0
SECTION
  2
ENTITIES
  0
SPLINE
  5
41
330
1F
100
AcDbEntity
  8
Layer 1
370
     0
100
AcDbSpline
210
0.0
220
0.0
230
1.0
 70
    11
 71
     3
 72
   218
 73
   214
 74
     0
 42
0.0000000001
 43
0.0000000001
 12
1.0
 22
0.0
 32
0.0
 13
1.0
 23
0.0
 33
0.0
 40
0.0
 40
0.0
 40
0.0
 40
0.0
 40
1.0
 40
1.0
 40
1.0
 40
2.0
 40
2.0
 40
2.0
 40
3.0
 40
3.0
 40
3.0
 40
4.0
 40
4.0
 40
4.0
 40
5.0
 40
5.0
 40
5.0
 40
6.0
 40
6.0
 40
6.0
 40
7.0
 40
7.0
 40
7.0
 40
8.0
 40
8.0
 40
8.0
 40
9.0
 40
9.0
 40
9.0
 40
10.0
 40
10.0
 40
10.0
 40
11.0
 40
11.0
 40
11.0
 40
12.0
 40
12.0
 40
12.0
 40
13.0
 40
13.0
 40
13.0
 40
14.0
 40
14.0
 40
14.0
 40
15.0
 40
15.0
 40
15.0
 40
16.0
 40
16.0
 40
16.0
 40
17.0
 40
17.0
 40
17.0
 40
18.0
 40
18.0
 40
18.0
 40
19.0
 40
19.0
 40
19.0
 40
20.0
 40
20.0
 40
20.0
 40
21.0
 40
21.0
 40
21.0
 40
22.0
 40
22.0
 40
22.0
 40
23.0
 40
23.0
 40
23.0
 40
24.0
 40
24.0
 40
24.0
 40
25.0
 40
25.0
 40
25.0
 40
26.0
 40
26.0
 40
26.0
 40
27.0
 40
27.0
 40
27.0
 40
28.0
 40
28.0
 40
28.0
 40
29.0
 40
29.0
 40
29.0
 40
30.0
 40
30.0
 40
30.0
 40
31.0
 40
31.0
 40
31.0
 40
32.0
 40
32.0
 40
32.0
 40
33.0
 40
33.0
 40
33.0
 40
34.0
 40
34.0
 40
34.0
 40
35.0
 40
35.0
 40
35.0
 40
36.0
 40
36.0
 40
36.0
 40
37.0
 40
37.0
 40
37.0
 40
38.0
 40
38.0
 40
38.0
 40
39.0
 40
39.0
 40
39.0
 40
40.0
 40
40.0
 40
40.0
 40
41.0
 40
41.0
 40
41.0
 40
42.0
 40
42.0
 40
42.0
 40
43.0
 40
43.0
 40
43.0
 40
44.0
 40
44.0
 40
44.0
 40
45.0
 40
45.0
 40
45.0
 40
46.0
 40
46.0
 40
46.0
 40
47.0
 40
47.0
 40
47.0
 40
48.0
 40
48.0
 40
48.0
 40
49.0
 40
49.0
 40
49.0
 40
50.0
 40
50.0
 40
50.0
 40
51.0
 40
51.0
 40
51.0
 40
52.0
 40
52.0
 40
52.0
 40
53.0
 40
53.0
 40
53.0
 40
54.0
 40
54.0
 40
54.0
 40
55.0
 40
55.0
 40
55.0
 40
56.0
 40
56.0
 40
56.0
 40
57.0
 40
57.0
 40
57.0
 40
58.0
 40
58.0
 40
58.0
 40
59.0
 40
59.0
 40
59.0
 40
60.0
 40
60.0
 40
60.0
 40
61.0
 40
61.0
 40
61.0
 40
62.0
 40
62.0
 40
62.0
 40
63.0
 40
63.0
 40
63.0
 40
64.0
 40
64.0
 40
64.0
 40
65.0
 40
65.0
 40
65.0
 40
66.0
 40
66.0
 40
66.0
 40
67.0
 40
67.0
 40
67.0
 40
68.0
 40
68.0
 40
68.0
 40
69.0
 40
69.0
 40
69.0
 40
70.0
 40
70.0
 40
70.0
 40
71.0
 40
71.0
 40
71.0
 40
71.0
 10
66.00965372721475
 20
80.61402893066315
 30
0.0
 10
66.00965372721475
 20
80.61402893066315
 30
0.0
 10
49.73465983072947
 20
92.63902282714753
 30
0.0
 10
49.73465983072947
 20
92.63902282714753
 30
0.0
 10
49.70765177408884
 20
92.66302490234284
 30
0.0
 10
49.67566935221384
 20
92.68801879882722
 30
0.0
 10
49.63666788737009
 20
92.71102905273347
 30
0.0
 10
49.63666788737009
 20
92.71102905273347
 30
0.0
 10
49.59568277994822
 20
92.74102783203034
 30
0.0
 10
49.59568277994822
 20
92.74102783203034
 30
0.0
 10
49.49268595377634
 20
92.81602478027253
 30
0.0
 10
49.37769571940134
 20
92.84902954101472
 30
0.0
 10
49.26069132487009
 20
92.86402893066315
 30
0.0
 10
48.06669108072947
 20
93.21403503417878
 30
0.0
 10
44.57468668619822
 20
93.4340362548819
 30
0.0
 10
34.36469523112009
 20
93.85203552246003
 30
0.0
 10
34.22168986002634
 20
93.85304260253815
 30
0.0
 10
34.08570353190134
 20
93.82203674316315
 30
0.0
 10
33.96769205729197
 20
93.74903869628815
 30
0.0
 10
33.96769205729197
 20
93.74903869628815
 30
0.0
 10
26.31269327799509
 20
89.08804321288972
 30
0.0
 10
26.31269327799509
 20
89.08804321288972
 30
0.0
 10
26.31269327799509
 20
89.08804321288972
 30
0.0
 10
22.56168619791697
 20
91.09704589843659
 30
0.0
 10
22.56168619791697
 20
91.09704589843659
 30
0.0
 10
22.56168619791697
 20
91.09704589843659
 30
0.0
 10
21.51767985026072
 20
112.53904724121
 30
0.0
 10
21.51767985026072
 20
112.53904724121
 30
0.0
 10
21.51667277018259
 20
112.5580444335928
 30
0.0
 10
21.50467936197947
 20
112.5730438232413
 30
0.0
 10
21.50168863932322
 20
112.5920410156241
 30
0.0
 10
21.49369303385447
 20
112.6590423583975
 30
0.0
 10
21.47269694010447
 20
112.7230377197257
 30
0.0
 10
21.44367472330759
 20
112.7870483398428
 30
0.0
 10
21.42768351237009
 20
112.8210449218741
 30
0.0
 10
21.41767374674509
 20
112.8540496826163
 30
0.0
 10
21.39768473307322
 20
112.8860473632803
 30
0.0
 10
21.38868204752634
 20
112.8990478515616
 30
0.0
 10
21.38767496744822
 20
112.9130401611319
 30
0.0
 10
21.37867228190134
 20
112.9250488281241
 30
0.0
 10
21.37867228190134
 20
112.9250488281241
 30
0.0
 10
18.64966837565134
 20
116.632049560546
 30
0.0
 10
18.64966837565134
 20
116.632049560546
 30
0.0
 10
18.54267374674509
 20
116.778045654296
 30
0.0
 10
18.38267008463572
 20
116.8780517578116
 30
0.0
 10
18.20466105143259
 20
116.9090423583975
 30
0.0
 10
18.20466105143259
 20
116.9090423583975
 30
0.0
 10
12.30366007487009
 20
117.966049194335
 30
0.0
 10
12.30366007487009
 20
117.966049194335
 30
0.0
 10
12.30164591471384
 20
117.9670562744132
 30
0.0
 10
12.29966227213572
 20
117.9670562744132
 30
0.0
 10
12.29764811197947
 20
117.9670562744132
 30
0.0
 10
12.29764811197947
 20
117.9670562744132
 30
0.0
 10
12.27164713541697
 20
117.9720611572257
 30
0.0
 10
12.27164713541697
 20
117.9720611572257
 30
0.0
 10
12.25464884440134
 20
117.975067138671
 30
0.0
 10
12.23963419596384
 20
117.9670562744132
 30
0.0
 10
12.22263590494822
 20
117.9690551757803
 30
0.0
 10
12.13962809244822
 20
117.9780578613272
 30
0.0
 10
12.05964152018259
 20
117.9750518798819
 30
0.0
 10
11.97864786783884
 20
117.955047607421
 30
0.0
 10
11.94663492838572
 20
117.9470520019522
 30
0.0
 10
11.91764322916697
 20
117.9330444335928
 30
0.0
 10
11.88566080729197
 20
117.9200439453116
 30
0.0
 10
11.82267252604197
 20
117.8950500488272
 30
0.0
 10
11.76465861002634
 20
117.8610382080069
 30
0.0
 10
11.70966593424509
 20
117.8170471191397
 30
0.0
 10
11.69266764322947
 20
117.8040466308585
 30
0.0
 10
11.67167154947947
 20
117.8000488281241
 30
0.0
 10
11.65568033854197
 20
117.7860412597647
 30
0.0
 10
11.64167277018259
 20
117.7720336914053
 30
0.0
 10
11.63767496744822
 20
117.7530364990225
 30
0.0
 10
11.62467447916697
 20
117.7380371093741
 30
0.0
 10
11.60767618815134
 20
117.7180328369132
 30
0.0
 10
11.58567301432322
 20
117.7080383300772
 30
0.0
 10
11.56968180338572
 20
117.6860351562491
 30
0.0
 10
11.56968180338572
 20
117.6860351562491
 30
0.0
 10
7.169687906901345
 20
111.5280303955069
 30
0.0
 10
7.169687906901345
 20
111.5280303955069
 30
0.0
 10
7.151682535807595
 20
111.5040283203116
 30
0.0
 10
7.148691813151345
 20
111.4720306396475
 30
0.0
 10
7.133677164713845
 20
111.446029663085
 30
0.0
 10
7.105662027995095
 20
111.393035888671
 30
0.0
 10
7.076670328776345
 20
111.3430328369132
 30
0.0
 10
7.06266276041697
 20
111.2850341796866
 30
0.0
 10
7.05167643229197
 20
111.2410278320303
 30
0.0
 10
7.05466715494822
 20
111.1970367431632
 30
0.0
 10
7.05265299479197
 20
111.1520385742178
 30
0.0
 10
7.05063883463572
 20
111.1110382080069
 30
0.0
 10
7.03763834635447
 20
111.0730438232413
 30
0.0
 10
7.04264322916697
 20
111.0310363769522
 30
0.0
 10
7.04264322916697
 20
111.0310363769522
 30
0.0
 10
7.63865152994822
 20
106.091033935546
 30
0.0
 10
7.63865152994822
 20
106.091033935546
 30
0.0
 10
7.679636637370095
 20
105.7460327148428
 30
0.0
 10
7.96464029947947
 20
105.4830322265616
 30
0.0
 10
8.311655680338845
 20
105.4680328369132
 30
0.0
 10
8.311655680338845
 20
105.4680328369132
 30
0.0
 10
9.915659586588845
 20
105.3990325927725
 30
0.0
 10
9.915659586588845
 20
105.3990325927725
 30
0.0
 10
9.925669352213845
 20
105.3990325927725
 30
0.0
 10
9.936655680338845
 20
105.3980255126944
 30
0.0
 10
9.94565836588572
 20
105.3980255126944
 30
0.0
 10
10.20365397135447
 20
105.3980255126944
 30
0.0
 10
10.44166056315134
 20
105.539031982421
 30
0.0
 10
10.56666056315134
 20
105.7650299072257
 30
0.0
 10
10.56666056315134
 20
105.7650299072257
 30
0.0
 10
12.02265421549509
 20
108.4110260009757
 30
0.0
 10
12.02265421549509
 20
108.4110260009757
 30
0.0
 10
12.02265421549509
 20
108.4110260009757
 30
0.0
 10
13.41465250651072
 20
109.2750244140616
 30
0.0
 10
13.41465250651072
 20
109.2750244140616
 30
0.0
 10
13.41465250651072
 20
109.2750244140616
 30
0.0
 10
15.73163859049509
 20
109.8470306396475
 30
0.0
 10
15.73163859049509
 20
109.8470306396475
 30
0.0
 10
15.73163859049509
 20
109.8470306396475
 30
0.0
 10
12.15064493815134
 20
86.05702209472565
 30
0.0
 10
12.15064493815134
 20
86.05702209472565
 30
0.0
 10
12.12964884440134
 20
85.9140167236319
 30
0.0
 10
12.15265909830759
 20
85.7680206298819
 30
0.0
 10
12.21564737955759
 20
85.6380157470694
 30
0.0
 10
12.21564737955759
 20
85.6380157470694
 30
0.0
 10
15.48563639322947
 20
79.00901794433503
 30
0.0
 10
15.48563639322947
 20
79.00901794433503
 30
0.0
 10
15.49662272135447
 20
78.98802185058503
 30
0.0
 10
15.51862589518259
 20
78.97901916503815
 30
0.0
 10
15.53162638346384
 20
78.95903015136628
 30
0.0
 10
15.57963053385447
 20
78.88002014160065
 30
0.0
 10
15.63862101237009
 20
78.81303405761628
 30
0.0
 10
15.71363321940134
 20
78.76002502441315
 30
0.0
 10
15.74463907877634
 20
78.73802185058503
 30
0.0
 10
15.77463785807322
 20
78.71903991699128
 30
0.0
 10
15.80762736002634
 20
78.70201110839753
 30
0.0
 10
15.83564249674509
 20
78.68699645996003
 30
0.0
 10
15.85761515299509
 20
78.6640167236319
 30
0.0
 10
15.88663736979197
 20
78.65299987792878
 30
0.0
 10
15.88663736979197
 20
78.65299987792878
 30
0.0
 10
19.41962687174509
 20
77.41200256347565
 30
0.0
 10
19.41962687174509
 20
77.41200256347565
 30
0.0
 10
19.49762980143259
 20
77.38499450683503
 30
0.0
 10
19.57663981119822
 20
77.37199401855378
 30
0.0
 10
19.65461222330759
 20
77.37199401855378
 30
0.0
 10
19.68262736002634
 20
77.37199401855378
 30
0.0
 10
19.71161905924509
 20
77.37400817871003
 30
0.0
 10
19.74061075846384
 20
77.3780059814444
 30
0.0
 10
19.74061075846384
 20
77.3780059814444
 30
0.0
 10
25.18461100260447
 20
78.04200744628815
 30
0.0
 10
25.18461100260447
 20
78.04200744628815
 30
0.0
 10
25.18461100260447
 20
78.04200744628815
 30
0.0
 10
28.70859781901072
 20
71.61500549316315
 30
0.0
 10
28.70859781901072
 20
71.61500549316315
 30
0.0
 10
28.78559366862009
 20
71.47300720214753
 30
0.0
 10
28.90958658854197
 20
71.3620147705069
 30
0.0
 10
29.06058756510447
 20
71.30101013183503
 30
0.0
 10
29.06058756510447
 20
71.30101013183503
 30
0.0
 10
33.88459269205759
 20
69.3150177001944
 30
0.0
 10
33.88459269205759
 20
69.3150177001944
 30
0.0
 10
33.86258951822947
 20
69.14701843261628
 30
0.0
 10
33.89258829752634
 20
68.9710235595694
 30
0.0
 10
33.99457804362009
 20
68.82102966308503
 30
0.0
 10
33.99457804362009
 20
68.82102966308503
 30
0.0
 10
37.93158976237009
 20
63.0490264892569
 30
0.0
 10
37.93158976237009
 20
63.0490264892569
 30
0.0
 10
37.93158976237009
 20
63.0490264892569
 30
0.0
 10
37.93158976237009
 20
43.72901916503906
 30
0.0
 10
37.93158976237009
 20
43.72901916503906
 30
0.0
 10
37.93158976237009
 20
43.72901916503906
 30
0.0
 10
32.32560221354197
 20
41.72102355957031
 30
0.0
 10
32.32560221354197
 20
41.72102355957031
 30
0.0
 10
32.00159708658884
 20
41.60502624511719
 30
0.0
 10
31.80658976237009
 20
41.27201843261719
 30
0.0
 10
31.86658732096384
 20
40.93101501464844
 30
0.0
 10
31.92658487955759
 20
40.59202575683594
 30
0.0
 10
32.22059122721384
 20
40.34501647949219
 30
0.0
 10
32.56458536783884
 20
40.34501647949219
 30
0.0
 10
32.56559244791697
 20
40.34501647949219
 30
0.0
 10
32.56659952799509
 20
40.34501647949219
 30
0.0
 10
32.56757609049509
 20
40.34501647949219
 30
0.0
 10
32.56757609049509
 20
40.34501647949219
 30
0.0
 10
40.73057047526072
 20
40.37702941894531
 30
0.0
 10
40.73057047526072
 20
40.37702941894531
 30
0.0
 10
40.80655924479197
 20
40.33702087402344
 30
0.0
 10
40.88056437174509
 20
40.30702209472656
 30
0.0
 10
40.96656290690134
 20
40.30702209472656
 30
0.0
 10
41.35456339518259
 20
40.30702209472656
 30
0.0
 10
41.99756876627634
 20
40.84303283691406
 30
0.0
 10
44.27555338541697
 20
43.02601623535156
 30
0.0
 10
44.39454142252634
 20
43.14002990722656
 30
0.0
 10
44.46955362955759
 20
43.29301452636719
 30
0.0
 10
44.48954264322947
 20
43.45600891113281
 30
0.0
 10
44.48954264322947
 20
43.45600891113281
 30
0.0
 10
47.27753702799509
 20
67.47401428222565
 30
0.0
 10
47.27753702799509
 20
67.47401428222565
 30
0.0
 10
47.27753702799509
 20
67.47401428222565
 30
0.0
 10
50.06254069010447
 20
67.37400817871003
 30
0.0
 10
50.06254069010447
 20
67.37400817871003
 30
0.0
 10
50.07154337565134
 20
67.3730010986319
 30
0.0
 10
50.07953898112009
 20
67.3730010986319
 30
0.0
 10
50.08753458658884
 20
67.3730010986319
 30
0.0
 10
50.29853312174509
 20
67.3730010986319
 30
0.0
 10
50.49854532877634
 20
67.4669952392569
 30
0.0
 10
50.63352457682322
 20
67.62998962402253
 30
0.0
 10
55.44251505533975
 20
73.43299865722565
 30
0.0
 10
57.08753458658975
 20
75.59098815917878
 30
0.0
 10
57.61451212565225
 20
76.5189971923819
 30
0.0
 10
57.61451212565225
 20
76.5189971923819
 30
0.0
 10
65.82151285807413
 20
79.37400817871003
 30
0.0
 10
65.82151285807413
 20
79.37400817871003
 30
0.0
 10
66.070505777996
 20
79.46000671386628
 30
0.0
 10
66.25049845377725
 20
79.67701721191315
 30
0.0
 10
66.289499918621
 20
79.93601989746003
 30
0.0
 10
66.32865397135538
 20
80.19700622558503
 30
0.0
 10
66.22165934244913
 20
80.45802307128815
 30
0.0
 10
66.00965372721475
 20
80.61402893066315
 30
0.0
  0
POLYLINE
  5
42
330
1F
100
AcDbEntity
  8
Layer 1
370
     0
100
AcDb2dPolyline
 66
     1
 10
0.0
 20
0.0
 30
0.0
  0
VERTEX
  5
43
330
42
100
AcDbEntity
  8
Layer 1
370
     0
100
AcDbVertex
100
AcDb2dVertex
 10
17.67566935221384
 20
115.5660095214835
 30
0.0
  0
VERTEX
  5
44
330
42
100
AcDbEntity
  8
Layer 1
370
     0
100
AcDbVertex
100
AcDb2dVertex
 10
19.69767252604197
 20
112.8200073242178
 30
0.0
  0
VERTEX
  5
45
330
42
100
AcDbEntity
  8
Layer 1
370
     0
100
AcDbVertex
100
AcDb2dVertex
 10
16.36768595377634
 20
111.4660034179678
 30
0.0
  0
VERTEX
  5
46
330
42
100
AcDbEntity
  8
Layer 1
370
     0
100
AcDbVertex
100
AcDb2dVertex
 10
13.72968546549509
 20
110.8150024414053
 30
0.0
  0
VERTEX
  5
47
330
42
100
AcDbEntity
  8
Layer 1
370
     0
100
AcDbVertex
100
AcDb2dVertex
 10
12.97669474283884
 20
116.4069976806632
 30
0.0
  0
VERTEX
  5
48
330
42
100
AcDbEntity
  8
Layer 1
370
     0
100
AcDbVertex
100
AcDb2dVertex
 10
17.67566935221384
 20
115.5660095214835
 30
0.0
  0
SEQEND
  5
49
330
42
100
AcDbEntity
  8
Layer 1
370
     0
  0
POLYLINE
  5
4A
330
1F
100
AcDbEntity
  8
Layer 1
370
     0
100
AcDb2dPolyline
 66
     1
 10
0.0
 20
0.0
 30
0.0
  0
VERTEX
  5
4B
330
4A
100
AcDbEntity
  8
Layer 1
370
     0
100
AcDbVertex
100
AcDb2dVertex
 10
11.68168131510447
 20
115.4090118408194
 30
0.0
  0
VERTEX
  5
4C
330
4A
100
AcDbEntity
  8
Layer 1
370
     0
100
AcDbVertex
100
AcDb2dVertex
 10
12.36966959635447
 20
110.2970123291007
 30
0.0
  0
VERTEX
  5
4D
330
4A
100
AcDbEntity
  8
Layer 1
370
     0
100
AcDbVertex
100
AcDb2dVertex
 10
11.47867838541697
 20
109.7440185546866
 30
0.0
  0
VERTEX
  5
4E
330
4A
100
AcDbEntity
  8
Layer 1
370
     0
100
AcDbVertex
100
AcDb2dVertex
 10
8.771677652995095
 20
111.3360137939444
 30
0.0
  0
VERTEX
  5
4F
330
4A
100
AcDbEntity
  8
Layer 1
370
     0
100
AcDbVertex
100
AcDb2dVertex
 10
11.68168131510447
 20
115.4090118408194
 30
0.0
  0
SEQEND
  5
50
330
4A
100
AcDbEntity
  8
Layer 1
370
     0
  0
POLYLINE
  5
51
330
1F
100
AcDbEntity
  8
Layer 1
370
     0
100
AcDb2dPolyline
 66
     1
 10
0.0
 20
0.0
 30
0.0
  0
VERTEX
  5
52
330
51
100
AcDbEntity
  8
Layer 1
370
     0
100
AcDbVertex
100
AcDb2dVertex
 10
9.534678141276345
 20
106.8350219726553
 30
0.0
  0
VERTEX
  5
53
330
51
100
AcDbEntity
  8
Layer 1
370
     0
100
AcDbVertex
100
AcDb2dVertex
 10
8.972666422526345
 20
106.8590240478507
 30
0.0
  0
VERTEX
  5
54
330
51
100
AcDbEntity
  8
Layer 1
370
     0
100
AcDbVertex
100
AcDb2dVertex
 10
8.61966959635447
 20
109.7810211181632
 30
0.0
  0
VERTEX
  5
55
330
51
100
AcDbEntity
  8
Layer 1
370
     0
100
AcDbVertex
100
AcDb2dVertex
 10
10.53565470377634
 20
108.654022216796
 30
0.0
  0
VERTEX
  5
56
330
51
100
AcDbEntity
  8
Layer 1
370
     0
100
AcDbVertex
100
AcDb2dVertex
 10
9.534678141276345
 20
106.8350219726553
 30
0.0
  0
SEQEND
  5
57
330
51
100
AcDbEntity
  8
Layer 1
370
     0
  0
POLYLINE
  5
58
330
1F
100
AcDbEntity
  8
Layer 1
370
     0
100
AcDb2dPolyline
 66
     1
 10
0.0
 20
0.0
 30
0.0
  0
VERTEX
  5
59
330
58
100
AcDbEntity
  8
Layer 1
370
     0
100
AcDbVertex
100
AcDb2dVertex
 10
17.22867838541697
 20
110.2870178222647
 30
0.0
  0
VERTEX
  5
5A
330
58
100
AcDbEntity
  8
Layer 1
370
     0
100
AcDbVertex
100
AcDb2dVertex
 10
20.14869181315134
 20
111.4740142822257
 30
0.0
  0
VERTEX
  5
5B
330
58
100
AcDbEntity
  8
Layer 1
370
     0
100
AcDbVertex
100
AcDb2dVertex
 10
21.15470377604197
 20
90.81600952148347
 30
0.0
  0
VERTEX
  5
5C
330
58
100
AcDbEntity
  8
Layer 1
370
     0
100
AcDbVertex
100
AcDb2dVertex
 10
16.12870279947947
 20
80.91001892089753
 30
0.0
  0
VERTEX
  5
5D
330
58
100
AcDbEntity
  8
Layer 1
370
     0
100
AcDbVertex
100
AcDb2dVertex
 10
13.58368937174509
 20
86.06901550292878
 30
0.0
  0
VERTEX
  5
5E
330
58
100
AcDbEntity
  8
Layer 1
370
     0
100
AcDbVertex
100
AcDb2dVertex
 10
17.22867838541697
 20
110.2870178222647
 30
0.0
  0
SEQEND
  5
5F
330
58
100
AcDbEntity
  8
Layer 1
370
     0
  0
SPLINE
  5
60
330
1F
100
AcDbEntity
  8
Layer 1
370
     0
100
AcDbSpline
210
0.0
220
0.0
230
1.0
 70
    11
 71
     3
 72
    32
 73
    28
 74
     0
 42
0.0000000001
 43
0.0000000001
 12
1.0
 22
0.0
 32
0.0
 13
1.0
 23
0.0
 33
0.0
 40
0.0
 40
0.0
 40
0.0
 40
0.0
 40
1.0
 40
1.0
 40
1.0
 40
2.0
 40
2.0
 40
2.0
 40
3.0
 40
3.0
 40
3.0
 40
4.0
 40
4.0
 40
4.0
 40
5.0
 40
5.0
 40
5.0
 40
6.0
 40
6.0
 40
6.0
 40
7.0
 40
7.0
 40
7.0
 40
8.0
 40
8.0
 40
8.0
 40
9.0
 40
9.0
 40
9.0
 40
9.0
 10
22.17566935221384
 20
89.69601440429597
 30
0.0
 10
22.17566935221384
 20
89.69601440429597
 30
0.0
 10
24.90568033854197
 20
88.23301696777253
 30
0.0
 10
24.90568033854197
 20
88.23301696777253
 30
0.0
 10
24.90568033854197
 20
88.23301696777253
 30
0.0
 10
21.50367228190134
 20
86.16201782226472
 30
0.0
 10
21.50367228190134
 20
86.16201782226472
 30
0.0
 10
21.46567789713572
 20
86.13902282714753
 30
0.0
 10
21.44068400065134
 20
86.10301208496003
 30
0.0
 10
21.40668741862009
 20
86.07402038574128
 30
0.0
 10
21.37668863932322
 20
86.04702758788972
 30
0.0
 10
21.34269205729197
 20
86.02401733398347
 30
0.0
 10
21.31568400065134
 20
85.99102783203034
 30
0.0
 10
21.27967325846384
 20
85.94403076171784
 30
0.0
 10
21.25767008463572
 20
85.89102172851472
 30
0.0
 10
21.23469034830759
 20
85.83802795410065
 30
0.0
 10
21.22168986002634
 20
85.81103515624909
 30
0.0
 10
21.20069376627634
 20
85.78903198242097
 30
0.0
 10
21.19169108072947
 20
85.75903320312409
 30
0.0
 10
21.19169108072947
 20
85.75903320312409
 30
0.0
 10
19.18567911783884
 20
79.00001525878815
 30
0.0
 10
19.18567911783884
 20
79.00001525878815
 30
0.0
 10
19.18567911783884
 20
79.00001525878815
 30
0.0
 10
17.11869303385447
 20
79.7260284423819
 30
0.0
 10
17.11869303385447
 20
79.7260284423819
 30
0.0
 10
17.11869303385447
 20
79.7260284423819
 30
0.0
 10
22.17566935221384
 20
89.69601440429597
 30
0.0
 10
22.17566935221384
 20
89.69601440429597
 30
0.0
  0
POLYLINE
  5
61
330
1F
100
AcDbEntity
  8
Layer 1
370
     0
100
AcDb2dPolyline
 66
     1
 10
0.0
 20
0.0
 30
0.0
  0
VERTEX
  5
62
330
61
100
AcDbEntity
  8
Layer 1
370
     0
100
AcDbVertex
100
AcDb2dVertex
 10
20.64066569010447
 20
78.91801452636628
 30
0.0
  0
VERTEX
  5
63
330
61
100
AcDbEntity
  8
Layer 1
370
     0
100
AcDbVertex
100
AcDb2dVertex
 10
22.06867472330759
 20
83.7260284423819
 30
0.0
  0
VERTEX
  5
64
330
61
100
AcDbEntity
  8
Layer 1
370
     0
100
AcDbVertex
100
AcDb2dVertex
 10
24.45066324869822
 20
79.38304138183503
 30
0.0
  0
VERTEX
  5
65
330
61
100
AcDbEntity
  8
Layer 1
370
     0
100
AcDbVertex
100
AcDb2dVertex
 10
20.64066569010447
 20
78.91801452636628
 30
0.0
  0
SEQEND
  5
66
330
61
100
AcDbEntity
  8
Layer 1
370
     0
  0
SPLINE
  5
67
330
1F
100
AcDbEntity
  8
Layer 1
370
     0
100
AcDbSpline
210
0.0
220
0.0
230
1.0
 70
    11
 71
     3
 72
    32
 73
    28
 74
     0
 42
0.0000000001
 43
0.0000000001
 12
1.0
 22
0.0
 32
0.0
 13
1.0
 23
0.0
 33
0.0
 40
0.0
 40
0.0
 40
0.0
 40
0.0
 40
1.0
 40
1.0
 40
1.0
 40
2.0
 40
2.0
 40
2.0
 40
3.0
 40
3.0
 40
3.0
 40
4.0
 40
4.0
 40
4.0
 40
5.0
 40
5.0
 40
5.0
 40
6.0
 40
6.0
 40
6.0
 40
7.0
 40
7.0
 40
7.0
 40
8.0
 40
8.0
 40
8.0
 40
9.0
 40
9.0
 40
9.0
 40
9.0
 10
39.22565714518259
 20
63.6690216064444
 30
0.0
 10
39.22565714518259
 20
63.6690216064444
 30
0.0
 10
35.95466105143259
 20
68.46501159667878
 30
0.0
 10
35.95466105143259
 20
68.46501159667878
 30
0.0
 10
35.95466105143259
 20
68.46501159667878
 30
0.0
 10
37.38965861002634
 20
67.87400817871003
 30
0.0
 10
37.38965861002634
 20
67.87400817871003
 30
0.0
 10
37.46665445963572
 20
67.8419952392569
 30
0.0
 10
37.54966227213572
 20
67.82402038574128
 30
0.0
 10
37.63364664713572
 20
67.8209991455069
 30
0.0
 10
37.63364664713572
 20
67.8209991455069
 30
0.0
 10
39.60264078776072
 20
67.75099182128815
 30
0.0
 10
39.60264078776072
 20
67.75099182128815
 30
0.0
 10
39.60264078776072
 20
67.75099182128815
 30
0.0
 10
41.47663370768259
 20
63.3789825439444
 30
0.0
 10
41.47663370768259
 20
63.3789825439444
 30
0.0
 10
41.17362467447947
 20
57.33198547363281
 30
0.0
 10
40.75364176432322
 20
49.16899108886719
 30
0.0
 10
40.50162760416697
 20
44.65098571777344
 30
0.0
 10
40.50162760416697
 20
44.65098571777344
 30
0.0
 10
39.34861246744822
 20
44.23799133300781
 30
0.0
 10
39.34861246744822
 20
44.23799133300781
 30
0.0
 10
39.34861246744822
 20
44.23799133300781
 30
0.0
 10
39.34861246744822
 20
63.27000427246003
 30
0.0
 10
39.34861246744822
 20
63.27000427246003
 30
0.0
 10
39.34867350260447
 20
63.41200256347565
 30
0.0
 10
39.30567423502634
 20
63.55101013183503
 30
0.0
 10
39.22565714518259
 20
63.6690216064444
 30
0.0
  0
SPLINE
  5
68
330
1F
100
AcDbEntity
  8
Layer 1
370
     0
100
AcDbSpline
210
0.0
220
0.0
230
1.0
 70
    11
 71
     3
 72
    14
 73
    10
 74
     0
 42
0.0000000001
 43
0.0000000001
 12
1.0
 22
0.0
 32
0.0
 13
1.0
 23
0.0
 33
0.0
 40
0.0
 40
0.0
 40
0.0
 40
0.0
 40
1.0
 40
1.0
 40
1.0
 40
2.0
 40
2.0
 40
2.0
 40
3.0
 40
3.0
 40
3.0
 40
3.0
 10
40.41465250651072
 20
43.11500549316406
 30
0.0
 10
40.38263956705759
 20
42.55699157714844
 30
0.0
 10
40.35364786783884
 20
42.10499572753906
 30
0.0
 10
40.33365885416697
 20
41.79499816894531
 30
0.0
 10
40.33365885416697
 20
41.79499816894531
 30
0.0
 10
36.68866984049509
 20
41.77998352050781
 30
0.0
 10
36.68866984049509
 20
41.77998352050781
 30
0.0
 10
36.68866984049509
 20
41.77998352050781
 30
0.0
 10
40.41465250651072
 20
43.11500549316406
 30
0.0
 10
40.41465250651072
 20
43.11500549316406
 30
0.0
  0
SPLINE
  5
69
330
1F
100
AcDbEntity
  8
Layer 1
370
     0
100
AcDbSpline
210
0.0
220
0.0
230
1.0
 70
    11
 71
     3
 72
    29
 73
    25
 74
     0
 42
0.0000000001
 43
0.0000000001
 12
1.0
 22
0.0
 32
0.0
 13
1.0
 23
0.0
 33
0.0
 40
0.0
 40
0.0
 40
0.0
 40
0.0
 40
1.0
 40
1.0
 40
1.0
 40
2.0
 40
2.0
 40
2.0
 40
3.0
 40
3.0
 40
3.0
 40
4.0
 40
4.0
 40
4.0
 40
5.0
 40
5.0
 40
5.0
 40
6.0
 40
6.0
 40
6.0
 40
7.0
 40
7.0
 40
7.0
 40
8.0
 40
8.0
 40
8.0
 40
8.0
 10
43.10865275065134
 20
43.87501525878906
 30
0.0
 10
42.66865030924509
 20
43.45500183105469
 30
0.0
 10
42.19965616862009
 20
43.01802062988281
 30
0.0
 10
41.79065958658884
 20
42.64500427246094
 30
0.0
 10
41.81565348307322
 20
43.03199768066406
 30
0.0
 10
41.84565226237009
 20
43.51399230957031
 30
0.0
 10
41.87964884440134
 20
44.09199523925781
 30
0.0
 10
41.88065592447947
 20
44.09800720214844
 30
0.0
 10
41.88065592447947
 20
44.10298156738281
 30
0.0
 10
41.88065592447947
 20
44.10899353027344
 30
0.0
 10
42.05564371744822
 20
47.03398132324219
 30
0.0
 10
42.35965983072947
 20
52.64100646972656
 30
0.0
 10
42.90064493815134
 20
63.4720001220694
 30
0.0
 10
42.90564982096384
 20
63.57899475097565
 30
0.0
 10
42.88663736979197
 20
63.68699645996003
 30
0.0
 10
42.84363810221384
 20
63.78599548339753
 30
0.0
 10
42.84363810221384
 20
63.78599548339753
 30
0.0
 10
41.16865030924509
 20
67.69398498535065
 30
0.0
 10
41.16865030924509
 20
67.69398498535065
 30
0.0
 10
41.16865030924509
 20
67.69398498535065
 30
0.0
 10
45.85465494791697
 20
67.52598571777253
 30
0.0
 10
45.85465494791697
 20
67.52598571777253
 30
0.0
 10
45.85465494791697
 20
67.52598571777253
 30
0.0
 10
43.10865275065134
 20
43.87501525878906
 30
0.0
 10
43.10865275065134
 20
43.87501525878906
 30
0.0
  0
SPLINE
  5
6A
330
1F
100
AcDbEntity
  8
Layer 1
370
     0
100
AcDbSpline
210
0.0
220
0.0
230
1.0
 70
    11
 71
     3
 72
    29
 73
    25
 74
     0
 42
0.0000000001
 43
0.0000000001
 12
1.0
 22
0.0
 32
0.0
 13
1.0
 23
0.0
 33
0.0
 40
0.0
 40
0.0
 40
0.0
 40
0.0
 40
1.0
 40
1.0
 40
1.0
 40
2.0
 40
2.0
 40
2.0
 40
3.0
 40
3.0
 40
3.0
 40
4.0
 40
4.0
 40
4.0
 40
5.0
 40
5.0
 40
5.0
 40
6.0
 40
6.0
 40
6.0
 40
7.0
 40
7.0
 40
7.0
 40
8.0
 40
8.0
 40
8.0
 40
8.0
 10
49.76365152994822
 20
68.80400085449128
 30
0.0
 10
49.76365152994822
 20
68.80400085449128
 30
0.0
 10
37.81165568033884
 20
69.23399353027253
 30
0.0
 10
37.81165568033884
 20
69.23399353027253
 30
0.0
 10
37.81165568033884
 20
69.23399353027253
 30
0.0
 10
29.83066813151072
 20
72.52000427246003
 30
0.0
 10
29.83066813151072
 20
72.52000427246003
 30
0.0
 10
29.83066813151072
 20
72.52000427246003
 30
0.0
 10
22.81968180338572
 20
85.30400085449128
 30
0.0
 10
22.81968180338572
 20
85.30400085449128
 30
0.0
 10
22.81968180338572
 20
85.30400085449128
 30
0.0
 10
34.52067057291697
 20
92.42900085449128
 30
0.0
 10
34.52067057291697
 20
92.42900085449128
 30
0.0
 10
39.41767374674509
 20
92.2270050048819
 30
0.0
 10
47.06467692057322
 20
91.8419952392569
 30
0.0
 10
48.65168253580759
 20
91.5919952392569
 30
0.0
 10
49.03766886393259
 20
90.75199890136628
 30
0.0
 10
50.22269694010447
 20
88.50399780273347
 30
0.0
 10
53.87168375651163
 20
81.7279815673819
 30
0.0
 10
54.92069498698038
 20
79.78196716308503
 30
0.0
 10
55.99967447916788
 20
77.77796936035065
 30
0.0
 10
56.35068766276163
 20
77.10499572753815
 30
0.0
 10
55.67566935221475
 20
76.06602478027253
 30
0.0
 10
52.61167399088663
 20
72.2470245361319
 30
0.0
 10
49.76365152994822
 20
68.80400085449128
 30
0.0
  0
SPLINE
  5
6B
330
1F
100
AcDbEntity
  8
Layer 1
370
     0
100
AcDbSpline
210
0.0
220
0.0
230
1.0
 70
    11
 71
     3
 72
    17
 73
    13
 74
     0
 42
0.0000000001
 43
0.0000000001
 12
1.0
 22
0.0
 32
0.0
 13
1.0
 23
0.0
 33
0.0
 40
0.0
 40
0.0
 40
0.0
 40
0.0
 40
1.0
 40
1.0
 40
1.0
 40
2.0
 40
2.0
 40
2.0
 40
3.0
 40
3.0
 40
3.0
 40
4.0
 40
4.0
 40
4.0
 40
4.0
 10
57.48966471354288
 20
77.9760284423819
 30
0.0
 10
57.15366617838663
 20
78.61802673339753
 30
0.0
 10
56.47867838541788
 20
79.87403869628815
 30
0.0
 10
55.11866251627725
 20
82.40003967285065
 30
0.0
 10
53.87964884440225
 20
84.70204162597565
 30
0.0
 10
52.25266520182413
 20
87.72404479980378
 30
0.0
 10
51.13465372721475
 20
89.84303283691315
 30
0.0
 10
51.13465372721475
 20
89.84303283691315
 30
0.0
 10
64.08765665690225
 20
80.2730255126944
 30
0.0
 10
64.08765665690225
 20
80.2730255126944
 30
0.0
 10
64.08765665690225
 20
80.2730255126944
 30
0.0
 10
57.48966471354288
 20
77.9760284423819
 30
0.0
 10
57.48966471354288
 20
77.9760284423819
 30
0.0
  0
HATCH
  5
6C
330
1F
100
AcDbEntity
  8
Layer 1
 62
     7
420
 16777215
100
AcDbHatch
 10
0.0
 20
0.0
 30
0.0
210
0.0
220
0.0
230
1.0
  2
SOLID
 70
     1
 71
     0
 91
       12
 92
        1
 93
        1
 72
     4
 94
        3
 73
     0
 74
     1
 95
      218
 96
      214
 40
0.0
 40
0.0
 40
0.0
 40
0.0
 40
1.0
 40
1.0
 40
1.0
 40
2.0
 40
2.0
 40
2.0
 40
3.0
 40
3.0
 40
3.0
 40
4.0
 40
4.0
 40
4.0
 40
5.0
 40
5.0
 40
5.0
 40
6.0
 40
6.0
 40
6.0
 40
7.0
 40
7.0
 40
7.0
 40
8.0
 40
8.0
 40
8.0
 40
9.0
 40
9.0
 40
9.0
 40
10.0
 40
10.0
 40
10.0
 40
11.0
 40
11.0
 40
11.0
 40
12.0
 40
12.0
 40
12.0
 40
13.0
 40
13.0
 40
13.0
 40
14.0
 40
14.0
 40
14.0
 40
15.0
 40
15.0
 40
15.0
 40
16.0
 40
16.0
 40
16.0
 40
17.0
 40
17.0
 40
17.0
 40
18.0
 40
18.0
 40
18.0
 40
19.0
 40
19.0
 40
19.0
 40
20.0
 40
20.0
 40
20.0
 40
21.0
 40
21.0
 40
21.0
 40
22.0
 40
22.0
 40
22.0
 40
23.0
 40
23.0
 40
23.0
 40
24.0
 40
24.0
 40
24.0
 40
25.0
 40
25.0
 40
25.0
 40
26.0
 40
26.0
 40
26.0
 40
27.0
 40
27.0
 40
27.0
 40
28.0
 40
28.0
 40
28.0
 40
29.0
 40
29.0
 40
29.0
 40
30.0
 40
30.0
 40
30.0
 40
31.0
 40
31.0
 40
31.0
 40
32.0
 40
32.0
 40
32.0
 40
33.0
 40
33.0
 40
33.0
 40
34.0
 40
34.0
 40
34.0
 40
35.0
 40
35.0
 40
35.0
 40
36.0
 40
36.0
 40
36.0
 40
37.0
 40
37.0
 40
37.0
 40
38.0
 40
38.0
 40
38.0
 40
39.0
 40
39.0
 40
39.0
 40
40.0
 40
40.0
 40
40.0
 40
41.0
 40
41.0
 40
41.0
 40
42.0
 40
42.0
 40
42.0
 40
43.0
 40
43.0
 40
43.0
 40
44.0
 40
44.0
 40
44.0
 40
45.0
 40
45.0
 40
45.0
 40
46.0
 40
46.0
 40
46.0
 40
47.0
 40
47.0
 40
47.0
 40
48.0
 40
48.0
 40
48.0
 40
49.0
 40
49.0
 40
49.0
 40
50.0
 40
50.0
 40
50.0
 40
51.0
 40
51.0
 40
51.0
 40
52.0
 40
52.0
 40
52.0
 40
53.0
 40
53.0
 40
53.0
 40
54.0
 40
54.0
 40
54.0
 40
55.0
 40
55.0
 40
55.0
 40
56.0
 40
56.0
 40
56.0
 40
57.0
 40
57.0
 40
57.0
 40
58.0
 40
58.0
 40
58.0
 40
59.0
 40
59.0
 40
59.0
 40
60.0
 40
60.0
 40
60.0
 40
61.0
 40
61.0
 40
61.0
 40
62.0
 40
62.0
 40
62.0
 40
63.0
 40
63.0
 40
63.0
 40
64.0
 40
64.0
 40
64.0
 40
65.0
 40
65.0
 40
65.0
 40
66.0
 40
66.0
 40
66.0
 40
67.0
 40
67.0
 40
67.0
 40
68.0
 40
68.0
 40
68.0
 40
69.0
 40
69.0
 40
69.0
 40
70.0
 40
70.0
 40
70.0
 40
71.0
 40
71.0
 40
71.0
 40
71.0
 10
66.00965372721475
 20
80.61402893066315
 10
66.00965372721475
 20
80.61402893066315
 10
49.73465983072947
 20
92.63902282714753
 10
49.73465983072947
 20
92.63902282714753
 10
49.70765177408884
 20
92.66302490234284
 10
49.67566935221384
 20
92.68801879882722
 10
49.63666788737009
 20
92.71102905273347
 10
49.63666788737009
 20
92.71102905273347
 10
49.59568277994822
 20
92.74102783203034
 10
49.59568277994822
 20
92.74102783203034
 10
49.49268595377634
 20
92.81602478027253
 10
49.37769571940134
 20
92.84902954101472
 10
49.26069132487009
 20
92.86402893066315
 10
48.06669108072947
 20
93.21403503417878
 10
44.57468668619822
 20
93.4340362548819
 10
34.36469523112009
 20
93.85203552246003
 10
34.22168986002634
 20
93.85304260253815
 10
34.08570353190134
 20
93.82203674316315
 10
33.96769205729197
 20
93.74903869628815
 10
33.96769205729197
 20
93.74903869628815
 10
26.31269327799509
 20
89.08804321288972
 10
26.31269327799509
 20
89.08804321288972
 10
26.31269327799509
 20
89.08804321288972
 10
22.56168619791697
 20
91.09704589843659
 10
22.56168619791697
 20
91.09704589843659
 10
22.56168619791697
 20
91.09704589843659
 10
21.51767985026072
 20
112.53904724121
 10
21.51767985026072
 20
112.53904724121
 10
21.51667277018259
 20
112.5580444335928
 10
21.50467936197947
 20
112.5730438232413
 10
21.50168863932322
 20
112.5920410156241
 10
21.49369303385447
 20
112.6590423583975
 10
21.47269694010447
 20
112.7230377197257
 10
21.44367472330759
 20
112.7870483398428
 10
21.42768351237009
 20
112.8210449218741
 10
21.41767374674509
 20
112.8540496826163
 10
21.39768473307322
 20
112.8860473632803
 10
21.38868204752634
 20
112.8990478515616
 10
21.38767496744822
 20
112.9130401611319
 10
21.37867228190134
 20
112.9250488281241
 10
21.37867228190134
 20
112.9250488281241
 10
18.64966837565134
 20
116.632049560546
 10
18.64966837565134
 20
116.632049560546
 10
18.54267374674509
 20
116.778045654296
 10
18.38267008463572
 20
116.8780517578116
 10
18.20466105143259
 20
116.9090423583975
 10
18.20466105143259
 20
116.9090423583975
 10
12.30366007487009
 20
117.966049194335
 10
12.30366007487009
 20
117.966049194335
 10
12.30164591471384
 20
117.9670562744132
 10
12.29966227213572
 20
117.9670562744132
 10
12.29764811197947
 20
117.9670562744132
 10
12.29764811197947
 20
117.9670562744132
 10
12.27164713541697
 20
117.9720611572257
 10
12.27164713541697
 20
117.9720611572257
 10
12.25464884440134
 20
117.975067138671
 10
12.23963419596384
 20
117.9670562744132
 10
12.22263590494822
 20
117.9690551757803
 10
12.13962809244822
 20
117.9780578613272
 10
12.05964152018259
 20
117.9750518798819
 10
11.97864786783884
 20
117.955047607421
 10
11.94663492838572
 20
117.9470520019522
 10
11.91764322916697
 20
117.9330444335928
 10
11.88566080729197
 20
117.9200439453116
 10
11.82267252604197
 20
117.8950500488272
 10
11.76465861002634
 20
117.8610382080069
 10
11.70966593424509
 20
117.8170471191397
 10
11.69266764322947
 20
117.8040466308585
 10
11.67167154947947
 20
117.8000488281241
 10
11.65568033854197
 20
117.7860412597647
 10
11.64167277018259
 20
117.7720336914053
 10
11.63767496744822
 20
117.7530364990225
 10
11.62467447916697
 20
117.7380371093741
 10
11.60767618815134
 20
117.7180328369132
 10
11.58567301432322
 20
117.7080383300772
 10
11.56968180338572
 20
117.6860351562491
 10
11.56968180338572
 20
117.6860351562491
 10
7.169687906901345
 20
111.5280303955069
 10
7.169687906901345
 20
111.5280303955069
 10
7.151682535807595
 20
111.5040283203116
 10
7.148691813151345
 20
111.4720306396475
 10
7.133677164713845
 20
111.446029663085
 10
7.105662027995095
 20
111.393035888671
 10
7.076670328776345
 20
111.3430328369132
 10
7.06266276041697
 20
111.2850341796866
 10
7.05167643229197
 20
111.2410278320303
 10
7.05466715494822
 20
111.1970367431632
 10
7.05265299479197
 20
111.1520385742178
 10
7.05063883463572
 20
111.1110382080069
 10
7.03763834635447
 20
111.0730438232413
 10
7.04264322916697
 20
111.0310363769522
 10
7.04264322916697
 20
111.0310363769522
 10
7.63865152994822
 20
106.091033935546
 10
7.63865152994822
 20
106.091033935546
 10
7.679636637370095
 20
105.7460327148428
 10
7.96464029947947
 20
105.4830322265616
 10
8.311655680338845
 20
105.4680328369132
 10
8.311655680338845
 20
105.4680328369132
 10
9.915659586588845
 20
105.3990325927725
 10
9.915659586588845
 20
105.3990325927725
 10
9.925669352213845
 20
105.3990325927725
 10
9.936655680338845
 20
105.3980255126944
 10
9.94565836588572
 20
105.3980255126944
 10
10.20365397135447
 20
105.3980255126944
 10
10.44166056315134
 20
105.539031982421
 10
10.56666056315134
 20
105.7650299072257
 10
10.56666056315134
 20
105.7650299072257
 10
12.02265421549509
 20
108.4110260009757
 10
12.02265421549509
 20
108.4110260009757
 10
12.02265421549509
 20
108.4110260009757
 10
13.41465250651072
 20
109.2750244140616
 10
13.41465250651072
 20
109.2750244140616
 10
13.41465250651072
 20
109.2750244140616
 10
15.73163859049509
 20
109.8470306396475
 10
15.73163859049509
 20
109.8470306396475
 10
15.73163859049509
 20
109.8470306396475
 10
12.15064493815134
 20
86.05702209472565
 10
12.15064493815134
 20
86.05702209472565
 10
12.12964884440134
 20
85.9140167236319
 10
12.15265909830759
 20
85.7680206298819
 10
12.21564737955759
 20
85.6380157470694
 10
12.21564737955759
 20
85.6380157470694
 10
15.48563639322947
 20
79.00901794433503
 10
15.48563639322947
 20
79.00901794433503
 10
15.49662272135447
 20
78.98802185058503
 10
15.51862589518259
 20
78.97901916503815
 10
15.53162638346384
 20
78.95903015136628
 10
15.57963053385447
 20
78.88002014160065
 10
15.63862101237009
 20
78.81303405761628
 10
15.71363321940134
 20
78.76002502441315
 10
15.74463907877634
 20
78.73802185058503
 10
15.77463785807322
 20
78.71903991699128
 10
15.80762736002634
 20
78.70201110839753
 10
15.83564249674509
 20
78.68699645996003
 10
15.85761515299509
 20
78.6640167236319
 10
15.88663736979197
 20
78.65299987792878
 10
15.88663736979197
 20
78.65299987792878
 10
19.41962687174509
 20
77.41200256347565
 10
19.41962687174509
 20
77.41200256347565
 10
19.49762980143259
 20
77.38499450683503
 10
19.57663981119822
 20
77.37199401855378
 10
19.65461222330759
 20
77.37199401855378
 10
19.68262736002634
 20
77.37199401855378
 10
19.71161905924509
 20
77.37400817871003
 10
19.74061075846384
 20
77.3780059814444
 10
19.74061075846384
 20
77.3780059814444
 10
25.18461100260447
 20
78.04200744628815
 10
25.18461100260447
 20
78.04200744628815
 10
25.18461100260447
 20
78.04200744628815
 10
28.70859781901072
 20
71.61500549316315
 10
28.70859781901072
 20
71.61500549316315
 10
28.78559366862009
 20
71.47300720214753
 10
28.90958658854197
 20
71.3620147705069
 10
29.06058756510447
 20
71.30101013183503
 10
29.06058756510447
 20
71.30101013183503
 10
33.88459269205759
 20
69.3150177001944
 10
33.88459269205759
 20
69.3150177001944
 10
33.86258951822947
 20
69.14701843261628
 10
33.89258829752634
 20
68.9710235595694
 10
33.99457804362009
 20
68.82102966308503
 10
33.99457804362009
 20
68.82102966308503
 10
37.93158976237009
 20
63.0490264892569
 10
37.93158976237009
 20
63.0490264892569
 10
37.93158976237009
 20
63.0490264892569
 10
37.93158976237009
 20
43.72901916503906
 10
37.93158976237009
 20
43.72901916503906
 10
37.93158976237009
 20
43.72901916503906
 10
32.32560221354197
 20
41.72102355957031
 10
32.32560221354197
 20
41.72102355957031
 10
32.00159708658884
 20
41.60502624511719
 10
31.80658976237009
 20
41.27201843261719
 10
31.86658732096384
 20
40.93101501464844
 10
31.92658487955759
 20
40.59202575683594
 10
32.22059122721384
 20
40.34501647949219
 10
32.56458536783884
 20
40.34501647949219
 10
32.56559244791697
 20
40.34501647949219
 10
32.56659952799509
 20
40.34501647949219
 10
32.56757609049509
 20
40.34501647949219
 10
32.56757609049509
 20
40.34501647949219
 10
40.73057047526072
 20
40.37702941894531
 10
40.73057047526072
 20
40.37702941894531
 10
40.80655924479197
 20
40.33702087402344
 10
40.88056437174509
 20
40.30702209472656
 10
40.96656290690134
 20
40.30702209472656
 10
41.35456339518259
 20
40.30702209472656
 10
41.99756876627634
 20
40.84303283691406
 10
44.27555338541697
 20
43.02601623535156
 10
44.39454142252634
 20
43.14002990722656
 10
44.46955362955759
 20
43.29301452636719
 10
44.48954264322947
 20
43.45600891113281
 10
44.48954264322947
 20
43.45600891113281
 10
47.27753702799509
 20
67.47401428222565
 10
47.27753702799509
 20
67.47401428222565
 10
47.27753702799509
 20
67.47401428222565
 10
50.06254069010447
 20
67.37400817871003
 10
50.06254069010447
 20
67.37400817871003
 10
50.07154337565134
 20
67.3730010986319
 10
50.07953898112009
 20
67.3730010986319
 10
50.08753458658884
 20
67.3730010986319
 10
50.29853312174509
 20
67.3730010986319
 10
50.49854532877634
 20
67.4669952392569
 10
50.63352457682322
 20
67.62998962402253
 10
55.44251505533975
 20
73.43299865722565
 10
57.08753458658975
 20
75.59098815917878
 10
57.61451212565225
 20
76.5189971923819
 10
57.61451212565225
 20
76.5189971923819
 10
65.82151285807413
 20
79.37400817871003
 10
65.82151285807413
 20
79.37400817871003
 10
66.070505777996
 20
79.46000671386628
 10
66.25049845377725
 20
79.67701721191315
 10
66.289499918621
 20
79.93601989746003
 10
66.32865397135538
 20
80.19700622558503
 10
66.22165934244913
 20
80.45802307128815
 10
66.00965372721475
 20
80.61402893066315
 97
        0
 97
        0
 92
        1
 93
        5
 72
     1
 10
17.67566935221384
 20
115.5660095214835
 11
19.69767252604197
 21
112.8200073242178
 72
     1
 10
19.69767252604197
 20
112.8200073242178
 11
16.36768595377634
 21
111.4660034179678
 72
     1
 10
16.36768595377634
 20
111.4660034179678
 11
13.72968546549509
 21
110.8150024414053
 72
     1
 10
13.72968546549509
 20
110.8150024414053
 11
12.97669474283884
 21
116.4069976806632
 72
     1
 10
12.97669474283884
 20
116.4069976806632
 11
17.67566935221384
 21
115.5660095214835
 97
        0
 92
        1
 93
        4
 72
     1
 10
11.68168131510447
 20
115.4090118408194
 11
12.36966959635447
 21
110.2970123291007
 72
     1
 10
12.36966959635447
 20
110.2970123291007
 11
11.47867838541697
 21
109.7440185546866
 72
     1
 10
11.47867838541697
 20
109.7440185546866
 11
8.771677652995095
 21
111.3360137939444
 72
     1
 10
8.771677652995095
 20
111.3360137939444
 11
11.68168131510447
 21
115.4090118408194
 97
        0
 92
        1
 93
        4
 72
     1
 10
9.534678141276345
 20
106.8350219726553
 11
8.972666422526345
 21
106.8590240478507
 72
     1
 10
8.972666422526345
 20
106.8590240478507
 11
8.61966959635447
 21
109.7810211181632
 72
     1
 10
8.61966959635447
 20
109.7810211181632
 11
10.53565470377634
 21
108.654022216796
 72
     1
 10
10.53565470377634
 20
108.654022216796
 11
9.534678141276345
 21
106.8350219726553
 97
        0
 92
        1
 93
        5
 72
     1
 10
17.22867838541697
 20
110.2870178222647
 11
20.14869181315134
 21
111.4740142822257
 72
     1
 10
20.14869181315134
 20
111.4740142822257
 11
21.15470377604197
 21
90.81600952148347
 72
     1
 10
21.15470377604197
 20
90.81600952148347
 11
16.12870279947947
 21
80.91001892089753
 72
     1
 10
16.12870279947947
 20
80.91001892089753
 11
13.58368937174509
 21
86.06901550292878
 72
     1
 10
13.58368937174509
 20
86.06901550292878
 11
17.22867838541697
 21
110.2870178222647
 97
        0
 92
        1
 93
        1
 72
     4
 94
        3
 73
     0
 74
     1
 95
       32
 96
       28
 40
0.0
 40
0.0
 40
0.0
 40
0.0
 40
1.0
 40
1.0
 40
1.0
 40
2.0
 40
2.0
 40
2.0
 40
3.0
 40
3.0
 40
3.0
 40
4.0
 40
4.0
 40
4.0
 40
5.0
 40
5.0
 40
5.0
 40
6.0
 40
6.0
 40
6.0
 40
7.0
 40
7.0
 40
7.0
 40
8.0
 40
8.0
 40
8.0
 40
9.0
 40
9.0
 40
9.0
 40
9.0
 10
22.17566935221384
 20
89.69601440429597
 10
22.17566935221384
 20
89.69601440429597
 10
24.90568033854197
 20
88.23301696777253
 10
24.90568033854197
 20
88.23301696777253
 10
24.90568033854197
 20
88.23301696777253
 10
21.50367228190134
 20
86.16201782226472
 10
21.50367228190134
 20
86.16201782226472
 10
21.46567789713572
 20
86.13902282714753
 10
21.44068400065134
 20
86.10301208496003
 10
21.40668741862009
 20
86.07402038574128
 10
21.37668863932322
 20
86.04702758788972
 10
21.34269205729197
 20
86.02401733398347
 10
21.31568400065134
 20
85.99102783203034
 10
21.27967325846384
 20
85.94403076171784
 10
21.25767008463572
 20
85.89102172851472
 10
21.23469034830759
 20
85.83802795410065
 10
21.22168986002634
 20
85.81103515624909
 10
21.20069376627634
 20
85.78903198242097
 10
21.19169108072947
 20
85.75903320312409
 10
21.19169108072947
 20
85.75903320312409
 10
19.18567911783884
 20
79.00001525878815
 10
19.18567911783884
 20
79.00001525878815
 10
19.18567911783884
 20
79.00001525878815
 10
17.11869303385447
 20
79.7260284423819
 10
17.11869303385447
 20
79.7260284423819
 10
17.11869303385447
 20
79.7260284423819
 10
22.17566935221384
 20
89.69601440429597
 10
22.17566935221384
 20
89.69601440429597
 97
        0
 97
        0
 92
        1
 93
        3
 72
     1
 10
20.64066569010447
 20
78.91801452636628
 11
22.06867472330759
 21
83.7260284423819
 72
     1
 10
22.06867472330759
 20
83.7260284423819
 11
24.45066324869822
 21
79.38304138183503
 72
     1
 10
24.45066324869822
 20
79.38304138183503
 11
20.64066569010447
 21
78.91801452636628
 97
        0
 92
        1
 93
        1
 72
     4
 94
        3
 73
     0
 74
     1
 95
       32
 96
       28
 40
0.0
 40
0.0
 40
0.0
 40
0.0
 40
1.0
 40
1.0
 40
1.0
 40
2.0
 40
2.0
 40
2.0
 40
3.0
 40
3.0
 40
3.0
 40
4.0
 40
4.0
 40
4.0
 40
5.0
 40
5.0
 40
5.0
 40
6.0
 40
6.0
 40
6.0
 40
7.0
 40
7.0
 40
7.0
 40
8.0
 40
8.0
 40
8.0
 40
9.0
 40
9.0
 40
9.0
 40
9.0
 10
39.22565714518259
 20
63.6690216064444
 10
39.22565714518259
 20
63.6690216064444
 10
35.95466105143259
 20
68.46501159667878
 10
35.95466105143259
 20
68.46501159667878
 10
35.95466105143259
 20
68.46501159667878
 10
37.38965861002634
 20
67.87400817871003
 10
37.38965861002634
 20
67.87400817871003
 10
37.46665445963572
 20
67.8419952392569
 10
37.54966227213572
 20
67.82402038574128
 10
37.63364664713572
 20
67.8209991455069
 10
37.63364664713572
 20
67.8209991455069
 10
39.60264078776072
 20
67.75099182128815
 10
39.60264078776072
 20
67.75099182128815
 10
39.60264078776072
 20
67.75099182128815
 10
41.47663370768259
 20
63.3789825439444
 10
41.47663370768259
 20
63.3789825439444
 10
41.17362467447947
 20
57.33198547363281
 10
40.75364176432322
 20
49.16899108886719
 10
40.50162760416697
 20
44.65098571777344
 10
40.50162760416697
 20
44.65098571777344
 10
39.34861246744822
 20
44.23799133300781
 10
39.34861246744822
 20
44.23799133300781
 10
39.34861246744822
 20
44.23799133300781
 10
39.34861246744822
 20
63.27000427246003
 10
39.34861246744822
 20
63.27000427246003
 10
39.34867350260447
 20
63.41200256347565
 10
39.30567423502634
 20
63.55101013183503
 10
39.22565714518259
 20
63.6690216064444
 97
        0
 97
        0
 92
        1
 93
        1
 72
     4
 94
        3
 73
     0
 74
     1
 95
       14
 96
       10
 40
0.0
 40
0.0
 40
0.0
 40
0.0
 40
1.0
 40
1.0
 40
1.0
 40
2.0
 40
2.0
 40
2.0
 40
3.0
 40
3.0
 40
3.0
 40
3.0
 10
40.41465250651072
 20
43.11500549316406
 10
40.38263956705759
 20
42.55699157714844
 10
40.35364786783884
 20
42.10499572753906
 10
40.33365885416697
 20
41.79499816894531
 10
40.33365885416697
 20
41.79499816894531
 10
36.68866984049509
 20
41.77998352050781
 10
36.68866984049509
 20
41.77998352050781
 10
36.68866984049509
 20
41.77998352050781
 10
40.41465250651072
 20
43.11500549316406
 10
40.41465250651072
 20
43.11500549316406
 97
        0
 97
        0
 92
        1
 93
        1
 72
     4
 94
        3
 73
     0
 74
     1
 95
       29
 96
       25
 40
0.0
 40
0.0
 40
0.0
 40
0.0
 40
1.0
 40
1.0
 40
1.0
 40
2.0
 40
2.0
 40
2.0
 40
3.0
 40
3.0
 40
3.0
 40
4.0
 40
4.0
 40
4.0
 40
5.0
 40
5.0
 40
5.0
 40
6.0
 40
6.0
 40
6.0
 40
7.0
 40
7.0
 40
7.0
 40
8.0
 40
8.0
 40
8.0
 40
8.0
 10
43.10865275065134
 20
43.87501525878906
 10
42.66865030924509
 20
43.45500183105469
 10
42.19965616862009
 20
43.01802062988281
 10
41.79065958658884
 20
42.64500427246094
 10
41.81565348307322
 20
43.03199768066406
 10
41.84565226237009
 20
43.51399230957031
 10
41.87964884440134
 20
44.09199523925781
 10
41.88065592447947
 20
44.09800720214844
 10
41.88065592447947
 20
44.10298156738281
 10
41.88065592447947
 20
44.10899353027344
 10
42.05564371744822
 20
47.03398132324219
 10
42.35965983072947
 20
52.64100646972656
 10
42.90064493815134
 20
63.4720001220694
 10
42.90564982096384
 20
63.57899475097565
 10
42.88663736979197
 20
63.68699645996003
 10
42.84363810221384
 20
63.78599548339753
 10
42.84363810221384
 20
63.78599548339753
 10
41.16865030924509
 20
67.69398498535065
 10
41.16865030924509
 20
67.69398498535065
 10
41.16865030924509
 20
67.69398498535065
 10
45.85465494791697
 20
67.52598571777253
 10
45.85465494791697
 20
67.52598571777253
 10
45.85465494791697
 20
67.52598571777253
 10
43.10865275065134
 20
43.87501525878906
 10
43.10865275065134
 20
43.87501525878906
 97
        0
 97
        0
 92
        1
 93
        1
 72
     4
 94
        3
 73
     0
 74
     1
 95
       29
 96
       25
 40
0.0
 40
0.0
 40
0.0
 40
0.0
 40
1.0
 40
1.0
 40
1.0
 40
2.0
 40
2.0
 40
2.0
 40
3.0
 40
3.0
 40
3.0
 40
4.0
 40
4.0
 40
4.0
 40
5.0
 40
5.0
 40
5.0
 40
6.0
 40
6.0
 40
6.0
 40
7.0
 40
7.0
 40
7.0
 40
8.0
 40
8.0
 40
8.0
 40
8.0
 10
49.76365152994822
 20
68.80400085449128
 10
49.76365152994822
 20
68.80400085449128
 10
37.81165568033884
 20
69.23399353027253
 10
37.81165568033884
 20
69.23399353027253
 10
37.81165568033884
 20
69.23399353027253
 10
29.83066813151072
 20
72.52000427246003
 10
29.83066813151072
 20
72.52000427246003
 10
29.83066813151072
 20
72.52000427246003
 10
22.81968180338572
 20
85.30400085449128
 10
22.81968180338572
 20
85.30400085449128
 10
22.81968180338572
 20
85.30400085449128
 10
34.52067057291697
 20
92.42900085449128
 10
34.52067057291697
 20
92.42900085449128
 10
39.41767374674509
 20
92.2270050048819
 10
47.06467692057322
 20
91.8419952392569
 10
48.65168253580759
 20
91.5919952392569
 10
49.03766886393259
 20
90.75199890136628
 10
50.22269694010447
 20
88.50399780273347
 10
53.87168375651163
 20
81.7279815673819
 10
54.92069498698038
 20
79.78196716308503
 10
55.99967447916788
 20
77.77796936035065
 10
56.35068766276163
 20
77.10499572753815
 10
55.67566935221475
 20
76.06602478027253
 10
52.61167399088663
 20
72.2470245361319
 10
49.76365152994822
 20
68.80400085449128
 97
        0
 97
        0
 92
        1
 93
        1
 72
     4
 94
        3
 73
     0
 74
     1
 95
       17
 96
       13
 40
0.0
 40
0.0
 40
0.0
 40
0.0
 40
1.0
 40
1.0
 40
1.0
 40
2.0
 40
2.0
 40
2.0
 40
3.0
 40
3.0
 40
3.0
 40
4.0
 40
4.0
 40
4.0
 40
4.0
 10
57.48966471354288
 20
77.9760284423819
 10
57.15366617838663
 20
78.61802673339753
 10
56.47867838541788
 20
79.87403869628815
 10
55.11866251627725
 20
82.40003967285065
 10
53.87964884440225
 20
84.70204162597565
 10
52.25266520182413
 20
87.72404479980378
 10
51.13465372721475
 20
89.84303283691315
 10
51.13465372721475
 20
89.84303283691315
 10
64.08765665690225
 20
80.2730255126944
 10
64.08765665690225
 20
80.2730255126944
 10
64.08765665690225
 20
80.2730255126944
 10
57.48966471354288
 20
77.9760284423819
 10
57.48966471354288
 20
77.9760284423819
 97
        0
 97
        0
 75
     2
 76
     1
 98
        0
  0
ENDSEC
  0
SECTION
  2
OBJECTS
  0
DICTIONARY
  5
C
330
0
100
AcDbDictionary
281
     1
  3
ACAD_GROUP
350
D
  3
ACAD_LAYOUT
350
1A
  3
ACAD_MATERIAL
350
3B
  3
ACAD_MLEADERSTYLE
350
6E
  3
ACAD_MLINESTYLE
350
17
  3
ACAD_PLOTSETTINGS
350
19
  3
ACAD_PLOTSTYLENAME
350
E
  3
ACAD_TABLESTYLE
350
6D
  3
ACAD_VISUALSTYLE
350
2A
  0
SUN
  5
3F
330
29
100
AcDbSun
 90
        1
290
     0
 63
     7
421
 16777215
 40
1.0
291
     1
 91
  2455826
 92
 54000000
292
     0
 70
     2
 71
   256
280
     1
  0
DICTIONARY
  5
D
102
{ACAD_REACTORS
330
C
102
}
330
C
100
AcDbDictionary
281
     1
  0
DICTIONARY
  5
1A
102
{ACAD_REACTORS
330
C
102
}
330
C
100
AcDbDictionary
281
     1
  3
Layout1
350
1E
  3
Layout2
350
26
  3
Model
350
22
  0
DICTIONARY
  5
3B
102
{ACAD_REACTORS
330
C
102
}
330
C
100
AcDbDictionary
281
     1
  3
ByBlock
350
3D
  3
ByLayer
350
3C
  3
Global
350
3E
  0
DICTIONARY
  5
6E
102
{ACAD_REACTORS
330
C
102
}
330
C
100
AcDbDictionary
281
     1
  0
DICTIONARY
  5
17
102
{ACAD_REACTORS
330
C
102
}
330
C
100
AcDbDictionary
281
     1
  3
Standard
350
18
  0
DICTIONARY
  5
19
102
{ACAD_REACTORS
330
C
102
}
330
C
100
AcDbDictionary
281
     1
  0
ACDBDICTIONARYWDFLT
  5
E
102
{ACAD_REACTORS
330
C
102
}
330
C
100
AcDbDictionary
281
     1
  3
Normal
350
F
100
AcDbDictionaryWithDefault
340
F
  0
DICTIONARY
  5
6D
102
{ACAD_REACTORS
330
C
102
}
330
C
100
AcDbDictionary
281
     1
  0
DICTIONARY
  5
2A
102
{ACAD_REACTORS
330
C
102
}
330
C
100
AcDbDictionary
281
     1
  3
2dWireframe
350
2F
  3
3D Hidden
350
31
  3
3dWireframe
350
30
  3
Basic
350
32
  3
Brighten
350
36
  3
ColorChange
350
3A
  3
Conceptual
350
34
  3
Dim
350
35
  3
Facepattern
350
39
  3
Flat
350
2B
  3
FlatWithEdges
350
2C
  3
Gouraud
350
2D
  3
GouraudWithEdges
350
2E
  3
Linepattern
350
38
  3
Realistic
350
33
  3
Thicken
350
37
  0
LAYOUT
  5
1E
102
{ACAD_REACTORS
330
1A
102
}
330
1A
100
AcDbPlotSettings
  1

  2
none_device
  4

  6

 40
0.0
 41
0.0
 42
0.0
 43
0.0
 44
0.0
 45
0.0
 46
0.0
 47
0.0
 48
0.0
 49
0.0
140
0.0
141
0.0
142
1.0
143
1.0
 70
   688
 72
     0
 73
     0
 74
     5
  7

 75
    16
 76
     0
 77
     2
 78
   300
147
1.0
148
0.0
149
0.0
100
AcDbLayout
  1
Layout1
 70
     1
 71
     1
 10
0.0
 20
0.0
 11
12.0
 21
9.0
 12
0.0
 22
0.0
 32
0.0
 14
1.000000000000000E+20
 24
1.000000000000000E+20
 34
1.000000000000000E+20
 15
-1.000000000000000E+20
 25
-1.000000000000000E+20
 35
-1.000000000000000E+20
146
0.0
 13
0.0
 23
0.0
 33
0.0
 16
1.0
 26
0.0
 36
0.0
 17
0.0
 27
1.0
 37
0.0
 76
     0
330
1B
  0
LAYOUT
  5
26
102
{ACAD_REACTORS
330
1A
102
}
330
1A
100
AcDbPlotSettings
  1

  2
none_device
  4

  6

 40
0.0
 41
0.0
 42
0.0
 43
0.0
 44
0.0
 45
0.0
 46
0.0
 47
0.0
 48
0.0
 49
0.0
140
0.0
141
0.0
142
1.0
143
1.0
 70
   688
 72
     0
 73
     0
 74
     5
  7

 75
    16
 76
     0
 77
     2
 78
   300
147
1.0
148
0.0
149
0.0
100
AcDbLayout
  1
Layout2
 70
     1
 71
     2
 10
0.0
 20
0.0
 11
0.0
 21
0.0
 12
0.0
 22
0.0
 32
0.0
 14
0.0
 24
0.0
 34
0.0
 15
0.0
 25
0.0
 35
0.0
146
0.0
 13
0.0
 23
0.0
 33
0.0
 16
1.0
 26
0.0
 36
0.0
 17
0.0
 27
1.0
 37
0.0
 76
     0
330
23
  0
LAYOUT
  5
22
102
{ACAD_REACTORS
330
1A
102
}
330
1A
100
AcDbPlotSettings
  1

  2
none_device
  4

  6

 40
0.0
 41
0.0
 42
0.0
 43
0.0
 44
0.0
 45
0.0
 46
0.0
 47
0.0
 48
0.0
 49
0.0
140
0.0
141
0.0
142
1.0
143
1.0
 70
  1712
 72
     0
 73
     0
 74
     0
  7

 75
     0
 76
     0
 77
     2
 78
   300
147
1.0
148
0.0
149
0.0
100
AcDbLayout
  1
Model
 70
     1
 71
     0
 10
0.0
 20
0.0
 11
12.0
 21
9.0
 12
0.0
 22
0.0
 32
0.0
 14
1.000000000000000E+20
 24
1.000000000000000E+20
 34
1.000000000000000E+20
 15
-1.000000000000000E+20
 25
-1.000000000000000E+20
 35
-1.000000000000000E+20
146
0.0
 13
0.0
 23
0.0
 33
0.0
 16
1.0
 26
0.0
 36
0.0
 17
0.0
 27
1.0
 37
0.0
 76
     0
330
1F
331
29
  0
MATERIAL
  5
3D
102
{ACAD_REACTORS
330
3B
102
}
330
3B
100
AcDbMaterial
  1
ByBlock
 72
     1
 94
      127
  0
MATERIAL
  5
3C
102
{ACAD_REACTORS
330
3B
102
}
330
3B
100
AcDbMaterial
  1
ByLayer
 72
     1
 94
      127
  0
MATERIAL
  5
3E
102
{ACAD_REACTORS
330
3B
102
}
330
3B
100
AcDbMaterial
  1
Global
 72
     1
 94
      127
  0
MLINESTYLE
  5
18
102
{ACAD_REACTORS
330
17
102
}
330
17
100
AcDbMlineStyle
  2
Standard
 70
     0
  3

 62
   256
 51
90.0
 52
90.0
 71
     2
 49
0.5
 62
   256
  6
BYLAYER
 49
-0.5
 62
   256
  6
BYLAYER
  0
ACDBPLACEHOLDER
  5
F
102
{ACAD_REACTORS
330
E
102
}
330
E
  0
VISUALSTYLE
  5
2F
102
{ACAD_REACTORS
330
2A
102
}
330
2A
100
AcDbVisualStyle
  2
2dWireframe
 70
     4
177
     2
291
     0
 71
     0
176
     1
 72
     2
176
     1
 73
     0
176
     1
 90
        0
176
     1
 40
-0.6
176
     1
 41
-30.0
176
     1
 62
     5
 63
     7
421
 16777215
176
     1
 74
     1
176
     1
 91
        4
176
     1
 64
     7
176
     1
 65
   257
176
     1
 75
     1
176
     1
175
     1
176
     1
 42
1.0
176
     1
 92
        0
176
     1
 66
   257
176
     1
 43
1.0
176
     1
 76
     1
176
     1
 77
     6
176
     1
 78
     2
176
     1
 67
     7
176
     1
 79
     5
176
     1
170
     0
176
     1
171
     0
176
     1
290
     0
176
     1
 93
        1
176
     1
 44
0.0
176
     1
173
     0
176
     1
  0
VISUALSTYLE
  5
31
102
{ACAD_REACTORS
330
2A
102
}
330
2A
100
AcDbVisualStyle
  2
3D Hidden
 70
     6
177
     2
291
     0
 71
     1
176
     1
 72
     2
176
     1
 73
     2
176
     1
 90
        0
176
     1
 40
-0.6
176
     1
 41
-30.0
176
     1
 62
     5
 63
     7
421
 16777215
176
     1
 74
     2
176
     1
 91
        2
176
     1
 64
     7
176
     1
 65
   257
176
     1
 75
     2
176
     1
175
     1
176
     1
 42
40.0
176
     1
 92
        0
176
     1
 66
   257
176
     1
 43
1.0
176
     1
 76
     1
176
     1
 77
     6
176
     1
 78
     2
176
     1
 67
     7
176
     1
 79
     3
176
     1
170
     0
176
     1
171
     0
176
     1
290
     0
176
     1
 93
        1
176
     1
 44
0.0
176
     1
173
     0
176
     1
  0
VISUALSTYLE
  5
30
102
{ACAD_REACTORS
330
2A
102
}
330
2A
100
AcDbVisualStyle
  2
3dWireframe
 70
     5
177
     2
291
     0
 71
     0
176
     1
 72
     2
176
     1
 73
     0
176
     1
 90
        0
176
     1
 40
-0.6
176
     1
 41
-30.0
176
     1
 62
     5
 63
     7
421
 16777215
176
     1
 74
     1
176
     1
 91
        4
176
     1
 64
     7
176
     1
 65
   257
176
     1
 75
     1
176
     1
175
     1
176
     1
 42
1.0
176
     1
 92
        0
176
     1
 66
   257
176
     1
 43
1.0
176
     1
 76
     1
176
     1
 77
     6
176
     1
 78
     2
176
     1
 67
     7
176
     1
 79
     5
176
     1
170
     0
176
     1
171
     0
176
     1
290
     0
176
     1
 93
        1
176
     1
 44
0.0
176
     1
173
     0
176
     1
  0
VISUALSTYLE
  5
32
102
{ACAD_REACTORS
330
2A
102
}
330
2A
100
AcDbVisualStyle
  2
Basic
 70
     7
177
     2
291
     1
 71
     1
176
     1
 72
     0
176
     1
 73
     1
176
     1
 90
        0
176
     1
 40
-0.6
176
     1
 41
-30.0
176
     1
 62
     5
 63
     7
421
 16777215
176
     1
 74
     0
176
     1
 91
        4
176
     1
 64
     7
176
     1
 65
   257
176
     1
 75
     1
176
     1
175
     1
176
     1
 42
1.0
176
     1
 92
        8
176
     1
 66
     7
176
     1
 43
1.0
176
     1
 76
     1
176
     1
 77
     6
176
     1
 78
     2
176
     1
 67
     7
176
     1
 79
     5
176
     1
170
     0
176
     1
171
     0
176
     1
290
     0
176
     1
 93
        1
176
     1
 44
0.0
176
     1
173
     0
176
     1
  0
VISUALSTYLE
  5
36
102
{ACAD_REACTORS
330
2A
102
}
330
2A
100
AcDbVisualStyle
  2
Brighten
 70
    12
177
     2
291
     1
 71
     2
176
     1
 72
     2
176
     1
 73
     0
176
     1
 90
        0
176
     1
 40
-0.6
176
     1
 41
-30.0
176
     1
 62
     5
 63
     7
421
 16777215
176
     1
 74
     1
176
     1
 91
        4
176
     1
 64
     7
176
     1
 65
   257
176
     1
 75
     1
176
     1
175
     1
176
     1
 42
1.0
176
     1
 92
        8
176
     1
 66
     7
176
     1
 43
1.0
176
     1
 76
     1
176
     1
 77
     6
176
     1
 78
     2
176
     1
 67
     7
176
     1
 79
     5
176
     1
170
     0
176
     1
171
     0
176
     1
290
     0
176
     1
 93
        1
176
     1
 44
50.0
176
     1
173
     0
176
     1
  0
VISUALSTYLE
  5
3A
102
{ACAD_REACTORS
330
2A
102
}
330
2A
100
AcDbVisualStyle
  2
ColorChange
 70
    16
177
     2
291
     1
 71
     2
176
     1
 72
     2
176
     1
 73
     3
176
     1
 90
        0
176
     1
 40
-0.6
176
     1
 41
-30.0
176
     1
 62
     5
 63
     8
421
  8421504
176
     1
 74
     1
176
     1
 91
        4
176
     1
 64
     7
176
     1
 65
   257
176
     1
 75
     1
176
     1
175
     1
176
     1
 42
1.0
176
     1
 92
        8
176
     1
 66
     8
424
  8421504
176
     1
 43
1.0
176
     1
 76
     1
176
     1
 77
     6
176
     1
 78
     2
176
     1
 67
     7
176
     1
 79
     5
176
     1
170
     0
176
     1
171
     0
176
     1
290
     0
176
     1
 93
        1
176
     1
 44
0.0
176
     1
173
     0
176
     1
  0
VISUALSTYLE
  5
34
102
{ACAD_REACTORS
330
2A
102
}
330
2A
100
AcDbVisualStyle
  2
Conceptual
 70
     9
177
     2
291
     0
 71
     3
176
     1
 72
     2
176
     1
 73
     0
176
     1
 90
        0
176
     1
 40
-0.6
176
     1
 41
-30.0
176
     1
 62
     5
 63
     7
421
 16777215
176
     1
 74
     2
176
     1
 91
        2
176
     1
 64
     7
176
     1
 65
   257
176
     1
 75
     1
176
     1
175
     1
176
     1
 42
40.0
176
     1
 92
        8
176
     1
 66
     7
176
     1
 43
1.0
176
     1
 76
     1
176
     1
 77
     6
176
     1
 78
     2
176
     1
 67
     7
176
     1
 79
     3
176
     1
170
     0
176
     1
171
     0
176
     1
290
     0
176
     1
 93
        1
176
     1
 44
0.0
176
     1
173
     0
176
     1
  0
VISUALSTYLE
  5
35
102
{ACAD_REACTORS
330
2A
102
}
330
2A
100
AcDbVisualStyle
  2
Dim
 70
    11
177
     2
291
     1
 71
     2
176
     1
 72
     2
176
     1
 73
     0
176
     1
 90
        0
176
     1
 40
-0.6
176
     1
 41
-30.0
176
     1
 62
     5
 63
     7
421
 16777215
176
     1
 74
     1
176
     1
 91
        4
176
     1
 64
     7
176
     1
 65
   257
176
     1
 75
     1
176
     1
175
     1
176
     1
 42
1.0
176
     1
 92
        8
176
     1
 66
     7
176
     1
 43
1.0
176
     1
 76
     1
176
     1
 77
     6
176
     1
 78
     2
176
     1
 67
     7
176
     1
 79
     5
176
     1
170
     0
176
     1
171
     0
176
     1
290
     0
176
     1
 93
        1
176
     1
 44
-50.0
176
     1
173
     0
176
     1
  0
VISUALSTYLE
  5
39
102
{ACAD_REACTORS
330
2A
102
}
330
2A
100
AcDbVisualStyle
  2
Facepattern
 70
    15
177
     2
291
     1
 71
     2
176
     1
 72
     2
176
     1
 73
     0
176
     1
 90
        0
176
     1
 40
-0.6
176
     1
 41
-30.0
176
     1
 62
     5
 63
     7
421
 16777215
176
     1
 74
     1
176
     1
 91
        4
176
     1
 64
     7
176
     1
 65
   257
176
     1
 75
     1
176
     1
175
     1
176
     1
 42
1.0
176
     1
 92
        8
176
     1
 66
     7
176
     1
 43
1.0
176
     1
 76
     1
176
     1
 77
     6
176
     1
 78
     2
176
     1
 67
     7
176
     1
 79
     5
176
     1
170
     0
176
     1
171
     0
176
     1
290
     0
176
     1
 93
        1
176
     1
 44
0.0
176
     1
173
     0
176
     1
  0
VISUALSTYLE
  5
2B
102
{ACAD_REACTORS
330
2A
102
}
330
2A
100
AcDbVisualStyle
  2
Flat
 70
     0
177
     2
291
     1
 71
     2
176
     1
 72
     1
176
     1
 73
     1
176
     1
 90
        2
176
     1
 40
-0.6
176
     1
 41
30.0
176
     1
 62
     5
 63
     7
421
 16777215
176
     1
 74
     0
176
     1
 91
        4
176
     1
 64
     7
176
     1
 65
   257
176
     1
 75
     1
176
     1
175
     1
176
     1
 42
1.0
176
     1
 92
        8
176
     1
 66
     7
176
     1
 43
1.0
176
     1
 76
     1
176
     1
 77
     6
176
     1
 78
     2
176
     1
 67
     7
176
     1
 79
     5
176
     1
170
     0
176
     1
171
     0
176
     1
290
     0
176
     1
 93
       13
176
     1
 44
0.0
176
     1
173
     0
176
     1
  0
VISUALSTYLE
  5
2C
102
{ACAD_REACTORS
330
2A
102
}
330
2A
100
AcDbVisualStyle
  2
FlatWithEdges
 70
     1
177
     2
291
     1
 71
     2
176
     1
 72
     1
176
     1
 73
     1
176
     1
 90
        2
176
     1
 40
-0.6
176
     1
 41
30.0
176
     1
 62
     5
 63
     7
421
 16777215
176
     1
 74
     1
176
     1
 91
        4
176
     1
 64
     7
176
     1
 65
   257
176
     1
 75
     1
176
     1
175
     1
176
     1
 42
1.0
176
     1
 92
        0
176
     1
 66
   257
176
     1
 43
1.0
176
     1
 76
     1
176
     1
 77
     6
176
     1
 78
     2
176
     1
 67
     7
176
     1
 79
     5
176
     1
170
     0
176
     1
171
     0
176
     1
290
     0
176
     1
 93
       13
176
     1
 44
0.0
176
     1
173
     0
176
     1
  0
VISUALSTYLE
  5
2D
102
{ACAD_REACTORS
330
2A
102
}
330
2A
100
AcDbVisualStyle
  2
Gouraud
 70
     2
177
     2
291
     1
 71
     2
176
     1
 72
     2
176
     1
 73
     1
176
     1
 90
        2
176
     1
 40
-0.6
176
     1
 41
30.0
176
     1
 62
     5
 63
     7
421
 16777215
176
     1
 74
     0
176
     1
 91
        4
176
     1
 64
     7
176
     1
 65
   257
176
     1
 75
     1
176
     1
175
     1
176
     1
 42
1.0
176
     1
 92
        0
176
     1
 66
     7
176
     1
 43
1.0
176
     1
 76
     1
176
     1
 77
     6
176
     1
 78
     2
176
     1
 67
     7
176
     1
 79
     5
176
     1
170
     0
176
     1
171
     0
176
     1
290
     0
176
     1
 93
       13
176
     1
 44
0.0
176
     1
173
     0
176
     1
  0
VISUALSTYLE
  5
2E
102
{ACAD_REACTORS
330
2A
102
}
330
2A
100
AcDbVisualStyle
  2
GouraudWithEdges
 70
     3
177
     2
291
     1
 71
     2
176
     1
 72
     2
176
     1
 73
     1
176
     1
 90
        2
176
     1
 40
-0.6
176
     1
 41
30.0
176
     1
 62
     5
 63
     7
421
 16777215
176
     1
 74
     1
176
     1
 91
        4
176
     1
 64
     7
176
     1
 65
   257
176
     1
 75
     1
176
     1
175
     1
176
     1
 42
1.0
176
     1
 92
        0
176
     1
 66
   257
176
     1
 43
1.0
176
     1
 76
     1
176
     1
 77
     6
176
     1
 78
     2
176
     1
 67
     7
176
     1
 79
     5
176
     1
170
     0
176
     1
171
     0
176
     1
290
     0
176
     1
 93
       13
176
     1
 44
0.0
176
     1
173
     0
176
     1
  0
VISUALSTYLE
  5
38
102
{ACAD_REACTORS
330
2A
102
}
330
2A
100
AcDbVisualStyle
  2
Linepattern
 70
    14
177
     2
291
     1
 71
     2
176
     1
 72
     2
176
     1
 73
     0
176
     1
 90
        0
176
     1
 40
-0.6
176
     1
 41
-30.0
176
     1
 62
     5
 63
     7
421
 16777215
176
     1
 74
     1
176
     1
 91
        4
176
     1
 64
     7
176
     1
 65
   257
176
     1
 75
     7
176
     1
175
     7
176
     1
 42
1.0
176
     1
 92
        8
176
     1
 66
     7
176
     1
 43
1.0
176
     1
 76
     1
176
     1
 77
     6
176
     1
 78
     2
176
     1
 67
     7
176
     1
 79
     5
176
     1
170
     0
176
     1
171
     0
176
     1
290
     0
176
     1
 93
        1
176
     1
 44
0.0
176
     1
173
     0
176
     1
  0
VISUALSTYLE
  5
33
102
{ACAD_REACTORS
330
2A
102
}
330
2A
100
AcDbVisualStyle
  2
Realistic
 70
     8
177
     2
291
     0
 71
     2
176
     1
 72
     2
176
     1
 73
     0
176
     1
 90
        0
176
     1
 40
-0.6
176
     1
 41
-30.0
176
     1
 62
     5
 63
     7
421
 16777215
176
     1
 74
     1
176
     1
 91
        0
176
     1
 64
     7
176
     1
 65
   257
176
     1
 75
     1
176
     1
175
     1
176
     1
 42
1.0
176
     1
 92
        8
176
     1
 66
     8
424
  7895160
176
     1
 43
1.0
176
     1
 76
     1
176
     1
 77
     6
176
     1
 78
     2
176
     1
 67
     7
176
     1
 79
     5
176
     1
170
     0
176
     1
171
     0
176
     1
290
     0
176
     1
 93
       13
176
     1
 44
0.0
176
     1
173
     0
176
     1
  0
VISUALSTYLE
  5
37
102
{ACAD_REACTORS
330
2A
102
}
330
2A
100
AcDbVisualStyle
  2
Thicken
 70
    13
177
     2
291
     1
 71
     2
176
     1
 72
     2
176
     1
 73
     0
176
     1
 90
        0
176
     1
 40
-0.6
176
     1
 41
-30.0
176
     1
 62
     5
 63
     7
421
 16777215
176
     1
 74
     1
176
     1
 91
        4
176
     1
 64
     7
176
     1
 65
   257
176
     1
 75
     1
176
     1
175
     1
176
     1
 42
1.0
176
     1
 92
       12
176
     1
 66
     7
176
     1
 43
1.0
176
     1
 76
     1
176
     1
 77
     6
176
     1
 78
     2
176
     1
 67
     7
176
     1
 79
     5
176
     1
170
     0
176
     1
171
     0
176
     1
290
     0
176
     1
 93
        1
176
     1
 44
0.0
176
     1
173
     0
176
     1
  0
ENDSEC
  0
EOF
