<?xml version="1.0" encoding="utf-8"?>
<!-- Generator: Adobe Illustrator 19.2.1, SVG Export Plug-In . SVG Version: 6.00 Build 0)  -->
<svg version="1.1" id="Layer_1" xmlns="http://www.w3.org/2000/svg" xmlns:xlink="http://www.w3.org/1999/xlink" x="0px" y="0px"
	 viewBox="0 0 100 125" style="enable-background:new 0 0 100 125;" xml:space="preserve">
<path d="M81.7,47.5C81.7,47.5,81.7,47.5,81.7,47.5c0-0.1,0-0.1,0-0.1c0-0.1,0-0.1,0-0.2c0,0,0,0,0-0.1c0-0.1-0.1-0.2-0.1-0.2l0,0
	c0,0,0,0,0,0L62.5,23.1c0,0,0,0,0,0c0,0,0,0,0,0c0,0,0,0-0.1,0c-0.1,0-0.1-0.1-0.2-0.1c0,0-0.1,0-0.1,0c-0.1,0-0.1,0-0.2,0
	c0,0,0,0-0.1,0c-0.8,0.2-3.3,0.6-4.1,0.8c-1.8-3.8-3.7-8-4.1-8.9l0.1-6.3c0-0.3-0.2-0.5-0.4-0.7c-0.3-0.1-0.6-0.1-0.8,0.2l-6.1,6.1
	c-0.1,0.1-0.1,0.1-0.1,0.2l-2.7,0l-2.7,0c0-0.1-0.1-0.1-0.1-0.2L34.5,8c-0.2-0.2-0.5-0.3-0.8-0.2c-0.3,0.1-0.4,0.4-0.4,0.7l0.1,6.3
	c-0.4,0.9-2.4,5.1-4.1,8.9c-0.9-0.2-3.3-0.7-4.1-0.8c0,0,0,0-0.1,0c-0.1,0-0.1,0-0.2,0c0,0-0.1,0-0.1,0c-0.1,0-0.1,0.1-0.2,0.1
	c0,0,0,0-0.1,0c0,0,0,0,0,0c0,0,0,0,0,0L5.3,46.9c0,0,0,0,0,0l0,0c-0.1,0.1-0.1,0.1-0.1,0.2c0,0,0,0,0,0.1c0,0.1,0,0.1,0,0.2
	c0,0,0,0,0,0c0,0,0,0,0,0.1c0,0,0,0.1,0,0.1c0,0,0,0.1,0.1,0.1c0,0,0,0,0,0.1c0,0,0,0,0,0c0,0,0.1,0.1,0.2,0.1c0,0,0,0,0.1,0
	c0.1,0,0.2,0.1,0.3,0.1h0l0,0l0,0c0,0,0,0,0.1,0L32,45.4c1.9,4.5,3.9,9.3,5.4,12.9l-5.9,3.9c-0.3,0.2-0.4,0.5-0.3,0.8
	c0.1,0.3,0.4,0.5,0.7,0.5c0,0,0,0,0,0c4.7-0.1,6.6-0.2,7.3-0.3l3.6,4.7c0,0.1,0.1,0.2,0.2,0.3c0.1,0.1,0.3,0.1,0.4,0.1c0,0,0,0,0,0
	s0,0,0,0c0.1,0,0.3,0,0.4-0.1c0.1-0.1,0.2-0.2,0.2-0.3l3.6-4.7c0.8,0.1,2.6,0.1,7.3,0.3c0,0,0,0,0,0c0.3,0,0.6-0.2,0.7-0.5
	c0.1-0.3,0-0.6-0.3-0.8l-5.9-3.9c1.5-3.6,3.5-8.4,5.4-12.9L81,48.1c0,0,0,0,0.1,0l0,0l0,0h0c0.1,0,0.2,0,0.3-0.1c0,0,0,0,0.1,0
	c0.1,0,0.1-0.1,0.2-0.1c0,0,0,0,0,0c0,0,0,0,0-0.1c0,0,0-0.1,0.1-0.1C81.7,47.6,81.7,47.5,81.7,47.5z M60.7,31.5
	c0-0.1,0.1-0.2,0.1-0.3c0.1-0.1,0.1-0.3,0.1-0.4l1.4-5.7L78.2,45L59.5,34.5C60.2,32.8,60.6,31.7,60.7,31.5z M61,24.5l-1,4.2
	c-0.5-1-1.1-2.3-1.7-3.7C58.9,24.9,59.9,24.7,61,24.5z M58.7,29.3l-12.2-6.2l3.7-2.8c0.2-0.1,0.3-0.1,0.4-0.3l2.1-3.6
	C53.9,19,56.7,24.9,58.7,29.3z M43.4,66.5l-2.9-3.8c0.5-0.4,1.4-1.2,2.9-2.6c1.5,1.4,2.4,2.2,2.9,2.6L43.4,66.5z M43.4,23.6
	l-4.3-3.2l4.2,0.1c0,0,0,0,0,0c0,0,0,0,0.1,0c0,0,0,0,0.1,0c0,0,0,0,0,0l4.2-0.1L43.4,23.6z M43.3,15.7
	C43.3,15.7,43.3,15.7,43.3,15.7C43.3,15.7,43.3,15.7,43.3,15.7l0.1,0h0.1c0,0,0,0,0,0c0,0,0,0,0,0l8,0l-2,3.3l-6.1,0.2
	c0,0,0,0-0.1,0c0,0,0,0-0.1,0L37.3,19l-2-3.3L43.3,15.7z M52.1,10.2l-0.1,4l-4,0L52.1,10.2z M38.8,14.2l-4,0l-0.1-4L38.8,14.2z
	 M34.2,16.4l2.1,3.6c0.1,0.2,0.2,0.2,0.4,0.3l3.7,2.8l-12.2,6.2C30.2,24.9,33,19,34.2,16.4z M28.6,25c-0.6,1.4-1.2,2.7-1.7,3.7
	l-1-4.2C26.9,24.7,28,24.9,28.6,25z M24.6,25.1l1.4,5.7c0,0.1,0,0.3,0.1,0.4c0,0.1,0,0.2,0.1,0.3c0.1,0.1,0.5,1.2,1.3,3L8.7,45
	L24.6,25.1z M9.2,46.3L28,35.8c0.9,2.2,2.1,5.1,3.4,8.2L9.2,46.3z M29,34.4C29,34.4,29,34.4,29,34.4C29,34.4,29,34.4,29,34.4
	c-0.7-1.6-1.2-2.8-1.4-3.3l14.1-7.1l0.9,0.7v33.4l-3.8-0.3C37.4,54.7,31.7,41,29,34.4z M38.5,59.3l3.4,0.2c-1.2,1.1-2.3,2.1-2.6,2.3
	c-0.5,0.1-2.6,0.1-4.9,0.2L38.5,59.3z M52.6,62c-2.3-0.1-4.4-0.1-4.9-0.2c-0.3-0.2-1.4-1.2-2.6-2.3l3.4-0.2L52.6,62z M48.1,57.9
	L44,58.2V25c0,0,0,0,0,0l1.2-0.9l14.1,7.1c-0.2,0.5-0.7,1.7-1.4,3.2c0,0,0,0,0,0c0,0,0,0,0,0C55.2,41.1,49.4,54.7,48.1,57.9z
	 M58.9,35.8l18.8,10.5L55.5,44C56.8,40.9,58,38,58.9,35.8z"/>
</svg>
