  0
SECTION
  2
HEADER
  9
$ACADVER
  1
AC1024
  9
$ACADMAINTVER
 70
     6
  9
$DWGCODEPAGE
  3
UNDEFINED
  9
$INSBASE
 10
0.0
 20
0.0
 30
0.0
  9
$EXTMIN
 10
1.000000000000000E+20
 20
1.000000000000000E+20
 30
1.000000000000000E+20
  9
$EXTMAX
 10
-1.000000000000000E+20
 20
-1.000000000000000E+20
 30
-1.000000000000000E+20
  9
$LIMMIN
 10
0.0
 20
0.0
  9
$LIMMAX
 10
12.0
 20
9.0
  9
$ORTHOMODE
 70
     0
  9
$REGENMODE
 70
     1
  9
$FILLMODE
 70
     1
  9
$QTEXTMODE
 70
     0
  9
$MIRRTEXT
 70
     1
  9
$LTSCALE
 40
1.0
  9
$ATTMODE
 70
     1
  9
$TEXTSIZE
 40
0.2
  9
$TRACEWID
 40
0.05
  9
$TEXTSTYLE
  7
Standard
  9
$CLAYER
  8
0
  9
$CELTYPE
  6
ByLayer
  9
$CECOLOR
 62
   256
  9
$CELTSCALE
 40
1.0
  9
$DISPSILH
 70
     0
  9
$DIMSCALE
 40
1.0
  9
$DIMASZ
 40
0.18
  9
$DIMEXO
 40
0.0625
  9
$DIMDLI
 40
0.38
  9
$DIMRND
 40
0.0
  9
$DIMDLE
 40
0.0
  9
$DIMEXE
 40
0.18
  9
$DIMTP
 40
0.0
  9
$DIMTM
 40
0.0
  9
$DIMTXT
 40
0.18
  9
$DIMCEN
 40
0.09
  9
$DIMTSZ
 40
0.0
  9
$DIMTOL
 70
     0
  9
$DIMLIM
 70
     0
  9
$DIMTIH
 70
     1
  9
$DIMTOH
 70
     1
  9
$DIMSE1
 70
     0
  9
$DIMSE2
 70
     0
  9
$DIMTAD
 70
     0
  9
$DIMZIN
 70
     0
  9
$DIMBLK
  1

  9
$DIMASO
 70
     1
  9
$DIMSHO
 70
     1
  9
$DIMPOST
  1

  9
$DIMAPOST
  1

  9
$DIMALT
 70
     0
  9
$DIMALTD
 70
     2
  9
$DIMALTF
 40
25.4
  9
$DIMLFAC
 40
1.0
  9
$DIMTOFL
 70
     0
  9
$DIMTVP
 40
0.0
  9
$DIMTIX
 70
     0
  9
$DIMSOXD
 70
     0
  9
$DIMSAH
 70
     0
  9
$DIMBLK1
  1

  9
$DIMBLK2
  1

  9
$DIMSTYLE
  2
Standard
  9
$DIMCLRD
 70
     0
  9
$DIMCLRE
 70
     0
  9
$DIMCLRT
 70
     0
  9
$DIMTFAC
 40
1.0
  9
$DIMGAP
 40
0.09
  9
$DIMJUST
 70
     0
  9
$DIMSD1
 70
     0
  9
$DIMSD2
 70
     0
  9
$DIMTOLJ
 70
     1
  9
$DIMTZIN
 70
     0
  9
$DIMALTZ
 70
     0
  9
$DIMALTTZ
 70
     0
  9
$DIMUPT
 70
     0
  9
$DIMDEC
 70
     4
  9
$DIMTDEC
 70
     4
  9
$DIMALTU
 70
     2
  9
$DIMALTTD
 70
     2
  9
$DIMTXSTY
  7
Standard
  9
$DIMAUNIT
 70
     0
  9
$DIMADEC
 70
     0
  9
$DIMALTRND
 40
0.0
  9
$DIMAZIN
 70
     0
  9
$DIMDSEP
 70
    46
  9
$DIMATFIT
 70
     3
  9
$DIMFRAC
 70
     0
  9
$DIMLDRBLK
  1

  9
$DIMLUNIT
 70
     2
  9
$DIMLWD
 70
    -2
  9
$DIMLWE
 70
    -2
  9
$DIMTMOVE
 70
     0
  9
$DIMFXL
 40
1.0
  9
$DIMFXLON
 70
     0
  9
$DIMJOGANG
 40
0.7853981633974483
  9
$DIMTFILL
 70
     0
  9
$DIMTFILLCLR
 70
     0
  9
$DIMARCSYM
 70
     0
  9
$DIMLTYPE
  6

  9
$DIMLTEX1
  6

  9
$DIMLTEX2
  6

  9
$DIMTXTDIRECTION
 70
     0
  9
$LUNITS
 70
     2
  9
$LUPREC
 70
     4
  9
$SKETCHINC
 40
0.1
  9
$FILLETRAD
 40
0.5
  9
$AUNITS
 70
     0
  9
$AUPREC
 70
     0
  9
$MENU
  1
.
  9
$ELEVATION
 40
0.0
  9
$PELEVATION
 40
0.0
  9
$THICKNESS
 40
0.0
  9
$LIMCHECK
 70
     0
  9
$CHAMFERA
 40
0.5
  9
$CHAMFERB
 40
0.5
  9
$CHAMFERC
 40
1.0
  9
$CHAMFERD
 40
0.0
  9
$SKPOLY
 70
     0
  9
$TDCREATE
 40
2457525.604675914
  9
$TDUCREATE
 40
2457525.813009259
  9
$TDUPDATE
 40
2457525.604675914
  9
$TDUUPDATE
 40
2457525.813009259
  9
$TDINDWG
 40
0.0000000116
  9
$TDUSRTIMER
 40
0.0000000116
  9
$USRTIMER
 70
     1
  9
$ANGBASE
 50
0.0
  9
$ANGDIR
 70
     0
  9
$PDMODE
 70
     0
  9
$PDSIZE
 40
0.0
  9
$PLINEWID
 40
0.0
  9
$SPLFRAME
 70
     0
  9
$SPLINETYPE
 70
     6
  9
$SPLINESEGS
 70
     8
  9
$HANDSEED
  5
60
  9
$SURFTAB1
 70
     6
  9
$SURFTAB2
 70
     6
  9
$SURFTYPE
 70
     6
  9
$SURFU
 70
     6
  9
$SURFV
 70
     6
  9
$UCSBASE
  2

  9
$UCSNAME
  2

  9
$UCSORG
 10
0.0
 20
0.0
 30
0.0
  9
$UCSXDIR
 10
1.0
 20
0.0
 30
0.0
  9
$UCSYDIR
 10
0.0
 20
1.0
 30
0.0
  9
$UCSORTHOREF
  2

  9
$UCSORTHOVIEW
 70
     0
  9
$UCSORGTOP
 10
0.0
 20
0.0
 30
0.0
  9
$UCSORGBOTTOM
 10
0.0
 20
0.0
 30
0.0
  9
$UCSORGLEFT
 10
0.0
 20
0.0
 30
0.0
  9
$UCSORGRIGHT
 10
0.0
 20
0.0
 30
0.0
  9
$UCSORGFRONT
 10
0.0
 20
0.0
 30
0.0
  9
$UCSORGBACK
 10
0.0
 20
0.0
 30
0.0
  9
$PUCSBASE
  2

  9
$PUCSNAME
  2

  9
$PUCSORG
 10
0.0
 20
0.0
 30
0.0
  9
$PUCSXDIR
 10
1.0
 20
0.0
 30
0.0
  9
$PUCSYDIR
 10
0.0
 20
1.0
 30
0.0
  9
$PUCSORTHOREF
  2

  9
$PUCSORTHOVIEW
 70
     0
  9
$PUCSORGTOP
 10
0.0
 20
0.0
 30
0.0
  9
$PUCSORGBOTTOM
 10
0.0
 20
0.0
 30
0.0
  9
$PUCSORGLEFT
 10
0.0
 20
0.0
 30
0.0
  9
$PUCSORGRIGHT
 10
0.0
 20
0.0
 30
0.0
  9
$PUCSORGFRONT
 10
0.0
 20
0.0
 30
0.0
  9
$PUCSORGBACK
 10
0.0
 20
0.0
 30
0.0
  9
$USERI1
 70
     0
  9
$USERI2
 70
     0
  9
$USERI3
 70
     0
  9
$USERI4
 70
     0
  9
$USERI5
 70
     0
  9
$USERR1
 40
0.0
  9
$USERR2
 40
0.0
  9
$USERR3
 40
0.0
  9
$USERR4
 40
0.0
  9
$USERR5
 40
0.0
  9
$WORLDVIEW
 70
     1
  9
$SHADEDGE
 70
     3
  9
$SHADEDIF
 70
    70
  9
$TILEMODE
 70
     1
  9
$MAXACTVP
 70
    64
  9
$PINSBASE
 10
0.0
 20
0.0
 30
0.0
  9
$PLIMCHECK
 70
     0
  9
$PEXTMIN
 10
1.000000000000000E+20
 20
1.000000000000000E+20
 30
1.000000000000000E+20
  9
$PEXTMAX
 10
-1.000000000000000E+20
 20
-1.000000000000000E+20
 30
-1.000000000000000E+20
  9
$PLIMMIN
 10
0.0
 20
0.0
  9
$PLIMMAX
 10
12.0
 20
9.0
  9
$UNITMODE
 70
     0
  9
$VISRETAIN
 70
     1
  9
$PLINEGEN
 70
     0
  9
$PSLTSCALE
 70
     1
  9
$TREEDEPTH
 70
  3020
  9
$CMLSTYLE
  2
Standard
  9
$CMLJUST
 70
     0
  9
$CMLSCALE
 40
1.0
  9
$PROXYGRAPHICS
 70
     1
  9
$MEASUREMENT
 70
     0
  9
$CELWEIGHT
370
    -1
  9
$ENDCAPS
280
     0
  9
$JOINSTYLE
280
     0
  9
$LWDISPLAY
290
     1
  9
$INSUNITS
 70
     1
  9
$HYPERLINKBASE
  1

  9
$STYLESHEET
  1

  9
$XEDIT
290
     1
  9
$CEPSNTYPE
380
     0
  9
$PSTYLEMODE
290
     1
  9
$FINGERPRINTGUID
  2
{552F9463-4B7B-4A8C-C946-853D5D415CBC}
  9
$VERSIONGUID
  2
{FAEB1C32-E019-11D5-929B-00C0DF256EC4}
  9
$EXTNAMES
290
     1
  9
$PSVPSCALE
 40
0.0
  9
$OLESTARTUP
290
     0
  9
$SORTENTS
280
   127
  9
$INDEXCTL
280
     0
  9
$HIDETEXT
280
     1
  9
$XCLIPFRAME
280
     2
  9
$HALOGAP
280
     0
  9
$OBSCOLOR
 70
   257
  9
$OBSLTYPE
280
     0
  9
$INTERSECTIONDISPLAY
280
     0
  9
$INTERSECTIONCOLOR
 70
   257
  9
$DIMASSOC
280
     2
  9
$PROJECTNAME
  1

  9
$CAMERADISPLAY
290
     0
  9
$LENSLENGTH
 40
50.0
  9
$CAMERAHEIGHT
 40
0.0
  9
$STEPSPERSEC
 40
2.0
  9
$STEPSIZE
 40
6.0
  9
$3DDWFPREC
 40
2.0
  9
$PSOLWIDTH
 40
0.25
  9
$PSOLHEIGHT
 40
4.0
  9
$LOFTANG1
 40
1.570796326794897
  9
$LOFTANG2
 40
1.570796326794897
  9
$LOFTMAG1
 40
0.0
  9
$LOFTMAG2
 40
0.0
  9
$LOFTPARAM
 70
     7
  9
$LOFTNORMALS
280
     1
  9
$LATITUDE
 40
37.795
  9
$LONGITUDE
 40
-122.394
  9
$NORTHDIRECTION
 40
0.0
  9
$TIMEZONE
 70
 -8000
  9
$LIGHTGLYPHDISPLAY
280
     1
  9
$TILEMODELIGHTSYNCH
280
     1
  9
$CMATERIAL
347
3C
  9
$SOLIDHIST
280
     1
  9
$SHOWHIST
280
     1
  9
$DWFFRAME
280
     2
  9
$DGNFRAME
280
     2
  9
$REALWORLDSCALE
290
     1
  9
$INTERFERECOLOR
 62
   256
  9
$CSHADOW
280
     0
  9
$SHADOWPLANELOCATION
 40
0.0
  0
ENDSEC
  0
SECTION
  2
CLASSES
  0
CLASS
  1
ACDBDICTIONARYWDFLT
  2
AcDbDictionaryWithDefault
  3
ObjectDBX Classes
 90
        0
 91
        4
280
     0
281
     0
  0
CLASS
  1
VISUALSTYLE
  2
AcDbVisualStyle
  3
ObjectDBX Classes
 90
     4095
 91
        4
280
     0
281
     0
  0
CLASS
  1
MATERIAL
  2
AcDbMaterial
  3
ObjectDBX Classes
 90
     1153
 91
        4
280
     0
281
     0
  0
CLASS
  1
SUN
  2
AcDbSun
  3
SCENEOE
 90
     1024
 91
        4
280
     0
281
     0
  0
ENDSEC
  0
SECTION
  2
TABLES
  0
TABLE
  2
VPORT
  5
8
330
0
100
AcDbSymbolTable
 70
     1
  0
VPORT
  5
29
330
8
100
AcDbSymbolTableRecord
100
AcDbViewportTableRecord
  2
*Active
 70
     0
 10
0.0
 20
0.0
 11
1.0
 21
1.0
 12
0.0
 22
0.0
 13
0.0
 23
0.0
 14
0.5
 24
0.5
 15
0.5
 25
0.5
 16
0.0
 26
0.0
 36
1.0
 17
50.0
 27
62.5
 37
0.0
 40
125.0
 41
0.8
 42
50.0
 43
0.0
 44
0.0
 50
0.0
 51
0.0
 71
     0
 72
   100
 73
     1
 74
     3
 75
     0
 76
     0
 77
     0
 78
     0
281
     0
 65
     1
110
0.0
120
0.0
130
0.0
111
1.0
121
0.0
131
0.0
112
0.0
122
1.0
132
0.0
 79
     0
146
0.0
 60
     3
 61
     5
292
     1
282
     1
141
0.0
142
0.0
 63
   250
361
3F
  0
ENDTAB
  0
TABLE
  2
LTYPE
  5
5
330
0
100
AcDbSymbolTable
 70
     1
  0
LTYPE
  5
14
330
5
100
AcDbSymbolTableRecord
100
AcDbLinetypeTableRecord
  2
ByBlock
 70
     0
  3

 72
    65
 73
     0
 40
0.0
  0
LTYPE
  5
15
330
5
100
AcDbSymbolTableRecord
100
AcDbLinetypeTableRecord
  2
ByLayer
 70
     0
  3

 72
    65
 73
     0
 40
0.0
  0
LTYPE
  5
16
330
5
100
AcDbSymbolTableRecord
100
AcDbLinetypeTableRecord
  2
Continuous
 70
     0
  3
Solid line
 72
    65
 73
     0
 40
0.0
  0
ENDTAB
  0
TABLE
  2
LAYER
  5
2
330
0
100
AcDbSymbolTable
 70
     2
  0
LAYER
  5
10
330
2
100
AcDbSymbolTableRecord
100
AcDbLayerTableRecord
  2
0
 70
     0
 62
     7
  6
Continuous
370
    -3
390
F
347
3E
  0
LAYER
  5
40
330
2
100
AcDbSymbolTableRecord
100
AcDbLayerTableRecord
  2
Layer 1
 70
     0
 62
     7
  6
Continuous
370
    -3
390
F
347
3E
  0
ENDTAB
  0
TABLE
  2
STYLE
  5
3
330
0
100
AcDbSymbolTable
 70
     1
  0
STYLE
  5
11
330
3
100
AcDbSymbolTableRecord
100
AcDbTextStyleTableRecord
  2
Standard
 70
     0
 40
0.0
 41
1.0
 50
0.0
 71
     0
 42
0.2
  3
txt
  4

  0
ENDTAB
  0
TABLE
  2
VIEW
  5
6
330
0
100
AcDbSymbolTable
 70
     0
  0
ENDTAB
  0
TABLE
  2
UCS
  5
7
330
0
100
AcDbSymbolTable
 70
     0
  0
ENDTAB
  0
TABLE
  2
APPID
  5
9
330
0
100
AcDbSymbolTable
 70
     1
  0
APPID
  5
12
330
9
100
AcDbSymbolTableRecord
100
AcDbRegAppTableRecord
  2
ACAD
 70
     0
  0
ENDTAB
  0
TABLE
  2
DIMSTYLE
  5
A
330
0
100
AcDbSymbolTable
 70
     1
100
AcDbDimStyleTable
  0
DIMSTYLE
105
27
330
A
100
AcDbSymbolTableRecord
100
AcDbDimStyleTableRecord
  2
Standard
 70
     0
178
     0
340
11
  0
ENDTAB
  0
TABLE
  2
BLOCK_RECORD
  5
1
330
0
100
AcDbSymbolTable
 70
     1
  0
BLOCK_RECORD
  5
1F
330
1
100
AcDbSymbolTableRecord
100
AcDbBlockTableRecord
  2
*Model_Space
340
22
 70
     0
280
     1
281
     0
  0
BLOCK_RECORD
  5
1B
330
1
100
AcDbSymbolTableRecord
100
AcDbBlockTableRecord
  2
*Paper_Space
340
1E
 70
     0
280
     1
281
     0
  0
BLOCK_RECORD
  5
23
330
1
100
AcDbSymbolTableRecord
100
AcDbBlockTableRecord
  2
*Paper_Space0
340
26
 70
     0
280
     1
281
     0
  0
ENDTAB
  0
ENDSEC
  0
SECTION
  2
BLOCKS
  0
BLOCK
  5
20
330
1F
100
AcDbEntity
  8
0
100
AcDbBlockBegin
  2
*Model_Space
 70
     0
 10
0.0
 20
0.0
 30
0.0
  3
*Model_Space
  1

  0
ENDBLK
  5
21
330
1F
100
AcDbEntity
  8
0
100
AcDbBlockEnd
  0
BLOCK
  5
1C
330
1B
100
AcDbEntity
 67
     1
  8
0
100
AcDbBlockBegin
  2
*Paper_Space
 70
     0
 10
0.0
 20
0.0
 30
0.0
  3
*Paper_Space
  1

  0
ENDBLK
  5
1D
330
1B
100
AcDbEntity
 67
     1
  8
0
100
AcDbBlockEnd
  0
BLOCK
  5
24
330
23
100
AcDbEntity
  8
0
100
AcDbBlockBegin
  2
*Paper_Space0
 70
     0
 10
0.0
 20
0.0
 30
0.0
  3
*Paper_Space0
  1

  0
ENDBLK
  5
25
330
23
100
AcDbEntity
  8
0
100
AcDbBlockEnd
  0
ENDSEC
  0
SECTION
  2
ENTITIES
  0
SPLINE
  5
41
330
1F
100
AcDbEntity
  8
Layer 1
370
     0
100
AcDbSpline
210
0.0
220
0.0
230
1.0
 70
    11
 71
     3
 72
   275
 73
   271
 74
     0
 42
0.0000000001
 43
0.0000000001
 12
1.0
 22
0.0
 32
0.0
 13
1.0
 23
0.0
 33
0.0
 40
0.0
 40
0.0
 40
0.0
 40
0.0
 40
1.0
 40
1.0
 40
1.0
 40
2.0
 40
2.0
 40
2.0
 40
3.0
 40
3.0
 40
3.0
 40
4.0
 40
4.0
 40
4.0
 40
5.0
 40
5.0
 40
5.0
 40
6.0
 40
6.0
 40
6.0
 40
7.0
 40
7.0
 40
7.0
 40
8.0
 40
8.0
 40
8.0
 40
9.0
 40
9.0
 40
9.0
 40
10.0
 40
10.0
 40
10.0
 40
11.0
 40
11.0
 40
11.0
 40
12.0
 40
12.0
 40
12.0
 40
13.0
 40
13.0
 40
13.0
 40
14.0
 40
14.0
 40
14.0
 40
15.0
 40
15.0
 40
15.0
 40
16.0
 40
16.0
 40
16.0
 40
17.0
 40
17.0
 40
17.0
 40
18.0
 40
18.0
 40
18.0
 40
19.0
 40
19.0
 40
19.0
 40
20.0
 40
20.0
 40
20.0
 40
21.0
 40
21.0
 40
21.0
 40
22.0
 40
22.0
 40
22.0
 40
23.0
 40
23.0
 40
23.0
 40
24.0
 40
24.0
 40
24.0
 40
25.0
 40
25.0
 40
25.0
 40
26.0
 40
26.0
 40
26.0
 40
27.0
 40
27.0
 40
27.0
 40
28.0
 40
28.0
 40
28.0
 40
29.0
 40
29.0
 40
29.0
 40
30.0
 40
30.0
 40
30.0
 40
31.0
 40
31.0
 40
31.0
 40
32.0
 40
32.0
 40
32.0
 40
33.0
 40
33.0
 40
33.0
 40
34.0
 40
34.0
 40
34.0
 40
35.0
 40
35.0
 40
35.0
 40
36.0
 40
36.0
 40
36.0
 40
37.0
 40
37.0
 40
37.0
 40
38.0
 40
38.0
 40
38.0
 40
39.0
 40
39.0
 40
39.0
 40
40.0
 40
40.0
 40
40.0
 40
41.0
 40
41.0
 40
41.0
 40
42.0
 40
42.0
 40
42.0
 40
43.0
 40
43.0
 40
43.0
 40
44.0
 40
44.0
 40
44.0
 40
45.0
 40
45.0
 40
45.0
 40
46.0
 40
46.0
 40
46.0
 40
47.0
 40
47.0
 40
47.0
 40
48.0
 40
48.0
 40
48.0
 40
49.0
 40
49.0
 40
49.0
 40
50.0
 40
50.0
 40
50.0
 40
51.0
 40
51.0
 40
51.0
 40
52.0
 40
52.0
 40
52.0
 40
53.0
 40
53.0
 40
53.0
 40
54.0
 40
54.0
 40
54.0
 40
55.0
 40
55.0
 40
55.0
 40
56.0
 40
56.0
 40
56.0
 40
57.0
 40
57.0
 40
57.0
 40
58.0
 40
58.0
 40
58.0
 40
59.0
 40
59.0
 40
59.0
 40
60.0
 40
60.0
 40
60.0
 40
61.0
 40
61.0
 40
61.0
 40
62.0
 40
62.0
 40
62.0
 40
63.0
 40
63.0
 40
63.0
 40
64.0
 40
64.0
 40
64.0
 40
65.0
 40
65.0
 40
65.0
 40
66.0
 40
66.0
 40
66.0
 40
67.0
 40
67.0
 40
67.0
 40
68.0
 40
68.0
 40
68.0
 40
69.0
 40
69.0
 40
69.0
 40
70.0
 40
70.0
 40
70.0
 40
71.0
 40
71.0
 40
71.0
 40
72.0
 40
72.0
 40
72.0
 40
73.0
 40
73.0
 40
73.0
 40
74.0
 40
74.0
 40
74.0
 40
75.0
 40
75.0
 40
75.0
 40
76.0
 40
76.0
 40
76.0
 40
77.0
 40
77.0
 40
77.0
 40
78.0
 40
78.0
 40
78.0
 40
79.0
 40
79.0
 40
79.0
 40
80.0
 40
80.0
 40
80.0
 40
81.0
 40
81.0
 40
81.0
 40
82.0
 40
82.0
 40
82.0
 40
83.0
 40
83.0
 40
83.0
 40
84.0
 40
84.0
 40
84.0
 40
85.0
 40
85.0
 40
85.0
 40
86.0
 40
86.0
 40
86.0
 40
87.0
 40
87.0
 40
87.0
 40
88.0
 40
88.0
 40
88.0
 40
89.0
 40
89.0
 40
89.0
 40
90.0
 40
90.0
 40
90.0
 40
90.0
 10
81.70901489257812
 20
77.5
 30
0.0
 10
81.71401977539062
 20
77.5250244140625
 30
0.0
 10
81.72799682617188
 20
77.5469970703125
 30
0.0
 10
81.73001098632812
 20
77.572998046875
 30
0.0
 10
81.73098754882812
 20
77.583984375
 30
0.0
 10
81.72598266601562
 20
77.593017578125
 30
0.0
 10
81.72702026367188
 20
77.60302734375
 30
0.0
 10
81.73104858398438
 20
77.666015625
 30
0.0
 10
81.72201538085938
 20
77.72900390625
 30
0.0
 10
81.70803833007812
 20
77.79205322265625
 30
0.0
 10
81.70303344726562
 20
77.8150634765625
 30
0.0
 10
81.70401000976562
 20
77.84002685546875
 30
0.0
 10
81.69705200195312
 20
77.86102294921875
 30
0.0
 10
81.67105102539062
 20
77.9420166015625
 30
0.0
 10
81.63302612304688
 20
78.01800537109375
 30
0.0
 10
81.57705688476562
 20
78.0880126953125
 30
0.0
 10
81.57705688476562
 20
78.0880126953125
 30
0.0
 10
81.57406616210938
 20
78.09100341796875
 30
0.0
 10
81.57406616210938
 20
78.09100341796875
 30
0.0
 10
81.57406616210938
 20
78.09197998046875
 30
0.0
 10
81.57406616210938
 20
78.09197998046875
 30
0.0
 10
81.57406616210938
 20
78.09197998046875
 30
0.0
 10
81.57406616210938
 20
78.09197998046875
 30
0.0
 10
62.47006225585938
 20
101.8789672851562
 30
0.0
 10
62.47006225585938
 20
101.8789672851562
 30
0.0
 10
62.46206665039062
 20
101.887939453125
 30
0.0
 10
62.4510498046875
 20
101.8919677734375
 30
0.0
 10
62.44406127929688
 20
101.8999633789062
 30
0.0
 10
62.43804931640625
 20
101.906982421875
 30
0.0
 10
62.43707275390625
 20
101.9169921875
 30
0.0
 10
62.43106079101562
 20
101.9229736328125
 30
0.0
 10
62.41305541992188
 20
101.9419555664062
 30
0.0
 10
62.3880615234375
 20
101.9459838867188
 30
0.0
 10
62.36904907226562
 20
101.9619750976562
 30
0.0
 10
62.31103515625
 20
102.011962890625
 30
0.0
 10
62.25204467773438
 20
102.052978515625
 30
0.0
 10
62.18304443359375
 20
102.0799560546875
 30
0.0
 10
62.14703369140625
 20
102.095947265625
 30
0.0
 10
62.113037109375
 20
102.1039428710938
 30
0.0
 10
62.07504272460938
 20
102.1129760742188
 30
0.0
 10
62.00204467773438
 20
102.1300048828125
 30
0.0
 10
61.9300537109375
 20
102.1339721679688
 30
0.0
 10
61.85604858398438
 20
102.126953125
 30
0.0
 10
61.83303833007812
 20
102.1239624023438
 30
0.0
 10
61.81103515625
 20
102.1359252929688
 30
0.0
 10
61.78805541992188
 20
102.1309814453125
 30
0.0
 10
60.9720458984375
 20
101.97900390625
 30
0.0
 10
58.5240478515625
 20
101.5180053710938
 30
0.0
 10
57.65304565429688
 20
101.3159790039062
 30
0.0
 10
55.873046875
 20
105.1499633789062
 30
0.0
 10
53.92904663085938
 20
109.3289794921875
 30
0.0
 10
53.50704956054688
 20
110.219970703125
 30
0.0
 10
53.50704956054688
 20
110.219970703125
 30
0.0
 10
53.5870361328125
 20
116.5059814453125
 30
0.0
 10
53.5870361328125
 20
116.5059814453125
 30
0.0
 10
53.59002685546875
 20
116.7940063476562
 30
0.0
 10
53.41903686523438
 20
117.0559692382812
 30
0.0
 10
53.15304565429688
 20
117.16796875
 30
0.0
 10
52.88705444335938
 20
117.2779541015625
 30
0.0
 10
52.5810546875
 20
117.219970703125
 30
0.0
 10
52.37704467773438
 20
117.0159912109375
 30
0.0
 10
52.37704467773438
 20
117.0159912109375
 30
0.0
 10
46.2950439453125
 20
110.9340209960938
 30
0.0
 10
46.2950439453125
 20
110.9340209960938
 30
0.0
 10
46.238037109375
 20
110.8779907226562
 30
0.0
 10
46.20205688476562
 20
110.81201171875
 30
0.0
 10
46.16903686523438
 20
110.7449951171875
 30
0.0
 10
46.16903686523438
 20
110.7449951171875
 30
0.0
 10
43.44100952148438
 20
110.7340087890625
 30
0.0
 10
43.44100952148438
 20
110.7340087890625
 30
0.0
 10
43.44100952148438
 20
110.7340087890625
 30
0.0
 10
40.71200561523438
 20
110.7470092773438
 30
0.0
 10
40.71200561523438
 20
110.7470092773438
 30
0.0
 10
40.67901611328125
 20
110.8140258789062
 30
0.0
 10
40.64300537109375
 20
110.8809814453125
 30
0.0
 10
40.58599853515625
 20
110.93603515625
 30
0.0
 10
40.58599853515625
 20
110.93603515625
 30
0.0
 10
34.50399780273438
 20
117.0180053710938
 30
0.0
 10
34.50399780273438
 20
117.0180053710938
 30
0.0
 10
34.30099487304688
 20
117.2219848632812
 30
0.0
 10
33.99301147460938
 20
117.281005859375
 30
0.0
 10
33.72799682617188
 20
117.1699829101562
 30
0.0
 10
33.46200561523438
 20
117.0579833984375
 30
0.0
 10
33.29098510742188
 20
116.7959594726562
 30
0.0
 10
33.29400634765625
 20
116.5079956054688
 30
0.0
 10
33.29400634765625
 20
116.5079956054688
 30
0.0
 10
33.37600708007812
 20
110.2230224609375
 30
0.0
 10
33.37600708007812
 20
110.2230224609375
 30
0.0
 10
32.95101928710938
 20
109.3270263671875
 30
0.0
 10
31.00900268554688
 20
105.1500244140625
 30
0.0
 10
29.22900390625
 20
101.3190307617188
 30
0.0
 10
28.3590087890625
 20
101.51904296875
 30
0.0
 10
25.9110107421875
 20
101.9810180664062
 30
0.0
 10
25.09500122070312
 20
102.133056640625
 30
0.0
 10
25.07199096679688
 20
102.1380615234375
 30
0.0
 10
25.04901123046875
 20
102.1260375976562
 30
0.0
 10
25.0260009765625
 20
102.1290283203125
 30
0.0
 10
24.95199584960938
 20
102.1360473632812
 30
0.0
 10
24.8800048828125
 20
102.1320190429688
 30
0.0
 10
24.80801391601562
 20
102.1160278320312
 30
0.0
 10
24.76901245117188
 20
102.1060180664062
 30
0.0
 10
24.7340087890625
 20
102.0960083007812
 30
0.0
 10
24.697021484375
 20
102.0810546875
 30
0.0
 10
24.63101196289062
 20
102.0540771484375
 30
0.0
 10
24.572021484375
 20
102.0140380859375
 30
0.0
 10
24.51400756835938
 20
101.9650268554688
 30
0.0
 10
24.4940185546875
 20
101.947998046875
 30
0.0
 10
24.468017578125
 20
101.9440307617188
 30
0.0
 10
24.45101928710938
 20
101.925048828125
 30
0.0
 10
24.44500732421875
 20
101.9180297851562
 30
0.0
 10
24.44403076171875
 20
101.9080200195312
 30
0.0
 10
24.43801879882812
 20
101.9020385742188
 30
0.0
 10
24.43002319335938
 20
101.89306640625
 30
0.0
 10
24.41900634765625
 20
101.8890380859375
 30
0.0
 10
24.41201782226562
 20
101.8810424804688
 30
0.0
 10
24.41201782226562
 20
101.8810424804688
 30
0.0
 10
5.308013916015625
 20
78.09405517578125
 30
0.0
 10
5.308013916015625
 20
78.09405517578125
 30
0.0
 10
5.308013916015625
 20
78.09405517578125
 30
0.0
 10
5.308013916015625
 20
78.09405517578125
 30
0.0
 10
5.308013916015625
 20
78.09307861328125
 30
0.0
 10
5.308013916015625
 20
78.09307861328125
 30
0.0
 10
5.305023193359375
 20
78.090087890625
 30
0.0
 10
5.305023193359375
 20
78.090087890625
 30
0.0
 10
5.2490234375
 20
78.0211181640625
 30
0.0
 10
5.211029052734375
 20
77.944091796875
 30
0.0
 10
5.185028076171875
 20
77.86309814453125
 30
0.0
 10
5.17803955078125
 20
77.84210205078125
 30
0.0
 10
5.17901611328125
 20
77.81707763671875
 30
0.0
 10
5.174041748046875
 20
77.79510498046875
 30
0.0
 10
5.1600341796875
 20
77.73211669921875
 30
0.0
 10
5.15203857421875
 20
77.6680908203125
 30
0.0
 10
5.155029296875
 20
77.6051025390625
 30
0.0
 10
5.156036376953125
 20
77.5941162109375
 30
0.0
 10
5.151031494140625
 20
77.5850830078125
 30
0.0
 10
5.15203857421875
 20
77.5750732421875
 30
0.0
 10
5.155029296875
 20
77.549072265625
 30
0.0
 10
5.169036865234375
 20
77.527099609375
 30
0.0
 10
5.17303466796875
 20
77.5020751953125
 30
0.0
 10
5.18402099609375
 20
77.4541015625
 30
0.0
 10
5.19403076171875
 20
77.4080810546875
 30
0.0
 10
5.21502685546875
 20
77.362060546875
 30
0.0
 10
5.232025146484375
 20
77.3260498046875
 30
0.0
 10
5.25201416015625
 20
77.2950439453125
 30
0.0
 10
5.274017333984375
 20
77.26104736328125
 30
0.0
 10
5.290008544921875
 20
77.238037109375
 30
0.0
 10
5.297027587890625
 20
77.2110595703125
 30
0.0
 10
5.316009521484375
 20
77.18902587890625
 30
0.0
 10
5.326019287109375
 20
77.17803955078125
 30
0.0
 10
5.339019775390625
 20
77.17401123046875
 30
0.0
 10
5.350006103515625
 20
77.16400146484375
 30
0.0
 10
5.397003173828125
 20
77.114013671875
 30
0.0
 10
5.451995849609375
 20
77.07501220703125
 30
0.0
 10
5.511993408203125
 20
77.041015625
 30
0.0
 10
5.535003662109375
 20
77.02703857421875
 30
0.0
 10
5.55499267578125
 20
77.010009765625
 30
0.0
 10
5.579986572265625
 20
76.9990234375
 30
0.0
 10
5.66497802734375
 20
76.9620361328125
 30
0.0
 10
5.75799560546875
 20
76.93804931640625
 30
0.0
 10
5.85498046875
 20
76.93804931640625
 30
0.0
 10
5.85498046875
 20
76.93804931640625
 30
0.0
 10
5.855987548828125
 20
76.93804931640625
 30
0.0
 10
5.855987548828125
 20
76.93804931640625
 30
0.0
 10
5.855987548828125
 20
76.93804931640625
 30
0.0
 10
5.855987548828125
 20
76.93804931640625
 30
0.0
 10
5.855987548828125
 20
76.93804931640625
 30
0.0
 10
5.855987548828125
 20
76.93804931640625
 30
0.0
 10
5.855987548828125
 20
76.93804931640625
 30
0.0
 10
5.855987548828125
 20
76.93804931640625
 30
0.0
 10
5.879974365234375
 20
76.93804931640625
 30
0.0
 10
5.90399169921875
 20
76.9400634765625
 30
0.0
 10
5.927978515625
 20
76.94207763671875
 30
0.0
 10
5.927978515625
 20
76.94207763671875
 30
0.0
 10
31.9959716796875
 20
79.62310791015625
 30
0.0
 10
31.9959716796875
 20
79.62310791015625
 30
0.0
 10
33.88397216796875
 20
75.10809326171875
 30
0.0
 10
35.87896728515625
 20
70.33209228515625
 30
0.0
 10
37.39495849609375
 20
66.6990966796875
 30
0.0
 10
37.39495849609375
 20
66.6990966796875
 30
0.0
 10
31.47396850585938
 20
62.79010009765625
 30
0.0
 10
31.47396850585938
 20
62.79010009765625
 30
0.0
 10
31.2099609375
 20
62.6151123046875
 30
0.0
 10
31.09396362304688
 20
62.2880859375
 30
0.0
 10
31.18795776367188
 20
61.986083984375
 30
0.0
 10
31.28094482421875
 20
61.6900634765625
 30
0.0
 10
31.55496215820312
 20
61.48907470703125
 30
0.0
 10
31.86495971679688
 20
61.48907470703125
 30
0.0
 10
31.86996459960938
 20
61.48907470703125
 30
0.0
 10
31.87594604492188
 20
61.48907470703125
 30
0.0
 10
31.8819580078125
 20
61.49005126953125
 30
0.0
 10
36.59194946289062
 20
61.5970458984375
 30
0.0
 10
38.43496704101562
 20
61.68402099609375
 30
0.0
 10
39.18594360351562
 20
61.7430419921875
 30
0.0
 10
39.18594360351562
 20
61.7430419921875
 30
0.0
 10
42.79495239257812
 20
57.0440673828125
 30
0.0
 10
42.79495239257812
 20
57.0440673828125
 30
0.0
 10
42.84194946289062
 20
56.94708251953125
 30
0.0
 10
42.9029541015625
 20
56.85809326171875
 30
0.0
 10
42.99395751953125
 20
56.7880859375
 30
0.0
 10
43.12295532226562
 20
56.6890869140625
 30
0.0
 10
43.27395629882812
 20
56.64208984375
 30
0.0
 10
43.42495727539062
 20
56.64208984375
 30
0.0
 10
43.42996215820312
 20
56.64208984375
 30
0.0
 10
43.43496704101562
 20
56.64508056640625
 30
0.0
 10
43.43997192382812
 20
56.64508056640625
 30
0.0
 10
43.44497680664062
 20
56.64508056640625
 30
0.0
 10
43.44998168945312
 20
56.64208984375
 30
0.0
 10
43.45498657226562
 20
56.64208984375
 30
0.0
 10
43.60498046875
 20
56.64208984375
 30
0.0
 10
43.75698852539062
 20
56.6900634765625
 30
0.0
 10
43.885986328125
 20
56.7880859375
 30
0.0
 10
43.97698974609375
 20
56.85809326171875
 30
0.0
 10
44.03799438476562
 20
56.94708251953125
 30
0.0
 10
44.08499145507812
 20
57.0440673828125
 30
0.0
 10
44.08499145507812
 20
57.0440673828125
 30
0.0
 10
47.69400024414062
 20
61.7430419921875
 30
0.0
 10
47.69400024414062
 20
61.7430419921875
 30
0.0
 10
48.44500732421875
 20
61.68402099609375
 30
0.0
 10
50.28900146484375
 20
61.5970458984375
 30
0.0
 10
54.99798583984375
 20
61.49005126953125
 30
0.0
 10
55.00399780273438
 20
61.48907470703125
 30
0.0
 10
55.00997924804688
 20
61.48907470703125
 30
0.0
 10
55.01498413085938
 20
61.48907470703125
 30
0.0
 10
55.32498168945312
 20
61.48907470703125
 30
0.0
 10
55.5989990234375
 20
61.6900634765625
 30
0.0
 10
55.69198608398438
 20
61.986083984375
 30
0.0
 10
55.78598022460938
 20
62.2880859375
 30
0.0
 10
55.66998291015625
 20
62.6151123046875
 30
0.0
 10
55.40597534179688
 20
62.79010009765625
 30
0.0
 10
55.40597534179688
 20
62.79010009765625
 30
0.0
 10
49.4849853515625
 20
66.6990966796875
 30
0.0
 10
49.4849853515625
 20
66.6990966796875
 30
0.0
 10
51.00198364257812
 20
70.33209228515625
 30
0.0
 10
52.99697875976562
 20
75.10906982421875
 30
0.0
 10
54.88397216796875
 20
79.62310791015625
 30
0.0
 10
54.88397216796875
 20
79.62310791015625
 30
0.0
 10
80.95199584960938
 20
76.94207763671875
 30
0.0
 10
80.95199584960938
 20
76.94207763671875
 30
0.0
 10
80.97598266601562
 20
76.9400634765625
 30
0.0
 10
80.99996948242188
 20
76.93804931640625
 30
0.0
 10
81.02401733398438
 20
76.93804931640625
 30
0.0
 10
81.02401733398438
 20
76.93804931640625
 30
0.0
 10
81.02401733398438
 20
76.93804931640625
 30
0.0
 10
81.02401733398438
 20
76.93804931640625
 30
0.0
 10
81.02401733398438
 20
76.93804931640625
 30
0.0
 10
81.02401733398438
 20
76.93804931640625
 30
0.0
 10
81.02401733398438
 20
76.93804931640625
 30
0.0
 10
81.02401733398438
 20
76.93804931640625
 30
0.0
 10
81.02499389648438
 20
76.93804931640625
 30
0.0
 10
81.02499389648438
 20
76.93804931640625
 30
0.0
 10
81.12301635742188
 20
76.93804931640625
 30
0.0
 10
81.21499633789062
 20
76.9610595703125
 30
0.0
 10
81.30001831054688
 20
76.9990234375
 30
0.0
 10
81.32504272460938
 20
77.010009765625
 30
0.0
 10
81.34500122070312
 20
77.02703857421875
 30
0.0
 10
81.36801147460938
 20
77.041015625
 30
0.0
 10
81.42898559570312
 20
77.07501220703125
 30
0.0
 10
81.48300170898438
 20
77.114013671875
 30
0.0
 10
81.52999877929688
 20
77.16400146484375
 30
0.0
 10
81.54098510742188
 20
77.17498779296875
 30
0.0
 10
81.55398559570312
 20
77.17901611328125
 30
0.0
 10
81.56399536132812
 20
77.18902587890625
 30
0.0
 10
81.58297729492188
 20
77.21099853515625
 30
0.0
 10
81.58999633789062
 20
77.238037109375
 30
0.0
 10
81.60598754882812
 20
77.26104736328125
 30
0.0
 10
81.62698364257812
 20
77.2940673828125
 30
0.0
 10
81.64797973632812
 20
77.3250732421875
 30
0.0
 10
81.66500854492188
 20
77.362060546875
 30
0.0
 10
81.68698120117188
 20
77.406982421875
 30
0.0
 10
81.69802856445312
 20
77.4530029296875
 30
0.0
 10
81.70901489257812
 20
77.5
 30
0.0
  0
SPLINE
  5
42
330
1F
100
AcDbEntity
  8
Layer 1
370
     0
100
AcDbSpline
210
0.0
220
0.0
230
1.0
 70
    11
 71
     3
 72
    23
 73
    19
 74
     0
 42
0.0000000001
 43
0.0000000001
 12
1.0
 22
0.0
 32
0.0
 13
1.0
 23
0.0
 33
0.0
 40
0.0
 40
0.0
 40
0.0
 40
0.0
 40
1.0
 40
1.0
 40
1.0
 40
2.0
 40
2.0
 40
2.0
 40
3.0
 40
3.0
 40
3.0
 40
4.0
 40
4.0
 40
4.0
 40
5.0
 40
5.0
 40
5.0
 40
6.0
 40
6.0
 40
6.0
 40
6.0
 10
60.7030029296875
 20
93.4749755859375
 30
0.0
 10
60.75100708007812
 20
93.57098388671875
 30
0.0
 10
60.77099609375
 20
93.6719970703125
 30
0.0
 10
60.77401733398438
 20
93.77294921875
 30
0.0
 10
60.85501098632812
 20
93.8929443359375
 30
0.0
 10
60.89501953125
 20
94.03094482421875
 30
0.0
 10
60.89401245117188
 20
94.1739501953125
 30
0.0
 10
60.89401245117188
 20
94.1739501953125
 30
0.0
 10
62.26800537109375
 20
99.86895751953125
 30
0.0
 10
62.26800537109375
 20
99.86895751953125
 30
0.0
 10
62.26800537109375
 20
99.86895751953125
 30
0.0
 10
78.19003295898438
 20
80.04296875
 30
0.0
 10
78.19003295898438
 20
80.04296875
 30
0.0
 10
78.19003295898438
 20
80.04296875
 30
0.0
 10
59.45303344726562
 20
90.52496337890625
 30
0.0
 10
59.45303344726562
 20
90.52496337890625
 30
0.0
 10
60.17300415039062
 20
92.24200439453125
 30
0.0
 10
60.63900756835938
 20
93.34197998046875
 30
0.0
 10
60.7030029296875
 20
93.4749755859375
 30
0.0
  0
SPLINE
  5
43
330
1F
100
AcDbEntity
  8
Layer 1
370
     0
100
AcDbSpline
210
0.0
220
0.0
230
1.0
 70
    11
 71
     3
 72
    14
 73
    10
 74
     0
 42
0.0000000001
 43
0.0000000001
 12
1.0
 22
0.0
 32
0.0
 13
1.0
 23
0.0
 33
0.0
 40
0.0
 40
0.0
 40
0.0
 40
0.0
 40
1.0
 40
1.0
 40
1.0
 40
2.0
 40
2.0
 40
2.0
 40
3.0
 40
3.0
 40
3.0
 40
3.0
 10
60.97100830078125
 20
100.5369873046875
 30
0.0
 10
60.97100830078125
 20
100.5369873046875
 30
0.0
 10
59.96099853515625
 20
96.3489990234375
 30
0.0
 10
59.96099853515625
 20
96.3489990234375
 30
0.0
 10
59.5050048828125
 20
97.33099365234375
 30
0.0
 10
58.91000366210938
 20
98.61199951171875
 30
0.0
 10
58.26400756835938
 20
100.0040283203125
 30
0.0
 10
58.86102294921875
 20
100.1289672851562
 30
0.0
 10
59.9420166015625
 20
100.3399658203125
 30
0.0
 10
60.97100830078125
 20
100.5369873046875
 30
0.0
  0
SPLINE
  5
44
330
1F
100
AcDbEntity
  8
Layer 1
370
     0
100
AcDbSpline
210
0.0
220
0.0
230
1.0
 70
    11
 71
     3
 72
    20
 73
    16
 74
     0
 42
0.0000000001
 43
0.0000000001
 12
1.0
 22
0.0
 32
0.0
 13
1.0
 23
0.0
 33
0.0
 40
0.0
 40
0.0
 40
0.0
 40
0.0
 40
1.0
 40
1.0
 40
1.0
 40
2.0
 40
2.0
 40
2.0
 40
3.0
 40
3.0
 40
3.0
 40
4.0
 40
4.0
 40
4.0
 40
5.0
 40
5.0
 40
5.0
 40
5.0
 10
58.69100952148438
 20
95.718994140625
 30
0.0
 10
58.69100952148438
 20
95.718994140625
 30
0.0
 10
46.49700927734375
 20
101.8839721679688
 30
0.0
 10
46.49700927734375
 20
101.8839721679688
 30
0.0
 10
46.49700927734375
 20
101.8839721679688
 30
0.0
 10
50.20101928710938
 20
104.6849975585938
 30
0.0
 10
50.20101928710938
 20
104.6849975585938
 30
0.0
 10
50.36801147460938
 20
104.7360229492188
 30
0.0
 10
50.52001953125
 20
104.8259887695312
 30
0.0
 10
50.61203002929688
 20
104.9810180664062
 30
0.0
 10
50.61203002929688
 20
104.9810180664062
 30
0.0
 10
52.72503662109375
 20
108.552001953125
 30
0.0
 10
52.72503662109375
 20
108.552001953125
 30
0.0
 10
53.89901733398438
 20
106.0369873046875
 30
0.0
 10
56.67001342773438
 20
100.073974609375
 30
0.0
 10
58.69100952148438
 20
95.718994140625
 30
0.0
  0
SPLINE
  5
45
330
1F
100
AcDbEntity
  8
Layer 1
370
     0
100
AcDbSpline
210
0.0
220
0.0
230
1.0
 70
    11
 71
     3
 72
    17
 73
    13
 74
     0
 42
0.0000000001
 43
0.0000000001
 12
1.0
 22
0.0
 32
0.0
 13
1.0
 23
0.0
 33
0.0
 40
0.0
 40
0.0
 40
0.0
 40
0.0
 40
1.0
 40
1.0
 40
1.0
 40
2.0
 40
2.0
 40
2.0
 40
3.0
 40
3.0
 40
3.0
 40
4.0
 40
4.0
 40
4.0
 40
4.0
 10
43.44100952148438
 20
58.531005859375
 30
0.0
 10
43.44100952148438
 20
58.531005859375
 30
0.0
 10
40.50799560546875
 20
62.3489990234375
 30
0.0
 10
40.50799560546875
 20
62.3489990234375
 30
0.0
 10
41.02499389648438
 20
62.77197265625
 30
0.0
 10
41.906005859375
 20
63.54296875
 30
0.0
 10
43.44100952148438
 20
64.96600341796875
 30
0.0
 10
44.97601318359375
 20
63.54302978515625
 30
0.0
 10
45.85699462890625
 20
62.77203369140625
 30
0.0
 10
46.3740234375
 20
62.3489990234375
 30
0.0
 10
46.3740234375
 20
62.3489990234375
 30
0.0
 10
43.44100952148438
 20
58.531005859375
 30
0.0
 10
43.44100952148438
 20
58.531005859375
 30
0.0
  0
SPLINE
  5
46
330
1F
100
AcDbEntity
  8
Layer 1
370
     0
100
AcDbSpline
210
0.0
220
0.0
230
1.0
 70
    11
 71
     3
 72
    29
 73
    25
 74
     0
 42
0.0000000001
 43
0.0000000001
 12
1.0
 22
0.0
 32
0.0
 13
1.0
 23
0.0
 33
0.0
 40
0.0
 40
0.0
 40
0.0
 40
0.0
 40
1.0
 40
1.0
 40
1.0
 40
2.0
 40
2.0
 40
2.0
 40
3.0
 40
3.0
 40
3.0
 40
4.0
 40
4.0
 40
4.0
 40
5.0
 40
5.0
 40
5.0
 40
6.0
 40
6.0
 40
6.0
 40
7.0
 40
7.0
 40
7.0
 40
8.0
 40
8.0
 40
8.0
 40
8.0
 10
43.44100952148438
 20
101.3510131835938
 30
0.0
 10
43.44100952148438
 20
101.3510131835938
 30
0.0
 10
39.17800903320312
 20
104.5750122070312
 30
0.0
 10
39.17800903320312
 20
104.5750122070312
 30
0.0
 10
39.17800903320312
 20
104.5750122070312
 30
0.0
 10
43.35501098632812
 20
104.4700317382812
 30
0.0
 10
43.35501098632812
 20
104.4700317382812
 30
0.0
 10
43.36102294921875
 20
104.4690551757812
 30
0.0
 10
43.36700439453125
 20
104.4690551757812
 30
0.0
 10
43.37301635742188
 20
104.4690551757812
 30
0.0
 10
43.39700317382812
 20
104.4690551757812
 30
0.0
 10
43.41802978515625
 20
104.4800415039062
 30
0.0
 10
43.44100952148438
 20
104.4830322265625
 30
0.0
 10
43.46401977539062
 20
104.4800415039062
 30
0.0
 10
43.48501586914062
 20
104.4690551757812
 30
0.0
 10
43.50900268554688
 20
104.4690551757812
 30
0.0
 10
43.5150146484375
 20
104.4690551757812
 30
0.0
 10
43.52099609375
 20
104.4690551757812
 30
0.0
 10
43.52700805664062
 20
104.4700317382812
 30
0.0
 10
43.52700805664062
 20
104.4700317382812
 30
0.0
 10
47.70401000976562
 20
104.5750122070312
 30
0.0
 10
47.70401000976562
 20
104.5750122070312
 30
0.0
 10
47.70401000976562
 20
104.5750122070312
 30
0.0
 10
43.44100952148438
 20
101.3510131835938
 30
0.0
 10
43.44100952148438
 20
101.3510131835938
 30
0.0
  0
SPLINE
  5
47
330
1F
100
AcDbEntity
  8
Layer 1
370
     0
100
AcDbSpline
210
0.0
220
0.0
230
1.0
 70
    11
 71
     3
 72
    47
 73
    43
 74
     0
 42
0.0000000001
 43
0.0000000001
 12
1.0
 22
0.0
 32
0.0
 13
1.0
 23
0.0
 33
0.0
 40
0.0
 40
0.0
 40
0.0
 40
0.0
 40
1.0
 40
1.0
 40
1.0
 40
2.0
 40
2.0
 40
2.0
 40
3.0
 40
3.0
 40
3.0
 40
4.0
 40
4.0
 40
4.0
 40
5.0
 40
5.0
 40
5.0
 40
6.0
 40
6.0
 40
6.0
 40
7.0
 40
7.0
 40
7.0
 40
8.0
 40
8.0
 40
8.0
 40
9.0
 40
9.0
 40
9.0
 40
10.0
 40
10.0
 40
10.0
 40
11.0
 40
11.0
 40
11.0
 40
12.0
 40
12.0
 40
12.0
 40
13.0
 40
13.0
 40
13.0
 40
14.0
 40
14.0
 40
14.0
 40
14.0
 10
43.34100341796875
 20
109.3169555664062
 30
0.0
 10
43.34201049804688
 20
109.3169555664062
 30
0.0
 10
43.343017578125
 20
109.3159790039062
 30
0.0
 10
43.34500122070312
 20
109.3159790039062
 30
0.0
 10
43.34600830078125
 20
109.3159790039062
 30
0.0
 10
43.34701538085938
 20
109.3159790039062
 30
0.0
 10
43.34799194335938
 20
109.3159790039062
 30
0.0
 10
43.34799194335938
 20
109.3159790039062
 30
0.0
 10
43.44100952148438
 20
109.3159790039062
 30
0.0
 10
43.44100952148438
 20
109.3159790039062
 30
0.0
 10
43.44100952148438
 20
109.3159790039062
 30
0.0
 10
43.53399658203125
 20
109.3159790039062
 30
0.0
 10
43.53399658203125
 20
109.3159790039062
 30
0.0
 10
43.53500366210938
 20
109.3159790039062
 30
0.0
 10
43.5360107421875
 20
109.3159790039062
 30
0.0
 10
43.5369873046875
 20
109.3159790039062
 30
0.0
 10
43.53900146484375
 20
109.3159790039062
 30
0.0
 10
43.53997802734375
 20
109.3169555664062
 30
0.0
 10
43.54098510742188
 20
109.3169555664062
 30
0.0
 10
43.54098510742188
 20
109.3169555664062
 30
0.0
 10
51.55099487304688
 20
109.3519287109375
 30
0.0
 10
51.55099487304688
 20
109.3519287109375
 30
0.0
 10
51.55099487304688
 20
109.3519287109375
 30
0.0
 10
49.59197998046875
 20
106.0399169921875
 30
0.0
 10
49.59197998046875
 20
106.0399169921875
 30
0.0
 10
49.59197998046875
 20
106.0399169921875
 30
0.0
 10
43.49197387695312
 20
105.8859252929688
 30
0.0
 10
43.49197387695312
 20
105.8859252929688
 30
0.0
 10
43.47296142578125
 20
105.8859252929688
 30
0.0
 10
43.458984375
 20
105.8759155273438
 30
0.0
 10
43.44097900390625
 20
105.8739013671875
 30
0.0
 10
43.4229736328125
 20
105.8759155273438
 30
0.0
 10
43.40896606445312
 20
105.8859252929688
 30
0.0
 10
43.38998413085938
 20
105.8859252929688
 30
0.0
 10
43.38998413085938
 20
105.8859252929688
 30
0.0
 10
37.28997802734375
 20
106.0399169921875
 30
0.0
 10
37.28997802734375
 20
106.0399169921875
 30
0.0
 10
37.28997802734375
 20
106.0399169921875
 30
0.0
 10
35.33197021484375
 20
109.3519287109375
 30
0.0
 10
35.33197021484375
 20
109.3519287109375
 30
0.0
 10
35.33197021484375
 20
109.3519287109375
 30
0.0
 10
43.34100341796875
 20
109.3169555664062
 30
0.0
 10
43.34100341796875
 20
109.3169555664062
 30
0.0
  0
POLYLINE
  5
48
330
1F
100
AcDbEntity
  8
Layer 1
370
     0
100
AcDb2dPolyline
 66
     1
 10
0.0
 20
0.0
 30
0.0
  0
VERTEX
  5
49
330
48
100
AcDbEntity
  8
Layer 1
370
     0
100
AcDbVertex
100
AcDb2dVertex
 10
52.14801025390625
 20
114.7839965820312
 30
0.0
  0
VERTEX
  5
4A
330
48
100
AcDbEntity
  8
Layer 1
370
     0
100
AcDbVertex
100
AcDb2dVertex
 10
52.09600830078125
 20
110.77197265625
 30
0.0
  0
VERTEX
  5
4B
330
48
100
AcDbEntity
  8
Layer 1
370
     0
100
AcDbVertex
100
AcDb2dVertex
 10
48.11700439453125
 20
110.7539672851562
 30
0.0
  0
VERTEX
  5
4C
330
48
100
AcDbEntity
  8
Layer 1
370
     0
100
AcDbVertex
100
AcDb2dVertex
 10
52.14801025390625
 20
114.7839965820312
 30
0.0
  0
SEQEND
  5
4D
330
48
100
AcDbEntity
  8
Layer 1
370
     0
  0
POLYLINE
  5
4E
330
1F
100
AcDbEntity
  8
Layer 1
370
     0
100
AcDb2dPolyline
 66
     1
 10
0.0
 20
0.0
 30
0.0
  0
VERTEX
  5
4F
330
4E
100
AcDbEntity
  8
Layer 1
370
     0
100
AcDbVertex
100
AcDb2dVertex
 10
38.76400756835938
 20
110.7539672851562
 30
0.0
  0
VERTEX
  5
50
330
4E
100
AcDbEntity
  8
Layer 1
370
     0
100
AcDbVertex
100
AcDb2dVertex
 10
34.78701782226562
 20
110.77197265625
 30
0.0
  0
VERTEX
  5
51
330
4E
100
AcDbEntity
  8
Layer 1
370
     0
100
AcDbVertex
100
AcDb2dVertex
 10
34.7340087890625
 20
114.7839965820312
 30
0.0
  0
VERTEX
  5
52
330
4E
100
AcDbEntity
  8
Layer 1
370
     0
100
AcDbVertex
100
AcDb2dVertex
 10
38.76400756835938
 20
110.7539672851562
 30
0.0
  0
SEQEND
  5
53
330
4E
100
AcDbEntity
  8
Layer 1
370
     0
  0
SPLINE
  5
54
330
1F
100
AcDbEntity
  8
Layer 1
370
     0
100
AcDbSpline
210
0.0
220
0.0
230
1.0
 70
    11
 71
     3
 72
    20
 73
    16
 74
     0
 42
0.0000000001
 43
0.0000000001
 12
1.0
 22
0.0
 32
0.0
 13
1.0
 23
0.0
 33
0.0
 40
0.0
 40
0.0
 40
0.0
 40
0.0
 40
1.0
 40
1.0
 40
1.0
 40
2.0
 40
2.0
 40
2.0
 40
3.0
 40
3.0
 40
3.0
 40
4.0
 40
4.0
 40
4.0
 40
5.0
 40
5.0
 40
5.0
 40
5.0
 10
34.15899658203125
 20
108.552978515625
 30
0.0
 10
34.15899658203125
 20
108.552978515625
 30
0.0
 10
36.26998901367188
 20
104.98095703125
 30
0.0
 10
36.26998901367188
 20
104.98095703125
 30
0.0
 10
36.36199951171875
 20
104.825927734375
 30
0.0
 10
36.51397705078125
 20
104.7359619140625
 30
0.0
 10
36.68099975585938
 20
104.6849365234375
 30
0.0
 10
36.68099975585938
 20
104.6849365234375
 30
0.0
 10
40.385009765625
 20
101.8839111328125
 30
0.0
 10
40.385009765625
 20
101.8839111328125
 30
0.0
 10
40.385009765625
 20
101.8839111328125
 30
0.0
 10
28.19100952148438
 20
95.71893310546875
 30
0.0
 10
28.19100952148438
 20
95.71893310546875
 30
0.0
 10
30.21200561523438
 20
100.073974609375
 30
0.0
 10
32.9840087890625
 20
106.0379638671875
 30
0.0
 10
34.15899658203125
 20
108.552978515625
 30
0.0
  0
SPLINE
  5
55
330
1F
100
AcDbEntity
  8
Layer 1
370
     0
100
AcDbSpline
210
0.0
220
0.0
230
1.0
 70
    11
 71
     3
 72
    14
 73
    10
 74
     0
 42
0.0000000001
 43
0.0000000001
 12
1.0
 22
0.0
 32
0.0
 13
1.0
 23
0.0
 33
0.0
 40
0.0
 40
0.0
 40
0.0
 40
0.0
 40
1.0
 40
1.0
 40
1.0
 40
2.0
 40
2.0
 40
2.0
 40
3.0
 40
3.0
 40
3.0
 40
3.0
 10
28.61801147460938
 20
100.001953125
 30
0.0
 10
27.97201538085938
 20
98.60992431640625
 30
0.0
 10
27.37701416015625
 20
97.3289794921875
 30
0.0
 10
26.9219970703125
 20
96.34796142578125
 30
0.0
 10
26.9219970703125
 20
96.34796142578125
 30
0.0
 10
25.9110107421875
 20
100.5359497070312
 30
0.0
 10
25.9110107421875
 20
100.5359497070312
 30
0.0
 10
26.94000244140625
 20
100.3399658203125
 30
0.0
 10
28.02099609375
 20
100.1289672851562
 30
0.0
 10
28.61801147460938
 20
100.001953125
 30
0.0
  0
SPLINE
  5
56
330
1F
100
AcDbEntity
  8
Layer 1
370
     0
100
AcDbSpline
210
0.0
220
0.0
230
1.0
 70
    11
 71
     3
 72
    23
 73
    19
 74
     0
 42
0.0000000001
 43
0.0000000001
 12
1.0
 22
0.0
 32
0.0
 13
1.0
 23
0.0
 33
0.0
 40
0.0
 40
0.0
 40
0.0
 40
0.0
 40
1.0
 40
1.0
 40
1.0
 40
2.0
 40
2.0
 40
2.0
 40
3.0
 40
3.0
 40
3.0
 40
4.0
 40
4.0
 40
4.0
 40
5.0
 40
5.0
 40
5.0
 40
6.0
 40
6.0
 40
6.0
 40
6.0
 10
24.614013671875
 20
99.8699951171875
 30
0.0
 10
24.614013671875
 20
99.8699951171875
 30
0.0
 10
25.98800659179688
 20
94.17498779296875
 30
0.0
 10
25.98800659179688
 20
94.17498779296875
 30
0.0
 10
25.98699951171875
 20
94.02996826171875
 30
0.0
 10
26.02801513671875
 20
93.8909912109375
 30
0.0
 10
26.11199951171875
 20
93.76995849609375
 30
0.0
 10
26.114013671875
 20
93.6729736328125
 30
0.0
 10
26.13299560546875
 20
93.57696533203125
 30
0.0
 10
26.177001953125
 20
93.48394775390625
 30
0.0
 10
26.239013671875
 20
93.3509521484375
 30
0.0
 10
26.70599365234375
 20
92.2479248046875
 30
0.0
 10
27.42999267578125
 20
90.5279541015625
 30
0.0
 10
27.42999267578125
 20
90.5279541015625
 30
0.0
 10
8.691986083984375
 20
80.04498291015625
 30
0.0
 10
8.691986083984375
 20
80.04498291015625
 30
0.0
 10
8.691986083984375
 20
80.04498291015625
 30
0.0
 10
24.614013671875
 20
99.8699951171875
 30
0.0
 10
24.614013671875
 20
99.8699951171875
 30
0.0
  0
SPLINE
  5
57
330
1F
100
AcDbEntity
  8
Layer 1
370
     0
100
AcDbSpline
210
0.0
220
0.0
230
1.0
 70
    11
 71
     3
 72
    14
 73
    10
 74
     0
 42
0.0000000001
 43
0.0000000001
 12
1.0
 22
0.0
 32
0.0
 13
1.0
 23
0.0
 33
0.0
 40
0.0
 40
0.0
 40
0.0
 40
0.0
 40
1.0
 40
1.0
 40
1.0
 40
2.0
 40
2.0
 40
2.0
 40
3.0
 40
3.0
 40
3.0
 40
3.0
 10
9.19500732421875
 20
78.70196533203125
 30
0.0
 10
9.19500732421875
 20
78.70196533203125
 30
0.0
 10
27.98199462890625
 20
89.21295166015625
 30
0.0
 10
27.98199462890625
 20
89.21295166015625
 30
0.0
 10
28.9169921875
 20
86.98492431640625
 30
0.0
 10
30.12899780273438
 20
84.08892822265625
 30
0.0
 10
31.42599487304688
 20
80.98797607421875
 30
0.0
 10
31.42599487304688
 20
80.98797607421875
 30
0.0
 10
9.19500732421875
 20
78.70196533203125
 30
0.0
 10
9.19500732421875
 20
78.70196533203125
 30
0.0
  0
SPLINE
  5
58
330
1F
100
AcDbEntity
  8
Layer 1
370
     0
100
AcDbSpline
210
0.0
220
0.0
230
1.0
 70
    11
 71
     3
 72
    29
 73
    25
 74
     0
 42
0.0000000001
 43
0.0000000001
 12
1.0
 22
0.0
 32
0.0
 13
1.0
 23
0.0
 33
0.0
 40
0.0
 40
0.0
 40
0.0
 40
0.0
 40
1.0
 40
1.0
 40
1.0
 40
2.0
 40
2.0
 40
2.0
 40
3.0
 40
3.0
 40
3.0
 40
4.0
 40
4.0
 40
4.0
 40
5.0
 40
5.0
 40
5.0
 40
6.0
 40
6.0
 40
6.0
 40
7.0
 40
7.0
 40
7.0
 40
8.0
 40
8.0
 40
8.0
 40
8.0
 10
28.95602416992188
 20
90.552978515625
 30
0.0
 10
28.95401000976562
 20
90.5570068359375
 30
0.0
 10
28.95401000976562
 20
90.56195068359375
 30
0.0
 10
28.9520263671875
 20
90.56597900390625
 30
0.0
 10
28.95101928710938
 20
90.56695556640625
 30
0.0
 10
28.95001220703125
 20
90.5679931640625
 30
0.0
 10
28.94903564453125
 20
90.5689697265625
 30
0.0
 10
28.28903198242188
 20
92.1419677734375
 30
0.0
 10
27.79803466796875
 20
93.30596923828125
 30
0.0
 10
27.5760498046875
 20
93.8199462890625
 30
0.0
 10
27.5760498046875
 20
93.8199462890625
 30
0.0
 10
41.64404296875
 20
100.9319458007812
 30
0.0
 10
41.64404296875
 20
100.9319458007812
 30
0.0
 10
41.64404296875
 20
100.9319458007812
 30
0.0
 10
42.58203125
 20
100.2229614257812
 30
0.0
 10
42.58203125
 20
100.2229614257812
 30
0.0
 10
42.58203125
 20
100.2229614257812
 30
0.0
 10
42.58203125
 20
66.8399658203125
 30
0.0
 10
42.58203125
 20
66.8399658203125
 30
0.0
 10
42.58203125
 20
66.8399658203125
 30
0.0
 10
38.76303100585938
 20
67.10595703125
 30
0.0
 10
38.76303100585938
 20
67.10595703125
 30
0.0
 10
37.44500732421875
 20
70.26300048828125
 30
0.0
 10
31.7230224609375
 20
83.96600341796875
 30
0.0
 10
28.95602416992188
 20
90.552978515625
 30
0.0
  0
SPLINE
  5
59
330
1F
100
AcDbEntity
  8
Layer 1
370
     0
100
AcDbSpline
210
0.0
220
0.0
230
1.0
 70
    11
 71
     3
 72
    17
 73
    13
 74
     0
 42
0.0000000001
 43
0.0000000001
 12
1.0
 22
0.0
 32
0.0
 13
1.0
 23
0.0
 33
0.0
 40
0.0
 40
0.0
 40
0.0
 40
0.0
 40
1.0
 40
1.0
 40
1.0
 40
2.0
 40
2.0
 40
2.0
 40
3.0
 40
3.0
 40
3.0
 40
4.0
 40
4.0
 40
4.0
 40
4.0
 10
38.46701049804688
 20
65.7049560546875
 30
0.0
 10
38.46701049804688
 20
65.7049560546875
 30
0.0
 10
41.89199829101562
 20
65.46697998046875
 30
0.0
 10
41.89199829101562
 20
65.46697998046875
 30
0.0
 10
40.70401000976562
 20
64.37896728515625
 30
0.0
 10
39.60800170898438
 20
63.407958984375
 30
0.0
 10
39.26400756835938
 20
63.1629638671875
 30
0.0
 10
38.75302124023438
 20
63.10797119140625
 30
0.0
 10
36.66000366210938
 20
63.031982421875
 30
0.0
 10
34.32101440429688
 20
62.96697998046875
 30
0.0
 10
34.32101440429688
 20
62.96697998046875
 30
0.0
 10
38.46701049804688
 20
65.7049560546875
 30
0.0
 10
38.46701049804688
 20
65.7049560546875
 30
0.0
  0
SPLINE
  5
5A
330
1F
100
AcDbEntity
  8
Layer 1
370
     0
100
AcDbSpline
210
0.0
220
0.0
230
1.0
 70
    11
 71
     3
 72
    17
 73
    13
 74
     0
 42
0.0000000001
 43
0.0000000001
 12
1.0
 22
0.0
 32
0.0
 13
1.0
 23
0.0
 33
0.0
 40
0.0
 40
0.0
 40
0.0
 40
0.0
 40
1.0
 40
1.0
 40
1.0
 40
2.0
 40
2.0
 40
2.0
 40
3.0
 40
3.0
 40
3.0
 40
4.0
 40
4.0
 40
4.0
 40
4.0
 10
52.56100463867188
 20
62.96697998046875
 30
0.0
 10
50.22100830078125
 20
63.031982421875
 30
0.0
 10
48.12799072265625
 20
63.1090087890625
 30
0.0
 10
47.61801147460938
 20
63.1629638671875
 30
0.0
 10
47.27401733398438
 20
63.407958984375
 30
0.0
 10
46.17901611328125
 20
64.37896728515625
 30
0.0
 10
44.99002075195312
 20
65.46697998046875
 30
0.0
 10
44.99002075195312
 20
65.46697998046875
 30
0.0
 10
48.41500854492188
 20
65.7049560546875
 30
0.0
 10
48.41500854492188
 20
65.7049560546875
 30
0.0
 10
48.41500854492188
 20
65.7049560546875
 30
0.0
 10
52.56100463867188
 20
62.96697998046875
 30
0.0
 10
52.56100463867188
 20
62.96697998046875
 30
0.0
  0
SPLINE
  5
5B
330
1F
100
AcDbEntity
  8
Layer 1
370
     0
100
AcDbSpline
210
0.0
220
0.0
230
1.0
 70
    11
 71
     3
 72
    32
 73
    28
 74
     0
 42
0.0000000001
 43
0.0000000001
 12
1.0
 22
0.0
 32
0.0
 13
1.0
 23
0.0
 33
0.0
 40
0.0
 40
0.0
 40
0.0
 40
0.0
 40
1.0
 40
1.0
 40
1.0
 40
2.0
 40
2.0
 40
2.0
 40
3.0
 40
3.0
 40
3.0
 40
4.0
 40
4.0
 40
4.0
 40
5.0
 40
5.0
 40
5.0
 40
6.0
 40
6.0
 40
6.0
 40
7.0
 40
7.0
 40
7.0
 40
8.0
 40
8.0
 40
8.0
 40
9.0
 40
9.0
 40
9.0
 40
9.0
 10
48.1199951171875
 20
67.10595703125
 30
0.0
 10
48.1199951171875
 20
67.10595703125
 30
0.0
 10
44.0
 20
66.8189697265625
 30
0.0
 10
44.0
 20
66.8189697265625
 30
0.0
 10
44.0
 20
66.8189697265625
 30
0.0
 10
44.0
 20
100.0
 30
0.0
 10
44.0
 20
100.0
 30
0.0
 10
44.00601196289062
 20
100.0050048828125
 30
0.0
 10
44.01400756835938
 20
100.0059814453125
 30
0.0
 10
44.01998901367188
 20
100.010986328125
 30
0.0
 10
44.01998901367188
 20
100.010986328125
 30
0.0
 10
45.23898315429688
 20
100.9329833984375
 30
0.0
 10
45.23898315429688
 20
100.9329833984375
 30
0.0
 10
45.23898315429688
 20
100.9329833984375
 30
0.0
 10
59.3079833984375
 20
93.82000732421875
 30
0.0
 10
59.3079833984375
 20
93.82000732421875
 30
0.0
 10
59.08599853515625
 20
93.30401611328125
 30
0.0
 10
58.59597778320312
 20
92.14202880859375
 30
0.0
 10
57.93597412109375
 20
90.572998046875
 30
0.0
 10
57.93496704101562
 20
90.57098388671875
 30
0.0
 10
57.93197631835938
 20
90.5689697265625
 30
0.0
 10
57.93096923828125
 20
90.5670166015625
 30
0.0
 10
57.92596435546875
 20
90.55902099609375
 30
0.0
 10
57.92697143554688
 20
90.54901123046875
 30
0.0
 10
57.92196655273438
 20
90.541015625
 30
0.0
 10
55.1510009765625
 20
83.94696044921875
 30
0.0
 10
49.43701171875
 20
70.260986328125
 30
0.0
 10
48.1199951171875
 20
67.10595703125
 30
0.0
  0
SPLINE
  5
5C
330
1F
100
AcDbEntity
  8
Layer 1
370
     0
100
AcDbSpline
210
0.0
220
0.0
230
1.0
 70
    11
 71
     3
 72
    14
 73
    10
 74
     0
 42
0.0000000001
 43
0.0000000001
 12
1.0
 22
0.0
 32
0.0
 13
1.0
 23
0.0
 33
0.0
 40
0.0
 40
0.0
 40
0.0
 40
0.0
 40
1.0
 40
1.0
 40
1.0
 40
2.0
 40
2.0
 40
2.0
 40
3.0
 40
3.0
 40
3.0
 40
3.0
 10
58.9000244140625
 20
89.21099853515625
 30
0.0
 10
58.9000244140625
 20
89.21099853515625
 30
0.0
 10
77.68704223632812
 20
78.70098876953125
 30
0.0
 10
77.68704223632812
 20
78.70098876953125
 30
0.0
 10
77.68704223632812
 20
78.70098876953125
 30
0.0
 10
55.45703125
 20
80.98699951171875
 30
0.0
 10
55.45703125
 20
80.98699951171875
 30
0.0
 10
56.75302124023438
 20
84.0880126953125
 30
0.0
 10
57.96600341796875
 20
86.9859619140625
 30
0.0
 10
58.9000244140625
 20
89.21099853515625
 30
0.0
  0
HATCH
  5
5D
330
1F
100
AcDbEntity
  8
Layer 1
 62
     7
420
 16777215
100
AcDbHatch
 10
0.0
 20
0.0
 30
0.0
210
0.0
220
0.0
230
1.0
  2
SOLID
 70
     1
 71
     0
 91
       18
 92
        1
 93
        1
 72
     4
 94
        3
 73
     0
 74
     1
 95
      275
 96
      271
 40
0.0
 40
0.0
 40
0.0
 40
0.0
 40
1.0
 40
1.0
 40
1.0
 40
2.0
 40
2.0
 40
2.0
 40
3.0
 40
3.0
 40
3.0
 40
4.0
 40
4.0
 40
4.0
 40
5.0
 40
5.0
 40
5.0
 40
6.0
 40
6.0
 40
6.0
 40
7.0
 40
7.0
 40
7.0
 40
8.0
 40
8.0
 40
8.0
 40
9.0
 40
9.0
 40
9.0
 40
10.0
 40
10.0
 40
10.0
 40
11.0
 40
11.0
 40
11.0
 40
12.0
 40
12.0
 40
12.0
 40
13.0
 40
13.0
 40
13.0
 40
14.0
 40
14.0
 40
14.0
 40
15.0
 40
15.0
 40
15.0
 40
16.0
 40
16.0
 40
16.0
 40
17.0
 40
17.0
 40
17.0
 40
18.0
 40
18.0
 40
18.0
 40
19.0
 40
19.0
 40
19.0
 40
20.0
 40
20.0
 40
20.0
 40
21.0
 40
21.0
 40
21.0
 40
22.0
 40
22.0
 40
22.0
 40
23.0
 40
23.0
 40
23.0
 40
24.0
 40
24.0
 40
24.0
 40
25.0
 40
25.0
 40
25.0
 40
26.0
 40
26.0
 40
26.0
 40
27.0
 40
27.0
 40
27.0
 40
28.0
 40
28.0
 40
28.0
 40
29.0
 40
29.0
 40
29.0
 40
30.0
 40
30.0
 40
30.0
 40
31.0
 40
31.0
 40
31.0
 40
32.0
 40
32.0
 40
32.0
 40
33.0
 40
33.0
 40
33.0
 40
34.0
 40
34.0
 40
34.0
 40
35.0
 40
35.0
 40
35.0
 40
36.0
 40
36.0
 40
36.0
 40
37.0
 40
37.0
 40
37.0
 40
38.0
 40
38.0
 40
38.0
 40
39.0
 40
39.0
 40
39.0
 40
40.0
 40
40.0
 40
40.0
 40
41.0
 40
41.0
 40
41.0
 40
42.0
 40
42.0
 40
42.0
 40
43.0
 40
43.0
 40
43.0
 40
44.0
 40
44.0
 40
44.0
 40
45.0
 40
45.0
 40
45.0
 40
46.0
 40
46.0
 40
46.0
 40
47.0
 40
47.0
 40
47.0
 40
48.0
 40
48.0
 40
48.0
 40
49.0
 40
49.0
 40
49.0
 40
50.0
 40
50.0
 40
50.0
 40
51.0
 40
51.0
 40
51.0
 40
52.0
 40
52.0
 40
52.0
 40
53.0
 40
53.0
 40
53.0
 40
54.0
 40
54.0
 40
54.0
 40
55.0
 40
55.0
 40
55.0
 40
56.0
 40
56.0
 40
56.0
 40
57.0
 40
57.0
 40
57.0
 40
58.0
 40
58.0
 40
58.0
 40
59.0
 40
59.0
 40
59.0
 40
60.0
 40
60.0
 40
60.0
 40
61.0
 40
61.0
 40
61.0
 40
62.0
 40
62.0
 40
62.0
 40
63.0
 40
63.0
 40
63.0
 40
64.0
 40
64.0
 40
64.0
 40
65.0
 40
65.0
 40
65.0
 40
66.0
 40
66.0
 40
66.0
 40
67.0
 40
67.0
 40
67.0
 40
68.0
 40
68.0
 40
68.0
 40
69.0
 40
69.0
 40
69.0
 40
70.0
 40
70.0
 40
70.0
 40
71.0
 40
71.0
 40
71.0
 40
72.0
 40
72.0
 40
72.0
 40
73.0
 40
73.0
 40
73.0
 40
74.0
 40
74.0
 40
74.0
 40
75.0
 40
75.0
 40
75.0
 40
76.0
 40
76.0
 40
76.0
 40
77.0
 40
77.0
 40
77.0
 40
78.0
 40
78.0
 40
78.0
 40
79.0
 40
79.0
 40
79.0
 40
80.0
 40
80.0
 40
80.0
 40
81.0
 40
81.0
 40
81.0
 40
82.0
 40
82.0
 40
82.0
 40
83.0
 40
83.0
 40
83.0
 40
84.0
 40
84.0
 40
84.0
 40
85.0
 40
85.0
 40
85.0
 40
86.0
 40
86.0
 40
86.0
 40
87.0
 40
87.0
 40
87.0
 40
88.0
 40
88.0
 40
88.0
 40
89.0
 40
89.0
 40
89.0
 40
90.0
 40
90.0
 40
90.0
 40
90.0
 10
81.70901489257812
 20
77.5
 10
81.71401977539062
 20
77.5250244140625
 10
81.72799682617188
 20
77.5469970703125
 10
81.73001098632812
 20
77.572998046875
 10
81.73098754882812
 20
77.583984375
 10
81.72598266601562
 20
77.593017578125
 10
81.72702026367188
 20
77.60302734375
 10
81.73104858398438
 20
77.666015625
 10
81.72201538085938
 20
77.72900390625
 10
81.70803833007812
 20
77.79205322265625
 10
81.70303344726562
 20
77.8150634765625
 10
81.70401000976562
 20
77.84002685546875
 10
81.69705200195312
 20
77.86102294921875
 10
81.67105102539062
 20
77.9420166015625
 10
81.63302612304688
 20
78.01800537109375
 10
81.57705688476562
 20
78.0880126953125
 10
81.57705688476562
 20
78.0880126953125
 10
81.57406616210938
 20
78.09100341796875
 10
81.57406616210938
 20
78.09100341796875
 10
81.57406616210938
 20
78.09197998046875
 10
81.57406616210938
 20
78.09197998046875
 10
81.57406616210938
 20
78.09197998046875
 10
81.57406616210938
 20
78.09197998046875
 10
62.47006225585938
 20
101.8789672851562
 10
62.47006225585938
 20
101.8789672851562
 10
62.46206665039062
 20
101.887939453125
 10
62.4510498046875
 20
101.8919677734375
 10
62.44406127929688
 20
101.8999633789062
 10
62.43804931640625
 20
101.906982421875
 10
62.43707275390625
 20
101.9169921875
 10
62.43106079101562
 20
101.9229736328125
 10
62.41305541992188
 20
101.9419555664062
 10
62.3880615234375
 20
101.9459838867188
 10
62.36904907226562
 20
101.9619750976562
 10
62.31103515625
 20
102.011962890625
 10
62.25204467773438
 20
102.052978515625
 10
62.18304443359375
 20
102.0799560546875
 10
62.14703369140625
 20
102.095947265625
 10
62.113037109375
 20
102.1039428710938
 10
62.07504272460938
 20
102.1129760742188
 10
62.00204467773438
 20
102.1300048828125
 10
61.9300537109375
 20
102.1339721679688
 10
61.85604858398438
 20
102.126953125
 10
61.83303833007812
 20
102.1239624023438
 10
61.81103515625
 20
102.1359252929688
 10
61.78805541992188
 20
102.1309814453125
 10
60.9720458984375
 20
101.97900390625
 10
58.5240478515625
 20
101.5180053710938
 10
57.65304565429688
 20
101.3159790039062
 10
55.873046875
 20
105.1499633789062
 10
53.92904663085938
 20
109.3289794921875
 10
53.50704956054688
 20
110.219970703125
 10
53.50704956054688
 20
110.219970703125
 10
53.5870361328125
 20
116.5059814453125
 10
53.5870361328125
 20
116.5059814453125
 10
53.59002685546875
 20
116.7940063476562
 10
53.41903686523438
 20
117.0559692382812
 10
53.15304565429688
 20
117.16796875
 10
52.88705444335938
 20
117.2779541015625
 10
52.5810546875
 20
117.219970703125
 10
52.37704467773438
 20
117.0159912109375
 10
52.37704467773438
 20
117.0159912109375
 10
46.2950439453125
 20
110.9340209960938
 10
46.2950439453125
 20
110.9340209960938
 10
46.238037109375
 20
110.8779907226562
 10
46.20205688476562
 20
110.81201171875
 10
46.16903686523438
 20
110.7449951171875
 10
46.16903686523438
 20
110.7449951171875
 10
43.44100952148438
 20
110.7340087890625
 10
43.44100952148438
 20
110.7340087890625
 10
43.44100952148438
 20
110.7340087890625
 10
40.71200561523438
 20
110.7470092773438
 10
40.71200561523438
 20
110.7470092773438
 10
40.67901611328125
 20
110.8140258789062
 10
40.64300537109375
 20
110.8809814453125
 10
40.58599853515625
 20
110.93603515625
 10
40.58599853515625
 20
110.93603515625
 10
34.50399780273438
 20
117.0180053710938
 10
34.50399780273438
 20
117.0180053710938
 10
34.30099487304688
 20
117.2219848632812
 10
33.99301147460938
 20
117.281005859375
 10
33.72799682617188
 20
117.1699829101562
 10
33.46200561523438
 20
117.0579833984375
 10
33.29098510742188
 20
116.7959594726562
 10
33.29400634765625
 20
116.5079956054688
 10
33.29400634765625
 20
116.5079956054688
 10
33.37600708007812
 20
110.2230224609375
 10
33.37600708007812
 20
110.2230224609375
 10
32.95101928710938
 20
109.3270263671875
 10
31.00900268554688
 20
105.1500244140625
 10
29.22900390625
 20
101.3190307617188
 10
28.3590087890625
 20
101.51904296875
 10
25.9110107421875
 20
101.9810180664062
 10
25.09500122070312
 20
102.133056640625
 10
25.07199096679688
 20
102.1380615234375
 10
25.04901123046875
 20
102.1260375976562
 10
25.0260009765625
 20
102.1290283203125
 10
24.95199584960938
 20
102.1360473632812
 10
24.8800048828125
 20
102.1320190429688
 10
24.80801391601562
 20
102.1160278320312
 10
24.76901245117188
 20
102.1060180664062
 10
24.7340087890625
 20
102.0960083007812
 10
24.697021484375
 20
102.0810546875
 10
24.63101196289062
 20
102.0540771484375
 10
24.572021484375
 20
102.0140380859375
 10
24.51400756835938
 20
101.9650268554688
 10
24.4940185546875
 20
101.947998046875
 10
24.468017578125
 20
101.9440307617188
 10
24.45101928710938
 20
101.925048828125
 10
24.44500732421875
 20
101.9180297851562
 10
24.44403076171875
 20
101.9080200195312
 10
24.43801879882812
 20
101.9020385742188
 10
24.43002319335938
 20
101.89306640625
 10
24.41900634765625
 20
101.8890380859375
 10
24.41201782226562
 20
101.8810424804688
 10
24.41201782226562
 20
101.8810424804688
 10
5.308013916015625
 20
78.09405517578125
 10
5.308013916015625
 20
78.09405517578125
 10
5.308013916015625
 20
78.09405517578125
 10
5.308013916015625
 20
78.09405517578125
 10
5.308013916015625
 20
78.09307861328125
 10
5.308013916015625
 20
78.09307861328125
 10
5.305023193359375
 20
78.090087890625
 10
5.305023193359375
 20
78.090087890625
 10
5.2490234375
 20
78.0211181640625
 10
5.211029052734375
 20
77.944091796875
 10
5.185028076171875
 20
77.86309814453125
 10
5.17803955078125
 20
77.84210205078125
 10
5.17901611328125
 20
77.81707763671875
 10
5.174041748046875
 20
77.79510498046875
 10
5.1600341796875
 20
77.73211669921875
 10
5.15203857421875
 20
77.6680908203125
 10
5.155029296875
 20
77.6051025390625
 10
5.156036376953125
 20
77.5941162109375
 10
5.151031494140625
 20
77.5850830078125
 10
5.15203857421875
 20
77.5750732421875
 10
5.155029296875
 20
77.549072265625
 10
5.169036865234375
 20
77.527099609375
 10
5.17303466796875
 20
77.5020751953125
 10
5.18402099609375
 20
77.4541015625
 10
5.19403076171875
 20
77.4080810546875
 10
5.21502685546875
 20
77.362060546875
 10
5.232025146484375
 20
77.3260498046875
 10
5.25201416015625
 20
77.2950439453125
 10
5.274017333984375
 20
77.26104736328125
 10
5.290008544921875
 20
77.238037109375
 10
5.297027587890625
 20
77.2110595703125
 10
5.316009521484375
 20
77.18902587890625
 10
5.326019287109375
 20
77.17803955078125
 10
5.339019775390625
 20
77.17401123046875
 10
5.350006103515625
 20
77.16400146484375
 10
5.397003173828125
 20
77.114013671875
 10
5.451995849609375
 20
77.07501220703125
 10
5.511993408203125
 20
77.041015625
 10
5.535003662109375
 20
77.02703857421875
 10
5.55499267578125
 20
77.010009765625
 10
5.579986572265625
 20
76.9990234375
 10
5.66497802734375
 20
76.9620361328125
 10
5.75799560546875
 20
76.93804931640625
 10
5.85498046875
 20
76.93804931640625
 10
5.85498046875
 20
76.93804931640625
 10
5.855987548828125
 20
76.93804931640625
 10
5.855987548828125
 20
76.93804931640625
 10
5.855987548828125
 20
76.93804931640625
 10
5.855987548828125
 20
76.93804931640625
 10
5.855987548828125
 20
76.93804931640625
 10
5.855987548828125
 20
76.93804931640625
 10
5.855987548828125
 20
76.93804931640625
 10
5.855987548828125
 20
76.93804931640625
 10
5.879974365234375
 20
76.93804931640625
 10
5.90399169921875
 20
76.9400634765625
 10
5.927978515625
 20
76.94207763671875
 10
5.927978515625
 20
76.94207763671875
 10
31.9959716796875
 20
79.62310791015625
 10
31.9959716796875
 20
79.62310791015625
 10
33.88397216796875
 20
75.10809326171875
 10
35.87896728515625
 20
70.33209228515625
 10
37.39495849609375
 20
66.6990966796875
 10
37.39495849609375
 20
66.6990966796875
 10
31.47396850585938
 20
62.79010009765625
 10
31.47396850585938
 20
62.79010009765625
 10
31.2099609375
 20
62.6151123046875
 10
31.09396362304688
 20
62.2880859375
 10
31.18795776367188
 20
61.986083984375
 10
31.28094482421875
 20
61.6900634765625
 10
31.55496215820312
 20
61.48907470703125
 10
31.86495971679688
 20
61.48907470703125
 10
31.86996459960938
 20
61.48907470703125
 10
31.87594604492188
 20
61.48907470703125
 10
31.8819580078125
 20
61.49005126953125
 10
36.59194946289062
 20
61.5970458984375
 10
38.43496704101562
 20
61.68402099609375
 10
39.18594360351562
 20
61.7430419921875
 10
39.18594360351562
 20
61.7430419921875
 10
42.79495239257812
 20
57.0440673828125
 10
42.79495239257812
 20
57.0440673828125
 10
42.84194946289062
 20
56.94708251953125
 10
42.9029541015625
 20
56.85809326171875
 10
42.99395751953125
 20
56.7880859375
 10
43.12295532226562
 20
56.6890869140625
 10
43.27395629882812
 20
56.64208984375
 10
43.42495727539062
 20
56.64208984375
 10
43.42996215820312
 20
56.64208984375
 10
43.43496704101562
 20
56.64508056640625
 10
43.43997192382812
 20
56.64508056640625
 10
43.44497680664062
 20
56.64508056640625
 10
43.44998168945312
 20
56.64208984375
 10
43.45498657226562
 20
56.64208984375
 10
43.60498046875
 20
56.64208984375
 10
43.75698852539062
 20
56.6900634765625
 10
43.885986328125
 20
56.7880859375
 10
43.97698974609375
 20
56.85809326171875
 10
44.03799438476562
 20
56.94708251953125
 10
44.08499145507812
 20
57.0440673828125
 10
44.08499145507812
 20
57.0440673828125
 10
47.69400024414062
 20
61.7430419921875
 10
47.69400024414062
 20
61.7430419921875
 10
48.44500732421875
 20
61.68402099609375
 10
50.28900146484375
 20
61.5970458984375
 10
54.99798583984375
 20
61.49005126953125
 10
55.00399780273438
 20
61.48907470703125
 10
55.00997924804688
 20
61.48907470703125
 10
55.01498413085938
 20
61.48907470703125
 10
55.32498168945312
 20
61.48907470703125
 10
55.5989990234375
 20
61.6900634765625
 10
55.69198608398438
 20
61.986083984375
 10
55.78598022460938
 20
62.2880859375
 10
55.66998291015625
 20
62.6151123046875
 10
55.40597534179688
 20
62.79010009765625
 10
55.40597534179688
 20
62.79010009765625
 10
49.4849853515625
 20
66.6990966796875
 10
49.4849853515625
 20
66.6990966796875
 10
51.00198364257812
 20
70.33209228515625
 10
52.99697875976562
 20
75.10906982421875
 10
54.88397216796875
 20
79.62310791015625
 10
54.88397216796875
 20
79.62310791015625
 10
80.95199584960938
 20
76.94207763671875
 10
80.95199584960938
 20
76.94207763671875
 10
80.97598266601562
 20
76.9400634765625
 10
80.99996948242188
 20
76.93804931640625
 10
81.02401733398438
 20
76.93804931640625
 10
81.02401733398438
 20
76.93804931640625
 10
81.02401733398438
 20
76.93804931640625
 10
81.02401733398438
 20
76.93804931640625
 10
81.02401733398438
 20
76.93804931640625
 10
81.02401733398438
 20
76.93804931640625
 10
81.02401733398438
 20
76.93804931640625
 10
81.02401733398438
 20
76.93804931640625
 10
81.02499389648438
 20
76.93804931640625
 10
81.02499389648438
 20
76.93804931640625
 10
81.12301635742188
 20
76.93804931640625
 10
81.21499633789062
 20
76.9610595703125
 10
81.30001831054688
 20
76.9990234375
 10
81.32504272460938
 20
77.010009765625
 10
81.34500122070312
 20
77.02703857421875
 10
81.36801147460938
 20
77.041015625
 10
81.42898559570312
 20
77.07501220703125
 10
81.48300170898438
 20
77.114013671875
 10
81.52999877929688
 20
77.16400146484375
 10
81.54098510742188
 20
77.17498779296875
 10
81.55398559570312
 20
77.17901611328125
 10
81.56399536132812
 20
77.18902587890625
 10
81.58297729492188
 20
77.21099853515625
 10
81.58999633789062
 20
77.238037109375
 10
81.60598754882812
 20
77.26104736328125
 10
81.62698364257812
 20
77.2940673828125
 10
81.64797973632812
 20
77.3250732421875
 10
81.66500854492188
 20
77.362060546875
 10
81.68698120117188
 20
77.406982421875
 10
81.69802856445312
 20
77.4530029296875
 10
81.70901489257812
 20
77.5
 97
        0
 97
        0
 92
        1
 93
        1
 72
     4
 94
        3
 73
     0
 74
     1
 95
       23
 96
       19
 40
0.0
 40
0.0
 40
0.0
 40
0.0
 40
1.0
 40
1.0
 40
1.0
 40
2.0
 40
2.0
 40
2.0
 40
3.0
 40
3.0
 40
3.0
 40
4.0
 40
4.0
 40
4.0
 40
5.0
 40
5.0
 40
5.0
 40
6.0
 40
6.0
 40
6.0
 40
6.0
 10
60.7030029296875
 20
93.4749755859375
 10
60.75100708007812
 20
93.57098388671875
 10
60.77099609375
 20
93.6719970703125
 10
60.77401733398438
 20
93.77294921875
 10
60.85501098632812
 20
93.8929443359375
 10
60.89501953125
 20
94.03094482421875
 10
60.89401245117188
 20
94.1739501953125
 10
60.89401245117188
 20
94.1739501953125
 10
62.26800537109375
 20
99.86895751953125
 10
62.26800537109375
 20
99.86895751953125
 10
62.26800537109375
 20
99.86895751953125
 10
78.19003295898438
 20
80.04296875
 10
78.19003295898438
 20
80.04296875
 10
78.19003295898438
 20
80.04296875
 10
59.45303344726562
 20
90.52496337890625
 10
59.45303344726562
 20
90.52496337890625
 10
60.17300415039062
 20
92.24200439453125
 10
60.63900756835938
 20
93.34197998046875
 10
60.7030029296875
 20
93.4749755859375
 97
        0
 97
        0
 92
        1
 93
        1
 72
     4
 94
        3
 73
     0
 74
     1
 95
       14
 96
       10
 40
0.0
 40
0.0
 40
0.0
 40
0.0
 40
1.0
 40
1.0
 40
1.0
 40
2.0
 40
2.0
 40
2.0
 40
3.0
 40
3.0
 40
3.0
 40
3.0
 10
60.97100830078125
 20
100.5369873046875
 10
60.97100830078125
 20
100.5369873046875
 10
59.96099853515625
 20
96.3489990234375
 10
59.96099853515625
 20
96.3489990234375
 10
59.5050048828125
 20
97.33099365234375
 10
58.91000366210938
 20
98.61199951171875
 10
58.26400756835938
 20
100.0040283203125
 10
58.86102294921875
 20
100.1289672851562
 10
59.9420166015625
 20
100.3399658203125
 10
60.97100830078125
 20
100.5369873046875
 97
        0
 97
        0
 92
        1
 93
        1
 72
     4
 94
        3
 73
     0
 74
     1
 95
       20
 96
       16
 40
0.0
 40
0.0
 40
0.0
 40
0.0
 40
1.0
 40
1.0
 40
1.0
 40
2.0
 40
2.0
 40
2.0
 40
3.0
 40
3.0
 40
3.0
 40
4.0
 40
4.0
 40
4.0
 40
5.0
 40
5.0
 40
5.0
 40
5.0
 10
58.69100952148438
 20
95.718994140625
 10
58.69100952148438
 20
95.718994140625
 10
46.49700927734375
 20
101.8839721679688
 10
46.49700927734375
 20
101.8839721679688
 10
46.49700927734375
 20
101.8839721679688
 10
50.20101928710938
 20
104.6849975585938
 10
50.20101928710938
 20
104.6849975585938
 10
50.36801147460938
 20
104.7360229492188
 10
50.52001953125
 20
104.8259887695312
 10
50.61203002929688
 20
104.9810180664062
 10
50.61203002929688
 20
104.9810180664062
 10
52.72503662109375
 20
108.552001953125
 10
52.72503662109375
 20
108.552001953125
 10
53.89901733398438
 20
106.0369873046875
 10
56.67001342773438
 20
100.073974609375
 10
58.69100952148438
 20
95.718994140625
 97
        0
 97
        0
 92
        1
 93
        1
 72
     4
 94
        3
 73
     0
 74
     1
 95
       17
 96
       13
 40
0.0
 40
0.0
 40
0.0
 40
0.0
 40
1.0
 40
1.0
 40
1.0
 40
2.0
 40
2.0
 40
2.0
 40
3.0
 40
3.0
 40
3.0
 40
4.0
 40
4.0
 40
4.0
 40
4.0
 10
43.44100952148438
 20
58.531005859375
 10
43.44100952148438
 20
58.531005859375
 10
40.50799560546875
 20
62.3489990234375
 10
40.50799560546875
 20
62.3489990234375
 10
41.02499389648438
 20
62.77197265625
 10
41.906005859375
 20
63.54296875
 10
43.44100952148438
 20
64.96600341796875
 10
44.97601318359375
 20
63.54302978515625
 10
45.85699462890625
 20
62.77203369140625
 10
46.3740234375
 20
62.3489990234375
 10
46.3740234375
 20
62.3489990234375
 10
43.44100952148438
 20
58.531005859375
 10
43.44100952148438
 20
58.531005859375
 97
        0
 97
        0
 92
        1
 93
        1
 72
     4
 94
        3
 73
     0
 74
     1
 95
       29
 96
       25
 40
0.0
 40
0.0
 40
0.0
 40
0.0
 40
1.0
 40
1.0
 40
1.0
 40
2.0
 40
2.0
 40
2.0
 40
3.0
 40
3.0
 40
3.0
 40
4.0
 40
4.0
 40
4.0
 40
5.0
 40
5.0
 40
5.0
 40
6.0
 40
6.0
 40
6.0
 40
7.0
 40
7.0
 40
7.0
 40
8.0
 40
8.0
 40
8.0
 40
8.0
 10
43.44100952148438
 20
101.3510131835938
 10
43.44100952148438
 20
101.3510131835938
 10
39.17800903320312
 20
104.5750122070312
 10
39.17800903320312
 20
104.5750122070312
 10
39.17800903320312
 20
104.5750122070312
 10
43.35501098632812
 20
104.4700317382812
 10
43.35501098632812
 20
104.4700317382812
 10
43.36102294921875
 20
104.4690551757812
 10
43.36700439453125
 20
104.4690551757812
 10
43.37301635742188
 20
104.4690551757812
 10
43.39700317382812
 20
104.4690551757812
 10
43.41802978515625
 20
104.4800415039062
 10
43.44100952148438
 20
104.4830322265625
 10
43.46401977539062
 20
104.4800415039062
 10
43.48501586914062
 20
104.4690551757812
 10
43.50900268554688
 20
104.4690551757812
 10
43.5150146484375
 20
104.4690551757812
 10
43.52099609375
 20
104.4690551757812
 10
43.52700805664062
 20
104.4700317382812
 10
43.52700805664062
 20
104.4700317382812
 10
47.70401000976562
 20
104.5750122070312
 10
47.70401000976562
 20
104.5750122070312
 10
47.70401000976562
 20
104.5750122070312
 10
43.44100952148438
 20
101.3510131835938
 10
43.44100952148438
 20
101.3510131835938
 97
        0
 97
        0
 92
        1
 93
        1
 72
     4
 94
        3
 73
     0
 74
     1
 95
       47
 96
       43
 40
0.0
 40
0.0
 40
0.0
 40
0.0
 40
1.0
 40
1.0
 40
1.0
 40
2.0
 40
2.0
 40
2.0
 40
3.0
 40
3.0
 40
3.0
 40
4.0
 40
4.0
 40
4.0
 40
5.0
 40
5.0
 40
5.0
 40
6.0
 40
6.0
 40
6.0
 40
7.0
 40
7.0
 40
7.0
 40
8.0
 40
8.0
 40
8.0
 40
9.0
 40
9.0
 40
9.0
 40
10.0
 40
10.0
 40
10.0
 40
11.0
 40
11.0
 40
11.0
 40
12.0
 40
12.0
 40
12.0
 40
13.0
 40
13.0
 40
13.0
 40
14.0
 40
14.0
 40
14.0
 40
14.0
 10
43.34100341796875
 20
109.3169555664062
 10
43.34201049804688
 20
109.3169555664062
 10
43.343017578125
 20
109.3159790039062
 10
43.34500122070312
 20
109.3159790039062
 10
43.34600830078125
 20
109.3159790039062
 10
43.34701538085938
 20
109.3159790039062
 10
43.34799194335938
 20
109.3159790039062
 10
43.34799194335938
 20
109.3159790039062
 10
43.44100952148438
 20
109.3159790039062
 10
43.44100952148438
 20
109.3159790039062
 10
43.44100952148438
 20
109.3159790039062
 10
43.53399658203125
 20
109.3159790039062
 10
43.53399658203125
 20
109.3159790039062
 10
43.53500366210938
 20
109.3159790039062
 10
43.5360107421875
 20
109.3159790039062
 10
43.5369873046875
 20
109.3159790039062
 10
43.53900146484375
 20
109.3159790039062
 10
43.53997802734375
 20
109.3169555664062
 10
43.54098510742188
 20
109.3169555664062
 10
43.54098510742188
 20
109.3169555664062
 10
51.55099487304688
 20
109.3519287109375
 10
51.55099487304688
 20
109.3519287109375
 10
51.55099487304688
 20
109.3519287109375
 10
49.59197998046875
 20
106.0399169921875
 10
49.59197998046875
 20
106.0399169921875
 10
49.59197998046875
 20
106.0399169921875
 10
43.49197387695312
 20
105.8859252929688
 10
43.49197387695312
 20
105.8859252929688
 10
43.47296142578125
 20
105.8859252929688
 10
43.458984375
 20
105.8759155273438
 10
43.44097900390625
 20
105.8739013671875
 10
43.4229736328125
 20
105.8759155273438
 10
43.40896606445312
 20
105.8859252929688
 10
43.38998413085938
 20
105.8859252929688
 10
43.38998413085938
 20
105.8859252929688
 10
37.28997802734375
 20
106.0399169921875
 10
37.28997802734375
 20
106.0399169921875
 10
37.28997802734375
 20
106.0399169921875
 10
35.33197021484375
 20
109.3519287109375
 10
35.33197021484375
 20
109.3519287109375
 10
35.33197021484375
 20
109.3519287109375
 10
43.34100341796875
 20
109.3169555664062
 10
43.34100341796875
 20
109.3169555664062
 97
        0
 97
        0
 92
        1
 93
        3
 72
     1
 10
52.14801025390625
 20
114.7839965820312
 11
52.09600830078125
 21
110.77197265625
 72
     1
 10
52.09600830078125
 20
110.77197265625
 11
48.11700439453125
 21
110.7539672851562
 72
     1
 10
48.11700439453125
 20
110.7539672851562
 11
52.14801025390625
 21
114.7839965820312
 97
        0
 92
        1
 93
        3
 72
     1
 10
38.76400756835938
 20
110.7539672851562
 11
34.78701782226562
 21
110.77197265625
 72
     1
 10
34.78701782226562
 20
110.77197265625
 11
34.7340087890625
 21
114.7839965820312
 72
     1
 10
34.7340087890625
 20
114.7839965820312
 11
38.76400756835938
 21
110.7539672851562
 97
        0
 92
        1
 93
        1
 72
     4
 94
        3
 73
     0
 74
     1
 95
       20
 96
       16
 40
0.0
 40
0.0
 40
0.0
 40
0.0
 40
1.0
 40
1.0
 40
1.0
 40
2.0
 40
2.0
 40
2.0
 40
3.0
 40
3.0
 40
3.0
 40
4.0
 40
4.0
 40
4.0
 40
5.0
 40
5.0
 40
5.0
 40
5.0
 10
34.15899658203125
 20
108.552978515625
 10
34.15899658203125
 20
108.552978515625
 10
36.26998901367188
 20
104.98095703125
 10
36.26998901367188
 20
104.98095703125
 10
36.36199951171875
 20
104.825927734375
 10
36.51397705078125
 20
104.7359619140625
 10
36.68099975585938
 20
104.6849365234375
 10
36.68099975585938
 20
104.6849365234375
 10
40.385009765625
 20
101.8839111328125
 10
40.385009765625
 20
101.8839111328125
 10
40.385009765625
 20
101.8839111328125
 10
28.19100952148438
 20
95.71893310546875
 10
28.19100952148438
 20
95.71893310546875
 10
30.21200561523438
 20
100.073974609375
 10
32.9840087890625
 20
106.0379638671875
 10
34.15899658203125
 20
108.552978515625
 97
        0
 97
        0
 92
        1
 93
        1
 72
     4
 94
        3
 73
     0
 74
     1
 95
       14
 96
       10
 40
0.0
 40
0.0
 40
0.0
 40
0.0
 40
1.0
 40
1.0
 40
1.0
 40
2.0
 40
2.0
 40
2.0
 40
3.0
 40
3.0
 40
3.0
 40
3.0
 10
28.61801147460938
 20
100.001953125
 10
27.97201538085938
 20
98.60992431640625
 10
27.37701416015625
 20
97.3289794921875
 10
26.9219970703125
 20
96.34796142578125
 10
26.9219970703125
 20
96.34796142578125
 10
25.9110107421875
 20
100.5359497070312
 10
25.9110107421875
 20
100.5359497070312
 10
26.94000244140625
 20
100.3399658203125
 10
28.02099609375
 20
100.1289672851562
 10
28.61801147460938
 20
100.001953125
 97
        0
 97
        0
 92
        1
 93
        1
 72
     4
 94
        3
 73
     0
 74
     1
 95
       23
 96
       19
 40
0.0
 40
0.0
 40
0.0
 40
0.0
 40
1.0
 40
1.0
 40
1.0
 40
2.0
 40
2.0
 40
2.0
 40
3.0
 40
3.0
 40
3.0
 40
4.0
 40
4.0
 40
4.0
 40
5.0
 40
5.0
 40
5.0
 40
6.0
 40
6.0
 40
6.0
 40
6.0
 10
24.614013671875
 20
99.8699951171875
 10
24.614013671875
 20
99.8699951171875
 10
25.98800659179688
 20
94.17498779296875
 10
25.98800659179688
 20
94.17498779296875
 10
25.98699951171875
 20
94.02996826171875
 10
26.02801513671875
 20
93.8909912109375
 10
26.11199951171875
 20
93.76995849609375
 10
26.114013671875
 20
93.6729736328125
 10
26.13299560546875
 20
93.57696533203125
 10
26.177001953125
 20
93.48394775390625
 10
26.239013671875
 20
93.3509521484375
 10
26.70599365234375
 20
92.2479248046875
 10
27.42999267578125
 20
90.5279541015625
 10
27.42999267578125
 20
90.5279541015625
 10
8.691986083984375
 20
80.04498291015625
 10
8.691986083984375
 20
80.04498291015625
 10
8.691986083984375
 20
80.04498291015625
 10
24.614013671875
 20
99.8699951171875
 10
24.614013671875
 20
99.8699951171875
 97
        0
 97
        0
 92
        1
 93
        1
 72
     4
 94
        3
 73
     0
 74
     1
 95
       14
 96
       10
 40
0.0
 40
0.0
 40
0.0
 40
0.0
 40
1.0
 40
1.0
 40
1.0
 40
2.0
 40
2.0
 40
2.0
 40
3.0
 40
3.0
 40
3.0
 40
3.0
 10
9.19500732421875
 20
78.70196533203125
 10
9.19500732421875
 20
78.70196533203125
 10
27.98199462890625
 20
89.21295166015625
 10
27.98199462890625
 20
89.21295166015625
 10
28.9169921875
 20
86.98492431640625
 10
30.12899780273438
 20
84.08892822265625
 10
31.42599487304688
 20
80.98797607421875
 10
31.42599487304688
 20
80.98797607421875
 10
9.19500732421875
 20
78.70196533203125
 10
9.19500732421875
 20
78.70196533203125
 97
        0
 97
        0
 92
        1
 93
        1
 72
     4
 94
        3
 73
     0
 74
     1
 95
       29
 96
       25
 40
0.0
 40
0.0
 40
0.0
 40
0.0
 40
1.0
 40
1.0
 40
1.0
 40
2.0
 40
2.0
 40
2.0
 40
3.0
 40
3.0
 40
3.0
 40
4.0
 40
4.0
 40
4.0
 40
5.0
 40
5.0
 40
5.0
 40
6.0
 40
6.0
 40
6.0
 40
7.0
 40
7.0
 40
7.0
 40
8.0
 40
8.0
 40
8.0
 40
8.0
 10
28.95602416992188
 20
90.552978515625
 10
28.95401000976562
 20
90.5570068359375
 10
28.95401000976562
 20
90.56195068359375
 10
28.9520263671875
 20
90.56597900390625
 10
28.95101928710938
 20
90.56695556640625
 10
28.95001220703125
 20
90.5679931640625
 10
28.94903564453125
 20
90.5689697265625
 10
28.28903198242188
 20
92.1419677734375
 10
27.79803466796875
 20
93.30596923828125
 10
27.5760498046875
 20
93.8199462890625
 10
27.5760498046875
 20
93.8199462890625
 10
41.64404296875
 20
100.9319458007812
 10
41.64404296875
 20
100.9319458007812
 10
41.64404296875
 20
100.9319458007812
 10
42.58203125
 20
100.2229614257812
 10
42.58203125
 20
100.2229614257812
 10
42.58203125
 20
100.2229614257812
 10
42.58203125
 20
66.8399658203125
 10
42.58203125
 20
66.8399658203125
 10
42.58203125
 20
66.8399658203125
 10
38.76303100585938
 20
67.10595703125
 10
38.76303100585938
 20
67.10595703125
 10
37.44500732421875
 20
70.26300048828125
 10
31.7230224609375
 20
83.96600341796875
 10
28.95602416992188
 20
90.552978515625
 97
        0
 97
        0
 92
        1
 93
        1
 72
     4
 94
        3
 73
     0
 74
     1
 95
       17
 96
       13
 40
0.0
 40
0.0
 40
0.0
 40
0.0
 40
1.0
 40
1.0
 40
1.0
 40
2.0
 40
2.0
 40
2.0
 40
3.0
 40
3.0
 40
3.0
 40
4.0
 40
4.0
 40
4.0
 40
4.0
 10
38.46701049804688
 20
65.7049560546875
 10
38.46701049804688
 20
65.7049560546875
 10
41.89199829101562
 20
65.46697998046875
 10
41.89199829101562
 20
65.46697998046875
 10
40.70401000976562
 20
64.37896728515625
 10
39.60800170898438
 20
63.407958984375
 10
39.26400756835938
 20
63.1629638671875
 10
38.75302124023438
 20
63.10797119140625
 10
36.66000366210938
 20
63.031982421875
 10
34.32101440429688
 20
62.96697998046875
 10
34.32101440429688
 20
62.96697998046875
 10
38.46701049804688
 20
65.7049560546875
 10
38.46701049804688
 20
65.7049560546875
 97
        0
 97
        0
 92
        1
 93
        1
 72
     4
 94
        3
 73
     0
 74
     1
 95
       17
 96
       13
 40
0.0
 40
0.0
 40
0.0
 40
0.0
 40
1.0
 40
1.0
 40
1.0
 40
2.0
 40
2.0
 40
2.0
 40
3.0
 40
3.0
 40
3.0
 40
4.0
 40
4.0
 40
4.0
 40
4.0
 10
52.56100463867188
 20
62.96697998046875
 10
50.22100830078125
 20
63.031982421875
 10
48.12799072265625
 20
63.1090087890625
 10
47.61801147460938
 20
63.1629638671875
 10
47.27401733398438
 20
63.407958984375
 10
46.17901611328125
 20
64.37896728515625
 10
44.99002075195312
 20
65.46697998046875
 10
44.99002075195312
 20
65.46697998046875
 10
48.41500854492188
 20
65.7049560546875
 10
48.41500854492188
 20
65.7049560546875
 10
48.41500854492188
 20
65.7049560546875
 10
52.56100463867188
 20
62.96697998046875
 10
52.56100463867188
 20
62.96697998046875
 97
        0
 97
        0
 92
        1
 93
        1
 72
     4
 94
        3
 73
     0
 74
     1
 95
       32
 96
       28
 40
0.0
 40
0.0
 40
0.0
 40
0.0
 40
1.0
 40
1.0
 40
1.0
 40
2.0
 40
2.0
 40
2.0
 40
3.0
 40
3.0
 40
3.0
 40
4.0
 40
4.0
 40
4.0
 40
5.0
 40
5.0
 40
5.0
 40
6.0
 40
6.0
 40
6.0
 40
7.0
 40
7.0
 40
7.0
 40
8.0
 40
8.0
 40
8.0
 40
9.0
 40
9.0
 40
9.0
 40
9.0
 10
48.1199951171875
 20
67.10595703125
 10
48.1199951171875
 20
67.10595703125
 10
44.0
 20
66.8189697265625
 10
44.0
 20
66.8189697265625
 10
44.0
 20
66.8189697265625
 10
44.0
 20
100.0
 10
44.0
 20
100.0
 10
44.00601196289062
 20
100.0050048828125
 10
44.01400756835938
 20
100.0059814453125
 10
44.01998901367188
 20
100.010986328125
 10
44.01998901367188
 20
100.010986328125
 10
45.23898315429688
 20
100.9329833984375
 10
45.23898315429688
 20
100.9329833984375
 10
45.23898315429688
 20
100.9329833984375
 10
59.3079833984375
 20
93.82000732421875
 10
59.3079833984375
 20
93.82000732421875
 10
59.08599853515625
 20
93.30401611328125
 10
58.59597778320312
 20
92.14202880859375
 10
57.93597412109375
 20
90.572998046875
 10
57.93496704101562
 20
90.57098388671875
 10
57.93197631835938
 20
90.5689697265625
 10
57.93096923828125
 20
90.5670166015625
 10
57.92596435546875
 20
90.55902099609375
 10
57.92697143554688
 20
90.54901123046875
 10
57.92196655273438
 20
90.541015625
 10
55.1510009765625
 20
83.94696044921875
 10
49.43701171875
 20
70.260986328125
 10
48.1199951171875
 20
67.10595703125
 97
        0
 97
        0
 92
        1
 93
        1
 72
     4
 94
        3
 73
     0
 74
     1
 95
       14
 96
       10
 40
0.0
 40
0.0
 40
0.0
 40
0.0
 40
1.0
 40
1.0
 40
1.0
 40
2.0
 40
2.0
 40
2.0
 40
3.0
 40
3.0
 40
3.0
 40
3.0
 10
58.9000244140625
 20
89.21099853515625
 10
58.9000244140625
 20
89.21099853515625
 10
77.68704223632812
 20
78.70098876953125
 10
77.68704223632812
 20
78.70098876953125
 10
77.68704223632812
 20
78.70098876953125
 10
55.45703125
 20
80.98699951171875
 10
55.45703125
 20
80.98699951171875
 10
56.75302124023438
 20
84.0880126953125
 10
57.96600341796875
 20
86.9859619140625
 10
58.9000244140625
 20
89.21099853515625
 97
        0
 97
        0
 75
     2
 76
     1
 98
        0
  0
ENDSEC
  0
SECTION
  2
OBJECTS
  0
DICTIONARY
  5
C
330
0
100
AcDbDictionary
281
     1
  3
ACAD_GROUP
350
D
  3
ACAD_LAYOUT
350
1A
  3
ACAD_MATERIAL
350
3B
  3
ACAD_MLEADERSTYLE
350
5F
  3
ACAD_MLINESTYLE
350
17
  3
ACAD_PLOTSETTINGS
350
19
  3
ACAD_PLOTSTYLENAME
350
E
  3
ACAD_TABLESTYLE
350
5E
  3
ACAD_VISUALSTYLE
350
2A
  0
SUN
  5
3F
330
29
100
AcDbSun
 90
        1
290
     0
 63
     7
421
 16777215
 40
1.0
291
     1
 91
  2455826
 92
 54000000
292
     0
 70
     2
 71
   256
280
     1
  0
DICTIONARY
  5
D
102
{ACAD_REACTORS
330
C
102
}
330
C
100
AcDbDictionary
281
     1
  0
DICTIONARY
  5
1A
102
{ACAD_REACTORS
330
C
102
}
330
C
100
AcDbDictionary
281
     1
  3
Layout1
350
1E
  3
Layout2
350
26
  3
Model
350
22
  0
DICTIONARY
  5
3B
102
{ACAD_REACTORS
330
C
102
}
330
C
100
AcDbDictionary
281
     1
  3
ByBlock
350
3D
  3
ByLayer
350
3C
  3
Global
350
3E
  0
DICTIONARY
  5
5F
102
{ACAD_REACTORS
330
C
102
}
330
C
100
AcDbDictionary
281
     1
  0
DICTIONARY
  5
17
102
{ACAD_REACTORS
330
C
102
}
330
C
100
AcDbDictionary
281
     1
  3
Standard
350
18
  0
DICTIONARY
  5
19
102
{ACAD_REACTORS
330
C
102
}
330
C
100
AcDbDictionary
281
     1
  0
ACDBDICTIONARYWDFLT
  5
E
102
{ACAD_REACTORS
330
C
102
}
330
C
100
AcDbDictionary
281
     1
  3
Normal
350
F
100
AcDbDictionaryWithDefault
340
F
  0
DICTIONARY
  5
5E
102
{ACAD_REACTORS
330
C
102
}
330
C
100
AcDbDictionary
281
     1
  0
DICTIONARY
  5
2A
102
{ACAD_REACTORS
330
C
102
}
330
C
100
AcDbDictionary
281
     1
  3
2dWireframe
350
2F
  3
3D Hidden
350
31
  3
3dWireframe
350
30
  3
Basic
350
32
  3
Brighten
350
36
  3
ColorChange
350
3A
  3
Conceptual
350
34
  3
Dim
350
35
  3
Facepattern
350
39
  3
Flat
350
2B
  3
FlatWithEdges
350
2C
  3
Gouraud
350
2D
  3
GouraudWithEdges
350
2E
  3
Linepattern
350
38
  3
Realistic
350
33
  3
Thicken
350
37
  0
LAYOUT
  5
1E
102
{ACAD_REACTORS
330
1A
102
}
330
1A
100
AcDbPlotSettings
  1

  2
none_device
  4

  6

 40
0.0
 41
0.0
 42
0.0
 43
0.0
 44
0.0
 45
0.0
 46
0.0
 47
0.0
 48
0.0
 49
0.0
140
0.0
141
0.0
142
1.0
143
1.0
 70
   688
 72
     0
 73
     0
 74
     5
  7

 75
    16
 76
     0
 77
     2
 78
   300
147
1.0
148
0.0
149
0.0
100
AcDbLayout
  1
Layout1
 70
     1
 71
     1
 10
0.0
 20
0.0
 11
12.0
 21
9.0
 12
0.0
 22
0.0
 32
0.0
 14
1.000000000000000E+20
 24
1.000000000000000E+20
 34
1.000000000000000E+20
 15
-1.000000000000000E+20
 25
-1.000000000000000E+20
 35
-1.000000000000000E+20
146
0.0
 13
0.0
 23
0.0
 33
0.0
 16
1.0
 26
0.0
 36
0.0
 17
0.0
 27
1.0
 37
0.0
 76
     0
330
1B
  0
LAYOUT
  5
26
102
{ACAD_REACTORS
330
1A
102
}
330
1A
100
AcDbPlotSettings
  1

  2
none_device
  4

  6

 40
0.0
 41
0.0
 42
0.0
 43
0.0
 44
0.0
 45
0.0
 46
0.0
 47
0.0
 48
0.0
 49
0.0
140
0.0
141
0.0
142
1.0
143
1.0
 70
   688
 72
     0
 73
     0
 74
     5
  7

 75
    16
 76
     0
 77
     2
 78
   300
147
1.0
148
0.0
149
0.0
100
AcDbLayout
  1
Layout2
 70
     1
 71
     2
 10
0.0
 20
0.0
 11
0.0
 21
0.0
 12
0.0
 22
0.0
 32
0.0
 14
0.0
 24
0.0
 34
0.0
 15
0.0
 25
0.0
 35
0.0
146
0.0
 13
0.0
 23
0.0
 33
0.0
 16
1.0
 26
0.0
 36
0.0
 17
0.0
 27
1.0
 37
0.0
 76
     0
330
23
  0
LAYOUT
  5
22
102
{ACAD_REACTORS
330
1A
102
}
330
1A
100
AcDbPlotSettings
  1

  2
none_device
  4

  6

 40
0.0
 41
0.0
 42
0.0
 43
0.0
 44
0.0
 45
0.0
 46
0.0
 47
0.0
 48
0.0
 49
0.0
140
0.0
141
0.0
142
1.0
143
1.0
 70
  1712
 72
     0
 73
     0
 74
     0
  7

 75
     0
 76
     0
 77
     2
 78
   300
147
1.0
148
0.0
149
0.0
100
AcDbLayout
  1
Model
 70
     1
 71
     0
 10
0.0
 20
0.0
 11
12.0
 21
9.0
 12
0.0
 22
0.0
 32
0.0
 14
1.000000000000000E+20
 24
1.000000000000000E+20
 34
1.000000000000000E+20
 15
-1.000000000000000E+20
 25
-1.000000000000000E+20
 35
-1.000000000000000E+20
146
0.0
 13
0.0
 23
0.0
 33
0.0
 16
1.0
 26
0.0
 36
0.0
 17
0.0
 27
1.0
 37
0.0
 76
     0
330
1F
331
29
  0
MATERIAL
  5
3D
102
{ACAD_REACTORS
330
3B
102
}
330
3B
100
AcDbMaterial
  1
ByBlock
 72
     1
 94
      127
  0
MATERIAL
  5
3C
102
{ACAD_REACTORS
330
3B
102
}
330
3B
100
AcDbMaterial
  1
ByLayer
 72
     1
 94
      127
  0
MATERIAL
  5
3E
102
{ACAD_REACTORS
330
3B
102
}
330
3B
100
AcDbMaterial
  1
Global
 72
     1
 94
      127
  0
MLINESTYLE
  5
18
102
{ACAD_REACTORS
330
17
102
}
330
17
100
AcDbMlineStyle
  2
Standard
 70
     0
  3

 62
   256
 51
90.0
 52
90.0
 71
     2
 49
0.5
 62
   256
  6
BYLAYER
 49
-0.5
 62
   256
  6
BYLAYER
  0
ACDBPLACEHOLDER
  5
F
102
{ACAD_REACTORS
330
E
102
}
330
E
  0
VISUALSTYLE
  5
2F
102
{ACAD_REACTORS
330
2A
102
}
330
2A
100
AcDbVisualStyle
  2
2dWireframe
 70
     4
177
     2
291
     0
 71
     0
176
     1
 72
     2
176
     1
 73
     0
176
     1
 90
        0
176
     1
 40
-0.6
176
     1
 41
-30.0
176
     1
 62
     5
 63
     7
421
 16777215
176
     1
 74
     1
176
     1
 91
        4
176
     1
 64
     7
176
     1
 65
   257
176
     1
 75
     1
176
     1
175
     1
176
     1
 42
1.0
176
     1
 92
        0
176
     1
 66
   257
176
     1
 43
1.0
176
     1
 76
     1
176
     1
 77
     6
176
     1
 78
     2
176
     1
 67
     7
176
     1
 79
     5
176
     1
170
     0
176
     1
171
     0
176
     1
290
     0
176
     1
 93
        1
176
     1
 44
0.0
176
     1
173
     0
176
     1
  0
VISUALSTYLE
  5
31
102
{ACAD_REACTORS
330
2A
102
}
330
2A
100
AcDbVisualStyle
  2
3D Hidden
 70
     6
177
     2
291
     0
 71
     1
176
     1
 72
     2
176
     1
 73
     2
176
     1
 90
        0
176
     1
 40
-0.6
176
     1
 41
-30.0
176
     1
 62
     5
 63
     7
421
 16777215
176
     1
 74
     2
176
     1
 91
        2
176
     1
 64
     7
176
     1
 65
   257
176
     1
 75
     2
176
     1
175
     1
176
     1
 42
40.0
176
     1
 92
        0
176
     1
 66
   257
176
     1
 43
1.0
176
     1
 76
     1
176
     1
 77
     6
176
     1
 78
     2
176
     1
 67
     7
176
     1
 79
     3
176
     1
170
     0
176
     1
171
     0
176
     1
290
     0
176
     1
 93
        1
176
     1
 44
0.0
176
     1
173
     0
176
     1
  0
VISUALSTYLE
  5
30
102
{ACAD_REACTORS
330
2A
102
}
330
2A
100
AcDbVisualStyle
  2
3dWireframe
 70
     5
177
     2
291
     0
 71
     0
176
     1
 72
     2
176
     1
 73
     0
176
     1
 90
        0
176
     1
 40
-0.6
176
     1
 41
-30.0
176
     1
 62
     5
 63
     7
421
 16777215
176
     1
 74
     1
176
     1
 91
        4
176
     1
 64
     7
176
     1
 65
   257
176
     1
 75
     1
176
     1
175
     1
176
     1
 42
1.0
176
     1
 92
        0
176
     1
 66
   257
176
     1
 43
1.0
176
     1
 76
     1
176
     1
 77
     6
176
     1
 78
     2
176
     1
 67
     7
176
     1
 79
     5
176
     1
170
     0
176
     1
171
     0
176
     1
290
     0
176
     1
 93
        1
176
     1
 44
0.0
176
     1
173
     0
176
     1
  0
VISUALSTYLE
  5
32
102
{ACAD_REACTORS
330
2A
102
}
330
2A
100
AcDbVisualStyle
  2
Basic
 70
     7
177
     2
291
     1
 71
     1
176
     1
 72
     0
176
     1
 73
     1
176
     1
 90
        0
176
     1
 40
-0.6
176
     1
 41
-30.0
176
     1
 62
     5
 63
     7
421
 16777215
176
     1
 74
     0
176
     1
 91
        4
176
     1
 64
     7
176
     1
 65
   257
176
     1
 75
     1
176
     1
175
     1
176
     1
 42
1.0
176
     1
 92
        8
176
     1
 66
     7
176
     1
 43
1.0
176
     1
 76
     1
176
     1
 77
     6
176
     1
 78
     2
176
     1
 67
     7
176
     1
 79
     5
176
     1
170
     0
176
     1
171
     0
176
     1
290
     0
176
     1
 93
        1
176
     1
 44
0.0
176
     1
173
     0
176
     1
  0
VISUALSTYLE
  5
36
102
{ACAD_REACTORS
330
2A
102
}
330
2A
100
AcDbVisualStyle
  2
Brighten
 70
    12
177
     2
291
     1
 71
     2
176
     1
 72
     2
176
     1
 73
     0
176
     1
 90
        0
176
     1
 40
-0.6
176
     1
 41
-30.0
176
     1
 62
     5
 63
     7
421
 16777215
176
     1
 74
     1
176
     1
 91
        4
176
     1
 64
     7
176
     1
 65
   257
176
     1
 75
     1
176
     1
175
     1
176
     1
 42
1.0
176
     1
 92
        8
176
     1
 66
     7
176
     1
 43
1.0
176
     1
 76
     1
176
     1
 77
     6
176
     1
 78
     2
176
     1
 67
     7
176
     1
 79
     5
176
     1
170
     0
176
     1
171
     0
176
     1
290
     0
176
     1
 93
        1
176
     1
 44
50.0
176
     1
173
     0
176
     1
  0
VISUALSTYLE
  5
3A
102
{ACAD_REACTORS
330
2A
102
}
330
2A
100
AcDbVisualStyle
  2
ColorChange
 70
    16
177
     2
291
     1
 71
     2
176
     1
 72
     2
176
     1
 73
     3
176
     1
 90
        0
176
     1
 40
-0.6
176
     1
 41
-30.0
176
     1
 62
     5
 63
     8
421
  8421504
176
     1
 74
     1
176
     1
 91
        4
176
     1
 64
     7
176
     1
 65
   257
176
     1
 75
     1
176
     1
175
     1
176
     1
 42
1.0
176
     1
 92
        8
176
     1
 66
     8
424
  8421504
176
     1
 43
1.0
176
     1
 76
     1
176
     1
 77
     6
176
     1
 78
     2
176
     1
 67
     7
176
     1
 79
     5
176
     1
170
     0
176
     1
171
     0
176
     1
290
     0
176
     1
 93
        1
176
     1
 44
0.0
176
     1
173
     0
176
     1
  0
VISUALSTYLE
  5
34
102
{ACAD_REACTORS
330
2A
102
}
330
2A
100
AcDbVisualStyle
  2
Conceptual
 70
     9
177
     2
291
     0
 71
     3
176
     1
 72
     2
176
     1
 73
     0
176
     1
 90
        0
176
     1
 40
-0.6
176
     1
 41
-30.0
176
     1
 62
     5
 63
     7
421
 16777215
176
     1
 74
     2
176
     1
 91
        2
176
     1
 64
     7
176
     1
 65
   257
176
     1
 75
     1
176
     1
175
     1
176
     1
 42
40.0
176
     1
 92
        8
176
     1
 66
     7
176
     1
 43
1.0
176
     1
 76
     1
176
     1
 77
     6
176
     1
 78
     2
176
     1
 67
     7
176
     1
 79
     3
176
     1
170
     0
176
     1
171
     0
176
     1
290
     0
176
     1
 93
        1
176
     1
 44
0.0
176
     1
173
     0
176
     1
  0
VISUALSTYLE
  5
35
102
{ACAD_REACTORS
330
2A
102
}
330
2A
100
AcDbVisualStyle
  2
Dim
 70
    11
177
     2
291
     1
 71
     2
176
     1
 72
     2
176
     1
 73
     0
176
     1
 90
        0
176
     1
 40
-0.6
176
     1
 41
-30.0
176
     1
 62
     5
 63
     7
421
 16777215
176
     1
 74
     1
176
     1
 91
        4
176
     1
 64
     7
176
     1
 65
   257
176
     1
 75
     1
176
     1
175
     1
176
     1
 42
1.0
176
     1
 92
        8
176
     1
 66
     7
176
     1
 43
1.0
176
     1
 76
     1
176
     1
 77
     6
176
     1
 78
     2
176
     1
 67
     7
176
     1
 79
     5
176
     1
170
     0
176
     1
171
     0
176
     1
290
     0
176
     1
 93
        1
176
     1
 44
-50.0
176
     1
173
     0
176
     1
  0
VISUALSTYLE
  5
39
102
{ACAD_REACTORS
330
2A
102
}
330
2A
100
AcDbVisualStyle
  2
Facepattern
 70
    15
177
     2
291
     1
 71
     2
176
     1
 72
     2
176
     1
 73
     0
176
     1
 90
        0
176
     1
 40
-0.6
176
     1
 41
-30.0
176
     1
 62
     5
 63
     7
421
 16777215
176
     1
 74
     1
176
     1
 91
        4
176
     1
 64
     7
176
     1
 65
   257
176
     1
 75
     1
176
     1
175
     1
176
     1
 42
1.0
176
     1
 92
        8
176
     1
 66
     7
176
     1
 43
1.0
176
     1
 76
     1
176
     1
 77
     6
176
     1
 78
     2
176
     1
 67
     7
176
     1
 79
     5
176
     1
170
     0
176
     1
171
     0
176
     1
290
     0
176
     1
 93
        1
176
     1
 44
0.0
176
     1
173
     0
176
     1
  0
VISUALSTYLE
  5
2B
102
{ACAD_REACTORS
330
2A
102
}
330
2A
100
AcDbVisualStyle
  2
Flat
 70
     0
177
     2
291
     1
 71
     2
176
     1
 72
     1
176
     1
 73
     1
176
     1
 90
        2
176
     1
 40
-0.6
176
     1
 41
30.0
176
     1
 62
     5
 63
     7
421
 16777215
176
     1
 74
     0
176
     1
 91
        4
176
     1
 64
     7
176
     1
 65
   257
176
     1
 75
     1
176
     1
175
     1
176
     1
 42
1.0
176
     1
 92
        8
176
     1
 66
     7
176
     1
 43
1.0
176
     1
 76
     1
176
     1
 77
     6
176
     1
 78
     2
176
     1
 67
     7
176
     1
 79
     5
176
     1
170
     0
176
     1
171
     0
176
     1
290
     0
176
     1
 93
       13
176
     1
 44
0.0
176
     1
173
     0
176
     1
  0
VISUALSTYLE
  5
2C
102
{ACAD_REACTORS
330
2A
102
}
330
2A
100
AcDbVisualStyle
  2
FlatWithEdges
 70
     1
177
     2
291
     1
 71
     2
176
     1
 72
     1
176
     1
 73
     1
176
     1
 90
        2
176
     1
 40
-0.6
176
     1
 41
30.0
176
     1
 62
     5
 63
     7
421
 16777215
176
     1
 74
     1
176
     1
 91
        4
176
     1
 64
     7
176
     1
 65
   257
176
     1
 75
     1
176
     1
175
     1
176
     1
 42
1.0
176
     1
 92
        0
176
     1
 66
   257
176
     1
 43
1.0
176
     1
 76
     1
176
     1
 77
     6
176
     1
 78
     2
176
     1
 67
     7
176
     1
 79
     5
176
     1
170
     0
176
     1
171
     0
176
     1
290
     0
176
     1
 93
       13
176
     1
 44
0.0
176
     1
173
     0
176
     1
  0
VISUALSTYLE
  5
2D
102
{ACAD_REACTORS
330
2A
102
}
330
2A
100
AcDbVisualStyle
  2
Gouraud
 70
     2
177
     2
291
     1
 71
     2
176
     1
 72
     2
176
     1
 73
     1
176
     1
 90
        2
176
     1
 40
-0.6
176
     1
 41
30.0
176
     1
 62
     5
 63
     7
421
 16777215
176
     1
 74
     0
176
     1
 91
        4
176
     1
 64
     7
176
     1
 65
   257
176
     1
 75
     1
176
     1
175
     1
176
     1
 42
1.0
176
     1
 92
        0
176
     1
 66
     7
176
     1
 43
1.0
176
     1
 76
     1
176
     1
 77
     6
176
     1
 78
     2
176
     1
 67
     7
176
     1
 79
     5
176
     1
170
     0
176
     1
171
     0
176
     1
290
     0
176
     1
 93
       13
176
     1
 44
0.0
176
     1
173
     0
176
     1
  0
VISUALSTYLE
  5
2E
102
{ACAD_REACTORS
330
2A
102
}
330
2A
100
AcDbVisualStyle
  2
GouraudWithEdges
 70
     3
177
     2
291
     1
 71
     2
176
     1
 72
     2
176
     1
 73
     1
176
     1
 90
        2
176
     1
 40
-0.6
176
     1
 41
30.0
176
     1
 62
     5
 63
     7
421
 16777215
176
     1
 74
     1
176
     1
 91
        4
176
     1
 64
     7
176
     1
 65
   257
176
     1
 75
     1
176
     1
175
     1
176
     1
 42
1.0
176
     1
 92
        0
176
     1
 66
   257
176
     1
 43
1.0
176
     1
 76
     1
176
     1
 77
     6
176
     1
 78
     2
176
     1
 67
     7
176
     1
 79
     5
176
     1
170
     0
176
     1
171
     0
176
     1
290
     0
176
     1
 93
       13
176
     1
 44
0.0
176
     1
173
     0
176
     1
  0
VISUALSTYLE
  5
38
102
{ACAD_REACTORS
330
2A
102
}
330
2A
100
AcDbVisualStyle
  2
Linepattern
 70
    14
177
     2
291
     1
 71
     2
176
     1
 72
     2
176
     1
 73
     0
176
     1
 90
        0
176
     1
 40
-0.6
176
     1
 41
-30.0
176
     1
 62
     5
 63
     7
421
 16777215
176
     1
 74
     1
176
     1
 91
        4
176
     1
 64
     7
176
     1
 65
   257
176
     1
 75
     7
176
     1
175
     7
176
     1
 42
1.0
176
     1
 92
        8
176
     1
 66
     7
176
     1
 43
1.0
176
     1
 76
     1
176
     1
 77
     6
176
     1
 78
     2
176
     1
 67
     7
176
     1
 79
     5
176
     1
170
     0
176
     1
171
     0
176
     1
290
     0
176
     1
 93
        1
176
     1
 44
0.0
176
     1
173
     0
176
     1
  0
VISUALSTYLE
  5
33
102
{ACAD_REACTORS
330
2A
102
}
330
2A
100
AcDbVisualStyle
  2
Realistic
 70
     8
177
     2
291
     0
 71
     2
176
     1
 72
     2
176
     1
 73
     0
176
     1
 90
        0
176
     1
 40
-0.6
176
     1
 41
-30.0
176
     1
 62
     5
 63
     7
421
 16777215
176
     1
 74
     1
176
     1
 91
        0
176
     1
 64
     7
176
     1
 65
   257
176
     1
 75
     1
176
     1
175
     1
176
     1
 42
1.0
176
     1
 92
        8
176
     1
 66
     8
424
  7895160
176
     1
 43
1.0
176
     1
 76
     1
176
     1
 77
     6
176
     1
 78
     2
176
     1
 67
     7
176
     1
 79
     5
176
     1
170
     0
176
     1
171
     0
176
     1
290
     0
176
     1
 93
       13
176
     1
 44
0.0
176
     1
173
     0
176
     1
  0
VISUALSTYLE
  5
37
102
{ACAD_REACTORS
330
2A
102
}
330
2A
100
AcDbVisualStyle
  2
Thicken
 70
    13
177
     2
291
     1
 71
     2
176
     1
 72
     2
176
     1
 73
     0
176
     1
 90
        0
176
     1
 40
-0.6
176
     1
 41
-30.0
176
     1
 62
     5
 63
     7
421
 16777215
176
     1
 74
     1
176
     1
 91
        4
176
     1
 64
     7
176
     1
 65
   257
176
     1
 75
     1
176
     1
175
     1
176
     1
 42
1.0
176
     1
 92
       12
176
     1
 66
     7
176
     1
 43
1.0
176
     1
 76
     1
176
     1
 77
     6
176
     1
 78
     2
176
     1
 67
     7
176
     1
 79
     5
176
     1
170
     0
176
     1
171
     0
176
     1
290
     0
176
     1
 93
        1
176
     1
 44
0.0
176
     1
173
     0
176
     1
  0
ENDSEC
  0
EOF
