<?xml version="1.0" encoding="utf-8"?>
<!-- Generator: Adobe Illustrator 19.2.1, SVG Export Plug-In . SVG Version: 6.00 Build 0)  -->
<svg version="1.1" id="Layer_1" xmlns="http://www.w3.org/2000/svg" xmlns:xlink="http://www.w3.org/1999/xlink" x="0px" y="0px"
	 viewBox="0 0 100 125" style="enable-background:new 0 0 100 125;" xml:space="preserve">
<path d="M70.2,14.2l-6.5-4.8c-0.1-0.1-0.3-0.2-0.5-0.2L51.7,9.3c-0.3,0-0.5,0.2-0.6,0.4l-2.2,5.1c0,0,0,0,0,0l-4.1,9.5L11.5,53.9
	c-0.2,0.2-0.3,0.6-0.1,0.9c0.1,0.2,0.4,0.4,0.6,0.4c0.1,0,0.1,0,0.2,0l26.2-8.2c-7.1,14.7-23.7,48.9-24.6,50.2l0,0
	c-0.4,0.5-0.3,0.6,0,0.9c0.1,0.2,0.3,0.2,0.5,0.2c0.2,0,0.3-0.1,0.4-0.2c0,0,0,0,0.1-0.1l0,0c0.6-0.6,21.8-21.1,32.9-31.8
	c0.1-0.1,0.1-0.2,0.2-0.3c0,0,0,0,0,0l3.6-14l9.6-0.1c0.3,0,0.5-0.1,0.6-0.4c0.1-0.2,0.1-0.5,0-0.7l-3.8-6l3.4-3.7
	c0.1-0.1,0.2-0.2,0.3-0.4c0,0,0,0,0,0c0,0,0,0,0,0c0.1-0.2,0.2-0.5-0.8-6.8l-0.7-11.8c1.3-0.4,2.7-0.9,3.5-1.2l1.3,8.5
	c0,0.3,0.3,0.6,0.6,0.6c0,0,0.1,0,0.1,0c0.3,0,0.5-0.2,0.7-0.4l4-9.9c0,0,0-0.1,0-0.1c0-0.1,0-0.1,0-0.2v-4.5
	C70.5,14.5,70.3,14.3,70.2,14.2z M52.2,10.7l10.4-0.1c0.5,3.6,1,7.5,1,8.7c-1.3,0.4-5.2,1.7-6.4,2.1l-6.8-6.5L52.2,10.7z M59.5,34.2
	c0.3,2.2,0.7,4.5,0.7,5.5c-0.4,0-1,0.1-2.3,0.1c-0.5,0-0.9,0-1.2,0l-8.9-12.6L59.5,34.2z M45.3,25.8l10,14.3L14.9,52.8L45.3,25.8z
	 M47.1,63.4l-6.6-17.2l12.1-3.8L47.1,63.4z M18.9,92c-0.7,0.7-1.4,1.3-2,1.9c3.5-6.9,11.1-22.4,22.6-46.3l6.9,17.9
	c-1.6,1.5-8.9,8.5-16.2,15.6C26.1,85.1,22,89.1,18.9,92z M60,50.4l-7.2,0.1l4.3-4.7L60,50.4z M52.4,48.7l1.7-6.7c0,0,0,0,0,0
	l2.3-0.7c0.2,0,0.8,0,1.5,0c0.5,0,0.8,0,1.2,0L52.4,48.7z M59.4,32.5l-13.1-8l3.5-8.2l6.7,6.5c0.2,0.2,0.5,0.2,0.7,0.2
	c0,0,0.7-0.2,1.6-0.5L59.4,32.5z M66.1,26.5l-1-6.1l3.5-0.4L66.1,26.5z M69,18.6l-4,0.4c0-1.2-0.3-3.4-0.9-7.6l4.9,3.6V18.6z"/>
</svg>
