  0
SECTION
  2
HEADER
  9
$ACADVER
  1
AC1024
  9
$ACADMAINTVER
 70
     6
  9
$DWGCODEPAGE
  3
UNDEFINED
  9
$INSBASE
 10
0.0
 20
0.0
 30
0.0
  9
$EXTMIN
 10
1.000000000000000E+20
 20
1.000000000000000E+20
 30
1.000000000000000E+20
  9
$EXTMAX
 10
-1.000000000000000E+20
 20
-1.000000000000000E+20
 30
-1.000000000000000E+20
  9
$LIMMIN
 10
0.0
 20
0.0
  9
$LIMMAX
 10
12.0
 20
9.0
  9
$ORTHOMODE
 70
     0
  9
$REGENMODE
 70
     1
  9
$FILLMODE
 70
     1
  9
$QTEXTMODE
 70
     0
  9
$MIRRTEXT
 70
     1
  9
$LTSCALE
 40
1.0
  9
$ATTMODE
 70
     1
  9
$TEXTSIZE
 40
0.2
  9
$TRACEWID
 40
0.05
  9
$TEXTSTYLE
  7
Standard
  9
$CLAYER
  8
0
  9
$CELTYPE
  6
ByLayer
  9
$CECOLOR
 62
   256
  9
$CELTSCALE
 40
1.0
  9
$DISPSILH
 70
     0
  9
$DIMSCALE
 40
1.0
  9
$DIMASZ
 40
0.18
  9
$DIMEXO
 40
0.0625
  9
$DIMDLI
 40
0.38
  9
$DIMRND
 40
0.0
  9
$DIMDLE
 40
0.0
  9
$DIMEXE
 40
0.18
  9
$DIMTP
 40
0.0
  9
$DIMTM
 40
0.0
  9
$DIMTXT
 40
0.18
  9
$DIMCEN
 40
0.09
  9
$DIMTSZ
 40
0.0
  9
$DIMTOL
 70
     0
  9
$DIMLIM
 70
     0
  9
$DIMTIH
 70
     1
  9
$DIMTOH
 70
     1
  9
$DIMSE1
 70
     0
  9
$DIMSE2
 70
     0
  9
$DIMTAD
 70
     0
  9
$DIMZIN
 70
     0
  9
$DIMBLK
  1

  9
$DIMASO
 70
     1
  9
$DIMSHO
 70
     1
  9
$DIMPOST
  1

  9
$DIMAPOST
  1

  9
$DIMALT
 70
     0
  9
$DIMALTD
 70
     2
  9
$DIMALTF
 40
25.4
  9
$DIMLFAC
 40
1.0
  9
$DIMTOFL
 70
     0
  9
$DIMTVP
 40
0.0
  9
$DIMTIX
 70
     0
  9
$DIMSOXD
 70
     0
  9
$DIMSAH
 70
     0
  9
$DIMBLK1
  1

  9
$DIMBLK2
  1

  9
$DIMSTYLE
  2
Standard
  9
$DIMCLRD
 70
     0
  9
$DIMCLRE
 70
     0
  9
$DIMCLRT
 70
     0
  9
$DIMTFAC
 40
1.0
  9
$DIMGAP
 40
0.09
  9
$DIMJUST
 70
     0
  9
$DIMSD1
 70
     0
  9
$DIMSD2
 70
     0
  9
$DIMTOLJ
 70
     1
  9
$DIMTZIN
 70
     0
  9
$DIMALTZ
 70
     0
  9
$DIMALTTZ
 70
     0
  9
$DIMUPT
 70
     0
  9
$DIMDEC
 70
     4
  9
$DIMTDEC
 70
     4
  9
$DIMALTU
 70
     2
  9
$DIMALTTD
 70
     2
  9
$DIMTXSTY
  7
Standard
  9
$DIMAUNIT
 70
     0
  9
$DIMADEC
 70
     0
  9
$DIMALTRND
 40
0.0
  9
$DIMAZIN
 70
     0
  9
$DIMDSEP
 70
    46
  9
$DIMATFIT
 70
     3
  9
$DIMFRAC
 70
     0
  9
$DIMLDRBLK
  1

  9
$DIMLUNIT
 70
     2
  9
$DIMLWD
 70
    -2
  9
$DIMLWE
 70
    -2
  9
$DIMTMOVE
 70
     0
  9
$DIMFXL
 40
1.0
  9
$DIMFXLON
 70
     0
  9
$DIMJOGANG
 40
0.7853981633974483
  9
$DIMTFILL
 70
     0
  9
$DIMTFILLCLR
 70
     0
  9
$DIMARCSYM
 70
     0
  9
$DIMLTYPE
  6

  9
$DIMLTEX1
  6

  9
$DIMLTEX2
  6

  9
$DIMTXTDIRECTION
 70
     0
  9
$LUNITS
 70
     2
  9
$LUPREC
 70
     4
  9
$SKETCHINC
 40
0.1
  9
$FILLETRAD
 40
0.5
  9
$AUNITS
 70
     0
  9
$AUPREC
 70
     0
  9
$MENU
  1
.
  9
$ELEVATION
 40
0.0
  9
$PELEVATION
 40
0.0
  9
$THICKNESS
 40
0.0
  9
$LIMCHECK
 70
     0
  9
$CHAMFERA
 40
0.5
  9
$CHAMFERB
 40
0.5
  9
$CHAMFERC
 40
1.0
  9
$CHAMFERD
 40
0.0
  9
$SKPOLY
 70
     0
  9
$TDCREATE
 40
2457525.605185173
  9
$TDUCREATE
 40
2457525.813518519
  9
$TDUPDATE
 40
2457525.605185173
  9
$TDUUPDATE
 40
2457525.813518519
  9
$TDINDWG
 40
0.0000000116
  9
$TDUSRTIMER
 40
0.0000000116
  9
$USRTIMER
 70
     1
  9
$ANGBASE
 50
0.0
  9
$ANGDIR
 70
     0
  9
$PDMODE
 70
     0
  9
$PDSIZE
 40
0.0
  9
$PLINEWID
 40
0.0
  9
$SPLFRAME
 70
     0
  9
$SPLINETYPE
 70
     6
  9
$SPLINESEGS
 70
     8
  9
$HANDSEED
  5
63
  9
$SURFTAB1
 70
     6
  9
$SURFTAB2
 70
     6
  9
$SURFTYPE
 70
     6
  9
$SURFU
 70
     6
  9
$SURFV
 70
     6
  9
$UCSBASE
  2

  9
$UCSNAME
  2

  9
$UCSORG
 10
0.0
 20
0.0
 30
0.0
  9
$UCSXDIR
 10
1.0
 20
0.0
 30
0.0
  9
$UCSYDIR
 10
0.0
 20
1.0
 30
0.0
  9
$UCSORTHOREF
  2

  9
$UCSORTHOVIEW
 70
     0
  9
$UCSORGTOP
 10
0.0
 20
0.0
 30
0.0
  9
$UCSORGBOTTOM
 10
0.0
 20
0.0
 30
0.0
  9
$UCSORGLEFT
 10
0.0
 20
0.0
 30
0.0
  9
$UCSORGRIGHT
 10
0.0
 20
0.0
 30
0.0
  9
$UCSORGFRONT
 10
0.0
 20
0.0
 30
0.0
  9
$UCSORGBACK
 10
0.0
 20
0.0
 30
0.0
  9
$PUCSBASE
  2

  9
$PUCSNAME
  2

  9
$PUCSORG
 10
0.0
 20
0.0
 30
0.0
  9
$PUCSXDIR
 10
1.0
 20
0.0
 30
0.0
  9
$PUCSYDIR
 10
0.0
 20
1.0
 30
0.0
  9
$PUCSORTHOREF
  2

  9
$PUCSORTHOVIEW
 70
     0
  9
$PUCSORGTOP
 10
0.0
 20
0.0
 30
0.0
  9
$PUCSORGBOTTOM
 10
0.0
 20
0.0
 30
0.0
  9
$PUCSORGLEFT
 10
0.0
 20
0.0
 30
0.0
  9
$PUCSORGRIGHT
 10
0.0
 20
0.0
 30
0.0
  9
$PUCSORGFRONT
 10
0.0
 20
0.0
 30
0.0
  9
$PUCSORGBACK
 10
0.0
 20
0.0
 30
0.0
  9
$USERI1
 70
     0
  9
$USERI2
 70
     0
  9
$USERI3
 70
     0
  9
$USERI4
 70
     0
  9
$USERI5
 70
     0
  9
$USERR1
 40
0.0
  9
$USERR2
 40
0.0
  9
$USERR3
 40
0.0
  9
$USERR4
 40
0.0
  9
$USERR5
 40
0.0
  9
$WORLDVIEW
 70
     1
  9
$SHADEDGE
 70
     3
  9
$SHADEDIF
 70
    70
  9
$TILEMODE
 70
     1
  9
$MAXACTVP
 70
    64
  9
$PINSBASE
 10
0.0
 20
0.0
 30
0.0
  9
$PLIMCHECK
 70
     0
  9
$PEXTMIN
 10
1.000000000000000E+20
 20
1.000000000000000E+20
 30
1.000000000000000E+20
  9
$PEXTMAX
 10
-1.000000000000000E+20
 20
-1.000000000000000E+20
 30
-1.000000000000000E+20
  9
$PLIMMIN
 10
0.0
 20
0.0
  9
$PLIMMAX
 10
12.0
 20
9.0
  9
$UNITMODE
 70
     0
  9
$VISRETAIN
 70
     1
  9
$PLINEGEN
 70
     0
  9
$PSLTSCALE
 70
     1
  9
$TREEDEPTH
 70
  3020
  9
$CMLSTYLE
  2
Standard
  9
$CMLJUST
 70
     0
  9
$CMLSCALE
 40
1.0
  9
$PROXYGRAPHICS
 70
     1
  9
$MEASUREMENT
 70
     0
  9
$CELWEIGHT
370
    -1
  9
$ENDCAPS
280
     0
  9
$JOINSTYLE
280
     0
  9
$LWDISPLAY
290
     1
  9
$INSUNITS
 70
     1
  9
$HYPERLINKBASE
  1

  9
$STYLESHEET
  1

  9
$XEDIT
290
     1
  9
$CEPSNTYPE
380
     0
  9
$PSTYLEMODE
290
     1
  9
$FINGERPRINTGUID
  2
{B97590DC-8229-6FCA-DC1A-BC84716C57AA}
  9
$VERSIONGUID
  2
{FAEB1C32-E019-11D5-929B-00C0DF256EC4}
  9
$EXTNAMES
290
     1
  9
$PSVPSCALE
 40
0.0
  9
$OLESTARTUP
290
     0
  9
$SORTENTS
280
   127
  9
$INDEXCTL
280
     0
  9
$HIDETEXT
280
     1
  9
$XCLIPFRAME
280
     2
  9
$HALOGAP
280
     0
  9
$OBSCOLOR
 70
   257
  9
$OBSLTYPE
280
     0
  9
$INTERSECTIONDISPLAY
280
     0
  9
$INTERSECTIONCOLOR
 70
   257
  9
$DIMASSOC
280
     2
  9
$PROJECTNAME
  1

  9
$CAMERADISPLAY
290
     0
  9
$LENSLENGTH
 40
50.0
  9
$CAMERAHEIGHT
 40
0.0
  9
$STEPSPERSEC
 40
2.0
  9
$STEPSIZE
 40
6.0
  9
$3DDWFPREC
 40
2.0
  9
$PSOLWIDTH
 40
0.25
  9
$PSOLHEIGHT
 40
4.0
  9
$LOFTANG1
 40
1.570796326794897
  9
$LOFTANG2
 40
1.570796326794897
  9
$LOFTMAG1
 40
0.0
  9
$LOFTMAG2
 40
0.0
  9
$LOFTPARAM
 70
     7
  9
$LOFTNORMALS
280
     1
  9
$LATITUDE
 40
37.795
  9
$LONGITUDE
 40
-122.394
  9
$NORTHDIRECTION
 40
0.0
  9
$TIMEZONE
 70
 -8000
  9
$LIGHTGLYPHDISPLAY
280
     1
  9
$TILEMODELIGHTSYNCH
280
     1
  9
$CMATERIAL
347
3C
  9
$SOLIDHIST
280
     1
  9
$SHOWHIST
280
     1
  9
$DWFFRAME
280
     2
  9
$DGNFRAME
280
     2
  9
$REALWORLDSCALE
290
     1
  9
$INTERFERECOLOR
 62
   256
  9
$CSHADOW
280
     0
  9
$SHADOWPLANELOCATION
 40
0.0
  0
ENDSEC
  0
SECTION
  2
CLASSES
  0
CLASS
  1
ACDBDICTIONARYWDFLT
  2
AcDbDictionaryWithDefault
  3
ObjectDBX Classes
 90
        0
 91
        4
280
     0
281
     0
  0
CLASS
  1
VISUALSTYLE
  2
AcDbVisualStyle
  3
ObjectDBX Classes
 90
     4095
 91
        4
280
     0
281
     0
  0
CLASS
  1
MATERIAL
  2
AcDbMaterial
  3
ObjectDBX Classes
 90
     1153
 91
        4
280
     0
281
     0
  0
CLASS
  1
SUN
  2
AcDbSun
  3
SCENEOE
 90
     1024
 91
        4
280
     0
281
     0
  0
ENDSEC
  0
SECTION
  2
TABLES
  0
TABLE
  2
VPORT
  5
8
330
0
100
AcDbSymbolTable
 70
     1
  0
VPORT
  5
29
330
8
100
AcDbSymbolTableRecord
100
AcDbViewportTableRecord
  2
*Active
 70
     0
 10
0.0
 20
0.0
 11
1.0
 21
1.0
 12
0.0
 22
0.0
 13
0.0
 23
0.0
 14
0.5
 24
0.5
 15
0.5
 25
0.5
 16
0.0
 26
0.0
 36
1.0
 17
50.0
 27
62.5
 37
0.0
 40
125.0
 41
0.8
 42
50.0
 43
0.0
 44
0.0
 50
0.0
 51
0.0
 71
     0
 72
   100
 73
     1
 74
     3
 75
     0
 76
     0
 77
     0
 78
     0
281
     0
 65
     1
110
0.0
120
0.0
130
0.0
111
1.0
121
0.0
131
0.0
112
0.0
122
1.0
132
0.0
 79
     0
146
0.0
 60
     3
 61
     5
292
     1
282
     1
141
0.0
142
0.0
 63
   250
361
3F
  0
ENDTAB
  0
TABLE
  2
LTYPE
  5
5
330
0
100
AcDbSymbolTable
 70
     1
  0
LTYPE
  5
14
330
5
100
AcDbSymbolTableRecord
100
AcDbLinetypeTableRecord
  2
ByBlock
 70
     0
  3

 72
    65
 73
     0
 40
0.0
  0
LTYPE
  5
15
330
5
100
AcDbSymbolTableRecord
100
AcDbLinetypeTableRecord
  2
ByLayer
 70
     0
  3

 72
    65
 73
     0
 40
0.0
  0
LTYPE
  5
16
330
5
100
AcDbSymbolTableRecord
100
AcDbLinetypeTableRecord
  2
Continuous
 70
     0
  3
Solid line
 72
    65
 73
     0
 40
0.0
  0
ENDTAB
  0
TABLE
  2
LAYER
  5
2
330
0
100
AcDbSymbolTable
 70
     2
  0
LAYER
  5
10
330
2
100
AcDbSymbolTableRecord
100
AcDbLayerTableRecord
  2
0
 70
     0
 62
     7
  6
Continuous
370
    -3
390
F
347
3E
  0
LAYER
  5
40
330
2
100
AcDbSymbolTableRecord
100
AcDbLayerTableRecord
  2
Layer 1
 70
     0
 62
     7
  6
Continuous
370
    -3
390
F
347
3E
  0
ENDTAB
  0
TABLE
  2
STYLE
  5
3
330
0
100
AcDbSymbolTable
 70
     1
  0
STYLE
  5
11
330
3
100
AcDbSymbolTableRecord
100
AcDbTextStyleTableRecord
  2
Standard
 70
     0
 40
0.0
 41
1.0
 50
0.0
 71
     0
 42
0.2
  3
txt
  4

  0
ENDTAB
  0
TABLE
  2
VIEW
  5
6
330
0
100
AcDbSymbolTable
 70
     0
  0
ENDTAB
  0
TABLE
  2
UCS
  5
7
330
0
100
AcDbSymbolTable
 70
     0
  0
ENDTAB
  0
TABLE
  2
APPID
  5
9
330
0
100
AcDbSymbolTable
 70
     1
  0
APPID
  5
12
330
9
100
AcDbSymbolTableRecord
100
AcDbRegAppTableRecord
  2
ACAD
 70
     0
  0
ENDTAB
  0
TABLE
  2
DIMSTYLE
  5
A
330
0
100
AcDbSymbolTable
 70
     1
100
AcDbDimStyleTable
  0
DIMSTYLE
105
27
330
A
100
AcDbSymbolTableRecord
100
AcDbDimStyleTableRecord
  2
Standard
 70
     0
178
     0
340
11
  0
ENDTAB
  0
TABLE
  2
BLOCK_RECORD
  5
1
330
0
100
AcDbSymbolTable
 70
     1
  0
BLOCK_RECORD
  5
1F
330
1
100
AcDbSymbolTableRecord
100
AcDbBlockTableRecord
  2
*Model_Space
340
22
 70
     0
280
     1
281
     0
  0
BLOCK_RECORD
  5
1B
330
1
100
AcDbSymbolTableRecord
100
AcDbBlockTableRecord
  2
*Paper_Space
340
1E
 70
     0
280
     1
281
     0
  0
BLOCK_RECORD
  5
23
330
1
100
AcDbSymbolTableRecord
100
AcDbBlockTableRecord
  2
*Paper_Space0
340
26
 70
     0
280
     1
281
     0
  0
ENDTAB
  0
ENDSEC
  0
SECTION
  2
BLOCKS
  0
BLOCK
  5
20
330
1F
100
AcDbEntity
  8
0
100
AcDbBlockBegin
  2
*Model_Space
 70
     0
 10
0.0
 20
0.0
 30
0.0
  3
*Model_Space
  1

  0
ENDBLK
  5
21
330
1F
100
AcDbEntity
  8
0
100
AcDbBlockEnd
  0
BLOCK
  5
1C
330
1B
100
AcDbEntity
 67
     1
  8
0
100
AcDbBlockBegin
  2
*Paper_Space
 70
     0
 10
0.0
 20
0.0
 30
0.0
  3
*Paper_Space
  1

  0
ENDBLK
  5
1D
330
1B
100
AcDbEntity
 67
     1
  8
0
100
AcDbBlockEnd
  0
BLOCK
  5
24
330
23
100
AcDbEntity
  8
0
100
AcDbBlockBegin
  2
*Paper_Space0
 70
     0
 10
0.0
 20
0.0
 30
0.0
  3
*Paper_Space0
  1

  0
ENDBLK
  5
25
330
23
100
AcDbEntity
  8
0
100
AcDbBlockEnd
  0
ENDSEC
  0
SECTION
  2
ENTITIES
  0
SPLINE
  5
41
330
1F
100
AcDbEntity
  8
Layer 1
370
     0
100
AcDbSpline
210
0.0
220
0.0
230
1.0
 70
    11
 71
     3
 72
   134
 73
   130
 74
     0
 42
0.0000000001
 43
0.0000000001
 12
1.0
 22
0.0
 32
0.0
 13
1.0
 23
0.0
 33
0.0
 40
0.0
 40
0.0
 40
0.0
 40
0.0
 40
1.0
 40
1.0
 40
1.0
 40
2.0
 40
2.0
 40
2.0
 40
3.0
 40
3.0
 40
3.0
 40
4.0
 40
4.0
 40
4.0
 40
5.0
 40
5.0
 40
5.0
 40
6.0
 40
6.0
 40
6.0
 40
7.0
 40
7.0
 40
7.0
 40
8.0
 40
8.0
 40
8.0
 40
9.0
 40
9.0
 40
9.0
 40
10.0
 40
10.0
 40
10.0
 40
11.0
 40
11.0
 40
11.0
 40
12.0
 40
12.0
 40
12.0
 40
13.0
 40
13.0
 40
13.0
 40
14.0
 40
14.0
 40
14.0
 40
15.0
 40
15.0
 40
15.0
 40
16.0
 40
16.0
 40
16.0
 40
17.0
 40
17.0
 40
17.0
 40
18.0
 40
18.0
 40
18.0
 40
19.0
 40
19.0
 40
19.0
 40
20.0
 40
20.0
 40
20.0
 40
21.0
 40
21.0
 40
21.0
 40
22.0
 40
22.0
 40
22.0
 40
23.0
 40
23.0
 40
23.0
 40
24.0
 40
24.0
 40
24.0
 40
25.0
 40
25.0
 40
25.0
 40
26.0
 40
26.0
 40
26.0
 40
27.0
 40
27.0
 40
27.0
 40
28.0
 40
28.0
 40
28.0
 40
29.0
 40
29.0
 40
29.0
 40
30.0
 40
30.0
 40
30.0
 40
31.0
 40
31.0
 40
31.0
 40
32.0
 40
32.0
 40
32.0
 40
33.0
 40
33.0
 40
33.0
 40
34.0
 40
34.0
 40
34.0
 40
35.0
 40
35.0
 40
35.0
 40
36.0
 40
36.0
 40
36.0
 40
37.0
 40
37.0
 40
37.0
 40
38.0
 40
38.0
 40
38.0
 40
39.0
 40
39.0
 40
39.0
 40
40.0
 40
40.0
 40
40.0
 40
41.0
 40
41.0
 40
41.0
 40
42.0
 40
42.0
 40
42.0
 40
43.0
 40
43.0
 40
43.0
 40
43.0
 10
70.16559422490536
 20
110.8067625591193
 30
0.0
 10
70.16559422490536
 20
110.8067625591193
 30
0.0
 10
63.70160496709286
 20
115.6207884380256
 30
0.0
 10
63.70160496709286
 20
115.6207884380256
 30
0.0
 10
63.56961644170224
 20
115.7498167583381
 30
0.0
 10
63.39859593388974
 20
115.8277586528693
 30
0.0
 10
63.21961033818661
 20
115.8027952739631
 30
0.0
 10
63.21961033818661
 20
115.8027952739631
 30
0.0
 10
51.71961033818661
 20
115.7238157817756
 30
0.0
 10
51.71961033818661
 20
115.7238157817756
 30
0.0
 10
51.43860447881161
 20
115.7218016216193
 30
0.0
 10
51.18460667607724
 20
115.5527952739631
 30
0.0
 10
51.07361424443661
 20
115.2938231059943
 30
0.0
 10
51.07361424443661
 20
115.2938231059943
 30
0.0
 10
48.89060032842099
 20
110.1978148052131
 30
0.0
 10
48.89060032842099
 20
110.1978148052131
 30
0.0
 10
48.88559544560849
 20
110.1878050395881
 30
0.0
 10
48.88159764287411
 20
110.1777952739631
 30
0.0
 10
48.87659276006161
 20
110.1688231059943
 30
0.0
 10
48.87659276006161
 20
110.1688231059943
 30
0.0
 10
44.79758275029599
 20
100.6538084575568
 30
0.0
 10
44.79758275029599
 20
100.6538084575568
 30
0.0
 10
44.79758275029599
 20
100.6538084575568
 30
0.0
 10
11.46957982060849
 20
71.0657957622443
 30
0.0
 10
11.46957982060849
 20
71.0657957622443
 30
0.0
 10
11.21957982060849
 20
70.8427733013068
 30
0.0
 10
11.15857518193661
 20
70.4768065044318
 30
0.0
 10
11.32358372685849
 20
70.1867674419318
 30
0.0
 10
11.4515897083038
 20
69.9587400981818
 30
0.0
 10
11.68958104131161
 20
69.8267820903693
 30
0.0
 10
11.93958104131161
 20
69.8267820903693
 30
0.0
 10
12.00958836553036
 20
69.8267820903693
 30
0.0
 10
12.08258641240536
 20
69.8377684184943
 30
0.0
 10
12.15158665654599
 20
69.85980210990056
 30
0.0
 10
12.15158665654599
 20
69.85980210990056
 30
0.0
 10
38.35657322881161
 20
78.08782945365056
 30
0.0
 10
38.35657322881161
 20
78.08782945365056
 30
0.0
 10
31.2285672473663
 20
63.36480699271306
 30
0.0
 10
14.62657750127255
 20
29.19183335990056
 30
0.0
 10
13.73557103154599
 20
27.90985093802556
 30
0.0
 10
13.73557103154599
 20
27.90985093802556
 30
0.0
 10
13.75157750127255
 20
27.89685044974431
 30
0.0
 10
13.75157750127255
 20
27.89685044974431
 30
0.0
 10
13.36256993291317
 20
27.43084703177556
 30
0.0
 10
13.47057164189755
 20
27.30786119193181
 30
0.0
 10
13.74657261846005
 20
26.99383531302556
 30
0.0
 10
13.88558018681942
 20
26.83685289115056
 30
0.0
 10
14.08157933232724
 20
26.75585923880681
 30
0.0
 10
14.27857029912411
 20
26.75585923880681
 30
0.0
 10
14.4365750598663
 20
26.75585923880681
 30
0.0
 10
14.59656346318661
 20
26.80786119193181
 30
0.0
 10
14.72757542607724
 20
26.91284166068181
 30
0.0
 10
14.7435818958038
 20
26.92486558646306
 30
0.0
 10
14.76857579228817
 20
26.95587144583806
 30
0.0
 10
14.80158055303036
 20
27.00585923880681
 30
0.0
 10
14.80158055303036
 20
27.00585923880681
 30
0.0
 10
14.8115750598663
 20
26.99584947318181
 30
0.0
 10
14.8115750598663
 20
26.99584947318181
 30
0.0
 10
15.39557469365536
 20
27.62683091849431
 30
0.0
 10
36.61658299443661
 20
48.04882798880681
 30
0.0
 10
47.75458348271786
 20
58.75982652396306
 30
0.0
 10
47.83957493779599
 20
58.84082017630681
 30
0.0
 10
47.89258397099911
 20
58.94580064505681
 30
0.0
 10
47.92758763310849
 20
59.05584703177556
 30
0.0
 10
47.93259251592099
 20
59.06982408255681
 30
0.0
 10
47.94559300420224
 20
59.07781968802556
 30
0.0
 10
47.94858372685849
 20
59.09185777396306
 30
0.0
 10
47.94858372685849
 20
59.09185777396306
 30
0.0
 10
51.59357274053036
 20
73.11883531302556
 30
0.0
 10
51.59357274053036
 20
73.11883531302556
 30
0.0
 10
51.59357274053036
 20
73.11883531302556
 30
0.0
 10
61.23758519170224
 20
73.2298582622443
 30
0.0
 10
61.23758519170224
 20
73.2298582622443
 30
0.0
 10
61.49457371709286
 20
73.23284898490056
 30
0.0
 10
61.72958958623349
 20
73.3758543559943
 30
0.0
 10
61.85257542607724
 20
73.6008299419318
 30
0.0
 10
61.97458470342099
 20
73.82684312552556
 30
0.0
 10
61.96558201787411
 20
74.1008299419318
 30
0.0
 10
61.82858860967099
 20
74.3188475200568
 30
0.0
 10
61.82858860967099
 20
74.3188475200568
 30
0.0
 10
57.99359715459286
 20
80.36785875052556
 30
0.0
 10
57.99359715459286
 20
80.36785875052556
 30
0.0
 10
57.99359715459286
 20
80.36785875052556
 30
0.0
 10
61.38858616826474
 20
84.1148680278693
 30
0.0
 10
61.38858616826474
 20
84.1148680278693
 30
0.0
 10
61.53659642217099
 20
84.21588121146306
 30
0.0
 10
61.60858738896786
 20
84.3428953716193
 30
0.0
 10
61.66159642217099
 20
84.49786363333806
 30
0.0
 10
61.66260350224911
 20
84.50189195365056
 30
0.0
 10
61.66458714482724
 20
84.5048826763068
 30
0.0
 10
61.66559422490536
 20
84.50884996146306
 30
0.0
 10
61.66660130498349
 20
84.5108641216193
 30
0.0
 10
61.66660130498349
 20
84.5118406841193
 30
0.0
 10
61.66760838506161
 20
84.51385484427556
 30
0.0
 10
61.72861302373349
 20
84.6928709575568
 30
0.0
 10
61.83859837529599
 20
85.02886949271306
 30
0.0
 10
60.87961400029599
 20
91.26788316458806
 30
0.0
 10
60.87961400029599
 20
91.26788316458806
 30
0.0
 10
60.20560276982724
 20
103.0518797466193
 30
0.0
 10
60.20560276982724
 20
103.0518797466193
 30
0.0
 10
61.47861302373349
 20
103.4768675395881
 30
0.0
 10
62.86261570928036
 20
103.9378660747443
 30
0.0
 10
63.71060765263974
 20
104.2199095317756
 30
0.0
 10
63.71060765263974
 20
104.2199095317756
 30
0.0
 10
65.04862034795224
 20
95.7178953716193
 30
0.0
 10
65.04862034795224
 20
95.7178953716193
 30
0.0
 10
65.09860814092099
 20
95.40386949271306
 30
0.0
 10
65.35162938115536
 20
95.1599119731818
 30
0.0
 10
65.66760838506161
 20
95.1239012309943
 30
0.0
 10
65.69461644170224
 20
95.12091050833806
 30
0.0
 10
65.72260106084286
 20
95.1188963481818
 30
0.0
 10
65.74860203740536
 20
95.1188963481818
 30
0.0
 10
66.03461277959286
 20
95.1188963481818
 30
0.0
 10
66.29660618779599
 20
95.29290757865056
 30
0.0
 10
66.40561497685849
 20
95.5618895122443
 30
0.0
 10
66.40561497685849
 20
95.5618895122443
 30
0.0
 10
70.39462864873349
 20
105.4318846294318
 30
0.0
 10
70.39462864873349
 20
105.4318846294318
 30
0.0
 10
70.41162693974911
 20
105.4708860942756
 30
0.0
 10
70.42462742803036
 20
105.5119017192756
 30
0.0
 10
70.43363011357724
 20
105.5548704692756
 30
0.0
 10
70.44663060185849
 20
105.6118773052131
 30
0.0
 10
70.45264256474911
 20
105.6678465434943
 30
0.0
 10
70.45163548467099
 20
105.7248533794318
 30
0.0
 10
70.45163548467099
 20
105.7248533794318
 30
0.0
 10
70.45163548467099
 20
110.2378538677131
 30
0.0
 10
70.45163548467099
 20
110.2378538677131
 30
0.0
 10
70.45261204717099
 20
110.4617918559943
 30
0.0
 10
70.34558690068661
 20
110.6727903911506
 30
0.0
 10
70.16559422490536
 20
110.8067625591193
 30
0.0
  0
SPLINE
  5
42
330
1F
100
AcDbEntity
  8
Layer 1
370
     0
100
AcDbSpline
210
0.0
220
0.0
230
1.0
 70
    11
 71
     3
 72
    20
 73
    16
 74
     0
 42
0.0000000001
 43
0.0000000001
 12
1.0
 22
0.0
 32
0.0
 13
1.0
 23
0.0
 33
0.0
 40
0.0
 40
0.0
 40
0.0
 40
0.0
 40
1.0
 40
1.0
 40
1.0
 40
2.0
 40
2.0
 40
2.0
 40
3.0
 40
3.0
 40
3.0
 40
4.0
 40
4.0
 40
4.0
 40
5.0
 40
5.0
 40
5.0
 40
5.0
 10
52.19360936162411
 20
114.3097532817756
 30
0.0
 10
52.19360936162411
 20
114.3097532817756
 30
0.0
 10
62.61060154912411
 20
114.3807371684943
 30
0.0
 10
62.61060154912411
 20
114.3807371684943
 30
0.0
 10
63.12460911748349
 20
110.7407225200568
 30
0.0
 10
63.59360325810849
 20
106.8947142192756
 30
0.0
 10
63.63059056279599
 20
105.6867674419318
 30
0.0
 10
62.32059300420224
 20
105.2497557231818
 30
0.0
 10
58.45358860967099
 20
103.9617918559943
 30
0.0
 10
57.18860447881161
 20
103.5407713481818
 30
0.0
 10
57.18860447881161
 20
103.5407713481818
 30
0.0
 10
50.38059056279599
 20
110.0767820903693
 30
0.0
 10
50.38059056279599
 20
110.0767820903693
 30
0.0
 10
50.38059056279599
 20
110.0767820903693
 30
0.0
 10
52.19360936162411
 20
114.3097532817756
 30
0.0
 10
52.19360936162411
 20
114.3097532817756
 30
0.0
  0
SPLINE
  5
43
330
1F
100
AcDbEntity
  8
Layer 1
370
     0
100
AcDbSpline
210
0.0
220
0.0
230
1.0
 70
    11
 71
     3
 72
    20
 73
    16
 74
     0
 42
0.0000000001
 43
0.0000000001
 12
1.0
 22
0.0
 32
0.0
 13
1.0
 23
0.0
 33
0.0
 40
0.0
 40
0.0
 40
0.0
 40
0.0
 40
1.0
 40
1.0
 40
1.0
 40
2.0
 40
2.0
 40
2.0
 40
3.0
 40
3.0
 40
3.0
 40
4.0
 40
4.0
 40
4.0
 40
5.0
 40
5.0
 40
5.0
 40
5.0
 10
59.52460301396786
 20
90.7587889263068
 30
0.0
 10
59.85761082646786
 20
88.57281480521306
 30
0.0
 10
60.17960179326474
 20
86.24676500052556
 30
0.0
 10
60.27258885381161
 20
85.26776109427556
 30
0.0
 10
59.91660130498349
 20
85.23175035208806
 30
0.0
 10
59.24057591435849
 20
85.1927488872443
 30
0.0
 10
57.98358738896786
 20
85.1927488872443
 30
0.0
 10
57.50458348271786
 20
85.1927488872443
 30
0.0
 10
57.07758152959286
 20
85.1987303325568
 30
0.0
 10
56.79358494756161
 20
85.2037352153693
 30
0.0
 10
56.79358494756161
 20
85.2037352153693
 30
0.0
 10
47.92258275029599
 20
97.8497313091193
 30
0.0
 10
47.92258275029599
 20
97.8497313091193
 30
0.0
 10
47.92258275029599
 20
97.8497313091193
 30
0.0
 10
59.52460301396786
 20
90.7587889263068
 30
0.0
 10
59.52460301396786
 20
90.7587889263068
 30
0.0
  0
POLYLINE
  5
44
330
1F
100
AcDbEntity
  8
Layer 1
370
     0
100
AcDb2dPolyline
 66
     1
 10
0.0
 20
0.0
 30
0.0
  0
VERTEX
  5
45
330
44
100
AcDbEntity
  8
Layer 1
370
     0
100
AcDbVertex
100
AcDb2dVertex
 10
45.26260960576474
 20
99.1707762309943
 30
0.0
  0
VERTEX
  5
46
330
44
100
AcDbEntity
  8
Layer 1
370
     0
100
AcDbVertex
100
AcDb2dVertex
 10
55.28360569951474
 20
84.88775621146306
 30
0.0
  0
VERTEX
  5
47
330
44
100
AcDbEntity
  8
Layer 1
370
     0
100
AcDbVertex
100
AcDb2dVertex
 10
14.88760960576474
 20
72.2037352153693
 30
0.0
  0
VERTEX
  5
48
330
44
100
AcDbEntity
  8
Layer 1
370
     0
100
AcDbVertex
100
AcDb2dVertex
 10
45.26260960576474
 20
99.1707762309943
 30
0.0
  0
SEQEND
  5
49
330
44
100
AcDbEntity
  8
Layer 1
370
     0
  0
POLYLINE
  5
4A
330
1F
100
AcDbEntity
  8
Layer 1
370
     0
100
AcDb2dPolyline
 66
     1
 10
0.0
 20
0.0
 30
0.0
  0
VERTEX
  5
4B
330
4A
100
AcDbEntity
  8
Layer 1
370
     0
100
AcDbVertex
100
AcDb2dVertex
 10
47.13361180303036
 20
61.58477769583806
 30
0.0
  0
VERTEX
  5
4C
330
4A
100
AcDbEntity
  8
Layer 1
370
     0
100
AcDbVertex
100
AcDb2dVertex
 10
40.52362645146786
 20
78.7687986919318
 30
0.0
  0
VERTEX
  5
4D
330
4A
100
AcDbEntity
  8
Layer 1
370
     0
100
AcDbVertex
100
AcDb2dVertex
 10
52.58362401006161
 20
82.5548094341193
 30
0.0
  0
VERTEX
  5
4E
330
4A
100
AcDbEntity
  8
Layer 1
370
     0
100
AcDbVertex
100
AcDb2dVertex
 10
47.13361180303036
 20
61.58477769583806
 30
0.0
  0
SEQEND
  5
4F
330
4A
100
AcDbEntity
  8
Layer 1
370
     0
  0
SPLINE
  5
50
330
1F
100
AcDbEntity
  8
Layer 1
370
     0
100
AcDbSpline
210
0.0
220
0.0
230
1.0
 70
    11
 71
     3
 72
    20
 73
    16
 74
     0
 42
0.0000000001
 43
0.0000000001
 12
1.0
 22
0.0
 32
0.0
 13
1.0
 23
0.0
 33
0.0
 40
0.0
 40
0.0
 40
0.0
 40
0.0
 40
1.0
 40
1.0
 40
1.0
 40
2.0
 40
2.0
 40
2.0
 40
3.0
 40
3.0
 40
3.0
 40
4.0
 40
4.0
 40
4.0
 40
5.0
 40
5.0
 40
5.0
 40
5.0
 10
18.92259800908505
 20
32.96276841849431
 30
0.0
 10
18.19660008428036
 20
32.26275621146306
 30
0.0
 10
17.52860081670224
 20
31.61676011771306
 30
0.0
 10
16.93160069463192
 20
31.03875718802556
 30
0.0
 10
20.41559422490536
 20
37.92675767630681
 30
0.0
 10
27.99559605596005
 20
53.42773423880681
 30
0.0
 10
39.56159031865536
 20
77.3227537700568
 30
0.0
 10
39.56159031865536
 20
77.3227537700568
 30
0.0
 10
46.43457615849911
 20
59.45477281302556
 30
0.0
 10
46.43457615849911
 20
59.45477281302556
 30
0.0
 10
44.83356297490536
 20
57.91674791068181
 30
0.0
 10
37.55457127568661
 20
50.91577134818181
 30
0.0
 10
30.26357090947567
 20
43.89477525443181
 30
0.0
 10
26.13759434697567
 20
39.92175279349431
 30
0.0
 10
22.01259434697567
 20
35.94775377005681
 30
0.0
 10
18.92259800908505
 20
32.96276841849431
 30
0.0
  0
POLYLINE
  5
51
330
1F
100
AcDbEntity
  8
Layer 1
370
     0
100
AcDb2dPolyline
 66
     1
 10
0.0
 20
0.0
 30
0.0
  0
VERTEX
  5
52
330
51
100
AcDbEntity
  8
Layer 1
370
     0
100
AcDbVertex
100
AcDb2dVertex
 10
59.95160496709286
 20
74.6337889263068
 30
0.0
  0
VERTEX
  5
53
330
51
100
AcDbEntity
  8
Layer 1
370
     0
100
AcDbVertex
100
AcDb2dVertex
 10
52.72559178349911
 20
74.5507811138068
 30
0.0
  0
VERTEX
  5
54
330
51
100
AcDbEntity
  8
Layer 1
370
     0
100
AcDbVertex
100
AcDb2dVertex
 10
57.00659764287411
 20
79.27777085990056
 30
0.0
  0
VERTEX
  5
55
330
51
100
AcDbEntity
  8
Layer 1
370
     0
100
AcDbVertex
100
AcDb2dVertex
 10
59.95160496709286
 20
74.6337889263068
 30
0.0
  0
SEQEND
  5
56
330
51
100
AcDbEntity
  8
Layer 1
370
     0
  0
SPLINE
  5
57
330
1F
100
AcDbEntity
  8
Layer 1
370
     0
100
AcDbSpline
210
0.0
220
0.0
230
1.0
 70
    11
 71
     3
 72
    23
 73
    19
 74
     0
 42
0.0000000001
 43
0.0000000001
 12
1.0
 22
0.0
 32
0.0
 13
1.0
 23
0.0
 33
0.0
 40
0.0
 40
0.0
 40
0.0
 40
0.0
 40
1.0
 40
1.0
 40
1.0
 40
2.0
 40
2.0
 40
2.0
 40
3.0
 40
3.0
 40
3.0
 40
4.0
 40
4.0
 40
4.0
 40
5.0
 40
5.0
 40
5.0
 40
6.0
 40
6.0
 40
6.0
 40
6.0
 10
52.43158543584286
 20
76.3367918559943
 30
0.0
 10
52.43158543584286
 20
76.3367918559943
 30
0.0
 10
54.17059910771786
 20
83.03179918021306
 30
0.0
 10
54.17059910771786
 20
83.03179918021306
 30
0.0
 10
54.17261326787411
 20
83.0388182231818
 30
0.0
 10
54.17059910771786
 20
83.04681382865056
 30
0.0
 10
54.17160618779599
 20
83.05279527396306
 30
0.0
 10
54.17160618779599
 20
83.05279527396306
 30
0.0
 10
56.51959813115536
 20
83.7897947856818
 30
0.0
 10
56.51959813115536
 20
83.7897947856818
 30
0.0
 10
56.75760472295224
 20
83.7838133403693
 30
0.0
 10
57.32660496709286
 20
83.77276597708806
 30
0.0
 10
57.98358738896786
 20
83.77276597708806
 30
0.0
 10
58.44058812138974
 20
83.77276597708806
 30
0.0
 10
58.83258641240536
 20
83.77777085990056
 30
0.0
 10
59.17960179326474
 20
83.7857664653693
 30
0.0
 10
59.17960179326474
 20
83.7857664653693
 30
0.0
 10
52.43158543584286
 20
76.3367918559943
 30
0.0
 10
52.43158543584286
 20
76.3367918559943
 30
0.0
  0
SPLINE
  5
58
330
1F
100
AcDbEntity
  8
Layer 1
370
     0
100
AcDbSpline
210
0.0
220
0.0
230
1.0
 70
    11
 71
     3
 72
    23
 73
    19
 74
     0
 42
0.0000000001
 43
0.0000000001
 12
1.0
 22
0.0
 32
0.0
 13
1.0
 23
0.0
 33
0.0
 40
0.0
 40
0.0
 40
0.0
 40
0.0
 40
1.0
 40
1.0
 40
1.0
 40
2.0
 40
2.0
 40
2.0
 40
3.0
 40
3.0
 40
3.0
 40
4.0
 40
4.0
 40
4.0
 40
5.0
 40
5.0
 40
5.0
 40
6.0
 40
6.0
 40
6.0
 40
6.0
 10
59.39060032842099
 20
92.50079332083806
 30
0.0
 10
59.39060032842099
 20
92.50079332083806
 30
0.0
 10
46.27960789678036
 20
100.5128172466193
 30
0.0
 10
46.27960789678036
 20
100.5128172466193
 30
0.0
 10
46.27960789678036
 20
100.5128172466193
 30
0.0
 10
49.78360569951474
 20
108.6838377544318
 30
0.0
 10
49.78360569951474
 20
108.6838377544318
 30
0.0
 10
49.78360569951474
 20
108.6838377544318
 30
0.0
 10
56.51459324834286
 20
102.2218626567756
 30
0.0
 10
56.51459324834286
 20
102.2218626567756
 30
0.0
 10
56.70560276982724
 20
102.0378416606818
 30
0.0
 10
56.98160374638974
 20
101.9778441020881
 30
0.0
 10
57.22958958623349
 20
102.0608519145881
 30
0.0
 10
57.22958958623349
 20
102.0608519145881
 30
0.0
 10
57.89157689092099
 20
102.2818602153693
 30
0.0
 10
58.81458104131161
 20
102.5888670513068
 30
0.0
 10
58.81458104131161
 20
102.5888670513068
 30
0.0
 10
59.39060032842099
 20
92.50079332083806
 30
0.0
 10
59.39060032842099
 20
92.50079332083806
 30
0.0
  0
POLYLINE
  5
59
330
1F
100
AcDbEntity
  8
Layer 1
370
     0
100
AcDb2dPolyline
 66
     1
 10
0.0
 20
0.0
 30
0.0
  0
VERTEX
  5
5A
330
59
100
AcDbEntity
  8
Layer 1
370
     0
100
AcDbVertex
100
AcDb2dVertex
 10
66.05060399053036
 20
98.4667967388068
 30
0.0
  0
VERTEX
  5
5B
330
59
100
AcDbEntity
  8
Layer 1
370
     0
100
AcDbVertex
100
AcDb2dVertex
 10
65.09760106084286
 20
104.5277708599006
 30
0.0
  0
VERTEX
  5
5C
330
59
100
AcDbEntity
  8
Layer 1
370
     0
100
AcDbVertex
100
AcDb2dVertex
 10
68.64661229131161
 20
104.8867796489631
 30
0.0
  0
VERTEX
  5
5D
330
59
100
AcDbEntity
  8
Layer 1
370
     0
100
AcDbVertex
100
AcDb2dVertex
 10
66.05060399053036
 20
98.4667967388068
 30
0.0
  0
SEQEND
  5
5E
330
59
100
AcDbEntity
  8
Layer 1
370
     0
  0
SPLINE
  5
5F
330
1F
100
AcDbEntity
  8
Layer 1
370
     0
100
AcDbSpline
210
0.0
220
0.0
230
1.0
 70
    11
 71
     3
 72
    17
 73
    13
 74
     0
 42
0.0000000001
 43
0.0000000001
 12
1.0
 22
0.0
 32
0.0
 13
1.0
 23
0.0
 33
0.0
 40
0.0
 40
0.0
 40
0.0
 40
0.0
 40
1.0
 40
1.0
 40
1.0
 40
2.0
 40
2.0
 40
2.0
 40
3.0
 40
3.0
 40
3.0
 40
4.0
 40
4.0
 40
4.0
 40
4.0
 10
69.03461277959286
 20
106.3507689067756
 30
0.0
 10
69.03461277959286
 20
106.3507689067756
 30
0.0
 10
65.02762425420224
 20
105.9457396099006
 30
0.0
 10
65.02762425420224
 20
105.9457396099006
 30
0.0
 10
65.00061619756161
 20
107.1217650005256
 30
0.0
 10
64.75363743779599
 20
109.3207396099006
 30
0.0
 10
64.16562474248349
 20
113.5097654888068
 30
0.0
 10
64.16562474248349
 20
113.5097654888068
 30
0.0
 10
69.03461277959286
 20
109.8827513286506
 30
0.0
 10
69.03461277959286
 20
109.8827513286506
 30
0.0
 10
69.03461277959286
 20
109.8827513286506
 30
0.0
 10
69.03461277959286
 20
106.3507689067756
 30
0.0
 10
69.03461277959286
 20
106.3507689067756
 30
0.0
  0
HATCH
  5
60
330
1F
100
AcDbEntity
  8
Layer 1
 62
     7
420
 16777215
100
AcDbHatch
 10
0.0
 20
0.0
 30
0.0
210
0.0
220
0.0
230
1.0
  2
SOLID
 70
     1
 71
     0
 91
       11
 92
        1
 93
        1
 72
     4
 94
        3
 73
     0
 74
     1
 95
      134
 96
      130
 40
0.0
 40
0.0
 40
0.0
 40
0.0
 40
1.0
 40
1.0
 40
1.0
 40
2.0
 40
2.0
 40
2.0
 40
3.0
 40
3.0
 40
3.0
 40
4.0
 40
4.0
 40
4.0
 40
5.0
 40
5.0
 40
5.0
 40
6.0
 40
6.0
 40
6.0
 40
7.0
 40
7.0
 40
7.0
 40
8.0
 40
8.0
 40
8.0
 40
9.0
 40
9.0
 40
9.0
 40
10.0
 40
10.0
 40
10.0
 40
11.0
 40
11.0
 40
11.0
 40
12.0
 40
12.0
 40
12.0
 40
13.0
 40
13.0
 40
13.0
 40
14.0
 40
14.0
 40
14.0
 40
15.0
 40
15.0
 40
15.0
 40
16.0
 40
16.0
 40
16.0
 40
17.0
 40
17.0
 40
17.0
 40
18.0
 40
18.0
 40
18.0
 40
19.0
 40
19.0
 40
19.0
 40
20.0
 40
20.0
 40
20.0
 40
21.0
 40
21.0
 40
21.0
 40
22.0
 40
22.0
 40
22.0
 40
23.0
 40
23.0
 40
23.0
 40
24.0
 40
24.0
 40
24.0
 40
25.0
 40
25.0
 40
25.0
 40
26.0
 40
26.0
 40
26.0
 40
27.0
 40
27.0
 40
27.0
 40
28.0
 40
28.0
 40
28.0
 40
29.0
 40
29.0
 40
29.0
 40
30.0
 40
30.0
 40
30.0
 40
31.0
 40
31.0
 40
31.0
 40
32.0
 40
32.0
 40
32.0
 40
33.0
 40
33.0
 40
33.0
 40
34.0
 40
34.0
 40
34.0
 40
35.0
 40
35.0
 40
35.0
 40
36.0
 40
36.0
 40
36.0
 40
37.0
 40
37.0
 40
37.0
 40
38.0
 40
38.0
 40
38.0
 40
39.0
 40
39.0
 40
39.0
 40
40.0
 40
40.0
 40
40.0
 40
41.0
 40
41.0
 40
41.0
 40
42.0
 40
42.0
 40
42.0
 40
43.0
 40
43.0
 40
43.0
 40
43.0
 10
70.16559422490536
 20
110.8067625591193
 10
70.16559422490536
 20
110.8067625591193
 10
63.70160496709286
 20
115.6207884380256
 10
63.70160496709286
 20
115.6207884380256
 10
63.56961644170224
 20
115.7498167583381
 10
63.39859593388974
 20
115.8277586528693
 10
63.21961033818661
 20
115.8027952739631
 10
63.21961033818661
 20
115.8027952739631
 10
51.71961033818661
 20
115.7238157817756
 10
51.71961033818661
 20
115.7238157817756
 10
51.43860447881161
 20
115.7218016216193
 10
51.18460667607724
 20
115.5527952739631
 10
51.07361424443661
 20
115.2938231059943
 10
51.07361424443661
 20
115.2938231059943
 10
48.89060032842099
 20
110.1978148052131
 10
48.89060032842099
 20
110.1978148052131
 10
48.88559544560849
 20
110.1878050395881
 10
48.88159764287411
 20
110.1777952739631
 10
48.87659276006161
 20
110.1688231059943
 10
48.87659276006161
 20
110.1688231059943
 10
44.79758275029599
 20
100.6538084575568
 10
44.79758275029599
 20
100.6538084575568
 10
44.79758275029599
 20
100.6538084575568
 10
11.46957982060849
 20
71.0657957622443
 10
11.46957982060849
 20
71.0657957622443
 10
11.21957982060849
 20
70.8427733013068
 10
11.15857518193661
 20
70.4768065044318
 10
11.32358372685849
 20
70.1867674419318
 10
11.4515897083038
 20
69.9587400981818
 10
11.68958104131161
 20
69.8267820903693
 10
11.93958104131161
 20
69.8267820903693
 10
12.00958836553036
 20
69.8267820903693
 10
12.08258641240536
 20
69.8377684184943
 10
12.15158665654599
 20
69.85980210990056
 10
12.15158665654599
 20
69.85980210990056
 10
38.35657322881161
 20
78.08782945365056
 10
38.35657322881161
 20
78.08782945365056
 10
31.2285672473663
 20
63.36480699271306
 10
14.62657750127255
 20
29.19183335990056
 10
13.73557103154599
 20
27.90985093802556
 10
13.73557103154599
 20
27.90985093802556
 10
13.75157750127255
 20
27.89685044974431
 10
13.75157750127255
 20
27.89685044974431
 10
13.36256993291317
 20
27.43084703177556
 10
13.47057164189755
 20
27.30786119193181
 10
13.74657261846005
 20
26.99383531302556
 10
13.88558018681942
 20
26.83685289115056
 10
14.08157933232724
 20
26.75585923880681
 10
14.27857029912411
 20
26.75585923880681
 10
14.4365750598663
 20
26.75585923880681
 10
14.59656346318661
 20
26.80786119193181
 10
14.72757542607724
 20
26.91284166068181
 10
14.7435818958038
 20
26.92486558646306
 10
14.76857579228817
 20
26.95587144583806
 10
14.80158055303036
 20
27.00585923880681
 10
14.80158055303036
 20
27.00585923880681
 10
14.8115750598663
 20
26.99584947318181
 10
14.8115750598663
 20
26.99584947318181
 10
15.39557469365536
 20
27.62683091849431
 10
36.61658299443661
 20
48.04882798880681
 10
47.75458348271786
 20
58.75982652396306
 10
47.83957493779599
 20
58.84082017630681
 10
47.89258397099911
 20
58.94580064505681
 10
47.92758763310849
 20
59.05584703177556
 10
47.93259251592099
 20
59.06982408255681
 10
47.94559300420224
 20
59.07781968802556
 10
47.94858372685849
 20
59.09185777396306
 10
47.94858372685849
 20
59.09185777396306
 10
51.59357274053036
 20
73.11883531302556
 10
51.59357274053036
 20
73.11883531302556
 10
51.59357274053036
 20
73.11883531302556
 10
61.23758519170224
 20
73.2298582622443
 10
61.23758519170224
 20
73.2298582622443
 10
61.49457371709286
 20
73.23284898490056
 10
61.72958958623349
 20
73.3758543559943
 10
61.85257542607724
 20
73.6008299419318
 10
61.97458470342099
 20
73.82684312552556
 10
61.96558201787411
 20
74.1008299419318
 10
61.82858860967099
 20
74.3188475200568
 10
61.82858860967099
 20
74.3188475200568
 10
57.99359715459286
 20
80.36785875052556
 10
57.99359715459286
 20
80.36785875052556
 10
57.99359715459286
 20
80.36785875052556
 10
61.38858616826474
 20
84.1148680278693
 10
61.38858616826474
 20
84.1148680278693
 10
61.53659642217099
 20
84.21588121146306
 10
61.60858738896786
 20
84.3428953716193
 10
61.66159642217099
 20
84.49786363333806
 10
61.66260350224911
 20
84.50189195365056
 10
61.66458714482724
 20
84.5048826763068
 10
61.66559422490536
 20
84.50884996146306
 10
61.66660130498349
 20
84.5108641216193
 10
61.66660130498349
 20
84.5118406841193
 10
61.66760838506161
 20
84.51385484427556
 10
61.72861302373349
 20
84.6928709575568
 10
61.83859837529599
 20
85.02886949271306
 10
60.87961400029599
 20
91.26788316458806
 10
60.87961400029599
 20
91.26788316458806
 10
60.20560276982724
 20
103.0518797466193
 10
60.20560276982724
 20
103.0518797466193
 10
61.47861302373349
 20
103.4768675395881
 10
62.86261570928036
 20
103.9378660747443
 10
63.71060765263974
 20
104.2199095317756
 10
63.71060765263974
 20
104.2199095317756
 10
65.04862034795224
 20
95.7178953716193
 10
65.04862034795224
 20
95.7178953716193
 10
65.09860814092099
 20
95.40386949271306
 10
65.35162938115536
 20
95.1599119731818
 10
65.66760838506161
 20
95.1239012309943
 10
65.69461644170224
 20
95.12091050833806
 10
65.72260106084286
 20
95.1188963481818
 10
65.74860203740536
 20
95.1188963481818
 10
66.03461277959286
 20
95.1188963481818
 10
66.29660618779599
 20
95.29290757865056
 10
66.40561497685849
 20
95.5618895122443
 10
66.40561497685849
 20
95.5618895122443
 10
70.39462864873349
 20
105.4318846294318
 10
70.39462864873349
 20
105.4318846294318
 10
70.41162693974911
 20
105.4708860942756
 10
70.42462742803036
 20
105.5119017192756
 10
70.43363011357724
 20
105.5548704692756
 10
70.44663060185849
 20
105.6118773052131
 10
70.45264256474911
 20
105.6678465434943
 10
70.45163548467099
 20
105.7248533794318
 10
70.45163548467099
 20
105.7248533794318
 10
70.45163548467099
 20
110.2378538677131
 10
70.45163548467099
 20
110.2378538677131
 10
70.45261204717099
 20
110.4617918559943
 10
70.34558690068661
 20
110.6727903911506
 10
70.16559422490536
 20
110.8067625591193
 97
        0
 97
        0
 92
        1
 93
        1
 72
     4
 94
        3
 73
     0
 74
     1
 95
       20
 96
       16
 40
0.0
 40
0.0
 40
0.0
 40
0.0
 40
1.0
 40
1.0
 40
1.0
 40
2.0
 40
2.0
 40
2.0
 40
3.0
 40
3.0
 40
3.0
 40
4.0
 40
4.0
 40
4.0
 40
5.0
 40
5.0
 40
5.0
 40
5.0
 10
52.19360936162411
 20
114.3097532817756
 10
52.19360936162411
 20
114.3097532817756
 10
62.61060154912411
 20
114.3807371684943
 10
62.61060154912411
 20
114.3807371684943
 10
63.12460911748349
 20
110.7407225200568
 10
63.59360325810849
 20
106.8947142192756
 10
63.63059056279599
 20
105.6867674419318
 10
62.32059300420224
 20
105.2497557231818
 10
58.45358860967099
 20
103.9617918559943
 10
57.18860447881161
 20
103.5407713481818
 10
57.18860447881161
 20
103.5407713481818
 10
50.38059056279599
 20
110.0767820903693
 10
50.38059056279599
 20
110.0767820903693
 10
50.38059056279599
 20
110.0767820903693
 10
52.19360936162411
 20
114.3097532817756
 10
52.19360936162411
 20
114.3097532817756
 97
        0
 97
        0
 92
        1
 93
        1
 72
     4
 94
        3
 73
     0
 74
     1
 95
       20
 96
       16
 40
0.0
 40
0.0
 40
0.0
 40
0.0
 40
1.0
 40
1.0
 40
1.0
 40
2.0
 40
2.0
 40
2.0
 40
3.0
 40
3.0
 40
3.0
 40
4.0
 40
4.0
 40
4.0
 40
5.0
 40
5.0
 40
5.0
 40
5.0
 10
59.52460301396786
 20
90.7587889263068
 10
59.85761082646786
 20
88.57281480521306
 10
60.17960179326474
 20
86.24676500052556
 10
60.27258885381161
 20
85.26776109427556
 10
59.91660130498349
 20
85.23175035208806
 10
59.24057591435849
 20
85.1927488872443
 10
57.98358738896786
 20
85.1927488872443
 10
57.50458348271786
 20
85.1927488872443
 10
57.07758152959286
 20
85.1987303325568
 10
56.79358494756161
 20
85.2037352153693
 10
56.79358494756161
 20
85.2037352153693
 10
47.92258275029599
 20
97.8497313091193
 10
47.92258275029599
 20
97.8497313091193
 10
47.92258275029599
 20
97.8497313091193
 10
59.52460301396786
 20
90.7587889263068
 10
59.52460301396786
 20
90.7587889263068
 97
        0
 97
        0
 92
        1
 93
        3
 72
     1
 10
45.26260960576474
 20
99.1707762309943
 11
55.28360569951474
 21
84.88775621146306
 72
     1
 10
55.28360569951474
 20
84.88775621146306
 11
14.88760960576474
 21
72.2037352153693
 72
     1
 10
14.88760960576474
 20
72.2037352153693
 11
45.26260960576474
 21
99.1707762309943
 97
        0
 92
        1
 93
        3
 72
     1
 10
47.13361180303036
 20
61.58477769583806
 11
40.52362645146786
 21
78.7687986919318
 72
     1
 10
40.52362645146786
 20
78.7687986919318
 11
52.58362401006161
 21
82.5548094341193
 72
     1
 10
52.58362401006161
 20
82.5548094341193
 11
47.13361180303036
 21
61.58477769583806
 97
        0
 92
        1
 93
        1
 72
     4
 94
        3
 73
     0
 74
     1
 95
       20
 96
       16
 40
0.0
 40
0.0
 40
0.0
 40
0.0
 40
1.0
 40
1.0
 40
1.0
 40
2.0
 40
2.0
 40
2.0
 40
3.0
 40
3.0
 40
3.0
 40
4.0
 40
4.0
 40
4.0
 40
5.0
 40
5.0
 40
5.0
 40
5.0
 10
18.92259800908505
 20
32.96276841849431
 10
18.19660008428036
 20
32.26275621146306
 10
17.52860081670224
 20
31.61676011771306
 10
16.93160069463192
 20
31.03875718802556
 10
20.41559422490536
 20
37.92675767630681
 10
27.99559605596005
 20
53.42773423880681
 10
39.56159031865536
 20
77.3227537700568
 10
39.56159031865536
 20
77.3227537700568
 10
46.43457615849911
 20
59.45477281302556
 10
46.43457615849911
 20
59.45477281302556
 10
44.83356297490536
 20
57.91674791068181
 10
37.55457127568661
 20
50.91577134818181
 10
30.26357090947567
 20
43.89477525443181
 10
26.13759434697567
 20
39.92175279349431
 10
22.01259434697567
 20
35.94775377005681
 10
18.92259800908505
 20
32.96276841849431
 97
        0
 97
        0
 92
        1
 93
        3
 72
     1
 10
59.95160496709286
 20
74.6337889263068
 11
52.72559178349911
 21
74.5507811138068
 72
     1
 10
52.72559178349911
 20
74.5507811138068
 11
57.00659764287411
 21
79.27777085990056
 72
     1
 10
57.00659764287411
 20
79.27777085990056
 11
59.95160496709286
 21
74.6337889263068
 97
        0
 92
        1
 93
        1
 72
     4
 94
        3
 73
     0
 74
     1
 95
       23
 96
       19
 40
0.0
 40
0.0
 40
0.0
 40
0.0
 40
1.0
 40
1.0
 40
1.0
 40
2.0
 40
2.0
 40
2.0
 40
3.0
 40
3.0
 40
3.0
 40
4.0
 40
4.0
 40
4.0
 40
5.0
 40
5.0
 40
5.0
 40
6.0
 40
6.0
 40
6.0
 40
6.0
 10
52.43158543584286
 20
76.3367918559943
 10
52.43158543584286
 20
76.3367918559943
 10
54.17059910771786
 20
83.03179918021306
 10
54.17059910771786
 20
83.03179918021306
 10
54.17261326787411
 20
83.0388182231818
 10
54.17059910771786
 20
83.04681382865056
 10
54.17160618779599
 20
83.05279527396306
 10
54.17160618779599
 20
83.05279527396306
 10
56.51959813115536
 20
83.7897947856818
 10
56.51959813115536
 20
83.7897947856818
 10
56.75760472295224
 20
83.7838133403693
 10
57.32660496709286
 20
83.77276597708806
 10
57.98358738896786
 20
83.77276597708806
 10
58.44058812138974
 20
83.77276597708806
 10
58.83258641240536
 20
83.77777085990056
 10
59.17960179326474
 20
83.7857664653693
 10
59.17960179326474
 20
83.7857664653693
 10
52.43158543584286
 20
76.3367918559943
 10
52.43158543584286
 20
76.3367918559943
 97
        0
 97
        0
 92
        1
 93
        1
 72
     4
 94
        3
 73
     0
 74
     1
 95
       23
 96
       19
 40
0.0
 40
0.0
 40
0.0
 40
0.0
 40
1.0
 40
1.0
 40
1.0
 40
2.0
 40
2.0
 40
2.0
 40
3.0
 40
3.0
 40
3.0
 40
4.0
 40
4.0
 40
4.0
 40
5.0
 40
5.0
 40
5.0
 40
6.0
 40
6.0
 40
6.0
 40
6.0
 10
59.39060032842099
 20
92.50079332083806
 10
59.39060032842099
 20
92.50079332083806
 10
46.27960789678036
 20
100.5128172466193
 10
46.27960789678036
 20
100.5128172466193
 10
46.27960789678036
 20
100.5128172466193
 10
49.78360569951474
 20
108.6838377544318
 10
49.78360569951474
 20
108.6838377544318
 10
49.78360569951474
 20
108.6838377544318
 10
56.51459324834286
 20
102.2218626567756
 10
56.51459324834286
 20
102.2218626567756
 10
56.70560276982724
 20
102.0378416606818
 10
56.98160374638974
 20
101.9778441020881
 10
57.22958958623349
 20
102.0608519145881
 10
57.22958958623349
 20
102.0608519145881
 10
57.89157689092099
 20
102.2818602153693
 10
58.81458104131161
 20
102.5888670513068
 10
58.81458104131161
 20
102.5888670513068
 10
59.39060032842099
 20
92.50079332083806
 10
59.39060032842099
 20
92.50079332083806
 97
        0
 97
        0
 92
        1
 93
        3
 72
     1
 10
66.05060399053036
 20
98.4667967388068
 11
65.09760106084286
 21
104.5277708599006
 72
     1
 10
65.09760106084286
 20
104.5277708599006
 11
68.64661229131161
 21
104.8867796489631
 72
     1
 10
68.64661229131161
 20
104.8867796489631
 11
66.05060399053036
 21
98.4667967388068
 97
        0
 92
        1
 93
        1
 72
     4
 94
        3
 73
     0
 74
     1
 95
       17
 96
       13
 40
0.0
 40
0.0
 40
0.0
 40
0.0
 40
1.0
 40
1.0
 40
1.0
 40
2.0
 40
2.0
 40
2.0
 40
3.0
 40
3.0
 40
3.0
 40
4.0
 40
4.0
 40
4.0
 40
4.0
 10
69.03461277959286
 20
106.3507689067756
 10
69.03461277959286
 20
106.3507689067756
 10
65.02762425420224
 20
105.9457396099006
 10
65.02762425420224
 20
105.9457396099006
 10
65.00061619756161
 20
107.1217650005256
 10
64.75363743779599
 20
109.3207396099006
 10
64.16562474248349
 20
113.5097654888068
 10
64.16562474248349
 20
113.5097654888068
 10
69.03461277959286
 20
109.8827513286506
 10
69.03461277959286
 20
109.8827513286506
 10
69.03461277959286
 20
109.8827513286506
 10
69.03461277959286
 20
106.3507689067756
 10
69.03461277959286
 20
106.3507689067756
 97
        0
 97
        0
 75
     2
 76
     1
 98
        0
  0
ENDSEC
  0
SECTION
  2
OBJECTS
  0
DICTIONARY
  5
C
330
0
100
AcDbDictionary
281
     1
  3
ACAD_GROUP
350
D
  3
ACAD_LAYOUT
350
1A
  3
ACAD_MATERIAL
350
3B
  3
ACAD_MLEADERSTYLE
350
62
  3
ACAD_MLINESTYLE
350
17
  3
ACAD_PLOTSETTINGS
350
19
  3
ACAD_PLOTSTYLENAME
350
E
  3
ACAD_TABLESTYLE
350
61
  3
ACAD_VISUALSTYLE
350
2A
  0
SUN
  5
3F
330
29
100
AcDbSun
 90
        1
290
     0
 63
     7
421
 16777215
 40
1.0
291
     1
 91
  2455826
 92
 54000000
292
     0
 70
     2
 71
   256
280
     1
  0
DICTIONARY
  5
D
102
{ACAD_REACTORS
330
C
102
}
330
C
100
AcDbDictionary
281
     1
  0
DICTIONARY
  5
1A
102
{ACAD_REACTORS
330
C
102
}
330
C
100
AcDbDictionary
281
     1
  3
Layout1
350
1E
  3
Layout2
350
26
  3
Model
350
22
  0
DICTIONARY
  5
3B
102
{ACAD_REACTORS
330
C
102
}
330
C
100
AcDbDictionary
281
     1
  3
ByBlock
350
3D
  3
ByLayer
350
3C
  3
Global
350
3E
  0
DICTIONARY
  5
62
102
{ACAD_REACTORS
330
C
102
}
330
C
100
AcDbDictionary
281
     1
  0
DICTIONARY
  5
17
102
{ACAD_REACTORS
330
C
102
}
330
C
100
AcDbDictionary
281
     1
  3
Standard
350
18
  0
DICTIONARY
  5
19
102
{ACAD_REACTORS
330
C
102
}
330
C
100
AcDbDictionary
281
     1
  0
ACDBDICTIONARYWDFLT
  5
E
102
{ACAD_REACTORS
330
C
102
}
330
C
100
AcDbDictionary
281
     1
  3
Normal
350
F
100
AcDbDictionaryWithDefault
340
F
  0
DICTIONARY
  5
61
102
{ACAD_REACTORS
330
C
102
}
330
C
100
AcDbDictionary
281
     1
  0
DICTIONARY
  5
2A
102
{ACAD_REACTORS
330
C
102
}
330
C
100
AcDbDictionary
281
     1
  3
2dWireframe
350
2F
  3
3D Hidden
350
31
  3
3dWireframe
350
30
  3
Basic
350
32
  3
Brighten
350
36
  3
ColorChange
350
3A
  3
Conceptual
350
34
  3
Dim
350
35
  3
Facepattern
350
39
  3
Flat
350
2B
  3
FlatWithEdges
350
2C
  3
Gouraud
350
2D
  3
GouraudWithEdges
350
2E
  3
Linepattern
350
38
  3
Realistic
350
33
  3
Thicken
350
37
  0
LAYOUT
  5
1E
102
{ACAD_REACTORS
330
1A
102
}
330
1A
100
AcDbPlotSettings
  1

  2
none_device
  4

  6

 40
0.0
 41
0.0
 42
0.0
 43
0.0
 44
0.0
 45
0.0
 46
0.0
 47
0.0
 48
0.0
 49
0.0
140
0.0
141
0.0
142
1.0
143
1.0
 70
   688
 72
     0
 73
     0
 74
     5
  7

 75
    16
 76
     0
 77
     2
 78
   300
147
1.0
148
0.0
149
0.0
100
AcDbLayout
  1
Layout1
 70
     1
 71
     1
 10
0.0
 20
0.0
 11
12.0
 21
9.0
 12
0.0
 22
0.0
 32
0.0
 14
1.000000000000000E+20
 24
1.000000000000000E+20
 34
1.000000000000000E+20
 15
-1.000000000000000E+20
 25
-1.000000000000000E+20
 35
-1.000000000000000E+20
146
0.0
 13
0.0
 23
0.0
 33
0.0
 16
1.0
 26
0.0
 36
0.0
 17
0.0
 27
1.0
 37
0.0
 76
     0
330
1B
  0
LAYOUT
  5
26
102
{ACAD_REACTORS
330
1A
102
}
330
1A
100
AcDbPlotSettings
  1

  2
none_device
  4

  6

 40
0.0
 41
0.0
 42
0.0
 43
0.0
 44
0.0
 45
0.0
 46
0.0
 47
0.0
 48
0.0
 49
0.0
140
0.0
141
0.0
142
1.0
143
1.0
 70
   688
 72
     0
 73
     0
 74
     5
  7

 75
    16
 76
     0
 77
     2
 78
   300
147
1.0
148
0.0
149
0.0
100
AcDbLayout
  1
Layout2
 70
     1
 71
     2
 10
0.0
 20
0.0
 11
0.0
 21
0.0
 12
0.0
 22
0.0
 32
0.0
 14
0.0
 24
0.0
 34
0.0
 15
0.0
 25
0.0
 35
0.0
146
0.0
 13
0.0
 23
0.0
 33
0.0
 16
1.0
 26
0.0
 36
0.0
 17
0.0
 27
1.0
 37
0.0
 76
     0
330
23
  0
LAYOUT
  5
22
102
{ACAD_REACTORS
330
1A
102
}
330
1A
100
AcDbPlotSettings
  1

  2
none_device
  4

  6

 40
0.0
 41
0.0
 42
0.0
 43
0.0
 44
0.0
 45
0.0
 46
0.0
 47
0.0
 48
0.0
 49
0.0
140
0.0
141
0.0
142
1.0
143
1.0
 70
  1712
 72
     0
 73
     0
 74
     0
  7

 75
     0
 76
     0
 77
     2
 78
   300
147
1.0
148
0.0
149
0.0
100
AcDbLayout
  1
Model
 70
     1
 71
     0
 10
0.0
 20
0.0
 11
12.0
 21
9.0
 12
0.0
 22
0.0
 32
0.0
 14
1.000000000000000E+20
 24
1.000000000000000E+20
 34
1.000000000000000E+20
 15
-1.000000000000000E+20
 25
-1.000000000000000E+20
 35
-1.000000000000000E+20
146
0.0
 13
0.0
 23
0.0
 33
0.0
 16
1.0
 26
0.0
 36
0.0
 17
0.0
 27
1.0
 37
0.0
 76
     0
330
1F
331
29
  0
MATERIAL
  5
3D
102
{ACAD_REACTORS
330
3B
102
}
330
3B
100
AcDbMaterial
  1
ByBlock
 72
     1
 94
      127
  0
MATERIAL
  5
3C
102
{ACAD_REACTORS
330
3B
102
}
330
3B
100
AcDbMaterial
  1
ByLayer
 72
     1
 94
      127
  0
MATERIAL
  5
3E
102
{ACAD_REACTORS
330
3B
102
}
330
3B
100
AcDbMaterial
  1
Global
 72
     1
 94
      127
  0
MLINESTYLE
  5
18
102
{ACAD_REACTORS
330
17
102
}
330
17
100
AcDbMlineStyle
  2
Standard
 70
     0
  3

 62
   256
 51
90.0
 52
90.0
 71
     2
 49
0.5
 62
   256
  6
BYLAYER
 49
-0.5
 62
   256
  6
BYLAYER
  0
ACDBPLACEHOLDER
  5
F
102
{ACAD_REACTORS
330
E
102
}
330
E
  0
VISUALSTYLE
  5
2F
102
{ACAD_REACTORS
330
2A
102
}
330
2A
100
AcDbVisualStyle
  2
2dWireframe
 70
     4
177
     2
291
     0
 71
     0
176
     1
 72
     2
176
     1
 73
     0
176
     1
 90
        0
176
     1
 40
-0.6
176
     1
 41
-30.0
176
     1
 62
     5
 63
     7
421
 16777215
176
     1
 74
     1
176
     1
 91
        4
176
     1
 64
     7
176
     1
 65
   257
176
     1
 75
     1
176
     1
175
     1
176
     1
 42
1.0
176
     1
 92
        0
176
     1
 66
   257
176
     1
 43
1.0
176
     1
 76
     1
176
     1
 77
     6
176
     1
 78
     2
176
     1
 67
     7
176
     1
 79
     5
176
     1
170
     0
176
     1
171
     0
176
     1
290
     0
176
     1
 93
        1
176
     1
 44
0.0
176
     1
173
     0
176
     1
  0
VISUALSTYLE
  5
31
102
{ACAD_REACTORS
330
2A
102
}
330
2A
100
AcDbVisualStyle
  2
3D Hidden
 70
     6
177
     2
291
     0
 71
     1
176
     1
 72
     2
176
     1
 73
     2
176
     1
 90
        0
176
     1
 40
-0.6
176
     1
 41
-30.0
176
     1
 62
     5
 63
     7
421
 16777215
176
     1
 74
     2
176
     1
 91
        2
176
     1
 64
     7
176
     1
 65
   257
176
     1
 75
     2
176
     1
175
     1
176
     1
 42
40.0
176
     1
 92
        0
176
     1
 66
   257
176
     1
 43
1.0
176
     1
 76
     1
176
     1
 77
     6
176
     1
 78
     2
176
     1
 67
     7
176
     1
 79
     3
176
     1
170
     0
176
     1
171
     0
176
     1
290
     0
176
     1
 93
        1
176
     1
 44
0.0
176
     1
173
     0
176
     1
  0
VISUALSTYLE
  5
30
102
{ACAD_REACTORS
330
2A
102
}
330
2A
100
AcDbVisualStyle
  2
3dWireframe
 70
     5
177
     2
291
     0
 71
     0
176
     1
 72
     2
176
     1
 73
     0
176
     1
 90
        0
176
     1
 40
-0.6
176
     1
 41
-30.0
176
     1
 62
     5
 63
     7
421
 16777215
176
     1
 74
     1
176
     1
 91
        4
176
     1
 64
     7
176
     1
 65
   257
176
     1
 75
     1
176
     1
175
     1
176
     1
 42
1.0
176
     1
 92
        0
176
     1
 66
   257
176
     1
 43
1.0
176
     1
 76
     1
176
     1
 77
     6
176
     1
 78
     2
176
     1
 67
     7
176
     1
 79
     5
176
     1
170
     0
176
     1
171
     0
176
     1
290
     0
176
     1
 93
        1
176
     1
 44
0.0
176
     1
173
     0
176
     1
  0
VISUALSTYLE
  5
32
102
{ACAD_REACTORS
330
2A
102
}
330
2A
100
AcDbVisualStyle
  2
Basic
 70
     7
177
     2
291
     1
 71
     1
176
     1
 72
     0
176
     1
 73
     1
176
     1
 90
        0
176
     1
 40
-0.6
176
     1
 41
-30.0
176
     1
 62
     5
 63
     7
421
 16777215
176
     1
 74
     0
176
     1
 91
        4
176
     1
 64
     7
176
     1
 65
   257
176
     1
 75
     1
176
     1
175
     1
176
     1
 42
1.0
176
     1
 92
        8
176
     1
 66
     7
176
     1
 43
1.0
176
     1
 76
     1
176
     1
 77
     6
176
     1
 78
     2
176
     1
 67
     7
176
     1
 79
     5
176
     1
170
     0
176
     1
171
     0
176
     1
290
     0
176
     1
 93
        1
176
     1
 44
0.0
176
     1
173
     0
176
     1
  0
VISUALSTYLE
  5
36
102
{ACAD_REACTORS
330
2A
102
}
330
2A
100
AcDbVisualStyle
  2
Brighten
 70
    12
177
     2
291
     1
 71
     2
176
     1
 72
     2
176
     1
 73
     0
176
     1
 90
        0
176
     1
 40
-0.6
176
     1
 41
-30.0
176
     1
 62
     5
 63
     7
421
 16777215
176
     1
 74
     1
176
     1
 91
        4
176
     1
 64
     7
176
     1
 65
   257
176
     1
 75
     1
176
     1
175
     1
176
     1
 42
1.0
176
     1
 92
        8
176
     1
 66
     7
176
     1
 43
1.0
176
     1
 76
     1
176
     1
 77
     6
176
     1
 78
     2
176
     1
 67
     7
176
     1
 79
     5
176
     1
170
     0
176
     1
171
     0
176
     1
290
     0
176
     1
 93
        1
176
     1
 44
50.0
176
     1
173
     0
176
     1
  0
VISUALSTYLE
  5
3A
102
{ACAD_REACTORS
330
2A
102
}
330
2A
100
AcDbVisualStyle
  2
ColorChange
 70
    16
177
     2
291
     1
 71
     2
176
     1
 72
     2
176
     1
 73
     3
176
     1
 90
        0
176
     1
 40
-0.6
176
     1
 41
-30.0
176
     1
 62
     5
 63
     8
421
  8421504
176
     1
 74
     1
176
     1
 91
        4
176
     1
 64
     7
176
     1
 65
   257
176
     1
 75
     1
176
     1
175
     1
176
     1
 42
1.0
176
     1
 92
        8
176
     1
 66
     8
424
  8421504
176
     1
 43
1.0
176
     1
 76
     1
176
     1
 77
     6
176
     1
 78
     2
176
     1
 67
     7
176
     1
 79
     5
176
     1
170
     0
176
     1
171
     0
176
     1
290
     0
176
     1
 93
        1
176
     1
 44
0.0
176
     1
173
     0
176
     1
  0
VISUALSTYLE
  5
34
102
{ACAD_REACTORS
330
2A
102
}
330
2A
100
AcDbVisualStyle
  2
Conceptual
 70
     9
177
     2
291
     0
 71
     3
176
     1
 72
     2
176
     1
 73
     0
176
     1
 90
        0
176
     1
 40
-0.6
176
     1
 41
-30.0
176
     1
 62
     5
 63
     7
421
 16777215
176
     1
 74
     2
176
     1
 91
        2
176
     1
 64
     7
176
     1
 65
   257
176
     1
 75
     1
176
     1
175
     1
176
     1
 42
40.0
176
     1
 92
        8
176
     1
 66
     7
176
     1
 43
1.0
176
     1
 76
     1
176
     1
 77
     6
176
     1
 78
     2
176
     1
 67
     7
176
     1
 79
     3
176
     1
170
     0
176
     1
171
     0
176
     1
290
     0
176
     1
 93
        1
176
     1
 44
0.0
176
     1
173
     0
176
     1
  0
VISUALSTYLE
  5
35
102
{ACAD_REACTORS
330
2A
102
}
330
2A
100
AcDbVisualStyle
  2
Dim
 70
    11
177
     2
291
     1
 71
     2
176
     1
 72
     2
176
     1
 73
     0
176
     1
 90
        0
176
     1
 40
-0.6
176
     1
 41
-30.0
176
     1
 62
     5
 63
     7
421
 16777215
176
     1
 74
     1
176
     1
 91
        4
176
     1
 64
     7
176
     1
 65
   257
176
     1
 75
     1
176
     1
175
     1
176
     1
 42
1.0
176
     1
 92
        8
176
     1
 66
     7
176
     1
 43
1.0
176
     1
 76
     1
176
     1
 77
     6
176
     1
 78
     2
176
     1
 67
     7
176
     1
 79
     5
176
     1
170
     0
176
     1
171
     0
176
     1
290
     0
176
     1
 93
        1
176
     1
 44
-50.0
176
     1
173
     0
176
     1
  0
VISUALSTYLE
  5
39
102
{ACAD_REACTORS
330
2A
102
}
330
2A
100
AcDbVisualStyle
  2
Facepattern
 70
    15
177
     2
291
     1
 71
     2
176
     1
 72
     2
176
     1
 73
     0
176
     1
 90
        0
176
     1
 40
-0.6
176
     1
 41
-30.0
176
     1
 62
     5
 63
     7
421
 16777215
176
     1
 74
     1
176
     1
 91
        4
176
     1
 64
     7
176
     1
 65
   257
176
     1
 75
     1
176
     1
175
     1
176
     1
 42
1.0
176
     1
 92
        8
176
     1
 66
     7
176
     1
 43
1.0
176
     1
 76
     1
176
     1
 77
     6
176
     1
 78
     2
176
     1
 67
     7
176
     1
 79
     5
176
     1
170
     0
176
     1
171
     0
176
     1
290
     0
176
     1
 93
        1
176
     1
 44
0.0
176
     1
173
     0
176
     1
  0
VISUALSTYLE
  5
2B
102
{ACAD_REACTORS
330
2A
102
}
330
2A
100
AcDbVisualStyle
  2
Flat
 70
     0
177
     2
291
     1
 71
     2
176
     1
 72
     1
176
     1
 73
     1
176
     1
 90
        2
176
     1
 40
-0.6
176
     1
 41
30.0
176
     1
 62
     5
 63
     7
421
 16777215
176
     1
 74
     0
176
     1
 91
        4
176
     1
 64
     7
176
     1
 65
   257
176
     1
 75
     1
176
     1
175
     1
176
     1
 42
1.0
176
     1
 92
        8
176
     1
 66
     7
176
     1
 43
1.0
176
     1
 76
     1
176
     1
 77
     6
176
     1
 78
     2
176
     1
 67
     7
176
     1
 79
     5
176
     1
170
     0
176
     1
171
     0
176
     1
290
     0
176
     1
 93
       13
176
     1
 44
0.0
176
     1
173
     0
176
     1
  0
VISUALSTYLE
  5
2C
102
{ACAD_REACTORS
330
2A
102
}
330
2A
100
AcDbVisualStyle
  2
FlatWithEdges
 70
     1
177
     2
291
     1
 71
     2
176
     1
 72
     1
176
     1
 73
     1
176
     1
 90
        2
176
     1
 40
-0.6
176
     1
 41
30.0
176
     1
 62
     5
 63
     7
421
 16777215
176
     1
 74
     1
176
     1
 91
        4
176
     1
 64
     7
176
     1
 65
   257
176
     1
 75
     1
176
     1
175
     1
176
     1
 42
1.0
176
     1
 92
        0
176
     1
 66
   257
176
     1
 43
1.0
176
     1
 76
     1
176
     1
 77
     6
176
     1
 78
     2
176
     1
 67
     7
176
     1
 79
     5
176
     1
170
     0
176
     1
171
     0
176
     1
290
     0
176
     1
 93
       13
176
     1
 44
0.0
176
     1
173
     0
176
     1
  0
VISUALSTYLE
  5
2D
102
{ACAD_REACTORS
330
2A
102
}
330
2A
100
AcDbVisualStyle
  2
Gouraud
 70
     2
177
     2
291
     1
 71
     2
176
     1
 72
     2
176
     1
 73
     1
176
     1
 90
        2
176
     1
 40
-0.6
176
     1
 41
30.0
176
     1
 62
     5
 63
     7
421
 16777215
176
     1
 74
     0
176
     1
 91
        4
176
     1
 64
     7
176
     1
 65
   257
176
     1
 75
     1
176
     1
175
     1
176
     1
 42
1.0
176
     1
 92
        0
176
     1
 66
     7
176
     1
 43
1.0
176
     1
 76
     1
176
     1
 77
     6
176
     1
 78
     2
176
     1
 67
     7
176
     1
 79
     5
176
     1
170
     0
176
     1
171
     0
176
     1
290
     0
176
     1
 93
       13
176
     1
 44
0.0
176
     1
173
     0
176
     1
  0
VISUALSTYLE
  5
2E
102
{ACAD_REACTORS
330
2A
102
}
330
2A
100
AcDbVisualStyle
  2
GouraudWithEdges
 70
     3
177
     2
291
     1
 71
     2
176
     1
 72
     2
176
     1
 73
     1
176
     1
 90
        2
176
     1
 40
-0.6
176
     1
 41
30.0
176
     1
 62
     5
 63
     7
421
 16777215
176
     1
 74
     1
176
     1
 91
        4
176
     1
 64
     7
176
     1
 65
   257
176
     1
 75
     1
176
     1
175
     1
176
     1
 42
1.0
176
     1
 92
        0
176
     1
 66
   257
176
     1
 43
1.0
176
     1
 76
     1
176
     1
 77
     6
176
     1
 78
     2
176
     1
 67
     7
176
     1
 79
     5
176
     1
170
     0
176
     1
171
     0
176
     1
290
     0
176
     1
 93
       13
176
     1
 44
0.0
176
     1
173
     0
176
     1
  0
VISUALSTYLE
  5
38
102
{ACAD_REACTORS
330
2A
102
}
330
2A
100
AcDbVisualStyle
  2
Linepattern
 70
    14
177
     2
291
     1
 71
     2
176
     1
 72
     2
176
     1
 73
     0
176
     1
 90
        0
176
     1
 40
-0.6
176
     1
 41
-30.0
176
     1
 62
     5
 63
     7
421
 16777215
176
     1
 74
     1
176
     1
 91
        4
176
     1
 64
     7
176
     1
 65
   257
176
     1
 75
     7
176
     1
175
     7
176
     1
 42
1.0
176
     1
 92
        8
176
     1
 66
     7
176
     1
 43
1.0
176
     1
 76
     1
176
     1
 77
     6
176
     1
 78
     2
176
     1
 67
     7
176
     1
 79
     5
176
     1
170
     0
176
     1
171
     0
176
     1
290
     0
176
     1
 93
        1
176
     1
 44
0.0
176
     1
173
     0
176
     1
  0
VISUALSTYLE
  5
33
102
{ACAD_REACTORS
330
2A
102
}
330
2A
100
AcDbVisualStyle
  2
Realistic
 70
     8
177
     2
291
     0
 71
     2
176
     1
 72
     2
176
     1
 73
     0
176
     1
 90
        0
176
     1
 40
-0.6
176
     1
 41
-30.0
176
     1
 62
     5
 63
     7
421
 16777215
176
     1
 74
     1
176
     1
 91
        0
176
     1
 64
     7
176
     1
 65
   257
176
     1
 75
     1
176
     1
175
     1
176
     1
 42
1.0
176
     1
 92
        8
176
     1
 66
     8
424
  7895160
176
     1
 43
1.0
176
     1
 76
     1
176
     1
 77
     6
176
     1
 78
     2
176
     1
 67
     7
176
     1
 79
     5
176
     1
170
     0
176
     1
171
     0
176
     1
290
     0
176
     1
 93
       13
176
     1
 44
0.0
176
     1
173
     0
176
     1
  0
VISUALSTYLE
  5
37
102
{ACAD_REACTORS
330
2A
102
}
330
2A
100
AcDbVisualStyle
  2
Thicken
 70
    13
177
     2
291
     1
 71
     2
176
     1
 72
     2
176
     1
 73
     0
176
     1
 90
        0
176
     1
 40
-0.6
176
     1
 41
-30.0
176
     1
 62
     5
 63
     7
421
 16777215
176
     1
 74
     1
176
     1
 91
        4
176
     1
 64
     7
176
     1
 65
   257
176
     1
 75
     1
176
     1
175
     1
176
     1
 42
1.0
176
     1
 92
       12
176
     1
 66
     7
176
     1
 43
1.0
176
     1
 76
     1
176
     1
 77
     6
176
     1
 78
     2
176
     1
 67
     7
176
     1
 79
     5
176
     1
170
     0
176
     1
171
     0
176
     1
290
     0
176
     1
 93
        1
176
     1
 44
0.0
176
     1
173
     0
176
     1
  0
ENDSEC
  0
EOF
