<?xml version="1.0" encoding="utf-8"?>
<!-- Generator: Adobe Illustrator 19.2.1, SVG Export Plug-In . SVG Version: 6.00 Build 0)  -->
<svg version="1.1" id="Layer_1" xmlns="http://www.w3.org/2000/svg" xmlns:xlink="http://www.w3.org/1999/xlink" x="0px" y="0px"
	 viewBox="0 0 100 125" style="enable-background:new 0 0 100 125;" xml:space="preserve">
<path d="M49.8,76.7c-3-2.7-4.6-4-5.6-4.6l3.4-2.4c0.2-0.1,0.3-0.4,0.3-0.6l-0.5-28.2c0-0.2-0.1-0.3-0.2-0.5L35.8,27.5l1.3-7.5l8-3.8
	c0.3-0.1,0.4-0.4,0.4-0.7c0-0.3-0.3-0.5-0.6-0.6l-9.5-1.7l-0.7-2.3c-0.1-0.3-0.4-0.5-0.7-0.5H18.5c-0.3,0-0.5,0.2-0.7,0.4L7.7,34.5
	c0,0,0,0.1,0,0.1c0,0,0,0.1,0,0.1c0,0.1,0,0.2,0,0.3c0,0,0,0,0,0l10.1,42.5c0,0,0,0,0,0.1c0,0,0,0,0,0c0,0,0,0,0,0.1
	c0,0,0,0.1,0.1,0.1c0,0,0.1,0.1,0.1,0.1c0,0,0,0,0.1,0.1c0,0,0.1,0,0.1,0.1c0,0,0,0,0.1,0c0.1,0,0.1,0,0.2,0h17.1h13.7
	c0.3,0,0.6-0.2,0.7-0.5C50.1,77.2,50,76.9,49.8,76.7z M46.5,68.8l-11.1,7.8H22l5-2.1c0,0,0.1,0,0.1-0.1l8.9-5.5
	c0.2-0.1,0.3-0.3,0.3-0.5s-0.1-0.4-0.2-0.6l-6.5-5.5V48.4c0,0,0,0,0-0.1c0-0.1,0-0.1,0-0.2c0,0,0-0.1,0-0.1c0,0,0,0,0-0.1l-11-17.9
	l12-6.5L46,41.2L46.5,68.8z M9.2,35.1l8-4.3c0,0,0,0,0,0.1l10.7,17.5L20.2,55c0,0,0,0,0,0l0,0c0,0,0,0,0,0c-0.1,0.1-0.1,0.1-0.1,0.2
	c0,0,0,0.1,0,0.1c0,0.1,0,0.1,0,0.2c0,0,0,0,0,0c0,0,0,0.1,0,0.1c0,0,0,0.1,0,0.1l5.4,17.9L19,76.3L9.2,35.1z M26.6,73L22,57.7
	l12.4,10.5L26.6,73z M28.1,61l-6.4-5.5l6.4-5.6V61z M31.7,22.9l3.8-2l-0.9,5.3L31.7,22.9z M42.4,15.9l-5.6,2.7l-1.1-3.9L42.4,15.9z
	 M18.9,11.8h14.5l2.1,7.5l-25.7,14L18.9,11.8z M37.9,76.6l5.1-3.5c0.1,0,0.1,0,0.1,0.1c0.5,0.3,2.4,1.8,4.3,3.5H37.9z"/>
</svg>
