  0
SECTION
  2
HEADER
  9
$ACADVER
  1
AC1024
  9
$ACADMAINTVER
 70
     6
  9
$DWGCODEPAGE
  3
UNDEFINED
  9
$INSBASE
 10
0.0
 20
0.0
 30
0.0
  9
$EXTMIN
 10
1.000000000000000E+20
 20
1.000000000000000E+20
 30
1.000000000000000E+20
  9
$EXTMAX
 10
-1.000000000000000E+20
 20
-1.000000000000000E+20
 30
-1.000000000000000E+20
  9
$LIMMIN
 10
0.0
 20
0.0
  9
$LIMMAX
 10
12.0
 20
9.0
  9
$ORTHOMODE
 70
     0
  9
$REGENMODE
 70
     1
  9
$FILLMODE
 70
     1
  9
$QTEXTMODE
 70
     0
  9
$MIRRTEXT
 70
     1
  9
$LTSCALE
 40
1.0
  9
$ATTMODE
 70
     1
  9
$TEXTSIZE
 40
0.2
  9
$TRACEWID
 40
0.05
  9
$TEXTSTYLE
  7
Standard
  9
$CLAYER
  8
0
  9
$CELTYPE
  6
ByLayer
  9
$CECOLOR
 62
   256
  9
$CELTSCALE
 40
1.0
  9
$DISPSILH
 70
     0
  9
$DIMSCALE
 40
1.0
  9
$DIMASZ
 40
0.18
  9
$DIMEXO
 40
0.0625
  9
$DIMDLI
 40
0.38
  9
$DIMRND
 40
0.0
  9
$DIMDLE
 40
0.0
  9
$DIMEXE
 40
0.18
  9
$DIMTP
 40
0.0
  9
$DIMTM
 40
0.0
  9
$DIMTXT
 40
0.18
  9
$DIMCEN
 40
0.09
  9
$DIMTSZ
 40
0.0
  9
$DIMTOL
 70
     0
  9
$DIMLIM
 70
     0
  9
$DIMTIH
 70
     1
  9
$DIMTOH
 70
     1
  9
$DIMSE1
 70
     0
  9
$DIMSE2
 70
     0
  9
$DIMTAD
 70
     0
  9
$DIMZIN
 70
     0
  9
$DIMBLK
  1

  9
$DIMASO
 70
     1
  9
$DIMSHO
 70
     1
  9
$DIMPOST
  1

  9
$DIMAPOST
  1

  9
$DIMALT
 70
     0
  9
$DIMALTD
 70
     2
  9
$DIMALTF
 40
25.4
  9
$DIMLFAC
 40
1.0
  9
$DIMTOFL
 70
     0
  9
$DIMTVP
 40
0.0
  9
$DIMTIX
 70
     0
  9
$DIMSOXD
 70
     0
  9
$DIMSAH
 70
     0
  9
$DIMBLK1
  1

  9
$DIMBLK2
  1

  9
$DIMSTYLE
  2
Standard
  9
$DIMCLRD
 70
     0
  9
$DIMCLRE
 70
     0
  9
$DIMCLRT
 70
     0
  9
$DIMTFAC
 40
1.0
  9
$DIMGAP
 40
0.09
  9
$DIMJUST
 70
     0
  9
$DIMSD1
 70
     0
  9
$DIMSD2
 70
     0
  9
$DIMTOLJ
 70
     1
  9
$DIMTZIN
 70
     0
  9
$DIMALTZ
 70
     0
  9
$DIMALTTZ
 70
     0
  9
$DIMUPT
 70
     0
  9
$DIMDEC
 70
     4
  9
$DIMTDEC
 70
     4
  9
$DIMALTU
 70
     2
  9
$DIMALTTD
 70
     2
  9
$DIMTXSTY
  7
Standard
  9
$DIMAUNIT
 70
     0
  9
$DIMADEC
 70
     0
  9
$DIMALTRND
 40
0.0
  9
$DIMAZIN
 70
     0
  9
$DIMDSEP
 70
    46
  9
$DIMATFIT
 70
     3
  9
$DIMFRAC
 70
     0
  9
$DIMLDRBLK
  1

  9
$DIMLUNIT
 70
     2
  9
$DIMLWD
 70
    -2
  9
$DIMLWE
 70
    -2
  9
$DIMTMOVE
 70
     0
  9
$DIMFXL
 40
1.0
  9
$DIMFXLON
 70
     0
  9
$DIMJOGANG
 40
0.7853981633974483
  9
$DIMTFILL
 70
     0
  9
$DIMTFILLCLR
 70
     0
  9
$DIMARCSYM
 70
     0
  9
$DIMLTYPE
  6

  9
$DIMLTEX1
  6

  9
$DIMLTEX2
  6

  9
$DIMTXTDIRECTION
 70
     0
  9
$LUNITS
 70
     2
  9
$LUPREC
 70
     4
  9
$SKETCHINC
 40
0.1
  9
$FILLETRAD
 40
0.5
  9
$AUNITS
 70
     0
  9
$AUPREC
 70
     0
  9
$MENU
  1
.
  9
$ELEVATION
 40
0.0
  9
$PELEVATION
 40
0.0
  9
$THICKNESS
 40
0.0
  9
$LIMCHECK
 70
     0
  9
$CHAMFERA
 40
0.5
  9
$CHAMFERB
 40
0.5
  9
$CHAMFERC
 40
1.0
  9
$CHAMFERD
 40
0.0
  9
$SKPOLY
 70
     0
  9
$TDCREATE
 40
2457525.605428229
  9
$TDUCREATE
 40
2457525.813761574
  9
$TDUPDATE
 40
2457525.605428229
  9
$TDUUPDATE
 40
2457525.813761574
  9
$TDINDWG
 40
0.0000000116
  9
$TDUSRTIMER
 40
0.0000000116
  9
$USRTIMER
 70
     1
  9
$ANGBASE
 50
0.0
  9
$ANGDIR
 70
     0
  9
$PDMODE
 70
     0
  9
$PDSIZE
 40
0.0
  9
$PLINEWID
 40
0.0
  9
$SPLFRAME
 70
     0
  9
$SPLINETYPE
 70
     6
  9
$SPLINESEGS
 70
     8
  9
$HANDSEED
  5
67
  9
$SURFTAB1
 70
     6
  9
$SURFTAB2
 70
     6
  9
$SURFTYPE
 70
     6
  9
$SURFU
 70
     6
  9
$SURFV
 70
     6
  9
$UCSBASE
  2

  9
$UCSNAME
  2

  9
$UCSORG
 10
0.0
 20
0.0
 30
0.0
  9
$UCSXDIR
 10
1.0
 20
0.0
 30
0.0
  9
$UCSYDIR
 10
0.0
 20
1.0
 30
0.0
  9
$UCSORTHOREF
  2

  9
$UCSORTHOVIEW
 70
     0
  9
$UCSORGTOP
 10
0.0
 20
0.0
 30
0.0
  9
$UCSORGBOTTOM
 10
0.0
 20
0.0
 30
0.0
  9
$UCSORGLEFT
 10
0.0
 20
0.0
 30
0.0
  9
$UCSORGRIGHT
 10
0.0
 20
0.0
 30
0.0
  9
$UCSORGFRONT
 10
0.0
 20
0.0
 30
0.0
  9
$UCSORGBACK
 10
0.0
 20
0.0
 30
0.0
  9
$PUCSBASE
  2

  9
$PUCSNAME
  2

  9
$PUCSORG
 10
0.0
 20
0.0
 30
0.0
  9
$PUCSXDIR
 10
1.0
 20
0.0
 30
0.0
  9
$PUCSYDIR
 10
0.0
 20
1.0
 30
0.0
  9
$PUCSORTHOREF
  2

  9
$PUCSORTHOVIEW
 70
     0
  9
$PUCSORGTOP
 10
0.0
 20
0.0
 30
0.0
  9
$PUCSORGBOTTOM
 10
0.0
 20
0.0
 30
0.0
  9
$PUCSORGLEFT
 10
0.0
 20
0.0
 30
0.0
  9
$PUCSORGRIGHT
 10
0.0
 20
0.0
 30
0.0
  9
$PUCSORGFRONT
 10
0.0
 20
0.0
 30
0.0
  9
$PUCSORGBACK
 10
0.0
 20
0.0
 30
0.0
  9
$USERI1
 70
     0
  9
$USERI2
 70
     0
  9
$USERI3
 70
     0
  9
$USERI4
 70
     0
  9
$USERI5
 70
     0
  9
$USERR1
 40
0.0
  9
$USERR2
 40
0.0
  9
$USERR3
 40
0.0
  9
$USERR4
 40
0.0
  9
$USERR5
 40
0.0
  9
$WORLDVIEW
 70
     1
  9
$SHADEDGE
 70
     3
  9
$SHADEDIF
 70
    70
  9
$TILEMODE
 70
     1
  9
$MAXACTVP
 70
    64
  9
$PINSBASE
 10
0.0
 20
0.0
 30
0.0
  9
$PLIMCHECK
 70
     0
  9
$PEXTMIN
 10
1.000000000000000E+20
 20
1.000000000000000E+20
 30
1.000000000000000E+20
  9
$PEXTMAX
 10
-1.000000000000000E+20
 20
-1.000000000000000E+20
 30
-1.000000000000000E+20
  9
$PLIMMIN
 10
0.0
 20
0.0
  9
$PLIMMAX
 10
12.0
 20
9.0
  9
$UNITMODE
 70
     0
  9
$VISRETAIN
 70
     1
  9
$PLINEGEN
 70
     0
  9
$PSLTSCALE
 70
     1
  9
$TREEDEPTH
 70
  3020
  9
$CMLSTYLE
  2
Standard
  9
$CMLJUST
 70
     0
  9
$CMLSCALE
 40
1.0
  9
$PROXYGRAPHICS
 70
     1
  9
$MEASUREMENT
 70
     0
  9
$CELWEIGHT
370
    -1
  9
$ENDCAPS
280
     0
  9
$JOINSTYLE
280
     0
  9
$LWDISPLAY
290
     1
  9
$INSUNITS
 70
     1
  9
$HYPERLINKBASE
  1

  9
$STYLESHEET
  1

  9
$XEDIT
290
     1
  9
$CEPSNTYPE
380
     0
  9
$PSTYLEMODE
290
     1
  9
$FINGERPRINTGUID
  2
{A102465D-3101-998D-92C7-2CC6EBCD2DFB}
  9
$VERSIONGUID
  2
{FAEB1C32-E019-11D5-929B-00C0DF256EC4}
  9
$EXTNAMES
290
     1
  9
$PSVPSCALE
 40
0.0
  9
$OLESTARTUP
290
     0
  9
$SORTENTS
280
   127
  9
$INDEXCTL
280
     0
  9
$HIDETEXT
280
     1
  9
$XCLIPFRAME
280
     2
  9
$HALOGAP
280
     0
  9
$OBSCOLOR
 70
   257
  9
$OBSLTYPE
280
     0
  9
$INTERSECTIONDISPLAY
280
     0
  9
$INTERSECTIONCOLOR
 70
   257
  9
$DIMASSOC
280
     2
  9
$PROJECTNAME
  1

  9
$CAMERADISPLAY
290
     0
  9
$LENSLENGTH
 40
50.0
  9
$CAMERAHEIGHT
 40
0.0
  9
$STEPSPERSEC
 40
2.0
  9
$STEPSIZE
 40
6.0
  9
$3DDWFPREC
 40
2.0
  9
$PSOLWIDTH
 40
0.25
  9
$PSOLHEIGHT
 40
4.0
  9
$LOFTANG1
 40
1.570796326794897
  9
$LOFTANG2
 40
1.570796326794897
  9
$LOFTMAG1
 40
0.0
  9
$LOFTMAG2
 40
0.0
  9
$LOFTPARAM
 70
     7
  9
$LOFTNORMALS
280
     1
  9
$LATITUDE
 40
37.795
  9
$LONGITUDE
 40
-122.394
  9
$NORTHDIRECTION
 40
0.0
  9
$TIMEZONE
 70
 -8000
  9
$LIGHTGLYPHDISPLAY
280
     1
  9
$TILEMODELIGHTSYNCH
280
     1
  9
$CMATERIAL
347
3C
  9
$SOLIDHIST
280
     1
  9
$SHOWHIST
280
     1
  9
$DWFFRAME
280
     2
  9
$DGNFRAME
280
     2
  9
$REALWORLDSCALE
290
     1
  9
$INTERFERECOLOR
 62
   256
  9
$CSHADOW
280
     0
  9
$SHADOWPLANELOCATION
 40
0.0
  0
ENDSEC
  0
SECTION
  2
CLASSES
  0
CLASS
  1
ACDBDICTIONARYWDFLT
  2
AcDbDictionaryWithDefault
  3
ObjectDBX Classes
 90
        0
 91
        4
280
     0
281
     0
  0
CLASS
  1
VISUALSTYLE
  2
AcDbVisualStyle
  3
ObjectDBX Classes
 90
     4095
 91
        4
280
     0
281
     0
  0
CLASS
  1
MATERIAL
  2
AcDbMaterial
  3
ObjectDBX Classes
 90
     1153
 91
        4
280
     0
281
     0
  0
CLASS
  1
SUN
  2
AcDbSun
  3
SCENEOE
 90
     1024
 91
        4
280
     0
281
     0
  0
ENDSEC
  0
SECTION
  2
TABLES
  0
TABLE
  2
VPORT
  5
8
330
0
100
AcDbSymbolTable
 70
     1
  0
VPORT
  5
29
330
8
100
AcDbSymbolTableRecord
100
AcDbViewportTableRecord
  2
*Active
 70
     0
 10
0.0
 20
0.0
 11
1.0
 21
1.0
 12
0.0
 22
0.0
 13
0.0
 23
0.0
 14
0.5
 24
0.5
 15
0.5
 25
0.5
 16
0.0
 26
0.0
 36
1.0
 17
50.0
 27
62.5
 37
0.0
 40
125.0
 41
0.8
 42
50.0
 43
0.0
 44
0.0
 50
0.0
 51
0.0
 71
     0
 72
   100
 73
     1
 74
     3
 75
     0
 76
     0
 77
     0
 78
     0
281
     0
 65
     1
110
0.0
120
0.0
130
0.0
111
1.0
121
0.0
131
0.0
112
0.0
122
1.0
132
0.0
 79
     0
146
0.0
 60
     3
 61
     5
292
     1
282
     1
141
0.0
142
0.0
 63
   250
361
3F
  0
ENDTAB
  0
TABLE
  2
LTYPE
  5
5
330
0
100
AcDbSymbolTable
 70
     1
  0
LTYPE
  5
14
330
5
100
AcDbSymbolTableRecord
100
AcDbLinetypeTableRecord
  2
ByBlock
 70
     0
  3

 72
    65
 73
     0
 40
0.0
  0
LTYPE
  5
15
330
5
100
AcDbSymbolTableRecord
100
AcDbLinetypeTableRecord
  2
ByLayer
 70
     0
  3

 72
    65
 73
     0
 40
0.0
  0
LTYPE
  5
16
330
5
100
AcDbSymbolTableRecord
100
AcDbLinetypeTableRecord
  2
Continuous
 70
     0
  3
Solid line
 72
    65
 73
     0
 40
0.0
  0
ENDTAB
  0
TABLE
  2
LAYER
  5
2
330
0
100
AcDbSymbolTable
 70
     2
  0
LAYER
  5
10
330
2
100
AcDbSymbolTableRecord
100
AcDbLayerTableRecord
  2
0
 70
     0
 62
     7
  6
Continuous
370
    -3
390
F
347
3E
  0
LAYER
  5
40
330
2
100
AcDbSymbolTableRecord
100
AcDbLayerTableRecord
  2
Layer 1
 70
     0
 62
     7
  6
Continuous
370
    -3
390
F
347
3E
  0
ENDTAB
  0
TABLE
  2
STYLE
  5
3
330
0
100
AcDbSymbolTable
 70
     1
  0
STYLE
  5
11
330
3
100
AcDbSymbolTableRecord
100
AcDbTextStyleTableRecord
  2
Standard
 70
     0
 40
0.0
 41
1.0
 50
0.0
 71
     0
 42
0.2
  3
txt
  4

  0
ENDTAB
  0
TABLE
  2
VIEW
  5
6
330
0
100
AcDbSymbolTable
 70
     0
  0
ENDTAB
  0
TABLE
  2
UCS
  5
7
330
0
100
AcDbSymbolTable
 70
     0
  0
ENDTAB
  0
TABLE
  2
APPID
  5
9
330
0
100
AcDbSymbolTable
 70
     1
  0
APPID
  5
12
330
9
100
AcDbSymbolTableRecord
100
AcDbRegAppTableRecord
  2
ACAD
 70
     0
  0
ENDTAB
  0
TABLE
  2
DIMSTYLE
  5
A
330
0
100
AcDbSymbolTable
 70
     1
100
AcDbDimStyleTable
  0
DIMSTYLE
105
27
330
A
100
AcDbSymbolTableRecord
100
AcDbDimStyleTableRecord
  2
Standard
 70
     0
178
     0
340
11
  0
ENDTAB
  0
TABLE
  2
BLOCK_RECORD
  5
1
330
0
100
AcDbSymbolTable
 70
     1
  0
BLOCK_RECORD
  5
1F
330
1
100
AcDbSymbolTableRecord
100
AcDbBlockTableRecord
  2
*Model_Space
340
22
 70
     0
280
     1
281
     0
  0
BLOCK_RECORD
  5
1B
330
1
100
AcDbSymbolTableRecord
100
AcDbBlockTableRecord
  2
*Paper_Space
340
1E
 70
     0
280
     1
281
     0
  0
BLOCK_RECORD
  5
23
330
1
100
AcDbSymbolTableRecord
100
AcDbBlockTableRecord
  2
*Paper_Space0
340
26
 70
     0
280
     1
281
     0
  0
ENDTAB
  0
ENDSEC
  0
SECTION
  2
BLOCKS
  0
BLOCK
  5
20
330
1F
100
AcDbEntity
  8
0
100
AcDbBlockBegin
  2
*Model_Space
 70
     0
 10
0.0
 20
0.0
 30
0.0
  3
*Model_Space
  1

  0
ENDBLK
  5
21
330
1F
100
AcDbEntity
  8
0
100
AcDbBlockEnd
  0
BLOCK
  5
1C
330
1B
100
AcDbEntity
 67
     1
  8
0
100
AcDbBlockBegin
  2
*Paper_Space
 70
     0
 10
0.0
 20
0.0
 30
0.0
  3
*Paper_Space
  1

  0
ENDBLK
  5
1D
330
1B
100
AcDbEntity
 67
     1
  8
0
100
AcDbBlockEnd
  0
BLOCK
  5
24
330
23
100
AcDbEntity
  8
0
100
AcDbBlockBegin
  2
*Paper_Space0
 70
     0
 10
0.0
 20
0.0
 30
0.0
  3
*Paper_Space0
  1

  0
ENDBLK
  5
25
330
23
100
AcDbEntity
  8
0
100
AcDbBlockEnd
  0
ENDSEC
  0
SECTION
  2
ENTITIES
  0
SPLINE
  5
41
330
1F
100
AcDbEntity
  8
Layer 1
370
     0
100
AcDbSpline
210
0.0
220
0.0
230
1.0
 70
    11
 71
     3
 72
   107
 73
   103
 74
     0
 42
0.0000000001
 43
0.0000000001
 12
1.0
 22
0.0
 32
0.0
 13
1.0
 23
0.0
 33
0.0
 40
0.0
 40
0.0
 40
0.0
 40
0.0
 40
1.0
 40
1.0
 40
1.0
 40
2.0
 40
2.0
 40
2.0
 40
3.0
 40
3.0
 40
3.0
 40
4.0
 40
4.0
 40
4.0
 40
5.0
 40
5.0
 40
5.0
 40
6.0
 40
6.0
 40
6.0
 40
7.0
 40
7.0
 40
7.0
 40
8.0
 40
8.0
 40
8.0
 40
9.0
 40
9.0
 40
9.0
 40
10.0
 40
10.0
 40
10.0
 40
11.0
 40
11.0
 40
11.0
 40
12.0
 40
12.0
 40
12.0
 40
13.0
 40
13.0
 40
13.0
 40
14.0
 40
14.0
 40
14.0
 40
15.0
 40
15.0
 40
15.0
 40
16.0
 40
16.0
 40
16.0
 40
17.0
 40
17.0
 40
17.0
 40
18.0
 40
18.0
 40
18.0
 40
19.0
 40
19.0
 40
19.0
 40
20.0
 40
20.0
 40
20.0
 40
21.0
 40
21.0
 40
21.0
 40
22.0
 40
22.0
 40
22.0
 40
23.0
 40
23.0
 40
23.0
 40
24.0
 40
24.0
 40
24.0
 40
25.0
 40
25.0
 40
25.0
 40
26.0
 40
26.0
 40
26.0
 40
27.0
 40
27.0
 40
27.0
 40
28.0
 40
28.0
 40
28.0
 40
29.0
 40
29.0
 40
29.0
 40
30.0
 40
30.0
 40
30.0
 40
31.0
 40
31.0
 40
31.0
 40
32.0
 40
32.0
 40
32.0
 40
33.0
 40
33.0
 40
33.0
 40
34.0
 40
34.0
 40
34.0
 40
34.0
 10
49.76105676185034
 20
48.27099609375
 30
0.0
 10
46.73606286536597
 20
50.94500732421875
 30
0.0
 10
45.1260622550144
 20
52.26300048828125
 30
0.0
 10
44.20606408606909
 20
52.8800048828125
 30
0.0
 10
44.20606408606909
 20
52.8800048828125
 30
0.0
 10
47.63807092200659
 20
55.27499389648438
 30
0.0
 10
47.63807092200659
 20
55.27499389648438
 30
0.0
 10
47.83207116614722
 20
55.41000366210938
 30
0.0
 10
47.94606957923315
 20
55.63299560546875
 30
0.0
 10
47.94207177649878
 20
55.8699951171875
 30
0.0
 10
47.94207177649878
 20
55.8699951171875
 30
0.0
 10
47.39507470618628
 20
84.10498046875
 30
0.0
 10
47.39507470618628
 20
84.10498046875
 30
0.0
 10
47.3910769034519
 20
84.27297973632812
 30
0.0
 10
47.32908044349097
 20
84.43496704101562
 30
0.0
 10
47.21607385169409
 20
84.56097412109375
 30
0.0
 10
47.21607385169409
 20
84.56097412109375
 30
0.0
 10
35.78907189856909
 20
97.4639892578125
 30
0.0
 10
35.78907189856909
 20
97.4639892578125
 30
0.0
 10
35.78907189856909
 20
97.4639892578125
 30
0.0
 10
37.05407128821753
 20
104.9649963378906
 30
0.0
 10
37.05407128821753
 20
104.9649963378906
 30
0.0
 10
37.05407128821753
 20
104.9649963378906
 30
0.0
 10
45.02506433020972
 20
108.7730102539062
 30
0.0
 10
45.02506433020972
 20
108.7730102539062
 30
0.0
 10
45.30205712806128
 20
108.906005859375
 30
0.0
 10
45.46306787024878
 20
109.2019958496094
 30
0.0
 10
45.42106042395972
 20
109.5060119628906
 30
0.0
 10
45.3810671378269
 20
109.8110046386719
 30
0.0
 10
45.14905725013159
 20
110.0540161132812
 30
0.0
 10
44.84705529700659
 20
110.1100158691406
 30
0.0
 10
44.84705529700659
 20
110.1100158691406
 30
0.0
 10
35.31205163489722
 20
111.8560180664062
 30
0.0
 10
35.31205163489722
 20
111.8560180664062
 30
0.0
 10
35.31205163489722
 20
111.8560180664062
 30
0.0
 10
34.65204797278784
 20
114.1540222167969
 30
0.0
 10
34.65204797278784
 20
114.1540222167969
 30
0.0
 10
34.56504235755347
 20
114.4580078125
 30
0.0
 10
34.2880495597019
 20
114.6680297851562
 30
0.0
 10
33.97104821692847
 20
114.6680297851562
 30
0.0
 10
33.97104821692847
 20
114.6680297851562
 30
0.0
 10
18.46705041419409
 20
114.6680297851562
 30
0.0
 10
18.46705041419409
 20
114.6680297851562
 30
0.0
 10
18.18305383216284
 20
114.6680297851562
 30
0.0
 10
17.92605004798315
 20
114.4980163574219
 30
0.0
 10
17.81505761634253
 20
114.2350158691406
 30
0.0
 10
17.81505761634253
 20
114.2350158691406
 30
0.0
 10
7.741052489389403
 20
90.49502563476562
 30
0.0
 10
7.741052489389403
 20
90.49502563476562
 30
0.0
 10
7.726053099740966
 20
90.4620361328125
 30
0.0
 10
7.724054198373778
 20
90.42703247070312
 30
0.0
 10
7.716058592905028
 20
90.39202880859375
 30
0.0
 10
7.708062987436278
 20
90.36502075195312
 30
0.0
 10
7.699060301889403
 20
90.33901977539062
 30
0.0
 10
7.695062499155028
 20
90.31204223632812
 30
0.0
 10
7.683069090951903
 20
90.22705078125
 30
0.0
 10
7.684060912240966
 20
90.14202880859375
 30
0.0
 10
7.704065184701903
 20
90.05905151367188
 30
0.0
 10
7.704065184701903
 20
90.05804443359375
 30
0.0
 10
7.704065184701903
 20
90.05606079101562
 30
0.0
 10
7.704065184701903
 20
90.0550537109375
 30
0.0
 10
7.704065184701903
 20
90.0550537109375
 30
0.0
 10
17.77807031165503
 20
47.5760498046875
 30
0.0
 10
17.77807031165503
 20
47.5760498046875
 30
0.0
 10
17.78307519446753
 20
47.55404663085938
 30
0.0
 10
17.79706750403784
 20
47.53704833984375
 30
0.0
 10
17.8030642081394
 20
47.51504516601562
 30
0.0
 10
17.80906091224097
 20
47.49905395507812
 30
0.0
 10
17.80607018958472
 20
47.4830322265625
 30
0.0
 10
17.81305871497534
 20
47.467041015625
 30
0.0
 10
17.82305322181128
 20
47.44503784179688
 30
0.0
 10
17.83805261145972
 20
47.42703247070312
 30
0.0
 10
17.8500612784519
 20
47.40603637695312
 30
0.0
 10
17.86606774817847
 20
47.37704467773438
 30
0.0
 10
17.88006005774878
 20
47.34902954101562
 30
0.0
 10
17.90006433020972
 20
47.32403564453125
 30
0.0
 10
17.92505822669409
 20
47.28802490234375
 30
0.0
 10
17.95606408606909
 20
47.25704956054688
 30
0.0
 10
17.98706994544409
 20
47.22705078125
 30
0.0
 10
18.00907311927222
 20
47.2060546875
 30
0.0
 10
18.03006921302222
 20
47.18505859375
 30
0.0
 10
18.05407128821753
 20
47.16705322265625
 30
0.0
 10
18.09206567298315
 20
47.14004516601562
 30
0.0
 10
18.13306603919409
 20
47.11904907226562
 30
0.0
 10
18.17606530677222
 20
47.10006713867188
 30
0.0
 10
18.20006738196753
 20
47.08807373046875
 30
0.0
 10
18.22207055579565
 20
47.0750732421875
 30
0.0
 10
18.24706445228003
 20
47.06607055664062
 30
0.0
 10
18.31806359778784
 20
47.0440673828125
 30
0.0
 10
18.39206872474097
 20
47.02908325195312
 30
0.0
 10
18.46706567298315
 20
47.02908325195312
 30
0.0
 10
18.46706567298315
 20
47.02908325195312
 30
0.0
 10
35.60206017981909
 20
47.02908325195312
 30
0.0
 10
35.60206017981909
 20
47.02908325195312
 30
0.0
 10
35.60206017981909
 20
47.02908325195312
 30
0.0
 10
49.29105554114722
 20
47.02908325195312
 30
0.0
 10
49.29105554114722
 20
47.02908325195312
 30
0.0
 10
49.58605371009253
 20
47.02908325195312
 30
0.0
 10
49.8500612784519
 20
47.21209716796875
 30
0.0
 10
49.95404992591284
 20
47.48709106445312
 30
0.0
 10
50.05805383216284
 20
47.76400756835938
 30
0.0
 10
49.98204980384253
 20
48.07598876953125
 30
0.0
 10
49.76105676185034
 20
48.27099609375
 30
0.0
  0
SPLINE
  5
42
330
1F
100
AcDbEntity
  8
Layer 1
370
     0
100
AcDbSpline
210
0.0
220
0.0
230
1.0
 70
    11
 71
     3
 72
    56
 73
    52
 74
     0
 42
0.0000000001
 43
0.0000000001
 12
1.0
 22
0.0
 32
0.0
 13
1.0
 23
0.0
 33
0.0
 40
0.0
 40
0.0
 40
0.0
 40
0.0
 40
1.0
 40
1.0
 40
1.0
 40
2.0
 40
2.0
 40
2.0
 40
3.0
 40
3.0
 40
3.0
 40
4.0
 40
4.0
 40
4.0
 40
5.0
 40
5.0
 40
5.0
 40
6.0
 40
6.0
 40
6.0
 40
7.0
 40
7.0
 40
7.0
 40
8.0
 40
8.0
 40
8.0
 40
9.0
 40
9.0
 40
9.0
 40
10.0
 40
10.0
 40
10.0
 40
11.0
 40
11.0
 40
11.0
 40
12.0
 40
12.0
 40
12.0
 40
13.0
 40
13.0
 40
13.0
 40
14.0
 40
14.0
 40
14.0
 40
15.0
 40
15.0
 40
15.0
 40
16.0
 40
16.0
 40
16.0
 40
17.0
 40
17.0
 40
17.0
 40
17.0
 10
46.5170534659519
 20
56.22000122070312
 30
0.0
 10
46.5170534659519
 20
56.22000122070312
 30
0.0
 10
35.37905297767065
 20
48.44900512695312
 30
0.0
 10
35.37905297767065
 20
48.44900512695312
 30
0.0
 10
35.37905297767065
 20
48.44900512695312
 30
0.0
 10
22.02405725013159
 20
48.44900512695312
 30
0.0
 10
22.02405725013159
 20
48.44900512695312
 30
0.0
 10
22.02405725013159
 20
48.44900512695312
 30
0.0
 10
26.98905358802222
 20
50.510009765625
 30
0.0
 10
26.98905358802222
 20
50.510009765625
 30
0.0
 10
27.02504907142065
 20
50.5250244140625
 30
0.0
 10
27.05906091224097
 20
50.54202270507812
 30
0.0
 10
27.09305749427222
 20
50.56301879882812
 30
0.0
 10
27.09305749427222
 20
50.56301879882812
 30
0.0
 10
35.97805200110815
 20
56.0980224609375
 30
0.0
 10
35.97805200110815
 20
56.0980224609375
 30
0.0
 10
36.16904626380347
 20
56.218017578125
 30
0.0
 10
36.2930544425144
 20
56.42202758789062
 30
0.0
 10
36.31005273353003
 20
56.64801025390625
 30
0.0
 10
36.32705102454565
 20
56.87399291992188
 30
0.0
 10
36.23404870520972
 20
57.093017578125
 30
0.0
 10
36.06205163489722
 20
57.24002075195312
 30
0.0
 10
36.06205163489722
 20
57.24002075195312
 30
0.0
 10
29.56604943763159
 20
62.760009765625
 30
0.0
 10
29.56604943763159
 20
62.760009765625
 30
0.0
 10
29.56604943763159
 20
62.760009765625
 30
0.0
 10
29.56604943763159
 20
76.55001831054688
 30
0.0
 10
29.56604943763159
 20
76.55001831054688
 30
0.0
 10
29.56604943763159
 20
76.57101440429688
 30
0.0
 10
29.55605493079565
 20
76.5880126953125
 30
0.0
 10
29.55405602942847
 20
76.6090087890625
 30
0.0
 10
29.55005822669409
 20
76.6610107421875
 30
0.0
 10
29.53905663978003
 20
76.71099853515625
 30
0.0
 10
29.52305017005347
 20
76.76101684570312
 30
0.0
 10
29.51105676185034
 20
76.79901123046875
 30
0.0
 10
29.49904809485815
 20
76.83502197265625
 30
0.0
 10
29.48005090247534
 20
76.87002563476562
 30
0.0
 10
29.47205529700659
 20
76.88702392578125
 30
0.0
 10
29.4700563956394
 20
76.905029296875
 30
0.0
 10
29.4600466300144
 20
76.9210205078125
 30
0.0
 10
29.4600466300144
 20
76.9210205078125
 30
0.0
 10
18.43705163489722
 20
94.87002563476562
 30
0.0
 10
18.43705163489722
 20
94.87002563476562
 30
0.0
 10
18.43705163489722
 20
94.87002563476562
 30
0.0
 10
30.42605004798315
 20
101.3850402832031
 30
0.0
 10
30.42605004798315
 20
101.3850402832031
 30
0.0
 10
30.42605004798315
 20
101.3850402832031
 30
0.0
 10
45.98404870520972
 20
83.81903076171875
 30
0.0
 10
45.98404870520972
 20
83.81903076171875
 30
0.0
 10
45.98404870520972
 20
83.81903076171875
 30
0.0
 10
46.5170534659519
 20
56.22000122070312
 30
0.0
 10
46.5170534659519
 20
56.22000122070312
 30
0.0
  0
SPLINE
  5
43
330
1F
100
AcDbEntity
  8
Layer 1
370
     0
100
AcDbSpline
210
0.0
220
0.0
230
1.0
 70
    11
 71
     3
 72
    53
 73
    49
 74
     0
 42
0.0000000001
 43
0.0000000001
 12
1.0
 22
0.0
 32
0.0
 13
1.0
 23
0.0
 33
0.0
 40
0.0
 40
0.0
 40
0.0
 40
0.0
 40
1.0
 40
1.0
 40
1.0
 40
2.0
 40
2.0
 40
2.0
 40
3.0
 40
3.0
 40
3.0
 40
4.0
 40
4.0
 40
4.0
 40
5.0
 40
5.0
 40
5.0
 40
6.0
 40
6.0
 40
6.0
 40
7.0
 40
7.0
 40
7.0
 40
8.0
 40
8.0
 40
8.0
 40
9.0
 40
9.0
 40
9.0
 40
10.0
 40
10.0
 40
10.0
 40
11.0
 40
11.0
 40
11.0
 40
12.0
 40
12.0
 40
12.0
 40
13.0
 40
13.0
 40
13.0
 40
14.0
 40
14.0
 40
14.0
 40
15.0
 40
15.0
 40
15.0
 40
16.0
 40
16.0
 40
16.0
 40
16.0
 10
9.207055907358153
 20
89.85400390625
 30
0.0
 10
9.207055907358153
 20
89.85400390625
 30
0.0
 10
17.19805322181128
 20
94.19699096679688
 30
0.0
 10
17.19805322181128
 20
94.19699096679688
 30
0.0
 10
17.20705590735815
 20
94.17999267578125
 30
0.0
 10
17.20705590735815
 20
94.1619873046875
 30
0.0
 10
17.21705041419409
 20
94.14599609375
 30
0.0
 10
17.21705041419409
 20
94.14599609375
 30
0.0
 10
27.93705163489722
 20
76.69100952148438
 30
0.0
 10
27.93705163489722
 20
76.69100952148438
 30
0.0
 10
27.93705163489722
 20
76.69100952148438
 30
0.0
 10
20.16605554114722
 20
69.98001098632812
 30
0.0
 10
20.16605554114722
 20
69.98001098632812
 30
0.0
 10
20.16405663978003
 20
69.97799682617188
 30
0.0
 10
20.16205773841284
 20
69.97601318359375
 30
0.0
 10
20.16005883704565
 20
69.9739990234375
 30
0.0
 10
20.16005883704565
 20
69.9739990234375
 30
0.0
 10
20.15305505286597
 20
69.96798706054688
 30
0.0
 10
20.15305505286597
 20
69.96798706054688
 30
0.0
 10
20.14306054603003
 20
69.958984375
 30
0.0
 10
20.13904748450659
 20
69.94598388671875
 30
0.0
 10
20.13006005774878
 20
69.93698120117188
 30
0.0
 10
20.07006249915503
 20
69.87896728515625
 30
0.0
 10
20.02005944739722
 20
69.81597900390625
 30
0.0
 10
19.98406396399878
 20
69.74298095703125
 30
0.0
 10
19.96906457435034
 20
69.71298217773438
 30
0.0
 10
19.96405969153784
 20
69.67898559570312
 30
0.0
 10
19.95505700599097
 20
69.64599609375
 30
0.0
 10
19.93505273353003
 20
69.58599853515625
 30
0.0
 10
19.91906152259253
 20
69.52899169921875
 30
0.0
 10
19.91605554114722
 20
69.46499633789062
 30
0.0
 10
19.91504846106909
 20
69.45199584960938
 30
0.0
 10
19.90805993567847
 20
69.44198608398438
 30
0.0
 10
19.90805993567847
 20
69.42898559570312
 30
0.0
 10
19.90805993567847
 20
69.39898681640625
 30
0.0
 10
19.92406640540503
 20
69.37197875976562
 30
0.0
 10
19.9280642081394
 20
69.34298706054688
 30
0.0
 10
19.9330690909519
 20
69.30398559570312
 30
0.0
 10
19.92705712806128
 20
69.2659912109375
 30
0.0
 10
19.93906579505347
 20
69.22698974609375
 30
0.0
 10
19.93906579505347
 20
69.22698974609375
 30
0.0
 10
25.34307275306128
 20
51.3599853515625
 30
0.0
 10
25.34307275306128
 20
51.3599853515625
 30
0.0
 10
25.34307275306128
 20
51.3599853515625
 30
0.0
 10
18.96706567298315
 20
48.7139892578125
 30
0.0
 10
18.96706567298315
 20
48.7139892578125
 30
0.0
 10
18.96706567298315
 20
48.7139892578125
 30
0.0
 10
9.207055907358153
 20
89.85400390625
 30
0.0
 10
9.207055907358153
 20
89.85400390625
 30
0.0
  0
POLYLINE
  5
44
330
1F
100
AcDbEntity
  8
Layer 1
370
     0
100
AcDb2dPolyline
 66
     1
 10
0.0
 20
0.0
 30
0.0
  0
VERTEX
  5
45
330
44
100
AcDbEntity
  8
Layer 1
370
     0
100
AcDbVertex
100
AcDb2dVertex
 10
26.64405236731909
 20
51.9530029296875
 30
0.0
  0
VERTEX
  5
46
330
44
100
AcDbEntity
  8
Layer 1
370
     0
100
AcDbVertex
100
AcDb2dVertex
 10
21.99205956946753
 20
67.33401489257812
 30
0.0
  0
VERTEX
  5
47
330
44
100
AcDbEntity
  8
Layer 1
370
     0
100
AcDbVertex
100
AcDb2dVertex
 10
34.40406213294409
 20
56.78701782226562
 30
0.0
  0
VERTEX
  5
48
330
44
100
AcDbEntity
  8
Layer 1
370
     0
100
AcDbVertex
100
AcDb2dVertex
 10
26.64405236731909
 20
51.9530029296875
 30
0.0
  0
SEQEND
  5
49
330
44
100
AcDbEntity
  8
Layer 1
370
     0
  0
POLYLINE
  5
4A
330
1F
100
AcDbEntity
  8
Layer 1
370
     0
100
AcDb2dPolyline
 66
     1
 10
0.0
 20
0.0
 30
0.0
  0
VERTEX
  5
4B
330
4A
100
AcDbEntity
  8
Layer 1
370
     0
100
AcDbVertex
100
AcDb2dVertex
 10
28.14704308997534
 20
63.96200561523438
 30
0.0
  0
VERTEX
  5
4C
330
4A
100
AcDbEntity
  8
Layer 1
370
     0
100
AcDbVertex
100
AcDb2dVertex
 10
21.7050417472019
 20
69.43600463867188
 30
0.0
  0
VERTEX
  5
4D
330
4A
100
AcDbEntity
  8
Layer 1
370
     0
100
AcDbVertex
100
AcDb2dVertex
 10
28.14704308997534
 20
75.0
 30
0.0
  0
VERTEX
  5
4E
330
4A
100
AcDbEntity
  8
Layer 1
370
     0
100
AcDbVertex
100
AcDb2dVertex
 10
28.14704308997534
 20
63.96200561523438
 30
0.0
  0
SEQEND
  5
4F
330
4A
100
AcDbEntity
  8
Layer 1
370
     0
  0
POLYLINE
  5
50
330
1F
100
AcDbEntity
  8
Layer 1
370
     0
100
AcDb2dPolyline
 66
     1
 10
0.0
 20
0.0
 30
0.0
  0
VERTEX
  5
51
330
50
100
AcDbEntity
  8
Layer 1
370
     0
100
AcDbVertex
100
AcDb2dVertex
 10
31.70304284583472
 20
102.0780029296875
 30
0.0
  0
VERTEX
  5
52
330
50
100
AcDbEntity
  8
Layer 1
370
     0
100
AcDbVertex
100
AcDb2dVertex
 10
35.47403893958472
 20
104.1279907226562
 30
0.0
  0
VERTEX
  5
53
330
50
100
AcDbEntity
  8
Layer 1
370
     0
100
AcDbVertex
100
AcDb2dVertex
 10
34.57903466712378
 20
98.8289794921875
 30
0.0
  0
VERTEX
  5
54
330
50
100
AcDbEntity
  8
Layer 1
370
     0
100
AcDbVertex
100
AcDb2dVertex
 10
31.70304284583472
 20
102.0780029296875
 30
0.0
  0
SEQEND
  5
55
330
50
100
AcDbEntity
  8
Layer 1
370
     0
  0
POLYLINE
  5
56
330
1F
100
AcDbEntity
  8
Layer 1
370
     0
100
AcDb2dPolyline
 66
     1
 10
0.0
 20
0.0
 30
0.0
  0
VERTEX
  5
57
330
56
100
AcDbEntity
  8
Layer 1
370
     0
100
AcDbVertex
100
AcDb2dVertex
 10
42.44104943763159
 20
109.1099853515625
 30
0.0
  0
VERTEX
  5
58
330
56
100
AcDbEntity
  8
Layer 1
370
     0
100
AcDbVertex
100
AcDb2dVertex
 10
36.8660524893894
 20
106.4459838867188
 30
0.0
  0
VERTEX
  5
59
330
56
100
AcDbEntity
  8
Layer 1
370
     0
100
AcDbVertex
100
AcDb2dVertex
 10
35.74904809485815
 20
110.3349914550781
 30
0.0
  0
VERTEX
  5
5A
330
56
100
AcDbEntity
  8
Layer 1
370
     0
100
AcDbVertex
100
AcDb2dVertex
 10
42.44104943763159
 20
109.1099853515625
 30
0.0
  0
SEQEND
  5
5B
330
56
100
AcDbEntity
  8
Layer 1
370
     0
  0
POLYLINE
  5
5C
330
1F
100
AcDbEntity
  8
Layer 1
370
     0
100
AcDb2dPolyline
 66
     1
 10
0.0
 20
0.0
 30
0.0
  0
VERTEX
  5
5D
330
5C
100
AcDbEntity
  8
Layer 1
370
     0
100
AcDbVertex
100
AcDb2dVertex
 10
18.93604455481909
 20
113.2489929199219
 30
0.0
  0
VERTEX
  5
5E
330
5C
100
AcDbEntity
  8
Layer 1
370
     0
100
AcDbVertex
100
AcDb2dVertex
 10
33.43705163489722
 20
113.2489929199219
 30
0.0
  0
VERTEX
  5
5F
330
5C
100
AcDbEntity
  8
Layer 1
370
     0
100
AcDbVertex
100
AcDb2dVertex
 10
35.57904992591284
 20
105.7959899902344
 30
0.0
  0
VERTEX
  5
60
330
5C
100
AcDbEntity
  8
Layer 1
370
     0
100
AcDbVertex
100
AcDb2dVertex
 10
9.839044432748778
 20
91.80999755859375
 30
0.0
  0
VERTEX
  5
61
330
5C
100
AcDbEntity
  8
Layer 1
370
     0
100
AcDbVertex
100
AcDb2dVertex
 10
18.93604455481909
 20
113.2489929199219
 30
0.0
  0
SEQEND
  5
62
330
5C
100
AcDbEntity
  8
Layer 1
370
     0
  0
SPLINE
  5
63
330
1F
100
AcDbEntity
  8
Layer 1
370
     0
100
AcDbSpline
210
0.0
220
0.0
230
1.0
 70
    11
 71
     3
 72
    17
 73
    13
 74
     0
 42
0.0000000001
 43
0.0000000001
 12
1.0
 22
0.0
 32
0.0
 13
1.0
 23
0.0
 33
0.0
 40
0.0
 40
0.0
 40
0.0
 40
0.0
 40
1.0
 40
1.0
 40
1.0
 40
2.0
 40
2.0
 40
2.0
 40
3.0
 40
3.0
 40
3.0
 40
4.0
 40
4.0
 40
4.0
 40
4.0
 10
37.85605798255347
 20
48.44900512695312
 30
0.0
 10
37.85605798255347
 20
48.44900512695312
 30
0.0
 10
42.92205224524878
 20
51.9840087890625
 30
0.0
 10
42.92205224524878
 20
51.9840087890625
 30
0.0
 10
42.97205529700659
 20
51.96600341796875
 30
0.0
 10
43.01804528724097
 20
51.93899536132812
 30
0.0
 10
43.07004724036597
 20
51.93301391601562
 30
0.0
 10
43.59404931556128
 20
51.6510009765625
 30
0.0
 10
45.46105371009253
 20
50.12200927734375
 30
0.0
 10
47.40204797278784
 20
48.44900512695312
 30
0.0
 10
47.40204797278784
 20
48.44900512695312
 30
0.0
 10
37.85605798255347
 20
48.44900512695312
 30
0.0
 10
37.85605798255347
 20
48.44900512695312
 30
0.0
  0
HATCH
  5
64
330
1F
100
AcDbEntity
  8
Layer 1
 62
     7
420
 16777215
100
AcDbHatch
 10
0.0
 20
0.0
 30
0.0
210
0.0
220
0.0
230
1.0
  2
SOLID
 70
     1
 71
     0
 91
        9
 92
        1
 93
        1
 72
     4
 94
        3
 73
     0
 74
     1
 95
      107
 96
      103
 40
0.0
 40
0.0
 40
0.0
 40
0.0
 40
1.0
 40
1.0
 40
1.0
 40
2.0
 40
2.0
 40
2.0
 40
3.0
 40
3.0
 40
3.0
 40
4.0
 40
4.0
 40
4.0
 40
5.0
 40
5.0
 40
5.0
 40
6.0
 40
6.0
 40
6.0
 40
7.0
 40
7.0
 40
7.0
 40
8.0
 40
8.0
 40
8.0
 40
9.0
 40
9.0
 40
9.0
 40
10.0
 40
10.0
 40
10.0
 40
11.0
 40
11.0
 40
11.0
 40
12.0
 40
12.0
 40
12.0
 40
13.0
 40
13.0
 40
13.0
 40
14.0
 40
14.0
 40
14.0
 40
15.0
 40
15.0
 40
15.0
 40
16.0
 40
16.0
 40
16.0
 40
17.0
 40
17.0
 40
17.0
 40
18.0
 40
18.0
 40
18.0
 40
19.0
 40
19.0
 40
19.0
 40
20.0
 40
20.0
 40
20.0
 40
21.0
 40
21.0
 40
21.0
 40
22.0
 40
22.0
 40
22.0
 40
23.0
 40
23.0
 40
23.0
 40
24.0
 40
24.0
 40
24.0
 40
25.0
 40
25.0
 40
25.0
 40
26.0
 40
26.0
 40
26.0
 40
27.0
 40
27.0
 40
27.0
 40
28.0
 40
28.0
 40
28.0
 40
29.0
 40
29.0
 40
29.0
 40
30.0
 40
30.0
 40
30.0
 40
31.0
 40
31.0
 40
31.0
 40
32.0
 40
32.0
 40
32.0
 40
33.0
 40
33.0
 40
33.0
 40
34.0
 40
34.0
 40
34.0
 40
34.0
 10
49.76105676185034
 20
48.27099609375
 10
46.73606286536597
 20
50.94500732421875
 10
45.1260622550144
 20
52.26300048828125
 10
44.20606408606909
 20
52.8800048828125
 10
44.20606408606909
 20
52.8800048828125
 10
47.63807092200659
 20
55.27499389648438
 10
47.63807092200659
 20
55.27499389648438
 10
47.83207116614722
 20
55.41000366210938
 10
47.94606957923315
 20
55.63299560546875
 10
47.94207177649878
 20
55.8699951171875
 10
47.94207177649878
 20
55.8699951171875
 10
47.39507470618628
 20
84.10498046875
 10
47.39507470618628
 20
84.10498046875
 10
47.3910769034519
 20
84.27297973632812
 10
47.32908044349097
 20
84.43496704101562
 10
47.21607385169409
 20
84.56097412109375
 10
47.21607385169409
 20
84.56097412109375
 10
35.78907189856909
 20
97.4639892578125
 10
35.78907189856909
 20
97.4639892578125
 10
35.78907189856909
 20
97.4639892578125
 10
37.05407128821753
 20
104.9649963378906
 10
37.05407128821753
 20
104.9649963378906
 10
37.05407128821753
 20
104.9649963378906
 10
45.02506433020972
 20
108.7730102539062
 10
45.02506433020972
 20
108.7730102539062
 10
45.30205712806128
 20
108.906005859375
 10
45.46306787024878
 20
109.2019958496094
 10
45.42106042395972
 20
109.5060119628906
 10
45.3810671378269
 20
109.8110046386719
 10
45.14905725013159
 20
110.0540161132812
 10
44.84705529700659
 20
110.1100158691406
 10
44.84705529700659
 20
110.1100158691406
 10
35.31205163489722
 20
111.8560180664062
 10
35.31205163489722
 20
111.8560180664062
 10
35.31205163489722
 20
111.8560180664062
 10
34.65204797278784
 20
114.1540222167969
 10
34.65204797278784
 20
114.1540222167969
 10
34.56504235755347
 20
114.4580078125
 10
34.2880495597019
 20
114.6680297851562
 10
33.97104821692847
 20
114.6680297851562
 10
33.97104821692847
 20
114.6680297851562
 10
18.46705041419409
 20
114.6680297851562
 10
18.46705041419409
 20
114.6680297851562
 10
18.18305383216284
 20
114.6680297851562
 10
17.92605004798315
 20
114.4980163574219
 10
17.81505761634253
 20
114.2350158691406
 10
17.81505761634253
 20
114.2350158691406
 10
7.741052489389403
 20
90.49502563476562
 10
7.741052489389403
 20
90.49502563476562
 10
7.726053099740966
 20
90.4620361328125
 10
7.724054198373778
 20
90.42703247070312
 10
7.716058592905028
 20
90.39202880859375
 10
7.708062987436278
 20
90.36502075195312
 10
7.699060301889403
 20
90.33901977539062
 10
7.695062499155028
 20
90.31204223632812
 10
7.683069090951903
 20
90.22705078125
 10
7.684060912240966
 20
90.14202880859375
 10
7.704065184701903
 20
90.05905151367188
 10
7.704065184701903
 20
90.05804443359375
 10
7.704065184701903
 20
90.05606079101562
 10
7.704065184701903
 20
90.0550537109375
 10
7.704065184701903
 20
90.0550537109375
 10
17.77807031165503
 20
47.5760498046875
 10
17.77807031165503
 20
47.5760498046875
 10
17.78307519446753
 20
47.55404663085938
 10
17.79706750403784
 20
47.53704833984375
 10
17.8030642081394
 20
47.51504516601562
 10
17.80906091224097
 20
47.49905395507812
 10
17.80607018958472
 20
47.4830322265625
 10
17.81305871497534
 20
47.467041015625
 10
17.82305322181128
 20
47.44503784179688
 10
17.83805261145972
 20
47.42703247070312
 10
17.8500612784519
 20
47.40603637695312
 10
17.86606774817847
 20
47.37704467773438
 10
17.88006005774878
 20
47.34902954101562
 10
17.90006433020972
 20
47.32403564453125
 10
17.92505822669409
 20
47.28802490234375
 10
17.95606408606909
 20
47.25704956054688
 10
17.98706994544409
 20
47.22705078125
 10
18.00907311927222
 20
47.2060546875
 10
18.03006921302222
 20
47.18505859375
 10
18.05407128821753
 20
47.16705322265625
 10
18.09206567298315
 20
47.14004516601562
 10
18.13306603919409
 20
47.11904907226562
 10
18.17606530677222
 20
47.10006713867188
 10
18.20006738196753
 20
47.08807373046875
 10
18.22207055579565
 20
47.0750732421875
 10
18.24706445228003
 20
47.06607055664062
 10
18.31806359778784
 20
47.0440673828125
 10
18.39206872474097
 20
47.02908325195312
 10
18.46706567298315
 20
47.02908325195312
 10
18.46706567298315
 20
47.02908325195312
 10
35.60206017981909
 20
47.02908325195312
 10
35.60206017981909
 20
47.02908325195312
 10
35.60206017981909
 20
47.02908325195312
 10
49.29105554114722
 20
47.02908325195312
 10
49.29105554114722
 20
47.02908325195312
 10
49.58605371009253
 20
47.02908325195312
 10
49.8500612784519
 20
47.21209716796875
 10
49.95404992591284
 20
47.48709106445312
 10
50.05805383216284
 20
47.76400756835938
 10
49.98204980384253
 20
48.07598876953125
 10
49.76105676185034
 20
48.27099609375
 97
        0
 97
        0
 92
        1
 93
        1
 72
     4
 94
        3
 73
     0
 74
     1
 95
       56
 96
       52
 40
0.0
 40
0.0
 40
0.0
 40
0.0
 40
1.0
 40
1.0
 40
1.0
 40
2.0
 40
2.0
 40
2.0
 40
3.0
 40
3.0
 40
3.0
 40
4.0
 40
4.0
 40
4.0
 40
5.0
 40
5.0
 40
5.0
 40
6.0
 40
6.0
 40
6.0
 40
7.0
 40
7.0
 40
7.0
 40
8.0
 40
8.0
 40
8.0
 40
9.0
 40
9.0
 40
9.0
 40
10.0
 40
10.0
 40
10.0
 40
11.0
 40
11.0
 40
11.0
 40
12.0
 40
12.0
 40
12.0
 40
13.0
 40
13.0
 40
13.0
 40
14.0
 40
14.0
 40
14.0
 40
15.0
 40
15.0
 40
15.0
 40
16.0
 40
16.0
 40
16.0
 40
17.0
 40
17.0
 40
17.0
 40
17.0
 10
46.5170534659519
 20
56.22000122070312
 10
46.5170534659519
 20
56.22000122070312
 10
35.37905297767065
 20
48.44900512695312
 10
35.37905297767065
 20
48.44900512695312
 10
35.37905297767065
 20
48.44900512695312
 10
22.02405725013159
 20
48.44900512695312
 10
22.02405725013159
 20
48.44900512695312
 10
22.02405725013159
 20
48.44900512695312
 10
26.98905358802222
 20
50.510009765625
 10
26.98905358802222
 20
50.510009765625
 10
27.02504907142065
 20
50.5250244140625
 10
27.05906091224097
 20
50.54202270507812
 10
27.09305749427222
 20
50.56301879882812
 10
27.09305749427222
 20
50.56301879882812
 10
35.97805200110815
 20
56.0980224609375
 10
35.97805200110815
 20
56.0980224609375
 10
36.16904626380347
 20
56.218017578125
 10
36.2930544425144
 20
56.42202758789062
 10
36.31005273353003
 20
56.64801025390625
 10
36.32705102454565
 20
56.87399291992188
 10
36.23404870520972
 20
57.093017578125
 10
36.06205163489722
 20
57.24002075195312
 10
36.06205163489722
 20
57.24002075195312
 10
29.56604943763159
 20
62.760009765625
 10
29.56604943763159
 20
62.760009765625
 10
29.56604943763159
 20
62.760009765625
 10
29.56604943763159
 20
76.55001831054688
 10
29.56604943763159
 20
76.55001831054688
 10
29.56604943763159
 20
76.57101440429688
 10
29.55605493079565
 20
76.5880126953125
 10
29.55405602942847
 20
76.6090087890625
 10
29.55005822669409
 20
76.6610107421875
 10
29.53905663978003
 20
76.71099853515625
 10
29.52305017005347
 20
76.76101684570312
 10
29.51105676185034
 20
76.79901123046875
 10
29.49904809485815
 20
76.83502197265625
 10
29.48005090247534
 20
76.87002563476562
 10
29.47205529700659
 20
76.88702392578125
 10
29.4700563956394
 20
76.905029296875
 10
29.4600466300144
 20
76.9210205078125
 10
29.4600466300144
 20
76.9210205078125
 10
18.43705163489722
 20
94.87002563476562
 10
18.43705163489722
 20
94.87002563476562
 10
18.43705163489722
 20
94.87002563476562
 10
30.42605004798315
 20
101.3850402832031
 10
30.42605004798315
 20
101.3850402832031
 10
30.42605004798315
 20
101.3850402832031
 10
45.98404870520972
 20
83.81903076171875
 10
45.98404870520972
 20
83.81903076171875
 10
45.98404870520972
 20
83.81903076171875
 10
46.5170534659519
 20
56.22000122070312
 10
46.5170534659519
 20
56.22000122070312
 97
        0
 97
        0
 92
        1
 93
        1
 72
     4
 94
        3
 73
     0
 74
     1
 95
       53
 96
       49
 40
0.0
 40
0.0
 40
0.0
 40
0.0
 40
1.0
 40
1.0
 40
1.0
 40
2.0
 40
2.0
 40
2.0
 40
3.0
 40
3.0
 40
3.0
 40
4.0
 40
4.0
 40
4.0
 40
5.0
 40
5.0
 40
5.0
 40
6.0
 40
6.0
 40
6.0
 40
7.0
 40
7.0
 40
7.0
 40
8.0
 40
8.0
 40
8.0
 40
9.0
 40
9.0
 40
9.0
 40
10.0
 40
10.0
 40
10.0
 40
11.0
 40
11.0
 40
11.0
 40
12.0
 40
12.0
 40
12.0
 40
13.0
 40
13.0
 40
13.0
 40
14.0
 40
14.0
 40
14.0
 40
15.0
 40
15.0
 40
15.0
 40
16.0
 40
16.0
 40
16.0
 40
16.0
 10
9.207055907358153
 20
89.85400390625
 10
9.207055907358153
 20
89.85400390625
 10
17.19805322181128
 20
94.19699096679688
 10
17.19805322181128
 20
94.19699096679688
 10
17.20705590735815
 20
94.17999267578125
 10
17.20705590735815
 20
94.1619873046875
 10
17.21705041419409
 20
94.14599609375
 10
17.21705041419409
 20
94.14599609375
 10
27.93705163489722
 20
76.69100952148438
 10
27.93705163489722
 20
76.69100952148438
 10
27.93705163489722
 20
76.69100952148438
 10
20.16605554114722
 20
69.98001098632812
 10
20.16605554114722
 20
69.98001098632812
 10
20.16405663978003
 20
69.97799682617188
 10
20.16205773841284
 20
69.97601318359375
 10
20.16005883704565
 20
69.9739990234375
 10
20.16005883704565
 20
69.9739990234375
 10
20.15305505286597
 20
69.96798706054688
 10
20.15305505286597
 20
69.96798706054688
 10
20.14306054603003
 20
69.958984375
 10
20.13904748450659
 20
69.94598388671875
 10
20.13006005774878
 20
69.93698120117188
 10
20.07006249915503
 20
69.87896728515625
 10
20.02005944739722
 20
69.81597900390625
 10
19.98406396399878
 20
69.74298095703125
 10
19.96906457435034
 20
69.71298217773438
 10
19.96405969153784
 20
69.67898559570312
 10
19.95505700599097
 20
69.64599609375
 10
19.93505273353003
 20
69.58599853515625
 10
19.91906152259253
 20
69.52899169921875
 10
19.91605554114722
 20
69.46499633789062
 10
19.91504846106909
 20
69.45199584960938
 10
19.90805993567847
 20
69.44198608398438
 10
19.90805993567847
 20
69.42898559570312
 10
19.90805993567847
 20
69.39898681640625
 10
19.92406640540503
 20
69.37197875976562
 10
19.9280642081394
 20
69.34298706054688
 10
19.9330690909519
 20
69.30398559570312
 10
19.92705712806128
 20
69.2659912109375
 10
19.93906579505347
 20
69.22698974609375
 10
19.93906579505347
 20
69.22698974609375
 10
25.34307275306128
 20
51.3599853515625
 10
25.34307275306128
 20
51.3599853515625
 10
25.34307275306128
 20
51.3599853515625
 10
18.96706567298315
 20
48.7139892578125
 10
18.96706567298315
 20
48.7139892578125
 10
18.96706567298315
 20
48.7139892578125
 10
9.207055907358153
 20
89.85400390625
 10
9.207055907358153
 20
89.85400390625
 97
        0
 97
        0
 92
        1
 93
        3
 72
     1
 10
26.64405236731909
 20
51.9530029296875
 11
21.99205956946753
 21
67.33401489257812
 72
     1
 10
21.99205956946753
 20
67.33401489257812
 11
34.40406213294409
 21
56.78701782226562
 72
     1
 10
34.40406213294409
 20
56.78701782226562
 11
26.64405236731909
 21
51.9530029296875
 97
        0
 92
        1
 93
        3
 72
     1
 10
28.14704308997534
 20
63.96200561523438
 11
21.7050417472019
 21
69.43600463867188
 72
     1
 10
21.7050417472019
 20
69.43600463867188
 11
28.14704308997534
 21
75.0
 72
     1
 10
28.14704308997534
 20
75.0
 11
28.14704308997534
 21
63.96200561523438
 97
        0
 92
        1
 93
        3
 72
     1
 10
31.70304284583472
 20
102.0780029296875
 11
35.47403893958472
 21
104.1279907226562
 72
     1
 10
35.47403893958472
 20
104.1279907226562
 11
34.57903466712378
 21
98.8289794921875
 72
     1
 10
34.57903466712378
 20
98.8289794921875
 11
31.70304284583472
 21
102.0780029296875
 97
        0
 92
        1
 93
        3
 72
     1
 10
42.44104943763159
 20
109.1099853515625
 11
36.8660524893894
 21
106.4459838867188
 72
     1
 10
36.8660524893894
 20
106.4459838867188
 11
35.74904809485815
 21
110.3349914550781
 72
     1
 10
35.74904809485815
 20
110.3349914550781
 11
42.44104943763159
 21
109.1099853515625
 97
        0
 92
        1
 93
        4
 72
     1
 10
18.93604455481909
 20
113.2489929199219
 11
33.43705163489722
 21
113.2489929199219
 72
     1
 10
33.43705163489722
 20
113.2489929199219
 11
35.57904992591284
 21
105.7959899902344
 72
     1
 10
35.57904992591284
 20
105.7959899902344
 11
9.839044432748778
 21
91.80999755859375
 72
     1
 10
9.839044432748778
 20
91.80999755859375
 11
18.93604455481909
 21
113.2489929199219
 97
        0
 92
        1
 93
        1
 72
     4
 94
        3
 73
     0
 74
     1
 95
       17
 96
       13
 40
0.0
 40
0.0
 40
0.0
 40
0.0
 40
1.0
 40
1.0
 40
1.0
 40
2.0
 40
2.0
 40
2.0
 40
3.0
 40
3.0
 40
3.0
 40
4.0
 40
4.0
 40
4.0
 40
4.0
 10
37.85605798255347
 20
48.44900512695312
 10
37.85605798255347
 20
48.44900512695312
 10
42.92205224524878
 20
51.9840087890625
 10
42.92205224524878
 20
51.9840087890625
 10
42.97205529700659
 20
51.96600341796875
 10
43.01804528724097
 20
51.93899536132812
 10
43.07004724036597
 20
51.93301391601562
 10
43.59404931556128
 20
51.6510009765625
 10
45.46105371009253
 20
50.12200927734375
 10
47.40204797278784
 20
48.44900512695312
 10
47.40204797278784
 20
48.44900512695312
 10
37.85605798255347
 20
48.44900512695312
 10
37.85605798255347
 20
48.44900512695312
 97
        0
 97
        0
 75
     2
 76
     1
 98
        0
  0
ENDSEC
  0
SECTION
  2
OBJECTS
  0
DICTIONARY
  5
C
330
0
100
AcDbDictionary
281
     1
  3
ACAD_GROUP
350
D
  3
ACAD_LAYOUT
350
1A
  3
ACAD_MATERIAL
350
3B
  3
ACAD_MLEADERSTYLE
350
66
  3
ACAD_MLINESTYLE
350
17
  3
ACAD_PLOTSETTINGS
350
19
  3
ACAD_PLOTSTYLENAME
350
E
  3
ACAD_TABLESTYLE
350
65
  3
ACAD_VISUALSTYLE
350
2A
  0
SUN
  5
3F
330
29
100
AcDbSun
 90
        1
290
     0
 63
     7
421
 16777215
 40
1.0
291
     1
 91
  2455826
 92
 54000000
292
     0
 70
     2
 71
   256
280
     1
  0
DICTIONARY
  5
D
102
{ACAD_REACTORS
330
C
102
}
330
C
100
AcDbDictionary
281
     1
  0
DICTIONARY
  5
1A
102
{ACAD_REACTORS
330
C
102
}
330
C
100
AcDbDictionary
281
     1
  3
Layout1
350
1E
  3
Layout2
350
26
  3
Model
350
22
  0
DICTIONARY
  5
3B
102
{ACAD_REACTORS
330
C
102
}
330
C
100
AcDbDictionary
281
     1
  3
ByBlock
350
3D
  3
ByLayer
350
3C
  3
Global
350
3E
  0
DICTIONARY
  5
66
102
{ACAD_REACTORS
330
C
102
}
330
C
100
AcDbDictionary
281
     1
  0
DICTIONARY
  5
17
102
{ACAD_REACTORS
330
C
102
}
330
C
100
AcDbDictionary
281
     1
  3
Standard
350
18
  0
DICTIONARY
  5
19
102
{ACAD_REACTORS
330
C
102
}
330
C
100
AcDbDictionary
281
     1
  0
ACDBDICTIONARYWDFLT
  5
E
102
{ACAD_REACTORS
330
C
102
}
330
C
100
AcDbDictionary
281
     1
  3
Normal
350
F
100
AcDbDictionaryWithDefault
340
F
  0
DICTIONARY
  5
65
102
{ACAD_REACTORS
330
C
102
}
330
C
100
AcDbDictionary
281
     1
  0
DICTIONARY
  5
2A
102
{ACAD_REACTORS
330
C
102
}
330
C
100
AcDbDictionary
281
     1
  3
2dWireframe
350
2F
  3
3D Hidden
350
31
  3
3dWireframe
350
30
  3
Basic
350
32
  3
Brighten
350
36
  3
ColorChange
350
3A
  3
Conceptual
350
34
  3
Dim
350
35
  3
Facepattern
350
39
  3
Flat
350
2B
  3
FlatWithEdges
350
2C
  3
Gouraud
350
2D
  3
GouraudWithEdges
350
2E
  3
Linepattern
350
38
  3
Realistic
350
33
  3
Thicken
350
37
  0
LAYOUT
  5
1E
102
{ACAD_REACTORS
330
1A
102
}
330
1A
100
AcDbPlotSettings
  1

  2
none_device
  4

  6

 40
0.0
 41
0.0
 42
0.0
 43
0.0
 44
0.0
 45
0.0
 46
0.0
 47
0.0
 48
0.0
 49
0.0
140
0.0
141
0.0
142
1.0
143
1.0
 70
   688
 72
     0
 73
     0
 74
     5
  7

 75
    16
 76
     0
 77
     2
 78
   300
147
1.0
148
0.0
149
0.0
100
AcDbLayout
  1
Layout1
 70
     1
 71
     1
 10
0.0
 20
0.0
 11
12.0
 21
9.0
 12
0.0
 22
0.0
 32
0.0
 14
1.000000000000000E+20
 24
1.000000000000000E+20
 34
1.000000000000000E+20
 15
-1.000000000000000E+20
 25
-1.000000000000000E+20
 35
-1.000000000000000E+20
146
0.0
 13
0.0
 23
0.0
 33
0.0
 16
1.0
 26
0.0
 36
0.0
 17
0.0
 27
1.0
 37
0.0
 76
     0
330
1B
  0
LAYOUT
  5
26
102
{ACAD_REACTORS
330
1A
102
}
330
1A
100
AcDbPlotSettings
  1

  2
none_device
  4

  6

 40
0.0
 41
0.0
 42
0.0
 43
0.0
 44
0.0
 45
0.0
 46
0.0
 47
0.0
 48
0.0
 49
0.0
140
0.0
141
0.0
142
1.0
143
1.0
 70
   688
 72
     0
 73
     0
 74
     5
  7

 75
    16
 76
     0
 77
     2
 78
   300
147
1.0
148
0.0
149
0.0
100
AcDbLayout
  1
Layout2
 70
     1
 71
     2
 10
0.0
 20
0.0
 11
0.0
 21
0.0
 12
0.0
 22
0.0
 32
0.0
 14
0.0
 24
0.0
 34
0.0
 15
0.0
 25
0.0
 35
0.0
146
0.0
 13
0.0
 23
0.0
 33
0.0
 16
1.0
 26
0.0
 36
0.0
 17
0.0
 27
1.0
 37
0.0
 76
     0
330
23
  0
LAYOUT
  5
22
102
{ACAD_REACTORS
330
1A
102
}
330
1A
100
AcDbPlotSettings
  1

  2
none_device
  4

  6

 40
0.0
 41
0.0
 42
0.0
 43
0.0
 44
0.0
 45
0.0
 46
0.0
 47
0.0
 48
0.0
 49
0.0
140
0.0
141
0.0
142
1.0
143
1.0
 70
  1712
 72
     0
 73
     0
 74
     0
  7

 75
     0
 76
     0
 77
     2
 78
   300
147
1.0
148
0.0
149
0.0
100
AcDbLayout
  1
Model
 70
     1
 71
     0
 10
0.0
 20
0.0
 11
12.0
 21
9.0
 12
0.0
 22
0.0
 32
0.0
 14
1.000000000000000E+20
 24
1.000000000000000E+20
 34
1.000000000000000E+20
 15
-1.000000000000000E+20
 25
-1.000000000000000E+20
 35
-1.000000000000000E+20
146
0.0
 13
0.0
 23
0.0
 33
0.0
 16
1.0
 26
0.0
 36
0.0
 17
0.0
 27
1.0
 37
0.0
 76
     0
330
1F
331
29
  0
MATERIAL
  5
3D
102
{ACAD_REACTORS
330
3B
102
}
330
3B
100
AcDbMaterial
  1
ByBlock
 72
     1
 94
      127
  0
MATERIAL
  5
3C
102
{ACAD_REACTORS
330
3B
102
}
330
3B
100
AcDbMaterial
  1
ByLayer
 72
     1
 94
      127
  0
MATERIAL
  5
3E
102
{ACAD_REACTORS
330
3B
102
}
330
3B
100
AcDbMaterial
  1
Global
 72
     1
 94
      127
  0
MLINESTYLE
  5
18
102
{ACAD_REACTORS
330
17
102
}
330
17
100
AcDbMlineStyle
  2
Standard
 70
     0
  3

 62
   256
 51
90.0
 52
90.0
 71
     2
 49
0.5
 62
   256
  6
BYLAYER
 49
-0.5
 62
   256
  6
BYLAYER
  0
ACDBPLACEHOLDER
  5
F
102
{ACAD_REACTORS
330
E
102
}
330
E
  0
VISUALSTYLE
  5
2F
102
{ACAD_REACTORS
330
2A
102
}
330
2A
100
AcDbVisualStyle
  2
2dWireframe
 70
     4
177
     2
291
     0
 71
     0
176
     1
 72
     2
176
     1
 73
     0
176
     1
 90
        0
176
     1
 40
-0.6
176
     1
 41
-30.0
176
     1
 62
     5
 63
     7
421
 16777215
176
     1
 74
     1
176
     1
 91
        4
176
     1
 64
     7
176
     1
 65
   257
176
     1
 75
     1
176
     1
175
     1
176
     1
 42
1.0
176
     1
 92
        0
176
     1
 66
   257
176
     1
 43
1.0
176
     1
 76
     1
176
     1
 77
     6
176
     1
 78
     2
176
     1
 67
     7
176
     1
 79
     5
176
     1
170
     0
176
     1
171
     0
176
     1
290
     0
176
     1
 93
        1
176
     1
 44
0.0
176
     1
173
     0
176
     1
  0
VISUALSTYLE
  5
31
102
{ACAD_REACTORS
330
2A
102
}
330
2A
100
AcDbVisualStyle
  2
3D Hidden
 70
     6
177
     2
291
     0
 71
     1
176
     1
 72
     2
176
     1
 73
     2
176
     1
 90
        0
176
     1
 40
-0.6
176
     1
 41
-30.0
176
     1
 62
     5
 63
     7
421
 16777215
176
     1
 74
     2
176
     1
 91
        2
176
     1
 64
     7
176
     1
 65
   257
176
     1
 75
     2
176
     1
175
     1
176
     1
 42
40.0
176
     1
 92
        0
176
     1
 66
   257
176
     1
 43
1.0
176
     1
 76
     1
176
     1
 77
     6
176
     1
 78
     2
176
     1
 67
     7
176
     1
 79
     3
176
     1
170
     0
176
     1
171
     0
176
     1
290
     0
176
     1
 93
        1
176
     1
 44
0.0
176
     1
173
     0
176
     1
  0
VISUALSTYLE
  5
30
102
{ACAD_REACTORS
330
2A
102
}
330
2A
100
AcDbVisualStyle
  2
3dWireframe
 70
     5
177
     2
291
     0
 71
     0
176
     1
 72
     2
176
     1
 73
     0
176
     1
 90
        0
176
     1
 40
-0.6
176
     1
 41
-30.0
176
     1
 62
     5
 63
     7
421
 16777215
176
     1
 74
     1
176
     1
 91
        4
176
     1
 64
     7
176
     1
 65
   257
176
     1
 75
     1
176
     1
175
     1
176
     1
 42
1.0
176
     1
 92
        0
176
     1
 66
   257
176
     1
 43
1.0
176
     1
 76
     1
176
     1
 77
     6
176
     1
 78
     2
176
     1
 67
     7
176
     1
 79
     5
176
     1
170
     0
176
     1
171
     0
176
     1
290
     0
176
     1
 93
        1
176
     1
 44
0.0
176
     1
173
     0
176
     1
  0
VISUALSTYLE
  5
32
102
{ACAD_REACTORS
330
2A
102
}
330
2A
100
AcDbVisualStyle
  2
Basic
 70
     7
177
     2
291
     1
 71
     1
176
     1
 72
     0
176
     1
 73
     1
176
     1
 90
        0
176
     1
 40
-0.6
176
     1
 41
-30.0
176
     1
 62
     5
 63
     7
421
 16777215
176
     1
 74
     0
176
     1
 91
        4
176
     1
 64
     7
176
     1
 65
   257
176
     1
 75
     1
176
     1
175
     1
176
     1
 42
1.0
176
     1
 92
        8
176
     1
 66
     7
176
     1
 43
1.0
176
     1
 76
     1
176
     1
 77
     6
176
     1
 78
     2
176
     1
 67
     7
176
     1
 79
     5
176
     1
170
     0
176
     1
171
     0
176
     1
290
     0
176
     1
 93
        1
176
     1
 44
0.0
176
     1
173
     0
176
     1
  0
VISUALSTYLE
  5
36
102
{ACAD_REACTORS
330
2A
102
}
330
2A
100
AcDbVisualStyle
  2
Brighten
 70
    12
177
     2
291
     1
 71
     2
176
     1
 72
     2
176
     1
 73
     0
176
     1
 90
        0
176
     1
 40
-0.6
176
     1
 41
-30.0
176
     1
 62
     5
 63
     7
421
 16777215
176
     1
 74
     1
176
     1
 91
        4
176
     1
 64
     7
176
     1
 65
   257
176
     1
 75
     1
176
     1
175
     1
176
     1
 42
1.0
176
     1
 92
        8
176
     1
 66
     7
176
     1
 43
1.0
176
     1
 76
     1
176
     1
 77
     6
176
     1
 78
     2
176
     1
 67
     7
176
     1
 79
     5
176
     1
170
     0
176
     1
171
     0
176
     1
290
     0
176
     1
 93
        1
176
     1
 44
50.0
176
     1
173
     0
176
     1
  0
VISUALSTYLE
  5
3A
102
{ACAD_REACTORS
330
2A
102
}
330
2A
100
AcDbVisualStyle
  2
ColorChange
 70
    16
177
     2
291
     1
 71
     2
176
     1
 72
     2
176
     1
 73
     3
176
     1
 90
        0
176
     1
 40
-0.6
176
     1
 41
-30.0
176
     1
 62
     5
 63
     8
421
  8421504
176
     1
 74
     1
176
     1
 91
        4
176
     1
 64
     7
176
     1
 65
   257
176
     1
 75
     1
176
     1
175
     1
176
     1
 42
1.0
176
     1
 92
        8
176
     1
 66
     8
424
  8421504
176
     1
 43
1.0
176
     1
 76
     1
176
     1
 77
     6
176
     1
 78
     2
176
     1
 67
     7
176
     1
 79
     5
176
     1
170
     0
176
     1
171
     0
176
     1
290
     0
176
     1
 93
        1
176
     1
 44
0.0
176
     1
173
     0
176
     1
  0
VISUALSTYLE
  5
34
102
{ACAD_REACTORS
330
2A
102
}
330
2A
100
AcDbVisualStyle
  2
Conceptual
 70
     9
177
     2
291
     0
 71
     3
176
     1
 72
     2
176
     1
 73
     0
176
     1
 90
        0
176
     1
 40
-0.6
176
     1
 41
-30.0
176
     1
 62
     5
 63
     7
421
 16777215
176
     1
 74
     2
176
     1
 91
        2
176
     1
 64
     7
176
     1
 65
   257
176
     1
 75
     1
176
     1
175
     1
176
     1
 42
40.0
176
     1
 92
        8
176
     1
 66
     7
176
     1
 43
1.0
176
     1
 76
     1
176
     1
 77
     6
176
     1
 78
     2
176
     1
 67
     7
176
     1
 79
     3
176
     1
170
     0
176
     1
171
     0
176
     1
290
     0
176
     1
 93
        1
176
     1
 44
0.0
176
     1
173
     0
176
     1
  0
VISUALSTYLE
  5
35
102
{ACAD_REACTORS
330
2A
102
}
330
2A
100
AcDbVisualStyle
  2
Dim
 70
    11
177
     2
291
     1
 71
     2
176
     1
 72
     2
176
     1
 73
     0
176
     1
 90
        0
176
     1
 40
-0.6
176
     1
 41
-30.0
176
     1
 62
     5
 63
     7
421
 16777215
176
     1
 74
     1
176
     1
 91
        4
176
     1
 64
     7
176
     1
 65
   257
176
     1
 75
     1
176
     1
175
     1
176
     1
 42
1.0
176
     1
 92
        8
176
     1
 66
     7
176
     1
 43
1.0
176
     1
 76
     1
176
     1
 77
     6
176
     1
 78
     2
176
     1
 67
     7
176
     1
 79
     5
176
     1
170
     0
176
     1
171
     0
176
     1
290
     0
176
     1
 93
        1
176
     1
 44
-50.0
176
     1
173
     0
176
     1
  0
VISUALSTYLE
  5
39
102
{ACAD_REACTORS
330
2A
102
}
330
2A
100
AcDbVisualStyle
  2
Facepattern
 70
    15
177
     2
291
     1
 71
     2
176
     1
 72
     2
176
     1
 73
     0
176
     1
 90
        0
176
     1
 40
-0.6
176
     1
 41
-30.0
176
     1
 62
     5
 63
     7
421
 16777215
176
     1
 74
     1
176
     1
 91
        4
176
     1
 64
     7
176
     1
 65
   257
176
     1
 75
     1
176
     1
175
     1
176
     1
 42
1.0
176
     1
 92
        8
176
     1
 66
     7
176
     1
 43
1.0
176
     1
 76
     1
176
     1
 77
     6
176
     1
 78
     2
176
     1
 67
     7
176
     1
 79
     5
176
     1
170
     0
176
     1
171
     0
176
     1
290
     0
176
     1
 93
        1
176
     1
 44
0.0
176
     1
173
     0
176
     1
  0
VISUALSTYLE
  5
2B
102
{ACAD_REACTORS
330
2A
102
}
330
2A
100
AcDbVisualStyle
  2
Flat
 70
     0
177
     2
291
     1
 71
     2
176
     1
 72
     1
176
     1
 73
     1
176
     1
 90
        2
176
     1
 40
-0.6
176
     1
 41
30.0
176
     1
 62
     5
 63
     7
421
 16777215
176
     1
 74
     0
176
     1
 91
        4
176
     1
 64
     7
176
     1
 65
   257
176
     1
 75
     1
176
     1
175
     1
176
     1
 42
1.0
176
     1
 92
        8
176
     1
 66
     7
176
     1
 43
1.0
176
     1
 76
     1
176
     1
 77
     6
176
     1
 78
     2
176
     1
 67
     7
176
     1
 79
     5
176
     1
170
     0
176
     1
171
     0
176
     1
290
     0
176
     1
 93
       13
176
     1
 44
0.0
176
     1
173
     0
176
     1
  0
VISUALSTYLE
  5
2C
102
{ACAD_REACTORS
330
2A
102
}
330
2A
100
AcDbVisualStyle
  2
FlatWithEdges
 70
     1
177
     2
291
     1
 71
     2
176
     1
 72
     1
176
     1
 73
     1
176
     1
 90
        2
176
     1
 40
-0.6
176
     1
 41
30.0
176
     1
 62
     5
 63
     7
421
 16777215
176
     1
 74
     1
176
     1
 91
        4
176
     1
 64
     7
176
     1
 65
   257
176
     1
 75
     1
176
     1
175
     1
176
     1
 42
1.0
176
     1
 92
        0
176
     1
 66
   257
176
     1
 43
1.0
176
     1
 76
     1
176
     1
 77
     6
176
     1
 78
     2
176
     1
 67
     7
176
     1
 79
     5
176
     1
170
     0
176
     1
171
     0
176
     1
290
     0
176
     1
 93
       13
176
     1
 44
0.0
176
     1
173
     0
176
     1
  0
VISUALSTYLE
  5
2D
102
{ACAD_REACTORS
330
2A
102
}
330
2A
100
AcDbVisualStyle
  2
Gouraud
 70
     2
177
     2
291
     1
 71
     2
176
     1
 72
     2
176
     1
 73
     1
176
     1
 90
        2
176
     1
 40
-0.6
176
     1
 41
30.0
176
     1
 62
     5
 63
     7
421
 16777215
176
     1
 74
     0
176
     1
 91
        4
176
     1
 64
     7
176
     1
 65
   257
176
     1
 75
     1
176
     1
175
     1
176
     1
 42
1.0
176
     1
 92
        0
176
     1
 66
     7
176
     1
 43
1.0
176
     1
 76
     1
176
     1
 77
     6
176
     1
 78
     2
176
     1
 67
     7
176
     1
 79
     5
176
     1
170
     0
176
     1
171
     0
176
     1
290
     0
176
     1
 93
       13
176
     1
 44
0.0
176
     1
173
     0
176
     1
  0
VISUALSTYLE
  5
2E
102
{ACAD_REACTORS
330
2A
102
}
330
2A
100
AcDbVisualStyle
  2
GouraudWithEdges
 70
     3
177
     2
291
     1
 71
     2
176
     1
 72
     2
176
     1
 73
     1
176
     1
 90
        2
176
     1
 40
-0.6
176
     1
 41
30.0
176
     1
 62
     5
 63
     7
421
 16777215
176
     1
 74
     1
176
     1
 91
        4
176
     1
 64
     7
176
     1
 65
   257
176
     1
 75
     1
176
     1
175
     1
176
     1
 42
1.0
176
     1
 92
        0
176
     1
 66
   257
176
     1
 43
1.0
176
     1
 76
     1
176
     1
 77
     6
176
     1
 78
     2
176
     1
 67
     7
176
     1
 79
     5
176
     1
170
     0
176
     1
171
     0
176
     1
290
     0
176
     1
 93
       13
176
     1
 44
0.0
176
     1
173
     0
176
     1
  0
VISUALSTYLE
  5
38
102
{ACAD_REACTORS
330
2A
102
}
330
2A
100
AcDbVisualStyle
  2
Linepattern
 70
    14
177
     2
291
     1
 71
     2
176
     1
 72
     2
176
     1
 73
     0
176
     1
 90
        0
176
     1
 40
-0.6
176
     1
 41
-30.0
176
     1
 62
     5
 63
     7
421
 16777215
176
     1
 74
     1
176
     1
 91
        4
176
     1
 64
     7
176
     1
 65
   257
176
     1
 75
     7
176
     1
175
     7
176
     1
 42
1.0
176
     1
 92
        8
176
     1
 66
     7
176
     1
 43
1.0
176
     1
 76
     1
176
     1
 77
     6
176
     1
 78
     2
176
     1
 67
     7
176
     1
 79
     5
176
     1
170
     0
176
     1
171
     0
176
     1
290
     0
176
     1
 93
        1
176
     1
 44
0.0
176
     1
173
     0
176
     1
  0
VISUALSTYLE
  5
33
102
{ACAD_REACTORS
330
2A
102
}
330
2A
100
AcDbVisualStyle
  2
Realistic
 70
     8
177
     2
291
     0
 71
     2
176
     1
 72
     2
176
     1
 73
     0
176
     1
 90
        0
176
     1
 40
-0.6
176
     1
 41
-30.0
176
     1
 62
     5
 63
     7
421
 16777215
176
     1
 74
     1
176
     1
 91
        0
176
     1
 64
     7
176
     1
 65
   257
176
     1
 75
     1
176
     1
175
     1
176
     1
 42
1.0
176
     1
 92
        8
176
     1
 66
     8
424
  7895160
176
     1
 43
1.0
176
     1
 76
     1
176
     1
 77
     6
176
     1
 78
     2
176
     1
 67
     7
176
     1
 79
     5
176
     1
170
     0
176
     1
171
     0
176
     1
290
     0
176
     1
 93
       13
176
     1
 44
0.0
176
     1
173
     0
176
     1
  0
VISUALSTYLE
  5
37
102
{ACAD_REACTORS
330
2A
102
}
330
2A
100
AcDbVisualStyle
  2
Thicken
 70
    13
177
     2
291
     1
 71
     2
176
     1
 72
     2
176
     1
 73
     0
176
     1
 90
        0
176
     1
 40
-0.6
176
     1
 41
-30.0
176
     1
 62
     5
 63
     7
421
 16777215
176
     1
 74
     1
176
     1
 91
        4
176
     1
 64
     7
176
     1
 65
   257
176
     1
 75
     1
176
     1
175
     1
176
     1
 42
1.0
176
     1
 92
       12
176
     1
 66
     7
176
     1
 43
1.0
176
     1
 76
     1
176
     1
 77
     6
176
     1
 78
     2
176
     1
 67
     7
176
     1
 79
     5
176
     1
170
     0
176
     1
171
     0
176
     1
290
     0
176
     1
 93
        1
176
     1
 44
0.0
176
     1
173
     0
176
     1
  0
ENDSEC
  0
EOF
