  0
SECTION
  2
HEADER
  9
$ACADVER
  1
AC1024
  9
$ACADMAINTVER
 70
     6
  9
$DWGCODEPAGE
  3
UNDEFINED
  9
$INSBASE
 10
0.0
 20
0.0
 30
0.0
  9
$EXTMIN
 10
1.000000000000000E+20
 20
1.000000000000000E+20
 30
1.000000000000000E+20
  9
$EXTMAX
 10
-1.000000000000000E+20
 20
-1.000000000000000E+20
 30
-1.000000000000000E+20
  9
$LIMMIN
 10
0.0
 20
0.0
  9
$LIMMAX
 10
12.0
 20
9.0
  9
$ORTHOMODE
 70
     0
  9
$REGENMODE
 70
     1
  9
$FILLMODE
 70
     1
  9
$QTEXTMODE
 70
     0
  9
$MIRRTEXT
 70
     1
  9
$LTSCALE
 40
1.0
  9
$ATTMODE
 70
     1
  9
$TEXTSIZE
 40
0.2
  9
$TRACEWID
 40
0.05
  9
$TEXTSTYLE
  7
Standard
  9
$CLAYER
  8
0
  9
$CELTYPE
  6
ByLayer
  9
$CECOLOR
 62
   256
  9
$CELTSCALE
 40
1.0
  9
$DISPSILH
 70
     0
  9
$DIMSCALE
 40
1.0
  9
$DIMASZ
 40
0.18
  9
$DIMEXO
 40
0.0625
  9
$DIMDLI
 40
0.38
  9
$DIMRND
 40
0.0
  9
$DIMDLE
 40
0.0
  9
$DIMEXE
 40
0.18
  9
$DIMTP
 40
0.0
  9
$DIMTM
 40
0.0
  9
$DIMTXT
 40
0.18
  9
$DIMCEN
 40
0.09
  9
$DIMTSZ
 40
0.0
  9
$DIMTOL
 70
     0
  9
$DIMLIM
 70
     0
  9
$DIMTIH
 70
     1
  9
$DIMTOH
 70
     1
  9
$DIMSE1
 70
     0
  9
$DIMSE2
 70
     0
  9
$DIMTAD
 70
     0
  9
$DIMZIN
 70
     0
  9
$DIMBLK
  1

  9
$DIMASO
 70
     1
  9
$DIMSHO
 70
     1
  9
$DIMPOST
  1

  9
$DIMAPOST
  1

  9
$DIMALT
 70
     0
  9
$DIMALTD
 70
     2
  9
$DIMALTF
 40
25.4
  9
$DIMLFAC
 40
1.0
  9
$DIMTOFL
 70
     0
  9
$DIMTVP
 40
0.0
  9
$DIMTIX
 70
     0
  9
$DIMSOXD
 70
     0
  9
$DIMSAH
 70
     0
  9
$DIMBLK1
  1

  9
$DIMBLK2
  1

  9
$DIMSTYLE
  2
Standard
  9
$DIMCLRD
 70
     0
  9
$DIMCLRE
 70
     0
  9
$DIMCLRT
 70
     0
  9
$DIMTFAC
 40
1.0
  9
$DIMGAP
 40
0.09
  9
$DIMJUST
 70
     0
  9
$DIMSD1
 70
     0
  9
$DIMSD2
 70
     0
  9
$DIMTOLJ
 70
     1
  9
$DIMTZIN
 70
     0
  9
$DIMALTZ
 70
     0
  9
$DIMALTTZ
 70
     0
  9
$DIMUPT
 70
     0
  9
$DIMDEC
 70
     4
  9
$DIMTDEC
 70
     4
  9
$DIMALTU
 70
     2
  9
$DIMALTTD
 70
     2
  9
$DIMTXSTY
  7
Standard
  9
$DIMAUNIT
 70
     0
  9
$DIMADEC
 70
     0
  9
$DIMALTRND
 40
0.0
  9
$DIMAZIN
 70
     0
  9
$DIMDSEP
 70
    46
  9
$DIMATFIT
 70
     3
  9
$DIMFRAC
 70
     0
  9
$DIMLDRBLK
  1

  9
$DIMLUNIT
 70
     2
  9
$DIMLWD
 70
    -2
  9
$DIMLWE
 70
    -2
  9
$DIMTMOVE
 70
     0
  9
$DIMFXL
 40
1.0
  9
$DIMFXLON
 70
     0
  9
$DIMJOGANG
 40
0.7853981633974483
  9
$DIMTFILL
 70
     0
  9
$DIMTFILLCLR
 70
     0
  9
$DIMARCSYM
 70
     0
  9
$DIMLTYPE
  6

  9
$DIMLTEX1
  6

  9
$DIMLTEX2
  6

  9
$DIMTXTDIRECTION
 70
     0
  9
$LUNITS
 70
     2
  9
$LUPREC
 70
     4
  9
$SKETCHINC
 40
0.1
  9
$FILLETRAD
 40
0.5
  9
$AUNITS
 70
     0
  9
$AUPREC
 70
     0
  9
$MENU
  1
.
  9
$ELEVATION
 40
0.0
  9
$PELEVATION
 40
0.0
  9
$THICKNESS
 40
0.0
  9
$LIMCHECK
 70
     0
  9
$CHAMFERA
 40
0.5
  9
$CHAMFERB
 40
0.5
  9
$CHAMFERC
 40
1.0
  9
$CHAMFERD
 40
0.0
  9
$SKPOLY
 70
     0
  9
$TDCREATE
 40
2457525.605671296
  9
$TDUCREATE
 40
2457525.81400463
  9
$TDUPDATE
 40
2457525.605671296
  9
$TDUUPDATE
 40
2457525.81400463
  9
$TDINDWG
 40
0.0000000116
  9
$TDUSRTIMER
 40
0.0000000116
  9
$USRTIMER
 70
     1
  9
$ANGBASE
 50
0.0
  9
$ANGDIR
 70
     0
  9
$PDMODE
 70
     0
  9
$PDSIZE
 40
0.0
  9
$PLINEWID
 40
0.0
  9
$SPLFRAME
 70
     0
  9
$SPLINETYPE
 70
     6
  9
$SPLINESEGS
 70
     8
  9
$HANDSEED
  5
6B
  9
$SURFTAB1
 70
     6
  9
$SURFTAB2
 70
     6
  9
$SURFTYPE
 70
     6
  9
$SURFU
 70
     6
  9
$SURFV
 70
     6
  9
$UCSBASE
  2

  9
$UCSNAME
  2

  9
$UCSORG
 10
0.0
 20
0.0
 30
0.0
  9
$UCSXDIR
 10
1.0
 20
0.0
 30
0.0
  9
$UCSYDIR
 10
0.0
 20
1.0
 30
0.0
  9
$UCSORTHOREF
  2

  9
$UCSORTHOVIEW
 70
     0
  9
$UCSORGTOP
 10
0.0
 20
0.0
 30
0.0
  9
$UCSORGBOTTOM
 10
0.0
 20
0.0
 30
0.0
  9
$UCSORGLEFT
 10
0.0
 20
0.0
 30
0.0
  9
$UCSORGRIGHT
 10
0.0
 20
0.0
 30
0.0
  9
$UCSORGFRONT
 10
0.0
 20
0.0
 30
0.0
  9
$UCSORGBACK
 10
0.0
 20
0.0
 30
0.0
  9
$PUCSBASE
  2

  9
$PUCSNAME
  2

  9
$PUCSORG
 10
0.0
 20
0.0
 30
0.0
  9
$PUCSXDIR
 10
1.0
 20
0.0
 30
0.0
  9
$PUCSYDIR
 10
0.0
 20
1.0
 30
0.0
  9
$PUCSORTHOREF
  2

  9
$PUCSORTHOVIEW
 70
     0
  9
$PUCSORGTOP
 10
0.0
 20
0.0
 30
0.0
  9
$PUCSORGBOTTOM
 10
0.0
 20
0.0
 30
0.0
  9
$PUCSORGLEFT
 10
0.0
 20
0.0
 30
0.0
  9
$PUCSORGRIGHT
 10
0.0
 20
0.0
 30
0.0
  9
$PUCSORGFRONT
 10
0.0
 20
0.0
 30
0.0
  9
$PUCSORGBACK
 10
0.0
 20
0.0
 30
0.0
  9
$USERI1
 70
     0
  9
$USERI2
 70
     0
  9
$USERI3
 70
     0
  9
$USERI4
 70
     0
  9
$USERI5
 70
     0
  9
$USERR1
 40
0.0
  9
$USERR2
 40
0.0
  9
$USERR3
 40
0.0
  9
$USERR4
 40
0.0
  9
$USERR5
 40
0.0
  9
$WORLDVIEW
 70
     1
  9
$SHADEDGE
 70
     3
  9
$SHADEDIF
 70
    70
  9
$TILEMODE
 70
     1
  9
$MAXACTVP
 70
    64
  9
$PINSBASE
 10
0.0
 20
0.0
 30
0.0
  9
$PLIMCHECK
 70
     0
  9
$PEXTMIN
 10
1.000000000000000E+20
 20
1.000000000000000E+20
 30
1.000000000000000E+20
  9
$PEXTMAX
 10
-1.000000000000000E+20
 20
-1.000000000000000E+20
 30
-1.000000000000000E+20
  9
$PLIMMIN
 10
0.0
 20
0.0
  9
$PLIMMAX
 10
12.0
 20
9.0
  9
$UNITMODE
 70
     0
  9
$VISRETAIN
 70
     1
  9
$PLINEGEN
 70
     0
  9
$PSLTSCALE
 70
     1
  9
$TREEDEPTH
 70
  3020
  9
$CMLSTYLE
  2
Standard
  9
$CMLJUST
 70
     0
  9
$CMLSCALE
 40
1.0
  9
$PROXYGRAPHICS
 70
     1
  9
$MEASUREMENT
 70
     0
  9
$CELWEIGHT
370
    -1
  9
$ENDCAPS
280
     0
  9
$JOINSTYLE
280
     0
  9
$LWDISPLAY
290
     1
  9
$INSUNITS
 70
     1
  9
$HYPERLINKBASE
  1

  9
$STYLESHEET
  1

  9
$XEDIT
290
     1
  9
$CEPSNTYPE
380
     0
  9
$PSTYLEMODE
290
     1
  9
$FINGERPRINTGUID
  2
{23F1F5EE-4908-7880-C361-A96A983F23C5}
  9
$VERSIONGUID
  2
{FAEB1C32-E019-11D5-929B-00C0DF256EC4}
  9
$EXTNAMES
290
     1
  9
$PSVPSCALE
 40
0.0
  9
$OLESTARTUP
290
     0
  9
$SORTENTS
280
   127
  9
$INDEXCTL
280
     0
  9
$HIDETEXT
280
     1
  9
$XCLIPFRAME
280
     2
  9
$HALOGAP
280
     0
  9
$OBSCOLOR
 70
   257
  9
$OBSLTYPE
280
     0
  9
$INTERSECTIONDISPLAY
280
     0
  9
$INTERSECTIONCOLOR
 70
   257
  9
$DIMASSOC
280
     2
  9
$PROJECTNAME
  1

  9
$CAMERADISPLAY
290
     0
  9
$LENSLENGTH
 40
50.0
  9
$CAMERAHEIGHT
 40
0.0
  9
$STEPSPERSEC
 40
2.0
  9
$STEPSIZE
 40
6.0
  9
$3DDWFPREC
 40
2.0
  9
$PSOLWIDTH
 40
0.25
  9
$PSOLHEIGHT
 40
4.0
  9
$LOFTANG1
 40
1.570796326794897
  9
$LOFTANG2
 40
1.570796326794897
  9
$LOFTMAG1
 40
0.0
  9
$LOFTMAG2
 40
0.0
  9
$LOFTPARAM
 70
     7
  9
$LOFTNORMALS
280
     1
  9
$LATITUDE
 40
37.795
  9
$LONGITUDE
 40
-122.394
  9
$NORTHDIRECTION
 40
0.0
  9
$TIMEZONE
 70
 -8000
  9
$LIGHTGLYPHDISPLAY
280
     1
  9
$TILEMODELIGHTSYNCH
280
     1
  9
$CMATERIAL
347
3C
  9
$SOLIDHIST
280
     1
  9
$SHOWHIST
280
     1
  9
$DWFFRAME
280
     2
  9
$DGNFRAME
280
     2
  9
$REALWORLDSCALE
290
     1
  9
$INTERFERECOLOR
 62
   256
  9
$CSHADOW
280
     0
  9
$SHADOWPLANELOCATION
 40
0.0
  0
ENDSEC
  0
SECTION
  2
CLASSES
  0
CLASS
  1
ACDBDICTIONARYWDFLT
  2
AcDbDictionaryWithDefault
  3
ObjectDBX Classes
 90
        0
 91
        4
280
     0
281
     0
  0
CLASS
  1
VISUALSTYLE
  2
AcDbVisualStyle
  3
ObjectDBX Classes
 90
     4095
 91
        4
280
     0
281
     0
  0
CLASS
  1
MATERIAL
  2
AcDbMaterial
  3
ObjectDBX Classes
 90
     1153
 91
        4
280
     0
281
     0
  0
CLASS
  1
SUN
  2
AcDbSun
  3
SCENEOE
 90
     1024
 91
        4
280
     0
281
     0
  0
ENDSEC
  0
SECTION
  2
TABLES
  0
TABLE
  2
VPORT
  5
8
330
0
100
AcDbSymbolTable
 70
     1
  0
VPORT
  5
29
330
8
100
AcDbSymbolTableRecord
100
AcDbViewportTableRecord
  2
*Active
 70
     0
 10
0.0
 20
0.0
 11
1.0
 21
1.0
 12
0.0
 22
0.0
 13
0.0
 23
0.0
 14
0.5
 24
0.5
 15
0.5
 25
0.5
 16
0.0
 26
0.0
 36
1.0
 17
50.0
 27
62.5
 37
0.0
 40
125.0
 41
0.8
 42
50.0
 43
0.0
 44
0.0
 50
0.0
 51
0.0
 71
     0
 72
   100
 73
     1
 74
     3
 75
     0
 76
     0
 77
     0
 78
     0
281
     0
 65
     1
110
0.0
120
0.0
130
0.0
111
1.0
121
0.0
131
0.0
112
0.0
122
1.0
132
0.0
 79
     0
146
0.0
 60
     3
 61
     5
292
     1
282
     1
141
0.0
142
0.0
 63
   250
361
3F
  0
ENDTAB
  0
TABLE
  2
LTYPE
  5
5
330
0
100
AcDbSymbolTable
 70
     1
  0
LTYPE
  5
14
330
5
100
AcDbSymbolTableRecord
100
AcDbLinetypeTableRecord
  2
ByBlock
 70
     0
  3

 72
    65
 73
     0
 40
0.0
  0
LTYPE
  5
15
330
5
100
AcDbSymbolTableRecord
100
AcDbLinetypeTableRecord
  2
ByLayer
 70
     0
  3

 72
    65
 73
     0
 40
0.0
  0
LTYPE
  5
16
330
5
100
AcDbSymbolTableRecord
100
AcDbLinetypeTableRecord
  2
Continuous
 70
     0
  3
Solid line
 72
    65
 73
     0
 40
0.0
  0
ENDTAB
  0
TABLE
  2
LAYER
  5
2
330
0
100
AcDbSymbolTable
 70
     2
  0
LAYER
  5
10
330
2
100
AcDbSymbolTableRecord
100
AcDbLayerTableRecord
  2
0
 70
     0
 62
     7
  6
Continuous
370
    -3
390
F
347
3E
  0
LAYER
  5
40
330
2
100
AcDbSymbolTableRecord
100
AcDbLayerTableRecord
  2
Layer 1
 70
     0
 62
     7
  6
Continuous
370
    -3
390
F
347
3E
  0
ENDTAB
  0
TABLE
  2
STYLE
  5
3
330
0
100
AcDbSymbolTable
 70
     1
  0
STYLE
  5
11
330
3
100
AcDbSymbolTableRecord
100
AcDbTextStyleTableRecord
  2
Standard
 70
     0
 40
0.0
 41
1.0
 50
0.0
 71
     0
 42
0.2
  3
txt
  4

  0
ENDTAB
  0
TABLE
  2
VIEW
  5
6
330
0
100
AcDbSymbolTable
 70
     0
  0
ENDTAB
  0
TABLE
  2
UCS
  5
7
330
0
100
AcDbSymbolTable
 70
     0
  0
ENDTAB
  0
TABLE
  2
APPID
  5
9
330
0
100
AcDbSymbolTable
 70
     1
  0
APPID
  5
12
330
9
100
AcDbSymbolTableRecord
100
AcDbRegAppTableRecord
  2
ACAD
 70
     0
  0
ENDTAB
  0
TABLE
  2
DIMSTYLE
  5
A
330
0
100
AcDbSymbolTable
 70
     1
100
AcDbDimStyleTable
  0
DIMSTYLE
105
27
330
A
100
AcDbSymbolTableRecord
100
AcDbDimStyleTableRecord
  2
Standard
 70
     0
178
     0
340
11
  0
ENDTAB
  0
TABLE
  2
BLOCK_RECORD
  5
1
330
0
100
AcDbSymbolTable
 70
     1
  0
BLOCK_RECORD
  5
1F
330
1
100
AcDbSymbolTableRecord
100
AcDbBlockTableRecord
  2
*Model_Space
340
22
 70
     0
280
     1
281
     0
  0
BLOCK_RECORD
  5
1B
330
1
100
AcDbSymbolTableRecord
100
AcDbBlockTableRecord
  2
*Paper_Space
340
1E
 70
     0
280
     1
281
     0
  0
BLOCK_RECORD
  5
23
330
1
100
AcDbSymbolTableRecord
100
AcDbBlockTableRecord
  2
*Paper_Space0
340
26
 70
     0
280
     1
281
     0
  0
ENDTAB
  0
ENDSEC
  0
SECTION
  2
BLOCKS
  0
BLOCK
  5
20
330
1F
100
AcDbEntity
  8
0
100
AcDbBlockBegin
  2
*Model_Space
 70
     0
 10
0.0
 20
0.0
 30
0.0
  3
*Model_Space
  1

  0
ENDBLK
  5
21
330
1F
100
AcDbEntity
  8
0
100
AcDbBlockEnd
  0
BLOCK
  5
1C
330
1B
100
AcDbEntity
 67
     1
  8
0
100
AcDbBlockBegin
  2
*Paper_Space
 70
     0
 10
0.0
 20
0.0
 30
0.0
  3
*Paper_Space
  1

  0
ENDBLK
  5
1D
330
1B
100
AcDbEntity
 67
     1
  8
0
100
AcDbBlockEnd
  0
BLOCK
  5
24
330
23
100
AcDbEntity
  8
0
100
AcDbBlockBegin
  2
*Paper_Space0
 70
     0
 10
0.0
 20
0.0
 30
0.0
  3
*Paper_Space0
  1

  0
ENDBLK
  5
25
330
23
100
AcDbEntity
  8
0
100
AcDbBlockEnd
  0
ENDSEC
  0
SECTION
  2
ENTITIES
  0
SPLINE
  5
41
330
1F
100
AcDbEntity
  8
Layer 1
370
     0
100
AcDbSpline
210
0.0
220
0.0
230
1.0
 70
    11
 71
     3
 72
   185
 73
   181
 74
     0
 42
0.0000000001
 43
0.0000000001
 12
1.0
 22
0.0
 32
0.0
 13
1.0
 23
0.0
 33
0.0
 40
0.0
 40
0.0
 40
0.0
 40
0.0
 40
1.0
 40
1.0
 40
1.0
 40
2.0
 40
2.0
 40
2.0
 40
3.0
 40
3.0
 40
3.0
 40
4.0
 40
4.0
 40
4.0
 40
5.0
 40
5.0
 40
5.0
 40
6.0
 40
6.0
 40
6.0
 40
7.0
 40
7.0
 40
7.0
 40
8.0
 40
8.0
 40
8.0
 40
9.0
 40
9.0
 40
9.0
 40
10.0
 40
10.0
 40
10.0
 40
11.0
 40
11.0
 40
11.0
 40
12.0
 40
12.0
 40
12.0
 40
13.0
 40
13.0
 40
13.0
 40
14.0
 40
14.0
 40
14.0
 40
15.0
 40
15.0
 40
15.0
 40
16.0
 40
16.0
 40
16.0
 40
17.0
 40
17.0
 40
17.0
 40
18.0
 40
18.0
 40
18.0
 40
19.0
 40
19.0
 40
19.0
 40
20.0
 40
20.0
 40
20.0
 40
21.0
 40
21.0
 40
21.0
 40
22.0
 40
22.0
 40
22.0
 40
23.0
 40
23.0
 40
23.0
 40
24.0
 40
24.0
 40
24.0
 40
25.0
 40
25.0
 40
25.0
 40
26.0
 40
26.0
 40
26.0
 40
27.0
 40
27.0
 40
27.0
 40
28.0
 40
28.0
 40
28.0
 40
29.0
 40
29.0
 40
29.0
 40
30.0
 40
30.0
 40
30.0
 40
31.0
 40
31.0
 40
31.0
 40
32.0
 40
32.0
 40
32.0
 40
33.0
 40
33.0
 40
33.0
 40
34.0
 40
34.0
 40
34.0
 40
35.0
 40
35.0
 40
35.0
 40
36.0
 40
36.0
 40
36.0
 40
37.0
 40
37.0
 40
37.0
 40
38.0
 40
38.0
 40
38.0
 40
39.0
 40
39.0
 40
39.0
 40
40.0
 40
40.0
 40
40.0
 40
41.0
 40
41.0
 40
41.0
 40
42.0
 40
42.0
 40
42.0
 40
43.0
 40
43.0
 40
43.0
 40
44.0
 40
44.0
 40
44.0
 40
45.0
 40
45.0
 40
45.0
 40
46.0
 40
46.0
 40
46.0
 40
47.0
 40
47.0
 40
47.0
 40
48.0
 40
48.0
 40
48.0
 40
49.0
 40
49.0
 40
49.0
 40
50.0
 40
50.0
 40
50.0
 40
51.0
 40
51.0
 40
51.0
 40
52.0
 40
52.0
 40
52.0
 40
53.0
 40
53.0
 40
53.0
 40
54.0
 40
54.0
 40
54.0
 40
55.0
 40
55.0
 40
55.0
 40
56.0
 40
56.0
 40
56.0
 40
57.0
 40
57.0
 40
57.0
 40
58.0
 40
58.0
 40
58.0
 40
59.0
 40
59.0
 40
59.0
 40
60.0
 40
60.0
 40
60.0
 40
60.0
 10
74.97390616222401
 20
119.5359954833984
 30
0.0
 10
75.13490927501698
 20
119.7539978027344
 30
0.0
 10
75.15690481945057
 20
120.0349960327148
 30
0.0
 10
75.02890646739979
 20
120.275993347168
 30
0.0
 10
74.99590933605214
 20
120.4099960327148
 30
0.0
 10
74.92090475841542
 20
120.463996887207
 30
0.0
 10
74.83090842052479
 20
120.5279922485352
 30
0.0
 10
74.81191122814198
 20
120.5419921875
 30
0.0
 10
74.78990805431386
 20
120.546989440918
 30
0.0
 10
74.76991141124745
 20
120.557991027832
 30
0.0
 10
74.74991476818104
 20
120.5689926147461
 30
0.0
 10
74.73190939708729
 20
120.5779876708984
 30
0.0
 10
74.71091330333729
 20
120.5859909057617
 30
0.0
 10
74.65091574474354
 20
120.6129913330078
 30
0.0
 10
74.59091055675526
 20
120.6319885253906
 30
0.0
 10
74.52691519542714
 20
120.6419906616211
 30
0.0
 10
74.50391257091542
 20
120.6459884643555
 30
0.0
 10
74.48191702648182
 20
120.6499938964844
 30
0.0
 10
74.4599138526537
 20
120.650993347168
 30
0.0
 10
74.39391196056386
 20
120.6549911499023
 30
0.0
 10
74.32791006847401
 20
120.6479949951172
 30
0.0
 10
74.26291525646229
 20
120.6329956054688
 30
0.0
 10
74.24291861339589
 20
120.6289978027344
 30
0.0
 10
74.22491324230214
 20
120.6289978027344
 30
0.0
 10
74.20491659923573
 20
120.6229934692383
 30
0.0
 10
74.12591421886464
 20
120.5979919433594
 30
0.0
 10
74.04891836925526
 20
120.5619964599609
 30
0.0
 10
73.97991812511464
 20
120.5089950561523
 30
0.0
 10
73.97891867443104
 20
120.5079956054688
 30
0.0
 10
73.97392142101307
 20
120.5029983520508
 30
0.0
 10
73.97291434093495
 20
120.5019912719727
 30
0.0
 10
73.97091543956776
 20
120.5009918212891
 30
0.0
 10
73.96891653820057
 20
120.4999923706055
 30
0.0
 10
73.96691763683339
 20
120.4989929199219
 30
0.0
 10
73.96691763683339
 20
120.4989929199219
 30
0.0
 10
40.0629068641274
 20
92.92298889160156
 30
0.0
 10
40.0629068641274
 20
92.92298889160156
 30
0.0
 10
40.0629068641274
 20
92.92298889160156
 30
0.0
 10
20.20790732189107
 20
98.50198364257812
 30
0.0
 10
20.20790732189107
 20
98.50198364257812
 30
0.0
 10
20.17790663524556
 20
98.50997924804688
 30
0.0
 10
20.14890730663228
 20
98.50398254394531
 30
0.0
 10
20.119907978019
 20
98.50798034667969
 30
0.0
 10
20.09690726085591
 20
98.51197814941406
 30
0.0
 10
20.07590735240865
 20
98.5269775390625
 30
0.0
 10
20.05190718456197
 20
98.52798461914062
 30
0.0
 10
20.0309072761147
 20
98.52798461914062
 30
0.0
 10
20.01490652843404
 20
98.51799011230469
 30
0.0
 10
19.994907978019
 20
98.51698303222656
 30
0.0
 10
19.92890799327779
 20
98.51498413085938
 30
0.0
 10
19.86890852733541
 20
98.5009765625
 30
0.0
 10
19.8069082526772
 20
98.48298645019531
 30
0.0
 10
19.77290785594869
 20
98.47198486328125
 30
0.0
 10
19.7399088172524
 20
98.46498107910156
 30
0.0
 10
19.70790732189107
 20
98.44998168945312
 30
0.0
 10
19.64390814586568
 20
98.41897583007812
 30
0.0
 10
19.5889078406899
 20
98.37498474121094
 30
0.0
 10
19.53690779491353
 20
98.32498168945312
 30
0.0
 10
19.51990759654927
 20
98.30897521972656
 30
0.0
 10
19.49690687938619
 20
98.302978515625
 30
0.0
 10
19.48190748973775
 20
98.28498840332031
 30
0.0
 10
19.48190748973775
 20
98.28498840332031
 30
0.0
 10
10.56190741344381
 20
88.02998352050781
 30
0.0
 10
10.56190741344381
 20
88.02998352050781
 30
0.0
 10
10.56190741344381
 20
88.02998352050781
 30
0.0
 10
2.90490782543111
 20
83.84698486328125
 30
0.0
 10
2.90490782543111
 20
83.84698486328125
 30
0.0
 10
2.636908176383258
 20
83.70098876953125
 30
0.0
 10
2.492908122977497
 20
83.39898681640625
 30
0.0
 10
2.547907474478961
 20
83.09799194335938
 30
0.0
 10
2.602906825980426
 20
82.7969970703125
 30
0.0
 10
2.8439070014565
 20
82.56599426269531
 30
0.0
 10
3.145907047232868
 20
82.52299499511719
 30
0.0
 10
3.145907047232868
 20
82.52299499511719
 30
0.0
 10
16.06390631481099
 20
80.69898986816406
 30
0.0
 10
16.06390631481099
 20
80.69898986816406
 30
0.0
 10
16.06390631481099
 20
80.69898986816406
 30
0.0
 10
19.78490698619771
 20
76.49998474121094
 30
0.0
 10
19.78490698619771
 20
76.49998474121094
 30
0.0
 10
19.78490698619771
 20
76.49998474121094
 30
0.0
 10
24.17290747447896
 20
69.07998657226562
 30
0.0
 10
24.17290747447896
 20
69.07998657226562
 30
0.0
 10
24.17490637584615
 20
69.07598876953125
 30
0.0
 10
24.17890799327779
 20
69.07498168945312
 30
0.0
 10
24.18090689464498
 20
69.07199096679688
 30
0.0
 10
24.18390524669576
 20
69.06698608398438
 30
0.0
 10
24.18390524669576
 20
69.06098937988281
 30
0.0
 10
24.18690741344381
 20
69.05598449707031
 30
0.0
 10
24.18690741344381
 20
69.05598449707031
 30
0.0
 10
25.94190848155904
 20
66.3289794921875
 30
0.0
 10
25.94190848155904
 20
66.3289794921875
 30
0.0
 10
25.94190848155904
 20
66.32797241210938
 30
0.0
 10
25.94190848155904
 20
66.32797241210938
 30
0.0
 10
25.94190848155904
 20
66.32797241210938
 30
0.0
 10
25.94190848155904
 20
66.32797241210938
 30
0.0
 10
25.95090735240865
 20
66.31297302246094
 30
0.0
 10
25.95090735240865
 20
66.31297302246094
 30
0.0
 10
25.99590552135396
 20
66.24397277832031
 30
0.0
 10
26.05490744396138
 20
66.18496704101562
 30
0.0
 10
26.11890661998677
 20
66.13597106933594
 30
0.0
 10
26.12390768810201
 20
66.13096618652344
 30
0.0
 10
26.12690604015279
 20
66.12496948242188
 30
0.0
 10
26.13190710826802
 20
66.1209716796875
 30
0.0
 10
26.15590536876607
 20
66.10296630859375
 30
0.0
 10
26.18390524669576
 20
66.09597778320312
 30
0.0
 10
26.20890677257466
 20
66.08197021484375
 30
0.0
 10
26.23590719982076
 20
66.06697082519531
 30
0.0
 10
26.25890600963521
 20
66.04696655273438
 30
0.0
 10
26.28790533824849
 20
66.03596496582031
 30
0.0
 10
26.28790533824849
 20
66.03596496582031
 30
0.0
 10
40.67690527721334
 20
60.40296936035156
 30
0.0
 10
40.67690527721334
 20
60.40296936035156
 30
0.0
 10
36.01390707775045
 20
58.073974609375
 30
0.0
 10
36.00390494151998
 20
57.91496276855469
 30
0.0
 10
36.01990378185201
 20
57.40797424316406
 30
0.0
 10
36.04990256114888
 20
56.6419677734375
 30
0.0
 10
36.06690466686177
 20
56.52796936035156
 30
0.0
 10
43.06490195079732
 20
56.38497924804688
 30
0.0
 10
40.09190237804341
 20
54.66497802734375
 30
0.0
 10
38.57890188976216
 20
53.77297973632812
 30
0.0
 10
37.8439012794106
 20
53.24098205566406
 30
0.0
 10
37.76690161510396
 20
53.22598266601562
 30
0.0
 10
37.71390021129537
 20
53.21298217773438
 30
0.0
 10
37.6829019813149
 20
53.19998168945312
 30
0.0
 10
37.6829019813149
 20
53.19998168945312
 30
0.0
 10
37.70690024181295
 20
53.13897705078125
 30
0.0
 10
37.70690024181295
 20
53.13897705078125
 30
0.0
 10
37.08690130992818
 20
52.66397094726562
 30
0.0
 10
37.16589987560201
 20
52.50497436523438
 30
0.0
 10
37.30489981456685
 20
52.22598266601562
 30
0.0
 10
37.42989981456685
 20
51.97398376464844
 30
0.0
 10
37.65790045543599
 20
51.81698608398438
 30
0.0
 10
37.90989935680318
 20
51.81698608398438
 30
0.0
 10
37.99190008922506
 20
51.81698608398438
 30
0.0
 10
38.07689917369771
 20
51.833984375
 30
0.0
 10
38.16189825817037
 20
51.86997985839844
 30
0.0
 10
38.79889929576802
 20
52.01498413085938
 30
0.0
 10
46.0679003028481
 20
52.458984375
 30
0.0
 10
50.62089789195943
 20
52.70997619628906
 30
0.0
 10
50.67289603038716
 20
52.69798278808594
 30
0.0
 10
50.72189963146138
 20
52.68997192382812
 30
0.0
 10
50.76289618297506
 20
52.68997192382812
 30
0.0
 10
50.87889731212545
 20
52.68997192382812
 30
0.0
 10
50.96289694591451
 20
52.73097229003906
 30
0.0
 10
51.06189596935292
 20
52.78097534179688
 30
0.0
 10
51.14489615245839
 20
52.82197570800781
 30
0.0
 10
51.2158952979662
 20
52.88298034667969
 30
0.0
 10
51.27689612194081
 20
52.95198059082031
 30
0.0
 10
51.2778955726244
 20
52.95298767089844
 30
0.0
 10
51.27989447399159
 20
52.9539794921875
 30
0.0
 10
51.28089773937245
 20
52.95498657226562
 30
0.0
 10
51.3048959998705
 20
52.98399353027344
 30
0.0
 10
51.31789648815175
 20
53.01898193359375
 30
0.0
 10
51.33889639659901
 20
53.05299377441406
 30
0.0
 10
51.37089789196034
 20
53.10299682617188
 30
0.0
 10
51.403895023308
 20
53.1510009765625
 30
0.0
 10
51.42289603038807
 20
53.20799255371094
 30
0.0
 10
51.42489493175526
 20
53.21199035644531
 30
0.0
 10
51.4288965491869
 20
53.21598815917969
 30
0.0
 10
51.4298959998705
 20
53.21998596191406
 30
0.0
 10
51.7418962745287
 20
53.86698913574219
 30
0.0
 10
55.02689230724354
 20
58.95098876953125
 30
0.0
 10
57.15289938732167
 20
62.20098876953125
 30
0.0
 10
57.15289938732167
 20
62.20098876953125
 30
0.0
 10
66.4188982276537
 20
64.75198364257812
 30
0.0
 10
66.4188982276537
 20
64.75198364257812
 30
0.0
 10
66.63189566417714
 20
64.81098937988281
 30
0.0
 10
66.80589926525136
 20
64.96598815917969
 30
0.0
 10
66.88789999767323
 20
65.17098999023438
 30
0.0
 10
66.9709001807787
 20
65.37698364257812
 30
0.0
 10
66.95190298839589
 20
65.60899353027344
 30
0.0
 10
66.83889639659901
 20
65.79899597167969
 30
0.0
 10
66.83889639659901
 20
65.79899597167969
 30
0.0
 10
60.57489645763417
 20
76.30299377441406
 30
0.0
 10
60.57489645763417
 20
76.30299377441406
 30
0.0
 10
61.20089590831776
 20
78.1409912109375
 30
0.0
 10
64.54189932628651
 20
87.96099853515625
 30
0.0
 10
67.86289847179432
 20
97.80099487304688
 30
0.0
 10
73.00390494152089
 20
113.0369873046875
 30
0.0
 10
74.63590872570057
 20
117.8719940185547
 30
0.0
 10
74.97390616222401
 20
119.5359954833984
 30
0.0
  0
SPLINE
  5
42
330
1F
100
AcDbEntity
  8
Layer 1
370
     0
100
AcDbSpline
210
0.0
220
0.0
230
1.0
 70
    11
 71
     3
 72
    14
 73
    10
 74
     0
 42
0.0000000001
 43
0.0000000001
 12
1.0
 22
0.0
 32
0.0
 13
1.0
 23
0.0
 33
0.0
 40
0.0
 40
0.0
 40
0.0
 40
0.0
 40
1.0
 40
1.0
 40
1.0
 40
2.0
 40
2.0
 40
2.0
 40
3.0
 40
3.0
 40
3.0
 40
3.0
 10
65.7309099464037
 20
111.9739990234375
 30
0.0
 10
60.12691366954823
 20
106.1410064697266
 30
0.0
 10
52.55691016002675
 20
98.24600219726562
 30
0.0
 10
45.88690817638326
 20
91.28599548339844
 30
0.0
 10
45.88690817638326
 20
91.28599548339844
 30
0.0
 10
41.73290884776998
 20
92.4530029296875
 30
0.0
 10
41.73290884776998
 20
92.4530029296875
 30
0.0
 10
41.73290884776998
 20
92.4530029296875
 30
0.0
 10
65.7309099464037
 20
111.9739990234375
 30
0.0
 10
65.7309099464037
 20
111.9739990234375
 30
0.0
  0
POLYLINE
  5
43
330
1F
100
AcDbEntity
  8
Layer 1
370
     0
100
AcDb2dPolyline
 66
     1
 10
0.0
 20
0.0
 30
0.0
  0
VERTEX
  5
44
330
43
100
AcDbEntity
  8
Layer 1
370
     0
100
AcDbVertex
100
AcDb2dVertex
 10
27.65690863414693
 20
67.02398681640625
 30
0.0
  0
VERTEX
  5
45
330
43
100
AcDbEntity
  8
Layer 1
370
     0
100
AcDbVertex
100
AcDb2dVertex
 10
36.79490912242818
 20
79.70799255371094
 30
0.0
  0
VERTEX
  5
46
330
43
100
AcDbEntity
  8
Layer 1
370
     0
100
AcDbVertex
100
AcDb2dVertex
 10
52.03990805431386
 20
84.69198608398438
 30
0.0
  0
VERTEX
  5
47
330
43
100
AcDbEntity
  8
Layer 1
370
     0
100
AcDbVertex
100
AcDb2dVertex
 10
36.39790976329732
 20
63.60198974609375
 30
0.0
  0
VERTEX
  5
48
330
43
100
AcDbEntity
  8
Layer 1
370
     0
100
AcDbVertex
100
AcDb2dVertex
 10
27.65690863414693
 20
67.02398681640625
 30
0.0
  0
SEQEND
  5
49
330
43
100
AcDbEntity
  8
Layer 1
370
     0
  0
SPLINE
  5
4A
330
1F
100
AcDbEntity
  8
Layer 1
370
     0
100
AcDbSpline
210
0.0
220
0.0
230
1.0
 70
    11
 71
     3
 72
    53
 73
    49
 74
     0
 42
0.0000000001
 43
0.0000000001
 12
1.0
 22
0.0
 32
0.0
 13
1.0
 23
0.0
 33
0.0
 40
0.0
 40
0.0
 40
0.0
 40
0.0
 40
1.0
 40
1.0
 40
1.0
 40
2.0
 40
2.0
 40
2.0
 40
3.0
 40
3.0
 40
3.0
 40
4.0
 40
4.0
 40
4.0
 40
5.0
 40
5.0
 40
5.0
 40
6.0
 40
6.0
 40
6.0
 40
7.0
 40
7.0
 40
7.0
 40
8.0
 40
8.0
 40
8.0
 40
9.0
 40
9.0
 40
9.0
 40
10.0
 40
10.0
 40
10.0
 40
11.0
 40
11.0
 40
11.0
 40
12.0
 40
12.0
 40
12.0
 40
13.0
 40
13.0
 40
13.0
 40
14.0
 40
14.0
 40
14.0
 40
15.0
 40
15.0
 40
15.0
 40
16.0
 40
16.0
 40
16.0
 40
16.0
 10
35.84290564342427
 20
80.79998779296875
 30
0.0
 10
35.83090460582662
 20
80.7869873046875
 30
0.0
 10
35.82690680309224
 20
80.77098083496094
 30
0.0
 10
35.81590521617818
 20
80.75798034667969
 30
0.0
 10
35.80490362926412
 20
80.74397277832031
 30
0.0
 10
35.78990423961568
 20
80.73698425292969
 30
0.0
 10
35.77890646739888
 20
80.72398376464844
 30
0.0
 10
35.77890646739888
 20
80.72398376464844
 30
0.0
 10
26.57990515514302
 20
67.95498657226562
 30
0.0
 10
26.57990515514302
 20
67.95498657226562
 30
0.0
 10
26.57990515514302
 20
67.95498657226562
 30
0.0
 10
25.50290549083638
 20
69.62898254394531
 30
0.0
 10
25.50290549083638
 20
69.62898254394531
 30
0.0
 10
25.50290549083638
 20
69.62898254394531
 30
0.0
 10
26.64690649791646
 20
89.41098022460938
 30
0.0
 10
26.64690649791646
 20
89.41098022460938
 30
0.0
 10
26.64790594860006
 20
89.43397521972656
 30
0.0
 10
26.63890707775045
 20
89.45498657226562
 30
0.0
 10
26.63790762706685
 20
89.47697448730469
 30
0.0
 10
26.63790762706685
 20
89.47697448730469
 30
0.0
 10
26.63790762706685
 20
89.47697448730469
 30
0.0
 10
26.63790762706685
 20
89.47697448730469
 30
0.0
 10
26.63690817638326
 20
89.4959716796875
 30
0.0
 10
26.64290869518209
 20
89.51197814941406
 30
0.0
 10
26.64090597911763
 20
89.53097534179688
 30
0.0
 10
26.64090597911763
 20
89.53598022460938
 30
0.0
 10
26.64190542980123
 20
89.54096984863281
 30
0.0
 10
26.64190542980123
 20
89.54597473144531
 30
0.0
 10
26.63890707775045
 20
89.57197570800781
 30
0.0
 10
26.62290442272115
 20
89.59297180175781
 30
0.0
 10
26.61790716930318
 20
89.61697387695312
 30
0.0
 10
26.60690558238912
 20
89.66297912597656
 30
0.0
 10
26.59290564342427
 20
89.70597839355469
 30
0.0
 10
26.57290900035787
 20
89.74797058105469
 30
0.0
 10
26.55790961070943
 20
89.77996826171875
 30
0.0
 10
26.54490912242818
 20
89.81097412109375
 30
0.0
 10
26.5259081153481
 20
89.84097290039062
 30
0.0
 10
26.52190649791646
 20
89.84696960449219
 30
0.0
 10
26.52290976329732
 20
89.85597229003906
 30
0.0
 10
26.51790869518209
 20
89.86196899414062
 30
0.0
 10
26.51790869518209
 20
89.86196899414062
 30
0.0
 10
21.7509065894692
 20
96.59596252441406
 30
0.0
 10
21.7509065894692
 20
96.59596252441406
 30
0.0
 10
21.7509065894692
 20
96.59596252441406
 30
0.0
 10
44.7759081153481
 20
90.12496948242188
 30
0.0
 10
44.7759081153481
 20
90.12496948242188
 30
0.0
 10
41.37790549083638
 20
86.57899475097656
 30
0.0
 10
38.26490652843404
 20
83.32899475097656
 30
0.0
 10
35.84290564342427
 20
80.79998779296875
 30
0.0
  0
POLYLINE
  5
4B
330
1F
100
AcDbEntity
  8
Layer 1
370
     0
100
AcDb2dPolyline
 66
     1
 10
0.0
 20
0.0
 30
0.0
  0
VERTEX
  5
4C
330
4B
100
AcDbEntity
  8
Layer 1
370
     0
100
AcDbVertex
100
AcDb2dVertex
 10
12.42490637584615
 20
86.93998718261719
 30
0.0
  0
VERTEX
  5
4D
330
4B
100
AcDbEntity
  8
Layer 1
370
     0
100
AcDbVertex
100
AcDb2dVertex
 10
24.7769075660317
 20
88.58299255371094
 30
0.0
  0
VERTEX
  5
4E
330
4B
100
AcDbEntity
  8
Layer 1
370
     0
100
AcDbVertex
100
AcDb2dVertex
 10
20.15990698619771
 20
78.21199035644531
 30
0.0
  0
VERTEX
  5
4F
330
4B
100
AcDbEntity
  8
Layer 1
370
     0
100
AcDbVertex
100
AcDb2dVertex
 10
12.42490637584615
 20
86.93998718261719
 30
0.0
  0
SEQEND
  5
50
330
4B
100
AcDbEntity
  8
Layer 1
370
     0
  0
POLYLINE
  5
51
330
1F
100
AcDbEntity
  8
Layer 1
370
     0
100
AcDb2dPolyline
 66
     1
 10
0.0
 20
0.0
 30
0.0
  0
VERTEX
  5
52
330
51
100
AcDbEntity
  8
Layer 1
370
     0
100
AcDbVertex
100
AcDb2dVertex
 10
19.95890677257466
 20
96.67399597167969
 30
0.0
  0
VERTEX
  5
53
330
51
100
AcDbEntity
  8
Layer 1
370
     0
100
AcDbVertex
100
AcDb2dVertex
 10
24.68290579601216
 20
90.0
 30
0.0
  0
VERTEX
  5
54
330
51
100
AcDbEntity
  8
Layer 1
370
     0
100
AcDbVertex
100
AcDb2dVertex
 10
12.77590620799947
 20
88.41700744628906
 30
0.0
  0
VERTEX
  5
55
330
51
100
AcDbEntity
  8
Layer 1
370
     0
100
AcDbVertex
100
AcDb2dVertex
 10
19.95890677257466
 20
96.67399597167969
 30
0.0
  0
SEQEND
  5
56
330
51
100
AcDbEntity
  8
Layer 1
370
     0
  0
POLYLINE
  5
57
330
1F
100
AcDbEntity
  8
Layer 1
370
     0
100
AcDb2dPolyline
 66
     1
 10
0.0
 20
0.0
 30
0.0
  0
VERTEX
  5
58
330
57
100
AcDbEntity
  8
Layer 1
370
     0
100
AcDbVertex
100
AcDb2dVertex
 10
25.00790655895162
 20
85.61698913574219
 30
0.0
  0
VERTEX
  5
59
330
57
100
AcDbEntity
  8
Layer 1
370
     0
100
AcDbVertex
100
AcDb2dVertex
 10
24.20990622325826
 20
71.80099487304688
 30
0.0
  0
VERTEX
  5
5A
330
57
100
AcDbEntity
  8
Layer 1
370
     0
100
AcDbVertex
100
AcDb2dVertex
 10
21.15590536876607
 20
76.9639892578125
 30
0.0
  0
VERTEX
  5
5B
330
57
100
AcDbEntity
  8
Layer 1
370
     0
100
AcDbVertex
100
AcDb2dVertex
 10
25.00790655895162
 20
85.61698913574219
 30
0.0
  0
SEQEND
  5
5C
330
57
100
AcDbEntity
  8
Layer 1
370
     0
  0
POLYLINE
  5
5D
330
1F
100
AcDbEntity
  8
Layer 1
370
     0
100
AcDb2dPolyline
 66
     1
 10
0.0
 20
0.0
 30
0.0
  0
VERTEX
  5
5E
330
5D
100
AcDbEntity
  8
Layer 1
370
     0
100
AcDbVertex
100
AcDb2dVertex
 10
5.459908130606891
 20
83.62799072265625
 30
0.0
  0
VERTEX
  5
5F
330
5D
100
AcDbEntity
  8
Layer 1
370
     0
100
AcDbVertex
100
AcDb2dVertex
 10
10.85590803905416
 20
86.57499694824219
 30
0.0
  0
VERTEX
  5
60
330
5D
100
AcDbEntity
  8
Layer 1
370
     0
100
AcDbVertex
100
AcDb2dVertex
 10
14.61190855785298
 20
82.33499145507812
 30
0.0
  0
VERTEX
  5
61
330
5D
100
AcDbEntity
  8
Layer 1
370
     0
100
AcDbVertex
100
AcDb2dVertex
 10
5.459908130606891
 20
83.62799072265625
 30
0.0
  0
SEQEND
  5
62
330
5D
100
AcDbEntity
  8
Layer 1
370
     0
  0
SPLINE
  5
63
330
1F
100
AcDbEntity
  8
Layer 1
370
     0
100
AcDbSpline
210
0.0
220
0.0
230
1.0
 70
    11
 71
     3
 72
    17
 73
    13
 74
     0
 42
0.0000000001
 43
0.0000000001
 12
1.0
 22
0.0
 32
0.0
 13
1.0
 23
0.0
 33
0.0
 40
0.0
 40
0.0
 40
0.0
 40
0.0
 40
1.0
 40
1.0
 40
1.0
 40
2.0
 40
2.0
 40
2.0
 40
3.0
 40
3.0
 40
3.0
 40
4.0
 40
4.0
 40
4.0
 40
4.0
 10
42.45890677257466
 20
59.70700073242188
 30
0.0
 10
42.45890677257466
 20
59.70700073242188
 30
0.0
 10
44.26090872569966
 20
59.00199890136719
 30
0.0
 10
44.26090872569966
 20
59.00199890136719
 30
0.0
 10
44.26090872569966
 20
59.00199890136719
 30
0.0
 10
44.68590796276021
 20
57.77299499511719
 30
0.0
 10
44.68590796276021
 20
57.77299499511719
 30
0.0
 10
42.65390646739888
 20
57.81199645996094
 30
0.0
 10
40.51090872569966
 20
57.875
 30
0.0
 10
38.99290716930318
 20
57.9429931640625
 30
0.0
 10
39.97690832897115
 20
58.45899963378906
 30
0.0
 10
41.23890555187154
 20
59.10099792480469
 30
0.0
 10
42.45890677257466
 20
59.70700073242188
 30
0.0
  0
SPLINE
  5
64
330
1F
100
AcDbEntity
  8
Layer 1
370
     0
100
AcDbSpline
210
0.0
220
0.0
230
1.0
 70
    11
 71
     3
 72
    14
 73
    10
 74
     0
 42
0.0000000001
 43
0.0000000001
 12
1.0
 22
0.0
 32
0.0
 13
1.0
 23
0.0
 33
0.0
 40
0.0
 40
0.0
 40
0.0
 40
0.0
 40
1.0
 40
1.0
 40
1.0
 40
2.0
 40
2.0
 40
2.0
 40
3.0
 40
3.0
 40
3.0
 40
3.0
 10
40.99790823741841
 20
53.54100036621094
 30
0.0
 10
42.4379068641274
 20
54.38200378417969
 30
0.0
 10
44.19590628429341
 20
55.39900207519531
 30
0.0
 10
45.61990988536763
 20
56.22200012207031
 30
0.0
 10
46.87890875621724
 20
55.25100708007812
 30
0.0
 10
47.82091009899068
 20
54.53399658203125
 30
0.0
 10
48.53090918346334
 20
54.01400756835938
 30
0.0
 10
45.3129068641274
 20
53.82998657226562
 30
0.0
 10
42.79090750499654
 20
53.6719970703125
 30
0.0
 10
40.99790823741841
 20
53.54100036621094
 30
0.0
  0
SPLINE
  5
65
330
1F
100
AcDbEntity
  8
Layer 1
370
     0
100
AcDbSpline
210
0.0
220
0.0
230
1.0
 70
    11
 71
     3
 72
    17
 73
    13
 74
     0
 42
0.0000000001
 43
0.0000000001
 12
1.0
 22
0.0
 32
0.0
 13
1.0
 23
0.0
 33
0.0
 40
0.0
 40
0.0
 40
0.0
 40
0.0
 40
1.0
 40
1.0
 40
1.0
 40
2.0
 40
2.0
 40
2.0
 40
3.0
 40
3.0
 40
3.0
 40
4.0
 40
4.0
 40
4.0
 40
4.0
 10
50.4749056129067
 20
54.38398742675781
 30
0.0
 10
49.61990607067037
 20
54.96798706054688
 30
0.0
 10
47.87790549083638
 20
56.26998901367188
 30
0.0
 10
46.27790701671529
 20
57.50498962402344
 30
0.0
 10
46.27790701671529
 20
57.50498962402344
 30
0.0
 10
45.74190771861959
 20
59.05998229980469
 30
0.0
 10
45.74190771861959
 20
59.05998229980469
 30
0.0
 10
45.74190771861959
 20
59.05998229980469
 30
0.0
 10
55.08991110607167
 20
61.63398742675781
 30
0.0
 10
55.08991110607167
 20
61.63398742675781
 30
0.0
 10
52.27090704723378
 20
57.31399536132812
 30
0.0
 10
51.02190649791737
 20
55.32998657226562
 30
0.0
 10
50.4749056129067
 20
54.38398742675781
 30
0.0
  0
SPLINE
  5
66
330
1F
100
AcDbEntity
  8
Layer 1
370
     0
100
AcDbSpline
210
0.0
220
0.0
230
1.0
 70
    11
 71
     3
 72
    23
 73
    19
 74
     0
 42
0.0000000001
 43
0.0000000001
 12
1.0
 22
0.0
 32
0.0
 13
1.0
 23
0.0
 33
0.0
 40
0.0
 40
0.0
 40
0.0
 40
0.0
 40
1.0
 40
1.0
 40
1.0
 40
2.0
 40
2.0
 40
2.0
 40
3.0
 40
3.0
 40
3.0
 40
4.0
 40
4.0
 40
4.0
 40
5.0
 40
5.0
 40
5.0
 40
6.0
 40
6.0
 40
6.0
 40
6.0
 10
44.86290610118795
 20
60.28900146484375
 30
0.0
 10
44.86290610118795
 20
60.28900146484375
 30
0.0
 10
42.6619058875649
 20
61.14999389648438
 30
0.0
 10
42.6619058875649
 20
61.14999389648438
 30
0.0
 10
42.65790427013326
 20
61.15199279785156
 30
0.0
 10
42.65390646739888
 20
61.15399169921875
 30
0.0
 10
42.64890539928365
 20
61.15499877929688
 30
0.0
 10
42.64890539928365
 20
61.15499877929688
 30
0.0
 10
37.76390707775045
 20
63.06700134277344
 30
0.0
 10
37.76390707775045
 20
63.06700134277344
 30
0.0
 10
37.76390707775045
 20
63.06700134277344
 30
0.0
 10
53.86791098400136
 20
84.781005859375
 30
0.0
 10
53.86791098400136
 20
84.781005859375
 30
0.0
 10
53.86791098400136
 20
84.781005859375
 30
0.0
 10
65.14391196056386
 20
65.87300109863281
 30
0.0
 10
65.14391196056386
 20
65.87300109863281
 30
0.0
 10
65.14391196056386
 20
65.87300109863281
 30
0.0
 10
44.86290610118795
 20
60.28900146484375
 30
0.0
 10
44.86290610118795
 20
60.28900146484375
 30
0.0
  0
SPLINE
  5
67
330
1F
100
AcDbEntity
  8
Layer 1
370
     0
100
AcDbSpline
210
0.0
220
0.0
230
1.0
 70
    11
 71
     3
 72
    47
 73
    43
 74
     0
 42
0.0000000001
 43
0.0000000001
 12
1.0
 22
0.0
 32
0.0
 13
1.0
 23
0.0
 33
0.0
 40
0.0
 40
0.0
 40
0.0
 40
0.0
 40
1.0
 40
1.0
 40
1.0
 40
2.0
 40
2.0
 40
2.0
 40
3.0
 40
3.0
 40
3.0
 40
4.0
 40
4.0
 40
4.0
 40
5.0
 40
5.0
 40
5.0
 40
6.0
 40
6.0
 40
6.0
 40
7.0
 40
7.0
 40
7.0
 40
8.0
 40
8.0
 40
8.0
 40
9.0
 40
9.0
 40
9.0
 40
10.0
 40
10.0
 40
10.0
 40
11.0
 40
11.0
 40
11.0
 40
12.0
 40
12.0
 40
12.0
 40
13.0
 40
13.0
 40
13.0
 40
14.0
 40
14.0
 40
14.0
 40
14.0
 10
54.54390585704823
 20
86.4169921875
 30
0.0
 10
54.54390585704823
 20
86.41799926757812
 30
0.0
 10
54.54390585704823
 20
86.41799926757812
 30
0.0
 10
54.54390585704823
 20
86.41899108886719
 30
0.0
 10
54.54390585704823
 20
86.41899108886719
 30
0.0
 10
54.54190695568104
 20
86.42098999023438
 30
0.0
 10
54.54190695568104
 20
86.42098999023438
 30
0.0
 10
54.49490988536854
 20
86.49899291992188
 30
0.0
 10
54.43490469738026
 20
86.56298828125
 30
0.0
 10
54.36490500255604
 20
86.61599731445312
 30
0.0
 10
54.36090719982167
 20
86.61900329589844
 30
0.0
 10
54.35890829845448
 20
86.62399291992188
 30
0.0
 10
54.35490286632557
 20
86.62699890136719
 30
0.0
 10
54.33990347667714
 20
86.63800048828125
 30
0.0
 10
54.32190573497792
 20
86.63999938964844
 30
0.0
 10
54.30589926525136
 20
86.64999389648438
 30
0.0
 10
54.25089896007557
 20
86.68399047851562
 30
0.0
 10
54.1948992042162
 20
86.71199035644531
 30
0.0
 10
54.13290274425526
 20
86.73098754882812
 30
0.0
 10
54.1009050635912
 20
86.739990234375
 30
0.0
 10
54.07090628429432
 20
86.7449951171875
 30
0.0
 10
54.03690207286854
 20
86.74998474121094
 30
0.0
 10
53.98589957042714
 20
86.75698852539062
 30
0.0
 10
53.93590414806386
 20
86.75997924804688
 30
0.0
 10
53.88390219493886
 20
86.75698852539062
 30
0.0
 10
53.84789908214589
 20
86.75398254394531
 30
0.0
 10
53.81290304943104
 20
86.74899291992188
 30
0.0
 10
53.77789938732167
 20
86.74098205566406
 30
0.0
 10
53.75589621349354
 20
86.73597717285156
 30
0.0
 10
53.73390066905995
 20
86.73797607421875
 30
0.0
 10
53.71289694591542
 20
86.73098754882812
 30
0.0
 10
53.71289694591542
 20
86.73098754882812
 30
0.0
 10
38.82289755626607
 20
81.86198425292969
 30
0.0
 10
38.82289755626607
 20
81.86198425292969
 30
0.0
 10
49.85389578624654
 20
93.3809814453125
 30
0.0
 10
67.12589896007557
 20
111.3979797363281
 30
0.0
 10
72.90589773937245
 20
117.3899841308594
 30
0.0
 10
70.67289603038807
 20
110.4939880371094
 30
0.0
 10
64.32990134044667
 20
91.73397827148438
 30
0.0
 10
59.62189352794667
 20
77.90199279785156
 30
0.0
 10
59.62189352794667
 20
77.90199279785156
 30
0.0
 10
54.54390585704823
 20
86.4169921875
 30
0.0
 10
54.54390585704823
 20
86.4169921875
 30
0.0
  0
HATCH
  5
68
330
1F
100
AcDbEntity
  8
Layer 1
 62
     7
420
 16777215
100
AcDbHatch
 10
0.0
 20
0.0
 30
0.0
210
0.0
220
0.0
230
1.0
  2
SOLID
 70
     1
 71
     0
 91
       13
 92
        1
 93
        1
 72
     4
 94
        3
 73
     0
 74
     1
 95
      185
 96
      181
 40
0.0
 40
0.0
 40
0.0
 40
0.0
 40
1.0
 40
1.0
 40
1.0
 40
2.0
 40
2.0
 40
2.0
 40
3.0
 40
3.0
 40
3.0
 40
4.0
 40
4.0
 40
4.0
 40
5.0
 40
5.0
 40
5.0
 40
6.0
 40
6.0
 40
6.0
 40
7.0
 40
7.0
 40
7.0
 40
8.0
 40
8.0
 40
8.0
 40
9.0
 40
9.0
 40
9.0
 40
10.0
 40
10.0
 40
10.0
 40
11.0
 40
11.0
 40
11.0
 40
12.0
 40
12.0
 40
12.0
 40
13.0
 40
13.0
 40
13.0
 40
14.0
 40
14.0
 40
14.0
 40
15.0
 40
15.0
 40
15.0
 40
16.0
 40
16.0
 40
16.0
 40
17.0
 40
17.0
 40
17.0
 40
18.0
 40
18.0
 40
18.0
 40
19.0
 40
19.0
 40
19.0
 40
20.0
 40
20.0
 40
20.0
 40
21.0
 40
21.0
 40
21.0
 40
22.0
 40
22.0
 40
22.0
 40
23.0
 40
23.0
 40
23.0
 40
24.0
 40
24.0
 40
24.0
 40
25.0
 40
25.0
 40
25.0
 40
26.0
 40
26.0
 40
26.0
 40
27.0
 40
27.0
 40
27.0
 40
28.0
 40
28.0
 40
28.0
 40
29.0
 40
29.0
 40
29.0
 40
30.0
 40
30.0
 40
30.0
 40
31.0
 40
31.0
 40
31.0
 40
32.0
 40
32.0
 40
32.0
 40
33.0
 40
33.0
 40
33.0
 40
34.0
 40
34.0
 40
34.0
 40
35.0
 40
35.0
 40
35.0
 40
36.0
 40
36.0
 40
36.0
 40
37.0
 40
37.0
 40
37.0
 40
38.0
 40
38.0
 40
38.0
 40
39.0
 40
39.0
 40
39.0
 40
40.0
 40
40.0
 40
40.0
 40
41.0
 40
41.0
 40
41.0
 40
42.0
 40
42.0
 40
42.0
 40
43.0
 40
43.0
 40
43.0
 40
44.0
 40
44.0
 40
44.0
 40
45.0
 40
45.0
 40
45.0
 40
46.0
 40
46.0
 40
46.0
 40
47.0
 40
47.0
 40
47.0
 40
48.0
 40
48.0
 40
48.0
 40
49.0
 40
49.0
 40
49.0
 40
50.0
 40
50.0
 40
50.0
 40
51.0
 40
51.0
 40
51.0
 40
52.0
 40
52.0
 40
52.0
 40
53.0
 40
53.0
 40
53.0
 40
54.0
 40
54.0
 40
54.0
 40
55.0
 40
55.0
 40
55.0
 40
56.0
 40
56.0
 40
56.0
 40
57.0
 40
57.0
 40
57.0
 40
58.0
 40
58.0
 40
58.0
 40
59.0
 40
59.0
 40
59.0
 40
60.0
 40
60.0
 40
60.0
 40
60.0
 10
74.97390616222401
 20
119.5359954833984
 10
75.13490927501698
 20
119.7539978027344
 10
75.15690481945057
 20
120.0349960327148
 10
75.02890646739979
 20
120.275993347168
 10
74.99590933605214
 20
120.4099960327148
 10
74.92090475841542
 20
120.463996887207
 10
74.83090842052479
 20
120.5279922485352
 10
74.81191122814198
 20
120.5419921875
 10
74.78990805431386
 20
120.546989440918
 10
74.76991141124745
 20
120.557991027832
 10
74.74991476818104
 20
120.5689926147461
 10
74.73190939708729
 20
120.5779876708984
 10
74.71091330333729
 20
120.5859909057617
 10
74.65091574474354
 20
120.6129913330078
 10
74.59091055675526
 20
120.6319885253906
 10
74.52691519542714
 20
120.6419906616211
 10
74.50391257091542
 20
120.6459884643555
 10
74.48191702648182
 20
120.6499938964844
 10
74.4599138526537
 20
120.650993347168
 10
74.39391196056386
 20
120.6549911499023
 10
74.32791006847401
 20
120.6479949951172
 10
74.26291525646229
 20
120.6329956054688
 10
74.24291861339589
 20
120.6289978027344
 10
74.22491324230214
 20
120.6289978027344
 10
74.20491659923573
 20
120.6229934692383
 10
74.12591421886464
 20
120.5979919433594
 10
74.04891836925526
 20
120.5619964599609
 10
73.97991812511464
 20
120.5089950561523
 10
73.97891867443104
 20
120.5079956054688
 10
73.97392142101307
 20
120.5029983520508
 10
73.97291434093495
 20
120.5019912719727
 10
73.97091543956776
 20
120.5009918212891
 10
73.96891653820057
 20
120.4999923706055
 10
73.96691763683339
 20
120.4989929199219
 10
73.96691763683339
 20
120.4989929199219
 10
40.0629068641274
 20
92.92298889160156
 10
40.0629068641274
 20
92.92298889160156
 10
40.0629068641274
 20
92.92298889160156
 10
20.20790732189107
 20
98.50198364257812
 10
20.20790732189107
 20
98.50198364257812
 10
20.17790663524556
 20
98.50997924804688
 10
20.14890730663228
 20
98.50398254394531
 10
20.119907978019
 20
98.50798034667969
 10
20.09690726085591
 20
98.51197814941406
 10
20.07590735240865
 20
98.5269775390625
 10
20.05190718456197
 20
98.52798461914062
 10
20.0309072761147
 20
98.52798461914062
 10
20.01490652843404
 20
98.51799011230469
 10
19.994907978019
 20
98.51698303222656
 10
19.92890799327779
 20
98.51498413085938
 10
19.86890852733541
 20
98.5009765625
 10
19.8069082526772
 20
98.48298645019531
 10
19.77290785594869
 20
98.47198486328125
 10
19.7399088172524
 20
98.46498107910156
 10
19.70790732189107
 20
98.44998168945312
 10
19.64390814586568
 20
98.41897583007812
 10
19.5889078406899
 20
98.37498474121094
 10
19.53690779491353
 20
98.32498168945312
 10
19.51990759654927
 20
98.30897521972656
 10
19.49690687938619
 20
98.302978515625
 10
19.48190748973775
 20
98.28498840332031
 10
19.48190748973775
 20
98.28498840332031
 10
10.56190741344381
 20
88.02998352050781
 10
10.56190741344381
 20
88.02998352050781
 10
10.56190741344381
 20
88.02998352050781
 10
2.90490782543111
 20
83.84698486328125
 10
2.90490782543111
 20
83.84698486328125
 10
2.636908176383258
 20
83.70098876953125
 10
2.492908122977497
 20
83.39898681640625
 10
2.547907474478961
 20
83.09799194335938
 10
2.602906825980426
 20
82.7969970703125
 10
2.8439070014565
 20
82.56599426269531
 10
3.145907047232868
 20
82.52299499511719
 10
3.145907047232868
 20
82.52299499511719
 10
16.06390631481099
 20
80.69898986816406
 10
16.06390631481099
 20
80.69898986816406
 10
16.06390631481099
 20
80.69898986816406
 10
19.78490698619771
 20
76.49998474121094
 10
19.78490698619771
 20
76.49998474121094
 10
19.78490698619771
 20
76.49998474121094
 10
24.17290747447896
 20
69.07998657226562
 10
24.17290747447896
 20
69.07998657226562
 10
24.17490637584615
 20
69.07598876953125
 10
24.17890799327779
 20
69.07498168945312
 10
24.18090689464498
 20
69.07199096679688
 10
24.18390524669576
 20
69.06698608398438
 10
24.18390524669576
 20
69.06098937988281
 10
24.18690741344381
 20
69.05598449707031
 10
24.18690741344381
 20
69.05598449707031
 10
25.94190848155904
 20
66.3289794921875
 10
25.94190848155904
 20
66.3289794921875
 10
25.94190848155904
 20
66.32797241210938
 10
25.94190848155904
 20
66.32797241210938
 10
25.94190848155904
 20
66.32797241210938
 10
25.94190848155904
 20
66.32797241210938
 10
25.95090735240865
 20
66.31297302246094
 10
25.95090735240865
 20
66.31297302246094
 10
25.99590552135396
 20
66.24397277832031
 10
26.05490744396138
 20
66.18496704101562
 10
26.11890661998677
 20
66.13597106933594
 10
26.12390768810201
 20
66.13096618652344
 10
26.12690604015279
 20
66.12496948242188
 10
26.13190710826802
 20
66.1209716796875
 10
26.15590536876607
 20
66.10296630859375
 10
26.18390524669576
 20
66.09597778320312
 10
26.20890677257466
 20
66.08197021484375
 10
26.23590719982076
 20
66.06697082519531
 10
26.25890600963521
 20
66.04696655273438
 10
26.28790533824849
 20
66.03596496582031
 10
26.28790533824849
 20
66.03596496582031
 10
40.67690527721334
 20
60.40296936035156
 10
40.67690527721334
 20
60.40296936035156
 10
36.01390707775045
 20
58.073974609375
 10
36.00390494151998
 20
57.91496276855469
 10
36.01990378185201
 20
57.40797424316406
 10
36.04990256114888
 20
56.6419677734375
 10
36.06690466686177
 20
56.52796936035156
 10
43.06490195079732
 20
56.38497924804688
 10
40.09190237804341
 20
54.66497802734375
 10
38.57890188976216
 20
53.77297973632812
 10
37.8439012794106
 20
53.24098205566406
 10
37.76690161510396
 20
53.22598266601562
 10
37.71390021129537
 20
53.21298217773438
 10
37.6829019813149
 20
53.19998168945312
 10
37.6829019813149
 20
53.19998168945312
 10
37.70690024181295
 20
53.13897705078125
 10
37.70690024181295
 20
53.13897705078125
 10
37.08690130992818
 20
52.66397094726562
 10
37.16589987560201
 20
52.50497436523438
 10
37.30489981456685
 20
52.22598266601562
 10
37.42989981456685
 20
51.97398376464844
 10
37.65790045543599
 20
51.81698608398438
 10
37.90989935680318
 20
51.81698608398438
 10
37.99190008922506
 20
51.81698608398438
 10
38.07689917369771
 20
51.833984375
 10
38.16189825817037
 20
51.86997985839844
 10
38.79889929576802
 20
52.01498413085938
 10
46.0679003028481
 20
52.458984375
 10
50.62089789195943
 20
52.70997619628906
 10
50.67289603038716
 20
52.69798278808594
 10
50.72189963146138
 20
52.68997192382812
 10
50.76289618297506
 20
52.68997192382812
 10
50.87889731212545
 20
52.68997192382812
 10
50.96289694591451
 20
52.73097229003906
 10
51.06189596935292
 20
52.78097534179688
 10
51.14489615245839
 20
52.82197570800781
 10
51.2158952979662
 20
52.88298034667969
 10
51.27689612194081
 20
52.95198059082031
 10
51.2778955726244
 20
52.95298767089844
 10
51.27989447399159
 20
52.9539794921875
 10
51.28089773937245
 20
52.95498657226562
 10
51.3048959998705
 20
52.98399353027344
 10
51.31789648815175
 20
53.01898193359375
 10
51.33889639659901
 20
53.05299377441406
 10
51.37089789196034
 20
53.10299682617188
 10
51.403895023308
 20
53.1510009765625
 10
51.42289603038807
 20
53.20799255371094
 10
51.42489493175526
 20
53.21199035644531
 10
51.4288965491869
 20
53.21598815917969
 10
51.4298959998705
 20
53.21998596191406
 10
51.7418962745287
 20
53.86698913574219
 10
55.02689230724354
 20
58.95098876953125
 10
57.15289938732167
 20
62.20098876953125
 10
57.15289938732167
 20
62.20098876953125
 10
66.4188982276537
 20
64.75198364257812
 10
66.4188982276537
 20
64.75198364257812
 10
66.63189566417714
 20
64.81098937988281
 10
66.80589926525136
 20
64.96598815917969
 10
66.88789999767323
 20
65.17098999023438
 10
66.9709001807787
 20
65.37698364257812
 10
66.95190298839589
 20
65.60899353027344
 10
66.83889639659901
 20
65.79899597167969
 10
66.83889639659901
 20
65.79899597167969
 10
60.57489645763417
 20
76.30299377441406
 10
60.57489645763417
 20
76.30299377441406
 10
61.20089590831776
 20
78.1409912109375
 10
64.54189932628651
 20
87.96099853515625
 10
67.86289847179432
 20
97.80099487304688
 10
73.00390494152089
 20
113.0369873046875
 10
74.63590872570057
 20
117.8719940185547
 10
74.97390616222401
 20
119.5359954833984
 97
        0
 97
        0
 92
        1
 93
        1
 72
     4
 94
        3
 73
     0
 74
     1
 95
       14
 96
       10
 40
0.0
 40
0.0
 40
0.0
 40
0.0
 40
1.0
 40
1.0
 40
1.0
 40
2.0
 40
2.0
 40
2.0
 40
3.0
 40
3.0
 40
3.0
 40
3.0
 10
65.7309099464037
 20
111.9739990234375
 10
60.12691366954823
 20
106.1410064697266
 10
52.55691016002675
 20
98.24600219726562
 10
45.88690817638326
 20
91.28599548339844
 10
45.88690817638326
 20
91.28599548339844
 10
41.73290884776998
 20
92.4530029296875
 10
41.73290884776998
 20
92.4530029296875
 10
41.73290884776998
 20
92.4530029296875
 10
65.7309099464037
 20
111.9739990234375
 10
65.7309099464037
 20
111.9739990234375
 97
        0
 97
        0
 92
        1
 93
        4
 72
     1
 10
27.65690863414693
 20
67.02398681640625
 11
36.79490912242818
 21
79.70799255371094
 72
     1
 10
36.79490912242818
 20
79.70799255371094
 11
52.03990805431386
 21
84.69198608398438
 72
     1
 10
52.03990805431386
 20
84.69198608398438
 11
36.39790976329732
 21
63.60198974609375
 72
     1
 10
36.39790976329732
 20
63.60198974609375
 11
27.65690863414693
 21
67.02398681640625
 97
        0
 92
        1
 93
        1
 72
     4
 94
        3
 73
     0
 74
     1
 95
       53
 96
       49
 40
0.0
 40
0.0
 40
0.0
 40
0.0
 40
1.0
 40
1.0
 40
1.0
 40
2.0
 40
2.0
 40
2.0
 40
3.0
 40
3.0
 40
3.0
 40
4.0
 40
4.0
 40
4.0
 40
5.0
 40
5.0
 40
5.0
 40
6.0
 40
6.0
 40
6.0
 40
7.0
 40
7.0
 40
7.0
 40
8.0
 40
8.0
 40
8.0
 40
9.0
 40
9.0
 40
9.0
 40
10.0
 40
10.0
 40
10.0
 40
11.0
 40
11.0
 40
11.0
 40
12.0
 40
12.0
 40
12.0
 40
13.0
 40
13.0
 40
13.0
 40
14.0
 40
14.0
 40
14.0
 40
15.0
 40
15.0
 40
15.0
 40
16.0
 40
16.0
 40
16.0
 40
16.0
 10
35.84290564342427
 20
80.79998779296875
 10
35.83090460582662
 20
80.7869873046875
 10
35.82690680309224
 20
80.77098083496094
 10
35.81590521617818
 20
80.75798034667969
 10
35.80490362926412
 20
80.74397277832031
 10
35.78990423961568
 20
80.73698425292969
 10
35.77890646739888
 20
80.72398376464844
 10
35.77890646739888
 20
80.72398376464844
 10
26.57990515514302
 20
67.95498657226562
 10
26.57990515514302
 20
67.95498657226562
 10
26.57990515514302
 20
67.95498657226562
 10
25.50290549083638
 20
69.62898254394531
 10
25.50290549083638
 20
69.62898254394531
 10
25.50290549083638
 20
69.62898254394531
 10
26.64690649791646
 20
89.41098022460938
 10
26.64690649791646
 20
89.41098022460938
 10
26.64790594860006
 20
89.43397521972656
 10
26.63890707775045
 20
89.45498657226562
 10
26.63790762706685
 20
89.47697448730469
 10
26.63790762706685
 20
89.47697448730469
 10
26.63790762706685
 20
89.47697448730469
 10
26.63790762706685
 20
89.47697448730469
 10
26.63690817638326
 20
89.4959716796875
 10
26.64290869518209
 20
89.51197814941406
 10
26.64090597911763
 20
89.53097534179688
 10
26.64090597911763
 20
89.53598022460938
 10
26.64190542980123
 20
89.54096984863281
 10
26.64190542980123
 20
89.54597473144531
 10
26.63890707775045
 20
89.57197570800781
 10
26.62290442272115
 20
89.59297180175781
 10
26.61790716930318
 20
89.61697387695312
 10
26.60690558238912
 20
89.66297912597656
 10
26.59290564342427
 20
89.70597839355469
 10
26.57290900035787
 20
89.74797058105469
 10
26.55790961070943
 20
89.77996826171875
 10
26.54490912242818
 20
89.81097412109375
 10
26.5259081153481
 20
89.84097290039062
 10
26.52190649791646
 20
89.84696960449219
 10
26.52290976329732
 20
89.85597229003906
 10
26.51790869518209
 20
89.86196899414062
 10
26.51790869518209
 20
89.86196899414062
 10
21.7509065894692
 20
96.59596252441406
 10
21.7509065894692
 20
96.59596252441406
 10
21.7509065894692
 20
96.59596252441406
 10
44.7759081153481
 20
90.12496948242188
 10
44.7759081153481
 20
90.12496948242188
 10
41.37790549083638
 20
86.57899475097656
 10
38.26490652843404
 20
83.32899475097656
 10
35.84290564342427
 20
80.79998779296875
 97
        0
 97
        0
 92
        1
 93
        3
 72
     1
 10
12.42490637584615
 20
86.93998718261719
 11
24.7769075660317
 21
88.58299255371094
 72
     1
 10
24.7769075660317
 20
88.58299255371094
 11
20.15990698619771
 21
78.21199035644531
 72
     1
 10
20.15990698619771
 20
78.21199035644531
 11
12.42490637584615
 21
86.93998718261719
 97
        0
 92
        1
 93
        3
 72
     1
 10
19.95890677257466
 20
96.67399597167969
 11
24.68290579601216
 21
90.0
 72
     1
 10
24.68290579601216
 20
90.0
 11
12.77590620799947
 21
88.41700744628906
 72
     1
 10
12.77590620799947
 20
88.41700744628906
 11
19.95890677257466
 21
96.67399597167969
 97
        0
 92
        1
 93
        3
 72
     1
 10
25.00790655895162
 20
85.61698913574219
 11
24.20990622325826
 21
71.80099487304688
 72
     1
 10
24.20990622325826
 20
71.80099487304688
 11
21.15590536876607
 21
76.9639892578125
 72
     1
 10
21.15590536876607
 20
76.9639892578125
 11
25.00790655895162
 21
85.61698913574219
 97
        0
 92
        1
 93
        3
 72
     1
 10
5.459908130606891
 20
83.62799072265625
 11
10.85590803905416
 21
86.57499694824219
 72
     1
 10
10.85590803905416
 20
86.57499694824219
 11
14.61190855785298
 21
82.33499145507812
 72
     1
 10
14.61190855785298
 20
82.33499145507812
 11
5.459908130606891
 21
83.62799072265625
 97
        0
 92
        1
 93
        1
 72
     4
 94
        3
 73
     0
 74
     1
 95
       17
 96
       13
 40
0.0
 40
0.0
 40
0.0
 40
0.0
 40
1.0
 40
1.0
 40
1.0
 40
2.0
 40
2.0
 40
2.0
 40
3.0
 40
3.0
 40
3.0
 40
4.0
 40
4.0
 40
4.0
 40
4.0
 10
42.45890677257466
 20
59.70700073242188
 10
42.45890677257466
 20
59.70700073242188
 10
44.26090872569966
 20
59.00199890136719
 10
44.26090872569966
 20
59.00199890136719
 10
44.26090872569966
 20
59.00199890136719
 10
44.68590796276021
 20
57.77299499511719
 10
44.68590796276021
 20
57.77299499511719
 10
42.65390646739888
 20
57.81199645996094
 10
40.51090872569966
 20
57.875
 10
38.99290716930318
 20
57.9429931640625
 10
39.97690832897115
 20
58.45899963378906
 10
41.23890555187154
 20
59.10099792480469
 10
42.45890677257466
 20
59.70700073242188
 97
        0
 97
        0
 92
        1
 93
        1
 72
     4
 94
        3
 73
     0
 74
     1
 95
       14
 96
       10
 40
0.0
 40
0.0
 40
0.0
 40
0.0
 40
1.0
 40
1.0
 40
1.0
 40
2.0
 40
2.0
 40
2.0
 40
3.0
 40
3.0
 40
3.0
 40
3.0
 10
40.99790823741841
 20
53.54100036621094
 10
42.4379068641274
 20
54.38200378417969
 10
44.19590628429341
 20
55.39900207519531
 10
45.61990988536763
 20
56.22200012207031
 10
46.87890875621724
 20
55.25100708007812
 10
47.82091009899068
 20
54.53399658203125
 10
48.53090918346334
 20
54.01400756835938
 10
45.3129068641274
 20
53.82998657226562
 10
42.79090750499654
 20
53.6719970703125
 10
40.99790823741841
 20
53.54100036621094
 97
        0
 97
        0
 92
        1
 93
        1
 72
     4
 94
        3
 73
     0
 74
     1
 95
       17
 96
       13
 40
0.0
 40
0.0
 40
0.0
 40
0.0
 40
1.0
 40
1.0
 40
1.0
 40
2.0
 40
2.0
 40
2.0
 40
3.0
 40
3.0
 40
3.0
 40
4.0
 40
4.0
 40
4.0
 40
4.0
 10
50.4749056129067
 20
54.38398742675781
 10
49.61990607067037
 20
54.96798706054688
 10
47.87790549083638
 20
56.26998901367188
 10
46.27790701671529
 20
57.50498962402344
 10
46.27790701671529
 20
57.50498962402344
 10
45.74190771861959
 20
59.05998229980469
 10
45.74190771861959
 20
59.05998229980469
 10
45.74190771861959
 20
59.05998229980469
 10
55.08991110607167
 20
61.63398742675781
 10
55.08991110607167
 20
61.63398742675781
 10
52.27090704723378
 20
57.31399536132812
 10
51.02190649791737
 20
55.32998657226562
 10
50.4749056129067
 20
54.38398742675781
 97
        0
 97
        0
 92
        1
 93
        1
 72
     4
 94
        3
 73
     0
 74
     1
 95
       23
 96
       19
 40
0.0
 40
0.0
 40
0.0
 40
0.0
 40
1.0
 40
1.0
 40
1.0
 40
2.0
 40
2.0
 40
2.0
 40
3.0
 40
3.0
 40
3.0
 40
4.0
 40
4.0
 40
4.0
 40
5.0
 40
5.0
 40
5.0
 40
6.0
 40
6.0
 40
6.0
 40
6.0
 10
44.86290610118795
 20
60.28900146484375
 10
44.86290610118795
 20
60.28900146484375
 10
42.6619058875649
 20
61.14999389648438
 10
42.6619058875649
 20
61.14999389648438
 10
42.65790427013326
 20
61.15199279785156
 10
42.65390646739888
 20
61.15399169921875
 10
42.64890539928365
 20
61.15499877929688
 10
42.64890539928365
 20
61.15499877929688
 10
37.76390707775045
 20
63.06700134277344
 10
37.76390707775045
 20
63.06700134277344
 10
37.76390707775045
 20
63.06700134277344
 10
53.86791098400136
 20
84.781005859375
 10
53.86791098400136
 20
84.781005859375
 10
53.86791098400136
 20
84.781005859375
 10
65.14391196056386
 20
65.87300109863281
 10
65.14391196056386
 20
65.87300109863281
 10
65.14391196056386
 20
65.87300109863281
 10
44.86290610118795
 20
60.28900146484375
 10
44.86290610118795
 20
60.28900146484375
 97
        0
 97
        0
 92
        1
 93
        1
 72
     4
 94
        3
 73
     0
 74
     1
 95
       47
 96
       43
 40
0.0
 40
0.0
 40
0.0
 40
0.0
 40
1.0
 40
1.0
 40
1.0
 40
2.0
 40
2.0
 40
2.0
 40
3.0
 40
3.0
 40
3.0
 40
4.0
 40
4.0
 40
4.0
 40
5.0
 40
5.0
 40
5.0
 40
6.0
 40
6.0
 40
6.0
 40
7.0
 40
7.0
 40
7.0
 40
8.0
 40
8.0
 40
8.0
 40
9.0
 40
9.0
 40
9.0
 40
10.0
 40
10.0
 40
10.0
 40
11.0
 40
11.0
 40
11.0
 40
12.0
 40
12.0
 40
12.0
 40
13.0
 40
13.0
 40
13.0
 40
14.0
 40
14.0
 40
14.0
 40
14.0
 10
54.54390585704823
 20
86.4169921875
 10
54.54390585704823
 20
86.41799926757812
 10
54.54390585704823
 20
86.41799926757812
 10
54.54390585704823
 20
86.41899108886719
 10
54.54390585704823
 20
86.41899108886719
 10
54.54190695568104
 20
86.42098999023438
 10
54.54190695568104
 20
86.42098999023438
 10
54.49490988536854
 20
86.49899291992188
 10
54.43490469738026
 20
86.56298828125
 10
54.36490500255604
 20
86.61599731445312
 10
54.36090719982167
 20
86.61900329589844
 10
54.35890829845448
 20
86.62399291992188
 10
54.35490286632557
 20
86.62699890136719
 10
54.33990347667714
 20
86.63800048828125
 10
54.32190573497792
 20
86.63999938964844
 10
54.30589926525136
 20
86.64999389648438
 10
54.25089896007557
 20
86.68399047851562
 10
54.1948992042162
 20
86.71199035644531
 10
54.13290274425526
 20
86.73098754882812
 10
54.1009050635912
 20
86.739990234375
 10
54.07090628429432
 20
86.7449951171875
 10
54.03690207286854
 20
86.74998474121094
 10
53.98589957042714
 20
86.75698852539062
 10
53.93590414806386
 20
86.75997924804688
 10
53.88390219493886
 20
86.75698852539062
 10
53.84789908214589
 20
86.75398254394531
 10
53.81290304943104
 20
86.74899291992188
 10
53.77789938732167
 20
86.74098205566406
 10
53.75589621349354
 20
86.73597717285156
 10
53.73390066905995
 20
86.73797607421875
 10
53.71289694591542
 20
86.73098754882812
 10
53.71289694591542
 20
86.73098754882812
 10
38.82289755626607
 20
81.86198425292969
 10
38.82289755626607
 20
81.86198425292969
 10
49.85389578624654
 20
93.3809814453125
 10
67.12589896007557
 20
111.3979797363281
 10
72.90589773937245
 20
117.3899841308594
 10
70.67289603038807
 20
110.4939880371094
 10
64.32990134044667
 20
91.73397827148438
 10
59.62189352794667
 20
77.90199279785156
 10
59.62189352794667
 20
77.90199279785156
 10
54.54390585704823
 20
86.4169921875
 10
54.54390585704823
 20
86.4169921875
 97
        0
 97
        0
 75
     2
 76
     1
 98
        0
  0
ENDSEC
  0
SECTION
  2
OBJECTS
  0
DICTIONARY
  5
C
330
0
100
AcDbDictionary
281
     1
  3
ACAD_GROUP
350
D
  3
ACAD_LAYOUT
350
1A
  3
ACAD_MATERIAL
350
3B
  3
ACAD_MLEADERSTYLE
350
6A
  3
ACAD_MLINESTYLE
350
17
  3
ACAD_PLOTSETTINGS
350
19
  3
ACAD_PLOTSTYLENAME
350
E
  3
ACAD_TABLESTYLE
350
69
  3
ACAD_VISUALSTYLE
350
2A
  0
SUN
  5
3F
330
29
100
AcDbSun
 90
        1
290
     0
 63
     7
421
 16777215
 40
1.0
291
     1
 91
  2455826
 92
 54000000
292
     0
 70
     2
 71
   256
280
     1
  0
DICTIONARY
  5
D
102
{ACAD_REACTORS
330
C
102
}
330
C
100
AcDbDictionary
281
     1
  0
DICTIONARY
  5
1A
102
{ACAD_REACTORS
330
C
102
}
330
C
100
AcDbDictionary
281
     1
  3
Layout1
350
1E
  3
Layout2
350
26
  3
Model
350
22
  0
DICTIONARY
  5
3B
102
{ACAD_REACTORS
330
C
102
}
330
C
100
AcDbDictionary
281
     1
  3
ByBlock
350
3D
  3
ByLayer
350
3C
  3
Global
350
3E
  0
DICTIONARY
  5
6A
102
{ACAD_REACTORS
330
C
102
}
330
C
100
AcDbDictionary
281
     1
  0
DICTIONARY
  5
17
102
{ACAD_REACTORS
330
C
102
}
330
C
100
AcDbDictionary
281
     1
  3
Standard
350
18
  0
DICTIONARY
  5
19
102
{ACAD_REACTORS
330
C
102
}
330
C
100
AcDbDictionary
281
     1
  0
ACDBDICTIONARYWDFLT
  5
E
102
{ACAD_REACTORS
330
C
102
}
330
C
100
AcDbDictionary
281
     1
  3
Normal
350
F
100
AcDbDictionaryWithDefault
340
F
  0
DICTIONARY
  5
69
102
{ACAD_REACTORS
330
C
102
}
330
C
100
AcDbDictionary
281
     1
  0
DICTIONARY
  5
2A
102
{ACAD_REACTORS
330
C
102
}
330
C
100
AcDbDictionary
281
     1
  3
2dWireframe
350
2F
  3
3D Hidden
350
31
  3
3dWireframe
350
30
  3
Basic
350
32
  3
Brighten
350
36
  3
ColorChange
350
3A
  3
Conceptual
350
34
  3
Dim
350
35
  3
Facepattern
350
39
  3
Flat
350
2B
  3
FlatWithEdges
350
2C
  3
Gouraud
350
2D
  3
GouraudWithEdges
350
2E
  3
Linepattern
350
38
  3
Realistic
350
33
  3
Thicken
350
37
  0
LAYOUT
  5
1E
102
{ACAD_REACTORS
330
1A
102
}
330
1A
100
AcDbPlotSettings
  1

  2
none_device
  4

  6

 40
0.0
 41
0.0
 42
0.0
 43
0.0
 44
0.0
 45
0.0
 46
0.0
 47
0.0
 48
0.0
 49
0.0
140
0.0
141
0.0
142
1.0
143
1.0
 70
   688
 72
     0
 73
     0
 74
     5
  7

 75
    16
 76
     0
 77
     2
 78
   300
147
1.0
148
0.0
149
0.0
100
AcDbLayout
  1
Layout1
 70
     1
 71
     1
 10
0.0
 20
0.0
 11
12.0
 21
9.0
 12
0.0
 22
0.0
 32
0.0
 14
1.000000000000000E+20
 24
1.000000000000000E+20
 34
1.000000000000000E+20
 15
-1.000000000000000E+20
 25
-1.000000000000000E+20
 35
-1.000000000000000E+20
146
0.0
 13
0.0
 23
0.0
 33
0.0
 16
1.0
 26
0.0
 36
0.0
 17
0.0
 27
1.0
 37
0.0
 76
     0
330
1B
  0
LAYOUT
  5
26
102
{ACAD_REACTORS
330
1A
102
}
330
1A
100
AcDbPlotSettings
  1

  2
none_device
  4

  6

 40
0.0
 41
0.0
 42
0.0
 43
0.0
 44
0.0
 45
0.0
 46
0.0
 47
0.0
 48
0.0
 49
0.0
140
0.0
141
0.0
142
1.0
143
1.0
 70
   688
 72
     0
 73
     0
 74
     5
  7

 75
    16
 76
     0
 77
     2
 78
   300
147
1.0
148
0.0
149
0.0
100
AcDbLayout
  1
Layout2
 70
     1
 71
     2
 10
0.0
 20
0.0
 11
0.0
 21
0.0
 12
0.0
 22
0.0
 32
0.0
 14
0.0
 24
0.0
 34
0.0
 15
0.0
 25
0.0
 35
0.0
146
0.0
 13
0.0
 23
0.0
 33
0.0
 16
1.0
 26
0.0
 36
0.0
 17
0.0
 27
1.0
 37
0.0
 76
     0
330
23
  0
LAYOUT
  5
22
102
{ACAD_REACTORS
330
1A
102
}
330
1A
100
AcDbPlotSettings
  1

  2
none_device
  4

  6

 40
0.0
 41
0.0
 42
0.0
 43
0.0
 44
0.0
 45
0.0
 46
0.0
 47
0.0
 48
0.0
 49
0.0
140
0.0
141
0.0
142
1.0
143
1.0
 70
  1712
 72
     0
 73
     0
 74
     0
  7

 75
     0
 76
     0
 77
     2
 78
   300
147
1.0
148
0.0
149
0.0
100
AcDbLayout
  1
Model
 70
     1
 71
     0
 10
0.0
 20
0.0
 11
12.0
 21
9.0
 12
0.0
 22
0.0
 32
0.0
 14
1.000000000000000E+20
 24
1.000000000000000E+20
 34
1.000000000000000E+20
 15
-1.000000000000000E+20
 25
-1.000000000000000E+20
 35
-1.000000000000000E+20
146
0.0
 13
0.0
 23
0.0
 33
0.0
 16
1.0
 26
0.0
 36
0.0
 17
0.0
 27
1.0
 37
0.0
 76
     0
330
1F
331
29
  0
MATERIAL
  5
3D
102
{ACAD_REACTORS
330
3B
102
}
330
3B
100
AcDbMaterial
  1
ByBlock
 72
     1
 94
      127
  0
MATERIAL
  5
3C
102
{ACAD_REACTORS
330
3B
102
}
330
3B
100
AcDbMaterial
  1
ByLayer
 72
     1
 94
      127
  0
MATERIAL
  5
3E
102
{ACAD_REACTORS
330
3B
102
}
330
3B
100
AcDbMaterial
  1
Global
 72
     1
 94
      127
  0
MLINESTYLE
  5
18
102
{ACAD_REACTORS
330
17
102
}
330
17
100
AcDbMlineStyle
  2
Standard
 70
     0
  3

 62
   256
 51
90.0
 52
90.0
 71
     2
 49
0.5
 62
   256
  6
BYLAYER
 49
-0.5
 62
   256
  6
BYLAYER
  0
ACDBPLACEHOLDER
  5
F
102
{ACAD_REACTORS
330
E
102
}
330
E
  0
VISUALSTYLE
  5
2F
102
{ACAD_REACTORS
330
2A
102
}
330
2A
100
AcDbVisualStyle
  2
2dWireframe
 70
     4
177
     2
291
     0
 71
     0
176
     1
 72
     2
176
     1
 73
     0
176
     1
 90
        0
176
     1
 40
-0.6
176
     1
 41
-30.0
176
     1
 62
     5
 63
     7
421
 16777215
176
     1
 74
     1
176
     1
 91
        4
176
     1
 64
     7
176
     1
 65
   257
176
     1
 75
     1
176
     1
175
     1
176
     1
 42
1.0
176
     1
 92
        0
176
     1
 66
   257
176
     1
 43
1.0
176
     1
 76
     1
176
     1
 77
     6
176
     1
 78
     2
176
     1
 67
     7
176
     1
 79
     5
176
     1
170
     0
176
     1
171
     0
176
     1
290
     0
176
     1
 93
        1
176
     1
 44
0.0
176
     1
173
     0
176
     1
  0
VISUALSTYLE
  5
31
102
{ACAD_REACTORS
330
2A
102
}
330
2A
100
AcDbVisualStyle
  2
3D Hidden
 70
     6
177
     2
291
     0
 71
     1
176
     1
 72
     2
176
     1
 73
     2
176
     1
 90
        0
176
     1
 40
-0.6
176
     1
 41
-30.0
176
     1
 62
     5
 63
     7
421
 16777215
176
     1
 74
     2
176
     1
 91
        2
176
     1
 64
     7
176
     1
 65
   257
176
     1
 75
     2
176
     1
175
     1
176
     1
 42
40.0
176
     1
 92
        0
176
     1
 66
   257
176
     1
 43
1.0
176
     1
 76
     1
176
     1
 77
     6
176
     1
 78
     2
176
     1
 67
     7
176
     1
 79
     3
176
     1
170
     0
176
     1
171
     0
176
     1
290
     0
176
     1
 93
        1
176
     1
 44
0.0
176
     1
173
     0
176
     1
  0
VISUALSTYLE
  5
30
102
{ACAD_REACTORS
330
2A
102
}
330
2A
100
AcDbVisualStyle
  2
3dWireframe
 70
     5
177
     2
291
     0
 71
     0
176
     1
 72
     2
176
     1
 73
     0
176
     1
 90
        0
176
     1
 40
-0.6
176
     1
 41
-30.0
176
     1
 62
     5
 63
     7
421
 16777215
176
     1
 74
     1
176
     1
 91
        4
176
     1
 64
     7
176
     1
 65
   257
176
     1
 75
     1
176
     1
175
     1
176
     1
 42
1.0
176
     1
 92
        0
176
     1
 66
   257
176
     1
 43
1.0
176
     1
 76
     1
176
     1
 77
     6
176
     1
 78
     2
176
     1
 67
     7
176
     1
 79
     5
176
     1
170
     0
176
     1
171
     0
176
     1
290
     0
176
     1
 93
        1
176
     1
 44
0.0
176
     1
173
     0
176
     1
  0
VISUALSTYLE
  5
32
102
{ACAD_REACTORS
330
2A
102
}
330
2A
100
AcDbVisualStyle
  2
Basic
 70
     7
177
     2
291
     1
 71
     1
176
     1
 72
     0
176
     1
 73
     1
176
     1
 90
        0
176
     1
 40
-0.6
176
     1
 41
-30.0
176
     1
 62
     5
 63
     7
421
 16777215
176
     1
 74
     0
176
     1
 91
        4
176
     1
 64
     7
176
     1
 65
   257
176
     1
 75
     1
176
     1
175
     1
176
     1
 42
1.0
176
     1
 92
        8
176
     1
 66
     7
176
     1
 43
1.0
176
     1
 76
     1
176
     1
 77
     6
176
     1
 78
     2
176
     1
 67
     7
176
     1
 79
     5
176
     1
170
     0
176
     1
171
     0
176
     1
290
     0
176
     1
 93
        1
176
     1
 44
0.0
176
     1
173
     0
176
     1
  0
VISUALSTYLE
  5
36
102
{ACAD_REACTORS
330
2A
102
}
330
2A
100
AcDbVisualStyle
  2
Brighten
 70
    12
177
     2
291
     1
 71
     2
176
     1
 72
     2
176
     1
 73
     0
176
     1
 90
        0
176
     1
 40
-0.6
176
     1
 41
-30.0
176
     1
 62
     5
 63
     7
421
 16777215
176
     1
 74
     1
176
     1
 91
        4
176
     1
 64
     7
176
     1
 65
   257
176
     1
 75
     1
176
     1
175
     1
176
     1
 42
1.0
176
     1
 92
        8
176
     1
 66
     7
176
     1
 43
1.0
176
     1
 76
     1
176
     1
 77
     6
176
     1
 78
     2
176
     1
 67
     7
176
     1
 79
     5
176
     1
170
     0
176
     1
171
     0
176
     1
290
     0
176
     1
 93
        1
176
     1
 44
50.0
176
     1
173
     0
176
     1
  0
VISUALSTYLE
  5
3A
102
{ACAD_REACTORS
330
2A
102
}
330
2A
100
AcDbVisualStyle
  2
ColorChange
 70
    16
177
     2
291
     1
 71
     2
176
     1
 72
     2
176
     1
 73
     3
176
     1
 90
        0
176
     1
 40
-0.6
176
     1
 41
-30.0
176
     1
 62
     5
 63
     8
421
  8421504
176
     1
 74
     1
176
     1
 91
        4
176
     1
 64
     7
176
     1
 65
   257
176
     1
 75
     1
176
     1
175
     1
176
     1
 42
1.0
176
     1
 92
        8
176
     1
 66
     8
424
  8421504
176
     1
 43
1.0
176
     1
 76
     1
176
     1
 77
     6
176
     1
 78
     2
176
     1
 67
     7
176
     1
 79
     5
176
     1
170
     0
176
     1
171
     0
176
     1
290
     0
176
     1
 93
        1
176
     1
 44
0.0
176
     1
173
     0
176
     1
  0
VISUALSTYLE
  5
34
102
{ACAD_REACTORS
330
2A
102
}
330
2A
100
AcDbVisualStyle
  2
Conceptual
 70
     9
177
     2
291
     0
 71
     3
176
     1
 72
     2
176
     1
 73
     0
176
     1
 90
        0
176
     1
 40
-0.6
176
     1
 41
-30.0
176
     1
 62
     5
 63
     7
421
 16777215
176
     1
 74
     2
176
     1
 91
        2
176
     1
 64
     7
176
     1
 65
   257
176
     1
 75
     1
176
     1
175
     1
176
     1
 42
40.0
176
     1
 92
        8
176
     1
 66
     7
176
     1
 43
1.0
176
     1
 76
     1
176
     1
 77
     6
176
     1
 78
     2
176
     1
 67
     7
176
     1
 79
     3
176
     1
170
     0
176
     1
171
     0
176
     1
290
     0
176
     1
 93
        1
176
     1
 44
0.0
176
     1
173
     0
176
     1
  0
VISUALSTYLE
  5
35
102
{ACAD_REACTORS
330
2A
102
}
330
2A
100
AcDbVisualStyle
  2
Dim
 70
    11
177
     2
291
     1
 71
     2
176
     1
 72
     2
176
     1
 73
     0
176
     1
 90
        0
176
     1
 40
-0.6
176
     1
 41
-30.0
176
     1
 62
     5
 63
     7
421
 16777215
176
     1
 74
     1
176
     1
 91
        4
176
     1
 64
     7
176
     1
 65
   257
176
     1
 75
     1
176
     1
175
     1
176
     1
 42
1.0
176
     1
 92
        8
176
     1
 66
     7
176
     1
 43
1.0
176
     1
 76
     1
176
     1
 77
     6
176
     1
 78
     2
176
     1
 67
     7
176
     1
 79
     5
176
     1
170
     0
176
     1
171
     0
176
     1
290
     0
176
     1
 93
        1
176
     1
 44
-50.0
176
     1
173
     0
176
     1
  0
VISUALSTYLE
  5
39
102
{ACAD_REACTORS
330
2A
102
}
330
2A
100
AcDbVisualStyle
  2
Facepattern
 70
    15
177
     2
291
     1
 71
     2
176
     1
 72
     2
176
     1
 73
     0
176
     1
 90
        0
176
     1
 40
-0.6
176
     1
 41
-30.0
176
     1
 62
     5
 63
     7
421
 16777215
176
     1
 74
     1
176
     1
 91
        4
176
     1
 64
     7
176
     1
 65
   257
176
     1
 75
     1
176
     1
175
     1
176
     1
 42
1.0
176
     1
 92
        8
176
     1
 66
     7
176
     1
 43
1.0
176
     1
 76
     1
176
     1
 77
     6
176
     1
 78
     2
176
     1
 67
     7
176
     1
 79
     5
176
     1
170
     0
176
     1
171
     0
176
     1
290
     0
176
     1
 93
        1
176
     1
 44
0.0
176
     1
173
     0
176
     1
  0
VISUALSTYLE
  5
2B
102
{ACAD_REACTORS
330
2A
102
}
330
2A
100
AcDbVisualStyle
  2
Flat
 70
     0
177
     2
291
     1
 71
     2
176
     1
 72
     1
176
     1
 73
     1
176
     1
 90
        2
176
     1
 40
-0.6
176
     1
 41
30.0
176
     1
 62
     5
 63
     7
421
 16777215
176
     1
 74
     0
176
     1
 91
        4
176
     1
 64
     7
176
     1
 65
   257
176
     1
 75
     1
176
     1
175
     1
176
     1
 42
1.0
176
     1
 92
        8
176
     1
 66
     7
176
     1
 43
1.0
176
     1
 76
     1
176
     1
 77
     6
176
     1
 78
     2
176
     1
 67
     7
176
     1
 79
     5
176
     1
170
     0
176
     1
171
     0
176
     1
290
     0
176
     1
 93
       13
176
     1
 44
0.0
176
     1
173
     0
176
     1
  0
VISUALSTYLE
  5
2C
102
{ACAD_REACTORS
330
2A
102
}
330
2A
100
AcDbVisualStyle
  2
FlatWithEdges
 70
     1
177
     2
291
     1
 71
     2
176
     1
 72
     1
176
     1
 73
     1
176
     1
 90
        2
176
     1
 40
-0.6
176
     1
 41
30.0
176
     1
 62
     5
 63
     7
421
 16777215
176
     1
 74
     1
176
     1
 91
        4
176
     1
 64
     7
176
     1
 65
   257
176
     1
 75
     1
176
     1
175
     1
176
     1
 42
1.0
176
     1
 92
        0
176
     1
 66
   257
176
     1
 43
1.0
176
     1
 76
     1
176
     1
 77
     6
176
     1
 78
     2
176
     1
 67
     7
176
     1
 79
     5
176
     1
170
     0
176
     1
171
     0
176
     1
290
     0
176
     1
 93
       13
176
     1
 44
0.0
176
     1
173
     0
176
     1
  0
VISUALSTYLE
  5
2D
102
{ACAD_REACTORS
330
2A
102
}
330
2A
100
AcDbVisualStyle
  2
Gouraud
 70
     2
177
     2
291
     1
 71
     2
176
     1
 72
     2
176
     1
 73
     1
176
     1
 90
        2
176
     1
 40
-0.6
176
     1
 41
30.0
176
     1
 62
     5
 63
     7
421
 16777215
176
     1
 74
     0
176
     1
 91
        4
176
     1
 64
     7
176
     1
 65
   257
176
     1
 75
     1
176
     1
175
     1
176
     1
 42
1.0
176
     1
 92
        0
176
     1
 66
     7
176
     1
 43
1.0
176
     1
 76
     1
176
     1
 77
     6
176
     1
 78
     2
176
     1
 67
     7
176
     1
 79
     5
176
     1
170
     0
176
     1
171
     0
176
     1
290
     0
176
     1
 93
       13
176
     1
 44
0.0
176
     1
173
     0
176
     1
  0
VISUALSTYLE
  5
2E
102
{ACAD_REACTORS
330
2A
102
}
330
2A
100
AcDbVisualStyle
  2
GouraudWithEdges
 70
     3
177
     2
291
     1
 71
     2
176
     1
 72
     2
176
     1
 73
     1
176
     1
 90
        2
176
     1
 40
-0.6
176
     1
 41
30.0
176
     1
 62
     5
 63
     7
421
 16777215
176
     1
 74
     1
176
     1
 91
        4
176
     1
 64
     7
176
     1
 65
   257
176
     1
 75
     1
176
     1
175
     1
176
     1
 42
1.0
176
     1
 92
        0
176
     1
 66
   257
176
     1
 43
1.0
176
     1
 76
     1
176
     1
 77
     6
176
     1
 78
     2
176
     1
 67
     7
176
     1
 79
     5
176
     1
170
     0
176
     1
171
     0
176
     1
290
     0
176
     1
 93
       13
176
     1
 44
0.0
176
     1
173
     0
176
     1
  0
VISUALSTYLE
  5
38
102
{ACAD_REACTORS
330
2A
102
}
330
2A
100
AcDbVisualStyle
  2
Linepattern
 70
    14
177
     2
291
     1
 71
     2
176
     1
 72
     2
176
     1
 73
     0
176
     1
 90
        0
176
     1
 40
-0.6
176
     1
 41
-30.0
176
     1
 62
     5
 63
     7
421
 16777215
176
     1
 74
     1
176
     1
 91
        4
176
     1
 64
     7
176
     1
 65
   257
176
     1
 75
     7
176
     1
175
     7
176
     1
 42
1.0
176
     1
 92
        8
176
     1
 66
     7
176
     1
 43
1.0
176
     1
 76
     1
176
     1
 77
     6
176
     1
 78
     2
176
     1
 67
     7
176
     1
 79
     5
176
     1
170
     0
176
     1
171
     0
176
     1
290
     0
176
     1
 93
        1
176
     1
 44
0.0
176
     1
173
     0
176
     1
  0
VISUALSTYLE
  5
33
102
{ACAD_REACTORS
330
2A
102
}
330
2A
100
AcDbVisualStyle
  2
Realistic
 70
     8
177
     2
291
     0
 71
     2
176
     1
 72
     2
176
     1
 73
     0
176
     1
 90
        0
176
     1
 40
-0.6
176
     1
 41
-30.0
176
     1
 62
     5
 63
     7
421
 16777215
176
     1
 74
     1
176
     1
 91
        0
176
     1
 64
     7
176
     1
 65
   257
176
     1
 75
     1
176
     1
175
     1
176
     1
 42
1.0
176
     1
 92
        8
176
     1
 66
     8
424
  7895160
176
     1
 43
1.0
176
     1
 76
     1
176
     1
 77
     6
176
     1
 78
     2
176
     1
 67
     7
176
     1
 79
     5
176
     1
170
     0
176
     1
171
     0
176
     1
290
     0
176
     1
 93
       13
176
     1
 44
0.0
176
     1
173
     0
176
     1
  0
VISUALSTYLE
  5
37
102
{ACAD_REACTORS
330
2A
102
}
330
2A
100
AcDbVisualStyle
  2
Thicken
 70
    13
177
     2
291
     1
 71
     2
176
     1
 72
     2
176
     1
 73
     0
176
     1
 90
        0
176
     1
 40
-0.6
176
     1
 41
-30.0
176
     1
 62
     5
 63
     7
421
 16777215
176
     1
 74
     1
176
     1
 91
        4
176
     1
 64
     7
176
     1
 65
   257
176
     1
 75
     1
176
     1
175
     1
176
     1
 42
1.0
176
     1
 92
       12
176
     1
 66
     7
176
     1
 43
1.0
176
     1
 76
     1
176
     1
 77
     6
176
     1
 78
     2
176
     1
 67
     7
176
     1
 79
     5
176
     1
170
     0
176
     1
171
     0
176
     1
290
     0
176
     1
 93
        1
176
     1
 44
0.0
176
     1
173
     0
176
     1
  0
ENDSEC
  0
EOF
