<?xml version="1.0" encoding="utf-8"?>
<!-- Generator: Adobe Illustrator 19.2.1, SVG Export Plug-In . SVG Version: 6.00 Build 0)  -->
<svg version="1.1" id="Layer_1" xmlns="http://www.w3.org/2000/svg" xmlns:xlink="http://www.w3.org/1999/xlink" x="0px" y="0px"
	 viewBox="0 0 100 125" style="enable-background:new 0 0 100 125;" xml:space="preserve">
<path d="M75,5.5C75.1,5.2,75.2,5,75,4.7c0-0.1-0.1-0.2-0.2-0.3c0,0,0,0-0.1,0s0,0-0.1,0c-0.1,0-0.1,0-0.2-0.1c0,0,0,0-0.1,0
	c-0.1,0-0.1,0-0.2,0c0,0,0,0-0.1,0c-0.1,0-0.2,0.1-0.2,0.1c0,0,0,0,0,0c0,0,0,0,0,0L40.1,32.1l-19.9-5.6c0,0-0.1,0-0.1,0
	c0,0,0,0-0.1,0c0,0,0,0-0.1,0c-0.1,0-0.1,0-0.2,0c0,0-0.1,0-0.1,0c-0.1,0-0.1,0.1-0.2,0.1c0,0,0,0-0.1,0L10.6,37l-7.7,4.2
	c-0.3,0.1-0.4,0.4-0.4,0.7s0.3,0.5,0.6,0.6l12.9,1.8l3.7,4.2l4.4,7.4c0,0,0,0,0,0c0,0,0,0,0,0l1.8,2.7c0,0,0,0,0,0l0,0
	c0,0.1,0.1,0.1,0.2,0.2c0,0,0,0,0,0c0,0,0.1,0,0.1,0c0,0,0,0,0.1,0l14.4,5.6c-4.7,2.3-4.7,2.5-4.7,3c0,0.8,0,0.9,7,1
	c-3,1.7-4.5,2.6-5.2,3.1c-0.1,0-0.1,0-0.2,0l0,0.1c-0.6,0.5-0.5,0.6-0.4,0.9c0.1,0.3,0.4,0.4,0.6,0.4c0.1,0,0.2,0,0.3-0.1
	c0.6-0.1,7.9-0.6,12.5-0.8c0.1,0,0.1,0,0.1,0c0.1,0,0.2,0,0.3-0.1c0.1,0,0.2-0.1,0.2-0.2c0,0,0,0,0,0c0,0,0-0.1,0.1-0.1
	c0-0.1,0.1-0.1,0.1-0.2c0,0,0,0,0,0c0.3-0.6,3.6-5.7,5.7-9l9.3-2.6c0.2-0.1,0.4-0.2,0.5-0.4c0.1-0.2,0.1-0.4,0-0.6l-6.3-10.5
	c0.6-1.8,4-11.7,7.3-21.5C73,12,74.6,7.1,75,5.5z M65.7,13c-5.6,5.8-13.2,13.7-19.8,20.7l-4.2-1.2L65.7,13z M27.7,58l9.1-12.7
	l15.2-5L36.4,61.4L27.7,58z M35.8,44.2C35.8,44.2,35.8,44.2,35.8,44.2C35.8,44.3,35.8,44.3,35.8,44.2L26.6,57l-1.1-1.7l1.1-19.8
	c0,0,0,0,0-0.1l0,0c0,0,0,0,0-0.1c0,0,0,0,0,0c0,0,0,0,0-0.1c0,0,0-0.1,0-0.1c0,0,0-0.1,0-0.1c0,0,0,0,0,0l-4.8-6.7l23,6.5
	C41.4,38.4,38.3,41.7,35.8,44.2z M12.4,38.1l12.4-1.6l-4.6,10.4L12.4,38.1z M20,28.3l4.7,6.7l-11.9,1.6L20,28.3z M25,39.4l-0.8,13.8
	L21.2,48L25,39.4z M5.5,41.4l5.4-2.9l3.8,4.2L5.5,41.4z M42.5,65.3l1.8,0.7l0.4,1.2c-2,0-4.2-0.1-5.7-0.2
	C40,66.5,41.2,65.9,42.5,65.3z M41,71.5c1.4-0.8,3.2-1.9,4.6-2.7c1.3,1,2.2,1.7,2.9,2.2C45.3,71.2,42.8,71.3,41,71.5z M50.5,70.6
	c-0.9-0.6-2.6-1.9-4.2-3.1l-0.5-1.6l9.3-2.6C52.3,67.7,51,69.7,50.5,70.6z M44.9,64.7l-2.2-0.9c0,0,0,0,0,0l-4.9-1.9l16.1-21.7
	l11.3,18.9L44.9,64.7z M54.5,38.6C54.5,38.6,54.5,38.6,54.5,38.6L54.5,38.6c0-0.1-0.1-0.1-0.2-0.2c0,0,0,0,0,0c0,0,0,0,0,0
	c-0.1,0-0.1-0.1-0.2-0.1c0,0-0.1,0-0.1,0c-0.1,0-0.1,0-0.2,0c0,0-0.1,0-0.1,0c0,0,0,0-0.1,0l-14.9,4.9c11-11.5,28.3-29.5,34.1-35.5
	c-2.2,6.9-8.6,25.7-13.3,39.5L54.5,38.6z"/>
</svg>
