<?xml version="1.0" encoding="utf-8"?>
<!-- Generator: Adobe Illustrator 19.2.1, SVG Export Plug-In . SVG Version: 6.00 Build 0)  -->
<svg version="1.1" id="Layer_1" xmlns="http://www.w3.org/2000/svg" xmlns:xlink="http://www.w3.org/1999/xlink" x="0px" y="0px"
	 viewBox="0 0 100 125" style="enable-background:new 0 0 100 125;" xml:space="preserve">
<path d="M63,37.7c0,0,0-0.1,0-0.1v-8.5c0,0,0-0.1,0-0.1c0-0.3-0.1-0.6-0.4-0.7l-15.7-6.2L34.4,5.9c-0.2-0.2-0.4-0.3-0.7-0.3
	c-0.3,0-0.5,0.2-0.6,0.4l-1.8,4.7l-2.9-2.1c-0.2-0.1-0.4-0.2-0.7-0.1c-0.2,0.1-0.4,0.3-0.4,0.5L25.2,19c0,0.2,0,0.4,0.2,0.6l11.8,14
	l-1.6,2.1c-0.2,0.2-0.2,0.5-0.1,0.7l3.5,7.1l-8.5,1.1c-0.2,0-0.3,0.1-0.4,0.2L16,60.3c-0.2,0.2-0.2,0.5-0.1,0.7l1.3,3.9l-9,3.5
	c-0.2,0.1-0.4,0.3-0.4,0.6c0,0.3,0.1,0.5,0.3,0.7l14.3,10.6c0,0,0,0,0,0c0.1,0,0.1,0.1,0.2,0.1s0.1,0,0.2,0l0,0c0,0,0,0,0,0l22.1,0
	c0.2,0,0.5-0.1,0.6-0.3c0.1-0.2,0.2-0.4,0.1-0.7l-1.4-3.6l5.8-2.6l2.4,6.7c0.1,0.3,0.4,0.5,0.7,0.5c0,0,0.1,0,0.1,0
	c0.3-0.1,0.6-0.3,0.6-0.7l2-38.3l6.8-3c0,0,0,0,0,0l0,0c0,0,0,0,0.1,0c0.1,0,0.1-0.1,0.2-0.1c0,0,0-0.1,0.1-0.1c0,0,0.1-0.1,0.1-0.1
	C63,37.8,63,37.8,63,37.7z M55.4,39.9l-7.6-15.8l13.8,5.4v7.7L55.4,39.9z M34,7.8l8.8,11.5l-10.3-7.6L34,7.8z M26.7,18.9l1.8-8.5
	l2.8,2c0,0,0,0,0,0l14.1,10.4l-7.3,9.5L26.7,18.9z M46.3,24.1l7.8,16.2l-13.5,2.9L37,36.2L46.3,24.1z M17.6,66.2l3.8,11.6L9.9,69.2
	L17.6,66.2z M43.7,74.4L38.2,60c-0.1-0.4-0.5-0.6-0.9-0.4c-0.4,0.1-0.6,0.5-0.4,0.9l7,18.4l-20.6,0l-5.9-18L31,46l8.7-1.1l9.8,27
	L43.7,74.4z M52.6,76.1L41.1,44.6l13.2-2.9L52.6,76.1z"/>
</svg>
