  0
SECTION
  2
HEADER
  9
$ACADVER
  1
AC1024
  9
$ACADMAINTVER
 70
     6
  9
$DWGCODEPAGE
  3
UNDEFINED
  9
$INSBASE
 10
0.0
 20
0.0
 30
0.0
  9
$EXTMIN
 10
1.000000000000000E+20
 20
1.000000000000000E+20
 30
1.000000000000000E+20
  9
$EXTMAX
 10
-1.000000000000000E+20
 20
-1.000000000000000E+20
 30
-1.000000000000000E+20
  9
$LIMMIN
 10
0.0
 20
0.0
  9
$LIMMAX
 10
12.0
 20
9.0
  9
$ORTHOMODE
 70
     0
  9
$REGENMODE
 70
     1
  9
$FILLMODE
 70
     1
  9
$QTEXTMODE
 70
     0
  9
$MIRRTEXT
 70
     1
  9
$LTSCALE
 40
1.0
  9
$ATTMODE
 70
     1
  9
$TEXTSIZE
 40
0.2
  9
$TRACEWID
 40
0.05
  9
$TEXTSTYLE
  7
Standard
  9
$CLAYER
  8
0
  9
$CELTYPE
  6
ByLayer
  9
$CECOLOR
 62
   256
  9
$CELTSCALE
 40
1.0
  9
$DISPSILH
 70
     0
  9
$DIMSCALE
 40
1.0
  9
$DIMASZ
 40
0.18
  9
$DIMEXO
 40
0.0625
  9
$DIMDLI
 40
0.38
  9
$DIMRND
 40
0.0
  9
$DIMDLE
 40
0.0
  9
$DIMEXE
 40
0.18
  9
$DIMTP
 40
0.0
  9
$DIMTM
 40
0.0
  9
$DIMTXT
 40
0.18
  9
$DIMCEN
 40
0.09
  9
$DIMTSZ
 40
0.0
  9
$DIMTOL
 70
     0
  9
$DIMLIM
 70
     0
  9
$DIMTIH
 70
     1
  9
$DIMTOH
 70
     1
  9
$DIMSE1
 70
     0
  9
$DIMSE2
 70
     0
  9
$DIMTAD
 70
     0
  9
$DIMZIN
 70
     0
  9
$DIMBLK
  1

  9
$DIMASO
 70
     1
  9
$DIMSHO
 70
     1
  9
$DIMPOST
  1

  9
$DIMAPOST
  1

  9
$DIMALT
 70
     0
  9
$DIMALTD
 70
     2
  9
$DIMALTF
 40
25.4
  9
$DIMLFAC
 40
1.0
  9
$DIMTOFL
 70
     0
  9
$DIMTVP
 40
0.0
  9
$DIMTIX
 70
     0
  9
$DIMSOXD
 70
     0
  9
$DIMSAH
 70
     0
  9
$DIMBLK1
  1

  9
$DIMBLK2
  1

  9
$DIMSTYLE
  2
Standard
  9
$DIMCLRD
 70
     0
  9
$DIMCLRE
 70
     0
  9
$DIMCLRT
 70
     0
  9
$DIMTFAC
 40
1.0
  9
$DIMGAP
 40
0.09
  9
$DIMJUST
 70
     0
  9
$DIMSD1
 70
     0
  9
$DIMSD2
 70
     0
  9
$DIMTOLJ
 70
     1
  9
$DIMTZIN
 70
     0
  9
$DIMALTZ
 70
     0
  9
$DIMALTTZ
 70
     0
  9
$DIMUPT
 70
     0
  9
$DIMDEC
 70
     4
  9
$DIMTDEC
 70
     4
  9
$DIMALTU
 70
     2
  9
$DIMALTTD
 70
     2
  9
$DIMTXSTY
  7
Standard
  9
$DIMAUNIT
 70
     0
  9
$DIMADEC
 70
     0
  9
$DIMALTRND
 40
0.0
  9
$DIMAZIN
 70
     0
  9
$DIMDSEP
 70
    46
  9
$DIMATFIT
 70
     3
  9
$DIMFRAC
 70
     0
  9
$DIMLDRBLK
  1

  9
$DIMLUNIT
 70
     2
  9
$DIMLWD
 70
    -2
  9
$DIMLWE
 70
    -2
  9
$DIMTMOVE
 70
     0
  9
$DIMFXL
 40
1.0
  9
$DIMFXLON
 70
     0
  9
$DIMJOGANG
 40
0.7853981633974483
  9
$DIMTFILL
 70
     0
  9
$DIMTFILLCLR
 70
     0
  9
$DIMARCSYM
 70
     0
  9
$DIMLTYPE
  6

  9
$DIMLTEX1
  6

  9
$DIMLTEX2
  6

  9
$DIMTXTDIRECTION
 70
     0
  9
$LUNITS
 70
     2
  9
$LUPREC
 70
     4
  9
$SKETCHINC
 40
0.1
  9
$FILLETRAD
 40
0.5
  9
$AUNITS
 70
     0
  9
$AUPREC
 70
     0
  9
$MENU
  1
.
  9
$ELEVATION
 40
0.0
  9
$PELEVATION
 40
0.0
  9
$THICKNESS
 40
0.0
  9
$LIMCHECK
 70
     0
  9
$CHAMFERA
 40
0.5
  9
$CHAMFERB
 40
0.5
  9
$CHAMFERC
 40
1.0
  9
$CHAMFERD
 40
0.0
  9
$SKPOLY
 70
     0
  9
$TDCREATE
 40
2457525.606087951
  9
$TDUCREATE
 40
2457525.814421296
  9
$TDUPDATE
 40
2457525.606087951
  9
$TDUUPDATE
 40
2457525.814421296
  9
$TDINDWG
 40
0.0000000116
  9
$TDUSRTIMER
 40
0.0000000116
  9
$USRTIMER
 70
     1
  9
$ANGBASE
 50
0.0
  9
$ANGDIR
 70
     0
  9
$PDMODE
 70
     0
  9
$PDSIZE
 40
0.0
  9
$PLINEWID
 40
0.0
  9
$SPLFRAME
 70
     0
  9
$SPLINETYPE
 70
     6
  9
$SPLINESEGS
 70
     8
  9
$HANDSEED
  5
67
  9
$SURFTAB1
 70
     6
  9
$SURFTAB2
 70
     6
  9
$SURFTYPE
 70
     6
  9
$SURFU
 70
     6
  9
$SURFV
 70
     6
  9
$UCSBASE
  2

  9
$UCSNAME
  2

  9
$UCSORG
 10
0.0
 20
0.0
 30
0.0
  9
$UCSXDIR
 10
1.0
 20
0.0
 30
0.0
  9
$UCSYDIR
 10
0.0
 20
1.0
 30
0.0
  9
$UCSORTHOREF
  2

  9
$UCSORTHOVIEW
 70
     0
  9
$UCSORGTOP
 10
0.0
 20
0.0
 30
0.0
  9
$UCSORGBOTTOM
 10
0.0
 20
0.0
 30
0.0
  9
$UCSORGLEFT
 10
0.0
 20
0.0
 30
0.0
  9
$UCSORGRIGHT
 10
0.0
 20
0.0
 30
0.0
  9
$UCSORGFRONT
 10
0.0
 20
0.0
 30
0.0
  9
$UCSORGBACK
 10
0.0
 20
0.0
 30
0.0
  9
$PUCSBASE
  2

  9
$PUCSNAME
  2

  9
$PUCSORG
 10
0.0
 20
0.0
 30
0.0
  9
$PUCSXDIR
 10
1.0
 20
0.0
 30
0.0
  9
$PUCSYDIR
 10
0.0
 20
1.0
 30
0.0
  9
$PUCSORTHOREF
  2

  9
$PUCSORTHOVIEW
 70
     0
  9
$PUCSORGTOP
 10
0.0
 20
0.0
 30
0.0
  9
$PUCSORGBOTTOM
 10
0.0
 20
0.0
 30
0.0
  9
$PUCSORGLEFT
 10
0.0
 20
0.0
 30
0.0
  9
$PUCSORGRIGHT
 10
0.0
 20
0.0
 30
0.0
  9
$PUCSORGFRONT
 10
0.0
 20
0.0
 30
0.0
  9
$PUCSORGBACK
 10
0.0
 20
0.0
 30
0.0
  9
$USERI1
 70
     0
  9
$USERI2
 70
     0
  9
$USERI3
 70
     0
  9
$USERI4
 70
     0
  9
$USERI5
 70
     0
  9
$USERR1
 40
0.0
  9
$USERR2
 40
0.0
  9
$USERR3
 40
0.0
  9
$USERR4
 40
0.0
  9
$USERR5
 40
0.0
  9
$WORLDVIEW
 70
     1
  9
$SHADEDGE
 70
     3
  9
$SHADEDIF
 70
    70
  9
$TILEMODE
 70
     1
  9
$MAXACTVP
 70
    64
  9
$PINSBASE
 10
0.0
 20
0.0
 30
0.0
  9
$PLIMCHECK
 70
     0
  9
$PEXTMIN
 10
1.000000000000000E+20
 20
1.000000000000000E+20
 30
1.000000000000000E+20
  9
$PEXTMAX
 10
-1.000000000000000E+20
 20
-1.000000000000000E+20
 30
-1.000000000000000E+20
  9
$PLIMMIN
 10
0.0
 20
0.0
  9
$PLIMMAX
 10
12.0
 20
9.0
  9
$UNITMODE
 70
     0
  9
$VISRETAIN
 70
     1
  9
$PLINEGEN
 70
     0
  9
$PSLTSCALE
 70
     1
  9
$TREEDEPTH
 70
  3020
  9
$CMLSTYLE
  2
Standard
  9
$CMLJUST
 70
     0
  9
$CMLSCALE
 40
1.0
  9
$PROXYGRAPHICS
 70
     1
  9
$MEASUREMENT
 70
     0
  9
$CELWEIGHT
370
    -1
  9
$ENDCAPS
280
     0
  9
$JOINSTYLE
280
     0
  9
$LWDISPLAY
290
     1
  9
$INSUNITS
 70
     1
  9
$HYPERLINKBASE
  1

  9
$STYLESHEET
  1

  9
$XEDIT
290
     1
  9
$CEPSNTYPE
380
     0
  9
$PSTYLEMODE
290
     1
  9
$FINGERPRINTGUID
  2
{A94390FB-1037-0F6A-73B6-C11C3BA48668}
  9
$VERSIONGUID
  2
{FAEB1C32-E019-11D5-929B-00C0DF256EC4}
  9
$EXTNAMES
290
     1
  9
$PSVPSCALE
 40
0.0
  9
$OLESTARTUP
290
     0
  9
$SORTENTS
280
   127
  9
$INDEXCTL
280
     0
  9
$HIDETEXT
280
     1
  9
$XCLIPFRAME
280
     2
  9
$HALOGAP
280
     0
  9
$OBSCOLOR
 70
   257
  9
$OBSLTYPE
280
     0
  9
$INTERSECTIONDISPLAY
280
     0
  9
$INTERSECTIONCOLOR
 70
   257
  9
$DIMASSOC
280
     2
  9
$PROJECTNAME
  1

  9
$CAMERADISPLAY
290
     0
  9
$LENSLENGTH
 40
50.0
  9
$CAMERAHEIGHT
 40
0.0
  9
$STEPSPERSEC
 40
2.0
  9
$STEPSIZE
 40
6.0
  9
$3DDWFPREC
 40
2.0
  9
$PSOLWIDTH
 40
0.25
  9
$PSOLHEIGHT
 40
4.0
  9
$LOFTANG1
 40
1.570796326794897
  9
$LOFTANG2
 40
1.570796326794897
  9
$LOFTMAG1
 40
0.0
  9
$LOFTMAG2
 40
0.0
  9
$LOFTPARAM
 70
     7
  9
$LOFTNORMALS
280
     1
  9
$LATITUDE
 40
37.795
  9
$LONGITUDE
 40
-122.394
  9
$NORTHDIRECTION
 40
0.0
  9
$TIMEZONE
 70
 -8000
  9
$LIGHTGLYPHDISPLAY
280
     1
  9
$TILEMODELIGHTSYNCH
280
     1
  9
$CMATERIAL
347
3C
  9
$SOLIDHIST
280
     1
  9
$SHOWHIST
280
     1
  9
$DWFFRAME
280
     2
  9
$DGNFRAME
280
     2
  9
$REALWORLDSCALE
290
     1
  9
$INTERFERECOLOR
 62
   256
  9
$CSHADOW
280
     0
  9
$SHADOWPLANELOCATION
 40
0.0
  0
ENDSEC
  0
SECTION
  2
CLASSES
  0
CLASS
  1
ACDBDICTIONARYWDFLT
  2
AcDbDictionaryWithDefault
  3
ObjectDBX Classes
 90
        0
 91
        4
280
     0
281
     0
  0
CLASS
  1
VISUALSTYLE
  2
AcDbVisualStyle
  3
ObjectDBX Classes
 90
     4095
 91
        4
280
     0
281
     0
  0
CLASS
  1
MATERIAL
  2
AcDbMaterial
  3
ObjectDBX Classes
 90
     1153
 91
        4
280
     0
281
     0
  0
CLASS
  1
SUN
  2
AcDbSun
  3
SCENEOE
 90
     1024
 91
        4
280
     0
281
     0
  0
ENDSEC
  0
SECTION
  2
TABLES
  0
TABLE
  2
VPORT
  5
8
330
0
100
AcDbSymbolTable
 70
     1
  0
VPORT
  5
29
330
8
100
AcDbSymbolTableRecord
100
AcDbViewportTableRecord
  2
*Active
 70
     0
 10
0.0
 20
0.0
 11
1.0
 21
1.0
 12
0.0
 22
0.0
 13
0.0
 23
0.0
 14
0.5
 24
0.5
 15
0.5
 25
0.5
 16
0.0
 26
0.0
 36
1.0
 17
50.0
 27
62.5
 37
0.0
 40
125.0
 41
0.8
 42
50.0
 43
0.0
 44
0.0
 50
0.0
 51
0.0
 71
     0
 72
   100
 73
     1
 74
     3
 75
     0
 76
     0
 77
     0
 78
     0
281
     0
 65
     1
110
0.0
120
0.0
130
0.0
111
1.0
121
0.0
131
0.0
112
0.0
122
1.0
132
0.0
 79
     0
146
0.0
 60
     3
 61
     5
292
     1
282
     1
141
0.0
142
0.0
 63
   250
361
3F
  0
ENDTAB
  0
TABLE
  2
LTYPE
  5
5
330
0
100
AcDbSymbolTable
 70
     1
  0
LTYPE
  5
14
330
5
100
AcDbSymbolTableRecord
100
AcDbLinetypeTableRecord
  2
ByBlock
 70
     0
  3

 72
    65
 73
     0
 40
0.0
  0
LTYPE
  5
15
330
5
100
AcDbSymbolTableRecord
100
AcDbLinetypeTableRecord
  2
ByLayer
 70
     0
  3

 72
    65
 73
     0
 40
0.0
  0
LTYPE
  5
16
330
5
100
AcDbSymbolTableRecord
100
AcDbLinetypeTableRecord
  2
Continuous
 70
     0
  3
Solid line
 72
    65
 73
     0
 40
0.0
  0
ENDTAB
  0
TABLE
  2
LAYER
  5
2
330
0
100
AcDbSymbolTable
 70
     2
  0
LAYER
  5
10
330
2
100
AcDbSymbolTableRecord
100
AcDbLayerTableRecord
  2
0
 70
     0
 62
     7
  6
Continuous
370
    -3
390
F
347
3E
  0
LAYER
  5
40
330
2
100
AcDbSymbolTableRecord
100
AcDbLayerTableRecord
  2
Layer 1
 70
     0
 62
     7
  6
Continuous
370
    -3
390
F
347
3E
  0
ENDTAB
  0
TABLE
  2
STYLE
  5
3
330
0
100
AcDbSymbolTable
 70
     1
  0
STYLE
  5
11
330
3
100
AcDbSymbolTableRecord
100
AcDbTextStyleTableRecord
  2
Standard
 70
     0
 40
0.0
 41
1.0
 50
0.0
 71
     0
 42
0.2
  3
txt
  4

  0
ENDTAB
  0
TABLE
  2
VIEW
  5
6
330
0
100
AcDbSymbolTable
 70
     0
  0
ENDTAB
  0
TABLE
  2
UCS
  5
7
330
0
100
AcDbSymbolTable
 70
     0
  0
ENDTAB
  0
TABLE
  2
APPID
  5
9
330
0
100
AcDbSymbolTable
 70
     1
  0
APPID
  5
12
330
9
100
AcDbSymbolTableRecord
100
AcDbRegAppTableRecord
  2
ACAD
 70
     0
  0
ENDTAB
  0
TABLE
  2
DIMSTYLE
  5
A
330
0
100
AcDbSymbolTable
 70
     1
100
AcDbDimStyleTable
  0
DIMSTYLE
105
27
330
A
100
AcDbSymbolTableRecord
100
AcDbDimStyleTableRecord
  2
Standard
 70
     0
178
     0
340
11
  0
ENDTAB
  0
TABLE
  2
BLOCK_RECORD
  5
1
330
0
100
AcDbSymbolTable
 70
     1
  0
BLOCK_RECORD
  5
1F
330
1
100
AcDbSymbolTableRecord
100
AcDbBlockTableRecord
  2
*Model_Space
340
22
 70
     0
280
     1
281
     0
  0
BLOCK_RECORD
  5
1B
330
1
100
AcDbSymbolTableRecord
100
AcDbBlockTableRecord
  2
*Paper_Space
340
1E
 70
     0
280
     1
281
     0
  0
BLOCK_RECORD
  5
23
330
1
100
AcDbSymbolTableRecord
100
AcDbBlockTableRecord
  2
*Paper_Space0
340
26
 70
     0
280
     1
281
     0
  0
ENDTAB
  0
ENDSEC
  0
SECTION
  2
BLOCKS
  0
BLOCK
  5
20
330
1F
100
AcDbEntity
  8
0
100
AcDbBlockBegin
  2
*Model_Space
 70
     0
 10
0.0
 20
0.0
 30
0.0
  3
*Model_Space
  1

  0
ENDBLK
  5
21
330
1F
100
AcDbEntity
  8
0
100
AcDbBlockEnd
  0
BLOCK
  5
1C
330
1B
100
AcDbEntity
 67
     1
  8
0
100
AcDbBlockBegin
  2
*Paper_Space
 70
     0
 10
0.0
 20
0.0
 30
0.0
  3
*Paper_Space
  1

  0
ENDBLK
  5
1D
330
1B
100
AcDbEntity
 67
     1
  8
0
100
AcDbBlockEnd
  0
BLOCK
  5
24
330
23
100
AcDbEntity
  8
0
100
AcDbBlockBegin
  2
*Paper_Space0
 70
     0
 10
0.0
 20
0.0
 30
0.0
  3
*Paper_Space0
  1

  0
ENDBLK
  5
25
330
23
100
AcDbEntity
  8
0
100
AcDbBlockEnd
  0
ENDSEC
  0
SECTION
  2
ENTITIES
  0
SPLINE
  5
41
330
1F
100
AcDbEntity
  8
Layer 1
370
     0
100
AcDbSpline
210
0.0
220
0.0
230
1.0
 70
    11
 71
     3
 72
   155
 73
   151
 74
     0
 42
0.0000000001
 43
0.0000000001
 12
1.0
 22
0.0
 32
0.0
 13
1.0
 23
0.0
 33
0.0
 40
0.0
 40
0.0
 40
0.0
 40
0.0
 40
1.0
 40
1.0
 40
1.0
 40
2.0
 40
2.0
 40
2.0
 40
3.0
 40
3.0
 40
3.0
 40
4.0
 40
4.0
 40
4.0
 40
5.0
 40
5.0
 40
5.0
 40
6.0
 40
6.0
 40
6.0
 40
7.0
 40
7.0
 40
7.0
 40
8.0
 40
8.0
 40
8.0
 40
9.0
 40
9.0
 40
9.0
 40
10.0
 40
10.0
 40
10.0
 40
11.0
 40
11.0
 40
11.0
 40
12.0
 40
12.0
 40
12.0
 40
13.0
 40
13.0
 40
13.0
 40
14.0
 40
14.0
 40
14.0
 40
15.0
 40
15.0
 40
15.0
 40
16.0
 40
16.0
 40
16.0
 40
17.0
 40
17.0
 40
17.0
 40
18.0
 40
18.0
 40
18.0
 40
19.0
 40
19.0
 40
19.0
 40
20.0
 40
20.0
 40
20.0
 40
21.0
 40
21.0
 40
21.0
 40
22.0
 40
22.0
 40
22.0
 40
23.0
 40
23.0
 40
23.0
 40
24.0
 40
24.0
 40
24.0
 40
25.0
 40
25.0
 40
25.0
 40
26.0
 40
26.0
 40
26.0
 40
27.0
 40
27.0
 40
27.0
 40
28.0
 40
28.0
 40
28.0
 40
29.0
 40
29.0
 40
29.0
 40
30.0
 40
30.0
 40
30.0
 40
31.0
 40
31.0
 40
31.0
 40
32.0
 40
32.0
 40
32.0
 40
33.0
 40
33.0
 40
33.0
 40
34.0
 40
34.0
 40
34.0
 40
35.0
 40
35.0
 40
35.0
 40
36.0
 40
36.0
 40
36.0
 40
37.0
 40
37.0
 40
37.0
 40
38.0
 40
38.0
 40
38.0
 40
39.0
 40
39.0
 40
39.0
 40
40.0
 40
40.0
 40
40.0
 40
41.0
 40
41.0
 40
41.0
 40
42.0
 40
42.0
 40
42.0
 40
43.0
 40
43.0
 40
43.0
 40
44.0
 40
44.0
 40
44.0
 40
45.0
 40
45.0
 40
45.0
 40
46.0
 40
46.0
 40
46.0
 40
47.0
 40
47.0
 40
47.0
 40
48.0
 40
48.0
 40
48.0
 40
49.0
 40
49.0
 40
49.0
 40
50.0
 40
50.0
 40
50.0
 40
50.0
 10
62.99002075195312
 20
87.26095581054688
 30
0.0
 10
62.99601745605469
 20
87.29595947265625
 30
0.0
 10
63.01101684570312
 20
87.32794189453125
 30
0.0
 10
63.01101684570312
 20
87.36495971679688
 30
0.0
 10
63.01101684570312
 20
87.36495971679688
 30
0.0
 10
63.01101684570312
 20
95.81596374511719
 30
0.0
 10
63.01101684570312
 20
95.81596374511719
 30
0.0
 10
63.01101684570312
 20
95.84295654296875
 30
0.0
 10
62.99801635742188
 20
95.86695861816406
 30
0.0
 10
62.99501037597656
 20
95.89295959472656
 30
0.0
 10
63.02500915527344
 20
96.20095825195312
 30
0.0
 10
62.86201477050781
 20
96.50096130371094
 30
0.0
 10
62.56100463867188
 20
96.62095642089844
 30
0.0
 10
62.56100463867188
 20
96.62095642089844
 30
0.0
 10
46.83700561523438
 20
102.8089599609375
 30
0.0
 10
46.83700561523438
 20
102.8089599609375
 30
0.0
 10
46.83700561523438
 20
102.8089599609375
 30
0.0
 10
34.38101196289062
 20
119.0889587402344
 30
0.0
 10
34.38101196289062
 20
119.0889587402344
 30
0.0
 10
34.22500610351562
 20
119.2939605712891
 30
0.0
 10
33.96701049804688
 20
119.3989562988281
 30
0.0
 10
33.71601867675781
 20
119.3599548339844
 30
0.0
 10
33.46101379394531
 20
119.3229522705078
 30
0.0
 10
33.24702453613281
 20
119.1499481201172
 30
0.0
 10
33.15501403808594
 20
118.9099578857422
 30
0.0
 10
33.15501403808594
 20
118.9099578857422
 30
0.0
 10
31.36502075195312
 20
114.1839599609375
 30
0.0
 10
31.36502075195312
 20
114.1839599609375
 30
0.0
 10
31.36502075195312
 20
114.1839599609375
 30
0.0
 10
28.46202087402344
 20
116.3259582519531
 30
0.0
 10
28.46202087402344
 20
116.3259582519531
 30
0.0
 10
28.26802062988281
 20
116.4679565429688
 30
0.0
 10
28.01402282714844
 20
116.5009613037109
 30
0.0
 10
27.79002380371094
 20
116.4189605712891
 30
0.0
 10
27.56501770019531
 20
116.3329620361328
 30
0.0
 10
27.39802551269531
 20
116.1399536132812
 30
0.0
 10
27.3480224609375
 20
115.9039611816406
 30
0.0
 10
27.3480224609375
 20
115.9039611816406
 30
0.0
 10
25.22702026367188
 20
106.0199584960938
 30
0.0
 10
25.22702026367188
 20
106.0199584960938
 30
0.0
 10
25.18101501464844
 20
105.8049621582031
 30
0.0
 10
25.23802185058594
 20
105.5819549560547
 30
0.0
 10
25.37901306152344
 20
105.4139556884766
 30
0.0
 10
25.37901306152344
 20
105.4139556884766
 30
0.0
 10
37.22201538085938
 20
91.41094970703125
 30
0.0
 10
37.22201538085938
 20
91.41094970703125
 30
0.0
 10
37.22201538085938
 20
91.41094970703125
 30
0.0
 10
35.64302062988281
 20
89.34895324707031
 30
0.0
 10
35.64302062988281
 20
89.34895324707031
 30
0.0
 10
35.47901916503906
 20
89.13494873046875
 30
0.0
 10
35.45101928710938
 20
88.84495544433594
 30
0.0
 10
35.57101440429688
 20
88.60295104980469
 30
0.0
 10
35.57101440429688
 20
88.60295104980469
 30
0.0
 10
39.10601806640625
 20
81.47894287109375
 30
0.0
 10
39.10601806640625
 20
81.47894287109375
 30
0.0
 10
39.10601806640625
 20
81.47894287109375
 30
0.0
 10
30.56001281738281
 20
80.37094116210938
 30
0.0
 10
30.56001281738281
 20
80.37094116210938
 30
0.0
 10
30.39401245117188
 20
80.34994506835938
 30
0.0
 10
30.24101257324219
 20
80.26895141601562
 30
0.0
 10
30.12701416015625
 20
80.14492797851562
 30
0.0
 10
30.12701416015625
 20
80.14492797851562
 30
0.0
 10
16.04701232910156
 20
64.72293090820312
 30
0.0
 10
16.04701232910156
 20
64.72293090820312
 30
0.0
 10
15.87400817871094
 20
64.53494262695312
 30
0.0
 10
15.81800842285156
 20
64.26693725585938
 30
0.0
 10
15.89801025390625
 20
64.02392578125
 30
0.0
 10
15.89801025390625
 20
64.02392578125
 30
0.0
 10
17.16500854492188
 20
60.17391967773438
 30
0.0
 10
17.16500854492188
 20
60.17391967773438
 30
0.0
 10
17.16500854492188
 20
60.17391967773438
 30
0.0
 10
8.211013793945312
 20
56.6539306640625
 30
0.0
 10
8.211013793945312
 20
56.6539306640625
 30
0.0
 10
7.97100830078125
 20
56.5599365234375
 30
0.0
 10
7.801010131835938
 20
56.34292602539062
 30
0.0
 10
7.768020629882812
 20
56.08892822265625
 30
0.0
 10
7.734024047851562
 20
55.83291625976562
 30
0.0
 10
7.841018676757812
 20
55.57992553710938
 30
0.0
 10
8.047027587890625
 20
55.42593383789062
 30
0.0
 10
8.047027587890625
 20
55.42593383789062
 30
0.0
 10
22.36302185058594
 20
44.79293823242188
 30
0.0
 10
22.36302185058594
 20
44.79293823242188
 30
0.0
 10
22.36502075195312
 20
44.79193115234375
 30
0.0
 10
22.36701965332031
 20
44.79092407226562
 30
0.0
 10
22.36802673339844
 20
44.78994750976562
 30
0.0
 10
22.42903137207031
 20
44.74594116210938
 30
0.0
 10
22.49502563476562
 20
44.71194458007812
 30
0.0
 10
22.56602478027344
 20
44.68795776367188
 30
0.0
 10
22.63702392578125
 20
44.66397094726562
 30
0.0
 10
22.71202087402344
 20
44.6529541015625
 30
0.0
 10
22.78501892089844
 20
44.6529541015625
 30
0.0
 10
22.78501892089844
 20
44.6529541015625
 30
0.0
 10
22.78501892089844
 20
44.6529541015625
 30
0.0
 10
22.78501892089844
 20
44.6529541015625
 30
0.0
 10
22.78602600097656
 20
44.6529541015625
 30
0.0
 10
22.78602600097656
 20
44.6529541015625
 30
0.0
 10
22.78602600097656
 20
44.6529541015625
 30
0.0
 10
22.78602600097656
 20
44.6529541015625
 30
0.0
 10
44.9310302734375
 20
44.65194702148438
 30
0.0
 10
44.9310302734375
 20
44.65194702148438
 30
0.0
 10
45.16403198242188
 20
44.65194702148438
 30
0.0
 10
45.38203430175781
 20
44.76693725585938
 30
0.0
 10
45.51402282714844
 20
44.95895385742188
 30
0.0
 10
45.64701843261719
 20
45.15093994140625
 30
0.0
 10
45.676025390625
 20
45.39596557617188
 30
0.0
 10
45.593017578125
 20
45.61294555664062
 30
0.0
 10
45.593017578125
 20
45.61294555664062
 30
0.0
 10
44.20901489257812
 20
49.24594116210938
 30
0.0
 10
44.20901489257812
 20
49.24594116210938
 30
0.0
 10
44.20901489257812
 20
49.24594116210938
 30
0.0
 10
49.99601745605469
 20
51.8409423828125
 30
0.0
 10
49.99601745605469
 20
51.8409423828125
 30
0.0
 10
49.99601745605469
 20
51.8409423828125
 30
0.0
 10
52.44001770019531
 20
45.11993408203125
 30
0.0
 10
52.44001770019531
 20
45.11993408203125
 30
0.0
 10
52.54301452636719
 20
44.83694458007812
 30
0.0
 10
52.81201171875
 20
44.65292358398438
 30
0.0
 10
53.10601806640625
 20
44.65292358398438
 30
0.0
 10
53.1400146484375
 20
44.65292358398438
 30
0.0
 10
53.17501831054688
 20
44.65591430664062
 30
0.0
 10
53.21101379394531
 20
44.66091918945312
 30
0.0
 10
53.54400634765625
 20
44.7119140625
 30
0.0
 10
53.7960205078125
 20
44.98892211914062
 30
0.0
 10
53.81401062011719
 20
45.325927734375
 30
0.0
 10
53.81401062011719
 20
45.325927734375
 30
0.0
 10
55.78001403808594
 20
83.6649169921875
 30
0.0
 10
55.78001403808594
 20
83.6649169921875
 30
0.0
 10
55.78001403808594
 20
83.6649169921875
 30
0.0
 10
62.57601928710938
 20
86.71090698242188
 30
0.0
 10
62.57601928710938
 20
86.71090698242188
 30
0.0
 10
62.5770263671875
 20
86.71090698242188
 30
0.0
 10
62.57801818847656
 20
86.7119140625
 30
0.0
 10
62.58001708984375
 20
86.71292114257812
 30
0.0
 10
62.58001708984375
 20
86.71292114257812
 30
0.0
 10
62.59201049804688
 20
86.71792602539062
 30
0.0
 10
62.59201049804688
 20
86.71792602539062
 30
0.0
 10
62.61801147460938
 20
86.72991943359375
 30
0.0
 10
62.635009765625
 20
86.75091552734375
 30
0.0
 10
62.65800476074219
 20
86.76593017578125
 30
0.0
 10
62.71299743652344
 20
86.79794311523438
 30
0.0
 10
62.76699829101562
 20
86.82891845703125
 30
0.0
 10
62.80999755859375
 20
86.87393188476562
 30
0.0
 10
62.83999633789062
 20
86.90493774414062
 30
0.0
 10
62.85800170898438
 20
86.94393920898438
 30
0.0
 10
62.88099670410156
 20
86.97991943359375
 30
0.0
 10
62.90798950195312
 20
87.01992797851562
 30
0.0
 10
62.93899536132812
 20
87.055908203125
 30
0.0
 10
62.95700073242188
 20
87.10092163085938
 30
0.0
 10
62.97801208496094
 20
87.15396118164062
 30
0.0
 10
62.98200988769531
 20
87.20697021484375
 30
0.0
 10
62.99002075195312
 20
87.26095581054688
 30
0.0
  0
POLYLINE
  5
42
330
1F
100
AcDbEntity
  8
Layer 1
370
     0
100
AcDb2dPolyline
 66
     1
 10
0.0
 20
0.0
 30
0.0
  0
VERTEX
  5
43
330
42
100
AcDbEntity
  8
Layer 1
370
     0
100
AcDbVertex
100
AcDb2dVertex
 10
55.43501281738281
 20
85.06396484375
 30
0.0
  0
VERTEX
  5
44
330
42
100
AcDbEntity
  8
Layer 1
370
     0
100
AcDbVertex
100
AcDb2dVertex
 10
47.81800842285156
 20
100.9009704589844
 30
0.0
  0
VERTEX
  5
45
330
42
100
AcDbEntity
  8
Layer 1
370
     0
100
AcDbVertex
100
AcDb2dVertex
 10
61.59300231933594
 20
95.47996520996094
 30
0.0
  0
VERTEX
  5
46
330
42
100
AcDbEntity
  8
Layer 1
370
     0
100
AcDbVertex
100
AcDb2dVertex
 10
61.59300231933594
 20
87.824951171875
 30
0.0
  0
VERTEX
  5
47
330
42
100
AcDbEntity
  8
Layer 1
370
     0
100
AcDbVertex
100
AcDb2dVertex
 10
55.43501281738281
 20
85.06396484375
 30
0.0
  0
SEQEND
  5
48
330
42
100
AcDbEntity
  8
Layer 1
370
     0
  0
POLYLINE
  5
49
330
1F
100
AcDbEntity
  8
Layer 1
370
     0
100
AcDb2dPolyline
 66
     1
 10
0.0
 20
0.0
 30
0.0
  0
VERTEX
  5
4A
330
49
100
AcDbEntity
  8
Layer 1
370
     0
100
AcDbVertex
100
AcDb2dVertex
 10
34.03102111816406
 20
117.2169647216797
 30
0.0
  0
VERTEX
  5
4B
330
49
100
AcDbEntity
  8
Layer 1
370
     0
100
AcDbVertex
100
AcDb2dVertex
 10
42.80302429199219
 20
105.7529602050781
 30
0.0
  0
VERTEX
  5
4C
330
49
100
AcDbEntity
  8
Layer 1
370
     0
100
AcDbVertex
100
AcDb2dVertex
 10
32.55201721191406
 20
113.3119659423828
 30
0.0
  0
VERTEX
  5
4D
330
49
100
AcDbEntity
  8
Layer 1
370
     0
100
AcDbVertex
100
AcDb2dVertex
 10
34.03102111816406
 20
117.2169647216797
 30
0.0
  0
SEQEND
  5
4E
330
49
100
AcDbEntity
  8
Layer 1
370
     0
  0
SPLINE
  5
4F
330
1F
100
AcDbEntity
  8
Layer 1
370
     0
100
AcDbSpline
210
0.0
220
0.0
230
1.0
 70
    11
 71
     3
 72
    23
 73
    19
 74
     0
 42
0.0000000001
 43
0.0000000001
 12
1.0
 22
0.0
 32
0.0
 13
1.0
 23
0.0
 33
0.0
 40
0.0
 40
0.0
 40
0.0
 40
0.0
 40
1.0
 40
1.0
 40
1.0
 40
2.0
 40
2.0
 40
2.0
 40
3.0
 40
3.0
 40
3.0
 40
4.0
 40
4.0
 40
4.0
 40
5.0
 40
5.0
 40
5.0
 40
6.0
 40
6.0
 40
6.0
 40
6.0
 10
26.68701171875
 20
106.06396484375
 30
0.0
 10
26.68701171875
 20
106.06396484375
 30
0.0
 10
28.5050048828125
 20
114.5349578857422
 30
0.0
 10
28.5050048828125
 20
114.5349578857422
 30
0.0
 10
28.5050048828125
 20
114.5349578857422
 30
0.0
 10
31.25801086425781
 20
112.5049591064453
 30
0.0
 10
31.25801086425781
 20
112.5049591064453
 30
0.0
 10
31.27101135253906
 20
112.4949645996094
 30
0.0
 10
31.28300476074219
 20
112.4849548339844
 30
0.0
 10
31.29701232910156
 20
112.4759521484375
 30
0.0
 10
31.29701232910156
 20
112.4759521484375
 30
0.0
 10
45.39501953125
 20
102.0809478759766
 30
0.0
 10
45.39501953125
 20
102.0809478759766
 30
0.0
 10
45.39501953125
 20
102.0809478759766
 30
0.0
 10
38.10502624511719
 20
92.56394958496094
 30
0.0
 10
38.10502624511719
 20
92.56394958496094
 30
0.0
 10
38.10502624511719
 20
92.56394958496094
 30
0.0
 10
26.68701171875
 20
106.06396484375
 30
0.0
 10
26.68701171875
 20
106.06396484375
 30
0.0
  0
POLYLINE
  5
50
330
1F
100
AcDbEntity
  8
Layer 1
370
     0
100
AcDb2dPolyline
 66
     1
 10
0.0
 20
0.0
 30
0.0
  0
VERTEX
  5
51
330
50
100
AcDbEntity
  8
Layer 1
370
     0
100
AcDbVertex
100
AcDb2dVertex
 10
46.25701904296875
 20
100.8759765625
 30
0.0
  0
VERTEX
  5
52
330
50
100
AcDbEntity
  8
Layer 1
370
     0
100
AcDbVertex
100
AcDb2dVertex
 10
54.0670166015625
 20
84.636962890625
 30
0.0
  0
VERTEX
  5
53
330
50
100
AcDbEntity
  8
Layer 1
370
     0
100
AcDbVertex
100
AcDb2dVertex
 10
40.57301330566406
 20
81.71395874023438
 30
0.0
  0
VERTEX
  5
54
330
50
100
AcDbEntity
  8
Layer 1
370
     0
100
AcDbVertex
100
AcDb2dVertex
 10
37.03800964355469
 20
88.83895874023438
 30
0.0
  0
VERTEX
  5
55
330
50
100
AcDbEntity
  8
Layer 1
370
     0
100
AcDbVertex
100
AcDb2dVertex
 10
46.25701904296875
 20
100.8759765625
 30
0.0
  0
SEQEND
  5
56
330
50
100
AcDbEntity
  8
Layer 1
370
     0
  0
POLYLINE
  5
57
330
1F
100
AcDbEntity
  8
Layer 1
370
     0
100
AcDb2dPolyline
 66
     1
 10
0.0
 20
0.0
 30
0.0
  0
VERTEX
  5
58
330
57
100
AcDbEntity
  8
Layer 1
370
     0
100
AcDbVertex
100
AcDb2dVertex
 10
17.60902404785156
 20
58.82797241210938
 30
0.0
  0
VERTEX
  5
59
330
57
100
AcDbEntity
  8
Layer 1
370
     0
100
AcDbVertex
100
AcDb2dVertex
 10
21.41502380371094
 20
47.26596069335938
 30
0.0
  0
VERTEX
  5
5A
330
57
100
AcDbEntity
  8
Layer 1
370
     0
100
AcDbVertex
100
AcDb2dVertex
 10
9.91802978515625
 20
55.803955078125
 30
0.0
  0
VERTEX
  5
5B
330
57
100
AcDbEntity
  8
Layer 1
370
     0
100
AcDbVertex
100
AcDb2dVertex
 10
17.60902404785156
 20
58.82797241210938
 30
0.0
  0
SEQEND
  5
5C
330
57
100
AcDbEntity
  8
Layer 1
370
     0
  0
SPLINE
  5
5D
330
1F
100
AcDbEntity
  8
Layer 1
370
     0
100
AcDbSpline
210
0.0
220
0.0
230
1.0
 70
    11
 71
     3
 72
    35
 73
    31
 74
     0
 42
0.0000000001
 43
0.0000000001
 12
1.0
 22
0.0
 32
0.0
 13
1.0
 23
0.0
 33
0.0
 40
0.0
 40
0.0
 40
0.0
 40
0.0
 40
1.0
 40
1.0
 40
1.0
 40
2.0
 40
2.0
 40
2.0
 40
3.0
 40
3.0
 40
3.0
 40
4.0
 40
4.0
 40
4.0
 40
5.0
 40
5.0
 40
5.0
 40
6.0
 40
6.0
 40
6.0
 40
7.0
 40
7.0
 40
7.0
 40
8.0
 40
8.0
 40
8.0
 40
9.0
 40
9.0
 40
9.0
 40
10.0
 40
10.0
 40
10.0
 40
10.0
 10
43.70401000976562
 20
50.573974609375
 30
0.0
 10
43.70401000976562
 20
50.573974609375
 30
0.0
 10
38.21000671386719
 20
65.00198364257812
 30
0.0
 10
38.21000671386719
 20
65.00198364257812
 30
0.0
 10
38.07099914550781
 20
65.36798095703125
 30
0.0
 10
37.6610107421875
 20
65.552978515625
 30
0.0
 10
37.29600524902344
 20
65.4119873046875
 30
0.0
 10
36.93000793457031
 20
65.27297973632812
 30
0.0
 10
36.74600219726562
 20
64.86297607421875
 30
0.0
 10
36.88600158691406
 20
64.49798583984375
 30
0.0
 10
36.88600158691406
 20
64.49798583984375
 30
0.0
 10
43.90299987792969
 20
46.07199096679688
 30
0.0
 10
43.90299987792969
 20
46.07199096679688
 30
0.0
 10
43.90299987792969
 20
46.07199096679688
 30
0.0
 10
23.29899597167969
 20
46.072998046875
 30
0.0
 10
23.29899597167969
 20
46.072998046875
 30
0.0
 10
23.29899597167969
 20
46.072998046875
 30
0.0
 10
17.37399291992188
 20
64.07501220703125
 30
0.0
 10
17.37399291992188
 20
64.07501220703125
 30
0.0
 10
17.37399291992188
 20
64.07501220703125
 30
0.0
 10
31.0
 20
79.0
 30
0.0
 10
31.0
 20
79.0
 30
0.0
 10
31.0
 20
79.0
 30
0.0
 10
39.71099853515625
 20
80.12899780273438
 30
0.0
 10
39.71099853515625
 20
80.12899780273438
 30
0.0
 10
39.71099853515625
 20
80.12899780273438
 30
0.0
 10
49.51100158691406
 20
53.17898559570312
 30
0.0
 10
49.51100158691406
 20
53.17898559570312
 30
0.0
 10
49.51100158691406
 20
53.17898559570312
 30
0.0
 10
43.70401000976562
 20
50.573974609375
 30
0.0
 10
43.70401000976562
 20
50.573974609375
 30
0.0
  0
POLYLINE
  5
5E
330
1F
100
AcDbEntity
  8
Layer 1
370
     0
100
AcDb2dPolyline
 66
     1
 10
0.0
 20
0.0
 30
0.0
  0
VERTEX
  5
5F
330
5E
100
AcDbEntity
  8
Layer 1
370
     0
100
AcDbVertex
100
AcDb2dVertex
 10
52.57801818847656
 20
48.89096069335938
 30
0.0
  0
VERTEX
  5
60
330
5E
100
AcDbEntity
  8
Layer 1
370
     0
100
AcDbVertex
100
AcDb2dVertex
 10
41.12602233886719
 20
80.38397216796875
 30
0.0
  0
VERTEX
  5
61
330
5E
100
AcDbEntity
  8
Layer 1
370
     0
100
AcDbVertex
100
AcDb2dVertex
 10
54.33901977539062
 20
83.2459716796875
 30
0.0
  0
VERTEX
  5
62
330
5E
100
AcDbEntity
  8
Layer 1
370
     0
100
AcDbVertex
100
AcDb2dVertex
 10
52.57801818847656
 20
48.89096069335938
 30
0.0
  0
SEQEND
  5
63
330
5E
100
AcDbEntity
  8
Layer 1
370
     0
  0
HATCH
  5
64
330
1F
100
AcDbEntity
  8
Layer 1
 62
     7
420
 16777215
100
AcDbHatch
 10
0.0
 20
0.0
 30
0.0
210
0.0
220
0.0
230
1.0
  2
SOLID
 70
     1
 71
     0
 91
        8
 92
        1
 93
        1
 72
     4
 94
        3
 73
     0
 74
     1
 95
      155
 96
      151
 40
0.0
 40
0.0
 40
0.0
 40
0.0
 40
1.0
 40
1.0
 40
1.0
 40
2.0
 40
2.0
 40
2.0
 40
3.0
 40
3.0
 40
3.0
 40
4.0
 40
4.0
 40
4.0
 40
5.0
 40
5.0
 40
5.0
 40
6.0
 40
6.0
 40
6.0
 40
7.0
 40
7.0
 40
7.0
 40
8.0
 40
8.0
 40
8.0
 40
9.0
 40
9.0
 40
9.0
 40
10.0
 40
10.0
 40
10.0
 40
11.0
 40
11.0
 40
11.0
 40
12.0
 40
12.0
 40
12.0
 40
13.0
 40
13.0
 40
13.0
 40
14.0
 40
14.0
 40
14.0
 40
15.0
 40
15.0
 40
15.0
 40
16.0
 40
16.0
 40
16.0
 40
17.0
 40
17.0
 40
17.0
 40
18.0
 40
18.0
 40
18.0
 40
19.0
 40
19.0
 40
19.0
 40
20.0
 40
20.0
 40
20.0
 40
21.0
 40
21.0
 40
21.0
 40
22.0
 40
22.0
 40
22.0
 40
23.0
 40
23.0
 40
23.0
 40
24.0
 40
24.0
 40
24.0
 40
25.0
 40
25.0
 40
25.0
 40
26.0
 40
26.0
 40
26.0
 40
27.0
 40
27.0
 40
27.0
 40
28.0
 40
28.0
 40
28.0
 40
29.0
 40
29.0
 40
29.0
 40
30.0
 40
30.0
 40
30.0
 40
31.0
 40
31.0
 40
31.0
 40
32.0
 40
32.0
 40
32.0
 40
33.0
 40
33.0
 40
33.0
 40
34.0
 40
34.0
 40
34.0
 40
35.0
 40
35.0
 40
35.0
 40
36.0
 40
36.0
 40
36.0
 40
37.0
 40
37.0
 40
37.0
 40
38.0
 40
38.0
 40
38.0
 40
39.0
 40
39.0
 40
39.0
 40
40.0
 40
40.0
 40
40.0
 40
41.0
 40
41.0
 40
41.0
 40
42.0
 40
42.0
 40
42.0
 40
43.0
 40
43.0
 40
43.0
 40
44.0
 40
44.0
 40
44.0
 40
45.0
 40
45.0
 40
45.0
 40
46.0
 40
46.0
 40
46.0
 40
47.0
 40
47.0
 40
47.0
 40
48.0
 40
48.0
 40
48.0
 40
49.0
 40
49.0
 40
49.0
 40
50.0
 40
50.0
 40
50.0
 40
50.0
 10
62.99002075195312
 20
87.26095581054688
 10
62.99601745605469
 20
87.29595947265625
 10
63.01101684570312
 20
87.32794189453125
 10
63.01101684570312
 20
87.36495971679688
 10
63.01101684570312
 20
87.36495971679688
 10
63.01101684570312
 20
95.81596374511719
 10
63.01101684570312
 20
95.81596374511719
 10
63.01101684570312
 20
95.84295654296875
 10
62.99801635742188
 20
95.86695861816406
 10
62.99501037597656
 20
95.89295959472656
 10
63.02500915527344
 20
96.20095825195312
 10
62.86201477050781
 20
96.50096130371094
 10
62.56100463867188
 20
96.62095642089844
 10
62.56100463867188
 20
96.62095642089844
 10
46.83700561523438
 20
102.8089599609375
 10
46.83700561523438
 20
102.8089599609375
 10
46.83700561523438
 20
102.8089599609375
 10
34.38101196289062
 20
119.0889587402344
 10
34.38101196289062
 20
119.0889587402344
 10
34.22500610351562
 20
119.2939605712891
 10
33.96701049804688
 20
119.3989562988281
 10
33.71601867675781
 20
119.3599548339844
 10
33.46101379394531
 20
119.3229522705078
 10
33.24702453613281
 20
119.1499481201172
 10
33.15501403808594
 20
118.9099578857422
 10
33.15501403808594
 20
118.9099578857422
 10
31.36502075195312
 20
114.1839599609375
 10
31.36502075195312
 20
114.1839599609375
 10
31.36502075195312
 20
114.1839599609375
 10
28.46202087402344
 20
116.3259582519531
 10
28.46202087402344
 20
116.3259582519531
 10
28.26802062988281
 20
116.4679565429688
 10
28.01402282714844
 20
116.5009613037109
 10
27.79002380371094
 20
116.4189605712891
 10
27.56501770019531
 20
116.3329620361328
 10
27.39802551269531
 20
116.1399536132812
 10
27.3480224609375
 20
115.9039611816406
 10
27.3480224609375
 20
115.9039611816406
 10
25.22702026367188
 20
106.0199584960938
 10
25.22702026367188
 20
106.0199584960938
 10
25.18101501464844
 20
105.8049621582031
 10
25.23802185058594
 20
105.5819549560547
 10
25.37901306152344
 20
105.4139556884766
 10
25.37901306152344
 20
105.4139556884766
 10
37.22201538085938
 20
91.41094970703125
 10
37.22201538085938
 20
91.41094970703125
 10
37.22201538085938
 20
91.41094970703125
 10
35.64302062988281
 20
89.34895324707031
 10
35.64302062988281
 20
89.34895324707031
 10
35.47901916503906
 20
89.13494873046875
 10
35.45101928710938
 20
88.84495544433594
 10
35.57101440429688
 20
88.60295104980469
 10
35.57101440429688
 20
88.60295104980469
 10
39.10601806640625
 20
81.47894287109375
 10
39.10601806640625
 20
81.47894287109375
 10
39.10601806640625
 20
81.47894287109375
 10
30.56001281738281
 20
80.37094116210938
 10
30.56001281738281
 20
80.37094116210938
 10
30.39401245117188
 20
80.34994506835938
 10
30.24101257324219
 20
80.26895141601562
 10
30.12701416015625
 20
80.14492797851562
 10
30.12701416015625
 20
80.14492797851562
 10
16.04701232910156
 20
64.72293090820312
 10
16.04701232910156
 20
64.72293090820312
 10
15.87400817871094
 20
64.53494262695312
 10
15.81800842285156
 20
64.26693725585938
 10
15.89801025390625
 20
64.02392578125
 10
15.89801025390625
 20
64.02392578125
 10
17.16500854492188
 20
60.17391967773438
 10
17.16500854492188
 20
60.17391967773438
 10
17.16500854492188
 20
60.17391967773438
 10
8.211013793945312
 20
56.6539306640625
 10
8.211013793945312
 20
56.6539306640625
 10
7.97100830078125
 20
56.5599365234375
 10
7.801010131835938
 20
56.34292602539062
 10
7.768020629882812
 20
56.08892822265625
 10
7.734024047851562
 20
55.83291625976562
 10
7.841018676757812
 20
55.57992553710938
 10
8.047027587890625
 20
55.42593383789062
 10
8.047027587890625
 20
55.42593383789062
 10
22.36302185058594
 20
44.79293823242188
 10
22.36302185058594
 20
44.79293823242188
 10
22.36502075195312
 20
44.79193115234375
 10
22.36701965332031
 20
44.79092407226562
 10
22.36802673339844
 20
44.78994750976562
 10
22.42903137207031
 20
44.74594116210938
 10
22.49502563476562
 20
44.71194458007812
 10
22.56602478027344
 20
44.68795776367188
 10
22.63702392578125
 20
44.66397094726562
 10
22.71202087402344
 20
44.6529541015625
 10
22.78501892089844
 20
44.6529541015625
 10
22.78501892089844
 20
44.6529541015625
 10
22.78501892089844
 20
44.6529541015625
 10
22.78501892089844
 20
44.6529541015625
 10
22.78602600097656
 20
44.6529541015625
 10
22.78602600097656
 20
44.6529541015625
 10
22.78602600097656
 20
44.6529541015625
 10
22.78602600097656
 20
44.6529541015625
 10
44.9310302734375
 20
44.65194702148438
 10
44.9310302734375
 20
44.65194702148438
 10
45.16403198242188
 20
44.65194702148438
 10
45.38203430175781
 20
44.76693725585938
 10
45.51402282714844
 20
44.95895385742188
 10
45.64701843261719
 20
45.15093994140625
 10
45.676025390625
 20
45.39596557617188
 10
45.593017578125
 20
45.61294555664062
 10
45.593017578125
 20
45.61294555664062
 10
44.20901489257812
 20
49.24594116210938
 10
44.20901489257812
 20
49.24594116210938
 10
44.20901489257812
 20
49.24594116210938
 10
49.99601745605469
 20
51.8409423828125
 10
49.99601745605469
 20
51.8409423828125
 10
49.99601745605469
 20
51.8409423828125
 10
52.44001770019531
 20
45.11993408203125
 10
52.44001770019531
 20
45.11993408203125
 10
52.54301452636719
 20
44.83694458007812
 10
52.81201171875
 20
44.65292358398438
 10
53.10601806640625
 20
44.65292358398438
 10
53.1400146484375
 20
44.65292358398438
 10
53.17501831054688
 20
44.65591430664062
 10
53.21101379394531
 20
44.66091918945312
 10
53.54400634765625
 20
44.7119140625
 10
53.7960205078125
 20
44.98892211914062
 10
53.81401062011719
 20
45.325927734375
 10
53.81401062011719
 20
45.325927734375
 10
55.78001403808594
 20
83.6649169921875
 10
55.78001403808594
 20
83.6649169921875
 10
55.78001403808594
 20
83.6649169921875
 10
62.57601928710938
 20
86.71090698242188
 10
62.57601928710938
 20
86.71090698242188
 10
62.5770263671875
 20
86.71090698242188
 10
62.57801818847656
 20
86.7119140625
 10
62.58001708984375
 20
86.71292114257812
 10
62.58001708984375
 20
86.71292114257812
 10
62.59201049804688
 20
86.71792602539062
 10
62.59201049804688
 20
86.71792602539062
 10
62.61801147460938
 20
86.72991943359375
 10
62.635009765625
 20
86.75091552734375
 10
62.65800476074219
 20
86.76593017578125
 10
62.71299743652344
 20
86.79794311523438
 10
62.76699829101562
 20
86.82891845703125
 10
62.80999755859375
 20
86.87393188476562
 10
62.83999633789062
 20
86.90493774414062
 10
62.85800170898438
 20
86.94393920898438
 10
62.88099670410156
 20
86.97991943359375
 10
62.90798950195312
 20
87.01992797851562
 10
62.93899536132812
 20
87.055908203125
 10
62.95700073242188
 20
87.10092163085938
 10
62.97801208496094
 20
87.15396118164062
 10
62.98200988769531
 20
87.20697021484375
 10
62.99002075195312
 20
87.26095581054688
 97
        0
 97
        0
 92
        1
 93
        4
 72
     1
 10
55.43501281738281
 20
85.06396484375
 11
47.81800842285156
 21
100.9009704589844
 72
     1
 10
47.81800842285156
 20
100.9009704589844
 11
61.59300231933594
 21
95.47996520996094
 72
     1
 10
61.59300231933594
 20
95.47996520996094
 11
61.59300231933594
 21
87.824951171875
 72
     1
 10
61.59300231933594
 20
87.824951171875
 11
55.43501281738281
 21
85.06396484375
 97
        0
 92
        1
 93
        3
 72
     1
 10
34.03102111816406
 20
117.2169647216797
 11
42.80302429199219
 21
105.7529602050781
 72
     1
 10
42.80302429199219
 20
105.7529602050781
 11
32.55201721191406
 21
113.3119659423828
 72
     1
 10
32.55201721191406
 20
113.3119659423828
 11
34.03102111816406
 21
117.2169647216797
 97
        0
 92
        1
 93
        1
 72
     4
 94
        3
 73
     0
 74
     1
 95
       23
 96
       19
 40
0.0
 40
0.0
 40
0.0
 40
0.0
 40
1.0
 40
1.0
 40
1.0
 40
2.0
 40
2.0
 40
2.0
 40
3.0
 40
3.0
 40
3.0
 40
4.0
 40
4.0
 40
4.0
 40
5.0
 40
5.0
 40
5.0
 40
6.0
 40
6.0
 40
6.0
 40
6.0
 10
26.68701171875
 20
106.06396484375
 10
26.68701171875
 20
106.06396484375
 10
28.5050048828125
 20
114.5349578857422
 10
28.5050048828125
 20
114.5349578857422
 10
28.5050048828125
 20
114.5349578857422
 10
31.25801086425781
 20
112.5049591064453
 10
31.25801086425781
 20
112.5049591064453
 10
31.27101135253906
 20
112.4949645996094
 10
31.28300476074219
 20
112.4849548339844
 10
31.29701232910156
 20
112.4759521484375
 10
31.29701232910156
 20
112.4759521484375
 10
45.39501953125
 20
102.0809478759766
 10
45.39501953125
 20
102.0809478759766
 10
45.39501953125
 20
102.0809478759766
 10
38.10502624511719
 20
92.56394958496094
 10
38.10502624511719
 20
92.56394958496094
 10
38.10502624511719
 20
92.56394958496094
 10
26.68701171875
 20
106.06396484375
 10
26.68701171875
 20
106.06396484375
 97
        0
 97
        0
 92
        1
 93
        4
 72
     1
 10
46.25701904296875
 20
100.8759765625
 11
54.0670166015625
 21
84.636962890625
 72
     1
 10
54.0670166015625
 20
84.636962890625
 11
40.57301330566406
 21
81.71395874023438
 72
     1
 10
40.57301330566406
 20
81.71395874023438
 11
37.03800964355469
 21
88.83895874023438
 72
     1
 10
37.03800964355469
 20
88.83895874023438
 11
46.25701904296875
 21
100.8759765625
 97
        0
 92
        1
 93
        3
 72
     1
 10
17.60902404785156
 20
58.82797241210938
 11
21.41502380371094
 21
47.26596069335938
 72
     1
 10
21.41502380371094
 20
47.26596069335938
 11
9.91802978515625
 21
55.803955078125
 72
     1
 10
9.91802978515625
 20
55.803955078125
 11
17.60902404785156
 21
58.82797241210938
 97
        0
 92
        1
 93
        1
 72
     4
 94
        3
 73
     0
 74
     1
 95
       35
 96
       31
 40
0.0
 40
0.0
 40
0.0
 40
0.0
 40
1.0
 40
1.0
 40
1.0
 40
2.0
 40
2.0
 40
2.0
 40
3.0
 40
3.0
 40
3.0
 40
4.0
 40
4.0
 40
4.0
 40
5.0
 40
5.0
 40
5.0
 40
6.0
 40
6.0
 40
6.0
 40
7.0
 40
7.0
 40
7.0
 40
8.0
 40
8.0
 40
8.0
 40
9.0
 40
9.0
 40
9.0
 40
10.0
 40
10.0
 40
10.0
 40
10.0
 10
43.70401000976562
 20
50.573974609375
 10
43.70401000976562
 20
50.573974609375
 10
38.21000671386719
 20
65.00198364257812
 10
38.21000671386719
 20
65.00198364257812
 10
38.07099914550781
 20
65.36798095703125
 10
37.6610107421875
 20
65.552978515625
 10
37.29600524902344
 20
65.4119873046875
 10
36.93000793457031
 20
65.27297973632812
 10
36.74600219726562
 20
64.86297607421875
 10
36.88600158691406
 20
64.49798583984375
 10
36.88600158691406
 20
64.49798583984375
 10
43.90299987792969
 20
46.07199096679688
 10
43.90299987792969
 20
46.07199096679688
 10
43.90299987792969
 20
46.07199096679688
 10
23.29899597167969
 20
46.072998046875
 10
23.29899597167969
 20
46.072998046875
 10
23.29899597167969
 20
46.072998046875
 10
17.37399291992188
 20
64.07501220703125
 10
17.37399291992188
 20
64.07501220703125
 10
17.37399291992188
 20
64.07501220703125
 10
31.0
 20
79.0
 10
31.0
 20
79.0
 10
31.0
 20
79.0
 10
39.71099853515625
 20
80.12899780273438
 10
39.71099853515625
 20
80.12899780273438
 10
39.71099853515625
 20
80.12899780273438
 10
49.51100158691406
 20
53.17898559570312
 10
49.51100158691406
 20
53.17898559570312
 10
49.51100158691406
 20
53.17898559570312
 10
43.70401000976562
 20
50.573974609375
 10
43.70401000976562
 20
50.573974609375
 97
        0
 97
        0
 92
        1
 93
        3
 72
     1
 10
52.57801818847656
 20
48.89096069335938
 11
41.12602233886719
 21
80.38397216796875
 72
     1
 10
41.12602233886719
 20
80.38397216796875
 11
54.33901977539062
 21
83.2459716796875
 72
     1
 10
54.33901977539062
 20
83.2459716796875
 11
52.57801818847656
 21
48.89096069335938
 97
        0
 75
     2
 76
     1
 98
        0
  0
ENDSEC
  0
SECTION
  2
OBJECTS
  0
DICTIONARY
  5
C
330
0
100
AcDbDictionary
281
     1
  3
ACAD_GROUP
350
D
  3
ACAD_LAYOUT
350
1A
  3
ACAD_MATERIAL
350
3B
  3
ACAD_MLEADERSTYLE
350
66
  3
ACAD_MLINESTYLE
350
17
  3
ACAD_PLOTSETTINGS
350
19
  3
ACAD_PLOTSTYLENAME
350
E
  3
ACAD_TABLESTYLE
350
65
  3
ACAD_VISUALSTYLE
350
2A
  0
SUN
  5
3F
330
29
100
AcDbSun
 90
        1
290
     0
 63
     7
421
 16777215
 40
1.0
291
     1
 91
  2455826
 92
 54000000
292
     0
 70
     2
 71
   256
280
     1
  0
DICTIONARY
  5
D
102
{ACAD_REACTORS
330
C
102
}
330
C
100
AcDbDictionary
281
     1
  0
DICTIONARY
  5
1A
102
{ACAD_REACTORS
330
C
102
}
330
C
100
AcDbDictionary
281
     1
  3
Layout1
350
1E
  3
Layout2
350
26
  3
Model
350
22
  0
DICTIONARY
  5
3B
102
{ACAD_REACTORS
330
C
102
}
330
C
100
AcDbDictionary
281
     1
  3
ByBlock
350
3D
  3
ByLayer
350
3C
  3
Global
350
3E
  0
DICTIONARY
  5
66
102
{ACAD_REACTORS
330
C
102
}
330
C
100
AcDbDictionary
281
     1
  0
DICTIONARY
  5
17
102
{ACAD_REACTORS
330
C
102
}
330
C
100
AcDbDictionary
281
     1
  3
Standard
350
18
  0
DICTIONARY
  5
19
102
{ACAD_REACTORS
330
C
102
}
330
C
100
AcDbDictionary
281
     1
  0
ACDBDICTIONARYWDFLT
  5
E
102
{ACAD_REACTORS
330
C
102
}
330
C
100
AcDbDictionary
281
     1
  3
Normal
350
F
100
AcDbDictionaryWithDefault
340
F
  0
DICTIONARY
  5
65
102
{ACAD_REACTORS
330
C
102
}
330
C
100
AcDbDictionary
281
     1
  0
DICTIONARY
  5
2A
102
{ACAD_REACTORS
330
C
102
}
330
C
100
AcDbDictionary
281
     1
  3
2dWireframe
350
2F
  3
3D Hidden
350
31
  3
3dWireframe
350
30
  3
Basic
350
32
  3
Brighten
350
36
  3
ColorChange
350
3A
  3
Conceptual
350
34
  3
Dim
350
35
  3
Facepattern
350
39
  3
Flat
350
2B
  3
FlatWithEdges
350
2C
  3
Gouraud
350
2D
  3
GouraudWithEdges
350
2E
  3
Linepattern
350
38
  3
Realistic
350
33
  3
Thicken
350
37
  0
LAYOUT
  5
1E
102
{ACAD_REACTORS
330
1A
102
}
330
1A
100
AcDbPlotSettings
  1

  2
none_device
  4

  6

 40
0.0
 41
0.0
 42
0.0
 43
0.0
 44
0.0
 45
0.0
 46
0.0
 47
0.0
 48
0.0
 49
0.0
140
0.0
141
0.0
142
1.0
143
1.0
 70
   688
 72
     0
 73
     0
 74
     5
  7

 75
    16
 76
     0
 77
     2
 78
   300
147
1.0
148
0.0
149
0.0
100
AcDbLayout
  1
Layout1
 70
     1
 71
     1
 10
0.0
 20
0.0
 11
12.0
 21
9.0
 12
0.0
 22
0.0
 32
0.0
 14
1.000000000000000E+20
 24
1.000000000000000E+20
 34
1.000000000000000E+20
 15
-1.000000000000000E+20
 25
-1.000000000000000E+20
 35
-1.000000000000000E+20
146
0.0
 13
0.0
 23
0.0
 33
0.0
 16
1.0
 26
0.0
 36
0.0
 17
0.0
 27
1.0
 37
0.0
 76
     0
330
1B
  0
LAYOUT
  5
26
102
{ACAD_REACTORS
330
1A
102
}
330
1A
100
AcDbPlotSettings
  1

  2
none_device
  4

  6

 40
0.0
 41
0.0
 42
0.0
 43
0.0
 44
0.0
 45
0.0
 46
0.0
 47
0.0
 48
0.0
 49
0.0
140
0.0
141
0.0
142
1.0
143
1.0
 70
   688
 72
     0
 73
     0
 74
     5
  7

 75
    16
 76
     0
 77
     2
 78
   300
147
1.0
148
0.0
149
0.0
100
AcDbLayout
  1
Layout2
 70
     1
 71
     2
 10
0.0
 20
0.0
 11
0.0
 21
0.0
 12
0.0
 22
0.0
 32
0.0
 14
0.0
 24
0.0
 34
0.0
 15
0.0
 25
0.0
 35
0.0
146
0.0
 13
0.0
 23
0.0
 33
0.0
 16
1.0
 26
0.0
 36
0.0
 17
0.0
 27
1.0
 37
0.0
 76
     0
330
23
  0
LAYOUT
  5
22
102
{ACAD_REACTORS
330
1A
102
}
330
1A
100
AcDbPlotSettings
  1

  2
none_device
  4

  6

 40
0.0
 41
0.0
 42
0.0
 43
0.0
 44
0.0
 45
0.0
 46
0.0
 47
0.0
 48
0.0
 49
0.0
140
0.0
141
0.0
142
1.0
143
1.0
 70
  1712
 72
     0
 73
     0
 74
     0
  7

 75
     0
 76
     0
 77
     2
 78
   300
147
1.0
148
0.0
149
0.0
100
AcDbLayout
  1
Model
 70
     1
 71
     0
 10
0.0
 20
0.0
 11
12.0
 21
9.0
 12
0.0
 22
0.0
 32
0.0
 14
1.000000000000000E+20
 24
1.000000000000000E+20
 34
1.000000000000000E+20
 15
-1.000000000000000E+20
 25
-1.000000000000000E+20
 35
-1.000000000000000E+20
146
0.0
 13
0.0
 23
0.0
 33
0.0
 16
1.0
 26
0.0
 36
0.0
 17
0.0
 27
1.0
 37
0.0
 76
     0
330
1F
331
29
  0
MATERIAL
  5
3D
102
{ACAD_REACTORS
330
3B
102
}
330
3B
100
AcDbMaterial
  1
ByBlock
 72
     1
 94
      127
  0
MATERIAL
  5
3C
102
{ACAD_REACTORS
330
3B
102
}
330
3B
100
AcDbMaterial
  1
ByLayer
 72
     1
 94
      127
  0
MATERIAL
  5
3E
102
{ACAD_REACTORS
330
3B
102
}
330
3B
100
AcDbMaterial
  1
Global
 72
     1
 94
      127
  0
MLINESTYLE
  5
18
102
{ACAD_REACTORS
330
17
102
}
330
17
100
AcDbMlineStyle
  2
Standard
 70
     0
  3

 62
   256
 51
90.0
 52
90.0
 71
     2
 49
0.5
 62
   256
  6
BYLAYER
 49
-0.5
 62
   256
  6
BYLAYER
  0
ACDBPLACEHOLDER
  5
F
102
{ACAD_REACTORS
330
E
102
}
330
E
  0
VISUALSTYLE
  5
2F
102
{ACAD_REACTORS
330
2A
102
}
330
2A
100
AcDbVisualStyle
  2
2dWireframe
 70
     4
177
     2
291
     0
 71
     0
176
     1
 72
     2
176
     1
 73
     0
176
     1
 90
        0
176
     1
 40
-0.6
176
     1
 41
-30.0
176
     1
 62
     5
 63
     7
421
 16777215
176
     1
 74
     1
176
     1
 91
        4
176
     1
 64
     7
176
     1
 65
   257
176
     1
 75
     1
176
     1
175
     1
176
     1
 42
1.0
176
     1
 92
        0
176
     1
 66
   257
176
     1
 43
1.0
176
     1
 76
     1
176
     1
 77
     6
176
     1
 78
     2
176
     1
 67
     7
176
     1
 79
     5
176
     1
170
     0
176
     1
171
     0
176
     1
290
     0
176
     1
 93
        1
176
     1
 44
0.0
176
     1
173
     0
176
     1
  0
VISUALSTYLE
  5
31
102
{ACAD_REACTORS
330
2A
102
}
330
2A
100
AcDbVisualStyle
  2
3D Hidden
 70
     6
177
     2
291
     0
 71
     1
176
     1
 72
     2
176
     1
 73
     2
176
     1
 90
        0
176
     1
 40
-0.6
176
     1
 41
-30.0
176
     1
 62
     5
 63
     7
421
 16777215
176
     1
 74
     2
176
     1
 91
        2
176
     1
 64
     7
176
     1
 65
   257
176
     1
 75
     2
176
     1
175
     1
176
     1
 42
40.0
176
     1
 92
        0
176
     1
 66
   257
176
     1
 43
1.0
176
     1
 76
     1
176
     1
 77
     6
176
     1
 78
     2
176
     1
 67
     7
176
     1
 79
     3
176
     1
170
     0
176
     1
171
     0
176
     1
290
     0
176
     1
 93
        1
176
     1
 44
0.0
176
     1
173
     0
176
     1
  0
VISUALSTYLE
  5
30
102
{ACAD_REACTORS
330
2A
102
}
330
2A
100
AcDbVisualStyle
  2
3dWireframe
 70
     5
177
     2
291
     0
 71
     0
176
     1
 72
     2
176
     1
 73
     0
176
     1
 90
        0
176
     1
 40
-0.6
176
     1
 41
-30.0
176
     1
 62
     5
 63
     7
421
 16777215
176
     1
 74
     1
176
     1
 91
        4
176
     1
 64
     7
176
     1
 65
   257
176
     1
 75
     1
176
     1
175
     1
176
     1
 42
1.0
176
     1
 92
        0
176
     1
 66
   257
176
     1
 43
1.0
176
     1
 76
     1
176
     1
 77
     6
176
     1
 78
     2
176
     1
 67
     7
176
     1
 79
     5
176
     1
170
     0
176
     1
171
     0
176
     1
290
     0
176
     1
 93
        1
176
     1
 44
0.0
176
     1
173
     0
176
     1
  0
VISUALSTYLE
  5
32
102
{ACAD_REACTORS
330
2A
102
}
330
2A
100
AcDbVisualStyle
  2
Basic
 70
     7
177
     2
291
     1
 71
     1
176
     1
 72
     0
176
     1
 73
     1
176
     1
 90
        0
176
     1
 40
-0.6
176
     1
 41
-30.0
176
     1
 62
     5
 63
     7
421
 16777215
176
     1
 74
     0
176
     1
 91
        4
176
     1
 64
     7
176
     1
 65
   257
176
     1
 75
     1
176
     1
175
     1
176
     1
 42
1.0
176
     1
 92
        8
176
     1
 66
     7
176
     1
 43
1.0
176
     1
 76
     1
176
     1
 77
     6
176
     1
 78
     2
176
     1
 67
     7
176
     1
 79
     5
176
     1
170
     0
176
     1
171
     0
176
     1
290
     0
176
     1
 93
        1
176
     1
 44
0.0
176
     1
173
     0
176
     1
  0
VISUALSTYLE
  5
36
102
{ACAD_REACTORS
330
2A
102
}
330
2A
100
AcDbVisualStyle
  2
Brighten
 70
    12
177
     2
291
     1
 71
     2
176
     1
 72
     2
176
     1
 73
     0
176
     1
 90
        0
176
     1
 40
-0.6
176
     1
 41
-30.0
176
     1
 62
     5
 63
     7
421
 16777215
176
     1
 74
     1
176
     1
 91
        4
176
     1
 64
     7
176
     1
 65
   257
176
     1
 75
     1
176
     1
175
     1
176
     1
 42
1.0
176
     1
 92
        8
176
     1
 66
     7
176
     1
 43
1.0
176
     1
 76
     1
176
     1
 77
     6
176
     1
 78
     2
176
     1
 67
     7
176
     1
 79
     5
176
     1
170
     0
176
     1
171
     0
176
     1
290
     0
176
     1
 93
        1
176
     1
 44
50.0
176
     1
173
     0
176
     1
  0
VISUALSTYLE
  5
3A
102
{ACAD_REACTORS
330
2A
102
}
330
2A
100
AcDbVisualStyle
  2
ColorChange
 70
    16
177
     2
291
     1
 71
     2
176
     1
 72
     2
176
     1
 73
     3
176
     1
 90
        0
176
     1
 40
-0.6
176
     1
 41
-30.0
176
     1
 62
     5
 63
     8
421
  8421504
176
     1
 74
     1
176
     1
 91
        4
176
     1
 64
     7
176
     1
 65
   257
176
     1
 75
     1
176
     1
175
     1
176
     1
 42
1.0
176
     1
 92
        8
176
     1
 66
     8
424
  8421504
176
     1
 43
1.0
176
     1
 76
     1
176
     1
 77
     6
176
     1
 78
     2
176
     1
 67
     7
176
     1
 79
     5
176
     1
170
     0
176
     1
171
     0
176
     1
290
     0
176
     1
 93
        1
176
     1
 44
0.0
176
     1
173
     0
176
     1
  0
VISUALSTYLE
  5
34
102
{ACAD_REACTORS
330
2A
102
}
330
2A
100
AcDbVisualStyle
  2
Conceptual
 70
     9
177
     2
291
     0
 71
     3
176
     1
 72
     2
176
     1
 73
     0
176
     1
 90
        0
176
     1
 40
-0.6
176
     1
 41
-30.0
176
     1
 62
     5
 63
     7
421
 16777215
176
     1
 74
     2
176
     1
 91
        2
176
     1
 64
     7
176
     1
 65
   257
176
     1
 75
     1
176
     1
175
     1
176
     1
 42
40.0
176
     1
 92
        8
176
     1
 66
     7
176
     1
 43
1.0
176
     1
 76
     1
176
     1
 77
     6
176
     1
 78
     2
176
     1
 67
     7
176
     1
 79
     3
176
     1
170
     0
176
     1
171
     0
176
     1
290
     0
176
     1
 93
        1
176
     1
 44
0.0
176
     1
173
     0
176
     1
  0
VISUALSTYLE
  5
35
102
{ACAD_REACTORS
330
2A
102
}
330
2A
100
AcDbVisualStyle
  2
Dim
 70
    11
177
     2
291
     1
 71
     2
176
     1
 72
     2
176
     1
 73
     0
176
     1
 90
        0
176
     1
 40
-0.6
176
     1
 41
-30.0
176
     1
 62
     5
 63
     7
421
 16777215
176
     1
 74
     1
176
     1
 91
        4
176
     1
 64
     7
176
     1
 65
   257
176
     1
 75
     1
176
     1
175
     1
176
     1
 42
1.0
176
     1
 92
        8
176
     1
 66
     7
176
     1
 43
1.0
176
     1
 76
     1
176
     1
 77
     6
176
     1
 78
     2
176
     1
 67
     7
176
     1
 79
     5
176
     1
170
     0
176
     1
171
     0
176
     1
290
     0
176
     1
 93
        1
176
     1
 44
-50.0
176
     1
173
     0
176
     1
  0
VISUALSTYLE
  5
39
102
{ACAD_REACTORS
330
2A
102
}
330
2A
100
AcDbVisualStyle
  2
Facepattern
 70
    15
177
     2
291
     1
 71
     2
176
     1
 72
     2
176
     1
 73
     0
176
     1
 90
        0
176
     1
 40
-0.6
176
     1
 41
-30.0
176
     1
 62
     5
 63
     7
421
 16777215
176
     1
 74
     1
176
     1
 91
        4
176
     1
 64
     7
176
     1
 65
   257
176
     1
 75
     1
176
     1
175
     1
176
     1
 42
1.0
176
     1
 92
        8
176
     1
 66
     7
176
     1
 43
1.0
176
     1
 76
     1
176
     1
 77
     6
176
     1
 78
     2
176
     1
 67
     7
176
     1
 79
     5
176
     1
170
     0
176
     1
171
     0
176
     1
290
     0
176
     1
 93
        1
176
     1
 44
0.0
176
     1
173
     0
176
     1
  0
VISUALSTYLE
  5
2B
102
{ACAD_REACTORS
330
2A
102
}
330
2A
100
AcDbVisualStyle
  2
Flat
 70
     0
177
     2
291
     1
 71
     2
176
     1
 72
     1
176
     1
 73
     1
176
     1
 90
        2
176
     1
 40
-0.6
176
     1
 41
30.0
176
     1
 62
     5
 63
     7
421
 16777215
176
     1
 74
     0
176
     1
 91
        4
176
     1
 64
     7
176
     1
 65
   257
176
     1
 75
     1
176
     1
175
     1
176
     1
 42
1.0
176
     1
 92
        8
176
     1
 66
     7
176
     1
 43
1.0
176
     1
 76
     1
176
     1
 77
     6
176
     1
 78
     2
176
     1
 67
     7
176
     1
 79
     5
176
     1
170
     0
176
     1
171
     0
176
     1
290
     0
176
     1
 93
       13
176
     1
 44
0.0
176
     1
173
     0
176
     1
  0
VISUALSTYLE
  5
2C
102
{ACAD_REACTORS
330
2A
102
}
330
2A
100
AcDbVisualStyle
  2
FlatWithEdges
 70
     1
177
     2
291
     1
 71
     2
176
     1
 72
     1
176
     1
 73
     1
176
     1
 90
        2
176
     1
 40
-0.6
176
     1
 41
30.0
176
     1
 62
     5
 63
     7
421
 16777215
176
     1
 74
     1
176
     1
 91
        4
176
     1
 64
     7
176
     1
 65
   257
176
     1
 75
     1
176
     1
175
     1
176
     1
 42
1.0
176
     1
 92
        0
176
     1
 66
   257
176
     1
 43
1.0
176
     1
 76
     1
176
     1
 77
     6
176
     1
 78
     2
176
     1
 67
     7
176
     1
 79
     5
176
     1
170
     0
176
     1
171
     0
176
     1
290
     0
176
     1
 93
       13
176
     1
 44
0.0
176
     1
173
     0
176
     1
  0
VISUALSTYLE
  5
2D
102
{ACAD_REACTORS
330
2A
102
}
330
2A
100
AcDbVisualStyle
  2
Gouraud
 70
     2
177
     2
291
     1
 71
     2
176
     1
 72
     2
176
     1
 73
     1
176
     1
 90
        2
176
     1
 40
-0.6
176
     1
 41
30.0
176
     1
 62
     5
 63
     7
421
 16777215
176
     1
 74
     0
176
     1
 91
        4
176
     1
 64
     7
176
     1
 65
   257
176
     1
 75
     1
176
     1
175
     1
176
     1
 42
1.0
176
     1
 92
        0
176
     1
 66
     7
176
     1
 43
1.0
176
     1
 76
     1
176
     1
 77
     6
176
     1
 78
     2
176
     1
 67
     7
176
     1
 79
     5
176
     1
170
     0
176
     1
171
     0
176
     1
290
     0
176
     1
 93
       13
176
     1
 44
0.0
176
     1
173
     0
176
     1
  0
VISUALSTYLE
  5
2E
102
{ACAD_REACTORS
330
2A
102
}
330
2A
100
AcDbVisualStyle
  2
GouraudWithEdges
 70
     3
177
     2
291
     1
 71
     2
176
     1
 72
     2
176
     1
 73
     1
176
     1
 90
        2
176
     1
 40
-0.6
176
     1
 41
30.0
176
     1
 62
     5
 63
     7
421
 16777215
176
     1
 74
     1
176
     1
 91
        4
176
     1
 64
     7
176
     1
 65
   257
176
     1
 75
     1
176
     1
175
     1
176
     1
 42
1.0
176
     1
 92
        0
176
     1
 66
   257
176
     1
 43
1.0
176
     1
 76
     1
176
     1
 77
     6
176
     1
 78
     2
176
     1
 67
     7
176
     1
 79
     5
176
     1
170
     0
176
     1
171
     0
176
     1
290
     0
176
     1
 93
       13
176
     1
 44
0.0
176
     1
173
     0
176
     1
  0
VISUALSTYLE
  5
38
102
{ACAD_REACTORS
330
2A
102
}
330
2A
100
AcDbVisualStyle
  2
Linepattern
 70
    14
177
     2
291
     1
 71
     2
176
     1
 72
     2
176
     1
 73
     0
176
     1
 90
        0
176
     1
 40
-0.6
176
     1
 41
-30.0
176
     1
 62
     5
 63
     7
421
 16777215
176
     1
 74
     1
176
     1
 91
        4
176
     1
 64
     7
176
     1
 65
   257
176
     1
 75
     7
176
     1
175
     7
176
     1
 42
1.0
176
     1
 92
        8
176
     1
 66
     7
176
     1
 43
1.0
176
     1
 76
     1
176
     1
 77
     6
176
     1
 78
     2
176
     1
 67
     7
176
     1
 79
     5
176
     1
170
     0
176
     1
171
     0
176
     1
290
     0
176
     1
 93
        1
176
     1
 44
0.0
176
     1
173
     0
176
     1
  0
VISUALSTYLE
  5
33
102
{ACAD_REACTORS
330
2A
102
}
330
2A
100
AcDbVisualStyle
  2
Realistic
 70
     8
177
     2
291
     0
 71
     2
176
     1
 72
     2
176
     1
 73
     0
176
     1
 90
        0
176
     1
 40
-0.6
176
     1
 41
-30.0
176
     1
 62
     5
 63
     7
421
 16777215
176
     1
 74
     1
176
     1
 91
        0
176
     1
 64
     7
176
     1
 65
   257
176
     1
 75
     1
176
     1
175
     1
176
     1
 42
1.0
176
     1
 92
        8
176
     1
 66
     8
424
  7895160
176
     1
 43
1.0
176
     1
 76
     1
176
     1
 77
     6
176
     1
 78
     2
176
     1
 67
     7
176
     1
 79
     5
176
     1
170
     0
176
     1
171
     0
176
     1
290
     0
176
     1
 93
       13
176
     1
 44
0.0
176
     1
173
     0
176
     1
  0
VISUALSTYLE
  5
37
102
{ACAD_REACTORS
330
2A
102
}
330
2A
100
AcDbVisualStyle
  2
Thicken
 70
    13
177
     2
291
     1
 71
     2
176
     1
 72
     2
176
     1
 73
     0
176
     1
 90
        0
176
     1
 40
-0.6
176
     1
 41
-30.0
176
     1
 62
     5
 63
     7
421
 16777215
176
     1
 74
     1
176
     1
 91
        4
176
     1
 64
     7
176
     1
 65
   257
176
     1
 75
     1
176
     1
175
     1
176
     1
 42
1.0
176
     1
 92
       12
176
     1
 66
     7
176
     1
 43
1.0
176
     1
 76
     1
176
     1
 77
     6
176
     1
 78
     2
176
     1
 67
     7
176
     1
 79
     5
176
     1
170
     0
176
     1
171
     0
176
     1
290
     0
176
     1
 93
        1
176
     1
 44
0.0
176
     1
173
     0
176
     1
  0
ENDSEC
  0
EOF
