  0
SECTION
  2
HEADER
  9
$ACADVER
  1
AC1024
  9
$ACADMAINTVER
 70
     6
  9
$DWGCODEPAGE
  3
UNDEFINED
  9
$INSBASE
 10
0.0
 20
0.0
 30
0.0
  9
$EXTMIN
 10
1.000000000000000E+20
 20
1.000000000000000E+20
 30
1.000000000000000E+20
  9
$EXTMAX
 10
-1.000000000000000E+20
 20
-1.000000000000000E+20
 30
-1.000000000000000E+20
  9
$LIMMIN
 10
0.0
 20
0.0
  9
$LIMMAX
 10
12.0
 20
9.0
  9
$ORTHOMODE
 70
     0
  9
$REGENMODE
 70
     1
  9
$FILLMODE
 70
     1
  9
$QTEXTMODE
 70
     0
  9
$MIRRTEXT
 70
     1
  9
$LTSCALE
 40
1.0
  9
$ATTMODE
 70
     1
  9
$TEXTSIZE
 40
0.2
  9
$TRACEWID
 40
0.05
  9
$TEXTSTYLE
  7
Standard
  9
$CLAYER
  8
0
  9
$CELTYPE
  6
ByLayer
  9
$CECOLOR
 62
   256
  9
$CELTSCALE
 40
1.0
  9
$DISPSILH
 70
     0
  9
$DIMSCALE
 40
1.0
  9
$DIMASZ
 40
0.18
  9
$DIMEXO
 40
0.0625
  9
$DIMDLI
 40
0.38
  9
$DIMRND
 40
0.0
  9
$DIMDLE
 40
0.0
  9
$DIMEXE
 40
0.18
  9
$DIMTP
 40
0.0
  9
$DIMTM
 40
0.0
  9
$DIMTXT
 40
0.18
  9
$DIMCEN
 40
0.09
  9
$DIMTSZ
 40
0.0
  9
$DIMTOL
 70
     0
  9
$DIMLIM
 70
     0
  9
$DIMTIH
 70
     1
  9
$DIMTOH
 70
     1
  9
$DIMSE1
 70
     0
  9
$DIMSE2
 70
     0
  9
$DIMTAD
 70
     0
  9
$DIMZIN
 70
     0
  9
$DIMBLK
  1

  9
$DIMASO
 70
     1
  9
$DIMSHO
 70
     1
  9
$DIMPOST
  1

  9
$DIMAPOST
  1

  9
$DIMALT
 70
     0
  9
$DIMALTD
 70
     2
  9
$DIMALTF
 40
25.4
  9
$DIMLFAC
 40
1.0
  9
$DIMTOFL
 70
     0
  9
$DIMTVP
 40
0.0
  9
$DIMTIX
 70
     0
  9
$DIMSOXD
 70
     0
  9
$DIMSAH
 70
     0
  9
$DIMBLK1
  1

  9
$DIMBLK2
  1

  9
$DIMSTYLE
  2
Standard
  9
$DIMCLRD
 70
     0
  9
$DIMCLRE
 70
     0
  9
$DIMCLRT
 70
     0
  9
$DIMTFAC
 40
1.0
  9
$DIMGAP
 40
0.09
  9
$DIMJUST
 70
     0
  9
$DIMSD1
 70
     0
  9
$DIMSD2
 70
     0
  9
$DIMTOLJ
 70
     1
  9
$DIMTZIN
 70
     0
  9
$DIMALTZ
 70
     0
  9
$DIMALTTZ
 70
     0
  9
$DIMUPT
 70
     0
  9
$DIMDEC
 70
     4
  9
$DIMTDEC
 70
     4
  9
$DIMALTU
 70
     2
  9
$DIMALTTD
 70
     2
  9
$DIMTXSTY
  7
Standard
  9
$DIMAUNIT
 70
     0
  9
$DIMADEC
 70
     0
  9
$DIMALTRND
 40
0.0
  9
$DIMAZIN
 70
     0
  9
$DIMDSEP
 70
    46
  9
$DIMATFIT
 70
     3
  9
$DIMFRAC
 70
     0
  9
$DIMLDRBLK
  1

  9
$DIMLUNIT
 70
     2
  9
$DIMLWD
 70
    -2
  9
$DIMLWE
 70
    -2
  9
$DIMTMOVE
 70
     0
  9
$DIMFXL
 40
1.0
  9
$DIMFXLON
 70
     0
  9
$DIMJOGANG
 40
0.7853981633974483
  9
$DIMTFILL
 70
     0
  9
$DIMTFILLCLR
 70
     0
  9
$DIMARCSYM
 70
     0
  9
$DIMLTYPE
  6

  9
$DIMLTEX1
  6

  9
$DIMLTEX2
  6

  9
$DIMTXTDIRECTION
 70
     0
  9
$LUNITS
 70
     2
  9
$LUPREC
 70
     4
  9
$SKETCHINC
 40
0.1
  9
$FILLETRAD
 40
0.5
  9
$AUNITS
 70
     0
  9
$AUPREC
 70
     0
  9
$MENU
  1
.
  9
$ELEVATION
 40
0.0
  9
$PELEVATION
 40
0.0
  9
$THICKNESS
 40
0.0
  9
$LIMCHECK
 70
     0
  9
$CHAMFERA
 40
0.5
  9
$CHAMFERB
 40
0.5
  9
$CHAMFERC
 40
1.0
  9
$CHAMFERD
 40
0.0
  9
$SKPOLY
 70
     0
  9
$TDCREATE
 40
2457525.606354155
  9
$TDUCREATE
 40
2457525.8146875
  9
$TDUPDATE
 40
2457525.606354155
  9
$TDUUPDATE
 40
2457525.8146875
  9
$TDINDWG
 40
0.0000000116
  9
$TDUSRTIMER
 40
0.0000000116
  9
$USRTIMER
 70
     1
  9
$ANGBASE
 50
0.0
  9
$ANGDIR
 70
     0
  9
$PDMODE
 70
     0
  9
$PDSIZE
 40
0.0
  9
$PLINEWID
 40
0.0
  9
$SPLFRAME
 70
     0
  9
$SPLINETYPE
 70
     6
  9
$SPLINESEGS
 70
     8
  9
$HANDSEED
  5
8E
  9
$SURFTAB1
 70
     6
  9
$SURFTAB2
 70
     6
  9
$SURFTYPE
 70
     6
  9
$SURFU
 70
     6
  9
$SURFV
 70
     6
  9
$UCSBASE
  2

  9
$UCSNAME
  2

  9
$UCSORG
 10
0.0
 20
0.0
 30
0.0
  9
$UCSXDIR
 10
1.0
 20
0.0
 30
0.0
  9
$UCSYDIR
 10
0.0
 20
1.0
 30
0.0
  9
$UCSORTHOREF
  2

  9
$UCSORTHOVIEW
 70
     0
  9
$UCSORGTOP
 10
0.0
 20
0.0
 30
0.0
  9
$UCSORGBOTTOM
 10
0.0
 20
0.0
 30
0.0
  9
$UCSORGLEFT
 10
0.0
 20
0.0
 30
0.0
  9
$UCSORGRIGHT
 10
0.0
 20
0.0
 30
0.0
  9
$UCSORGFRONT
 10
0.0
 20
0.0
 30
0.0
  9
$UCSORGBACK
 10
0.0
 20
0.0
 30
0.0
  9
$PUCSBASE
  2

  9
$PUCSNAME
  2

  9
$PUCSORG
 10
0.0
 20
0.0
 30
0.0
  9
$PUCSXDIR
 10
1.0
 20
0.0
 30
0.0
  9
$PUCSYDIR
 10
0.0
 20
1.0
 30
0.0
  9
$PUCSORTHOREF
  2

  9
$PUCSORTHOVIEW
 70
     0
  9
$PUCSORGTOP
 10
0.0
 20
0.0
 30
0.0
  9
$PUCSORGBOTTOM
 10
0.0
 20
0.0
 30
0.0
  9
$PUCSORGLEFT
 10
0.0
 20
0.0
 30
0.0
  9
$PUCSORGRIGHT
 10
0.0
 20
0.0
 30
0.0
  9
$PUCSORGFRONT
 10
0.0
 20
0.0
 30
0.0
  9
$PUCSORGBACK
 10
0.0
 20
0.0
 30
0.0
  9
$USERI1
 70
     0
  9
$USERI2
 70
     0
  9
$USERI3
 70
     0
  9
$USERI4
 70
     0
  9
$USERI5
 70
     0
  9
$USERR1
 40
0.0
  9
$USERR2
 40
0.0
  9
$USERR3
 40
0.0
  9
$USERR4
 40
0.0
  9
$USERR5
 40
0.0
  9
$WORLDVIEW
 70
     1
  9
$SHADEDGE
 70
     3
  9
$SHADEDIF
 70
    70
  9
$TILEMODE
 70
     1
  9
$MAXACTVP
 70
    64
  9
$PINSBASE
 10
0.0
 20
0.0
 30
0.0
  9
$PLIMCHECK
 70
     0
  9
$PEXTMIN
 10
1.000000000000000E+20
 20
1.000000000000000E+20
 30
1.000000000000000E+20
  9
$PEXTMAX
 10
-1.000000000000000E+20
 20
-1.000000000000000E+20
 30
-1.000000000000000E+20
  9
$PLIMMIN
 10
0.0
 20
0.0
  9
$PLIMMAX
 10
12.0
 20
9.0
  9
$UNITMODE
 70
     0
  9
$VISRETAIN
 70
     1
  9
$PLINEGEN
 70
     0
  9
$PSLTSCALE
 70
     1
  9
$TREEDEPTH
 70
  3020
  9
$CMLSTYLE
  2
Standard
  9
$CMLJUST
 70
     0
  9
$CMLSCALE
 40
1.0
  9
$PROXYGRAPHICS
 70
     1
  9
$MEASUREMENT
 70
     0
  9
$CELWEIGHT
370
    -1
  9
$ENDCAPS
280
     0
  9
$JOINSTYLE
280
     0
  9
$LWDISPLAY
290
     1
  9
$INSUNITS
 70
     1
  9
$HYPERLINKBASE
  1

  9
$STYLESHEET
  1

  9
$XEDIT
290
     1
  9
$CEPSNTYPE
380
     0
  9
$PSTYLEMODE
290
     1
  9
$FINGERPRINTGUID
  2
{31A10395-867E-F56E-E576-2C046ED7D40F}
  9
$VERSIONGUID
  2
{FAEB1C32-E019-11D5-929B-00C0DF256EC4}
  9
$EXTNAMES
290
     1
  9
$PSVPSCALE
 40
0.0
  9
$OLESTARTUP
290
     0
  9
$SORTENTS
280
   127
  9
$INDEXCTL
280
     0
  9
$HIDETEXT
280
     1
  9
$XCLIPFRAME
280
     2
  9
$HALOGAP
280
     0
  9
$OBSCOLOR
 70
   257
  9
$OBSLTYPE
280
     0
  9
$INTERSECTIONDISPLAY
280
     0
  9
$INTERSECTIONCOLOR
 70
   257
  9
$DIMASSOC
280
     2
  9
$PROJECTNAME
  1

  9
$CAMERADISPLAY
290
     0
  9
$LENSLENGTH
 40
50.0
  9
$CAMERAHEIGHT
 40
0.0
  9
$STEPSPERSEC
 40
2.0
  9
$STEPSIZE
 40
6.0
  9
$3DDWFPREC
 40
2.0
  9
$PSOLWIDTH
 40
0.25
  9
$PSOLHEIGHT
 40
4.0
  9
$LOFTANG1
 40
1.570796326794897
  9
$LOFTANG2
 40
1.570796326794897
  9
$LOFTMAG1
 40
0.0
  9
$LOFTMAG2
 40
0.0
  9
$LOFTPARAM
 70
     7
  9
$LOFTNORMALS
280
     1
  9
$LATITUDE
 40
37.795
  9
$LONGITUDE
 40
-122.394
  9
$NORTHDIRECTION
 40
0.0
  9
$TIMEZONE
 70
 -8000
  9
$LIGHTGLYPHDISPLAY
280
     1
  9
$TILEMODELIGHTSYNCH
280
     1
  9
$CMATERIAL
347
3C
  9
$SOLIDHIST
280
     1
  9
$SHOWHIST
280
     1
  9
$DWFFRAME
280
     2
  9
$DGNFRAME
280
     2
  9
$REALWORLDSCALE
290
     1
  9
$INTERFERECOLOR
 62
   256
  9
$CSHADOW
280
     0
  9
$SHADOWPLANELOCATION
 40
0.0
  0
ENDSEC
  0
SECTION
  2
CLASSES
  0
CLASS
  1
ACDBDICTIONARYWDFLT
  2
AcDbDictionaryWithDefault
  3
ObjectDBX Classes
 90
        0
 91
        4
280
     0
281
     0
  0
CLASS
  1
VISUALSTYLE
  2
AcDbVisualStyle
  3
ObjectDBX Classes
 90
     4095
 91
        4
280
     0
281
     0
  0
CLASS
  1
MATERIAL
  2
AcDbMaterial
  3
ObjectDBX Classes
 90
     1153
 91
        4
280
     0
281
     0
  0
CLASS
  1
SUN
  2
AcDbSun
  3
SCENEOE
 90
     1024
 91
        4
280
     0
281
     0
  0
ENDSEC
  0
SECTION
  2
TABLES
  0
TABLE
  2
VPORT
  5
8
330
0
100
AcDbSymbolTable
 70
     1
  0
VPORT
  5
29
330
8
100
AcDbSymbolTableRecord
100
AcDbViewportTableRecord
  2
*Active
 70
     0
 10
0.0
 20
0.0
 11
1.0
 21
1.0
 12
0.0
 22
0.0
 13
0.0
 23
0.0
 14
0.5
 24
0.5
 15
0.5
 25
0.5
 16
0.0
 26
0.0
 36
1.0
 17
50.0
 27
62.5
 37
0.0
 40
125.0
 41
0.8
 42
50.0
 43
0.0
 44
0.0
 50
0.0
 51
0.0
 71
     0
 72
   100
 73
     1
 74
     3
 75
     0
 76
     0
 77
     0
 78
     0
281
     0
 65
     1
110
0.0
120
0.0
130
0.0
111
1.0
121
0.0
131
0.0
112
0.0
122
1.0
132
0.0
 79
     0
146
0.0
 60
     3
 61
     5
292
     1
282
     1
141
0.0
142
0.0
 63
   250
361
3F
  0
ENDTAB
  0
TABLE
  2
LTYPE
  5
5
330
0
100
AcDbSymbolTable
 70
     1
  0
LTYPE
  5
14
330
5
100
AcDbSymbolTableRecord
100
AcDbLinetypeTableRecord
  2
ByBlock
 70
     0
  3

 72
    65
 73
     0
 40
0.0
  0
LTYPE
  5
15
330
5
100
AcDbSymbolTableRecord
100
AcDbLinetypeTableRecord
  2
ByLayer
 70
     0
  3

 72
    65
 73
     0
 40
0.0
  0
LTYPE
  5
16
330
5
100
AcDbSymbolTableRecord
100
AcDbLinetypeTableRecord
  2
Continuous
 70
     0
  3
Solid line
 72
    65
 73
     0
 40
0.0
  0
ENDTAB
  0
TABLE
  2
LAYER
  5
2
330
0
100
AcDbSymbolTable
 70
     2
  0
LAYER
  5
10
330
2
100
AcDbSymbolTableRecord
100
AcDbLayerTableRecord
  2
0
 70
     0
 62
     7
  6
Continuous
370
    -3
390
F
347
3E
  0
LAYER
  5
40
330
2
100
AcDbSymbolTableRecord
100
AcDbLayerTableRecord
  2
Layer 1
 70
     0
 62
     7
  6
Continuous
370
    -3
390
F
347
3E
  0
ENDTAB
  0
TABLE
  2
STYLE
  5
3
330
0
100
AcDbSymbolTable
 70
     1
  0
STYLE
  5
11
330
3
100
AcDbSymbolTableRecord
100
AcDbTextStyleTableRecord
  2
Standard
 70
     0
 40
0.0
 41
1.0
 50
0.0
 71
     0
 42
0.2
  3
txt
  4

  0
ENDTAB
  0
TABLE
  2
VIEW
  5
6
330
0
100
AcDbSymbolTable
 70
     0
  0
ENDTAB
  0
TABLE
  2
UCS
  5
7
330
0
100
AcDbSymbolTable
 70
     0
  0
ENDTAB
  0
TABLE
  2
APPID
  5
9
330
0
100
AcDbSymbolTable
 70
     1
  0
APPID
  5
12
330
9
100
AcDbSymbolTableRecord
100
AcDbRegAppTableRecord
  2
ACAD
 70
     0
  0
ENDTAB
  0
TABLE
  2
DIMSTYLE
  5
A
330
0
100
AcDbSymbolTable
 70
     1
100
AcDbDimStyleTable
  0
DIMSTYLE
105
27
330
A
100
AcDbSymbolTableRecord
100
AcDbDimStyleTableRecord
  2
Standard
 70
     0
178
     0
340
11
  0
ENDTAB
  0
TABLE
  2
BLOCK_RECORD
  5
1
330
0
100
AcDbSymbolTable
 70
     1
  0
BLOCK_RECORD
  5
1F
330
1
100
AcDbSymbolTableRecord
100
AcDbBlockTableRecord
  2
*Model_Space
340
22
 70
     0
280
     1
281
     0
  0
BLOCK_RECORD
  5
1B
330
1
100
AcDbSymbolTableRecord
100
AcDbBlockTableRecord
  2
*Paper_Space
340
1E
 70
     0
280
     1
281
     0
  0
BLOCK_RECORD
  5
23
330
1
100
AcDbSymbolTableRecord
100
AcDbBlockTableRecord
  2
*Paper_Space0
340
26
 70
     0
280
     1
281
     0
  0
ENDTAB
  0
ENDSEC
  0
SECTION
  2
BLOCKS
  0
BLOCK
  5
20
330
1F
100
AcDbEntity
  8
0
100
AcDbBlockBegin
  2
*Model_Space
 70
     0
 10
0.0
 20
0.0
 30
0.0
  3
*Model_Space
  1

  0
ENDBLK
  5
21
330
1F
100
AcDbEntity
  8
0
100
AcDbBlockEnd
  0
BLOCK
  5
1C
330
1B
100
AcDbEntity
 67
     1
  8
0
100
AcDbBlockBegin
  2
*Paper_Space
 70
     0
 10
0.0
 20
0.0
 30
0.0
  3
*Paper_Space
  1

  0
ENDBLK
  5
1D
330
1B
100
AcDbEntity
 67
     1
  8
0
100
AcDbBlockEnd
  0
BLOCK
  5
24
330
23
100
AcDbEntity
  8
0
100
AcDbBlockBegin
  2
*Paper_Space0
 70
     0
 10
0.0
 20
0.0
 30
0.0
  3
*Paper_Space0
  1

  0
ENDBLK
  5
25
330
23
100
AcDbEntity
  8
0
100
AcDbBlockEnd
  0
ENDSEC
  0
SECTION
  2
ENTITIES
  0
SPLINE
  5
41
330
1F
100
AcDbEntity
  8
Layer 1
370
     0
100
AcDbSpline
210
0.0
220
0.0
230
1.0
 70
    11
 71
     3
 72
   221
 73
   217
 74
     0
 42
0.0000000001
 43
0.0000000001
 12
1.0
 22
0.0
 32
0.0
 13
1.0
 23
0.0
 33
0.0
 40
0.0
 40
0.0
 40
0.0
 40
0.0
 40
1.0
 40
1.0
 40
1.0
 40
2.0
 40
2.0
 40
2.0
 40
3.0
 40
3.0
 40
3.0
 40
4.0
 40
4.0
 40
4.0
 40
5.0
 40
5.0
 40
5.0
 40
6.0
 40
6.0
 40
6.0
 40
7.0
 40
7.0
 40
7.0
 40
8.0
 40
8.0
 40
8.0
 40
9.0
 40
9.0
 40
9.0
 40
10.0
 40
10.0
 40
10.0
 40
11.0
 40
11.0
 40
11.0
 40
12.0
 40
12.0
 40
12.0
 40
13.0
 40
13.0
 40
13.0
 40
14.0
 40
14.0
 40
14.0
 40
15.0
 40
15.0
 40
15.0
 40
16.0
 40
16.0
 40
16.0
 40
17.0
 40
17.0
 40
17.0
 40
18.0
 40
18.0
 40
18.0
 40
19.0
 40
19.0
 40
19.0
 40
20.0
 40
20.0
 40
20.0
 40
21.0
 40
21.0
 40
21.0
 40
22.0
 40
22.0
 40
22.0
 40
23.0
 40
23.0
 40
23.0
 40
24.0
 40
24.0
 40
24.0
 40
25.0
 40
25.0
 40
25.0
 40
26.0
 40
26.0
 40
26.0
 40
27.0
 40
27.0
 40
27.0
 40
28.0
 40
28.0
 40
28.0
 40
29.0
 40
29.0
 40
29.0
 40
30.0
 40
30.0
 40
30.0
 40
31.0
 40
31.0
 40
31.0
 40
32.0
 40
32.0
 40
32.0
 40
33.0
 40
33.0
 40
33.0
 40
34.0
 40
34.0
 40
34.0
 40
35.0
 40
35.0
 40
35.0
 40
36.0
 40
36.0
 40
36.0
 40
37.0
 40
37.0
 40
37.0
 40
38.0
 40
38.0
 40
38.0
 40
39.0
 40
39.0
 40
39.0
 40
40.0
 40
40.0
 40
40.0
 40
41.0
 40
41.0
 40
41.0
 40
42.0
 40
42.0
 40
42.0
 40
43.0
 40
43.0
 40
43.0
 40
44.0
 40
44.0
 40
44.0
 40
45.0
 40
45.0
 40
45.0
 40
46.0
 40
46.0
 40
46.0
 40
47.0
 40
47.0
 40
47.0
 40
48.0
 40
48.0
 40
48.0
 40
49.0
 40
49.0
 40
49.0
 40
50.0
 40
50.0
 40
50.0
 40
51.0
 40
51.0
 40
51.0
 40
52.0
 40
52.0
 40
52.0
 40
53.0
 40
53.0
 40
53.0
 40
54.0
 40
54.0
 40
54.0
 40
55.0
 40
55.0
 40
55.0
 40
56.0
 40
56.0
 40
56.0
 40
57.0
 40
57.0
 40
57.0
 40
58.0
 40
58.0
 40
58.0
 40
59.0
 40
59.0
 40
59.0
 40
60.0
 40
60.0
 40
60.0
 40
61.0
 40
61.0
 40
61.0
 40
62.0
 40
62.0
 40
62.0
 40
63.0
 40
63.0
 40
63.0
 40
64.0
 40
64.0
 40
64.0
 40
65.0
 40
65.0
 40
65.0
 40
66.0
 40
66.0
 40
66.0
 40
67.0
 40
67.0
 40
67.0
 40
68.0
 40
68.0
 40
68.0
 40
69.0
 40
69.0
 40
69.0
 40
70.0
 40
70.0
 40
70.0
 40
71.0
 40
71.0
 40
71.0
 40
72.0
 40
72.0
 40
72.0
 40
72.0
 10
71.86799621582031
 20
80.32400131225586
 30
0.0
 10
71.86799621582031
 20
80.32400131225586
 30
0.0
 10
69.17699432373047
 20
86.75
 30
0.0
 10
69.17699432373047
 20
86.75
 30
0.0
 10
69.03899383544922
 20
87.07799911499023
 30
0.0
 10
68.68299102783203
 20
87.25199890136719
 30
0.0
 10
68.33399200439453
 20
87.15900039672852
 30
0.0
 10
68.33399200439453
 20
87.15900039672852
 30
0.0
 10
62.42299270629883
 20
85.52299880981445
 30
0.0
 10
62.42299270629883
 20
85.52299880981445
 30
0.0
 10
62.42299270629883
 20
85.52299880981445
 30
0.0
 10
62.28799438476562
 20
89.82799911499023
 30
0.0
 10
62.28799438476562
 20
89.82799911499023
 30
0.0
 10
62.28799438476562
 20
89.82799911499023
 30
0.0
 10
63.58899307250977
 20
105.0849990844727
 30
0.0
 10
63.58899307250977
 20
105.0849990844727
 30
0.0
 10
63.59299468994141
 20
105.1279983520508
 30
0.0
 10
63.5779914855957
 20
105.1669998168945
 30
0.0
 10
63.57399368286133
 20
105.2089996337891
 30
0.0
 10
63.57099533081055
 20
105.242000579834
 30
0.0
 10
63.57099533081055
 20
105.2719993591309
 30
0.0
 10
63.56299209594727
 20
105.3050003051758
 30
0.0
 10
63.53699111938477
 20
105.4169998168945
 30
0.0
 10
63.49199295043945
 20
105.5219993591309
 30
0.0
 10
63.4169921875
 20
105.6070003509521
 30
0.0
 10
63.41599273681641
 20
105.6079998016357
 30
0.0
 10
63.41599273681641
 20
105.6100006103516
 30
0.0
 10
63.41499328613281
 20
105.6110000610352
 30
0.0
 10
63.41499328613281
 20
105.6110000610352
 30
0.0
 10
51.90900039672852
 20
118.7740001678467
 30
0.0
 10
51.90900039672852
 20
118.7740001678467
 30
0.0
 10
51.69699859619141
 20
119.0170001983643
 30
0.0
 10
51.34700012207031
 20
119.085000038147
 30
0.0
 10
51.05900192260742
 20
118.9420003890991
 30
0.0
 10
51.05900192260742
 20
118.9420003890991
 30
0.0
 10
39.55300140380859
 20
113.2000007629395
 30
0.0
 10
39.55300140380859
 20
113.2000007629395
 30
0.0
 10
39.28700256347656
 20
113.0670003890991
 30
0.0
 10
39.13199996948242
 20
112.7830009460449
 30
0.0
 10
39.16500091552734
 20
112.4870004653931
 30
0.0
 10
39.16500091552734
 20
112.4870004653931
 30
0.0
 10
39.35400009155273
 20
110.7900009155273
 30
0.0
 10
39.35400009155273
 20
110.7900009155273
 30
0.0
 10
39.35400009155273
 20
110.7900009155273
 30
0.0
 10
29.64299964904785
 20
107.2280006408691
 30
0.0
 10
29.64299964904785
 20
107.2280006408691
 30
0.0
 10
29.35599899291992
 20
107.1230010986328
 30
0.0
 10
29.16899871826172
 20
106.8460006713867
 30
0.0
 10
29.17899894714355
 20
106.5400009155273
 30
0.0
 10
29.17899894714355
 20
106.5400009155273
 30
0.0
 10
29.25399971008301
 20
104.1020011901855
 30
0.0
 10
29.25399971008301
 20
104.1020011901855
 30
0.0
 10
29.26499938964844
 20
103.7410011291504
 30
0.0
 10
29.54599952697754
 20
103.4460010528564
 30
0.0
 10
29.9060001373291
 20
103.4170017242432
 30
0.0
 10
29.9060001373291
 20
103.4170017242432
 30
0.0
 10
40.26699829101562
 20
102.5930023193359
 30
0.0
 10
40.26699829101562
 20
102.5930023193359
 30
0.0
 10
40.26699829101562
 20
102.5930023193359
 30
0.0
 10
40.29399871826172
 20
102.3530025482178
 30
0.0
 10
40.29399871826172
 20
102.3530025482178
 30
0.0
 10
40.31499862670898
 20
102.165002822876
 30
0.0
 10
40.40999984741211
 20
101.9930019378662
 30
0.0
 10
40.55899810791016
 20
101.8750019073486
 30
0.0
 10
40.68399810791016
 20
101.7760009765625
 30
0.0
 10
40.83899688720703
 20
101.7230014801025
 30
0.0
 10
40.99799728393555
 20
101.7230014801025
 30
0.0
 10
41.02699661254883
 20
101.7230014801025
 30
0.0
 10
41.05599594116211
 20
101.7240009307861
 30
0.0
 10
41.08499908447266
 20
101.7280006408691
 30
0.0
 10
41.08499908447266
 20
101.7280006408691
 30
0.0
 10
48.56599807739258
 20
102.6560001373291
 30
0.0
 10
48.56599807739258
 20
102.6560001373291
 30
0.0
 10
48.56599807739258
 20
102.6560001373291
 30
0.0
 10
47.05599975585938
 20
95.80500030517578
 30
0.0
 10
47.05599975585938
 20
95.80500030517578
 30
0.0
 10
47.05599975585938
 20
95.80500030517578
 30
0.0
 10
41.06000137329102
 20
86.86999893188477
 30
0.0
 10
41.06000137329102
 20
86.86999893188477
 30
0.0
 10
41.05599975585938
 20
86.86299896240234
 30
0.0
 10
41.05400085449219
 20
86.85499954223633
 30
0.0
 10
41.05000305175781
 20
86.8479995727539
 30
0.0
 10
41.03700256347656
 20
86.82799911499023
 30
0.0
 10
41.03000259399414
 20
86.80599975585938
 30
0.0
 10
41.02000427246094
 20
86.78400039672852
 30
0.0
 10
40.99300384521484
 20
86.72900009155273
 30
0.0
 10
40.97200393676758
 20
86.67399978637695
 30
0.0
 10
40.96000289916992
 20
86.6150016784668
 30
0.0
 10
40.95400238037109
 20
86.5890007019043
 30
0.0
 10
40.95100402832031
 20
86.5620002746582
 30
0.0
 10
40.94900131225586
 20
86.53499984741211
 30
0.0
 10
40.94400024414062
 20
86.47100067138672
 30
0.0
 10
40.94800186157227
 20
86.40800094604492
 30
0.0
 10
40.96000289916992
 20
86.34500122070312
 30
0.0
 10
40.9630012512207
 20
86.3290023803711
 30
0.0
 10
40.95900344848633
 20
86.31400299072266
 30
0.0
 10
40.96200180053711
 20
86.29800033569336
 30
0.0
 10
40.96200180053711
 20
86.29800033569336
 30
0.0
 10
49.5150032043457
 20
53.30300140380859
 30
0.0
 10
49.5150032043457
 20
53.30300140380859
 30
0.0
 10
49.5150032043457
 20
53.30300140380859
 30
0.0
 10
46.83800506591797
 20
44.12899780273438
 30
0.0
 10
46.83800506591797
 20
44.12899780273438
 30
0.0
 10
46.83800506591797
 20
44.12899780273438
 30
0.0
 10
39.38100433349609
 20
37.86399841308594
 30
0.0
 10
39.38100433349609
 20
37.86399841308594
 30
0.0
 10
39.38100433349609
 20
37.86399841308594
 30
0.0
 10
33.22000503540039
 20
39.26899719238281
 30
0.0
 10
33.22000503540039
 20
39.26899719238281
 30
0.0
 10
33.22000503540039
 20
39.26899719238281
 30
0.0
 10
29.27300453186035
 20
43.04899597167969
 30
0.0
 10
29.27300453186035
 20
43.04899597167969
 30
0.0
 10
29.03500366210938
 20
43.27699279785156
 30
0.0
 10
28.67100524902344
 20
43.30999755859375
 30
0.0
 10
28.39700508117676
 20
43.13199615478516
 30
0.0
 10
28.12100601196289
 20
42.95199584960938
 30
0.0
 10
28.0050048828125
 20
42.60699462890625
 30
0.0
 10
28.11600494384766
 20
42.2969970703125
 30
0.0
 10
28.11600494384766
 20
42.2969970703125
 30
0.0
 10
30.60500526428223
 20
35.375
 30
0.0
 10
30.60500526428223
 20
35.375
 30
0.0
 10
30.61000442504883
 20
35.36100006103516
 30
0.0
 10
30.62000465393066
 20
35.35199737548828
 30
0.0
 10
30.6250057220459
 20
35.33899688720703
 30
0.0
 10
30.63600540161133
 20
35.31299591064453
 30
0.0
 10
30.65100479125977
 20
35.28999328613281
 30
0.0
 10
30.66500663757324
 20
35.26599884033203
 30
0.0
 10
30.68300628662109
 20
35.23500061035156
 30
0.0
 10
30.69700622558594
 20
35.20199584960938
 30
0.0
 10
30.72000694274902
 20
35.17299652099609
 30
0.0
 10
30.72600746154785
 20
35.16599273681641
 30
0.0
 10
30.73400688171387
 20
35.16099548339844
 30
0.0
 10
30.74100685119629
 20
35.15399932861328
 30
0.0
 10
30.7490062713623
 20
35.14399719238281
 30
0.0
 10
30.76000595092773
 20
35.13600158691406
 30
0.0
 10
30.76800727844238
 20
35.12799835205078
 30
0.0
 10
30.78700637817383
 20
35.10800170898438
 30
0.0
 10
30.80600738525391
 20
35.08999633789062
 30
0.0
 10
30.82700729370117
 20
35.07199859619141
 30
0.0
 10
30.85600662231445
 20
35.04899597167969
 30
0.0
 10
30.88500785827637
 20
35.02700042724609
 30
0.0
 10
30.91700744628906
 20
35.00899505615234
 30
0.0
 10
30.9260082244873
 20
35.00399780273438
 30
0.0
 10
30.93100738525391
 20
34.9949951171875
 30
0.0
 10
30.94000816345215
 20
34.98999786376953
 30
0.0
 10
30.95000839233398
 20
34.98400115966797
 30
0.0
 10
30.96200752258301
 20
34.98699951171875
 30
0.0
 10
30.97200775146484
 20
34.98199462890625
 30
0.0
 10
30.98300743103027
 20
34.97599792480469
 30
0.0
 10
30.9940071105957
 20
34.96999359130859
 30
0.0
 10
31.00600814819336
 20
34.96499633789062
 30
0.0
 10
31.01700782775879
 20
34.95999908447266
 30
0.0
 10
31.0250072479248
 20
34.94999694824219
 30
0.0
 10
31.03700828552246
 20
34.94599914550781
 30
0.0
 10
31.03700828552246
 20
34.94599914550781
 30
0.0
 10
42.14300918579102
 20
31.01999664306641
 30
0.0
 10
42.14300918579102
 20
31.01999664306641
 30
0.0
 10
42.22100830078125
 20
30.99299621582031
 30
0.0
 10
42.30101013183594
 20
30.97899627685547
 30
0.0
 10
42.37900924682617
 20
30.97899627685547
 30
0.0
 10
42.37900924682617
 20
30.97899627685547
 30
0.0
 10
42.37900924682617
 20
30.97899627685547
 30
0.0
 10
42.37900924682617
 20
30.97899627685547
 30
0.0
 10
42.37900924682617
 20
30.97899627685547
 30
0.0
 10
42.37900924682617
 20
30.97899627685547
 30
0.0
 10
42.37900924682617
 20
30.97899627685547
 30
0.0
 10
42.37900924682617
 20
30.97899627685547
 30
0.0
 10
42.37900924682617
 20
30.97899627685547
 30
0.0
 10
42.38000869750977
 20
30.97899627685547
 30
0.0
 10
42.48200988769531
 20
30.97899627685547
 30
0.0
 10
42.57901000976562
 20
31.00799560546875
 30
0.0
 10
42.67000961303711
 20
31.04999542236328
 30
0.0
 10
42.68201065063477
 20
31.05499267578125
 30
0.0
 10
42.69400787353516
 20
31.05299377441406
 30
0.0
 10
42.70600891113281
 20
31.05899810791016
 30
0.0
 10
42.70600891113281
 20
31.05899810791016
 30
0.0
 10
55.99200820922852
 20
37.97999572753906
 30
0.0
 10
55.99200820922852
 20
37.97999572753906
 30
0.0
 10
55.99900817871094
 20
37.98399353027344
 30
0.0
 10
56.00500869750977
 20
37.98699951171875
 30
0.0
 10
56.01100921630859
 20
37.99099731445312
 30
0.0
 10
56.16400909423828
 20
38.07599639892578
 30
0.0
 10
56.27400970458984
 20
38.20999908447266
 30
0.0
 10
56.33100891113281
 20
38.36199951171875
 30
0.0
 10
56.33100891113281
 20
38.36199951171875
 30
0.0
 10
63.26300811767578
 20
56.67500305175781
 30
0.0
 10
63.26300811767578
 20
56.67500305175781
 30
0.0
 10
63.26600646972656
 20
56.68400573730469
 30
0.0
 10
63.26400756835938
 20
56.69200134277344
 30
0.0
 10
63.26700973510742
 20
56.70000457763672
 30
0.0
 10
63.29000854492188
 20
56.76700592041016
 30
0.0
 10
63.30001068115234
 20
56.83800506591797
 30
0.0
 10
63.30200958251953
 20
56.91200256347656
 30
0.0
 10
63.30200958251953
 20
56.92800140380859
 30
0.0
 10
63.30801010131836
 20
56.94200134277344
 30
0.0
 10
63.30701065063477
 20
56.95800018310547
 30
0.0
 10
63.30701065063477
 20
56.95999908447266
 30
0.0
 10
63.30801010131836
 20
56.96199798583984
 30
0.0
 10
63.30801010131836
 20
56.96399688720703
 30
0.0
 10
63.30801010131836
 20
56.96399688720703
 30
0.0
 10
62.67100143432617
 20
68.93999862670898
 30
0.0
 10
62.67100143432617
 20
68.93999862670898
 30
0.0
 10
62.66699981689453
 20
69.00799942016602
 30
0.0
 10
62.64300155639648
 20
69.06799697875977
 30
0.0
 10
62.62000274658203
 20
69.12799835205078
 30
0.0
 10
62.62000274658203
 20
69.12799835205078
 30
0.0
 10
65.34000396728516
 20
69.24199676513672
 30
0.0
 10
65.34000396728516
 20
69.24199676513672
 30
0.0
 10
65.58100128173828
 20
69.25199508666992
 30
0.0
 10
65.8010025024414
 20
69.3849983215332
 30
0.0
 10
65.92200469970703
 20
69.59299850463867
 30
0.0
 10
65.92200469970703
 20
69.59299850463867
 30
0.0
 10
71.82600402832031
 20
79.69099807739258
 30
0.0
 10
71.82600402832031
 20
79.69099807739258
 30
0.0
 10
71.93900299072266
 20
79.88399887084961
 30
0.0
 10
71.9540023803711
 20
80.11800003051758
 30
0.0
 10
71.86799621582031
 20
80.32400131225586
 30
0.0
  0
SPLINE
  5
42
330
1F
100
AcDbEntity
  8
Layer 1
370
     0
100
AcDbSpline
210
0.0
220
0.0
230
1.0
 70
    11
 71
     3
 72
    29
 73
    25
 74
     0
 42
0.0000000001
 43
0.0000000001
 12
1.0
 22
0.0
 32
0.0
 13
1.0
 23
0.0
 33
0.0
 40
0.0
 40
0.0
 40
0.0
 40
0.0
 40
1.0
 40
1.0
 40
1.0
 40
2.0
 40
2.0
 40
2.0
 40
3.0
 40
3.0
 40
3.0
 40
4.0
 40
4.0
 40
4.0
 40
5.0
 40
5.0
 40
5.0
 40
6.0
 40
6.0
 40
6.0
 40
7.0
 40
7.0
 40
7.0
 40
8.0
 40
8.0
 40
8.0
 40
8.0
 10
50.75600051879883
 20
54.17500305175781
 30
0.0
 10
50.75600051879883
 20
54.17500305175781
 30
0.0
 10
42.51200103759766
 20
85.97999954223633
 30
0.0
 10
42.51200103759766
 20
85.97999954223633
 30
0.0
 10
42.51200103759766
 20
85.97999954223633
 30
0.0
 10
53.43500137329102
 20
89.01300048828125
 30
0.0
 10
53.43500137329102
 20
89.01300048828125
 30
0.0
 10
53.43500137329102
 20
89.01300048828125
 30
0.0
 10
56.46599960327148
 20
83.14500045776367
 30
0.0
 10
56.46599960327148
 20
83.14500045776367
 30
0.0
 10
56.46599960327148
 20
83.14500045776367
 30
0.0
 10
57.11800003051758
 20
69.60700225830078
 30
0.0
 10
57.11800003051758
 20
69.60700225830078
 30
0.0
 10
57.11800003051758
 20
69.60700225830078
 30
0.0
 10
57.11800003051758
 20
69.60700225830078
 30
0.0
 10
57.11800003051758
 20
69.60700225830078
 30
0.0
 10
57.11800003051758
 20
69.60700225830078
 30
0.0
 10
57.11800003051758
 20
69.60700225830078
 30
0.0
 10
57.11800003051758
 20
69.60700225830078
 30
0.0
 10
57.11800003051758
 20
69.60700225830078
 30
0.0
 10
57.76399993896484
 20
56.19200134277344
 30
0.0
 10
57.76399993896484
 20
56.19200134277344
 30
0.0
 10
57.76399993896484
 20
56.19200134277344
 30
0.0
 10
50.75600051879883
 20
54.17500305175781
 30
0.0
 10
50.75600051879883
 20
54.17500305175781
 30
0.0
  0
POLYLINE
  5
43
330
1F
100
AcDbEntity
  8
Layer 1
370
     0
100
AcDb2dPolyline
 66
     1
 10
0.0
 20
0.0
 30
0.0
  0
VERTEX
  5
44
330
43
100
AcDbEntity
  8
Layer 1
370
     0
100
AcDbVertex
100
AcDb2dVertex
 10
57.53200149536133
 20
84.16999816894531
 30
0.0
  0
VERTEX
  5
45
330
43
100
AcDbEntity
  8
Layer 1
370
     0
100
AcDbVertex
100
AcDb2dVertex
 10
54.83100128173828
 20
89.39999771118164
 30
0.0
  0
VERTEX
  5
46
330
43
100
AcDbEntity
  8
Layer 1
370
     0
100
AcDbVertex
100
AcDb2dVertex
 10
58.3910026550293
 20
90.38899612426758
 30
0.0
  0
VERTEX
  5
47
330
43
100
AcDbEntity
  8
Layer 1
370
     0
100
AcDbVertex
100
AcDb2dVertex
 10
60.88500213623047
 20
89.36799621582031
 30
0.0
  0
VERTEX
  5
48
330
43
100
AcDbEntity
  8
Layer 1
370
     0
100
AcDbVertex
100
AcDb2dVertex
 10
61.01800155639648
 20
85.13399505615234
 30
0.0
  0
VERTEX
  5
49
330
43
100
AcDbEntity
  8
Layer 1
370
     0
100
AcDbVertex
100
AcDb2dVertex
 10
57.53200149536133
 20
84.16999816894531
 30
0.0
  0
SEQEND
  5
4A
330
43
100
AcDbEntity
  8
Layer 1
370
     0
  0
POLYLINE
  5
4B
330
1F
100
AcDbEntity
  8
Layer 1
370
     0
100
AcDb2dPolyline
 66
     1
 10
0.0
 20
0.0
 30
0.0
  0
VERTEX
  5
4C
330
4B
100
AcDbEntity
  8
Layer 1
370
     0
100
AcDbVertex
100
AcDb2dVertex
 10
30.65299987792969
 20
104.7800006866455
 30
0.0
  0
VERTEX
  5
4D
330
4B
100
AcDbEntity
  8
Layer 1
370
     0
100
AcDbVertex
100
AcDb2dVertex
 10
30.61299896240234
 20
106.0729999542236
 30
0.0
  0
VERTEX
  5
4E
330
4B
100
AcDbEntity
  8
Layer 1
370
     0
100
AcDbVertex
100
AcDb2dVertex
 10
39.51699829101562
 20
109.33899974823
 30
0.0
  0
VERTEX
  5
4F
330
4B
100
AcDbEntity
  8
Layer 1
370
     0
100
AcDbVertex
100
AcDb2dVertex
 10
40.1089973449707
 20
104.0270004272461
 30
0.0
  0
VERTEX
  5
50
330
4B
100
AcDbEntity
  8
Layer 1
370
     0
100
AcDbVertex
100
AcDb2dVertex
 10
30.65299987792969
 20
104.7800006866455
 30
0.0
  0
SEQEND
  5
51
330
4B
100
AcDbEntity
  8
Layer 1
370
     0
  0
SPLINE
  5
52
330
1F
100
AcDbEntity
  8
Layer 1
370
     0
100
AcDbSpline
210
0.0
220
0.0
230
1.0
 70
    11
 71
     3
 72
    23
 73
    19
 74
     0
 42
0.0000000001
 43
0.0000000001
 12
1.0
 22
0.0
 32
0.0
 13
1.0
 23
0.0
 33
0.0
 40
0.0
 40
0.0
 40
0.0
 40
0.0
 40
1.0
 40
1.0
 40
1.0
 40
2.0
 40
2.0
 40
2.0
 40
3.0
 40
3.0
 40
3.0
 40
4.0
 40
4.0
 40
4.0
 40
5.0
 40
5.0
 40
5.0
 40
6.0
 40
6.0
 40
6.0
 40
6.0
 10
40.62900161743164
 20
112.1529998779297
 30
0.0
 10
40.62900161743164
 20
112.1529998779297
 30
0.0
 10
51.20299911499023
 20
117.4299998283386
 30
0.0
 10
51.20299911499023
 20
117.4299998283386
 30
0.0
 10
51.20299911499023
 20
117.4299998283386
 30
0.0
 10
61.47100067138672
 20
105.6849994659424
 30
0.0
 10
61.47100067138672
 20
105.6849994659424
 30
0.0
 10
61.47100067138672
 20
105.6849994659424
 30
0.0
 10
49.3489990234375
 20
104.181999206543
 30
0.0
 10
49.3489990234375
 20
104.181999206543
 30
0.0
 10
49.34799957275391
 20
104.181999206543
 30
0.0
 10
49.34700012207031
 20
104.181999206543
 30
0.0
 10
49.34600067138672
 20
104.181999206543
 30
0.0
 10
49.34600067138672
 20
104.181999206543
 30
0.0
 10
41.625
 20
103.2239990234375
 30
0.0
 10
41.625
 20
103.2239990234375
 30
0.0
 10
41.625
 20
103.2239990234375
 30
0.0
 10
40.62900161743164
 20
112.1529998779297
 30
0.0
 10
40.62900161743164
 20
112.1529998779297
 30
0.0
  0
SPLINE
  5
53
330
1F
100
AcDbEntity
  8
Layer 1
370
     0
100
AcDbSpline
210
0.0
220
0.0
230
1.0
 70
    11
 71
     3
 72
    23
 73
    19
 74
     0
 42
0.0000000001
 43
0.0000000001
 12
1.0
 22
0.0
 32
0.0
 13
1.0
 23
0.0
 33
0.0
 40
0.0
 40
0.0
 40
0.0
 40
0.0
 40
1.0
 40
1.0
 40
1.0
 40
2.0
 40
2.0
 40
2.0
 40
3.0
 40
3.0
 40
3.0
 40
4.0
 40
4.0
 40
4.0
 40
5.0
 40
5.0
 40
5.0
 40
6.0
 40
6.0
 40
6.0
 40
6.0
 10
50.06100082397461
 20
102.8419990539551
 30
0.0
 10
50.06100082397461
 20
102.8419990539551
 30
0.0
 10
62.10300064086914
 20
104.3349990844727
 30
0.0
 10
62.10300064086914
 20
104.3349990844727
 30
0.0
 10
62.10300064086914
 20
104.3349990844727
 30
0.0
 10
60.95600128173828
 20
90.87099838256836
 30
0.0
 10
60.95600128173828
 20
90.87099838256836
 30
0.0
 10
60.95600128173828
 20
90.87099838256836
 30
0.0
 10
58.70600128173828
 20
91.79299926757812
 30
0.0
 10
58.70600128173828
 20
91.79299926757812
 30
0.0
 10
58.70400238037109
 20
91.79399871826172
 30
0.0
 10
58.70100021362305
 20
91.79399871826172
 30
0.0
 10
58.69800186157227
 20
91.79499816894531
 30
0.0
 10
58.69800186157227
 20
91.79499816894531
 30
0.0
 10
48.54300308227539
 20
95.95199775695801
 30
0.0
 10
48.54300308227539
 20
95.95199775695801
 30
0.0
 10
48.54300308227539
 20
95.95199775695801
 30
0.0
 10
50.06100082397461
 20
102.8419990539551
 30
0.0
 10
50.06100082397461
 20
102.8419990539551
 30
0.0
  0
POLYLINE
  5
54
330
1F
100
AcDbEntity
  8
Layer 1
370
     0
100
AcDb2dPolyline
 66
     1
 10
0.0
 20
0.0
 30
0.0
  0
VERTEX
  5
55
330
54
100
AcDbEntity
  8
Layer 1
370
     0
100
AcDbVertex
100
AcDb2dVertex
 10
47.98799896240234
 20
94.64699935913086
 30
0.0
  0
VERTEX
  5
56
330
54
100
AcDbEntity
  8
Layer 1
370
     0
100
AcDbVertex
100
AcDb2dVertex
 10
56.25
 20
91.26499938964844
 30
0.0
  0
VERTEX
  5
57
330
54
100
AcDbEntity
  8
Layer 1
370
     0
100
AcDbVertex
100
AcDb2dVertex
 10
43.30699920654297
 20
87.6709976196289
 30
0.0
  0
VERTEX
  5
58
330
54
100
AcDbEntity
  8
Layer 1
370
     0
100
AcDbVertex
100
AcDb2dVertex
 10
47.98799896240234
 20
94.64699935913086
 30
0.0
  0
SEQEND
  5
59
330
54
100
AcDbEntity
  8
Layer 1
370
     0
  0
POLYLINE
  5
5A
330
1F
100
AcDbEntity
  8
Layer 1
370
     0
100
AcDb2dPolyline
 66
     1
 10
0.0
 20
0.0
 30
0.0
  0
VERTEX
  5
5B
330
5A
100
AcDbEntity
  8
Layer 1
370
     0
100
AcDbVertex
100
AcDb2dVertex
 10
50.82400131225586
 20
52.72100067138672
 30
0.0
  0
VERTEX
  5
5C
330
5A
100
AcDbEntity
  8
Layer 1
370
     0
100
AcDbVertex
100
AcDb2dVertex
 10
57.36300277709961
 20
54.60199737548828
 30
0.0
  0
VERTEX
  5
5D
330
5A
100
AcDbEntity
  8
Layer 1
370
     0
100
AcDbVertex
100
AcDb2dVertex
 10
52.6140022277832
 20
41.41600036621094
 30
0.0
  0
VERTEX
  5
5E
330
5A
100
AcDbEntity
  8
Layer 1
370
     0
100
AcDbVertex
100
AcDb2dVertex
 10
48.29300308227539
 20
44.04800415039062
 30
0.0
  0
VERTEX
  5
5F
330
5A
100
AcDbEntity
  8
Layer 1
370
     0
100
AcDbVertex
100
AcDb2dVertex
 10
50.82400131225586
 20
52.72100067138672
 30
0.0
  0
SEQEND
  5
60
330
5A
100
AcDbEntity
  8
Layer 1
370
     0
  0
POLYLINE
  5
61
330
1F
100
AcDbEntity
  8
Layer 1
370
     0
100
AcDb2dPolyline
 66
     1
 10
0.0
 20
0.0
 30
0.0
  0
VERTEX
  5
62
330
61
100
AcDbEntity
  8
Layer 1
370
     0
100
AcDbVertex
100
AcDb2dVertex
 10
47.52700042724609
 20
42.85399627685547
 30
0.0
  0
VERTEX
  5
63
330
61
100
AcDbEntity
  8
Layer 1
370
     0
100
AcDbVertex
100
AcDb2dVertex
 10
51.76399993896484
 20
40.27399444580078
 30
0.0
  0
VERTEX
  5
64
330
61
100
AcDbEntity
  8
Layer 1
370
     0
100
AcDbVertex
100
AcDb2dVertex
 10
42.60800170898438
 20
32.7919921875
 30
0.0
  0
VERTEX
  5
65
330
61
100
AcDbEntity
  8
Layer 1
370
     0
100
AcDbVertex
100
AcDb2dVertex
 10
40.46100234985352
 20
36.91899108886719
 30
0.0
  0
VERTEX
  5
66
330
61
100
AcDbEntity
  8
Layer 1
370
     0
100
AcDbVertex
100
AcDb2dVertex
 10
47.52700042724609
 20
42.85399627685547
 30
0.0
  0
SEQEND
  5
67
330
61
100
AcDbEntity
  8
Layer 1
370
     0
  0
POLYLINE
  5
68
330
1F
100
AcDbEntity
  8
Layer 1
370
     0
100
AcDb2dPolyline
 66
     1
 10
0.0
 20
0.0
 30
0.0
  0
VERTEX
  5
69
330
68
100
AcDbEntity
  8
Layer 1
370
     0
100
AcDbVertex
100
AcDb2dVertex
 10
33.24599838256836
 20
37.81099700927734
 30
0.0
  0
VERTEX
  5
6A
330
68
100
AcDbEntity
  8
Layer 1
370
     0
100
AcDbVertex
100
AcDb2dVertex
 10
39.09199905395508
 20
36.47799682617188
 30
0.0
  0
VERTEX
  5
6B
330
68
100
AcDbEntity
  8
Layer 1
370
     0
100
AcDbVertex
100
AcDb2dVertex
 10
40.92300033569336
 20
32.95800018310547
 30
0.0
  0
VERTEX
  5
6C
330
68
100
AcDbEntity
  8
Layer 1
370
     0
100
AcDbVertex
100
AcDb2dVertex
 10
32.28700256347656
 20
36.01100158691406
 30
0.0
  0
VERTEX
  5
6D
330
68
100
AcDbEntity
  8
Layer 1
370
     0
100
AcDbVertex
100
AcDb2dVertex
 10
33.24599838256836
 20
37.81099700927734
 30
0.0
  0
SEQEND
  5
6E
330
68
100
AcDbEntity
  8
Layer 1
370
     0
  0
POLYLINE
  5
6F
330
1F
100
AcDbEntity
  8
Layer 1
370
     0
100
AcDb2dPolyline
 66
     1
 10
0.0
 20
0.0
 30
0.0
  0
VERTEX
  5
70
330
6F
100
AcDbEntity
  8
Layer 1
370
     0
100
AcDbVertex
100
AcDb2dVertex
 10
31.99699974060059
 20
38.48100280761719
 30
0.0
  0
VERTEX
  5
71
330
6F
100
AcDbEntity
  8
Layer 1
370
     0
100
AcDbVertex
100
AcDb2dVertex
 10
31.39999961853027
 20
37.36100006103516
 30
0.0
  0
VERTEX
  5
72
330
6F
100
AcDbEntity
  8
Layer 1
370
     0
100
AcDbVertex
100
AcDb2dVertex
 10
30.47200012207031
 20
39.94200134277344
 30
0.0
  0
VERTEX
  5
73
330
6F
100
AcDbEntity
  8
Layer 1
370
     0
100
AcDbVertex
100
AcDb2dVertex
 10
31.99699974060059
 20
38.48100280761719
 30
0.0
  0
SEQEND
  5
74
330
6F
100
AcDbEntity
  8
Layer 1
370
     0
  0
POLYLINE
  5
75
330
1F
100
AcDbEntity
  8
Layer 1
370
     0
100
AcDb2dPolyline
 66
     1
 10
0.0
 20
0.0
 30
0.0
  0
VERTEX
  5
76
330
75
100
AcDbEntity
  8
Layer 1
370
     0
100
AcDbVertex
100
AcDb2dVertex
 10
48.16600036621094
 20
35.50399780273438
 30
0.0
  0
VERTEX
  5
77
330
75
100
AcDbEntity
  8
Layer 1
370
     0
100
AcDbVertex
100
AcDb2dVertex
 10
53.03499984741211
 20
39.48300170898438
 30
0.0
  0
VERTEX
  5
78
330
75
100
AcDbEntity
  8
Layer 1
370
     0
100
AcDbVertex
100
AcDb2dVertex
 10
54.26499938964844
 20
38.68199920654297
 30
0.0
  0
VERTEX
  5
79
330
75
100
AcDbEntity
  8
Layer 1
370
     0
100
AcDbVertex
100
AcDb2dVertex
 10
48.16600036621094
 20
35.50399780273438
 30
0.0
  0
SEQEND
  5
7A
330
75
100
AcDbEntity
  8
Layer 1
370
     0
  0
POLYLINE
  5
7B
330
1F
100
AcDbEntity
  8
Layer 1
370
     0
100
AcDb2dPolyline
 66
     1
 10
0.0
 20
0.0
 30
0.0
  0
VERTEX
  5
7C
330
7B
100
AcDbEntity
  8
Layer 1
370
     0
100
AcDbVertex
100
AcDb2dVertex
 10
55.31700134277344
 20
39.68800354003906
 30
0.0
  0
VERTEX
  5
7D
330
7B
100
AcDbEntity
  8
Layer 1
370
     0
100
AcDbVertex
100
AcDb2dVertex
 10
53.84400177001953
 20
40.64700317382812
 30
0.0
  0
VERTEX
  5
7E
330
7B
100
AcDbEntity
  8
Layer 1
370
     0
100
AcDbVertex
100
AcDb2dVertex
 10
59.04600143432617
 20
55.09300231933594
 30
0.0
  0
VERTEX
  5
7F
330
7B
100
AcDbEntity
  8
Layer 1
370
     0
100
AcDbVertex
100
AcDb2dVertex
 10
61.42500305175781
 20
55.82500457763672
 30
0.0
  0
VERTEX
  5
80
330
7B
100
AcDbEntity
  8
Layer 1
370
     0
100
AcDbVertex
100
AcDb2dVertex
 10
55.31700134277344
 20
39.68800354003906
 30
0.0
  0
SEQEND
  5
81
330
7B
100
AcDbEntity
  8
Layer 1
370
     0
  0
SPLINE
  5
82
330
1F
100
AcDbEntity
  8
Layer 1
370
     0
100
AcDbSpline
210
0.0
220
0.0
230
1.0
 70
    11
 71
     3
 72
    20
 73
    16
 74
     0
 42
0.0000000001
 43
0.0000000001
 12
1.0
 22
0.0
 32
0.0
 13
1.0
 23
0.0
 33
0.0
 40
0.0
 40
0.0
 40
0.0
 40
0.0
 40
1.0
 40
1.0
 40
1.0
 40
2.0
 40
2.0
 40
2.0
 40
3.0
 40
3.0
 40
3.0
 40
4.0
 40
4.0
 40
4.0
 40
5.0
 40
5.0
 40
5.0
 40
5.0
 10
61.86399841308594
 20
57.44400024414062
 30
0.0
 10
61.86399841308594
 20
57.44400024414062
 30
0.0
 10
59.16399765014648
 20
56.61199951171875
 30
0.0
 10
59.16399765014648
 20
56.61199951171875
 30
0.0
 10
59.16399765014648
 20
56.61199951171875
 30
0.0
 10
58.56899642944336
 20
68.95899963378906
 30
0.0
 10
58.56899642944336
 20
68.95899963378906
 30
0.0
 10
58.56899642944336
 20
68.95899963378906
 30
0.0
 10
61.28499603271484
 20
69.072998046875
 30
0.0
 10
61.28499603271484
 20
69.072998046875
 30
0.0
 10
61.26799774169922
 20
69.00499725341797
 30
0.0
 10
61.25099563598633
 20
68.93699645996094
 30
0.0
 10
61.25499725341797
 20
68.86399841308594
 30
0.0
 10
61.25499725341797
 20
68.86399841308594
 30
0.0
 10
61.86399841308594
 20
57.44400024414062
 30
0.0
 10
61.86399841308594
 20
57.44400024414062
 30
0.0
  0
POLYLINE
  5
83
330
1F
100
AcDbEntity
  8
Layer 1
370
     0
100
AcDb2dPolyline
 66
     1
 10
0.0
 20
0.0
 30
0.0
  0
VERTEX
  5
84
330
83
100
AcDbEntity
  8
Layer 1
370
     0
100
AcDbVertex
100
AcDb2dVertex
 10
64.8949966430664
 20
70.64300155639648
 30
0.0
  0
VERTEX
  5
85
330
83
100
AcDbEntity
  8
Layer 1
370
     0
100
AcDbVertex
100
AcDb2dVertex
 10
58.50099563598633
 20
70.3740005493164
 30
0.0
  0
VERTEX
  5
86
330
83
100
AcDbEntity
  8
Layer 1
370
     0
100
AcDbVertex
100
AcDb2dVertex
 10
57.90199661254883
 20
82.8010025024414
 30
0.0
  0
VERTEX
  5
87
330
83
100
AcDbEntity
  8
Layer 1
370
     0
100
AcDbVertex
100
AcDb2dVertex
 10
68.11099243164062
 20
85.62700271606445
 30
0.0
  0
VERTEX
  5
88
330
83
100
AcDbEntity
  8
Layer 1
370
     0
100
AcDbVertex
100
AcDb2dVertex
 10
70.42399597167969
 20
80.1030044555664
 30
0.0
  0
VERTEX
  5
89
330
83
100
AcDbEntity
  8
Layer 1
370
     0
100
AcDbVertex
100
AcDb2dVertex
 10
64.8949966430664
 20
70.64300155639648
 30
0.0
  0
SEQEND
  5
8A
330
83
100
AcDbEntity
  8
Layer 1
370
     0
  0
HATCH
  5
8B
330
1F
100
AcDbEntity
  8
Layer 1
 62
     7
420
 16777215
100
AcDbHatch
 10
0.0
 20
0.0
 30
0.0
210
0.0
220
0.0
230
1.0
  2
SOLID
 70
     1
 71
     0
 91
       15
 92
        1
 93
        1
 72
     4
 94
        3
 73
     0
 74
     1
 95
      221
 96
      217
 40
0.0
 40
0.0
 40
0.0
 40
0.0
 40
1.0
 40
1.0
 40
1.0
 40
2.0
 40
2.0
 40
2.0
 40
3.0
 40
3.0
 40
3.0
 40
4.0
 40
4.0
 40
4.0
 40
5.0
 40
5.0
 40
5.0
 40
6.0
 40
6.0
 40
6.0
 40
7.0
 40
7.0
 40
7.0
 40
8.0
 40
8.0
 40
8.0
 40
9.0
 40
9.0
 40
9.0
 40
10.0
 40
10.0
 40
10.0
 40
11.0
 40
11.0
 40
11.0
 40
12.0
 40
12.0
 40
12.0
 40
13.0
 40
13.0
 40
13.0
 40
14.0
 40
14.0
 40
14.0
 40
15.0
 40
15.0
 40
15.0
 40
16.0
 40
16.0
 40
16.0
 40
17.0
 40
17.0
 40
17.0
 40
18.0
 40
18.0
 40
18.0
 40
19.0
 40
19.0
 40
19.0
 40
20.0
 40
20.0
 40
20.0
 40
21.0
 40
21.0
 40
21.0
 40
22.0
 40
22.0
 40
22.0
 40
23.0
 40
23.0
 40
23.0
 40
24.0
 40
24.0
 40
24.0
 40
25.0
 40
25.0
 40
25.0
 40
26.0
 40
26.0
 40
26.0
 40
27.0
 40
27.0
 40
27.0
 40
28.0
 40
28.0
 40
28.0
 40
29.0
 40
29.0
 40
29.0
 40
30.0
 40
30.0
 40
30.0
 40
31.0
 40
31.0
 40
31.0
 40
32.0
 40
32.0
 40
32.0
 40
33.0
 40
33.0
 40
33.0
 40
34.0
 40
34.0
 40
34.0
 40
35.0
 40
35.0
 40
35.0
 40
36.0
 40
36.0
 40
36.0
 40
37.0
 40
37.0
 40
37.0
 40
38.0
 40
38.0
 40
38.0
 40
39.0
 40
39.0
 40
39.0
 40
40.0
 40
40.0
 40
40.0
 40
41.0
 40
41.0
 40
41.0
 40
42.0
 40
42.0
 40
42.0
 40
43.0
 40
43.0
 40
43.0
 40
44.0
 40
44.0
 40
44.0
 40
45.0
 40
45.0
 40
45.0
 40
46.0
 40
46.0
 40
46.0
 40
47.0
 40
47.0
 40
47.0
 40
48.0
 40
48.0
 40
48.0
 40
49.0
 40
49.0
 40
49.0
 40
50.0
 40
50.0
 40
50.0
 40
51.0
 40
51.0
 40
51.0
 40
52.0
 40
52.0
 40
52.0
 40
53.0
 40
53.0
 40
53.0
 40
54.0
 40
54.0
 40
54.0
 40
55.0
 40
55.0
 40
55.0
 40
56.0
 40
56.0
 40
56.0
 40
57.0
 40
57.0
 40
57.0
 40
58.0
 40
58.0
 40
58.0
 40
59.0
 40
59.0
 40
59.0
 40
60.0
 40
60.0
 40
60.0
 40
61.0
 40
61.0
 40
61.0
 40
62.0
 40
62.0
 40
62.0
 40
63.0
 40
63.0
 40
63.0
 40
64.0
 40
64.0
 40
64.0
 40
65.0
 40
65.0
 40
65.0
 40
66.0
 40
66.0
 40
66.0
 40
67.0
 40
67.0
 40
67.0
 40
68.0
 40
68.0
 40
68.0
 40
69.0
 40
69.0
 40
69.0
 40
70.0
 40
70.0
 40
70.0
 40
71.0
 40
71.0
 40
71.0
 40
72.0
 40
72.0
 40
72.0
 40
72.0
 10
71.86799621582031
 20
80.32400131225586
 10
71.86799621582031
 20
80.32400131225586
 10
69.17699432373047
 20
86.75
 10
69.17699432373047
 20
86.75
 10
69.03899383544922
 20
87.07799911499023
 10
68.68299102783203
 20
87.25199890136719
 10
68.33399200439453
 20
87.15900039672852
 10
68.33399200439453
 20
87.15900039672852
 10
62.42299270629883
 20
85.52299880981445
 10
62.42299270629883
 20
85.52299880981445
 10
62.42299270629883
 20
85.52299880981445
 10
62.28799438476562
 20
89.82799911499023
 10
62.28799438476562
 20
89.82799911499023
 10
62.28799438476562
 20
89.82799911499023
 10
63.58899307250977
 20
105.0849990844727
 10
63.58899307250977
 20
105.0849990844727
 10
63.59299468994141
 20
105.1279983520508
 10
63.5779914855957
 20
105.1669998168945
 10
63.57399368286133
 20
105.2089996337891
 10
63.57099533081055
 20
105.242000579834
 10
63.57099533081055
 20
105.2719993591309
 10
63.56299209594727
 20
105.3050003051758
 10
63.53699111938477
 20
105.4169998168945
 10
63.49199295043945
 20
105.5219993591309
 10
63.4169921875
 20
105.6070003509521
 10
63.41599273681641
 20
105.6079998016357
 10
63.41599273681641
 20
105.6100006103516
 10
63.41499328613281
 20
105.6110000610352
 10
63.41499328613281
 20
105.6110000610352
 10
51.90900039672852
 20
118.7740001678467
 10
51.90900039672852
 20
118.7740001678467
 10
51.69699859619141
 20
119.0170001983643
 10
51.34700012207031
 20
119.085000038147
 10
51.05900192260742
 20
118.9420003890991
 10
51.05900192260742
 20
118.9420003890991
 10
39.55300140380859
 20
113.2000007629395
 10
39.55300140380859
 20
113.2000007629395
 10
39.28700256347656
 20
113.0670003890991
 10
39.13199996948242
 20
112.7830009460449
 10
39.16500091552734
 20
112.4870004653931
 10
39.16500091552734
 20
112.4870004653931
 10
39.35400009155273
 20
110.7900009155273
 10
39.35400009155273
 20
110.7900009155273
 10
39.35400009155273
 20
110.7900009155273
 10
29.64299964904785
 20
107.2280006408691
 10
29.64299964904785
 20
107.2280006408691
 10
29.35599899291992
 20
107.1230010986328
 10
29.16899871826172
 20
106.8460006713867
 10
29.17899894714355
 20
106.5400009155273
 10
29.17899894714355
 20
106.5400009155273
 10
29.25399971008301
 20
104.1020011901855
 10
29.25399971008301
 20
104.1020011901855
 10
29.26499938964844
 20
103.7410011291504
 10
29.54599952697754
 20
103.4460010528564
 10
29.9060001373291
 20
103.4170017242432
 10
29.9060001373291
 20
103.4170017242432
 10
40.26699829101562
 20
102.5930023193359
 10
40.26699829101562
 20
102.5930023193359
 10
40.26699829101562
 20
102.5930023193359
 10
40.29399871826172
 20
102.3530025482178
 10
40.29399871826172
 20
102.3530025482178
 10
40.31499862670898
 20
102.165002822876
 10
40.40999984741211
 20
101.9930019378662
 10
40.55899810791016
 20
101.8750019073486
 10
40.68399810791016
 20
101.7760009765625
 10
40.83899688720703
 20
101.7230014801025
 10
40.99799728393555
 20
101.7230014801025
 10
41.02699661254883
 20
101.7230014801025
 10
41.05599594116211
 20
101.7240009307861
 10
41.08499908447266
 20
101.7280006408691
 10
41.08499908447266
 20
101.7280006408691
 10
48.56599807739258
 20
102.6560001373291
 10
48.56599807739258
 20
102.6560001373291
 10
48.56599807739258
 20
102.6560001373291
 10
47.05599975585938
 20
95.80500030517578
 10
47.05599975585938
 20
95.80500030517578
 10
47.05599975585938
 20
95.80500030517578
 10
41.06000137329102
 20
86.86999893188477
 10
41.06000137329102
 20
86.86999893188477
 10
41.05599975585938
 20
86.86299896240234
 10
41.05400085449219
 20
86.85499954223633
 10
41.05000305175781
 20
86.8479995727539
 10
41.03700256347656
 20
86.82799911499023
 10
41.03000259399414
 20
86.80599975585938
 10
41.02000427246094
 20
86.78400039672852
 10
40.99300384521484
 20
86.72900009155273
 10
40.97200393676758
 20
86.67399978637695
 10
40.96000289916992
 20
86.6150016784668
 10
40.95400238037109
 20
86.5890007019043
 10
40.95100402832031
 20
86.5620002746582
 10
40.94900131225586
 20
86.53499984741211
 10
40.94400024414062
 20
86.47100067138672
 10
40.94800186157227
 20
86.40800094604492
 10
40.96000289916992
 20
86.34500122070312
 10
40.9630012512207
 20
86.3290023803711
 10
40.95900344848633
 20
86.31400299072266
 10
40.96200180053711
 20
86.29800033569336
 10
40.96200180053711
 20
86.29800033569336
 10
49.5150032043457
 20
53.30300140380859
 10
49.5150032043457
 20
53.30300140380859
 10
49.5150032043457
 20
53.30300140380859
 10
46.83800506591797
 20
44.12899780273438
 10
46.83800506591797
 20
44.12899780273438
 10
46.83800506591797
 20
44.12899780273438
 10
39.38100433349609
 20
37.86399841308594
 10
39.38100433349609
 20
37.86399841308594
 10
39.38100433349609
 20
37.86399841308594
 10
33.22000503540039
 20
39.26899719238281
 10
33.22000503540039
 20
39.26899719238281
 10
33.22000503540039
 20
39.26899719238281
 10
29.27300453186035
 20
43.04899597167969
 10
29.27300453186035
 20
43.04899597167969
 10
29.03500366210938
 20
43.27699279785156
 10
28.67100524902344
 20
43.30999755859375
 10
28.39700508117676
 20
43.13199615478516
 10
28.12100601196289
 20
42.95199584960938
 10
28.0050048828125
 20
42.60699462890625
 10
28.11600494384766
 20
42.2969970703125
 10
28.11600494384766
 20
42.2969970703125
 10
30.60500526428223
 20
35.375
 10
30.60500526428223
 20
35.375
 10
30.61000442504883
 20
35.36100006103516
 10
30.62000465393066
 20
35.35199737548828
 10
30.6250057220459
 20
35.33899688720703
 10
30.63600540161133
 20
35.31299591064453
 10
30.65100479125977
 20
35.28999328613281
 10
30.66500663757324
 20
35.26599884033203
 10
30.68300628662109
 20
35.23500061035156
 10
30.69700622558594
 20
35.20199584960938
 10
30.72000694274902
 20
35.17299652099609
 10
30.72600746154785
 20
35.16599273681641
 10
30.73400688171387
 20
35.16099548339844
 10
30.74100685119629
 20
35.15399932861328
 10
30.7490062713623
 20
35.14399719238281
 10
30.76000595092773
 20
35.13600158691406
 10
30.76800727844238
 20
35.12799835205078
 10
30.78700637817383
 20
35.10800170898438
 10
30.80600738525391
 20
35.08999633789062
 10
30.82700729370117
 20
35.07199859619141
 10
30.85600662231445
 20
35.04899597167969
 10
30.88500785827637
 20
35.02700042724609
 10
30.91700744628906
 20
35.00899505615234
 10
30.9260082244873
 20
35.00399780273438
 10
30.93100738525391
 20
34.9949951171875
 10
30.94000816345215
 20
34.98999786376953
 10
30.95000839233398
 20
34.98400115966797
 10
30.96200752258301
 20
34.98699951171875
 10
30.97200775146484
 20
34.98199462890625
 10
30.98300743103027
 20
34.97599792480469
 10
30.9940071105957
 20
34.96999359130859
 10
31.00600814819336
 20
34.96499633789062
 10
31.01700782775879
 20
34.95999908447266
 10
31.0250072479248
 20
34.94999694824219
 10
31.03700828552246
 20
34.94599914550781
 10
31.03700828552246
 20
34.94599914550781
 10
42.14300918579102
 20
31.01999664306641
 10
42.14300918579102
 20
31.01999664306641
 10
42.22100830078125
 20
30.99299621582031
 10
42.30101013183594
 20
30.97899627685547
 10
42.37900924682617
 20
30.97899627685547
 10
42.37900924682617
 20
30.97899627685547
 10
42.37900924682617
 20
30.97899627685547
 10
42.37900924682617
 20
30.97899627685547
 10
42.37900924682617
 20
30.97899627685547
 10
42.37900924682617
 20
30.97899627685547
 10
42.37900924682617
 20
30.97899627685547
 10
42.37900924682617
 20
30.97899627685547
 10
42.37900924682617
 20
30.97899627685547
 10
42.38000869750977
 20
30.97899627685547
 10
42.48200988769531
 20
30.97899627685547
 10
42.57901000976562
 20
31.00799560546875
 10
42.67000961303711
 20
31.04999542236328
 10
42.68201065063477
 20
31.05499267578125
 10
42.69400787353516
 20
31.05299377441406
 10
42.70600891113281
 20
31.05899810791016
 10
42.70600891113281
 20
31.05899810791016
 10
55.99200820922852
 20
37.97999572753906
 10
55.99200820922852
 20
37.97999572753906
 10
55.99900817871094
 20
37.98399353027344
 10
56.00500869750977
 20
37.98699951171875
 10
56.01100921630859
 20
37.99099731445312
 10
56.16400909423828
 20
38.07599639892578
 10
56.27400970458984
 20
38.20999908447266
 10
56.33100891113281
 20
38.36199951171875
 10
56.33100891113281
 20
38.36199951171875
 10
63.26300811767578
 20
56.67500305175781
 10
63.26300811767578
 20
56.67500305175781
 10
63.26600646972656
 20
56.68400573730469
 10
63.26400756835938
 20
56.69200134277344
 10
63.26700973510742
 20
56.70000457763672
 10
63.29000854492188
 20
56.76700592041016
 10
63.30001068115234
 20
56.83800506591797
 10
63.30200958251953
 20
56.91200256347656
 10
63.30200958251953
 20
56.92800140380859
 10
63.30801010131836
 20
56.94200134277344
 10
63.30701065063477
 20
56.95800018310547
 10
63.30701065063477
 20
56.95999908447266
 10
63.30801010131836
 20
56.96199798583984
 10
63.30801010131836
 20
56.96399688720703
 10
63.30801010131836
 20
56.96399688720703
 10
62.67100143432617
 20
68.93999862670898
 10
62.67100143432617
 20
68.93999862670898
 10
62.66699981689453
 20
69.00799942016602
 10
62.64300155639648
 20
69.06799697875977
 10
62.62000274658203
 20
69.12799835205078
 10
62.62000274658203
 20
69.12799835205078
 10
65.34000396728516
 20
69.24199676513672
 10
65.34000396728516
 20
69.24199676513672
 10
65.58100128173828
 20
69.25199508666992
 10
65.8010025024414
 20
69.3849983215332
 10
65.92200469970703
 20
69.59299850463867
 10
65.92200469970703
 20
69.59299850463867
 10
71.82600402832031
 20
79.69099807739258
 10
71.82600402832031
 20
79.69099807739258
 10
71.93900299072266
 20
79.88399887084961
 10
71.9540023803711
 20
80.11800003051758
 10
71.86799621582031
 20
80.32400131225586
 97
        0
 97
        0
 92
        1
 93
        1
 72
     4
 94
        3
 73
     0
 74
     1
 95
       29
 96
       25
 40
0.0
 40
0.0
 40
0.0
 40
0.0
 40
1.0
 40
1.0
 40
1.0
 40
2.0
 40
2.0
 40
2.0
 40
3.0
 40
3.0
 40
3.0
 40
4.0
 40
4.0
 40
4.0
 40
5.0
 40
5.0
 40
5.0
 40
6.0
 40
6.0
 40
6.0
 40
7.0
 40
7.0
 40
7.0
 40
8.0
 40
8.0
 40
8.0
 40
8.0
 10
50.75600051879883
 20
54.17500305175781
 10
50.75600051879883
 20
54.17500305175781
 10
42.51200103759766
 20
85.97999954223633
 10
42.51200103759766
 20
85.97999954223633
 10
42.51200103759766
 20
85.97999954223633
 10
53.43500137329102
 20
89.01300048828125
 10
53.43500137329102
 20
89.01300048828125
 10
53.43500137329102
 20
89.01300048828125
 10
56.46599960327148
 20
83.14500045776367
 10
56.46599960327148
 20
83.14500045776367
 10
56.46599960327148
 20
83.14500045776367
 10
57.11800003051758
 20
69.60700225830078
 10
57.11800003051758
 20
69.60700225830078
 10
57.11800003051758
 20
69.60700225830078
 10
57.11800003051758
 20
69.60700225830078
 10
57.11800003051758
 20
69.60700225830078
 10
57.11800003051758
 20
69.60700225830078
 10
57.11800003051758
 20
69.60700225830078
 10
57.11800003051758
 20
69.60700225830078
 10
57.11800003051758
 20
69.60700225830078
 10
57.76399993896484
 20
56.19200134277344
 10
57.76399993896484
 20
56.19200134277344
 10
57.76399993896484
 20
56.19200134277344
 10
50.75600051879883
 20
54.17500305175781
 10
50.75600051879883
 20
54.17500305175781
 97
        0
 97
        0
 92
        1
 93
        5
 72
     1
 10
57.53200149536133
 20
84.16999816894531
 11
54.83100128173828
 21
89.39999771118164
 72
     1
 10
54.83100128173828
 20
89.39999771118164
 11
58.3910026550293
 21
90.38899612426758
 72
     1
 10
58.3910026550293
 20
90.38899612426758
 11
60.88500213623047
 21
89.36799621582031
 72
     1
 10
60.88500213623047
 20
89.36799621582031
 11
61.01800155639648
 21
85.13399505615234
 72
     1
 10
61.01800155639648
 20
85.13399505615234
 11
57.53200149536133
 21
84.16999816894531
 97
        0
 92
        1
 93
        4
 72
     1
 10
30.65299987792969
 20
104.7800006866455
 11
30.61299896240234
 21
106.0729999542236
 72
     1
 10
30.61299896240234
 20
106.0729999542236
 11
39.51699829101562
 21
109.33899974823
 72
     1
 10
39.51699829101562
 20
109.33899974823
 11
40.1089973449707
 21
104.0270004272461
 72
     1
 10
40.1089973449707
 20
104.0270004272461
 11
30.65299987792969
 21
104.7800006866455
 97
        0
 92
        1
 93
        1
 72
     4
 94
        3
 73
     0
 74
     1
 95
       23
 96
       19
 40
0.0
 40
0.0
 40
0.0
 40
0.0
 40
1.0
 40
1.0
 40
1.0
 40
2.0
 40
2.0
 40
2.0
 40
3.0
 40
3.0
 40
3.0
 40
4.0
 40
4.0
 40
4.0
 40
5.0
 40
5.0
 40
5.0
 40
6.0
 40
6.0
 40
6.0
 40
6.0
 10
40.62900161743164
 20
112.1529998779297
 10
40.62900161743164
 20
112.1529998779297
 10
51.20299911499023
 20
117.4299998283386
 10
51.20299911499023
 20
117.4299998283386
 10
51.20299911499023
 20
117.4299998283386
 10
61.47100067138672
 20
105.6849994659424
 10
61.47100067138672
 20
105.6849994659424
 10
61.47100067138672
 20
105.6849994659424
 10
49.3489990234375
 20
104.181999206543
 10
49.3489990234375
 20
104.181999206543
 10
49.34799957275391
 20
104.181999206543
 10
49.34700012207031
 20
104.181999206543
 10
49.34600067138672
 20
104.181999206543
 10
49.34600067138672
 20
104.181999206543
 10
41.625
 20
103.2239990234375
 10
41.625
 20
103.2239990234375
 10
41.625
 20
103.2239990234375
 10
40.62900161743164
 20
112.1529998779297
 10
40.62900161743164
 20
112.1529998779297
 97
        0
 97
        0
 92
        1
 93
        1
 72
     4
 94
        3
 73
     0
 74
     1
 95
       23
 96
       19
 40
0.0
 40
0.0
 40
0.0
 40
0.0
 40
1.0
 40
1.0
 40
1.0
 40
2.0
 40
2.0
 40
2.0
 40
3.0
 40
3.0
 40
3.0
 40
4.0
 40
4.0
 40
4.0
 40
5.0
 40
5.0
 40
5.0
 40
6.0
 40
6.0
 40
6.0
 40
6.0
 10
50.06100082397461
 20
102.8419990539551
 10
50.06100082397461
 20
102.8419990539551
 10
62.10300064086914
 20
104.3349990844727
 10
62.10300064086914
 20
104.3349990844727
 10
62.10300064086914
 20
104.3349990844727
 10
60.95600128173828
 20
90.87099838256836
 10
60.95600128173828
 20
90.87099838256836
 10
60.95600128173828
 20
90.87099838256836
 10
58.70600128173828
 20
91.79299926757812
 10
58.70600128173828
 20
91.79299926757812
 10
58.70400238037109
 20
91.79399871826172
 10
58.70100021362305
 20
91.79399871826172
 10
58.69800186157227
 20
91.79499816894531
 10
58.69800186157227
 20
91.79499816894531
 10
48.54300308227539
 20
95.95199775695801
 10
48.54300308227539
 20
95.95199775695801
 10
48.54300308227539
 20
95.95199775695801
 10
50.06100082397461
 20
102.8419990539551
 10
50.06100082397461
 20
102.8419990539551
 97
        0
 97
        0
 92
        1
 93
        3
 72
     1
 10
47.98799896240234
 20
94.64699935913086
 11
56.25
 21
91.26499938964844
 72
     1
 10
56.25
 20
91.26499938964844
 11
43.30699920654297
 21
87.6709976196289
 72
     1
 10
43.30699920654297
 20
87.6709976196289
 11
47.98799896240234
 21
94.64699935913086
 97
        0
 92
        1
 93
        4
 72
     1
 10
50.82400131225586
 20
52.72100067138672
 11
57.36300277709961
 21
54.60199737548828
 72
     1
 10
57.36300277709961
 20
54.60199737548828
 11
52.6140022277832
 21
41.41600036621094
 72
     1
 10
52.6140022277832
 20
41.41600036621094
 11
48.29300308227539
 21
44.04800415039062
 72
     1
 10
48.29300308227539
 20
44.04800415039062
 11
50.82400131225586
 21
52.72100067138672
 97
        0
 92
        1
 93
        4
 72
     1
 10
47.52700042724609
 20
42.85399627685547
 11
51.76399993896484
 21
40.27399444580078
 72
     1
 10
51.76399993896484
 20
40.27399444580078
 11
42.60800170898438
 21
32.7919921875
 72
     1
 10
42.60800170898438
 20
32.7919921875
 11
40.46100234985352
 21
36.91899108886719
 72
     1
 10
40.46100234985352
 20
36.91899108886719
 11
47.52700042724609
 21
42.85399627685547
 97
        0
 92
        1
 93
        4
 72
     1
 10
33.24599838256836
 20
37.81099700927734
 11
39.09199905395508
 21
36.47799682617188
 72
     1
 10
39.09199905395508
 20
36.47799682617188
 11
40.92300033569336
 21
32.95800018310547
 72
     1
 10
40.92300033569336
 20
32.95800018310547
 11
32.28700256347656
 21
36.01100158691406
 72
     1
 10
32.28700256347656
 20
36.01100158691406
 11
33.24599838256836
 21
37.81099700927734
 97
        0
 92
        1
 93
        3
 72
     1
 10
31.99699974060059
 20
38.48100280761719
 11
31.39999961853027
 21
37.36100006103516
 72
     1
 10
31.39999961853027
 20
37.36100006103516
 11
30.47200012207031
 21
39.94200134277344
 72
     1
 10
30.47200012207031
 20
39.94200134277344
 11
31.99699974060059
 21
38.48100280761719
 97
        0
 92
        1
 93
        3
 72
     1
 10
48.16600036621094
 20
35.50399780273438
 11
53.03499984741211
 21
39.48300170898438
 72
     1
 10
53.03499984741211
 20
39.48300170898438
 11
54.26499938964844
 21
38.68199920654297
 72
     1
 10
54.26499938964844
 20
38.68199920654297
 11
48.16600036621094
 21
35.50399780273438
 97
        0
 92
        1
 93
        4
 72
     1
 10
55.31700134277344
 20
39.68800354003906
 11
53.84400177001953
 21
40.64700317382812
 72
     1
 10
53.84400177001953
 20
40.64700317382812
 11
59.04600143432617
 21
55.09300231933594
 72
     1
 10
59.04600143432617
 20
55.09300231933594
 11
61.42500305175781
 21
55.82500457763672
 72
     1
 10
61.42500305175781
 20
55.82500457763672
 11
55.31700134277344
 21
39.68800354003906
 97
        0
 92
        1
 93
        1
 72
     4
 94
        3
 73
     0
 74
     1
 95
       20
 96
       16
 40
0.0
 40
0.0
 40
0.0
 40
0.0
 40
1.0
 40
1.0
 40
1.0
 40
2.0
 40
2.0
 40
2.0
 40
3.0
 40
3.0
 40
3.0
 40
4.0
 40
4.0
 40
4.0
 40
5.0
 40
5.0
 40
5.0
 40
5.0
 10
61.86399841308594
 20
57.44400024414062
 10
61.86399841308594
 20
57.44400024414062
 10
59.16399765014648
 20
56.61199951171875
 10
59.16399765014648
 20
56.61199951171875
 10
59.16399765014648
 20
56.61199951171875
 10
58.56899642944336
 20
68.95899963378906
 10
58.56899642944336
 20
68.95899963378906
 10
58.56899642944336
 20
68.95899963378906
 10
61.28499603271484
 20
69.072998046875
 10
61.28499603271484
 20
69.072998046875
 10
61.26799774169922
 20
69.00499725341797
 10
61.25099563598633
 20
68.93699645996094
 10
61.25499725341797
 20
68.86399841308594
 10
61.25499725341797
 20
68.86399841308594
 10
61.86399841308594
 20
57.44400024414062
 10
61.86399841308594
 20
57.44400024414062
 97
        0
 97
        0
 92
        1
 93
        5
 72
     1
 10
64.8949966430664
 20
70.64300155639648
 11
58.50099563598633
 21
70.3740005493164
 72
     1
 10
58.50099563598633
 20
70.3740005493164
 11
57.90199661254883
 21
82.8010025024414
 72
     1
 10
57.90199661254883
 20
82.8010025024414
 11
68.11099243164062
 21
85.62700271606445
 72
     1
 10
68.11099243164062
 20
85.62700271606445
 11
70.42399597167969
 21
80.1030044555664
 72
     1
 10
70.42399597167969
 20
80.1030044555664
 11
64.8949966430664
 21
70.64300155639648
 97
        0
 75
     2
 76
     1
 98
        0
  0
ENDSEC
  0
SECTION
  2
OBJECTS
  0
DICTIONARY
  5
C
330
0
100
AcDbDictionary
281
     1
  3
ACAD_GROUP
350
D
  3
ACAD_LAYOUT
350
1A
  3
ACAD_MATERIAL
350
3B
  3
ACAD_MLEADERSTYLE
350
8D
  3
ACAD_MLINESTYLE
350
17
  3
ACAD_PLOTSETTINGS
350
19
  3
ACAD_PLOTSTYLENAME
350
E
  3
ACAD_TABLESTYLE
350
8C
  3
ACAD_VISUALSTYLE
350
2A
  0
SUN
  5
3F
330
29
100
AcDbSun
 90
        1
290
     0
 63
     7
421
 16777215
 40
1.0
291
     1
 91
  2455826
 92
 54000000
292
     0
 70
     2
 71
   256
280
     1
  0
DICTIONARY
  5
D
102
{ACAD_REACTORS
330
C
102
}
330
C
100
AcDbDictionary
281
     1
  0
DICTIONARY
  5
1A
102
{ACAD_REACTORS
330
C
102
}
330
C
100
AcDbDictionary
281
     1
  3
Layout1
350
1E
  3
Layout2
350
26
  3
Model
350
22
  0
DICTIONARY
  5
3B
102
{ACAD_REACTORS
330
C
102
}
330
C
100
AcDbDictionary
281
     1
  3
ByBlock
350
3D
  3
ByLayer
350
3C
  3
Global
350
3E
  0
DICTIONARY
  5
8D
102
{ACAD_REACTORS
330
C
102
}
330
C
100
AcDbDictionary
281
     1
  0
DICTIONARY
  5
17
102
{ACAD_REACTORS
330
C
102
}
330
C
100
AcDbDictionary
281
     1
  3
Standard
350
18
  0
DICTIONARY
  5
19
102
{ACAD_REACTORS
330
C
102
}
330
C
100
AcDbDictionary
281
     1
  0
ACDBDICTIONARYWDFLT
  5
E
102
{ACAD_REACTORS
330
C
102
}
330
C
100
AcDbDictionary
281
     1
  3
Normal
350
F
100
AcDbDictionaryWithDefault
340
F
  0
DICTIONARY
  5
8C
102
{ACAD_REACTORS
330
C
102
}
330
C
100
AcDbDictionary
281
     1
  0
DICTIONARY
  5
2A
102
{ACAD_REACTORS
330
C
102
}
330
C
100
AcDbDictionary
281
     1
  3
2dWireframe
350
2F
  3
3D Hidden
350
31
  3
3dWireframe
350
30
  3
Basic
350
32
  3
Brighten
350
36
  3
ColorChange
350
3A
  3
Conceptual
350
34
  3
Dim
350
35
  3
Facepattern
350
39
  3
Flat
350
2B
  3
FlatWithEdges
350
2C
  3
Gouraud
350
2D
  3
GouraudWithEdges
350
2E
  3
Linepattern
350
38
  3
Realistic
350
33
  3
Thicken
350
37
  0
LAYOUT
  5
1E
102
{ACAD_REACTORS
330
1A
102
}
330
1A
100
AcDbPlotSettings
  1

  2
none_device
  4

  6

 40
0.0
 41
0.0
 42
0.0
 43
0.0
 44
0.0
 45
0.0
 46
0.0
 47
0.0
 48
0.0
 49
0.0
140
0.0
141
0.0
142
1.0
143
1.0
 70
   688
 72
     0
 73
     0
 74
     5
  7

 75
    16
 76
     0
 77
     2
 78
   300
147
1.0
148
0.0
149
0.0
100
AcDbLayout
  1
Layout1
 70
     1
 71
     1
 10
0.0
 20
0.0
 11
12.0
 21
9.0
 12
0.0
 22
0.0
 32
0.0
 14
1.000000000000000E+20
 24
1.000000000000000E+20
 34
1.000000000000000E+20
 15
-1.000000000000000E+20
 25
-1.000000000000000E+20
 35
-1.000000000000000E+20
146
0.0
 13
0.0
 23
0.0
 33
0.0
 16
1.0
 26
0.0
 36
0.0
 17
0.0
 27
1.0
 37
0.0
 76
     0
330
1B
  0
LAYOUT
  5
26
102
{ACAD_REACTORS
330
1A
102
}
330
1A
100
AcDbPlotSettings
  1

  2
none_device
  4

  6

 40
0.0
 41
0.0
 42
0.0
 43
0.0
 44
0.0
 45
0.0
 46
0.0
 47
0.0
 48
0.0
 49
0.0
140
0.0
141
0.0
142
1.0
143
1.0
 70
   688
 72
     0
 73
     0
 74
     5
  7

 75
    16
 76
     0
 77
     2
 78
   300
147
1.0
148
0.0
149
0.0
100
AcDbLayout
  1
Layout2
 70
     1
 71
     2
 10
0.0
 20
0.0
 11
0.0
 21
0.0
 12
0.0
 22
0.0
 32
0.0
 14
0.0
 24
0.0
 34
0.0
 15
0.0
 25
0.0
 35
0.0
146
0.0
 13
0.0
 23
0.0
 33
0.0
 16
1.0
 26
0.0
 36
0.0
 17
0.0
 27
1.0
 37
0.0
 76
     0
330
23
  0
LAYOUT
  5
22
102
{ACAD_REACTORS
330
1A
102
}
330
1A
100
AcDbPlotSettings
  1

  2
none_device
  4

  6

 40
0.0
 41
0.0
 42
0.0
 43
0.0
 44
0.0
 45
0.0
 46
0.0
 47
0.0
 48
0.0
 49
0.0
140
0.0
141
0.0
142
1.0
143
1.0
 70
  1712
 72
     0
 73
     0
 74
     0
  7

 75
     0
 76
     0
 77
     2
 78
   300
147
1.0
148
0.0
149
0.0
100
AcDbLayout
  1
Model
 70
     1
 71
     0
 10
0.0
 20
0.0
 11
12.0
 21
9.0
 12
0.0
 22
0.0
 32
0.0
 14
1.000000000000000E+20
 24
1.000000000000000E+20
 34
1.000000000000000E+20
 15
-1.000000000000000E+20
 25
-1.000000000000000E+20
 35
-1.000000000000000E+20
146
0.0
 13
0.0
 23
0.0
 33
0.0
 16
1.0
 26
0.0
 36
0.0
 17
0.0
 27
1.0
 37
0.0
 76
     0
330
1F
331
29
  0
MATERIAL
  5
3D
102
{ACAD_REACTORS
330
3B
102
}
330
3B
100
AcDbMaterial
  1
ByBlock
 72
     1
 94
      127
  0
MATERIAL
  5
3C
102
{ACAD_REACTORS
330
3B
102
}
330
3B
100
AcDbMaterial
  1
ByLayer
 72
     1
 94
      127
  0
MATERIAL
  5
3E
102
{ACAD_REACTORS
330
3B
102
}
330
3B
100
AcDbMaterial
  1
Global
 72
     1
 94
      127
  0
MLINESTYLE
  5
18
102
{ACAD_REACTORS
330
17
102
}
330
17
100
AcDbMlineStyle
  2
Standard
 70
     0
  3

 62
   256
 51
90.0
 52
90.0
 71
     2
 49
0.5
 62
   256
  6
BYLAYER
 49
-0.5
 62
   256
  6
BYLAYER
  0
ACDBPLACEHOLDER
  5
F
102
{ACAD_REACTORS
330
E
102
}
330
E
  0
VISUALSTYLE
  5
2F
102
{ACAD_REACTORS
330
2A
102
}
330
2A
100
AcDbVisualStyle
  2
2dWireframe
 70
     4
177
     2
291
     0
 71
     0
176
     1
 72
     2
176
     1
 73
     0
176
     1
 90
        0
176
     1
 40
-0.6
176
     1
 41
-30.0
176
     1
 62
     5
 63
     7
421
 16777215
176
     1
 74
     1
176
     1
 91
        4
176
     1
 64
     7
176
     1
 65
   257
176
     1
 75
     1
176
     1
175
     1
176
     1
 42
1.0
176
     1
 92
        0
176
     1
 66
   257
176
     1
 43
1.0
176
     1
 76
     1
176
     1
 77
     6
176
     1
 78
     2
176
     1
 67
     7
176
     1
 79
     5
176
     1
170
     0
176
     1
171
     0
176
     1
290
     0
176
     1
 93
        1
176
     1
 44
0.0
176
     1
173
     0
176
     1
  0
VISUALSTYLE
  5
31
102
{ACAD_REACTORS
330
2A
102
}
330
2A
100
AcDbVisualStyle
  2
3D Hidden
 70
     6
177
     2
291
     0
 71
     1
176
     1
 72
     2
176
     1
 73
     2
176
     1
 90
        0
176
     1
 40
-0.6
176
     1
 41
-30.0
176
     1
 62
     5
 63
     7
421
 16777215
176
     1
 74
     2
176
     1
 91
        2
176
     1
 64
     7
176
     1
 65
   257
176
     1
 75
     2
176
     1
175
     1
176
     1
 42
40.0
176
     1
 92
        0
176
     1
 66
   257
176
     1
 43
1.0
176
     1
 76
     1
176
     1
 77
     6
176
     1
 78
     2
176
     1
 67
     7
176
     1
 79
     3
176
     1
170
     0
176
     1
171
     0
176
     1
290
     0
176
     1
 93
        1
176
     1
 44
0.0
176
     1
173
     0
176
     1
  0
VISUALSTYLE
  5
30
102
{ACAD_REACTORS
330
2A
102
}
330
2A
100
AcDbVisualStyle
  2
3dWireframe
 70
     5
177
     2
291
     0
 71
     0
176
     1
 72
     2
176
     1
 73
     0
176
     1
 90
        0
176
     1
 40
-0.6
176
     1
 41
-30.0
176
     1
 62
     5
 63
     7
421
 16777215
176
     1
 74
     1
176
     1
 91
        4
176
     1
 64
     7
176
     1
 65
   257
176
     1
 75
     1
176
     1
175
     1
176
     1
 42
1.0
176
     1
 92
        0
176
     1
 66
   257
176
     1
 43
1.0
176
     1
 76
     1
176
     1
 77
     6
176
     1
 78
     2
176
     1
 67
     7
176
     1
 79
     5
176
     1
170
     0
176
     1
171
     0
176
     1
290
     0
176
     1
 93
        1
176
     1
 44
0.0
176
     1
173
     0
176
     1
  0
VISUALSTYLE
  5
32
102
{ACAD_REACTORS
330
2A
102
}
330
2A
100
AcDbVisualStyle
  2
Basic
 70
     7
177
     2
291
     1
 71
     1
176
     1
 72
     0
176
     1
 73
     1
176
     1
 90
        0
176
     1
 40
-0.6
176
     1
 41
-30.0
176
     1
 62
     5
 63
     7
421
 16777215
176
     1
 74
     0
176
     1
 91
        4
176
     1
 64
     7
176
     1
 65
   257
176
     1
 75
     1
176
     1
175
     1
176
     1
 42
1.0
176
     1
 92
        8
176
     1
 66
     7
176
     1
 43
1.0
176
     1
 76
     1
176
     1
 77
     6
176
     1
 78
     2
176
     1
 67
     7
176
     1
 79
     5
176
     1
170
     0
176
     1
171
     0
176
     1
290
     0
176
     1
 93
        1
176
     1
 44
0.0
176
     1
173
     0
176
     1
  0
VISUALSTYLE
  5
36
102
{ACAD_REACTORS
330
2A
102
}
330
2A
100
AcDbVisualStyle
  2
Brighten
 70
    12
177
     2
291
     1
 71
     2
176
     1
 72
     2
176
     1
 73
     0
176
     1
 90
        0
176
     1
 40
-0.6
176
     1
 41
-30.0
176
     1
 62
     5
 63
     7
421
 16777215
176
     1
 74
     1
176
     1
 91
        4
176
     1
 64
     7
176
     1
 65
   257
176
     1
 75
     1
176
     1
175
     1
176
     1
 42
1.0
176
     1
 92
        8
176
     1
 66
     7
176
     1
 43
1.0
176
     1
 76
     1
176
     1
 77
     6
176
     1
 78
     2
176
     1
 67
     7
176
     1
 79
     5
176
     1
170
     0
176
     1
171
     0
176
     1
290
     0
176
     1
 93
        1
176
     1
 44
50.0
176
     1
173
     0
176
     1
  0
VISUALSTYLE
  5
3A
102
{ACAD_REACTORS
330
2A
102
}
330
2A
100
AcDbVisualStyle
  2
ColorChange
 70
    16
177
     2
291
     1
 71
     2
176
     1
 72
     2
176
     1
 73
     3
176
     1
 90
        0
176
     1
 40
-0.6
176
     1
 41
-30.0
176
     1
 62
     5
 63
     8
421
  8421504
176
     1
 74
     1
176
     1
 91
        4
176
     1
 64
     7
176
     1
 65
   257
176
     1
 75
     1
176
     1
175
     1
176
     1
 42
1.0
176
     1
 92
        8
176
     1
 66
     8
424
  8421504
176
     1
 43
1.0
176
     1
 76
     1
176
     1
 77
     6
176
     1
 78
     2
176
     1
 67
     7
176
     1
 79
     5
176
     1
170
     0
176
     1
171
     0
176
     1
290
     0
176
     1
 93
        1
176
     1
 44
0.0
176
     1
173
     0
176
     1
  0
VISUALSTYLE
  5
34
102
{ACAD_REACTORS
330
2A
102
}
330
2A
100
AcDbVisualStyle
  2
Conceptual
 70
     9
177
     2
291
     0
 71
     3
176
     1
 72
     2
176
     1
 73
     0
176
     1
 90
        0
176
     1
 40
-0.6
176
     1
 41
-30.0
176
     1
 62
     5
 63
     7
421
 16777215
176
     1
 74
     2
176
     1
 91
        2
176
     1
 64
     7
176
     1
 65
   257
176
     1
 75
     1
176
     1
175
     1
176
     1
 42
40.0
176
     1
 92
        8
176
     1
 66
     7
176
     1
 43
1.0
176
     1
 76
     1
176
     1
 77
     6
176
     1
 78
     2
176
     1
 67
     7
176
     1
 79
     3
176
     1
170
     0
176
     1
171
     0
176
     1
290
     0
176
     1
 93
        1
176
     1
 44
0.0
176
     1
173
     0
176
     1
  0
VISUALSTYLE
  5
35
102
{ACAD_REACTORS
330
2A
102
}
330
2A
100
AcDbVisualStyle
  2
Dim
 70
    11
177
     2
291
     1
 71
     2
176
     1
 72
     2
176
     1
 73
     0
176
     1
 90
        0
176
     1
 40
-0.6
176
     1
 41
-30.0
176
     1
 62
     5
 63
     7
421
 16777215
176
     1
 74
     1
176
     1
 91
        4
176
     1
 64
     7
176
     1
 65
   257
176
     1
 75
     1
176
     1
175
     1
176
     1
 42
1.0
176
     1
 92
        8
176
     1
 66
     7
176
     1
 43
1.0
176
     1
 76
     1
176
     1
 77
     6
176
     1
 78
     2
176
     1
 67
     7
176
     1
 79
     5
176
     1
170
     0
176
     1
171
     0
176
     1
290
     0
176
     1
 93
        1
176
     1
 44
-50.0
176
     1
173
     0
176
     1
  0
VISUALSTYLE
  5
39
102
{ACAD_REACTORS
330
2A
102
}
330
2A
100
AcDbVisualStyle
  2
Facepattern
 70
    15
177
     2
291
     1
 71
     2
176
     1
 72
     2
176
     1
 73
     0
176
     1
 90
        0
176
     1
 40
-0.6
176
     1
 41
-30.0
176
     1
 62
     5
 63
     7
421
 16777215
176
     1
 74
     1
176
     1
 91
        4
176
     1
 64
     7
176
     1
 65
   257
176
     1
 75
     1
176
     1
175
     1
176
     1
 42
1.0
176
     1
 92
        8
176
     1
 66
     7
176
     1
 43
1.0
176
     1
 76
     1
176
     1
 77
     6
176
     1
 78
     2
176
     1
 67
     7
176
     1
 79
     5
176
     1
170
     0
176
     1
171
     0
176
     1
290
     0
176
     1
 93
        1
176
     1
 44
0.0
176
     1
173
     0
176
     1
  0
VISUALSTYLE
  5
2B
102
{ACAD_REACTORS
330
2A
102
}
330
2A
100
AcDbVisualStyle
  2
Flat
 70
     0
177
     2
291
     1
 71
     2
176
     1
 72
     1
176
     1
 73
     1
176
     1
 90
        2
176
     1
 40
-0.6
176
     1
 41
30.0
176
     1
 62
     5
 63
     7
421
 16777215
176
     1
 74
     0
176
     1
 91
        4
176
     1
 64
     7
176
     1
 65
   257
176
     1
 75
     1
176
     1
175
     1
176
     1
 42
1.0
176
     1
 92
        8
176
     1
 66
     7
176
     1
 43
1.0
176
     1
 76
     1
176
     1
 77
     6
176
     1
 78
     2
176
     1
 67
     7
176
     1
 79
     5
176
     1
170
     0
176
     1
171
     0
176
     1
290
     0
176
     1
 93
       13
176
     1
 44
0.0
176
     1
173
     0
176
     1
  0
VISUALSTYLE
  5
2C
102
{ACAD_REACTORS
330
2A
102
}
330
2A
100
AcDbVisualStyle
  2
FlatWithEdges
 70
     1
177
     2
291
     1
 71
     2
176
     1
 72
     1
176
     1
 73
     1
176
     1
 90
        2
176
     1
 40
-0.6
176
     1
 41
30.0
176
     1
 62
     5
 63
     7
421
 16777215
176
     1
 74
     1
176
     1
 91
        4
176
     1
 64
     7
176
     1
 65
   257
176
     1
 75
     1
176
     1
175
     1
176
     1
 42
1.0
176
     1
 92
        0
176
     1
 66
   257
176
     1
 43
1.0
176
     1
 76
     1
176
     1
 77
     6
176
     1
 78
     2
176
     1
 67
     7
176
     1
 79
     5
176
     1
170
     0
176
     1
171
     0
176
     1
290
     0
176
     1
 93
       13
176
     1
 44
0.0
176
     1
173
     0
176
     1
  0
VISUALSTYLE
  5
2D
102
{ACAD_REACTORS
330
2A
102
}
330
2A
100
AcDbVisualStyle
  2
Gouraud
 70
     2
177
     2
291
     1
 71
     2
176
     1
 72
     2
176
     1
 73
     1
176
     1
 90
        2
176
     1
 40
-0.6
176
     1
 41
30.0
176
     1
 62
     5
 63
     7
421
 16777215
176
     1
 74
     0
176
     1
 91
        4
176
     1
 64
     7
176
     1
 65
   257
176
     1
 75
     1
176
     1
175
     1
176
     1
 42
1.0
176
     1
 92
        0
176
     1
 66
     7
176
     1
 43
1.0
176
     1
 76
     1
176
     1
 77
     6
176
     1
 78
     2
176
     1
 67
     7
176
     1
 79
     5
176
     1
170
     0
176
     1
171
     0
176
     1
290
     0
176
     1
 93
       13
176
     1
 44
0.0
176
     1
173
     0
176
     1
  0
VISUALSTYLE
  5
2E
102
{ACAD_REACTORS
330
2A
102
}
330
2A
100
AcDbVisualStyle
  2
GouraudWithEdges
 70
     3
177
     2
291
     1
 71
     2
176
     1
 72
     2
176
     1
 73
     1
176
     1
 90
        2
176
     1
 40
-0.6
176
     1
 41
30.0
176
     1
 62
     5
 63
     7
421
 16777215
176
     1
 74
     1
176
     1
 91
        4
176
     1
 64
     7
176
     1
 65
   257
176
     1
 75
     1
176
     1
175
     1
176
     1
 42
1.0
176
     1
 92
        0
176
     1
 66
   257
176
     1
 43
1.0
176
     1
 76
     1
176
     1
 77
     6
176
     1
 78
     2
176
     1
 67
     7
176
     1
 79
     5
176
     1
170
     0
176
     1
171
     0
176
     1
290
     0
176
     1
 93
       13
176
     1
 44
0.0
176
     1
173
     0
176
     1
  0
VISUALSTYLE
  5
38
102
{ACAD_REACTORS
330
2A
102
}
330
2A
100
AcDbVisualStyle
  2
Linepattern
 70
    14
177
     2
291
     1
 71
     2
176
     1
 72
     2
176
     1
 73
     0
176
     1
 90
        0
176
     1
 40
-0.6
176
     1
 41
-30.0
176
     1
 62
     5
 63
     7
421
 16777215
176
     1
 74
     1
176
     1
 91
        4
176
     1
 64
     7
176
     1
 65
   257
176
     1
 75
     7
176
     1
175
     7
176
     1
 42
1.0
176
     1
 92
        8
176
     1
 66
     7
176
     1
 43
1.0
176
     1
 76
     1
176
     1
 77
     6
176
     1
 78
     2
176
     1
 67
     7
176
     1
 79
     5
176
     1
170
     0
176
     1
171
     0
176
     1
290
     0
176
     1
 93
        1
176
     1
 44
0.0
176
     1
173
     0
176
     1
  0
VISUALSTYLE
  5
33
102
{ACAD_REACTORS
330
2A
102
}
330
2A
100
AcDbVisualStyle
  2
Realistic
 70
     8
177
     2
291
     0
 71
     2
176
     1
 72
     2
176
     1
 73
     0
176
     1
 90
        0
176
     1
 40
-0.6
176
     1
 41
-30.0
176
     1
 62
     5
 63
     7
421
 16777215
176
     1
 74
     1
176
     1
 91
        0
176
     1
 64
     7
176
     1
 65
   257
176
     1
 75
     1
176
     1
175
     1
176
     1
 42
1.0
176
     1
 92
        8
176
     1
 66
     8
424
  7895160
176
     1
 43
1.0
176
     1
 76
     1
176
     1
 77
     6
176
     1
 78
     2
176
     1
 67
     7
176
     1
 79
     5
176
     1
170
     0
176
     1
171
     0
176
     1
290
     0
176
     1
 93
       13
176
     1
 44
0.0
176
     1
173
     0
176
     1
  0
VISUALSTYLE
  5
37
102
{ACAD_REACTORS
330
2A
102
}
330
2A
100
AcDbVisualStyle
  2
Thicken
 70
    13
177
     2
291
     1
 71
     2
176
     1
 72
     2
176
     1
 73
     0
176
     1
 90
        0
176
     1
 40
-0.6
176
     1
 41
-30.0
176
     1
 62
     5
 63
     7
421
 16777215
176
     1
 74
     1
176
     1
 91
        4
176
     1
 64
     7
176
     1
 65
   257
176
     1
 75
     1
176
     1
175
     1
176
     1
 42
1.0
176
     1
 92
       12
176
     1
 66
     7
176
     1
 43
1.0
176
     1
 76
     1
176
     1
 77
     6
176
     1
 78
     2
176
     1
 67
     7
176
     1
 79
     5
176
     1
170
     0
176
     1
171
     0
176
     1
290
     0
176
     1
 93
        1
176
     1
 44
0.0
176
     1
173
     0
176
     1
  0
ENDSEC
  0
EOF
