<?xml version="1.0" encoding="utf-8"?>
<!-- Generator: Adobe Illustrator 19.2.1, SVG Export Plug-In . SVG Version: 6.00 Build 0)  -->
<svg version="1.1" id="Layer_1" xmlns="http://www.w3.org/2000/svg" xmlns:xlink="http://www.w3.org/1999/xlink" x="0px" y="0px"
	 viewBox="0 0 100 125" style="enable-background:new 0 0 100 125;" xml:space="preserve">
<path d="M71.9,44.7l-2.7-6.4c-0.1-0.3-0.5-0.5-0.8-0.4l-5.9,1.6l-0.1-4.3l1.3-15.3c0,0,0-0.1,0-0.1c0,0,0-0.1,0-0.1
	c0-0.1-0.1-0.2-0.1-0.3c0,0,0,0,0,0L51.9,6.2c-0.2-0.2-0.6-0.3-0.8-0.2l-11.5,5.7c-0.3,0.1-0.4,0.4-0.4,0.7l0.2,1.7l-9.7,3.6
	c-0.3,0.1-0.5,0.4-0.5,0.7l0.1,2.4c0,0.4,0.3,0.7,0.7,0.7l10.4,0.8l0,0.2c0,0.2,0.1,0.4,0.3,0.5c0.1,0.1,0.3,0.2,0.4,0.2
	c0,0,0.1,0,0.1,0l7.5-0.9l-1.5,6.9l-6,8.9c0,0,0,0,0,0c0,0,0,0,0,0.1c0,0.1,0,0.1-0.1,0.2c0,0,0,0.1,0,0.1c0,0.1,0,0.1,0,0.2
	c0,0,0,0,0,0l8.6,33l-2.7,9.2l-7.5,6.3l-6.2-1.4L29.3,82c-0.2-0.2-0.6-0.3-0.9-0.1c-0.3,0.2-0.4,0.5-0.3,0.8l2.5,6.9c0,0,0,0,0,0
	c0,0,0,0,0,0.1c0,0,0,0.1,0.1,0.1c0,0,0,0,0,0c0,0,0,0,0,0c0,0,0,0,0.1,0.1c0,0,0.1,0,0.1,0.1c0,0,0,0,0,0c0,0,0,0,0,0c0,0,0,0,0,0
	c0,0,0,0,0,0L42.1,94c0.1,0,0.2,0,0.2,0l0,0l0,0c0,0,0,0,0,0c0.1,0,0.2,0,0.3-0.1c0,0,0,0,0,0L56,87c0,0,0,0,0,0
	c0.2-0.1,0.3-0.2,0.3-0.4l6.9-18.3c0,0,0,0,0,0c0-0.1,0-0.1,0-0.2c0,0,0,0,0,0c0,0,0,0,0,0l-0.6-12c0-0.1,0-0.1-0.1-0.2l2.7-0.1
	c0.2,0,0.5-0.1,0.6-0.4l5.9-10.1C71.9,45.1,72,44.9,71.9,44.7z M50.8,70.8L42.5,39l10.9-3l3,5.9l0.7,13.5l0,0l0,0l0.6,13.4
	L50.8,70.8z M57.5,40.8l-2.7-5.2l3.6-1l2.5,1l0.1,4.2L57.5,40.8z M30.7,20.2l0-1.3l8.9-3.3l0.6,5.3L30.7,20.2z M40.6,12.8l10.6-5.3
	l10.3,11.7l-12.1,1.5c0,0,0,0,0,0l-7.7,1L40.6,12.8z M50.1,22.2l12-1.5L61,34.1l-2.2-0.9c0,0,0,0,0,0L48.5,29L50.1,22.2z M48,30.4
	l8.3,3.4l-12.9,3.6L48,30.4z M50.8,72.3l6.5-1.9l-4.7,13.2L48.3,81L50.8,72.3z M47.5,82.1l4.2,2.6l-9.2,7.5l-2.1-4.1L47.5,82.1z
	 M33.2,87.2l5.8,1.3l1.8,3.5L32.3,89L33.2,87.2z M32,86.5l-0.6,1.1l-0.9-2.6L32,86.5z M48.2,89.5l4.9-4l1.2,0.8L48.2,89.5z
	 M55.3,85.3l-1.5-1L59,69.9l2.4-0.7L55.3,85.3z M61.9,67.6l-2.7,0.8L58.6,56l2.7-0.1c0,0.1,0,0.1,0,0.2L61.9,67.6z M64.9,54.4
	l-6.4,0.3l-0.6-12.4l10.2-2.8l2.3,5.5L64.9,54.4z"/>
</svg>
