<?xml version="1.0" encoding="utf-8"?>
<!-- Generator: Adobe Illustrator 19.2.1, SVG Export Plug-In . SVG Version: 6.00 Build 0)  -->
<svg version="1.1" id="Layer_1" xmlns="http://www.w3.org/2000/svg" xmlns:xlink="http://www.w3.org/1999/xlink" x="0px" y="0px"
	 viewBox="0 0 100 125" style="enable-background:new 0 0 100 125;" xml:space="preserve">
<path d="M88.7,48.1c-0.2-0.2-0.6-0.2-0.8,0l-10.5,7.4L40.5,34.6l-0.9-11c0-0.1,0-0.2-0.1-0.3L29.8,7.6c0,0,0,0,0,0
	c-0.1-0.1-0.1-0.2-0.2-0.2c0,0,0,0,0,0c-0.1,0-0.2-0.1-0.3-0.1c0,0,0,0,0,0c0,0,0,0,0,0c0,0,0,0,0,0L14.7,9c-0.4,0-0.6,0.3-0.6,0.7
	v5.4c0,0.3,0.2,0.5,0.4,0.6l8.1,3.9L11.1,42.8c0,0,0,0,0,0.1c0,0,0,0.1,0,0.1c0,0.1,0,0.1,0,0.2c0,0,0,0,0,0.1c0,0.1,0,0.2,0.1,0.2
	c0,0,0,0,0,0c0,0,0.1,0.1,0.1,0.1c0,0,0,0,0,0c0,0,0,0,0,0l14.4,12l-2.1,10.9c0,0.2,0,0.4,0.1,0.6c0.1,0.2,0.3,0.3,0.5,0.3H28
	l-0.1,1.4c0,0,0,0.1,0,0.1c0,0.1,0,0.1,0,0.2c0,0,0,0.1,0.1,0.1c0,0,0,0.1,0.1,0.1c0,0,0,0,0,0c0,0,0.1,0,0.1,0.1
	c0,0,0.1,0.1,0.1,0.1l11.2,5.8c0.1,0.1,0.2,0.1,0.3,0.1c0.2,0,0.5-0.1,0.6-0.4l3-5.5h25.1c0.1,0,0.2,0,0.3-0.1l17.2-8.1
	c0,0,0.1,0,0.1-0.1c0,0,0,0,0.1,0c0.1,0,0.1-0.1,0.1-0.2c0,0,0,0,0,0c0-0.1,0.1-0.1,0.1-0.2c0,0,0,0,0,0L89,48.8
	C89,48.6,88.9,48.3,88.7,48.1z M67.5,51.5L40.9,39.2l-0.2-2.9L67.5,51.5z M15.5,14.7v-4.3L28,8.8l-4.8,9.6L15.5,14.7z M29.3,9.4
	l8.9,14.4l1.2,14.6l-8.9-4.1c0,0,0,0,0,0c-0.1,0-0.1,0-0.2,0c0,0-0.1,0-0.1,0c0,0,0,0-0.1,0c0,0-0.1,0-0.1,0c0,0,0,0-0.1,0
	l-16.7,7.3L29.3,9.4z M13.1,43.3l16.4-7.2l-1,20.1L13.1,43.3z M29.8,58c0-0.1,0-0.3,0-0.4l0.9-19.1L42,68.2H29.4L29.8,58z M25.1,66
	l1.8-9.3l1.5,1.3L28,66H25.1z M39.5,73.8l-8-4.2h10.3L39.5,73.8z M68.4,68.2H43.6L31.5,36.4l52.6,24.4L68.4,68.2z M85.3,59.8
	l-6.9-3.2l8.9-6.2L85.3,59.8z"/>
</svg>
