  0
SECTION
  2
HEADER
  9
$ACADVER
  1
AC1024
  9
$ACADMAINTVER
 70
     6
  9
$DWGCODEPAGE
  3
UNDEFINED
  9
$INSBASE
 10
0.0
 20
0.0
 30
0.0
  9
$EXTMIN
 10
1.000000000000000E+20
 20
1.000000000000000E+20
 30
1.000000000000000E+20
  9
$EXTMAX
 10
-1.000000000000000E+20
 20
-1.000000000000000E+20
 30
-1.000000000000000E+20
  9
$LIMMIN
 10
0.0
 20
0.0
  9
$LIMMAX
 10
12.0
 20
9.0
  9
$ORTHOMODE
 70
     0
  9
$REGENMODE
 70
     1
  9
$FILLMODE
 70
     1
  9
$QTEXTMODE
 70
     0
  9
$MIRRTEXT
 70
     1
  9
$LTSCALE
 40
1.0
  9
$ATTMODE
 70
     1
  9
$TEXTSIZE
 40
0.2
  9
$TRACEWID
 40
0.05
  9
$TEXTSTYLE
  7
Standard
  9
$CLAYER
  8
0
  9
$CELTYPE
  6
ByLayer
  9
$CECOLOR
 62
   256
  9
$CELTSCALE
 40
1.0
  9
$DISPSILH
 70
     0
  9
$DIMSCALE
 40
1.0
  9
$DIMASZ
 40
0.18
  9
$DIMEXO
 40
0.0625
  9
$DIMDLI
 40
0.38
  9
$DIMRND
 40
0.0
  9
$DIMDLE
 40
0.0
  9
$DIMEXE
 40
0.18
  9
$DIMTP
 40
0.0
  9
$DIMTM
 40
0.0
  9
$DIMTXT
 40
0.18
  9
$DIMCEN
 40
0.09
  9
$DIMTSZ
 40
0.0
  9
$DIMTOL
 70
     0
  9
$DIMLIM
 70
     0
  9
$DIMTIH
 70
     1
  9
$DIMTOH
 70
     1
  9
$DIMSE1
 70
     0
  9
$DIMSE2
 70
     0
  9
$DIMTAD
 70
     0
  9
$DIMZIN
 70
     0
  9
$DIMBLK
  1

  9
$DIMASO
 70
     1
  9
$DIMSHO
 70
     1
  9
$DIMPOST
  1

  9
$DIMAPOST
  1

  9
$DIMALT
 70
     0
  9
$DIMALTD
 70
     2
  9
$DIMALTF
 40
25.4
  9
$DIMLFAC
 40
1.0
  9
$DIMTOFL
 70
     0
  9
$DIMTVP
 40
0.0
  9
$DIMTIX
 70
     0
  9
$DIMSOXD
 70
     0
  9
$DIMSAH
 70
     0
  9
$DIMBLK1
  1

  9
$DIMBLK2
  1

  9
$DIMSTYLE
  2
Standard
  9
$DIMCLRD
 70
     0
  9
$DIMCLRE
 70
     0
  9
$DIMCLRT
 70
     0
  9
$DIMTFAC
 40
1.0
  9
$DIMGAP
 40
0.09
  9
$DIMJUST
 70
     0
  9
$DIMSD1
 70
     0
  9
$DIMSD2
 70
     0
  9
$DIMTOLJ
 70
     1
  9
$DIMTZIN
 70
     0
  9
$DIMALTZ
 70
     0
  9
$DIMALTTZ
 70
     0
  9
$DIMUPT
 70
     0
  9
$DIMDEC
 70
     4
  9
$DIMTDEC
 70
     4
  9
$DIMALTU
 70
     2
  9
$DIMALTTD
 70
     2
  9
$DIMTXSTY
  7
Standard
  9
$DIMAUNIT
 70
     0
  9
$DIMADEC
 70
     0
  9
$DIMALTRND
 40
0.0
  9
$DIMAZIN
 70
     0
  9
$DIMDSEP
 70
    46
  9
$DIMATFIT
 70
     3
  9
$DIMFRAC
 70
     0
  9
$DIMLDRBLK
  1

  9
$DIMLUNIT
 70
     2
  9
$DIMLWD
 70
    -2
  9
$DIMLWE
 70
    -2
  9
$DIMTMOVE
 70
     0
  9
$DIMFXL
 40
1.0
  9
$DIMFXLON
 70
     0
  9
$DIMJOGANG
 40
0.7853981633974483
  9
$DIMTFILL
 70
     0
  9
$DIMTFILLCLR
 70
     0
  9
$DIMARCSYM
 70
     0
  9
$DIMLTYPE
  6

  9
$DIMLTEX1
  6

  9
$DIMLTEX2
  6

  9
$DIMTXTDIRECTION
 70
     0
  9
$LUNITS
 70
     2
  9
$LUPREC
 70
     4
  9
$SKETCHINC
 40
0.1
  9
$FILLETRAD
 40
0.5
  9
$AUNITS
 70
     0
  9
$AUPREC
 70
     0
  9
$MENU
  1
.
  9
$ELEVATION
 40
0.0
  9
$PELEVATION
 40
0.0
  9
$THICKNESS
 40
0.0
  9
$LIMCHECK
 70
     0
  9
$CHAMFERA
 40
0.5
  9
$CHAMFERB
 40
0.5
  9
$CHAMFERC
 40
1.0
  9
$CHAMFERD
 40
0.0
  9
$SKPOLY
 70
     0
  9
$TDCREATE
 40
2457525.606655081
  9
$TDUCREATE
 40
2457525.814988426
  9
$TDUPDATE
 40
2457525.606655081
  9
$TDUUPDATE
 40
2457525.814988426
  9
$TDINDWG
 40
0.0000000116
  9
$TDUSRTIMER
 40
0.0000000116
  9
$USRTIMER
 70
     1
  9
$ANGBASE
 50
0.0
  9
$ANGDIR
 70
     0
  9
$PDMODE
 70
     0
  9
$PDSIZE
 40
0.0
  9
$PLINEWID
 40
0.0
  9
$SPLFRAME
 70
     0
  9
$SPLINETYPE
 70
     6
  9
$SPLINESEGS
 70
     8
  9
$HANDSEED
  5
74
  9
$SURFTAB1
 70
     6
  9
$SURFTAB2
 70
     6
  9
$SURFTYPE
 70
     6
  9
$SURFU
 70
     6
  9
$SURFV
 70
     6
  9
$UCSBASE
  2

  9
$UCSNAME
  2

  9
$UCSORG
 10
0.0
 20
0.0
 30
0.0
  9
$UCSXDIR
 10
1.0
 20
0.0
 30
0.0
  9
$UCSYDIR
 10
0.0
 20
1.0
 30
0.0
  9
$UCSORTHOREF
  2

  9
$UCSORTHOVIEW
 70
     0
  9
$UCSORGTOP
 10
0.0
 20
0.0
 30
0.0
  9
$UCSORGBOTTOM
 10
0.0
 20
0.0
 30
0.0
  9
$UCSORGLEFT
 10
0.0
 20
0.0
 30
0.0
  9
$UCSORGRIGHT
 10
0.0
 20
0.0
 30
0.0
  9
$UCSORGFRONT
 10
0.0
 20
0.0
 30
0.0
  9
$UCSORGBACK
 10
0.0
 20
0.0
 30
0.0
  9
$PUCSBASE
  2

  9
$PUCSNAME
  2

  9
$PUCSORG
 10
0.0
 20
0.0
 30
0.0
  9
$PUCSXDIR
 10
1.0
 20
0.0
 30
0.0
  9
$PUCSYDIR
 10
0.0
 20
1.0
 30
0.0
  9
$PUCSORTHOREF
  2

  9
$PUCSORTHOVIEW
 70
     0
  9
$PUCSORGTOP
 10
0.0
 20
0.0
 30
0.0
  9
$PUCSORGBOTTOM
 10
0.0
 20
0.0
 30
0.0
  9
$PUCSORGLEFT
 10
0.0
 20
0.0
 30
0.0
  9
$PUCSORGRIGHT
 10
0.0
 20
0.0
 30
0.0
  9
$PUCSORGFRONT
 10
0.0
 20
0.0
 30
0.0
  9
$PUCSORGBACK
 10
0.0
 20
0.0
 30
0.0
  9
$USERI1
 70
     0
  9
$USERI2
 70
     0
  9
$USERI3
 70
     0
  9
$USERI4
 70
     0
  9
$USERI5
 70
     0
  9
$USERR1
 40
0.0
  9
$USERR2
 40
0.0
  9
$USERR3
 40
0.0
  9
$USERR4
 40
0.0
  9
$USERR5
 40
0.0
  9
$WORLDVIEW
 70
     1
  9
$SHADEDGE
 70
     3
  9
$SHADEDIF
 70
    70
  9
$TILEMODE
 70
     1
  9
$MAXACTVP
 70
    64
  9
$PINSBASE
 10
0.0
 20
0.0
 30
0.0
  9
$PLIMCHECK
 70
     0
  9
$PEXTMIN
 10
1.000000000000000E+20
 20
1.000000000000000E+20
 30
1.000000000000000E+20
  9
$PEXTMAX
 10
-1.000000000000000E+20
 20
-1.000000000000000E+20
 30
-1.000000000000000E+20
  9
$PLIMMIN
 10
0.0
 20
0.0
  9
$PLIMMAX
 10
12.0
 20
9.0
  9
$UNITMODE
 70
     0
  9
$VISRETAIN
 70
     1
  9
$PLINEGEN
 70
     0
  9
$PSLTSCALE
 70
     1
  9
$TREEDEPTH
 70
  3020
  9
$CMLSTYLE
  2
Standard
  9
$CMLJUST
 70
     0
  9
$CMLSCALE
 40
1.0
  9
$PROXYGRAPHICS
 70
     1
  9
$MEASUREMENT
 70
     0
  9
$CELWEIGHT
370
    -1
  9
$ENDCAPS
280
     0
  9
$JOINSTYLE
280
     0
  9
$LWDISPLAY
290
     1
  9
$INSUNITS
 70
     1
  9
$HYPERLINKBASE
  1

  9
$STYLESHEET
  1

  9
$XEDIT
290
     1
  9
$CEPSNTYPE
380
     0
  9
$PSTYLEMODE
290
     1
  9
$FINGERPRINTGUID
  2
{D2B8A454-E5F1-0705-D95E-99C2A3F28359}
  9
$VERSIONGUID
  2
{FAEB1C32-E019-11D5-929B-00C0DF256EC4}
  9
$EXTNAMES
290
     1
  9
$PSVPSCALE
 40
0.0
  9
$OLESTARTUP
290
     0
  9
$SORTENTS
280
   127
  9
$INDEXCTL
280
     0
  9
$HIDETEXT
280
     1
  9
$XCLIPFRAME
280
     2
  9
$HALOGAP
280
     0
  9
$OBSCOLOR
 70
   257
  9
$OBSLTYPE
280
     0
  9
$INTERSECTIONDISPLAY
280
     0
  9
$INTERSECTIONCOLOR
 70
   257
  9
$DIMASSOC
280
     2
  9
$PROJECTNAME
  1

  9
$CAMERADISPLAY
290
     0
  9
$LENSLENGTH
 40
50.0
  9
$CAMERAHEIGHT
 40
0.0
  9
$STEPSPERSEC
 40
2.0
  9
$STEPSIZE
 40
6.0
  9
$3DDWFPREC
 40
2.0
  9
$PSOLWIDTH
 40
0.25
  9
$PSOLHEIGHT
 40
4.0
  9
$LOFTANG1
 40
1.570796326794897
  9
$LOFTANG2
 40
1.570796326794897
  9
$LOFTMAG1
 40
0.0
  9
$LOFTMAG2
 40
0.0
  9
$LOFTPARAM
 70
     7
  9
$LOFTNORMALS
280
     1
  9
$LATITUDE
 40
37.795
  9
$LONGITUDE
 40
-122.394
  9
$NORTHDIRECTION
 40
0.0
  9
$TIMEZONE
 70
 -8000
  9
$LIGHTGLYPHDISPLAY
280
     1
  9
$TILEMODELIGHTSYNCH
280
     1
  9
$CMATERIAL
347
3C
  9
$SOLIDHIST
280
     1
  9
$SHOWHIST
280
     1
  9
$DWFFRAME
280
     2
  9
$DGNFRAME
280
     2
  9
$REALWORLDSCALE
290
     1
  9
$INTERFERECOLOR
 62
   256
  9
$CSHADOW
280
     0
  9
$SHADOWPLANELOCATION
 40
0.0
  0
ENDSEC
  0
SECTION
  2
CLASSES
  0
CLASS
  1
ACDBDICTIONARYWDFLT
  2
AcDbDictionaryWithDefault
  3
ObjectDBX Classes
 90
        0
 91
        4
280
     0
281
     0
  0
CLASS
  1
VISUALSTYLE
  2
AcDbVisualStyle
  3
ObjectDBX Classes
 90
     4095
 91
        4
280
     0
281
     0
  0
CLASS
  1
MATERIAL
  2
AcDbMaterial
  3
ObjectDBX Classes
 90
     1153
 91
        4
280
     0
281
     0
  0
CLASS
  1
SUN
  2
AcDbSun
  3
SCENEOE
 90
     1024
 91
        4
280
     0
281
     0
  0
ENDSEC
  0
SECTION
  2
TABLES
  0
TABLE
  2
VPORT
  5
8
330
0
100
AcDbSymbolTable
 70
     1
  0
VPORT
  5
29
330
8
100
AcDbSymbolTableRecord
100
AcDbViewportTableRecord
  2
*Active
 70
     0
 10
0.0
 20
0.0
 11
1.0
 21
1.0
 12
0.0
 22
0.0
 13
0.0
 23
0.0
 14
0.5
 24
0.5
 15
0.5
 25
0.5
 16
0.0
 26
0.0
 36
1.0
 17
50.0
 27
62.5
 37
0.0
 40
125.0
 41
0.8
 42
50.0
 43
0.0
 44
0.0
 50
0.0
 51
0.0
 71
     0
 72
   100
 73
     1
 74
     3
 75
     0
 76
     0
 77
     0
 78
     0
281
     0
 65
     1
110
0.0
120
0.0
130
0.0
111
1.0
121
0.0
131
0.0
112
0.0
122
1.0
132
0.0
 79
     0
146
0.0
 60
     3
 61
     5
292
     1
282
     1
141
0.0
142
0.0
 63
   250
361
3F
  0
ENDTAB
  0
TABLE
  2
LTYPE
  5
5
330
0
100
AcDbSymbolTable
 70
     1
  0
LTYPE
  5
14
330
5
100
AcDbSymbolTableRecord
100
AcDbLinetypeTableRecord
  2
ByBlock
 70
     0
  3

 72
    65
 73
     0
 40
0.0
  0
LTYPE
  5
15
330
5
100
AcDbSymbolTableRecord
100
AcDbLinetypeTableRecord
  2
ByLayer
 70
     0
  3

 72
    65
 73
     0
 40
0.0
  0
LTYPE
  5
16
330
5
100
AcDbSymbolTableRecord
100
AcDbLinetypeTableRecord
  2
Continuous
 70
     0
  3
Solid line
 72
    65
 73
     0
 40
0.0
  0
ENDTAB
  0
TABLE
  2
LAYER
  5
2
330
0
100
AcDbSymbolTable
 70
     2
  0
LAYER
  5
10
330
2
100
AcDbSymbolTableRecord
100
AcDbLayerTableRecord
  2
0
 70
     0
 62
     7
  6
Continuous
370
    -3
390
F
347
3E
  0
LAYER
  5
40
330
2
100
AcDbSymbolTableRecord
100
AcDbLayerTableRecord
  2
Layer 1
 70
     0
 62
     7
  6
Continuous
370
    -3
390
F
347
3E
  0
ENDTAB
  0
TABLE
  2
STYLE
  5
3
330
0
100
AcDbSymbolTable
 70
     1
  0
STYLE
  5
11
330
3
100
AcDbSymbolTableRecord
100
AcDbTextStyleTableRecord
  2
Standard
 70
     0
 40
0.0
 41
1.0
 50
0.0
 71
     0
 42
0.2
  3
txt
  4

  0
ENDTAB
  0
TABLE
  2
VIEW
  5
6
330
0
100
AcDbSymbolTable
 70
     0
  0
ENDTAB
  0
TABLE
  2
UCS
  5
7
330
0
100
AcDbSymbolTable
 70
     0
  0
ENDTAB
  0
TABLE
  2
APPID
  5
9
330
0
100
AcDbSymbolTable
 70
     1
  0
APPID
  5
12
330
9
100
AcDbSymbolTableRecord
100
AcDbRegAppTableRecord
  2
ACAD
 70
     0
  0
ENDTAB
  0
TABLE
  2
DIMSTYLE
  5
A
330
0
100
AcDbSymbolTable
 70
     1
100
AcDbDimStyleTable
  0
DIMSTYLE
105
27
330
A
100
AcDbSymbolTableRecord
100
AcDbDimStyleTableRecord
  2
Standard
 70
     0
178
     0
340
11
  0
ENDTAB
  0
TABLE
  2
BLOCK_RECORD
  5
1
330
0
100
AcDbSymbolTable
 70
     1
  0
BLOCK_RECORD
  5
1F
330
1
100
AcDbSymbolTableRecord
100
AcDbBlockTableRecord
  2
*Model_Space
340
22
 70
     0
280
     1
281
     0
  0
BLOCK_RECORD
  5
1B
330
1
100
AcDbSymbolTableRecord
100
AcDbBlockTableRecord
  2
*Paper_Space
340
1E
 70
     0
280
     1
281
     0
  0
BLOCK_RECORD
  5
23
330
1
100
AcDbSymbolTableRecord
100
AcDbBlockTableRecord
  2
*Paper_Space0
340
26
 70
     0
280
     1
281
     0
  0
ENDTAB
  0
ENDSEC
  0
SECTION
  2
BLOCKS
  0
BLOCK
  5
20
330
1F
100
AcDbEntity
  8
0
100
AcDbBlockBegin
  2
*Model_Space
 70
     0
 10
0.0
 20
0.0
 30
0.0
  3
*Model_Space
  1

  0
ENDBLK
  5
21
330
1F
100
AcDbEntity
  8
0
100
AcDbBlockEnd
  0
BLOCK
  5
1C
330
1B
100
AcDbEntity
 67
     1
  8
0
100
AcDbBlockBegin
  2
*Paper_Space
 70
     0
 10
0.0
 20
0.0
 30
0.0
  3
*Paper_Space
  1

  0
ENDBLK
  5
1D
330
1B
100
AcDbEntity
 67
     1
  8
0
100
AcDbBlockEnd
  0
BLOCK
  5
24
330
23
100
AcDbEntity
  8
0
100
AcDbBlockBegin
  2
*Paper_Space0
 70
     0
 10
0.0
 20
0.0
 30
0.0
  3
*Paper_Space0
  1

  0
ENDBLK
  5
25
330
23
100
AcDbEntity
  8
0
100
AcDbBlockEnd
  0
ENDSEC
  0
SECTION
  2
ENTITIES
  0
SPLINE
  5
41
330
1F
100
AcDbEntity
  8
Layer 1
370
     0
100
AcDbSpline
210
0.0
220
0.0
230
1.0
 70
    11
 71
     3
 72
   173
 73
   169
 74
     0
 42
0.0000000001
 43
0.0000000001
 12
1.0
 22
0.0
 32
0.0
 13
1.0
 23
0.0
 33
0.0
 40
0.0
 40
0.0
 40
0.0
 40
0.0
 40
1.0
 40
1.0
 40
1.0
 40
2.0
 40
2.0
 40
2.0
 40
3.0
 40
3.0
 40
3.0
 40
4.0
 40
4.0
 40
4.0
 40
5.0
 40
5.0
 40
5.0
 40
6.0
 40
6.0
 40
6.0
 40
7.0
 40
7.0
 40
7.0
 40
8.0
 40
8.0
 40
8.0
 40
9.0
 40
9.0
 40
9.0
 40
10.0
 40
10.0
 40
10.0
 40
11.0
 40
11.0
 40
11.0
 40
12.0
 40
12.0
 40
12.0
 40
13.0
 40
13.0
 40
13.0
 40
14.0
 40
14.0
 40
14.0
 40
15.0
 40
15.0
 40
15.0
 40
16.0
 40
16.0
 40
16.0
 40
17.0
 40
17.0
 40
17.0
 40
18.0
 40
18.0
 40
18.0
 40
19.0
 40
19.0
 40
19.0
 40
20.0
 40
20.0
 40
20.0
 40
21.0
 40
21.0
 40
21.0
 40
22.0
 40
22.0
 40
22.0
 40
23.0
 40
23.0
 40
23.0
 40
24.0
 40
24.0
 40
24.0
 40
25.0
 40
25.0
 40
25.0
 40
26.0
 40
26.0
 40
26.0
 40
27.0
 40
27.0
 40
27.0
 40
28.0
 40
28.0
 40
28.0
 40
29.0
 40
29.0
 40
29.0
 40
30.0
 40
30.0
 40
30.0
 40
31.0
 40
31.0
 40
31.0
 40
32.0
 40
32.0
 40
32.0
 40
33.0
 40
33.0
 40
33.0
 40
34.0
 40
34.0
 40
34.0
 40
35.0
 40
35.0
 40
35.0
 40
36.0
 40
36.0
 40
36.0
 40
37.0
 40
37.0
 40
37.0
 40
38.0
 40
38.0
 40
38.0
 40
39.0
 40
39.0
 40
39.0
 40
40.0
 40
40.0
 40
40.0
 40
41.0
 40
41.0
 40
41.0
 40
42.0
 40
42.0
 40
42.0
 40
43.0
 40
43.0
 40
43.0
 40
44.0
 40
44.0
 40
44.0
 40
45.0
 40
45.0
 40
45.0
 40
46.0
 40
46.0
 40
46.0
 40
47.0
 40
47.0
 40
47.0
 40
48.0
 40
48.0
 40
48.0
 40
49.0
 40
49.0
 40
49.0
 40
50.0
 40
50.0
 40
50.0
 40
51.0
 40
51.0
 40
51.0
 40
52.0
 40
52.0
 40
52.0
 40
53.0
 40
53.0
 40
53.0
 40
54.0
 40
54.0
 40
54.0
 40
55.0
 40
55.0
 40
55.0
 40
56.0
 40
56.0
 40
56.0
 40
56.0
 10
88.6525359604093
 20
76.89398193359375
 30
0.0
 10
88.40955500337805
 20
77.05197143554688
 30
0.0
 10
88.09253840181555
 20
77.0469970703125
 30
0.0
 10
87.8555388900968
 20
76.87997436523438
 30
0.0
 10
87.8555388900968
 20
76.87997436523438
 30
0.0
 10
77.38254694673742
 20
69.49996948242188
 30
0.0
 10
77.38254694673742
 20
69.49996948242188
 30
0.0
 10
77.38254694673742
 20
69.49996948242188
 30
0.0
 10
40.49353937837805
 20
90.42996215820312
 30
0.0
 10
40.49353937837805
 20
90.42996215820312
 30
0.0
 10
40.49353937837805
 20
90.42996215820312
 30
0.0
 10
39.5745330307218
 20
101.4459533691406
 30
0.0
 10
39.5745330307218
 20
101.4459533691406
 30
0.0
 10
39.56553034517492
 20
101.5569458007812
 30
0.0
 10
39.52951960298742
 20
101.6649475097656
 30
0.0
 10
39.4705291244718
 20
101.7599487304688
 30
0.0
 10
39.4705291244718
 20
101.7599487304688
 30
0.0
 10
29.7825408432218
 20
117.4209594726562
 30
0.0
 10
29.7825408432218
 20
117.4209594726562
 30
0.0
 10
29.77555231783117
 20
117.4319458007812
 30
0.0
 10
29.76255182954992
 20
117.4349670410156
 30
0.0
 10
29.7565398666593
 20
117.4449462890625
 30
0.0
 10
29.6945281479093
 20
117.533935546875
 30
0.0
 10
29.61353449556555
 20
117.6029357910156
 30
0.0
 10
29.5215545150968
 20
117.6559448242188
 30
0.0
 10
29.50956110689367
 20
117.6619567871094
 30
0.0
 10
29.49955134126867
 20
117.6679382324219
 30
0.0
 10
29.48755793306555
 20
117.6739501953125
 30
0.0
 10
29.3965545150968
 20
117.7189636230469
 30
0.0
 10
29.29956965181555
 20
117.7429504394531
 30
0.0
 10
29.19556574556555
 20
117.7439575195312
 30
0.0
 10
29.17856745454992
 20
117.7449645996094
 30
0.0
 10
29.16455988619055
 20
117.7559509277344
 30
0.0
 10
29.14756159517492
 20
117.7559509277344
 30
0.0
 10
29.13956598970617
 20
117.7559509277344
 30
0.0
 10
29.13355402681555
 20
117.7489624023438
 30
0.0
 10
29.12656550142492
 20
117.7489624023438
 30
0.0
 10
29.11557917329992
 20
117.7479553222656
 30
0.0
 10
29.10657648775305
 20
117.7529602050781
 30
0.0
 10
29.09656672212805
 20
117.7509765625
 30
0.0
 10
29.09656672212805
 20
117.7509765625
 30
0.0
 10
14.68055109712805
 20
116.0019836425781
 30
0.0
 10
14.68055109712805
 20
116.0019836425781
 30
0.0
 10
14.32456354829992
 20
115.958984375
 30
0.0
 10
14.05655817720617
 20
115.656982421875
 30
0.0
 10
14.05655817720617
 20
115.2989807128906
 30
0.0
 10
14.05655817720617
 20
115.2989807128906
 30
0.0
 10
14.05655817720617
 20
109.8779907226562
 30
0.0
 10
14.05655817720617
 20
109.8779907226562
 30
0.0
 10
14.05655817720617
 20
109.6059875488281
 30
0.0
 10
14.21256403658117
 20
109.3569946289062
 30
0.0
 10
14.45755915376867
 20
109.2389831542969
 30
0.0
 10
14.45755915376867
 20
109.2389831542969
 30
0.0
 10
22.5735564682218
 20
105.323974609375
 30
0.0
 10
22.5735564682218
 20
105.323974609375
 30
0.0
 10
22.5735564682218
 20
105.323974609375
 30
0.0
 10
11.09354548189367
 20
82.1829833984375
 30
0.0
 10
11.09354548189367
 20
82.1829833984375
 30
0.0
 10
11.08255915376867
 20
82.16098022460938
 30
0.0
 10
11.0795379135343
 20
82.13699340820312
 30
0.0
 10
11.07254938814367
 20
82.114990234375
 30
0.0
 10
11.06156306001867
 20
82.08798217773438
 30
0.0
 10
11.0525603744718
 20
82.06100463867188
 30
0.0
 10
11.04654841158117
 20
82.03298950195312
 30
0.0
 10
11.0325408432218
 20
81.97299194335938
 30
0.0
 10
11.0265593979093
 20
81.91497802734375
 30
0.0
 10
11.0275359604093
 20
81.85498046875
 30
0.0
 10
11.02854304048742
 20
81.83197021484375
 30
0.0
 10
11.02552180025305
 20
81.80899047851562
 30
0.0
 10
11.0275359604093
 20
81.7869873046875
 30
0.0
 10
11.0375457260343
 20
81.70498657226562
 30
0.0
 10
11.0585418197843
 20
81.625
 30
0.0
 10
11.09653620454992
 20
81.55099487304688
 30
0.0
 10
11.10254816744055
 20
81.53900146484375
 30
0.0
 10
11.11252741548742
 20
81.52999877929688
 30
0.0
 10
11.11853937837805
 20
81.51800537109375
 30
0.0
 10
11.1465545150968
 20
81.468994140625
 30
0.0
 10
11.17554621431555
 20
81.4210205078125
 30
0.0
 10
11.2155242416593
 20
81.37899780273438
 30
0.0
 10
11.22751764986242
 20
81.36700439453125
 30
0.0
 10
11.2415252182218
 20
81.3599853515625
 30
0.0
 10
11.25351862642492
 20
81.35000610351562
 30
0.0
 10
11.2625213119718
 20
81.34201049804688
 30
0.0
 10
11.26551203462805
 20
81.33099365234375
 30
0.0
 10
11.27451472017492
 20
81.32501220703125
 30
0.0
 10
11.27451472017492
 20
81.32501220703125
 30
0.0
 10
25.6325164291593
 20
69.33102416992188
 30
0.0
 10
25.6325164291593
 20
69.33102416992188
 30
0.0
 10
25.6325164291593
 20
69.33102416992188
 30
0.0
 10
23.50150446626867
 20
58.42303466796875
 30
0.0
 10
23.50150446626867
 20
58.42303466796875
 30
0.0
 10
23.4605193588468
 20
58.21502685546875
 30
0.0
 10
23.51551203462805
 20
58.00003051757812
 30
0.0
 10
23.64951472017492
 20
57.8370361328125
 30
0.0
 10
23.78452448579992
 20
57.67303466796875
 30
0.0
 10
23.98450617525305
 20
57.57803344726562
 30
0.0
 10
24.19651179048742
 20
57.57803344726562
 30
0.0
 10
24.19651179048742
 20
57.57803344726562
 30
0.0
 10
27.97452692720617
 20
57.57803344726562
 30
0.0
 10
27.97452692720617
 20
57.57803344726562
 30
0.0
 10
27.97452692720617
 20
57.57803344726562
 30
0.0
 10
27.9085174057218
 20
56.16403198242188
 30
0.0
 10
27.9085174057218
 20
56.16403198242188
 30
0.0
 10
27.90751032564367
 20
56.13201904296875
 30
0.0
 10
27.92051081392492
 20
56.10202026367188
 30
0.0
 10
27.9235320541593
 20
56.071044921875
 30
0.0
 10
27.9285369369718
 20
56.01205444335938
 30
0.0
 10
27.93152765962805
 20
55.95504760742188
 30
0.0
 10
27.9495330307218
 20
55.90005493164062
 30
0.0
 10
27.96253351900305
 20
55.86404418945312
 30
0.0
 10
27.9855437729093
 20
55.83505249023438
 30
0.0
 10
28.00452570650305
 20
55.80105590820312
 30
0.0
 10
28.02951960298742
 20
55.75204467773438
 30
0.0
 10
28.0545134994718
 20
55.70306396484375
 30
0.0
 10
28.09153132173742
 20
55.66104125976562
 30
0.0
 10
28.09653620454992
 20
55.655029296875
 30
0.0
 10
28.09851984712805
 20
55.64602661132812
 30
0.0
 10
28.10453181001867
 20
55.64004516601562
 30
0.0
 10
28.12952570650305
 20
55.61404418945312
 30
0.0
 10
28.16553644869055
 20
55.60003662109375
 30
0.0
 10
28.19352106783117
 20
55.57803344726562
 30
0.0
 10
28.2265105697843
 20
55.55303955078125
 30
0.0
 10
28.2525115463468
 20
55.51904296875
 30
0.0
 10
28.29050593111242
 20
55.50003051757812
 30
0.0
 10
28.29050593111242
 20
55.50003051757812
 30
0.0
 10
39.49149470064367
 20
49.67202758789062
 30
0.0
 10
39.49149470064367
 20
49.67202758789062
 30
0.0
 10
39.59549860689367
 20
49.6180419921875
 30
0.0
 10
39.70749811861242
 20
49.592041015625
 30
0.0
 10
39.81748347017492
 20
49.592041015625
 30
0.0
 10
40.06748347017492
 20
49.592041015625
 30
0.0
 10
40.30848078462805
 20
49.72402954101562
 30
0.0
 10
40.43747858736242
 20
49.9560546875
 30
0.0
 10
40.43747858736242
 20
49.9560546875
 30
0.0
 10
43.47947077486242
 20
55.4200439453125
 30
0.0
 10
43.47947077486242
 20
55.4200439453125
 30
0.0
 10
43.47947077486242
 20
55.4200439453125
 30
0.0
 10
68.5464568588468
 20
55.4200439453125
 30
0.0
 10
68.5464568588468
 20
55.4200439453125
 30
0.0
 10
68.6504607650968
 20
55.4200439453125
 30
0.0
 10
68.75345759126867
 20
55.44305419921875
 30
0.0
 10
68.84745173189367
 20
55.48703002929688
 30
0.0
 10
68.84745173189367
 20
55.48703002929688
 30
0.0
 10
86.07947687837805
 20
63.572021484375
 30
0.0
 10
86.07947687837805
 20
63.572021484375
 30
0.0
 10
86.1134734604093
 20
63.58901977539062
 30
0.0
 10
86.14148859712805
 20
63.61300659179688
 30
0.0
 10
86.17347101900305
 20
63.634033203125
 30
0.0
 10
86.19446711275305
 20
63.64804077148438
 30
0.0
 10
86.21546320650305
 20
63.65802001953125
 30
0.0
 10
86.2344451400968
 20
63.67404174804688
 30
0.0
 10
86.2914519760343
 20
63.7220458984375
 30
0.0
 10
86.3394256088468
 20
63.77603149414062
 30
0.0
 10
86.3794646713468
 20
63.83804321289062
 30
0.0
 10
86.38648371431555
 20
63.84805297851562
 30
0.0
 10
86.3894744369718
 20
63.86004638671875
 30
0.0
 10
86.3954558822843
 20
63.87203979492188
 30
0.0
 10
86.4254851791593
 20
63.92703247070312
 30
0.0
 10
86.45044855806555
 20
63.98504638671875
 30
0.0
 10
86.4644256088468
 20
64.04702758789062
 30
0.0
 10
86.46643976900305
 20
64.0560302734375
 30
0.0
 10
86.47242121431555
 20
64.06301879882812
 30
0.0
 10
86.4744353744718
 20
64.07101440429688
 30
0.0
 10
86.4744353744718
 20
64.07101440429688
 30
0.0
 10
88.9584441635343
 20
76.15701293945312
 30
0.0
 10
88.9584441635343
 20
76.15701293945312
 30
0.0
 10
89.0175261947843
 20
76.4429931640625
 30
0.0
 10
88.89551691744055
 20
76.7349853515625
 30
0.0
 10
88.6525359604093
 20
76.89398193359375
 30
0.0
  0
POLYLINE
  5
42
330
1F
100
AcDbEntity
  8
Layer 1
370
     0
100
AcDb2dPolyline
 66
     1
 10
0.0
 20
0.0
 30
0.0
  0
VERTEX
  5
43
330
42
100
AcDbEntity
  8
Layer 1
370
     0
100
AcDbVertex
100
AcDb2dVertex
 10
67.50052790376867
 20
73.47799682617188
 30
0.0
  0
VERTEX
  5
44
330
42
100
AcDbEntity
  8
Layer 1
370
     0
100
AcDbVertex
100
AcDb2dVertex
 10
40.87754206392492
 20
85.83200073242188
 30
0.0
  0
VERTEX
  5
45
330
42
100
AcDbEntity
  8
Layer 1
370
     0
100
AcDbVertex
100
AcDb2dVertex
 10
40.63755182954992
 20
88.72000122070312
 30
0.0
  0
VERTEX
  5
46
330
42
100
AcDbEntity
  8
Layer 1
370
     0
100
AcDbVertex
100
AcDb2dVertex
 10
67.50052790376867
 20
73.47799682617188
 30
0.0
  0
SEQEND
  5
47
330
42
100
AcDbEntity
  8
Layer 1
370
     0
  0
POLYLINE
  5
48
330
1F
100
AcDbEntity
  8
Layer 1
370
     0
100
AcDb2dPolyline
 66
     1
 10
0.0
 20
0.0
 30
0.0
  0
VERTEX
  5
49
330
48
100
AcDbEntity
  8
Layer 1
370
     0
100
AcDbVertex
100
AcDb2dVertex
 10
15.4755340072843
 20
110.322998046875
 30
0.0
  0
VERTEX
  5
4A
330
48
100
AcDbEntity
  8
Layer 1
370
     0
100
AcDbVertex
100
AcDb2dVertex
 10
15.4755340072843
 20
114.6709899902344
 30
0.0
  0
VERTEX
  5
4B
330
48
100
AcDbEntity
  8
Layer 1
370
     0
100
AcDbVertex
100
AcDb2dVertex
 10
27.96354059908117
 20
116.1869812011719
 30
0.0
  0
VERTEX
  5
4C
330
48
100
AcDbEntity
  8
Layer 1
370
     0
100
AcDbVertex
100
AcDb2dVertex
 10
23.2045379135343
 20
106.594970703125
 30
0.0
  0
VERTEX
  5
4D
330
48
100
AcDbEntity
  8
Layer 1
370
     0
100
AcDbVertex
100
AcDb2dVertex
 10
15.4755340072843
 20
110.322998046875
 30
0.0
  0
SEQEND
  5
4E
330
48
100
AcDbEntity
  8
Layer 1
370
     0
  0
SPLINE
  5
4F
330
1F
100
AcDbEntity
  8
Layer 1
370
     0
100
AcDbSpline
210
0.0
220
0.0
230
1.0
 70
    11
 71
     3
 72
    38
 73
    34
 74
     0
 42
0.0000000001
 43
0.0000000001
 12
1.0
 22
0.0
 32
0.0
 13
1.0
 23
0.0
 33
0.0
 40
0.0
 40
0.0
 40
0.0
 40
0.0
 40
1.0
 40
1.0
 40
1.0
 40
2.0
 40
2.0
 40
2.0
 40
3.0
 40
3.0
 40
3.0
 40
4.0
 40
4.0
 40
4.0
 40
5.0
 40
5.0
 40
5.0
 40
6.0
 40
6.0
 40
6.0
 40
7.0
 40
7.0
 40
7.0
 40
8.0
 40
8.0
 40
8.0
 40
9.0
 40
9.0
 40
9.0
 40
10.0
 40
10.0
 40
10.0
 40
11.0
 40
11.0
 40
11.0
 40
11.0
 10
29.25052790376867
 20
115.5909729003906
 30
0.0
 10
29.25052790376867
 20
115.5909729003906
 30
0.0
 10
38.17752985689367
 20
101.157958984375
 30
0.0
 10
38.17752985689367
 20
101.157958984375
 30
0.0
 10
38.17752985689367
 20
101.157958984375
 30
0.0
 10
39.39853815767492
 20
86.5179443359375
 30
0.0
 10
39.39853815767492
 20
86.5179443359375
 30
0.0
 10
39.39853815767492
 20
86.5179443359375
 30
0.0
 10
30.51554255220617
 20
90.63995361328125
 30
0.0
 10
30.51554255220617
 20
90.63995361328125
 30
0.0
 10
30.49955134126867
 20
90.64694213867188
 30
0.0
 10
30.48255305025305
 20
90.64495849609375
 30
0.0
 10
30.46653132173742
 20
90.65093994140625
 30
0.0
 10
30.40451960298742
 20
90.6739501953125
 30
0.0
 10
30.34153132173742
 20
90.68994140625
 30
0.0
 10
30.27353815767492
 20
90.6949462890625
 30
0.0
 10
30.2415252182218
 20
90.69793701171875
 30
0.0
 10
30.21152643892492
 20
90.69894409179688
 30
0.0
 10
30.17954401704992
 20
90.69696044921875
 30
0.0
 10
30.15555720064367
 20
90.69595336914062
 30
0.0
 10
30.1315398666593
 20
90.70196533203125
 30
0.0
 10
30.10654597017492
 20
90.69796752929688
 30
0.0
 10
30.06455378267492
 20
90.69097900390625
 30
0.0
 10
30.02854304048742
 20
90.67196655273438
 30
0.0
 10
29.98954157564367
 20
90.657958984375
 30
0.0
 10
29.9705291244718
 20
90.65097045898438
 30
0.0
 10
29.95154719087805
 20
90.65396118164062
 30
0.0
 10
29.93253473970617
 20
90.64596557617188
 30
0.0
 10
29.93253473970617
 20
90.64596557617188
 30
0.0
 10
13.23252253267492
 20
83.302978515625
 30
0.0
 10
13.23252253267492
 20
83.302978515625
 30
0.0
 10
13.23252253267492
 20
83.302978515625
 30
0.0
 10
29.25052790376867
 20
115.5909729003906
 30
0.0
 10
29.25052790376867
 20
115.5909729003906
 30
0.0
  0
POLYLINE
  5
50
330
1F
100
AcDbEntity
  8
Layer 1
370
     0
100
AcDb2dPolyline
 66
     1
 10
0.0
 20
0.0
 30
0.0
  0
VERTEX
  5
51
330
50
100
AcDbEntity
  8
Layer 1
370
     0
100
AcDbVertex
100
AcDb2dVertex
 10
13.0595183822843
 20
81.67999267578125
 30
0.0
  0
VERTEX
  5
52
330
50
100
AcDbEntity
  8
Layer 1
370
     0
100
AcDbVertex
100
AcDb2dVertex
 10
29.4555144760343
 20
88.88900756835938
 30
0.0
  0
VERTEX
  5
53
330
50
100
AcDbEntity
  8
Layer 1
370
     0
100
AcDbVertex
100
AcDb2dVertex
 10
28.50550226900305
 20
68.77700805664062
 30
0.0
  0
VERTEX
  5
54
330
50
100
AcDbEntity
  8
Layer 1
370
     0
100
AcDbVertex
100
AcDb2dVertex
 10
13.0595183822843
 20
81.67999267578125
 30
0.0
  0
SEQEND
  5
55
330
50
100
AcDbEntity
  8
Layer 1
370
     0
  0
SPLINE
  5
56
330
1F
100
AcDbEntity
  8
Layer 1
370
     0
100
AcDbSpline
210
0.0
220
0.0
230
1.0
 70
    11
 71
     3
 72
    20
 73
    16
 74
     0
 42
0.0000000001
 43
0.0000000001
 12
1.0
 22
0.0
 32
0.0
 13
1.0
 23
0.0
 33
0.0
 40
0.0
 40
0.0
 40
0.0
 40
0.0
 40
1.0
 40
1.0
 40
1.0
 40
2.0
 40
2.0
 40
2.0
 40
3.0
 40
3.0
 40
3.0
 40
4.0
 40
4.0
 40
4.0
 40
5.0
 40
5.0
 40
5.0
 40
5.0
 10
29.84351496431555
 20
67.04998779296875
 30
0.0
 10
29.88950495454992
 20
67.177978515625
 30
0.0
 10
29.89151911470617
 20
67.31198120117188
 30
0.0
 10
29.86252741548742
 20
67.4429931640625
 30
0.0
 10
29.86252741548742
 20
67.4429931640625
 30
0.0
 10
30.76453547212805
 20
86.5579833984375
 30
0.0
 10
30.76453547212805
 20
86.5579833984375
 30
0.0
 10
30.76453547212805
 20
86.5579833984375
 30
0.0
 10
42.03653864595617
 20
56.8389892578125
 30
0.0
 10
42.03653864595617
 20
56.8389892578125
 30
0.0
 10
42.03653864595617
 20
56.8389892578125
 30
0.0
 10
29.3605437729093
 20
56.8389892578125
 30
0.0
 10
29.3605437729093
 20
56.8389892578125
 30
0.0
 10
29.3605437729093
 20
56.8389892578125
 30
0.0
 10
29.84351496431555
 20
67.04998779296875
 30
0.0
 10
29.84351496431555
 20
67.04998779296875
 30
0.0
  0
POLYLINE
  5
57
330
1F
100
AcDbEntity
  8
Layer 1
370
     0
100
AcDb2dPolyline
 66
     1
 10
0.0
 20
0.0
 30
0.0
  0
VERTEX
  5
58
330
57
100
AcDbEntity
  8
Layer 1
370
     0
100
AcDbVertex
100
AcDb2dVertex
 10
25.0585418197843
 20
58.9949951171875
 30
0.0
  0
VERTEX
  5
59
330
57
100
AcDbEntity
  8
Layer 1
370
     0
100
AcDbVertex
100
AcDb2dVertex
 10
26.87354426119055
 20
68.29299926757812
 30
0.0
  0
VERTEX
  5
5A
330
57
100
AcDbEntity
  8
Layer 1
370
     0
100
AcDbVertex
100
AcDb2dVertex
 10
28.42154841158117
 20
67.0
 30
0.0
  0
VERTEX
  5
5B
330
57
100
AcDbEntity
  8
Layer 1
370
     0
100
AcDbVertex
100
AcDb2dVertex
 10
28.04355768892492
 20
58.9949951171875
 30
0.0
  0
VERTEX
  5
5C
330
57
100
AcDbEntity
  8
Layer 1
370
     0
100
AcDbVertex
100
AcDb2dVertex
 10
25.0585418197843
 20
58.9949951171875
 30
0.0
  0
SEQEND
  5
5D
330
57
100
AcDbEntity
  8
Layer 1
370
     0
  0
POLYLINE
  5
5E
330
1F
100
AcDbEntity
  8
Layer 1
370
     0
100
AcDb2dPolyline
 66
     1
 10
0.0
 20
0.0
 30
0.0
  0
VERTEX
  5
5F
330
5E
100
AcDbEntity
  8
Layer 1
370
     0
100
AcDbVertex
100
AcDb2dVertex
 10
39.53452448579992
 20
51.24798583984375
 30
0.0
  0
VERTEX
  5
60
330
5E
100
AcDbEntity
  8
Layer 1
370
     0
100
AcDbVertex
100
AcDb2dVertex
 10
31.51551203462805
 20
55.42098999023438
 30
0.0
  0
VERTEX
  5
61
330
5E
100
AcDbEntity
  8
Layer 1
370
     0
100
AcDbVertex
100
AcDb2dVertex
 10
41.8565154525968
 20
55.42098999023438
 30
0.0
  0
VERTEX
  5
62
330
5E
100
AcDbEntity
  8
Layer 1
370
     0
100
AcDbVertex
100
AcDb2dVertex
 10
39.53452448579992
 20
51.24798583984375
 30
0.0
  0
SEQEND
  5
63
330
5E
100
AcDbEntity
  8
Layer 1
370
     0
  0
POLYLINE
  5
64
330
1F
100
AcDbEntity
  8
Layer 1
370
     0
100
AcDb2dPolyline
 66
     1
 10
0.0
 20
0.0
 30
0.0
  0
VERTEX
  5
65
330
64
100
AcDbEntity
  8
Layer 1
370
     0
100
AcDbVertex
100
AcDb2dVertex
 10
68.38953547212805
 20
56.8389892578125
 30
0.0
  0
VERTEX
  5
66
330
64
100
AcDbEntity
  8
Layer 1
370
     0
100
AcDbVertex
100
AcDb2dVertex
 10
43.55252985689367
 20
56.8389892578125
 30
0.0
  0
VERTEX
  5
67
330
64
100
AcDbEntity
  8
Layer 1
370
     0
100
AcDbVertex
100
AcDb2dVertex
 10
31.49552302095617
 20
88.62399291992188
 30
0.0
  0
VERTEX
  5
68
330
64
100
AcDbEntity
  8
Layer 1
370
     0
100
AcDbVertex
100
AcDb2dVertex
 10
84.10352472994055
 20
64.21099853515625
 30
0.0
  0
VERTEX
  5
69
330
64
100
AcDbEntity
  8
Layer 1
370
     0
100
AcDbVertex
100
AcDb2dVertex
 10
68.38953547212805
 20
56.8389892578125
 30
0.0
  0
SEQEND
  5
6A
330
64
100
AcDbEntity
  8
Layer 1
370
     0
  0
POLYLINE
  5
6B
330
1F
100
AcDbEntity
  8
Layer 1
370
     0
100
AcDb2dPolyline
 66
     1
 10
0.0
 20
0.0
 30
0.0
  0
VERTEX
  5
6C
330
6B
100
AcDbEntity
  8
Layer 1
370
     0
100
AcDbVertex
100
AcDb2dVertex
 10
85.2665496322843
 20
65.2349853515625
 30
0.0
  0
VERTEX
  5
6D
330
6B
100
AcDbEntity
  8
Layer 1
370
     0
100
AcDbVertex
100
AcDb2dVertex
 10
78.34653620454992
 20
68.44598388671875
 30
0.0
  0
VERTEX
  5
6E
330
6B
100
AcDbEntity
  8
Layer 1
370
     0
100
AcDbVertex
100
AcDb2dVertex
 10
87.2095427963468
 20
74.69097900390625
 30
0.0
  0
VERTEX
  5
6F
330
6B
100
AcDbEntity
  8
Layer 1
370
     0
100
AcDbVertex
100
AcDb2dVertex
 10
85.2665496322843
 20
65.2349853515625
 30
0.0
  0
SEQEND
  5
70
330
6B
100
AcDbEntity
  8
Layer 1
370
     0
  0
HATCH
  5
71
330
1F
100
AcDbEntity
  8
Layer 1
 62
     7
420
 16777215
100
AcDbHatch
 10
0.0
 20
0.0
 30
0.0
210
0.0
220
0.0
230
1.0
  2
SOLID
 70
     1
 71
     0
 91
       10
 92
        1
 93
        1
 72
     4
 94
        3
 73
     0
 74
     1
 95
      173
 96
      169
 40
0.0
 40
0.0
 40
0.0
 40
0.0
 40
1.0
 40
1.0
 40
1.0
 40
2.0
 40
2.0
 40
2.0
 40
3.0
 40
3.0
 40
3.0
 40
4.0
 40
4.0
 40
4.0
 40
5.0
 40
5.0
 40
5.0
 40
6.0
 40
6.0
 40
6.0
 40
7.0
 40
7.0
 40
7.0
 40
8.0
 40
8.0
 40
8.0
 40
9.0
 40
9.0
 40
9.0
 40
10.0
 40
10.0
 40
10.0
 40
11.0
 40
11.0
 40
11.0
 40
12.0
 40
12.0
 40
12.0
 40
13.0
 40
13.0
 40
13.0
 40
14.0
 40
14.0
 40
14.0
 40
15.0
 40
15.0
 40
15.0
 40
16.0
 40
16.0
 40
16.0
 40
17.0
 40
17.0
 40
17.0
 40
18.0
 40
18.0
 40
18.0
 40
19.0
 40
19.0
 40
19.0
 40
20.0
 40
20.0
 40
20.0
 40
21.0
 40
21.0
 40
21.0
 40
22.0
 40
22.0
 40
22.0
 40
23.0
 40
23.0
 40
23.0
 40
24.0
 40
24.0
 40
24.0
 40
25.0
 40
25.0
 40
25.0
 40
26.0
 40
26.0
 40
26.0
 40
27.0
 40
27.0
 40
27.0
 40
28.0
 40
28.0
 40
28.0
 40
29.0
 40
29.0
 40
29.0
 40
30.0
 40
30.0
 40
30.0
 40
31.0
 40
31.0
 40
31.0
 40
32.0
 40
32.0
 40
32.0
 40
33.0
 40
33.0
 40
33.0
 40
34.0
 40
34.0
 40
34.0
 40
35.0
 40
35.0
 40
35.0
 40
36.0
 40
36.0
 40
36.0
 40
37.0
 40
37.0
 40
37.0
 40
38.0
 40
38.0
 40
38.0
 40
39.0
 40
39.0
 40
39.0
 40
40.0
 40
40.0
 40
40.0
 40
41.0
 40
41.0
 40
41.0
 40
42.0
 40
42.0
 40
42.0
 40
43.0
 40
43.0
 40
43.0
 40
44.0
 40
44.0
 40
44.0
 40
45.0
 40
45.0
 40
45.0
 40
46.0
 40
46.0
 40
46.0
 40
47.0
 40
47.0
 40
47.0
 40
48.0
 40
48.0
 40
48.0
 40
49.0
 40
49.0
 40
49.0
 40
50.0
 40
50.0
 40
50.0
 40
51.0
 40
51.0
 40
51.0
 40
52.0
 40
52.0
 40
52.0
 40
53.0
 40
53.0
 40
53.0
 40
54.0
 40
54.0
 40
54.0
 40
55.0
 40
55.0
 40
55.0
 40
56.0
 40
56.0
 40
56.0
 40
56.0
 10
88.6525359604093
 20
76.89398193359375
 10
88.40955500337805
 20
77.05197143554688
 10
88.09253840181555
 20
77.0469970703125
 10
87.8555388900968
 20
76.87997436523438
 10
87.8555388900968
 20
76.87997436523438
 10
77.38254694673742
 20
69.49996948242188
 10
77.38254694673742
 20
69.49996948242188
 10
77.38254694673742
 20
69.49996948242188
 10
40.49353937837805
 20
90.42996215820312
 10
40.49353937837805
 20
90.42996215820312
 10
40.49353937837805
 20
90.42996215820312
 10
39.5745330307218
 20
101.4459533691406
 10
39.5745330307218
 20
101.4459533691406
 10
39.56553034517492
 20
101.5569458007812
 10
39.52951960298742
 20
101.6649475097656
 10
39.4705291244718
 20
101.7599487304688
 10
39.4705291244718
 20
101.7599487304688
 10
29.7825408432218
 20
117.4209594726562
 10
29.7825408432218
 20
117.4209594726562
 10
29.77555231783117
 20
117.4319458007812
 10
29.76255182954992
 20
117.4349670410156
 10
29.7565398666593
 20
117.4449462890625
 10
29.6945281479093
 20
117.533935546875
 10
29.61353449556555
 20
117.6029357910156
 10
29.5215545150968
 20
117.6559448242188
 10
29.50956110689367
 20
117.6619567871094
 10
29.49955134126867
 20
117.6679382324219
 10
29.48755793306555
 20
117.6739501953125
 10
29.3965545150968
 20
117.7189636230469
 10
29.29956965181555
 20
117.7429504394531
 10
29.19556574556555
 20
117.7439575195312
 10
29.17856745454992
 20
117.7449645996094
 10
29.16455988619055
 20
117.7559509277344
 10
29.14756159517492
 20
117.7559509277344
 10
29.13956598970617
 20
117.7559509277344
 10
29.13355402681555
 20
117.7489624023438
 10
29.12656550142492
 20
117.7489624023438
 10
29.11557917329992
 20
117.7479553222656
 10
29.10657648775305
 20
117.7529602050781
 10
29.09656672212805
 20
117.7509765625
 10
29.09656672212805
 20
117.7509765625
 10
14.68055109712805
 20
116.0019836425781
 10
14.68055109712805
 20
116.0019836425781
 10
14.32456354829992
 20
115.958984375
 10
14.05655817720617
 20
115.656982421875
 10
14.05655817720617
 20
115.2989807128906
 10
14.05655817720617
 20
115.2989807128906
 10
14.05655817720617
 20
109.8779907226562
 10
14.05655817720617
 20
109.8779907226562
 10
14.05655817720617
 20
109.6059875488281
 10
14.21256403658117
 20
109.3569946289062
 10
14.45755915376867
 20
109.2389831542969
 10
14.45755915376867
 20
109.2389831542969
 10
22.5735564682218
 20
105.323974609375
 10
22.5735564682218
 20
105.323974609375
 10
22.5735564682218
 20
105.323974609375
 10
11.09354548189367
 20
82.1829833984375
 10
11.09354548189367
 20
82.1829833984375
 10
11.08255915376867
 20
82.16098022460938
 10
11.0795379135343
 20
82.13699340820312
 10
11.07254938814367
 20
82.114990234375
 10
11.06156306001867
 20
82.08798217773438
 10
11.0525603744718
 20
82.06100463867188
 10
11.04654841158117
 20
82.03298950195312
 10
11.0325408432218
 20
81.97299194335938
 10
11.0265593979093
 20
81.91497802734375
 10
11.0275359604093
 20
81.85498046875
 10
11.02854304048742
 20
81.83197021484375
 10
11.02552180025305
 20
81.80899047851562
 10
11.0275359604093
 20
81.7869873046875
 10
11.0375457260343
 20
81.70498657226562
 10
11.0585418197843
 20
81.625
 10
11.09653620454992
 20
81.55099487304688
 10
11.10254816744055
 20
81.53900146484375
 10
11.11252741548742
 20
81.52999877929688
 10
11.11853937837805
 20
81.51800537109375
 10
11.1465545150968
 20
81.468994140625
 10
11.17554621431555
 20
81.4210205078125
 10
11.2155242416593
 20
81.37899780273438
 10
11.22751764986242
 20
81.36700439453125
 10
11.2415252182218
 20
81.3599853515625
 10
11.25351862642492
 20
81.35000610351562
 10
11.2625213119718
 20
81.34201049804688
 10
11.26551203462805
 20
81.33099365234375
 10
11.27451472017492
 20
81.32501220703125
 10
11.27451472017492
 20
81.32501220703125
 10
25.6325164291593
 20
69.33102416992188
 10
25.6325164291593
 20
69.33102416992188
 10
25.6325164291593
 20
69.33102416992188
 10
23.50150446626867
 20
58.42303466796875
 10
23.50150446626867
 20
58.42303466796875
 10
23.4605193588468
 20
58.21502685546875
 10
23.51551203462805
 20
58.00003051757812
 10
23.64951472017492
 20
57.8370361328125
 10
23.78452448579992
 20
57.67303466796875
 10
23.98450617525305
 20
57.57803344726562
 10
24.19651179048742
 20
57.57803344726562
 10
24.19651179048742
 20
57.57803344726562
 10
27.97452692720617
 20
57.57803344726562
 10
27.97452692720617
 20
57.57803344726562
 10
27.97452692720617
 20
57.57803344726562
 10
27.9085174057218
 20
56.16403198242188
 10
27.9085174057218
 20
56.16403198242188
 10
27.90751032564367
 20
56.13201904296875
 10
27.92051081392492
 20
56.10202026367188
 10
27.9235320541593
 20
56.071044921875
 10
27.9285369369718
 20
56.01205444335938
 10
27.93152765962805
 20
55.95504760742188
 10
27.9495330307218
 20
55.90005493164062
 10
27.96253351900305
 20
55.86404418945312
 10
27.9855437729093
 20
55.83505249023438
 10
28.00452570650305
 20
55.80105590820312
 10
28.02951960298742
 20
55.75204467773438
 10
28.0545134994718
 20
55.70306396484375
 10
28.09153132173742
 20
55.66104125976562
 10
28.09653620454992
 20
55.655029296875
 10
28.09851984712805
 20
55.64602661132812
 10
28.10453181001867
 20
55.64004516601562
 10
28.12952570650305
 20
55.61404418945312
 10
28.16553644869055
 20
55.60003662109375
 10
28.19352106783117
 20
55.57803344726562
 10
28.2265105697843
 20
55.55303955078125
 10
28.2525115463468
 20
55.51904296875
 10
28.29050593111242
 20
55.50003051757812
 10
28.29050593111242
 20
55.50003051757812
 10
39.49149470064367
 20
49.67202758789062
 10
39.49149470064367
 20
49.67202758789062
 10
39.59549860689367
 20
49.6180419921875
 10
39.70749811861242
 20
49.592041015625
 10
39.81748347017492
 20
49.592041015625
 10
40.06748347017492
 20
49.592041015625
 10
40.30848078462805
 20
49.72402954101562
 10
40.43747858736242
 20
49.9560546875
 10
40.43747858736242
 20
49.9560546875
 10
43.47947077486242
 20
55.4200439453125
 10
43.47947077486242
 20
55.4200439453125
 10
43.47947077486242
 20
55.4200439453125
 10
68.5464568588468
 20
55.4200439453125
 10
68.5464568588468
 20
55.4200439453125
 10
68.6504607650968
 20
55.4200439453125
 10
68.75345759126867
 20
55.44305419921875
 10
68.84745173189367
 20
55.48703002929688
 10
68.84745173189367
 20
55.48703002929688
 10
86.07947687837805
 20
63.572021484375
 10
86.07947687837805
 20
63.572021484375
 10
86.1134734604093
 20
63.58901977539062
 10
86.14148859712805
 20
63.61300659179688
 10
86.17347101900305
 20
63.634033203125
 10
86.19446711275305
 20
63.64804077148438
 10
86.21546320650305
 20
63.65802001953125
 10
86.2344451400968
 20
63.67404174804688
 10
86.2914519760343
 20
63.7220458984375
 10
86.3394256088468
 20
63.77603149414062
 10
86.3794646713468
 20
63.83804321289062
 10
86.38648371431555
 20
63.84805297851562
 10
86.3894744369718
 20
63.86004638671875
 10
86.3954558822843
 20
63.87203979492188
 10
86.4254851791593
 20
63.92703247070312
 10
86.45044855806555
 20
63.98504638671875
 10
86.4644256088468
 20
64.04702758789062
 10
86.46643976900305
 20
64.0560302734375
 10
86.47242121431555
 20
64.06301879882812
 10
86.4744353744718
 20
64.07101440429688
 10
86.4744353744718
 20
64.07101440429688
 10
88.9584441635343
 20
76.15701293945312
 10
88.9584441635343
 20
76.15701293945312
 10
89.0175261947843
 20
76.4429931640625
 10
88.89551691744055
 20
76.7349853515625
 10
88.6525359604093
 20
76.89398193359375
 97
        0
 97
        0
 92
        1
 93
        3
 72
     1
 10
67.50052790376867
 20
73.47799682617188
 11
40.87754206392492
 21
85.83200073242188
 72
     1
 10
40.87754206392492
 20
85.83200073242188
 11
40.63755182954992
 21
88.72000122070312
 72
     1
 10
40.63755182954992
 20
88.72000122070312
 11
67.50052790376867
 21
73.47799682617188
 97
        0
 92
        1
 93
        4
 72
     1
 10
15.4755340072843
 20
110.322998046875
 11
15.4755340072843
 21
114.6709899902344
 72
     1
 10
15.4755340072843
 20
114.6709899902344
 11
27.96354059908117
 21
116.1869812011719
 72
     1
 10
27.96354059908117
 20
116.1869812011719
 11
23.2045379135343
 21
106.594970703125
 72
     1
 10
23.2045379135343
 20
106.594970703125
 11
15.4755340072843
 21
110.322998046875
 97
        0
 92
        1
 93
        1
 72
     4
 94
        3
 73
     0
 74
     1
 95
       38
 96
       34
 40
0.0
 40
0.0
 40
0.0
 40
0.0
 40
1.0
 40
1.0
 40
1.0
 40
2.0
 40
2.0
 40
2.0
 40
3.0
 40
3.0
 40
3.0
 40
4.0
 40
4.0
 40
4.0
 40
5.0
 40
5.0
 40
5.0
 40
6.0
 40
6.0
 40
6.0
 40
7.0
 40
7.0
 40
7.0
 40
8.0
 40
8.0
 40
8.0
 40
9.0
 40
9.0
 40
9.0
 40
10.0
 40
10.0
 40
10.0
 40
11.0
 40
11.0
 40
11.0
 40
11.0
 10
29.25052790376867
 20
115.5909729003906
 10
29.25052790376867
 20
115.5909729003906
 10
38.17752985689367
 20
101.157958984375
 10
38.17752985689367
 20
101.157958984375
 10
38.17752985689367
 20
101.157958984375
 10
39.39853815767492
 20
86.5179443359375
 10
39.39853815767492
 20
86.5179443359375
 10
39.39853815767492
 20
86.5179443359375
 10
30.51554255220617
 20
90.63995361328125
 10
30.51554255220617
 20
90.63995361328125
 10
30.49955134126867
 20
90.64694213867188
 10
30.48255305025305
 20
90.64495849609375
 10
30.46653132173742
 20
90.65093994140625
 10
30.40451960298742
 20
90.6739501953125
 10
30.34153132173742
 20
90.68994140625
 10
30.27353815767492
 20
90.6949462890625
 10
30.2415252182218
 20
90.69793701171875
 10
30.21152643892492
 20
90.69894409179688
 10
30.17954401704992
 20
90.69696044921875
 10
30.15555720064367
 20
90.69595336914062
 10
30.1315398666593
 20
90.70196533203125
 10
30.10654597017492
 20
90.69796752929688
 10
30.06455378267492
 20
90.69097900390625
 10
30.02854304048742
 20
90.67196655273438
 10
29.98954157564367
 20
90.657958984375
 10
29.9705291244718
 20
90.65097045898438
 10
29.95154719087805
 20
90.65396118164062
 10
29.93253473970617
 20
90.64596557617188
 10
29.93253473970617
 20
90.64596557617188
 10
13.23252253267492
 20
83.302978515625
 10
13.23252253267492
 20
83.302978515625
 10
13.23252253267492
 20
83.302978515625
 10
29.25052790376867
 20
115.5909729003906
 10
29.25052790376867
 20
115.5909729003906
 97
        0
 97
        0
 92
        1
 93
        3
 72
     1
 10
13.0595183822843
 20
81.67999267578125
 11
29.4555144760343
 21
88.88900756835938
 72
     1
 10
29.4555144760343
 20
88.88900756835938
 11
28.50550226900305
 21
68.77700805664062
 72
     1
 10
28.50550226900305
 20
68.77700805664062
 11
13.0595183822843
 21
81.67999267578125
 97
        0
 92
        1
 93
        1
 72
     4
 94
        3
 73
     0
 74
     1
 95
       20
 96
       16
 40
0.0
 40
0.0
 40
0.0
 40
0.0
 40
1.0
 40
1.0
 40
1.0
 40
2.0
 40
2.0
 40
2.0
 40
3.0
 40
3.0
 40
3.0
 40
4.0
 40
4.0
 40
4.0
 40
5.0
 40
5.0
 40
5.0
 40
5.0
 10
29.84351496431555
 20
67.04998779296875
 10
29.88950495454992
 20
67.177978515625
 10
29.89151911470617
 20
67.31198120117188
 10
29.86252741548742
 20
67.4429931640625
 10
29.86252741548742
 20
67.4429931640625
 10
30.76453547212805
 20
86.5579833984375
 10
30.76453547212805
 20
86.5579833984375
 10
30.76453547212805
 20
86.5579833984375
 10
42.03653864595617
 20
56.8389892578125
 10
42.03653864595617
 20
56.8389892578125
 10
42.03653864595617
 20
56.8389892578125
 10
29.3605437729093
 20
56.8389892578125
 10
29.3605437729093
 20
56.8389892578125
 10
29.3605437729093
 20
56.8389892578125
 10
29.84351496431555
 20
67.04998779296875
 10
29.84351496431555
 20
67.04998779296875
 97
        0
 97
        0
 92
        1
 93
        4
 72
     1
 10
25.0585418197843
 20
58.9949951171875
 11
26.87354426119055
 21
68.29299926757812
 72
     1
 10
26.87354426119055
 20
68.29299926757812
 11
28.42154841158117
 21
67.0
 72
     1
 10
28.42154841158117
 20
67.0
 11
28.04355768892492
 21
58.9949951171875
 72
     1
 10
28.04355768892492
 20
58.9949951171875
 11
25.0585418197843
 21
58.9949951171875
 97
        0
 92
        1
 93
        3
 72
     1
 10
39.53452448579992
 20
51.24798583984375
 11
31.51551203462805
 21
55.42098999023438
 72
     1
 10
31.51551203462805
 20
55.42098999023438
 11
41.8565154525968
 21
55.42098999023438
 72
     1
 10
41.8565154525968
 20
55.42098999023438
 11
39.53452448579992
 21
51.24798583984375
 97
        0
 92
        1
 93
        4
 72
     1
 10
68.38953547212805
 20
56.8389892578125
 11
43.55252985689367
 21
56.8389892578125
 72
     1
 10
43.55252985689367
 20
56.8389892578125
 11
31.49552302095617
 21
88.62399291992188
 72
     1
 10
31.49552302095617
 20
88.62399291992188
 11
84.10352472994055
 21
64.21099853515625
 72
     1
 10
84.10352472994055
 20
64.21099853515625
 11
68.38953547212805
 21
56.8389892578125
 97
        0
 92
        1
 93
        3
 72
     1
 10
85.2665496322843
 20
65.2349853515625
 11
78.34653620454992
 21
68.44598388671875
 72
     1
 10
78.34653620454992
 20
68.44598388671875
 11
87.2095427963468
 21
74.69097900390625
 72
     1
 10
87.2095427963468
 20
74.69097900390625
 11
85.2665496322843
 21
65.2349853515625
 97
        0
 75
     2
 76
     1
 98
        0
  0
ENDSEC
  0
SECTION
  2
OBJECTS
  0
DICTIONARY
  5
C
330
0
100
AcDbDictionary
281
     1
  3
ACAD_GROUP
350
D
  3
ACAD_LAYOUT
350
1A
  3
ACAD_MATERIAL
350
3B
  3
ACAD_MLEADERSTYLE
350
73
  3
ACAD_MLINESTYLE
350
17
  3
ACAD_PLOTSETTINGS
350
19
  3
ACAD_PLOTSTYLENAME
350
E
  3
ACAD_TABLESTYLE
350
72
  3
ACAD_VISUALSTYLE
350
2A
  0
SUN
  5
3F
330
29
100
AcDbSun
 90
        1
290
     0
 63
     7
421
 16777215
 40
1.0
291
     1
 91
  2455826
 92
 54000000
292
     0
 70
     2
 71
   256
280
     1
  0
DICTIONARY
  5
D
102
{ACAD_REACTORS
330
C
102
}
330
C
100
AcDbDictionary
281
     1
  0
DICTIONARY
  5
1A
102
{ACAD_REACTORS
330
C
102
}
330
C
100
AcDbDictionary
281
     1
  3
Layout1
350
1E
  3
Layout2
350
26
  3
Model
350
22
  0
DICTIONARY
  5
3B
102
{ACAD_REACTORS
330
C
102
}
330
C
100
AcDbDictionary
281
     1
  3
ByBlock
350
3D
  3
ByLayer
350
3C
  3
Global
350
3E
  0
DICTIONARY
  5
73
102
{ACAD_REACTORS
330
C
102
}
330
C
100
AcDbDictionary
281
     1
  0
DICTIONARY
  5
17
102
{ACAD_REACTORS
330
C
102
}
330
C
100
AcDbDictionary
281
     1
  3
Standard
350
18
  0
DICTIONARY
  5
19
102
{ACAD_REACTORS
330
C
102
}
330
C
100
AcDbDictionary
281
     1
  0
ACDBDICTIONARYWDFLT
  5
E
102
{ACAD_REACTORS
330
C
102
}
330
C
100
AcDbDictionary
281
     1
  3
Normal
350
F
100
AcDbDictionaryWithDefault
340
F
  0
DICTIONARY
  5
72
102
{ACAD_REACTORS
330
C
102
}
330
C
100
AcDbDictionary
281
     1
  0
DICTIONARY
  5
2A
102
{ACAD_REACTORS
330
C
102
}
330
C
100
AcDbDictionary
281
     1
  3
2dWireframe
350
2F
  3
3D Hidden
350
31
  3
3dWireframe
350
30
  3
Basic
350
32
  3
Brighten
350
36
  3
ColorChange
350
3A
  3
Conceptual
350
34
  3
Dim
350
35
  3
Facepattern
350
39
  3
Flat
350
2B
  3
FlatWithEdges
350
2C
  3
Gouraud
350
2D
  3
GouraudWithEdges
350
2E
  3
Linepattern
350
38
  3
Realistic
350
33
  3
Thicken
350
37
  0
LAYOUT
  5
1E
102
{ACAD_REACTORS
330
1A
102
}
330
1A
100
AcDbPlotSettings
  1

  2
none_device
  4

  6

 40
0.0
 41
0.0
 42
0.0
 43
0.0
 44
0.0
 45
0.0
 46
0.0
 47
0.0
 48
0.0
 49
0.0
140
0.0
141
0.0
142
1.0
143
1.0
 70
   688
 72
     0
 73
     0
 74
     5
  7

 75
    16
 76
     0
 77
     2
 78
   300
147
1.0
148
0.0
149
0.0
100
AcDbLayout
  1
Layout1
 70
     1
 71
     1
 10
0.0
 20
0.0
 11
12.0
 21
9.0
 12
0.0
 22
0.0
 32
0.0
 14
1.000000000000000E+20
 24
1.000000000000000E+20
 34
1.000000000000000E+20
 15
-1.000000000000000E+20
 25
-1.000000000000000E+20
 35
-1.000000000000000E+20
146
0.0
 13
0.0
 23
0.0
 33
0.0
 16
1.0
 26
0.0
 36
0.0
 17
0.0
 27
1.0
 37
0.0
 76
     0
330
1B
  0
LAYOUT
  5
26
102
{ACAD_REACTORS
330
1A
102
}
330
1A
100
AcDbPlotSettings
  1

  2
none_device
  4

  6

 40
0.0
 41
0.0
 42
0.0
 43
0.0
 44
0.0
 45
0.0
 46
0.0
 47
0.0
 48
0.0
 49
0.0
140
0.0
141
0.0
142
1.0
143
1.0
 70
   688
 72
     0
 73
     0
 74
     5
  7

 75
    16
 76
     0
 77
     2
 78
   300
147
1.0
148
0.0
149
0.0
100
AcDbLayout
  1
Layout2
 70
     1
 71
     2
 10
0.0
 20
0.0
 11
0.0
 21
0.0
 12
0.0
 22
0.0
 32
0.0
 14
0.0
 24
0.0
 34
0.0
 15
0.0
 25
0.0
 35
0.0
146
0.0
 13
0.0
 23
0.0
 33
0.0
 16
1.0
 26
0.0
 36
0.0
 17
0.0
 27
1.0
 37
0.0
 76
     0
330
23
  0
LAYOUT
  5
22
102
{ACAD_REACTORS
330
1A
102
}
330
1A
100
AcDbPlotSettings
  1

  2
none_device
  4

  6

 40
0.0
 41
0.0
 42
0.0
 43
0.0
 44
0.0
 45
0.0
 46
0.0
 47
0.0
 48
0.0
 49
0.0
140
0.0
141
0.0
142
1.0
143
1.0
 70
  1712
 72
     0
 73
     0
 74
     0
  7

 75
     0
 76
     0
 77
     2
 78
   300
147
1.0
148
0.0
149
0.0
100
AcDbLayout
  1
Model
 70
     1
 71
     0
 10
0.0
 20
0.0
 11
12.0
 21
9.0
 12
0.0
 22
0.0
 32
0.0
 14
1.000000000000000E+20
 24
1.000000000000000E+20
 34
1.000000000000000E+20
 15
-1.000000000000000E+20
 25
-1.000000000000000E+20
 35
-1.000000000000000E+20
146
0.0
 13
0.0
 23
0.0
 33
0.0
 16
1.0
 26
0.0
 36
0.0
 17
0.0
 27
1.0
 37
0.0
 76
     0
330
1F
331
29
  0
MATERIAL
  5
3D
102
{ACAD_REACTORS
330
3B
102
}
330
3B
100
AcDbMaterial
  1
ByBlock
 72
     1
 94
      127
  0
MATERIAL
  5
3C
102
{ACAD_REACTORS
330
3B
102
}
330
3B
100
AcDbMaterial
  1
ByLayer
 72
     1
 94
      127
  0
MATERIAL
  5
3E
102
{ACAD_REACTORS
330
3B
102
}
330
3B
100
AcDbMaterial
  1
Global
 72
     1
 94
      127
  0
MLINESTYLE
  5
18
102
{ACAD_REACTORS
330
17
102
}
330
17
100
AcDbMlineStyle
  2
Standard
 70
     0
  3

 62
   256
 51
90.0
 52
90.0
 71
     2
 49
0.5
 62
   256
  6
BYLAYER
 49
-0.5
 62
   256
  6
BYLAYER
  0
ACDBPLACEHOLDER
  5
F
102
{ACAD_REACTORS
330
E
102
}
330
E
  0
VISUALSTYLE
  5
2F
102
{ACAD_REACTORS
330
2A
102
}
330
2A
100
AcDbVisualStyle
  2
2dWireframe
 70
     4
177
     2
291
     0
 71
     0
176
     1
 72
     2
176
     1
 73
     0
176
     1
 90
        0
176
     1
 40
-0.6
176
     1
 41
-30.0
176
     1
 62
     5
 63
     7
421
 16777215
176
     1
 74
     1
176
     1
 91
        4
176
     1
 64
     7
176
     1
 65
   257
176
     1
 75
     1
176
     1
175
     1
176
     1
 42
1.0
176
     1
 92
        0
176
     1
 66
   257
176
     1
 43
1.0
176
     1
 76
     1
176
     1
 77
     6
176
     1
 78
     2
176
     1
 67
     7
176
     1
 79
     5
176
     1
170
     0
176
     1
171
     0
176
     1
290
     0
176
     1
 93
        1
176
     1
 44
0.0
176
     1
173
     0
176
     1
  0
VISUALSTYLE
  5
31
102
{ACAD_REACTORS
330
2A
102
}
330
2A
100
AcDbVisualStyle
  2
3D Hidden
 70
     6
177
     2
291
     0
 71
     1
176
     1
 72
     2
176
     1
 73
     2
176
     1
 90
        0
176
     1
 40
-0.6
176
     1
 41
-30.0
176
     1
 62
     5
 63
     7
421
 16777215
176
     1
 74
     2
176
     1
 91
        2
176
     1
 64
     7
176
     1
 65
   257
176
     1
 75
     2
176
     1
175
     1
176
     1
 42
40.0
176
     1
 92
        0
176
     1
 66
   257
176
     1
 43
1.0
176
     1
 76
     1
176
     1
 77
     6
176
     1
 78
     2
176
     1
 67
     7
176
     1
 79
     3
176
     1
170
     0
176
     1
171
     0
176
     1
290
     0
176
     1
 93
        1
176
     1
 44
0.0
176
     1
173
     0
176
     1
  0
VISUALSTYLE
  5
30
102
{ACAD_REACTORS
330
2A
102
}
330
2A
100
AcDbVisualStyle
  2
3dWireframe
 70
     5
177
     2
291
     0
 71
     0
176
     1
 72
     2
176
     1
 73
     0
176
     1
 90
        0
176
     1
 40
-0.6
176
     1
 41
-30.0
176
     1
 62
     5
 63
     7
421
 16777215
176
     1
 74
     1
176
     1
 91
        4
176
     1
 64
     7
176
     1
 65
   257
176
     1
 75
     1
176
     1
175
     1
176
     1
 42
1.0
176
     1
 92
        0
176
     1
 66
   257
176
     1
 43
1.0
176
     1
 76
     1
176
     1
 77
     6
176
     1
 78
     2
176
     1
 67
     7
176
     1
 79
     5
176
     1
170
     0
176
     1
171
     0
176
     1
290
     0
176
     1
 93
        1
176
     1
 44
0.0
176
     1
173
     0
176
     1
  0
VISUALSTYLE
  5
32
102
{ACAD_REACTORS
330
2A
102
}
330
2A
100
AcDbVisualStyle
  2
Basic
 70
     7
177
     2
291
     1
 71
     1
176
     1
 72
     0
176
     1
 73
     1
176
     1
 90
        0
176
     1
 40
-0.6
176
     1
 41
-30.0
176
     1
 62
     5
 63
     7
421
 16777215
176
     1
 74
     0
176
     1
 91
        4
176
     1
 64
     7
176
     1
 65
   257
176
     1
 75
     1
176
     1
175
     1
176
     1
 42
1.0
176
     1
 92
        8
176
     1
 66
     7
176
     1
 43
1.0
176
     1
 76
     1
176
     1
 77
     6
176
     1
 78
     2
176
     1
 67
     7
176
     1
 79
     5
176
     1
170
     0
176
     1
171
     0
176
     1
290
     0
176
     1
 93
        1
176
     1
 44
0.0
176
     1
173
     0
176
     1
  0
VISUALSTYLE
  5
36
102
{ACAD_REACTORS
330
2A
102
}
330
2A
100
AcDbVisualStyle
  2
Brighten
 70
    12
177
     2
291
     1
 71
     2
176
     1
 72
     2
176
     1
 73
     0
176
     1
 90
        0
176
     1
 40
-0.6
176
     1
 41
-30.0
176
     1
 62
     5
 63
     7
421
 16777215
176
     1
 74
     1
176
     1
 91
        4
176
     1
 64
     7
176
     1
 65
   257
176
     1
 75
     1
176
     1
175
     1
176
     1
 42
1.0
176
     1
 92
        8
176
     1
 66
     7
176
     1
 43
1.0
176
     1
 76
     1
176
     1
 77
     6
176
     1
 78
     2
176
     1
 67
     7
176
     1
 79
     5
176
     1
170
     0
176
     1
171
     0
176
     1
290
     0
176
     1
 93
        1
176
     1
 44
50.0
176
     1
173
     0
176
     1
  0
VISUALSTYLE
  5
3A
102
{ACAD_REACTORS
330
2A
102
}
330
2A
100
AcDbVisualStyle
  2
ColorChange
 70
    16
177
     2
291
     1
 71
     2
176
     1
 72
     2
176
     1
 73
     3
176
     1
 90
        0
176
     1
 40
-0.6
176
     1
 41
-30.0
176
     1
 62
     5
 63
     8
421
  8421504
176
     1
 74
     1
176
     1
 91
        4
176
     1
 64
     7
176
     1
 65
   257
176
     1
 75
     1
176
     1
175
     1
176
     1
 42
1.0
176
     1
 92
        8
176
     1
 66
     8
424
  8421504
176
     1
 43
1.0
176
     1
 76
     1
176
     1
 77
     6
176
     1
 78
     2
176
     1
 67
     7
176
     1
 79
     5
176
     1
170
     0
176
     1
171
     0
176
     1
290
     0
176
     1
 93
        1
176
     1
 44
0.0
176
     1
173
     0
176
     1
  0
VISUALSTYLE
  5
34
102
{ACAD_REACTORS
330
2A
102
}
330
2A
100
AcDbVisualStyle
  2
Conceptual
 70
     9
177
     2
291
     0
 71
     3
176
     1
 72
     2
176
     1
 73
     0
176
     1
 90
        0
176
     1
 40
-0.6
176
     1
 41
-30.0
176
     1
 62
     5
 63
     7
421
 16777215
176
     1
 74
     2
176
     1
 91
        2
176
     1
 64
     7
176
     1
 65
   257
176
     1
 75
     1
176
     1
175
     1
176
     1
 42
40.0
176
     1
 92
        8
176
     1
 66
     7
176
     1
 43
1.0
176
     1
 76
     1
176
     1
 77
     6
176
     1
 78
     2
176
     1
 67
     7
176
     1
 79
     3
176
     1
170
     0
176
     1
171
     0
176
     1
290
     0
176
     1
 93
        1
176
     1
 44
0.0
176
     1
173
     0
176
     1
  0
VISUALSTYLE
  5
35
102
{ACAD_REACTORS
330
2A
102
}
330
2A
100
AcDbVisualStyle
  2
Dim
 70
    11
177
     2
291
     1
 71
     2
176
     1
 72
     2
176
     1
 73
     0
176
     1
 90
        0
176
     1
 40
-0.6
176
     1
 41
-30.0
176
     1
 62
     5
 63
     7
421
 16777215
176
     1
 74
     1
176
     1
 91
        4
176
     1
 64
     7
176
     1
 65
   257
176
     1
 75
     1
176
     1
175
     1
176
     1
 42
1.0
176
     1
 92
        8
176
     1
 66
     7
176
     1
 43
1.0
176
     1
 76
     1
176
     1
 77
     6
176
     1
 78
     2
176
     1
 67
     7
176
     1
 79
     5
176
     1
170
     0
176
     1
171
     0
176
     1
290
     0
176
     1
 93
        1
176
     1
 44
-50.0
176
     1
173
     0
176
     1
  0
VISUALSTYLE
  5
39
102
{ACAD_REACTORS
330
2A
102
}
330
2A
100
AcDbVisualStyle
  2
Facepattern
 70
    15
177
     2
291
     1
 71
     2
176
     1
 72
     2
176
     1
 73
     0
176
     1
 90
        0
176
     1
 40
-0.6
176
     1
 41
-30.0
176
     1
 62
     5
 63
     7
421
 16777215
176
     1
 74
     1
176
     1
 91
        4
176
     1
 64
     7
176
     1
 65
   257
176
     1
 75
     1
176
     1
175
     1
176
     1
 42
1.0
176
     1
 92
        8
176
     1
 66
     7
176
     1
 43
1.0
176
     1
 76
     1
176
     1
 77
     6
176
     1
 78
     2
176
     1
 67
     7
176
     1
 79
     5
176
     1
170
     0
176
     1
171
     0
176
     1
290
     0
176
     1
 93
        1
176
     1
 44
0.0
176
     1
173
     0
176
     1
  0
VISUALSTYLE
  5
2B
102
{ACAD_REACTORS
330
2A
102
}
330
2A
100
AcDbVisualStyle
  2
Flat
 70
     0
177
     2
291
     1
 71
     2
176
     1
 72
     1
176
     1
 73
     1
176
     1
 90
        2
176
     1
 40
-0.6
176
     1
 41
30.0
176
     1
 62
     5
 63
     7
421
 16777215
176
     1
 74
     0
176
     1
 91
        4
176
     1
 64
     7
176
     1
 65
   257
176
     1
 75
     1
176
     1
175
     1
176
     1
 42
1.0
176
     1
 92
        8
176
     1
 66
     7
176
     1
 43
1.0
176
     1
 76
     1
176
     1
 77
     6
176
     1
 78
     2
176
     1
 67
     7
176
     1
 79
     5
176
     1
170
     0
176
     1
171
     0
176
     1
290
     0
176
     1
 93
       13
176
     1
 44
0.0
176
     1
173
     0
176
     1
  0
VISUALSTYLE
  5
2C
102
{ACAD_REACTORS
330
2A
102
}
330
2A
100
AcDbVisualStyle
  2
FlatWithEdges
 70
     1
177
     2
291
     1
 71
     2
176
     1
 72
     1
176
     1
 73
     1
176
     1
 90
        2
176
     1
 40
-0.6
176
     1
 41
30.0
176
     1
 62
     5
 63
     7
421
 16777215
176
     1
 74
     1
176
     1
 91
        4
176
     1
 64
     7
176
     1
 65
   257
176
     1
 75
     1
176
     1
175
     1
176
     1
 42
1.0
176
     1
 92
        0
176
     1
 66
   257
176
     1
 43
1.0
176
     1
 76
     1
176
     1
 77
     6
176
     1
 78
     2
176
     1
 67
     7
176
     1
 79
     5
176
     1
170
     0
176
     1
171
     0
176
     1
290
     0
176
     1
 93
       13
176
     1
 44
0.0
176
     1
173
     0
176
     1
  0
VISUALSTYLE
  5
2D
102
{ACAD_REACTORS
330
2A
102
}
330
2A
100
AcDbVisualStyle
  2
Gouraud
 70
     2
177
     2
291
     1
 71
     2
176
     1
 72
     2
176
     1
 73
     1
176
     1
 90
        2
176
     1
 40
-0.6
176
     1
 41
30.0
176
     1
 62
     5
 63
     7
421
 16777215
176
     1
 74
     0
176
     1
 91
        4
176
     1
 64
     7
176
     1
 65
   257
176
     1
 75
     1
176
     1
175
     1
176
     1
 42
1.0
176
     1
 92
        0
176
     1
 66
     7
176
     1
 43
1.0
176
     1
 76
     1
176
     1
 77
     6
176
     1
 78
     2
176
     1
 67
     7
176
     1
 79
     5
176
     1
170
     0
176
     1
171
     0
176
     1
290
     0
176
     1
 93
       13
176
     1
 44
0.0
176
     1
173
     0
176
     1
  0
VISUALSTYLE
  5
2E
102
{ACAD_REACTORS
330
2A
102
}
330
2A
100
AcDbVisualStyle
  2
GouraudWithEdges
 70
     3
177
     2
291
     1
 71
     2
176
     1
 72
     2
176
     1
 73
     1
176
     1
 90
        2
176
     1
 40
-0.6
176
     1
 41
30.0
176
     1
 62
     5
 63
     7
421
 16777215
176
     1
 74
     1
176
     1
 91
        4
176
     1
 64
     7
176
     1
 65
   257
176
     1
 75
     1
176
     1
175
     1
176
     1
 42
1.0
176
     1
 92
        0
176
     1
 66
   257
176
     1
 43
1.0
176
     1
 76
     1
176
     1
 77
     6
176
     1
 78
     2
176
     1
 67
     7
176
     1
 79
     5
176
     1
170
     0
176
     1
171
     0
176
     1
290
     0
176
     1
 93
       13
176
     1
 44
0.0
176
     1
173
     0
176
     1
  0
VISUALSTYLE
  5
38
102
{ACAD_REACTORS
330
2A
102
}
330
2A
100
AcDbVisualStyle
  2
Linepattern
 70
    14
177
     2
291
     1
 71
     2
176
     1
 72
     2
176
     1
 73
     0
176
     1
 90
        0
176
     1
 40
-0.6
176
     1
 41
-30.0
176
     1
 62
     5
 63
     7
421
 16777215
176
     1
 74
     1
176
     1
 91
        4
176
     1
 64
     7
176
     1
 65
   257
176
     1
 75
     7
176
     1
175
     7
176
     1
 42
1.0
176
     1
 92
        8
176
     1
 66
     7
176
     1
 43
1.0
176
     1
 76
     1
176
     1
 77
     6
176
     1
 78
     2
176
     1
 67
     7
176
     1
 79
     5
176
     1
170
     0
176
     1
171
     0
176
     1
290
     0
176
     1
 93
        1
176
     1
 44
0.0
176
     1
173
     0
176
     1
  0
VISUALSTYLE
  5
33
102
{ACAD_REACTORS
330
2A
102
}
330
2A
100
AcDbVisualStyle
  2
Realistic
 70
     8
177
     2
291
     0
 71
     2
176
     1
 72
     2
176
     1
 73
     0
176
     1
 90
        0
176
     1
 40
-0.6
176
     1
 41
-30.0
176
     1
 62
     5
 63
     7
421
 16777215
176
     1
 74
     1
176
     1
 91
        0
176
     1
 64
     7
176
     1
 65
   257
176
     1
 75
     1
176
     1
175
     1
176
     1
 42
1.0
176
     1
 92
        8
176
     1
 66
     8
424
  7895160
176
     1
 43
1.0
176
     1
 76
     1
176
     1
 77
     6
176
     1
 78
     2
176
     1
 67
     7
176
     1
 79
     5
176
     1
170
     0
176
     1
171
     0
176
     1
290
     0
176
     1
 93
       13
176
     1
 44
0.0
176
     1
173
     0
176
     1
  0
VISUALSTYLE
  5
37
102
{ACAD_REACTORS
330
2A
102
}
330
2A
100
AcDbVisualStyle
  2
Thicken
 70
    13
177
     2
291
     1
 71
     2
176
     1
 72
     2
176
     1
 73
     0
176
     1
 90
        0
176
     1
 40
-0.6
176
     1
 41
-30.0
176
     1
 62
     5
 63
     7
421
 16777215
176
     1
 74
     1
176
     1
 91
        4
176
     1
 64
     7
176
     1
 65
   257
176
     1
 75
     1
176
     1
175
     1
176
     1
 42
1.0
176
     1
 92
       12
176
     1
 66
     7
176
     1
 43
1.0
176
     1
 76
     1
176
     1
 77
     6
176
     1
 78
     2
176
     1
 67
     7
176
     1
 79
     5
176
     1
170
     0
176
     1
171
     0
176
     1
290
     0
176
     1
 93
        1
176
     1
 44
0.0
176
     1
173
     0
176
     1
  0
ENDSEC
  0
EOF
