<?xml version="1.0" encoding="utf-8"?>
<!-- Generator: Adobe Illustrator 19.2.1, SVG Export Plug-In . SVG Version: 6.00 Build 0)  -->
<svg version="1.1" id="Layer_1" xmlns="http://www.w3.org/2000/svg" xmlns:xlink="http://www.w3.org/1999/xlink" x="0px" y="0px"
	 viewBox="0 0 100 125" style="enable-background:new 0 0 100 125;" xml:space="preserve">
<path d="M80.5,12.8c0-0.2-0.1-0.4-0.3-0.5c-0.2-0.1-0.4-0.1-0.6-0.1l-19.9,5.4c-0.2,0.1-0.4,0.2-0.5,0.4l-18,41.2l-2-5.5
	c0,0,0-0.1-0.1-0.1l-9-13.9l5.2-4.5c0.1-0.1,0.2-0.2,0.2-0.3l1.5-4.1c0.1-0.1,0.1-0.2,0.1-0.3c0-0.2,0-0.3-0.1-0.4l-8-19.5
	c-0.1-0.2-0.3-0.4-0.6-0.4c-0.2,0-0.5,0.1-0.7,0.3L22,17.9L7.8,25.7c-0.2,0.1-0.3,0.3-0.4,0.5l-0.7,5.2c0,0.3,0.1,0.7,0.5,0.8
	l7.1,2.6L8.9,49.6c0,0,0,0,0,0c0,0.1,0,0.2,0,0.3c0,0,0,0,0,0c0,0.1,0,0.2,0.1,0.3c0,0,0,0,0,0s0,0,0,0c0,0.1,0.1,0.1,0.2,0.1
	c0,0,0,0,0.1,0.1c0.1,0.1,0.2,0.1,0.3,0.1h0l0,0h0c0,0,0.1,0,0.1,0l4.3-0.6l-1.4,9c0,0.2,0,0.3,0.1,0.4l7.8,14.3c0,0,0,0,0,0
	c0.1,0.1,0.1,0.1,0.2,0.2c0,0,0,0,0.1,0C20.8,74,20.9,74,21,74c0,0,0,0,0,0l0,0l0,0c0,0,0,0,0,0l30.8-1.7c0.1,0,0.2,0,0.2-0.1
	c0,0,0,0,0,0c0.1,0,0.1-0.1,0.2-0.1c0,0,0,0,0,0l30.8-37.9c0.1-0.2,0.2-0.3,0.2-0.5L80.5,12.8z M12.8,48.6L26.4,40v6.6L12.8,48.6z
	 M27.9,39.7l0.9,0.3l7.6,11.7l-8.5-5L27.9,39.7L27.9,39.7z M28.2,12.2L34.7,28l-11.2-9.6L28.2,12.2z M8.8,26.8l13.5-7.5l13.2,11.3
	l-1.3,3.6l-5.2,4.5L8.2,31.1L8.8,26.8z M25.5,38.9l-14.6,9.2l4.7-12.8L25.5,38.9z M15.4,49.7L27,48l11,6.4l2.4,6.6c0,0,0,0,0,0.1
	l-1.2,2.9l-11.6-6.4c-0.2-0.1-0.4-0.1-0.6,0c-0.2,0.1-0.3,0.2-0.4,0.4l-5.8,13.6L14,58.9L15.4,49.7z M33.6,62.4l-10.9,8.1l4.9-11.4
	L33.6,62.4z M22.3,72.6L35,63.2l14.3,7.9L22.3,72.6z M51.6,70.7l-11.2-6.1l19.9-45.7l18.8-5.1l2.7,19.8L51.6,70.7z"/>
</svg>
