  0
SECTION
  2
HEADER
  9
$ACADVER
  1
AC1024
  9
$ACADMAINTVER
 70
     6
  9
$DWGCODEPAGE
  3
UNDEFINED
  9
$INSBASE
 10
0.0
 20
0.0
 30
0.0
  9
$EXTMIN
 10
1.000000000000000E+20
 20
1.000000000000000E+20
 30
1.000000000000000E+20
  9
$EXTMAX
 10
-1.000000000000000E+20
 20
-1.000000000000000E+20
 30
-1.000000000000000E+20
  9
$LIMMIN
 10
0.0
 20
0.0
  9
$LIMMAX
 10
12.0
 20
9.0
  9
$ORTHOMODE
 70
     0
  9
$REGENMODE
 70
     1
  9
$FILLMODE
 70
     1
  9
$QTEXTMODE
 70
     0
  9
$MIRRTEXT
 70
     1
  9
$LTSCALE
 40
1.0
  9
$ATTMODE
 70
     1
  9
$TEXTSIZE
 40
0.2
  9
$TRACEWID
 40
0.05
  9
$TEXTSTYLE
  7
Standard
  9
$CLAYER
  8
0
  9
$CELTYPE
  6
ByLayer
  9
$CECOLOR
 62
   256
  9
$CELTSCALE
 40
1.0
  9
$DISPSILH
 70
     0
  9
$DIMSCALE
 40
1.0
  9
$DIMASZ
 40
0.18
  9
$DIMEXO
 40
0.0625
  9
$DIMDLI
 40
0.38
  9
$DIMRND
 40
0.0
  9
$DIMDLE
 40
0.0
  9
$DIMEXE
 40
0.18
  9
$DIMTP
 40
0.0
  9
$DIMTM
 40
0.0
  9
$DIMTXT
 40
0.18
  9
$DIMCEN
 40
0.09
  9
$DIMTSZ
 40
0.0
  9
$DIMTOL
 70
     0
  9
$DIMLIM
 70
     0
  9
$DIMTIH
 70
     1
  9
$DIMTOH
 70
     1
  9
$DIMSE1
 70
     0
  9
$DIMSE2
 70
     0
  9
$DIMTAD
 70
     0
  9
$DIMZIN
 70
     0
  9
$DIMBLK
  1

  9
$DIMASO
 70
     1
  9
$DIMSHO
 70
     1
  9
$DIMPOST
  1

  9
$DIMAPOST
  1

  9
$DIMALT
 70
     0
  9
$DIMALTD
 70
     2
  9
$DIMALTF
 40
25.4
  9
$DIMLFAC
 40
1.0
  9
$DIMTOFL
 70
     0
  9
$DIMTVP
 40
0.0
  9
$DIMTIX
 70
     0
  9
$DIMSOXD
 70
     0
  9
$DIMSAH
 70
     0
  9
$DIMBLK1
  1

  9
$DIMBLK2
  1

  9
$DIMSTYLE
  2
Standard
  9
$DIMCLRD
 70
     0
  9
$DIMCLRE
 70
     0
  9
$DIMCLRT
 70
     0
  9
$DIMTFAC
 40
1.0
  9
$DIMGAP
 40
0.09
  9
$DIMJUST
 70
     0
  9
$DIMSD1
 70
     0
  9
$DIMSD2
 70
     0
  9
$DIMTOLJ
 70
     1
  9
$DIMTZIN
 70
     0
  9
$DIMALTZ
 70
     0
  9
$DIMALTTZ
 70
     0
  9
$DIMUPT
 70
     0
  9
$DIMDEC
 70
     4
  9
$DIMTDEC
 70
     4
  9
$DIMALTU
 70
     2
  9
$DIMALTTD
 70
     2
  9
$DIMTXSTY
  7
Standard
  9
$DIMAUNIT
 70
     0
  9
$DIMADEC
 70
     0
  9
$DIMALTRND
 40
0.0
  9
$DIMAZIN
 70
     0
  9
$DIMDSEP
 70
    46
  9
$DIMATFIT
 70
     3
  9
$DIMFRAC
 70
     0
  9
$DIMLDRBLK
  1

  9
$DIMLUNIT
 70
     2
  9
$DIMLWD
 70
    -2
  9
$DIMLWE
 70
    -2
  9
$DIMTMOVE
 70
     0
  9
$DIMFXL
 40
1.0
  9
$DIMFXLON
 70
     0
  9
$DIMJOGANG
 40
0.7853981633974483
  9
$DIMTFILL
 70
     0
  9
$DIMTFILLCLR
 70
     0
  9
$DIMARCSYM
 70
     0
  9
$DIMLTYPE
  6

  9
$DIMLTEX1
  6

  9
$DIMLTEX2
  6

  9
$DIMTXTDIRECTION
 70
     0
  9
$LUNITS
 70
     2
  9
$LUPREC
 70
     4
  9
$SKETCHINC
 40
0.1
  9
$FILLETRAD
 40
0.5
  9
$AUNITS
 70
     0
  9
$AUPREC
 70
     0
  9
$MENU
  1
.
  9
$ELEVATION
 40
0.0
  9
$PELEVATION
 40
0.0
  9
$THICKNESS
 40
0.0
  9
$LIMCHECK
 70
     0
  9
$CHAMFERA
 40
0.5
  9
$CHAMFERB
 40
0.5
  9
$CHAMFERC
 40
1.0
  9
$CHAMFERD
 40
0.0
  9
$SKPOLY
 70
     0
  9
$TDCREATE
 40
2457525.606990729
  9
$TDUCREATE
 40
2457525.815324074
  9
$TDUPDATE
 40
2457525.606990729
  9
$TDUUPDATE
 40
2457525.815324074
  9
$TDINDWG
 40
0.0000000116
  9
$TDUSRTIMER
 40
0.0000000116
  9
$USRTIMER
 70
     1
  9
$ANGBASE
 50
0.0
  9
$ANGDIR
 70
     0
  9
$PDMODE
 70
     0
  9
$PDSIZE
 40
0.0
  9
$PLINEWID
 40
0.0
  9
$SPLFRAME
 70
     0
  9
$SPLINETYPE
 70
     6
  9
$SPLINESEGS
 70
     8
  9
$HANDSEED
  5
7D
  9
$SURFTAB1
 70
     6
  9
$SURFTAB2
 70
     6
  9
$SURFTYPE
 70
     6
  9
$SURFU
 70
     6
  9
$SURFV
 70
     6
  9
$UCSBASE
  2

  9
$UCSNAME
  2

  9
$UCSORG
 10
0.0
 20
0.0
 30
0.0
  9
$UCSXDIR
 10
1.0
 20
0.0
 30
0.0
  9
$UCSYDIR
 10
0.0
 20
1.0
 30
0.0
  9
$UCSORTHOREF
  2

  9
$UCSORTHOVIEW
 70
     0
  9
$UCSORGTOP
 10
0.0
 20
0.0
 30
0.0
  9
$UCSORGBOTTOM
 10
0.0
 20
0.0
 30
0.0
  9
$UCSORGLEFT
 10
0.0
 20
0.0
 30
0.0
  9
$UCSORGRIGHT
 10
0.0
 20
0.0
 30
0.0
  9
$UCSORGFRONT
 10
0.0
 20
0.0
 30
0.0
  9
$UCSORGBACK
 10
0.0
 20
0.0
 30
0.0
  9
$PUCSBASE
  2

  9
$PUCSNAME
  2

  9
$PUCSORG
 10
0.0
 20
0.0
 30
0.0
  9
$PUCSXDIR
 10
1.0
 20
0.0
 30
0.0
  9
$PUCSYDIR
 10
0.0
 20
1.0
 30
0.0
  9
$PUCSORTHOREF
  2

  9
$PUCSORTHOVIEW
 70
     0
  9
$PUCSORGTOP
 10
0.0
 20
0.0
 30
0.0
  9
$PUCSORGBOTTOM
 10
0.0
 20
0.0
 30
0.0
  9
$PUCSORGLEFT
 10
0.0
 20
0.0
 30
0.0
  9
$PUCSORGRIGHT
 10
0.0
 20
0.0
 30
0.0
  9
$PUCSORGFRONT
 10
0.0
 20
0.0
 30
0.0
  9
$PUCSORGBACK
 10
0.0
 20
0.0
 30
0.0
  9
$USERI1
 70
     0
  9
$USERI2
 70
     0
  9
$USERI3
 70
     0
  9
$USERI4
 70
     0
  9
$USERI5
 70
     0
  9
$USERR1
 40
0.0
  9
$USERR2
 40
0.0
  9
$USERR3
 40
0.0
  9
$USERR4
 40
0.0
  9
$USERR5
 40
0.0
  9
$WORLDVIEW
 70
     1
  9
$SHADEDGE
 70
     3
  9
$SHADEDIF
 70
    70
  9
$TILEMODE
 70
     1
  9
$MAXACTVP
 70
    64
  9
$PINSBASE
 10
0.0
 20
0.0
 30
0.0
  9
$PLIMCHECK
 70
     0
  9
$PEXTMIN
 10
1.000000000000000E+20
 20
1.000000000000000E+20
 30
1.000000000000000E+20
  9
$PEXTMAX
 10
-1.000000000000000E+20
 20
-1.000000000000000E+20
 30
-1.000000000000000E+20
  9
$PLIMMIN
 10
0.0
 20
0.0
  9
$PLIMMAX
 10
12.0
 20
9.0
  9
$UNITMODE
 70
     0
  9
$VISRETAIN
 70
     1
  9
$PLINEGEN
 70
     0
  9
$PSLTSCALE
 70
     1
  9
$TREEDEPTH
 70
  3020
  9
$CMLSTYLE
  2
Standard
  9
$CMLJUST
 70
     0
  9
$CMLSCALE
 40
1.0
  9
$PROXYGRAPHICS
 70
     1
  9
$MEASUREMENT
 70
     0
  9
$CELWEIGHT
370
    -1
  9
$ENDCAPS
280
     0
  9
$JOINSTYLE
280
     0
  9
$LWDISPLAY
290
     1
  9
$INSUNITS
 70
     1
  9
$HYPERLINKBASE
  1

  9
$STYLESHEET
  1

  9
$XEDIT
290
     1
  9
$CEPSNTYPE
380
     0
  9
$PSTYLEMODE
290
     1
  9
$FINGERPRINTGUID
  2
{4559F30D-853A-3B2A-07E4-F06668DA9813}
  9
$VERSIONGUID
  2
{FAEB1C32-E019-11D5-929B-00C0DF256EC4}
  9
$EXTNAMES
290
     1
  9
$PSVPSCALE
 40
0.0
  9
$OLESTARTUP
290
     0
  9
$SORTENTS
280
   127
  9
$INDEXCTL
280
     0
  9
$HIDETEXT
280
     1
  9
$XCLIPFRAME
280
     2
  9
$HALOGAP
280
     0
  9
$OBSCOLOR
 70
   257
  9
$OBSLTYPE
280
     0
  9
$INTERSECTIONDISPLAY
280
     0
  9
$INTERSECTIONCOLOR
 70
   257
  9
$DIMASSOC
280
     2
  9
$PROJECTNAME
  1

  9
$CAMERADISPLAY
290
     0
  9
$LENSLENGTH
 40
50.0
  9
$CAMERAHEIGHT
 40
0.0
  9
$STEPSPERSEC
 40
2.0
  9
$STEPSIZE
 40
6.0
  9
$3DDWFPREC
 40
2.0
  9
$PSOLWIDTH
 40
0.25
  9
$PSOLHEIGHT
 40
4.0
  9
$LOFTANG1
 40
1.570796326794897
  9
$LOFTANG2
 40
1.570796326794897
  9
$LOFTMAG1
 40
0.0
  9
$LOFTMAG2
 40
0.0
  9
$LOFTPARAM
 70
     7
  9
$LOFTNORMALS
280
     1
  9
$LATITUDE
 40
37.795
  9
$LONGITUDE
 40
-122.394
  9
$NORTHDIRECTION
 40
0.0
  9
$TIMEZONE
 70
 -8000
  9
$LIGHTGLYPHDISPLAY
280
     1
  9
$TILEMODELIGHTSYNCH
280
     1
  9
$CMATERIAL
347
3C
  9
$SOLIDHIST
280
     1
  9
$SHOWHIST
280
     1
  9
$DWFFRAME
280
     2
  9
$DGNFRAME
280
     2
  9
$REALWORLDSCALE
290
     1
  9
$INTERFERECOLOR
 62
   256
  9
$CSHADOW
280
     0
  9
$SHADOWPLANELOCATION
 40
0.0
  0
ENDSEC
  0
SECTION
  2
CLASSES
  0
CLASS
  1
ACDBDICTIONARYWDFLT
  2
AcDbDictionaryWithDefault
  3
ObjectDBX Classes
 90
        0
 91
        4
280
     0
281
     0
  0
CLASS
  1
VISUALSTYLE
  2
AcDbVisualStyle
  3
ObjectDBX Classes
 90
     4095
 91
        4
280
     0
281
     0
  0
CLASS
  1
MATERIAL
  2
AcDbMaterial
  3
ObjectDBX Classes
 90
     1153
 91
        4
280
     0
281
     0
  0
CLASS
  1
SUN
  2
AcDbSun
  3
SCENEOE
 90
     1024
 91
        4
280
     0
281
     0
  0
ENDSEC
  0
SECTION
  2
TABLES
  0
TABLE
  2
VPORT
  5
8
330
0
100
AcDbSymbolTable
 70
     1
  0
VPORT
  5
29
330
8
100
AcDbSymbolTableRecord
100
AcDbViewportTableRecord
  2
*Active
 70
     0
 10
0.0
 20
0.0
 11
1.0
 21
1.0
 12
0.0
 22
0.0
 13
0.0
 23
0.0
 14
0.5
 24
0.5
 15
0.5
 25
0.5
 16
0.0
 26
0.0
 36
1.0
 17
50.0
 27
62.5
 37
0.0
 40
125.0
 41
0.8
 42
50.0
 43
0.0
 44
0.0
 50
0.0
 51
0.0
 71
     0
 72
   100
 73
     1
 74
     3
 75
     0
 76
     0
 77
     0
 78
     0
281
     0
 65
     1
110
0.0
120
0.0
130
0.0
111
1.0
121
0.0
131
0.0
112
0.0
122
1.0
132
0.0
 79
     0
146
0.0
 60
     3
 61
     5
292
     1
282
     1
141
0.0
142
0.0
 63
   250
361
3F
  0
ENDTAB
  0
TABLE
  2
LTYPE
  5
5
330
0
100
AcDbSymbolTable
 70
     1
  0
LTYPE
  5
14
330
5
100
AcDbSymbolTableRecord
100
AcDbLinetypeTableRecord
  2
ByBlock
 70
     0
  3

 72
    65
 73
     0
 40
0.0
  0
LTYPE
  5
15
330
5
100
AcDbSymbolTableRecord
100
AcDbLinetypeTableRecord
  2
ByLayer
 70
     0
  3

 72
    65
 73
     0
 40
0.0
  0
LTYPE
  5
16
330
5
100
AcDbSymbolTableRecord
100
AcDbLinetypeTableRecord
  2
Continuous
 70
     0
  3
Solid line
 72
    65
 73
     0
 40
0.0
  0
ENDTAB
  0
TABLE
  2
LAYER
  5
2
330
0
100
AcDbSymbolTable
 70
     2
  0
LAYER
  5
10
330
2
100
AcDbSymbolTableRecord
100
AcDbLayerTableRecord
  2
0
 70
     0
 62
     7
  6
Continuous
370
    -3
390
F
347
3E
  0
LAYER
  5
40
330
2
100
AcDbSymbolTableRecord
100
AcDbLayerTableRecord
  2
Layer 1
 70
     0
 62
     7
  6
Continuous
370
    -3
390
F
347
3E
  0
ENDTAB
  0
TABLE
  2
STYLE
  5
3
330
0
100
AcDbSymbolTable
 70
     1
  0
STYLE
  5
11
330
3
100
AcDbSymbolTableRecord
100
AcDbTextStyleTableRecord
  2
Standard
 70
     0
 40
0.0
 41
1.0
 50
0.0
 71
     0
 42
0.2
  3
txt
  4

  0
ENDTAB
  0
TABLE
  2
VIEW
  5
6
330
0
100
AcDbSymbolTable
 70
     0
  0
ENDTAB
  0
TABLE
  2
UCS
  5
7
330
0
100
AcDbSymbolTable
 70
     0
  0
ENDTAB
  0
TABLE
  2
APPID
  5
9
330
0
100
AcDbSymbolTable
 70
     1
  0
APPID
  5
12
330
9
100
AcDbSymbolTableRecord
100
AcDbRegAppTableRecord
  2
ACAD
 70
     0
  0
ENDTAB
  0
TABLE
  2
DIMSTYLE
  5
A
330
0
100
AcDbSymbolTable
 70
     1
100
AcDbDimStyleTable
  0
DIMSTYLE
105
27
330
A
100
AcDbSymbolTableRecord
100
AcDbDimStyleTableRecord
  2
Standard
 70
     0
178
     0
340
11
  0
ENDTAB
  0
TABLE
  2
BLOCK_RECORD
  5
1
330
0
100
AcDbSymbolTable
 70
     1
  0
BLOCK_RECORD
  5
1F
330
1
100
AcDbSymbolTableRecord
100
AcDbBlockTableRecord
  2
*Model_Space
340
22
 70
     0
280
     1
281
     0
  0
BLOCK_RECORD
  5
1B
330
1
100
AcDbSymbolTableRecord
100
AcDbBlockTableRecord
  2
*Paper_Space
340
1E
 70
     0
280
     1
281
     0
  0
BLOCK_RECORD
  5
23
330
1
100
AcDbSymbolTableRecord
100
AcDbBlockTableRecord
  2
*Paper_Space0
340
26
 70
     0
280
     1
281
     0
  0
ENDTAB
  0
ENDSEC
  0
SECTION
  2
BLOCKS
  0
BLOCK
  5
20
330
1F
100
AcDbEntity
  8
0
100
AcDbBlockBegin
  2
*Model_Space
 70
     0
 10
0.0
 20
0.0
 30
0.0
  3
*Model_Space
  1

  0
ENDBLK
  5
21
330
1F
100
AcDbEntity
  8
0
100
AcDbBlockEnd
  0
BLOCK
  5
1C
330
1B
100
AcDbEntity
 67
     1
  8
0
100
AcDbBlockBegin
  2
*Paper_Space
 70
     0
 10
0.0
 20
0.0
 30
0.0
  3
*Paper_Space
  1

  0
ENDBLK
  5
1D
330
1B
100
AcDbEntity
 67
     1
  8
0
100
AcDbBlockEnd
  0
BLOCK
  5
24
330
23
100
AcDbEntity
  8
0
100
AcDbBlockBegin
  2
*Paper_Space0
 70
     0
 10
0.0
 20
0.0
 30
0.0
  3
*Paper_Space0
  1

  0
ENDBLK
  5
25
330
23
100
AcDbEntity
  8
0
100
AcDbBlockEnd
  0
ENDSEC
  0
SECTION
  2
ENTITIES
  0
SPLINE
  5
41
330
1F
100
AcDbEntity
  8
Layer 1
370
     0
100
AcDbSpline
210
0.0
220
0.0
230
1.0
 70
    11
 71
     3
 72
   173
 73
   169
 74
     0
 42
0.0000000001
 43
0.0000000001
 12
1.0
 22
0.0
 32
0.0
 13
1.0
 23
0.0
 33
0.0
 40
0.0
 40
0.0
 40
0.0
 40
0.0
 40
1.0
 40
1.0
 40
1.0
 40
2.0
 40
2.0
 40
2.0
 40
3.0
 40
3.0
 40
3.0
 40
4.0
 40
4.0
 40
4.0
 40
5.0
 40
5.0
 40
5.0
 40
6.0
 40
6.0
 40
6.0
 40
7.0
 40
7.0
 40
7.0
 40
8.0
 40
8.0
 40
8.0
 40
9.0
 40
9.0
 40
9.0
 40
10.0
 40
10.0
 40
10.0
 40
11.0
 40
11.0
 40
11.0
 40
12.0
 40
12.0
 40
12.0
 40
13.0
 40
13.0
 40
13.0
 40
14.0
 40
14.0
 40
14.0
 40
15.0
 40
15.0
 40
15.0
 40
16.0
 40
16.0
 40
16.0
 40
17.0
 40
17.0
 40
17.0
 40
18.0
 40
18.0
 40
18.0
 40
19.0
 40
19.0
 40
19.0
 40
20.0
 40
20.0
 40
20.0
 40
21.0
 40
21.0
 40
21.0
 40
22.0
 40
22.0
 40
22.0
 40
23.0
 40
23.0
 40
23.0
 40
24.0
 40
24.0
 40
24.0
 40
25.0
 40
25.0
 40
25.0
 40
26.0
 40
26.0
 40
26.0
 40
27.0
 40
27.0
 40
27.0
 40
28.0
 40
28.0
 40
28.0
 40
29.0
 40
29.0
 40
29.0
 40
30.0
 40
30.0
 40
30.0
 40
31.0
 40
31.0
 40
31.0
 40
32.0
 40
32.0
 40
32.0
 40
33.0
 40
33.0
 40
33.0
 40
34.0
 40
34.0
 40
34.0
 40
35.0
 40
35.0
 40
35.0
 40
36.0
 40
36.0
 40
36.0
 40
37.0
 40
37.0
 40
37.0
 40
38.0
 40
38.0
 40
38.0
 40
39.0
 40
39.0
 40
39.0
 40
40.0
 40
40.0
 40
40.0
 40
41.0
 40
41.0
 40
41.0
 40
42.0
 40
42.0
 40
42.0
 40
43.0
 40
43.0
 40
43.0
 40
44.0
 40
44.0
 40
44.0
 40
45.0
 40
45.0
 40
45.0
 40
46.0
 40
46.0
 40
46.0
 40
47.0
 40
47.0
 40
47.0
 40
48.0
 40
48.0
 40
48.0
 40
49.0
 40
49.0
 40
49.0
 40
50.0
 40
50.0
 40
50.0
 40
51.0
 40
51.0
 40
51.0
 40
52.0
 40
52.0
 40
52.0
 40
53.0
 40
53.0
 40
53.0
 40
54.0
 40
54.0
 40
54.0
 40
55.0
 40
55.0
 40
55.0
 40
56.0
 40
56.0
 40
56.0
 40
56.0
 10
80.45001220703125
 20
112.2489929199219
 30
0.0
 10
80.42300415039062
 20
112.4509963989258
 30
0.0
 10
80.30902099609375
 20
112.6319961547852
 30
0.0
 10
80.13900756835938
 20
112.7449951171875
 30
0.0
 10
79.968994140625
 20
112.8569946289062
 30
0.0
 10
79.7550048828125
 20
112.890998840332
 30
0.0
 10
79.56201171875
 20
112.8379974365234
 30
0.0
 10
79.56201171875
 20
112.8379974365234
 30
0.0
 10
59.677001953125
 20
107.4309997558594
 30
0.0
 10
59.677001953125
 20
107.4309997558594
 30
0.0
 10
59.468994140625
 20
107.375
 30
0.0
 10
59.29901123046875
 20
107.2279968261719
 30
0.0
 10
59.2130126953125
 20
107.031005859375
 30
0.0
 10
59.2130126953125
 20
107.031005859375
 30
0.0
 10
41.25900268554688
 20
65.81900024414062
 30
0.0
 10
41.25900268554688
 20
65.81900024414062
 30
0.0
 10
41.25900268554688
 20
65.81900024414062
 30
0.0
 10
39.23199462890625
 20
71.32200622558594
 30
0.0
 10
39.23199462890625
 20
71.32200622558594
 30
0.0
 10
39.2139892578125
 20
71.37100219726562
 30
0.0
 10
39.19100952148438
 20
71.41799926757812
 30
0.0
 10
39.16299438476562
 20
71.46101379394531
 30
0.0
 10
39.16299438476562
 20
71.46101379394531
 30
0.0
 10
30.19599914550781
 20
85.36801147460938
 30
0.0
 10
30.19599914550781
 20
85.36801147460938
 30
0.0
 10
30.19599914550781
 20
85.36801147460938
 30
0.0
 10
35.37100219726562
 20
89.84701538085938
 30
0.0
 10
35.37100219726562
 20
89.84701538085938
 30
0.0
 10
35.4630126953125
 20
89.92701721191406
 30
0.0
 10
35.53298950195312
 20
90.02902221679688
 30
0.0
 10
35.57400512695312
 20
90.14302062988281
 30
0.0
 10
35.57400512695312
 20
90.14302062988281
 30
0.0
 10
37.05801391601562
 20
94.26802062988281
 30
0.0
 10
37.05801391601562
 20
94.26802062988281
 30
0.0
 10
37.114013671875
 20
94.3690185546875
 30
0.0
 10
37.15402221679688
 20
94.47901916503906
 30
0.0
 10
37.15402221679688
 20
94.60302734375
 30
0.0
 10
37.15402221679688
 20
94.75602722167969
 30
0.0
 10
37.10501098632812
 20
94.89802551269531
 30
0.0
 10
37.02301025390625
 20
95.01402282714844
 30
0.0
 10
37.02301025390625
 20
95.01402282714844
 30
0.0
 10
29.02801513671875
 20
114.5160217285156
 30
0.0
 10
29.02801513671875
 20
114.5160217285156
 30
0.0
 10
28.93202209472656
 20
114.7510223388672
 30
0.0
 10
28.71701049804688
 20
114.9160232543945
 30
0.0
 10
28.46601867675781
 20
114.9500198364258
 30
0.0
 10
28.21601867675781
 20
114.9900207519531
 30
0.0
 10
27.96401977539062
 20
114.8810195922852
 30
0.0
 10
27.81001281738281
 20
114.6790161132812
 30
0.0
 10
27.81001281738281
 20
114.6790161132812
 30
0.0
 10
21.99801635742188
 20
107.093017578125
 30
0.0
 10
21.99801635742188
 20
107.093017578125
 30
0.0
 10
21.99801635742188
 20
107.093017578125
 30
0.0
 10
7.844009399414062
 20
99.26602172851562
 30
0.0
 10
7.844009399414062
 20
99.26602172851562
 30
0.0
 10
7.649002075195312
 20
99.15902709960938
 30
0.0
 10
7.516006469726562
 20
98.96502685546875
 30
0.0
 10
7.485015869140625
 20
98.74502563476562
 30
0.0
 10
7.485015869140625
 20
98.74502563476562
 30
0.0
 10
6.74700927734375
 20
93.50102233886719
 30
0.0
 10
6.74700927734375
 20
93.50102233886719
 30
0.0
 10
6.701004028320312
 20
93.16902160644531
 30
0.0
 10
6.89300537109375
 20
92.85002136230469
 30
0.0
 10
7.2080078125
 20
92.73602294921875
 30
0.0
 10
7.2080078125
 20
92.73602294921875
 30
0.0
 10
14.27000427246094
 20
90.18002319335938
 30
0.0
 10
14.27000427246094
 20
90.18002319335938
 30
0.0
 10
14.27000427246094
 20
90.18002319335938
 30
0.0
 10
8.904998779296875
 20
75.43202209472656
 30
0.0
 10
8.904998779296875
 20
75.43202209472656
 30
0.0
 10
8.9010009765625
 20
75.42002868652344
 30
0.0
 10
8.904998779296875
 20
75.40902709960938
 30
0.0
 10
8.901992797851562
 20
75.39701843261719
 30
0.0
 10
8.868988037109375
 20
75.29202270507812
 30
0.0
 10
8.853988647460938
 20
75.18202209472656
 30
0.0
 10
8.87298583984375
 20
75.07301330566406
 30
0.0
 10
8.87298583984375
 20
75.07200622558594
 30
0.0
 10
8.87298583984375
 20
75.07101440429688
 30
0.0
 10
8.873992919921875
 20
75.07000732421875
 30
0.0
 10
8.888992309570312
 20
74.98100280761719
 30
0.0
 10
8.920989990234375
 20
74.89300537109375
 30
0.0
 10
8.972000122070312
 20
74.81201171875
 30
0.0
 10
8.979995727539062
 20
74.79901123046875
 30
0.0
 10
8.9949951171875
 20
74.79400634765625
 30
0.0
 10
9.003997802734375
 20
74.78201293945312
 30
0.0
 10
9.01300048828125
 20
74.77001953125
 30
0.0
 10
9.011993408203125
 20
74.75502014160156
 30
0.0
 10
9.022003173828125
 20
74.74301147460938
 30
0.0
 10
9.064010620117188
 20
74.6920166015625
 30
0.0
 10
9.121002197265625
 20
74.6610107421875
 30
0.0
 10
9.173004150390625
 20
74.62400817871094
 30
0.0
 10
9.199996948242188
 20
74.60400390625
 30
0.0
 10
9.222000122070312
 20
74.57701110839844
 30
0.0
 10
9.251998901367188
 20
74.56201171875
 30
0.0
 10
9.350997924804688
 20
74.51101684570312
 30
0.0
 10
9.457992553710938
 20
74.48101806640625
 30
0.0
 10
9.570999145507812
 20
74.48101806640625
 30
0.0
 10
9.570999145507812
 20
74.48101806640625
 30
0.0
 10
9.572006225585938
 20
74.48101806640625
 30
0.0
 10
9.572006225585938
 20
74.48101806640625
 30
0.0
 10
9.572006225585938
 20
74.48101806640625
 30
0.0
 10
9.572006225585938
 20
74.48101806640625
 30
0.0
 10
9.572006225585938
 20
74.48101806640625
 30
0.0
 10
9.572006225585938
 20
74.48101806640625
 30
0.0
 10
9.573013305664062
 20
74.48101806640625
 30
0.0
 10
9.573013305664062
 20
74.48101806640625
 30
0.0
 10
9.607009887695312
 20
74.48101806640625
 30
0.0
 10
9.639007568359375
 20
74.48402404785156
 30
0.0
 10
9.673019409179688
 20
74.489013671875
 30
0.0
 10
9.673019409179688
 20
74.489013671875
 30
0.0
 10
13.94401550292969
 20
75.10801696777344
 30
0.0
 10
13.94401550292969
 20
75.10801696777344
 30
0.0
 10
13.94401550292969
 20
75.10801696777344
 30
0.0
 10
12.55601501464844
 20
66.10501098632812
 30
0.0
 10
12.55601501464844
 20
66.10501098632812
 30
0.0
 10
12.53302001953125
 20
65.95201110839844
 30
0.0
 10
12.56001281738281
 20
65.79400634765625
 30
0.0
 10
12.63301086425781
 20
65.65800476074219
 30
0.0
 10
12.63301086425781
 20
65.65800476074219
 30
0.0
 10
20.42800903320312
 20
51.32400512695312
 30
0.0
 10
20.42800903320312
 20
51.32400512695312
 30
0.0
 10
20.43600463867188
 20
51.30900573730469
 30
0.0
 10
20.45100402832031
 20
51.30400085449219
 30
0.0
 10
20.46000671386719
 20
51.29100036621094
 30
0.0
 10
20.51200866699219
 20
51.20899963378906
 30
0.0
 10
20.5780029296875
 20
51.14199829101562
 30
0.0
 10
20.65800476074219
 20
51.08700561523438
 30
0.0
 10
20.6820068359375
 20
51.07000732421875
 30
0.0
 10
20.70401000976562
 20
51.05400085449219
 30
0.0
 10
20.73001098632812
 20
51.04100036621094
 30
0.0
 10
20.82801818847656
 20
50.99000549316406
 30
0.0
 10
20.93301391601562
 20
50.95399475097656
 30
0.0
 10
21.04901123046875
 20
50.95399475097656
 30
0.0
 10
21.05001831054688
 20
50.95399475097656
 30
0.0
 10
21.05001831054688
 20
50.95399475097656
 30
0.0
 10
21.05101013183594
 20
50.95399475097656
 30
0.0
 10
21.05101013183594
 20
50.95399475097656
 30
0.0
 10
21.05101013183594
 20
50.95399475097656
 30
0.0
 10
21.05101013183594
 20
50.95399475097656
 30
0.0
 10
21.05101013183594
 20
50.95399475097656
 30
0.0
 10
21.05101013183594
 20
50.95399475097656
 30
0.0
 10
21.05101013183594
 20
50.95399475097656
 30
0.0
 10
21.06401062011719
 20
50.95399475097656
 30
0.0
 10
21.07600402832031
 20
50.95500183105469
 30
0.0
 10
21.08900451660156
 20
50.95500183105469
 30
0.0
 10
21.08900451660156
 20
50.95500183105469
 30
0.0
 10
51.84201049804688
 20
52.65400695800781
 30
0.0
 10
51.84201049804688
 20
52.65400695800781
 30
0.0
 10
51.92901611328125
 20
52.65901184082031
 30
0.0
 10
52.010009765625
 20
52.6820068359375
 30
0.0
 10
52.08700561523438
 20
52.71600341796875
 30
0.0
 10
52.10501098632812
 20
52.7239990234375
 30
0.0
 10
52.1190185546875
 20
52.73699951171875
 30
0.0
 10
52.13699340820312
 20
52.74600219726562
 30
0.0
 10
52.20498657226562
 20
52.78399658203125
 30
0.0
 10
52.2659912109375
 20
52.83100891113281
 30
0.0
 10
52.31900024414062
 20
52.88800048828125
 30
0.0
 10
52.32901000976562
 20
52.89999389648438
 30
0.0
 10
52.34298706054688
 20
52.90400695800781
 30
0.0
 10
52.35299682617188
 20
52.91499328613281
 30
0.0
 10
52.35299682617188
 20
52.91499328613281
 30
0.0
 10
83.12899780273438
 20
90.80198669433594
 30
0.0
 10
83.12899780273438
 20
90.80198669433594
 30
0.0
 10
83.25299072265625
 20
90.9539794921875
 30
0.0
 10
83.3079833984375
 20
91.15098571777344
 30
0.0
 10
83.281005859375
 20
91.343994140625
 30
0.0
 10
83.281005859375
 20
91.343994140625
 30
0.0
 10
80.45001220703125
 20
112.2489929199219
 30
0.0
 10
80.45001220703125
 20
112.2489929199219
 30
0.0
  0
POLYLINE
  5
42
330
1F
100
AcDbEntity
  8
Layer 1
370
     0
100
AcDb2dPolyline
 66
     1
 10
0.0
 20
0.0
 30
0.0
  0
VERTEX
  5
43
330
42
100
AcDbEntity
  8
Layer 1
370
     0
100
AcDbVertex
100
AcDb2dVertex
 10
12.77301025390625
 20
76.36799621582031
 30
0.0
  0
VERTEX
  5
44
330
42
100
AcDbEntity
  8
Layer 1
370
     0
100
AcDbVertex
100
AcDb2dVertex
 10
26.43400573730469
 20
84.97499084472656
 30
0.0
  0
VERTEX
  5
45
330
42
100
AcDbEntity
  8
Layer 1
370
     0
100
AcDbVertex
100
AcDb2dVertex
 10
26.43400573730469
 20
78.34898376464844
 30
0.0
  0
VERTEX
  5
46
330
42
100
AcDbEntity
  8
Layer 1
370
     0
100
AcDbVertex
100
AcDb2dVertex
 10
12.77301025390625
 20
76.36799621582031
 30
0.0
  0
SEQEND
  5
47
330
42
100
AcDbEntity
  8
Layer 1
370
     0
  0
POLYLINE
  5
48
330
1F
100
AcDbEntity
  8
Layer 1
370
     0
100
AcDb2dPolyline
 66
     1
 10
0.0
 20
0.0
 30
0.0
  0
VERTEX
  5
49
330
48
100
AcDbEntity
  8
Layer 1
370
     0
100
AcDbVertex
100
AcDb2dVertex
 10
27.85200500488281
 20
85.25900268554688
 30
0.0
  0
VERTEX
  5
4A
330
48
100
AcDbEntity
  8
Layer 1
370
     0
100
AcDbVertex
100
AcDb2dVertex
 10
28.802001953125
 20
84.91500854492188
 30
0.0
  0
VERTEX
  5
4B
330
48
100
AcDbEntity
  8
Layer 1
370
     0
100
AcDbVertex
100
AcDb2dVertex
 10
36.36898803710938
 20
73.17800903320312
 30
0.0
  0
VERTEX
  5
4C
330
48
100
AcDbEntity
  8
Layer 1
370
     0
100
AcDbVertex
100
AcDb2dVertex
 10
27.85098266601562
 20
78.14401245117188
 30
0.0
  0
VERTEX
  5
4D
330
48
100
AcDbEntity
  8
Layer 1
370
     0
100
AcDbVertex
100
AcDb2dVertex
 10
27.85098266601562
 20
85.25900268554688
 30
0.0
  0
VERTEX
  5
4E
330
48
100
AcDbEntity
  8
Layer 1
370
     0
100
AcDbVertex
100
AcDb2dVertex
 10
27.85200500488281
 20
85.25900268554688
 30
0.0
  0
SEQEND
  5
4F
330
48
100
AcDbEntity
  8
Layer 1
370
     0
  0
POLYLINE
  5
50
330
1F
100
AcDbEntity
  8
Layer 1
370
     0
100
AcDb2dPolyline
 66
     1
 10
0.0
 20
0.0
 30
0.0
  0
VERTEX
  5
51
330
50
100
AcDbEntity
  8
Layer 1
370
     0
100
AcDbVertex
100
AcDb2dVertex
 10
28.18600463867188
 20
112.8349990844727
 30
0.0
  0
VERTEX
  5
52
330
50
100
AcDbEntity
  8
Layer 1
370
     0
100
AcDbVertex
100
AcDb2dVertex
 10
34.65798950195312
 20
97.04600524902344
 30
0.0
  0
VERTEX
  5
53
330
50
100
AcDbEntity
  8
Layer 1
370
     0
100
AcDbVertex
100
AcDb2dVertex
 10
23.44099426269531
 20
106.6430053710938
 30
0.0
  0
VERTEX
  5
54
330
50
100
AcDbEntity
  8
Layer 1
370
     0
100
AcDbVertex
100
AcDb2dVertex
 10
28.18600463867188
 20
112.8349990844727
 30
0.0
  0
SEQEND
  5
55
330
50
100
AcDbEntity
  8
Layer 1
370
     0
  0
POLYLINE
  5
56
330
1F
100
AcDbEntity
  8
Layer 1
370
     0
100
AcDb2dPolyline
 66
     1
 10
0.0
 20
0.0
 30
0.0
  0
VERTEX
  5
57
330
56
100
AcDbEntity
  8
Layer 1
370
     0
100
AcDbVertex
100
AcDb2dVertex
 10
8.839004516601562
 20
98.19400024414062
 30
0.0
  0
VERTEX
  5
58
330
56
100
AcDbEntity
  8
Layer 1
370
     0
100
AcDbVertex
100
AcDb2dVertex
 10
22.38301086425781
 20
105.6840057373047
 30
0.0
  0
VERTEX
  5
59
330
56
100
AcDbEntity
  8
Layer 1
370
     0
100
AcDbVertex
100
AcDb2dVertex
 10
35.593017578125
 20
94.38101196289062
 30
0.0
  0
VERTEX
  5
5A
330
56
100
AcDbEntity
  8
Layer 1
370
     0
100
AcDbVertex
100
AcDb2dVertex
 10
34.30401611328125
 20
90.79501342773438
 30
0.0
  0
VERTEX
  5
5B
330
56
100
AcDbEntity
  8
Layer 1
370
     0
100
AcDbVertex
100
AcDb2dVertex
 10
29.11801147460938
 20
86.30801391601562
 30
0.0
  0
VERTEX
  5
5C
330
56
100
AcDbEntity
  8
Layer 1
370
     0
100
AcDbVertex
100
AcDb2dVertex
 10
8.230010986328125
 20
93.87001037597656
 30
0.0
  0
VERTEX
  5
5D
330
56
100
AcDbEntity
  8
Layer 1
370
     0
100
AcDbVertex
100
AcDb2dVertex
 10
8.839004516601562
 20
98.19400024414062
 30
0.0
  0
SEQEND
  5
5E
330
56
100
AcDbEntity
  8
Layer 1
370
     0
  0
POLYLINE
  5
5F
330
1F
100
AcDbEntity
  8
Layer 1
370
     0
100
AcDb2dPolyline
 66
     1
 10
0.0
 20
0.0
 30
0.0
  0
VERTEX
  5
60
330
5F
100
AcDbEntity
  8
Layer 1
370
     0
100
AcDbVertex
100
AcDb2dVertex
 10
25.54901123046875
 20
86.09300231933594
 30
0.0
  0
VERTEX
  5
61
330
5F
100
AcDbEntity
  8
Layer 1
370
     0
100
AcDbVertex
100
AcDb2dVertex
 10
10.94401550292969
 20
76.88999938964844
 30
0.0
  0
VERTEX
  5
62
330
5F
100
AcDbEntity
  8
Layer 1
370
     0
100
AcDbVertex
100
AcDb2dVertex
 10
15.60101318359375
 20
89.69499206542969
 30
0.0
  0
VERTEX
  5
63
330
5F
100
AcDbEntity
  8
Layer 1
370
     0
100
AcDbVertex
100
AcDb2dVertex
 10
25.54901123046875
 20
86.09300231933594
 30
0.0
  0
SEQEND
  5
64
330
5F
100
AcDbEntity
  8
Layer 1
370
     0
  0
SPLINE
  5
65
330
1F
100
AcDbEntity
  8
Layer 1
370
     0
100
AcDbSpline
210
0.0
220
0.0
230
1.0
 70
    11
 71
     3
 72
    38
 73
    34
 74
     0
 42
0.0000000001
 43
0.0000000001
 12
1.0
 22
0.0
 32
0.0
 13
1.0
 23
0.0
 33
0.0
 40
0.0
 40
0.0
 40
0.0
 40
0.0
 40
1.0
 40
1.0
 40
1.0
 40
2.0
 40
2.0
 40
2.0
 40
3.0
 40
3.0
 40
3.0
 40
4.0
 40
4.0
 40
4.0
 40
5.0
 40
5.0
 40
5.0
 40
6.0
 40
6.0
 40
6.0
 40
7.0
 40
7.0
 40
7.0
 40
8.0
 40
8.0
 40
8.0
 40
9.0
 40
9.0
 40
9.0
 40
10.0
 40
10.0
 40
10.0
 40
11.0
 40
11.0
 40
11.0
 40
11.0
 10
15.40800476074219
 20
75.3179931640625
 30
0.0
 10
15.40800476074219
 20
75.3179931640625
 30
0.0
 10
27.0
 20
77.0
 30
0.0
 10
27.0
 20
77.0
 30
0.0
 10
27.0
 20
77.0
 30
0.0
 10
37.99099731445312
 20
70.59199523925781
 30
0.0
 10
37.99099731445312
 20
70.59199523925781
 30
0.0
 10
37.99099731445312
 20
70.59199523925781
 30
0.0
 10
40.40899658203125
 20
64.02799987792969
 30
0.0
 10
40.40899658203125
 20
64.02799987792969
 30
0.0
 10
40.41900634765625
 20
64.00199890136719
 30
0.0
 10
40.43600463867188
 20
63.98100280761719
 30
0.0
 10
40.44900512695312
 20
63.95700073242188
 30
0.0
 10
40.44900512695312
 20
63.95700073242188
 30
0.0
 10
39.20599365234375
 20
61.10299682617188
 30
0.0
 10
39.20599365234375
 20
61.10299682617188
 30
0.0
 10
39.20599365234375
 20
61.10299682617188
 30
0.0
 10
27.58200073242188
 20
67.50099182128906
 30
0.0
 10
27.58200073242188
 20
67.50099182128906
 30
0.0
 10
27.40699768066406
 20
67.59698486328125
 30
0.0
 10
27.19700622558594
 20
67.61599731445312
 30
0.0
 10
27.00900268554688
 20
67.54998779296875
 30
0.0
 10
26.82099914550781
 20
67.4849853515625
 30
0.0
 10
26.66700744628906
 20
67.34199523925781
 30
0.0
 10
26.58900451660156
 20
67.15798950195312
 30
0.0
 10
26.58900451660156
 20
67.15798950195312
 30
0.0
 10
20.80300903320312
 20
53.59599304199219
 30
0.0
 10
20.80300903320312
 20
53.59599304199219
 30
0.0
 10
20.80300903320312
 20
53.59599304199219
 30
0.0
 10
13.99101257324219
 20
66.12199401855469
 30
0.0
 10
13.99101257324219
 20
66.12199401855469
 30
0.0
 10
13.99101257324219
 20
66.12199401855469
 30
0.0
 10
15.40800476074219
 20
75.3179931640625
 30
0.0
 10
15.40800476074219
 20
75.3179931640625
 30
0.0
  0
POLYLINE
  5
66
330
1F
100
AcDbEntity
  8
Layer 1
370
     0
100
AcDb2dPolyline
 66
     1
 10
0.0
 20
0.0
 30
0.0
  0
VERTEX
  5
67
330
66
100
AcDbEntity
  8
Layer 1
370
     0
100
AcDbVertex
100
AcDb2dVertex
 10
33.58901977539062
 20
62.57598876953125
 30
0.0
  0
VERTEX
  5
68
330
66
100
AcDbEntity
  8
Layer 1
370
     0
100
AcDbVertex
100
AcDb2dVertex
 10
22.73002624511719
 20
54.50099182128906
 30
0.0
  0
VERTEX
  5
69
330
66
100
AcDbEntity
  8
Layer 1
370
     0
100
AcDbVertex
100
AcDb2dVertex
 10
27.58502197265625
 20
65.88099670410156
 30
0.0
  0
VERTEX
  5
6A
330
66
100
AcDbEntity
  8
Layer 1
370
     0
100
AcDbVertex
100
AcDb2dVertex
 10
33.58901977539062
 20
62.57598876953125
 30
0.0
  0
SEQEND
  5
6B
330
66
100
AcDbEntity
  8
Layer 1
370
     0
  0
POLYLINE
  5
6C
330
1F
100
AcDbEntity
  8
Layer 1
370
     0
100
AcDb2dPolyline
 66
     1
 10
0.0
 20
0.0
 30
0.0
  0
VERTEX
  5
6D
330
6C
100
AcDbEntity
  8
Layer 1
370
     0
100
AcDbVertex
100
AcDb2dVertex
 10
22.33401489257812
 20
52.44099426269531
 30
0.0
  0
VERTEX
  5
6E
330
6C
100
AcDbEntity
  8
Layer 1
370
     0
100
AcDbVertex
100
AcDb2dVertex
 10
34.95401000976562
 20
61.82398986816406
 30
0.0
  0
VERTEX
  5
6F
330
6C
100
AcDbEntity
  8
Layer 1
370
     0
100
AcDbVertex
100
AcDb2dVertex
 10
49.29501342773438
 20
53.92999267578125
 30
0.0
  0
VERTEX
  5
70
330
6C
100
AcDbEntity
  8
Layer 1
370
     0
100
AcDbVertex
100
AcDb2dVertex
 10
22.33401489257812
 20
52.44099426269531
 30
0.0
  0
SEQEND
  5
71
330
6C
100
AcDbEntity
  8
Layer 1
370
     0
  0
POLYLINE
  5
72
330
1F
100
AcDbEntity
  8
Layer 1
370
     0
100
AcDb2dPolyline
 66
     1
 10
0.0
 20
0.0
 30
0.0
  0
VERTEX
  5
73
330
72
100
AcDbEntity
  8
Layer 1
370
     0
100
AcDbVertex
100
AcDb2dVertex
 10
51.625
 20
54.26499938964844
 30
0.0
  0
VERTEX
  5
74
330
72
100
AcDbEntity
  8
Layer 1
370
     0
100
AcDbVertex
100
AcDb2dVertex
 10
40.45199584960938
 20
60.41499328613281
 30
0.0
  0
VERTEX
  5
75
330
72
100
AcDbEntity
  8
Layer 1
370
     0
100
AcDbVertex
100
AcDb2dVertex
 10
60.37698364257812
 20
106.1509857177734
 30
0.0
  0
VERTEX
  5
76
330
72
100
AcDbEntity
  8
Layer 1
370
     0
100
AcDbVertex
100
AcDb2dVertex
 10
79.15399169921875
 20
111.2569885253906
 30
0.0
  0
VERTEX
  5
77
330
72
100
AcDbEntity
  8
Layer 1
370
     0
100
AcDbVertex
100
AcDb2dVertex
 10
81.83499145507812
 20
91.45298767089844
 30
0.0
  0
VERTEX
  5
78
330
72
100
AcDbEntity
  8
Layer 1
370
     0
100
AcDbVertex
100
AcDb2dVertex
 10
51.625
 20
54.26499938964844
 30
0.0
  0
SEQEND
  5
79
330
72
100
AcDbEntity
  8
Layer 1
370
     0
  0
HATCH
  5
7A
330
1F
100
AcDbEntity
  8
Layer 1
 62
     7
420
 16777215
100
AcDbHatch
 10
0.0
 20
0.0
 30
0.0
210
0.0
220
0.0
230
1.0
  2
SOLID
 70
     1
 71
     0
 91
       10
 92
        1
 93
        1
 72
     4
 94
        3
 73
     0
 74
     1
 95
      173
 96
      169
 40
0.0
 40
0.0
 40
0.0
 40
0.0
 40
1.0
 40
1.0
 40
1.0
 40
2.0
 40
2.0
 40
2.0
 40
3.0
 40
3.0
 40
3.0
 40
4.0
 40
4.0
 40
4.0
 40
5.0
 40
5.0
 40
5.0
 40
6.0
 40
6.0
 40
6.0
 40
7.0
 40
7.0
 40
7.0
 40
8.0
 40
8.0
 40
8.0
 40
9.0
 40
9.0
 40
9.0
 40
10.0
 40
10.0
 40
10.0
 40
11.0
 40
11.0
 40
11.0
 40
12.0
 40
12.0
 40
12.0
 40
13.0
 40
13.0
 40
13.0
 40
14.0
 40
14.0
 40
14.0
 40
15.0
 40
15.0
 40
15.0
 40
16.0
 40
16.0
 40
16.0
 40
17.0
 40
17.0
 40
17.0
 40
18.0
 40
18.0
 40
18.0
 40
19.0
 40
19.0
 40
19.0
 40
20.0
 40
20.0
 40
20.0
 40
21.0
 40
21.0
 40
21.0
 40
22.0
 40
22.0
 40
22.0
 40
23.0
 40
23.0
 40
23.0
 40
24.0
 40
24.0
 40
24.0
 40
25.0
 40
25.0
 40
25.0
 40
26.0
 40
26.0
 40
26.0
 40
27.0
 40
27.0
 40
27.0
 40
28.0
 40
28.0
 40
28.0
 40
29.0
 40
29.0
 40
29.0
 40
30.0
 40
30.0
 40
30.0
 40
31.0
 40
31.0
 40
31.0
 40
32.0
 40
32.0
 40
32.0
 40
33.0
 40
33.0
 40
33.0
 40
34.0
 40
34.0
 40
34.0
 40
35.0
 40
35.0
 40
35.0
 40
36.0
 40
36.0
 40
36.0
 40
37.0
 40
37.0
 40
37.0
 40
38.0
 40
38.0
 40
38.0
 40
39.0
 40
39.0
 40
39.0
 40
40.0
 40
40.0
 40
40.0
 40
41.0
 40
41.0
 40
41.0
 40
42.0
 40
42.0
 40
42.0
 40
43.0
 40
43.0
 40
43.0
 40
44.0
 40
44.0
 40
44.0
 40
45.0
 40
45.0
 40
45.0
 40
46.0
 40
46.0
 40
46.0
 40
47.0
 40
47.0
 40
47.0
 40
48.0
 40
48.0
 40
48.0
 40
49.0
 40
49.0
 40
49.0
 40
50.0
 40
50.0
 40
50.0
 40
51.0
 40
51.0
 40
51.0
 40
52.0
 40
52.0
 40
52.0
 40
53.0
 40
53.0
 40
53.0
 40
54.0
 40
54.0
 40
54.0
 40
55.0
 40
55.0
 40
55.0
 40
56.0
 40
56.0
 40
56.0
 40
56.0
 10
80.45001220703125
 20
112.2489929199219
 10
80.42300415039062
 20
112.4509963989258
 10
80.30902099609375
 20
112.6319961547852
 10
80.13900756835938
 20
112.7449951171875
 10
79.968994140625
 20
112.8569946289062
 10
79.7550048828125
 20
112.890998840332
 10
79.56201171875
 20
112.8379974365234
 10
79.56201171875
 20
112.8379974365234
 10
59.677001953125
 20
107.4309997558594
 10
59.677001953125
 20
107.4309997558594
 10
59.468994140625
 20
107.375
 10
59.29901123046875
 20
107.2279968261719
 10
59.2130126953125
 20
107.031005859375
 10
59.2130126953125
 20
107.031005859375
 10
41.25900268554688
 20
65.81900024414062
 10
41.25900268554688
 20
65.81900024414062
 10
41.25900268554688
 20
65.81900024414062
 10
39.23199462890625
 20
71.32200622558594
 10
39.23199462890625
 20
71.32200622558594
 10
39.2139892578125
 20
71.37100219726562
 10
39.19100952148438
 20
71.41799926757812
 10
39.16299438476562
 20
71.46101379394531
 10
39.16299438476562
 20
71.46101379394531
 10
30.19599914550781
 20
85.36801147460938
 10
30.19599914550781
 20
85.36801147460938
 10
30.19599914550781
 20
85.36801147460938
 10
35.37100219726562
 20
89.84701538085938
 10
35.37100219726562
 20
89.84701538085938
 10
35.4630126953125
 20
89.92701721191406
 10
35.53298950195312
 20
90.02902221679688
 10
35.57400512695312
 20
90.14302062988281
 10
35.57400512695312
 20
90.14302062988281
 10
37.05801391601562
 20
94.26802062988281
 10
37.05801391601562
 20
94.26802062988281
 10
37.114013671875
 20
94.3690185546875
 10
37.15402221679688
 20
94.47901916503906
 10
37.15402221679688
 20
94.60302734375
 10
37.15402221679688
 20
94.75602722167969
 10
37.10501098632812
 20
94.89802551269531
 10
37.02301025390625
 20
95.01402282714844
 10
37.02301025390625
 20
95.01402282714844
 10
29.02801513671875
 20
114.5160217285156
 10
29.02801513671875
 20
114.5160217285156
 10
28.93202209472656
 20
114.7510223388672
 10
28.71701049804688
 20
114.9160232543945
 10
28.46601867675781
 20
114.9500198364258
 10
28.21601867675781
 20
114.9900207519531
 10
27.96401977539062
 20
114.8810195922852
 10
27.81001281738281
 20
114.6790161132812
 10
27.81001281738281
 20
114.6790161132812
 10
21.99801635742188
 20
107.093017578125
 10
21.99801635742188
 20
107.093017578125
 10
21.99801635742188
 20
107.093017578125
 10
7.844009399414062
 20
99.26602172851562
 10
7.844009399414062
 20
99.26602172851562
 10
7.649002075195312
 20
99.15902709960938
 10
7.516006469726562
 20
98.96502685546875
 10
7.485015869140625
 20
98.74502563476562
 10
7.485015869140625
 20
98.74502563476562
 10
6.74700927734375
 20
93.50102233886719
 10
6.74700927734375
 20
93.50102233886719
 10
6.701004028320312
 20
93.16902160644531
 10
6.89300537109375
 20
92.85002136230469
 10
7.2080078125
 20
92.73602294921875
 10
7.2080078125
 20
92.73602294921875
 10
14.27000427246094
 20
90.18002319335938
 10
14.27000427246094
 20
90.18002319335938
 10
14.27000427246094
 20
90.18002319335938
 10
8.904998779296875
 20
75.43202209472656
 10
8.904998779296875
 20
75.43202209472656
 10
8.9010009765625
 20
75.42002868652344
 10
8.904998779296875
 20
75.40902709960938
 10
8.901992797851562
 20
75.39701843261719
 10
8.868988037109375
 20
75.29202270507812
 10
8.853988647460938
 20
75.18202209472656
 10
8.87298583984375
 20
75.07301330566406
 10
8.87298583984375
 20
75.07200622558594
 10
8.87298583984375
 20
75.07101440429688
 10
8.873992919921875
 20
75.07000732421875
 10
8.888992309570312
 20
74.98100280761719
 10
8.920989990234375
 20
74.89300537109375
 10
8.972000122070312
 20
74.81201171875
 10
8.979995727539062
 20
74.79901123046875
 10
8.9949951171875
 20
74.79400634765625
 10
9.003997802734375
 20
74.78201293945312
 10
9.01300048828125
 20
74.77001953125
 10
9.011993408203125
 20
74.75502014160156
 10
9.022003173828125
 20
74.74301147460938
 10
9.064010620117188
 20
74.6920166015625
 10
9.121002197265625
 20
74.6610107421875
 10
9.173004150390625
 20
74.62400817871094
 10
9.199996948242188
 20
74.60400390625
 10
9.222000122070312
 20
74.57701110839844
 10
9.251998901367188
 20
74.56201171875
 10
9.350997924804688
 20
74.51101684570312
 10
9.457992553710938
 20
74.48101806640625
 10
9.570999145507812
 20
74.48101806640625
 10
9.570999145507812
 20
74.48101806640625
 10
9.572006225585938
 20
74.48101806640625
 10
9.572006225585938
 20
74.48101806640625
 10
9.572006225585938
 20
74.48101806640625
 10
9.572006225585938
 20
74.48101806640625
 10
9.572006225585938
 20
74.48101806640625
 10
9.572006225585938
 20
74.48101806640625
 10
9.573013305664062
 20
74.48101806640625
 10
9.573013305664062
 20
74.48101806640625
 10
9.607009887695312
 20
74.48101806640625
 10
9.639007568359375
 20
74.48402404785156
 10
9.673019409179688
 20
74.489013671875
 10
9.673019409179688
 20
74.489013671875
 10
13.94401550292969
 20
75.10801696777344
 10
13.94401550292969
 20
75.10801696777344
 10
13.94401550292969
 20
75.10801696777344
 10
12.55601501464844
 20
66.10501098632812
 10
12.55601501464844
 20
66.10501098632812
 10
12.53302001953125
 20
65.95201110839844
 10
12.56001281738281
 20
65.79400634765625
 10
12.63301086425781
 20
65.65800476074219
 10
12.63301086425781
 20
65.65800476074219
 10
20.42800903320312
 20
51.32400512695312
 10
20.42800903320312
 20
51.32400512695312
 10
20.43600463867188
 20
51.30900573730469
 10
20.45100402832031
 20
51.30400085449219
 10
20.46000671386719
 20
51.29100036621094
 10
20.51200866699219
 20
51.20899963378906
 10
20.5780029296875
 20
51.14199829101562
 10
20.65800476074219
 20
51.08700561523438
 10
20.6820068359375
 20
51.07000732421875
 10
20.70401000976562
 20
51.05400085449219
 10
20.73001098632812
 20
51.04100036621094
 10
20.82801818847656
 20
50.99000549316406
 10
20.93301391601562
 20
50.95399475097656
 10
21.04901123046875
 20
50.95399475097656
 10
21.05001831054688
 20
50.95399475097656
 10
21.05001831054688
 20
50.95399475097656
 10
21.05101013183594
 20
50.95399475097656
 10
21.05101013183594
 20
50.95399475097656
 10
21.05101013183594
 20
50.95399475097656
 10
21.05101013183594
 20
50.95399475097656
 10
21.05101013183594
 20
50.95399475097656
 10
21.05101013183594
 20
50.95399475097656
 10
21.05101013183594
 20
50.95399475097656
 10
21.06401062011719
 20
50.95399475097656
 10
21.07600402832031
 20
50.95500183105469
 10
21.08900451660156
 20
50.95500183105469
 10
21.08900451660156
 20
50.95500183105469
 10
51.84201049804688
 20
52.65400695800781
 10
51.84201049804688
 20
52.65400695800781
 10
51.92901611328125
 20
52.65901184082031
 10
52.010009765625
 20
52.6820068359375
 10
52.08700561523438
 20
52.71600341796875
 10
52.10501098632812
 20
52.7239990234375
 10
52.1190185546875
 20
52.73699951171875
 10
52.13699340820312
 20
52.74600219726562
 10
52.20498657226562
 20
52.78399658203125
 10
52.2659912109375
 20
52.83100891113281
 10
52.31900024414062
 20
52.88800048828125
 10
52.32901000976562
 20
52.89999389648438
 10
52.34298706054688
 20
52.90400695800781
 10
52.35299682617188
 20
52.91499328613281
 10
52.35299682617188
 20
52.91499328613281
 10
83.12899780273438
 20
90.80198669433594
 10
83.12899780273438
 20
90.80198669433594
 10
83.25299072265625
 20
90.9539794921875
 10
83.3079833984375
 20
91.15098571777344
 10
83.281005859375
 20
91.343994140625
 10
83.281005859375
 20
91.343994140625
 10
80.45001220703125
 20
112.2489929199219
 10
80.45001220703125
 20
112.2489929199219
 97
        0
 97
        0
 92
        1
 93
        3
 72
     1
 10
12.77301025390625
 20
76.36799621582031
 11
26.43400573730469
 21
84.97499084472656
 72
     1
 10
26.43400573730469
 20
84.97499084472656
 11
26.43400573730469
 21
78.34898376464844
 72
     1
 10
26.43400573730469
 20
78.34898376464844
 11
12.77301025390625
 21
76.36799621582031
 97
        0
 92
        1
 93
        5
 72
     1
 10
27.85200500488281
 20
85.25900268554688
 11
28.802001953125
 21
84.91500854492188
 72
     1
 10
28.802001953125
 20
84.91500854492188
 11
36.36898803710938
 21
73.17800903320312
 72
     1
 10
36.36898803710938
 20
73.17800903320312
 11
27.85098266601562
 21
78.14401245117188
 72
     1
 10
27.85098266601562
 20
78.14401245117188
 11
27.85098266601562
 21
85.25900268554688
 72
     1
 10
27.85098266601562
 20
85.25900268554688
 11
27.85200500488281
 21
85.25900268554688
 97
        0
 92
        1
 93
        3
 72
     1
 10
28.18600463867188
 20
112.8349990844727
 11
34.65798950195312
 21
97.04600524902344
 72
     1
 10
34.65798950195312
 20
97.04600524902344
 11
23.44099426269531
 21
106.6430053710938
 72
     1
 10
23.44099426269531
 20
106.6430053710938
 11
28.18600463867188
 21
112.8349990844727
 97
        0
 92
        1
 93
        6
 72
     1
 10
8.839004516601562
 20
98.19400024414062
 11
22.38301086425781
 21
105.6840057373047
 72
     1
 10
22.38301086425781
 20
105.6840057373047
 11
35.593017578125
 21
94.38101196289062
 72
     1
 10
35.593017578125
 20
94.38101196289062
 11
34.30401611328125
 21
90.79501342773438
 72
     1
 10
34.30401611328125
 20
90.79501342773438
 11
29.11801147460938
 21
86.30801391601562
 72
     1
 10
29.11801147460938
 20
86.30801391601562
 11
8.230010986328125
 21
93.87001037597656
 72
     1
 10
8.230010986328125
 20
93.87001037597656
 11
8.839004516601562
 21
98.19400024414062
 97
        0
 92
        1
 93
        3
 72
     1
 10
25.54901123046875
 20
86.09300231933594
 11
10.94401550292969
 21
76.88999938964844
 72
     1
 10
10.94401550292969
 20
76.88999938964844
 11
15.60101318359375
 21
89.69499206542969
 72
     1
 10
15.60101318359375
 20
89.69499206542969
 11
25.54901123046875
 21
86.09300231933594
 97
        0
 92
        1
 93
        1
 72
     4
 94
        3
 73
     0
 74
     1
 95
       38
 96
       34
 40
0.0
 40
0.0
 40
0.0
 40
0.0
 40
1.0
 40
1.0
 40
1.0
 40
2.0
 40
2.0
 40
2.0
 40
3.0
 40
3.0
 40
3.0
 40
4.0
 40
4.0
 40
4.0
 40
5.0
 40
5.0
 40
5.0
 40
6.0
 40
6.0
 40
6.0
 40
7.0
 40
7.0
 40
7.0
 40
8.0
 40
8.0
 40
8.0
 40
9.0
 40
9.0
 40
9.0
 40
10.0
 40
10.0
 40
10.0
 40
11.0
 40
11.0
 40
11.0
 40
11.0
 10
15.40800476074219
 20
75.3179931640625
 10
15.40800476074219
 20
75.3179931640625
 10
27.0
 20
77.0
 10
27.0
 20
77.0
 10
27.0
 20
77.0
 10
37.99099731445312
 20
70.59199523925781
 10
37.99099731445312
 20
70.59199523925781
 10
37.99099731445312
 20
70.59199523925781
 10
40.40899658203125
 20
64.02799987792969
 10
40.40899658203125
 20
64.02799987792969
 10
40.41900634765625
 20
64.00199890136719
 10
40.43600463867188
 20
63.98100280761719
 10
40.44900512695312
 20
63.95700073242188
 10
40.44900512695312
 20
63.95700073242188
 10
39.20599365234375
 20
61.10299682617188
 10
39.20599365234375
 20
61.10299682617188
 10
39.20599365234375
 20
61.10299682617188
 10
27.58200073242188
 20
67.50099182128906
 10
27.58200073242188
 20
67.50099182128906
 10
27.40699768066406
 20
67.59698486328125
 10
27.19700622558594
 20
67.61599731445312
 10
27.00900268554688
 20
67.54998779296875
 10
26.82099914550781
 20
67.4849853515625
 10
26.66700744628906
 20
67.34199523925781
 10
26.58900451660156
 20
67.15798950195312
 10
26.58900451660156
 20
67.15798950195312
 10
20.80300903320312
 20
53.59599304199219
 10
20.80300903320312
 20
53.59599304199219
 10
20.80300903320312
 20
53.59599304199219
 10
13.99101257324219
 20
66.12199401855469
 10
13.99101257324219
 20
66.12199401855469
 10
13.99101257324219
 20
66.12199401855469
 10
15.40800476074219
 20
75.3179931640625
 10
15.40800476074219
 20
75.3179931640625
 97
        0
 97
        0
 92
        1
 93
        3
 72
     1
 10
33.58901977539062
 20
62.57598876953125
 11
22.73002624511719
 21
54.50099182128906
 72
     1
 10
22.73002624511719
 20
54.50099182128906
 11
27.58502197265625
 21
65.88099670410156
 72
     1
 10
27.58502197265625
 20
65.88099670410156
 11
33.58901977539062
 21
62.57598876953125
 97
        0
 92
        1
 93
        3
 72
     1
 10
22.33401489257812
 20
52.44099426269531
 11
34.95401000976562
 21
61.82398986816406
 72
     1
 10
34.95401000976562
 20
61.82398986816406
 11
49.29501342773438
 21
53.92999267578125
 72
     1
 10
49.29501342773438
 20
53.92999267578125
 11
22.33401489257812
 21
52.44099426269531
 97
        0
 92
        1
 93
        5
 72
     1
 10
51.625
 20
54.26499938964844
 11
40.45199584960938
 21
60.41499328613281
 72
     1
 10
40.45199584960938
 20
60.41499328613281
 11
60.37698364257812
 21
106.1509857177734
 72
     1
 10
60.37698364257812
 20
106.1509857177734
 11
79.15399169921875
 21
111.2569885253906
 72
     1
 10
79.15399169921875
 20
111.2569885253906
 11
81.83499145507812
 21
91.45298767089844
 72
     1
 10
81.83499145507812
 20
91.45298767089844
 11
51.625
 21
54.26499938964844
 97
        0
 75
     2
 76
     1
 98
        0
  0
ENDSEC
  0
SECTION
  2
OBJECTS
  0
DICTIONARY
  5
C
330
0
100
AcDbDictionary
281
     1
  3
ACAD_GROUP
350
D
  3
ACAD_LAYOUT
350
1A
  3
ACAD_MATERIAL
350
3B
  3
ACAD_MLEADERSTYLE
350
7C
  3
ACAD_MLINESTYLE
350
17
  3
ACAD_PLOTSETTINGS
350
19
  3
ACAD_PLOTSTYLENAME
350
E
  3
ACAD_TABLESTYLE
350
7B
  3
ACAD_VISUALSTYLE
350
2A
  0
SUN
  5
3F
330
29
100
AcDbSun
 90
        1
290
     0
 63
     7
421
 16777215
 40
1.0
291
     1
 91
  2455826
 92
 54000000
292
     0
 70
     2
 71
   256
280
     1
  0
DICTIONARY
  5
D
102
{ACAD_REACTORS
330
C
102
}
330
C
100
AcDbDictionary
281
     1
  0
DICTIONARY
  5
1A
102
{ACAD_REACTORS
330
C
102
}
330
C
100
AcDbDictionary
281
     1
  3
Layout1
350
1E
  3
Layout2
350
26
  3
Model
350
22
  0
DICTIONARY
  5
3B
102
{ACAD_REACTORS
330
C
102
}
330
C
100
AcDbDictionary
281
     1
  3
ByBlock
350
3D
  3
ByLayer
350
3C
  3
Global
350
3E
  0
DICTIONARY
  5
7C
102
{ACAD_REACTORS
330
C
102
}
330
C
100
AcDbDictionary
281
     1
  0
DICTIONARY
  5
17
102
{ACAD_REACTORS
330
C
102
}
330
C
100
AcDbDictionary
281
     1
  3
Standard
350
18
  0
DICTIONARY
  5
19
102
{ACAD_REACTORS
330
C
102
}
330
C
100
AcDbDictionary
281
     1
  0
ACDBDICTIONARYWDFLT
  5
E
102
{ACAD_REACTORS
330
C
102
}
330
C
100
AcDbDictionary
281
     1
  3
Normal
350
F
100
AcDbDictionaryWithDefault
340
F
  0
DICTIONARY
  5
7B
102
{ACAD_REACTORS
330
C
102
}
330
C
100
AcDbDictionary
281
     1
  0
DICTIONARY
  5
2A
102
{ACAD_REACTORS
330
C
102
}
330
C
100
AcDbDictionary
281
     1
  3
2dWireframe
350
2F
  3
3D Hidden
350
31
  3
3dWireframe
350
30
  3
Basic
350
32
  3
Brighten
350
36
  3
ColorChange
350
3A
  3
Conceptual
350
34
  3
Dim
350
35
  3
Facepattern
350
39
  3
Flat
350
2B
  3
FlatWithEdges
350
2C
  3
Gouraud
350
2D
  3
GouraudWithEdges
350
2E
  3
Linepattern
350
38
  3
Realistic
350
33
  3
Thicken
350
37
  0
LAYOUT
  5
1E
102
{ACAD_REACTORS
330
1A
102
}
330
1A
100
AcDbPlotSettings
  1

  2
none_device
  4

  6

 40
0.0
 41
0.0
 42
0.0
 43
0.0
 44
0.0
 45
0.0
 46
0.0
 47
0.0
 48
0.0
 49
0.0
140
0.0
141
0.0
142
1.0
143
1.0
 70
   688
 72
     0
 73
     0
 74
     5
  7

 75
    16
 76
     0
 77
     2
 78
   300
147
1.0
148
0.0
149
0.0
100
AcDbLayout
  1
Layout1
 70
     1
 71
     1
 10
0.0
 20
0.0
 11
12.0
 21
9.0
 12
0.0
 22
0.0
 32
0.0
 14
1.000000000000000E+20
 24
1.000000000000000E+20
 34
1.000000000000000E+20
 15
-1.000000000000000E+20
 25
-1.000000000000000E+20
 35
-1.000000000000000E+20
146
0.0
 13
0.0
 23
0.0
 33
0.0
 16
1.0
 26
0.0
 36
0.0
 17
0.0
 27
1.0
 37
0.0
 76
     0
330
1B
  0
LAYOUT
  5
26
102
{ACAD_REACTORS
330
1A
102
}
330
1A
100
AcDbPlotSettings
  1

  2
none_device
  4

  6

 40
0.0
 41
0.0
 42
0.0
 43
0.0
 44
0.0
 45
0.0
 46
0.0
 47
0.0
 48
0.0
 49
0.0
140
0.0
141
0.0
142
1.0
143
1.0
 70
   688
 72
     0
 73
     0
 74
     5
  7

 75
    16
 76
     0
 77
     2
 78
   300
147
1.0
148
0.0
149
0.0
100
AcDbLayout
  1
Layout2
 70
     1
 71
     2
 10
0.0
 20
0.0
 11
0.0
 21
0.0
 12
0.0
 22
0.0
 32
0.0
 14
0.0
 24
0.0
 34
0.0
 15
0.0
 25
0.0
 35
0.0
146
0.0
 13
0.0
 23
0.0
 33
0.0
 16
1.0
 26
0.0
 36
0.0
 17
0.0
 27
1.0
 37
0.0
 76
     0
330
23
  0
LAYOUT
  5
22
102
{ACAD_REACTORS
330
1A
102
}
330
1A
100
AcDbPlotSettings
  1

  2
none_device
  4

  6

 40
0.0
 41
0.0
 42
0.0
 43
0.0
 44
0.0
 45
0.0
 46
0.0
 47
0.0
 48
0.0
 49
0.0
140
0.0
141
0.0
142
1.0
143
1.0
 70
  1712
 72
     0
 73
     0
 74
     0
  7

 75
     0
 76
     0
 77
     2
 78
   300
147
1.0
148
0.0
149
0.0
100
AcDbLayout
  1
Model
 70
     1
 71
     0
 10
0.0
 20
0.0
 11
12.0
 21
9.0
 12
0.0
 22
0.0
 32
0.0
 14
1.000000000000000E+20
 24
1.000000000000000E+20
 34
1.000000000000000E+20
 15
-1.000000000000000E+20
 25
-1.000000000000000E+20
 35
-1.000000000000000E+20
146
0.0
 13
0.0
 23
0.0
 33
0.0
 16
1.0
 26
0.0
 36
0.0
 17
0.0
 27
1.0
 37
0.0
 76
     0
330
1F
331
29
  0
MATERIAL
  5
3D
102
{ACAD_REACTORS
330
3B
102
}
330
3B
100
AcDbMaterial
  1
ByBlock
 72
     1
 94
      127
  0
MATERIAL
  5
3C
102
{ACAD_REACTORS
330
3B
102
}
330
3B
100
AcDbMaterial
  1
ByLayer
 72
     1
 94
      127
  0
MATERIAL
  5
3E
102
{ACAD_REACTORS
330
3B
102
}
330
3B
100
AcDbMaterial
  1
Global
 72
     1
 94
      127
  0
MLINESTYLE
  5
18
102
{ACAD_REACTORS
330
17
102
}
330
17
100
AcDbMlineStyle
  2
Standard
 70
     0
  3

 62
   256
 51
90.0
 52
90.0
 71
     2
 49
0.5
 62
   256
  6
BYLAYER
 49
-0.5
 62
   256
  6
BYLAYER
  0
ACDBPLACEHOLDER
  5
F
102
{ACAD_REACTORS
330
E
102
}
330
E
  0
VISUALSTYLE
  5
2F
102
{ACAD_REACTORS
330
2A
102
}
330
2A
100
AcDbVisualStyle
  2
2dWireframe
 70
     4
177
     2
291
     0
 71
     0
176
     1
 72
     2
176
     1
 73
     0
176
     1
 90
        0
176
     1
 40
-0.6
176
     1
 41
-30.0
176
     1
 62
     5
 63
     7
421
 16777215
176
     1
 74
     1
176
     1
 91
        4
176
     1
 64
     7
176
     1
 65
   257
176
     1
 75
     1
176
     1
175
     1
176
     1
 42
1.0
176
     1
 92
        0
176
     1
 66
   257
176
     1
 43
1.0
176
     1
 76
     1
176
     1
 77
     6
176
     1
 78
     2
176
     1
 67
     7
176
     1
 79
     5
176
     1
170
     0
176
     1
171
     0
176
     1
290
     0
176
     1
 93
        1
176
     1
 44
0.0
176
     1
173
     0
176
     1
  0
VISUALSTYLE
  5
31
102
{ACAD_REACTORS
330
2A
102
}
330
2A
100
AcDbVisualStyle
  2
3D Hidden
 70
     6
177
     2
291
     0
 71
     1
176
     1
 72
     2
176
     1
 73
     2
176
     1
 90
        0
176
     1
 40
-0.6
176
     1
 41
-30.0
176
     1
 62
     5
 63
     7
421
 16777215
176
     1
 74
     2
176
     1
 91
        2
176
     1
 64
     7
176
     1
 65
   257
176
     1
 75
     2
176
     1
175
     1
176
     1
 42
40.0
176
     1
 92
        0
176
     1
 66
   257
176
     1
 43
1.0
176
     1
 76
     1
176
     1
 77
     6
176
     1
 78
     2
176
     1
 67
     7
176
     1
 79
     3
176
     1
170
     0
176
     1
171
     0
176
     1
290
     0
176
     1
 93
        1
176
     1
 44
0.0
176
     1
173
     0
176
     1
  0
VISUALSTYLE
  5
30
102
{ACAD_REACTORS
330
2A
102
}
330
2A
100
AcDbVisualStyle
  2
3dWireframe
 70
     5
177
     2
291
     0
 71
     0
176
     1
 72
     2
176
     1
 73
     0
176
     1
 90
        0
176
     1
 40
-0.6
176
     1
 41
-30.0
176
     1
 62
     5
 63
     7
421
 16777215
176
     1
 74
     1
176
     1
 91
        4
176
     1
 64
     7
176
     1
 65
   257
176
     1
 75
     1
176
     1
175
     1
176
     1
 42
1.0
176
     1
 92
        0
176
     1
 66
   257
176
     1
 43
1.0
176
     1
 76
     1
176
     1
 77
     6
176
     1
 78
     2
176
     1
 67
     7
176
     1
 79
     5
176
     1
170
     0
176
     1
171
     0
176
     1
290
     0
176
     1
 93
        1
176
     1
 44
0.0
176
     1
173
     0
176
     1
  0
VISUALSTYLE
  5
32
102
{ACAD_REACTORS
330
2A
102
}
330
2A
100
AcDbVisualStyle
  2
Basic
 70
     7
177
     2
291
     1
 71
     1
176
     1
 72
     0
176
     1
 73
     1
176
     1
 90
        0
176
     1
 40
-0.6
176
     1
 41
-30.0
176
     1
 62
     5
 63
     7
421
 16777215
176
     1
 74
     0
176
     1
 91
        4
176
     1
 64
     7
176
     1
 65
   257
176
     1
 75
     1
176
     1
175
     1
176
     1
 42
1.0
176
     1
 92
        8
176
     1
 66
     7
176
     1
 43
1.0
176
     1
 76
     1
176
     1
 77
     6
176
     1
 78
     2
176
     1
 67
     7
176
     1
 79
     5
176
     1
170
     0
176
     1
171
     0
176
     1
290
     0
176
     1
 93
        1
176
     1
 44
0.0
176
     1
173
     0
176
     1
  0
VISUALSTYLE
  5
36
102
{ACAD_REACTORS
330
2A
102
}
330
2A
100
AcDbVisualStyle
  2
Brighten
 70
    12
177
     2
291
     1
 71
     2
176
     1
 72
     2
176
     1
 73
     0
176
     1
 90
        0
176
     1
 40
-0.6
176
     1
 41
-30.0
176
     1
 62
     5
 63
     7
421
 16777215
176
     1
 74
     1
176
     1
 91
        4
176
     1
 64
     7
176
     1
 65
   257
176
     1
 75
     1
176
     1
175
     1
176
     1
 42
1.0
176
     1
 92
        8
176
     1
 66
     7
176
     1
 43
1.0
176
     1
 76
     1
176
     1
 77
     6
176
     1
 78
     2
176
     1
 67
     7
176
     1
 79
     5
176
     1
170
     0
176
     1
171
     0
176
     1
290
     0
176
     1
 93
        1
176
     1
 44
50.0
176
     1
173
     0
176
     1
  0
VISUALSTYLE
  5
3A
102
{ACAD_REACTORS
330
2A
102
}
330
2A
100
AcDbVisualStyle
  2
ColorChange
 70
    16
177
     2
291
     1
 71
     2
176
     1
 72
     2
176
     1
 73
     3
176
     1
 90
        0
176
     1
 40
-0.6
176
     1
 41
-30.0
176
     1
 62
     5
 63
     8
421
  8421504
176
     1
 74
     1
176
     1
 91
        4
176
     1
 64
     7
176
     1
 65
   257
176
     1
 75
     1
176
     1
175
     1
176
     1
 42
1.0
176
     1
 92
        8
176
     1
 66
     8
424
  8421504
176
     1
 43
1.0
176
     1
 76
     1
176
     1
 77
     6
176
     1
 78
     2
176
     1
 67
     7
176
     1
 79
     5
176
     1
170
     0
176
     1
171
     0
176
     1
290
     0
176
     1
 93
        1
176
     1
 44
0.0
176
     1
173
     0
176
     1
  0
VISUALSTYLE
  5
34
102
{ACAD_REACTORS
330
2A
102
}
330
2A
100
AcDbVisualStyle
  2
Conceptual
 70
     9
177
     2
291
     0
 71
     3
176
     1
 72
     2
176
     1
 73
     0
176
     1
 90
        0
176
     1
 40
-0.6
176
     1
 41
-30.0
176
     1
 62
     5
 63
     7
421
 16777215
176
     1
 74
     2
176
     1
 91
        2
176
     1
 64
     7
176
     1
 65
   257
176
     1
 75
     1
176
     1
175
     1
176
     1
 42
40.0
176
     1
 92
        8
176
     1
 66
     7
176
     1
 43
1.0
176
     1
 76
     1
176
     1
 77
     6
176
     1
 78
     2
176
     1
 67
     7
176
     1
 79
     3
176
     1
170
     0
176
     1
171
     0
176
     1
290
     0
176
     1
 93
        1
176
     1
 44
0.0
176
     1
173
     0
176
     1
  0
VISUALSTYLE
  5
35
102
{ACAD_REACTORS
330
2A
102
}
330
2A
100
AcDbVisualStyle
  2
Dim
 70
    11
177
     2
291
     1
 71
     2
176
     1
 72
     2
176
     1
 73
     0
176
     1
 90
        0
176
     1
 40
-0.6
176
     1
 41
-30.0
176
     1
 62
     5
 63
     7
421
 16777215
176
     1
 74
     1
176
     1
 91
        4
176
     1
 64
     7
176
     1
 65
   257
176
     1
 75
     1
176
     1
175
     1
176
     1
 42
1.0
176
     1
 92
        8
176
     1
 66
     7
176
     1
 43
1.0
176
     1
 76
     1
176
     1
 77
     6
176
     1
 78
     2
176
     1
 67
     7
176
     1
 79
     5
176
     1
170
     0
176
     1
171
     0
176
     1
290
     0
176
     1
 93
        1
176
     1
 44
-50.0
176
     1
173
     0
176
     1
  0
VISUALSTYLE
  5
39
102
{ACAD_REACTORS
330
2A
102
}
330
2A
100
AcDbVisualStyle
  2
Facepattern
 70
    15
177
     2
291
     1
 71
     2
176
     1
 72
     2
176
     1
 73
     0
176
     1
 90
        0
176
     1
 40
-0.6
176
     1
 41
-30.0
176
     1
 62
     5
 63
     7
421
 16777215
176
     1
 74
     1
176
     1
 91
        4
176
     1
 64
     7
176
     1
 65
   257
176
     1
 75
     1
176
     1
175
     1
176
     1
 42
1.0
176
     1
 92
        8
176
     1
 66
     7
176
     1
 43
1.0
176
     1
 76
     1
176
     1
 77
     6
176
     1
 78
     2
176
     1
 67
     7
176
     1
 79
     5
176
     1
170
     0
176
     1
171
     0
176
     1
290
     0
176
     1
 93
        1
176
     1
 44
0.0
176
     1
173
     0
176
     1
  0
VISUALSTYLE
  5
2B
102
{ACAD_REACTORS
330
2A
102
}
330
2A
100
AcDbVisualStyle
  2
Flat
 70
     0
177
     2
291
     1
 71
     2
176
     1
 72
     1
176
     1
 73
     1
176
     1
 90
        2
176
     1
 40
-0.6
176
     1
 41
30.0
176
     1
 62
     5
 63
     7
421
 16777215
176
     1
 74
     0
176
     1
 91
        4
176
     1
 64
     7
176
     1
 65
   257
176
     1
 75
     1
176
     1
175
     1
176
     1
 42
1.0
176
     1
 92
        8
176
     1
 66
     7
176
     1
 43
1.0
176
     1
 76
     1
176
     1
 77
     6
176
     1
 78
     2
176
     1
 67
     7
176
     1
 79
     5
176
     1
170
     0
176
     1
171
     0
176
     1
290
     0
176
     1
 93
       13
176
     1
 44
0.0
176
     1
173
     0
176
     1
  0
VISUALSTYLE
  5
2C
102
{ACAD_REACTORS
330
2A
102
}
330
2A
100
AcDbVisualStyle
  2
FlatWithEdges
 70
     1
177
     2
291
     1
 71
     2
176
     1
 72
     1
176
     1
 73
     1
176
     1
 90
        2
176
     1
 40
-0.6
176
     1
 41
30.0
176
     1
 62
     5
 63
     7
421
 16777215
176
     1
 74
     1
176
     1
 91
        4
176
     1
 64
     7
176
     1
 65
   257
176
     1
 75
     1
176
     1
175
     1
176
     1
 42
1.0
176
     1
 92
        0
176
     1
 66
   257
176
     1
 43
1.0
176
     1
 76
     1
176
     1
 77
     6
176
     1
 78
     2
176
     1
 67
     7
176
     1
 79
     5
176
     1
170
     0
176
     1
171
     0
176
     1
290
     0
176
     1
 93
       13
176
     1
 44
0.0
176
     1
173
     0
176
     1
  0
VISUALSTYLE
  5
2D
102
{ACAD_REACTORS
330
2A
102
}
330
2A
100
AcDbVisualStyle
  2
Gouraud
 70
     2
177
     2
291
     1
 71
     2
176
     1
 72
     2
176
     1
 73
     1
176
     1
 90
        2
176
     1
 40
-0.6
176
     1
 41
30.0
176
     1
 62
     5
 63
     7
421
 16777215
176
     1
 74
     0
176
     1
 91
        4
176
     1
 64
     7
176
     1
 65
   257
176
     1
 75
     1
176
     1
175
     1
176
     1
 42
1.0
176
     1
 92
        0
176
     1
 66
     7
176
     1
 43
1.0
176
     1
 76
     1
176
     1
 77
     6
176
     1
 78
     2
176
     1
 67
     7
176
     1
 79
     5
176
     1
170
     0
176
     1
171
     0
176
     1
290
     0
176
     1
 93
       13
176
     1
 44
0.0
176
     1
173
     0
176
     1
  0
VISUALSTYLE
  5
2E
102
{ACAD_REACTORS
330
2A
102
}
330
2A
100
AcDbVisualStyle
  2
GouraudWithEdges
 70
     3
177
     2
291
     1
 71
     2
176
     1
 72
     2
176
     1
 73
     1
176
     1
 90
        2
176
     1
 40
-0.6
176
     1
 41
30.0
176
     1
 62
     5
 63
     7
421
 16777215
176
     1
 74
     1
176
     1
 91
        4
176
     1
 64
     7
176
     1
 65
   257
176
     1
 75
     1
176
     1
175
     1
176
     1
 42
1.0
176
     1
 92
        0
176
     1
 66
   257
176
     1
 43
1.0
176
     1
 76
     1
176
     1
 77
     6
176
     1
 78
     2
176
     1
 67
     7
176
     1
 79
     5
176
     1
170
     0
176
     1
171
     0
176
     1
290
     0
176
     1
 93
       13
176
     1
 44
0.0
176
     1
173
     0
176
     1
  0
VISUALSTYLE
  5
38
102
{ACAD_REACTORS
330
2A
102
}
330
2A
100
AcDbVisualStyle
  2
Linepattern
 70
    14
177
     2
291
     1
 71
     2
176
     1
 72
     2
176
     1
 73
     0
176
     1
 90
        0
176
     1
 40
-0.6
176
     1
 41
-30.0
176
     1
 62
     5
 63
     7
421
 16777215
176
     1
 74
     1
176
     1
 91
        4
176
     1
 64
     7
176
     1
 65
   257
176
     1
 75
     7
176
     1
175
     7
176
     1
 42
1.0
176
     1
 92
        8
176
     1
 66
     7
176
     1
 43
1.0
176
     1
 76
     1
176
     1
 77
     6
176
     1
 78
     2
176
     1
 67
     7
176
     1
 79
     5
176
     1
170
     0
176
     1
171
     0
176
     1
290
     0
176
     1
 93
        1
176
     1
 44
0.0
176
     1
173
     0
176
     1
  0
VISUALSTYLE
  5
33
102
{ACAD_REACTORS
330
2A
102
}
330
2A
100
AcDbVisualStyle
  2
Realistic
 70
     8
177
     2
291
     0
 71
     2
176
     1
 72
     2
176
     1
 73
     0
176
     1
 90
        0
176
     1
 40
-0.6
176
     1
 41
-30.0
176
     1
 62
     5
 63
     7
421
 16777215
176
     1
 74
     1
176
     1
 91
        0
176
     1
 64
     7
176
     1
 65
   257
176
     1
 75
     1
176
     1
175
     1
176
     1
 42
1.0
176
     1
 92
        8
176
     1
 66
     8
424
  7895160
176
     1
 43
1.0
176
     1
 76
     1
176
     1
 77
     6
176
     1
 78
     2
176
     1
 67
     7
176
     1
 79
     5
176
     1
170
     0
176
     1
171
     0
176
     1
290
     0
176
     1
 93
       13
176
     1
 44
0.0
176
     1
173
     0
176
     1
  0
VISUALSTYLE
  5
37
102
{ACAD_REACTORS
330
2A
102
}
330
2A
100
AcDbVisualStyle
  2
Thicken
 70
    13
177
     2
291
     1
 71
     2
176
     1
 72
     2
176
     1
 73
     0
176
     1
 90
        0
176
     1
 40
-0.6
176
     1
 41
-30.0
176
     1
 62
     5
 63
     7
421
 16777215
176
     1
 74
     1
176
     1
 91
        4
176
     1
 64
     7
176
     1
 65
   257
176
     1
 75
     1
176
     1
175
     1
176
     1
 42
1.0
176
     1
 92
       12
176
     1
 66
     7
176
     1
 43
1.0
176
     1
 76
     1
176
     1
 77
     6
176
     1
 78
     2
176
     1
 67
     7
176
     1
 79
     5
176
     1
170
     0
176
     1
171
     0
176
     1
290
     0
176
     1
 93
        1
176
     1
 44
0.0
176
     1
173
     0
176
     1
  0
ENDSEC
  0
EOF
