  0
SECTION
  2
HEADER
  9
$ACADVER
  1
AC1024
  9
$ACADMAINTVER
 70
     6
  9
$DWGCODEPAGE
  3
UNDEFINED
  9
$INSBASE
 10
0.0
 20
0.0
 30
0.0
  9
$EXTMIN
 10
1.000000000000000E+20
 20
1.000000000000000E+20
 30
1.000000000000000E+20
  9
$EXTMAX
 10
-1.000000000000000E+20
 20
-1.000000000000000E+20
 30
-1.000000000000000E+20
  9
$LIMMIN
 10
0.0
 20
0.0
  9
$LIMMAX
 10
12.0
 20
9.0
  9
$ORTHOMODE
 70
     0
  9
$REGENMODE
 70
     1
  9
$FILLMODE
 70
     1
  9
$QTEXTMODE
 70
     0
  9
$MIRRTEXT
 70
     1
  9
$LTSCALE
 40
1.0
  9
$ATTMODE
 70
     1
  9
$TEXTSIZE
 40
0.2
  9
$TRACEWID
 40
0.05
  9
$TEXTSTYLE
  7
Standard
  9
$CLAYER
  8
0
  9
$CELTYPE
  6
ByLayer
  9
$CECOLOR
 62
   256
  9
$CELTSCALE
 40
1.0
  9
$DISPSILH
 70
     0
  9
$DIMSCALE
 40
1.0
  9
$DIMASZ
 40
0.18
  9
$DIMEXO
 40
0.0625
  9
$DIMDLI
 40
0.38
  9
$DIMRND
 40
0.0
  9
$DIMDLE
 40
0.0
  9
$DIMEXE
 40
0.18
  9
$DIMTP
 40
0.0
  9
$DIMTM
 40
0.0
  9
$DIMTXT
 40
0.18
  9
$DIMCEN
 40
0.09
  9
$DIMTSZ
 40
0.0
  9
$DIMTOL
 70
     0
  9
$DIMLIM
 70
     0
  9
$DIMTIH
 70
     1
  9
$DIMTOH
 70
     1
  9
$DIMSE1
 70
     0
  9
$DIMSE2
 70
     0
  9
$DIMTAD
 70
     0
  9
$DIMZIN
 70
     0
  9
$DIMBLK
  1

  9
$DIMASO
 70
     1
  9
$DIMSHO
 70
     1
  9
$DIMPOST
  1

  9
$DIMAPOST
  1

  9
$DIMALT
 70
     0
  9
$DIMALTD
 70
     2
  9
$DIMALTF
 40
25.4
  9
$DIMLFAC
 40
1.0
  9
$DIMTOFL
 70
     0
  9
$DIMTVP
 40
0.0
  9
$DIMTIX
 70
     0
  9
$DIMSOXD
 70
     0
  9
$DIMSAH
 70
     0
  9
$DIMBLK1
  1

  9
$DIMBLK2
  1

  9
$DIMSTYLE
  2
Standard
  9
$DIMCLRD
 70
     0
  9
$DIMCLRE
 70
     0
  9
$DIMCLRT
 70
     0
  9
$DIMTFAC
 40
1.0
  9
$DIMGAP
 40
0.09
  9
$DIMJUST
 70
     0
  9
$DIMSD1
 70
     0
  9
$DIMSD2
 70
     0
  9
$DIMTOLJ
 70
     1
  9
$DIMTZIN
 70
     0
  9
$DIMALTZ
 70
     0
  9
$DIMALTTZ
 70
     0
  9
$DIMUPT
 70
     0
  9
$DIMDEC
 70
     4
  9
$DIMTDEC
 70
     4
  9
$DIMALTU
 70
     2
  9
$DIMALTTD
 70
     2
  9
$DIMTXSTY
  7
Standard
  9
$DIMAUNIT
 70
     0
  9
$DIMADEC
 70
     0
  9
$DIMALTRND
 40
0.0
  9
$DIMAZIN
 70
     0
  9
$DIMDSEP
 70
    46
  9
$DIMATFIT
 70
     3
  9
$DIMFRAC
 70
     0
  9
$DIMLDRBLK
  1

  9
$DIMLUNIT
 70
     2
  9
$DIMLWD
 70
    -2
  9
$DIMLWE
 70
    -2
  9
$DIMTMOVE
 70
     0
  9
$DIMFXL
 40
1.0
  9
$DIMFXLON
 70
     0
  9
$DIMJOGANG
 40
0.7853981633974483
  9
$DIMTFILL
 70
     0
  9
$DIMTFILLCLR
 70
     0
  9
$DIMARCSYM
 70
     0
  9
$DIMLTYPE
  6

  9
$DIMLTEX1
  6

  9
$DIMLTEX2
  6

  9
$DIMTXTDIRECTION
 70
     0
  9
$LUNITS
 70
     2
  9
$LUPREC
 70
     4
  9
$SKETCHINC
 40
0.1
  9
$FILLETRAD
 40
0.5
  9
$AUNITS
 70
     0
  9
$AUPREC
 70
     0
  9
$MENU
  1
.
  9
$ELEVATION
 40
0.0
  9
$PELEVATION
 40
0.0
  9
$THICKNESS
 40
0.0
  9
$LIMCHECK
 70
     0
  9
$CHAMFERA
 40
0.5
  9
$CHAMFERB
 40
0.5
  9
$CHAMFERC
 40
1.0
  9
$CHAMFERD
 40
0.0
  9
$SKPOLY
 70
     0
  9
$TDCREATE
 40
2457525.607326377
  9
$TDUCREATE
 40
2457525.815659722
  9
$TDUPDATE
 40
2457525.607326377
  9
$TDUUPDATE
 40
2457525.815659722
  9
$TDINDWG
 40
0.0000000116
  9
$TDUSRTIMER
 40
0.0000000116
  9
$USRTIMER
 70
     1
  9
$ANGBASE
 50
0.0
  9
$ANGDIR
 70
     0
  9
$PDMODE
 70
     0
  9
$PDSIZE
 40
0.0
  9
$PLINEWID
 40
0.0
  9
$SPLFRAME
 70
     0
  9
$SPLINETYPE
 70
     6
  9
$SPLINESEGS
 70
     8
  9
$HANDSEED
  5
65
  9
$SURFTAB1
 70
     6
  9
$SURFTAB2
 70
     6
  9
$SURFTYPE
 70
     6
  9
$SURFU
 70
     6
  9
$SURFV
 70
     6
  9
$UCSBASE
  2

  9
$UCSNAME
  2

  9
$UCSORG
 10
0.0
 20
0.0
 30
0.0
  9
$UCSXDIR
 10
1.0
 20
0.0
 30
0.0
  9
$UCSYDIR
 10
0.0
 20
1.0
 30
0.0
  9
$UCSORTHOREF
  2

  9
$UCSORTHOVIEW
 70
     0
  9
$UCSORGTOP
 10
0.0
 20
0.0
 30
0.0
  9
$UCSORGBOTTOM
 10
0.0
 20
0.0
 30
0.0
  9
$UCSORGLEFT
 10
0.0
 20
0.0
 30
0.0
  9
$UCSORGRIGHT
 10
0.0
 20
0.0
 30
0.0
  9
$UCSORGFRONT
 10
0.0
 20
0.0
 30
0.0
  9
$UCSORGBACK
 10
0.0
 20
0.0
 30
0.0
  9
$PUCSBASE
  2

  9
$PUCSNAME
  2

  9
$PUCSORG
 10
0.0
 20
0.0
 30
0.0
  9
$PUCSXDIR
 10
1.0
 20
0.0
 30
0.0
  9
$PUCSYDIR
 10
0.0
 20
1.0
 30
0.0
  9
$PUCSORTHOREF
  2

  9
$PUCSORTHOVIEW
 70
     0
  9
$PUCSORGTOP
 10
0.0
 20
0.0
 30
0.0
  9
$PUCSORGBOTTOM
 10
0.0
 20
0.0
 30
0.0
  9
$PUCSORGLEFT
 10
0.0
 20
0.0
 30
0.0
  9
$PUCSORGRIGHT
 10
0.0
 20
0.0
 30
0.0
  9
$PUCSORGFRONT
 10
0.0
 20
0.0
 30
0.0
  9
$PUCSORGBACK
 10
0.0
 20
0.0
 30
0.0
  9
$USERI1
 70
     0
  9
$USERI2
 70
     0
  9
$USERI3
 70
     0
  9
$USERI4
 70
     0
  9
$USERI5
 70
     0
  9
$USERR1
 40
0.0
  9
$USERR2
 40
0.0
  9
$USERR3
 40
0.0
  9
$USERR4
 40
0.0
  9
$USERR5
 40
0.0
  9
$WORLDVIEW
 70
     1
  9
$SHADEDGE
 70
     3
  9
$SHADEDIF
 70
    70
  9
$TILEMODE
 70
     1
  9
$MAXACTVP
 70
    64
  9
$PINSBASE
 10
0.0
 20
0.0
 30
0.0
  9
$PLIMCHECK
 70
     0
  9
$PEXTMIN
 10
1.000000000000000E+20
 20
1.000000000000000E+20
 30
1.000000000000000E+20
  9
$PEXTMAX
 10
-1.000000000000000E+20
 20
-1.000000000000000E+20
 30
-1.000000000000000E+20
  9
$PLIMMIN
 10
0.0
 20
0.0
  9
$PLIMMAX
 10
12.0
 20
9.0
  9
$UNITMODE
 70
     0
  9
$VISRETAIN
 70
     1
  9
$PLINEGEN
 70
     0
  9
$PSLTSCALE
 70
     1
  9
$TREEDEPTH
 70
  3020
  9
$CMLSTYLE
  2
Standard
  9
$CMLJUST
 70
     0
  9
$CMLSCALE
 40
1.0
  9
$PROXYGRAPHICS
 70
     1
  9
$MEASUREMENT
 70
     0
  9
$CELWEIGHT
370
    -1
  9
$ENDCAPS
280
     0
  9
$JOINSTYLE
280
     0
  9
$LWDISPLAY
290
     1
  9
$INSUNITS
 70
     1
  9
$HYPERLINKBASE
  1

  9
$STYLESHEET
  1

  9
$XEDIT
290
     1
  9
$CEPSNTYPE
380
     0
  9
$PSTYLEMODE
290
     1
  9
$FINGERPRINTGUID
  2
{278AE24F-2EBE-5E70-7D31-8D7AFF3A8BC7}
  9
$VERSIONGUID
  2
{FAEB1C32-E019-11D5-929B-00C0DF256EC4}
  9
$EXTNAMES
290
     1
  9
$PSVPSCALE
 40
0.0
  9
$OLESTARTUP
290
     0
  9
$SORTENTS
280
   127
  9
$INDEXCTL
280
     0
  9
$HIDETEXT
280
     1
  9
$XCLIPFRAME
280
     2
  9
$HALOGAP
280
     0
  9
$OBSCOLOR
 70
   257
  9
$OBSLTYPE
280
     0
  9
$INTERSECTIONDISPLAY
280
     0
  9
$INTERSECTIONCOLOR
 70
   257
  9
$DIMASSOC
280
     2
  9
$PROJECTNAME
  1

  9
$CAMERADISPLAY
290
     0
  9
$LENSLENGTH
 40
50.0
  9
$CAMERAHEIGHT
 40
0.0
  9
$STEPSPERSEC
 40
2.0
  9
$STEPSIZE
 40
6.0
  9
$3DDWFPREC
 40
2.0
  9
$PSOLWIDTH
 40
0.25
  9
$PSOLHEIGHT
 40
4.0
  9
$LOFTANG1
 40
1.570796326794897
  9
$LOFTANG2
 40
1.570796326794897
  9
$LOFTMAG1
 40
0.0
  9
$LOFTMAG2
 40
0.0
  9
$LOFTPARAM
 70
     7
  9
$LOFTNORMALS
280
     1
  9
$LATITUDE
 40
37.795
  9
$LONGITUDE
 40
-122.394
  9
$NORTHDIRECTION
 40
0.0
  9
$TIMEZONE
 70
 -8000
  9
$LIGHTGLYPHDISPLAY
280
     1
  9
$TILEMODELIGHTSYNCH
280
     1
  9
$CMATERIAL
347
3C
  9
$SOLIDHIST
280
     1
  9
$SHOWHIST
280
     1
  9
$DWFFRAME
280
     2
  9
$DGNFRAME
280
     2
  9
$REALWORLDSCALE
290
     1
  9
$INTERFERECOLOR
 62
   256
  9
$CSHADOW
280
     0
  9
$SHADOWPLANELOCATION
 40
0.0
  0
ENDSEC
  0
SECTION
  2
CLASSES
  0
CLASS
  1
ACDBDICTIONARYWDFLT
  2
AcDbDictionaryWithDefault
  3
ObjectDBX Classes
 90
        0
 91
        4
280
     0
281
     0
  0
CLASS
  1
VISUALSTYLE
  2
AcDbVisualStyle
  3
ObjectDBX Classes
 90
     4095
 91
        4
280
     0
281
     0
  0
CLASS
  1
MATERIAL
  2
AcDbMaterial
  3
ObjectDBX Classes
 90
     1153
 91
        4
280
     0
281
     0
  0
CLASS
  1
SUN
  2
AcDbSun
  3
SCENEOE
 90
     1024
 91
        4
280
     0
281
     0
  0
ENDSEC
  0
SECTION
  2
TABLES
  0
TABLE
  2
VPORT
  5
8
330
0
100
AcDbSymbolTable
 70
     1
  0
VPORT
  5
29
330
8
100
AcDbSymbolTableRecord
100
AcDbViewportTableRecord
  2
*Active
 70
     0
 10
0.0
 20
0.0
 11
1.0
 21
1.0
 12
0.0
 22
0.0
 13
0.0
 23
0.0
 14
0.5
 24
0.5
 15
0.5
 25
0.5
 16
0.0
 26
0.0
 36
1.0
 17
50.0
 27
62.5
 37
0.0
 40
125.0
 41
0.8
 42
50.0
 43
0.0
 44
0.0
 50
0.0
 51
0.0
 71
     0
 72
   100
 73
     1
 74
     3
 75
     0
 76
     0
 77
     0
 78
     0
281
     0
 65
     1
110
0.0
120
0.0
130
0.0
111
1.0
121
0.0
131
0.0
112
0.0
122
1.0
132
0.0
 79
     0
146
0.0
 60
     3
 61
     5
292
     1
282
     1
141
0.0
142
0.0
 63
   250
361
3F
  0
ENDTAB
  0
TABLE
  2
LTYPE
  5
5
330
0
100
AcDbSymbolTable
 70
     1
  0
LTYPE
  5
14
330
5
100
AcDbSymbolTableRecord
100
AcDbLinetypeTableRecord
  2
ByBlock
 70
     0
  3

 72
    65
 73
     0
 40
0.0
  0
LTYPE
  5
15
330
5
100
AcDbSymbolTableRecord
100
AcDbLinetypeTableRecord
  2
ByLayer
 70
     0
  3

 72
    65
 73
     0
 40
0.0
  0
LTYPE
  5
16
330
5
100
AcDbSymbolTableRecord
100
AcDbLinetypeTableRecord
  2
Continuous
 70
     0
  3
Solid line
 72
    65
 73
     0
 40
0.0
  0
ENDTAB
  0
TABLE
  2
LAYER
  5
2
330
0
100
AcDbSymbolTable
 70
     2
  0
LAYER
  5
10
330
2
100
AcDbSymbolTableRecord
100
AcDbLayerTableRecord
  2
0
 70
     0
 62
     7
  6
Continuous
370
    -3
390
F
347
3E
  0
LAYER
  5
40
330
2
100
AcDbSymbolTableRecord
100
AcDbLayerTableRecord
  2
Layer 1
 70
     0
 62
     7
  6
Continuous
370
    -3
390
F
347
3E
  0
ENDTAB
  0
TABLE
  2
STYLE
  5
3
330
0
100
AcDbSymbolTable
 70
     1
  0
STYLE
  5
11
330
3
100
AcDbSymbolTableRecord
100
AcDbTextStyleTableRecord
  2
Standard
 70
     0
 40
0.0
 41
1.0
 50
0.0
 71
     0
 42
0.2
  3
txt
  4

  0
ENDTAB
  0
TABLE
  2
VIEW
  5
6
330
0
100
AcDbSymbolTable
 70
     0
  0
ENDTAB
  0
TABLE
  2
UCS
  5
7
330
0
100
AcDbSymbolTable
 70
     0
  0
ENDTAB
  0
TABLE
  2
APPID
  5
9
330
0
100
AcDbSymbolTable
 70
     1
  0
APPID
  5
12
330
9
100
AcDbSymbolTableRecord
100
AcDbRegAppTableRecord
  2
ACAD
 70
     0
  0
ENDTAB
  0
TABLE
  2
DIMSTYLE
  5
A
330
0
100
AcDbSymbolTable
 70
     1
100
AcDbDimStyleTable
  0
DIMSTYLE
105
27
330
A
100
AcDbSymbolTableRecord
100
AcDbDimStyleTableRecord
  2
Standard
 70
     0
178
     0
340
11
  0
ENDTAB
  0
TABLE
  2
BLOCK_RECORD
  5
1
330
0
100
AcDbSymbolTable
 70
     1
  0
BLOCK_RECORD
  5
1F
330
1
100
AcDbSymbolTableRecord
100
AcDbBlockTableRecord
  2
*Model_Space
340
22
 70
     0
280
     1
281
     0
  0
BLOCK_RECORD
  5
1B
330
1
100
AcDbSymbolTableRecord
100
AcDbBlockTableRecord
  2
*Paper_Space
340
1E
 70
     0
280
     1
281
     0
  0
BLOCK_RECORD
  5
23
330
1
100
AcDbSymbolTableRecord
100
AcDbBlockTableRecord
  2
*Paper_Space0
340
26
 70
     0
280
     1
281
     0
  0
ENDTAB
  0
ENDSEC
  0
SECTION
  2
BLOCKS
  0
BLOCK
  5
20
330
1F
100
AcDbEntity
  8
0
100
AcDbBlockBegin
  2
*Model_Space
 70
     0
 10
0.0
 20
0.0
 30
0.0
  3
*Model_Space
  1

  0
ENDBLK
  5
21
330
1F
100
AcDbEntity
  8
0
100
AcDbBlockEnd
  0
BLOCK
  5
1C
330
1B
100
AcDbEntity
 67
     1
  8
0
100
AcDbBlockBegin
  2
*Paper_Space
 70
     0
 10
0.0
 20
0.0
 30
0.0
  3
*Paper_Space
  1

  0
ENDBLK
  5
1D
330
1B
100
AcDbEntity
 67
     1
  8
0
100
AcDbBlockEnd
  0
BLOCK
  5
24
330
23
100
AcDbEntity
  8
0
100
AcDbBlockBegin
  2
*Paper_Space0
 70
     0
 10
0.0
 20
0.0
 30
0.0
  3
*Paper_Space0
  1

  0
ENDBLK
  5
25
330
23
100
AcDbEntity
  8
0
100
AcDbBlockEnd
  0
ENDSEC
  0
SECTION
  2
ENTITIES
  0
SPLINE
  5
41
330
1F
100
AcDbEntity
  8
Layer 1
370
     0
100
AcDbSpline
210
0.0
220
0.0
230
1.0
 70
    11
 71
     3
 72
   218
 73
   214
 74
     0
 42
0.0000000001
 43
0.0000000001
 12
1.0
 22
0.0
 32
0.0
 13
1.0
 23
0.0
 33
0.0
 40
0.0
 40
0.0
 40
0.0
 40
0.0
 40
1.0
 40
1.0
 40
1.0
 40
2.0
 40
2.0
 40
2.0
 40
3.0
 40
3.0
 40
3.0
 40
4.0
 40
4.0
 40
4.0
 40
5.0
 40
5.0
 40
5.0
 40
6.0
 40
6.0
 40
6.0
 40
7.0
 40
7.0
 40
7.0
 40
8.0
 40
8.0
 40
8.0
 40
9.0
 40
9.0
 40
9.0
 40
10.0
 40
10.0
 40
10.0
 40
11.0
 40
11.0
 40
11.0
 40
12.0
 40
12.0
 40
12.0
 40
13.0
 40
13.0
 40
13.0
 40
14.0
 40
14.0
 40
14.0
 40
15.0
 40
15.0
 40
15.0
 40
16.0
 40
16.0
 40
16.0
 40
17.0
 40
17.0
 40
17.0
 40
18.0
 40
18.0
 40
18.0
 40
19.0
 40
19.0
 40
19.0
 40
20.0
 40
20.0
 40
20.0
 40
21.0
 40
21.0
 40
21.0
 40
22.0
 40
22.0
 40
22.0
 40
23.0
 40
23.0
 40
23.0
 40
24.0
 40
24.0
 40
24.0
 40
25.0
 40
25.0
 40
25.0
 40
26.0
 40
26.0
 40
26.0
 40
27.0
 40
27.0
 40
27.0
 40
28.0
 40
28.0
 40
28.0
 40
29.0
 40
29.0
 40
29.0
 40
30.0
 40
30.0
 40
30.0
 40
31.0
 40
31.0
 40
31.0
 40
32.0
 40
32.0
 40
32.0
 40
33.0
 40
33.0
 40
33.0
 40
34.0
 40
34.0
 40
34.0
 40
35.0
 40
35.0
 40
35.0
 40
36.0
 40
36.0
 40
36.0
 40
37.0
 40
37.0
 40
37.0
 40
38.0
 40
38.0
 40
38.0
 40
39.0
 40
39.0
 40
39.0
 40
40.0
 40
40.0
 40
40.0
 40
41.0
 40
41.0
 40
41.0
 40
42.0
 40
42.0
 40
42.0
 40
43.0
 40
43.0
 40
43.0
 40
44.0
 40
44.0
 40
44.0
 40
45.0
 40
45.0
 40
45.0
 40
46.0
 40
46.0
 40
46.0
 40
47.0
 40
47.0
 40
47.0
 40
48.0
 40
48.0
 40
48.0
 40
49.0
 40
49.0
 40
49.0
 40
50.0
 40
50.0
 40
50.0
 40
51.0
 40
51.0
 40
51.0
 40
52.0
 40
52.0
 40
52.0
 40
53.0
 40
53.0
 40
53.0
 40
54.0
 40
54.0
 40
54.0
 40
55.0
 40
55.0
 40
55.0
 40
56.0
 40
56.0
 40
56.0
 40
57.0
 40
57.0
 40
57.0
 40
58.0
 40
58.0
 40
58.0
 40
59.0
 40
59.0
 40
59.0
 40
60.0
 40
60.0
 40
60.0
 40
61.0
 40
61.0
 40
61.0
 40
62.0
 40
62.0
 40
62.0
 40
63.0
 40
63.0
 40
63.0
 40
64.0
 40
64.0
 40
64.0
 40
65.0
 40
65.0
 40
65.0
 40
66.0
 40
66.0
 40
66.0
 40
67.0
 40
67.0
 40
67.0
 40
68.0
 40
68.0
 40
68.0
 40
69.0
 40
69.0
 40
69.0
 40
70.0
 40
70.0
 40
70.0
 40
71.0
 40
71.0
 40
71.0
 40
71.0
 10
83.60800170898438
 20
67.57899475097656
 30
0.0
 10
83.5570068359375
 20
67.85398864746094
 30
0.0
 10
83.3489990234375
 20
68.07398986816406
 30
0.0
 10
83.07699584960938
 20
68.13999938964844
 30
0.0
 10
83.07699584960938
 20
68.13999938964844
 30
0.0
 10
66.74899291992188
 20
72.08200073242188
 30
0.0
 10
66.74899291992188
 20
72.08200073242188
 30
0.0
 10
66.74899291992188
 20
72.08200073242188
 30
0.0
 10
79.4530029296875
 20
91.59500122070312
 30
0.0
 10
79.4530029296875
 20
91.59500122070312
 30
0.0
 10
79.4530029296875
 20
91.59600830078125
 30
0.0
 10
79.45401000976562
 20
91.59600830078125
 30
0.0
 10
79.45401000976562
 20
91.59700012207031
 30
0.0
 10
79.45401000976562
 20
91.59700012207031
 30
0.0
 10
79.46200561523438
 20
91.60899353027344
 30
0.0
 10
79.46200561523438
 20
91.60899353027344
 30
0.0
 10
79.50601196289062
 20
91.67599487304688
 30
0.0
 10
79.53399658203125
 20
91.75099182128906
 30
0.0
 10
79.55300903320312
 20
91.82699584960938
 30
0.0
 10
79.55801391601562
 20
91.84799194335938
 30
0.0
 10
79.55902099609375
 20
91.8699951171875
 30
0.0
 10
79.56201171875
 20
91.89199829101562
 30
0.0
 10
79.57101440429688
 20
91.9530029296875
 30
0.0
 10
79.572998046875
 20
92.01300048828125
 30
0.0
 10
79.56600952148438
 20
92.07400512695312
 30
0.0
 10
79.56301879882812
 20
92.0989990234375
 30
0.0
 10
79.56100463867188
 20
92.12300109863281
 30
0.0
 10
79.55502319335938
 20
92.14801025390625
 30
0.0
 10
79.53802490234375
 20
92.22100830078125
 30
0.0
 10
79.51202392578125
 20
92.29200744628906
 30
0.0
 10
79.4730224609375
 20
92.35801696777344
 30
0.0
 10
79.468017578125
 20
92.36502075195312
 30
0.0
 10
79.468017578125
 20
92.37301635742188
 30
0.0
 10
79.46401977539062
 20
92.37901306152344
 30
0.0
 10
79.4630126953125
 20
92.38002014160156
 30
0.0
 10
79.46200561523438
 20
92.38101196289062
 30
0.0
 10
79.46102905273438
 20
92.38201904296875
 30
0.0
 10
79.45901489257812
 20
92.38401794433594
 30
0.0
 10
79.45901489257812
 20
92.38601684570312
 30
0.0
 10
79.45803833007812
 20
92.38801574707031
 30
0.0
 10
79.41104125976562
 20
92.45901489257812
 30
0.0
 10
79.35003662109375
 20
92.51602172851562
 30
0.0
 10
79.28305053710938
 20
92.56501770019531
 30
0.0
 10
79.26605224609375
 20
92.57701110839844
 30
0.0
 10
79.25006103515625
 20
92.58601379394531
 30
0.0
 10
79.2320556640625
 20
92.59602355957031
 30
0.0
 10
79.175048828125
 20
92.63002014160156
 30
0.0
 10
79.11605834960938
 20
92.65702819824219
 30
0.0
 10
79.05105590820312
 20
92.67402648925781
 30
0.0
 10
79.03204345703125
 20
92.67903137207031
 30
0.0
 10
79.01504516601562
 20
92.68502807617188
 30
0.0
 10
78.99505615234375
 20
92.68902587890625
 30
0.0
 10
78.9190673828125
 20
92.70303344726562
 30
0.0
 10
78.842041015625
 20
92.70703125
 30
0.0
 10
78.7630615234375
 20
92.69403076171875
 30
0.0
 10
78.75607299804688
 20
92.69302368164062
 30
0.0
 10
78.75006103515625
 20
92.69403076171875
 30
0.0
 10
78.74307250976562
 20
92.69302368164062
 30
0.0
 10
78.7420654296875
 20
92.69302368164062
 30
0.0
 10
78.74008178710938
 20
92.69302368164062
 30
0.0
 10
78.73907470703125
 20
92.69302368164062
 30
0.0
 10
74.81906127929688
 20
91.97502136230469
 30
0.0
 10
70.17507934570312
 20
91.12702941894531
 30
0.0
 10
65.25906372070312
 20
90.22901916503906
 30
0.0
 10
65.25906372070312
 20
90.22901916503906
 30
0.0
 10
69.48806762695312
 20
103.9690246582031
 30
0.0
 10
69.48806762695312
 20
103.9690246582031
 30
0.0
 10
69.50906372070312
 20
104.0370178222656
 30
0.0
 10
69.51806640625
 20
104.1080322265625
 30
0.0
 10
69.51806640625
 20
104.1770172119141
 30
0.0
 10
69.51806640625
 20
104.18701171875
 30
0.0
 10
69.51406860351562
 20
104.1960144042969
 30
0.0
 10
69.51406860351562
 20
104.2050170898438
 30
0.0
 10
69.51107788085938
 20
104.2770233154297
 30
0.0
 10
69.49505615234375
 20
104.3470153808594
 30
0.0
 10
69.4710693359375
 20
104.4150238037109
 30
0.0
 10
69.46307373046875
 20
104.4360198974609
 30
0.0
 10
69.45407104492188
 20
104.4580230712891
 30
0.0
 10
69.44406127929688
 20
104.4790191650391
 30
0.0
 10
69.4140625
 20
104.5420227050781
 30
0.0
 10
69.37506103515625
 20
104.6000213623047
 30
0.0
 10
69.3260498046875
 20
104.6540222167969
 30
0.0
 10
69.31805419921875
 20
104.6620178222656
 30
0.0
 10
69.3160400390625
 20
104.6740264892578
 30
0.0
 10
69.30703735351562
 20
104.6810150146484
 30
0.0
 10
69.30404663085938
 20
104.6840209960938
 30
0.0
 10
69.301025390625
 20
104.6840209960938
 30
0.0
 10
69.29803466796875
 20
104.68701171875
 30
0.0
 10
69.2950439453125
 20
104.6900024414062
 30
0.0
 10
69.29302978515625
 20
104.6950073242188
 30
0.0
 10
69.28903198242188
 20
104.6980133056641
 30
0.0
 10
69.22903442382812
 20
104.7540130615234
 30
0.0
 10
69.1600341796875
 20
104.7930145263672
 30
0.0
 10
69.08804321289062
 20
104.8240203857422
 30
0.0
 10
69.07003784179688
 20
104.8320159912109
 30
0.0
 10
69.05303955078125
 20
104.8360137939453
 30
0.0
 10
69.0350341796875
 20
104.8420257568359
 30
0.0
 10
68.97103881835938
 20
104.8640289306641
 30
0.0
 10
68.90402221679688
 20
104.8760223388672
 30
0.0
 10
68.8370361328125
 20
104.8790283203125
 30
0.0
 10
68.81903076171875
 20
104.8800354003906
 30
0.0
 10
68.80303955078125
 20
104.8820343017578
 30
0.0
 10
68.7850341796875
 20
104.8810272216797
 30
0.0
 10
68.70404052734375
 20
104.8780212402344
 30
0.0
 10
68.623046875
 20
104.8660278320312
 30
0.0
 10
68.5460205078125
 20
104.8340301513672
 30
0.0
 10
68.5460205078125
 20
104.8340301513672
 30
0.0
 10
68.53903198242188
 20
104.8310241699219
 30
0.0
 10
68.53903198242188
 20
104.8310241699219
 30
0.0
 10
68.53802490234375
 20
104.8310241699219
 30
0.0
 10
68.53802490234375
 20
104.8310241699219
 30
0.0
 10
68.53701782226562
 20
104.8300170898438
 30
0.0
 10
68.53701782226562
 20
104.8300170898438
 30
0.0
 10
25.801025390625
 20
87.68301391601562
 30
0.0
 10
25.801025390625
 20
87.68301391601562
 30
0.0
 10
25.801025390625
 20
87.68301391601562
 30
0.0
 10
22.88504028320312
 20
88.88900756835938
 30
0.0
 10
22.88504028320312
 20
88.88900756835938
 30
0.0
 10
22.88504028320312
 20
88.88900756835938
 30
0.0
 10
24.87405395507812
 20
108.7110137939453
 30
0.0
 10
24.87405395507812
 20
108.7110137939453
 30
0.0
 10
24.88705444335938
 20
108.7640075683594
 30
0.0
 10
24.90606689453125
 20
108.8150177001953
 30
0.0
 10
24.90606689453125
 20
108.8720092773438
 30
0.0
 10
24.90606689453125
 20
109.010009765625
 30
0.0
 10
24.8670654296875
 20
109.1390075683594
 30
0.0
 10
24.799072265625
 20
109.2480163574219
 30
0.0
 10
24.799072265625
 20
109.2480163574219
 30
0.0
 10
22.674072265625
 20
115.525016784668
 30
0.0
 10
22.674072265625
 20
115.525016784668
 30
0.0
 10
22.56906127929688
 20
115.8390197753906
 30
0.0
 10
22.26608276367188
 20
116.0400161743164
 30
0.0
 10
21.92507934570312
 20
116.0020141601562
 30
0.0
 10
21.92507934570312
 20
116.0020141601562
 30
0.0
 10
14.7100830078125
 20
115.1980133056641
 30
0.0
 10
14.7100830078125
 20
115.1980133056641
 30
0.0
 10
14.70108032226562
 20
115.1970138549805
 30
0.0
 10
14.694091796875
 20
115.1920166015625
 30
0.0
 10
14.68707275390625
 20
115.1910095214844
 30
0.0
 10
14.6790771484375
 20
115.1890106201172
 30
0.0
 10
14.67108154296875
 20
115.192008972168
 30
0.0
 10
14.6640625
 20
115.1910095214844
 30
0.0
 10
14.6640625
 20
115.1910095214844
 30
0.0
 10
8.0650634765625
 20
114.0090103149414
 30
0.0
 10
8.0650634765625
 20
114.0090103149414
 30
0.0
 10
7.746063232421875
 20
113.9520111083984
 30
0.0
 10
7.50506591796875
 20
113.6850128173828
 30
0.0
 10
7.483062744140625
 20
113.3610076904297
 30
0.0
 10
7.4610595703125
 20
113.0380096435547
 30
0.0
 10
7.66107177734375
 20
112.7400054931641
 30
0.0
 10
7.970062255859375
 20
112.6380081176758
 30
0.0
 10
7.970062255859375
 20
112.6380081176758
 30
0.0
 10
14.56906127929688
 20
110.4810104370117
 30
0.0
 10
14.56906127929688
 20
110.4810104370117
 30
0.0
 10
14.57907104492188
 20
110.4780120849609
 30
0.0
 10
14.58905029296875
 20
110.4790115356445
 30
0.0
 10
14.59805297851562
 20
110.4760131835938
 30
0.0
 10
14.6070556640625
 20
110.4740142822266
 30
0.0
 10
14.61306762695312
 20
110.4680099487305
 30
0.0
 10
14.62106323242188
 20
110.4660110473633
 30
0.0
 10
14.62106323242188
 20
110.4660110473633
 30
0.0
 10
18.61807250976562
 20
109.4940185546875
 30
0.0
 10
18.61807250976562
 20
109.4940185546875
 30
0.0
 10
18.61807250976562
 20
109.4940185546875
 30
0.0
 10
14.10107421875
 20
91.91702270507812
 30
0.0
 10
14.10107421875
 20
91.91702270507812
 30
0.0
 10
14.07107543945312
 20
91.79902648925781
 30
0.0
 10
14.07208251953125
 20
91.67501831054688
 30
0.0
 10
14.10308837890625
 20
91.55702209472656
 30
0.0
 10
14.10308837890625
 20
91.55702209472656
 30
0.0
 10
19.68609619140625
 20
70.74702453613281
 30
0.0
 10
19.68609619140625
 20
70.74702453613281
 30
0.0
 10
19.68609619140625
 20
70.74601745605469
 30
0.0
 10
19.68710327148438
 20
70.74601745605469
 30
0.0
 10
19.68710327148438
 20
70.74502563476562
 30
0.0
 10
19.6881103515625
 20
70.73902893066406
 30
0.0
 10
19.693115234375
 20
70.73402404785156
 30
0.0
 10
19.69509887695312
 20
70.72802734375
 30
0.0
 10
19.71810913085938
 20
70.64802551269531
 30
0.0
 10
19.75711059570312
 20
70.5770263671875
 30
0.0
 10
19.80410766601562
 20
70.51103210449219
 30
0.0
 10
19.80810546875
 20
70.50503540039062
 30
0.0
 10
19.80911254882812
 20
70.49702453613281
 30
0.0
 10
19.81411743164062
 20
70.49102783203125
 30
0.0
 10
19.81411743164062
 20
70.49102783203125
 30
0.0
 10
35.29412841796875
 20
50.822021484375
 30
0.0
 10
35.29412841796875
 20
50.822021484375
 30
0.0
 10
35.42813110351562
 20
50.65101623535156
 30
0.0
 10
35.63412475585938
 20
50.551025390625
 30
0.0
 10
35.85113525390625
 20
50.551025390625
 30
0.0
 10
35.85113525390625
 20
50.551025390625
 30
0.0
 10
52.34713745117188
 20
50.551025390625
 30
0.0
 10
52.34713745117188
 20
50.551025390625
 30
0.0
 10
52.58615112304688
 20
50.551025390625
 30
0.0
 10
52.81015014648438
 20
50.67202758789062
 30
0.0
 10
52.94113159179688
 20
50.87303161621094
 30
0.0
 10
52.94113159179688
 20
50.87303161621094
 30
0.0
 10
54.87612915039062
 20
53.84503173828125
 30
0.0
 10
54.87612915039062
 20
53.84503173828125
 30
0.0
 10
54.87612915039062
 20
53.84503173828125
 30
0.0
 10
58.77212524414062
 20
50.70803833007812
 30
0.0
 10
58.77212524414062
 20
50.70803833007812
 30
0.0
 10
58.901123046875
 20
50.60403442382812
 30
0.0
 10
59.05813598632812
 20
50.55104064941406
 30
0.0
 10
59.21612548828125
 20
50.55104064941406
 30
0.0
 10
59.35614013671875
 20
50.55104064941406
 30
0.0
 10
59.4951171875
 20
50.592041015625
 30
0.0
 10
59.6151123046875
 20
50.67503356933594
 30
0.0
 10
59.6151123046875
 20
50.67503356933594
 30
0.0
 10
83.30911254882812
 20
66.863037109375
 30
0.0
 10
83.30911254882812
 20
66.863037109375
 30
0.0
 10
83.54098510742188
 20
67.02400207519531
 30
0.0
 10
83.656982421875
 20
67.30299377441406
 30
0.0
 10
83.60800170898438
 20
67.57899475097656
 30
0.0
  0
SPLINE
  5
42
330
1F
100
AcDbEntity
  8
Layer 1
370
     0
100
AcDbSpline
210
0.0
220
0.0
230
1.0
 70
    11
 71
     3
 72
    17
 73
    13
 74
     0
 42
0.0000000001
 43
0.0000000001
 12
1.0
 22
0.0
 32
0.0
 13
1.0
 23
0.0
 33
0.0
 40
0.0
 40
0.0
 40
0.0
 40
0.0
 40
1.0
 40
1.0
 40
1.0
 40
2.0
 40
2.0
 40
2.0
 40
3.0
 40
3.0
 40
3.0
 40
4.0
 40
4.0
 40
4.0
 40
4.0
 10
21.10498046875
 20
71.14500427246094
 30
0.0
 10
21.10498046875
 20
71.14500427246094
 30
0.0
 10
22.09197998046875
 20
80.98600769042969
 30
0.0
 10
22.09197998046875
 20
80.98600769042969
 30
0.0
 10
26.9849853515625
 20
81.79501342773438
 30
0.0
 10
58.3179931640625
 20
87.51400756835938
 30
0.0
 10
75.4749755859375
 20
90.65400695800781
 30
0.0
 10
75.4749755859375
 20
90.65400695800781
 30
0.0
 10
29.19598388671875
 20
60.86500549316406
 30
0.0
 10
29.19598388671875
 20
60.86500549316406
 30
0.0
 10
29.19598388671875
 20
60.86500549316406
 30
0.0
 10
21.10498046875
 20
71.14500427246094
 30
0.0
 10
21.10498046875
 20
71.14500427246094
 30
0.0
  0
SPLINE
  5
43
330
1F
100
AcDbEntity
  8
Layer 1
370
     0
100
AcDbSpline
210
0.0
220
0.0
230
1.0
 70
    11
 71
     3
 72
    14
 73
    10
 74
     0
 42
0.0000000001
 43
0.0000000001
 12
1.0
 22
0.0
 32
0.0
 13
1.0
 23
0.0
 33
0.0
 40
0.0
 40
0.0
 40
0.0
 40
0.0
 40
1.0
 40
1.0
 40
1.0
 40
2.0
 40
2.0
 40
2.0
 40
3.0
 40
3.0
 40
3.0
 40
3.0
 10
54.05999755859375
 20
88.18499755859375
 30
0.0
 10
54.05999755859375
 20
88.18499755859375
 30
0.0
 10
67.27899169921875
 20
101.6119995117188
 30
0.0
 10
67.27899169921875
 20
101.6119995117188
 30
0.0
 10
67.27899169921875
 20
101.6119995117188
 30
0.0
 10
63.68798828125
 20
89.94099426269531
 30
0.0
 10
63.68798828125
 20
89.94099426269531
 30
0.0
 10
60.531982421875
 20
89.36500549316406
 30
0.0
 10
57.2869873046875
 20
88.77299499511719
 30
0.0
 10
54.05999755859375
 20
88.18499755859375
 30
0.0
  0
SPLINE
  5
44
330
1F
100
AcDbEntity
  8
Layer 1
370
     0
100
AcDbSpline
210
0.0
220
0.0
230
1.0
 70
    11
 71
     3
 72
    17
 73
    13
 74
     0
 42
0.0000000001
 43
0.0000000001
 12
1.0
 22
0.0
 32
0.0
 13
1.0
 23
0.0
 33
0.0
 40
0.0
 40
0.0
 40
0.0
 40
0.0
 40
1.0
 40
1.0
 40
1.0
 40
2.0
 40
2.0
 40
2.0
 40
3.0
 40
3.0
 40
3.0
 40
4.0
 40
4.0
 40
4.0
 40
4.0
 10
65.9229736328125
 20
102.2550048828125
 30
0.0
 10
65.9229736328125
 20
102.2550048828125
 30
0.0
 10
51.636962890625
 20
87.74400329589844
 30
0.0
 10
51.636962890625
 20
87.74400329589844
 30
0.0
 10
45.09097290039062
 20
86.552001953125
 30
0.0
 10
38.75595092773438
 20
85.4010009765625
 30
0.0
 10
33.58395385742188
 20
84.46701049804688
 30
0.0
 10
33.58395385742188
 20
84.46701049804688
 30
0.0
 10
27.67495727539062
 20
86.90901184082031
 30
0.0
 10
27.67495727539062
 20
86.90901184082031
 30
0.0
 10
27.67495727539062
 20
86.90901184082031
 30
0.0
 10
65.9229736328125
 20
102.2550048828125
 30
0.0
 10
65.9229736328125
 20
102.2550048828125
 30
0.0
  0
SPLINE
  5
45
330
1F
100
AcDbEntity
  8
Layer 1
370
     0
100
AcDbSpline
210
0.0
220
0.0
230
1.0
 70
    11
 71
     3
 72
    14
 73
    10
 74
     0
 42
0.0000000001
 43
0.0000000001
 12
1.0
 22
0.0
 32
0.0
 13
1.0
 23
0.0
 33
0.0
 40
0.0
 40
0.0
 40
0.0
 40
0.0
 40
1.0
 40
1.0
 40
1.0
 40
2.0
 40
2.0
 40
2.0
 40
3.0
 40
3.0
 40
3.0
 40
3.0
 10
31.0
 20
84.0
 30
0.0
 10
26.8070068359375
 20
83.24400329589844
 30
0.0
 10
23.67001342773438
 20
82.68499755859375
 30
0.0
 10
22.23800659179688
 20
82.43899536132812
 30
0.0
 10
22.23800659179688
 20
82.43899536132812
 30
0.0
 10
22.73699951171875
 20
87.41499328613281
 30
0.0
 10
22.73699951171875
 20
87.41499328613281
 30
0.0
 10
22.73699951171875
 20
87.41499328613281
 30
0.0
 10
31.0
 20
84.0
 30
0.0
 10
31.0
 20
84.0
 30
0.0
  0
POLYLINE
  5
46
330
1F
100
AcDbEntity
  8
Layer 1
370
     0
100
AcDb2dPolyline
 66
     1
 10
0.0
 20
0.0
 30
0.0
  0
VERTEX
  5
47
330
46
100
AcDbEntity
  8
Layer 1
370
     0
100
AcDbVertex
100
AcDb2dVertex
 10
14.0789794921875
 20
113.6469955444336
 30
0.0
  0
VERTEX
  5
48
330
46
100
AcDbEntity
  8
Layer 1
370
     0
100
AcDbVertex
100
AcDb2dVertex
 10
14.0789794921875
 20
112.1319961547852
 30
0.0
  0
VERTEX
  5
49
330
46
100
AcDbEntity
  8
Layer 1
370
     0
100
AcDbVertex
100
AcDb2dVertex
 10
11.08596801757812
 20
113.1109924316406
 30
0.0
  0
VERTEX
  5
4A
330
46
100
AcDbEntity
  8
Layer 1
370
     0
100
AcDbVertex
100
AcDb2dVertex
 10
14.0789794921875
 20
113.6469955444336
 30
0.0
  0
SEQEND
  5
4B
330
46
100
AcDbEntity
  8
Layer 1
370
     0
  0
SPLINE
  5
4C
330
1F
100
AcDbEntity
  8
Layer 1
370
     0
100
AcDbSpline
210
0.0
220
0.0
230
1.0
 70
    11
 71
     3
 72
    26
 73
    22
 74
     0
 42
0.0000000001
 43
0.0000000001
 12
1.0
 22
0.0
 32
0.0
 13
1.0
 23
0.0
 33
0.0
 40
0.0
 40
0.0
 40
0.0
 40
0.0
 40
1.0
 40
1.0
 40
1.0
 40
2.0
 40
2.0
 40
2.0
 40
3.0
 40
3.0
 40
3.0
 40
4.0
 40
4.0
 40
4.0
 40
5.0
 40
5.0
 40
5.0
 40
6.0
 40
6.0
 40
6.0
 40
7.0
 40
7.0
 40
7.0
 40
7.0
 10
15.49697875976562
 20
113.8600006103516
 30
0.0
 10
15.49697875976562
 20
113.8600006103516
 30
0.0
 10
21.51498413085938
 20
114.5299987792969
 30
0.0
 10
21.51498413085938
 20
114.5299987792969
 30
0.0
 10
21.51498413085938
 20
114.5299987792969
 30
0.0
 10
23.093994140625
 20
109.8650054931641
 30
0.0
 10
23.093994140625
 20
109.8650054931641
 30
0.0
 10
23.093994140625
 20
109.8650054931641
 30
0.0
 10
19.66098022460938
 20
110.6990051269531
 30
0.0
 10
19.66098022460938
 20
110.6990051269531
 30
0.0
 10
19.66098022460938
 20
110.7000045776367
 30
0.0
 10
19.65997314453125
 20
110.7000045776367
 30
0.0
 10
19.65997314453125
 20
110.7000045776367
 30
0.0
 10
19.65896606445312
 20
110.7000045776367
 30
0.0
 10
19.65896606445312
 20
110.7000045776367
 30
0.0
 10
19.65896606445312
 20
110.7000045776367
 30
0.0
 10
19.65896606445312
 20
110.7000045776367
 30
0.0
 10
15.49697875976562
 20
111.7120056152344
 30
0.0
 10
15.49697875976562
 20
111.7120056152344
 30
0.0
 10
15.49697875976562
 20
111.7120056152344
 30
0.0
 10
15.49697875976562
 20
113.8600006103516
 30
0.0
 10
15.49697875976562
 20
113.8600006103516
 30
0.0
  0
POLYLINE
  5
4D
330
1F
100
AcDbEntity
  8
Layer 1
370
     0
100
AcDb2dPolyline
 66
     1
 10
0.0
 20
0.0
 30
0.0
  0
VERTEX
  5
4E
330
4D
100
AcDbEntity
  8
Layer 1
370
     0
100
AcDbVertex
100
AcDb2dVertex
 10
19.99600219726562
 20
109.1600036621094
 30
0.0
  0
VERTEX
  5
4F
330
4D
100
AcDbEntity
  8
Layer 1
370
     0
100
AcDbVertex
100
AcDb2dVertex
 10
23.4110107421875
 20
108.3290100097656
 30
0.0
  0
VERTEX
  5
50
330
4D
100
AcDbEntity
  8
Layer 1
370
     0
100
AcDbVertex
100
AcDb2dVertex
 10
20.05300903320312
 20
74.85400390625
 30
0.0
  0
VERTEX
  5
51
330
4D
100
AcDbEntity
  8
Layer 1
370
     0
100
AcDbVertex
100
AcDb2dVertex
 10
15.52099609375
 20
91.74501037597656
 30
0.0
  0
VERTEX
  5
52
330
4D
100
AcDbEntity
  8
Layer 1
370
     0
100
AcDbVertex
100
AcDb2dVertex
 10
19.99600219726562
 20
109.1600036621094
 30
0.0
  0
SEQEND
  5
53
330
4D
100
AcDbEntity
  8
Layer 1
370
     0
  0
POLYLINE
  5
54
330
1F
100
AcDbEntity
  8
Layer 1
370
     0
100
AcDb2dPolyline
 66
     1
 10
0.0
 20
0.0
 30
0.0
  0
VERTEX
  5
55
330
54
100
AcDbEntity
  8
Layer 1
370
     0
100
AcDbVertex
100
AcDb2dVertex
 10
51.9639892578125
 20
51.97099304199219
 30
0.0
  0
VERTEX
  5
56
330
54
100
AcDbEntity
  8
Layer 1
370
     0
100
AcDbVertex
100
AcDb2dVertex
 10
36.19497680664062
 20
51.97099304199219
 30
0.0
  0
VERTEX
  5
57
330
54
100
AcDbEntity
  8
Layer 1
370
     0
100
AcDbVertex
100
AcDb2dVertex
 10
30.07598876953125
 20
59.74598693847656
 30
0.0
  0
VERTEX
  5
58
330
54
100
AcDbEntity
  8
Layer 1
370
     0
100
AcDbVertex
100
AcDb2dVertex
 10
76.46697998046875
 20
89.60598754882812
 30
0.0
  0
VERTEX
  5
59
330
54
100
AcDbEntity
  8
Layer 1
370
     0
100
AcDbVertex
100
AcDb2dVertex
 10
51.9639892578125
 20
51.97099304199219
 30
0.0
  0
SEQEND
  5
5A
330
54
100
AcDbEntity
  8
Layer 1
370
     0
  0
POLYLINE
  5
5B
330
1F
100
AcDbEntity
  8
Layer 1
370
     0
100
AcDb2dPolyline
 66
     1
 10
0.0
 20
0.0
 30
0.0
  0
VERTEX
  5
5C
330
5B
100
AcDbEntity
  8
Layer 1
370
     0
100
AcDbVertex
100
AcDb2dVertex
 10
59.2509765625
 20
52.14399719238281
 30
0.0
  0
VERTEX
  5
5D
330
5B
100
AcDbEntity
  8
Layer 1
370
     0
100
AcDbVertex
100
AcDb2dVertex
 10
55.65298461914062
 20
55.03999328613281
 30
0.0
  0
VERTEX
  5
5E
330
5B
100
AcDbEntity
  8
Layer 1
370
     0
100
AcDbVertex
100
AcDb2dVertex
 10
65.927978515625
 20
70.82199096679688
 30
0.0
  0
VERTEX
  5
5F
330
5B
100
AcDbEntity
  8
Layer 1
370
     0
100
AcDbVertex
100
AcDb2dVertex
 10
81.1929931640625
 20
67.13499450683594
 30
0.0
  0
VERTEX
  5
60
330
5B
100
AcDbEntity
  8
Layer 1
370
     0
100
AcDbVertex
100
AcDb2dVertex
 10
59.2509765625
 20
52.14399719238281
 30
0.0
  0
SEQEND
  5
61
330
5B
100
AcDbEntity
  8
Layer 1
370
     0
  0
HATCH
  5
62
330
1F
100
AcDbEntity
  8
Layer 1
 62
     7
420
 16777215
100
AcDbHatch
 10
0.0
 20
0.0
 30
0.0
210
0.0
220
0.0
230
1.0
  2
SOLID
 70
     1
 71
     0
 91
       10
 92
        1
 93
        1
 72
     4
 94
        3
 73
     0
 74
     1
 95
      218
 96
      214
 40
0.0
 40
0.0
 40
0.0
 40
0.0
 40
1.0
 40
1.0
 40
1.0
 40
2.0
 40
2.0
 40
2.0
 40
3.0
 40
3.0
 40
3.0
 40
4.0
 40
4.0
 40
4.0
 40
5.0
 40
5.0
 40
5.0
 40
6.0
 40
6.0
 40
6.0
 40
7.0
 40
7.0
 40
7.0
 40
8.0
 40
8.0
 40
8.0
 40
9.0
 40
9.0
 40
9.0
 40
10.0
 40
10.0
 40
10.0
 40
11.0
 40
11.0
 40
11.0
 40
12.0
 40
12.0
 40
12.0
 40
13.0
 40
13.0
 40
13.0
 40
14.0
 40
14.0
 40
14.0
 40
15.0
 40
15.0
 40
15.0
 40
16.0
 40
16.0
 40
16.0
 40
17.0
 40
17.0
 40
17.0
 40
18.0
 40
18.0
 40
18.0
 40
19.0
 40
19.0
 40
19.0
 40
20.0
 40
20.0
 40
20.0
 40
21.0
 40
21.0
 40
21.0
 40
22.0
 40
22.0
 40
22.0
 40
23.0
 40
23.0
 40
23.0
 40
24.0
 40
24.0
 40
24.0
 40
25.0
 40
25.0
 40
25.0
 40
26.0
 40
26.0
 40
26.0
 40
27.0
 40
27.0
 40
27.0
 40
28.0
 40
28.0
 40
28.0
 40
29.0
 40
29.0
 40
29.0
 40
30.0
 40
30.0
 40
30.0
 40
31.0
 40
31.0
 40
31.0
 40
32.0
 40
32.0
 40
32.0
 40
33.0
 40
33.0
 40
33.0
 40
34.0
 40
34.0
 40
34.0
 40
35.0
 40
35.0
 40
35.0
 40
36.0
 40
36.0
 40
36.0
 40
37.0
 40
37.0
 40
37.0
 40
38.0
 40
38.0
 40
38.0
 40
39.0
 40
39.0
 40
39.0
 40
40.0
 40
40.0
 40
40.0
 40
41.0
 40
41.0
 40
41.0
 40
42.0
 40
42.0
 40
42.0
 40
43.0
 40
43.0
 40
43.0
 40
44.0
 40
44.0
 40
44.0
 40
45.0
 40
45.0
 40
45.0
 40
46.0
 40
46.0
 40
46.0
 40
47.0
 40
47.0
 40
47.0
 40
48.0
 40
48.0
 40
48.0
 40
49.0
 40
49.0
 40
49.0
 40
50.0
 40
50.0
 40
50.0
 40
51.0
 40
51.0
 40
51.0
 40
52.0
 40
52.0
 40
52.0
 40
53.0
 40
53.0
 40
53.0
 40
54.0
 40
54.0
 40
54.0
 40
55.0
 40
55.0
 40
55.0
 40
56.0
 40
56.0
 40
56.0
 40
57.0
 40
57.0
 40
57.0
 40
58.0
 40
58.0
 40
58.0
 40
59.0
 40
59.0
 40
59.0
 40
60.0
 40
60.0
 40
60.0
 40
61.0
 40
61.0
 40
61.0
 40
62.0
 40
62.0
 40
62.0
 40
63.0
 40
63.0
 40
63.0
 40
64.0
 40
64.0
 40
64.0
 40
65.0
 40
65.0
 40
65.0
 40
66.0
 40
66.0
 40
66.0
 40
67.0
 40
67.0
 40
67.0
 40
68.0
 40
68.0
 40
68.0
 40
69.0
 40
69.0
 40
69.0
 40
70.0
 40
70.0
 40
70.0
 40
71.0
 40
71.0
 40
71.0
 40
71.0
 10
83.60800170898438
 20
67.57899475097656
 10
83.5570068359375
 20
67.85398864746094
 10
83.3489990234375
 20
68.07398986816406
 10
83.07699584960938
 20
68.13999938964844
 10
83.07699584960938
 20
68.13999938964844
 10
66.74899291992188
 20
72.08200073242188
 10
66.74899291992188
 20
72.08200073242188
 10
66.74899291992188
 20
72.08200073242188
 10
79.4530029296875
 20
91.59500122070312
 10
79.4530029296875
 20
91.59500122070312
 10
79.4530029296875
 20
91.59600830078125
 10
79.45401000976562
 20
91.59600830078125
 10
79.45401000976562
 20
91.59700012207031
 10
79.45401000976562
 20
91.59700012207031
 10
79.46200561523438
 20
91.60899353027344
 10
79.46200561523438
 20
91.60899353027344
 10
79.50601196289062
 20
91.67599487304688
 10
79.53399658203125
 20
91.75099182128906
 10
79.55300903320312
 20
91.82699584960938
 10
79.55801391601562
 20
91.84799194335938
 10
79.55902099609375
 20
91.8699951171875
 10
79.56201171875
 20
91.89199829101562
 10
79.57101440429688
 20
91.9530029296875
 10
79.572998046875
 20
92.01300048828125
 10
79.56600952148438
 20
92.07400512695312
 10
79.56301879882812
 20
92.0989990234375
 10
79.56100463867188
 20
92.12300109863281
 10
79.55502319335938
 20
92.14801025390625
 10
79.53802490234375
 20
92.22100830078125
 10
79.51202392578125
 20
92.29200744628906
 10
79.4730224609375
 20
92.35801696777344
 10
79.468017578125
 20
92.36502075195312
 10
79.468017578125
 20
92.37301635742188
 10
79.46401977539062
 20
92.37901306152344
 10
79.4630126953125
 20
92.38002014160156
 10
79.46200561523438
 20
92.38101196289062
 10
79.46102905273438
 20
92.38201904296875
 10
79.45901489257812
 20
92.38401794433594
 10
79.45901489257812
 20
92.38601684570312
 10
79.45803833007812
 20
92.38801574707031
 10
79.41104125976562
 20
92.45901489257812
 10
79.35003662109375
 20
92.51602172851562
 10
79.28305053710938
 20
92.56501770019531
 10
79.26605224609375
 20
92.57701110839844
 10
79.25006103515625
 20
92.58601379394531
 10
79.2320556640625
 20
92.59602355957031
 10
79.175048828125
 20
92.63002014160156
 10
79.11605834960938
 20
92.65702819824219
 10
79.05105590820312
 20
92.67402648925781
 10
79.03204345703125
 20
92.67903137207031
 10
79.01504516601562
 20
92.68502807617188
 10
78.99505615234375
 20
92.68902587890625
 10
78.9190673828125
 20
92.70303344726562
 10
78.842041015625
 20
92.70703125
 10
78.7630615234375
 20
92.69403076171875
 10
78.75607299804688
 20
92.69302368164062
 10
78.75006103515625
 20
92.69403076171875
 10
78.74307250976562
 20
92.69302368164062
 10
78.7420654296875
 20
92.69302368164062
 10
78.74008178710938
 20
92.69302368164062
 10
78.73907470703125
 20
92.69302368164062
 10
74.81906127929688
 20
91.97502136230469
 10
70.17507934570312
 20
91.12702941894531
 10
65.25906372070312
 20
90.22901916503906
 10
65.25906372070312
 20
90.22901916503906
 10
69.48806762695312
 20
103.9690246582031
 10
69.48806762695312
 20
103.9690246582031
 10
69.50906372070312
 20
104.0370178222656
 10
69.51806640625
 20
104.1080322265625
 10
69.51806640625
 20
104.1770172119141
 10
69.51806640625
 20
104.18701171875
 10
69.51406860351562
 20
104.1960144042969
 10
69.51406860351562
 20
104.2050170898438
 10
69.51107788085938
 20
104.2770233154297
 10
69.49505615234375
 20
104.3470153808594
 10
69.4710693359375
 20
104.4150238037109
 10
69.46307373046875
 20
104.4360198974609
 10
69.45407104492188
 20
104.4580230712891
 10
69.44406127929688
 20
104.4790191650391
 10
69.4140625
 20
104.5420227050781
 10
69.37506103515625
 20
104.6000213623047
 10
69.3260498046875
 20
104.6540222167969
 10
69.31805419921875
 20
104.6620178222656
 10
69.3160400390625
 20
104.6740264892578
 10
69.30703735351562
 20
104.6810150146484
 10
69.30404663085938
 20
104.6840209960938
 10
69.301025390625
 20
104.6840209960938
 10
69.29803466796875
 20
104.68701171875
 10
69.2950439453125
 20
104.6900024414062
 10
69.29302978515625
 20
104.6950073242188
 10
69.28903198242188
 20
104.6980133056641
 10
69.22903442382812
 20
104.7540130615234
 10
69.1600341796875
 20
104.7930145263672
 10
69.08804321289062
 20
104.8240203857422
 10
69.07003784179688
 20
104.8320159912109
 10
69.05303955078125
 20
104.8360137939453
 10
69.0350341796875
 20
104.8420257568359
 10
68.97103881835938
 20
104.8640289306641
 10
68.90402221679688
 20
104.8760223388672
 10
68.8370361328125
 20
104.8790283203125
 10
68.81903076171875
 20
104.8800354003906
 10
68.80303955078125
 20
104.8820343017578
 10
68.7850341796875
 20
104.8810272216797
 10
68.70404052734375
 20
104.8780212402344
 10
68.623046875
 20
104.8660278320312
 10
68.5460205078125
 20
104.8340301513672
 10
68.5460205078125
 20
104.8340301513672
 10
68.53903198242188
 20
104.8310241699219
 10
68.53903198242188
 20
104.8310241699219
 10
68.53802490234375
 20
104.8310241699219
 10
68.53802490234375
 20
104.8310241699219
 10
68.53701782226562
 20
104.8300170898438
 10
68.53701782226562
 20
104.8300170898438
 10
25.801025390625
 20
87.68301391601562
 10
25.801025390625
 20
87.68301391601562
 10
25.801025390625
 20
87.68301391601562
 10
22.88504028320312
 20
88.88900756835938
 10
22.88504028320312
 20
88.88900756835938
 10
22.88504028320312
 20
88.88900756835938
 10
24.87405395507812
 20
108.7110137939453
 10
24.87405395507812
 20
108.7110137939453
 10
24.88705444335938
 20
108.7640075683594
 10
24.90606689453125
 20
108.8150177001953
 10
24.90606689453125
 20
108.8720092773438
 10
24.90606689453125
 20
109.010009765625
 10
24.8670654296875
 20
109.1390075683594
 10
24.799072265625
 20
109.2480163574219
 10
24.799072265625
 20
109.2480163574219
 10
22.674072265625
 20
115.525016784668
 10
22.674072265625
 20
115.525016784668
 10
22.56906127929688
 20
115.8390197753906
 10
22.26608276367188
 20
116.0400161743164
 10
21.92507934570312
 20
116.0020141601562
 10
21.92507934570312
 20
116.0020141601562
 10
14.7100830078125
 20
115.1980133056641
 10
14.7100830078125
 20
115.1980133056641
 10
14.70108032226562
 20
115.1970138549805
 10
14.694091796875
 20
115.1920166015625
 10
14.68707275390625
 20
115.1910095214844
 10
14.6790771484375
 20
115.1890106201172
 10
14.67108154296875
 20
115.192008972168
 10
14.6640625
 20
115.1910095214844
 10
14.6640625
 20
115.1910095214844
 10
8.0650634765625
 20
114.0090103149414
 10
8.0650634765625
 20
114.0090103149414
 10
7.746063232421875
 20
113.9520111083984
 10
7.50506591796875
 20
113.6850128173828
 10
7.483062744140625
 20
113.3610076904297
 10
7.4610595703125
 20
113.0380096435547
 10
7.66107177734375
 20
112.7400054931641
 10
7.970062255859375
 20
112.6380081176758
 10
7.970062255859375
 20
112.6380081176758
 10
14.56906127929688
 20
110.4810104370117
 10
14.56906127929688
 20
110.4810104370117
 10
14.57907104492188
 20
110.4780120849609
 10
14.58905029296875
 20
110.4790115356445
 10
14.59805297851562
 20
110.4760131835938
 10
14.6070556640625
 20
110.4740142822266
 10
14.61306762695312
 20
110.4680099487305
 10
14.62106323242188
 20
110.4660110473633
 10
14.62106323242188
 20
110.4660110473633
 10
18.61807250976562
 20
109.4940185546875
 10
18.61807250976562
 20
109.4940185546875
 10
18.61807250976562
 20
109.4940185546875
 10
14.10107421875
 20
91.91702270507812
 10
14.10107421875
 20
91.91702270507812
 10
14.07107543945312
 20
91.79902648925781
 10
14.07208251953125
 20
91.67501831054688
 10
14.10308837890625
 20
91.55702209472656
 10
14.10308837890625
 20
91.55702209472656
 10
19.68609619140625
 20
70.74702453613281
 10
19.68609619140625
 20
70.74702453613281
 10
19.68609619140625
 20
70.74601745605469
 10
19.68710327148438
 20
70.74601745605469
 10
19.68710327148438
 20
70.74502563476562
 10
19.6881103515625
 20
70.73902893066406
 10
19.693115234375
 20
70.73402404785156
 10
19.69509887695312
 20
70.72802734375
 10
19.71810913085938
 20
70.64802551269531
 10
19.75711059570312
 20
70.5770263671875
 10
19.80410766601562
 20
70.51103210449219
 10
19.80810546875
 20
70.50503540039062
 10
19.80911254882812
 20
70.49702453613281
 10
19.81411743164062
 20
70.49102783203125
 10
19.81411743164062
 20
70.49102783203125
 10
35.29412841796875
 20
50.822021484375
 10
35.29412841796875
 20
50.822021484375
 10
35.42813110351562
 20
50.65101623535156
 10
35.63412475585938
 20
50.551025390625
 10
35.85113525390625
 20
50.551025390625
 10
35.85113525390625
 20
50.551025390625
 10
52.34713745117188
 20
50.551025390625
 10
52.34713745117188
 20
50.551025390625
 10
52.58615112304688
 20
50.551025390625
 10
52.81015014648438
 20
50.67202758789062
 10
52.94113159179688
 20
50.87303161621094
 10
52.94113159179688
 20
50.87303161621094
 10
54.87612915039062
 20
53.84503173828125
 10
54.87612915039062
 20
53.84503173828125
 10
54.87612915039062
 20
53.84503173828125
 10
58.77212524414062
 20
50.70803833007812
 10
58.77212524414062
 20
50.70803833007812
 10
58.901123046875
 20
50.60403442382812
 10
59.05813598632812
 20
50.55104064941406
 10
59.21612548828125
 20
50.55104064941406
 10
59.35614013671875
 20
50.55104064941406
 10
59.4951171875
 20
50.592041015625
 10
59.6151123046875
 20
50.67503356933594
 10
59.6151123046875
 20
50.67503356933594
 10
83.30911254882812
 20
66.863037109375
 10
83.30911254882812
 20
66.863037109375
 10
83.54098510742188
 20
67.02400207519531
 10
83.656982421875
 20
67.30299377441406
 10
83.60800170898438
 20
67.57899475097656
 97
        0
 97
        0
 92
        1
 93
        1
 72
     4
 94
        3
 73
     0
 74
     1
 95
       17
 96
       13
 40
0.0
 40
0.0
 40
0.0
 40
0.0
 40
1.0
 40
1.0
 40
1.0
 40
2.0
 40
2.0
 40
2.0
 40
3.0
 40
3.0
 40
3.0
 40
4.0
 40
4.0
 40
4.0
 40
4.0
 10
21.10498046875
 20
71.14500427246094
 10
21.10498046875
 20
71.14500427246094
 10
22.09197998046875
 20
80.98600769042969
 10
22.09197998046875
 20
80.98600769042969
 10
26.9849853515625
 20
81.79501342773438
 10
58.3179931640625
 20
87.51400756835938
 10
75.4749755859375
 20
90.65400695800781
 10
75.4749755859375
 20
90.65400695800781
 10
29.19598388671875
 20
60.86500549316406
 10
29.19598388671875
 20
60.86500549316406
 10
29.19598388671875
 20
60.86500549316406
 10
21.10498046875
 20
71.14500427246094
 10
21.10498046875
 20
71.14500427246094
 97
        0
 97
        0
 92
        1
 93
        1
 72
     4
 94
        3
 73
     0
 74
     1
 95
       14
 96
       10
 40
0.0
 40
0.0
 40
0.0
 40
0.0
 40
1.0
 40
1.0
 40
1.0
 40
2.0
 40
2.0
 40
2.0
 40
3.0
 40
3.0
 40
3.0
 40
3.0
 10
54.05999755859375
 20
88.18499755859375
 10
54.05999755859375
 20
88.18499755859375
 10
67.27899169921875
 20
101.6119995117188
 10
67.27899169921875
 20
101.6119995117188
 10
67.27899169921875
 20
101.6119995117188
 10
63.68798828125
 20
89.94099426269531
 10
63.68798828125
 20
89.94099426269531
 10
60.531982421875
 20
89.36500549316406
 10
57.2869873046875
 20
88.77299499511719
 10
54.05999755859375
 20
88.18499755859375
 97
        0
 97
        0
 92
        1
 93
        1
 72
     4
 94
        3
 73
     0
 74
     1
 95
       17
 96
       13
 40
0.0
 40
0.0
 40
0.0
 40
0.0
 40
1.0
 40
1.0
 40
1.0
 40
2.0
 40
2.0
 40
2.0
 40
3.0
 40
3.0
 40
3.0
 40
4.0
 40
4.0
 40
4.0
 40
4.0
 10
65.9229736328125
 20
102.2550048828125
 10
65.9229736328125
 20
102.2550048828125
 10
51.636962890625
 20
87.74400329589844
 10
51.636962890625
 20
87.74400329589844
 10
45.09097290039062
 20
86.552001953125
 10
38.75595092773438
 20
85.4010009765625
 10
33.58395385742188
 20
84.46701049804688
 10
33.58395385742188
 20
84.46701049804688
 10
27.67495727539062
 20
86.90901184082031
 10
27.67495727539062
 20
86.90901184082031
 10
27.67495727539062
 20
86.90901184082031
 10
65.9229736328125
 20
102.2550048828125
 10
65.9229736328125
 20
102.2550048828125
 97
        0
 97
        0
 92
        1
 93
        1
 72
     4
 94
        3
 73
     0
 74
     1
 95
       14
 96
       10
 40
0.0
 40
0.0
 40
0.0
 40
0.0
 40
1.0
 40
1.0
 40
1.0
 40
2.0
 40
2.0
 40
2.0
 40
3.0
 40
3.0
 40
3.0
 40
3.0
 10
31.0
 20
84.0
 10
26.8070068359375
 20
83.24400329589844
 10
23.67001342773438
 20
82.68499755859375
 10
22.23800659179688
 20
82.43899536132812
 10
22.23800659179688
 20
82.43899536132812
 10
22.73699951171875
 20
87.41499328613281
 10
22.73699951171875
 20
87.41499328613281
 10
22.73699951171875
 20
87.41499328613281
 10
31.0
 20
84.0
 10
31.0
 20
84.0
 97
        0
 97
        0
 92
        1
 93
        3
 72
     1
 10
14.0789794921875
 20
113.6469955444336
 11
14.0789794921875
 21
112.1319961547852
 72
     1
 10
14.0789794921875
 20
112.1319961547852
 11
11.08596801757812
 21
113.1109924316406
 72
     1
 10
11.08596801757812
 20
113.1109924316406
 11
14.0789794921875
 21
113.6469955444336
 97
        0
 92
        1
 93
        1
 72
     4
 94
        3
 73
     0
 74
     1
 95
       26
 96
       22
 40
0.0
 40
0.0
 40
0.0
 40
0.0
 40
1.0
 40
1.0
 40
1.0
 40
2.0
 40
2.0
 40
2.0
 40
3.0
 40
3.0
 40
3.0
 40
4.0
 40
4.0
 40
4.0
 40
5.0
 40
5.0
 40
5.0
 40
6.0
 40
6.0
 40
6.0
 40
7.0
 40
7.0
 40
7.0
 40
7.0
 10
15.49697875976562
 20
113.8600006103516
 10
15.49697875976562
 20
113.8600006103516
 10
21.51498413085938
 20
114.5299987792969
 10
21.51498413085938
 20
114.5299987792969
 10
21.51498413085938
 20
114.5299987792969
 10
23.093994140625
 20
109.8650054931641
 10
23.093994140625
 20
109.8650054931641
 10
23.093994140625
 20
109.8650054931641
 10
19.66098022460938
 20
110.6990051269531
 10
19.66098022460938
 20
110.6990051269531
 10
19.66098022460938
 20
110.7000045776367
 10
19.65997314453125
 20
110.7000045776367
 10
19.65997314453125
 20
110.7000045776367
 10
19.65896606445312
 20
110.7000045776367
 10
19.65896606445312
 20
110.7000045776367
 10
19.65896606445312
 20
110.7000045776367
 10
19.65896606445312
 20
110.7000045776367
 10
15.49697875976562
 20
111.7120056152344
 10
15.49697875976562
 20
111.7120056152344
 10
15.49697875976562
 20
111.7120056152344
 10
15.49697875976562
 20
113.8600006103516
 10
15.49697875976562
 20
113.8600006103516
 97
        0
 97
        0
 92
        1
 93
        4
 72
     1
 10
19.99600219726562
 20
109.1600036621094
 11
23.4110107421875
 21
108.3290100097656
 72
     1
 10
23.4110107421875
 20
108.3290100097656
 11
20.05300903320312
 21
74.85400390625
 72
     1
 10
20.05300903320312
 20
74.85400390625
 11
15.52099609375
 21
91.74501037597656
 72
     1
 10
15.52099609375
 20
91.74501037597656
 11
19.99600219726562
 21
109.1600036621094
 97
        0
 92
        1
 93
        4
 72
     1
 10
51.9639892578125
 20
51.97099304199219
 11
36.19497680664062
 21
51.97099304199219
 72
     1
 10
36.19497680664062
 20
51.97099304199219
 11
30.07598876953125
 21
59.74598693847656
 72
     1
 10
30.07598876953125
 20
59.74598693847656
 11
76.46697998046875
 21
89.60598754882812
 72
     1
 10
76.46697998046875
 20
89.60598754882812
 11
51.9639892578125
 21
51.97099304199219
 97
        0
 92
        1
 93
        4
 72
     1
 10
59.2509765625
 20
52.14399719238281
 11
55.65298461914062
 21
55.03999328613281
 72
     1
 10
55.65298461914062
 20
55.03999328613281
 11
65.927978515625
 21
70.82199096679688
 72
     1
 10
65.927978515625
 20
70.82199096679688
 11
81.1929931640625
 21
67.13499450683594
 72
     1
 10
81.1929931640625
 20
67.13499450683594
 11
59.2509765625
 21
52.14399719238281
 97
        0
 75
     2
 76
     1
 98
        0
  0
ENDSEC
  0
SECTION
  2
OBJECTS
  0
DICTIONARY
  5
C
330
0
100
AcDbDictionary
281
     1
  3
ACAD_GROUP
350
D
  3
ACAD_LAYOUT
350
1A
  3
ACAD_MATERIAL
350
3B
  3
ACAD_MLEADERSTYLE
350
64
  3
ACAD_MLINESTYLE
350
17
  3
ACAD_PLOTSETTINGS
350
19
  3
ACAD_PLOTSTYLENAME
350
E
  3
ACAD_TABLESTYLE
350
63
  3
ACAD_VISUALSTYLE
350
2A
  0
SUN
  5
3F
330
29
100
AcDbSun
 90
        1
290
     0
 63
     7
421
 16777215
 40
1.0
291
     1
 91
  2455826
 92
 54000000
292
     0
 70
     2
 71
   256
280
     1
  0
DICTIONARY
  5
D
102
{ACAD_REACTORS
330
C
102
}
330
C
100
AcDbDictionary
281
     1
  0
DICTIONARY
  5
1A
102
{ACAD_REACTORS
330
C
102
}
330
C
100
AcDbDictionary
281
     1
  3
Layout1
350
1E
  3
Layout2
350
26
  3
Model
350
22
  0
DICTIONARY
  5
3B
102
{ACAD_REACTORS
330
C
102
}
330
C
100
AcDbDictionary
281
     1
  3
ByBlock
350
3D
  3
ByLayer
350
3C
  3
Global
350
3E
  0
DICTIONARY
  5
64
102
{ACAD_REACTORS
330
C
102
}
330
C
100
AcDbDictionary
281
     1
  0
DICTIONARY
  5
17
102
{ACAD_REACTORS
330
C
102
}
330
C
100
AcDbDictionary
281
     1
  3
Standard
350
18
  0
DICTIONARY
  5
19
102
{ACAD_REACTORS
330
C
102
}
330
C
100
AcDbDictionary
281
     1
  0
ACDBDICTIONARYWDFLT
  5
E
102
{ACAD_REACTORS
330
C
102
}
330
C
100
AcDbDictionary
281
     1
  3
Normal
350
F
100
AcDbDictionaryWithDefault
340
F
  0
DICTIONARY
  5
63
102
{ACAD_REACTORS
330
C
102
}
330
C
100
AcDbDictionary
281
     1
  0
DICTIONARY
  5
2A
102
{ACAD_REACTORS
330
C
102
}
330
C
100
AcDbDictionary
281
     1
  3
2dWireframe
350
2F
  3
3D Hidden
350
31
  3
3dWireframe
350
30
  3
Basic
350
32
  3
Brighten
350
36
  3
ColorChange
350
3A
  3
Conceptual
350
34
  3
Dim
350
35
  3
Facepattern
350
39
  3
Flat
350
2B
  3
FlatWithEdges
350
2C
  3
Gouraud
350
2D
  3
GouraudWithEdges
350
2E
  3
Linepattern
350
38
  3
Realistic
350
33
  3
Thicken
350
37
  0
LAYOUT
  5
1E
102
{ACAD_REACTORS
330
1A
102
}
330
1A
100
AcDbPlotSettings
  1

  2
none_device
  4

  6

 40
0.0
 41
0.0
 42
0.0
 43
0.0
 44
0.0
 45
0.0
 46
0.0
 47
0.0
 48
0.0
 49
0.0
140
0.0
141
0.0
142
1.0
143
1.0
 70
   688
 72
     0
 73
     0
 74
     5
  7

 75
    16
 76
     0
 77
     2
 78
   300
147
1.0
148
0.0
149
0.0
100
AcDbLayout
  1
Layout1
 70
     1
 71
     1
 10
0.0
 20
0.0
 11
12.0
 21
9.0
 12
0.0
 22
0.0
 32
0.0
 14
1.000000000000000E+20
 24
1.000000000000000E+20
 34
1.000000000000000E+20
 15
-1.000000000000000E+20
 25
-1.000000000000000E+20
 35
-1.000000000000000E+20
146
0.0
 13
0.0
 23
0.0
 33
0.0
 16
1.0
 26
0.0
 36
0.0
 17
0.0
 27
1.0
 37
0.0
 76
     0
330
1B
  0
LAYOUT
  5
26
102
{ACAD_REACTORS
330
1A
102
}
330
1A
100
AcDbPlotSettings
  1

  2
none_device
  4

  6

 40
0.0
 41
0.0
 42
0.0
 43
0.0
 44
0.0
 45
0.0
 46
0.0
 47
0.0
 48
0.0
 49
0.0
140
0.0
141
0.0
142
1.0
143
1.0
 70
   688
 72
     0
 73
     0
 74
     5
  7

 75
    16
 76
     0
 77
     2
 78
   300
147
1.0
148
0.0
149
0.0
100
AcDbLayout
  1
Layout2
 70
     1
 71
     2
 10
0.0
 20
0.0
 11
0.0
 21
0.0
 12
0.0
 22
0.0
 32
0.0
 14
0.0
 24
0.0
 34
0.0
 15
0.0
 25
0.0
 35
0.0
146
0.0
 13
0.0
 23
0.0
 33
0.0
 16
1.0
 26
0.0
 36
0.0
 17
0.0
 27
1.0
 37
0.0
 76
     0
330
23
  0
LAYOUT
  5
22
102
{ACAD_REACTORS
330
1A
102
}
330
1A
100
AcDbPlotSettings
  1

  2
none_device
  4

  6

 40
0.0
 41
0.0
 42
0.0
 43
0.0
 44
0.0
 45
0.0
 46
0.0
 47
0.0
 48
0.0
 49
0.0
140
0.0
141
0.0
142
1.0
143
1.0
 70
  1712
 72
     0
 73
     0
 74
     0
  7

 75
     0
 76
     0
 77
     2
 78
   300
147
1.0
148
0.0
149
0.0
100
AcDbLayout
  1
Model
 70
     1
 71
     0
 10
0.0
 20
0.0
 11
12.0
 21
9.0
 12
0.0
 22
0.0
 32
0.0
 14
1.000000000000000E+20
 24
1.000000000000000E+20
 34
1.000000000000000E+20
 15
-1.000000000000000E+20
 25
-1.000000000000000E+20
 35
-1.000000000000000E+20
146
0.0
 13
0.0
 23
0.0
 33
0.0
 16
1.0
 26
0.0
 36
0.0
 17
0.0
 27
1.0
 37
0.0
 76
     0
330
1F
331
29
  0
MATERIAL
  5
3D
102
{ACAD_REACTORS
330
3B
102
}
330
3B
100
AcDbMaterial
  1
ByBlock
 72
     1
 94
      127
  0
MATERIAL
  5
3C
102
{ACAD_REACTORS
330
3B
102
}
330
3B
100
AcDbMaterial
  1
ByLayer
 72
     1
 94
      127
  0
MATERIAL
  5
3E
102
{ACAD_REACTORS
330
3B
102
}
330
3B
100
AcDbMaterial
  1
Global
 72
     1
 94
      127
  0
MLINESTYLE
  5
18
102
{ACAD_REACTORS
330
17
102
}
330
17
100
AcDbMlineStyle
  2
Standard
 70
     0
  3

 62
   256
 51
90.0
 52
90.0
 71
     2
 49
0.5
 62
   256
  6
BYLAYER
 49
-0.5
 62
   256
  6
BYLAYER
  0
ACDBPLACEHOLDER
  5
F
102
{ACAD_REACTORS
330
E
102
}
330
E
  0
VISUALSTYLE
  5
2F
102
{ACAD_REACTORS
330
2A
102
}
330
2A
100
AcDbVisualStyle
  2
2dWireframe
 70
     4
177
     2
291
     0
 71
     0
176
     1
 72
     2
176
     1
 73
     0
176
     1
 90
        0
176
     1
 40
-0.6
176
     1
 41
-30.0
176
     1
 62
     5
 63
     7
421
 16777215
176
     1
 74
     1
176
     1
 91
        4
176
     1
 64
     7
176
     1
 65
   257
176
     1
 75
     1
176
     1
175
     1
176
     1
 42
1.0
176
     1
 92
        0
176
     1
 66
   257
176
     1
 43
1.0
176
     1
 76
     1
176
     1
 77
     6
176
     1
 78
     2
176
     1
 67
     7
176
     1
 79
     5
176
     1
170
     0
176
     1
171
     0
176
     1
290
     0
176
     1
 93
        1
176
     1
 44
0.0
176
     1
173
     0
176
     1
  0
VISUALSTYLE
  5
31
102
{ACAD_REACTORS
330
2A
102
}
330
2A
100
AcDbVisualStyle
  2
3D Hidden
 70
     6
177
     2
291
     0
 71
     1
176
     1
 72
     2
176
     1
 73
     2
176
     1
 90
        0
176
     1
 40
-0.6
176
     1
 41
-30.0
176
     1
 62
     5
 63
     7
421
 16777215
176
     1
 74
     2
176
     1
 91
        2
176
     1
 64
     7
176
     1
 65
   257
176
     1
 75
     2
176
     1
175
     1
176
     1
 42
40.0
176
     1
 92
        0
176
     1
 66
   257
176
     1
 43
1.0
176
     1
 76
     1
176
     1
 77
     6
176
     1
 78
     2
176
     1
 67
     7
176
     1
 79
     3
176
     1
170
     0
176
     1
171
     0
176
     1
290
     0
176
     1
 93
        1
176
     1
 44
0.0
176
     1
173
     0
176
     1
  0
VISUALSTYLE
  5
30
102
{ACAD_REACTORS
330
2A
102
}
330
2A
100
AcDbVisualStyle
  2
3dWireframe
 70
     5
177
     2
291
     0
 71
     0
176
     1
 72
     2
176
     1
 73
     0
176
     1
 90
        0
176
     1
 40
-0.6
176
     1
 41
-30.0
176
     1
 62
     5
 63
     7
421
 16777215
176
     1
 74
     1
176
     1
 91
        4
176
     1
 64
     7
176
     1
 65
   257
176
     1
 75
     1
176
     1
175
     1
176
     1
 42
1.0
176
     1
 92
        0
176
     1
 66
   257
176
     1
 43
1.0
176
     1
 76
     1
176
     1
 77
     6
176
     1
 78
     2
176
     1
 67
     7
176
     1
 79
     5
176
     1
170
     0
176
     1
171
     0
176
     1
290
     0
176
     1
 93
        1
176
     1
 44
0.0
176
     1
173
     0
176
     1
  0
VISUALSTYLE
  5
32
102
{ACAD_REACTORS
330
2A
102
}
330
2A
100
AcDbVisualStyle
  2
Basic
 70
     7
177
     2
291
     1
 71
     1
176
     1
 72
     0
176
     1
 73
     1
176
     1
 90
        0
176
     1
 40
-0.6
176
     1
 41
-30.0
176
     1
 62
     5
 63
     7
421
 16777215
176
     1
 74
     0
176
     1
 91
        4
176
     1
 64
     7
176
     1
 65
   257
176
     1
 75
     1
176
     1
175
     1
176
     1
 42
1.0
176
     1
 92
        8
176
     1
 66
     7
176
     1
 43
1.0
176
     1
 76
     1
176
     1
 77
     6
176
     1
 78
     2
176
     1
 67
     7
176
     1
 79
     5
176
     1
170
     0
176
     1
171
     0
176
     1
290
     0
176
     1
 93
        1
176
     1
 44
0.0
176
     1
173
     0
176
     1
  0
VISUALSTYLE
  5
36
102
{ACAD_REACTORS
330
2A
102
}
330
2A
100
AcDbVisualStyle
  2
Brighten
 70
    12
177
     2
291
     1
 71
     2
176
     1
 72
     2
176
     1
 73
     0
176
     1
 90
        0
176
     1
 40
-0.6
176
     1
 41
-30.0
176
     1
 62
     5
 63
     7
421
 16777215
176
     1
 74
     1
176
     1
 91
        4
176
     1
 64
     7
176
     1
 65
   257
176
     1
 75
     1
176
     1
175
     1
176
     1
 42
1.0
176
     1
 92
        8
176
     1
 66
     7
176
     1
 43
1.0
176
     1
 76
     1
176
     1
 77
     6
176
     1
 78
     2
176
     1
 67
     7
176
     1
 79
     5
176
     1
170
     0
176
     1
171
     0
176
     1
290
     0
176
     1
 93
        1
176
     1
 44
50.0
176
     1
173
     0
176
     1
  0
VISUALSTYLE
  5
3A
102
{ACAD_REACTORS
330
2A
102
}
330
2A
100
AcDbVisualStyle
  2
ColorChange
 70
    16
177
     2
291
     1
 71
     2
176
     1
 72
     2
176
     1
 73
     3
176
     1
 90
        0
176
     1
 40
-0.6
176
     1
 41
-30.0
176
     1
 62
     5
 63
     8
421
  8421504
176
     1
 74
     1
176
     1
 91
        4
176
     1
 64
     7
176
     1
 65
   257
176
     1
 75
     1
176
     1
175
     1
176
     1
 42
1.0
176
     1
 92
        8
176
     1
 66
     8
424
  8421504
176
     1
 43
1.0
176
     1
 76
     1
176
     1
 77
     6
176
     1
 78
     2
176
     1
 67
     7
176
     1
 79
     5
176
     1
170
     0
176
     1
171
     0
176
     1
290
     0
176
     1
 93
        1
176
     1
 44
0.0
176
     1
173
     0
176
     1
  0
VISUALSTYLE
  5
34
102
{ACAD_REACTORS
330
2A
102
}
330
2A
100
AcDbVisualStyle
  2
Conceptual
 70
     9
177
     2
291
     0
 71
     3
176
     1
 72
     2
176
     1
 73
     0
176
     1
 90
        0
176
     1
 40
-0.6
176
     1
 41
-30.0
176
     1
 62
     5
 63
     7
421
 16777215
176
     1
 74
     2
176
     1
 91
        2
176
     1
 64
     7
176
     1
 65
   257
176
     1
 75
     1
176
     1
175
     1
176
     1
 42
40.0
176
     1
 92
        8
176
     1
 66
     7
176
     1
 43
1.0
176
     1
 76
     1
176
     1
 77
     6
176
     1
 78
     2
176
     1
 67
     7
176
     1
 79
     3
176
     1
170
     0
176
     1
171
     0
176
     1
290
     0
176
     1
 93
        1
176
     1
 44
0.0
176
     1
173
     0
176
     1
  0
VISUALSTYLE
  5
35
102
{ACAD_REACTORS
330
2A
102
}
330
2A
100
AcDbVisualStyle
  2
Dim
 70
    11
177
     2
291
     1
 71
     2
176
     1
 72
     2
176
     1
 73
     0
176
     1
 90
        0
176
     1
 40
-0.6
176
     1
 41
-30.0
176
     1
 62
     5
 63
     7
421
 16777215
176
     1
 74
     1
176
     1
 91
        4
176
     1
 64
     7
176
     1
 65
   257
176
     1
 75
     1
176
     1
175
     1
176
     1
 42
1.0
176
     1
 92
        8
176
     1
 66
     7
176
     1
 43
1.0
176
     1
 76
     1
176
     1
 77
     6
176
     1
 78
     2
176
     1
 67
     7
176
     1
 79
     5
176
     1
170
     0
176
     1
171
     0
176
     1
290
     0
176
     1
 93
        1
176
     1
 44
-50.0
176
     1
173
     0
176
     1
  0
VISUALSTYLE
  5
39
102
{ACAD_REACTORS
330
2A
102
}
330
2A
100
AcDbVisualStyle
  2
Facepattern
 70
    15
177
     2
291
     1
 71
     2
176
     1
 72
     2
176
     1
 73
     0
176
     1
 90
        0
176
     1
 40
-0.6
176
     1
 41
-30.0
176
     1
 62
     5
 63
     7
421
 16777215
176
     1
 74
     1
176
     1
 91
        4
176
     1
 64
     7
176
     1
 65
   257
176
     1
 75
     1
176
     1
175
     1
176
     1
 42
1.0
176
     1
 92
        8
176
     1
 66
     7
176
     1
 43
1.0
176
     1
 76
     1
176
     1
 77
     6
176
     1
 78
     2
176
     1
 67
     7
176
     1
 79
     5
176
     1
170
     0
176
     1
171
     0
176
     1
290
     0
176
     1
 93
        1
176
     1
 44
0.0
176
     1
173
     0
176
     1
  0
VISUALSTYLE
  5
2B
102
{ACAD_REACTORS
330
2A
102
}
330
2A
100
AcDbVisualStyle
  2
Flat
 70
     0
177
     2
291
     1
 71
     2
176
     1
 72
     1
176
     1
 73
     1
176
     1
 90
        2
176
     1
 40
-0.6
176
     1
 41
30.0
176
     1
 62
     5
 63
     7
421
 16777215
176
     1
 74
     0
176
     1
 91
        4
176
     1
 64
     7
176
     1
 65
   257
176
     1
 75
     1
176
     1
175
     1
176
     1
 42
1.0
176
     1
 92
        8
176
     1
 66
     7
176
     1
 43
1.0
176
     1
 76
     1
176
     1
 77
     6
176
     1
 78
     2
176
     1
 67
     7
176
     1
 79
     5
176
     1
170
     0
176
     1
171
     0
176
     1
290
     0
176
     1
 93
       13
176
     1
 44
0.0
176
     1
173
     0
176
     1
  0
VISUALSTYLE
  5
2C
102
{ACAD_REACTORS
330
2A
102
}
330
2A
100
AcDbVisualStyle
  2
FlatWithEdges
 70
     1
177
     2
291
     1
 71
     2
176
     1
 72
     1
176
     1
 73
     1
176
     1
 90
        2
176
     1
 40
-0.6
176
     1
 41
30.0
176
     1
 62
     5
 63
     7
421
 16777215
176
     1
 74
     1
176
     1
 91
        4
176
     1
 64
     7
176
     1
 65
   257
176
     1
 75
     1
176
     1
175
     1
176
     1
 42
1.0
176
     1
 92
        0
176
     1
 66
   257
176
     1
 43
1.0
176
     1
 76
     1
176
     1
 77
     6
176
     1
 78
     2
176
     1
 67
     7
176
     1
 79
     5
176
     1
170
     0
176
     1
171
     0
176
     1
290
     0
176
     1
 93
       13
176
     1
 44
0.0
176
     1
173
     0
176
     1
  0
VISUALSTYLE
  5
2D
102
{ACAD_REACTORS
330
2A
102
}
330
2A
100
AcDbVisualStyle
  2
Gouraud
 70
     2
177
     2
291
     1
 71
     2
176
     1
 72
     2
176
     1
 73
     1
176
     1
 90
        2
176
     1
 40
-0.6
176
     1
 41
30.0
176
     1
 62
     5
 63
     7
421
 16777215
176
     1
 74
     0
176
     1
 91
        4
176
     1
 64
     7
176
     1
 65
   257
176
     1
 75
     1
176
     1
175
     1
176
     1
 42
1.0
176
     1
 92
        0
176
     1
 66
     7
176
     1
 43
1.0
176
     1
 76
     1
176
     1
 77
     6
176
     1
 78
     2
176
     1
 67
     7
176
     1
 79
     5
176
     1
170
     0
176
     1
171
     0
176
     1
290
     0
176
     1
 93
       13
176
     1
 44
0.0
176
     1
173
     0
176
     1
  0
VISUALSTYLE
  5
2E
102
{ACAD_REACTORS
330
2A
102
}
330
2A
100
AcDbVisualStyle
  2
GouraudWithEdges
 70
     3
177
     2
291
     1
 71
     2
176
     1
 72
     2
176
     1
 73
     1
176
     1
 90
        2
176
     1
 40
-0.6
176
     1
 41
30.0
176
     1
 62
     5
 63
     7
421
 16777215
176
     1
 74
     1
176
     1
 91
        4
176
     1
 64
     7
176
     1
 65
   257
176
     1
 75
     1
176
     1
175
     1
176
     1
 42
1.0
176
     1
 92
        0
176
     1
 66
   257
176
     1
 43
1.0
176
     1
 76
     1
176
     1
 77
     6
176
     1
 78
     2
176
     1
 67
     7
176
     1
 79
     5
176
     1
170
     0
176
     1
171
     0
176
     1
290
     0
176
     1
 93
       13
176
     1
 44
0.0
176
     1
173
     0
176
     1
  0
VISUALSTYLE
  5
38
102
{ACAD_REACTORS
330
2A
102
}
330
2A
100
AcDbVisualStyle
  2
Linepattern
 70
    14
177
     2
291
     1
 71
     2
176
     1
 72
     2
176
     1
 73
     0
176
     1
 90
        0
176
     1
 40
-0.6
176
     1
 41
-30.0
176
     1
 62
     5
 63
     7
421
 16777215
176
     1
 74
     1
176
     1
 91
        4
176
     1
 64
     7
176
     1
 65
   257
176
     1
 75
     7
176
     1
175
     7
176
     1
 42
1.0
176
     1
 92
        8
176
     1
 66
     7
176
     1
 43
1.0
176
     1
 76
     1
176
     1
 77
     6
176
     1
 78
     2
176
     1
 67
     7
176
     1
 79
     5
176
     1
170
     0
176
     1
171
     0
176
     1
290
     0
176
     1
 93
        1
176
     1
 44
0.0
176
     1
173
     0
176
     1
  0
VISUALSTYLE
  5
33
102
{ACAD_REACTORS
330
2A
102
}
330
2A
100
AcDbVisualStyle
  2
Realistic
 70
     8
177
     2
291
     0
 71
     2
176
     1
 72
     2
176
     1
 73
     0
176
     1
 90
        0
176
     1
 40
-0.6
176
     1
 41
-30.0
176
     1
 62
     5
 63
     7
421
 16777215
176
     1
 74
     1
176
     1
 91
        0
176
     1
 64
     7
176
     1
 65
   257
176
     1
 75
     1
176
     1
175
     1
176
     1
 42
1.0
176
     1
 92
        8
176
     1
 66
     8
424
  7895160
176
     1
 43
1.0
176
     1
 76
     1
176
     1
 77
     6
176
     1
 78
     2
176
     1
 67
     7
176
     1
 79
     5
176
     1
170
     0
176
     1
171
     0
176
     1
290
     0
176
     1
 93
       13
176
     1
 44
0.0
176
     1
173
     0
176
     1
  0
VISUALSTYLE
  5
37
102
{ACAD_REACTORS
330
2A
102
}
330
2A
100
AcDbVisualStyle
  2
Thicken
 70
    13
177
     2
291
     1
 71
     2
176
     1
 72
     2
176
     1
 73
     0
176
     1
 90
        0
176
     1
 40
-0.6
176
     1
 41
-30.0
176
     1
 62
     5
 63
     7
421
 16777215
176
     1
 74
     1
176
     1
 91
        4
176
     1
 64
     7
176
     1
 65
   257
176
     1
 75
     1
176
     1
175
     1
176
     1
 42
1.0
176
     1
 92
       12
176
     1
 66
     7
176
     1
 43
1.0
176
     1
 76
     1
176
     1
 77
     6
176
     1
 78
     2
176
     1
 67
     7
176
     1
 79
     5
176
     1
170
     0
176
     1
171
     0
176
     1
290
     0
176
     1
 93
        1
176
     1
 44
0.0
176
     1
173
     0
176
     1
  0
ENDSEC
  0
EOF
