<?xml version="1.0" encoding="utf-8"?>
<!-- Generator: Adobe Illustrator 19.2.1, SVG Export Plug-In . SVG Version: 6.00 Build 0)  -->
<svg version="1.1" id="Layer_1" xmlns="http://www.w3.org/2000/svg" xmlns:xlink="http://www.w3.org/1999/xlink" x="0px" y="0px"
	 viewBox="0 0 100 125" style="enable-background:new 0 0 100 125;" xml:space="preserve">
<path d="M83.6,57.4c-0.1-0.3-0.3-0.5-0.5-0.6l-16.3-3.9l12.7-19.5c0,0,0,0,0,0l0,0c0-0.1,0.1-0.1,0.1-0.2c0,0,0,0,0-0.1
	c0-0.1,0-0.1,0-0.2c0,0,0,0,0-0.1c0-0.1,0-0.1-0.1-0.2c0,0,0,0,0,0c0,0,0,0,0,0c0,0,0,0,0,0c0-0.1-0.1-0.1-0.2-0.2c0,0,0,0-0.1,0
	c-0.1,0-0.1-0.1-0.2-0.1c0,0,0,0-0.1,0c-0.1,0-0.2,0-0.2,0c0,0,0,0,0,0c0,0,0,0,0,0c-3.9,0.7-8.6,1.6-13.5,2.5L69.5,21
	c0-0.1,0-0.1,0-0.2c0,0,0,0,0,0c0-0.1,0-0.1,0-0.2c0,0,0,0,0-0.1c0-0.1-0.1-0.1-0.1-0.2c0,0,0,0,0,0c0,0,0,0,0,0s0,0,0,0
	c-0.1-0.1-0.1-0.1-0.2-0.1c0,0,0,0-0.1,0c-0.1,0-0.1,0-0.2,0c0,0,0,0-0.1,0c-0.1,0-0.2,0-0.2,0l0,0c0,0,0,0,0,0L25.8,37.3l-2.9-1.2
	l2-19.8c0-0.1,0-0.1,0-0.2c0-0.1,0-0.3-0.1-0.4l-2.1-6.3C22.6,9.2,22.3,9,21.9,9l-7.2,0.8c0,0,0,0,0,0c0,0,0,0,0,0L8.1,11
	c-0.3,0.1-0.6,0.3-0.6,0.6c0,0.3,0.2,0.6,0.5,0.7l6.6,2.2c0,0,0,0,0,0c0,0,0,0,0,0l4,1l-4.5,17.6c0,0.1,0,0.2,0,0.4l5.6,20.8
	c0,0,0,0,0,0c0,0,0,0,0,0c0,0.1,0.1,0.2,0.1,0.2c0,0,0,0,0,0l15.5,19.7c0.1,0.2,0.3,0.3,0.6,0.3h16.5c0.2,0,0.5-0.1,0.6-0.3l1.9-3
	l3.9,3.1c0.1,0.1,0.3,0.2,0.4,0.2c0.1,0,0.3,0,0.4-0.1l23.7-16.2C83.5,58,83.7,57.7,83.6,57.4z M21.1,53.9l1-9.8
	c4.9-0.8,36.2-6.5,53.4-9.7L29.2,64.1L21.1,53.9z M54.1,36.8l13.2-13.4l-3.6,11.7C60.5,35.6,57.3,36.2,54.1,36.8z M65.9,22.7
	L51.6,37.3c-6.5,1.2-12.9,2.3-18.1,3.3l-5.9-2.4L65.9,22.7z M31,41c-4.2,0.8-7.3,1.3-8.8,1.6l0.5-5L31,41z M14.1,11.4v1.5l-3-1
	L14.1,11.4z M15.5,11.1l6-0.7l1.6,4.7l-3.4-0.8c0,0,0,0,0,0c0,0,0,0,0,0l-4.2-1V11.1z M20,15.8l3.4,0.8l-3.4,33.5l-4.5-16.9L20,15.8
	z M52,73H36.2l-6.1-7.8l46.4-29.9L52,73z M59.3,72.9L55.7,70l10.3-15.8l15.3,3.7L59.3,72.9z"/>
</svg>
