<?xml version="1.0" encoding="utf-8"?>
<!-- Generator: Adobe Illustrator 19.2.1, SVG Export Plug-In . SVG Version: 6.00 Build 0)  -->
<svg version="1.1" id="Layer_1" xmlns="http://www.w3.org/2000/svg" xmlns:xlink="http://www.w3.org/1999/xlink" x="0px" y="0px"
	 viewBox="0 0 100 125" style="enable-background:new 0 0 100 125;" xml:space="preserve">
<g>
	<g>
		<path d="M89.1,47.2l-9.3-10c-0.1-0.1-0.1-0.1-0.2-0.1l-10.1-4.1c0,0,0,0,0,0c0,0,0,0,0,0c0,0,0,0,0,0c0,0,0,0,0,0h0
			c-0.1-0.1-0.2-0.1-0.3,0c0,0,0,0,0,0l-4,1l-0.6-2.2c-0.1-0.2-0.3-0.4-0.5-0.4h-7.7l0.1-8.1c0-0.1,0-0.3-0.1-0.4l-6-6.1
			c-0.1-0.1-0.3-0.2-0.4-0.1c-0.2,0-0.3,0-0.4,0.1l-6,6.1c-0.1,0.1-0.1,0.2-0.1,0.4l0.1,8.1h-7.7c-0.2,0-0.4,0.2-0.5,0.4l-0.6,2.2
			l-4-1c0,0,0,0,0,0c0,0,0,0,0,0c0,0,0,0,0,0c-0.1,0-0.2,0-0.3,0c0,0,0,0,0,0c0,0,0,0,0,0l0,0c0,0,0,0,0,0L20.4,37
			c-0.1,0-0.1,0.1-0.2,0.1l-9.4,10.1c-0.2,0.2-0.2,0.5,0,0.7c0.1,0.1,0.2,0.2,0.3,0.2l0,0c0,0,0,0,0,0s0,0,0,0c0,0,0.1,0,0.1,0
			l16.5-4.1l5.7,4.7L36.8,64l-3.5,2.7c-0.1,0.1-0.1,0.2-0.2,0.3l-4.6,15.9c-0.1,0.2,0,0.5,0.3,0.6c0.1,0,0.1,0.1,0.2,0.1
			c0.1,0,0.2,0,0.3-0.1c0,0,0.1,0,0.1,0l12.1-7.9c0,0,0,0,0,0c0,0,0,0,0,0l2.8-2l5.2,5.1l0,0l0,0c0,0,0,0,0.1,0c0,0,0.1,0,0.1,0.1
			c0.1,0,0.1,0,0.2,0c0,0,0,0,0.1,0c0,0,0,0,0.1,0c0.1,0,0.3,0,0.3-0.1l5.2-5.1l2.8,2c0,0,0,0,0,0c0,0,0,0,0,0l12.1,7.9
			c0,0,0.1,0,0.1,0c0.1,0.1,0.2,0.1,0.3,0.1c0.1,0,0.1,0,0.2-0.1c0.2-0.1,0.3-0.4,0.3-0.6l-4.6-15.9c0-0.1-0.1-0.2-0.2-0.3L63.2,64
			l3.2-15.4l5.7-4.7l16.5,4.1c0,0,0.1,0,0.1,0c0,0,0,0,0,0c0,0,0,0,0,0c0.3,0,0.5-0.2,0.5-0.5C89.3,47.4,89.2,47.2,89.1,47.2z
			 M69.5,36.1l1.7,6.4l-2.3-0.9L69.5,36.1z M70.1,34.5l16.4,12l-14.1-3.5L70.1,34.5z M79.1,37.9l5.8,6.2l-12-8.8L79.1,37.9z
			 M66.5,43.4L61.7,66L50.4,77V32.3h13.3L66.5,43.4z M69,81.1l-9.7-6.3l1.4-5.3L69,81.1z M44.4,23.4l5.6-5.6l5.6,5.6l-0.1,7.9H44.6
			L44.4,23.4z M36.3,32.3h13.1v44.6L38.3,66l-4.8-22.7L36.3,32.3z M39.2,69.5l1.4,5.3L31,81.1L39.2,69.5z M27.6,42.9l-14.1,3.5
			l16.4-12L27.6,42.9z M30.5,36.1l0.5,5.5l-2.3,0.9L30.5,36.1z M20.9,37.9l6.2-2.5l-12,8.8L20.9,37.9z M29,43.5l2.8-1.1
			c0.2-0.1,0.3-0.3,0.3-0.5L31.3,34l3.3,0.9l-2.1,8.4c0,0.1,0,0.2,0,0.2l0.7,3.5L29,43.5z M34.1,67.3l3-2.3l0.3,1.3
			c0,0.1,0.1,0.2,0.1,0.3l1.5,1.5l-8.6,12.1L34.1,67.3z M41.5,74.1l-1.3-4.8l3.4,3.3L41.5,74.1z M59.8,69.3l-1.3,4.8l-2.1-1.5
			L59.8,69.3z M65.9,67.3l3.7,12.9L61,68.1l1.5-1.5c0.1-0.1,0.1-0.2,0.1-0.3L63,65L65.9,67.3z M67.5,43.2l-2.1-8.4l3.3-0.9l-0.8,7.9
			c0,0.2,0.1,0.4,0.3,0.5l2.8,1.1L66.7,47l0.7-3.6C67.5,43.4,67.5,43.3,67.5,43.2z"/>
	</g>
</g>
</svg>
