  0
SECTION
  2
HEADER
  9
$ACADVER
  1
AC1024
  9
$ACADMAINTVER
 70
     6
  9
$DWGCODEPAGE
  3
UNDEFINED
  9
$INSBASE
 10
0.0
 20
0.0
 30
0.0
  9
$EXTMIN
 10
1.000000000000000E+20
 20
1.000000000000000E+20
 30
1.000000000000000E+20
  9
$EXTMAX
 10
-1.000000000000000E+20
 20
-1.000000000000000E+20
 30
-1.000000000000000E+20
  9
$LIMMIN
 10
0.0
 20
0.0
  9
$LIMMAX
 10
12.0
 20
9.0
  9
$ORTHOMODE
 70
     0
  9
$REGENMODE
 70
     1
  9
$FILLMODE
 70
     1
  9
$QTEXTMODE
 70
     0
  9
$MIRRTEXT
 70
     1
  9
$LTSCALE
 40
1.0
  9
$ATTMODE
 70
     1
  9
$TEXTSIZE
 40
0.2
  9
$TRACEWID
 40
0.05
  9
$TEXTSTYLE
  7
Standard
  9
$CLAYER
  8
0
  9
$CELTYPE
  6
ByLayer
  9
$CECOLOR
 62
   256
  9
$CELTSCALE
 40
1.0
  9
$DISPSILH
 70
     0
  9
$DIMSCALE
 40
1.0
  9
$DIMASZ
 40
0.18
  9
$DIMEXO
 40
0.0625
  9
$DIMDLI
 40
0.38
  9
$DIMRND
 40
0.0
  9
$DIMDLE
 40
0.0
  9
$DIMEXE
 40
0.18
  9
$DIMTP
 40
0.0
  9
$DIMTM
 40
0.0
  9
$DIMTXT
 40
0.18
  9
$DIMCEN
 40
0.09
  9
$DIMTSZ
 40
0.0
  9
$DIMTOL
 70
     0
  9
$DIMLIM
 70
     0
  9
$DIMTIH
 70
     1
  9
$DIMTOH
 70
     1
  9
$DIMSE1
 70
     0
  9
$DIMSE2
 70
     0
  9
$DIMTAD
 70
     0
  9
$DIMZIN
 70
     0
  9
$DIMBLK
  1

  9
$DIMASO
 70
     1
  9
$DIMSHO
 70
     1
  9
$DIMPOST
  1

  9
$DIMAPOST
  1

  9
$DIMALT
 70
     0
  9
$DIMALTD
 70
     2
  9
$DIMALTF
 40
25.4
  9
$DIMLFAC
 40
1.0
  9
$DIMTOFL
 70
     0
  9
$DIMTVP
 40
0.0
  9
$DIMTIX
 70
     0
  9
$DIMSOXD
 70
     0
  9
$DIMSAH
 70
     0
  9
$DIMBLK1
  1

  9
$DIMBLK2
  1

  9
$DIMSTYLE
  2
Standard
  9
$DIMCLRD
 70
     0
  9
$DIMCLRE
 70
     0
  9
$DIMCLRT
 70
     0
  9
$DIMTFAC
 40
1.0
  9
$DIMGAP
 40
0.09
  9
$DIMJUST
 70
     0
  9
$DIMSD1
 70
     0
  9
$DIMSD2
 70
     0
  9
$DIMTOLJ
 70
     1
  9
$DIMTZIN
 70
     0
  9
$DIMALTZ
 70
     0
  9
$DIMALTTZ
 70
     0
  9
$DIMUPT
 70
     0
  9
$DIMDEC
 70
     4
  9
$DIMTDEC
 70
     4
  9
$DIMALTU
 70
     2
  9
$DIMALTTD
 70
     2
  9
$DIMTXSTY
  7
Standard
  9
$DIMAUNIT
 70
     0
  9
$DIMADEC
 70
     0
  9
$DIMALTRND
 40
0.0
  9
$DIMAZIN
 70
     0
  9
$DIMDSEP
 70
    46
  9
$DIMATFIT
 70
     3
  9
$DIMFRAC
 70
     0
  9
$DIMLDRBLK
  1

  9
$DIMLUNIT
 70
     2
  9
$DIMLWD
 70
    -2
  9
$DIMLWE
 70
    -2
  9
$DIMTMOVE
 70
     0
  9
$DIMFXL
 40
1.0
  9
$DIMFXLON
 70
     0
  9
$DIMJOGANG
 40
0.7853981633974483
  9
$DIMTFILL
 70
     0
  9
$DIMTFILLCLR
 70
     0
  9
$DIMARCSYM
 70
     0
  9
$DIMLTYPE
  6

  9
$DIMLTEX1
  6

  9
$DIMLTEX2
  6

  9
$DIMTXTDIRECTION
 70
     0
  9
$LUNITS
 70
     2
  9
$LUPREC
 70
     4
  9
$SKETCHINC
 40
0.1
  9
$FILLETRAD
 40
0.5
  9
$AUNITS
 70
     0
  9
$AUPREC
 70
     0
  9
$MENU
  1
.
  9
$ELEVATION
 40
0.0
  9
$PELEVATION
 40
0.0
  9
$THICKNESS
 40
0.0
  9
$LIMCHECK
 70
     0
  9
$CHAMFERA
 40
0.5
  9
$CHAMFERB
 40
0.5
  9
$CHAMFERC
 40
1.0
  9
$CHAMFERD
 40
0.0
  9
$SKPOLY
 70
     0
  9
$TDCREATE
 40
2457525.607523137
  9
$TDUCREATE
 40
2457525.815856481
  9
$TDUPDATE
 40
2457525.607523137
  9
$TDUUPDATE
 40
2457525.815856481
  9
$TDINDWG
 40
0.0000000116
  9
$TDUSRTIMER
 40
0.0000000116
  9
$USRTIMER
 70
     1
  9
$ANGBASE
 50
0.0
  9
$ANGDIR
 70
     0
  9
$PDMODE
 70
     0
  9
$PDSIZE
 40
0.0
  9
$PLINEWID
 40
0.0
  9
$SPLFRAME
 70
     0
  9
$SPLINETYPE
 70
     6
  9
$SPLINESEGS
 70
     8
  9
$HANDSEED
  5
A5
  9
$SURFTAB1
 70
     6
  9
$SURFTAB2
 70
     6
  9
$SURFTYPE
 70
     6
  9
$SURFU
 70
     6
  9
$SURFV
 70
     6
  9
$UCSBASE
  2

  9
$UCSNAME
  2

  9
$UCSORG
 10
0.0
 20
0.0
 30
0.0
  9
$UCSXDIR
 10
1.0
 20
0.0
 30
0.0
  9
$UCSYDIR
 10
0.0
 20
1.0
 30
0.0
  9
$UCSORTHOREF
  2

  9
$UCSORTHOVIEW
 70
     0
  9
$UCSORGTOP
 10
0.0
 20
0.0
 30
0.0
  9
$UCSORGBOTTOM
 10
0.0
 20
0.0
 30
0.0
  9
$UCSORGLEFT
 10
0.0
 20
0.0
 30
0.0
  9
$UCSORGRIGHT
 10
0.0
 20
0.0
 30
0.0
  9
$UCSORGFRONT
 10
0.0
 20
0.0
 30
0.0
  9
$UCSORGBACK
 10
0.0
 20
0.0
 30
0.0
  9
$PUCSBASE
  2

  9
$PUCSNAME
  2

  9
$PUCSORG
 10
0.0
 20
0.0
 30
0.0
  9
$PUCSXDIR
 10
1.0
 20
0.0
 30
0.0
  9
$PUCSYDIR
 10
0.0
 20
1.0
 30
0.0
  9
$PUCSORTHOREF
  2

  9
$PUCSORTHOVIEW
 70
     0
  9
$PUCSORGTOP
 10
0.0
 20
0.0
 30
0.0
  9
$PUCSORGBOTTOM
 10
0.0
 20
0.0
 30
0.0
  9
$PUCSORGLEFT
 10
0.0
 20
0.0
 30
0.0
  9
$PUCSORGRIGHT
 10
0.0
 20
0.0
 30
0.0
  9
$PUCSORGFRONT
 10
0.0
 20
0.0
 30
0.0
  9
$PUCSORGBACK
 10
0.0
 20
0.0
 30
0.0
  9
$USERI1
 70
     0
  9
$USERI2
 70
     0
  9
$USERI3
 70
     0
  9
$USERI4
 70
     0
  9
$USERI5
 70
     0
  9
$USERR1
 40
0.0
  9
$USERR2
 40
0.0
  9
$USERR3
 40
0.0
  9
$USERR4
 40
0.0
  9
$USERR5
 40
0.0
  9
$WORLDVIEW
 70
     1
  9
$SHADEDGE
 70
     3
  9
$SHADEDIF
 70
    70
  9
$TILEMODE
 70
     1
  9
$MAXACTVP
 70
    64
  9
$PINSBASE
 10
0.0
 20
0.0
 30
0.0
  9
$PLIMCHECK
 70
     0
  9
$PEXTMIN
 10
1.000000000000000E+20
 20
1.000000000000000E+20
 30
1.000000000000000E+20
  9
$PEXTMAX
 10
-1.000000000000000E+20
 20
-1.000000000000000E+20
 30
-1.000000000000000E+20
  9
$PLIMMIN
 10
0.0
 20
0.0
  9
$PLIMMAX
 10
12.0
 20
9.0
  9
$UNITMODE
 70
     0
  9
$VISRETAIN
 70
     1
  9
$PLINEGEN
 70
     0
  9
$PSLTSCALE
 70
     1
  9
$TREEDEPTH
 70
  3020
  9
$CMLSTYLE
  2
Standard
  9
$CMLJUST
 70
     0
  9
$CMLSCALE
 40
1.0
  9
$PROXYGRAPHICS
 70
     1
  9
$MEASUREMENT
 70
     0
  9
$CELWEIGHT
370
    -1
  9
$ENDCAPS
280
     0
  9
$JOINSTYLE
280
     0
  9
$LWDISPLAY
290
     1
  9
$INSUNITS
 70
     1
  9
$HYPERLINKBASE
  1

  9
$STYLESHEET
  1

  9
$XEDIT
290
     1
  9
$CEPSNTYPE
380
     0
  9
$PSTYLEMODE
290
     1
  9
$FINGERPRINTGUID
  2
{38A134EA-955D-287E-DD49-259A27E03C32}
  9
$VERSIONGUID
  2
{FAEB1C32-E019-11D5-929B-00C0DF256EC4}
  9
$EXTNAMES
290
     1
  9
$PSVPSCALE
 40
0.0
  9
$OLESTARTUP
290
     0
  9
$SORTENTS
280
   127
  9
$INDEXCTL
280
     0
  9
$HIDETEXT
280
     1
  9
$XCLIPFRAME
280
     2
  9
$HALOGAP
280
     0
  9
$OBSCOLOR
 70
   257
  9
$OBSLTYPE
280
     0
  9
$INTERSECTIONDISPLAY
280
     0
  9
$INTERSECTIONCOLOR
 70
   257
  9
$DIMASSOC
280
     2
  9
$PROJECTNAME
  1

  9
$CAMERADISPLAY
290
     0
  9
$LENSLENGTH
 40
50.0
  9
$CAMERAHEIGHT
 40
0.0
  9
$STEPSPERSEC
 40
2.0
  9
$STEPSIZE
 40
6.0
  9
$3DDWFPREC
 40
2.0
  9
$PSOLWIDTH
 40
0.25
  9
$PSOLHEIGHT
 40
4.0
  9
$LOFTANG1
 40
1.570796326794897
  9
$LOFTANG2
 40
1.570796326794897
  9
$LOFTMAG1
 40
0.0
  9
$LOFTMAG2
 40
0.0
  9
$LOFTPARAM
 70
     7
  9
$LOFTNORMALS
280
     1
  9
$LATITUDE
 40
37.795
  9
$LONGITUDE
 40
-122.394
  9
$NORTHDIRECTION
 40
0.0
  9
$TIMEZONE
 70
 -8000
  9
$LIGHTGLYPHDISPLAY
280
     1
  9
$TILEMODELIGHTSYNCH
280
     1
  9
$CMATERIAL
347
3C
  9
$SOLIDHIST
280
     1
  9
$SHOWHIST
280
     1
  9
$DWFFRAME
280
     2
  9
$DGNFRAME
280
     2
  9
$REALWORLDSCALE
290
     1
  9
$INTERFERECOLOR
 62
   256
  9
$CSHADOW
280
     0
  9
$SHADOWPLANELOCATION
 40
0.0
  0
ENDSEC
  0
SECTION
  2
CLASSES
  0
CLASS
  1
ACDBDICTIONARYWDFLT
  2
AcDbDictionaryWithDefault
  3
ObjectDBX Classes
 90
        0
 91
        4
280
     0
281
     0
  0
CLASS
  1
VISUALSTYLE
  2
AcDbVisualStyle
  3
ObjectDBX Classes
 90
     4095
 91
        4
280
     0
281
     0
  0
CLASS
  1
MATERIAL
  2
AcDbMaterial
  3
ObjectDBX Classes
 90
     1153
 91
        4
280
     0
281
     0
  0
CLASS
  1
SUN
  2
AcDbSun
  3
SCENEOE
 90
     1024
 91
        4
280
     0
281
     0
  0
ENDSEC
  0
SECTION
  2
TABLES
  0
TABLE
  2
VPORT
  5
8
330
0
100
AcDbSymbolTable
 70
     1
  0
VPORT
  5
29
330
8
100
AcDbSymbolTableRecord
100
AcDbViewportTableRecord
  2
*Active
 70
     0
 10
0.0
 20
0.0
 11
1.0
 21
1.0
 12
0.0
 22
0.0
 13
0.0
 23
0.0
 14
0.5
 24
0.5
 15
0.5
 25
0.5
 16
0.0
 26
0.0
 36
1.0
 17
50.0
 27
62.5
 37
0.0
 40
125.0
 41
0.8
 42
50.0
 43
0.0
 44
0.0
 50
0.0
 51
0.0
 71
     0
 72
   100
 73
     1
 74
     3
 75
     0
 76
     0
 77
     0
 78
     0
281
     0
 65
     1
110
0.0
120
0.0
130
0.0
111
1.0
121
0.0
131
0.0
112
0.0
122
1.0
132
0.0
 79
     0
146
0.0
 60
     3
 61
     5
292
     1
282
     1
141
0.0
142
0.0
 63
   250
361
3F
  0
ENDTAB
  0
TABLE
  2
LTYPE
  5
5
330
0
100
AcDbSymbolTable
 70
     1
  0
LTYPE
  5
14
330
5
100
AcDbSymbolTableRecord
100
AcDbLinetypeTableRecord
  2
ByBlock
 70
     0
  3

 72
    65
 73
     0
 40
0.0
  0
LTYPE
  5
15
330
5
100
AcDbSymbolTableRecord
100
AcDbLinetypeTableRecord
  2
ByLayer
 70
     0
  3

 72
    65
 73
     0
 40
0.0
  0
LTYPE
  5
16
330
5
100
AcDbSymbolTableRecord
100
AcDbLinetypeTableRecord
  2
Continuous
 70
     0
  3
Solid line
 72
    65
 73
     0
 40
0.0
  0
ENDTAB
  0
TABLE
  2
LAYER
  5
2
330
0
100
AcDbSymbolTable
 70
     2
  0
LAYER
  5
10
330
2
100
AcDbSymbolTableRecord
100
AcDbLayerTableRecord
  2
0
 70
     0
 62
     7
  6
Continuous
370
    -3
390
F
347
3E
  0
LAYER
  5
40
330
2
100
AcDbSymbolTableRecord
100
AcDbLayerTableRecord
  2
Layer 1
 70
     0
 62
     7
  6
Continuous
370
    -3
390
F
347
3E
  0
ENDTAB
  0
TABLE
  2
STYLE
  5
3
330
0
100
AcDbSymbolTable
 70
     1
  0
STYLE
  5
11
330
3
100
AcDbSymbolTableRecord
100
AcDbTextStyleTableRecord
  2
Standard
 70
     0
 40
0.0
 41
1.0
 50
0.0
 71
     0
 42
0.2
  3
txt
  4

  0
ENDTAB
  0
TABLE
  2
VIEW
  5
6
330
0
100
AcDbSymbolTable
 70
     0
  0
ENDTAB
  0
TABLE
  2
UCS
  5
7
330
0
100
AcDbSymbolTable
 70
     0
  0
ENDTAB
  0
TABLE
  2
APPID
  5
9
330
0
100
AcDbSymbolTable
 70
     1
  0
APPID
  5
12
330
9
100
AcDbSymbolTableRecord
100
AcDbRegAppTableRecord
  2
ACAD
 70
     0
  0
ENDTAB
  0
TABLE
  2
DIMSTYLE
  5
A
330
0
100
AcDbSymbolTable
 70
     1
100
AcDbDimStyleTable
  0
DIMSTYLE
105
27
330
A
100
AcDbSymbolTableRecord
100
AcDbDimStyleTableRecord
  2
Standard
 70
     0
178
     0
340
11
  0
ENDTAB
  0
TABLE
  2
BLOCK_RECORD
  5
1
330
0
100
AcDbSymbolTable
 70
     3
  0
BLOCK_RECORD
  5
1F
330
1
100
AcDbSymbolTableRecord
100
AcDbBlockTableRecord
  2
*Model_Space
340
22
 70
     0
280
     1
281
     0
  0
BLOCK_RECORD
  5
1B
330
1
100
AcDbSymbolTableRecord
100
AcDbBlockTableRecord
  2
*Paper_Space
340
1E
 70
     0
280
     1
281
     0
  0
BLOCK_RECORD
  5
23
330
1
100
AcDbSymbolTableRecord
100
AcDbBlockTableRecord
  2
*Paper_Space0
340
26
 70
     0
280
     1
281
     0
  0
BLOCK_RECORD
  5
41
330
1
100
AcDbSymbolTableRecord
100
AcDbBlockTableRecord
  2
block 2
340
0
102
{BLKREFS
331
42
102
}
 70
     0
280
     1
281
     0
  0
BLOCK_RECORD
  5
45
330
1
100
AcDbSymbolTableRecord
100
AcDbBlockTableRecord
  2
block 3
340
0
102
{BLKREFS
331
46
102
}
 70
     0
280
     1
281
     0
  0
ENDTAB
  0
ENDSEC
  0
SECTION
  2
BLOCKS
  0
BLOCK
  5
20
330
1F
100
AcDbEntity
  8
0
100
AcDbBlockBegin
  2
*Model_Space
 70
     0
 10
0.0
 20
0.0
 30
0.0
  3
*Model_Space
  1

  0
ENDBLK
  5
21
330
1F
100
AcDbEntity
  8
0
100
AcDbBlockEnd
  0
BLOCK
  5
1C
330
1B
100
AcDbEntity
 67
     1
  8
0
100
AcDbBlockBegin
  2
*Paper_Space
 70
     0
 10
0.0
 20
0.0
 30
0.0
  3
*Paper_Space
  1

  0
ENDBLK
  5
1D
330
1B
100
AcDbEntity
 67
     1
  8
0
100
AcDbBlockEnd
  0
BLOCK
  5
24
330
23
100
AcDbEntity
  8
0
100
AcDbBlockBegin
  2
*Paper_Space0
 70
     0
 10
0.0
 20
0.0
 30
0.0
  3
*Paper_Space0
  1

  0
ENDBLK
  5
25
330
23
100
AcDbEntity
  8
0
100
AcDbBlockEnd
  0
BLOCK
  5
43
330
41
100
AcDbEntity
  8
0
100
AcDbBlockBegin
  2
block 2
 70
     0
 10
0.0
 20
0.0
 30
0.0
  3
block 2
  1

  0
INSERT
  5
46
330
41
100
AcDbEntity
  8
Layer 1
100
AcDbBlockReference
  2
block 3
 10
0.0
 20
0.0
 30
0.0
  0
ENDBLK
  5
44
330
41
100
AcDbEntity
  8
0
100
AcDbBlockEnd
  0
BLOCK
  5
47
330
45
100
AcDbEntity
  8
0
100
AcDbBlockBegin
  2
block 3
 70
     0
 10
0.0
 20
0.0
 30
0.0
  3
block 3
  1

  0
SPLINE
  5
49
330
45
100
AcDbEntity
  8
Layer 1
370
     0
100
AcDbSpline
210
0.0
220
0.0
230
1.0
 70
    11
 71
     3
 72
   263
 73
   259
 74
     0
 42
0.0000000001
 43
0.0000000001
 12
1.0
 22
0.0
 32
0.0
 13
1.0
 23
0.0
 33
0.0
 40
0.0
 40
0.0
 40
0.0
 40
0.0
 40
1.0
 40
1.0
 40
1.0
 40
2.0
 40
2.0
 40
2.0
 40
3.0
 40
3.0
 40
3.0
 40
4.0
 40
4.0
 40
4.0
 40
5.0
 40
5.0
 40
5.0
 40
6.0
 40
6.0
 40
6.0
 40
7.0
 40
7.0
 40
7.0
 40
8.0
 40
8.0
 40
8.0
 40
9.0
 40
9.0
 40
9.0
 40
10.0
 40
10.0
 40
10.0
 40
11.0
 40
11.0
 40
11.0
 40
12.0
 40
12.0
 40
12.0
 40
13.0
 40
13.0
 40
13.0
 40
14.0
 40
14.0
 40
14.0
 40
15.0
 40
15.0
 40
15.0
 40
16.0
 40
16.0
 40
16.0
 40
17.0
 40
17.0
 40
17.0
 40
18.0
 40
18.0
 40
18.0
 40
19.0
 40
19.0
 40
19.0
 40
20.0
 40
20.0
 40
20.0
 40
21.0
 40
21.0
 40
21.0
 40
22.0
 40
22.0
 40
22.0
 40
23.0
 40
23.0
 40
23.0
 40
24.0
 40
24.0
 40
24.0
 40
25.0
 40
25.0
 40
25.0
 40
26.0
 40
26.0
 40
26.0
 40
27.0
 40
27.0
 40
27.0
 40
28.0
 40
28.0
 40
28.0
 40
29.0
 40
29.0
 40
29.0
 40
30.0
 40
30.0
 40
30.0
 40
31.0
 40
31.0
 40
31.0
 40
32.0
 40
32.0
 40
32.0
 40
33.0
 40
33.0
 40
33.0
 40
34.0
 40
34.0
 40
34.0
 40
35.0
 40
35.0
 40
35.0
 40
36.0
 40
36.0
 40
36.0
 40
37.0
 40
37.0
 40
37.0
 40
38.0
 40
38.0
 40
38.0
 40
39.0
 40
39.0
 40
39.0
 40
40.0
 40
40.0
 40
40.0
 40
41.0
 40
41.0
 40
41.0
 40
42.0
 40
42.0
 40
42.0
 40
43.0
 40
43.0
 40
43.0
 40
44.0
 40
44.0
 40
44.0
 40
45.0
 40
45.0
 40
45.0
 40
46.0
 40
46.0
 40
46.0
 40
47.0
 40
47.0
 40
47.0
 40
48.0
 40
48.0
 40
48.0
 40
49.0
 40
49.0
 40
49.0
 40
50.0
 40
50.0
 40
50.0
 40
51.0
 40
51.0
 40
51.0
 40
52.0
 40
52.0
 40
52.0
 40
53.0
 40
53.0
 40
53.0
 40
54.0
 40
54.0
 40
54.0
 40
55.0
 40
55.0
 40
55.0
 40
56.0
 40
56.0
 40
56.0
 40
57.0
 40
57.0
 40
57.0
 40
58.0
 40
58.0
 40
58.0
 40
59.0
 40
59.0
 40
59.0
 40
60.0
 40
60.0
 40
60.0
 40
61.0
 40
61.0
 40
61.0
 40
62.0
 40
62.0
 40
62.0
 40
63.0
 40
63.0
 40
63.0
 40
64.0
 40
64.0
 40
64.0
 40
65.0
 40
65.0
 40
65.0
 40
66.0
 40
66.0
 40
66.0
 40
67.0
 40
67.0
 40
67.0
 40
68.0
 40
68.0
 40
68.0
 40
69.0
 40
69.0
 40
69.0
 40
70.0
 40
70.0
 40
70.0
 40
71.0
 40
71.0
 40
71.0
 40
72.0
 40
72.0
 40
72.0
 40
73.0
 40
73.0
 40
73.0
 40
74.0
 40
74.0
 40
74.0
 40
75.0
 40
75.0
 40
75.0
 40
76.0
 40
76.0
 40
76.0
 40
77.0
 40
77.0
 40
77.0
 40
78.0
 40
78.0
 40
78.0
 40
79.0
 40
79.0
 40
79.0
 40
80.0
 40
80.0
 40
80.0
 40
81.0
 40
81.0
 40
81.0
 40
82.0
 40
82.0
 40
82.0
 40
83.0
 40
83.0
 40
83.0
 40
84.0
 40
84.0
 40
84.0
 40
85.0
 40
85.0
 40
85.0
 40
86.0
 40
86.0
 40
86.0
 40
86.0
 10
89.08200073242188
 20
77.8499984741211
 30
0.0
 10
89.08200073242188
 20
77.8499984741211
 30
0.0
 10
79.8030014038086
 20
87.87199783325195
 30
0.0
 10
79.8030014038086
 20
87.87199783325195
 30
0.0
 10
79.75299835205078
 20
87.92599868774414
 30
0.0
 10
79.69300079345703
 20
87.96799850463867
 30
0.0
 10
79.6240005493164
 20
87.99499893188477
 30
0.0
 10
79.6240005493164
 20
87.99499893188477
 30
0.0
 10
69.52300262451172
 20
92.11000061035156
 30
0.0
 10
69.52300262451172
 20
92.11000061035156
 30
0.0
 10
69.52000427246094
 20
92.11100006103516
 30
0.0
 10
69.51700592041016
 20
92.11000061035156
 30
0.0
 10
69.51399993896484
 20
92.11199951171875
 30
0.0
 10
69.51300048828125
 20
92.11199951171875
 30
0.0
 10
69.51300048828125
 20
92.11299896240234
 30
0.0
 10
69.51200103759766
 20
92.11399841308594
 30
0.0
 10
69.51200103759766
 20
92.11399841308594
 30
0.0
 10
69.51200103759766
 20
92.11399841308594
 30
0.0
 10
69.51100158691406
 20
92.11399841308594
 30
0.0
 10
69.49500274658203
 20
92.12399673461914
 30
0.0
 10
69.47900390625
 20
92.13399887084961
 30
0.0
 10
69.46199798583984
 20
92.14199829101562
 30
0.0
 10
69.46199798583984
 20
92.14199829101562
 30
0.0
 10
69.46099853515625
 20
92.14199829101562
 30
0.0
 10
69.46099853515625
 20
92.14199829101562
 30
0.0
 10
69.35800170898438
 20
92.19299697875977
 30
0.0
 10
69.23600006103516
 20
92.20999908447266
 30
0.0
 10
69.11499786376953
 20
92.17699813842773
 30
0.0
 10
69.11399841308594
 20
92.17699813842773
 30
0.0
 10
69.11399841308594
 20
92.17699813842773
 30
0.0
 10
69.11299896240234
 20
92.17699813842773
 30
0.0
 10
69.11299896240234
 20
92.17699813842773
 30
0.0
 10
65.13999938964844
 20
91.13199996948242
 30
0.0
 10
65.13999938964844
 20
91.13199996948242
 30
0.0
 10
65.13999938964844
 20
91.13199996948242
 30
0.0
 10
64.58300018310547
 20
93.35799980163574
 30
0.0
 10
64.58300018310547
 20
93.35799980163574
 30
0.0
 10
64.5270004272461
 20
93.58099937438965
 30
0.0
 10
64.3270034790039
 20
93.73699951171875
 30
0.0
 10
64.0979995727539
 20
93.73699951171875
 30
0.0
 10
64.0979995727539
 20
93.73699951171875
 30
0.0
 10
56.41999816894531
 20
93.73699951171875
 30
0.0
 10
56.41999816894531
 20
93.73699951171875
 30
0.0
 10
56.41999816894531
 20
93.73699951171875
 30
0.0
 10
56.55499649047852
 20
101.8320007324219
 30
0.0
 10
56.55499649047852
 20
101.8320007324219
 30
0.0
 10
56.5569953918457
 20
101.9660015106201
 30
0.0
 10
56.50499725341797
 20
102.0960006713867
 30
0.0
 10
56.41099548339844
 20
102.1909999847412
 30
0.0
 10
56.41099548339844
 20
102.1909999847412
 30
0.0
 10
50.42599487304688
 20
108.2700004577637
 30
0.0
 10
50.42599487304688
 20
108.2700004577637
 30
0.0
 10
50.31099319458008
 20
108.3880004882812
 30
0.0
 10
50.15199661254883
 20
108.4280014038086
 30
0.0
 10
49.99899673461914
 20
108.4060001373291
 30
0.0
 10
49.84799575805664
 20
108.42799949646
 30
0.0
 10
49.68799591064453
 20
108.3880004882812
 30
0.0
 10
49.57199859619141
 20
108.2700004577637
 30
0.0
 10
49.57199859619141
 20
108.2700004577637
 30
0.0
 10
43.58699798583984
 20
102.1909999847412
 30
0.0
 10
43.58699798583984
 20
102.1909999847412
 30
0.0
 10
43.49299621582031
 20
102.0960006713867
 30
0.0
 10
43.44099807739258
 20
101.9659996032715
 30
0.0
 10
43.44299697875977
 20
101.8320007324219
 30
0.0
 10
43.44299697875977
 20
101.8320007324219
 30
0.0
 10
43.57599639892578
 20
93.73699951171875
 30
0.0
 10
43.57599639892578
 20
93.73699951171875
 30
0.0
 10
43.57599639892578
 20
93.73699951171875
 30
0.0
 10
35.89999771118164
 20
93.73699951171875
 30
0.0
 10
35.89999771118164
 20
93.73699951171875
 30
0.0
 10
35.67099761962891
 20
93.73699951171875
 30
0.0
 10
35.46999740600586
 20
93.58099937438965
 30
0.0
 10
35.41499710083008
 20
93.35799980163574
 30
0.0
 10
35.41499710083008
 20
93.35799980163574
 30
0.0
 10
34.85799789428711
 20
91.13100051879883
 30
0.0
 10
34.85799789428711
 20
91.13100051879883
 30
0.0
 10
34.85799789428711
 20
91.13100051879883
 30
0.0
 10
30.88299751281738
 20
92.177001953125
 30
0.0
 10
30.88299751281738
 20
92.177001953125
 30
0.0
 10
30.87999725341797
 20
92.1780014038086
 30
0.0
 10
30.87699699401855
 20
92.1780014038086
 30
0.0
 10
30.87399673461914
 20
92.17900085449219
 30
0.0
 10
30.87299728393555
 20
92.17900085449219
 30
0.0
 10
30.87299728393555
 20
92.17900085449219
 30
0.0
 10
30.87199592590332
 20
92.17900085449219
 30
0.0
 10
30.87199592590332
 20
92.17900085449219
 30
0.0
 10
30.87199592590332
 20
92.17900085449219
 30
0.0
 10
30.87099647521973
 20
92.17900085449219
 30
0.0
 10
30.75399589538574
 20
92.20800018310547
 30
0.0
 10
30.63299560546875
 20
92.19100189208984
 30
0.0
 10
30.53199577331543
 20
92.13999938964844
 30
0.0
 10
30.53199577331543
 20
92.13999938964844
 30
0.0
 10
30.53199577331543
 20
92.13999938964844
 30
0.0
 10
30.53099632263184
 20
92.13999938964844
 30
0.0
 10
30.51399612426758
 20
92.13199996948242
 30
0.0
 10
30.49899673461914
 20
92.12199783325195
 30
0.0
 10
30.48299598693848
 20
92.11199951171875
 30
0.0
 10
30.48299598693848
 20
92.11199951171875
 30
0.0
 10
30.48199653625488
 20
92.11100006103516
 30
0.0
 10
30.48199653625488
 20
92.11100006103516
 30
0.0
 10
30.47899627685547
 20
92.11000061035156
 30
0.0
 10
30.47599601745605
 20
92.11000061035156
 30
0.0
 10
30.47299575805664
 20
92.10900115966797
 30
0.0
 10
30.47299575805664
 20
92.10900115966797
 30
0.0
 10
20.37299537658691
 20
87.99400329589844
 30
0.0
 10
20.37299537658691
 20
87.99400329589844
 30
0.0
 10
20.30499458312988
 20
87.96700286865234
 30
0.0
 10
20.24399566650391
 20
87.92500305175781
 30
0.0
 10
20.19399452209473
 20
87.87100219726562
 30
0.0
 10
20.19399452209473
 20
87.87100219726562
 30
0.0
 10
10.83999443054199
 20
77.77100372314453
 30
0.0
 10
10.83999443054199
 20
77.77100372314453
 30
0.0
 10
10.66499423980713
 20
77.58200454711914
 30
0.0
 10
10.66199398040771
 20
77.2910041809082
 30
0.0
 10
10.83399486541748
 20
77.09900283813477
 30
0.0
 10
10.92499446868896
 20
76.99600219726562
 30
0.0
 10
11.05099487304688
 20
76.94500350952148
 30
0.0
 10
11.17899513244629
 20
76.93700408935547
 30
0.0
 10
11.17899513244629
 20
76.93700408935547
 30
0.0
 10
11.17899513244629
 20
76.93700408935547
 30
0.0
 10
11.17899513244629
 20
76.93700408935547
 30
0.0
 10
11.18899536132812
 20
76.93700408935547
 30
0.0
 10
11.19799518585205
 20
76.93100357055664
 30
0.0
 10
11.20699501037598
 20
76.93100357055664
 30
0.0
 10
11.2159948348999
 20
76.93100357055664
 30
0.0
 10
11.22399520874023
 20
76.93900299072266
 30
0.0
 10
11.23199462890625
 20
76.93900299072266
 30
0.0
 10
11.27999496459961
 20
76.93700408935547
 30
0.0
 10
11.32799434661865
 20
76.93400192260742
 30
0.0
 10
11.37699508666992
 20
76.94600296020508
 30
0.0
 10
11.37699508666992
 20
76.94600296020508
 30
0.0
 10
27.91899490356445
 20
81.09200286865234
 30
0.0
 10
27.91899490356445
 20
81.09200286865234
 30
0.0
 10
27.91899490356445
 20
81.09200286865234
 30
0.0
 10
33.58499526977539
 20
76.4160041809082
 30
0.0
 10
33.58499526977539
 20
76.4160041809082
 30
0.0
 10
33.58499526977539
 20
76.4160041809082
 30
0.0
 10
36.81699371337891
 20
61.04300308227539
 30
0.0
 10
36.81699371337891
 20
61.04300308227539
 30
0.0
 10
36.81699371337891
 20
61.04300308227539
 30
0.0
 10
33.34699249267578
 20
58.375
 30
0.0
 10
33.34699249267578
 20
58.375
 30
0.0
 10
33.26199340820312
 20
58.30999755859375
 30
0.0
 10
33.20099258422852
 20
58.21900177001953
 30
0.0
 10
33.17099380493164
 20
58.11699676513672
 30
0.0
 10
33.17099380493164
 20
58.11699676513672
 30
0.0
 10
28.58899307250977
 20
42.21799468994141
 30
0.0
 10
28.58899307250977
 20
42.21799468994141
 30
0.0
 10
28.52199363708496
 20
41.98399353027344
 30
0.0
 10
28.63299369812012
 20
41.73499298095703
 30
0.0
 10
28.85299301147461
 20
41.62899780273438
 30
0.0
 10
28.92199325561523
 20
41.59500122070312
 30
0.0
 10
28.99699211120605
 20
41.57899475097656
 30
0.0
 10
29.06999206542969
 20
41.57899475097656
 30
0.0
 10
29.17399215698242
 20
41.57899475097656
 30
0.0
 10
29.26799201965332
 20
41.62099456787109
 30
0.0
 10
29.35299301147461
 20
41.68199157714844
 30
0.0
 10
29.3809928894043
 20
41.69399261474609
 30
0.0
 10
29.4119930267334
 20
41.68999481201172
 30
0.0
 10
29.43799209594727
 20
41.70699310302734
 30
0.0
 10
29.43799209594727
 20
41.70699310302734
 30
0.0
 10
41.50099182128906
 20
49.60999298095703
 30
0.0
 10
41.50099182128906
 20
49.60999298095703
 30
0.0
 10
41.5049934387207
 20
49.61199188232422
 30
0.0
 10
41.50699234008789
 20
49.61699676513672
 30
0.0
 10
41.51099014282227
 20
49.6199951171875
 30
0.0
 10
41.51298904418945
 20
49.62099456787109
 30
0.0
 10
41.51699066162109
 20
49.62099456787109
 30
0.0
 10
41.51898956298828
 20
49.62199401855469
 30
0.0
 10
41.51898956298828
 20
49.62199401855469
 30
0.0
 10
44.35799026489258
 20
51.66199493408203
 30
0.0
 10
44.35799026489258
 20
51.66199493408203
 30
0.0
 10
44.35799026489258
 20
51.66199493408203
 30
0.0
 10
49.57199096679688
 20
46.58799743652344
 30
0.0
 10
49.57199096679688
 20
46.58799743652344
 30
0.0
 10
49.57199096679688
 20
46.58799743652344
 30
0.0
 10
49.57199096679688
 20
46.58799743652344
 30
0.0
 10
49.57199096679688
 20
46.58799743652344
 30
0.0
 10
49.57199096679688
 20
46.58799743652344
 30
0.0
 10
49.57699203491211
 20
46.58399963378906
 30
0.0
 10
49.57699203491211
 20
46.58399963378906
 30
0.0
 10
49.59499359130859
 20
46.56600189208984
 30
0.0
 10
49.61799240112305
 20
46.55899810791016
 30
0.0
 10
49.63799285888672
 20
46.54399871826172
 30
0.0
 10
49.66899108886719
 20
46.52099609375
 30
0.0
 10
49.69999313354492
 20
46.4949951171875
 30
0.0
 10
49.73599243164062
 20
46.47999572753906
 30
0.0
 10
49.79799270629883
 20
46.45499420166016
 30
0.0
 10
49.86199188232422
 20
46.44199371337891
 30
0.0
 10
49.92599105834961
 20
46.44199371337891
 30
0.0
 10
49.94898986816406
 20
46.44199371337891
 30
0.0
 10
49.97299194335938
 20
46.45299530029297
 30
0.0
 10
49.99599075317383
 20
46.45599365234375
 30
0.0
 10
50.01898956298828
 20
46.45299530029297
 30
0.0
 10
50.04299163818359
 20
46.44199371337891
 30
0.0
 10
50.06599044799805
 20
46.44199371337891
 30
0.0
 10
50.19198989868164
 20
46.44199371337891
 30
0.0
 10
50.31798934936523
 20
46.48899078369141
 30
0.0
 10
50.41498947143555
 20
46.58399200439453
 30
0.0
 10
50.41498947143555
 20
46.58399200439453
 30
0.0
 10
55.63398742675781
 20
51.66199493408203
 30
0.0
 10
55.63398742675781
 20
51.66199493408203
 30
0.0
 10
55.63398742675781
 20
51.66199493408203
 30
0.0
 10
58.47098541259766
 20
49.62299346923828
 30
0.0
 10
58.47098541259766
 20
49.62299346923828
 30
0.0
 10
58.47298431396484
 20
49.62199401855469
 30
0.0
 10
58.47698593139648
 20
49.62199401855469
 30
0.0
 10
58.47898483276367
 20
49.62099456787109
 30
0.0
 10
58.48298645019531
 20
49.61799621582031
 30
0.0
 10
58.4849853515625
 20
49.61399078369141
 30
0.0
 10
58.48898315429688
 20
49.61099243164062
 30
0.0
 10
58.48898315429688
 20
49.61099243164062
 30
0.0
 10
70.55198669433594
 20
41.70799255371094
 30
0.0
 10
70.55198669433594
 20
41.70799255371094
 30
0.0
 10
70.57898712158203
 20
41.68999481201172
 30
0.0
 10
70.6109848022461
 20
41.69399261474609
 30
0.0
 10
70.63998413085938
 20
41.68199157714844
 30
0.0
 10
70.72498321533203
 20
41.62199401855469
 30
0.0
 10
70.81998443603516
 20
41.57999420166016
 30
0.0
 10
70.92198181152344
 20
41.57999420166016
 30
0.0
 10
70.99497985839844
 20
41.57999420166016
 30
0.0
 10
71.06898498535156
 20
41.59599304199219
 30
0.0
 10
71.13998413085938
 20
41.62999725341797
 30
0.0
 10
71.3589859008789
 20
41.73600006103516
 30
0.0
 10
71.46998596191406
 20
41.98399353027344
 30
0.0
 10
71.40298461914062
 20
42.218994140625
 30
0.0
 10
71.40298461914062
 20
42.218994140625
 30
0.0
 10
66.81898498535156
 20
58.11799621582031
 30
0.0
 10
66.81898498535156
 20
58.11799621582031
 30
0.0
 10
66.78998565673828
 20
58.21999359130859
 30
0.0
 10
66.72798156738281
 20
58.30999755859375
 30
0.0
 10
66.64298248291016
 20
58.37599945068359
 30
0.0
 10
66.64298248291016
 20
58.37599945068359
 30
0.0
 10
63.17498397827148
 20
61.04399871826172
 30
0.0
 10
63.17498397827148
 20
61.04399871826172
 30
0.0
 10
63.17498397827148
 20
61.04399871826172
 30
0.0
 10
66.4059829711914
 20
76.41500091552734
 30
0.0
 10
66.4059829711914
 20
76.41500091552734
 30
0.0
 10
66.4059829711914
 20
76.41500091552734
 30
0.0
 10
72.07298278808594
 20
81.09300231933594
 30
0.0
 10
72.07298278808594
 20
81.09300231933594
 30
0.0
 10
72.07298278808594
 20
81.09300231933594
 30
0.0
 10
88.61498260498047
 20
76.94700241088867
 30
0.0
 10
88.61498260498047
 20
76.94700241088867
 30
0.0
 10
88.66297912597656
 20
76.93500137329102
 30
0.0
 10
88.71098327636719
 20
76.93800354003906
 30
0.0
 10
88.75798034667969
 20
76.94000244140625
 30
0.0
 10
88.76698303222656
 20
76.94000244140625
 30
0.0
 10
88.77497863769531
 20
76.93200302124023
 30
0.0
 10
88.7829818725586
 20
76.93200302124023
 30
0.0
 10
88.78998565673828
 20
76.93200302124023
 30
0.0
 10
88.79798126220703
 20
76.93100357055664
 30
0.0
 10
88.802978515625
 20
76.93200302124023
 30
0.0
 10
89.0789794921875
 20
76.93200302124023
 30
0.0
 10
89.302978515625
 20
77.15600204467773
 30
0.0
 10
89.302978515625
 20
77.43200302124023
 30
0.0
 10
89.30799865722656
 20
77.60599899291992
 30
0.0
 10
89.21900177001953
 20
77.7599983215332
 30
0.0
 10
89.08200073242188
 20
77.8499984741211
 30
0.0
  0
POLYLINE
  5
4A
330
45
100
AcDbEntity
  8
Layer 1
370
     0
100
AcDb2dPolyline
 66
     1
 10
0.0
 20
0.0
 30
0.0
  0
VERTEX
  5
4B
330
4A
100
AcDbEntity
  8
Layer 1
370
     0
100
AcDbVertex
100
AcDb2dVertex
 10
69.4739990234375
 20
88.91500091552734
 30
0.0
  0
VERTEX
  5
4C
330
4A
100
AcDbEntity
  8
Layer 1
370
     0
100
AcDbVertex
100
AcDb2dVertex
 10
71.21299743652344
 20
82.47100067138672
 30
0.0
  0
VERTEX
  5
4D
330
4A
100
AcDbEntity
  8
Layer 1
370
     0
100
AcDbVertex
100
AcDb2dVertex
 10
68.93499755859375
 20
83.36999893188477
 30
0.0
  0
VERTEX
  5
4E
330
4A
100
AcDbEntity
  8
Layer 1
370
     0
100
AcDbVertex
100
AcDb2dVertex
 10
69.4739990234375
 20
88.91500091552734
 30
0.0
  0
SEQEND
  5
4F
330
4A
100
AcDbEntity
  8
Layer 1
370
     0
  0
POLYLINE
  5
50
330
45
100
AcDbEntity
  8
Layer 1
370
     0
100
AcDb2dPolyline
 66
     1
 10
0.0
 20
0.0
 30
0.0
  0
VERTEX
  5
51
330
50
100
AcDbEntity
  8
Layer 1
370
     0
100
AcDbVertex
100
AcDb2dVertex
 10
70.08799743652344
 20
90.47800064086914
 30
0.0
  0
VERTEX
  5
52
330
50
100
AcDbEntity
  8
Layer 1
370
     0
100
AcDbVertex
100
AcDb2dVertex
 10
86.4489974975586
 20
78.52099990844727
 30
0.0
  0
VERTEX
  5
53
330
50
100
AcDbEntity
  8
Layer 1
370
     0
100
AcDbVertex
100
AcDb2dVertex
 10
72.36100006103516
 20
82.0530014038086
 30
0.0
  0
VERTEX
  5
54
330
50
100
AcDbEntity
  8
Layer 1
370
     0
100
AcDbVertex
100
AcDb2dVertex
 10
70.08799743652344
 20
90.47800064086914
 30
0.0
  0
SEQEND
  5
55
330
50
100
AcDbEntity
  8
Layer 1
370
     0
  0
POLYLINE
  5
56
330
45
100
AcDbEntity
  8
Layer 1
370
     0
100
AcDb2dPolyline
 66
     1
 10
0.0
 20
0.0
 30
0.0
  0
VERTEX
  5
57
330
56
100
AcDbEntity
  8
Layer 1
370
     0
100
AcDbVertex
100
AcDb2dVertex
 10
79.1449966430664
 20
87.11000061035156
 30
0.0
  0
VERTEX
  5
58
330
56
100
AcDbEntity
  8
Layer 1
370
     0
100
AcDbVertex
100
AcDb2dVertex
 10
84.90799713134766
 20
80.88600158691406
 30
0.0
  0
VERTEX
  5
59
330
56
100
AcDbEntity
  8
Layer 1
370
     0
100
AcDbVertex
100
AcDb2dVertex
 10
72.9209976196289
 20
89.64600372314453
 30
0.0
  0
VERTEX
  5
5A
330
56
100
AcDbEntity
  8
Layer 1
370
     0
100
AcDbVertex
100
AcDb2dVertex
 10
79.1449966430664
 20
87.11000061035156
 30
0.0
  0
SEQEND
  5
5B
330
56
100
AcDbEntity
  8
Layer 1
370
     0
  0
POLYLINE
  5
5C
330
45
100
AcDbEntity
  8
Layer 1
370
     0
100
AcDb2dPolyline
 66
     1
 10
0.0
 20
0.0
 30
0.0
  0
VERTEX
  5
5D
330
5C
100
AcDbEntity
  8
Layer 1
370
     0
100
AcDbVertex
100
AcDb2dVertex
 10
66.48500061035156
 20
81.63000106811523
 30
0.0
  0
VERTEX
  5
5E
330
5C
100
AcDbEntity
  8
Layer 1
370
     0
100
AcDbVertex
100
AcDb2dVertex
 10
61.72299957275391
 20
58.98000335693359
 30
0.0
  0
VERTEX
  5
5F
330
5C
100
AcDbEntity
  8
Layer 1
370
     0
100
AcDbVertex
100
AcDb2dVertex
 10
50.43099975585938
 20
47.99099731445312
 30
0.0
  0
VERTEX
  5
60
330
5C
100
AcDbEntity
  8
Layer 1
370
     0
100
AcDbVertex
100
AcDb2dVertex
 10
50.43099975585938
 20
92.73699951171875
 30
0.0
  0
VERTEX
  5
61
330
5C
100
AcDbEntity
  8
Layer 1
370
     0
100
AcDbVertex
100
AcDb2dVertex
 10
63.70899963378906
 20
92.73699951171875
 30
0.0
  0
VERTEX
  5
62
330
5C
100
AcDbEntity
  8
Layer 1
370
     0
100
AcDbVertex
100
AcDb2dVertex
 10
66.48500061035156
 20
81.63000106811523
 30
0.0
  0
SEQEND
  5
63
330
5C
100
AcDbEntity
  8
Layer 1
370
     0
  0
POLYLINE
  5
64
330
45
100
AcDbEntity
  8
Layer 1
370
     0
100
AcDb2dPolyline
 66
     1
 10
0.0
 20
0.0
 30
0.0
  0
VERTEX
  5
65
330
64
100
AcDbEntity
  8
Layer 1
370
     0
100
AcDbVertex
100
AcDb2dVertex
 10
69.0009994506836
 20
43.92500305175781
 30
0.0
  0
VERTEX
  5
66
330
64
100
AcDbEntity
  8
Layer 1
370
     0
100
AcDbVertex
100
AcDb2dVertex
 10
59.34500122070312
 20
50.25100708007812
 30
0.0
  0
VERTEX
  5
67
330
64
100
AcDbEntity
  8
Layer 1
370
     0
100
AcDbVertex
100
AcDb2dVertex
 10
60.75600051879883
 20
55.51200866699219
 30
0.0
  0
VERTEX
  5
68
330
64
100
AcDbEntity
  8
Layer 1
370
     0
100
AcDbVertex
100
AcDb2dVertex
 10
69.0009994506836
 20
43.92500305175781
 30
0.0
  0
SEQEND
  5
69
330
64
100
AcDbEntity
  8
Layer 1
370
     0
  0
POLYLINE
  5
6A
330
45
100
AcDbEntity
  8
Layer 1
370
     0
100
AcDb2dPolyline
 66
     1
 10
0.0
 20
0.0
 30
0.0
  0
VERTEX
  5
6B
330
6A
100
AcDbEntity
  8
Layer 1
370
     0
100
AcDbVertex
100
AcDb2dVertex
 10
44.44800186157227
 20
101.6389999389648
 30
0.0
  0
VERTEX
  5
6C
330
6A
100
AcDbEntity
  8
Layer 1
370
     0
100
AcDbVertex
100
AcDb2dVertex
 10
50.00100326538086
 20
107.2779998779297
 30
0.0
  0
VERTEX
  5
6D
330
6A
100
AcDbEntity
  8
Layer 1
370
     0
100
AcDbVertex
100
AcDb2dVertex
 10
55.55400466918945
 20
101.6389999389648
 30
0.0
  0
VERTEX
  5
6E
330
6A
100
AcDbEntity
  8
Layer 1
370
     0
100
AcDbVertex
100
AcDb2dVertex
 10
55.42200469970703
 20
93.73699951171875
 30
0.0
  0
VERTEX
  5
6F
330
6A
100
AcDbEntity
  8
Layer 1
370
     0
100
AcDbVertex
100
AcDb2dVertex
 10
44.57799911499023
 20
93.73699951171875
 30
0.0
  0
VERTEX
  5
70
330
6A
100
AcDbEntity
  8
Layer 1
370
     0
100
AcDbVertex
100
AcDb2dVertex
 10
44.44800186157227
 20
101.6389999389648
 30
0.0
  0
SEQEND
  5
71
330
6A
100
AcDbEntity
  8
Layer 1
370
     0
  0
POLYLINE
  5
72
330
45
100
AcDbEntity
  8
Layer 1
370
     0
100
AcDb2dPolyline
 66
     1
 10
0.0
 20
0.0
 30
0.0
  0
VERTEX
  5
73
330
72
100
AcDbEntity
  8
Layer 1
370
     0
100
AcDbVertex
100
AcDb2dVertex
 10
36.29299926757812
 20
92.73699951171875
 30
0.0
  0
VERTEX
  5
74
330
72
100
AcDbEntity
  8
Layer 1
370
     0
100
AcDbVertex
100
AcDb2dVertex
 10
49.43099975585938
 20
92.73699951171875
 30
0.0
  0
VERTEX
  5
75
330
72
100
AcDbEntity
  8
Layer 1
370
     0
100
AcDbVertex
100
AcDb2dVertex
 10
49.43099975585938
 20
48.12799835205078
 30
0.0
  0
VERTEX
  5
76
330
72
100
AcDbEntity
  8
Layer 1
370
     0
100
AcDbVertex
100
AcDb2dVertex
 10
38.27799987792969
 20
58.97899627685547
 30
0.0
  0
VERTEX
  5
77
330
72
100
AcDbEntity
  8
Layer 1
370
     0
100
AcDbVertex
100
AcDb2dVertex
 10
33.51399993896484
 20
81.62899780273438
 30
0.0
  0
VERTEX
  5
78
330
72
100
AcDbEntity
  8
Layer 1
370
     0
100
AcDbVertex
100
AcDb2dVertex
 10
36.29299926757812
 20
92.73699951171875
 30
0.0
  0
SEQEND
  5
79
330
72
100
AcDbEntity
  8
Layer 1
370
     0
  0
POLYLINE
  5
7A
330
45
100
AcDbEntity
  8
Layer 1
370
     0
100
AcDb2dPolyline
 66
     1
 10
0.0
 20
0.0
 30
0.0
  0
VERTEX
  5
7B
330
7A
100
AcDbEntity
  8
Layer 1
370
     0
100
AcDbVertex
100
AcDb2dVertex
 10
39.24399948120117
 20
55.51200103759766
 30
0.0
  0
VERTEX
  5
7C
330
7A
100
AcDbEntity
  8
Layer 1
370
     0
100
AcDbVertex
100
AcDb2dVertex
 10
40.65499877929688
 20
50.25099945068359
 30
0.0
  0
VERTEX
  5
7D
330
7A
100
AcDbEntity
  8
Layer 1
370
     0
100
AcDbVertex
100
AcDb2dVertex
 10
31.00199890136719
 20
43.927001953125
 30
0.0
  0
VERTEX
  5
7E
330
7A
100
AcDbEntity
  8
Layer 1
370
     0
100
AcDbVertex
100
AcDb2dVertex
 10
39.24399948120117
 20
55.51200103759766
 30
0.0
  0
SEQEND
  5
7F
330
7A
100
AcDbEntity
  8
Layer 1
370
     0
  0
POLYLINE
  5
80
330
45
100
AcDbEntity
  8
Layer 1
370
     0
100
AcDb2dPolyline
 66
     1
 10
0.0
 20
0.0
 30
0.0
  0
VERTEX
  5
81
330
80
100
AcDbEntity
  8
Layer 1
370
     0
100
AcDbVertex
100
AcDb2dVertex
 10
27.64100074768066
 20
82.0530014038086
 30
0.0
  0
VERTEX
  5
82
330
80
100
AcDbEntity
  8
Layer 1
370
     0
100
AcDbVertex
100
AcDb2dVertex
 10
13.55000019073486
 20
78.52099990844727
 30
0.0
  0
VERTEX
  5
83
330
80
100
AcDbEntity
  8
Layer 1
370
     0
100
AcDbVertex
100
AcDb2dVertex
 10
29.91300201416016
 20
90.47900009155273
 30
0.0
  0
VERTEX
  5
84
330
80
100
AcDbEntity
  8
Layer 1
370
     0
100
AcDbVertex
100
AcDb2dVertex
 10
27.64100074768066
 20
82.0530014038086
 30
0.0
  0
SEQEND
  5
85
330
80
100
AcDbEntity
  8
Layer 1
370
     0
  0
POLYLINE
  5
86
330
45
100
AcDbEntity
  8
Layer 1
370
     0
100
AcDb2dPolyline
 66
     1
 10
0.0
 20
0.0
 30
0.0
  0
VERTEX
  5
87
330
86
100
AcDbEntity
  8
Layer 1
370
     0
100
AcDbVertex
100
AcDb2dVertex
 10
30.52700042724609
 20
88.91500091552734
 30
0.0
  0
VERTEX
  5
88
330
86
100
AcDbEntity
  8
Layer 1
370
     0
100
AcDbVertex
100
AcDb2dVertex
 10
31.06700134277344
 20
83.36899948120117
 30
0.0
  0
VERTEX
  5
89
330
86
100
AcDbEntity
  8
Layer 1
370
     0
100
AcDbVertex
100
AcDb2dVertex
 10
28.78900146484375
 20
82.47000122070312
 30
0.0
  0
VERTEX
  5
8A
330
86
100
AcDbEntity
  8
Layer 1
370
     0
100
AcDbVertex
100
AcDb2dVertex
 10
30.52700042724609
 20
88.91500091552734
 30
0.0
  0
SEQEND
  5
8B
330
86
100
AcDbEntity
  8
Layer 1
370
     0
  0
POLYLINE
  5
8C
330
45
100
AcDbEntity
  8
Layer 1
370
     0
100
AcDb2dPolyline
 66
     1
 10
0.0
 20
0.0
 30
0.0
  0
VERTEX
  5
8D
330
8C
100
AcDbEntity
  8
Layer 1
370
     0
100
AcDbVertex
100
AcDb2dVertex
 10
20.85600090026855
 20
87.11000061035156
 30
0.0
  0
VERTEX
  5
8E
330
8C
100
AcDbEntity
  8
Layer 1
370
     0
100
AcDbVertex
100
AcDb2dVertex
 10
27.07900047302246
 20
89.64599990844727
 30
0.0
  0
VERTEX
  5
8F
330
8C
100
AcDbEntity
  8
Layer 1
370
     0
100
AcDbVertex
100
AcDb2dVertex
 10
15.09400081634521
 20
80.88800048828125
 30
0.0
  0
VERTEX
  5
90
330
8C
100
AcDbEntity
  8
Layer 1
370
     0
100
AcDbVertex
100
AcDb2dVertex
 10
20.85600090026855
 20
87.11000061035156
 30
0.0
  0
SEQEND
  5
91
330
8C
100
AcDbEntity
  8
Layer 1
370
     0
  0
SPLINE
  5
92
330
45
100
AcDbEntity
  8
Layer 1
370
     0
100
AcDbSpline
210
0.0
220
0.0
230
1.0
 70
    11
 71
     3
 72
    29
 73
    25
 74
     0
 42
0.0000000001
 43
0.0000000001
 12
1.0
 22
0.0
 32
0.0
 13
1.0
 23
0.0
 33
0.0
 40
0.0
 40
0.0
 40
0.0
 40
0.0
 40
1.0
 40
1.0
 40
1.0
 40
2.0
 40
2.0
 40
2.0
 40
3.0
 40
3.0
 40
3.0
 40
4.0
 40
4.0
 40
4.0
 40
5.0
 40
5.0
 40
5.0
 40
6.0
 40
6.0
 40
6.0
 40
7.0
 40
7.0
 40
7.0
 40
8.0
 40
8.0
 40
8.0
 40
8.0
 10
29.02000045776367
 20
81.48500061035156
 30
0.0
 10
29.02000045776367
 20
81.48500061035156
 30
0.0
 10
31.78600120544434
 20
82.57699966430664
 30
0.0
 10
31.78600120544434
 20
82.57699966430664
 30
0.0
 10
31.9940013885498
 20
82.65900039672852
 30
0.0
 10
32.12200164794922
 20
82.86899948120117
 30
0.0
 10
32.10000228881836
 20
83.09099960327148
 30
0.0
 10
32.10000228881836
 20
83.09099960327148
 30
0.0
 10
31.32700157165527
 20
91.02799987792969
 30
0.0
 10
31.32700157165527
 20
91.02799987792969
 30
0.0
 10
31.32700157165527
 20
91.02799987792969
 30
0.0
 10
34.61800003051758
 20
90.1619987487793
 30
0.0
 10
34.61800003051758
 20
90.1619987487793
 30
0.0
 10
34.61800003051758
 20
90.1619987487793
 30
0.0
 10
32.51699829101562
 20
81.76200103759766
 30
0.0
 10
32.51699829101562
 20
81.76200103759766
 30
0.0
 10
32.49799728393555
 20
81.68899917602539
 30
0.0
 10
32.49699783325195
 20
81.61199951171875
 30
0.0
 10
32.51299667358398
 20
81.53800201416016
 30
0.0
 10
32.51299667358398
 20
81.53800201416016
 30
0.0
 10
33.2599983215332
 20
77.98800277709961
 30
0.0
 10
33.2599983215332
 20
77.98800277709961
 30
0.0
 10
33.2599983215332
 20
77.98800277709961
 30
0.0
 10
29.02000045776367
 20
81.48500061035156
 30
0.0
 10
29.02000045776367
 20
81.48500061035156
 30
0.0
  0
SPLINE
  5
93
330
45
100
AcDbEntity
  8
Layer 1
370
     0
100
AcDbSpline
210
0.0
220
0.0
230
1.0
 70
    11
 71
     3
 72
    23
 73
    19
 74
     0
 42
0.0000000001
 43
0.0000000001
 12
1.0
 22
0.0
 32
0.0
 13
1.0
 23
0.0
 33
0.0
 40
0.0
 40
0.0
 40
0.0
 40
0.0
 40
1.0
 40
1.0
 40
1.0
 40
2.0
 40
2.0
 40
2.0
 40
3.0
 40
3.0
 40
3.0
 40
4.0
 40
4.0
 40
4.0
 40
5.0
 40
5.0
 40
5.0
 40
6.0
 40
6.0
 40
6.0
 40
6.0
 10
34.09199905395508
 20
57.68299865722656
 30
0.0
 10
34.09199905395508
 20
57.68299865722656
 30
0.0
 10
37.05099868774414
 20
59.95800018310547
 30
0.0
 10
37.05099868774414
 20
59.95800018310547
 30
0.0
 10
37.05099868774414
 20
59.95800018310547
 30
0.0
 10
37.33099746704102
 20
58.625
 30
0.0
 10
37.33099746704102
 20
58.625
 30
0.0
 10
37.35199737548828
 20
58.52799987792969
 30
0.0
 10
37.39999771118164
 20
58.43900299072266
 30
0.0
 10
37.47199630737305
 20
58.37000274658203
 30
0.0
 10
37.47199630737305
 20
58.37000274658203
 30
0.0
 10
38.9949951171875
 20
56.88700103759766
 30
0.0
 10
38.9949951171875
 20
56.88700103759766
 30
0.0
 10
38.9949951171875
 20
56.88700103759766
 30
0.0
 10
30.36700057983398
 20
44.76000213623047
 30
0.0
 10
30.36700057983398
 20
44.76000213623047
 30
0.0
 10
30.36700057983398
 20
44.76000213623047
 30
0.0
 10
34.09199905395508
 20
57.68299865722656
 30
0.0
 10
34.09199905395508
 20
57.68299865722656
 30
0.0
  0
POLYLINE
  5
94
330
45
100
AcDbEntity
  8
Layer 1
370
     0
100
AcDb2dPolyline
 66
     1
 10
0.0
 20
0.0
 30
0.0
  0
VERTEX
  5
95
330
94
100
AcDbEntity
  8
Layer 1
370
     0
100
AcDbVertex
100
AcDb2dVertex
 10
41.52799987792969
 20
50.85800170898438
 30
0.0
  0
VERTEX
  5
96
330
94
100
AcDbEntity
  8
Layer 1
370
     0
100
AcDbVertex
100
AcDb2dVertex
 10
40.23500061035156
 20
55.67900085449219
 30
0.0
  0
VERTEX
  5
97
330
94
100
AcDbEntity
  8
Layer 1
370
     0
100
AcDbVertex
100
AcDb2dVertex
 10
43.63399887084961
 20
52.37200164794922
 30
0.0
  0
VERTEX
  5
98
330
94
100
AcDbEntity
  8
Layer 1
370
     0
100
AcDbVertex
100
AcDb2dVertex
 10
41.52799987792969
 20
50.85800170898438
 30
0.0
  0
SEQEND
  5
99
330
94
100
AcDbEntity
  8
Layer 1
370
     0
  0
POLYLINE
  5
9A
330
45
100
AcDbEntity
  8
Layer 1
370
     0
100
AcDb2dPolyline
 66
     1
 10
0.0
 20
0.0
 30
0.0
  0
VERTEX
  5
9B
330
9A
100
AcDbEntity
  8
Layer 1
370
     0
100
AcDbVertex
100
AcDb2dVertex
 10
59.76399993896484
 20
55.677001953125
 30
0.0
  0
VERTEX
  5
9C
330
9A
100
AcDbEntity
  8
Layer 1
370
     0
100
AcDbVertex
100
AcDb2dVertex
 10
58.47200012207031
 20
50.85800170898438
 30
0.0
  0
VERTEX
  5
9D
330
9A
100
AcDbEntity
  8
Layer 1
370
     0
100
AcDbVertex
100
AcDb2dVertex
 10
56.36700057983398
 20
52.37100219726562
 30
0.0
  0
VERTEX
  5
9E
330
9A
100
AcDbEntity
  8
Layer 1
370
     0
100
AcDbVertex
100
AcDb2dVertex
 10
59.76399993896484
 20
55.677001953125
 30
0.0
  0
SEQEND
  5
9F
330
9A
100
AcDbEntity
  8
Layer 1
370
     0
  0
SPLINE
  5
A0
330
45
100
AcDbEntity
  8
Layer 1
370
     0
100
AcDbSpline
210
0.0
220
0.0
230
1.0
 70
    11
 71
     3
 72
    23
 73
    19
 74
     0
 42
0.0000000001
 43
0.0000000001
 12
1.0
 22
0.0
 32
0.0
 13
1.0
 23
0.0
 33
0.0
 40
0.0
 40
0.0
 40
0.0
 40
0.0
 40
1.0
 40
1.0
 40
1.0
 40
2.0
 40
2.0
 40
2.0
 40
3.0
 40
3.0
 40
3.0
 40
4.0
 40
4.0
 40
4.0
 40
5.0
 40
5.0
 40
5.0
 40
6.0
 40
6.0
 40
6.0
 40
6.0
 10
65.90799713134766
 20
57.68299865722656
 30
0.0
 10
65.90799713134766
 20
57.68299865722656
 30
0.0
 10
69.63399505615234
 20
44.75999450683594
 30
0.0
 10
69.63399505615234
 20
44.75999450683594
 30
0.0
 10
69.63399505615234
 20
44.75999450683594
 30
0.0
 10
61.00499725341797
 20
56.88499450683594
 30
0.0
 10
61.00499725341797
 20
56.88499450683594
 30
0.0
 10
61.00499725341797
 20
56.88499450683594
 30
0.0
 10
62.52999877929688
 20
58.36899566650391
 30
0.0
 10
62.52999877929688
 20
58.36899566650391
 30
0.0
 10
62.60099792480469
 20
58.43799591064453
 30
0.0
 10
62.64999771118164
 20
58.52699279785156
 30
0.0
 10
62.67099761962891
 20
58.62399291992188
 30
0.0
 10
62.67099761962891
 20
58.62399291992188
 30
0.0
 10
62.95099639892578
 20
59.95699310302734
 30
0.0
 10
62.95099639892578
 20
59.95699310302734
 30
0.0
 10
62.95099639892578
 20
59.95699310302734
 30
0.0
 10
65.90799713134766
 20
57.68299865722656
 30
0.0
 10
65.90799713134766
 20
57.68299865722656
 30
0.0
  0
SPLINE
  5
A1
330
45
100
AcDbEntity
  8
Layer 1
370
     0
100
AcDbSpline
210
0.0
220
0.0
230
1.0
 70
    11
 71
     3
 72
    29
 73
    25
 74
     0
 42
0.0000000001
 43
0.0000000001
 12
1.0
 22
0.0
 32
0.0
 13
1.0
 23
0.0
 33
0.0
 40
0.0
 40
0.0
 40
0.0
 40
0.0
 40
1.0
 40
1.0
 40
1.0
 40
2.0
 40
2.0
 40
2.0
 40
3.0
 40
3.0
 40
3.0
 40
4.0
 40
4.0
 40
4.0
 40
5.0
 40
5.0
 40
5.0
 40
6.0
 40
6.0
 40
6.0
 40
7.0
 40
7.0
 40
7.0
 40
8.0
 40
8.0
 40
8.0
 40
8.0
 10
67.48300170898438
 20
81.76100158691406
 30
0.0
 10
67.48300170898438
 20
81.76100158691406
 30
0.0
 10
65.38300323486328
 20
90.16200256347656
 30
0.0
 10
65.38300323486328
 20
90.16200256347656
 30
0.0
 10
65.38300323486328
 20
90.16200256347656
 30
0.0
 10
68.67300415039062
 20
91.02800369262695
 30
0.0
 10
68.67300415039062
 20
91.02800369262695
 30
0.0
 10
68.67300415039062
 20
91.02800369262695
 30
0.0
 10
67.9020004272461
 20
83.09100341796875
 30
0.0
 10
67.9020004272461
 20
83.09100341796875
 30
0.0
 10
67.88099670410156
 20
82.86900329589844
 30
0.0
 10
68.00900268554688
 20
82.65900421142578
 30
0.0
 10
68.21600341796875
 20
82.5770034790039
 30
0.0
 10
68.21600341796875
 20
82.5770034790039
 30
0.0
 10
70.98200225830078
 20
81.48500442504883
 30
0.0
 10
70.98200225830078
 20
81.48500442504883
 30
0.0
 10
70.98200225830078
 20
81.48500442504883
 30
0.0
 10
66.74000549316406
 20
77.98500442504883
 30
0.0
 10
66.74000549316406
 20
77.98500442504883
 30
0.0
 10
66.74000549316406
 20
77.98500442504883
 30
0.0
 10
67.48700714111328
 20
81.53700256347656
 30
0.0
 10
67.48700714111328
 20
81.53700256347656
 30
0.0
 10
67.50299835205078
 20
81.61100006103516
 30
0.0
 10
67.50199890136719
 20
81.6879997253418
 30
0.0
 10
67.48300170898438
 20
81.76100158691406
 30
0.0
  0
HATCH
  5
A2
330
45
100
AcDbEntity
  8
Layer 1
 62
     7
420
 16777215
100
AcDbHatch
 10
0.0
 20
0.0
 30
0.0
210
0.0
220
0.0
230
1.0
  2
SOLID
 70
     1
 71
     0
 91
       18
 92
        1
 93
        1
 72
     4
 94
        3
 73
     0
 74
     1
 95
      263
 96
      259
 40
0.0
 40
0.0
 40
0.0
 40
0.0
 40
1.0
 40
1.0
 40
1.0
 40
2.0
 40
2.0
 40
2.0
 40
3.0
 40
3.0
 40
3.0
 40
4.0
 40
4.0
 40
4.0
 40
5.0
 40
5.0
 40
5.0
 40
6.0
 40
6.0
 40
6.0
 40
7.0
 40
7.0
 40
7.0
 40
8.0
 40
8.0
 40
8.0
 40
9.0
 40
9.0
 40
9.0
 40
10.0
 40
10.0
 40
10.0
 40
11.0
 40
11.0
 40
11.0
 40
12.0
 40
12.0
 40
12.0
 40
13.0
 40
13.0
 40
13.0
 40
14.0
 40
14.0
 40
14.0
 40
15.0
 40
15.0
 40
15.0
 40
16.0
 40
16.0
 40
16.0
 40
17.0
 40
17.0
 40
17.0
 40
18.0
 40
18.0
 40
18.0
 40
19.0
 40
19.0
 40
19.0
 40
20.0
 40
20.0
 40
20.0
 40
21.0
 40
21.0
 40
21.0
 40
22.0
 40
22.0
 40
22.0
 40
23.0
 40
23.0
 40
23.0
 40
24.0
 40
24.0
 40
24.0
 40
25.0
 40
25.0
 40
25.0
 40
26.0
 40
26.0
 40
26.0
 40
27.0
 40
27.0
 40
27.0
 40
28.0
 40
28.0
 40
28.0
 40
29.0
 40
29.0
 40
29.0
 40
30.0
 40
30.0
 40
30.0
 40
31.0
 40
31.0
 40
31.0
 40
32.0
 40
32.0
 40
32.0
 40
33.0
 40
33.0
 40
33.0
 40
34.0
 40
34.0
 40
34.0
 40
35.0
 40
35.0
 40
35.0
 40
36.0
 40
36.0
 40
36.0
 40
37.0
 40
37.0
 40
37.0
 40
38.0
 40
38.0
 40
38.0
 40
39.0
 40
39.0
 40
39.0
 40
40.0
 40
40.0
 40
40.0
 40
41.0
 40
41.0
 40
41.0
 40
42.0
 40
42.0
 40
42.0
 40
43.0
 40
43.0
 40
43.0
 40
44.0
 40
44.0
 40
44.0
 40
45.0
 40
45.0
 40
45.0
 40
46.0
 40
46.0
 40
46.0
 40
47.0
 40
47.0
 40
47.0
 40
48.0
 40
48.0
 40
48.0
 40
49.0
 40
49.0
 40
49.0
 40
50.0
 40
50.0
 40
50.0
 40
51.0
 40
51.0
 40
51.0
 40
52.0
 40
52.0
 40
52.0
 40
53.0
 40
53.0
 40
53.0
 40
54.0
 40
54.0
 40
54.0
 40
55.0
 40
55.0
 40
55.0
 40
56.0
 40
56.0
 40
56.0
 40
57.0
 40
57.0
 40
57.0
 40
58.0
 40
58.0
 40
58.0
 40
59.0
 40
59.0
 40
59.0
 40
60.0
 40
60.0
 40
60.0
 40
61.0
 40
61.0
 40
61.0
 40
62.0
 40
62.0
 40
62.0
 40
63.0
 40
63.0
 40
63.0
 40
64.0
 40
64.0
 40
64.0
 40
65.0
 40
65.0
 40
65.0
 40
66.0
 40
66.0
 40
66.0
 40
67.0
 40
67.0
 40
67.0
 40
68.0
 40
68.0
 40
68.0
 40
69.0
 40
69.0
 40
69.0
 40
70.0
 40
70.0
 40
70.0
 40
71.0
 40
71.0
 40
71.0
 40
72.0
 40
72.0
 40
72.0
 40
73.0
 40
73.0
 40
73.0
 40
74.0
 40
74.0
 40
74.0
 40
75.0
 40
75.0
 40
75.0
 40
76.0
 40
76.0
 40
76.0
 40
77.0
 40
77.0
 40
77.0
 40
78.0
 40
78.0
 40
78.0
 40
79.0
 40
79.0
 40
79.0
 40
80.0
 40
80.0
 40
80.0
 40
81.0
 40
81.0
 40
81.0
 40
82.0
 40
82.0
 40
82.0
 40
83.0
 40
83.0
 40
83.0
 40
84.0
 40
84.0
 40
84.0
 40
85.0
 40
85.0
 40
85.0
 40
86.0
 40
86.0
 40
86.0
 40
86.0
 10
89.08200073242188
 20
77.8499984741211
 10
89.08200073242188
 20
77.8499984741211
 10
79.8030014038086
 20
87.87199783325195
 10
79.8030014038086
 20
87.87199783325195
 10
79.75299835205078
 20
87.92599868774414
 10
79.69300079345703
 20
87.96799850463867
 10
79.6240005493164
 20
87.99499893188477
 10
79.6240005493164
 20
87.99499893188477
 10
69.52300262451172
 20
92.11000061035156
 10
69.52300262451172
 20
92.11000061035156
 10
69.52000427246094
 20
92.11100006103516
 10
69.51700592041016
 20
92.11000061035156
 10
69.51399993896484
 20
92.11199951171875
 10
69.51300048828125
 20
92.11199951171875
 10
69.51300048828125
 20
92.11299896240234
 10
69.51200103759766
 20
92.11399841308594
 10
69.51200103759766
 20
92.11399841308594
 10
69.51200103759766
 20
92.11399841308594
 10
69.51100158691406
 20
92.11399841308594
 10
69.49500274658203
 20
92.12399673461914
 10
69.47900390625
 20
92.13399887084961
 10
69.46199798583984
 20
92.14199829101562
 10
69.46199798583984
 20
92.14199829101562
 10
69.46099853515625
 20
92.14199829101562
 10
69.46099853515625
 20
92.14199829101562
 10
69.35800170898438
 20
92.19299697875977
 10
69.23600006103516
 20
92.20999908447266
 10
69.11499786376953
 20
92.17699813842773
 10
69.11399841308594
 20
92.17699813842773
 10
69.11399841308594
 20
92.17699813842773
 10
69.11299896240234
 20
92.17699813842773
 10
69.11299896240234
 20
92.17699813842773
 10
65.13999938964844
 20
91.13199996948242
 10
65.13999938964844
 20
91.13199996948242
 10
65.13999938964844
 20
91.13199996948242
 10
64.58300018310547
 20
93.35799980163574
 10
64.58300018310547
 20
93.35799980163574
 10
64.5270004272461
 20
93.58099937438965
 10
64.3270034790039
 20
93.73699951171875
 10
64.0979995727539
 20
93.73699951171875
 10
64.0979995727539
 20
93.73699951171875
 10
56.41999816894531
 20
93.73699951171875
 10
56.41999816894531
 20
93.73699951171875
 10
56.41999816894531
 20
93.73699951171875
 10
56.55499649047852
 20
101.8320007324219
 10
56.55499649047852
 20
101.8320007324219
 10
56.5569953918457
 20
101.9660015106201
 10
56.50499725341797
 20
102.0960006713867
 10
56.41099548339844
 20
102.1909999847412
 10
56.41099548339844
 20
102.1909999847412
 10
50.42599487304688
 20
108.2700004577637
 10
50.42599487304688
 20
108.2700004577637
 10
50.31099319458008
 20
108.3880004882812
 10
50.15199661254883
 20
108.4280014038086
 10
49.99899673461914
 20
108.4060001373291
 10
49.84799575805664
 20
108.42799949646
 10
49.68799591064453
 20
108.3880004882812
 10
49.57199859619141
 20
108.2700004577637
 10
49.57199859619141
 20
108.2700004577637
 10
43.58699798583984
 20
102.1909999847412
 10
43.58699798583984
 20
102.1909999847412
 10
43.49299621582031
 20
102.0960006713867
 10
43.44099807739258
 20
101.9659996032715
 10
43.44299697875977
 20
101.8320007324219
 10
43.44299697875977
 20
101.8320007324219
 10
43.57599639892578
 20
93.73699951171875
 10
43.57599639892578
 20
93.73699951171875
 10
43.57599639892578
 20
93.73699951171875
 10
35.89999771118164
 20
93.73699951171875
 10
35.89999771118164
 20
93.73699951171875
 10
35.67099761962891
 20
93.73699951171875
 10
35.46999740600586
 20
93.58099937438965
 10
35.41499710083008
 20
93.35799980163574
 10
35.41499710083008
 20
93.35799980163574
 10
34.85799789428711
 20
91.13100051879883
 10
34.85799789428711
 20
91.13100051879883
 10
34.85799789428711
 20
91.13100051879883
 10
30.88299751281738
 20
92.177001953125
 10
30.88299751281738
 20
92.177001953125
 10
30.87999725341797
 20
92.1780014038086
 10
30.87699699401855
 20
92.1780014038086
 10
30.87399673461914
 20
92.17900085449219
 10
30.87299728393555
 20
92.17900085449219
 10
30.87299728393555
 20
92.17900085449219
 10
30.87199592590332
 20
92.17900085449219
 10
30.87199592590332
 20
92.17900085449219
 10
30.87199592590332
 20
92.17900085449219
 10
30.87099647521973
 20
92.17900085449219
 10
30.75399589538574
 20
92.20800018310547
 10
30.63299560546875
 20
92.19100189208984
 10
30.53199577331543
 20
92.13999938964844
 10
30.53199577331543
 20
92.13999938964844
 10
30.53199577331543
 20
92.13999938964844
 10
30.53099632263184
 20
92.13999938964844
 10
30.51399612426758
 20
92.13199996948242
 10
30.49899673461914
 20
92.12199783325195
 10
30.48299598693848
 20
92.11199951171875
 10
30.48299598693848
 20
92.11199951171875
 10
30.48199653625488
 20
92.11100006103516
 10
30.48199653625488
 20
92.11100006103516
 10
30.47899627685547
 20
92.11000061035156
 10
30.47599601745605
 20
92.11000061035156
 10
30.47299575805664
 20
92.10900115966797
 10
30.47299575805664
 20
92.10900115966797
 10
20.37299537658691
 20
87.99400329589844
 10
20.37299537658691
 20
87.99400329589844
 10
20.30499458312988
 20
87.96700286865234
 10
20.24399566650391
 20
87.92500305175781
 10
20.19399452209473
 20
87.87100219726562
 10
20.19399452209473
 20
87.87100219726562
 10
10.83999443054199
 20
77.77100372314453
 10
10.83999443054199
 20
77.77100372314453
 10
10.66499423980713
 20
77.58200454711914
 10
10.66199398040771
 20
77.2910041809082
 10
10.83399486541748
 20
77.09900283813477
 10
10.92499446868896
 20
76.99600219726562
 10
11.05099487304688
 20
76.94500350952148
 10
11.17899513244629
 20
76.93700408935547
 10
11.17899513244629
 20
76.93700408935547
 10
11.17899513244629
 20
76.93700408935547
 10
11.17899513244629
 20
76.93700408935547
 10
11.18899536132812
 20
76.93700408935547
 10
11.19799518585205
 20
76.93100357055664
 10
11.20699501037598
 20
76.93100357055664
 10
11.2159948348999
 20
76.93100357055664
 10
11.22399520874023
 20
76.93900299072266
 10
11.23199462890625
 20
76.93900299072266
 10
11.27999496459961
 20
76.93700408935547
 10
11.32799434661865
 20
76.93400192260742
 10
11.37699508666992
 20
76.94600296020508
 10
11.37699508666992
 20
76.94600296020508
 10
27.91899490356445
 20
81.09200286865234
 10
27.91899490356445
 20
81.09200286865234
 10
27.91899490356445
 20
81.09200286865234
 10
33.58499526977539
 20
76.4160041809082
 10
33.58499526977539
 20
76.4160041809082
 10
33.58499526977539
 20
76.4160041809082
 10
36.81699371337891
 20
61.04300308227539
 10
36.81699371337891
 20
61.04300308227539
 10
36.81699371337891
 20
61.04300308227539
 10
33.34699249267578
 20
58.375
 10
33.34699249267578
 20
58.375
 10
33.26199340820312
 20
58.30999755859375
 10
33.20099258422852
 20
58.21900177001953
 10
33.17099380493164
 20
58.11699676513672
 10
33.17099380493164
 20
58.11699676513672
 10
28.58899307250977
 20
42.21799468994141
 10
28.58899307250977
 20
42.21799468994141
 10
28.52199363708496
 20
41.98399353027344
 10
28.63299369812012
 20
41.73499298095703
 10
28.85299301147461
 20
41.62899780273438
 10
28.92199325561523
 20
41.59500122070312
 10
28.99699211120605
 20
41.57899475097656
 10
29.06999206542969
 20
41.57899475097656
 10
29.17399215698242
 20
41.57899475097656
 10
29.26799201965332
 20
41.62099456787109
 10
29.35299301147461
 20
41.68199157714844
 10
29.3809928894043
 20
41.69399261474609
 10
29.4119930267334
 20
41.68999481201172
 10
29.43799209594727
 20
41.70699310302734
 10
29.43799209594727
 20
41.70699310302734
 10
41.50099182128906
 20
49.60999298095703
 10
41.50099182128906
 20
49.60999298095703
 10
41.5049934387207
 20
49.61199188232422
 10
41.50699234008789
 20
49.61699676513672
 10
41.51099014282227
 20
49.6199951171875
 10
41.51298904418945
 20
49.62099456787109
 10
41.51699066162109
 20
49.62099456787109
 10
41.51898956298828
 20
49.62199401855469
 10
41.51898956298828
 20
49.62199401855469
 10
44.35799026489258
 20
51.66199493408203
 10
44.35799026489258
 20
51.66199493408203
 10
44.35799026489258
 20
51.66199493408203
 10
49.57199096679688
 20
46.58799743652344
 10
49.57199096679688
 20
46.58799743652344
 10
49.57199096679688
 20
46.58799743652344
 10
49.57199096679688
 20
46.58799743652344
 10
49.57199096679688
 20
46.58799743652344
 10
49.57199096679688
 20
46.58799743652344
 10
49.57699203491211
 20
46.58399963378906
 10
49.57699203491211
 20
46.58399963378906
 10
49.59499359130859
 20
46.56600189208984
 10
49.61799240112305
 20
46.55899810791016
 10
49.63799285888672
 20
46.54399871826172
 10
49.66899108886719
 20
46.52099609375
 10
49.69999313354492
 20
46.4949951171875
 10
49.73599243164062
 20
46.47999572753906
 10
49.79799270629883
 20
46.45499420166016
 10
49.86199188232422
 20
46.44199371337891
 10
49.92599105834961
 20
46.44199371337891
 10
49.94898986816406
 20
46.44199371337891
 10
49.97299194335938
 20
46.45299530029297
 10
49.99599075317383
 20
46.45599365234375
 10
50.01898956298828
 20
46.45299530029297
 10
50.04299163818359
 20
46.44199371337891
 10
50.06599044799805
 20
46.44199371337891
 10
50.19198989868164
 20
46.44199371337891
 10
50.31798934936523
 20
46.48899078369141
 10
50.41498947143555
 20
46.58399200439453
 10
50.41498947143555
 20
46.58399200439453
 10
55.63398742675781
 20
51.66199493408203
 10
55.63398742675781
 20
51.66199493408203
 10
55.63398742675781
 20
51.66199493408203
 10
58.47098541259766
 20
49.62299346923828
 10
58.47098541259766
 20
49.62299346923828
 10
58.47298431396484
 20
49.62199401855469
 10
58.47698593139648
 20
49.62199401855469
 10
58.47898483276367
 20
49.62099456787109
 10
58.48298645019531
 20
49.61799621582031
 10
58.4849853515625
 20
49.61399078369141
 10
58.48898315429688
 20
49.61099243164062
 10
58.48898315429688
 20
49.61099243164062
 10
70.55198669433594
 20
41.70799255371094
 10
70.55198669433594
 20
41.70799255371094
 10
70.57898712158203
 20
41.68999481201172
 10
70.6109848022461
 20
41.69399261474609
 10
70.63998413085938
 20
41.68199157714844
 10
70.72498321533203
 20
41.62199401855469
 10
70.81998443603516
 20
41.57999420166016
 10
70.92198181152344
 20
41.57999420166016
 10
70.99497985839844
 20
41.57999420166016
 10
71.06898498535156
 20
41.59599304199219
 10
71.13998413085938
 20
41.62999725341797
 10
71.3589859008789
 20
41.73600006103516
 10
71.46998596191406
 20
41.98399353027344
 10
71.40298461914062
 20
42.218994140625
 10
71.40298461914062
 20
42.218994140625
 10
66.81898498535156
 20
58.11799621582031
 10
66.81898498535156
 20
58.11799621582031
 10
66.78998565673828
 20
58.21999359130859
 10
66.72798156738281
 20
58.30999755859375
 10
66.64298248291016
 20
58.37599945068359
 10
66.64298248291016
 20
58.37599945068359
 10
63.17498397827148
 20
61.04399871826172
 10
63.17498397827148
 20
61.04399871826172
 10
63.17498397827148
 20
61.04399871826172
 10
66.4059829711914
 20
76.41500091552734
 10
66.4059829711914
 20
76.41500091552734
 10
66.4059829711914
 20
76.41500091552734
 10
72.07298278808594
 20
81.09300231933594
 10
72.07298278808594
 20
81.09300231933594
 10
72.07298278808594
 20
81.09300231933594
 10
88.61498260498047
 20
76.94700241088867
 10
88.61498260498047
 20
76.94700241088867
 10
88.66297912597656
 20
76.93500137329102
 10
88.71098327636719
 20
76.93800354003906
 10
88.75798034667969
 20
76.94000244140625
 10
88.76698303222656
 20
76.94000244140625
 10
88.77497863769531
 20
76.93200302124023
 10
88.7829818725586
 20
76.93200302124023
 10
88.78998565673828
 20
76.93200302124023
 10
88.79798126220703
 20
76.93100357055664
 10
88.802978515625
 20
76.93200302124023
 10
89.0789794921875
 20
76.93200302124023
 10
89.302978515625
 20
77.15600204467773
 10
89.302978515625
 20
77.43200302124023
 10
89.30799865722656
 20
77.60599899291992
 10
89.21900177001953
 20
77.7599983215332
 10
89.08200073242188
 20
77.8499984741211
 97
        0
 97
        0
 92
        1
 93
        3
 72
     1
 10
69.4739990234375
 20
88.91500091552734
 11
71.21299743652344
 21
82.47100067138672
 72
     1
 10
71.21299743652344
 20
82.47100067138672
 11
68.93499755859375
 21
83.36999893188477
 72
     1
 10
68.93499755859375
 20
83.36999893188477
 11
69.4739990234375
 21
88.91500091552734
 97
        0
 92
        1
 93
        3
 72
     1
 10
70.08799743652344
 20
90.47800064086914
 11
86.4489974975586
 21
78.52099990844727
 72
     1
 10
86.4489974975586
 20
78.52099990844727
 11
72.36100006103516
 21
82.0530014038086
 72
     1
 10
72.36100006103516
 20
82.0530014038086
 11
70.08799743652344
 21
90.47800064086914
 97
        0
 92
        1
 93
        3
 72
     1
 10
79.1449966430664
 20
87.11000061035156
 11
84.90799713134766
 21
80.88600158691406
 72
     1
 10
84.90799713134766
 20
80.88600158691406
 11
72.9209976196289
 21
89.64600372314453
 72
     1
 10
72.9209976196289
 20
89.64600372314453
 11
79.1449966430664
 21
87.11000061035156
 97
        0
 92
        1
 93
        5
 72
     1
 10
66.48500061035156
 20
81.63000106811523
 11
61.72299957275391
 21
58.98000335693359
 72
     1
 10
61.72299957275391
 20
58.98000335693359
 11
50.43099975585938
 21
47.99099731445312
 72
     1
 10
50.43099975585938
 20
47.99099731445312
 11
50.43099975585938
 21
92.73699951171875
 72
     1
 10
50.43099975585938
 20
92.73699951171875
 11
63.70899963378906
 21
92.73699951171875
 72
     1
 10
63.70899963378906
 20
92.73699951171875
 11
66.48500061035156
 21
81.63000106811523
 97
        0
 92
        1
 93
        3
 72
     1
 10
69.0009994506836
 20
43.92500305175781
 11
59.34500122070312
 21
50.25100708007812
 72
     1
 10
59.34500122070312
 20
50.25100708007812
 11
60.75600051879883
 21
55.51200866699219
 72
     1
 10
60.75600051879883
 20
55.51200866699219
 11
69.0009994506836
 21
43.92500305175781
 97
        0
 92
        1
 93
        5
 72
     1
 10
44.44800186157227
 20
101.6389999389648
 11
50.00100326538086
 21
107.2779998779297
 72
     1
 10
50.00100326538086
 20
107.2779998779297
 11
55.55400466918945
 21
101.6389999389648
 72
     1
 10
55.55400466918945
 20
101.6389999389648
 11
55.42200469970703
 21
93.73699951171875
 72
     1
 10
55.42200469970703
 20
93.73699951171875
 11
44.57799911499023
 21
93.73699951171875
 72
     1
 10
44.57799911499023
 20
93.73699951171875
 11
44.44800186157227
 21
101.6389999389648
 97
        0
 92
        1
 93
        5
 72
     1
 10
36.29299926757812
 20
92.73699951171875
 11
49.43099975585938
 21
92.73699951171875
 72
     1
 10
49.43099975585938
 20
92.73699951171875
 11
49.43099975585938
 21
48.12799835205078
 72
     1
 10
49.43099975585938
 20
48.12799835205078
 11
38.27799987792969
 21
58.97899627685547
 72
     1
 10
38.27799987792969
 20
58.97899627685547
 11
33.51399993896484
 21
81.62899780273438
 72
     1
 10
33.51399993896484
 20
81.62899780273438
 11
36.29299926757812
 21
92.73699951171875
 97
        0
 92
        1
 93
        3
 72
     1
 10
39.24399948120117
 20
55.51200103759766
 11
40.65499877929688
 21
50.25099945068359
 72
     1
 10
40.65499877929688
 20
50.25099945068359
 11
31.00199890136719
 21
43.927001953125
 72
     1
 10
31.00199890136719
 20
43.927001953125
 11
39.24399948120117
 21
55.51200103759766
 97
        0
 92
        1
 93
        3
 72
     1
 10
27.64100074768066
 20
82.0530014038086
 11
13.55000019073486
 21
78.52099990844727
 72
     1
 10
13.55000019073486
 20
78.52099990844727
 11
29.91300201416016
 21
90.47900009155273
 72
     1
 10
29.91300201416016
 20
90.47900009155273
 11
27.64100074768066
 21
82.0530014038086
 97
        0
 92
        1
 93
        3
 72
     1
 10
30.52700042724609
 20
88.91500091552734
 11
31.06700134277344
 21
83.36899948120117
 72
     1
 10
31.06700134277344
 20
83.36899948120117
 11
28.78900146484375
 21
82.47000122070312
 72
     1
 10
28.78900146484375
 20
82.47000122070312
 11
30.52700042724609
 21
88.91500091552734
 97
        0
 92
        1
 93
        3
 72
     1
 10
20.85600090026855
 20
87.11000061035156
 11
27.07900047302246
 21
89.64599990844727
 72
     1
 10
27.07900047302246
 20
89.64599990844727
 11
15.09400081634521
 21
80.88800048828125
 72
     1
 10
15.09400081634521
 20
80.88800048828125
 11
20.85600090026855
 21
87.11000061035156
 97
        0
 92
        1
 93
        1
 72
     4
 94
        3
 73
     0
 74
     1
 95
       29
 96
       25
 40
0.0
 40
0.0
 40
0.0
 40
0.0
 40
1.0
 40
1.0
 40
1.0
 40
2.0
 40
2.0
 40
2.0
 40
3.0
 40
3.0
 40
3.0
 40
4.0
 40
4.0
 40
4.0
 40
5.0
 40
5.0
 40
5.0
 40
6.0
 40
6.0
 40
6.0
 40
7.0
 40
7.0
 40
7.0
 40
8.0
 40
8.0
 40
8.0
 40
8.0
 10
29.02000045776367
 20
81.48500061035156
 10
29.02000045776367
 20
81.48500061035156
 10
31.78600120544434
 20
82.57699966430664
 10
31.78600120544434
 20
82.57699966430664
 10
31.9940013885498
 20
82.65900039672852
 10
32.12200164794922
 20
82.86899948120117
 10
32.10000228881836
 20
83.09099960327148
 10
32.10000228881836
 20
83.09099960327148
 10
31.32700157165527
 20
91.02799987792969
 10
31.32700157165527
 20
91.02799987792969
 10
31.32700157165527
 20
91.02799987792969
 10
34.61800003051758
 20
90.1619987487793
 10
34.61800003051758
 20
90.1619987487793
 10
34.61800003051758
 20
90.1619987487793
 10
32.51699829101562
 20
81.76200103759766
 10
32.51699829101562
 20
81.76200103759766
 10
32.49799728393555
 20
81.68899917602539
 10
32.49699783325195
 20
81.61199951171875
 10
32.51299667358398
 20
81.53800201416016
 10
32.51299667358398
 20
81.53800201416016
 10
33.2599983215332
 20
77.98800277709961
 10
33.2599983215332
 20
77.98800277709961
 10
33.2599983215332
 20
77.98800277709961
 10
29.02000045776367
 20
81.48500061035156
 10
29.02000045776367
 20
81.48500061035156
 97
        0
 97
        0
 92
        1
 93
        1
 72
     4
 94
        3
 73
     0
 74
     1
 95
       23
 96
       19
 40
0.0
 40
0.0
 40
0.0
 40
0.0
 40
1.0
 40
1.0
 40
1.0
 40
2.0
 40
2.0
 40
2.0
 40
3.0
 40
3.0
 40
3.0
 40
4.0
 40
4.0
 40
4.0
 40
5.0
 40
5.0
 40
5.0
 40
6.0
 40
6.0
 40
6.0
 40
6.0
 10
34.09199905395508
 20
57.68299865722656
 10
34.09199905395508
 20
57.68299865722656
 10
37.05099868774414
 20
59.95800018310547
 10
37.05099868774414
 20
59.95800018310547
 10
37.05099868774414
 20
59.95800018310547
 10
37.33099746704102
 20
58.625
 10
37.33099746704102
 20
58.625
 10
37.35199737548828
 20
58.52799987792969
 10
37.39999771118164
 20
58.43900299072266
 10
37.47199630737305
 20
58.37000274658203
 10
37.47199630737305
 20
58.37000274658203
 10
38.9949951171875
 20
56.88700103759766
 10
38.9949951171875
 20
56.88700103759766
 10
38.9949951171875
 20
56.88700103759766
 10
30.36700057983398
 20
44.76000213623047
 10
30.36700057983398
 20
44.76000213623047
 10
30.36700057983398
 20
44.76000213623047
 10
34.09199905395508
 20
57.68299865722656
 10
34.09199905395508
 20
57.68299865722656
 97
        0
 97
        0
 92
        1
 93
        3
 72
     1
 10
41.52799987792969
 20
50.85800170898438
 11
40.23500061035156
 21
55.67900085449219
 72
     1
 10
40.23500061035156
 20
55.67900085449219
 11
43.63399887084961
 21
52.37200164794922
 72
     1
 10
43.63399887084961
 20
52.37200164794922
 11
41.52799987792969
 21
50.85800170898438
 97
        0
 92
        1
 93
        3
 72
     1
 10
59.76399993896484
 20
55.677001953125
 11
58.47200012207031
 21
50.85800170898438
 72
     1
 10
58.47200012207031
 20
50.85800170898438
 11
56.36700057983398
 21
52.37100219726562
 72
     1
 10
56.36700057983398
 20
52.37100219726562
 11
59.76399993896484
 21
55.677001953125
 97
        0
 92
        1
 93
        1
 72
     4
 94
        3
 73
     0
 74
     1
 95
       23
 96
       19
 40
0.0
 40
0.0
 40
0.0
 40
0.0
 40
1.0
 40
1.0
 40
1.0
 40
2.0
 40
2.0
 40
2.0
 40
3.0
 40
3.0
 40
3.0
 40
4.0
 40
4.0
 40
4.0
 40
5.0
 40
5.0
 40
5.0
 40
6.0
 40
6.0
 40
6.0
 40
6.0
 10
65.90799713134766
 20
57.68299865722656
 10
65.90799713134766
 20
57.68299865722656
 10
69.63399505615234
 20
44.75999450683594
 10
69.63399505615234
 20
44.75999450683594
 10
69.63399505615234
 20
44.75999450683594
 10
61.00499725341797
 20
56.88499450683594
 10
61.00499725341797
 20
56.88499450683594
 10
61.00499725341797
 20
56.88499450683594
 10
62.52999877929688
 20
58.36899566650391
 10
62.52999877929688
 20
58.36899566650391
 10
62.60099792480469
 20
58.43799591064453
 10
62.64999771118164
 20
58.52699279785156
 10
62.67099761962891
 20
58.62399291992188
 10
62.67099761962891
 20
58.62399291992188
 10
62.95099639892578
 20
59.95699310302734
 10
62.95099639892578
 20
59.95699310302734
 10
62.95099639892578
 20
59.95699310302734
 10
65.90799713134766
 20
57.68299865722656
 10
65.90799713134766
 20
57.68299865722656
 97
        0
 97
        0
 92
        1
 93
        1
 72
     4
 94
        3
 73
     0
 74
     1
 95
       29
 96
       25
 40
0.0
 40
0.0
 40
0.0
 40
0.0
 40
1.0
 40
1.0
 40
1.0
 40
2.0
 40
2.0
 40
2.0
 40
3.0
 40
3.0
 40
3.0
 40
4.0
 40
4.0
 40
4.0
 40
5.0
 40
5.0
 40
5.0
 40
6.0
 40
6.0
 40
6.0
 40
7.0
 40
7.0
 40
7.0
 40
8.0
 40
8.0
 40
8.0
 40
8.0
 10
67.48300170898438
 20
81.76100158691406
 10
67.48300170898438
 20
81.76100158691406
 10
65.38300323486328
 20
90.16200256347656
 10
65.38300323486328
 20
90.16200256347656
 10
65.38300323486328
 20
90.16200256347656
 10
68.67300415039062
 20
91.02800369262695
 10
68.67300415039062
 20
91.02800369262695
 10
68.67300415039062
 20
91.02800369262695
 10
67.9020004272461
 20
83.09100341796875
 10
67.9020004272461
 20
83.09100341796875
 10
67.88099670410156
 20
82.86900329589844
 10
68.00900268554688
 20
82.65900421142578
 10
68.21600341796875
 20
82.5770034790039
 10
68.21600341796875
 20
82.5770034790039
 10
70.98200225830078
 20
81.48500442504883
 10
70.98200225830078
 20
81.48500442504883
 10
70.98200225830078
 20
81.48500442504883
 10
66.74000549316406
 20
77.98500442504883
 10
66.74000549316406
 20
77.98500442504883
 10
66.74000549316406
 20
77.98500442504883
 10
67.48700714111328
 20
81.53700256347656
 10
67.48700714111328
 20
81.53700256347656
 10
67.50299835205078
 20
81.61100006103516
 10
67.50199890136719
 20
81.6879997253418
 10
67.48300170898438
 20
81.76100158691406
 97
        0
 97
        0
 75
     2
 76
     1
 98
        0
  0
ENDBLK
  5
48
330
45
100
AcDbEntity
  8
0
100
AcDbBlockEnd
  0
ENDSEC
  0
SECTION
  2
ENTITIES
  0
INSERT
  5
42
330
1F
100
AcDbEntity
  8
Layer 1
100
AcDbBlockReference
  2
block 2
 10
0.0
 20
0.0
 30
0.0
  0
ENDSEC
  0
SECTION
  2
OBJECTS
  0
DICTIONARY
  5
C
330
0
100
AcDbDictionary
281
     1
  3
ACAD_GROUP
350
D
  3
ACAD_LAYOUT
350
1A
  3
ACAD_MATERIAL
350
3B
  3
ACAD_MLEADERSTYLE
350
A4
  3
ACAD_MLINESTYLE
350
17
  3
ACAD_PLOTSETTINGS
350
19
  3
ACAD_PLOTSTYLENAME
350
E
  3
ACAD_TABLESTYLE
350
A3
  3
ACAD_VISUALSTYLE
350
2A
  0
SUN
  5
3F
330
29
100
AcDbSun
 90
        1
290
     0
 63
     7
421
 16777215
 40
1.0
291
     1
 91
  2455826
 92
 54000000
292
     0
 70
     2
 71
   256
280
     1
  0
DICTIONARY
  5
D
102
{ACAD_REACTORS
330
C
102
}
330
C
100
AcDbDictionary
281
     1
  0
DICTIONARY
  5
1A
102
{ACAD_REACTORS
330
C
102
}
330
C
100
AcDbDictionary
281
     1
  3
Layout1
350
1E
  3
Layout2
350
26
  3
Model
350
22
  0
DICTIONARY
  5
3B
102
{ACAD_REACTORS
330
C
102
}
330
C
100
AcDbDictionary
281
     1
  3
ByBlock
350
3D
  3
ByLayer
350
3C
  3
Global
350
3E
  0
DICTIONARY
  5
A4
102
{ACAD_REACTORS
330
C
102
}
330
C
100
AcDbDictionary
281
     1
  0
DICTIONARY
  5
17
102
{ACAD_REACTORS
330
C
102
}
330
C
100
AcDbDictionary
281
     1
  3
Standard
350
18
  0
DICTIONARY
  5
19
102
{ACAD_REACTORS
330
C
102
}
330
C
100
AcDbDictionary
281
     1
  0
ACDBDICTIONARYWDFLT
  5
E
102
{ACAD_REACTORS
330
C
102
}
330
C
100
AcDbDictionary
281
     1
  3
Normal
350
F
100
AcDbDictionaryWithDefault
340
F
  0
DICTIONARY
  5
A3
102
{ACAD_REACTORS
330
C
102
}
330
C
100
AcDbDictionary
281
     1
  0
DICTIONARY
  5
2A
102
{ACAD_REACTORS
330
C
102
}
330
C
100
AcDbDictionary
281
     1
  3
2dWireframe
350
2F
  3
3D Hidden
350
31
  3
3dWireframe
350
30
  3
Basic
350
32
  3
Brighten
350
36
  3
ColorChange
350
3A
  3
Conceptual
350
34
  3
Dim
350
35
  3
Facepattern
350
39
  3
Flat
350
2B
  3
FlatWithEdges
350
2C
  3
Gouraud
350
2D
  3
GouraudWithEdges
350
2E
  3
Linepattern
350
38
  3
Realistic
350
33
  3
Thicken
350
37
  0
LAYOUT
  5
1E
102
{ACAD_REACTORS
330
1A
102
}
330
1A
100
AcDbPlotSettings
  1

  2
none_device
  4

  6

 40
0.0
 41
0.0
 42
0.0
 43
0.0
 44
0.0
 45
0.0
 46
0.0
 47
0.0
 48
0.0
 49
0.0
140
0.0
141
0.0
142
1.0
143
1.0
 70
   688
 72
     0
 73
     0
 74
     5
  7

 75
    16
 76
     0
 77
     2
 78
   300
147
1.0
148
0.0
149
0.0
100
AcDbLayout
  1
Layout1
 70
     1
 71
     1
 10
0.0
 20
0.0
 11
12.0
 21
9.0
 12
0.0
 22
0.0
 32
0.0
 14
1.000000000000000E+20
 24
1.000000000000000E+20
 34
1.000000000000000E+20
 15
-1.000000000000000E+20
 25
-1.000000000000000E+20
 35
-1.000000000000000E+20
146
0.0
 13
0.0
 23
0.0
 33
0.0
 16
1.0
 26
0.0
 36
0.0
 17
0.0
 27
1.0
 37
0.0
 76
     0
330
1B
  0
LAYOUT
  5
26
102
{ACAD_REACTORS
330
1A
102
}
330
1A
100
AcDbPlotSettings
  1

  2
none_device
  4

  6

 40
0.0
 41
0.0
 42
0.0
 43
0.0
 44
0.0
 45
0.0
 46
0.0
 47
0.0
 48
0.0
 49
0.0
140
0.0
141
0.0
142
1.0
143
1.0
 70
   688
 72
     0
 73
     0
 74
     5
  7

 75
    16
 76
     0
 77
     2
 78
   300
147
1.0
148
0.0
149
0.0
100
AcDbLayout
  1
Layout2
 70
     1
 71
     2
 10
0.0
 20
0.0
 11
0.0
 21
0.0
 12
0.0
 22
0.0
 32
0.0
 14
0.0
 24
0.0
 34
0.0
 15
0.0
 25
0.0
 35
0.0
146
0.0
 13
0.0
 23
0.0
 33
0.0
 16
1.0
 26
0.0
 36
0.0
 17
0.0
 27
1.0
 37
0.0
 76
     0
330
23
  0
LAYOUT
  5
22
102
{ACAD_REACTORS
330
1A
102
}
330
1A
100
AcDbPlotSettings
  1

  2
none_device
  4

  6

 40
0.0
 41
0.0
 42
0.0
 43
0.0
 44
0.0
 45
0.0
 46
0.0
 47
0.0
 48
0.0
 49
0.0
140
0.0
141
0.0
142
1.0
143
1.0
 70
  1712
 72
     0
 73
     0
 74
     0
  7

 75
     0
 76
     0
 77
     2
 78
   300
147
1.0
148
0.0
149
0.0
100
AcDbLayout
  1
Model
 70
     1
 71
     0
 10
0.0
 20
0.0
 11
12.0
 21
9.0
 12
0.0
 22
0.0
 32
0.0
 14
1.000000000000000E+20
 24
1.000000000000000E+20
 34
1.000000000000000E+20
 15
-1.000000000000000E+20
 25
-1.000000000000000E+20
 35
-1.000000000000000E+20
146
0.0
 13
0.0
 23
0.0
 33
0.0
 16
1.0
 26
0.0
 36
0.0
 17
0.0
 27
1.0
 37
0.0
 76
     0
330
1F
331
29
  0
MATERIAL
  5
3D
102
{ACAD_REACTORS
330
3B
102
}
330
3B
100
AcDbMaterial
  1
ByBlock
 72
     1
 94
      127
  0
MATERIAL
  5
3C
102
{ACAD_REACTORS
330
3B
102
}
330
3B
100
AcDbMaterial
  1
ByLayer
 72
     1
 94
      127
  0
MATERIAL
  5
3E
102
{ACAD_REACTORS
330
3B
102
}
330
3B
100
AcDbMaterial
  1
Global
 72
     1
 94
      127
  0
MLINESTYLE
  5
18
102
{ACAD_REACTORS
330
17
102
}
330
17
100
AcDbMlineStyle
  2
Standard
 70
     0
  3

 62
   256
 51
90.0
 52
90.0
 71
     2
 49
0.5
 62
   256
  6
BYLAYER
 49
-0.5
 62
   256
  6
BYLAYER
  0
ACDBPLACEHOLDER
  5
F
102
{ACAD_REACTORS
330
E
102
}
330
E
  0
VISUALSTYLE
  5
2F
102
{ACAD_REACTORS
330
2A
102
}
330
2A
100
AcDbVisualStyle
  2
2dWireframe
 70
     4
177
     2
291
     0
 71
     0
176
     1
 72
     2
176
     1
 73
     0
176
     1
 90
        0
176
     1
 40
-0.6
176
     1
 41
-30.0
176
     1
 62
     5
 63
     7
421
 16777215
176
     1
 74
     1
176
     1
 91
        4
176
     1
 64
     7
176
     1
 65
   257
176
     1
 75
     1
176
     1
175
     1
176
     1
 42
1.0
176
     1
 92
        0
176
     1
 66
   257
176
     1
 43
1.0
176
     1
 76
     1
176
     1
 77
     6
176
     1
 78
     2
176
     1
 67
     7
176
     1
 79
     5
176
     1
170
     0
176
     1
171
     0
176
     1
290
     0
176
     1
 93
        1
176
     1
 44
0.0
176
     1
173
     0
176
     1
  0
VISUALSTYLE
  5
31
102
{ACAD_REACTORS
330
2A
102
}
330
2A
100
AcDbVisualStyle
  2
3D Hidden
 70
     6
177
     2
291
     0
 71
     1
176
     1
 72
     2
176
     1
 73
     2
176
     1
 90
        0
176
     1
 40
-0.6
176
     1
 41
-30.0
176
     1
 62
     5
 63
     7
421
 16777215
176
     1
 74
     2
176
     1
 91
        2
176
     1
 64
     7
176
     1
 65
   257
176
     1
 75
     2
176
     1
175
     1
176
     1
 42
40.0
176
     1
 92
        0
176
     1
 66
   257
176
     1
 43
1.0
176
     1
 76
     1
176
     1
 77
     6
176
     1
 78
     2
176
     1
 67
     7
176
     1
 79
     3
176
     1
170
     0
176
     1
171
     0
176
     1
290
     0
176
     1
 93
        1
176
     1
 44
0.0
176
     1
173
     0
176
     1
  0
VISUALSTYLE
  5
30
102
{ACAD_REACTORS
330
2A
102
}
330
2A
100
AcDbVisualStyle
  2
3dWireframe
 70
     5
177
     2
291
     0
 71
     0
176
     1
 72
     2
176
     1
 73
     0
176
     1
 90
        0
176
     1
 40
-0.6
176
     1
 41
-30.0
176
     1
 62
     5
 63
     7
421
 16777215
176
     1
 74
     1
176
     1
 91
        4
176
     1
 64
     7
176
     1
 65
   257
176
     1
 75
     1
176
     1
175
     1
176
     1
 42
1.0
176
     1
 92
        0
176
     1
 66
   257
176
     1
 43
1.0
176
     1
 76
     1
176
     1
 77
     6
176
     1
 78
     2
176
     1
 67
     7
176
     1
 79
     5
176
     1
170
     0
176
     1
171
     0
176
     1
290
     0
176
     1
 93
        1
176
     1
 44
0.0
176
     1
173
     0
176
     1
  0
VISUALSTYLE
  5
32
102
{ACAD_REACTORS
330
2A
102
}
330
2A
100
AcDbVisualStyle
  2
Basic
 70
     7
177
     2
291
     1
 71
     1
176
     1
 72
     0
176
     1
 73
     1
176
     1
 90
        0
176
     1
 40
-0.6
176
     1
 41
-30.0
176
     1
 62
     5
 63
     7
421
 16777215
176
     1
 74
     0
176
     1
 91
        4
176
     1
 64
     7
176
     1
 65
   257
176
     1
 75
     1
176
     1
175
     1
176
     1
 42
1.0
176
     1
 92
        8
176
     1
 66
     7
176
     1
 43
1.0
176
     1
 76
     1
176
     1
 77
     6
176
     1
 78
     2
176
     1
 67
     7
176
     1
 79
     5
176
     1
170
     0
176
     1
171
     0
176
     1
290
     0
176
     1
 93
        1
176
     1
 44
0.0
176
     1
173
     0
176
     1
  0
VISUALSTYLE
  5
36
102
{ACAD_REACTORS
330
2A
102
}
330
2A
100
AcDbVisualStyle
  2
Brighten
 70
    12
177
     2
291
     1
 71
     2
176
     1
 72
     2
176
     1
 73
     0
176
     1
 90
        0
176
     1
 40
-0.6
176
     1
 41
-30.0
176
     1
 62
     5
 63
     7
421
 16777215
176
     1
 74
     1
176
     1
 91
        4
176
     1
 64
     7
176
     1
 65
   257
176
     1
 75
     1
176
     1
175
     1
176
     1
 42
1.0
176
     1
 92
        8
176
     1
 66
     7
176
     1
 43
1.0
176
     1
 76
     1
176
     1
 77
     6
176
     1
 78
     2
176
     1
 67
     7
176
     1
 79
     5
176
     1
170
     0
176
     1
171
     0
176
     1
290
     0
176
     1
 93
        1
176
     1
 44
50.0
176
     1
173
     0
176
     1
  0
VISUALSTYLE
  5
3A
102
{ACAD_REACTORS
330
2A
102
}
330
2A
100
AcDbVisualStyle
  2
ColorChange
 70
    16
177
     2
291
     1
 71
     2
176
     1
 72
     2
176
     1
 73
     3
176
     1
 90
        0
176
     1
 40
-0.6
176
     1
 41
-30.0
176
     1
 62
     5
 63
     8
421
  8421504
176
     1
 74
     1
176
     1
 91
        4
176
     1
 64
     7
176
     1
 65
   257
176
     1
 75
     1
176
     1
175
     1
176
     1
 42
1.0
176
     1
 92
        8
176
     1
 66
     8
424
  8421504
176
     1
 43
1.0
176
     1
 76
     1
176
     1
 77
     6
176
     1
 78
     2
176
     1
 67
     7
176
     1
 79
     5
176
     1
170
     0
176
     1
171
     0
176
     1
290
     0
176
     1
 93
        1
176
     1
 44
0.0
176
     1
173
     0
176
     1
  0
VISUALSTYLE
  5
34
102
{ACAD_REACTORS
330
2A
102
}
330
2A
100
AcDbVisualStyle
  2
Conceptual
 70
     9
177
     2
291
     0
 71
     3
176
     1
 72
     2
176
     1
 73
     0
176
     1
 90
        0
176
     1
 40
-0.6
176
     1
 41
-30.0
176
     1
 62
     5
 63
     7
421
 16777215
176
     1
 74
     2
176
     1
 91
        2
176
     1
 64
     7
176
     1
 65
   257
176
     1
 75
     1
176
     1
175
     1
176
     1
 42
40.0
176
     1
 92
        8
176
     1
 66
     7
176
     1
 43
1.0
176
     1
 76
     1
176
     1
 77
     6
176
     1
 78
     2
176
     1
 67
     7
176
     1
 79
     3
176
     1
170
     0
176
     1
171
     0
176
     1
290
     0
176
     1
 93
        1
176
     1
 44
0.0
176
     1
173
     0
176
     1
  0
VISUALSTYLE
  5
35
102
{ACAD_REACTORS
330
2A
102
}
330
2A
100
AcDbVisualStyle
  2
Dim
 70
    11
177
     2
291
     1
 71
     2
176
     1
 72
     2
176
     1
 73
     0
176
     1
 90
        0
176
     1
 40
-0.6
176
     1
 41
-30.0
176
     1
 62
     5
 63
     7
421
 16777215
176
     1
 74
     1
176
     1
 91
        4
176
     1
 64
     7
176
     1
 65
   257
176
     1
 75
     1
176
     1
175
     1
176
     1
 42
1.0
176
     1
 92
        8
176
     1
 66
     7
176
     1
 43
1.0
176
     1
 76
     1
176
     1
 77
     6
176
     1
 78
     2
176
     1
 67
     7
176
     1
 79
     5
176
     1
170
     0
176
     1
171
     0
176
     1
290
     0
176
     1
 93
        1
176
     1
 44
-50.0
176
     1
173
     0
176
     1
  0
VISUALSTYLE
  5
39
102
{ACAD_REACTORS
330
2A
102
}
330
2A
100
AcDbVisualStyle
  2
Facepattern
 70
    15
177
     2
291
     1
 71
     2
176
     1
 72
     2
176
     1
 73
     0
176
     1
 90
        0
176
     1
 40
-0.6
176
     1
 41
-30.0
176
     1
 62
     5
 63
     7
421
 16777215
176
     1
 74
     1
176
     1
 91
        4
176
     1
 64
     7
176
     1
 65
   257
176
     1
 75
     1
176
     1
175
     1
176
     1
 42
1.0
176
     1
 92
        8
176
     1
 66
     7
176
     1
 43
1.0
176
     1
 76
     1
176
     1
 77
     6
176
     1
 78
     2
176
     1
 67
     7
176
     1
 79
     5
176
     1
170
     0
176
     1
171
     0
176
     1
290
     0
176
     1
 93
        1
176
     1
 44
0.0
176
     1
173
     0
176
     1
  0
VISUALSTYLE
  5
2B
102
{ACAD_REACTORS
330
2A
102
}
330
2A
100
AcDbVisualStyle
  2
Flat
 70
     0
177
     2
291
     1
 71
     2
176
     1
 72
     1
176
     1
 73
     1
176
     1
 90
        2
176
     1
 40
-0.6
176
     1
 41
30.0
176
     1
 62
     5
 63
     7
421
 16777215
176
     1
 74
     0
176
     1
 91
        4
176
     1
 64
     7
176
     1
 65
   257
176
     1
 75
     1
176
     1
175
     1
176
     1
 42
1.0
176
     1
 92
        8
176
     1
 66
     7
176
     1
 43
1.0
176
     1
 76
     1
176
     1
 77
     6
176
     1
 78
     2
176
     1
 67
     7
176
     1
 79
     5
176
     1
170
     0
176
     1
171
     0
176
     1
290
     0
176
     1
 93
       13
176
     1
 44
0.0
176
     1
173
     0
176
     1
  0
VISUALSTYLE
  5
2C
102
{ACAD_REACTORS
330
2A
102
}
330
2A
100
AcDbVisualStyle
  2
FlatWithEdges
 70
     1
177
     2
291
     1
 71
     2
176
     1
 72
     1
176
     1
 73
     1
176
     1
 90
        2
176
     1
 40
-0.6
176
     1
 41
30.0
176
     1
 62
     5
 63
     7
421
 16777215
176
     1
 74
     1
176
     1
 91
        4
176
     1
 64
     7
176
     1
 65
   257
176
     1
 75
     1
176
     1
175
     1
176
     1
 42
1.0
176
     1
 92
        0
176
     1
 66
   257
176
     1
 43
1.0
176
     1
 76
     1
176
     1
 77
     6
176
     1
 78
     2
176
     1
 67
     7
176
     1
 79
     5
176
     1
170
     0
176
     1
171
     0
176
     1
290
     0
176
     1
 93
       13
176
     1
 44
0.0
176
     1
173
     0
176
     1
  0
VISUALSTYLE
  5
2D
102
{ACAD_REACTORS
330
2A
102
}
330
2A
100
AcDbVisualStyle
  2
Gouraud
 70
     2
177
     2
291
     1
 71
     2
176
     1
 72
     2
176
     1
 73
     1
176
     1
 90
        2
176
     1
 40
-0.6
176
     1
 41
30.0
176
     1
 62
     5
 63
     7
421
 16777215
176
     1
 74
     0
176
     1
 91
        4
176
     1
 64
     7
176
     1
 65
   257
176
     1
 75
     1
176
     1
175
     1
176
     1
 42
1.0
176
     1
 92
        0
176
     1
 66
     7
176
     1
 43
1.0
176
     1
 76
     1
176
     1
 77
     6
176
     1
 78
     2
176
     1
 67
     7
176
     1
 79
     5
176
     1
170
     0
176
     1
171
     0
176
     1
290
     0
176
     1
 93
       13
176
     1
 44
0.0
176
     1
173
     0
176
     1
  0
VISUALSTYLE
  5
2E
102
{ACAD_REACTORS
330
2A
102
}
330
2A
100
AcDbVisualStyle
  2
GouraudWithEdges
 70
     3
177
     2
291
     1
 71
     2
176
     1
 72
     2
176
     1
 73
     1
176
     1
 90
        2
176
     1
 40
-0.6
176
     1
 41
30.0
176
     1
 62
     5
 63
     7
421
 16777215
176
     1
 74
     1
176
     1
 91
        4
176
     1
 64
     7
176
     1
 65
   257
176
     1
 75
     1
176
     1
175
     1
176
     1
 42
1.0
176
     1
 92
        0
176
     1
 66
   257
176
     1
 43
1.0
176
     1
 76
     1
176
     1
 77
     6
176
     1
 78
     2
176
     1
 67
     7
176
     1
 79
     5
176
     1
170
     0
176
     1
171
     0
176
     1
290
     0
176
     1
 93
       13
176
     1
 44
0.0
176
     1
173
     0
176
     1
  0
VISUALSTYLE
  5
38
102
{ACAD_REACTORS
330
2A
102
}
330
2A
100
AcDbVisualStyle
  2
Linepattern
 70
    14
177
     2
291
     1
 71
     2
176
     1
 72
     2
176
     1
 73
     0
176
     1
 90
        0
176
     1
 40
-0.6
176
     1
 41
-30.0
176
     1
 62
     5
 63
     7
421
 16777215
176
     1
 74
     1
176
     1
 91
        4
176
     1
 64
     7
176
     1
 65
   257
176
     1
 75
     7
176
     1
175
     7
176
     1
 42
1.0
176
     1
 92
        8
176
     1
 66
     7
176
     1
 43
1.0
176
     1
 76
     1
176
     1
 77
     6
176
     1
 78
     2
176
     1
 67
     7
176
     1
 79
     5
176
     1
170
     0
176
     1
171
     0
176
     1
290
     0
176
     1
 93
        1
176
     1
 44
0.0
176
     1
173
     0
176
     1
  0
VISUALSTYLE
  5
33
102
{ACAD_REACTORS
330
2A
102
}
330
2A
100
AcDbVisualStyle
  2
Realistic
 70
     8
177
     2
291
     0
 71
     2
176
     1
 72
     2
176
     1
 73
     0
176
     1
 90
        0
176
     1
 40
-0.6
176
     1
 41
-30.0
176
     1
 62
     5
 63
     7
421
 16777215
176
     1
 74
     1
176
     1
 91
        0
176
     1
 64
     7
176
     1
 65
   257
176
     1
 75
     1
176
     1
175
     1
176
     1
 42
1.0
176
     1
 92
        8
176
     1
 66
     8
424
  7895160
176
     1
 43
1.0
176
     1
 76
     1
176
     1
 77
     6
176
     1
 78
     2
176
     1
 67
     7
176
     1
 79
     5
176
     1
170
     0
176
     1
171
     0
176
     1
290
     0
176
     1
 93
       13
176
     1
 44
0.0
176
     1
173
     0
176
     1
  0
VISUALSTYLE
  5
37
102
{ACAD_REACTORS
330
2A
102
}
330
2A
100
AcDbVisualStyle
  2
Thicken
 70
    13
177
     2
291
     1
 71
     2
176
     1
 72
     2
176
     1
 73
     0
176
     1
 90
        0
176
     1
 40
-0.6
176
     1
 41
-30.0
176
     1
 62
     5
 63
     7
421
 16777215
176
     1
 74
     1
176
     1
 91
        4
176
     1
 64
     7
176
     1
 65
   257
176
     1
 75
     1
176
     1
175
     1
176
     1
 42
1.0
176
     1
 92
       12
176
     1
 66
     7
176
     1
 43
1.0
176
     1
 76
     1
176
     1
 77
     6
176
     1
 78
     2
176
     1
 67
     7
176
     1
 79
     5
176
     1
170
     0
176
     1
171
     0
176
     1
290
     0
176
     1
 93
        1
176
     1
 44
0.0
176
     1
173
     0
176
     1
  0
ENDSEC
  0
EOF
