<?xml version="1.0" encoding="utf-8"?>
<!-- Generator: Adobe Illustrator 19.2.1, SVG Export Plug-In . SVG Version: 6.00 Build 0)  -->
<svg version="1.1" id="Layer_1" xmlns="http://www.w3.org/2000/svg" xmlns:xlink="http://www.w3.org/1999/xlink" x="0px" y="0px"
	 viewBox="0 0 100 125" style="enable-background:new 0 0 100 125;" xml:space="preserve">
<path d="M92.1,41l-0.4-10.4c0-0.2-0.1-0.3-0.2-0.4L80.4,17.9c-0.1-0.1-0.2-0.2-0.4-0.2l-14.8-3.1c0,0,0,0,0,0c0,0,0,0-0.1,0
	c0,0,0,0-0.1,0c0,0,0,0,0,0c-0.1,0-0.1,0-0.1,0c0,0,0,0,0,0c0,0,0,0-0.1,0c0,0,0,0,0,0l-3.3,1.6c0,0-0.1,0-0.1,0.1L37.5,32.7
	L21.3,12c-0.1-0.2-0.3-0.2-0.5-0.3l-5.2-0.5c-0.2,0-0.5,0.1-0.6,0.2c-0.2,0.2-0.2,0.4-0.1,0.6l3.7,14L8.1,35.6
	c-0.2,0.2-0.3,0.5-0.2,0.8s0.4,0.5,0.7,0.5l7.7,0.2c0,0,0,0,0,0c0.1,0,0.2,0,0.3-0.1L27,32.3l2.2,6.7c0,0.1,0.1,0.2,0.1,0.2
	c0,0,0,0,0,0c0,0,0,0,0,0l3.9,4.8c0.1,0.2,0.3,0.3,0.5,0.3l11.7,0.3l-3.3,9.1c-0.1,0.3,0,0.6,0.2,0.8c0.1,0.1,0.3,0.2,0.5,0.2
	c0.1,0,0.2,0,0.3-0.1l21.1-9.7l6.4,2.6c0,0,0.1,0,0.1,0c0,0,0.1,0,0.1,0l10.1,0.7c0,0,0,0,0.1,0h7c0.4,0,0.7-0.3,0.7-0.6l0.5-4.3
	l2.7-1.7C92,41.5,92.1,41.3,92.1,41z M84.3,24.3L72.5,37.4l-6.3-21.2L79.5,19L84.3,24.3z M65.7,19.6l5.7,19.2l-1.1,7l-5.4-2.2
	L65.7,19.6z M20.3,13.1l11.5,14.6l-11.8-2l-3.5-13L20.3,13.1z M16.1,35.6l-5.7-0.1l9.2-8.3L31,29L16.1,35.6z M28.3,31.8l5-2.2
	l3.1,3.9l-6.1,4.2L28.3,31.8z M30.9,39l31.2-21.5l2.2-1.1l-0.9,26.2l-8.7-7.8c-0.3-0.3-0.7-0.2-1,0l-7.8,8.4l-12-0.3L30.9,39z
	 M47,44.4l7.4-8l8.5,7.6L44,52.7L47,44.4z M87.3,46.8h-3.9l4.1-2.6L87.3,46.8z M80.7,46.8l-9.1-0.6l1.1-7.1l12.4-13.8l5,5.6l0.4,9.7
	L80.7,46.8z"/>
</svg>
