  0
SECTION
  2
HEADER
  9
$ACADVER
  1
AC1024
  9
$ACADMAINTVER
 70
     6
  9
$DWGCODEPAGE
  3
UNDEFINED
  9
$INSBASE
 10
0.0
 20
0.0
 30
0.0
  9
$EXTMIN
 10
1.000000000000000E+20
 20
1.000000000000000E+20
 30
1.000000000000000E+20
  9
$EXTMAX
 10
-1.000000000000000E+20
 20
-1.000000000000000E+20
 30
-1.000000000000000E+20
  9
$LIMMIN
 10
0.0
 20
0.0
  9
$LIMMAX
 10
12.0
 20
9.0
  9
$ORTHOMODE
 70
     0
  9
$REGENMODE
 70
     1
  9
$FILLMODE
 70
     1
  9
$QTEXTMODE
 70
     0
  9
$MIRRTEXT
 70
     1
  9
$LTSCALE
 40
1.0
  9
$ATTMODE
 70
     1
  9
$TEXTSIZE
 40
0.2
  9
$TRACEWID
 40
0.05
  9
$TEXTSTYLE
  7
Standard
  9
$CLAYER
  8
0
  9
$CELTYPE
  6
ByLayer
  9
$CECOLOR
 62
   256
  9
$CELTSCALE
 40
1.0
  9
$DISPSILH
 70
     0
  9
$DIMSCALE
 40
1.0
  9
$DIMASZ
 40
0.18
  9
$DIMEXO
 40
0.0625
  9
$DIMDLI
 40
0.38
  9
$DIMRND
 40
0.0
  9
$DIMDLE
 40
0.0
  9
$DIMEXE
 40
0.18
  9
$DIMTP
 40
0.0
  9
$DIMTM
 40
0.0
  9
$DIMTXT
 40
0.18
  9
$DIMCEN
 40
0.09
  9
$DIMTSZ
 40
0.0
  9
$DIMTOL
 70
     0
  9
$DIMLIM
 70
     0
  9
$DIMTIH
 70
     1
  9
$DIMTOH
 70
     1
  9
$DIMSE1
 70
     0
  9
$DIMSE2
 70
     0
  9
$DIMTAD
 70
     0
  9
$DIMZIN
 70
     0
  9
$DIMBLK
  1

  9
$DIMASO
 70
     1
  9
$DIMSHO
 70
     1
  9
$DIMPOST
  1

  9
$DIMAPOST
  1

  9
$DIMALT
 70
     0
  9
$DIMALTD
 70
     2
  9
$DIMALTF
 40
25.4
  9
$DIMLFAC
 40
1.0
  9
$DIMTOFL
 70
     0
  9
$DIMTVP
 40
0.0
  9
$DIMTIX
 70
     0
  9
$DIMSOXD
 70
     0
  9
$DIMSAH
 70
     0
  9
$DIMBLK1
  1

  9
$DIMBLK2
  1

  9
$DIMSTYLE
  2
Standard
  9
$DIMCLRD
 70
     0
  9
$DIMCLRE
 70
     0
  9
$DIMCLRT
 70
     0
  9
$DIMTFAC
 40
1.0
  9
$DIMGAP
 40
0.09
  9
$DIMJUST
 70
     0
  9
$DIMSD1
 70
     0
  9
$DIMSD2
 70
     0
  9
$DIMTOLJ
 70
     1
  9
$DIMTZIN
 70
     0
  9
$DIMALTZ
 70
     0
  9
$DIMALTTZ
 70
     0
  9
$DIMUPT
 70
     0
  9
$DIMDEC
 70
     4
  9
$DIMTDEC
 70
     4
  9
$DIMALTU
 70
     2
  9
$DIMALTTD
 70
     2
  9
$DIMTXSTY
  7
Standard
  9
$DIMAUNIT
 70
     0
  9
$DIMADEC
 70
     0
  9
$DIMALTRND
 40
0.0
  9
$DIMAZIN
 70
     0
  9
$DIMDSEP
 70
    46
  9
$DIMATFIT
 70
     3
  9
$DIMFRAC
 70
     0
  9
$DIMLDRBLK
  1

  9
$DIMLUNIT
 70
     2
  9
$DIMLWD
 70
    -2
  9
$DIMLWE
 70
    -2
  9
$DIMTMOVE
 70
     0
  9
$DIMFXL
 40
1.0
  9
$DIMFXLON
 70
     0
  9
$DIMJOGANG
 40
0.7853981633974483
  9
$DIMTFILL
 70
     0
  9
$DIMTFILLCLR
 70
     0
  9
$DIMARCSYM
 70
     0
  9
$DIMLTYPE
  6

  9
$DIMLTEX1
  6

  9
$DIMLTEX2
  6

  9
$DIMTXTDIRECTION
 70
     0
  9
$LUNITS
 70
     2
  9
$LUPREC
 70
     4
  9
$SKETCHINC
 40
0.1
  9
$FILLETRAD
 40
0.5
  9
$AUNITS
 70
     0
  9
$AUPREC
 70
     0
  9
$MENU
  1
.
  9
$ELEVATION
 40
0.0
  9
$PELEVATION
 40
0.0
  9
$THICKNESS
 40
0.0
  9
$LIMCHECK
 70
     0
  9
$CHAMFERA
 40
0.5
  9
$CHAMFERB
 40
0.5
  9
$CHAMFERC
 40
1.0
  9
$CHAMFERD
 40
0.0
  9
$SKPOLY
 70
     0
  9
$TDCREATE
 40
2457525.607881933
  9
$TDUCREATE
 40
2457525.816215278
  9
$TDUPDATE
 40
2457525.607881933
  9
$TDUUPDATE
 40
2457525.816215278
  9
$TDINDWG
 40
0.0000000116
  9
$TDUSRTIMER
 40
0.0000000116
  9
$USRTIMER
 70
     1
  9
$ANGBASE
 50
0.0
  9
$ANGDIR
 70
     0
  9
$PDMODE
 70
     0
  9
$PDSIZE
 40
0.0
  9
$PLINEWID
 40
0.0
  9
$SPLFRAME
 70
     0
  9
$SPLINETYPE
 70
     6
  9
$SPLINESEGS
 70
     8
  9
$HANDSEED
  5
7F
  9
$SURFTAB1
 70
     6
  9
$SURFTAB2
 70
     6
  9
$SURFTYPE
 70
     6
  9
$SURFU
 70
     6
  9
$SURFV
 70
     6
  9
$UCSBASE
  2

  9
$UCSNAME
  2

  9
$UCSORG
 10
0.0
 20
0.0
 30
0.0
  9
$UCSXDIR
 10
1.0
 20
0.0
 30
0.0
  9
$UCSYDIR
 10
0.0
 20
1.0
 30
0.0
  9
$UCSORTHOREF
  2

  9
$UCSORTHOVIEW
 70
     0
  9
$UCSORGTOP
 10
0.0
 20
0.0
 30
0.0
  9
$UCSORGBOTTOM
 10
0.0
 20
0.0
 30
0.0
  9
$UCSORGLEFT
 10
0.0
 20
0.0
 30
0.0
  9
$UCSORGRIGHT
 10
0.0
 20
0.0
 30
0.0
  9
$UCSORGFRONT
 10
0.0
 20
0.0
 30
0.0
  9
$UCSORGBACK
 10
0.0
 20
0.0
 30
0.0
  9
$PUCSBASE
  2

  9
$PUCSNAME
  2

  9
$PUCSORG
 10
0.0
 20
0.0
 30
0.0
  9
$PUCSXDIR
 10
1.0
 20
0.0
 30
0.0
  9
$PUCSYDIR
 10
0.0
 20
1.0
 30
0.0
  9
$PUCSORTHOREF
  2

  9
$PUCSORTHOVIEW
 70
     0
  9
$PUCSORGTOP
 10
0.0
 20
0.0
 30
0.0
  9
$PUCSORGBOTTOM
 10
0.0
 20
0.0
 30
0.0
  9
$PUCSORGLEFT
 10
0.0
 20
0.0
 30
0.0
  9
$PUCSORGRIGHT
 10
0.0
 20
0.0
 30
0.0
  9
$PUCSORGFRONT
 10
0.0
 20
0.0
 30
0.0
  9
$PUCSORGBACK
 10
0.0
 20
0.0
 30
0.0
  9
$USERI1
 70
     0
  9
$USERI2
 70
     0
  9
$USERI3
 70
     0
  9
$USERI4
 70
     0
  9
$USERI5
 70
     0
  9
$USERR1
 40
0.0
  9
$USERR2
 40
0.0
  9
$USERR3
 40
0.0
  9
$USERR4
 40
0.0
  9
$USERR5
 40
0.0
  9
$WORLDVIEW
 70
     1
  9
$SHADEDGE
 70
     3
  9
$SHADEDIF
 70
    70
  9
$TILEMODE
 70
     1
  9
$MAXACTVP
 70
    64
  9
$PINSBASE
 10
0.0
 20
0.0
 30
0.0
  9
$PLIMCHECK
 70
     0
  9
$PEXTMIN
 10
1.000000000000000E+20
 20
1.000000000000000E+20
 30
1.000000000000000E+20
  9
$PEXTMAX
 10
-1.000000000000000E+20
 20
-1.000000000000000E+20
 30
-1.000000000000000E+20
  9
$PLIMMIN
 10
0.0
 20
0.0
  9
$PLIMMAX
 10
12.0
 20
9.0
  9
$UNITMODE
 70
     0
  9
$VISRETAIN
 70
     1
  9
$PLINEGEN
 70
     0
  9
$PSLTSCALE
 70
     1
  9
$TREEDEPTH
 70
  3020
  9
$CMLSTYLE
  2
Standard
  9
$CMLJUST
 70
     0
  9
$CMLSCALE
 40
1.0
  9
$PROXYGRAPHICS
 70
     1
  9
$MEASUREMENT
 70
     0
  9
$CELWEIGHT
370
    -1
  9
$ENDCAPS
280
     0
  9
$JOINSTYLE
280
     0
  9
$LWDISPLAY
290
     1
  9
$INSUNITS
 70
     1
  9
$HYPERLINKBASE
  1

  9
$STYLESHEET
  1

  9
$XEDIT
290
     1
  9
$CEPSNTYPE
380
     0
  9
$PSTYLEMODE
290
     1
  9
$FINGERPRINTGUID
  2
{CC3E8578-1DE0-B39C-4D72-A6A73DD99C05}
  9
$VERSIONGUID
  2
{FAEB1C32-E019-11D5-929B-00C0DF256EC4}
  9
$EXTNAMES
290
     1
  9
$PSVPSCALE
 40
0.0
  9
$OLESTARTUP
290
     0
  9
$SORTENTS
280
   127
  9
$INDEXCTL
280
     0
  9
$HIDETEXT
280
     1
  9
$XCLIPFRAME
280
     2
  9
$HALOGAP
280
     0
  9
$OBSCOLOR
 70
   257
  9
$OBSLTYPE
280
     0
  9
$INTERSECTIONDISPLAY
280
     0
  9
$INTERSECTIONCOLOR
 70
   257
  9
$DIMASSOC
280
     2
  9
$PROJECTNAME
  1

  9
$CAMERADISPLAY
290
     0
  9
$LENSLENGTH
 40
50.0
  9
$CAMERAHEIGHT
 40
0.0
  9
$STEPSPERSEC
 40
2.0
  9
$STEPSIZE
 40
6.0
  9
$3DDWFPREC
 40
2.0
  9
$PSOLWIDTH
 40
0.25
  9
$PSOLHEIGHT
 40
4.0
  9
$LOFTANG1
 40
1.570796326794897
  9
$LOFTANG2
 40
1.570796326794897
  9
$LOFTMAG1
 40
0.0
  9
$LOFTMAG2
 40
0.0
  9
$LOFTPARAM
 70
     7
  9
$LOFTNORMALS
280
     1
  9
$LATITUDE
 40
37.795
  9
$LONGITUDE
 40
-122.394
  9
$NORTHDIRECTION
 40
0.0
  9
$TIMEZONE
 70
 -8000
  9
$LIGHTGLYPHDISPLAY
280
     1
  9
$TILEMODELIGHTSYNCH
280
     1
  9
$CMATERIAL
347
3C
  9
$SOLIDHIST
280
     1
  9
$SHOWHIST
280
     1
  9
$DWFFRAME
280
     2
  9
$DGNFRAME
280
     2
  9
$REALWORLDSCALE
290
     1
  9
$INTERFERECOLOR
 62
   256
  9
$CSHADOW
280
     0
  9
$SHADOWPLANELOCATION
 40
0.0
  0
ENDSEC
  0
SECTION
  2
CLASSES
  0
CLASS
  1
ACDBDICTIONARYWDFLT
  2
AcDbDictionaryWithDefault
  3
ObjectDBX Classes
 90
        0
 91
        4
280
     0
281
     0
  0
CLASS
  1
VISUALSTYLE
  2
AcDbVisualStyle
  3
ObjectDBX Classes
 90
     4095
 91
        4
280
     0
281
     0
  0
CLASS
  1
MATERIAL
  2
AcDbMaterial
  3
ObjectDBX Classes
 90
     1153
 91
        4
280
     0
281
     0
  0
CLASS
  1
SUN
  2
AcDbSun
  3
SCENEOE
 90
     1024
 91
        4
280
     0
281
     0
  0
ENDSEC
  0
SECTION
  2
TABLES
  0
TABLE
  2
VPORT
  5
8
330
0
100
AcDbSymbolTable
 70
     1
  0
VPORT
  5
29
330
8
100
AcDbSymbolTableRecord
100
AcDbViewportTableRecord
  2
*Active
 70
     0
 10
0.0
 20
0.0
 11
1.0
 21
1.0
 12
0.0
 22
0.0
 13
0.0
 23
0.0
 14
0.5
 24
0.5
 15
0.5
 25
0.5
 16
0.0
 26
0.0
 36
1.0
 17
50.0
 27
62.5
 37
0.0
 40
125.0
 41
0.8
 42
50.0
 43
0.0
 44
0.0
 50
0.0
 51
0.0
 71
     0
 72
   100
 73
     1
 74
     3
 75
     0
 76
     0
 77
     0
 78
     0
281
     0
 65
     1
110
0.0
120
0.0
130
0.0
111
1.0
121
0.0
131
0.0
112
0.0
122
1.0
132
0.0
 79
     0
146
0.0
 60
     3
 61
     5
292
     1
282
     1
141
0.0
142
0.0
 63
   250
361
3F
  0
ENDTAB
  0
TABLE
  2
LTYPE
  5
5
330
0
100
AcDbSymbolTable
 70
     1
  0
LTYPE
  5
14
330
5
100
AcDbSymbolTableRecord
100
AcDbLinetypeTableRecord
  2
ByBlock
 70
     0
  3

 72
    65
 73
     0
 40
0.0
  0
LTYPE
  5
15
330
5
100
AcDbSymbolTableRecord
100
AcDbLinetypeTableRecord
  2
ByLayer
 70
     0
  3

 72
    65
 73
     0
 40
0.0
  0
LTYPE
  5
16
330
5
100
AcDbSymbolTableRecord
100
AcDbLinetypeTableRecord
  2
Continuous
 70
     0
  3
Solid line
 72
    65
 73
     0
 40
0.0
  0
ENDTAB
  0
TABLE
  2
LAYER
  5
2
330
0
100
AcDbSymbolTable
 70
     2
  0
LAYER
  5
10
330
2
100
AcDbSymbolTableRecord
100
AcDbLayerTableRecord
  2
0
 70
     0
 62
     7
  6
Continuous
370
    -3
390
F
347
3E
  0
LAYER
  5
40
330
2
100
AcDbSymbolTableRecord
100
AcDbLayerTableRecord
  2
Layer 1
 70
     0
 62
     7
  6
Continuous
370
    -3
390
F
347
3E
  0
ENDTAB
  0
TABLE
  2
STYLE
  5
3
330
0
100
AcDbSymbolTable
 70
     1
  0
STYLE
  5
11
330
3
100
AcDbSymbolTableRecord
100
AcDbTextStyleTableRecord
  2
Standard
 70
     0
 40
0.0
 41
1.0
 50
0.0
 71
     0
 42
0.2
  3
txt
  4

  0
ENDTAB
  0
TABLE
  2
VIEW
  5
6
330
0
100
AcDbSymbolTable
 70
     0
  0
ENDTAB
  0
TABLE
  2
UCS
  5
7
330
0
100
AcDbSymbolTable
 70
     0
  0
ENDTAB
  0
TABLE
  2
APPID
  5
9
330
0
100
AcDbSymbolTable
 70
     1
  0
APPID
  5
12
330
9
100
AcDbSymbolTableRecord
100
AcDbRegAppTableRecord
  2
ACAD
 70
     0
  0
ENDTAB
  0
TABLE
  2
DIMSTYLE
  5
A
330
0
100
AcDbSymbolTable
 70
     1
100
AcDbDimStyleTable
  0
DIMSTYLE
105
27
330
A
100
AcDbSymbolTableRecord
100
AcDbDimStyleTableRecord
  2
Standard
 70
     0
178
     0
340
11
  0
ENDTAB
  0
TABLE
  2
BLOCK_RECORD
  5
1
330
0
100
AcDbSymbolTable
 70
     1
  0
BLOCK_RECORD
  5
1F
330
1
100
AcDbSymbolTableRecord
100
AcDbBlockTableRecord
  2
*Model_Space
340
22
 70
     0
280
     1
281
     0
  0
BLOCK_RECORD
  5
1B
330
1
100
AcDbSymbolTableRecord
100
AcDbBlockTableRecord
  2
*Paper_Space
340
1E
 70
     0
280
     1
281
     0
  0
BLOCK_RECORD
  5
23
330
1
100
AcDbSymbolTableRecord
100
AcDbBlockTableRecord
  2
*Paper_Space0
340
26
 70
     0
280
     1
281
     0
  0
ENDTAB
  0
ENDSEC
  0
SECTION
  2
BLOCKS
  0
BLOCK
  5
20
330
1F
100
AcDbEntity
  8
0
100
AcDbBlockBegin
  2
*Model_Space
 70
     0
 10
0.0
 20
0.0
 30
0.0
  3
*Model_Space
  1

  0
ENDBLK
  5
21
330
1F
100
AcDbEntity
  8
0
100
AcDbBlockEnd
  0
BLOCK
  5
1C
330
1B
100
AcDbEntity
 67
     1
  8
0
100
AcDbBlockBegin
  2
*Paper_Space
 70
     0
 10
0.0
 20
0.0
 30
0.0
  3
*Paper_Space
  1

  0
ENDBLK
  5
1D
330
1B
100
AcDbEntity
 67
     1
  8
0
100
AcDbBlockEnd
  0
BLOCK
  5
24
330
23
100
AcDbEntity
  8
0
100
AcDbBlockBegin
  2
*Paper_Space0
 70
     0
 10
0.0
 20
0.0
 30
0.0
  3
*Paper_Space0
  1

  0
ENDBLK
  5
25
330
23
100
AcDbEntity
  8
0
100
AcDbBlockEnd
  0
ENDSEC
  0
SECTION
  2
ENTITIES
  0
SPLINE
  5
41
330
1F
100
AcDbEntity
  8
Layer 1
370
     0
100
AcDbSpline
210
0.0
220
0.0
230
1.0
 70
    11
 71
     3
 72
   158
 73
   154
 74
     0
 42
0.0000000001
 43
0.0000000001
 12
1.0
 22
0.0
 32
0.0
 13
1.0
 23
0.0
 33
0.0
 40
0.0
 40
0.0
 40
0.0
 40
0.0
 40
1.0
 40
1.0
 40
1.0
 40
2.0
 40
2.0
 40
2.0
 40
3.0
 40
3.0
 40
3.0
 40
4.0
 40
4.0
 40
4.0
 40
5.0
 40
5.0
 40
5.0
 40
6.0
 40
6.0
 40
6.0
 40
7.0
 40
7.0
 40
7.0
 40
8.0
 40
8.0
 40
8.0
 40
9.0
 40
9.0
 40
9.0
 40
10.0
 40
10.0
 40
10.0
 40
11.0
 40
11.0
 40
11.0
 40
12.0
 40
12.0
 40
12.0
 40
13.0
 40
13.0
 40
13.0
 40
14.0
 40
14.0
 40
14.0
 40
15.0
 40
15.0
 40
15.0
 40
16.0
 40
16.0
 40
16.0
 40
17.0
 40
17.0
 40
17.0
 40
18.0
 40
18.0
 40
18.0
 40
19.0
 40
19.0
 40
19.0
 40
20.0
 40
20.0
 40
20.0
 40
21.0
 40
21.0
 40
21.0
 40
22.0
 40
22.0
 40
22.0
 40
23.0
 40
23.0
 40
23.0
 40
24.0
 40
24.0
 40
24.0
 40
25.0
 40
25.0
 40
25.0
 40
26.0
 40
26.0
 40
26.0
 40
27.0
 40
27.0
 40
27.0
 40
28.0
 40
28.0
 40
28.0
 40
29.0
 40
29.0
 40
29.0
 40
30.0
 40
30.0
 40
30.0
 40
31.0
 40
31.0
 40
31.0
 40
32.0
 40
32.0
 40
32.0
 40
33.0
 40
33.0
 40
33.0
 40
34.0
 40
34.0
 40
34.0
 40
35.0
 40
35.0
 40
35.0
 40
36.0
 40
36.0
 40
36.0
 40
37.0
 40
37.0
 40
37.0
 40
38.0
 40
38.0
 40
38.0
 40
39.0
 40
39.0
 40
39.0
 40
40.0
 40
40.0
 40
40.0
 40
41.0
 40
41.0
 40
41.0
 40
42.0
 40
42.0
 40
42.0
 40
43.0
 40
43.0
 40
43.0
 40
44.0
 40
44.0
 40
44.0
 40
45.0
 40
45.0
 40
45.0
 40
46.0
 40
46.0
 40
46.0
 40
47.0
 40
47.0
 40
47.0
 40
48.0
 40
48.0
 40
48.0
 40
49.0
 40
49.0
 40
49.0
 40
50.0
 40
50.0
 40
50.0
 40
51.0
 40
51.0
 40
51.0
 40
51.0
 10
92.12815959856925
 20
83.97003173828125
 30
0.0
 10
92.12815959856925
 20
83.97003173828125
 30
0.0
 10
91.6831522743505
 20
94.3800048828125
 30
0.0
 10
91.6831522743505
 20
94.3800048828125
 30
0.0
 10
91.67614849017082
 20
94.54498291015625
 30
0.0
 10
91.61215312884269
 20
94.7020263671875
 30
0.0
 10
91.501145438413
 20
94.823974609375
 30
0.0
 10
91.501145438413
 20
94.823974609375
 30
0.0
 10
80.39814861224113
 20
107.126953125
 30
0.0
 10
80.39814861224113
 20
107.126953125
 30
0.0
 10
80.29715068743644
 20
107.2389526367188
 30
0.0
 10
80.16415508196769
 20
107.31494140625
 30
0.0
 10
80.01614482806144
 20
107.345947265625
 30
0.0
 10
80.01614482806144
 20
107.345947265625
 30
0.0
 10
65.26414592669425
 20
110.4119262695312
 30
0.0
 10
65.26414592669425
 20
110.4119262695312
 30
0.0
 10
65.25415141985832
 20
110.4139404296875
 30
0.0
 10
65.24514873431144
 20
110.4109497070312
 30
0.0
 10
65.23614604876457
 20
110.4119262695312
 30
0.0
 10
65.21714885638175
 20
110.4149169921875
 30
0.0
 10
65.20114238665519
 20
110.4208984375
 30
0.0
 10
65.18214519427238
 20
110.4219360351562
 30
0.0
 10
65.16114910052238
 20
110.4239501953125
 30
0.0
 10
65.14114482806144
 20
110.4159545898438
 30
0.0
 10
65.12014873431144
 20
110.4159545898438
 30
0.0
 10
65.11215312884269
 20
110.4159545898438
 30
0.0
 10
65.10315044329582
 20
110.4139404296875
 30
0.0
 10
65.09515483782707
 20
110.4139404296875
 30
0.0
 10
65.04415996478019
 20
110.4119262695312
 30
0.0
 10
64.99514873431144
 20
110.4119262695312
 30
0.0
 10
64.94715984270988
 20
110.3999633789062
 30
0.0
 10
64.938157157163
 20
110.39697265625
 30
0.0
 10
64.92816265032707
 20
110.3999633789062
 30
0.0
 10
64.91915996478019
 20
110.39697265625
 30
0.0
 10
64.89816387103019
 20
110.3909912109375
 30
0.0
 10
64.88415630267082
 20
110.3759765625
 30
0.0
 10
64.86416728899894
 20
110.3679809570312
 30
0.0
 10
64.85015972063957
 20
110.3629760742188
 30
0.0
 10
64.83416850970207
 20
110.3670043945312
 30
0.0
 10
64.82016094134269
 20
110.3599853515625
 30
0.0
 10
64.82016094134269
 20
110.3599853515625
 30
0.0
 10
61.47316081927238
 20
108.7919921875
 30
0.0
 10
61.47316081927238
 20
108.7919921875
 30
0.0
 10
61.438157157163
 20
108.7749633789062
 30
0.0
 10
61.40416057513175
 20
108.7559814453125
 30
0.0
 10
61.37115581438957
 20
108.7329711914062
 30
0.0
 10
61.37115581438957
 20
108.7329711914062
 30
0.0
 10
37.53315837786613
 20
92.302001953125
 30
0.0
 10
37.53315837786613
 20
92.302001953125
 30
0.0
 10
37.53315837786613
 20
92.302001953125
 30
0.0
 10
21.27316387103019
 20
112.9669799804688
 30
0.0
 10
21.27316387103019
 20
112.9669799804688
 30
0.0
 10
21.15516765520988
 20
113.1170043945312
 30
0.0
 10
20.98115642474113
 20
113.2129516601562
 30
0.0
 10
20.79116924212394
 20
113.2340087890625
 30
0.0
 10
20.79116924212394
 20
113.2340087890625
 30
0.0
 10
15.62017162249504
 20
113.7770385742188
 30
0.0
 10
15.62017162249504
 20
113.7770385742188
 30
0.0
 10
15.37917430804191
 20
113.7980346679688
 30
0.0
 10
15.15817363665519
 20
113.7100219726562
 30
0.0
 10
15.00717266009269
 20
113.5320434570312
 30
0.0
 10
14.85617168353019
 20
113.3550415039062
 30
0.0
 10
14.80117137835441
 20
113.114013671875
 30
0.0
 10
14.86116893694816
 20
112.8890380859375
 30
0.0
 10
14.86116893694816
 20
112.8890380859375
 30
0.0
 10
18.61016948626457
 20
98.86505126953125
 30
0.0
 10
18.61016948626457
 20
98.86505126953125
 30
0.0
 10
18.61016948626457
 20
98.86505126953125
 30
0.0
 10
8.105172232846598
 20
89.38702392578125
 30
0.0
 10
8.105172232846598
 20
89.38702392578125
 30
0.0
 10
7.889168814877848
 20
89.1920166015625
 30
0.0
 10
7.814171866635661
 20
88.885009765625
 30
0.0
 10
7.916169242123942
 20
88.613037109375
 30
0.0
 10
8.018166617612223
 20
88.341064453125
 30
0.0
 10
8.275170401791911
 20
88.15802001953125
 30
0.0
 10
8.566170768002848
 20
88.15203857421875
 30
0.0
 10
8.566170768002848
 20
88.15203857421875
 30
0.0
 10
16.23616893694816
 20
88.00006103515625
 30
0.0
 10
16.23616893694816
 20
88.00006103515625
 30
0.0
 10
16.24016673968254
 20
88.00006103515625
 30
0.0
 10
16.24517162249504
 20
88.00006103515625
 30
0.0
 10
16.250168875913
 20
88.00006103515625
 30
0.0
 10
16.3491678993505
 20
88.00006103515625
 30
0.0
 10
16.44516857073722
 20
88.02105712890625
 30
0.0
 10
16.53617198870597
 20
88.06103515625
 30
0.0
 10
16.53617198870597
 20
88.06103515625
 30
0.0
 10
26.95217998431144
 20
92.65106201171875
 30
0.0
 10
26.95217998431144
 20
92.65106201171875
 30
0.0
 10
26.95217998431144
 20
92.65106201171875
 30
0.0
 10
29.17817790911613
 20
85.94305419921875
 30
0.0
 10
29.17817790911613
 20
85.94305419921875
 30
0.0
 10
29.20117290423332
 20
85.86505126953125
 30
0.0
 10
29.24017436907707
 20
85.79107666015625
 30
0.0
 10
29.29217632220207
 20
85.7210693359375
 30
0.0
 10
29.29217632220207
 20
85.7200927734375
 30
0.0
 10
29.29318340228019
 20
85.7200927734375
 30
0.0
 10
29.29318340228019
 20
85.7200927734375
 30
0.0
 10
29.29718120501457
 20
85.715087890625
 30
0.0
 10
29.30018718645988
 20
85.7100830078125
 30
0.0
 10
29.30418498919425
 20
85.70611572265625
 30
0.0
 10
29.30418498919425
 20
85.70611572265625
 30
0.0
 10
33.17518718645988
 20
80.87908935546875
 30
0.0
 10
33.17518718645988
 20
80.87908935546875
 30
0.0
 10
33.30519206927238
 20
80.71710205078125
 30
0.0
 10
33.50018413470207
 20
80.61907958984375
 30
0.0
 10
33.70918376849113
 20
80.61407470703125
 30
0.0
 10
33.70918376849113
 20
80.61407470703125
 30
0.0
 10
45.38418682024894
 20
80.30108642578125
 30
0.0
 10
45.38418682024894
 20
80.30108642578125
 30
0.0
 10
45.38418682024894
 20
80.30108642578125
 30
0.0
 10
42.10418804095207
 20
71.22808837890625
 30
0.0
 10
42.10418804095207
 20
71.22808837890625
 30
0.0
 10
42.00618083880363
 20
70.95806884765625
 30
0.0
 10
42.08119304583488
 20
70.6580810546875
 30
0.0
 10
42.291184500913
 20
70.464111328125
 30
0.0
 10
42.42518718645988
 20
70.34210205078125
 30
0.0
 10
42.59718425677238
 20
70.277099609375
 30
0.0
 10
42.770188407163
 20
70.277099609375
 30
0.0
 10
42.87118633196769
 20
70.277099609375
 30
0.0
 10
42.97218425677238
 20
70.298095703125
 30
0.0
 10
43.0671854774755
 20
70.34210205078125
 30
0.0
 10
43.0671854774755
 20
70.34210205078125
 30
0.0
 10
64.17819316790519
 20
80.09112548828125
 30
0.0
 10
64.17819316790519
 20
80.09112548828125
 30
0.0
 10
64.17819316790519
 20
80.09112548828125
 30
0.0
 10
70.59619243548332
 20
77.50213623046875
 30
0.0
 10
70.59619243548332
 20
77.50213623046875
 30
0.0
 10
70.63519390032707
 20
77.48614501953125
 30
0.0
 10
70.67518718645988
 20
77.4881591796875
 30
0.0
 10
70.71418865130363
 20
77.48016357421875
 30
0.0
 10
70.74719341204582
 20
77.47314453125
 30
0.0
 10
70.77618511126457
 20
77.4561767578125
 30
0.0
 10
70.81018169329582
 20
77.45318603515625
 30
0.0
 10
70.81018169329582
 20
77.45318603515625
 30
0.0
 10
80.86317546770988
 20
76.73419189453125
 30
0.0
 10
80.86317546770988
 20
76.73419189453125
 30
0.0
 10
80.88118083880363
 20
76.73321533203125
 30
0.0
 10
80.89717204974113
 20
76.732177734375
 30
0.0
 10
80.91417034075675
 20
76.732177734375
 30
0.0
 10
80.91417034075675
 20
76.732177734375
 30
0.0
 10
87.91116435931144
 20
76.732177734375
 30
0.0
 10
87.91116435931144
 20
76.732177734375
 30
0.0
 10
88.27215679095207
 20
76.732177734375
 30
0.0
 10
88.57615764544425
 20
77.004150390625
 30
0.0
 10
88.615159110288
 20
77.36419677734375
 30
0.0
 10
88.615159110288
 20
77.36419677734375
 30
0.0
 10
89.08615215228019
 20
81.66217041015625
 30
0.0
 10
89.08615215228019
 20
81.66217041015625
 30
0.0
 10
89.08615215228019
 20
81.66217041015625
 30
0.0
 10
91.79414470599113
 20
83.337158203125
 30
0.0
 10
91.79414470599113
 20
83.337158203125
 30
0.0
 10
92.011155204038
 20
83.4720458984375
 30
0.0
 10
92.13916118548332
 20
83.71502685546875
 30
0.0
 10
92.12815959856925
 20
83.97003173828125
 30
0.0
  0
POLYLINE
  5
42
330
1F
100
AcDbEntity
  8
Layer 1
370
     0
100
AcDb2dPolyline
 66
     1
 10
0.0
 20
0.0
 30
0.0
  0
VERTEX
  5
43
330
42
100
AcDbEntity
  8
Layer 1
370
     0
100
AcDbVertex
100
AcDb2dVertex
 10
84.292161063413
 20
100.697021484375
 30
0.0
  0
VERTEX
  5
44
330
42
100
AcDbEntity
  8
Layer 1
370
     0
100
AcDbVertex
100
AcDb2dVertex
 10
72.45616252825675
 20
87.60699462890625
 30
0.0
  0
VERTEX
  5
45
330
42
100
AcDbEntity
  8
Layer 1
370
     0
100
AcDbVertex
100
AcDb2dVertex
 10
66.13816936419425
 20
108.7849731445312
 30
0.0
  0
VERTEX
  5
46
330
42
100
AcDbEntity
  8
Layer 1
370
     0
100
AcDbVertex
100
AcDb2dVertex
 10
79.50117595599113
 20
106.0069580078125
 30
0.0
  0
VERTEX
  5
47
330
42
100
AcDbEntity
  8
Layer 1
370
     0
100
AcDbVertex
100
AcDb2dVertex
 10
84.292161063413
 20
100.697021484375
 30
0.0
  0
SEQEND
  5
48
330
42
100
AcDbEntity
  8
Layer 1
370
     0
  0
POLYLINE
  5
49
330
1F
100
AcDbEntity
  8
Layer 1
370
     0
100
AcDb2dPolyline
 66
     1
 10
0.0
 20
0.0
 30
0.0
  0
VERTEX
  5
4A
330
49
100
AcDbEntity
  8
Layer 1
370
     0
100
AcDbVertex
100
AcDb2dVertex
 10
65.68415935442863
 20
105.35400390625
 30
0.0
  0
VERTEX
  5
4B
330
49
100
AcDbEntity
  8
Layer 1
370
     0
100
AcDbVertex
100
AcDb2dVertex
 10
71.41316326067863
 20
86.1519775390625
 30
0.0
  0
VERTEX
  5
4C
330
49
100
AcDbEntity
  8
Layer 1
370
     0
100
AcDbVertex
100
AcDb2dVertex
 10
70.30116374895988
 20
79.1510009765625
 30
0.0
  0
VERTEX
  5
4D
330
49
100
AcDbEntity
  8
Layer 1
370
     0
100
AcDbVertex
100
AcDb2dVertex
 10
64.88516338274894
 20
81.33599853515625
 30
0.0
  0
VERTEX
  5
4E
330
49
100
AcDbEntity
  8
Layer 1
370
     0
100
AcDbVertex
100
AcDb2dVertex
 10
65.68415935442863
 20
105.35400390625
 30
0.0
  0
SEQEND
  5
4F
330
49
100
AcDbEntity
  8
Layer 1
370
     0
  0
POLYLINE
  5
50
330
1F
100
AcDbEntity
  8
Layer 1
370
     0
100
AcDb2dPolyline
 66
     1
 10
0.0
 20
0.0
 30
0.0
  0
VERTEX
  5
51
330
50
100
AcDbEntity
  8
Layer 1
370
     0
100
AcDbVertex
100
AcDb2dVertex
 10
20.34515483782707
 20
111.8560180664062
 30
0.0
  0
VERTEX
  5
52
330
50
100
AcDbEntity
  8
Layer 1
370
     0
100
AcDbVertex
100
AcDb2dVertex
 10
31.81015117571769
 20
97.2869873046875
 30
0.0
  0
VERTEX
  5
53
330
50
100
AcDbEntity
  8
Layer 1
370
     0
100
AcDbVertex
100
AcDb2dVertex
 10
19.97415264056144
 20
99.25396728515625
 30
0.0
  0
VERTEX
  5
54
330
50
100
AcDbEntity
  8
Layer 1
370
     0
100
AcDbVertex
100
AcDb2dVertex
 10
16.49715526507316
 20
112.260986328125
 30
0.0
  0
VERTEX
  5
55
330
50
100
AcDbEntity
  8
Layer 1
370
     0
100
AcDbVertex
100
AcDb2dVertex
 10
20.34515483782707
 20
111.8560180664062
 30
0.0
  0
SEQEND
  5
56
330
50
100
AcDbEntity
  8
Layer 1
370
     0
  0
POLYLINE
  5
57
330
1F
100
AcDbEntity
  8
Layer 1
370
     0
100
AcDb2dPolyline
 66
     1
 10
0.0
 20
0.0
 30
0.0
  0
VERTEX
  5
58
330
57
100
AcDbEntity
  8
Layer 1
370
     0
100
AcDbVertex
100
AcDb2dVertex
 10
16.10715587542472
 20
89.42205810546875
 30
0.0
  0
VERTEX
  5
59
330
57
100
AcDbEntity
  8
Layer 1
370
     0
100
AcDbVertex
100
AcDb2dVertex
 10
10.38315685198722
 20
89.5350341796875
 30
0.0
  0
VERTEX
  5
5A
330
57
100
AcDbEntity
  8
Layer 1
370
     0
100
AcDbVertex
100
AcDb2dVertex
 10
19.62716014788566
 20
97.87506103515625
 30
0.0
  0
VERTEX
  5
5B
330
57
100
AcDbEntity
  8
Layer 1
370
     0
100
AcDbVertex
100
AcDb2dVertex
 10
31.00015361712394
 20
95.98406982421875
 30
0.0
  0
VERTEX
  5
5C
330
57
100
AcDbEntity
  8
Layer 1
370
     0
100
AcDbVertex
100
AcDb2dVertex
 10
16.10715587542472
 20
89.42205810546875
 30
0.0
  0
SEQEND
  5
5D
330
57
100
AcDbEntity
  8
Layer 1
370
     0
  0
POLYLINE
  5
5E
330
1F
100
AcDbEntity
  8
Layer 1
370
     0
100
AcDb2dPolyline
 66
     1
 10
0.0
 20
0.0
 30
0.0
  0
VERTEX
  5
5F
330
5E
100
AcDbEntity
  8
Layer 1
370
     0
100
AcDbVertex
100
AcDb2dVertex
 10
28.2561503212255
 20
93.22503662109375
 30
0.0
  0
VERTEX
  5
60
330
5E
100
AcDbEntity
  8
Layer 1
370
     0
100
AcDbVertex
100
AcDb2dVertex
 10
33.26814372942863
 20
95.43402099609375
 30
0.0
  0
VERTEX
  5
61
330
5E
100
AcDbEntity
  8
Layer 1
370
     0
100
AcDbVertex
100
AcDb2dVertex
 10
36.36514385149894
 20
91.49700927734375
 30
0.0
  0
VERTEX
  5
62
330
5E
100
AcDbEntity
  8
Layer 1
370
     0
100
AcDbVertex
100
AcDb2dVertex
 10
30.23114116595207
 20
87.26898193359375
 30
0.0
  0
VERTEX
  5
63
330
5E
100
AcDbEntity
  8
Layer 1
370
     0
100
AcDbVertex
100
AcDb2dVertex
 10
28.2561503212255
 20
93.22503662109375
 30
0.0
  0
SEQEND
  5
64
330
5E
100
AcDbEntity
  8
Layer 1
370
     0
  0
SPLINE
  5
65
330
1F
100
AcDbEntity
  8
Layer 1
370
     0
100
AcDbSpline
210
0.0
220
0.0
230
1.0
 70
    11
 71
     3
 72
    29
 73
    25
 74
     0
 42
0.0000000001
 43
0.0000000001
 12
1.0
 22
0.0
 32
0.0
 13
1.0
 23
0.0
 33
0.0
 40
0.0
 40
0.0
 40
0.0
 40
0.0
 40
1.0
 40
1.0
 40
1.0
 40
2.0
 40
2.0
 40
2.0
 40
3.0
 40
3.0
 40
3.0
 40
4.0
 40
4.0
 40
4.0
 40
5.0
 40
5.0
 40
5.0
 40
6.0
 40
6.0
 40
6.0
 40
7.0
 40
7.0
 40
7.0
 40
8.0
 40
8.0
 40
8.0
 40
8.0
 10
30.88514812395988
 20
86.0
 30
0.0
 10
30.88514812395988
 20
86.0
 30
0.0
 10
62.12715251849113
 20
107.5339965820312
 30
0.0
 10
62.12715251849113
 20
107.5339965820312
 30
0.0
 10
62.12715251849113
 20
107.5339965820312
 30
0.0
 10
64.37315471575675
 20
108.5869750976562
 30
0.0
 10
64.37315471575675
 20
108.5869750976562
 30
0.0
 10
64.37315471575675
 20
108.5869750976562
 30
0.0
 10
63.50116069720207
 20
82.40496826171875
 30
0.0
 10
63.50116069720207
 20
82.40496826171875
 30
0.0
 10
63.50116069720207
 20
82.40496826171875
 30
0.0
 10
54.83816631243644
 20
90.1689453125
 30
0.0
 10
54.83816631243644
 20
90.1689453125
 30
0.0
 10
54.55116374895988
 20
90.42791748046875
 30
0.0
 10
54.10716350481925
 20
90.40692138671875
 30
0.0
 10
53.844163016538
 20
90.1219482421875
 30
0.0
 10
53.844163016538
 20
90.1219482421875
 30
0.0
 10
46.08116252825675
 20
81.699951171875
 30
0.0
 10
46.08116252825675
 20
81.699951171875
 30
0.0
 10
46.08116252825675
 20
81.699951171875
 30
0.0
 10
34.07516582415519
 20
82.02197265625
 30
0.0
 10
34.07516582415519
 20
82.02197265625
 30
0.0
 10
34.07516582415519
 20
82.02197265625
 30
0.0
 10
30.88514812395988
 20
86.0
 30
0.0
 10
30.88514812395988
 20
86.0
 30
0.0
  0
POLYLINE
  5
66
330
1F
100
AcDbEntity
  8
Layer 1
370
     0
100
AcDb2dPolyline
 66
     1
 10
0.0
 20
0.0
 30
0.0
  0
VERTEX
  5
67
330
66
100
AcDbEntity
  8
Layer 1
370
     0
100
AcDbVertex
100
AcDb2dVertex
 10
47.00116069720207
 20
80.60601806640625
 30
0.0
  0
VERTEX
  5
68
330
66
100
AcDbEntity
  8
Layer 1
370
     0
100
AcDbVertex
100
AcDb2dVertex
 10
54.41316326067863
 20
88.64703369140625
 30
0.0
  0
VERTEX
  5
69
330
66
100
AcDbEntity
  8
Layer 1
370
     0
100
AcDbVertex
100
AcDb2dVertex
 10
62.88415630267082
 20
81.0550537109375
 30
0.0
  0
VERTEX
  5
6A
330
66
100
AcDbEntity
  8
Layer 1
370
     0
100
AcDbVertex
100
AcDb2dVertex
 10
44.01315410540519
 20
72.341064453125
 30
0.0
  0
VERTEX
  5
6B
330
66
100
AcDbEntity
  8
Layer 1
370
     0
100
AcDbVertex
100
AcDb2dVertex
 10
47.00116069720207
 20
80.60601806640625
 30
0.0
  0
SEQEND
  5
6C
330
66
100
AcDbEntity
  8
Layer 1
370
     0
  0
POLYLINE
  5
6D
330
1F
100
AcDbEntity
  8
Layer 1
370
     0
100
AcDb2dPolyline
 66
     1
 10
0.0
 20
0.0
 30
0.0
  0
VERTEX
  5
6E
330
6D
100
AcDbEntity
  8
Layer 1
370
     0
100
AcDbVertex
100
AcDb2dVertex
 10
87.27415569231925
 20
78.1510009765625
 30
0.0
  0
VERTEX
  5
6F
330
6D
100
AcDbEntity
  8
Layer 1
370
     0
100
AcDbVertex
100
AcDb2dVertex
 10
83.40615947649894
 20
78.1510009765625
 30
0.0
  0
VERTEX
  5
70
330
6D
100
AcDbEntity
  8
Layer 1
370
     0
100
AcDbVertex
100
AcDb2dVertex
 10
87.55516155169425
 20
80.71697998046875
 30
0.0
  0
VERTEX
  5
71
330
6D
100
AcDbEntity
  8
Layer 1
370
     0
100
AcDbVertex
100
AcDb2dVertex
 10
87.27415569231925
 20
78.1510009765625
 30
0.0
  0
SEQEND
  5
72
330
6D
100
AcDbEntity
  8
Layer 1
370
     0
  0
POLYLINE
  5
73
330
1F
100
AcDbEntity
  8
Layer 1
370
     0
100
AcDb2dPolyline
 66
     1
 10
0.0
 20
0.0
 30
0.0
  0
VERTEX
  5
74
330
73
100
AcDbEntity
  8
Layer 1
370
     0
100
AcDbVertex
100
AcDb2dVertex
 10
80.7351542274755
 20
78.166015625
 30
0.0
  0
VERTEX
  5
75
330
73
100
AcDbEntity
  8
Layer 1
370
     0
100
AcDbVertex
100
AcDb2dVertex
 10
71.68115337298332
 20
78.81201171875
 30
0.0
  0
VERTEX
  5
76
330
73
100
AcDbEntity
  8
Layer 1
370
     0
100
AcDbVertex
100
AcDb2dVertex
 10
72.80415447161613
 20
85.87799072265625
 30
0.0
  0
VERTEX
  5
77
330
73
100
AcDbEntity
  8
Layer 1
370
     0
100
AcDbVertex
100
AcDb2dVertex
 10
85.24615581438957
 20
99.63897705078125
 30
0.0
  0
VERTEX
  5
78
330
73
100
AcDbEntity
  8
Layer 1
370
     0
100
AcDbVertex
100
AcDb2dVertex
 10
90.27615459368644
 20
94.06500244140625
 30
0.0
  0
VERTEX
  5
79
330
73
100
AcDbEntity
  8
Layer 1
370
     0
100
AcDbVertex
100
AcDb2dVertex
 10
90.6931620399755
 20
84.32501220703125
 30
0.0
  0
VERTEX
  5
7A
330
73
100
AcDbEntity
  8
Layer 1
370
     0
100
AcDbVertex
100
AcDb2dVertex
 10
80.7351542274755
 20
78.166015625
 30
0.0
  0
SEQEND
  5
7B
330
73
100
AcDbEntity
  8
Layer 1
370
     0
  0
HATCH
  5
7C
330
1F
100
AcDbEntity
  8
Layer 1
 62
     7
420
 16777215
100
AcDbHatch
 10
0.0
 20
0.0
 30
0.0
210
0.0
220
0.0
230
1.0
  2
SOLID
 70
     1
 71
     0
 91
       10
 92
        1
 93
        1
 72
     4
 94
        3
 73
     0
 74
     1
 95
      158
 96
      154
 40
0.0
 40
0.0
 40
0.0
 40
0.0
 40
1.0
 40
1.0
 40
1.0
 40
2.0
 40
2.0
 40
2.0
 40
3.0
 40
3.0
 40
3.0
 40
4.0
 40
4.0
 40
4.0
 40
5.0
 40
5.0
 40
5.0
 40
6.0
 40
6.0
 40
6.0
 40
7.0
 40
7.0
 40
7.0
 40
8.0
 40
8.0
 40
8.0
 40
9.0
 40
9.0
 40
9.0
 40
10.0
 40
10.0
 40
10.0
 40
11.0
 40
11.0
 40
11.0
 40
12.0
 40
12.0
 40
12.0
 40
13.0
 40
13.0
 40
13.0
 40
14.0
 40
14.0
 40
14.0
 40
15.0
 40
15.0
 40
15.0
 40
16.0
 40
16.0
 40
16.0
 40
17.0
 40
17.0
 40
17.0
 40
18.0
 40
18.0
 40
18.0
 40
19.0
 40
19.0
 40
19.0
 40
20.0
 40
20.0
 40
20.0
 40
21.0
 40
21.0
 40
21.0
 40
22.0
 40
22.0
 40
22.0
 40
23.0
 40
23.0
 40
23.0
 40
24.0
 40
24.0
 40
24.0
 40
25.0
 40
25.0
 40
25.0
 40
26.0
 40
26.0
 40
26.0
 40
27.0
 40
27.0
 40
27.0
 40
28.0
 40
28.0
 40
28.0
 40
29.0
 40
29.0
 40
29.0
 40
30.0
 40
30.0
 40
30.0
 40
31.0
 40
31.0
 40
31.0
 40
32.0
 40
32.0
 40
32.0
 40
33.0
 40
33.0
 40
33.0
 40
34.0
 40
34.0
 40
34.0
 40
35.0
 40
35.0
 40
35.0
 40
36.0
 40
36.0
 40
36.0
 40
37.0
 40
37.0
 40
37.0
 40
38.0
 40
38.0
 40
38.0
 40
39.0
 40
39.0
 40
39.0
 40
40.0
 40
40.0
 40
40.0
 40
41.0
 40
41.0
 40
41.0
 40
42.0
 40
42.0
 40
42.0
 40
43.0
 40
43.0
 40
43.0
 40
44.0
 40
44.0
 40
44.0
 40
45.0
 40
45.0
 40
45.0
 40
46.0
 40
46.0
 40
46.0
 40
47.0
 40
47.0
 40
47.0
 40
48.0
 40
48.0
 40
48.0
 40
49.0
 40
49.0
 40
49.0
 40
50.0
 40
50.0
 40
50.0
 40
51.0
 40
51.0
 40
51.0
 40
51.0
 10
92.12815959856925
 20
83.97003173828125
 10
92.12815959856925
 20
83.97003173828125
 10
91.6831522743505
 20
94.3800048828125
 10
91.6831522743505
 20
94.3800048828125
 10
91.67614849017082
 20
94.54498291015625
 10
91.61215312884269
 20
94.7020263671875
 10
91.501145438413
 20
94.823974609375
 10
91.501145438413
 20
94.823974609375
 10
80.39814861224113
 20
107.126953125
 10
80.39814861224113
 20
107.126953125
 10
80.29715068743644
 20
107.2389526367188
 10
80.16415508196769
 20
107.31494140625
 10
80.01614482806144
 20
107.345947265625
 10
80.01614482806144
 20
107.345947265625
 10
65.26414592669425
 20
110.4119262695312
 10
65.26414592669425
 20
110.4119262695312
 10
65.25415141985832
 20
110.4139404296875
 10
65.24514873431144
 20
110.4109497070312
 10
65.23614604876457
 20
110.4119262695312
 10
65.21714885638175
 20
110.4149169921875
 10
65.20114238665519
 20
110.4208984375
 10
65.18214519427238
 20
110.4219360351562
 10
65.16114910052238
 20
110.4239501953125
 10
65.14114482806144
 20
110.4159545898438
 10
65.12014873431144
 20
110.4159545898438
 10
65.11215312884269
 20
110.4159545898438
 10
65.10315044329582
 20
110.4139404296875
 10
65.09515483782707
 20
110.4139404296875
 10
65.04415996478019
 20
110.4119262695312
 10
64.99514873431144
 20
110.4119262695312
 10
64.94715984270988
 20
110.3999633789062
 10
64.938157157163
 20
110.39697265625
 10
64.92816265032707
 20
110.3999633789062
 10
64.91915996478019
 20
110.39697265625
 10
64.89816387103019
 20
110.3909912109375
 10
64.88415630267082
 20
110.3759765625
 10
64.86416728899894
 20
110.3679809570312
 10
64.85015972063957
 20
110.3629760742188
 10
64.83416850970207
 20
110.3670043945312
 10
64.82016094134269
 20
110.3599853515625
 10
64.82016094134269
 20
110.3599853515625
 10
61.47316081927238
 20
108.7919921875
 10
61.47316081927238
 20
108.7919921875
 10
61.438157157163
 20
108.7749633789062
 10
61.40416057513175
 20
108.7559814453125
 10
61.37115581438957
 20
108.7329711914062
 10
61.37115581438957
 20
108.7329711914062
 10
37.53315837786613
 20
92.302001953125
 10
37.53315837786613
 20
92.302001953125
 10
37.53315837786613
 20
92.302001953125
 10
21.27316387103019
 20
112.9669799804688
 10
21.27316387103019
 20
112.9669799804688
 10
21.15516765520988
 20
113.1170043945312
 10
20.98115642474113
 20
113.2129516601562
 10
20.79116924212394
 20
113.2340087890625
 10
20.79116924212394
 20
113.2340087890625
 10
15.62017162249504
 20
113.7770385742188
 10
15.62017162249504
 20
113.7770385742188
 10
15.37917430804191
 20
113.7980346679688
 10
15.15817363665519
 20
113.7100219726562
 10
15.00717266009269
 20
113.5320434570312
 10
14.85617168353019
 20
113.3550415039062
 10
14.80117137835441
 20
113.114013671875
 10
14.86116893694816
 20
112.8890380859375
 10
14.86116893694816
 20
112.8890380859375
 10
18.61016948626457
 20
98.86505126953125
 10
18.61016948626457
 20
98.86505126953125
 10
18.61016948626457
 20
98.86505126953125
 10
8.105172232846598
 20
89.38702392578125
 10
8.105172232846598
 20
89.38702392578125
 10
7.889168814877848
 20
89.1920166015625
 10
7.814171866635661
 20
88.885009765625
 10
7.916169242123942
 20
88.613037109375
 10
8.018166617612223
 20
88.341064453125
 10
8.275170401791911
 20
88.15802001953125
 10
8.566170768002848
 20
88.15203857421875
 10
8.566170768002848
 20
88.15203857421875
 10
16.23616893694816
 20
88.00006103515625
 10
16.23616893694816
 20
88.00006103515625
 10
16.24016673968254
 20
88.00006103515625
 10
16.24517162249504
 20
88.00006103515625
 10
16.250168875913
 20
88.00006103515625
 10
16.3491678993505
 20
88.00006103515625
 10
16.44516857073722
 20
88.02105712890625
 10
16.53617198870597
 20
88.06103515625
 10
16.53617198870597
 20
88.06103515625
 10
26.95217998431144
 20
92.65106201171875
 10
26.95217998431144
 20
92.65106201171875
 10
26.95217998431144
 20
92.65106201171875
 10
29.17817790911613
 20
85.94305419921875
 10
29.17817790911613
 20
85.94305419921875
 10
29.20117290423332
 20
85.86505126953125
 10
29.24017436907707
 20
85.79107666015625
 10
29.29217632220207
 20
85.7210693359375
 10
29.29217632220207
 20
85.7200927734375
 10
29.29318340228019
 20
85.7200927734375
 10
29.29318340228019
 20
85.7200927734375
 10
29.29718120501457
 20
85.715087890625
 10
29.30018718645988
 20
85.7100830078125
 10
29.30418498919425
 20
85.70611572265625
 10
29.30418498919425
 20
85.70611572265625
 10
33.17518718645988
 20
80.87908935546875
 10
33.17518718645988
 20
80.87908935546875
 10
33.30519206927238
 20
80.71710205078125
 10
33.50018413470207
 20
80.61907958984375
 10
33.70918376849113
 20
80.61407470703125
 10
33.70918376849113
 20
80.61407470703125
 10
45.38418682024894
 20
80.30108642578125
 10
45.38418682024894
 20
80.30108642578125
 10
45.38418682024894
 20
80.30108642578125
 10
42.10418804095207
 20
71.22808837890625
 10
42.10418804095207
 20
71.22808837890625
 10
42.00618083880363
 20
70.95806884765625
 10
42.08119304583488
 20
70.6580810546875
 10
42.291184500913
 20
70.464111328125
 10
42.42518718645988
 20
70.34210205078125
 10
42.59718425677238
 20
70.277099609375
 10
42.770188407163
 20
70.277099609375
 10
42.87118633196769
 20
70.277099609375
 10
42.97218425677238
 20
70.298095703125
 10
43.0671854774755
 20
70.34210205078125
 10
43.0671854774755
 20
70.34210205078125
 10
64.17819316790519
 20
80.09112548828125
 10
64.17819316790519
 20
80.09112548828125
 10
64.17819316790519
 20
80.09112548828125
 10
70.59619243548332
 20
77.50213623046875
 10
70.59619243548332
 20
77.50213623046875
 10
70.63519390032707
 20
77.48614501953125
 10
70.67518718645988
 20
77.4881591796875
 10
70.71418865130363
 20
77.48016357421875
 10
70.74719341204582
 20
77.47314453125
 10
70.77618511126457
 20
77.4561767578125
 10
70.81018169329582
 20
77.45318603515625
 10
70.81018169329582
 20
77.45318603515625
 10
80.86317546770988
 20
76.73419189453125
 10
80.86317546770988
 20
76.73419189453125
 10
80.88118083880363
 20
76.73321533203125
 10
80.89717204974113
 20
76.732177734375
 10
80.91417034075675
 20
76.732177734375
 10
80.91417034075675
 20
76.732177734375
 10
87.91116435931144
 20
76.732177734375
 10
87.91116435931144
 20
76.732177734375
 10
88.27215679095207
 20
76.732177734375
 10
88.57615764544425
 20
77.004150390625
 10
88.615159110288
 20
77.36419677734375
 10
88.615159110288
 20
77.36419677734375
 10
89.08615215228019
 20
81.66217041015625
 10
89.08615215228019
 20
81.66217041015625
 10
89.08615215228019
 20
81.66217041015625
 10
91.79414470599113
 20
83.337158203125
 10
91.79414470599113
 20
83.337158203125
 10
92.011155204038
 20
83.4720458984375
 10
92.13916118548332
 20
83.71502685546875
 10
92.12815959856925
 20
83.97003173828125
 97
        0
 97
        0
 92
        1
 93
        4
 72
     1
 10
84.292161063413
 20
100.697021484375
 11
72.45616252825675
 21
87.60699462890625
 72
     1
 10
72.45616252825675
 20
87.60699462890625
 11
66.13816936419425
 21
108.7849731445312
 72
     1
 10
66.13816936419425
 20
108.7849731445312
 11
79.50117595599113
 21
106.0069580078125
 72
     1
 10
79.50117595599113
 20
106.0069580078125
 11
84.292161063413
 21
100.697021484375
 97
        0
 92
        1
 93
        4
 72
     1
 10
65.68415935442863
 20
105.35400390625
 11
71.41316326067863
 21
86.1519775390625
 72
     1
 10
71.41316326067863
 20
86.1519775390625
 11
70.30116374895988
 21
79.1510009765625
 72
     1
 10
70.30116374895988
 20
79.1510009765625
 11
64.88516338274894
 21
81.33599853515625
 72
     1
 10
64.88516338274894
 20
81.33599853515625
 11
65.68415935442863
 21
105.35400390625
 97
        0
 92
        1
 93
        4
 72
     1
 10
20.34515483782707
 20
111.8560180664062
 11
31.81015117571769
 21
97.2869873046875
 72
     1
 10
31.81015117571769
 20
97.2869873046875
 11
19.97415264056144
 21
99.25396728515625
 72
     1
 10
19.97415264056144
 20
99.25396728515625
 11
16.49715526507316
 21
112.260986328125
 72
     1
 10
16.49715526507316
 20
112.260986328125
 11
20.34515483782707
 21
111.8560180664062
 97
        0
 92
        1
 93
        4
 72
     1
 10
16.10715587542472
 20
89.42205810546875
 11
10.38315685198722
 21
89.5350341796875
 72
     1
 10
10.38315685198722
 20
89.5350341796875
 11
19.62716014788566
 21
97.87506103515625
 72
     1
 10
19.62716014788566
 20
97.87506103515625
 11
31.00015361712394
 21
95.98406982421875
 72
     1
 10
31.00015361712394
 20
95.98406982421875
 11
16.10715587542472
 21
89.42205810546875
 97
        0
 92
        1
 93
        4
 72
     1
 10
28.2561503212255
 20
93.22503662109375
 11
33.26814372942863
 21
95.43402099609375
 72
     1
 10
33.26814372942863
 20
95.43402099609375
 11
36.36514385149894
 21
91.49700927734375
 72
     1
 10
36.36514385149894
 20
91.49700927734375
 11
30.23114116595207
 21
87.26898193359375
 72
     1
 10
30.23114116595207
 20
87.26898193359375
 11
28.2561503212255
 21
93.22503662109375
 97
        0
 92
        1
 93
        1
 72
     4
 94
        3
 73
     0
 74
     1
 95
       29
 96
       25
 40
0.0
 40
0.0
 40
0.0
 40
0.0
 40
1.0
 40
1.0
 40
1.0
 40
2.0
 40
2.0
 40
2.0
 40
3.0
 40
3.0
 40
3.0
 40
4.0
 40
4.0
 40
4.0
 40
5.0
 40
5.0
 40
5.0
 40
6.0
 40
6.0
 40
6.0
 40
7.0
 40
7.0
 40
7.0
 40
8.0
 40
8.0
 40
8.0
 40
8.0
 10
30.88514812395988
 20
86.0
 10
30.88514812395988
 20
86.0
 10
62.12715251849113
 20
107.5339965820312
 10
62.12715251849113
 20
107.5339965820312
 10
62.12715251849113
 20
107.5339965820312
 10
64.37315471575675
 20
108.5869750976562
 10
64.37315471575675
 20
108.5869750976562
 10
64.37315471575675
 20
108.5869750976562
 10
63.50116069720207
 20
82.40496826171875
 10
63.50116069720207
 20
82.40496826171875
 10
63.50116069720207
 20
82.40496826171875
 10
54.83816631243644
 20
90.1689453125
 10
54.83816631243644
 20
90.1689453125
 10
54.55116374895988
 20
90.42791748046875
 10
54.10716350481925
 20
90.40692138671875
 10
53.844163016538
 20
90.1219482421875
 10
53.844163016538
 20
90.1219482421875
 10
46.08116252825675
 20
81.699951171875
 10
46.08116252825675
 20
81.699951171875
 10
46.08116252825675
 20
81.699951171875
 10
34.07516582415519
 20
82.02197265625
 10
34.07516582415519
 20
82.02197265625
 10
34.07516582415519
 20
82.02197265625
 10
30.88514812395988
 20
86.0
 10
30.88514812395988
 20
86.0
 97
        0
 97
        0
 92
        1
 93
        4
 72
     1
 10
47.00116069720207
 20
80.60601806640625
 11
54.41316326067863
 21
88.64703369140625
 72
     1
 10
54.41316326067863
 20
88.64703369140625
 11
62.88415630267082
 21
81.0550537109375
 72
     1
 10
62.88415630267082
 20
81.0550537109375
 11
44.01315410540519
 21
72.341064453125
 72
     1
 10
44.01315410540519
 20
72.341064453125
 11
47.00116069720207
 21
80.60601806640625
 97
        0
 92
        1
 93
        3
 72
     1
 10
87.27415569231925
 20
78.1510009765625
 11
83.40615947649894
 21
78.1510009765625
 72
     1
 10
83.40615947649894
 20
78.1510009765625
 11
87.55516155169425
 21
80.71697998046875
 72
     1
 10
87.55516155169425
 20
80.71697998046875
 11
87.27415569231925
 21
78.1510009765625
 97
        0
 92
        1
 93
        6
 72
     1
 10
80.7351542274755
 20
78.166015625
 11
71.68115337298332
 21
78.81201171875
 72
     1
 10
71.68115337298332
 20
78.81201171875
 11
72.80415447161613
 21
85.87799072265625
 72
     1
 10
72.80415447161613
 20
85.87799072265625
 11
85.24615581438957
 21
99.63897705078125
 72
     1
 10
85.24615581438957
 20
99.63897705078125
 11
90.27615459368644
 21
94.06500244140625
 72
     1
 10
90.27615459368644
 20
94.06500244140625
 11
90.6931620399755
 21
84.32501220703125
 72
     1
 10
90.6931620399755
 20
84.32501220703125
 11
80.7351542274755
 21
78.166015625
 97
        0
 75
     2
 76
     1
 98
        0
  0
ENDSEC
  0
SECTION
  2
OBJECTS
  0
DICTIONARY
  5
C
330
0
100
AcDbDictionary
281
     1
  3
ACAD_GROUP
350
D
  3
ACAD_LAYOUT
350
1A
  3
ACAD_MATERIAL
350
3B
  3
ACAD_MLEADERSTYLE
350
7E
  3
ACAD_MLINESTYLE
350
17
  3
ACAD_PLOTSETTINGS
350
19
  3
ACAD_PLOTSTYLENAME
350
E
  3
ACAD_TABLESTYLE
350
7D
  3
ACAD_VISUALSTYLE
350
2A
  0
SUN
  5
3F
330
29
100
AcDbSun
 90
        1
290
     0
 63
     7
421
 16777215
 40
1.0
291
     1
 91
  2455826
 92
 54000000
292
     0
 70
     2
 71
   256
280
     1
  0
DICTIONARY
  5
D
102
{ACAD_REACTORS
330
C
102
}
330
C
100
AcDbDictionary
281
     1
  0
DICTIONARY
  5
1A
102
{ACAD_REACTORS
330
C
102
}
330
C
100
AcDbDictionary
281
     1
  3
Layout1
350
1E
  3
Layout2
350
26
  3
Model
350
22
  0
DICTIONARY
  5
3B
102
{ACAD_REACTORS
330
C
102
}
330
C
100
AcDbDictionary
281
     1
  3
ByBlock
350
3D
  3
ByLayer
350
3C
  3
Global
350
3E
  0
DICTIONARY
  5
7E
102
{ACAD_REACTORS
330
C
102
}
330
C
100
AcDbDictionary
281
     1
  0
DICTIONARY
  5
17
102
{ACAD_REACTORS
330
C
102
}
330
C
100
AcDbDictionary
281
     1
  3
Standard
350
18
  0
DICTIONARY
  5
19
102
{ACAD_REACTORS
330
C
102
}
330
C
100
AcDbDictionary
281
     1
  0
ACDBDICTIONARYWDFLT
  5
E
102
{ACAD_REACTORS
330
C
102
}
330
C
100
AcDbDictionary
281
     1
  3
Normal
350
F
100
AcDbDictionaryWithDefault
340
F
  0
DICTIONARY
  5
7D
102
{ACAD_REACTORS
330
C
102
}
330
C
100
AcDbDictionary
281
     1
  0
DICTIONARY
  5
2A
102
{ACAD_REACTORS
330
C
102
}
330
C
100
AcDbDictionary
281
     1
  3
2dWireframe
350
2F
  3
3D Hidden
350
31
  3
3dWireframe
350
30
  3
Basic
350
32
  3
Brighten
350
36
  3
ColorChange
350
3A
  3
Conceptual
350
34
  3
Dim
350
35
  3
Facepattern
350
39
  3
Flat
350
2B
  3
FlatWithEdges
350
2C
  3
Gouraud
350
2D
  3
GouraudWithEdges
350
2E
  3
Linepattern
350
38
  3
Realistic
350
33
  3
Thicken
350
37
  0
LAYOUT
  5
1E
102
{ACAD_REACTORS
330
1A
102
}
330
1A
100
AcDbPlotSettings
  1

  2
none_device
  4

  6

 40
0.0
 41
0.0
 42
0.0
 43
0.0
 44
0.0
 45
0.0
 46
0.0
 47
0.0
 48
0.0
 49
0.0
140
0.0
141
0.0
142
1.0
143
1.0
 70
   688
 72
     0
 73
     0
 74
     5
  7

 75
    16
 76
     0
 77
     2
 78
   300
147
1.0
148
0.0
149
0.0
100
AcDbLayout
  1
Layout1
 70
     1
 71
     1
 10
0.0
 20
0.0
 11
12.0
 21
9.0
 12
0.0
 22
0.0
 32
0.0
 14
1.000000000000000E+20
 24
1.000000000000000E+20
 34
1.000000000000000E+20
 15
-1.000000000000000E+20
 25
-1.000000000000000E+20
 35
-1.000000000000000E+20
146
0.0
 13
0.0
 23
0.0
 33
0.0
 16
1.0
 26
0.0
 36
0.0
 17
0.0
 27
1.0
 37
0.0
 76
     0
330
1B
  0
LAYOUT
  5
26
102
{ACAD_REACTORS
330
1A
102
}
330
1A
100
AcDbPlotSettings
  1

  2
none_device
  4

  6

 40
0.0
 41
0.0
 42
0.0
 43
0.0
 44
0.0
 45
0.0
 46
0.0
 47
0.0
 48
0.0
 49
0.0
140
0.0
141
0.0
142
1.0
143
1.0
 70
   688
 72
     0
 73
     0
 74
     5
  7

 75
    16
 76
     0
 77
     2
 78
   300
147
1.0
148
0.0
149
0.0
100
AcDbLayout
  1
Layout2
 70
     1
 71
     2
 10
0.0
 20
0.0
 11
0.0
 21
0.0
 12
0.0
 22
0.0
 32
0.0
 14
0.0
 24
0.0
 34
0.0
 15
0.0
 25
0.0
 35
0.0
146
0.0
 13
0.0
 23
0.0
 33
0.0
 16
1.0
 26
0.0
 36
0.0
 17
0.0
 27
1.0
 37
0.0
 76
     0
330
23
  0
LAYOUT
  5
22
102
{ACAD_REACTORS
330
1A
102
}
330
1A
100
AcDbPlotSettings
  1

  2
none_device
  4

  6

 40
0.0
 41
0.0
 42
0.0
 43
0.0
 44
0.0
 45
0.0
 46
0.0
 47
0.0
 48
0.0
 49
0.0
140
0.0
141
0.0
142
1.0
143
1.0
 70
  1712
 72
     0
 73
     0
 74
     0
  7

 75
     0
 76
     0
 77
     2
 78
   300
147
1.0
148
0.0
149
0.0
100
AcDbLayout
  1
Model
 70
     1
 71
     0
 10
0.0
 20
0.0
 11
12.0
 21
9.0
 12
0.0
 22
0.0
 32
0.0
 14
1.000000000000000E+20
 24
1.000000000000000E+20
 34
1.000000000000000E+20
 15
-1.000000000000000E+20
 25
-1.000000000000000E+20
 35
-1.000000000000000E+20
146
0.0
 13
0.0
 23
0.0
 33
0.0
 16
1.0
 26
0.0
 36
0.0
 17
0.0
 27
1.0
 37
0.0
 76
     0
330
1F
331
29
  0
MATERIAL
  5
3D
102
{ACAD_REACTORS
330
3B
102
}
330
3B
100
AcDbMaterial
  1
ByBlock
 72
     1
 94
      127
  0
MATERIAL
  5
3C
102
{ACAD_REACTORS
330
3B
102
}
330
3B
100
AcDbMaterial
  1
ByLayer
 72
     1
 94
      127
  0
MATERIAL
  5
3E
102
{ACAD_REACTORS
330
3B
102
}
330
3B
100
AcDbMaterial
  1
Global
 72
     1
 94
      127
  0
MLINESTYLE
  5
18
102
{ACAD_REACTORS
330
17
102
}
330
17
100
AcDbMlineStyle
  2
Standard
 70
     0
  3

 62
   256
 51
90.0
 52
90.0
 71
     2
 49
0.5
 62
   256
  6
BYLAYER
 49
-0.5
 62
   256
  6
BYLAYER
  0
ACDBPLACEHOLDER
  5
F
102
{ACAD_REACTORS
330
E
102
}
330
E
  0
VISUALSTYLE
  5
2F
102
{ACAD_REACTORS
330
2A
102
}
330
2A
100
AcDbVisualStyle
  2
2dWireframe
 70
     4
177
     2
291
     0
 71
     0
176
     1
 72
     2
176
     1
 73
     0
176
     1
 90
        0
176
     1
 40
-0.6
176
     1
 41
-30.0
176
     1
 62
     5
 63
     7
421
 16777215
176
     1
 74
     1
176
     1
 91
        4
176
     1
 64
     7
176
     1
 65
   257
176
     1
 75
     1
176
     1
175
     1
176
     1
 42
1.0
176
     1
 92
        0
176
     1
 66
   257
176
     1
 43
1.0
176
     1
 76
     1
176
     1
 77
     6
176
     1
 78
     2
176
     1
 67
     7
176
     1
 79
     5
176
     1
170
     0
176
     1
171
     0
176
     1
290
     0
176
     1
 93
        1
176
     1
 44
0.0
176
     1
173
     0
176
     1
  0
VISUALSTYLE
  5
31
102
{ACAD_REACTORS
330
2A
102
}
330
2A
100
AcDbVisualStyle
  2
3D Hidden
 70
     6
177
     2
291
     0
 71
     1
176
     1
 72
     2
176
     1
 73
     2
176
     1
 90
        0
176
     1
 40
-0.6
176
     1
 41
-30.0
176
     1
 62
     5
 63
     7
421
 16777215
176
     1
 74
     2
176
     1
 91
        2
176
     1
 64
     7
176
     1
 65
   257
176
     1
 75
     2
176
     1
175
     1
176
     1
 42
40.0
176
     1
 92
        0
176
     1
 66
   257
176
     1
 43
1.0
176
     1
 76
     1
176
     1
 77
     6
176
     1
 78
     2
176
     1
 67
     7
176
     1
 79
     3
176
     1
170
     0
176
     1
171
     0
176
     1
290
     0
176
     1
 93
        1
176
     1
 44
0.0
176
     1
173
     0
176
     1
  0
VISUALSTYLE
  5
30
102
{ACAD_REACTORS
330
2A
102
}
330
2A
100
AcDbVisualStyle
  2
3dWireframe
 70
     5
177
     2
291
     0
 71
     0
176
     1
 72
     2
176
     1
 73
     0
176
     1
 90
        0
176
     1
 40
-0.6
176
     1
 41
-30.0
176
     1
 62
     5
 63
     7
421
 16777215
176
     1
 74
     1
176
     1
 91
        4
176
     1
 64
     7
176
     1
 65
   257
176
     1
 75
     1
176
     1
175
     1
176
     1
 42
1.0
176
     1
 92
        0
176
     1
 66
   257
176
     1
 43
1.0
176
     1
 76
     1
176
     1
 77
     6
176
     1
 78
     2
176
     1
 67
     7
176
     1
 79
     5
176
     1
170
     0
176
     1
171
     0
176
     1
290
     0
176
     1
 93
        1
176
     1
 44
0.0
176
     1
173
     0
176
     1
  0
VISUALSTYLE
  5
32
102
{ACAD_REACTORS
330
2A
102
}
330
2A
100
AcDbVisualStyle
  2
Basic
 70
     7
177
     2
291
     1
 71
     1
176
     1
 72
     0
176
     1
 73
     1
176
     1
 90
        0
176
     1
 40
-0.6
176
     1
 41
-30.0
176
     1
 62
     5
 63
     7
421
 16777215
176
     1
 74
     0
176
     1
 91
        4
176
     1
 64
     7
176
     1
 65
   257
176
     1
 75
     1
176
     1
175
     1
176
     1
 42
1.0
176
     1
 92
        8
176
     1
 66
     7
176
     1
 43
1.0
176
     1
 76
     1
176
     1
 77
     6
176
     1
 78
     2
176
     1
 67
     7
176
     1
 79
     5
176
     1
170
     0
176
     1
171
     0
176
     1
290
     0
176
     1
 93
        1
176
     1
 44
0.0
176
     1
173
     0
176
     1
  0
VISUALSTYLE
  5
36
102
{ACAD_REACTORS
330
2A
102
}
330
2A
100
AcDbVisualStyle
  2
Brighten
 70
    12
177
     2
291
     1
 71
     2
176
     1
 72
     2
176
     1
 73
     0
176
     1
 90
        0
176
     1
 40
-0.6
176
     1
 41
-30.0
176
     1
 62
     5
 63
     7
421
 16777215
176
     1
 74
     1
176
     1
 91
        4
176
     1
 64
     7
176
     1
 65
   257
176
     1
 75
     1
176
     1
175
     1
176
     1
 42
1.0
176
     1
 92
        8
176
     1
 66
     7
176
     1
 43
1.0
176
     1
 76
     1
176
     1
 77
     6
176
     1
 78
     2
176
     1
 67
     7
176
     1
 79
     5
176
     1
170
     0
176
     1
171
     0
176
     1
290
     0
176
     1
 93
        1
176
     1
 44
50.0
176
     1
173
     0
176
     1
  0
VISUALSTYLE
  5
3A
102
{ACAD_REACTORS
330
2A
102
}
330
2A
100
AcDbVisualStyle
  2
ColorChange
 70
    16
177
     2
291
     1
 71
     2
176
     1
 72
     2
176
     1
 73
     3
176
     1
 90
        0
176
     1
 40
-0.6
176
     1
 41
-30.0
176
     1
 62
     5
 63
     8
421
  8421504
176
     1
 74
     1
176
     1
 91
        4
176
     1
 64
     7
176
     1
 65
   257
176
     1
 75
     1
176
     1
175
     1
176
     1
 42
1.0
176
     1
 92
        8
176
     1
 66
     8
424
  8421504
176
     1
 43
1.0
176
     1
 76
     1
176
     1
 77
     6
176
     1
 78
     2
176
     1
 67
     7
176
     1
 79
     5
176
     1
170
     0
176
     1
171
     0
176
     1
290
     0
176
     1
 93
        1
176
     1
 44
0.0
176
     1
173
     0
176
     1
  0
VISUALSTYLE
  5
34
102
{ACAD_REACTORS
330
2A
102
}
330
2A
100
AcDbVisualStyle
  2
Conceptual
 70
     9
177
     2
291
     0
 71
     3
176
     1
 72
     2
176
     1
 73
     0
176
     1
 90
        0
176
     1
 40
-0.6
176
     1
 41
-30.0
176
     1
 62
     5
 63
     7
421
 16777215
176
     1
 74
     2
176
     1
 91
        2
176
     1
 64
     7
176
     1
 65
   257
176
     1
 75
     1
176
     1
175
     1
176
     1
 42
40.0
176
     1
 92
        8
176
     1
 66
     7
176
     1
 43
1.0
176
     1
 76
     1
176
     1
 77
     6
176
     1
 78
     2
176
     1
 67
     7
176
     1
 79
     3
176
     1
170
     0
176
     1
171
     0
176
     1
290
     0
176
     1
 93
        1
176
     1
 44
0.0
176
     1
173
     0
176
     1
  0
VISUALSTYLE
  5
35
102
{ACAD_REACTORS
330
2A
102
}
330
2A
100
AcDbVisualStyle
  2
Dim
 70
    11
177
     2
291
     1
 71
     2
176
     1
 72
     2
176
     1
 73
     0
176
     1
 90
        0
176
     1
 40
-0.6
176
     1
 41
-30.0
176
     1
 62
     5
 63
     7
421
 16777215
176
     1
 74
     1
176
     1
 91
        4
176
     1
 64
     7
176
     1
 65
   257
176
     1
 75
     1
176
     1
175
     1
176
     1
 42
1.0
176
     1
 92
        8
176
     1
 66
     7
176
     1
 43
1.0
176
     1
 76
     1
176
     1
 77
     6
176
     1
 78
     2
176
     1
 67
     7
176
     1
 79
     5
176
     1
170
     0
176
     1
171
     0
176
     1
290
     0
176
     1
 93
        1
176
     1
 44
-50.0
176
     1
173
     0
176
     1
  0
VISUALSTYLE
  5
39
102
{ACAD_REACTORS
330
2A
102
}
330
2A
100
AcDbVisualStyle
  2
Facepattern
 70
    15
177
     2
291
     1
 71
     2
176
     1
 72
     2
176
     1
 73
     0
176
     1
 90
        0
176
     1
 40
-0.6
176
     1
 41
-30.0
176
     1
 62
     5
 63
     7
421
 16777215
176
     1
 74
     1
176
     1
 91
        4
176
     1
 64
     7
176
     1
 65
   257
176
     1
 75
     1
176
     1
175
     1
176
     1
 42
1.0
176
     1
 92
        8
176
     1
 66
     7
176
     1
 43
1.0
176
     1
 76
     1
176
     1
 77
     6
176
     1
 78
     2
176
     1
 67
     7
176
     1
 79
     5
176
     1
170
     0
176
     1
171
     0
176
     1
290
     0
176
     1
 93
        1
176
     1
 44
0.0
176
     1
173
     0
176
     1
  0
VISUALSTYLE
  5
2B
102
{ACAD_REACTORS
330
2A
102
}
330
2A
100
AcDbVisualStyle
  2
Flat
 70
     0
177
     2
291
     1
 71
     2
176
     1
 72
     1
176
     1
 73
     1
176
     1
 90
        2
176
     1
 40
-0.6
176
     1
 41
30.0
176
     1
 62
     5
 63
     7
421
 16777215
176
     1
 74
     0
176
     1
 91
        4
176
     1
 64
     7
176
     1
 65
   257
176
     1
 75
     1
176
     1
175
     1
176
     1
 42
1.0
176
     1
 92
        8
176
     1
 66
     7
176
     1
 43
1.0
176
     1
 76
     1
176
     1
 77
     6
176
     1
 78
     2
176
     1
 67
     7
176
     1
 79
     5
176
     1
170
     0
176
     1
171
     0
176
     1
290
     0
176
     1
 93
       13
176
     1
 44
0.0
176
     1
173
     0
176
     1
  0
VISUALSTYLE
  5
2C
102
{ACAD_REACTORS
330
2A
102
}
330
2A
100
AcDbVisualStyle
  2
FlatWithEdges
 70
     1
177
     2
291
     1
 71
     2
176
     1
 72
     1
176
     1
 73
     1
176
     1
 90
        2
176
     1
 40
-0.6
176
     1
 41
30.0
176
     1
 62
     5
 63
     7
421
 16777215
176
     1
 74
     1
176
     1
 91
        4
176
     1
 64
     7
176
     1
 65
   257
176
     1
 75
     1
176
     1
175
     1
176
     1
 42
1.0
176
     1
 92
        0
176
     1
 66
   257
176
     1
 43
1.0
176
     1
 76
     1
176
     1
 77
     6
176
     1
 78
     2
176
     1
 67
     7
176
     1
 79
     5
176
     1
170
     0
176
     1
171
     0
176
     1
290
     0
176
     1
 93
       13
176
     1
 44
0.0
176
     1
173
     0
176
     1
  0
VISUALSTYLE
  5
2D
102
{ACAD_REACTORS
330
2A
102
}
330
2A
100
AcDbVisualStyle
  2
Gouraud
 70
     2
177
     2
291
     1
 71
     2
176
     1
 72
     2
176
     1
 73
     1
176
     1
 90
        2
176
     1
 40
-0.6
176
     1
 41
30.0
176
     1
 62
     5
 63
     7
421
 16777215
176
     1
 74
     0
176
     1
 91
        4
176
     1
 64
     7
176
     1
 65
   257
176
     1
 75
     1
176
     1
175
     1
176
     1
 42
1.0
176
     1
 92
        0
176
     1
 66
     7
176
     1
 43
1.0
176
     1
 76
     1
176
     1
 77
     6
176
     1
 78
     2
176
     1
 67
     7
176
     1
 79
     5
176
     1
170
     0
176
     1
171
     0
176
     1
290
     0
176
     1
 93
       13
176
     1
 44
0.0
176
     1
173
     0
176
     1
  0
VISUALSTYLE
  5
2E
102
{ACAD_REACTORS
330
2A
102
}
330
2A
100
AcDbVisualStyle
  2
GouraudWithEdges
 70
     3
177
     2
291
     1
 71
     2
176
     1
 72
     2
176
     1
 73
     1
176
     1
 90
        2
176
     1
 40
-0.6
176
     1
 41
30.0
176
     1
 62
     5
 63
     7
421
 16777215
176
     1
 74
     1
176
     1
 91
        4
176
     1
 64
     7
176
     1
 65
   257
176
     1
 75
     1
176
     1
175
     1
176
     1
 42
1.0
176
     1
 92
        0
176
     1
 66
   257
176
     1
 43
1.0
176
     1
 76
     1
176
     1
 77
     6
176
     1
 78
     2
176
     1
 67
     7
176
     1
 79
     5
176
     1
170
     0
176
     1
171
     0
176
     1
290
     0
176
     1
 93
       13
176
     1
 44
0.0
176
     1
173
     0
176
     1
  0
VISUALSTYLE
  5
38
102
{ACAD_REACTORS
330
2A
102
}
330
2A
100
AcDbVisualStyle
  2
Linepattern
 70
    14
177
     2
291
     1
 71
     2
176
     1
 72
     2
176
     1
 73
     0
176
     1
 90
        0
176
     1
 40
-0.6
176
     1
 41
-30.0
176
     1
 62
     5
 63
     7
421
 16777215
176
     1
 74
     1
176
     1
 91
        4
176
     1
 64
     7
176
     1
 65
   257
176
     1
 75
     7
176
     1
175
     7
176
     1
 42
1.0
176
     1
 92
        8
176
     1
 66
     7
176
     1
 43
1.0
176
     1
 76
     1
176
     1
 77
     6
176
     1
 78
     2
176
     1
 67
     7
176
     1
 79
     5
176
     1
170
     0
176
     1
171
     0
176
     1
290
     0
176
     1
 93
        1
176
     1
 44
0.0
176
     1
173
     0
176
     1
  0
VISUALSTYLE
  5
33
102
{ACAD_REACTORS
330
2A
102
}
330
2A
100
AcDbVisualStyle
  2
Realistic
 70
     8
177
     2
291
     0
 71
     2
176
     1
 72
     2
176
     1
 73
     0
176
     1
 90
        0
176
     1
 40
-0.6
176
     1
 41
-30.0
176
     1
 62
     5
 63
     7
421
 16777215
176
     1
 74
     1
176
     1
 91
        0
176
     1
 64
     7
176
     1
 65
   257
176
     1
 75
     1
176
     1
175
     1
176
     1
 42
1.0
176
     1
 92
        8
176
     1
 66
     8
424
  7895160
176
     1
 43
1.0
176
     1
 76
     1
176
     1
 77
     6
176
     1
 78
     2
176
     1
 67
     7
176
     1
 79
     5
176
     1
170
     0
176
     1
171
     0
176
     1
290
     0
176
     1
 93
       13
176
     1
 44
0.0
176
     1
173
     0
176
     1
  0
VISUALSTYLE
  5
37
102
{ACAD_REACTORS
330
2A
102
}
330
2A
100
AcDbVisualStyle
  2
Thicken
 70
    13
177
     2
291
     1
 71
     2
176
     1
 72
     2
176
     1
 73
     0
176
     1
 90
        0
176
     1
 40
-0.6
176
     1
 41
-30.0
176
     1
 62
     5
 63
     7
421
 16777215
176
     1
 74
     1
176
     1
 91
        4
176
     1
 64
     7
176
     1
 65
   257
176
     1
 75
     1
176
     1
175
     1
176
     1
 42
1.0
176
     1
 92
       12
176
     1
 66
     7
176
     1
 43
1.0
176
     1
 76
     1
176
     1
 77
     6
176
     1
 78
     2
176
     1
 67
     7
176
     1
 79
     5
176
     1
170
     0
176
     1
171
     0
176
     1
290
     0
176
     1
 93
        1
176
     1
 44
0.0
176
     1
173
     0
176
     1
  0
ENDSEC
  0
EOF
