<?xml version="1.0" encoding="utf-8"?>
<!-- Generator: Adobe Illustrator 19.2.1, SVG Export Plug-In . SVG Version: 6.00 Build 0)  -->
<svg version="1.1" id="Layer_1" xmlns="http://www.w3.org/2000/svg" xmlns:xlink="http://www.w3.org/1999/xlink" x="0px" y="0px"
	 viewBox="0 0 96 120" style="enable-background:new 0 0 96 120;" xml:space="preserve">
<path d="M77.3,32.4c0,1.1-0.9,2.1-2.1,2.1s-2.1-0.9-2.1-2.1c0-1.1,0.9-2.1,2.1-2.1S77.3,31.2,77.3,32.4z"/>
<path d="M95,39.4c-1.9-1.2-3.6-2.4-5.2-3.8c2.1-6.3,3.6-16,2.5-21.7c-0.2-0.9-0.9-1.5-1.8-1.6c-0.9-0.1-1.7,0.4-2,1.2
	c-1.6,3.9-4.4,7.8-7.5,10.8c-3.4-3.5-5.6-6.5-5.9-12.9c-0.1-1.1-0.9-1.9-2-1.9c-15.3,0-25.5,7.9-32,24.9C41,34.6,41,34.9,41,35.2
	c2.5,23.3,17.3,31.5,29.3,31.5c7.1,0,13.8-2.9,18.7-8.1c0.6-0.6,0.7-1.5,0.3-2.3c-1.5-2.9-2.1-5.1-2.3-6.6c1.7-0.3,3.4-0.2,5,0.5
	c0.5,0.2,1.1,0.2,1.6,0c0.5-0.2,0.9-0.7,1.1-1.2c0.8-2.6,1.3-5.2,1.3-7.9C95.9,40.4,95.6,39.8,95,39.4L95,39.4z M70.3,39.4
	c-3.3,0-6.1-2.7-6.1-6.1c0-3.3,2.7-6.1,6.1-6.1s6.1,2.7,6.1,6.1C76.3,36.7,73.6,39.4,70.3,39.4z"/>
</svg>
