<?xml version="1.0" encoding="utf-8"?>
<!-- Generator: Adobe Illustrator 19.2.1, SVG Export Plug-In . SVG Version: 6.00 Build 0)  -->
<svg version="1.1" id="Layer_2" xmlns="http://www.w3.org/2000/svg" xmlns:xlink="http://www.w3.org/1999/xlink" x="0px" y="0px"
	 viewBox="0 0 66.1 33.1" style="enable-background:new 0 0 66.1 33.1;" xml:space="preserve">
<title>curvy dino</title>
<path d="M12.9,31.8c0.9-1.1,1.6-2.4,2.2-3.7c0.1-0.3,1.5-2.6,0.9-2.8c-3.8-1.4-6.7-4.5-8-8.3c-1.4-3.7-1.2-7.4-2-11.2
	C5.6,4.2,4.6,2.4,2.8,3.9C1.4,5,1.1,4.4,1.3,3C0.6,3.7,0,3.2,0,2.4c0.1-1.2,1.1-2.2,2.3-2.3c2.9-0.6,5.1,1.2,6.4,3.6s1.8,5,2.9,7.3
	c1.5,3.1,3.9,3.2,6.4,1.2c2-1.8,4.5-3.2,7.1-4c3-0.9,6.3-0.7,9.2,0.4c5.4,2.2,8.9,7.9,11.5,12.9c1.3,2.6,2.5,5.8,5.1,7.4
	c2.4,1.5,5.5,1.2,7.6-0.7c1.8-1.8,1.6-4.4,3.2-6.2c0.8-1.1,2.2-1.7,3.5-1.6c2.1,0.4-0.6,2.1-1.2,2.3c-1.5,0.6-1.2,1.6-1.6,3
	c-0.4,1.3-1,2.5-1.9,3.6c-2,2.3-5.1,2.9-8,2.9c-1.8,0.1-3.7-0.3-5.4-1c-1.3-0.7-2.6-1.5-3.7-2.5c-1.3-1.1-2.5-2.8-4-3.7
	c-2.1-1.3-2.3,1-1.9,2.4c0.4,1.5,0.6,3.1,0.6,4.6c0,0.8-3,0.5-3.7,0.5c-0.4,0-0.7,0-1.1-0.1c-1-0.2,0.5-1.1,0.6-1.6
	c0.3-1-0.6-2.1-1-3c-0.2-0.4-1-2.8-1.7-1.5c-0.9,1.6-0.3,4.4-1.8,5.6c-0.4,0.3-3.7,0.7-4.1,0.1s1.1-1.3,1.1-2.1c0-1-0.1-2-0.1-2.9
	c-0.1-1.7,0-2.1-1.5-1.4s-1.7,1.2-1.6,3.1c0.1,1.6,0.6,3.5-1.5,3.5c-0.3,0-3.4,0.2-2.4-0.8s1-3.5-0.2-4.4c-1.3,1.2-2.1,2.9-2.3,4.6
	C16.6,33.9,12,33.1,12.9,31.8"/>
</svg>
