<?xml version="1.0" encoding="utf-8"?>
<!-- Generator: Adobe Illustrator 19.2.1, SVG Export Plug-In . SVG Version: 6.00 Build 0)  -->
<svg version="1.1" id="Layer_1" xmlns="http://www.w3.org/2000/svg" xmlns:xlink="http://www.w3.org/1999/xlink" x="0px" y="0px"
	 viewBox="0 0 100 125" style="enable-background:new 0 0 100 125;" xml:space="preserve">
<path d="M84.6,56.2C84.6,79.7,69.1,95,50,95c-19.1,0-34.6-14.3-34.6-38.8C15.4,27.9,30.9,5,50,5c17.8,0,32.4,19.7,34.4,45.1
	l-5.2-3.2l-1.8-1.1l-0.9,1.8l-4.3,9l-15.1-8.8l-0.6-0.4L56.2,48l-6.4,8.9l-9.5-3.4l9.5,4.1l0.2,0.1l0.2-0.2l6.7-8.1l15.2,10.4
	l1.2,0.8l0.8-1.4l4.6-8.2l5.8,4.2C84.6,55.6,84.6,55.9,84.6,56.2z"/>
</svg>
