<?xml version="1.0" encoding="utf-8"?>
<!-- Generator: Adobe Illustrator 19.2.1, SVG Export Plug-In . SVG Version: 6.00 Build 0)  -->
<svg version="1.1"
	 id="Layer_1" xmlns:cc="http://creativecommons.org/ns#" xmlns:dc="http://purl.org/dc/elements/1.1/" xmlns:inkscape="http://www.inkscape.org/namespaces/inkscape" xmlns:rdf="http://www.w3.org/1999/02/22-rdf-syntax-ns#" xmlns:sodipodi="http://sodipodi.sourceforge.net/DTD/sodipodi-0.dtd" xmlns:svg="http://www.w3.org/2000/svg"
	 xmlns="http://www.w3.org/2000/svg" xmlns:xlink="http://www.w3.org/1999/xlink" x="0px" y="0px" viewBox="0 0 100 125"
	 style="enable-background:new 0 0 100 125;" xml:space="preserve">
<style type="text/css">
	.st0{fill:#FFFFFF;}
</style>
<g transform="translate(0,-952.36217)">
	<path d="M20.2,957.4c-9.8,0.5-19.4,19.7,0.6,13c8.1,12.5-9.2,30-8.6,45.7c0.1,2.9-0.7,10.2,5.6,13c0.1,0,0.2,0.1,0.3,0.1
		c-0.1,5.5-0.2,13.6,0.4,14c3.3,2.5,5.3,2.7,6.8,1.7c0,0,0,0.1,0.1,0.1c4.9,3.6,6.7,2.4,8.6-0.2c0.2-0.3,0.3-7.3,0.4-12
		c4.3,0.4,8.4,0.4,11.8,0.5c-0.1,3.7,0,7.6,0.4,7.9c2.8,2.1,4.3,2.1,5.4,1.1c0.1,0.7,0.2,1.2,0.3,1.3c4.9,3.6,6.7,2.4,8.6-0.2
		c0.3-0.4,0.4-12.8,0.5-15.1c0.3-0.1,0.7-0.1,1.1-0.1c-0.2,5.6,5.5,9.7,9.7,10.4c4.2,0.7,17.5-7,18.8-13.7c-6.7,5.4-15,9.7-19.3,3.2
		c-7.6-11.5-7.7-33.8-22.7-35.3c-12-1.2-20,7.7-19.4,4.2C31.7,983.9,32.8,956.7,20.2,957.4L20.2,957.4z"/>
</g>
<ellipse class="st0" cx="17.3" cy="8.9" rx="0.9" ry="0.7"/>
<polygon class="st0" points="8.4,14.6 14.7,13.4 8.7,16.2 "/>
</svg>
