<?xml version="1.0" encoding="utf-8"?>
<!-- Generator: Adobe Illustrator 19.2.1, SVG Export Plug-In . SVG Version: 6.00 Build 0)  -->
<svg version="1.1" id="Layer_1" xmlns="http://www.w3.org/2000/svg" xmlns:xlink="http://www.w3.org/1999/xlink" x="0px" y="0px"
	 viewBox="0 0 100 91.5" style="enable-background:new 0 0 100 91.5;" xml:space="preserve">
<path d="M99.2,73.2c-28.2,0-46.1-9.9-46.1-9.9l-1.9,8.1h-7.1v-1c0-0.8,0.7-1.4,1.4-1.4c1.2,0,1.3-3,1.3-4.8c0-1.9-3.2-6.4-3.2-6.4
	l-1.8,9l-3.4,4.6h-5.8v-1c0-0.8,0.7-1.4,1.4-1.4c1.8,0,1.6-1.7,3.1-4.6c0.5-1.9-2.4-9.2-1.9-15.4c-5.2-4.9-8-9-9.5-12.5
	c-0.9,2.4-2.2,3.7-4,4.1c-0.5,0.2-1.5,0.2-2.4,0.2c-1.1,0-1.3,0-1.8-0.1c-2,0-1.9-3.1,0.2-3.1c1.6,0.1,2.7,0.2,3.2,0
	c0.8-0.2,1.5-1.2,2-3c-0.2,0-0.4,0-0.6,0c-1.9,0-3.1-0.4-5.2-1.9c-1.2-1.1,0.2-3.2,1.6-2.1c1.5,1.1,2.5,1.5,4.4,1.3
	c0.2,0,0.4,0,0.4-0.1c0.2-1.1,0.3-2,0.4-2.8c-0.4-3-0.3-5.4-1.3-7.2c-2.8-5.1-6.4-10.4-9.3-12.9c-1.8-1.6-3.4-1.9-4.8-2
	c0,0-4.9-0.2-6.5-0.6C0.9,5.9,0.2,5.6,0,4.9c-0.3-1.1,1.1-2,1.6-2.4C4.6,0.6,9.7,0,9.8,0c5.2,0,7.5,2.4,14.6,11.1
	c7.2,9,15.3,6.4,24.4,13.8c10.1,7.9,13.6,13.4,18,27.5C72,68.7,89.2,71.2,99.2,71.9C100.3,71.9,100.2,73.2,99.2,73.2z"/>
</svg>
