<?xml version="1.0" encoding="utf-8"?>
<!-- Generator: Adobe Illustrator 19.2.1, SVG Export Plug-In . SVG Version: 6.00 Build 0)  -->
<svg version="1.1" id="Layer_1" xmlns="http://www.w3.org/2000/svg" xmlns:xlink="http://www.w3.org/1999/xlink" x="0px" y="0px"
	 viewBox="0 0 100 49.7" style="enable-background:new 0 0 100 49.7;" xml:space="preserve">
<style type="text/css">
	.st0{fill:#010101;}
</style>
<path class="st0" d="M15.3,30.9"/>
<path class="st0" d="M100,17.9c0,0-0.7,0-3.6-0.1c0,0,0,0-0.1,0c-2.8,0.1-5.3-1.9-5.3-1.9v-2.1c0.3-0.3,1.9-1,1.9-1
	c2.4-0.5,6.5-2.4,6.5-2.4c0.5-0.4-0.2-0.4-0.2-0.4c-0.5,0.4-1.8,0.6-1.8,0.6c-1.3,0.1-2.6,0.3-2.6,0.3c-0.7,0.4-4.6,0.5-4.6,0.5
	l1.5-0.9c3.2-1,5.6-3.5,5.6-3.5C97.6,6.5,97,7,97,7c-1.2,1-4.8,1.8-4.8,1.8c-2.5,0.7-5.1,1.7-5.1,1.7c-1.4,0.8-2.9,1-2.9,1
	c-0.5,0-1.6-0.9-1.6-0.9c-1.9-1.2-1.5-4.2-1.5-4.2c0.4-0.5,0.1-0.6,0.1-0.6c-0.1-0.3-0.8-0.2-0.8-0.2l0-0.5l-2.4,0
	c-0.5,0-0.8-0.4-0.8-0.4c-0.1,0.3-1.4,0.7-1.4,0.7c-1.4-0.1-1.9,0.6-1.9,0.6C73.1,7.5,72,8,72,8c-0.3,0.2-0.5,2-0.5,2l-0.3,0
	l-0.1-0.2c-0.8-1.5-2.3-2.1-2.3-2.1c-0.3-0.9-1.3-0.8-1.3-0.8c-0.1-0.8-1.3-0.8-1.3-0.8c-0.3-1-1.3-0.7-1.3-0.7
	c-0.4-0.7-1.5-0.8-1.5-0.8c-0.2-0.6-1.3-0.7-1.3-0.7c-0.3-0.7-1.6-0.7-1.6-0.7c-0.8-0.9-2-0.7-2-0.7c-0.5-0.6-2-0.6-2-0.6
	C55.8,0.7,54,1,54,1s0.5,0.6,0,0c0,0,0,0,0,0c-0.5-0.6-1.4-0.4-1.4-0.4l-0.6,0c-0.4-0.4-1.4-0.2-1.4-0.2l-0.4,0
	c-0.3-0.4-1.4-0.2-1.4-0.2h-0.6c-0.6-0.3-0.8,0-0.8,0l-0.9,0c-0.3-0.2-1.3,0-1.3,0l-0.8,0.1c-0.8-0.3-1.4,0.2-1.4,0.2
	c-1.4,0-1.9,0.4-1.9,0.4c-1.7,0-2.2,0.8-2.2,0.8c-0.9-0.2-2.3,0.7-2.3,0.7c-1.4,0-2.1,1.1-2.1,1.1c-1.4-0.1-2.1,1.5-2.1,1.5
	c-1.4,0.1-2.1,2-2.1,2c-0.9,0.1-1.5,1.9-1.5,1.9c-0.8,0.2-1.1,1.7-1.1,1.7c-1.3,0.6-1.4,2.1-1.4,2.1c-1.2,0.6-1,2.3-1,2.3
	c-0.8,0.3-0.8,1.3-0.8,1.3c-0.9,0.2-0.8,1.8-0.8,1.8c-0.9,0.2-0.8,1.3-0.8,1.3c-1.1,0.6-1.1,1.7-1.1,1.7c-1.1,0.7-1,1.8-1,1.8
	c-0.7,0.3-1.1,1.4-1.1,1.4c-0.8,0.3-1.5,1.7-1.5,1.7c-1.3,0.7-1.2,1.5-1.2,1.5c-1,0.9-1.1,1.6-1.1,1.6c-1.4,0.1-1.1,1.1-1.1,1.1
	c-1,0-1.5,1-1.5,1c-1,0-1.2,0.8-1.2,0.8c-1.5,0.1-1.4,0.7-1.4,0.7c-1.5-0.1-1.4,0.4-1.4,0.4C8,32.7,8,33.3,8,33.3
	c-1.3-0.1-1.2,0.3-1.2,0.3c-1.5-0.1-1.3,0.4-1.3,0.4c-1.1-0.1-1.1,0.3-1.1,0.3c-1.2,0-1.1,0.3-1.1,0.3c-1.3-0.1-1.2,0.3-1.2,0.3
	c-1.7,0-2.1,0.9-2.1,0.9l9.7,0c6.5-0.2,8.6-1.9,8.6-1.9c3.1-0.7,9.8-5.7,9.8-5.7c2.4-2.2,6.5-3.5,6.5-3.5l2,0c0.3,0,0.2,0.3,0.2,0.3
	c-1,0.7-2.6,4.1-2.6,4.1c-0.3,0.7-0.9,1.2-0.9,1.2c-1.5,1.6-0.4,2.9-0.4,2.9v2.1c0.2,1.9,2.1,1.8,2.1,1.8h3.9
	c0.8-0.1,0.4-0.7,0.4-0.7c-1.1-0.5-1.9-2.2-1.9-2.2l0.1-1.8c1.2-0.7,4.1-4.1,4.1-4.1c0.4-0.6,0.5,0.2,0.5,0.2l-0.2,3.9
	c-0.3,0.2-0.5,0.8-0.5,0.8c-0.9,1.7,0.5,3,0.5,3c0.4,1.7,1.2,2.4,1.2,2.4c0.7,0.7,3,0.5,3,0.5c1.6,0.5,2.1,0.2,2.1,0.2
	c1.5,0.1,1.3-0.4,1.3-0.4c0,0.1,0.6,0,0.6,0c0.7-0.3-1.2-1.4-1.2-1.4c-1.1-0.8-2.2-3-2.2-3v-1.5l1.1-3.4l1.1-3.5
	c1.5,0.5,7.1,1.4,7.1,1.4c1.9,0.1,4.8-0.4,4.8-0.4c0,0.2-0.6,1.6-0.6,1.6c-0.7,1.1,0.1,2.3,0.1,2.3c0,1,1.5,3.7,1.5,3.7
	c0.2,1.6,1.1,2.3,1.1,2.3v1.1c0,1.5,2.4,1.5,2.4,1.5c1.7,0.4,1.6-0.1,1.6-0.1c0.5,0.3,1-0.1,1-0.1c0.9,0.2,0.8-0.2,0.8-0.2
	c0.8,0,0.7-0.4,0.7-0.4c-0.2-0.7-2.4-2-2.4-2l-0.1-1.9c0-1.1-1.2-2.6-1.2-2.6c0.1-1.6-0.3-2.1-0.3-2.1v-0.3c0.5-0.2,2.1-1.3,2.1-1.3
	l1.3,0c-0.2,0.2-0.2,0.7-0.2,0.7c-0.1,1.4,0.9,2.6,0.9,2.6c0,0.7,0.2,1,0.2,1v0.8c0,0.8,0.9,1.8,0.9,1.8v1c0,0.8,0.9,0.7,0.9,0.7
	c0.1,0.4,1,0.4,1,0.4c0.3,0.5,1.1,0,1.1,0c0,0.3,1,0.1,1,0.1l0.1-0.2H75l0.1-0.4h0.6c0-0.8-1-1.9-1-1.9c0-0.9-1-4.4-1-4.4l0.1-2.2
	l0.1-0.1c1,0.1,3-2.1,3-2.1c3.1-0.1,3.3-0.3,3.3-0.3l0.5,0c0.5,0.5,1.6,0.5,1.6,0.5c2,0.1,3.3-1.7,3.3-1.7h1.6
	c2.1,1.3,3.6,1.5,3.6,1.5c1.9,0,3-1.6,3-1.6l-1.4,0c-1.4-0.7-0.7-1.7-0.7-1.7c3.5-0.3,2.6,2.5,2.6,2.5c2.5,0,3.1-3,3.1-3
	c0.1-1.2-0.3-2.8-0.3-2.8L100,17.9z M86.1,15.7c0,0,0.7-1.2,1.4,0.2C87.5,15.9,86.6,16.8,86.1,15.7z M94.2,20.1
	c-0.2-0.2,0.2-1,1-0.1C95.2,20,94.4,20.2,94.2,20.1z"/>
</svg>
