<?xml version="1.0" encoding="utf-8"?>
<!-- Generator: Adobe Illustrator 19.2.1, SVG Export Plug-In . SVG Version: 6.00 Build 0)  -->
<svg version="1.1" baseProfile="tiny" id="Layer_1" xmlns="http://www.w3.org/2000/svg" xmlns:xlink="http://www.w3.org/1999/xlink"
	 x="0px" y="0px" viewBox="0 0 612 990" xml:space="preserve">
<g display="none">
	<g display="inline">
		<g display="none">
			<g display="inline">
				<path d="M514.1,453h-18v-36h18c14.9,0,27-12.1,27-27v-72c0-14.9-12.1-27-27-27h-18v-36h18c34.7,0,63,28.3,63,63v72
					C577.1,424.7,548.8,453,514.1,453L514.1,453z"/>
				<path d="M0,580.5c0,24.9,20,45,44.6,45h522.7c24.7,0,44.6-20.1,44.6-45H0z"/>
				<path d="M260.4,79.2c20.2,60.6-32,76.7-32,76.7l-0.2,0.4c0.5-0.9,12.6-22.1-1.9-65.7c-20.2-60.6,32-76.7,32-76.7l0.2-0.4
					C257.9,14.4,245.8,35.6,260.4,79.2z"/>
				<path d="M323.1,79.2c20.2,60.6-32,76.7-32,76.7l-0.2,0.4c0.5-0.9,12.6-22.1-1.9-65.7c-20.2-60.6,32-76.7,32-76.7l0.2-0.4
					C320.6,14.4,308.5,35.6,323.1,79.2z"/>
				<path d="M385.8,79.2c20.2,60.6-32,76.7-32,76.7l-0.2,0.4c0.5-0.9,12.6-22.1-1.9-65.7c-20.2-60.6,32-76.7,32-76.7l0.2-0.4
					C383.3,14.4,371.2,35.6,385.8,79.2z"/>
				<path d="M135.1,192.1V480c0,39.8,32.2,72,72,72H405c39.8,0,72-32.2,72-72V192.1H135.1z M422.9,471c0,5-4,9-9,9s-9-4-9-9V237.1
					c0-5,4-9,9-9s9,4,9,9V471z"/>
			</g>
			<text transform="matrix(1 0 0 1 -9.765625e-04 717.3037)" display="inline" font-family="'Arial-BoldMT'" font-size="30.6006px">Created by Olivier Guin</text>
			<text transform="matrix(1 0 0 1 -9.765625e-04 747.9063)" display="inline" font-family="'Arial-BoldMT'" font-size="30.6006px">from the Noun Project</text>
		</g>
		<g>
			<g>
				<path d="M361.8,194.5c-2.8,0-5-2.2-5-5v-19.2c0-2.8-2.2-5-5-5h-309c-2.8,0-5,2.2-5,5v19.2c0,2.8,0,5.2,0,5.5s0,2.7,0,5.5v10.3
					c0,2.8,2.2,5,5,5h294.4c2.8,0,5,2.2,5,5V240c0,2.8,2.2,5,5,5h231.5c2.8,0,5,2.2,5,5v280.5c0,2.8,2.2,5,5,5h4.6c2.8,0,5-2.2,5-5
					v-331c0-2.8-2.2-5-5-5H361.8z"/>
			</g>
			<path d="M564.7,258H333.3c-2.8,0-5-2.2-5-5v-19.2c0-2.8-2.2-5-5-5h-309c-2.8,0-5,2.2-5,5V253c0,2.8,0,5.2,0,5.5s0,2.7,0,5.5v330
				c0,2.8,2.2,5,5,5h30.8c2.8,0,5-0.3,5-0.6c0,0,0,0,0-0.3c0-26.3,16.5-47.6,36.8-47.6s36.8,21.3,36.8,47.6c0,0.3,0,0.3,0,0.3
				c0,0.3,2.2,0.6,5,0.6H447c2.8,0,5-0.3,5-0.6c0,0,0,0,0-0.3c0-26.3,16.5-47.6,36.8-47.6s36.8,21.3,36.8,47.6c0,0.3,0,0.3,0,0.3
				c0,0.3,2.2,0.6,5,0.6h34.3c2.8,0,5-2.2,5-5V263C569.7,260.3,567.5,258,564.7,258z M183.5,466.9h-132c0-0.1,0-0.2,0-0.4
				c0-36,17.4-66.8,42-79.1c-8.4-7.2-13.8-17.9-13.8-29.8c0-21.7,17.6-39.2,39.2-39.2s39.2,17.6,39.2,39.2
				c0,12.4-5.8,23.5-14.8,30.7c23.6,12.9,40.2,43.1,40.2,78.2C183.5,466.7,183.5,466.8,183.5,466.9z M265.1,395.5v-8.9
				c0-2.8,2.2-5,5-5h106c2.8,0,5,2.2,5,5v8.9c0,2.8-2.2,5-5,5h-106C267.3,400.5,265.1,398.2,265.1,395.5z M536.7,439.8
				c0,2.8-2.2,5-5,5h-172c-2.8,0-5-2.2-5-5v-6.3c0-2.8,2.2-5,5-5h172c2.8,0,5,2.2,5,5V439.8z M536.7,395.5c0,2.8-2.2,5-5,5H403.1
				c-2.8,0-5-2.2-5-5v-8.9c0-2.8,2.2-5,5-5h128.6c2.8,0,5,2.2,5,5V395.5z M540.5,347.4c0,2.8-2.2,5-5,5H270.1c-2.8,0-5-2.2-5-5v-6
				c0-2.8,2.2-5,5-5h265.4c2.8,0,5,2.2,5,5V347.4L540.5,347.4z"/>
		</g>
	</g>
	<g display="inline">
		<g>
			<path d="M48.7,555.1c0,3.3,2.7,6,6,6h78c3.3,0,6-2.7,6-6V228.5c0-3.3-2.7-6-6-6h-78c-3.3,0-6,2.7-6,6
				C48.7,228.5,48.7,555.1,48.7,555.1z"/>
		</g>
		<g>
			<path d="M154.7,555.1c0,3.3,2.7,6,6,6h78c3.3,0,6-2.7,6-6V308.5c0-3.3-2.7-6-6-6h-78c-3.3,0-6,2.7-6,6V555.1z"/>
		</g>
		<g>
			<path d="M260.7,555.1c0,3.3,2.7,6,6,6h78c3.3,0,6-2.7,6-6V356.5c0-3.3-2.7-6-6-6h-78c-3.3,0-6,2.7-6,6V555.1z"/>
		</g>
		<g>
			<path d="M367.2,555.1c0,3.3,2.7,6,6,6h78c3.3,0,6-2.7,6-6V420.5c0-3.3-2.7-6-6-6h-78c-3.3,0-6,2.7-6,6V555.1z"/>
		</g>
		<g>
			<path d="M479.7,472.5c-3.3,0-6,2.7-6,6v83.9c0,3.3,2.7,6,6,6h78c3.3,0,6-2.7,6-6v-83.9c0-3.3-2.7-6-6-6L479.7,472.5L479.7,472.5z
				"/>
		</g>
		<path d="M599.7,561.8c0-4.2-4.6-7.7-10.2-7.7H22.9c-5.6,0-10.2,3.4-10.2,7.7V586c0,4.2,4.6,7.7,10.2,7.7h566.7
			c5.6,0,10.2-3.4,10.2-7.7L599.7,561.8L599.7,561.8z"/>
		<g>
			<path d="M559,383.8c3.3,0.2,4.8-2,3.3-5l-42.9-86.3c-1.5-3-4.2-3.1-6-0.4l-17,25.6c-1.8,2.7-5.6,3.6-8.4,1.9l-143.1-87.4
				c-2.8-1.7-5.1-3.5-5.1-3.9s-0.5-0.7-1.2-0.8c-0.7,0-1.4-0.1-1.7-0.3c-0.2-0.1-0.5-0.1-0.6,0s-2.8,0.2-6.1,0.1l-45-1
				c-3.3-0.1-8.4-1.4-11.2-3L64,107c-2.9-1.6-6.6-0.5-8.2,2.3l-6.3,11.4c-1.6,2.9-0.5,6.6,2.3,8.2L266,247.6c2.9,1.6,5.2,3,5.2,3.2
				s0.2,0.3,0.5,0.3s0.7,0.1,0.9,0.2s0.4,0.1,0.5,0s2.8-0.1,6.1,0l44.7,1c3.3,0.1,8.3,1.5,11.1,3.3l139.1,84.9
				c2.8,1.7,3.6,5.4,1.8,8.1l-15.7,23.7c-1.8,2.7-0.6,5.2,2.7,5.4L559,383.8z"/>
		</g>
	</g>
</g>
<g display="none">
	<circle display="inline" cx="307" cy="299.2" r="284"/>
</g>
<g>
	<g>
		<ellipse cx="467.8" cy="0.7" rx="0" ry="0.4"/>
		<path d="M364,194.5c0,0-8.5-110.2-45.9-6c0,0,18.9,25.9,45.9,7.5"/>
		<path d="M322.3,189.8c0,0-8.5-110.2-45.9-6c0,0,18.9,25.9,45.9,7.5"/>
		<path d="M281.1,188.2c0,0-35.6-104.6-45.9,5.6c0,0,24.8,20.4,46.3-4.2"/>
		<path d="M241.2,193.2c0,0-66-88.6-42,19.5c0,0,29.9,11.8,42.8-18.2"/>
		<path d="M201.1,213.1c0,0-66.1-54.8-28.1,22.4c0,0,24.7,3.4,28.9-21.6"/>
		<path d="M181.6,236c0,0-78.7-34.3-20.8,29.3c0,0,24.7-3.6,21.8-28.7"/>
		<path d="M164.6,264.2c0,0-65.6-28.6-17.4,24.4c0,0,20.6-3,18.2-24"/>
		<path d="M147,288.9c0,0-47.4-36-18.8,16.3c0,0,17.2,1.7,19.4-15.8"/>
		<path d="M122.8,304.6c0,0-21.8-40.5-18.4,5.5c0,0,11.6,6.7,18.7-4.9"/>
		<path d="M102.7,308c0,0-10.5-41.8-18,0.7c0,0,9,8.7,18.1-0.1"/>
		<path d="M81.3,301.5c0,0,1.1-36.8-15-3.6c0,0,5.3,9.3,14.9,4.1"/>
		<path d="M397.8,213.5c0,0,24.8-107.7-42-19.4c0,0,10.3,30.4,41.5,20.8"/>
		<path d="M431.1,232.2c0,0,20.2-87.9-34.3-15.8c0,0,8.4,24.8,33.9,17"/>
		<path d="M451.8,249.4c0,0,16-69.4-27.1-12.5c0,0,6.7,19.6,26.8,13.4"/>
		<path d="M480.8,250.5c0,0-9.5-61.8-26.1-1.4c0,0,11.8,13.8,26.2,2.3"/>
		<path d="M501.2,218.9c0,0-43-26-14.4,15.4c0,0,14.6-0.2,14.9-15"/>
		<path d="M510.1,198.3c0,0-48.4-13.8-9.8,18.6c0,0,14.1-4,10.4-18.4"/>
		<path d="M511.5,103c0,0-36.6,9,0.6,15.8c0,0,7.7-7.8-0.1-15.9"/>
		<path d="M507.8,118.9c0,0-36.6,9,0.6,15.8c0,0,7.7-7.8-0.1-15.9"/>
		<path d="M507.8,134.7c0,0-36.6,9,0.6,15.8c0,0,7.7-7.8-0.1-15.9"/>
		<path d="M507.8,151.2c0,0-36.6,9,0.6,15.8c0,0,7.7-7.8-0.1-15.9"/>
		<path d="M504.5,165.4c0,0-36.6,9,0.6,15.8c0,0,7.7-7.8-0.1-15.9"/>
		<path d="M501.5,179.1c0,0-36.6,9,0.6,15.8c0,0,7.7-7.8-0.1-15.9"/>
		<path d="M571.4,49.8c0,0,2.8,15.1,26,12.4c8.4-17.3-20-38.5-20-38.5c-84.4-52.9-77.4,95-81.9,98.3
			c14.2,158.3-56.1,120.9-61.3,120.1c-110.9-110.9-247.5-30.5-261-7.5c-37.3,63.8-56.8,71.8-61.3,72.5C75.2,321,13.2,237,13.2,237
			c-2.2,30.8,30.7,88.1,30.7,88.1c64.3,112.2,421.5,40.8,421.5,40.8c144.5-28.8,86.3-148.1,86.3-148.1
			c-66.2-117-5.9-168.2-5.9-168.2c3.7,26.7,39.3,23.6,39.3,23.6c4-1.9,7-4.1,9.1-6.3C585.1,66.7,571.4,64.1,571.4,49.8z M555.5,35.3
			c-3,0-5.5-2.4-5.5-5.3s2.5-5.3,5.5-5.3s5.5,2.4,5.5,5.3S558.5,35.3,555.5,35.3z M564.2,31.6c0-2.9,2.5-5.3,5.5-5.3
			s5.5,2.4,5.5,5.3s-2.5,5.3-5.5,5.3S564.2,34.5,564.2,31.6z"/>
		<path d="M66.3,298.8c0,0,1.1-36.8-15-3.6c0,0,5.3,9.3,14.9,4.1"/>
		<circle cx="557.5" cy="32" r="3.8"/>
		<circle cx="571.7" cy="33" r="3.8"/>
		<path d="M459.5,353.4h-20.8c-8.1,0-14.7,3.7-14.7,8.3v39.5c0,4.6,6.6,8.3,14.7,8.3h4.1c0-0.3,0-0.5,0-0.8c0-5.3,2.2-9.7,4.9-9.7
			c2.7,0,4.9,4.3,4.9,9.7c0,0.3,0,0.5,0,0.8h6.8c-0.3-1.5-0.4-3-0.4-4.7c0-7.8,3.2-14.2,7.2-14.2c3.8,0,6.9,5.9,7.1,13.3
			c0.6-0.9,0.9-1.8,0.9-2.8v-39.5C474.1,357.1,467.6,353.4,459.5,353.4z"/>
		<path d="M392.9,353.6h-20.8c-8.1,0-14.7,3.7-14.7,8.3v39.5c0,4.6,6.6,8.3,14.7,8.3h4.1c0-0.3,0-0.5,0-0.8c0-5.3,2.2-9.7,4.9-9.7
			c2.7,0,4.9,4.3,4.9,9.7c0,0.3,0,0.5,0,0.8h6.8c-0.3-1.5-0.4-3-0.4-4.7c0-7.8,3.2-14.2,7.2-14.2c3.8,0,6.9,5.9,7.1,13.3
			c0.6-0.9,0.9-1.8,0.9-2.8v-39.5C407.6,357.3,401,353.6,392.9,353.6z"/>
		<path d="M293.9,353.4h-20.8c-8.1,0-14.7,3.7-14.7,8.3v39.5c0,4.6,6.6,8.3,14.7,8.3h4.1c0-0.3,0-0.5,0-0.8c0-5.3,2.2-9.7,4.9-9.7
			c2.7,0,4.9,4.3,4.9,9.7c0,0.3,0,0.5,0,0.8h6.8c-0.3-1.5-0.4-3-0.4-4.7c0-7.8,3.2-14.2,7.2-14.2c3.8,0,6.9,5.9,7.1,13.3
			c0.6-0.9,0.9-1.8,0.9-2.8v-39.5C308.6,357.1,302,353.4,293.9,353.4z"/>
		<path d="M227.4,353.1h-20.8c-8.1,0-14.7,3.7-14.7,8.3v39.5c0,4.6,6.6,8.3,14.7,8.3h4.1c0-0.3,0-0.5,0-0.8c0-5.3,2.2-9.7,4.9-9.7
			s4.9,4.3,4.9,9.7c0,0.3,0,0.5,0,0.8h6.8c-0.3-1.5-0.4-3-0.4-4.7c0-7.8,3.2-14.2,7.2-14.2c3.8,0,6.9,5.9,7.1,13.3
			c0.6-0.9,0.9-1.8,0.9-2.8v-39.5C242,356.8,235.5,353.1,227.4,353.1z"/>
	</g>
</g>
</svg>
