<?xml version="1.0" encoding="utf-8"?>
<!-- Generator: Adobe Illustrator 19.2.1, SVG Export Plug-In . SVG Version: 6.00 Build 0)  -->
<svg version="1.1" id="Layer_1" xmlns="http://www.w3.org/2000/svg" xmlns:xlink="http://www.w3.org/1999/xlink" x="0px" y="0px"
	 viewBox="0 0 100 125" style="enable-background:new 0 0 100 125;" xml:space="preserve">
<g>
	<path d="M89.2,23c-1.2-0.6-1.8-2.5-3.1-2.7c-1.3-0.2-3.8-0.1-4.2,2c-1.8,0.6-2.9,3.1-3.8,5.4c-1,2.3-1.2,7.8-2.1,10.7
		c-0.9,3-3.6,4.2-5.3,4.2c-0.4,0-1.3-0.2-2.4-0.6c0-0.3,0.1-0.6,0-0.8c-0.4,0-0.7,0.2-1.1,0.5c-0.3-0.1-0.7-0.2-1-0.3
		c0.1-0.3,0.3-0.7,0.2-1c-0.5,0.1-0.8,0.4-1.2,0.7c-0.3-0.1-0.7-0.2-1-0.3c0-0.5,0-1,0-1.5c-0.4,0-1,0.7-1.3,1c0,0,0,0,0,0
		c-0.3-0.1-0.6-0.2-1-0.3c0-0.3-0.1-0.5,0-0.8c0-0.3,0.1-0.5,0.1-0.8c-0.4,0-0.8,0.6-1.2,0.8c-0.1,0.1-0.2,0.2-0.4,0.3
		c-0.2-0.1-0.4-0.1-0.6-0.2c0.1-0.7,0.2-1.4,0.2-2.2c-0.3,0.1-0.5,0.4-0.7,0.7c-0.3,0.3-0.6,0.6-0.8,1c0,0.1-0.1,0.1-0.1,0.2
		c-0.1,0-0.3-0.1-0.4-0.1c0.1-0.6,0.2-1.4,0-1.8c-0.4,0.2-0.8,0.6-1.1,0.9c-0.1,0.1-0.2,0.4-0.4,0.6c-0.2,0-0.5-0.1-0.7-0.1
		c-0.1-0.7,0-1.4-0.3-1.9c-0.3,0.2-0.6,0.6-0.8,0.9c-0.1,0.1-0.3,0.6-0.5,0.9c-0.3,0-0.6,0-0.8,0c0-0.1,0-0.1,0-0.2
		c-0.2-0.6-0.3-1.3-0.3-1.9c-0.2,0.2-0.4,0.5-0.6,0.8c-0.1,0.2-0.4,1-0.6,1.5c-0.2,0-0.3,0-0.5,0.1c0-0.2-0.1-0.3-0.1-0.4
		c-0.2-0.6-0.5-1.3-0.8-1.8c-0.3,0.2-0.5,1.7-0.8,2.4c-0.2,0-0.3,0.1-0.5,0.1c-0.3-0.6-0.2-1.9-0.6-1.8c-0.4,0.1-0.5,1.2-0.6,1.5
		c0,0.1-0.1,0.4-0.1,0.6c-0.2,0.1-0.5,0.1-0.7,0.2C47,39,47,38,46.9,37.7c-0.1,0.6-0.4,1.1-0.6,1.6c0,0.1-0.1,0.2-0.2,0.5
		c-0.2,0.1-0.5,0.1-0.7,0.2c-0.3-0.5-0.6-1.4-0.6-1.5c-0.2,0.5-0.3,0.9-0.4,1.5c0,0.1,0,0.2,0,0.3c-0.3,0.1-0.5,0.2-0.8,0.3
		c-0.4-0.3-0.6-1-0.6-1.4c-0.2,0.5-0.1,1.1-0.2,1.6c-0.4,0.1-0.7,0.3-1.1,0.4c-0.4-0.2-0.5-0.8-0.6-1.2C40.9,40.4,41,41,41,41.5
		c-0.4,0.1-0.7,0.3-1,0.4c-0.3-0.3-0.6-0.6-0.6-1c0,0.1,0,0.3,0,0.4c0,0.3,0,0.5,0.1,0.8c-0.4,0.2-0.8,0.3-1,0.5
		c-0.2-0.1-0.5-0.3-0.6-0.5c0,0.2,0.1,0.5,0.2,0.7c-2.3,1.3-15.5,2.4-23.1,4.9c-7.6,2.5-8.4,8.1-5.9,10.1c2.5,2,7.8,1,13.1-0.8
		c5.4-1.8-2-1.1-3.2-0.7c-1.2,0.4-11,1.3-5.6-3.6c5.4-4.9,29.6-0.4,30.7-0.4c0,0,1.2,1.5,0.6,2.6c-0.7,1.1-3.3,6-2.8,8.1
		c1.2,0.3,3.9,0,3.9,0v0c0,0.5,0.1,0.9,0.2,1.2c0.4,1.4,2.9,1,4.7,1c1.8,0,0.1-1.6-0.4-2.3c-0.5-0.7,0.5-2.5,1.3-3.7
		c0.8-1.2,1.7-2.5,1.7-4.1c1.8,0.4,5,0.5,7.3,0.1C59.7,57,61,61,61.2,63.1c-0.6,1.7,0,1.9,3,2.1c3,0.2,2.9-1.3,1.6-2.3
		c-1.1-3.1-0.4-6,1.1-7.9c-0.2,2.5,2.9,7.3,3.6,8.1c0.7,0.8,4.5,1,5.5,0c1-1-1.7-1.8-1.7-1.8s-1.8-3.2-2.5-5.7
		c-0.7-2.5,1.4-5.4,1.4-5.4c2.7-1.3,4.5-3.8,6.4-6.7c1.9-2.9,1.4-12.3,2-14.2c0.6-1.9,2.7-2.5,6.2-2.1c1.1,0.1,1.9,0.1,2.6,0
		c0,0,0,0,0,0c0.1,0,0.2,0,0.2,0c0.2-0.1,0.5-0.2,0.5-0.4c0-0.3,0.5-0.1,0.8-0.3c0.3-0.3,0.4-0.7,0.4-1.2C92.2,24,90.4,23.6,89.2,23
		z M85.1,24.1c-0.4,0-0.8-0.3-0.8-0.8c0-0.4,0.3-0.8,0.8-0.8c0.4,0,0.8,0.3,0.8,0.8S85.6,24.1,85.1,24.1z"/>
</g>
</svg>
