<?xml version="1.0" encoding="utf-8"?>
<!-- Generator: Adobe Illustrator 19.2.1, SVG Export Plug-In . SVG Version: 6.00 Build 0)  -->
<svg version="1.1" id="Layer_1" xmlns="http://www.w3.org/2000/svg" xmlns:xlink="http://www.w3.org/1999/xlink" x="0px" y="0px"
	 viewBox="0 0 100 125" style="enable-background:new 0 0 100 125;" xml:space="preserve">
<path d="M29.5,53.3c0,0-0.9,4.4-0.9,5.7c0,0-1.8,3.5-1.8,4.6c0,0-1.5,4.7-3.7,7.5c0,0-1.1,1.1-1.1,1.8c0,0-4.6,3.8-1.6,6.6
	c0,0,2.2,0.7,3.8,0.2c0,0-0.9,0.2-1.8-0.7c0,0,2.9,0.2,4-0.9c0,0-1.1,0.2-1.8,0c0,0,2-1.5,2-4.2c0,0,0.5-0.4,2.6-2.7
	c2-2.4,5.7-4.6,6.8-9.7c0,0-0.2,6.4-0.5,7.9c-0.4,1.5-2.2,8.6,2.6,9.7c0,0,3.5-0.5,4.7-2.7c0,0-0.5,0.4-1.5,0.4c0,0,1.5-0.7,1.5-1.6
	s0-0.9,0-0.9S41.6,75,40.5,75c0,0,0.9-0.7,0.9-1.3c0,0-0.3,0.8-1.1,0.7c0,0-0.2-0.2-0.1-0.4c0.1-0.2,0.2-1.5-0.5-2.2
	c0,0-0.1-0.4,0.7-1.6s4.2-7.8,4.4-10c0.2-2.2,0-4.6,0-4.6s2.6,0.2,3.2,0.5c0.6,0.3,3.3,0.4,3.3,0.4s-2.1,3.5-1.4,8.8
	c0.7,5.3,1.6,6.5,0,7.5c-1.6,1.1-5.3,1.6-5.4,4.6c0,0,1-0.7,1.6-0.5c0,0-0.7,1.1-0.5,1.8c0,0,0-1,2.4-1.1c2.4,0,6.4-0.1,7.3-0.5
	c0.9-0.4,1.6-0.3,1.9-1.3c0.3-1-0.3-1.9-0.3-3.2c0-1.2,0.8-2.8,1-4c0.2-1.2,0-5.1-0.3-5.9c0,0,2.9-0.9,4-1.7c0,0,0.9,10.7,1.4,13.2
	c0,0,0.1,1-0.2,1.4c0,0-0.6,0.8-2.6,1.7c-2,0.9-2.2,2-2.2,2s2.2-0.5,2.6-0.3c0,0-0.9,0.7-0.7,1.7c0,0,0.8-1,1.5-1
	c0.7,0,5.8-0.8,6.8-0.6c1,0.1,2.4-0.2,2.4-1.3c0-1.1,0-5.2,0-5.2s0.9-3.5,0.9-5.3c0-1.8-0.7-4.2-0.7-4.2s7.2-4.1,8.6-6.7
	c0,0,6.8,8.6,8.8,12.1c2.1,3.4,5.1,4.4,5.4,4.5s0.6-1.2,0.4-1.9c-0.3-0.7-1-1.8-1-1.8l-0.8-2.3l-0.1-1c0,0-2.9-11.5-6.5-15.9
	c-3.6-4.4-6.4-7.7-7.1-8.7c-0.7-1-4.2-4.9-4.7-5.4c-0.5-0.5-4.4-2.6-8.6-2.7C61,33,58.6,32,57.7,32c-0.9,0-10.2,0.5-12.1,0.9
	s-4.9,0.2-5.8,0.5c-0.9,0.2-10.9,5.8-15.4,8.4c-4.5,2.7-7.9,4.2-10,5c-2.1,0.8-5.3,1.4-7,6.9c0,0-1.8,2.2-2.9,2.9
	c-1.1,0.7-0.9,2.2-0.9,3.5c0,0-1,1.9,0.3,3.1c1.4,1.2,1.4,2,2.7,1.5s3-2.3,4-2.2c1,0,4.6,0.1,7.1-3.3c0,0,1.3-1.5,2.8-1.6
	c1.5-0.1,2.4-1.4,2.7-1.9C23.5,55.2,28,52.9,29.5,53.3z"/>
</svg>
