<?xml version="1.0" encoding="utf-8"?>
<!-- Generator: Adobe Illustrator 19.2.1, SVG Export Plug-In . SVG Version: 6.00 Build 0)  -->
<svg version="1.1" id="Layer_1" xmlns="http://www.w3.org/2000/svg" xmlns:xlink="http://www.w3.org/1999/xlink" x="0px" y="0px"
	 viewBox="0 0 100 125" style="enable-background:new 0 0 100 125;" xml:space="preserve">
<path d="M89,23.4c-1.5-0.1-2.8,1-3,2.6c0,0.4-1.4,10.9-22.1,10.9c-0.1,0-18.2,0-18.2,0c-0.3,0-0.5,0-0.8,0l-8.9-15.3
	c-1.8-3-5.5-4.3-8.7-3l-14.6,5.9c-3.6,1.5-5.3,5.6-3.9,9.2c0,0,1.7,3.9,1.7,3.9c0.5,1.1,1.5,1.7,2.6,1.7c0.4,0,0.7-0.1,1-0.2
	l4.4-1.7l0.5,0.8c0.3,0.4,0.7,0.7,1.2,0.7c0.2,0,0.5-0.1,0.7-0.2c0.7-0.4,0.9-1.3,0.5-1.9l-0.2-0.4l1.3-0.5l0.5,0.8
	c0.3,0.4,0.7,0.7,1.2,0.7c0.2,0,0.5-0.1,0.7-0.2c0.7-0.4,0.9-1.3,0.5-1.9l-0.3-0.4l3.1-1.2c0.8-0.3,1.8,0.1,2.1,0.9
	c0.3,0.8-0.1,1.8-0.9,2.1c0,0-7.3,3-9.8,4c-0.3,0.1-0.5,0.5-0.4,0.9c0.2,0.4,0.4,1.1,0.8,1.9c0.6,1.4,2.2,2.1,3.7,1.6l7.7-3.1
	c0,0,3.9,6.5,5.2,8.8c1.3,2.3,3,4.3,5.4,5.3c0,0,0,3.8,0,3.8h-1.1c0-0.1-4.9-5.4-4.9-5.4c-1.1-1.1-2.8-1.2-4-0.2
	c-0.3,0.3-0.5,0.6-0.7,0.9c-0.5-0.3-1.2-0.2-1.6,0.3l-3.7,3.7c-0.5,0.6-0.5,1.4,0,2c0.3,0.3,0.6,0.4,1,0.4c0.4,0,0.7-0.1,1-0.4
	l0.8-0.8c0.1,0.3,0.2,0.5,0.4,0.7c0.3,0.3,0.6,0.4,1,0.4s0.7-0.1,1-0.4l1.7-1.7l2.2,2.3c0.5,0.5,1.1,0.9,1.7,0.9c2.5,0,6.2,0,8.5,0
	c1.4,0,2.4-1.4,2.4-2.8v-3.1h2.9v3.5c0,3.3,2.6,5.9,5.9,5.9h2v4.6c0,0-5.1,5-5.1,5l-1.7-0.8c-1.3-0.6-2.6,0-3.5,1
	c-0.4,0.5-3.6,3.8-3.6,3.8c-0.5,0.6-0.5,1.5,0.1,2c0.3,0.3,0.6,0.4,1,0.4c0.4,0,0.7-0.1,1-0.4l2-2.1c0.2,0.2,0.4,0.3,0.6,0.4
	c-0.3,0.6-0.3,1.3,0.2,1.7c0.3,0.3,0.6,0.4,1,0.4c0.4,0,0.7-0.1,1-0.4l0.5-0.5l1.1,0.5c0.4,0.2,0.8,0.2,1.1,0.2c0.7,0,1.5-0.3,2-0.8
	l1.8-1.8c0.1,0.1,0.2,0.2,0.4,0.3l0,0.1c-0.5,0.6-0.5,1.5,0.1,2c0.3,0.3,0.6,0.4,1,0.4c0.4,0,0.7-0.1,1-0.4l0.7-0.7l1.7,0.7
	c0.4,0.2,0.7,0.2,1.1,0.2c0.7,0,1.5-0.3,2-0.8l7.2-7.2c0.5-0.5,0.8-1.2,0.8-2V60.1c0-0.3,0-0.7-0.1-1c-0.6-2.4-2.3-4.3-4.7-4.8v-2.5
	c20.7-2.9,22.7-22.8,22.7-25.4C91.6,24.8,90.5,23.5,89,23.4z M16.2,29.8l-1.4,0.6c-0.1,0-0.2,0.1-0.3,0.1c-0.3,0-0.7-0.2-0.8-0.5
	c-0.2-0.4,0-1,0.5-1.1l1.4-0.6c0.4-0.2,1,0,1.1,0.5C16.8,29.1,16.6,29.6,16.2,29.8z M30,27.1c-1,0-1.9-0.8-1.9-1.9
	c0-1,0.8-1.9,1.9-1.9c1,0,1.9,0.8,1.9,1.9C31.9,26.2,31,27.1,30,27.1z M68.1,70.5l-4.9,4.9C63.1,75.4,62,75,62,75l1.4-1.4
	c0.5-0.5,0.8-1.2,0.8-2V66c0,0,3.9,0,3.9,0L68.1,70.5L68.1,70.5z"/>
</svg>
