<svg id="Layer_2" data-name="Layer 2" xmlns="http://www.w3.org/2000/svg" viewBox="0 0 78.11 37.46"><title>pointy</title><path d="M526.23,176.85c-2.19-1.36-.38-5.43.27-7.17a6.47,6.47,0,0,0,.36-2.6,5.47,5.47,0,0,0-1.79-.62c-0.71-.22-1.59,1-2.29,1.34s-2.34.69-2.7,1.42a6.6,6.6,0,0,0-.91,1.83c-0.18.9,1,1.4,1.25,2a31.81,31.81,0,0,1-3.72.16c-1.2,0-1.44-.24-1.93-1.41-0.2-.44-0.33-2.36-0.63-2.36-0.7,0-1.78.87-2.41,1.2a35,35,0,0,1-5.53,2.46,61.5,61.5,0,0,1-11.59,2.54c-0.52.06-4.81,0.63-4.63-.17,0.08-.43,2.63-0.35,3.15-0.7-0.32-.43-1-1-0.94-1.56a11.17,11.17,0,0,1,1.73,1.25c0.26,0,1.53-.16,1.25-0.63,0-.69-1.27-1.17-1.1-2l1,0.92c0.64,0.56.48-.07,1-0.48,0,0.31-.19,1.82.5,1.49a4,4,0,0,0,1.86-1.16,17.57,17.57,0,0,1,.93-2c0.46,0.06,0,1.56,0,1.71a1.08,1.08,0,0,0,.55-0.86c0.18-.44.88-0.1,1.24-0.17a2.49,2.49,0,0,0,1.66-1.32c0.4-.73.41-0.61,1.24-0.61a0.84,0.84,0,0,0,.75-0.42c0.5-.5,1.47-1.14,1.63-1.86a7.87,7.87,0,0,1-.15-1.57c0.06-.32,1.26-0.15,1.47-0.15,0.86,0,0-2.15.93-2.34,1.29-.26,2-0.28,2.86-1.34,0.64-.81-0.26-0.55-0.26-1.39a6.24,6.24,0,0,1,.09-1.78c0.13-1.44.62-1.23,1.88-1.23,0-1.71-.18-2,1.56-2h2.24c0.26,0,1.32-1.4.67-1.62-1.06-.37-1.28-0.48-1.42-1.59a9.61,9.61,0,0,0-.31-2.35c-0.17-.48-0.93-1.6-0.59-2.12s3.44-.08,4-0.08c0-.58-0.36-3,0.32-3.14a3.91,3.91,0,0,1,2,.17,30.68,30.68,0,0,1,4,1.56c0-1.66,1.13-3.09,1.29-4.72,0.08-.94-0.08-2.53,1.22-1.48,0.71,0.57,1.34,1.24,2,1.84a12,12,0,0,0,1.74,1.17c0.74,0.46.86,0.34,1.45-.45s1.17-1.94,2.1-2.29c1.14-.43,1.39,1.54,1.66,2.21,0.42,1.05,2.48-1.81,2.87-.23,0.22,0.9,1,2.46.61,3.38a0.7,0.7,0,0,0,.88.88c0.75-.55,1.48-1.14,2.2-1.73,0.25-.24.73-0.61,1-0.26a1.34,1.34,0,0,0,1.29.26v4.37a5.92,5.92,0,0,0,.77.67c0.71,0.6.56,0.26,1.23-.18a2.78,2.78,0,0,1,1.49-.49s1,0.51,1,.47c0.41,1-.51,2.77,0,3.36a2.08,2.08,0,0,0,1.56.89c0.56-.09,1.61-1,2.17-0.52s0.19,1.37.19,2a1.3,1.3,0,0,0,.81.64c0.29,0.14,1.3-.74,1.78-0.76,0,0.89-.2,1.36.76,1.61,0.4,0.1,1.08-.39,1.37,0a1.41,1.41,0,0,1,.3.83,7.21,7.21,0,0,0,1,.41c0.31,0.11,1.09-.25,1.22,0a2,2,0,0,0,1.53.87,18.56,18.56,0,0,1,3.68,1.45,2.24,2.24,0,0,1,1.18.92c0.14,0.81-1.46.64-1.85,0.61-1.5-.09-3-0.33-4.5-0.33-3.25,0-7.32.09-10,2.25-1.3,1.07-2.47,2.33-3.69,3.5-0.39.37,0.3,2,.41,2.4s0.5,0.74.61,1.24c0.2,0.92-1.17.68-1.8,0.69-1,0-1.81-.4-1.93.74a1.8,1.8,0,0,0,0,1,1.38,1.38,0,0,1,.42.71c0,0.66-3.27.48-3.65,0.36-1.41-.43-0.6-1-0.6-1.92,0.27-1.72-.15-3.78.79-5.34a29.1,29.1,0,0,0-4,.71,10.59,10.59,0,0,1-2.72,0,13.23,13.23,0,0,0-1.5-.09,4.14,4.14,0,0,0-.21,1.12c-0.37,1.9-2.22,2.9-3.11,4.53-1,1.89.87,2.06,0.87,3.63-1.83,0-3.65-.08-5.47-0.18" transform="translate(-489.99 -139.58)"/></svg>