<svg id="Layer_2" data-name="Layer 2" xmlns="http://www.w3.org/2000/svg" viewBox="0 0 99.4 42.58"><title>sharpGuy</title><path d="M302.87,116.57A7.05,7.05,0,0,0,303,115a13.86,13.86,0,0,1-6-.12,2.77,2.77,0,0,1-2.17-2.69c0-.78.84-3.35-0.64-3.35,0,1.35-.13,2.7-0.16,4.05a27,27,0,0,0,.61,3.66c0,0.12.16,1.23-.19,1.23-0.62,0-.58-0.39-1,0.17s-1-1-1.51,0-1.39-.85-2.2.11c-0.63.75-1.56-.45-2.16-0.84-1.3-.84-1.28-1.68-1.28-3a5.15,5.15,0,0,0-.74-3.21c-1.12-1.68-1.56-.93-3,0a39.71,39.71,0,0,1-8,4.31,20.33,20.33,0,0,1-8,1c-2.38-.13-6.6-0.43-6.6-3.57,1,0.35,1.71,1.06,2.65,1.44a4.54,4.54,0,0,0,3.17-.25,13.63,13.63,0,0,0,6.09-4.76c1-1.4,1.82-2.91,2.72-4.36,2.63-4.24,5.3-8.38,7.52-12.85,0.92-1.84,1.67-3.89,3.44-5.09a42.57,42.57,0,0,1,6.7-3.67,24.49,24.49,0,0,1,15.85-1.4,35.44,35.44,0,0,1,6.17,2.12,10.06,10.06,0,0,0,2.82.9C318.29,85,318.61,84,319,83s0.72-.69,1.21-1.19c0.48-.3.22-0.95,0.86-1.07a1,1,0,0,0,.93-0.73c0.28-.68,1.19-0.51,1.75-1a7.11,7.11,0,0,1,2.94-1.64c0.93-.25,1.82-0.92,2.75-0.61,0.58,0.19,1-.64,1.59-0.24a1,1,0,0,0,1-.1c0.49-.17.91,0.27,1.4,0.27,0,1.08-.8,2.43-1.11,3.45a15.11,15.11,0,0,0-.75,4.45,11.8,11.8,0,0,0,.52,3.89c0.57,1.61,2.06,1,3.43.93,7.07-.6,14.26-0.94,21-3.41-0.17.83-1.45,1.63-2.18,2,1.69,0.13,3.35-1.17,5-1.2,0,0.89-2.44,1.83-3.06,2.13A25.05,25.05,0,0,1,351,90.8c-1.43.33-2.9,0.55-4.34,0.81a76,76,0,0,0-10.55,2.21c-0.72.5-.14,0.95,0.6,1.4,0.86,0.7,1.83,1.28,2.75,1.9a5.82,5.82,0,0,0,3.6.91c0.6,0,3.1-.56,3.38-0.1,0.61,1-1.18,2.59-1.18,3.64,0,1.47.73,3,.34,4.41-0.33,1.28-1.08,3.43-2.45,3.94-1,.39-0.29-2-1.66-2.33,0.58,1.12-1,1.21-1.8,1.21-1.81,0-3.18-1.27-4.78-1.92s-3.14-.35-4.67-0.73c-1.13-.28-2.14-1.86-3.31-1.75-0.61.3-1.63,0.5-1.79,1.2a18.52,18.52,0,0,1,.4,2.16c0,0.9-.22,1.76-0.22,2.66a4.73,4.73,0,0,0,.74,2.57c0.12,0.23,1,2.24-.12,1.39,0.07,0.73-.76.34-1.07,0.22-0.77-.27-0.83.69-1.59,0.41a5.6,5.6,0,0,0-1.71-.63c-0.43,1.13-1.05.73-2,.34a1.76,1.76,0,0,1-1.16-2.37,3.47,3.47,0,0,0-1.09-3.3c-2.05-2.2-4-.76-6.18.51-0.54.32-1.91,0.84-2.2,1.42,0,0.55,0,1.1,0,1.65a4.44,4.44,0,0,0,.65,2.57c0.55,0.82,1.84,2.27.71,3.06-0.78.54-.69-0.11-1.44-0.11-0.4,0-.15.83-0.69,0.83s-0.92-.6-1.52-0.6a0.84,0.84,0,0,0-.48.54c-0.27.33-1.07-.13-1.34-0.26-0.69-.34-2.22-1.09-2-2.07" transform="translate(-259.94 -76.44)"/></svg>