<?xml version="1.0" encoding="utf-8"?>
<!-- Generator: Adobe Illustrator 19.2.1, SVG Export Plug-In . SVG Version: 6.00 Build 0)  -->
<svg version="1.1" id="Layer_1" xmlns="http://www.w3.org/2000/svg" xmlns:xlink="http://www.w3.org/1999/xlink" x="0px" y="0px"
	 viewBox="0 0 612 990" style="enable-background:new 0 0 612 990;" xml:space="preserve">
<style type="text/css">
	.st0{display:none;}
	.st1{display:inline;}
	.st2{font-family:'Arial-BoldMT';}
	.st3{font-size:30.6006px;}
</style>
<g class="st0">
	<g class="st1">
		<g class="st0">
			<g class="st1">
				<path d="M514.1,453l-18,0l0-36l18,0c14.9,0,27-12.1,27-27v-72c0-14.9-12.1-27-27-27h-18v-36h18c34.7,0,63,28.3,63,63v72
					C577.1,424.7,548.8,453,514.1,453L514.1,453z"/>
				<path d="M0,580.5c0,24.9,20,45,44.6,45h522.7c24.7,0,44.6-20.1,44.6-45H0z"/>
				<path d="M260.4,79.2c20.2,60.6-32,76.7-32,76.7l-0.2,0.4c0.5-0.9,12.6-22.1-1.9-65.7c-20.2-60.6,32-76.7,32-76.7l0.2-0.4
					C257.9,14.4,245.8,35.6,260.4,79.2z"/>
				<path d="M323.1,79.2c20.2,60.6-32,76.7-32,76.7l-0.2,0.4c0.5-0.9,12.6-22.1-1.9-65.7c-20.2-60.6,32-76.7,32-76.7l0.2-0.4
					C320.6,14.4,308.5,35.6,323.1,79.2z"/>
				<path d="M385.8,79.2c20.2,60.6-32,76.7-32,76.7l-0.2,0.4c0.5-0.9,12.6-22.1-1.9-65.7c-20.2-60.6,32-76.7,32-76.7l0.2-0.4
					C383.3,14.4,371.2,35.6,385.8,79.2z"/>
				<path d="M135.1,192.1V480c0,39.8,32.2,72,72,72H405c39.8,0,72-32.2,72-72V192.1H135.1z M422.9,471c0,5-4,9-9,9c-5,0-9-4-9-9
					V237.1c0-5,4-9,9-9c5,0,9,4,9,9V471z"/>
			</g>
			<text transform="matrix(1 0 0 1 -9.765625e-04 717.3037)" class="st1 st2 st3">Created by Olivier Guin</text>
			<text transform="matrix(1 0 0 1 -9.765625e-04 747.9063)" class="st1 st2 st3">from the Noun Project</text>
		</g>
		<g>
			<g>
				<path d="M361.8,194.5c-2.8,0-5-2.2-5-5v-19.2c0-2.8-2.2-5-5-5h-309c-2.8,0-5,2.2-5,5v19.2c0,2.8,0,5.2,0,5.5s0,2.7,0,5.5v10.3
					c0,2.8,2.2,5,5,5h294.4c2.8,0,5,2.2,5,5V240c0,2.8,2.2,5,5,5h231.5c2.8,0,5,2.2,5,5v280.5c0,2.8,2.2,5,5,5h4.6c2.8,0,5-2.2,5-5
					v-331c0-2.8-2.2-5-5-5H361.8z"/>
			</g>
			<path d="M564.7,258H333.3c-2.8,0-5-2.2-5-5v-19.2c0-2.8-2.2-5-5-5h-309c-2.8,0-5,2.2-5,5V253c0,2.8,0,5.2,0,5.5
				c0,0.3,0,2.7,0,5.5v330c0,2.8,2.2,5,5,5h30.8c2.8,0,5-0.3,5-0.6c0,0,0,0,0-0.3c0-26.3,16.5-47.6,36.8-47.6
				c20.3,0,36.8,21.3,36.8,47.6c0,0.3,0,0.3,0,0.3c0,0.3,2.2,0.6,5,0.6h318.3c2.8,0,5-0.3,5-0.6c0,0,0,0,0-0.3
				c0-26.3,16.5-47.6,36.8-47.6s36.8,21.3,36.8,47.6c0,0.3,0,0.3,0,0.3c0,0.3,2.2,0.6,5,0.6h34.3c2.8,0,5-2.2,5-5V263
				C569.7,260.3,567.5,258,564.7,258z M183.5,466.9h-132c0-0.1,0-0.2,0-0.4c0-36,17.4-66.8,42-79.1c-8.4-7.2-13.8-17.9-13.8-29.8
				c0-21.7,17.6-39.2,39.2-39.2s39.2,17.6,39.2,39.2c0,12.4-5.8,23.5-14.8,30.7c23.6,12.9,40.2,43.1,40.2,78.2
				C183.5,466.7,183.5,466.8,183.5,466.9z M265.1,395.5v-8.9c0-2.8,2.2-5,5-5h106c2.8,0,5,2.2,5,5v8.9c0,2.8-2.2,5-5,5h-106
				C267.3,400.5,265.1,398.2,265.1,395.5z M536.7,439.8c0,2.8-2.2,5-5,5h-172c-2.8,0-5-2.2-5-5v-6.3c0-2.8,2.2-5,5-5h172
				c2.8,0,5,2.2,5,5V439.8z M536.7,395.5c0,2.8-2.2,5-5,5H403.1c-2.8,0-5-2.2-5-5v-8.9c0-2.8,2.2-5,5-5h128.6c2.8,0,5,2.2,5,5V395.5
				z M540.5,347.4c0,2.8-2.2,5-5,5H270.1c-2.8,0-5-2.2-5-5v-6c0-2.8,2.2-5,5-5h265.4c2.8,0,5,2.2,5,5L540.5,347.4L540.5,347.4z"/>
		</g>
	</g>
	<g class="st1">
		<g>
			<path d="M48.7,555.1c0,3.3,2.7,6,6,6h78c3.3,0,6-2.7,6-6V228.5c0-3.3-2.7-6-6-6h-78c-3.3,0-6,2.7-6,6
				C48.7,228.5,48.7,555.1,48.7,555.1z"/>
		</g>
		<g>
			<path d="M154.7,555.1c0,3.3,2.7,6,6,6h78c3.3,0,6-2.7,6-6V308.5c0-3.3-2.7-6-6-6h-78c-3.3,0-6,2.7-6,6V555.1z"/>
		</g>
		<g>
			<path d="M260.7,555.1c0,3.3,2.7,6,6,6h78c3.3,0,6-2.7,6-6V356.5c0-3.3-2.7-6-6-6h-78c-3.3,0-6,2.7-6,6V555.1z"/>
		</g>
		<g>
			<path d="M367.2,555.1c0,3.3,2.7,6,6,6h78c3.3,0,6-2.7,6-6V420.5c0-3.3-2.7-6-6-6h-78c-3.3,0-6,2.7-6,6V555.1z"/>
		</g>
		<g>
			<path d="M479.7,472.5c-3.3,0-6,2.7-6,6v83.9c0,3.3,2.7,6,6,6h78c3.3,0,6-2.7,6-6v-83.9c0-3.3-2.7-6-6-6H479.7z"/>
		</g>
		<path d="M599.7,561.8c0-4.2-4.6-7.7-10.2-7.7H22.9c-5.6,0-10.2,3.4-10.2,7.7V586c0,4.2,4.6,7.7,10.2,7.7h566.7
			c5.6,0,10.2-3.4,10.2-7.7L599.7,561.8L599.7,561.8z"/>
		<g>
			<path d="M559,383.8c3.3,0.2,4.8-2,3.3-5l-42.9-86.3c-1.5-3-4.2-3.1-6-0.4l-17,25.6c-1.8,2.7-5.6,3.6-8.4,1.9l-143.1-87.4
				c-2.8-1.7-5.1-3.5-5.1-3.9c0-0.4-0.5-0.7-1.2-0.8c-0.7,0-1.4-0.1-1.7-0.3c-0.2-0.1-0.5-0.1-0.6,0s-2.8,0.2-6.1,0.1l-45-1
				c-3.3-0.1-8.4-1.4-11.2-3l-210-116.3c-2.9-1.6-6.6-0.5-8.2,2.3l-6.3,11.4c-1.6,2.9-0.5,6.6,2.3,8.2L266,247.6
				c2.9,1.6,5.2,3,5.2,3.2s0.2,0.3,0.5,0.3c0.3,0,0.7,0.1,0.9,0.2s0.4,0.1,0.5,0s2.8-0.1,6.1,0l44.7,1c3.3,0.1,8.3,1.5,11.1,3.3
				l139.1,84.9c2.8,1.7,3.6,5.4,1.8,8.1l-15.7,23.7c-1.8,2.7-0.6,5.2,2.7,5.4L559,383.8z"/>
		</g>
	</g>
</g>
<g class="st0">
	<circle class="st1" cx="307" cy="299.2" r="284"/>
</g>
<g>
	<g>
		<circle cx="478.1" cy="67.3" r="7.7"/>
		<circle cx="517.7" cy="67.3" r="7.7"/>
		<g>
			<path d="M498.3,100.3c17.3,19.6,45.8,12.2,62,5.7c-2.7-27.5-27.8-52.5-27.8-52.5C382,10.1,369.5,86.6,369.5,86.6
				c31.9,250.9-131.2,284-131.2,284c-76.2,46.9-209.9-84.4-209.9-84.4c91.3,196.2,383.8,207.6,383.8,207.6c3.5-0.9,6.8-1.9,10.1-2.8
				c216.2-64-10.1-234.4-10.1-234.4c-20-63.9,47.4-84.4,47.4-84.4c74.5-8.9,98-32.6,100.7-56.4C498.3,130.1,498.3,100.3,498.3,100.3
				z M513.2,56c6.5,0,11.8,5.3,11.8,11.8c0,6.5-5.3,11.8-11.8,11.8c-6.5,0-11.7-5.3-11.7-11.8C501.4,61.3,506.7,56,513.2,56z
				 M160.4,397.8c-3.9,0-7-3.1-7-7c0-3.9,3.1-7,7-7c3.9,0,7,3.1,7,7C167.4,394.7,164.3,397.8,160.4,397.8z M232,419.6
				c-4.9,0-9-4-9-9s4-9,9-9c4.9,0,9,4,9,9S237,419.6,232,419.6z M254.6,397.5c-7.6,0-13.7-6.1-13.7-13.7c0-7.6,6.1-13.7,13.7-13.7
				c7.6,0,13.7,6.1,13.7,13.7S262.2,397.5,254.6,397.5z M288.6,371.8c-3.2,0-5.7-2.6-5.7-5.7c0-3.2,2.6-5.7,5.7-5.7
				c3.2,0,5.7,2.6,5.7,5.7C294.4,369.2,291.8,371.8,288.6,371.8z M334.8,401.7c-9.8,0-17.8-8-17.8-17.8c0-9.8,8-17.8,17.8-17.8
				c9.9,0,17.8,8,17.8,17.8C352.7,393.7,344.7,401.7,334.8,401.7z M347.8,338.2c-9.8,0-17.8-8-17.8-17.8c0-9.9,8-17.8,17.8-17.8
				c9.9,0,17.8,8,17.8,17.8C365.6,330.2,357.6,338.2,347.8,338.2z M374.5,295.6c-4.9,0-9-4-9-9c0-4.9,4-9,9-9s9,4,9,9
				C383.5,291.5,379.5,295.6,374.5,295.6z M473.8,79.5c-6.5,0-11.8-5.3-11.8-11.8S467.3,56,473.8,56c6.5,0,11.8,5.3,11.8,11.8
				S480.3,79.5,473.8,79.5z"/>
			<path d="M374.4,160.8c0,0-45.6-52.5-46.8,9.4c0,0,1.2,32.8,46.8,7.5C420.1,152.4,374.4,160.8,374.4,160.8z"/>
			<path d="M368.8,223.7c0,0-55.6-63.9-57,11.4c0,0,1.4,39.9,57,9.1C424.4,213.5,368.8,223.7,368.8,223.7z"/>
			<path d="M296.9,345.4c0,0-13.5-57.4-38.8-11.5c0,0-12.1,25.1,32.2,24.1C334.5,357.1,296.9,345.4,296.9,345.4z"/>
			<path d="M190.6,380.6c0,0,27.3-41.6-15.5-30.5c0,0-22.4,7.2,3.9,33.7C205.2,410.4,190.6,380.6,190.6,380.6z"/>
			<path d="M136.4,369.1c0,0,40.7-17.4,3.4-30.2c0,0-20.1-5.7-13.7,26.9C132.6,398.4,136.4,369.1,136.4,369.1z"/>
			<path d="M104.6,346.5c0,0,28.1-12.1,2.4-20.9c0,0-13.9-3.9-9.4,18.6C102,366.7,104.6,346.5,104.6,346.5z"/>
			<path d="M375.2,103.5c0,0-23.6-52.8-39.5-3.9c0,0-7,26.4,35.5,17.3C413.5,107.9,375.2,103.5,375.2,103.5z"/>
			<path d="M387.8,64.1c0,0,5.5-45-25-18.6c0,0-15.4,14.9,16.8,26C411.8,82.6,387.8,64.1,387.8,64.1z"/>
			<path d="M413.6,44.5c0,0,24.6-23.9-5.9-22.8c0,0-16.1,1.5-2.5,23.3C419,66.7,413.6,44.5,413.6,44.5z"/>
			<g>
				<path d="M328.3,319.2c0-10.2,8.1-18.6,18.3-19c-5.3-17.5-23.9-65.7-54.2-10.7c0,0-15.5,32.2,36.5,34.5
					C328.6,322.4,328.3,320.8,328.3,319.2z"/>
				<path d="M365.4,313.2c0.6,1.9,1,3.9,1,6c0,0.6,0,1.2-0.1,1.8C371.7,318.8,369.7,315.9,365.4,313.2z"/>
			</g>
			<path d="M241.4,383.7c0-3.9,1.8-7.4,4.6-9.7c-0.5-0.8-0.8-1.3-0.8-1.3s26.2-52.8-22.6-33.6c0,0-25.3,11.6,9.4,39.1
				c3.8,3,6.9,5.3,9.5,7C241.5,384.7,241.4,384.2,241.4,383.7z"/>
			<path d="M352.9,441h-27c-10.5,0-19,4.8-19,10.8v73.6c0,5.9,8.5,10.8,19,10.8h5.4c0-0.3,0-0.7,0-1c0-6.9,2.8-12.5,6.3-12.5
				s6.3,5.6,6.3,12.5c0,0.4,0,0.7,0,1h8.8c-0.3-1.9-0.5-3.9-0.5-6c0-10.1,4.2-18.4,9.3-18.4c4.9,0,9,7.6,9.3,17.3
				c0.7-1.1,1.1-2.4,1.1-3.6v-73.6C371.9,445.8,363.4,441,352.9,441z"/>
			<path d="M429.6,441h-27c-10.5,0-19,4.8-19,10.8v73.6c0,5.9,8.5,10.8,19,10.8h6.5c0-0.2,0-0.5,0-0.7c0-6.9,2.8-12.5,6.3-12.5
				s6.3,5.6,6.3,12.5c0,0.3,0,0.5,0,0.7h7.9c0.3,0,0.6,0,0.9,0c-0.3-1.8-0.5-3.7-0.5-5.7c0-10.1,4.2-18.4,9.3-18.4
				c4.5,0,8.3,6.3,9.1,14.8c0.1-0.5,0.2-0.9,0.2-1.4v-73.6C448.6,445.8,440.1,441,429.6,441z"/>
		</g>
	</g>
</g>
</svg>
