<?xml version="1.0" encoding="utf-8"?>
<!-- Generator: Adobe Illustrator 19.2.1, SVG Export Plug-In . SVG Version: 6.00 Build 0)  -->
<svg version="1.1" baseProfile="tiny" id="Layer_1" xmlns="http://www.w3.org/2000/svg" xmlns:xlink="http://www.w3.org/1999/xlink"
	 x="0px" y="0px" viewBox="0 0 299 300" xml:space="preserve">
<g transform="translate(0.000000,300.000000) scale(0.100000,-0.100000)">
	<path id="node1" fill="#0A0A0A" d="M1639,2322c-48-31-119-105-119-125c0-6,9-27,20-45s20-35,20-37c0-3-22-5-50-5c-51,0-61,8-35,30
		c28,23,17,57-36,110c-27,27-69,60-92,71l-41,22l-27-32c-14-18-38-56-53-85c-22-43-26-61-20-91c3-20,13-39,20-42c21-8,17-30-6-36
		c-13-3-26,3-38,21c-17,22-27,26-100,30l-80,4l-11-38c-16-56-14-119,4-134c33-27,16-35-66-31l-81,3l4-63c2-35,6-71,8-79
		c4-12-6-16-41-18l-46-3l8-42c9-52,6-57-36-57c-37,0-47-14-32-48c13-28,2-40-23-24c-29,18-32,15-28-25c3-40-11-53-32-28
		c-20,24-33,18-27-14c8-39-8-51-68-51c-67,0-141-36-188-91c-61-71-76-160-24-145c12,4,54,13,92,21c39,8,99,22,135,30s81,14,100,15
		c20,0,68,9,108,20c80,22,108,25,117,10c12-19-15-86-55-133c-32-39-38-52-30-67c26-49,93-64,155-34c36,17,54,53,56,108
		c0,17,9,54,18,81c16,44,22,50,44,48c14-1,46-11,72-22l45-20v-70c0-78-9-92-64-111c-42-14-54-42-32-75c14-22,24-25,75-25
		c50,0,64,4,96,30c59,47,67,65,82,178c13,100,13,107-6,145l-20,40l45-7c27-3,77,1,125,10c44,9,81,15,83,13c4-4,10-187,7-222
		c0-10-20-35-42-56c-33-30-40-42-34-60c14-44,105-66,176-42c49,16,84,82,92,171c3,36,9,73,13,83c9,24,33,18,58-16l21-28l-22-17
		c-27-21-40-67-23-87s109-20,138,1c38,26,64,90,60,148c-1,28,0,54,3,56c4,3,28-9,55-26c180-115,333-164,515-164c140,0,248,31,283,81
		c19,27,13,39-20,39c-24,0-32,14-15,24c14,9,34,104,27,132c-9,35-20,24-45-46c-12-33-26-60-31-60c-12,0-29,55-37,117
		c-6,57-22,66-34,19c-8-29,4-127,21-172c6-14,10-27,10-30c0-2-20-4-45-4c-51,0-53,5-30,70c21,60,18,170-5,170c-4,0-12-32-19-72
		c-14-88-44-158-66-158c-20,0-50,66-65,148c-7,34-16,62-20,62c-19,0-29-62-19-116c6-31,9-58,7-59c-6-6-91,35-110,52
		c-22,19-23,33-4,33c14,0,24,33,18,62c-4,23-44,33-71,18c-26-13-27-3-4,44c20,43,8,62-43,72c-40,7-41,12-14,56c11,18,20,38,20,45
		c0,6-24,20-52,31c-29,11-54,26-56,35c-2,8,11,36,27,63c38,59,39,88,5,111c-33,21-129,30-149,13c-25-21-39,0-15,25
		c21,22,42,87,55,171c6,36,3,44-17,58c-28,20-55,20-137,0c-90-23-111-38-111-81c0-33-1-35-27-28c-45,11-49,22-20,53
		c43,45,33,118-27,190C1712,2357,1696,2358,1639,2322z"/>
</g>
</svg>
