<?xml version="1.0" encoding="utf-8"?>
<!-- Generator: Adobe Illustrator 19.2.1, SVG Export Plug-In . SVG Version: 6.00 Build 0)  -->
<svg version="1.1" id="Layer_1" xmlns="http://www.w3.org/2000/svg" xmlns:xlink="http://www.w3.org/1999/xlink" x="0px" y="0px"
	 viewBox="0 0 100 125" style="enable-background:new 0 0 100 125;" xml:space="preserve">
<path d="M91.8,68c-0.6-1.2-24.4,10.2-30.1-4c-6.5-16.3-6.7-44.7-8.5-49.6S49-0.8,30.3,3.6C12.4,7.8,6.5,12.8,8.6,18.7
	c0.1,0.6,0.1,1.1,0.2,1.6c0.4,1.5,1.1,1.9,1.6,0.9c0.5-1.1,1.3-0.8,1.9,0.6c0.6,1.4,1.2,1.2,1.5-0.5s1.2-1.7,2,0.1
	c0.8,1.7,1.8,1.6,2.2-0.2c0.4-1.8,1.4-2.2,2.2-0.8c0.8,1.4,2.1,1.3,2.9-0.2c0.2-0.4,0.4-0.6,0.6-0.8h1.2c0.1,0.2,0.2,0.4,0.3,0.8
	c0.4,1.5,1.2,1.7,1.9,0.5c0.2-0.3,0.2-0.8,0-1.3l7.4-0.1l-7.3,3.5c-1.2-0.8-2.1-0.7-2.1,0.3c0,1.2-0.9,1.2-2,0.1s-1.6-0.6-1.2,1.1
	c0.1,0.5,0.1,0.8,0.1,1l-0.8,0.4c-0.3-0.1-0.7-0.3-1.1-0.7c-1.4-1.3-2.3-0.8-2,1c0.1,0.5,0.1,0.8,0.1,1.2l-1.4,0.7
	c-0.1-0.1-0.3-0.1-0.4-0.3c-1.3-1-2.5-0.6-2.6,0.9c-0.1,0.5-0.2,0.8-0.4,1l-0.7,0.3c-0.3,0-0.6-0.2-0.9-0.5c-0.9-1-1.8-0.4-1.9,1.2
	c-0.1,0.9,0.7,1.6,1.9,1.8c0.8,0.5,2.2,0.8,4.4,0.8c5.2-0.2,9.9-2.2,12.5-0.2c0.9,0.7,1.4,7.6,1.4,16.4c-0.1,0.1-0.3,0.3-0.4,0.5
	c-1.7,1.7-4.1,1.3-6.1,1.9c-0.9,0.3-1.9,0.6-2.9,1.1c-0.8,0.4-1.9,0.7-2.3,1.5c-0.3,0.6-0.3,1.6-0.1,2.2c0.1,0.3,0.6,1.2,0.9,1
	c0.3-0.1,0.3-0.9,0.4-1.2c0.6-0.1,0.5,1,0.9-0.2c0.2-0.6,0.1-0.9,0.8-1.1c1.2-0.4,2.7,0,3.9,0.1c0.7,0.1,1.4,0.1,2,0.1
	c0.4,0,1.1-0.1,1.3,0.2c0.6,0.8-1.2,1.6-1.6,2c-0.9,0.8-1.6,1.8-2.3,2.7c-0.4,0.6-1.1,1.4-1.1,2.2c0,0.5,0.6,1.7,0.9,2
	c0.5,0.4,0.8,0.6,1,0.1c0.1-0.3-0.1-0.3,0.1-0.6c0-0.1,0.5,0,0.6,0c0.2-0.6-0.6-1-0.5-1.6c0.2-0.8,1.4-1.3,2-1.6
	c0.4-0.2,1.6-0.8,2-0.5c0.1,0,0.1,0.1,0.2,0.2c-0.3,13.9-1.4,28.1-3.2,29.5c-3.4,2.7-5.3,3.2-3.8,4.8l6.6-0.2c0,0-0.6-12,8.1-12.8
	C46.3,81,44,93.9,44,93.9s-6.4,1.5-4.5,3.6l7.8-0.3c0,0-2.1-16.6,15.4-17.7C77.3,78.5,92.4,69.1,91.8,68z M35.1,10.6
	c-0.6,0-1.2-0.5-1.2-1.1s0.5-1.2,1.1-1.2s1.2,0.5,1.2,1.1C36.3,10,35.8,10.6,35.1,10.6z"/>
</svg>
