<?xml version="1.0" encoding="utf-8"?>
<!-- Generator: Adobe Illustrator 19.2.1, SVG Export Plug-In . SVG Version: 6.00 Build 0)  -->
<svg version="1.1" id="Layer_1" xmlns="http://www.w3.org/2000/svg" xmlns:xlink="http://www.w3.org/1999/xlink" x="0px" y="0px"
	 viewBox="0 0 100 125" style="enable-background:new 0 0 100 125;" xml:space="preserve">
<path d="M1.8,70.4l0.4-27.1C1.8,35,3.9,27.4,12.6,23.6c15.8-7,32-12.9,48.7-17.2C69.7,4.3,77.8,4,86,7.2c5.6,2.1,9.1,5.9,10.8,11.5
	c1.7,5.7,1.9,11.6,1.4,17.5c-0.1,0.6-35.9,12.2-35.9,12.2s25.9,12.6,26.1,13c1.9,3.7-0.3,8.4-4.3,9.1c-1.1,0.2-2.3,0.3-3.4,0.3
	c-10.5,0.3-21-0.5-31.5-1.3c-3.1-0.3-6.3-0.5-9.8-0.8c-0.9,6.7-1.8,13.3-2.7,20.1c0.6-0.3,1-0.4,1.4-0.6c4.1-1.9,8.3-3.8,12.3-5.8
	c2.8-1.4,5.6-1.8,8.6-1.6c5.8,0.2,9.7,4.4,9.5,10.3c-2.9-2.5-5-8.2-10-5.6c-4.4,2.3-3.7,7.2-1.8,8.4c-2.5,1.2-4.5,0.7-5.7-1.6
	c-0.7-1.2-1.1-2.5-1.8-3.8C44.5,90.6,33.8,96.3,33,97 M38,21.4c-2.4,0-4.4,2.1-4.4,4.6c0,2.4,2.1,4.5,4.4,4.5c2.4,0,4.4-2.1,4.4-4.6
	S40.5,21.4,38,21.4z"/>
</svg>
